<svg width="121" height="35" viewBox="0 0 121 35" fill="none" xmlns="http://www.w3.org/2000/svg">
<rect width="120.48" height="34.65" rx="6" fill="black"/>
<path d="M24.4003 18.0552C24.4116 17.1687 24.647 16.2996 25.0846 15.5286C25.5221 14.7576 26.1476 14.1098 26.9028 13.6455C26.4225 12.9611 25.7893 12.3981 25.0536 12.001C24.3178 11.604 23.4996 11.3838 22.664 11.3579C20.8804 11.1705 19.1511 12.4281 18.2432 12.4281C17.3164 12.4281 15.9179 11.3792 14.4107 11.4099C13.4361 11.4414 12.4862 11.7249 11.6538 12.2328C10.8214 12.7406 10.1347 13.4555 9.66079 14.3077C7.60318 17.8638 9.13792 23.0901 11.1065 25.962C12.094 27.3699 13.2413 28.9417 14.7469 28.8866C16.2203 28.8259 16.7707 27.9479 18.548 27.9479C20.3087 27.9479 20.8261 28.8866 22.3616 28.8535C23.9428 28.8283 24.9381 27.4361 25.8878 26.0187C26.5953 25.0158 27.1395 23.9073 27.5005 22.7342C26.5814 22.3455 25.7971 21.6946 25.2457 20.8629C24.6942 20.0312 24.3999 19.0555 24.3995 18.0575L24.4003 18.0552Z" fill="white"/>
<path d="M21.4945 9.46274C22.3542 8.42943 22.7779 7.10201 22.6757 5.76172C21.3588 5.89991 20.1422 6.52913 19.2684 7.52403C18.8412 8.01008 18.514 8.5756 18.3055 9.18823C18.097 9.80085 18.0113 10.4486 18.0534 11.0943C18.7131 11.1011 19.3658 10.9577 19.9619 10.675C20.5581 10.3923 21.0822 9.97779 21.4945 9.46274Z" fill="white"/>
<path d="M49.6849 26.4676H47.6273L46.4997 22.9241H42.5789L41.5049 26.4676H39.5L43.3837 14.4062H45.7823L49.6849 26.4676ZM46.1579 21.4366L45.1381 18.2868C45.0284 17.965 44.8258 17.2072 44.5302 16.0134H44.494C44.3754 16.5263 44.1832 17.2841 43.9176 18.2868L42.916 21.4366H46.1579Z" fill="white"/>
<path d="M59.6699 22.0096C59.7401 23.29 59.3101 24.5476 58.4706 25.5169C58.1335 25.8876 57.7209 26.1817 57.2605 26.3795C56.8002 26.5773 56.3028 26.6741 55.8019 26.6634C55.3169 26.7024 54.8306 26.6079 54.3954 26.3903C53.9603 26.1726 53.593 25.8401 53.3333 25.4287H53.297V30.0109H51.3646V20.63C51.3646 19.6971 51.3407 18.7425 51.293 17.766H52.9923L53.1002 19.1449H53.1364C53.4293 18.6965 53.8229 18.3228 54.2858 18.0535C54.7487 17.7841 55.2681 17.6266 55.8026 17.5935C56.3371 17.5604 56.872 17.6526 57.3646 17.8627C57.8572 18.0728 58.2939 18.3951 58.6399 18.8039C59.3596 19.7127 59.7255 20.8516 59.6699 22.0096ZM57.7012 22.0805C57.7306 21.3394 57.5292 20.6075 57.1248 19.9859C56.9385 19.7134 56.6868 19.4921 56.3928 19.342C56.0989 19.1919 55.772 19.1179 55.442 19.1267C54.9675 19.1262 54.5081 19.2935 54.1451 19.5992C53.7574 19.9153 53.4891 20.3542 53.3844 20.8434C53.3314 21.0355 53.3013 21.2332 53.2947 21.4324V22.8829C53.2784 23.4717 53.4864 24.0448 53.8766 24.4861C54.0647 24.6999 54.2979 24.8694 54.5593 24.9824C54.8207 25.0954 55.1039 25.1491 55.3885 25.1397C55.7196 25.1533 56.0487 25.0835 56.3457 24.9365C56.6426 24.7895 56.8979 24.5702 57.0878 24.2987C57.5236 23.6427 57.7388 22.8648 57.702 22.0781L57.7012 22.0805Z" fill="white"/>
<path d="M69.68 22.0099C69.7507 23.2905 69.3204 24.5484 68.48 25.5172C68.1432 25.8876 67.731 26.1815 67.271 26.3792C66.8111 26.5768 66.3142 26.6736 65.8137 26.663C65.3287 26.7022 64.8422 26.6078 64.407 26.3902C63.9718 26.1725 63.6045 25.8398 63.345 25.4283H63.3088V30.0104H61.3724V20.6295C61.3724 19.6967 61.3486 18.742 61.3008 17.7656H63.0001L63.108 19.1444H63.1442C63.4372 18.6959 63.8309 18.322 64.2939 18.0526C64.7569 17.7832 65.2765 17.6256 65.8112 17.5925C66.3459 17.5594 66.8809 17.6516 67.3736 17.8619C67.8664 18.0721 68.3032 18.3945 68.6493 18.8034C69.3686 19.7128 69.7347 20.8517 69.68 22.0099ZM67.7114 22.0808C67.7408 21.3398 67.5394 20.6079 67.135 19.9862C66.9486 19.7138 66.697 19.4924 66.403 19.3423C66.1091 19.1923 65.7822 19.1183 65.4522 19.1271C64.9775 19.1265 64.5178 19.2939 64.1545 19.5995C63.7669 19.9159 63.4988 20.3551 63.3946 20.8445C63.3406 21.0384 63.3094 21.2379 63.3017 21.439V22.8895C63.2859 23.4795 63.4944 24.0536 63.8852 24.4959C64.0738 24.7098 64.3073 24.8793 64.5691 24.9923C64.8309 25.1053 65.1145 25.159 65.3995 25.1495C65.7302 25.162 66.0588 25.0912 66.3551 24.9436C66.6513 24.7959 66.9057 24.5762 67.0948 24.3046C67.5321 23.648 67.7481 22.8688 67.7114 22.0808Z" fill="white"/>
<path d="M80.866 23.083C80.8819 23.5535 80.7943 24.0218 80.6094 24.4547C80.4245 24.8877 80.1468 25.2748 79.7958 25.5886C78.8717 26.3403 77.6988 26.7172 76.5098 26.6446C75.4172 26.6966 74.3325 26.436 73.3828 25.8934L73.8309 24.283C74.6736 24.7951 75.6426 25.0618 76.6287 25.0532C77.2358 25.0894 77.8369 24.915 78.3304 24.5594C78.5275 24.4027 78.685 24.202 78.7905 23.9733C78.8959 23.7446 78.9463 23.4944 78.9375 23.2428C78.9426 23.0137 78.9008 22.786 78.8147 22.5737C78.7286 22.3613 78.5999 22.1689 78.4367 22.0081C77.9512 21.5852 77.3833 21.2674 76.7688 21.075C74.6564 20.2875 73.6004 19.1355 73.6009 17.6188C73.5886 17.1544 73.6822 16.6932 73.8746 16.2702C74.067 15.8473 74.3531 15.4737 74.7112 15.1777C75.5457 14.5104 76.5954 14.1712 77.6626 14.2241C78.6084 14.1922 79.5479 14.39 80.4006 14.8005L79.9179 16.3754C79.2073 15.9993 78.4129 15.8096 77.6091 15.8242C77.035 15.7897 76.4684 15.968 76.0176 16.325C75.8633 16.4617 75.7403 16.63 75.657 16.8184C75.5737 17.0069 75.5321 17.2112 75.5349 17.4172C75.5301 17.6432 75.5774 17.8672 75.673 18.072C75.7685 18.2768 75.9099 18.4569 76.0861 18.5984C76.6168 18.9992 77.208 19.3129 77.8374 19.5276C78.7039 19.8331 79.4879 20.3349 80.1281 20.9938C80.6257 21.5748 80.888 22.3208 80.8636 23.0853L80.866 23.083Z" fill="white"/>
<path d="M87.255 19.2184H85.1249V23.4415C85.1249 24.5155 85.5008 25.0523 86.2526 25.0518C86.5413 25.058 86.8297 25.0279 87.1109 24.962L87.1644 26.429C86.6799 26.5873 86.1715 26.6598 85.662 26.6432C85.331 26.6617 84.9999 26.609 84.691 26.4886C84.3821 26.3683 84.1026 26.1831 83.8713 25.9455C83.3774 25.2688 83.1482 24.4346 83.2272 23.6005V19.2168H81.957V17.7671H83.2264V16.1741L85.1249 15.5977V17.7639H87.2558V19.2168L87.255 19.2184Z" fill="white"/>
<path d="M96.8685 22.0453C96.9152 23.2477 96.506 24.4233 95.7228 25.3369C95.3199 25.7764 94.826 26.1226 94.2754 26.3514C93.7248 26.5802 93.1309 26.686 92.5352 26.6614C91.9646 26.6865 91.3955 26.5858 90.8683 26.3663C90.3411 26.1468 89.8687 25.8139 89.4846 25.3912C88.7129 24.5066 88.3064 23.3618 88.3475 22.1886C88.2991 20.9767 88.7186 19.7925 89.5192 18.8813C89.9205 18.45 90.4109 18.1112 90.9564 17.8886C91.5018 17.666 92.0892 17.5649 92.6777 17.5923C93.2523 17.5686 93.8252 17.67 94.3568 17.8895C94.8884 18.1089 95.366 18.4411 95.7566 18.8632C96.5197 19.7444 96.9174 20.8838 96.8685 22.0485V22.0453ZM94.8629 22.1075C94.8842 21.3849 94.7048 20.6705 94.3447 20.0436C94.1823 19.7254 93.9338 19.4592 93.6276 19.2751C93.3213 19.0911 92.9696 18.9967 92.6124 19.0026C92.249 18.9924 91.8901 19.0846 91.5767 19.2687C91.2632 19.4528 91.0079 19.7213 90.8398 20.0436C90.4765 20.6838 90.2974 21.412 90.3225 22.1477C90.301 22.8701 90.4804 23.5843 90.8406 24.2108C91.0103 24.527 91.2629 24.791 91.5713 24.9744C91.8797 25.1578 92.2322 25.2537 92.591 25.2519C92.9499 25.25 93.3014 25.1504 93.6079 24.9638C93.9143 24.7772 94.1642 24.5106 94.3306 24.1927C94.6994 23.5618 94.8848 22.8405 94.866 22.1099L94.8629 22.1075Z" fill="white"/>
<path d="M103.152 19.4705C102.951 19.4342 102.748 19.4163 102.544 19.417C102.238 19.4029 101.933 19.4661 101.658 19.6007C101.382 19.7353 101.145 19.9369 100.969 20.1871C100.631 20.6945 100.462 21.2955 100.486 21.9045V26.4718H98.5543L98.5724 20.5123C98.5724 19.5096 98.5483 18.5967 98.5 17.7736H100.184L100.254 19.4375H100.308C100.489 18.8929 100.823 18.4121 101.27 18.0531C101.674 17.7508 102.165 17.5872 102.67 17.5869C102.831 17.5862 102.993 17.598 103.152 17.6224V19.4705Z" fill="white"/>
<path d="M111.793 21.7054C111.798 21.9992 111.774 22.2927 111.722 22.5818H105.923C105.911 22.9516 105.979 23.3195 106.125 23.6597C106.27 23.9999 106.488 24.304 106.764 24.5505C107.302 24.9713 107.972 25.1869 108.654 25.1584C109.455 25.1689 110.251 25.0292 111.001 24.7465L111.304 26.0852C110.38 26.4628 109.388 26.6456 108.39 26.6223C107.807 26.6544 107.224 26.5653 106.677 26.3605C106.13 26.1557 105.631 25.8397 105.212 25.4324C104.818 25.0029 104.513 24.4993 104.315 23.9508C104.118 23.4023 104.031 22.82 104.06 22.2377C104.018 21.053 104.399 19.8918 105.135 18.9627C105.497 18.5064 105.961 18.1418 106.49 17.8987C107.019 17.6555 107.598 17.5407 108.18 17.5634C108.735 17.5331 109.288 17.6459 109.787 17.8909C110.285 18.136 110.713 18.505 111.028 18.9627C111.56 19.7759 111.827 20.7341 111.793 21.7054ZM109.95 21.2046C109.976 20.6832 109.845 20.1662 109.575 19.7195C109.415 19.4582 109.188 19.2452 108.916 19.1033C108.645 18.9615 108.34 18.896 108.035 18.9139C107.733 18.9086 107.435 18.9777 107.167 19.1151C106.899 19.2524 106.669 19.4538 106.497 19.7013C106.166 20.1372 105.966 20.6584 105.92 21.2038H109.946L109.95 21.2046Z" fill="white"/>
<path d="M45.5251 7.7677C45.5574 8.21569 45.4879 8.66518 45.3218 9.08248C45.1557 9.49979 44.8973 9.87408 44.5659 10.1773C43.841 10.717 42.948 10.9818 42.0461 10.9246C41.5818 10.9286 41.1177 10.9049 40.6562 10.8537V5.02659C41.1975 4.94173 41.7447 4.90039 42.2926 4.90296C43.131 4.84163 43.9637 5.0818 44.6408 5.58016C44.9426 5.85527 45.1791 6.19446 45.3328 6.57285C45.4865 6.95124 45.5535 7.35924 45.529 7.76691L45.5251 7.7677ZM44.5234 7.79369C44.5428 7.50546 44.5044 7.21626 44.4104 6.94309C44.3164 6.66993 44.1688 6.41831 43.9761 6.20304C43.7594 6.00775 43.5055 5.85826 43.2296 5.76354C42.9537 5.66881 42.6615 5.63082 42.3705 5.65182C42.114 5.64783 41.8577 5.6684 41.6051 5.71324V10.1403C41.8183 10.1626 42.0326 10.1713 42.2469 10.1663C42.5541 10.1859 42.862 10.1422 43.1516 10.0379C43.4412 9.9336 43.7063 9.77091 43.9305 9.55994C44.1407 9.31865 44.3012 9.03818 44.4027 8.73466C44.5042 8.43114 44.5447 8.11055 44.5218 7.79133L44.5234 7.79369Z" fill="white"/>
<path d="M50.8317 8.69789C50.855 9.28903 50.6539 9.86711 50.2687 10.3161C50.0711 10.532 49.8288 10.7021 49.5587 10.8146C49.2886 10.927 48.9972 10.9792 48.7048 10.9673C48.4242 10.9801 48.1441 10.9309 47.8847 10.8231C47.6253 10.7153 47.3928 10.5516 47.2039 10.3437C46.8251 9.90841 46.6258 9.34544 46.6464 8.76877C46.6225 8.17281 46.8289 7.59053 47.2228 7.14268C47.4207 6.9307 47.6625 6.7644 47.9312 6.65533C48.1999 6.54627 48.4891 6.49706 48.7788 6.51114C49.0612 6.4995 49.3427 6.54922 49.604 6.65689C49.8653 6.76456 50.1001 6.92761 50.2923 7.1348C50.6634 7.56883 50.8561 8.12739 50.8317 8.69789ZM49.8442 8.72861C49.8541 8.37324 49.7659 8.02203 49.5891 7.71358C49.5094 7.55713 49.3873 7.42621 49.2368 7.33572C49.0863 7.24523 48.9134 7.19881 48.7379 7.20174C48.5593 7.19662 48.3828 7.24183 48.2287 7.33219C48.0745 7.42256 47.9489 7.55445 47.8662 7.71279C47.6875 8.02679 47.5992 8.38408 47.611 8.74514C47.6011 9.10051 47.6894 9.45172 47.8662 9.76017C47.9491 9.91719 48.074 10.0481 48.2269 10.1383C48.3798 10.2286 48.5548 10.2746 48.7324 10.2712C48.9087 10.2727 49.082 10.2249 49.2326 10.133C49.3831 10.0412 49.505 9.90902 49.5844 9.7515C49.7674 9.44199 49.8599 9.08731 49.8513 8.72782L49.8442 8.72861Z" fill="white"/>
<path d="M57.955 6.60059L56.6164 10.8741H55.7454L55.1895 9.01806C55.0513 8.56385 54.9364 8.10285 54.8454 7.63687H54.8281C54.7462 8.10476 54.6315 8.5663 54.4847 9.01806L53.8965 10.8741H53.0161L51.7617 6.60059H52.7374L53.2201 8.63221C53.3371 9.11255 53.434 9.5698 53.5106 10.0039H53.528C53.5988 9.64697 53.7164 9.19261 53.8807 8.64087L54.4902 6.60137H55.2643L55.8454 8.59756C55.9861 9.08421 56.1003 9.55326 56.188 10.0047H56.214C56.2857 9.53083 56.3827 9.06111 56.5045 8.59756L57.0227 6.60137H57.955V6.60059Z" fill="white"/>
<path d="M62.8787 10.8709H61.9283V8.42353C61.9283 7.66915 61.6414 7.29196 61.0676 7.29196C60.9367 7.28855 60.8067 7.31517 60.6877 7.36977C60.5687 7.42436 60.4637 7.5055 60.3809 7.60694C60.2069 7.81086 60.1131 8.07121 60.1171 8.33927V10.8701H59.1675V7.81877C59.1675 7.44342 59.1559 7.03578 59.1328 6.59586H59.9683L60.0124 7.2644H60.0384C60.1546 7.05193 60.3249 6.87398 60.5321 6.74862C60.7905 6.58874 61.089 6.50545 61.3928 6.50845C61.5759 6.50285 61.7583 6.5342 61.929 6.60062C62.0998 6.66705 62.2554 6.7672 62.3866 6.89509C62.5618 7.08479 62.696 7.30854 62.781 7.5524C62.8659 7.79626 62.8997 8.055 62.8803 8.3125L62.8787 10.8709Z" fill="white"/>
<path d="M65.4957 10.8737H64.5508V4.63867H65.4957V10.8737Z" fill="white"/>
<path d="M71.0926 8.69795C71.1159 9.28909 70.9148 9.86716 70.5296 10.3162C70.332 10.532 70.0897 10.7021 69.8196 10.8145C69.5495 10.927 69.258 10.9792 68.9657 10.9674C68.6858 10.9795 68.4066 10.9299 68.148 10.822C67.8894 10.7141 67.6578 10.5505 67.4695 10.3429C67.0907 9.90768 66.8914 9.34471 66.912 8.76804C66.8881 8.17208 67.0945 7.5898 67.4884 7.14195C67.6859 6.93084 67.927 6.76516 68.1948 6.65639C68.4627 6.54762 68.7509 6.49835 69.0397 6.51199C69.3222 6.50033 69.6038 6.55005 69.8653 6.65772C70.1267 6.76538 70.3616 6.92844 70.554 7.13565C70.9263 7.56973 71.1199 8.12896 71.0957 8.70031L71.0926 8.69795ZM70.1051 8.72866C70.115 8.3733 70.0268 8.02208 69.85 7.71364C69.7706 7.55743 69.6489 7.42665 69.4989 7.33616C69.3488 7.24568 69.1763 7.19912 69.0011 7.20179C68.8225 7.19649 68.646 7.24162 68.4918 7.33201C68.3376 7.42239 68.212 7.55438 68.1294 7.71285C67.9508 8.02685 67.8625 8.38414 67.8743 8.7452C67.8644 9.10056 67.9527 9.45178 68.1294 9.76022C68.2123 9.91724 68.3372 10.0482 68.4902 10.1384C68.6431 10.2286 68.8181 10.2746 68.9956 10.2713C69.1719 10.2727 69.345 10.2247 69.4954 10.1329C69.6458 10.041 69.7675 9.90895 69.8468 9.75156C70.0295 9.44197 70.1212 9.08719 70.1114 8.72787L70.1051 8.72866Z" fill="white"/>
<path d="M75.6871 10.871H74.8343L74.7634 10.3773H74.7374C74.5939 10.5705 74.4049 10.7254 74.1872 10.8282C73.9695 10.9309 73.7298 10.9784 73.4893 10.9663C73.3088 10.9738 73.1287 10.9433 72.9608 10.8766C72.7928 10.81 72.6407 10.7088 72.5144 10.5796C72.4041 10.4636 72.3178 10.327 72.2605 10.1775C72.2032 10.028 72.1761 9.86873 72.1806 9.70872C72.1718 9.46854 72.2284 9.2305 72.3444 9.01999C72.4603 8.80947 72.6312 8.63437 72.8389 8.51336C73.4029 8.20751 74.042 8.06747 74.6823 8.1094V8.03066C74.6823 7.46789 74.3865 7.18651 73.7948 7.18651C73.4004 7.17859 73.0125 7.28823 72.6806 7.50149L72.4869 6.87783C72.9312 6.62007 73.439 6.49237 73.9523 6.5093C75.0695 6.5093 75.6286 7.09858 75.6296 8.27713V9.85203C75.6225 10.1942 75.6417 10.5365 75.6871 10.8757V10.871ZM74.6996 9.40555V8.74409C73.6497 8.72624 73.1247 9.01313 73.1247 9.60477C73.1175 9.6964 73.13 9.78851 73.1614 9.8749C73.1928 9.96129 73.2423 10.04 73.3066 10.1056C73.4345 10.2178 73.6005 10.2767 73.7704 10.2702C73.9806 10.2697 74.1847 10.2002 74.3516 10.0725C74.4593 9.99684 74.547 9.89607 74.6071 9.7789C74.6672 9.66174 74.6979 9.5317 74.6965 9.40003L74.6996 9.40555Z" fill="white"/>
<path d="M81.0896 10.8737H80.2502L80.2061 10.1871H80.1801C80.0549 10.4392 79.8576 10.6483 79.6132 10.7879C79.3687 10.9274 79.0883 10.991 78.8076 10.9706C78.5615 10.9745 78.3178 10.9218 78.0952 10.8167C77.8727 10.7116 77.6773 10.5568 77.524 10.3642C77.1698 9.91788 76.9889 9.35856 77.0145 8.78933C76.9855 8.18072 77.1818 7.58277 77.5657 7.10969C77.7278 6.9194 77.9298 6.76714 78.1573 6.6637C78.3849 6.56027 78.6324 6.50822 78.8824 6.51123C79.117 6.48769 79.3536 6.52943 79.5661 6.63183C79.7786 6.73424 79.9586 6.89334 80.0864 7.09158H80.1045V4.63867H81.0565V9.72167C81.0555 10.1359 81.0665 10.5199 81.0896 10.8737ZM80.1021 9.07123V8.35859C80.1042 8.2582 80.0955 8.15788 80.0761 8.05936C80.0257 7.8357 79.9054 7.63385 79.7328 7.48294C79.5581 7.32738 79.3313 7.24307 79.0973 7.24671C78.9337 7.24118 78.7713 7.27695 78.6252 7.35072C78.479 7.42448 78.3538 7.53387 78.2611 7.66878C78.0475 7.98777 77.9407 8.36637 77.9563 8.74995C77.9397 9.11536 78.0422 9.47628 78.2485 9.77836C78.3409 9.91201 78.4652 10.0205 78.6101 10.0941C78.755 10.1676 78.916 10.2039 79.0784 10.1997C79.2223 10.2043 79.3653 10.1749 79.4957 10.1139C79.6261 10.0528 79.7402 9.9619 79.8289 9.84845C80.0129 9.63034 80.1109 9.35256 80.1045 9.0673L80.1021 9.07123Z" fill="white"/>
<path d="M89.2137 8.69799C89.237 9.28912 89.0359 9.8672 88.6507 10.3162C88.4532 10.5321 88.2109 10.7023 87.9408 10.8148C87.6706 10.9273 87.3792 10.9794 87.0868 10.9674C86.8069 10.9793 86.5278 10.9295 86.2693 10.8216C86.0107 10.7137 85.7791 10.5503 85.5906 10.343C85.2118 9.90772 85.0125 9.34475 85.0331 8.76807C85.0092 8.17212 85.2156 7.58984 85.6095 7.14199C85.8073 6.93075 86.0486 6.76502 86.3167 6.65624C86.5848 6.54747 86.8734 6.49826 87.1624 6.51203C87.4445 6.50045 87.7258 6.55022 87.9868 6.65789C88.2478 6.76556 88.4824 6.92858 88.6743 7.13569C89.0469 7.56965 89.2408 8.12889 89.2168 8.70035L89.2137 8.69799ZM88.2262 8.7287C88.2361 8.37334 88.1478 8.02212 87.9711 7.71368C87.891 7.55698 87.7686 7.42592 87.6176 7.33542C87.4667 7.24493 87.2934 7.19864 87.1175 7.20183C86.9389 7.1969 86.7626 7.24219 86.6085 7.33253C86.4544 7.42288 86.3287 7.55466 86.2458 7.71289C86.0672 8.02689 85.9789 8.38418 85.9907 8.74524C85.9807 9.1006 86.069 9.45181 86.2458 9.76026C86.3292 9.91554 86.4534 10.0452 86.6049 10.1352C86.7565 10.2253 86.9297 10.2724 87.1059 10.2715C87.2822 10.2706 87.4549 10.2218 87.6055 10.1302C87.7561 10.0386 87.879 9.90771 87.9609 9.7516C88.144 9.44207 88.237 9.0875 88.2294 8.72791L88.2262 8.7287Z" fill="white"/>
<path d="M94.3177 10.8709H93.3728V8.42352C93.3728 7.66914 93.0841 7.29195 92.5066 7.29195C92.3758 7.28842 92.2459 7.31499 92.127 7.3696C92.0081 7.42421 91.9033 7.50541 91.8207 7.60693C91.6467 7.81084 91.5529 8.0712 91.5569 8.33926V10.8701H90.612V7.81876C90.612 7.4434 90.6007 7.03577 90.5781 6.59584H91.412L91.4561 7.26439H91.479C91.5957 7.05231 91.7659 6.87449 91.9727 6.74861C92.2328 6.58788 92.5332 6.50457 92.8389 6.50844C93.0219 6.5029 93.2041 6.53427 93.3747 6.6007C93.5453 6.66713 93.7008 6.76725 93.8319 6.89508C94.0072 7.08467 94.1416 7.3084 94.2266 7.55229C94.3115 7.79618 94.3452 8.05497 94.3256 8.31249L94.3177 10.8709Z" fill="white"/>
<path d="M100.716 7.30969H99.6701V9.3862C99.6701 9.91379 99.8559 10.1776 100.221 10.1776C100.364 10.1809 100.506 10.1661 100.644 10.1335L100.669 10.854C100.43 10.9328 100.179 10.9688 99.9276 10.9603C99.7657 10.9689 99.6039 10.9426 99.4529 10.8834C99.302 10.8242 99.1656 10.7333 99.0527 10.617C98.8099 10.2847 98.6977 9.87461 98.7377 9.46495V7.30969H98.1133V6.60099H98.7377V5.81354L99.6685 5.5332V6.60099H100.714V7.30969H100.716Z" fill="white"/>
<path d="M105.74 10.8737H104.795V8.44285C104.795 7.67482 104.509 7.29081 103.935 7.29081C103.731 7.28363 103.531 7.3456 103.366 7.46667C103.202 7.58774 103.083 7.7608 103.03 7.95778C102.999 8.06897 102.984 8.18408 102.986 8.29953V10.8721H102.031V4.63867H102.976V7.21442H102.994C103.126 6.99307 103.314 6.8111 103.54 6.68753C103.766 6.56396 104.021 6.50334 104.278 6.51202C104.459 6.50627 104.639 6.53761 104.807 6.60411C104.975 6.6706 105.128 6.77085 105.256 6.89866C105.428 7.09335 105.559 7.32054 105.642 7.56681C105.725 7.81309 105.758 8.07347 105.739 8.3326L105.74 10.8737Z" fill="white"/>
<path d="M110.931 8.53302C110.933 8.67739 110.921 8.82161 110.896 8.96375H108.047C108.041 9.14521 108.075 9.32577 108.146 9.49281C108.217 9.65984 108.324 9.80931 108.459 9.93074C108.724 10.1383 109.055 10.2443 109.392 10.23C109.785 10.235 110.176 10.1664 110.544 10.0276L110.693 10.6859C110.238 10.8714 109.749 10.9612 109.258 10.9497C108.971 10.9661 108.684 10.9225 108.414 10.8218C108.145 10.721 107.9 10.5653 107.694 10.3646C107.5 10.1538 107.35 9.90643 107.253 9.63696C107.156 9.36749 107.113 9.08133 107.128 8.79524C107.107 8.21327 107.294 7.64282 107.655 7.18647C107.833 6.9625 108.061 6.78365 108.321 6.66447C108.581 6.54529 108.866 6.48915 109.152 6.5006C109.424 6.48513 109.696 6.5401 109.941 6.66023C110.186 6.78037 110.396 6.9616 110.551 7.18647C110.815 7.58447 110.948 8.05543 110.931 8.53302ZM110.026 8.28576C110.039 8.02946 109.975 7.77511 109.841 7.55579C109.763 7.42788 109.651 7.3237 109.518 7.25436C109.385 7.18502 109.235 7.15312 109.085 7.16206C108.937 7.15982 108.791 7.19389 108.659 7.26129C108.528 7.3287 108.414 7.42738 108.329 7.5487C108.168 7.7644 108.07 8.02116 108.048 8.28969L110.026 8.28576Z" fill="white"/>
</svg>
