<svg width="17" height="14" viewBox="0 0 17 14" fill="none" xmlns="http://www.w3.org/2000/svg">
<mask id="mask0_1_1505" style="mask-type:luminance" maskUnits="userSpaceOnUse" x="0" y="0" width="17" height="14">
<path d="M17 0H0V13.3865H17V0Z" fill="white"/>
</mask>
<g mask="url(#mask0_1_1505)">
<path d="M13.3809 13.387H3.61908C3.58352 13.3741 3.547 13.3641 3.50987 13.357C2.73726 13.2647 2.00866 12.948 1.41425 12.4459C0.819838 11.9438 0.385706 11.2784 0.165589 10.5321C0.0944769 10.2847 0.0543496 10.0285 0 9.77627V3.6152C0.0126995 3.57934 0.0227166 3.54258 0.0299685 3.50523C0.144607 2.5467 0.604723 1.66283 1.32415 1.01913C2.04358 0.375439 2.97298 0.0160679 3.93832 0.00831802C6.97969 -0.00268736 10.0212 -0.00277202 13.0627 0.00806405C13.9372 0.0147053 14.785 0.310521 15.4738 0.849393C16.1626 1.38826 16.6538 2.13991 16.8707 2.98713C16.9238 3.19387 16.9573 3.40568 17 3.6152V9.77627C16.988 9.80628 16.9784 9.83719 16.9713 9.86871C16.7204 11.5365 15.7921 12.6482 14.2007 13.2018C13.9313 13.2795 13.6576 13.3414 13.3809 13.387ZM8.50622 1.32972C7.01762 1.32972 5.52902 1.32972 4.04041 1.32972C3.68288 1.32129 3.32734 1.38532 2.99521 1.51795C2.66308 1.65057 2.36123 1.84906 2.10785 2.10144C1.85447 2.35383 1.65479 2.65489 1.52086 2.9865C1.38692 3.3181 1.32149 3.67339 1.32852 4.03095C1.32716 5.80874 1.32716 7.58653 1.32852 9.36432C1.32203 9.72049 1.38744 10.0743 1.52084 10.4046C1.65424 10.7349 1.85288 11.0349 2.10488 11.2867C2.35689 11.5384 2.65708 11.7368 2.98751 11.8699C3.31794 12.003 3.67181 12.0681 4.02797 12.0612C7.01059 12.0633 9.9933 12.0633 12.9761 12.0612C13.3309 12.0674 13.6832 12.0023 14.0123 11.8697C14.3414 11.7371 14.6405 11.5397 14.8919 11.2893C15.1433 11.0389 15.3418 10.7406 15.4757 10.412C15.6095 10.0834 15.676 9.73129 15.6712 9.37652C15.6738 7.58789 15.6732 5.79918 15.6695 4.01038C15.6707 3.8284 15.6536 3.64675 15.6187 3.46815C15.5003 2.86008 15.1721 2.31291 14.6914 1.92216C14.2107 1.53141 13.608 1.32191 12.9885 1.33023C11.4944 1.32769 10.0002 1.32769 8.50622 1.33023" fill="#042463"/>
<path d="M8.51949 8.68355C7.64492 8.68605 6.79419 8.39854 6.10043 7.86602C5.04416 7.05509 3.99425 6.23604 2.94307 5.41851C2.87014 5.36671 2.80845 5.30069 2.76171 5.22442C2.71497 5.14815 2.68416 5.06322 2.67111 4.97472C2.65807 4.88623 2.66308 4.79601 2.68583 4.7095C2.70858 4.62299 2.7486 4.54198 2.80348 4.47135C2.85837 4.40072 2.92699 4.34193 3.00519 4.29851C3.0834 4.2551 3.16959 4.22797 3.25856 4.21875C3.34754 4.20953 3.43746 4.21841 3.52291 4.24486C3.60836 4.27131 3.68757 4.31478 3.75577 4.37266C4.76183 5.14913 5.76629 5.92797 6.76913 6.70918C7.24886 7.12429 7.86066 7.35513 8.49504 7.36039C9.12941 7.36564 9.74495 7.14498 10.2315 6.73788C11.2784 5.94211 12.3244 5.14515 13.3696 4.34701C13.4566 4.26939 13.5626 4.21609 13.6769 4.19246C13.7911 4.16884 13.9095 4.17574 14.0203 4.21246C14.131 4.24918 14.2301 4.31442 14.3076 4.40162C14.385 4.48882 14.4382 4.5949 14.4616 4.70917C14.4905 4.83703 14.4798 4.97065 14.4308 5.09224C14.3819 5.21384 14.297 5.31764 14.1876 5.38981L11.6962 7.28925C11.4325 7.49014 11.1704 7.69332 10.9043 7.89091C10.2152 8.40412 9.37943 8.68227 8.52025 8.68431" fill="#042463"/>
</g>
</svg>
