<svg width="15" height="15" viewBox="0 0 15 15" fill="none" xmlns="http://www.w3.org/2000/svg">
<path d="M14.1008 10.3928L11.0382 9.07987C10.9074 9.02414 10.762 9.0124 10.6239 9.04644C10.4859 9.08047 10.3626 9.15843 10.2727 9.26858L8.91643 10.9258C6.7879 9.92226 5.0749 8.20934 4.07126 6.08087L5.72846 4.72463C5.83882 4.63487 5.91694 4.51159 5.95099 4.37347C5.98504 4.23534 5.97317 4.08988 5.91717 3.95911L4.60424 0.896487C4.54273 0.755531 4.43398 0.640445 4.29673 0.571063C4.15948 0.501681 4.00232 0.482349 3.85235 0.516399L1.00785 1.1726C0.863373 1.20613 0.734515 1.28762 0.642288 1.40377C0.550061 1.51993 0.499906 1.66391 0.5 1.81223C0.499789 3.47847 0.827823 5.12843 1.46537 6.66788C2.10291 8.20732 3.03747 9.6061 4.21568 10.7843C5.39388 11.9625 6.79265 12.8971 8.33209 13.5346C9.87153 14.1722 11.5215 14.5002 13.1877 14.5C13.3361 14.5002 13.4801 14.45 13.5963 14.3578C13.7125 14.2656 13.7941 14.1367 13.8276 13.9921L14.4838 11.1484C14.5177 10.9977 14.498 10.8399 14.4281 10.7021C14.3582 10.5643 14.2424 10.4552 14.1008 10.3936V10.3928Z" stroke="#042463"/>
</svg>
