<svg width="15" height="15" viewBox="0 0 15 15" fill="none" xmlns="http://www.w3.org/2000/svg">
<g clip-path="url(#clip0_1_1522)">
<path d="M10.9362 8.98886C10.7481 8.89524 9.83172 8.44816 9.66125 8.38498C9.49079 8.32181 9.36557 8.29136 9.24064 8.47861C9.11571 8.66586 8.75885 9.08107 8.6507 9.20486C8.54256 9.32866 8.43272 9.33605 8.24688 9.25182C7.69571 9.03269 7.18724 8.71859 6.74458 8.3238C6.33732 7.94544 5.98791 7.50926 5.70756 7.02924C5.59885 6.8417 5.69561 6.73868 5.78895 6.64477C5.87433 6.55939 5.97706 6.42906 6.07069 6.31778C6.14415 6.22189 6.2064 6.11791 6.25624 6.00787C6.28114 5.9563 6.29276 5.89932 6.29002 5.84211C6.28729 5.7849 6.27029 5.72929 6.24058 5.68032C6.19363 5.58669 5.82054 4.66778 5.66431 4.30153C5.51433 3.93641 5.35981 3.98279 5.24427 3.98279C5.13669 3.9734 5.01233 3.9734 4.8874 3.9734C4.79364 3.97576 4.7013 3.9968 4.61578 4.03531C4.53026 4.07382 4.45329 4.12901 4.38938 4.19765C4.17904 4.39608 4.01224 4.63606 3.89957 4.90237C3.78689 5.16868 3.7308 5.4555 3.73485 5.74464C3.73485 6.6553 4.40361 7.53522 4.49667 7.66642C4.58973 7.78822 5.81229 9.66332 7.68398 10.4695C8.13021 10.6571 8.47768 10.7695 8.74889 10.8625C9.12953 10.9778 9.53163 11.0037 9.92392 10.9382C10.2828 10.8813 11.0284 10.4878 11.184 10.0469C11.3092 9.76781 11.3488 9.45784 11.2979 9.1562C11.2515 9.07082 11.1291 9.02501 10.9416 8.94049M7.53799 13.594H7.52803C6.41715 13.5922 5.3268 13.2944 4.36918 12.7314L4.14407 12.5976L1.79998 13.2069L2.42805 10.928L2.27864 10.6935C1.47788 9.40082 1.18021 7.85888 1.44225 6.36101C1.70429 4.86315 2.50776 3.51385 3.69983 2.56979C4.8919 1.62573 6.38939 1.15277 7.90745 1.24088C9.42551 1.32899 10.8582 1.97202 11.9331 3.04766C12.511 3.61866 12.9694 4.29903 13.2816 5.04908C13.5937 5.79914 13.7534 6.60385 13.7513 7.41627C13.7438 9.05802 13.0862 10.6299 11.9223 11.7879C10.7584 12.9458 9.18318 13.5955 7.54141 13.5945M12.8249 2.15578C11.408 0.773963 9.50723 0.000407324 7.52803 7.73474e-05C6.22053 -0.00588751 4.9346 0.333243 3.80009 0.983227C2.66558 1.63321 1.72265 2.57103 1.06652 3.702C0.410383 4.83297 0.0642775 6.11704 0.063145 7.42455C0.0620125 8.73207 0.405894 10.0167 1.06007 11.1488L0 15.0001L3.95938 13.9676C5.05591 14.5594 6.28202 14.8701 7.52803 14.872H7.53173C9.50714 14.8735 11.4026 14.0918 12.8025 12.6981C14.2025 11.3044 14.9927 9.41244 15 7.43704C15.0026 6.45971 14.8108 5.49162 14.4358 4.5891C14.0608 3.68658 13.51 2.86765 12.8156 2.17997" fill="#042463"/>
</g>
<defs>
<clipPath id="clip0_1_1522">
<rect width="15" height="15" fill="white"/>
</clipPath>
</defs>
</svg>
