<svg width="121" height="35" viewBox="0 0 121 35" fill="none" xmlns="http://www.w3.org/2000/svg">
<g clip-path="url(#clip0_302_479)">
<g clip-path="url(#clip1_302_479)">
<g clip-path="url(#clip2_302_479)">
<path d="M115.755 0.000976562H4.72471C2.11532 0.000976562 0 2.1163 0 4.72568V29.9241C0 32.5335 2.11532 34.6488 4.72471 34.6488H115.755C118.365 34.6488 120.48 32.5335 120.48 29.9241V4.72568C120.48 2.1163 118.365 0.000976562 115.755 0.000976562Z" fill="black"/>
<path fill-rule="evenodd" clip-rule="evenodd" d="M10.6322 6.52898C10.3512 6.87193 10.2105 7.3086 10.2385 7.7511V26.8948C10.2074 27.3361 10.3527 27.7717 10.6425 28.1059L10.7094 28.1642L21.4353 17.4383V17.2021L10.7008 6.4707L10.6322 6.52898Z" fill="white"/>
<path opacity="0.37" fill-rule="evenodd" clip-rule="evenodd" d="M25.0032 21.0224L21.4258 17.445V17.1946L25.0032 13.6172L25.0819 13.6645L29.3137 16.0693C30.5248 16.7513 30.5248 17.8804 29.3137 18.5695L25.0819 20.9744L25.0032 21.0224Z" fill="white"/>
<path opacity="0.792" fill-rule="evenodd" clip-rule="evenodd" d="M25.081 20.9776L21.4256 17.3223L10.6328 28.1151C10.8795 28.3315 11.1937 28.4556 11.5217 28.4662C11.8496 28.4768 12.1712 28.3734 12.4313 28.1734L25.081 20.9776Z" fill="white"/>
<path opacity="0.568" fill-rule="evenodd" clip-rule="evenodd" d="M25.081 13.6681L12.4313 6.48264C12.1723 6.27989 11.8503 6.17465 11.5215 6.18531C11.1927 6.19596 10.8782 6.32183 10.6328 6.54092L21.4256 17.3227L25.081 13.6681Z" fill="white"/>
<path opacity="0.2" fill-rule="evenodd" clip-rule="evenodd" d="M25.0029 20.8994L12.44 28.0368C12.1922 28.2284 11.8883 28.333 11.5752 28.3346C11.2621 28.3362 10.9572 28.2346 10.7076 28.0455L10.6406 28.1124L10.7076 28.1707C10.9574 28.3592 11.2623 28.4603 11.5752 28.4588C11.8882 28.4572 12.192 28.353 12.44 28.162L25.0896 20.9766L25.0029 20.8994Z" fill="white"/>
<path opacity="0.12" fill-rule="evenodd" clip-rule="evenodd" d="M29.3121 18.4461L24.9922 20.8991L25.0709 20.9778L29.3027 18.5729C29.5515 18.4646 29.7667 18.2915 29.9259 18.0717C30.085 17.8519 30.1823 17.5934 30.2075 17.3232C30.1593 17.5685 30.0528 17.7986 29.8969 17.994C29.7411 18.1895 29.5405 18.3445 29.3121 18.4461Z" fill="white"/>
<path opacity="0.25" fill-rule="evenodd" clip-rule="evenodd" d="M12.4321 6.60712L29.3135 16.1975C29.5423 16.3003 29.7435 16.4558 29.9008 16.6512C30.058 16.8466 30.1668 17.0765 30.2183 17.322C30.193 17.0518 30.0958 16.7933 29.9367 16.5735C29.7775 16.3537 29.5623 16.1806 29.3135 16.0723L12.4321 6.4819C11.221 5.78894 10.2383 6.36772 10.2383 7.75127V7.8765C10.2383 6.49058 11.2202 5.92204 12.4321 6.60712Z" fill="white"/>
<path d="M63.718 11.1054C63.3512 11.1142 62.9866 11.0463 62.6476 10.9061C62.3086 10.7659 62.0027 10.5564 61.7493 10.2912C61.4919 10.0293 61.2892 9.71882 61.1528 9.3779C61.0164 9.03697 60.9491 8.67235 60.9548 8.3052C60.9458 7.93785 61.0116 7.57254 61.1482 7.23142C61.2847 6.89029 61.4893 6.58049 61.7493 6.32083C62.002 6.05565 62.3072 5.84621 62.6456 5.70599C62.9839 5.56577 63.3479 5.49787 63.714 5.50661C64.0805 5.49948 64.4445 5.56812 64.7833 5.70823C65.1221 5.84834 65.4282 6.05689 65.6826 6.32083C66.1925 6.85553 66.4769 7.56599 66.4769 8.30481C66.4769 9.04363 66.1925 9.75409 65.6826 10.2888C65.4303 10.5556 65.1245 10.7662 64.7853 10.9069C64.4461 11.0476 64.0811 11.1152 63.714 11.1054H63.718ZM40.3984 11.1054C40.032 11.1108 39.6683 11.0426 39.3289 10.9046C38.9895 10.7666 38.6813 10.5617 38.4226 10.3022C38.0256 9.91199 37.754 9.41223 37.6426 8.86683C37.5311 8.32143 37.5849 7.75518 37.7971 7.24052C38.0092 6.72586 38.3701 6.2862 38.8335 5.97774C39.2969 5.66928 39.8417 5.50606 40.3984 5.50896C40.7777 5.50867 41.1529 5.58666 41.5007 5.7381C41.8236 5.86976 42.1111 6.07529 42.3402 6.33816L42.3922 6.40035L41.8071 6.9744L41.7464 6.90354C41.5806 6.70795 41.3717 6.55337 41.1362 6.45187C40.9007 6.35038 40.6449 6.30471 40.3889 6.31845C40.1378 6.31515 39.8887 6.36224 39.6562 6.45692C39.4237 6.5516 39.2125 6.69196 39.0352 6.86968C38.6691 7.25891 38.4652 7.77316 38.4652 8.30755C38.4652 8.84194 38.6691 9.35622 39.0352 9.74545C39.4039 10.1002 39.8957 10.2984 40.4074 10.2984C40.9191 10.2984 41.4108 10.1002 41.7795 9.74545C42.0083 9.4983 42.147 9.18118 42.1732 8.84539H40.2968V8.03826H42.9781L42.989 8.11148C43.0114 8.2456 43.0246 8.38111 43.0284 8.51703C43.0439 8.84551 42.9926 9.1737 42.8775 9.48176C42.7625 9.78982 42.5861 10.0713 42.3591 10.3093C42.1059 10.5714 41.8006 10.7776 41.4629 10.9147C41.1253 11.0518 40.7626 11.1168 40.3984 11.1054ZM71.4043 10.9912H70.5774L68.045 6.93898L68.0662 7.66895V10.9896H67.2394V5.62472H68.1844L68.2103 5.66567L70.5916 9.48243L70.5703 8.75484V5.62393H71.4058L71.4043 10.9912ZM57.505 10.9912H56.6655V6.43106H55.2127V5.62393H58.9546V6.43106H57.5018V10.9912H57.505ZM54.5315 10.9912H53.696V5.62393H54.5315V10.9912ZM49.836 10.9912H49.0004V6.43106H47.5476V5.62393H51.2888V6.43106H49.836V10.9912ZM47.0185 10.9825H43.8143V5.62787H47.0185V6.435H44.6522V7.90753H46.7878V8.70601H44.6522V10.1785H47.0185V10.9825ZM62.3643 9.73678C62.5398 9.91767 62.7503 10.0608 62.9831 10.1573C63.2159 10.2539 63.466 10.3018 63.718 10.2982C63.9703 10.3047 64.2212 10.2581 64.4544 10.1614C64.6876 10.0646 64.8979 9.91998 65.0716 9.73678C65.4268 9.34553 65.6236 8.83601 65.6236 8.30755C65.6236 7.77909 65.4268 7.26957 65.0716 6.87833C64.896 6.69762 64.6854 6.55463 64.4526 6.4581C64.2199 6.36156 63.9699 6.31352 63.718 6.31689C63.4658 6.31019 63.215 6.35674 62.982 6.45348C62.7491 6.55022 62.5391 6.69497 62.3659 6.87833C62.0111 7.26957 61.8143 7.77865 61.8135 8.30681C61.8128 8.83496 62.0082 9.34456 62.3619 9.73678H62.3643Z" fill="white"/>
<path fill-rule="evenodd" clip-rule="evenodd" d="M60.8792 18.4856C60.1513 18.4878 59.4404 18.7056 58.8362 19.1116C58.232 19.5176 57.7617 20.0935 57.4846 20.7666C57.2075 21.4397 57.1361 22.1798 57.2794 22.8935C57.4227 23.6072 57.7742 24.2623 58.2896 24.7763C58.8051 25.2903 59.4612 25.6401 60.1753 25.7814C60.8894 25.9227 61.6293 25.8492 62.3017 25.5703C62.974 25.2913 63.5486 24.8194 63.9529 24.2141C64.3572 23.6088 64.573 22.8972 64.5732 22.1693C64.5815 21.6824 64.4916 21.1988 64.3088 20.7474C64.1259 20.2961 63.854 19.8862 63.5092 19.5423C63.1644 19.1984 62.7537 18.9276 62.3019 18.7461C61.85 18.5645 61.3661 18.4759 60.8792 18.4856ZM60.8792 24.3915C60.4309 24.4239 59.9832 24.3206 59.5944 24.095C59.2057 23.8693 58.8939 23.5319 58.6996 23.1266C58.5054 22.7212 58.4377 22.2668 58.5054 21.8224C58.5731 21.378 58.7731 20.9643 59.0792 20.6352C59.3853 20.3061 59.7834 20.0768 60.2217 19.9771C60.66 19.8775 61.1182 19.9122 61.5365 20.0766C61.9549 20.2411 62.314 20.5277 62.5672 20.8991C62.8203 21.2706 62.9556 21.7096 62.9557 22.1591C62.9694 22.4429 62.9263 22.7267 62.8288 22.9936C62.7313 23.2605 62.5814 23.5052 62.3879 23.7134C62.1944 23.9215 61.9613 24.0889 61.7022 24.2056C61.4432 24.3223 61.1633 24.3861 60.8792 24.3931V24.3915ZM52.8197 18.4856C52.0918 18.4878 51.3808 18.7056 50.7766 19.1116C50.1725 19.5176 49.7021 20.0935 49.425 20.7666C49.148 21.4397 49.0765 22.1798 49.2198 22.8935C49.3631 23.6072 49.7147 24.2623 50.2301 24.7763C50.7455 25.2903 51.4017 25.6401 52.1158 25.7814C52.8298 25.9227 53.5698 25.8492 54.2421 25.5703C54.9145 25.2913 55.4891 24.8194 55.8933 24.2141C56.2976 23.6088 56.5135 22.8972 56.5136 22.1693C56.522 21.6824 56.432 21.1988 56.2492 20.7474C56.0664 20.2961 55.7945 19.8862 55.4496 19.5423C55.1048 19.1984 54.6942 18.9276 54.2423 18.7461C53.7904 18.5645 53.3066 18.4759 52.8197 18.4856ZM52.8197 24.3915C52.3714 24.4238 51.9237 24.3203 51.5351 24.0946C51.1464 23.8688 50.8348 23.5313 50.6406 23.1259C50.4465 22.7206 50.379 22.2661 50.4467 21.8218C50.5145 21.3775 50.7145 20.9639 51.0207 20.6348C51.3269 20.3058 51.725 20.0766 52.1633 19.977C52.6016 19.8774 53.0597 19.9121 53.478 20.0766C53.8963 20.2411 54.2554 20.5277 54.5085 20.8992C54.7616 21.2706 54.897 21.7096 54.897 22.1591C54.9108 22.443 54.8675 22.7268 54.7699 22.9938C54.6724 23.2607 54.5225 23.5055 54.3289 23.7136C54.1354 23.9218 53.9021 24.0891 53.6429 24.2058C53.3837 24.3225 53.1038 24.3862 52.8197 24.3931V24.3915ZM43.2293 19.6093V21.1685H46.9705C46.9149 21.8986 46.6169 22.5893 46.1239 23.1308C45.7498 23.5131 45.2994 23.8125 44.8021 24.0096C44.3048 24.2067 43.7717 24.2971 43.2372 24.275C42.1349 24.275 41.0778 23.8371 40.2983 23.0576C39.5189 22.2782 39.081 21.2211 39.081 20.1188C39.081 19.0165 39.5189 17.9594 40.2983 17.18C41.0778 16.4005 42.1349 15.9626 43.2372 15.9626C44.2865 15.9499 45.2987 16.3508 46.0547 17.0785L47.1571 15.976C46.6426 15.4657 46.0312 15.0636 45.359 14.7931C44.6867 14.5226 43.9672 14.3893 43.2427 14.4011C41.7269 14.4011 40.2732 15.0033 39.2013 16.0751C38.1295 17.1469 37.5273 18.6006 37.5273 20.1164C37.5273 21.6322 38.1295 23.086 39.2013 24.1578C40.2732 25.2296 41.7269 25.8317 43.2427 25.8317C43.984 25.8624 44.7233 25.735 45.4117 25.4581C46.1 25.1811 46.7215 24.7609 47.235 24.2254C48.1465 23.2304 48.6331 21.9187 48.5911 20.57C48.5955 20.2441 48.5667 19.9185 48.5052 19.5983H43.2245L43.2293 19.6109V19.6093ZM82.4562 20.8228C82.2352 20.1549 81.8139 19.5713 81.2494 19.1514C80.685 18.7316 80.0049 18.4958 79.3017 18.4762C78.8286 18.4793 78.361 18.5782 77.9273 18.7671C77.4935 18.956 77.1025 19.2309 76.778 19.5751C76.4535 19.9193 76.2022 20.3258 76.0392 20.7699C75.8762 21.2141 75.8049 21.6866 75.8297 22.1591C75.8186 22.6434 75.9053 23.1251 76.0847 23.5752C76.264 24.0252 76.5324 24.4345 76.8737 24.7784C77.2151 25.1222 77.6223 25.3937 78.071 25.5765C78.5197 25.7592 79.0007 25.8495 79.4852 25.842C80.0926 25.846 80.6914 25.6987 81.2276 25.4133C81.7638 25.1279 82.2204 24.7134 82.5562 24.2072L81.3065 23.3734C81.1194 23.6861 80.8538 23.9446 80.5362 24.1233C80.2185 24.302 79.8598 24.3947 79.4953 24.3923C79.1196 24.4064 78.7482 24.3076 78.4291 24.1085C78.1101 23.9095 77.8581 23.6194 77.7055 23.2757L82.6303 21.2354L82.4569 20.8236L82.4562 20.8228ZM77.4339 22.0536C77.4171 21.7859 77.4537 21.5175 77.5416 21.2641C77.6296 21.0107 77.7671 20.7773 77.9461 20.5776C78.1252 20.3779 78.3423 20.2159 78.5846 20.1009C78.8269 19.9858 79.0897 19.9202 79.3576 19.9078C79.637 19.8881 79.9159 19.9517 80.1592 20.0904C80.4025 20.2292 80.5992 20.4369 80.7246 20.6874L77.4339 22.0536ZM73.4336 25.6223H75.051V14.8027H73.432L73.4336 25.6223ZM70.7783 19.303H70.7201C70.474 19.0344 70.1731 18.8216 69.8379 18.679C69.5027 18.5364 69.1408 18.4672 68.7766 18.4762C67.8252 18.513 66.9251 18.9168 66.265 19.603C65.6049 20.2891 65.2362 21.2042 65.2362 22.1563C65.2362 23.1084 65.6049 24.0235 66.265 24.7097C66.9251 25.3958 67.8252 25.7997 68.7766 25.8365C69.1417 25.8445 69.5042 25.7739 69.8396 25.6293C70.1749 25.4847 70.4753 25.2696 70.7201 24.9986H70.7783V25.5278C70.7783 26.9334 70.027 27.6909 68.8159 27.6909C68.4117 27.6813 68.0194 27.5518 67.6889 27.3189C67.3583 27.0861 67.1044 26.7603 66.9592 26.383L65.5536 26.9704C65.8198 27.6155 66.2719 28.1667 66.8525 28.5539C67.4331 28.9411 68.1158 29.1467 68.8136 29.1446C70.709 29.1446 72.3154 28.0288 72.3154 25.3057V18.6967H70.787V19.303H70.7783ZM68.9215 24.3915C68.3629 24.3434 67.8426 24.0874 67.4636 23.6743C67.0845 23.2612 66.8742 22.7209 66.8742 22.1603C66.8742 21.5996 67.0845 21.0593 67.4636 20.6462C67.8426 20.2331 68.3629 19.9772 68.9215 19.929C69.1991 19.9426 69.4712 20.012 69.7214 20.133C69.9717 20.254 70.195 20.4241 70.3781 20.6332C70.5613 20.8424 70.7004 21.0862 70.7872 21.3502C70.8741 21.6143 70.9069 21.8931 70.8838 22.1701C70.9077 22.4464 70.8754 22.7246 70.7886 22.9879C70.7018 23.2512 70.5625 23.4942 70.379 23.7021C70.1955 23.91 69.9717 24.0784 69.7211 24.1972C69.4706 24.316 69.1985 24.3826 68.9215 24.3931V24.3915ZM90.0252 14.8011H86.158V25.6223H87.7754V21.5276H90.0275C90.484 21.5518 90.9406 21.4828 91.3695 21.3248C91.7984 21.1668 92.1907 20.9231 92.5223 20.6085C92.854 20.294 93.1181 19.9152 93.2986 19.4953C93.4791 19.0753 93.5722 18.623 93.5722 18.1659C93.5722 17.7088 93.4791 17.2566 93.2986 16.8366C93.1181 16.4167 92.854 16.0379 92.5223 15.7233C92.1907 15.4088 91.7984 15.1651 91.3695 15.0071C90.9406 14.8491 90.484 14.7801 90.0275 14.8043L90.0252 14.8011ZM90.0724 20.0133H87.7731V16.2997H90.0724C90.5648 16.2997 91.0371 16.4953 91.3854 16.8435C91.7336 17.1918 91.9292 17.664 91.9292 18.1565C91.9292 18.649 91.7336 19.1212 91.3854 19.4695C91.0371 19.8177 90.5648 20.0133 90.0724 20.0133ZM100.058 18.4652C99.4684 18.4311 98.8815 18.5693 98.3689 18.8629C97.8563 19.1565 97.4402 19.5929 97.1713 20.1188L98.6044 20.7149C98.7464 20.4537 98.9611 20.2393 99.2225 20.0976C99.4838 19.9559 99.7807 19.893 100.077 19.9164C100.488 19.8768 100.897 20.0013 101.216 20.2625C101.535 20.5238 101.738 20.9007 101.78 21.311V21.4252C101.261 21.1528 100.683 21.0106 100.096 21.011C98.5477 21.011 96.9784 21.8575 96.9784 23.4442C96.9928 23.7788 97.0743 24.1071 97.2181 24.4096C97.3618 24.7121 97.5649 24.9826 97.8152 25.2052C98.0655 25.4277 98.3579 25.5977 98.6751 25.705C98.9924 25.8124 99.328 25.855 99.662 25.8302C100.068 25.8539 100.473 25.7682 100.835 25.5822C101.197 25.3963 101.502 25.1167 101.72 24.7726H101.778V25.6105H103.337V21.4653C103.341 19.5345 101.907 18.466 100.061 18.466L100.058 18.4652ZM99.8549 24.3915C99.3265 24.3915 98.5856 24.1324 98.5856 23.467C98.5856 22.6292 99.5092 22.3119 100.297 22.3119C100.812 22.296 101.322 22.4221 101.77 22.6765C101.714 23.146 101.489 23.5791 101.137 23.895C100.786 24.2109 100.331 24.388 99.858 24.3931L99.8549 24.3915ZM109.025 18.6959L107.168 23.3899H107.11L105.186 18.6959H103.446L106.333 25.2569L104.688 28.9036H106.371L110.812 18.6959H109.025ZM94.4687 25.6255H96.0861V14.8027H94.4687V25.6255Z" fill="white"/>
</g>
</g>
</g>
<defs>
<clipPath id="clip0_302_479">
<rect width="120.48" height="34.65" fill="white"/>
</clipPath>
<clipPath id="clip1_302_479">
<rect width="120.48" height="34.65" fill="white"/>
</clipPath>
<clipPath id="clip2_302_479">
<rect width="120.48" height="34.6478" fill="white" transform="translate(0 0.000976562)"/>
</clipPath>
</defs>
</svg>
