<svg width="22" height="24" viewBox="0 0 22 24" fill="none" xmlns="http://www.w3.org/2000/svg">
<path d="M3.39453 18.7689H6.70312V8.82878H3.39453V18.7689ZM6.91797 5.76367C6.90842 5.26714 6.73655 4.85655 6.40234 4.5319C6.06814 4.20725 5.62413 4.04492 5.07031 4.04492C4.51649 4.04492 4.06532 4.20725 3.7168 4.5319C3.36827 4.85655 3.19401 5.26714 3.19401 5.76367C3.19401 6.25065 3.3635 6.65885 3.70247 6.98828C4.04145 7.31771 4.48307 7.48242 5.02734 7.48242H5.04167C5.60503 7.48242 6.05859 7.31771 6.40234 6.98828C6.74609 6.65885 6.91797 6.25065 6.91797 5.76367ZM15.2969 18.7689H18.6055V13.0684C18.6055 11.5979 18.2569 10.4855 17.5599 9.73112C16.8628 8.97678 15.9414 8.59961 14.7956 8.59961C13.497 8.59961 12.4991 9.1582 11.8021 10.2754H11.8307V8.82878H8.52214C8.55078 9.45898 8.55078 12.7724 8.52214 18.7689H11.8307V13.2116C11.8307 12.8487 11.8641 12.5814 11.931 12.4095C12.0742 12.0753 12.2891 11.7912 12.5755 11.5573C12.862 11.3234 13.2153 11.2064 13.6354 11.2064C14.7431 11.2064 15.2969 11.9559 15.2969 13.4551V18.7689ZM22 4.47461V18.2246C22 19.3609 21.5966 20.3325 20.7897 21.1393C19.9829 21.9462 19.0113 22.3496 17.875 22.3496H4.125C2.98872 22.3496 2.01714 21.9462 1.21029 21.1393C0.403429 20.3325 0 19.3609 0 18.2246V4.47461C0 3.33832 0.403429 2.36675 1.21029 1.55989C2.01714 0.753038 2.98872 0.349609 4.125 0.349609H17.875C19.0113 0.349609 19.9829 0.753038 20.7897 1.55989C21.5966 2.36675 22 3.33832 22 4.47461Z" fill="white"/>
</svg>
