<svg width="21" height="22" viewBox="0 0 21 22" fill="none" xmlns="http://www.w3.org/2000/svg">
<path d="M14.8307 0.000472566H11.0515V14.9459C11.0515 16.9045 9.53991 18.1644 7.70155 18.1644C5.86315 18.1644 4.22903 16.9045 4.22903 14.9459C4.22903 12.683 6.12895 11.4882 8.66183 11.7356V7.94847C8.29417 7.8912 7.92651 7.87243 7.61986 7.87243C3.47303 7.87243 0 10.9718 0 14.8125C0 18.8818 3.43168 22 7.64003 22C11.3375 22 15.2599 19.471 15.2599 14.6984V6.92133C16.894 8.44239 18.8756 8.91796 21 8.91796V5.41904C18.3854 5.24767 15.4843 3.65057 14.8307 0V0.000472566Z" fill="white"/>
</svg>
