<svg width="24" height="24" viewBox="0 0 24 24" fill="none" xmlns="http://www.w3.org/2000/svg">
<path d="M9.37618 15.0594L15.7584 11.7628L9.37618 8.42669V15.0594ZM11.8157 3.69277C13.2925 3.69277 14.7189 3.71255 16.0946 3.75211C17.4704 3.79167 18.4792 3.83343 19.1209 3.87738L20.0835 3.93013C20.0923 3.93013 20.167 3.93672 20.3077 3.94991C20.4483 3.96309 20.5494 3.97628 20.611 3.98947C20.6725 4.00265 20.7758 4.02243 20.9209 4.04881C21.0659 4.07518 21.1912 4.11034 21.2967 4.1543C21.4022 4.19825 21.5252 4.25539 21.6659 4.32572C21.8065 4.39605 21.9428 4.48176 22.0747 4.58285C22.2065 4.68395 22.334 4.80043 22.4571 4.93229C22.5098 4.98504 22.5779 5.06635 22.6615 5.17624C22.745 5.28613 22.8724 5.54326 23.0439 5.94765C23.2153 6.35203 23.3318 6.79597 23.3933 7.27947C23.4636 7.84209 23.5186 8.44207 23.5581 9.07941C23.5977 9.71675 23.6219 10.2156 23.6307 10.5761V11.1035V12.8969C23.6395 14.1716 23.5603 15.4462 23.3933 16.7209C23.3318 17.2044 23.2219 17.6418 23.0636 18.033C22.9054 18.4242 22.7648 18.6945 22.6417 18.8439L22.4571 19.0681C22.334 19.2 22.2065 19.3164 22.0747 19.4175C21.9428 19.5186 21.8065 19.6021 21.6659 19.6681C21.5252 19.734 21.4022 19.789 21.2967 19.8329C21.1912 19.8769 21.0659 19.912 20.9209 19.9384C20.7758 19.9648 20.6703 19.9846 20.6044 19.9977C20.5385 20.0109 20.4374 20.0241 20.3011 20.0373C20.1648 20.0505 20.0923 20.0571 20.0835 20.0571C17.877 20.2241 15.121 20.3076 11.8157 20.3076C9.99594 20.29 8.41577 20.2615 7.07515 20.2219C5.73454 20.1823 4.85325 20.1494 4.43128 20.123L3.78515 20.0703L3.31044 20.0175C2.99397 19.9736 2.75442 19.9296 2.59178 19.8857C2.42915 19.8417 2.20498 19.7494 1.91928 19.6087C1.63357 19.4681 1.38523 19.2879 1.17425 19.0681C1.1215 19.0154 1.05337 18.934 0.969859 18.8241C0.886345 18.7143 0.758876 18.4571 0.587453 18.0527C0.41603 17.6484 0.299551 17.2044 0.238014 16.7209C0.167687 16.1583 0.112744 15.5583 0.0731844 14.921C0.0336253 14.2836 0.00945024 13.7848 0.000659319 13.4243V12.8969V11.1035C-0.0081316 9.82884 0.0709867 8.55415 0.238014 7.27947C0.299551 6.79597 0.409437 6.35862 0.567674 5.96742C0.72591 5.57623 0.866565 5.30591 0.989638 5.15646L1.17425 4.93229C1.29732 4.80043 1.42479 4.68395 1.55665 4.58285C1.68852 4.48176 1.82478 4.39605 1.96543 4.32572C2.10609 4.25539 2.22916 4.19825 2.33465 4.1543C2.44014 4.11034 2.56541 4.07518 2.71046 4.04881C2.85551 4.02243 2.9588 4.00265 3.02034 3.98947C3.08188 3.97628 3.18297 3.96309 3.32363 3.94991C3.46428 3.93672 3.53901 3.93013 3.5478 3.93013C5.75432 3.77189 8.51027 3.69277 11.8157 3.69277Z" fill="white"/>
</svg>
