<svg width="23" height="22" viewBox="0 0 23 22" fill="none" xmlns="http://www.w3.org/2000/svg">
<path d="M11.7252 0.000202179C12.9827 -0.00934601 14.1111 0.317692 15.1105 0.981314C16.1099 1.64494 16.877 2.56398 17.4119 3.73845C17.6652 4.29226 17.7919 5.14686 17.7919 6.30223C17.7919 6.75101 17.7497 7.66289 17.6652 9.03788C17.7966 9.10472 17.928 9.13814 18.0594 9.13814C18.2283 9.13814 18.4676 9.07369 18.7772 8.94478C19.0869 8.81588 19.3262 8.75142 19.4951 8.75142C19.7672 8.75142 20.03 8.83736 20.2834 9.00923C20.5367 9.18111 20.6634 9.40072 20.6634 9.66808C20.6634 9.97363 20.5156 10.2314 20.22 10.4415C19.9244 10.6516 19.6007 10.802 19.2488 10.8927C18.8969 10.9834 18.5731 11.1218 18.2775 11.308C17.9819 11.4942 17.8341 11.721 17.8341 11.9884C17.8341 12.1316 17.8905 12.3369 18.0031 12.6043C18.3503 13.3872 18.8312 14.1034 19.4458 14.7527C20.0605 15.402 20.7385 15.8842 21.4798 16.1993C21.7426 16.3139 22.1179 16.4237 22.6059 16.5287C22.8686 16.586 23 16.7531 23 17.03C23 17.6984 21.9725 18.1901 19.9174 18.5052C19.8517 18.6103 19.8001 18.7965 19.7625 19.0638C19.725 19.3312 19.6593 19.5532 19.5655 19.7298C19.4716 19.9065 19.3168 19.9948 19.101 19.9948C18.9133 19.9948 18.6224 19.9638 18.2283 19.9017C17.8341 19.8396 17.5339 19.8086 17.3274 19.8086C16.9802 19.8086 16.6893 19.8325 16.4547 19.8802C16.1544 19.928 15.8588 20.0354 15.5679 20.2025C15.277 20.3696 15.0049 20.551 14.7515 20.7468C14.4982 20.9425 14.226 21.1359 13.9351 21.3268C13.6442 21.5178 13.2876 21.6777 12.8654 21.8066C12.4431 21.9355 11.9786 22 11.4718 22C10.9839 22 10.5311 21.9355 10.1135 21.8066C9.69594 21.6777 9.34404 21.5178 9.05783 21.3268C8.77162 21.1359 8.50184 20.9425 8.24847 20.7468C7.9951 20.551 7.72297 20.3696 7.43207 20.2025C7.14117 20.0354 6.85027 19.928 6.55936 19.8802C6.31538 19.8325 6.01979 19.8086 5.67258 19.8086C5.44737 19.8086 5.14004 19.8444 4.75061 19.916C4.36118 19.9876 4.0867 20.0235 3.92717 20.0235C3.69257 20.0235 3.52836 19.9351 3.43452 19.7585C3.34068 19.5818 3.27499 19.3551 3.23745 19.0782C3.19992 18.8012 3.14831 18.6103 3.08262 18.5052C1.02754 18.1901 0 17.6984 0 17.03C0 16.7531 0.131375 16.586 0.394125 16.5287C0.882089 16.4237 1.25745 16.3139 1.5202 16.1993C2.25214 15.8937 2.93013 15.4115 3.55416 14.7527C4.17819 14.0938 4.65912 13.3777 4.99694 12.6043C5.10955 12.3369 5.16585 12.1316 5.16585 11.9884C5.16585 11.721 5.01805 11.4942 4.72246 11.308C4.42687 11.1218 4.10078 10.981 3.74419 10.8855C3.3876 10.79 3.06151 10.6396 2.76591 10.4344C2.47032 10.2291 2.32252 9.97841 2.32252 9.68241C2.32252 9.42459 2.44451 9.20737 2.68849 9.03072C2.93248 8.85407 3.19053 8.76575 3.46267 8.76575C3.60343 8.76575 3.82864 8.82781 4.13831 8.95194C4.44798 9.07607 4.69665 9.13814 4.88433 9.13814C5.05324 9.13814 5.20339 9.10472 5.33476 9.03788C5.25031 7.68199 5.20808 6.77488 5.20808 6.31655C5.20808 5.15163 5.33476 4.29226 5.58813 3.73845C6.1887 2.4303 6.99572 1.485 8.00918 0.902538C9.02264 0.320078 10.2613 0.0193005 11.7252 0.000202179Z" fill="white"/>
</svg>
