<svg width="21" height="25" viewBox="0 0 21 25" fill="none" xmlns="http://www.w3.org/2000/svg">
<path d="M12.5112 12.5112C12.5112 12.5112 12.676 12.3464 13.0056 12.0168C13.3352 11.6873 13.5 11.0566 13.5 10.125C13.5 9.19336 13.1704 8.39795 12.5112 7.73877C11.8521 7.07959 11.0566 6.75 10.125 6.75C9.19336 6.75 8.39795 7.07959 7.73877 7.73877C7.07959 8.39795 6.75 9.19336 6.75 10.125C6.75 11.0566 7.07959 11.8521 7.73877 12.5112C8.39795 13.1704 9.19336 13.5 10.125 13.5C11.0566 13.5 11.8521 13.1704 12.5112 12.5112ZM13.8032 6.44678C13.8032 6.44678 14.0559 6.69946 14.5613 7.20483C15.0667 7.71021 15.3193 8.68359 15.3193 10.125C15.3193 11.5664 14.814 12.7925 13.8032 13.8032C12.7925 14.814 11.5664 15.3193 10.125 15.3193C8.68359 15.3193 7.45752 14.814 6.44678 13.8032C5.43604 12.7925 4.93066 11.5664 4.93066 10.125C4.93066 8.68359 5.43604 7.45752 6.44678 6.44678C7.45752 5.43604 8.68359 4.93066 10.125 4.93066C11.5664 4.93066 12.7925 5.43604 13.8032 6.44678ZM16.3872 3.86279C16.3872 3.86279 16.4465 3.92212 16.5652 4.04077C16.6838 4.15942 16.7432 4.38574 16.7432 4.71973C16.7432 5.05371 16.6245 5.33936 16.3872 5.57666C16.1499 5.81396 15.8643 5.93262 15.5303 5.93262C15.1963 5.93262 14.9106 5.81396 14.6733 5.57666C14.436 5.33936 14.3174 5.05371 14.3174 4.71973C14.3174 4.38574 14.436 4.1001 14.6733 3.86279C14.9106 3.62549 15.1963 3.50684 15.5303 3.50684C15.8643 3.50684 16.1499 3.62549 16.3872 3.86279ZM11.1335 1.81274C11.1335 1.81274 10.9808 1.81384 10.6754 1.81604C10.37 1.81824 10.1865 1.81934 10.125 1.81934C10.0635 1.81934 9.72729 1.81714 9.11646 1.81274C8.50562 1.80835 8.04199 1.80835 7.72559 1.81274C7.40918 1.81714 6.98511 1.83032 6.45337 1.85229C5.92163 1.87427 5.46899 1.91821 5.09546 1.98413C4.72192 2.05005 4.40771 2.13135 4.15283 2.22803C3.71338 2.40381 3.32666 2.65869 2.99268 2.99268C2.65869 3.32666 2.40381 3.71338 2.22803 4.15283C2.13135 4.40771 2.05005 4.72192 1.98413 5.09546C1.91821 5.46899 1.87427 5.92163 1.85229 6.45337C1.83032 6.98511 1.81714 7.40918 1.81274 7.72559C1.80835 8.04199 1.80835 8.50562 1.81274 9.11646C1.81714 9.72729 1.81934 10.0635 1.81934 10.125C1.81934 10.1865 1.81714 10.5227 1.81274 11.1335C1.80835 11.7444 1.80835 12.208 1.81274 12.5244C1.81714 12.8408 1.83032 13.2649 1.85229 13.7966C1.87427 14.3284 1.91821 14.781 1.98413 15.1545C2.05005 15.5281 2.13135 15.8423 2.22803 16.0972C2.40381 16.5366 2.65869 16.9233 2.99268 17.2573C3.32666 17.5913 3.71338 17.8462 4.15283 18.022C4.40771 18.1187 4.72192 18.2 5.09546 18.2659C5.46899 18.3318 5.92163 18.3757 6.45337 18.3977C6.98511 18.4197 7.40918 18.4329 7.72559 18.4373C8.04199 18.4417 8.50562 18.4417 9.11646 18.4373C9.72729 18.4329 10.0635 18.4307 10.125 18.4307C10.1865 18.4307 10.5227 18.4329 11.1335 18.4373C11.7444 18.4417 12.208 18.4417 12.5244 18.4373C12.8408 18.4329 13.2649 18.4197 13.7966 18.3977C14.3284 18.3757 14.781 18.3318 15.1545 18.2659C15.5281 18.2 15.8423 18.1187 16.0972 18.022C16.5366 17.8462 16.9233 17.5913 17.2573 17.2573C17.5913 16.9233 17.8462 16.5366 18.022 16.0972C18.1187 15.8423 18.2 15.5281 18.2659 15.1545C18.3318 14.781 18.3757 14.3284 18.3977 13.7966C18.4197 13.2649 18.4329 12.8408 18.4373 12.5244C18.4417 12.208 18.4417 11.7444 18.4373 11.1335C18.4329 10.5227 18.4307 10.1865 18.4307 10.125C18.4307 10.0635 18.4329 9.72729 18.4373 9.11646C18.4417 8.50562 18.4417 8.04199 18.4373 7.72559C18.4329 7.40918 18.4197 6.98511 18.3977 6.45337C18.3757 5.92163 18.3318 5.46899 18.2659 5.09546C18.2 4.72192 18.1187 4.40771 18.022 4.15283C17.8462 3.71338 17.5913 3.32666 17.2573 2.99268C16.9233 2.65869 16.5366 2.40381 16.0972 2.22803C15.8423 2.13135 15.5281 2.05005 15.1545 1.98413C14.781 1.91821 14.3284 1.87427 13.7966 1.85229C13.2649 1.83032 12.8408 1.81714 12.5244 1.81274C12.208 1.80835 11.7444 1.80835 11.1335 1.81274ZM20.1841 5.9458C20.228 6.71924 20.25 8.1123 20.25 10.125C20.25 12.1377 20.228 13.5308 20.1841 14.3042C20.0962 16.1323 19.5513 17.5474 18.5493 18.5493C17.5474 19.5513 16.1323 20.0962 14.3042 20.1841C13.5308 20.228 12.1377 20.25 10.125 20.25C8.1123 20.25 6.71924 20.228 5.9458 20.1841C4.11768 20.0962 2.70264 19.5513 1.70068 18.5493C0.69873 17.5474 0.153809 16.1323 0.065918 14.3042C0.0219727 13.5308 0 12.1377 0 10.125C0 8.1123 0.0219727 6.71924 0.065918 5.9458C0.153809 4.11768 0.69873 2.70264 1.70068 1.70068C2.70264 0.69873 4.11768 0.153809 5.9458 0.065918C6.71924 0.0219727 8.1123 0 10.125 0C12.1377 0 13.5308 0.0219727 14.3042 0.065918C16.1323 0.153809 17.5474 0.69873 18.5493 1.70068C19.5513 2.70264 20.0962 4.11768 20.1841 5.9458Z" fill="white"/>
</svg>
