<?xml version="1.0" encoding="utf-8"?>
<!-- Generator: Adobe Illustrator 27.0.0, SVG Export Plug-In . SVG Version: 6.00 Build 0)  -->
<svg version="1.1" id="Layer_1" xmlns="http://www.w3.org/2000/svg" xmlns:xlink="http://www.w3.org/1999/xlink" x="0px" y="0px"
	 viewBox="0 0 343.4 222.3" style="enable-background:new 0 0 343.4 222.3;" xml:space="preserve">
<style type="text/css">
	.st0{fill:#FECB29;}
	.st1{fill:url(#SVGID_1_);}
	.st2{fill:url(#SVGID_00000058548637786925367950000005075718247154396573_);}
	.st3{fill:url(#SVGID_00000070092417082796040380000001430987535648027546_);}
	
		.st4{fill:url(#SVGID_00000077283564092530583670000000922817675134217889_);stroke:#9AC331;stroke-width:1.5903;stroke-miterlimit:10;}
	.st5{fill:url(#SVGID_00000083073992898524323050000013505345926390660774_);}
	.st6{fill:#C3DFF4;}
	.st7{fill:url(#SVGID_00000053507460924429658080000009126271809147551164_);}
	
		.st8{fill:url(#SVGID_00000088821731592413038250000013783369496159262631_);stroke:#9AC331;stroke-width:1.5903;stroke-miterlimit:10;}
	.st9{fill:#FFFFFF;}
	.st10{filter:url(#Adobe_OpacityMaskFilter);}
	.st11{fill:url(#SVGID_00000036953523593003780050000008375046434899821756_);}
	.st12{mask:url(#SVGID_00000152237973837577602210000016761693037261221765_);fill:#FFFFFF;}
	.st13{fill:url(#SVGID_00000173868562321949311960000008329165631083912617_);}
	.st14{fill:url(#SVGID_00000142868044262727215360000013145601635240015012_);}
	.st15{fill:url(#SVGID_00000056396507442823561340000007788526374283024824_);}
	.st16{fill:url(#SVGID_00000113354537573531837950000002432258624623016069_);}
	.st17{fill:url(#SVGID_00000067947823149926241530000014159974713871997370_);}
	.st18{fill:url(#SVGID_00000150803608591082845550000011262368256401301889_);}
	.st19{fill:url(#SVGID_00000147909773872580688360000008854480799977274528_);}
	.st20{fill:url(#SVGID_00000178193969435743839940000014668368547920176514_);}
	.st21{opacity:0.65;fill:url(#SVGID_00000171690506760525827560000001713839823293704879_);}
	.st22{opacity:0.65;fill:url(#SVGID_00000153678095872944105660000000701839647221879484_);}
	.st23{opacity:0.65;fill:url(#SVGID_00000135687388843447924330000008835538912852230807_);}
	.st24{opacity:0.65;fill:url(#SVGID_00000119829057332260049060000010630021543098619042_);}
	.st25{opacity:0.65;fill:url(#SVGID_00000180361517553054003110000017929783043740308669_);}
	.st26{opacity:0.65;fill:url(#SVGID_00000114033430487891983880000013250169018821214104_);}
	.st27{opacity:0.65;fill:url(#SVGID_00000085218268129393206700000001497759596023331475_);}
	.st28{opacity:0.8;fill:url(#SVGID_00000091703678261092722180000008589964686895223980_);}
	.st29{fill:url(#SVGID_00000004515579418859041500000003572918532173593736_);}
	.st30{clip-path:url(#SVGID_00000178924088585555428700000014181478891450205350_);fill:#F8C9DD;}
	.st31{fill:url(#SVGID_00000137826843527259801630000006862802547399783355_);}
	.st32{fill:url(#SVGID_00000114767687062357072600000017448157247751192994_);}
	.st33{fill:url(#SVGID_00000072975212179686256120000018142703190088387748_);}
	.st34{fill:url(#SVGID_00000147217798303311615460000013092370180402450854_);}
	.st35{fill:url(#SVGID_00000163057628556878113990000009967411249161526708_);}
	.st36{fill:url(#SVGID_00000083809133685501514460000008314691456580229268_);}
</style>
<g>
	<g>
		<path class="st0" d="M136,54.2c0.1,0.1,0.3,0.2,0.5,0.3c1.3,0.7,5.4,3.6,5.9,4c0,0,0,0,0,0s3.9,2.1,4.3,2.1
			c0.4,0.1,2.6-0.1,5.8-4.8c1.4-2.1,2.7-4.1,3.5-6.2c1-2.6,1.1-5.2-0.8-7.8c-0.3-0.4-0.7-0.8-1.1-1.2c-0.1-0.1-0.1-0.1-0.2-0.2
			c-0.4-0.4-0.8-0.8-1.1-1.1c-0.1-0.1-0.1-0.1-0.2-0.2c-0.4-0.3-0.8-0.7-1.2-1c0,0,0,0-0.1-0.1c-0.4-0.3-0.9-0.6-1.3-0.9
			c-0.1-0.1-0.2-0.1-0.2-0.2c-0.4-0.3-0.8-0.5-1.3-0.7c-0.1,0-0.1-0.1-0.2-0.1c-0.4-0.2-0.8-0.4-1.1-0.5c0,0-0.1,0-0.1-0.1
			c-0.4-0.1-0.8-0.3-1.1-0.4c-0.1,0-0.1,0-0.2,0c-0.3-0.1-0.7-0.1-1-0.1c0,0,0,0,0,0c0,0,0,0-0.1,0c-0.2,0-0.4,0-0.6,0.1
			c-0.1,0-0.1,0-0.2,0.1c-0.2,0.1-0.4,0.2-0.5,0.3c0,0-2.4,3.4-4.6,7.1c-1.5,2.5-2.9,5.1-3.4,7C134.4,53,134.9,53.6,136,54.2z
			 M204.6,39.2c0.3,0.1,0.6,0.3,1,0.6c2.1,1.3,5.6,3.7,5.6,3.7s2,1.1,3.4,1.7c0.6,0.3,1.1,0.5,1.3,0.6c0.4,0.1,2.9-0.1,6.4-5.1
			c0.3-0.4,0.6-0.8,0.8-1.2c2.4-3.6,4.5-7.2,3.6-10.7c-0.3-1-0.7-2-1.5-2.9c-0.4-0.4-0.7-0.9-1.1-1.3c-0.1-0.1-0.2-0.2-0.2-0.2
			c-0.4-0.4-0.8-0.8-1.2-1.2c-0.1-0.1-0.2-0.1-0.2-0.2c-0.4-0.4-0.9-0.7-1.3-1c0,0-0.1,0-0.1-0.1c-0.5-0.3-0.9-0.7-1.4-1
			c-0.1-0.1-0.2-0.1-0.3-0.2c-0.5-0.3-0.9-0.5-1.4-0.8c-0.1,0-0.1-0.1-0.2-0.1c-0.4-0.2-0.8-0.4-1.2-0.6c-0.1,0-0.1-0.1-0.2-0.1
			c-0.4-0.2-0.8-0.3-1.2-0.4c-0.1,0-0.2,0-0.2-0.1c-0.4-0.1-0.7-0.1-1.1-0.1c0,0,0,0,0,0c0,0-0.1,0-0.1,0c-0.2,0-0.5,0-0.7,0.1
			c-0.1,0-0.1,0-0.2,0.1c-0.2,0.1-0.4,0.2-0.6,0.3c0,0-5.6,7.6-8.1,12.9c-0.4,0.8-0.6,1.5-0.8,2.1c-0.5,1.5-0.6,2.5-0.5,3.2
			C202.9,38.4,203.6,38.7,204.6,39.2z M305,13.5c0-0.3-0.1-0.4-0.1-0.4c0,0-0.1,0-0.1,0c0,0,0,0,0,0c-0.1,0-0.3,0.1-0.4,0.1
			c0,0,0,0,0,0c-0.1,0.1-0.2,0.2-0.3,0.3c0,0,0,0,0,0c-0.1,0.1-0.2,0.2-0.2,0.3l0,0c-0.1,0.1-0.1,0.1-0.1,0.1
			c-0.4,0.9-0.9,1.8-1.3,2.7c-0.5,1.1-1,2.1-1.5,3.2c-0.7,1.5-1.4,3-2,4.6c-0.7,1.8-1.5,3.6-2.2,5.4c-1.4,3.7-3,7.3-4.5,11
			c-0.6,1.4-1.2,8.8-1.5,14c0,0.5-0.1,1-0.1,1.5c-0.1,0.9-0.1,1.6-0.1,2.3c0,0.6-0.1,1.1-0.1,1.4c-0.1,1.9-3.4,32.4-4.8,42.5
			c-0.2,1.4-0.4,2.5-0.5,2.9c-0.2,0.9-0.4,1.6-0.4,2c0,0.4,0.1,0.6,0.2,0.6c0.3,0,0.8-0.5,1.4-1c1-1,2.8-4.1,6.6-12.7
			c0.3-0.6,0.5-1.2,0.8-1.8c0.5-1.3,1-2.7,1.5-4.4c3.2-11.4,4.5-30,4.6-32.7c0.1-3.1,4.1-33.4,4.1-33.4s1.1-5.8,1.2-8.1
			C305,13.8,305,13.6,305,13.5z M26.4,143.9c-1.7,1.7-3.3,3.5-4.8,5.2c-2.2,2.5-4.1,5-5.9,7.4c-0.1,0.1-0.1,0.2-0.2,0.2
			c-18,25.3-17.3,49.1-12.9,53.4c6.1,5.9,9.4,0.4,11.7-5c0.7-1.7,0.7-3,0.2-4c-1.1-2.3-4.6-3.5-7.6-5.4c-3.6-3.1-1.3-14.4,6.7-26.8
			c6.5-10,17.9-18.8,22-21.7c0.9-0.7,4.6-2.8,4.6-2.8l9.1-18.7c-7.6,4.8-11.8,8-15.6,11.2C31.1,139.3,28.7,141.6,26.4,143.9z
			 M175.9,11.6C175.9,11.5,175.9,11.5,175.9,11.6c0-0.1-0.1-0.2-0.1-0.2c0,0,0,0,0,0c-0.1-0.1-0.1-0.1-0.2-0.2c0,0,0,0,0,0
			c-0.1-0.1-0.2-0.1-0.3-0.1c0,0,0,0,0,0h0c-0.1,0-0.1,0-0.2,0.1c0,0,0,0,0,0c-0.1,0-0.1,0.1-0.2,0.1c0,0,0,0,0,0
			c-0.1,0.1-0.2,0.2-0.3,0.3c0,0,0,0.1-0.1,0.1c-0.1,0.1-0.2,0.3-0.3,0.5c-0.2,0.3-0.4,0.7-0.7,1.3c-1.3,2.7-3.6,8.3-4.8,11.8
			c-0.5,1.4-0.8,2.5-0.8,2.9v0c0,1.2,0.1,2.5,0.1,3.7c0.2,4.2,0.3,8.5,0.3,12.7c0,0.9,0,1.8,0,2.6c0,0.9,0,1.7-0.2,2.6
			c-0.7,3.2-2.4,5.8-3.9,8.6c-1.8,3-3.9,5.9-6.6,8.2c-6.6,5.7-44.6,24-44.6,24l-36.5,19l-1.3,3l-6.7,12.8l2.6-1.4v0
			c0,0,16.7-9.3,31.6-16.5c3.4-1.7,6.8-3.2,9.8-4.5c16.1-6.9,26.8-10.6,33.2-15.3c6.5-4.8,16.6-13.1,24.9-33.1
			c3.8-10.8,4.9-24.9,5.2-34C176,15.3,175.9,11.6,175.9,11.6C175.9,11.6,175.9,11.6,175.9,11.6z M291.6,16.8
			c0.7-0.4,1.2-0.9,1.6-1.4c0.6-0.7,0.8-1.5,0.8-2.2c0-0.7-0.1-1.3-0.3-1.8c-0.1-0.2-0.3-0.5-0.5-0.7c-0.9-1.2-2.8-3-4.2-4.1
			c-1.8-1.4,0-2.7,1.1-2.9c0.4-0.1,1.3-0.1,2.4-0.2c1.8-0.1,4-0.1,4-0.1s2.1-2.3-1-2.9c-0.5-0.1-0.9-0.2-1.4-0.3
			c-0.1,0-0.3,0-0.4-0.1c-0.4-0.1-0.9-0.1-1.3-0.1c0,0-0.1,0-0.1,0c0,0,0,0-0.1,0c0,0-0.1,0-0.1,0c-0.3,0-0.6,0-0.9,0.1
			c-0.1,0-0.1,0-0.2,0c-0.3,0.1-0.7,0.1-1,0.2c-0.1,0-0.2,0.1-0.2,0.1c-0.3,0.1-0.7,0.2-1,0.4c-0.1,0-0.1,0.1-0.2,0.1
			c-0.4,0.2-0.8,0.4-1.2,0.7c-0.1,0.1-0.2,0.1-0.3,0.2c-0.4,0.3-0.8,0.6-1.3,1c-1.5,1.2-1.8,2.6-1.5,3.9c0.6,2.1,2.8,4,4,4.9
			c0.9,0.7,1.3,1.4,1.2,2c0,0.4-0.2,0.7-0.4,1c-0.2,0.2-0.4,0.4-0.6,0.6c-0.8,0.5-3.3,1-6,1.4c-1.2,0.2-2.4,0.3-3.4,0.5
			c-1.7,0.3-3,1-3.3,1.7c0,0.1,0,0.2,0,0.3c0.1,0.6,1.1,1,3.6,1c4.3-0.1,7.5-0.8,10-1.9C290.2,17.6,290.9,17.2,291.6,16.8z
			 M274.5,49.9c-0.3-1.4-1.3-0.1-2,1c-0.2,0.4-0.4,0.8-0.5,1c-0.3,0.8-2.8,6.6-4.5,8.7c-1.7,2.1-3,2.5-3.5,1.2
			c-0.1-0.3-0.3-0.6-0.5-0.7c-0.6-0.4-1.6,0.1-2.8,2.5c-1.3,2.5-3.2,4.6-4.8,5.9c-0.4,0.4-0.9,0.7-1.3,0.9c-0.4,0.3-0.8,0.4-1.1,0.4
			c-0.9,0-1.3-0.9-1.9-1.5c-0.9-0.8-2.7,2.5-5.3,5.3c-0.3,0.3-0.6,0.6-1,0.9c-2.1,1.8-3.8,1.6-8.1,0.5c-3.4-0.8-6.1-0.1-9.8,2.4
			c-1.7,1.1-3.5,2.7-5.7,4.6c-1.8,1.5-3.9,2.6-6.3,3.2c-1.8,0.4-3.6,0.6-5.6,0.6c-5.8-0.2-11.9-2.8-16.5-7.8
			c-5.7-6.2-5.6-21.8-4.3-33.8c0.6-5.2,1.4-9.8,2-12.7c1.9-8.7,4.2-26.5,4.6-29.8c0-0.3,0.1-0.5,0.1-0.5c-0.1,0-0.2-0.1-0.3-0.1
			c0,0,0,0,0,0c-0.1,0-0.1,0-0.1,0c-0.1,0-0.1,0-0.2,0.1c0,0-0.1,0.1-0.1,0.1c0,0-0.1,0.1-0.1,0.1c0,0-0.1,0.1-0.1,0.2
			c0,0.1-0.1,0.1-0.1,0.2c0,0.1-0.1,0.1-0.1,0.2c0,0.1-0.1,0.1-0.1,0.2c0,0.1-0.1,0.2-0.1,0.3c0,0.1,0,0.1-0.1,0.2
			c-0.2,0.4-0.3,0.9-0.5,1.3c-0.6,1.3-8.3,21-8.5,21.3c-0.1,0.1-0.3,0.9-0.4,1.7c-0.1,0.8-0.3,1.6-0.3,2c-0.1,0.4-1,6.1-1.7,10.9
			c0,0.3-0.1,0.5-0.1,0.8c-0.2,1.1-0.3,2.1-0.5,2.9c-0.3,2-0.5,3.3-0.5,3.3s0,0.2-0.1,0.5c0,0.2-0.1,0.5-0.1,0.8
			c0,0.2-0.1,0.3-0.1,0.5c-0.5,3.2-1.6,10.4-2.2,18.7c0,0.5-0.1,1-0.1,1.5c-0.2,3.5-0.4,7.1-0.4,10.7c0,0.5,0,1,0,1.5
			c0.1,9.2,1.8,17.2,5.9,22.5c3.2,4.1,7.7,6.7,14,6.9c9,0.3,13.9-3.2,17-7.1c1.9-2.3,3.1-4.7,4.3-6.3c3.1-4.4,8-5,11.6-5.4
			c3.7-0.3,4.7-0.5,6.3-1.6c0.7-0.4,2.2-1.5,3.9-2.8c2.4-1.8,5-3.8,6-4.6c0.4-0.3,1-0.7,1.8-1.1c2.3-1.1,5.8-2.2,7-3
			c1.1-0.7,2.5-2,3.7-3.2c0.5-0.6,1-1.1,1.4-1.4c0.3-0.3,0.7-0.7,1.2-1.1c1.1-1,2.6-2.2,3.3-2.7c1-0.7,2.6-2.2,4.9-7
			c1.7-3.6,3-8.1,3.5-11.3c0.1-1.1,0.2-2,0.1-2.7C274.5,50.2,274.5,50,274.5,49.9z"/>
		<linearGradient id="SVGID_1_" gradientUnits="userSpaceOnUse" x1="215.6986" y1="158.1997" x2="215.6986" y2="7.7996">
			<stop  offset="0" style="stop-color:#5A8BC8"/>
			<stop  offset="0.1639" style="stop-color:#5686C4"/>
			<stop  offset="0.3625" style="stop-color:#4D7AB6"/>
			<stop  offset="0.5793" style="stop-color:#3F67A1"/>
			<stop  offset="0.8074" style="stop-color:#2F4F88"/>
			<stop  offset="1" style="stop-color:#1F3B71"/>
		</linearGradient>
		<path class="st1" d="M154,131c-2-0.4-6.4-0.8-6.4-3.6c0-2.1,2.8-2.8,4.4-2.8c2.4,0,5.5,0.8,7.6,2l4.8-9.4
			c-4.1-1.9-8.6-2.7-13.2-2.7c-8.7,0-17.6,4.5-17.6,14.7c0,7.4,4.4,9.7,8.9,10.9c4.4,1.2,8.9,1.4,8.9,4.6c0,2.3-2.6,3.2-4.4,3.2
			c-3.5,0-8.3-2.1-11.2-4.2l-5.1,10.3c4.8,3.1,10.4,4.8,16.1,4.8c9.3,0,18.8-4.5,18.8-15.4C165.6,135.6,160.6,132.3,154,131z
			 M193.7,114.5c-5.5,0-9.5,1.7-12.8,6.6h-0.2v-5.3h-14.2v40.9h14.2v-21.2c0-5.1,1.6-9.5,7.4-9.5c7,0,6.4,6.9,6.4,10.8v19.9h14.2
			v-25.3C208.7,121.4,204.5,114.5,193.7,114.5z M242.1,119.7c-2.9-3.6-7.7-5.3-12.3-5.3c-11.7,0-19.8,10.1-19.8,21.8
			c0,11.7,8.2,21.9,20,21.9c4.6,0,9.5-1.9,12-5.9h0.2v4.6h14v-41h-14V119.7z M233.6,145.5c-5.7,0-9-4-9-9.2c0-5,3.3-9.3,9-9.3
			c5.7,0,9,4.2,9,9.3C242.6,141.5,239.3,145.5,233.6,145.5z M285.9,114.9c-5.5,0-9.4,1.6-12.6,6.5h-0.2v-5.1h-14v40.5h14v-21.3
			c0-5,1.6-9.3,7.3-9.3c6.9,0,6.3,6.7,6.3,10.5v20.1h14v-25.3C300.8,121.7,296.6,114.9,285.9,114.9z"/>
		
			<linearGradient id="SVGID_00000130635319862553136650000003824733670684480670_" gradientUnits="userSpaceOnUse" x1="80.2242" y1="158.1981" x2="80.2242" y2="7.7988">
			<stop  offset="0" style="stop-color:#5A8BC8"/>
			<stop  offset="0.1639" style="stop-color:#5686C4"/>
			<stop  offset="0.3625" style="stop-color:#4D7AB6"/>
			<stop  offset="0.5793" style="stop-color:#3F67A1"/>
			<stop  offset="0.8074" style="stop-color:#2F4F88"/>
			<stop  offset="1" style="stop-color:#1F3B71"/>
		</linearGradient>
		<path style="fill:url(#SVGID_00000130635319862553136650000003824733670684480670_);" d="M103,112.3v45.4h24.4l0.1-56.1L103,112.3
			z M103,90.2L127.4,78V13.7h-24.5l-69.9,144h18.9l50.7-96.3c0,0,0.5-0.2,0.5,0.8V90.2z"/>
	</g>
	<g>
		
			<radialGradient id="SVGID_00000061462364776114970840000004141181916970550967_" cx="584.7369" cy="309.7283" r="29.6044" gradientTransform="matrix(0.7736 0 0 0.7371 -250.5092 -28.0874)" gradientUnits="userSpaceOnUse">
			<stop  offset="0" style="stop-color:#DC7901"/>
			<stop  offset="7.917684e-02" style="stop-color:#E58B12"/>
			<stop  offset="0.1833" style="stop-color:#EE9B1E"/>
			<stop  offset="0.313" style="stop-color:#F4A727"/>
			<stop  offset="0.4949" style="stop-color:#F8AE2C"/>
			<stop  offset="1" style="stop-color:#F9B02D"/>
		</radialGradient>
		<path style="fill:url(#SVGID_00000061462364776114970840000004141181916970550967_);" d="M204.4,201.5c0-0.5-0.1-1-0.1-1.5
			c-2,0.2-4.3-0.4-6.5-0.8c0,0.2,0,0.3,0,0.5l0.1,15.2l0.4,4.6c0.4,1.6,2.3,1.7,3.1,1.7c1.5,0,3.1-0.5,3.6-2.5l-0.2-5.6L204.4,201.5
			z"/>
		
			<radialGradient id="SVGID_00000148651803626898269260000011894384599816672429_" cx="638.4846" cy="346.7054" r="67.2509" gradientTransform="matrix(0.7736 0 0 0.7371 -250.5092 -28.0874)" gradientUnits="userSpaceOnUse">
			<stop  offset="0" style="stop-color:#6B822D"/>
			<stop  offset="0.1021" style="stop-color:#839940"/>
			<stop  offset="0.2214" style="stop-color:#9AAF55"/>
			<stop  offset="0.3536" style="stop-color:#ADC167"/>
			<stop  offset="0.5039" style="stop-color:#BACF74"/>
			<stop  offset="0.6875" style="stop-color:#C2D77D"/>
			<stop  offset="1" style="stop-color:#C5D97F"/>
		</radialGradient>
		
			<path style="fill:url(#SVGID_00000148651803626898269260000011894384599816672429_);stroke:#9AC331;stroke-width:1.5903;stroke-miterlimit:10;" d="
			M242.2,197.7c0.3,5.4,0.8,14,1.4,20.1c0.1,1.3,0,3.7-4.2,3.7c-2.8,0-4.5-1.3-4.3-4.3c0.3-2.8,2.2-22,2.4-22.8
			c0.1-0.3,0.2-0.4,0.6-0.4C241.5,194,242,195.3,242.2,197.7z"/>
		<g>
			
				<radialGradient id="SVGID_00000026126331010840926350000004339862244286808462_" cx="728.7923" cy="282.3756" r="85.9726" gradientTransform="matrix(0.7736 0 0 0.7371 -250.5092 -28.0874)" gradientUnits="userSpaceOnUse">
				<stop  offset="0" style="stop-color:#C3DFF4"/>
				<stop  offset="0.1318" style="stop-color:#B6DBF2"/>
				<stop  offset="0.3756" style="stop-color:#92CFED"/>
				<stop  offset="0.7016" style="stop-color:#39BBE4"/>
				<stop  offset="1" style="stop-color:#00A7DA"/>
			</radialGradient>
			<path style="fill:url(#SVGID_00000026126331010840926350000004339862244286808462_);" d="M322.5,221.6c-7.2,0-21.1-4.5-21.1-12.8
				c0-6.3,6.4-9.2,12.3-9.2c5.8,0,10.2,1,14.3,6.2l0.1,0.1v0.1c0,1.6-2.3,2.6-3.9,2.6c-0.7,0-1.3-0.2-1.7-0.5
				c-2.7-2.3-5.8-4.5-11-4.5c-2.6,0-6.9,0.6-6.9,4.9c0,5,12.3,7.3,15.3,7.3c13.4,0,16.3-8.8,16.3-12.1c0-7-7.6-7.6-15.7-8.2
				c-8.4-0.6-17-1.3-17-9.6c0-10.3,12.9-15,24.8-15c2.7,0,9.2,0.6,12.1,6.2c0.3,0.4,0.3,0.9,0.3,1.2c0,2.5-3.6,4.6-5.5,4.6l-0.5-0.1
				c-0.2,0-0.5-0.2-0.5-0.5c0-0.2,0.1-0.3,0.2-0.4l0.1-0.1c0.4-0.5,1.3-1.5,1.3-2.3c0-0.1,0-0.2,0-0.2c-0.2-0.6-4-2.2-9.9-2.2
				c-6.1,0-15.3,2.3-15.3,8.5c0,4.2,5.5,4.7,11.9,5.2c9.1,0.8,20.5,1.7,20.5,14.4C343,217.8,328,221.6,322.5,221.6z"/>
			<path class="st6" d="M328.3,171.4c4,0,9.3,1.2,11.7,5.9c0.2,0.3,0.3,0.7,0.3,1.1c0,2.2-3.4,4.2-5.1,4.2l-0.4-0.1
				c-0.1,0-0.1-0.1-0.1-0.1c0-0.1,0-0.1,0.1-0.1c0.5-0.6,1.4-1.7,1.4-2.6c0-0.1,0-0.3-0.1-0.4c-0.3-0.9-4.5-2.4-10.3-2.4
				c-5.7,0-15.7,2.1-15.7,8.9c0,11,32.4-1.7,32.4,19.7c0,11.7-14.1,15.9-20.1,15.9c-6.7,0-20.7-4.3-20.7-12.4
				c0-6.3,6.6-8.8,11.9-8.8c5.3,0,9.8,0.8,14,6.1c0,1.3-2,2.2-3.5,2.2c-0.5,0-1.1-0.1-1.4-0.4c-2.9-2.4-6-4.6-11.3-4.6
				c-3.2,0-7.3,1-7.3,5.3c0,5.5,12.9,7.7,15.7,7.7c13.2,0,16.7-8.4,16.7-12.5c0-14.9-32.7-2.1-32.7-17.8
				C303.9,176.2,316.3,171.4,328.3,171.4 M328.3,170.6c-12.2,0-25.2,4.8-25.2,15.4c0,8.7,9.3,9.4,17.4,10c7.9,0.6,15.3,1.2,15.3,7.8
				c0,3.3-2.9,11.8-15.9,11.8c-2.9,0-14.9-2.3-14.9-6.9c0-3.9,4.1-4.5,6.5-4.5c5.1,0,8.1,2.2,10.7,4.4c0.5,0.4,1.2,0.6,2,0.6
				c1.8,0,4.3-1.1,4.3-3v-0.3l-0.2-0.2c-4.3-5.3-8.8-6.4-14.7-6.4c-6.1,0-12.7,3-12.7,9.6c0,8.5,14.2,13.2,21.5,13.2
				c5.6,0,20.9-4,20.9-16.7c0-13.1-11.6-14.1-20.9-14.8c-7.1-0.6-11.5-1.1-11.5-4.8c0-6,8.9-8.1,14.9-8.1c5.4,0,9.1,1.4,9.5,2
				c0,0,0,0.1,0,0.1c0,0.6-0.8,1.6-1.2,2l-0.1,0.1c-0.2,0.2-0.3,0.3-0.3,0.6c0,0.5,0.4,0.8,0.8,0.9l0.4,0.1l0.1,0h0.1
				c2,0,5.9-2.3,5.9-5c0-0.4-0.1-0.9-0.4-1.4C337.8,171.2,331.1,170.6,328.3,170.6L328.3,170.6z"/>
		</g>
		
			<radialGradient id="SVGID_00000049194429727225286120000002827727274097053605_" cx="613.7748" cy="266.711" r="51.891" gradientTransform="matrix(0.8099 0 0 0.8119 -234.0837 -39.7772)" gradientUnits="userSpaceOnUse">
			<stop  offset="0" style="stop-color:#620438"/>
			<stop  offset="0.1097" style="stop-color:#79124C"/>
			<stop  offset="0.2337" style="stop-color:#8C1E5F"/>
			<stop  offset="0.3638" style="stop-color:#9B2970"/>
			<stop  offset="0.4996" style="stop-color:#A5307C"/>
			<stop  offset="0.6437" style="stop-color:#AD3586"/>
			<stop  offset="0.8017" style="stop-color:#B1398B"/>
			<stop  offset="1" style="stop-color:#B23A8D"/>
		</radialGradient>
		<path style="fill:url(#SVGID_00000049194429727225286120000002827727274097053605_);" d="M252,172c-8.2-0.7-16.3,0.2-16.3,4.1
			c0,0.8,1.7,1.6,3.1,1.6c0.7,0,1.3-0.1,1.5-0.1c0.2-0.2,0.3-0.4,0.3-0.5c0-0.2-0.1-0.4-0.3-0.5c-0.3-0.1-2.4-0.4-2.4-0.8
			c0-0.3,0.4-0.5,1.5-0.8c1.7-0.5,3.5-0.6,5.2-0.6c8.3,0,15.3,2,22.9,4.4c11.7,3.7,24.7,14.7,24.7,23.2c0,11.5-14.3,13.3-21.2,12.9
			c-3.9-0.2-8.9-0.8-12.1-1.9c0,0,3.9,2.3,4,5c2.8,1.4,4.1,2.3,11.4,2.3c11.6,0,24-5.6,24-17.3C298.3,189.6,280.8,174.4,252,172z"/>
		<g>
			
				<radialGradient id="SVGID_00000105412503263206777380000011639011852430008240_" cx="638.4855" cy="346.6937" r="67.2356" gradientTransform="matrix(0.7736 0 0 0.7371 -250.5092 -28.0874)" gradientUnits="userSpaceOnUse">
				<stop  offset="0" style="stop-color:#6B822D"/>
				<stop  offset="8.707893e-02" style="stop-color:#7D933B"/>
				<stop  offset="0.2274" style="stop-color:#96AB51"/>
				<stop  offset="0.3785" style="stop-color:#AABF65"/>
				<stop  offset="0.5434" style="stop-color:#B9CD73"/>
				<stop  offset="0.7325" style="stop-color:#C2D67C"/>
				<stop  offset="1" style="stop-color:#C5D97F"/>
			</radialGradient>
			
				<path style="fill:url(#SVGID_00000105412503263206777380000011639011852430008240_);stroke:#9AC331;stroke-width:1.5903;stroke-miterlimit:10;" d="
				M239.5,190.9c-2.9,0-5.2-2.2-5.2-5c0-2.7,2.3-5,5.2-5c2.9,0,5.2,2.2,5.2,5C244.7,188.7,242.4,190.9,239.5,190.9z M239.5,183.3
				c-1.5,0-2.7,1.2-2.7,2.6c0,1.4,1.2,2.6,2.7,2.6c1.5,0,2.7-1.2,2.7-2.6C242.2,184.5,241,183.3,239.5,183.3z"/>
		</g>
		<g>
			<path class="st9" d="M301.7,173c0,0,4,3.8,4.8,4.6c0.8,0.8,1.4,0.7,2,0.1c0.6-0.6,5.1-4.9,5.1-4.9s-4.4,3.8-5.2,4.4
				c-0.8,0.6-1.3,0.4-1.9-0.2C306.1,176.7,301.7,173,301.7,173z"/>
			<path class="st9" d="M301.3,173.4c0,0,4,3.8,4.8,4.6c0.8,0.8,0.8,1.3,0.2,1.9c-0.6,0.6-5.1,4.9-5.1,4.9s3.9-4.2,4.6-5
				c0.6-0.7,0.5-1.2-0.2-1.8C305.1,177.6,301.3,173.4,301.3,173.4z"/>
			<path class="st9" d="M313.9,184.6c0,0-4-3.8-4.8-4.6c-0.8-0.8-0.8-1.3-0.2-1.9c0.6-0.6,5.1-4.9,5.1-4.9s-3.9,4.2-4.6,5
				c-0.6,0.7-0.5,1.2,0.2,1.8C310.1,180.4,313.9,184.6,313.9,184.6z"/>
			<path class="st9" d="M313.5,185c0,0-4-3.8-4.8-4.6c-0.8-0.8-1.4-0.7-2-0.1c-0.6,0.6-5.1,4.9-5.1,4.9s4.4-3.8,5.2-4.4
				c0.8-0.6,1.3-0.4,1.9,0.2C309.1,181.4,313.5,185,313.5,185z"/>
			<defs>
				<filter id="Adobe_OpacityMaskFilter" filterUnits="userSpaceOnUse" x="301.5" y="173.3" width="11.9" height="11.4">
					<feColorMatrix  type="matrix" values="1 0 0 0 0  0 1 0 0 0  0 0 1 0 0  0 0 0 1 0"/>
				</filter>
			</defs>
			
				<mask maskUnits="userSpaceOnUse" x="301.5" y="173.3" width="11.9" height="11.4" id="SVGID_00000182514236954608575580000003361477789614836145_">
				<g class="st10">
					
						<radialGradient id="SVGID_00000138544659104184689080000000164914770956787369_" cx="721.3216" cy="280.8756" r="7.3249" gradientTransform="matrix(0.7736 0 0 0.7371 -250.5092 -28.0874)" gradientUnits="userSpaceOnUse">
						<stop  offset="9.696970e-02" style="stop-color:#FFFFFF"/>
						<stop  offset="0.3226" style="stop-color:#B3B3B3"/>
						<stop  offset="0.5667" style="stop-color:#676767"/>
						<stop  offset="0.7692" style="stop-color:#2F2F2F"/>
						<stop  offset="0.9191" style="stop-color:#0D0D0D"/>
						<stop  offset="1" style="stop-color:#000000"/>
					</radialGradient>
					<path style="fill:url(#SVGID_00000138544659104184689080000000164914770956787369_);" d="M313.2,178.9c0-3-2.5-5.4-5.7-5.4
						c-3.1,0-5.7,2.4-5.7,5.4c0,3,2.5,5.4,5.7,5.4C310.6,184.3,313.2,181.9,313.2,178.9z"/>
				</g>
			</mask>
			<path style="mask:url(#SVGID_00000182514236954608575580000003361477789614836145_);fill:#FFFFFF;" d="M313.5,178.9
				c0-3.1-2.7-5.7-6-5.7c-3.3,0-6,2.5-6,5.7c0,3.1,2.7,5.7,6,5.7C310.8,184.6,313.5,182.1,313.5,178.9z"/>
		</g>
		<g>
			
				<linearGradient id="SVGID_00000076590633913380207030000010429616510121748132_" gradientUnits="userSpaceOnUse" x1="-1626.3406" y1="167.3905" x2="-1626.8927" y2="168.7497" gradientTransform="matrix(-0.9554 -0.2953 -0.2403 0.9613 -1252.9237 -468.7232)">
				<stop  offset="0" style="stop-color:#EE728A"/>
				<stop  offset="0.2181" style="stop-color:#EB5A71"/>
				<stop  offset="0.5646" style="stop-color:#E73553"/>
				<stop  offset="0.8372" style="stop-color:#E51841"/>
				<stop  offset="1" style="stop-color:#E4003B"/>
			</linearGradient>
			<path style="fill:url(#SVGID_00000076590633913380207030000010429616510121748132_);" d="M262.5,171.9c0,0-1.3,0.3-2.7,0.6
				c-1.3,0.3-1,1.2-0.7,1.6l3.2-0.8L262.5,171.9z"/>
			
				<linearGradient id="SVGID_00000054961101472508160640000017400689919551100827_" gradientUnits="userSpaceOnUse" x1="-1627.218" y1="170.0657" x2="-1626.5192" y2="168.9302" gradientTransform="matrix(-0.9554 -0.2953 -0.2403 0.9613 -1252.9237 -468.7232)">
				<stop  offset="0" style="stop-color:#C0C0C0"/>
				<stop  offset="6.278121e-02" style="stop-color:#C6C6C5"/>
				<stop  offset="0.4784" style="stop-color:#E5E5E5"/>
				<stop  offset="0.8049" style="stop-color:#F8F8F8"/>
				<stop  offset="1" style="stop-color:#FFFFFF"/>
			</linearGradient>
			<path style="fill:url(#SVGID_00000054961101472508160640000017400689919551100827_);" d="M262.4,173.4c0,0-1.3,0.3-2.7,0.6
				c-1.3,0.3-1,1.2-0.7,1.6l3.2-0.8L262.4,173.4z"/>
			
				<linearGradient id="SVGID_00000044158703139089423490000013068934166312205232_" gradientUnits="userSpaceOnUse" x1="-1626.4822" y1="170.2966" x2="-1627.589" y2="171.4477" gradientTransform="matrix(-0.9554 -0.2953 -0.2403 0.9613 -1252.9237 -468.7232)">
				<stop  offset="0" style="stop-color:#EE728A"/>
				<stop  offset="0.2181" style="stop-color:#EB5A71"/>
				<stop  offset="0.5646" style="stop-color:#E73553"/>
				<stop  offset="0.8372" style="stop-color:#E51841"/>
				<stop  offset="1" style="stop-color:#E4003B"/>
			</linearGradient>
			<path style="fill:url(#SVGID_00000044158703139089423490000013068934166312205232_);" d="M262.2,174.9c0,0-1.3,0.3-2.7,0.6
				c-1.3,0.3-1,1.2-0.7,1.6l3.2-0.8L262.2,174.9z"/>
			
				<linearGradient id="SVGID_00000131359322113498649260000012325127768640041880_" gradientUnits="userSpaceOnUse" x1="-1627.8464" y1="172.966" x2="-1626.6528" y2="171.7722" gradientTransform="matrix(-0.9554 -0.2953 -0.2403 0.9613 -1252.9237 -468.7232)">
				<stop  offset="0" style="stop-color:#C0C0C0"/>
				<stop  offset="6.278121e-02" style="stop-color:#C6C6C5"/>
				<stop  offset="0.4784" style="stop-color:#E5E5E5"/>
				<stop  offset="0.8049" style="stop-color:#F8F8F8"/>
				<stop  offset="1" style="stop-color:#FFFFFF"/>
			</linearGradient>
			<path style="fill:url(#SVGID_00000131359322113498649260000012325127768640041880_);" d="M262.1,176.5c0,0-1.3,0.3-2.7,0.6
				c-1.3,0.3-1,1.2-0.7,1.6l3.2-0.8L262.1,176.5z"/>
			
				<linearGradient id="SVGID_00000015354198673448419090000005981979530654265784_" gradientUnits="userSpaceOnUse" x1="-1626.9445" y1="173.1697" x2="-1627.9111" y2="174.4879" gradientTransform="matrix(-0.9554 -0.2953 -0.2403 0.9613 -1252.9237 -468.7232)">
				<stop  offset="0" style="stop-color:#EE728A"/>
				<stop  offset="0.2181" style="stop-color:#EB5A71"/>
				<stop  offset="0.5646" style="stop-color:#E73553"/>
				<stop  offset="0.8372" style="stop-color:#E51841"/>
				<stop  offset="1" style="stop-color:#E4003B"/>
			</linearGradient>
			<path style="fill:url(#SVGID_00000015354198673448419090000005981979530654265784_);" d="M261.9,178c0,0-1.3,0.3-2.7,0.6
				c-1.3,0.3-1,1.2-0.7,1.6l3.2-0.8L261.9,178z"/>
			
				<linearGradient id="SVGID_00000174589352503297711100000014394377857205232517_" gradientUnits="userSpaceOnUse" x1="-1628.2291" y1="175.9024" x2="-1626.948" y2="174.6212" gradientTransform="matrix(-0.9554 -0.2953 -0.2403 0.9613 -1252.9237 -468.7232)">
				<stop  offset="0" style="stop-color:#C0C0C0"/>
				<stop  offset="6.278121e-02" style="stop-color:#C6C6C5"/>
				<stop  offset="0.4784" style="stop-color:#E5E5E5"/>
				<stop  offset="0.8049" style="stop-color:#F8F8F8"/>
				<stop  offset="1" style="stop-color:#FFFFFF"/>
			</linearGradient>
			<path style="fill:url(#SVGID_00000174589352503297711100000014394377857205232517_);" d="M261.8,179.5c0,0-1.3,0.3-2.7,0.6
				c-1.3,0.3-1,1.2-0.7,1.6l3.2-0.8L261.8,179.5z"/>
			
				<linearGradient id="SVGID_00000154423281823825917000000012833446124848526254_" gradientUnits="userSpaceOnUse" x1="-1627.4386" y1="176.2132" x2="-1628.3165" y2="177.4862" gradientTransform="matrix(-0.9554 -0.2953 -0.2403 0.9613 -1252.9237 -468.7232)">
				<stop  offset="0" style="stop-color:#EE728A"/>
				<stop  offset="0.2181" style="stop-color:#EB5A71"/>
				<stop  offset="0.5646" style="stop-color:#E73553"/>
				<stop  offset="0.8372" style="stop-color:#E51841"/>
				<stop  offset="1" style="stop-color:#E4003B"/>
			</linearGradient>
			<path style="fill:url(#SVGID_00000154423281823825917000000012833446124848526254_);" d="M261.6,181c0,0-1.3,0.3-2.7,0.6
				c-1.3,0.3-1,1.2-0.7,1.6l3.2-0.8L261.6,181z"/>
			
				<linearGradient id="SVGID_00000095337023866724363960000018174675937132995764_" gradientUnits="userSpaceOnUse" x1="-1633.9257" y1="182.3462" x2="-1628.3479" y2="177.8752" gradientTransform="matrix(-0.9554 -0.2953 -0.2403 0.9613 -1252.9237 -468.7232)">
				<stop  offset="0" style="stop-color:#EE728A"/>
				<stop  offset="0.2181" style="stop-color:#DF566C"/>
				<stop  offset="0.5646" style="stop-color:#CA3148"/>
				<stop  offset="0.8372" style="stop-color:#BD1835"/>
				<stop  offset="1" style="stop-color:#B8092F"/>
			</linearGradient>
			<polyline style="fill:url(#SVGID_00000095337023866724363960000018174675937132995764_);" points="258.3,183.2 261.4,183.9 
				261.4,182.5 			"/>
			
				<linearGradient id="SVGID_00000178887173384893451300000004783765071174595762_" gradientUnits="userSpaceOnUse" x1="-1640.4733" y1="165.1617" x2="-1639.6022" y2="164.2907" gradientTransform="matrix(-0.9554 -0.2953 -0.2953 0.9554 -1256.4451 -468.9712)">
				<stop  offset="0" style="stop-color:#7E4A60"/>
				<stop  offset="0.1889" style="stop-color:#925E75"/>
				<stop  offset="0.5484" style="stop-color:#B38199"/>
				<stop  offset="0.8311" style="stop-color:#C899AF"/>
				<stop  offset="1" style="stop-color:#D0A1B8"/>
			</linearGradient>
			<path style="opacity:0.65;fill:url(#SVGID_00000178887173384893451300000004783765071174595762_);" d="M261.9,172.1
				c0,0,0.5,0.5-0.5,1.6l0.8-0.2l0.2-1.5L261.9,172.1z"/>
			
				<linearGradient id="SVGID_00000132069803560418813430000013885164014749056394_" gradientUnits="userSpaceOnUse" x1="-1640.7494" y1="166.6561" x2="-1639.8789" y2="165.7857" gradientTransform="matrix(-0.9554 -0.2953 -0.2953 0.9554 -1256.4451 -468.9712)">
				<stop  offset="0" style="stop-color:#7E4A60"/>
				<stop  offset="0.1889" style="stop-color:#925E75"/>
				<stop  offset="0.5484" style="stop-color:#B38199"/>
				<stop  offset="0.8311" style="stop-color:#C899AF"/>
				<stop  offset="1" style="stop-color:#D0A1B8"/>
			</linearGradient>
			<path style="opacity:0.65;fill:url(#SVGID_00000132069803560418813430000013885164014749056394_);" d="M261.7,173.6
				c0,0,0.5,0.5-0.5,1.6l0.8-0.2l0.2-1.5L261.7,173.6z"/>
			
				<linearGradient id="SVGID_00000165197492115035018150000000295133097572901053_" gradientUnits="userSpaceOnUse" x1="-1696.9331" y1="228.3759" x2="-1696.0543" y2="227.4971" gradientTransform="matrix(-0.9392 -0.2695 -0.2665 0.9557 -1271.1273 -499.3195)">
				<stop  offset="0" style="stop-color:#7E4A60"/>
				<stop  offset="0.1889" style="stop-color:#925E75"/>
				<stop  offset="0.5484" style="stop-color:#B38199"/>
				<stop  offset="0.8311" style="stop-color:#C899AF"/>
				<stop  offset="1" style="stop-color:#D0A1B8"/>
			</linearGradient>
			<path style="opacity:0.65;fill:url(#SVGID_00000165197492115035018150000000295133097572901053_);" d="M261.5,175.1
				c0,0,0.5,0.5-0.4,1.6l0.8-0.2l0.2-1.5L261.5,175.1z"/>
			
				<linearGradient id="SVGID_00000083806759886770049620000015794021733786472109_" gradientUnits="userSpaceOnUse" x1="-1697.2039" y1="229.8683" x2="-1696.3292" y2="228.9936" gradientTransform="matrix(-0.9392 -0.2695 -0.2665 0.9557 -1271.1273 -499.3195)">
				<stop  offset="0" style="stop-color:#7E4A60"/>
				<stop  offset="0.1889" style="stop-color:#925E75"/>
				<stop  offset="0.5484" style="stop-color:#B38199"/>
				<stop  offset="0.8311" style="stop-color:#C899AF"/>
				<stop  offset="1" style="stop-color:#D0A1B8"/>
			</linearGradient>
			<path style="opacity:0.65;fill:url(#SVGID_00000083806759886770049620000015794021733786472109_);" d="M261.4,176.6
				c0,0,0.5,0.5-0.4,1.6l0.8-0.2l0.1-1.5L261.4,176.6z"/>
			
				<linearGradient id="SVGID_00000159428997356979945840000003377383206273554328_" gradientUnits="userSpaceOnUse" x1="-1636.1671" y1="167.8013" x2="-1635.3058" y2="166.9399" gradientTransform="matrix(-0.9554 -0.2953 -0.2802 0.9725 -1254.7015 -467.0733)">
				<stop  offset="0" style="stop-color:#7E4A60"/>
				<stop  offset="0.1889" style="stop-color:#925E75"/>
				<stop  offset="0.5484" style="stop-color:#B38199"/>
				<stop  offset="0.8311" style="stop-color:#C899AF"/>
				<stop  offset="1" style="stop-color:#D0A1B8"/>
			</linearGradient>
			<path style="opacity:0.65;fill:url(#SVGID_00000159428997356979945840000003377383206273554328_);" d="M261.3,178.1
				c0,0,0.5,0.5-0.5,1.6l0.8-0.2l0.1-1.5L261.3,178.1z"/>
			
				<linearGradient id="SVGID_00000144322950067991231450000010488792621044984205_" gradientUnits="userSpaceOnUse" x1="-1636.4551" y1="169.261" x2="-1635.5935" y2="168.3994" gradientTransform="matrix(-0.9554 -0.2953 -0.2802 0.9725 -1254.7015 -467.0733)">
				<stop  offset="0" style="stop-color:#7E4A60"/>
				<stop  offset="0.1889" style="stop-color:#925E75"/>
				<stop  offset="0.5484" style="stop-color:#B38199"/>
				<stop  offset="0.8311" style="stop-color:#C899AF"/>
				<stop  offset="1" style="stop-color:#D0A1B8"/>
			</linearGradient>
			<path style="opacity:0.65;fill:url(#SVGID_00000144322950067991231450000010488792621044984205_);" d="M261.1,179.6
				c0,0,0.5,0.5-0.5,1.6l0.8-0.2l0.1-1.5L261.1,179.6z"/>
			
				<linearGradient id="SVGID_00000152245716993334191180000002810927417601923741_" gradientUnits="userSpaceOnUse" x1="-1636.7651" y1="170.7009" x2="-1635.903" y2="169.8388" gradientTransform="matrix(-0.9554 -0.2953 -0.2802 0.9725 -1254.7015 -467.0733)">
				<stop  offset="0" style="stop-color:#7E4A60"/>
				<stop  offset="0.1889" style="stop-color:#925E75"/>
				<stop  offset="0.5484" style="stop-color:#B38199"/>
				<stop  offset="0.8311" style="stop-color:#C899AF"/>
				<stop  offset="1" style="stop-color:#D0A1B8"/>
			</linearGradient>
			<path style="opacity:0.65;fill:url(#SVGID_00000152245716993334191180000002810927417601923741_);" d="M261,181.1
				c0,0,0.5,0.5-0.5,1.6l0.8-0.2l0.1-1.5L261,181.1z"/>
			
				<linearGradient id="SVGID_00000070803808513889710860000001339330123335676320_" gradientUnits="userSpaceOnUse" x1="-1642.4464" y1="174.3082" x2="-1641.9069" y2="175.0439" gradientTransform="matrix(-0.9554 -0.2953 -0.2953 0.9554 -1256.4451 -468.9712)">
				<stop  offset="0" style="stop-color:#000000"/>
				<stop  offset="0.2558" style="stop-color:#5E0D26"/>
				<stop  offset="0.5114" style="stop-color:#8B1F49"/>
				<stop  offset="0.7288" style="stop-color:#AA2C62"/>
				<stop  offset="0.8986" style="stop-color:#BD3373"/>
				<stop  offset="1" style="stop-color:#C43679"/>
			</linearGradient>
			<path style="opacity:0.8;fill:url(#SVGID_00000070803808513889710860000001339330123335676320_);" d="M260.6,182.7
				c0,0,0.6,0.1,0.5,0.5l0.2-0.7L260.6,182.7z"/>
		</g>
		
			<linearGradient id="SVGID_00000042014600257760614310000002543428490089892265_" gradientUnits="userSpaceOnUse" x1="260.375" y1="195.901" x2="266.9725" y2="195.901">
			<stop  offset="0" style="stop-color:#EF85AD"/>
			<stop  offset="1" style="stop-color:#F8C9DD"/>
		</linearGradient>
		<path style="fill:url(#SVGID_00000042014600257760614310000002543428490089892265_);" d="M266.9,176.1c-0.2-3.1-0.7-6-3.6-5.8
			c-1.6,1.4-1.9,7.1-2,7.8l-0.1,1.6l-0.9,39.2c0,1.5,0.8,2.3,1.8,2.5l1.6,0.1c0.9,0,1.6-0.1,2.5-0.3c0.3-1,0.5-1.6,0.6-2l0-4.9
			l-0.1-28.5c0,0,0.1,0,0.1,0l0-5.4l-0.1,0l0.1,0v-2.6v2.6C267,180.4,266.9,177.4,266.9,176.1z"/>
		<g>
			<defs>
				<path id="SVGID_00000024717259464580209640000004497783258821039282_" d="M266.9,176.1c-0.2-3.1-0.6-5.8-3.6-5.8
					c-1.6,1.4-1.9,7.1-2,7.8l-0.1,1.6l-0.9,39.2c0,1.7,0.7,2.2,1.8,2.5l1.6,0.1c0.9,0,1.6-0.1,2.5-0.3c0.4-0.1,0.7-1.2,0.6-2l0-4.9
					l-0.1-28.5c0,0,0.1,0,0.1,0l0-5.4l-0.1,0l0.1,0v-2.6v2.6C267,180.4,266.9,177.4,266.9,176.1z"/>
			</defs>
			<clipPath id="SVGID_00000045612441543932822890000017770237890139826588_">
				<use xlink:href="#SVGID_00000024717259464580209640000004497783258821039282_"  style="overflow:visible;"/>
			</clipPath>
			<path style="clip-path:url(#SVGID_00000045612441543932822890000017770237890139826588_);fill:#F8C9DD;" d="M266.9,176.1
				c-0.1-3.1-0.3-5.3-1.7-7.3c-0.9,1.4-1.3,8.7-1.3,9.4l0,1.6l-0.5,39.2c0,1.7,0.3,2.4,0.9,2.6h0.9c0.5,0,1.2-0.2,1.7-0.4
				c0.2-1-0.1-1.5,0-2v-4.9l0-28.5c0,0,0,0,0,0v-5.4l0,0l0,0v-2.6v2.6C267,180.4,267,177.4,266.9,176.1z"/>
		</g>
		
			<radialGradient id="SVGID_00000155847161636622919410000006362984701907296135_" cx="615.8637" cy="263.8064" r="52.6623" gradientTransform="matrix(0.8099 0 0 0.8369 -234.0837 -46.0464)" gradientUnits="userSpaceOnUse">
			<stop  offset="0" style="stop-color:#65074C"/>
			<stop  offset="3.644174e-02" style="stop-color:#6B0D52"/>
			<stop  offset="0.1707" style="stop-color:#801F65"/>
			<stop  offset="0.3114" style="stop-color:#912C75"/>
			<stop  offset="0.4584" style="stop-color:#9E3682"/>
			<stop  offset="0.6144" style="stop-color:#A73D8B"/>
			<stop  offset="0.7854" style="stop-color:#AD4290"/>
			<stop  offset="1" style="stop-color:#AF4392"/>
		</radialGradient>
		<path style="fill:url(#SVGID_00000155847161636622919410000006362984701907296135_);" d="M250.3,210.7c1.7,2.1,8.6,7.4,17,9.1
			c0,0,0-5.1,0-5.1s-2.6-0.2-6-1.1c-3.2-0.9-7.2-2.5-9.6-4.5c-2.7-2.2-3.4-3-4.7-5.4C247.2,205.6,248.2,208.2,250.3,210.7z"/>
		
			<linearGradient id="SVGID_00000023276983677189146790000010650971458418811821_" gradientUnits="userSpaceOnUse" x1="236.3504" y1="193.9685" x2="211.4086" y2="199.5111">
			<stop  offset="0" style="stop-color:#DC7901"/>
			<stop  offset="7.917684e-02" style="stop-color:#E58B12"/>
			<stop  offset="0.1833" style="stop-color:#EE9B1E"/>
			<stop  offset="0.313" style="stop-color:#F4A727"/>
			<stop  offset="0.4949" style="stop-color:#F8AE2C"/>
			<stop  offset="1" style="stop-color:#F9B02D"/>
		</linearGradient>
		<path style="fill:url(#SVGID_00000023276983677189146790000010650971458418811821_);" d="M219.5,196.5
			c7.8-5.3,13.1-14.1,13.1-23.1c0-2-2.6-3.8-4.3-3.8c-2.4,0-3.4,2.8-3.4,3.3l0.9,1.6c0.2-1.6,1-1.7,1.8-1.7c0.9,0,1.2,0.6,1.2,1.4
			c0,2.8-3.7,9.1-5.3,10.8c-2.7,3.2-5.5,6.2-8.6,8.6c-3.2-1.8-6.4-3-9.3-3.6l-0.7,3.5c0.8,0.2,1.6,0.5,2.4,1
			c0.9,0.6,1.8,1.2,2.9,1.9c-1.9,0.9-4,1.5-6.2,1.7l-0.7,3.6c3.8,0,7.5-0.8,10.9-2.3c5.9,5.1,12,11.3,13.9,20.1
			c0.1,0.8,0.9,1.8,2.3,1.8c0.4,0,0.6-1.1,0.6-2.5c0-2.8-0.7-5.9-1.4-7.9C227.5,204.7,223.7,199.9,219.5,196.5z"/>
		
			<radialGradient id="SVGID_00000029006094694368860490000006802601615540544697_" cx="583.1307" cy="297.9439" r="5.8125" gradientTransform="matrix(0.7736 0 0 0.7371 -250.5092 -28.0874)" gradientUnits="userSpaceOnUse">
			<stop  offset="0.303" style="stop-color:#DC7901"/>
			<stop  offset="1" style="stop-color:#F9B02D"/>
		</radialGradient>
		<path style="fill:url(#SVGID_00000029006094694368860490000006802601615540544697_);" d="M203.2,198.2c-0.8,0.1-6.6-0.2-6.4-2.6
			c0.1-2.2,5.2-2.4,6.2-2.4l0,0h0.2h0.2c0.5,0,1.1,0.1,1.7,0.2l0.7-3.5c-0.1,0-0.2,0-0.3-0.1c0,0,0,0-0.1,0c-1-0.2-1.9-0.3-2.7-0.3
			c-1.1,0-4.6,0.5-6.1,1.7c-1.6,1.3-2.5,2.7-2.5,4.4c0,1.4,1.1,3.5,2.5,4.2c2.5,1.3,5,2,6.8,1.9l0.7-3.6
			C203.8,198.2,203.5,198.2,203.2,198.2z"/>
		
			<linearGradient id="SVGID_00000110465385480736431130000011866686211770466962_" gradientUnits="userSpaceOnUse" x1="217.3672" y1="197.8623" x2="219.784" y2="201.287">
			<stop  offset="0" style="stop-color:#DC7901"/>
			<stop  offset="7.917684e-02" style="stop-color:#E58B12"/>
			<stop  offset="0.1833" style="stop-color:#EE9B1E"/>
			<stop  offset="0.313" style="stop-color:#F4A727"/>
			<stop  offset="0.4949" style="stop-color:#F8AE2C"/>
			<stop  offset="1" style="stop-color:#F9B02D"/>
		</linearGradient>
		<path style="fill:url(#SVGID_00000110465385480736431130000011866686211770466962_);" d="M222.7,199.5c0,0-1-1.2-3.2-3
			c0,0-2.4,1.6-5.3,2.9c0,0,2.8,2.6,3.7,3.6L222.7,199.5z"/>
		
			<linearGradient id="SVGID_00000060012229764787577610000017843310429917539758_" gradientUnits="userSpaceOnUse" x1="211.9577" y1="195.6154" x2="207.885" y2="190.5251">
			<stop  offset="0" style="stop-color:#DC7901"/>
			<stop  offset="7.917684e-02" style="stop-color:#E58B12"/>
			<stop  offset="0.1833" style="stop-color:#EE9B1E"/>
			<stop  offset="0.313" style="stop-color:#F4A727"/>
			<stop  offset="0.4949" style="stop-color:#F8AE2C"/>
			<stop  offset="1" style="stop-color:#F9B02D"/>
		</linearGradient>
		<path style="fill:url(#SVGID_00000060012229764787577610000017843310429917539758_);" d="M215.1,193.5c0,0-1.8,1.5-4.7,2.8
			c0,0-3-2.4-4.7-2.7l0.9-3.5C206.6,190.1,211,191.1,215.1,193.5z"/>
		<g>
			
				<radialGradient id="SVGID_00000013891450722897637070000001156626161761399708_" cx="583.6626" cy="308.1998" r="39.6432" gradientTransform="matrix(0.7736 0 0 0.7371 -250.5092 -28.0874)" gradientUnits="userSpaceOnUse">
				<stop  offset="0" style="stop-color:#DC7901"/>
				<stop  offset="7.917684e-02" style="stop-color:#E58B12"/>
				<stop  offset="0.1833" style="stop-color:#EE9B1E"/>
				<stop  offset="0.313" style="stop-color:#F4A727"/>
				<stop  offset="0.4949" style="stop-color:#F8AE2C"/>
				<stop  offset="1" style="stop-color:#F9B02D"/>
			</radialGradient>
			<path style="fill:url(#SVGID_00000013891450722897637070000001156626161761399708_);" d="M204.3,198.1
				c-0.3-6.2-0.6-10.2-0.6-10.2l-0.6-14.9c-0.1-1.8-1.6-2.4-2.6-2.4c-1.4,0-2.6,0.2-2.7,1.4v4.9l0.1,1.2v11.5c0.1,3.3,0.1,3.5,0,7.7
				C200,198.2,202.2,198.3,204.3,198.1z"/>
		</g>
	</g>
</g>
</svg>
