<svg xmlns="http://www.w3.org/2000/svg" width="100.225" height="118.664" viewBox="0 0 100.225 118.664">
  <g id="_3D-dental-ico" data-name="3D-dental-ico" transform="translate(0.175 0.175)">
    <path id="Path_13046" data-name="Path 13046" d="M-3482.579,978.522l0-.425,1.087.1c.787.071,1.53.133,2.243.193,1.716.145,3.2.27,4.711.452.1.012.207.027.312.042l.117.016a1.234,1.234,0,0,0-.383-.2c-1.518-.262-3.069-.4-4.57-.534-.566-.05-1.121-.1-1.662-.155l-.73-.074-1.155-5.476a23.845,23.845,0,0,1,.312,4.318l-.017.675-5,1.895a24.584,24.584,0,0,1,3.744-.709Z" transform="translate(3508.06 -915.264)" fill="#50595c" stroke="#50595c" stroke-width="0.35"/>
    <path id="Path_13047" data-name="Path 13047" d="M-3475.172,1012.125l.007.211c0,.115.01.289.024.455a2.357,2.357,0,0,0,.13-.639c.081-4.126.107-8.23.134-12.575q.006-.932.013-1.875c-.024.247-.046.491-.07.735-.167,1.745-.323,3.393-.365,5.045C-3475.37,1006.35-3475.27,1009.286-3475.172,1012.125Z" transform="translate(3500.324 -931.558)" fill="#50595c" stroke="#50595c" stroke-width="0.35"/>
    <path id="Path_13048" data-name="Path 13048" d="M-3501.836,852.634c.086-.759.175-1.544.241-2.31a2.542,2.542,0,0,1,2.8-2.549,30.3,30.3,0,0,1,4.1.182l-5.865-1.145.427-1.116c.054-.143.112-.286.17-.428a6.268,6.268,0,0,1-1.592,2.233,5.1,5.1,0,0,1-2.122.961c.126-.026.254-.052.381-.076l1.194-.229v7C-3502.027,854.305-3501.93,853.462-3501.836,852.634Z" transform="translate(3518.622 -833.176)" fill="#50595c" stroke="#50595c" stroke-width="0.35"/>
    <path id="Path_13049" data-name="Path 13049" d="M-3467.283,836.836a23.484,23.484,0,0,1,3.613,1.344,2.743,2.743,0,0,1,1.54,2.09q.019,1.031.027,2.067.052-.838.135-1.686l.154-1.568,1.356.8c.406.24.785.466,1.146.682.746.446,1.39.831,2.052,1.2l1.514.848c2.217,1.241,4.508,2.524,6.8,3.688a.611.611,0,0,0,.074,0,.445.445,0,0,0-.083-.1c-1.833-1.09-3.727-2.17-5.559-3.215-1.8-1.024-3.652-2.083-5.464-3.158a2.768,2.768,0,0,1-1.246-2.773c.753-2.1,1.6-4.178,2.427-6.187q.4-.965.785-1.921l.4-1,4.3,2.117c2.99,1.473,5.815,2.864,8.618,4.217a6.414,6.414,0,0,0,2,.669.856.856,0,0,0,.291-.047,1.088,1.088,0,0,0-.135-.2c-1.333-.611-2.744-1.148-4.108-1.668-.679-.258-1.359-.517-2.034-.786a3.83,3.83,0,0,1-.834-.5c-.157-.113-.352-.253-.61-.427l-2.836-1.9,3.414.062c4.51.079,8.509-1.205,12.344-2.627-1.628.51-3.273.987-4.926,1.4a39.088,39.088,0,0,1-7.636.86c-1,.046-2.042.094-3.046.174a3.029,3.029,0,0,1-1.8-.479q-1.339-.888-2.712-1.658l-4.752,10.706Z" transform="translate(3495.136 -821.289)" fill="#50595c" stroke="#50595c" stroke-width="0.35"/>
    <path id="Path_13050" data-name="Path 13050" d="M-3331.053,836.7a2.759,2.759,0,0,1-.719-1.719c-.017-.106-.033-.21-.053-.307-2.035-10.129-7.992-15.876-18.21-17.568a2.182,2.182,0,0,1-.705-.268h-5.972c-.76.249-1.526.505-2.288.764a22.829,22.829,0,0,1,19.844,4.276,18.872,18.872,0,0,1,6.825,11.395l.275,1.292-1.319-.08q-1.333-.08-2.656-.156l-.889-.052a10.984,10.984,0,0,1,5.51,2.418,10.783,10.783,0,0,1,3.69,8.777c-.067,1.744-.05,3.531-.034,5.26.013,1.288.025,2.619,0,3.934-.105,6.439-4.536,10.766-11.024,10.766h-4.453V834.673l.8-.17a16.876,16.876,0,0,1,3.089-.374c-.988-.061-1.979-.126-2.961-.2-.7-.051-.919.074-.979.13s-.219.293-.213,1.1c.052,7.093.046,14.3.038,21.275q0,3.726,0,7.453a10.3,10.3,0,0,0,.068,1.649,10.573,10.573,0,0,0,1.683.111c.216.005.427.023.672.044l.359.029,1.126.083-.214,1.109c-.135.7-.3,1.4-.459,2.067a19.457,19.457,0,0,0-.687,4.156q-.01.688,0,1.38a27.432,27.432,0,0,1,1.337-6.807,3.3,3.3,0,0,1,2.226-2.063c5.534-.9,8.619-3.863,9.708-9.312a7.45,7.45,0,0,1,.214-.782l.05-.16V843.95A13.1,13.1,0,0,0-3331.053,836.7Z" transform="translate(3425.247 -814.825)" fill="#50595c" stroke="#50595c" stroke-width="0.35"/>
    <path id="Path_13051" data-name="Path 13051" d="M-3457.506,882.753q.068,1.161.134,2.321c.865,15.814-3.326,28.7-12.812,39.4a34.413,34.413,0,0,1-4.805,4.224c-.5.387-1,.775-1.492,1.169a3.967,3.967,0,0,1-5.319.119c-1.514-1.234-1.931-2.949-1.24-5.1a53.872,53.872,0,0,0,2.545-18.859c-.326-7.692-1.829-13.526-4.725-18.359a20.047,20.047,0,0,0-4.34-5.064c-2.8-2.3-6.308-2.282-9.391.048-2.684,2.028-4.633,4.914-6.137,9.081-3.623,10.044-3.8,20.55-.529,32.12.057.2.126.4.194.6.1.3.208.616.289.954a4.191,4.191,0,0,1-1.536,4.677c-1.5,1.12-3.105,1.1-4.907-.068-5.612-3.628-10.053-8.79-13.58-15.784A54.091,54.091,0,0,1-3530.891,886a3.3,3.3,0,0,1,.788-2.291,20.85,20.85,0,0,1,4.849-3.357l-5.148,1.953,0-1.5a5.82,5.82,0,0,1,.021-1.169,26.128,26.128,0,0,0-.832-10.455,2.528,2.528,0,0,1,1.092-3.158,23.9,23.9,0,0,1,9.713-3.676l.8-.116.285.755a57.069,57.069,0,0,1,1.96,5.98l-1.434-6.8,1.132-.1a24.506,24.506,0,0,1,14.818,3.61,3.477,3.477,0,0,1,1.326,2.052c.224.848.418,1.71.606,2.544.244,1.083.5,2.2.809,3.269a.441.441,0,0,0,.073.129.3.3,0,0,0,.021-.091,26.177,26.177,0,0,0-.506-3.156c-.1-.5-.2-1.01-.3-1.554l-.39-2.143,3.161,1.838a16.034,16.034,0,0,1-6.64-10.121c-.245-1.031-.592-2.04-.961-3.108a33.09,33.09,0,0,1-1.175-3.944l-.482-2.27,1.986,1.2c.37.223.737.45,1.1.678.778.482,1.582.98,2.385,1.421l.289.158c2.525,1.384,5.136,2.814,7.754,4.094a.479.479,0,0,0,.089-.006.53.53,0,0,0-.1-.133c-2.654-1.536-5.387-3.064-8.031-4.541q-2.45-1.37-4.894-2.747a2.843,2.843,0,0,1-1.372-1.626,38.714,38.714,0,0,1-1.016-6.478q0,1.3,0,2.58,0,1.393,0,2.79v1.516l-1.4-.59c-3.592-1.517-7.781-1.955-13.582-1.419l-.995.092-.1-.995c-.062-.626-.141-1.261-.217-1.876-.086-.694-.173-1.4-.238-2.11v4.6l-4.107,2.075a21.509,21.509,0,0,1,3.482-1.079l.864-.191,5.332,14.9-11.889,4.825-1.321-3.239c-1.14-2.789-2.319-5.672-3.453-8.578a2.52,2.52,0,0,1,.537-2.463,20.8,20.8,0,0,1,3.458-2.662l-4.861,2.456-.368-1.1a32.981,32.981,0,0,1-1.718-12.206,2.92,2.92,0,0,1,.738-1.7,21.185,21.185,0,0,1,11.261-6.559c-.23.046-.462.088-.691.13a9.23,9.23,0,0,0-1.961.5c-1.694.733-3.372,1.632-4.995,2.5-.712.381-1.423.762-2.14,1.132l-1.75.9.3-1.948c1.412-9.311,10.363-16.41,20.355-16.169l2.258.055-1.553,1.641c-.256.269-.509.529-.757.783-.53.544-1.032,1.058-1.481,1.6l-.044.053a21.974,21.974,0,0,0-2.089,2.786,14.508,14.508,0,0,0-.8,1.69l-.091.212a20.271,20.271,0,0,1,6.178-7.365,4.915,4.915,0,0,1,5.038-.95c1.554.614,3.125,1.216,4.645,1.8q.978.374,1.935.741l.97.374a38.578,38.578,0,0,0-9.616-3.839h-7.545q-.545.15-1.092.3c-.856.231-1.74.47-2.6.728a20.588,20.588,0,0,0-14.6,17.816,7.163,7.163,0,0,1-.256,1.213c-.031.112-.063.224-.091.337v5.088c.19.874.363,1.761.531,2.621a50.816,50.816,0,0,0,1.394,5.9c1.3,3.993,2.925,7.855,4.2,10.773a38.57,38.57,0,0,1,3.131,21.408,52.656,52.656,0,0,0,4.182,28.65c3.191,7.373,7.389,12.964,12.834,17.091a25.332,25.332,0,0,0,2.733,1.721c.375.214.75.429,1.119.649h1.95c3.357-1.821,3.858-3.224,2.707-7.243-3.619-12.65-3.162-23.8,1.4-34.091a21.846,21.846,0,0,1,5.172-6.864c2.619-2.456,6.072-2.517,9.236-.159,3.956,2.948,5.706,7.352,6.79,10.86a51.822,51.822,0,0,1-.142,30.233c-1.177,4.044-.713,5.386,2.653,7.266h1.972c7.059-3.785,12.282-9.847,16.423-19.056a56.161,56.161,0,0,0,4.282-30.955Q-3457.555,881.939-3457.506,882.753Zm-62.9-22.986c-.734-2.142-1.524-4.311-2.287-6.409q-.707-1.943-1.405-3.889a9.294,9.294,0,0,1-.329-1.3c-.045-.217-.092-.451-.152-.709l-.252-1.094,1.116-.13c5.634-.658,10.231-.021,14.464,2a2.645,2.645,0,0,1,1.338,1.386c1.236,3.506,2.423,6.957,3.679,10.61l1.465,4.256-1.615-.216c-.076-.01-.151-.014-.223-.019a2.307,2.307,0,0,1-.867-.181,23.775,23.775,0,0,0-11.724-2.193A2.8,2.8,0,0,1-3520.408,859.767Z" transform="translate(3542.176 -814.825)" fill="#50595c" stroke="#50595c" stroke-width="0.35"/>
    <path id="Path_13052" data-name="Path 13052" d="M-3414.653,966.666l.207.119a1.261,1.261,0,0,0-.253-.3q-.646-.267-1.25-.57l1.151.666Z" transform="translate(3462.004 -911.043)" fill="#50595c" stroke="#50595c" stroke-width="0.35"/>
    <path id="Path_13053" data-name="Path 13053" d="M-3311.681,868.781v28.938h3.448c5.95,0,9.922-3.853,10.019-9.778.05-3.072-.086-6.148.031-9.216C-3297.931,872.145-3303.284,866.992-3311.681,868.781Zm12.494,9.906c-.069,1.792-.052,3.6-.034,5.356.012,1.274.024,2.593,0,3.881-.088,5.339-3.626,8.789-9.015,8.789h-2.443v-27.1c3.389-.546,6.389.121,8.513,1.91A8.784,8.784,0,0,1-3299.187,878.687Z" transform="translate(3394.708 -848.12)" fill="#50595c" stroke="#50595c" stroke-width="0.35"/>
    <path id="Path_13054" data-name="Path 13054" d="M-3511.577,965.51l11.982-4.545c.105-4.247-1.179-8.562-2.85-12.964a22.858,22.858,0,0,0-9.312,3.525c-.853.552-.922,1.107-.667,2.054a27.24,27.24,0,0,1,.857,10.853A5.671,5.671,0,0,0-3511.577,965.51Zm.123-12.189c-.181-.676-.124-.713.243-.951a21.926,21.926,0,0,1,8.115-3.244,34.1,34.1,0,0,1,2.5,11.143l-9.907,3.758A28.388,28.388,0,0,0-3511.454,953.321Z" transform="translate(3524.355 -899.481)" fill="#50595c" stroke="#50595c" stroke-width="0.35"/>
    <path id="Path_13055" data-name="Path 13055" d="M-3440.672,834.935c2.958.213,5.92.368,8.917.55a17.975,17.975,0,0,0-6.457-10.809c-6.978-5.4-14.763-5.866-22.807-2.977-5.42,1.946-10.654,4.443-17.093,4.326a10.023,10.023,0,0,0,1.256.832c2.075.826,4.193,1.557,6.219,2.488.517.237.752,1.085,1.118,1.652a5.356,5.356,0,0,1-1.824.493,7.19,7.19,0,0,1-2.334-.764c-3.806-1.837-7.593-3.716-11.956-5.86-1.067,2.639-2.213,5.326-3.2,8.07-.141.391.365,1.3.813,1.571,3.651,2.168,7.379,4.206,11.028,6.377.511.3.721,1.114,1.071,1.69-.674.077-1.495.441-2,.184-2.837-1.44-5.6-3.022-8.386-4.573-1-.56-1.981-1.164-3.219-1.895a38.333,38.333,0,0,0,.879,13.107,1.893,1.893,0,0,0,.891.99c4.31,2.44,8.656,4.817,12.942,7.3.513.3.727,1.112,1.079,1.688-.665.1-1.472.485-1.971.241-2.753-1.344-5.442-2.823-8.13-4.3-1.2-.659-2.353-1.411-3.527-2.121.534,2.508,1.581,4.71,2.13,7.03,1.254,5.3,4.184,9.032,9.253,11.127.539.222,1.209,1.389,1.042,1.811-.436,1.106-1.336.487-2.052.074-1.39-.8-2.775-1.61-4.363-2.534.328,1.811.706,3.305.821,4.818.045.6-.5,1.236-.777,1.856-.442-.51-1.112-.953-1.284-1.541-.564-1.92-.912-3.9-1.422-5.84a2.5,2.5,0,0,0-.868-1.444,23.481,23.481,0,0,0-14.219-3.473c.963,4.561,1.9,9.017,2.849,13.489,1.982.2,4.162.33,6.3.7.617.106,1.6.927,1.574,1.377-.061,1.147-1.055.861-1.913.758-2.133-.256-4.281-.4-6.923-.642-.044,5.844-.055,11.263-.162,16.681-.014.673-.429,1.824-.838,1.912-1.289.276-1.3-.935-1.328-1.772-.1-2.951-.207-5.906-.133-8.856.062-2.452.373-4.9.588-7.529a20.286,20.286,0,0,0-11.856,5.26,2.609,2.609,0,0,0-.465,1.617,52.876,52.876,0,0,0,5.627,27.72c3.132,6.211,7.3,11.56,13.228,15.393,1.273.823,2.485,1.059,3.761.107a3.218,3.218,0,0,0,1.158-3.637c-.124-.515-.33-1.009-.474-1.52-3.1-10.967-3.357-21.9.551-32.735a19.909,19.909,0,0,1,6.478-9.542c3.344-2.528,7.407-2.676,10.635-.022a20.919,20.919,0,0,1,4.563,5.324c3.456,5.764,4.587,12.216,4.868,18.833a54.654,54.654,0,0,1-2.592,19.211c-.5,1.546-.412,2.925.918,4.01a2.971,2.971,0,0,0,4.055-.125,48.493,48.493,0,0,0,6.175-5.274c9.788-11.042,13.354-24.166,12.559-38.682-.219-4-.524-8-.469-12a37.735,37.735,0,0,1,1.165-6.4c-.4-.03-.688-.063-.979-.071-2.733-.068-2.734-.067-2.734-2.764,0-9.574.037-19.148-.034-28.721C-3442.955,835.435-3442.336,834.814-3440.672,834.935Zm-3.236,23.508q0,3.727,0,7.455c0,3.155.431,3.665,3.492,3.763-.066.291-.135.58-.2.865a21.25,21.25,0,0,0-.741,4.593c-.044,3.263.15,6.565.339,9.759.045.771.09,1.542.132,2.313.836,15.259-3.19,27.676-12.307,37.96a32.927,32.927,0,0,1-4.532,3.968c-.51.395-1.02.789-1.519,1.19a1.964,1.964,0,0,1-2.792.131c-.864-.706-1.038-1.553-.6-2.925a55.921,55.921,0,0,0,2.64-19.561c-.343-8.039-1.934-14.174-5.011-19.307a21.8,21.8,0,0,0-4.787-5.584,9.1,9.1,0,0,0-5.827-2.166,10.037,10.037,0,0,0-6.053,2.163c-3.008,2.274-5.175,5.453-6.816,10-3.771,10.453-3.958,21.361-.573,33.349.066.237.145.47.224.7.093.273.18.53.24.778a2.226,2.226,0,0,1-.783,2.6c-.666.5-1.365.661-2.613-.146-5.3-3.428-9.515-8.335-12.876-15a52.092,52.092,0,0,1-5.523-27.2,2.6,2.6,0,0,1,.164-.961,18.982,18.982,0,0,1,10.044-4.813c-.035.387-.072.769-.108,1.15-.17,1.781-.33,3.463-.374,5.185-.073,2.929.029,5.9.127,8.764l.008.21a2.936,2.936,0,0,0,.833,2.347,1.984,1.984,0,0,0,1.709.315c1.207-.26,1.618-2.2,1.632-2.875.081-4.139.107-8.25.134-12.6q.01-1.485.019-3l1.167.1c1.7.143,3.161.267,4.64.445.089.011.18.023.27.036a2.588,2.588,0,0,0,2.123-.327,1.869,1.869,0,0,0,.643-1.413c.061-1.168-1.526-2.268-2.407-2.419-1.6-.275-3.193-.418-4.734-.555l-.909-.082-2.454-11.625a22.729,22.729,0,0,1,12.477,3.4,1.812,1.812,0,0,1,.414.838c.214.813.4,1.657.587,2.474.25,1.113.51,2.265.841,3.393a3.533,3.533,0,0,0,1.1,1.519c.148.141.288.274.4.4l1.035,1.192.643-1.441c.065-.147.162-.315.265-.494a3.265,3.265,0,0,0,.6-1.847,23.5,23.5,0,0,0-.413-2.759c.843.49,1.647.957,2.452,1.421l.134.078a2.7,2.7,0,0,0,2.233.514,1.874,1.874,0,0,0,1.122-1.168c.42-1.066-.7-2.741-1.594-3.109a14,14,0,0,1-8.659-10.43c-.267-1.128-.648-2.232-1.015-3.3-.148-.429-.3-.864-.443-1.3.458.276.922.549,1.394.808l.289.158c2.561,1.4,5.208,2.854,7.884,4.16a2.847,2.847,0,0,0,2.011-.024,5.166,5.166,0,0,1,.545-.126l1.509-.22-.8-1.3a5.586,5.586,0,0,1-.255-.5,3.214,3.214,0,0,0-1.178-1.533c-2.675-1.549-5.415-3.08-8.065-4.562q-2.446-1.366-4.884-2.741a1.353,1.353,0,0,1-.411-.354,37.088,37.088,0,0,1-.982-11.178c.638.381,1.246.742,1.855,1.082l1.512.846c2.245,1.257,4.567,2.558,6.908,3.745a2.921,2.921,0,0,0,2.015.029,5.3,5.3,0,0,1,.554-.111l1.56-.179-.814-1.341a5.558,5.558,0,0,1-.254-.5,3.251,3.251,0,0,0-1.163-1.533c-1.854-1.1-3.756-2.187-5.6-3.237-1.788-1.019-3.637-2.074-5.424-3.135a1.419,1.419,0,0,1-.339-.517c.726-2.011,1.548-4.017,2.344-5.959q.19-.465.379-.928l2.362,1.162c2.994,1.475,5.822,2.869,8.633,4.224a8.2,8.2,0,0,0,2.672.859,3.689,3.689,0,0,0,1.719-.354c.175-.068.34-.132.488-.176l1.286-.38-.726-1.128a5.257,5.257,0,0,1-.262-.493,2.958,2.958,0,0,0-1.28-1.529c-1.315-.6-2.675-1.129-4-1.633a48.677,48.677,0,0,0,10.825-3.144c.889-.336,1.808-.684,2.711-1.008,8.251-2.963,15.6-2.012,21.853,2.826a16.512,16.512,0,0,1,5.774,8.93l-1.3-.076c-2.05-.12-4.171-.243-6.245-.393a3.215,3.215,0,0,0-2.5.668,3.417,3.417,0,0,0-.849,2.583C-3443.9,844.269-3443.9,851.474-3443.909,858.442Z" transform="translate(3523.688 -816.83)" fill="#50595c" stroke="#50595c" stroke-width="0.35"/>
    <path id="Path_13056" data-name="Path 13056" d="M-3487.118,915.775a24.7,24.7,0,0,1,12.215,2.283,3.031,3.031,0,0,0,.8.117c-1.564-4.543-3.066-8.938-4.611-13.319a1.673,1.673,0,0,0-.823-.814,24.62,24.62,0,0,0-13.913-1.913,18.948,18.948,0,0,0,.448,1.9c1.225,3.439,2.511,6.857,3.7,10.309A1.829,1.829,0,0,0-3487.118,915.775Zm-4.937-12.085a5.161,5.161,0,0,1-.179-.674,22.835,22.835,0,0,1,12.264,1.934.966.966,0,0,1,.31.24c1.233,3.5,2.418,6.946,3.673,10.6l.286.832a25.664,25.664,0,0,0-9.706-1.9q-.886,0-1.779.06c-.763.05-.926-.055-1.169-.762-.742-2.16-1.533-4.338-2.3-6.444C-3491.125,906.275-3491.594,904.983-3492.055,903.69Z" transform="translate(3512.024 -869.72)" fill="#50595c" stroke="#50595c" stroke-width="0.35"/>
    <path id="Path_13057" data-name="Path 13057" d="M-3482.072,871.251c0-4.255.028-8.479-.043-12.7a1.783,1.783,0,0,0-.961-1.2,24.736,24.736,0,0,0-11.189-2.2c-1.179.025-1.724.485-1.822,1.63-.2,2.289-.582,4.574-.6,6.863a57.632,57.632,0,0,0,.553,6.107C-3490.99,869.282-3486.262,869.481-3482.072,871.251Zm-13.261-12.011c.088-.773.179-1.572.248-2.366.047-.551.09-.7.842-.712a23.64,23.64,0,0,1,10.741,2.1,1.152,1.152,0,0,1,.383.378c.054,3.264.05,6.595.045,9.816q0,.668,0,1.338a26.882,26.882,0,0,0-8.667-1.261q-1.665,0-3.5.139c-.038-.318-.076-.632-.115-.941a31.07,31.07,0,0,1-.327-4.073A42.9,42.9,0,0,1-3495.333,859.24Z" transform="translate(3514.115 -839.554)" fill="#50595c" stroke="#50595c" stroke-width="0.35"/>
    <path id="Path_13058" data-name="Path 13058" d="M-3527.972,910.31c1.446,3.708,2.969,7.386,4.39,10.874l10.066-4.085c-1.538-4.3-3.1-8.654-4.709-13.155a19.64,19.64,0,0,0-9.454,5A1.55,1.55,0,0,0-3527.972,910.31Zm.951-.318h0Zm.075-.369h0Zm-.009.016a18.617,18.617,0,0,1,8.089-4.506l4.08,11.4-8.244,3.345-.564-1.382c-1.133-2.771-2.3-5.637-3.428-8.515A.855.855,0,0,1-3526.955,909.639Z" transform="translate(3534.342 -871.046)" fill="#50595c" stroke="#50595c" stroke-width="0.35"/>
    <path id="Path_13059" data-name="Path 13059" d="M-3445.98,839.971a15.283,15.283,0,0,0-4.269-8.386,3.338,3.338,0,0,1-.123-.583c-.021-.133-.043-.264-.067-.387-2.187-10.881-8.855-17.323-19.821-19.15a1.383,1.383,0,0,1-.131-.07c-.086-.048-.171-.095-.258-.135l-.2-.1h-6.765l-.153.05c-1.553.506-3.123,1.045-4.639,1.566-3.552,1.219-7.226,2.48-10.9,3.394a37.617,37.617,0,0,1-7.244.8c-1.02.047-2.074.1-3.11.178a1,1,0,0,1-.533-.151,41.463,41.463,0,0,0-13.095-5.811l-.117-.029h-8.058l-.132.037c-.4.112-.809.221-1.213.331-.869.235-1.768.478-2.651.744a22.592,22.592,0,0,0-16.019,19.549,5.341,5.341,0,0,1-.193.87c-.046.173-.094.345-.135.519l-.028.114v5.545l.024.106c.194.885.371,1.8.544,2.681a51.669,51.669,0,0,0,1.456,6.136c1.321,4.076,2.975,8,4.269,10.958a36.635,36.635,0,0,1,2.983,20.32,54.652,54.652,0,0,0,4.326,29.732c3.333,7.7,7.737,13.553,13.466,17.895a27.222,27.222,0,0,0,2.948,1.863c.443.252.882.5,1.316.768l.24.147h3.014l.22-.117c4.4-2.327,5.351-4.681,3.918-9.69-3.485-12.178-3.06-22.882,1.3-32.724a19.861,19.861,0,0,1,4.709-6.213c2.572-2.413,5.276-1.044,6.66-.013,3.469,2.586,5.016,6.426,6.071,9.841a49.86,49.86,0,0,1-.152,29.078c-1.467,5.039-.569,7.31,3.842,9.715l.226.123h2.988l.219-.116c7.588-4,13.16-10.393,17.537-20.126a58.153,58.153,0,0,0,4.44-32.051,27.316,27.316,0,0,1,1.008-12.5,1.583,1.583,0,0,1,.643-.713c6.383-1.044,10.1-4.609,11.356-10.9a5.811,5.811,0,0,1,.16-.574c.035-.112.07-.224.1-.336l.039-.137V840.075Zm-.982,11.913c-.1.331-.217.656-.284.992-1.181,5.908-4.6,9.138-10.533,10.107a2.328,2.328,0,0,0-1.433,1.388,28.517,28.517,0,0,0-1.051,12.949,56.93,56.93,0,0,1-4.36,31.5c-3.71,8.248-8.853,15.309-17.089,19.649h-2.482c-4.016-2.19-4.679-4.015-3.359-8.552,2.873-9.863,3.2-19.772.147-29.655-1.23-3.98-2.947-7.753-6.432-10.35-2.644-1.971-5.571-2.144-7.946.086a21.185,21.185,0,0,0-4.941,6.538c-4.831,10.9-4.576,22.134-1.35,33.407,1.284,4.491.6,6.4-3.422,8.526h-2.482a48.669,48.669,0,0,1-4.18-2.574c-6.036-4.575-10.176-10.622-13.149-17.492a53.577,53.577,0,0,1-4.254-29.191,37.594,37.594,0,0,0-3.057-20.864c-1.555-3.561-3.036-7.174-4.234-10.866-.916-2.824-1.335-5.809-1.974-8.722v-5.319a11.49,11.49,0,0,0,.351-1.524,21.667,21.667,0,0,1,15.309-18.682c1.272-.384,2.561-.714,3.842-1.069h7.8a40.243,40.243,0,0,1,12.778,5.673,1.984,1.984,0,0,0,1.166.314c3.516-.277,7.137-.165,10.519-1.007,5.287-1.316,10.412-3.287,15.605-4.98h6.382a2.567,2.567,0,0,0,.62.282q15.889,2.632,19.031,18.362c.1.511.131,1.179.462,1.48,2.343,2.135,3.359,4.909,4,7.888Z" transform="translate(3545.834 -811.165)" fill="#50595c" stroke="#50595c" stroke-width="0.35"/>
    <path id="Path_13060" data-name="Path 13060" d="M-3519.065,826.255a23.262,23.262,0,0,1,2.227-2.972c.69-.826,1.471-1.575,2.278-2.426-9.7-.237-18.024,6.662-19.336,15.314,2.39-1.234,4.729-2.6,7.2-3.663,1.6-.694,3.763-.516,5-1.541C-3520.408,829.9-3519.99,827.819-3519.065,826.255Zm-3.273,3.938a5.448,5.448,0,0,1-2.36.764,10.815,10.815,0,0,0-2.4.629c-1.771.766-3.488,1.685-5.148,2.574l-.2.107c1.949-6.571,8.181-11.533,15.429-12.306-.2.221-.4.445-.6.679l-.045.053a23.683,23.683,0,0,0-2.275,3.05,16.245,16.245,0,0,0-.921,1.926A6.734,6.734,0,0,1-3522.338,830.193Z" transform="translate(3538.129 -817.417)" fill="#50595c" stroke="#50595c" stroke-width="0.35"/>
    <path id="Path_13061" data-name="Path 13061" d="M-3473.992,824.126c-2.129-.819-4.365-1.662-6.588-2.541a3.873,3.873,0,0,0-4.058.815,18.88,18.88,0,0,0-6.392,8.191l13.039,2.545Zm-15.625,5.717a18.275,18.275,0,0,1,5.587-6.643c1.181-.9,2.045-1.089,3.08-.68,1.564.618,3.141,1.221,4.666,1.8l.943.361-3.245,7.31Z" transform="translate(3510.461 -817.712)" fill="#50595c" stroke="#50595c" stroke-width="0.35"/>
    <path id="Path_13062" data-name="Path 13062" d="M-3535.6,863.267a1.917,1.917,0,0,0-.482,1.085,32.128,32.128,0,0,0,1.669,11.834l10.366-5.238v-14.1A20.3,20.3,0,0,0-3535.6,863.267Zm10.548-5.172V870.33l-8.758,4.424a30.637,30.637,0,0,1-1.268-10.349.951.951,0,0,1,.225-.466A19.162,19.162,0,0,1-3525.052,858.095Z" transform="translate(3539.567 -840.647)" fill="#50595c" stroke="#50595c" stroke-width="0.35"/>
    <path id="Path_13063" data-name="Path 13063" d="M-3449.135,834.124c-.329-.3-.359-.969-.461-1.48q-3.165-15.752-19.031-18.362a2.589,2.589,0,0,1-.619-.281h-6.382c-5.195,1.693-10.32,3.664-15.606,4.98-3.381.842-7,.729-10.519,1.007a1.981,1.981,0,0,1-1.165-.314A40.235,40.235,0,0,0-3515.7,814h-7.8c-1.281.355-2.57.685-3.842,1.069a21.666,21.666,0,0,0-15.309,18.682,11.456,11.456,0,0,1-.351,1.524v5.319c.639,2.913,1.058,5.9,1.974,8.722,1.2,3.692,2.679,7.3,4.235,10.866a37.609,37.609,0,0,1,3.057,20.864,53.567,53.567,0,0,0,4.253,29.191c2.973,6.87,7.114,12.918,13.15,17.493a48.534,48.534,0,0,0,4.18,2.574h2.481c4.025-2.129,4.707-4.035,3.421-8.526-3.225-11.273-3.48-22.5,1.351-33.407a21.192,21.192,0,0,1,4.941-6.538c2.376-2.23,5.3-2.057,7.948-.086,3.484,2.6,5.2,6.37,6.429,10.35,3.054,9.883,2.726,19.792-.146,29.655-1.32,4.537-.657,6.362,3.358,8.552h2.483c8.237-4.34,13.379-11.4,17.089-19.649a56.913,56.913,0,0,0,4.361-31.5,28.514,28.514,0,0,1,1.051-12.949,2.327,2.327,0,0,1,1.434-1.388c5.932-.969,9.352-4.2,10.533-10.107.067-.336.187-.662.283-.992v-11.7C-3445.775,839.033-3446.79,836.258-3449.135,834.124Zm1.625,18.693c-.1,5.925-4.07,9.777-10.02,9.778h-3.448V833.656c8.4-1.789,13.751,3.364,13.5,9.945C-3447.6,846.668-3447.46,849.745-3447.51,852.816Zm-15.713,9.246c0,2.7,0,2.7,2.734,2.765.291.008.582.041.979.07a37.791,37.791,0,0,0-1.165,6.4c-.055,4,.251,8,.469,12,.8,14.517-2.771,27.64-12.559,38.682a48.5,48.5,0,0,1-6.176,5.274,2.97,2.97,0,0,1-4.054.125c-1.331-1.086-1.416-2.465-.918-4.011a54.654,54.654,0,0,0,2.592-19.21c-.281-6.617-1.412-13.069-4.868-18.833a20.929,20.929,0,0,0-4.563-5.324c-3.228-2.654-7.291-2.505-10.635.022a19.906,19.906,0,0,0-6.478,9.542c-3.907,10.835-3.646,21.768-.551,32.735.145.511.351,1.005.474,1.52a3.219,3.219,0,0,1-1.158,3.637c-1.276.952-2.488.716-3.761-.107-5.928-3.833-10.1-9.182-13.228-15.393a52.88,52.88,0,0,1-5.627-27.72,2.609,2.609,0,0,1,.466-1.617,20.283,20.283,0,0,1,11.856-5.26c-.216,2.631-.527,5.077-.589,7.528-.073,2.95.031,5.905.134,8.856.028.837.038,2.048,1.327,1.772.41-.087.824-1.239.838-1.912.107-5.417.118-10.836.162-16.681,2.642.237,4.789.385,6.923.642.858.1,1.852.389,1.913-.758.023-.449-.957-1.27-1.574-1.376-2.14-.369-4.32-.5-6.3-.7l-2.848-13.49a23.482,23.482,0,0,1,14.219,3.473,2.5,2.5,0,0,1,.867,1.444c.51,1.937.858,3.92,1.423,5.84.172.589.842,1.031,1.284,1.541.277-.62.822-1.26.776-1.856-.114-1.513-.492-3.007-.82-4.818,1.588.923,2.973,1.733,4.364,2.534.716.413,1.616,1.032,2.052-.074.167-.422-.5-1.589-1.042-1.811-5.07-2.1-8-5.829-9.252-11.127-.55-2.32-1.6-4.521-2.131-7.03,1.174.71,2.325,1.462,3.527,2.121,2.688,1.473,5.377,2.952,8.13,4.3.5.244,1.306-.145,1.97-.241-.352-.575-.566-1.39-1.079-1.688-4.286-2.481-8.632-4.858-12.942-7.3a1.894,1.894,0,0,1-.891-.99,38.327,38.327,0,0,1-.879-13.108c1.238.73,2.216,1.335,3.219,1.9,2.782,1.55,5.548,3.132,8.386,4.572.506.256,1.326-.107,2-.184-.35-.576-.56-1.386-1.072-1.69-3.649-2.171-7.376-4.209-11.027-6.377-.448-.266-.955-1.179-.814-1.57.984-2.744,2.13-5.43,3.2-8.07,4.363,2.144,8.149,4.023,11.955,5.86a7.186,7.186,0,0,0,2.335.764,5.362,5.362,0,0,0,1.824-.493c-.366-.567-.6-1.415-1.118-1.652-2.026-.931-4.143-1.662-6.219-2.488a10.066,10.066,0,0,1-1.257-.832c6.439.117,11.674-2.38,17.093-4.326,8.045-2.889,15.829-2.425,22.807,2.977a17.972,17.972,0,0,1,6.457,10.809c-3-.182-5.959-.337-8.917-.55-1.664-.12-2.282.5-2.27,2.242C-3463.187,842.914-3463.224,852.489-3463.224,862.062Zm-68.851,5.032c-.254-.947-.186-1.5.667-2.054a22.864,22.864,0,0,1,9.313-3.525c1.672,4.4,2.954,8.717,2.85,12.964l-11.982,4.545a5.748,5.748,0,0,1,.009-1.076A27.253,27.253,0,0,0-3532.075,867.094Zm13.818,8.084.016-.675a23.669,23.669,0,0,0-.312-4.318l1.156,5.476.73.074c.541.055,1.1.1,1.663.155,1.5.134,3.051.272,4.57.534a1.245,1.245,0,0,1,.383.2l-.117-.016c-.1-.015-.209-.03-.312-.042-1.513-.182-2.995-.307-4.71-.452-.712-.06-1.456-.122-2.243-.193l-1.088-.1,0,.425-.984.111a24.571,24.571,0,0,0-3.744.708Zm-.287,3.959q-.007.944-.013,1.875c-.027,4.345-.052,8.449-.134,12.575a2.362,2.362,0,0,1-.131.64c-.014-.166-.021-.34-.024-.455l-.007-.211c-.1-2.839-.2-5.775-.126-8.644.042-1.652.2-3.3.365-5.045C-3518.59,879.629-3518.567,879.384-3518.544,879.137Zm20.594-11.271q.605.3,1.25.57a1.279,1.279,0,0,1,.254.3l-.207-.119-.146-.085Zm-5.524-47.356a3.025,3.025,0,0,0,1.8.479c1-.079,2.042-.127,3.045-.174a39.08,39.08,0,0,0,7.636-.86c1.652-.411,3.3-.888,4.925-1.4-3.833,1.422-7.831,2.706-12.343,2.627l-3.414-.062,2.835,1.9c.259.174.453.313.61.427a3.809,3.809,0,0,0,.834.5c.675.269,1.354.528,2.034.786,1.364.52,2.775,1.057,4.108,1.667a1.086,1.086,0,0,1,.135.2.861.861,0,0,1-.291.047,6.416,6.416,0,0,1-2-.669c-2.8-1.353-5.628-2.744-8.619-4.218l-4.3-2.116-.406,1q-.386.956-.783,1.921c-.824,2.009-1.675,4.085-2.428,6.187a2.768,2.768,0,0,0,1.248,2.774c1.81,1.075,3.667,2.134,5.462,3.158,1.832,1.045,3.726,2.125,5.559,3.215a.423.423,0,0,1,.083.1.626.626,0,0,1-.074,0c-2.292-1.164-4.584-2.448-6.8-3.688l-1.515-.848c-.662-.369-1.306-.754-2.052-1.2-.361-.215-.739-.442-1.146-.682l-1.356-.8-.155,1.568q-.084.848-.134,1.686-.011-1.035-.028-2.067a2.743,2.743,0,0,0-1.539-2.09,23.425,23.425,0,0,0-3.615-1.344l5.213,1.017,4.752-10.705Q-3504.813,819.623-3503.474,820.51Zm-25.2,7.694c-.127.024-.253.05-.381.076a5.091,5.091,0,0,0,2.122-.961,6.265,6.265,0,0,0,1.592-2.233q-.088.212-.17.427l-.427,1.116,5.865,1.145a30.329,30.329,0,0,0-4.1-.182,2.542,2.542,0,0,0-2.8,2.549c-.066.766-.156,1.551-.242,2.31-.094.828-.191,1.672-.26,2.522v-7Zm.189.987v14.1l-10.367,5.237a32.121,32.121,0,0,1-1.667-11.834,1.92,1.92,0,0,1,.481-1.085A20.294,20.294,0,0,1-3528.485,829.192Zm-4.09-1.105c-2.468,1.067-4.808,2.428-7.2,3.663,1.312-8.652,9.633-15.551,19.336-15.314-.807.852-1.588,1.6-2.279,2.427a23.239,23.239,0,0,0-2.226,2.972c-.925,1.564-1.342,3.645-2.633,4.712C-3528.812,827.57-3530.97,827.392-3532.575,828.086Zm8-2.213a18.885,18.885,0,0,1,6.392-8.191,3.875,3.875,0,0,1,4.059-.815c2.222.879,4.459,1.722,6.587,2.541l-4,9.01Zm-1.4,4.355c.1-1.145.643-1.605,1.822-1.63a24.73,24.73,0,0,1,11.188,2.2,1.783,1.783,0,0,1,.961,1.2c.071,4.222.043,8.446.043,12.7-4.191-1.77-8.918-1.969-14.065-1.494a57.755,57.755,0,0,1-.553-6.107C-3526.557,834.8-3526.173,832.518-3525.975,830.229Zm62.262,80.014c-4.14,9.209-9.363,15.271-16.422,19.056h-1.972c-3.365-1.879-3.83-3.222-2.652-7.266a51.824,51.824,0,0,0,.142-30.233c-1.084-3.507-2.835-7.911-6.79-10.859-3.164-2.358-6.617-2.3-9.235.159a21.858,21.858,0,0,0-5.173,6.865c-4.56,10.29-5.016,21.442-1.4,34.091,1.15,4.02.649,5.423-2.708,7.244h-1.95c-.37-.22-.744-.435-1.119-.649a25.24,25.24,0,0,1-2.734-1.721c-5.445-4.127-9.643-9.718-12.834-17.091a52.663,52.663,0,0,1-4.181-28.651,38.568,38.568,0,0,0-3.131-21.407c-1.275-2.918-2.9-6.78-4.2-10.773a50.578,50.578,0,0,1-1.394-5.9c-.167-.86-.341-1.747-.531-2.621V835.4c.028-.113.06-.225.091-.337a7.1,7.1,0,0,0,.256-1.213,20.589,20.589,0,0,1,14.6-17.816c.855-.258,1.74-.5,2.6-.728q.547-.148,1.093-.3h7.544a38.566,38.566,0,0,1,9.616,3.839l-.971-.374c-.635-.245-1.282-.491-1.934-.741-1.521-.581-3.092-1.182-4.645-1.8a4.915,4.915,0,0,0-5.038.95,20.274,20.274,0,0,0-6.179,7.365l.091-.212a14.568,14.568,0,0,1,.8-1.69,22.166,22.166,0,0,1,2.089-2.786l.045-.053c.449-.538.95-1.052,1.481-1.6.248-.254.5-.514.756-.783l1.554-1.641-2.259-.055c-9.992-.241-18.942,6.858-20.354,16.169l-.3,1.948,1.75-.9c.716-.37,1.428-.751,2.14-1.132,1.623-.87,3.3-1.769,5-2.5a9.194,9.194,0,0,1,1.961-.5c.229-.042.461-.084.691-.13a21.184,21.184,0,0,0-11.261,6.559,2.922,2.922,0,0,0-.739,1.7,32.978,32.978,0,0,0,1.718,12.205l.368,1.1,4.861-2.456a20.8,20.8,0,0,0-3.458,2.662,2.519,2.519,0,0,0-.536,2.463c1.133,2.905,2.312,5.789,3.452,8.578l1.321,3.239,11.89-4.825-5.333-14.9-.864.191a21.5,21.5,0,0,0-3.482,1.079l4.107-2.075v-4.6c.064.711.152,1.416.238,2.11.076.615.155,1.25.216,1.876l.1,1,.995-.092c5.8-.536,9.99-.1,13.582,1.419l1.4.59v-1.516q0-1.4,0-2.79,0-1.28,0-2.58a38.769,38.769,0,0,0,1.017,6.478,2.84,2.84,0,0,0,1.372,1.626q2.44,1.382,4.895,2.747c2.643,1.478,5.376,3.005,8.031,4.541a.567.567,0,0,1,.1.132.455.455,0,0,1-.089.007c-2.619-1.28-5.229-2.711-7.754-4.094l-.289-.158c-.8-.44-1.607-.939-2.386-1.421-.367-.228-.734-.455-1.1-.679l-1.986-1.2.482,2.27a33.034,33.034,0,0,0,1.175,3.944c.369,1.068.716,2.078.96,3.109a16.039,16.039,0,0,0,6.641,10.121l-3.161-1.838.389,2.142c.1.544.2,1.058.3,1.554a26.323,26.323,0,0,1,.506,3.156.309.309,0,0,1-.02.091.427.427,0,0,1-.073-.129c-.313-1.066-.565-2.185-.809-3.269-.187-.833-.382-1.7-.605-2.544a3.485,3.485,0,0,0-1.327-2.052,24.506,24.506,0,0,0-14.817-3.61l-1.133.1,1.435,6.8a57.184,57.184,0,0,0-1.96-5.98l-.285-.755-.8.117a23.891,23.891,0,0,0-9.713,3.676,2.527,2.527,0,0,0-1.092,3.158,26.125,26.125,0,0,1,.832,10.456,5.836,5.836,0,0,0-.021,1.169l0,1.5,5.148-1.952a20.853,20.853,0,0,0-4.848,3.357,3.3,3.3,0,0,0-.789,2.291,54.081,54.081,0,0,0,5.734,28.238c3.527,6.994,7.968,12.157,13.58,15.785,1.8,1.165,3.407,1.188,4.907.068a4.192,4.192,0,0,0,1.536-4.677c-.082-.338-.188-.651-.29-.954-.068-.2-.137-.4-.194-.6-3.267-11.57-3.093-22.077.53-32.121,1.5-4.167,3.453-7.053,6.137-9.081,3.083-2.33,6.594-2.348,9.391-.048a20.052,20.052,0,0,1,4.34,5.064c2.9,4.834,4.4,10.667,4.725,18.359a53.881,53.881,0,0,1-2.545,18.86c-.69,2.148-.274,3.863,1.24,5.1a3.967,3.967,0,0,0,5.319-.12c.491-.394.991-.781,1.492-1.169a34.413,34.413,0,0,0,4.806-4.224c9.486-10.7,13.677-23.59,12.811-39.4-.042-.773-.088-1.547-.133-2.32q-.048-.814-.1-1.636A56.155,56.155,0,0,1-3463.713,910.242Zm-64.175-64.35,4.709,13.155-10.066,4.085c-1.42-3.488-2.943-7.166-4.389-10.874a1.555,1.555,0,0,1,.293-1.369A19.644,19.644,0,0,1-3527.888,845.892Zm81.748,7.674-.05.16a7.259,7.259,0,0,0-.215.782c-1.089,5.449-4.174,8.408-9.709,9.312a3.3,3.3,0,0,0-2.225,2.063,27.436,27.436,0,0,0-1.338,6.807q0-.692,0-1.38a19.523,19.523,0,0,1,.688-4.156c.159-.671.324-1.365.459-2.067l.214-1.109-1.126-.083c-.13-.01-.248-.02-.359-.029-.245-.021-.457-.039-.673-.044a10.59,10.59,0,0,1-1.683-.111,10.3,10.3,0,0,1-.068-1.649q0-3.727,0-7.453c.007-6.972.014-14.183-.039-21.275-.006-.809.147-1.04.214-1.1s.275-.181.979-.13c.982.071,1.973.136,2.961.2a16.867,16.867,0,0,0-3.09.375l-.8.17V863.6h4.453c6.488,0,10.919-4.327,11.025-10.766.021-1.315.009-2.646,0-3.934-.016-1.729-.034-3.517.033-5.26a10.779,10.779,0,0,0-3.691-8.777,10.98,10.98,0,0,0-5.509-2.418l.888.052q1.326.077,2.656.156l1.32.08-.276-1.292a18.87,18.87,0,0,0-6.824-11.395,22.828,22.828,0,0,0-19.844-4.276c.761-.259,1.526-.515,2.287-.764h5.972a2.18,2.18,0,0,0,.705.268c10.218,1.692,16.174,7.439,18.21,17.568.019.1.035.2.052.307a2.772,2.772,0,0,0,.719,1.719,13.094,13.094,0,0,1,3.671,7.253Z" transform="translate(3544.005 -812.995)" fill="#50595c" stroke="#50595c" stroke-width="0.35"/>
    <path id="Path_13064" data-name="Path 13064" d="M-3489.292,914.945a23.78,23.78,0,0,1,11.723,2.193,2.308,2.308,0,0,0,.867.182c.072,0,.146.009.223.019l1.614.217-1.465-4.256c-1.255-3.653-2.442-7.1-3.677-10.61a2.654,2.654,0,0,0-1.339-1.386c-4.233-2.026-8.83-2.663-14.464-2l-1.116.13.252,1.094c.061.258.107.492.151.709a9.432,9.432,0,0,0,.329,1.3c.462,1.3.934,2.594,1.4,3.889.763,2.1,1.553,4.267,2.287,6.409A2.8,2.8,0,0,0-3489.292,914.945Zm-5.953-12.751a18.832,18.832,0,0,1-.447-1.9,24.626,24.626,0,0,1,13.914,1.913,1.675,1.675,0,0,1,.823.814c1.544,4.381,3.046,8.777,4.61,13.319a3,3,0,0,1-.8-.117,24.707,24.707,0,0,0-12.216-2.283,1.829,1.829,0,0,1-2.188-1.439C-3492.734,909.05-3494.019,905.633-3495.245,902.194Z" transform="translate(3514.266 -867.887)" fill="#50595c" stroke="#50595c" stroke-width="0.35"/>
    <path id="Path_13065" data-name="Path 13065" d="M-3364.943,881.84l-1.012-.713.907-.843c2.908-2.706,3.228-3.59,3.124-8.6a6.311,6.311,0,0,0-5.743-6.488,18.413,18.413,0,0,0-4.84.079,6.309,6.309,0,0,0-4.164,2.555,6.412,6.412,0,0,0-1.174,4.777.273.273,0,0,0,.031.041c.074-.1.143-.194.205-.292,0-.029-.006-.06-.009-.09a3.308,3.308,0,0,1-.02-.433c.136-3.965,2.58-6.4,6.539-6.517.873-.026,1.9-.043,2.927.023a6.293,6.293,0,0,1,6.076,6.23c.043.922.029,1.856.007,2.727a6.368,6.368,0,0,1-6.557,6.579c-.526.013-1.053.008-1.562,0-.824-.009-1.6-.017-2.374.05l-.021.015c.023.025.044.046.062.063a16.343,16.343,0,0,0,1.906.04c.257,0,.516-.008.779-.008.409,0,.823.01,1.241.048a11.443,11.443,0,0,1,3.16.759c1.953.773,3.227,3.065,3.405,6.132.171,2.949-.73,6.5-3.135,7.794a10.544,10.544,0,0,1-2.335.924,5.877,5.877,0,0,0,5.351-4.851C-3361.553,888.036-3361.3,884.407-3364.943,881.84Z" transform="translate(3437.459 -845.956)" fill="#50595c" stroke="#50595c" stroke-width="0.35"/>
    <path id="Path_13066" data-name="Path 13066" d="M-3377.574,933.685a.408.408,0,0,0-.054-.1.716.716,0,0,0-.1.166,6.711,6.711,0,0,0,1.584,5.057,6.744,6.744,0,0,0,4.4,2.143,7.76,7.76,0,0,1-1.691-.663A8.137,8.137,0,0,1-3377.574,933.685Z" transform="translate(3437.354 -890.173)" fill="#50595c" stroke="#50595c" stroke-width="0.35"/>
    <path id="Path_13067" data-name="Path 13067" d="M-3366.5,877.286c2.6-2.6,3.027-4.234,2.92-9.307a8.329,8.329,0,0,0-7.521-8.443,20.5,20.5,0,0,0-5.376.089,8.307,8.307,0,0,0-5.483,3.359,8.412,8.412,0,0,0-1.526,6.33,2.7,2.7,0,0,0,1,1.5,4.3,4.3,0,0,1,.335.33l.8.928.752-.968c.1-.127.2-.253.305-.378a8.708,8.708,0,0,0,.833-1.138,1.858,1.858,0,0,0,.181-1.164,1.809,1.809,0,0,1-.012-.182c.1-2.909,1.687-4.492,4.589-4.577.826-.024,1.8-.04,2.738.021a4.258,4.258,0,0,1,4.2,4.316c.038.812.03,1.621.006,2.584a4.377,4.377,0,0,1-4.6,4.619c-.489.013-1,.007-1.489,0a25.132,25.132,0,0,0-2.648.065,2.546,2.546,0,0,0-1.479.84c-.114.108-.222.21-.311.277l-.941.711.852.816a4.547,4.547,0,0,1,.3.347,2.442,2.442,0,0,0,1.526,1.066,17.065,17.065,0,0,0,2.283.066,17.69,17.69,0,0,1,1.81.031,9.439,9.439,0,0,1,2.6.627c1.189.47,2.009,2.149,2.139,4.38.154,2.647-.74,5.186-2.081,5.906a6.777,6.777,0,0,1-6.461.3,6.08,6.08,0,0,1-3.082-5.017,3.116,3.116,0,0,0-.856-1.645,5.2,5.2,0,0,1-.323-.415l-.8-1.21-.851,1.176a5.587,5.587,0,0,1-.364.426,3.017,3.017,0,0,0-.961,1.723,8.7,8.7,0,0,0,2.082,6.593,8.86,8.86,0,0,0,6.434,2.855q.739.024,1.427.023c.638,0,1.249-.015,1.843-.045a8.021,8.021,0,0,0,7.865-6.594C-3363.231,884.716-3362.909,880.462-3366.5,877.286Zm1.66,11.057c-.551,3.4-3.442,5.573-6.924,5.751-1.06.054-2.125.055-3.186.021a7.483,7.483,0,0,1-7.547-8.361c.047-.574.743-1.1,1.138-1.641.352.532.962,1.04,1.016,1.6.542,5.669,5.926,8.247,11.02,5.51,3.428-1.841,3.632-10.6-.164-12.106a10.449,10.449,0,0,0-2.878-.693c-1.349-.119-2.725.062-4.065-.095-.456-.053-.837-.742-1.253-1.14.425-.321.828-.876,1.279-.919,1.346-.127,2.712-.027,4.069-.062a5.4,5.4,0,0,0,5.579-5.6c.021-.885.034-1.772-.007-2.656a5.266,5.266,0,0,0-5.137-5.273c-.94-.061-1.889-.05-2.833-.022-3.446.1-5.446,2.1-5.563,5.547-.01.3.1.651-.033.873a13.367,13.367,0,0,1-1.063,1.406c-.382-.442-1.023-.84-1.1-1.33a7.459,7.459,0,0,1,6.171-8.535,19.4,19.4,0,0,1,5.108-.084A7.325,7.325,0,0,1-3364.58,868c.111,5.289-.295,6.43-3.444,9.36C-3363.937,880.241-3364.187,884.333-3364.836,888.343Z" transform="translate(3441.12 -842.298)" fill="#50595c" stroke="#50595c" stroke-width="0.35"/>
    <path id="Path_13068" data-name="Path 13068" d="M-3366.192,879.189c3.149-2.93,3.555-4.071,3.443-9.36a7.324,7.324,0,0,0-6.631-7.465,19.408,19.408,0,0,0-5.108.084,7.458,7.458,0,0,0-6.171,8.535c.08.49.721.889,1.1,1.33a13.351,13.351,0,0,0,1.064-1.406c.129-.222.022-.578.033-.873.118-3.443,2.118-5.446,5.564-5.547.944-.028,1.892-.039,2.833.022a5.265,5.265,0,0,1,5.135,5.273c.042.884.029,1.772.007,2.656a5.393,5.393,0,0,1-5.578,5.6c-1.357.036-2.723-.064-4.069.063-.451.042-.855.6-1.28.919.417.4.8,1.087,1.254,1.14,1.339.157,2.716-.025,4.064.095a10.424,10.424,0,0,1,2.878.693c3.8,1.5,3.592,10.265.165,12.106-5.094,2.737-10.478.159-11.02-5.51-.053-.561-.665-1.068-1.016-1.6-.4.546-1.091,1.067-1.138,1.641a7.482,7.482,0,0,0,7.546,8.362c1.062.034,2.126.033,3.187-.021,3.482-.178,6.374-2.349,6.924-5.751C-3362.355,886.162-3362.105,882.07-3366.192,879.189Zm-11.89,13.566a6.706,6.706,0,0,1-1.583-5.057.671.671,0,0,1,.1-.166.442.442,0,0,1,.055.1,8.131,8.131,0,0,0,4.134,6.6,7.749,7.749,0,0,0,1.691.663A6.742,6.742,0,0,1-3378.082,892.755Zm14.086-2.744a5.878,5.878,0,0,1-5.351,4.851,10.525,10.525,0,0,0,2.335-.925c2.4-1.292,3.308-4.845,3.136-7.794-.179-3.067-1.453-5.359-3.407-6.132a11.447,11.447,0,0,0-3.16-.76c-.418-.037-.833-.047-1.241-.047-.263,0-.522,0-.779.008a16.293,16.293,0,0,1-1.906-.04l-.063-.063.022-.015c.769-.068,1.549-.059,2.372-.05.511.006,1.037.011,1.563,0a6.368,6.368,0,0,0,6.557-6.579c.021-.871.035-1.8-.008-2.727a6.292,6.292,0,0,0-6.075-6.229c-1.024-.066-2.054-.049-2.927-.023-3.958.116-6.4,2.552-6.539,6.517a3.266,3.266,0,0,0,.02.433c0,.03.006.061.009.09-.063.1-.131.194-.205.292a.355.355,0,0,1-.032-.042A6.407,6.407,0,0,1-3378.5,866a6.305,6.305,0,0,1,4.163-2.556,18.4,18.4,0,0,1,4.84-.079,6.311,6.311,0,0,1,5.743,6.488c.1,5.013-.216,5.9-3.124,8.6l-.907.844,1.013.713C-3363.129,882.577-3363.381,886.206-3364,890.011Z" transform="translate(3439.289 -844.126)" fill="#50595c" stroke="#50595c" stroke-width="0.35"/>
  </g>
</svg>
