<svg id="_3D-dental-icon" data-name="3D-dental-icon" xmlns="http://www.w3.org/2000/svg" width="54.026" height="64" viewBox="0 0 54.026 64">
  <path id="Path_13046" data-name="Path 13046" d="M-3484.749,975.737l0-.23.588.053c.426.038.828.072,1.213.1.928.078,1.729.146,2.548.245l.168.023.063.009a.674.674,0,0,0-.207-.11c-.821-.142-1.66-.216-2.472-.289-.306-.027-.607-.054-.9-.084l-.395-.04-.625-2.962a12.852,12.852,0,0,1,.169,2.336l-.009.365-2.7,1.025a13.307,13.307,0,0,1,2.025-.383Z" transform="translate(3498.533 -941.518)" fill="#fdc936"/>
  <path id="Path_13047" data-name="Path 13047" d="M-3475.242,1005.5l0,.114c0,.062.005.156.013.246a1.281,1.281,0,0,0,.071-.346c.044-2.232.058-4.452.073-6.8q0-.5.006-1.014-.019.2-.038.4c-.09.944-.175,1.835-.2,2.729C-3475.349,1002.38-3475.295,1003.968-3475.242,1005.5Z" transform="translate(3488.848 -961.922)" fill="#fdc936"/>
  <path id="Path_13048" data-name="Path 13048" d="M-3502.679,849.253c.047-.411.1-.835.131-1.25a1.375,1.375,0,0,1,1.516-1.379,16.4,16.4,0,0,1,2.219.1l-3.173-.619.231-.6q.045-.117.092-.231a3.388,3.388,0,0,1-.861,1.208,2.753,2.753,0,0,1-1.148.52l.206-.041.646-.124v3.786C-3502.782,850.157-3502.73,849.7-3502.679,849.253Z" transform="translate(3511.76 -838.728)" fill="#fdc936"/>
  <path id="Path_13049" data-name="Path 13049" d="M-3467.283,832.252a12.685,12.685,0,0,1,1.955.727,1.484,1.484,0,0,1,.833,1.131q.01.558.015,1.118.027-.453.073-.912l.083-.848.734.433.62.369c.4.241.751.45,1.11.649l.82.459c1.2.671,2.438,1.365,3.678,2h.04a.225.225,0,0,0-.045-.053c-.991-.59-2.016-1.174-3.007-1.739-.971-.554-1.976-1.127-2.956-1.708a1.5,1.5,0,0,1-.674-1.5c.407-1.137.868-2.26,1.313-3.347q.214-.522.424-1.039l.219-.542,2.326,1.145c1.618.8,3.146,1.55,4.662,2.281a3.468,3.468,0,0,0,1.08.362.468.468,0,0,0,.158-.026.591.591,0,0,0-.073-.107c-.721-.33-1.484-.621-2.222-.9-.367-.14-.735-.28-1.1-.425a2.069,2.069,0,0,1-.451-.273c-.085-.061-.19-.137-.33-.231l-1.534-1.029,1.846.034a18.006,18.006,0,0,0,6.677-1.421c-.881.276-1.771.534-2.664.757a21.15,21.15,0,0,1-4.131.465c-.543.025-1.1.051-1.648.094a1.637,1.637,0,0,1-.974-.259q-.724-.48-1.467-.9l-2.571,5.791Z" transform="translate(3482.35 -823.844)" fill="#fdc936"/>
  <path id="Path_13050" data-name="Path 13050" d="M-3343.882,827.579a1.5,1.5,0,0,1-.389-.93c-.009-.057-.018-.113-.028-.166-1.1-5.479-4.323-8.588-9.85-9.5a1.177,1.177,0,0,1-.382-.145h-3.23c-.411.134-.825.273-1.237.413a12.348,12.348,0,0,1,10.734,2.313,10.208,10.208,0,0,1,3.692,6.164l.149.7-.714-.043-1.437-.085-.481-.028a5.94,5.94,0,0,1,2.98,1.308,5.832,5.832,0,0,1,2,4.748c-.036.943-.027,1.91-.018,2.845.007.7.013,1.417,0,2.128a5.642,5.642,0,0,1-5.964,5.824h-2.409V826.484l.43-.092a9.13,9.13,0,0,1,1.671-.2c-.535-.033-1.071-.068-1.6-.106-.381-.027-.5.04-.53.07s-.119.159-.115.6c.028,3.837.025,7.737.021,11.509q0,2.016,0,4.032a5.567,5.567,0,0,0,.037.892,5.735,5.735,0,0,0,.91.06c.117,0,.231.012.364.024l.194.016.609.045-.115.6c-.073.38-.162.755-.249,1.118a10.535,10.535,0,0,0-.372,2.248q-.005.372,0,.746a14.824,14.824,0,0,1,.723-3.682,1.785,1.785,0,0,1,1.2-1.116,5.778,5.778,0,0,0,5.252-5.037,4.056,4.056,0,0,1,.116-.423l.027-.086V831.5A7.084,7.084,0,0,0-3343.882,827.579Z" transform="translate(3394.836 -815.748)" fill="#fdc936"/>
  <path id="Path_13051" data-name="Path 13051" d="M-3495.453,852.492q.037.628.072,1.255c.468,8.555-1.8,15.527-6.93,21.315a18.606,18.606,0,0,1-2.6,2.285c-.271.21-.542.419-.807.632a2.146,2.146,0,0,1-2.877.065,2.339,2.339,0,0,1-.671-2.757,29.155,29.155,0,0,0,1.376-10.2,20.431,20.431,0,0,0-2.556-9.931,10.849,10.849,0,0,0-2.348-2.739,3.9,3.9,0,0,0-5.08.026,10.122,10.122,0,0,0-3.32,4.912,27.588,27.588,0,0,0-.286,17.375c.031.11.068.219.1.327.055.164.113.333.157.516a2.267,2.267,0,0,1-.831,2.53,2.132,2.132,0,0,1-2.655-.037,21.049,21.049,0,0,1-7.346-8.538,29.254,29.254,0,0,1-3.1-15.275,1.785,1.785,0,0,1,.426-1.239,11.286,11.286,0,0,1,2.623-1.816l-2.785,1.056,0-.812a3.18,3.18,0,0,1,.012-.632,14.125,14.125,0,0,0-.45-5.656,1.367,1.367,0,0,1,.591-1.708,12.925,12.925,0,0,1,5.254-1.988l.432-.063.155.408a30.927,30.927,0,0,1,1.06,3.235l-.776-3.677.613-.052a13.256,13.256,0,0,1,8.015,1.953,1.882,1.882,0,0,1,.718,1.11c.121.459.226.925.328,1.376.132.586.268,1.192.438,1.768a.239.239,0,0,0,.04.07.174.174,0,0,0,.011-.049,14.273,14.273,0,0,0-.274-1.707c-.054-.268-.109-.546-.163-.841l-.21-1.159,1.71.994a8.675,8.675,0,0,1-3.592-5.475c-.132-.557-.32-1.1-.519-1.681a17.863,17.863,0,0,1-.636-2.133l-.261-1.228,1.074.65c.2.121.4.244.6.367.421.261.856.53,1.291.769l.156.086c1.366.748,2.778,1.522,4.194,2.215a.247.247,0,0,0,.048,0,.285.285,0,0,0-.056-.072c-1.436-.831-2.914-1.657-4.344-2.456q-1.325-.741-2.647-1.486a1.537,1.537,0,0,1-.742-.88,20.915,20.915,0,0,1-.55-3.5q0,.7,0,1.4,0,.754,0,1.509v.82l-.755-.319a14.864,14.864,0,0,0-7.347-.767l-.538.05-.053-.538c-.033-.338-.076-.682-.117-1.015-.046-.375-.094-.757-.128-1.141v2.49l-2.222,1.122a11.646,11.646,0,0,1,1.884-.584l.468-.1,2.885,8.058-6.432,2.61-.715-1.752c-.617-1.508-1.254-3.068-1.868-4.64a1.363,1.363,0,0,1,.291-1.332,11.25,11.25,0,0,1,1.871-1.44l-2.629,1.328-.2-.6a17.83,17.83,0,0,1-.929-6.6,1.579,1.579,0,0,1,.4-.921,11.458,11.458,0,0,1,6.091-3.548c-.125.025-.25.048-.374.07a4.99,4.99,0,0,0-1.061.268c-.916.4-1.824.883-2.7,1.353-.385.206-.77.412-1.157.612l-.947.489.16-1.054c.764-5.036,5.605-8.877,11.011-8.746l1.222.03-.841.888c-.138.146-.275.286-.409.424-.287.294-.558.572-.8.863l-.024.029a11.929,11.929,0,0,0-1.13,1.507,7.843,7.843,0,0,0-.434.914l-.049.115a10.96,10.96,0,0,1,3.342-3.984,2.658,2.658,0,0,1,2.725-.514c.84.332,1.69.657,2.513.972l1.046.4.525.2a20.86,20.86,0,0,0-5.2-2.076h-4.081l-.591.161c-.463.125-.941.255-1.4.394a11.137,11.137,0,0,0-7.9,9.637,3.831,3.831,0,0,1-.138.656c-.017.061-.034.121-.049.182v2.752c.1.473.2.953.287,1.418a27.423,27.423,0,0,0,.754,3.191c.7,2.16,1.582,4.249,2.271,5.828a20.867,20.867,0,0,1,1.694,11.58,28.486,28.486,0,0,0,2.262,15.5,22.3,22.3,0,0,0,6.942,9.245,13.649,13.649,0,0,0,1.479.931c.2.116.405.232.6.351h1.055c1.816-.985,2.086-1.744,1.464-3.918-1.958-6.843-1.71-12.875.756-18.441a11.82,11.82,0,0,1,2.8-3.713,3.676,3.676,0,0,1,5-.086,11.068,11.068,0,0,1,3.673,5.874,28.032,28.032,0,0,1-.077,16.354c-.637,2.188-.386,2.914,1.435,3.93h1.067c3.819-2.048,6.644-5.327,8.883-10.308a30.379,30.379,0,0,0,2.316-16.745Q-3495.479,852.052-3495.453,852.492Zm-34.026-12.434c-.4-1.159-.824-2.332-1.237-3.467q-.382-1.051-.76-2.1a5.023,5.023,0,0,1-.178-.7c-.024-.117-.05-.244-.082-.383l-.137-.592.6-.07a13.741,13.741,0,0,1,7.824,1.084,1.431,1.431,0,0,1,.724.75c.668,1.9,1.31,3.763,1.99,5.739l.792,2.3-.873-.117c-.042-.006-.082-.008-.121-.01a1.248,1.248,0,0,1-.469-.1,12.863,12.863,0,0,0-6.342-1.186A1.514,1.514,0,0,1-3529.479,840.059Z" transform="translate(3541.254 -815.748)" fill="#fdc936"/>
  <path id="Path_13052" data-name="Path 13052" d="M-3415.248,966.321l.112.064a.683.683,0,0,0-.137-.162q-.349-.145-.676-.308l.623.36Z" transform="translate(3440.863 -936.232)" fill="#fdc936"/>
  <path id="Path_13053" data-name="Path 13053" d="M-3311.682,868.617V884.27h1.865a5.088,5.088,0,0,0,5.42-5.289c.027-1.661-.047-3.326.017-4.985C-3304.244,870.436-3307.14,867.649-3311.682,868.617Zm6.759,5.358c-.037.969-.028,1.949-.019,2.9.006.689.013,1.4,0,2.1a4.563,4.563,0,0,1-4.877,4.754h-1.321V869.068a5.612,5.612,0,0,1,4.6,1.033A4.752,4.752,0,0,1-3304.924,873.975Z" transform="translate(3356.594 -857.44)" fill="#fdc936"/>
  <path id="Path_13054" data-name="Path 13054" d="M-3512.026,957.472l6.481-2.458a18.825,18.825,0,0,0-1.542-7.013,12.366,12.366,0,0,0-5.037,1.907c-.461.3-.5.6-.361,1.111a14.73,14.73,0,0,1,.464,5.871A3.086,3.086,0,0,0-3512.026,957.472Zm.066-6.593c-.1-.366-.067-.386.131-.514a11.859,11.859,0,0,1,4.389-1.755,18.453,18.453,0,0,1,1.353,6.028l-5.359,2.033A15.367,15.367,0,0,0-3511.959,950.879Z" transform="translate(3518.938 -921.755)" fill="#fdc936"/>
  <path id="Path_13055" data-name="Path 13055" d="M-3473.2,828.052c1.6.115,3.2.2,4.824.3a9.723,9.723,0,0,0-3.493-5.847c-3.774-2.922-7.986-3.173-12.337-1.611-2.931,1.053-5.763,2.4-9.246,2.34a5.426,5.426,0,0,0,.68.45c1.123.447,2.268.842,3.364,1.346.279.128.407.587.6.894a2.9,2.9,0,0,1-.986.267,3.888,3.888,0,0,1-1.263-.413c-2.059-.994-4.107-2.01-6.467-3.17-.577,1.428-1.2,2.881-1.729,4.365-.076.212.2.706.44.85,1.975,1.173,3.992,2.275,5.965,3.449.277.165.39.6.58.914-.365.042-.809.238-1.082.1-1.535-.779-3.031-1.635-4.536-2.473-.543-.3-1.072-.63-1.741-1.025a20.736,20.736,0,0,0,.476,7.09,1.022,1.022,0,0,0,.482.536c2.331,1.32,4.682,2.605,7,3.948.278.161.393.6.584.913-.36.052-.8.262-1.066.131-1.489-.727-2.944-1.527-4.4-2.324-.65-.356-1.273-.763-1.908-1.147.289,1.357.855,2.548,1.152,3.8a8.086,8.086,0,0,0,5.005,6.019c.291.12.654.751.564.98-.236.6-.723.263-1.11.04-.752-.433-1.5-.871-2.36-1.371.177.98.382,1.788.444,2.607.024.322-.271.669-.42,1-.239-.276-.6-.515-.695-.834-.305-1.039-.493-2.111-.769-3.159a1.35,1.35,0,0,0-.469-.781,12.7,12.7,0,0,0-7.691-1.879l1.541,7.3c1.072.109,2.252.179,3.409.378.334.058.864.5.852.745-.033.62-.571.466-1.034.41-1.154-.139-2.316-.219-3.745-.347-.024,3.161-.03,6.093-.088,9.023-.007.364-.232.987-.453,1.034-.7.149-.7-.506-.718-.958-.055-1.6-.112-3.195-.072-4.79.033-1.326.2-2.649.318-4.072a10.971,10.971,0,0,0-6.413,2.845,1.412,1.412,0,0,0-.252.874,28.607,28.607,0,0,0,3.044,14.995,20.6,20.6,0,0,0,7.156,8.326,1.618,1.618,0,0,0,2.034.058,1.742,1.742,0,0,0,.627-1.968c-.067-.279-.178-.546-.256-.822a28.3,28.3,0,0,1,.3-17.707,10.766,10.766,0,0,1,3.5-5.162,4.461,4.461,0,0,1,5.753-.012,11.325,11.325,0,0,1,2.469,2.88,21.1,21.1,0,0,1,2.633,10.187,29.58,29.58,0,0,1-1.4,10.392,1.811,1.811,0,0,0,.5,2.169,1.607,1.607,0,0,0,2.193-.068,26.218,26.218,0,0,0,3.34-2.853c5.295-5.973,7.224-13.072,6.794-20.925-.118-2.163-.284-4.33-.254-6.492a20.449,20.449,0,0,1,.63-3.461c-.215-.016-.372-.034-.53-.038-1.478-.037-1.479-.036-1.479-1.5,0-5.179.02-10.358-.018-15.536C-3474.433,828.323-3474.1,827.987-3473.2,828.052Zm-1.75,12.716q0,2.016,0,4.033c0,1.707.233,1.983,1.889,2.036-.036.157-.073.314-.11.468a11.492,11.492,0,0,0-.4,2.484c-.024,1.765.081,3.551.183,5.279q.037.625.072,1.251c.452,8.254-1.726,14.971-6.658,20.534a17.782,17.782,0,0,1-2.451,2.146c-.276.214-.552.427-.822.644a1.062,1.062,0,0,1-1.51.071,1.272,1.272,0,0,1-.323-1.582,30.234,30.234,0,0,0,1.428-10.581,21.456,21.456,0,0,0-2.71-10.444,11.794,11.794,0,0,0-2.59-3.02,4.925,4.925,0,0,0-3.152-1.172,5.429,5.429,0,0,0-3.274,1.17,11.149,11.149,0,0,0-3.687,5.411,28.638,28.638,0,0,0-.31,18.04c.036.128.079.254.121.381.05.148.1.287.13.421a1.2,1.2,0,0,1-.424,1.4c-.36.269-.738.358-1.414-.079a20,20,0,0,1-6.965-8.115,28.181,28.181,0,0,1-2.988-14.715,1.406,1.406,0,0,1,.089-.52,10.267,10.267,0,0,1,5.433-2.6q-.029.314-.059.622c-.092.963-.178,1.873-.2,2.8-.04,1.584.016,3.189.069,4.741l0,.113a1.588,1.588,0,0,0,.45,1.27,1.073,1.073,0,0,0,.924.17c.653-.14.875-1.189.883-1.555.044-2.239.058-4.463.073-6.817q.005-.8.01-1.624l.631.053c.917.078,1.71.144,2.51.241l.146.02a1.4,1.4,0,0,0,1.148-.177,1.01,1.01,0,0,0,.348-.764c.033-.632-.825-1.227-1.3-1.309-.865-.149-1.727-.226-2.56-.3l-.492-.044-1.327-6.288a12.3,12.3,0,0,1,6.749,1.839.981.981,0,0,1,.223.453c.116.44.219.9.318,1.338.136.6.276,1.225.455,1.835a1.911,1.911,0,0,0,.593.822c.08.076.156.148.214.215l.56.645.348-.78c.035-.079.088-.171.144-.267a1.765,1.765,0,0,0,.322-1,12.827,12.827,0,0,0-.223-1.493c.456.265.89.518,1.326.769l.073.042a1.459,1.459,0,0,0,1.208.278,1.014,1.014,0,0,0,.607-.632,1.633,1.633,0,0,0-.862-1.682,7.571,7.571,0,0,1-4.684-5.642c-.145-.61-.351-1.207-.55-1.785-.08-.232-.161-.467-.239-.705.247.149.5.3.754.437l.156.086c1.385.759,2.817,1.544,4.265,2.25a1.541,1.541,0,0,0,1.088-.013,2.8,2.8,0,0,1,.295-.068l.816-.119-.431-.7a3.032,3.032,0,0,1-.138-.27,1.738,1.738,0,0,0-.637-.829c-1.447-.838-2.929-1.666-4.363-2.468q-1.322-.739-2.642-1.483a.731.731,0,0,1-.222-.192,20.059,20.059,0,0,1-.531-6.047c.345.206.674.4,1,.585l.818.457c1.215.68,2.47,1.383,3.737,2.026a1.579,1.579,0,0,0,1.09.016,2.889,2.889,0,0,1,.3-.06l.844-.1-.44-.726c-.045-.074-.09-.169-.137-.27a1.757,1.757,0,0,0-.629-.829c-1-.6-2.032-1.183-3.027-1.751-.967-.551-1.968-1.122-2.934-1.7a.765.765,0,0,1-.183-.28c.392-1.088.837-2.173,1.268-3.223l.206-.5,1.277.629c1.62.8,3.15,1.552,4.67,2.285a4.439,4.439,0,0,0,1.446.465,2,2,0,0,0,.93-.192c.094-.037.184-.071.264-.095l.7-.206-.392-.61a2.935,2.935,0,0,1-.143-.267,1.6,1.6,0,0,0-.692-.827c-.711-.327-1.447-.61-2.163-.883a26.332,26.332,0,0,0,5.856-1.7c.481-.182.978-.37,1.467-.545,4.463-1.6,8.44-1.088,11.821,1.529a8.931,8.931,0,0,1,3.123,4.831l-.7-.041c-1.109-.065-2.256-.131-3.378-.212a1.739,1.739,0,0,0-1.352.362,1.849,1.849,0,0,0-.459,1.4C-3474.941,833.1-3474.945,837-3474.948,840.768Z" transform="translate(3518.105 -818.258)" fill="#fdc936"/>
  <path id="Path_13056" data-name="Path 13056" d="M-3490.025,909.4a13.362,13.362,0,0,1,6.607,1.235,1.635,1.635,0,0,0,.433.063c-.846-2.457-1.658-4.835-2.494-7.2a.908.908,0,0,0-.445-.44,13.319,13.319,0,0,0-7.526-1.035,10.208,10.208,0,0,0,.242,1.027c.663,1.86,1.358,3.709,2,5.577A.989.989,0,0,0-3490.025,909.4Zm-2.671-6.537a2.958,2.958,0,0,1-.1-.365,12.355,12.355,0,0,1,6.635,1.046.521.521,0,0,1,.167.13c.667,1.893,1.308,3.757,1.987,5.731l.155.45a13.885,13.885,0,0,0-5.25-1.03q-.479,0-.962.033c-.413.027-.5-.03-.633-.412-.4-1.169-.83-2.346-1.244-3.486Q-3492.319,903.912-3492.7,902.863Z" transform="translate(3503.496 -884.487)" fill="#fdc936"/>
  <path id="Path_13057" data-name="Path 13057" d="M-3488.783,863.86c0-2.3.015-4.586-.023-6.87a.965.965,0,0,0-.52-.648,13.379,13.379,0,0,0-6.052-1.188c-.638.013-.932.262-.986.882-.107,1.238-.315,2.474-.326,3.712a31.4,31.4,0,0,0,.3,3.3A15.668,15.668,0,0,1-3488.783,863.86Zm-7.174-6.5c.048-.418.1-.85.134-1.28.026-.3.049-.376.455-.385a12.789,12.789,0,0,1,5.811,1.137.628.628,0,0,1,.207.2c.029,1.766.027,3.567.024,5.31q0,.361,0,.724a14.54,14.54,0,0,0-4.688-.682q-.9,0-1.894.075c-.02-.172-.041-.342-.062-.509a16.736,16.736,0,0,1-.177-2.2A23.4,23.4,0,0,1-3495.957,857.363Z" transform="translate(3506.117 -846.715)" fill="#fdc936"/>
  <path id="Path_13058" data-name="Path 13058" d="M-3528,907.387c.782,2.006,1.606,4,2.375,5.882l5.445-2.21-2.547-7.116a10.624,10.624,0,0,0-5.114,2.7A.839.839,0,0,0-3528,907.387Zm.514-.172h0Zm.041-.2h0Zm-.005.009a10.069,10.069,0,0,1,4.375-2.437l2.207,6.164-4.459,1.81-.305-.747c-.613-1.5-1.246-3.049-1.854-4.606A.462.462,0,0,1-3527.448,907.024Z" transform="translate(3531.443 -886.147)" fill="#fdc936"/>
  <path id="Path_13059" data-name="Path 13059" d="M-3491.82,826.747a8.262,8.262,0,0,0-2.309-4.536,1.857,1.857,0,0,1-.067-.315c-.011-.072-.023-.143-.036-.209-1.183-5.886-4.79-9.371-10.722-10.359a.79.79,0,0,1-.07-.038c-.046-.026-.093-.051-.14-.073l-.11-.051h-3.66l-.082.027c-.84.274-1.689.565-2.51.847-1.922.66-3.908,1.342-5.894,1.836a20.341,20.341,0,0,1-3.918.434c-.552.025-1.122.052-1.682.1a.539.539,0,0,1-.288-.081,22.431,22.431,0,0,0-7.084-3.143l-.063-.016h-4.359l-.072.02-.656.179c-.47.127-.956.259-1.434.4a12.221,12.221,0,0,0-8.665,10.575,2.909,2.909,0,0,1-.1.471c-.026.093-.052.187-.073.281l-.015.062v3l.013.058c.1.479.2.973.294,1.45a28.1,28.1,0,0,0,.787,3.319c.715,2.2,1.61,4.326,2.309,5.927a19.809,19.809,0,0,1,1.614,10.992,29.56,29.56,0,0,0,2.341,16.083,23.35,23.35,0,0,0,7.284,9.68,14.653,14.653,0,0,0,1.6,1.008c.239.137.477.273.711.416l.13.079h1.63l.119-.063c2.38-1.259,2.895-2.532,2.12-5.242-1.885-6.588-1.655-12.378.7-17.7a10.75,10.75,0,0,1,2.548-3.361,2.641,2.641,0,0,1,3.6-.007,9.923,9.923,0,0,1,3.284,5.323,26.963,26.963,0,0,1-.082,15.729c-.794,2.726-.308,3.954,2.078,5.255l.122.067h1.616l.119-.063c4.1-2.162,7.118-5.622,9.486-10.887a31.454,31.454,0,0,0,2.4-17.338,14.772,14.772,0,0,1,.546-6.761.856.856,0,0,1,.347-.386,6.835,6.835,0,0,0,6.143-5.9,3.161,3.161,0,0,1,.087-.311c.019-.06.038-.121.056-.182l.021-.074V826.8Zm-.531,6.444c-.052.179-.117.355-.153.537a6.3,6.3,0,0,1-5.7,5.467,1.258,1.258,0,0,0-.775.751,15.426,15.426,0,0,0-.569,7,30.787,30.787,0,0,1-2.359,17.042c-2.007,4.461-4.788,8.281-9.244,10.629h-1.343c-2.172-1.185-2.531-2.172-1.817-4.626a27.364,27.364,0,0,0,.079-16.042,10.388,10.388,0,0,0-3.479-5.6,3.135,3.135,0,0,0-4.3.046,11.462,11.462,0,0,0-2.673,3.537c-2.613,5.9-2.475,11.973-.73,18.071.7,2.429.326,3.46-1.851,4.612h-1.343a26.317,26.317,0,0,1-2.261-1.393,22.951,22.951,0,0,1-7.113-9.462,28.977,28.977,0,0,1-2.3-15.79,20.337,20.337,0,0,0-1.654-11.286c-.841-1.926-1.643-3.88-2.291-5.878-.5-1.528-.722-3.142-1.068-4.718v-2.877a6.221,6.221,0,0,0,.19-.825,11.72,11.72,0,0,1,8.281-10.106c.688-.208,1.385-.386,2.078-.578h4.22a21.764,21.764,0,0,1,6.912,3.069,1.075,1.075,0,0,0,.631.17,35.084,35.084,0,0,0,5.69-.544c2.86-.712,5.632-1.778,8.441-2.694h3.453a1.409,1.409,0,0,0,.335.152q8.6,1.424,10.294,9.932c.056.277.071.638.25.8a7.616,7.616,0,0,1,2.164,4.267Z" transform="translate(3545.834 -811.165)" fill="#fdc936"/>
  <path id="Path_13060" data-name="Path 13060" d="M-3525.874,823.775a12.561,12.561,0,0,1,1.2-1.608c.373-.447.8-.852,1.233-1.312-5.249-.128-9.75,3.6-10.46,8.284,1.292-.668,2.558-1.4,3.893-1.981.868-.376,2.035-.279,2.705-.833C-3526.6,825.746-3526.375,824.62-3525.874,823.775Zm-1.771,2.13a2.947,2.947,0,0,1-1.276.413,5.849,5.849,0,0,0-1.3.34c-.958.414-1.886.912-2.784,1.393l-.107.058a9.753,9.753,0,0,1,8.346-6.656c-.11.119-.217.241-.323.367l-.024.029a12.752,12.752,0,0,0-1.231,1.65,8.76,8.76,0,0,0-.5,1.042A3.639,3.639,0,0,1-3527.645,825.9Z" transform="translate(3536.188 -818.993)" fill="#fdc936"/>
  <path id="Path_13061" data-name="Path 13061" d="M-3481.813,822.833c-1.152-.443-2.361-.9-3.564-1.375a2.1,2.1,0,0,0-2.2.441,10.217,10.217,0,0,0-3.458,4.431l7.053,1.376Zm-8.452,3.092a9.886,9.886,0,0,1,3.022-3.594,1.553,1.553,0,0,1,1.666-.368c.846.335,1.7.661,2.524.976l.51.2-1.755,3.954Z" transform="translate(3501.543 -819.363)" fill="#fdc936"/>
  <path id="Path_13062" data-name="Path 13062" d="M-3535.841,860.318a1.038,1.038,0,0,0-.26.587,17.377,17.377,0,0,0,.9,6.4l5.607-2.833v-7.63A10.98,10.98,0,0,0-3535.841,860.318Zm5.706-2.8v6.619l-4.737,2.393a16.564,16.564,0,0,1-.686-5.6.513.513,0,0,1,.122-.252A10.365,10.365,0,0,1-3530.135,857.521Z" transform="translate(3537.986 -848.082)" fill="#fdc936"/>
  <path id="Path_13063" data-name="Path 13063" d="M-3492.225,824.886c-.179-.163-.194-.524-.25-.8q-1.712-8.521-10.294-9.932a1.416,1.416,0,0,1-.335-.152h-3.452c-2.81.916-5.582,1.982-8.442,2.694a35.084,35.084,0,0,1-5.69.544,1.074,1.074,0,0,1-.631-.17,21.763,21.763,0,0,0-6.912-3.068h-4.22c-.693.192-1.39.371-2.078.578a11.72,11.72,0,0,0-8.281,10.106,6.259,6.259,0,0,1-.19.825v2.877c.346,1.576.572,3.191,1.068,4.718.648,2,1.449,3.951,2.29,5.878a20.342,20.342,0,0,1,1.654,11.286,28.977,28.977,0,0,0,2.3,15.791,22.948,22.948,0,0,0,7.113,9.462,26.275,26.275,0,0,0,2.261,1.393h1.343c2.177-1.151,2.546-2.183,1.851-4.612-1.745-6.1-1.883-12.174.73-18.071a11.462,11.462,0,0,1,2.673-3.537,3.135,3.135,0,0,1,4.3-.046,10.388,10.388,0,0,1,3.478,5.6,27.364,27.364,0,0,1-.079,16.042c-.715,2.454-.356,3.441,1.816,4.626h1.343c4.456-2.348,7.237-6.167,9.244-10.629a30.787,30.787,0,0,0,2.359-17.042,15.426,15.426,0,0,1,.569-7,1.258,1.258,0,0,1,.775-.751,6.3,6.3,0,0,0,5.7-5.467c.036-.182.1-.358.153-.537v-6.33A7.611,7.611,0,0,0-3492.225,824.886Zm.878,10.111a5.088,5.088,0,0,1-5.42,5.289h-1.865V824.633c4.542-.968,7.438,1.82,7.3,5.379C-3491.394,831.671-3491.319,833.336-3491.347,835Zm-8.5,5c0,1.459,0,1.459,1.479,1.5.157,0,.315.022.53.038a20.451,20.451,0,0,0-.63,3.462c-.03,2.163.135,4.329.254,6.492.43,7.853-1.5,14.952-6.794,20.925a26.209,26.209,0,0,1-3.34,2.853,1.607,1.607,0,0,1-2.193.068,1.811,1.811,0,0,1-.5-2.17,29.58,29.58,0,0,0,1.4-10.391,21.1,21.1,0,0,0-2.633-10.187,11.326,11.326,0,0,0-2.469-2.88,4.461,4.461,0,0,0-5.753.012,10.766,10.766,0,0,0-3.5,5.162,28.3,28.3,0,0,0-.3,17.707c.078.276.189.544.256.822a1.742,1.742,0,0,1-.627,1.968,1.618,1.618,0,0,1-2.034-.058,20.6,20.6,0,0,1-7.156-8.326A28.607,28.607,0,0,1-3536.9,852a1.412,1.412,0,0,1,.252-.874,10.971,10.971,0,0,1,6.413-2.845c-.117,1.423-.285,2.746-.318,4.072-.04,1.6.017,3.194.072,4.79.016.453.021,1.108.718.958.222-.047.446-.67.453-1.034.058-2.93.064-5.862.088-9.023,1.429.128,2.591.208,3.745.347.464.056,1,.21,1.034-.41.012-.243-.518-.687-.852-.745-1.157-.2-2.337-.269-3.409-.378l-1.541-7.3a12.7,12.7,0,0,1,7.691,1.879,1.35,1.35,0,0,1,.469.781c.276,1.048.464,2.12.769,3.159.093.318.456.558.695.834.149-.335.444-.682.42-1-.062-.819-.266-1.627-.444-2.606.859.5,1.608.938,2.36,1.371.387.223.874.559,1.11-.04.09-.229-.272-.859-.564-.98a8.086,8.086,0,0,1-5.005-6.019c-.3-1.255-.864-2.446-1.152-3.8.635.384,1.258.791,1.908,1.147,1.454.8,2.909,1.6,4.4,2.324.27.132.707-.078,1.066-.131-.191-.311-.306-.752-.584-.913-2.318-1.342-4.669-2.628-7-3.948a1.022,1.022,0,0,1-.482-.536,20.736,20.736,0,0,1-.476-7.09c.669.4,1.2.722,1.741,1.025,1.5.839,3,1.694,4.536,2.473.273.139.717-.058,1.082-.1-.189-.312-.3-.75-.58-.914-1.974-1.174-3.99-2.277-5.965-3.449-.242-.144-.516-.638-.44-.849.532-1.484,1.152-2.937,1.729-4.365,2.36,1.16,4.408,2.176,6.467,3.17a3.889,3.889,0,0,0,1.263.413,2.9,2.9,0,0,0,.986-.267c-.2-.307-.325-.765-.6-.894-1.1-.5-2.241-.9-3.364-1.346a5.426,5.426,0,0,1-.68-.45c3.483.063,6.315-1.287,9.246-2.34,4.352-1.562,8.563-1.312,12.337,1.611a9.723,9.723,0,0,1,3.493,5.847c-1.621-.1-3.224-.182-4.824-.3-.9-.065-1.235.271-1.228,1.213C-3499.827,829.641-3499.847,834.82-3499.846,840Zm-37.244,2.722c-.137-.512-.1-.813.361-1.111a12.367,12.367,0,0,1,5.037-1.907,18.825,18.825,0,0,1,1.542,7.013l-6.481,2.458a3.085,3.085,0,0,1,0-.582A14.729,14.729,0,0,0-3537.09,842.72Zm7.475,4.373.009-.365a12.852,12.852,0,0,0-.169-2.336l.625,2.962.395.04c.293.03.594.057.9.084.812.073,1.651.147,2.472.289a.674.674,0,0,1,.207.11l-.063-.009-.168-.023c-.819-.1-1.62-.166-2.548-.245-.385-.032-.787-.066-1.213-.1l-.588-.053,0,.23-.532.06a13.307,13.307,0,0,0-2.025.383Zm-.155,2.141q0,.511-.006,1.014c-.015,2.351-.029,4.571-.073,6.8a1.281,1.281,0,0,1-.071.346c-.008-.09-.011-.184-.013-.246l0-.114c-.053-1.536-.107-3.124-.069-4.676.022-.894.107-1.785.2-2.729Zm11.14-6.1q.327.163.676.308a.683.683,0,0,1,.137.162l-.112-.064-.079-.046Zm-2.989-25.617a1.637,1.637,0,0,0,.974.259c.543-.043,1.1-.069,1.647-.094a21.141,21.141,0,0,0,4.131-.465c.894-.223,1.783-.48,2.664-.756a18.006,18.006,0,0,1-6.677,1.421l-1.846-.034,1.534,1.029c.14.094.245.17.33.231a2.06,2.06,0,0,0,.451.273c.365.145.732.285,1.1.425.738.281,1.5.572,2.222.9a.591.591,0,0,1,.073.107.467.467,0,0,1-.158.026,3.469,3.469,0,0,1-1.08-.362c-1.516-.732-3.044-1.484-4.662-2.281l-2.326-1.145-.219.542q-.209.517-.424,1.039c-.445,1.087-.906,2.21-1.313,3.347a1.5,1.5,0,0,0,.675,1.5c.979.582,1.984,1.154,2.955,1.708.991.565,2.015,1.149,3.007,1.739a.224.224,0,0,1,.045.053h-.04c-1.24-.63-2.479-1.324-3.678-2l-.82-.459c-.358-.2-.707-.408-1.11-.649l-.62-.369-.734-.433-.083.848q-.045.459-.073.912-.005-.56-.015-1.118a1.485,1.485,0,0,0-.833-1.131,12.691,12.691,0,0,0-1.955-.727l2.82.55,2.57-5.791Q-3522.344,817.041-3521.619,817.522Zm-13.632,4.162-.206.041a2.754,2.754,0,0,0,1.148-.52,3.388,3.388,0,0,0,.861-1.208q-.047.115-.092.231l-.231.6,3.172.619a16.4,16.4,0,0,0-2.219-.1,1.375,1.375,0,0,0-1.516,1.379c-.036.414-.084.839-.131,1.25-.051.448-.1.9-.141,1.365V821.56Zm.1.534v7.63l-5.607,2.833a17.377,17.377,0,0,1-.9-6.4,1.039,1.039,0,0,1,.26-.587A10.979,10.979,0,0,1-3535.148,822.218Zm-2.212-.6c-1.335.577-2.6,1.314-3.893,1.981.71-4.68,5.211-8.412,10.46-8.284-.437.461-.86.866-1.233,1.313a12.561,12.561,0,0,0-1.2,1.608c-.5.846-.726,1.972-1.424,2.549C-3535.325,821.341-3536.493,821.244-3537.361,821.62Zm4.329-1.2a10.217,10.217,0,0,1,3.458-4.431,2.1,2.1,0,0,1,2.2-.441c1.2.476,2.412.931,3.563,1.375l-2.163,4.874Zm-.759,2.356c.053-.62.348-.868.986-.882a13.379,13.379,0,0,1,6.052,1.188.965.965,0,0,1,.52.648c.038,2.284.023,4.569.023,6.87a15.669,15.669,0,0,0-7.608-.808,31.4,31.4,0,0,1-.3-3.3C-3534.105,825.253-3533.9,824.017-3533.791,822.779Zm33.68,43.282c-2.24,4.981-5.065,8.26-8.883,10.308h-1.067c-1.821-1.017-2.072-1.743-1.435-3.93a28.032,28.032,0,0,0,.077-16.354,11.068,11.068,0,0,0-3.673-5.874,3.676,3.676,0,0,0-5,.086,11.82,11.82,0,0,0-2.8,3.713c-2.467,5.566-2.714,11.6-.756,18.441.622,2.174.352,2.933-1.464,3.918h-1.055c-.2-.119-.4-.235-.6-.351a13.649,13.649,0,0,1-1.479-.931,22.3,22.3,0,0,1-6.942-9.245,28.486,28.486,0,0,1-2.262-15.5,20.867,20.867,0,0,0-1.694-11.58c-.689-1.579-1.571-3.668-2.271-5.828a27.423,27.423,0,0,1-.754-3.191c-.091-.465-.184-.945-.287-1.418v-2.752c.016-.061.032-.122.049-.182a3.831,3.831,0,0,0,.138-.656,11.137,11.137,0,0,1,7.9-9.637c.463-.139.941-.269,1.4-.394l.591-.161h4.081a20.86,20.86,0,0,1,5.2,2.076l-.525-.2-1.046-.4c-.822-.314-1.672-.639-2.513-.972a2.658,2.658,0,0,0-2.725.514,10.96,10.96,0,0,0-3.342,3.984l.049-.115a7.843,7.843,0,0,1,.434-.914,11.929,11.929,0,0,1,1.13-1.507l.024-.029c.243-.291.514-.569.8-.863.134-.138.271-.278.409-.424l.841-.888-1.222-.03c-5.406-.13-10.247,3.71-11.011,8.746l-.16,1.054.947-.489c.387-.2.772-.406,1.157-.612.878-.47,1.786-.957,2.7-1.353a4.99,4.99,0,0,1,1.061-.268c.124-.023.249-.045.374-.07a11.458,11.458,0,0,0-6.091,3.548,1.579,1.579,0,0,0-.4.921,17.83,17.83,0,0,0,.929,6.6l.2.6,2.629-1.328a11.25,11.25,0,0,0-1.871,1.44,1.363,1.363,0,0,0-.291,1.332c.613,1.572,1.251,3.132,1.868,4.64l.715,1.752,6.432-2.61-2.885-8.058-.468.1a11.646,11.646,0,0,0-1.884.584l2.222-1.122v-2.49c.035.385.082.766.128,1.141.042.332.084.676.117,1.015l.053.538.538-.05a14.864,14.864,0,0,1,7.347.767l.755.319v-.82q0-.755,0-1.509,0-.692,0-1.4a20.915,20.915,0,0,0,.55,3.5,1.537,1.537,0,0,0,.742.88q1.321.748,2.647,1.486c1.43.8,2.909,1.626,4.344,2.456a.285.285,0,0,1,.056.072.247.247,0,0,1-.048,0c-1.416-.693-2.828-1.466-4.194-2.215l-.156-.086c-.435-.238-.87-.508-1.291-.769-.2-.123-.4-.246-.6-.367l-1.074-.65.261,1.228a17.863,17.863,0,0,0,.636,2.133c.2.578.387,1.124.519,1.681a8.675,8.675,0,0,0,3.592,5.475l-1.71-.994.21,1.159c.053.294.109.573.163.841a14.273,14.273,0,0,1,.274,1.707.174.174,0,0,1-.011.049.239.239,0,0,1-.04-.07c-.169-.576-.306-1.182-.437-1.768-.1-.451-.207-.917-.328-1.376a1.882,1.882,0,0,0-.718-1.11,13.256,13.256,0,0,0-8.015-1.953l-.613.052.776,3.677a30.927,30.927,0,0,0-1.06-3.235l-.155-.408-.432.063a12.925,12.925,0,0,0-5.254,1.988,1.367,1.367,0,0,0-.591,1.708,14.125,14.125,0,0,1,.45,5.656,3.18,3.18,0,0,0-.012.632l0,.812,2.785-1.056a11.286,11.286,0,0,0-2.623,1.816,1.785,1.785,0,0,0-.426,1.239,29.254,29.254,0,0,0,3.1,15.275,21.049,21.049,0,0,0,7.346,8.538,2.132,2.132,0,0,0,2.655.037,2.267,2.267,0,0,0,.831-2.53c-.044-.183-.1-.352-.157-.516-.037-.108-.074-.217-.1-.327a27.588,27.588,0,0,1,.286-17.375,10.122,10.122,0,0,1,3.32-4.912,3.9,3.9,0,0,1,5.08-.026,10.849,10.849,0,0,1,2.348,2.739,20.431,20.431,0,0,1,2.556,9.931,29.155,29.155,0,0,1-1.376,10.2,2.339,2.339,0,0,0,.671,2.757,2.146,2.146,0,0,0,2.877-.065c.266-.213.536-.423.807-.632a18.606,18.606,0,0,0,2.6-2.285c5.132-5.789,7.4-12.76,6.93-21.315q-.034-.627-.072-1.255-.026-.44-.052-.885A30.379,30.379,0,0,1-3500.111,866.061Zm-34.715-34.809,2.547,7.116-5.445,2.21c-.768-1.887-1.592-3.876-2.375-5.882a.84.84,0,0,1,.158-.74A10.626,10.626,0,0,1-3534.825,831.252Zm44.22,4.151-.027.086a4.056,4.056,0,0,0-.116.423,5.778,5.778,0,0,1-5.252,5.037,1.785,1.785,0,0,0-1.2,1.116,14.824,14.824,0,0,0-.723,3.682q0-.374,0-.746a10.535,10.535,0,0,1,.372-2.248c.086-.363.175-.738.249-1.118l.115-.6-.609-.045-.194-.016c-.133-.012-.247-.021-.364-.024a5.735,5.735,0,0,1-.91-.06,5.567,5.567,0,0,1-.037-.892q0-2.016,0-4.032c0-3.772.008-7.672-.021-11.509,0-.437.08-.563.115-.6s.149-.1.53-.07c.531.038,1.067.073,1.6.106a9.13,9.13,0,0,0-1.671.2l-.43.092V840.83h2.409a5.642,5.642,0,0,0,5.964-5.824c.011-.711,0-1.431,0-2.128-.009-.935-.018-1.9.018-2.845a5.832,5.832,0,0,0-2-4.748,5.94,5.94,0,0,0-2.98-1.308l.481.028,1.437.085.714.043-.149-.7a10.208,10.208,0,0,0-3.692-6.164,12.348,12.348,0,0,0-10.734-2.313c.412-.14.826-.279,1.237-.413h3.23a1.177,1.177,0,0,0,.382.145c5.527.915,8.749,4.024,9.85,9.5.01.053.019.109.028.166a1.5,1.5,0,0,0,.389.93,7.084,7.084,0,0,1,1.986,3.923Z" transform="translate(3543.543 -813.456)" fill="#fdc936"/>
  <path id="Path_13064" data-name="Path 13064" d="M-3492.8,907.648a12.863,12.863,0,0,1,6.342,1.186,1.248,1.248,0,0,0,.469.1c.039,0,.079,0,.12.01l.873.117-.792-2.3c-.679-1.976-1.321-3.843-1.99-5.739a1.432,1.432,0,0,0-.724-.75,13.741,13.741,0,0,0-7.824-1.084l-.6.07.137.592c.032.139.058.266.082.383a5.023,5.023,0,0,0,.178.7c.25.7.5,1.4.76,2.1.413,1.135.84,2.308,1.237,3.467A1.514,1.514,0,0,0-3492.8,907.648Zm-3.22-6.9a10.208,10.208,0,0,1-.242-1.027,13.319,13.319,0,0,1,7.526,1.035.908.908,0,0,1,.445.44c.835,2.37,1.648,4.748,2.494,7.2a1.635,1.635,0,0,1-.433-.063,13.362,13.362,0,0,0-6.607-1.235.989.989,0,0,1-1.184-.778C-3494.658,904.459-3495.354,902.61-3496.016,900.75Z" transform="translate(3506.307 -882.192)" fill="#fdc936"/>
  <path id="Path_13065" data-name="Path 13065" d="M-3370.9,874.141l-.548-.386.491-.456c1.573-1.464,1.746-1.942,1.689-4.654a3.414,3.414,0,0,0-3.106-3.509,9.959,9.959,0,0,0-2.618.043,3.412,3.412,0,0,0-2.252,1.382,3.468,3.468,0,0,0-.635,2.584.207.207,0,0,0,.017.022c.04-.053.077-.105.111-.158,0-.016,0-.032,0-.049a1.784,1.784,0,0,1-.01-.234,3.383,3.383,0,0,1,3.537-3.525c.472-.014,1.029-.023,1.583.013a3.4,3.4,0,0,1,3.286,3.37c.023.5.016,1,0,1.475a3.445,3.445,0,0,1-3.547,3.559c-.285.007-.57,0-.845,0-.446,0-.868-.009-1.284.027l-.011.008.034.034a8.838,8.838,0,0,0,1.031.022c.139,0,.279,0,.421,0,.221,0,.445.006.671.026a6.19,6.19,0,0,1,1.709.411c1.057.418,1.746,1.658,1.842,3.317.093,1.6-.4,3.517-1.7,4.216a5.706,5.706,0,0,1-1.263.5,3.179,3.179,0,0,0,2.895-2.624C-3369.067,877.493-3368.931,875.53-3370.9,874.141Z" transform="translate(3410.129 -854.73)" fill="#fdc936"/>
  <path id="Path_13066" data-name="Path 13066" d="M-3377.658,933.637a.231.231,0,0,0-.03-.057.385.385,0,0,0-.056.09,3.628,3.628,0,0,0,.857,2.736,3.647,3.647,0,0,0,2.38,1.159,4.2,4.2,0,0,1-.915-.359A4.4,4.4,0,0,1-3377.658,933.637Z" transform="translate(3409.996 -910.1)" fill="#fdc936"/>
  <path id="Path_13067" data-name="Path 13067" d="M-3374.345,869.076c1.407-1.407,1.638-2.29,1.58-5.034a4.506,4.506,0,0,0-4.068-4.567,11.084,11.084,0,0,0-2.908.048,4.493,4.493,0,0,0-2.966,1.817,4.551,4.551,0,0,0-.826,3.424,1.458,1.458,0,0,0,.54.81,2.348,2.348,0,0,1,.181.178l.434.5.407-.524c.054-.069.109-.137.165-.2a4.706,4.706,0,0,0,.45-.615,1,1,0,0,0,.1-.63.859.859,0,0,1-.007-.1,2.307,2.307,0,0,1,2.482-2.476c.447-.013.972-.022,1.481.011a2.3,2.3,0,0,1,2.27,2.335c.021.439.016.877,0,1.4a2.368,2.368,0,0,1-2.488,2.5c-.264.007-.539,0-.8,0a13.6,13.6,0,0,0-1.433.035,1.378,1.378,0,0,0-.8.455c-.062.058-.12.113-.168.15l-.509.385.461.441a2.472,2.472,0,0,1,.165.188,1.32,1.32,0,0,0,.825.577,9.243,9.243,0,0,0,1.235.036,9.582,9.582,0,0,1,.979.017,5.1,5.1,0,0,1,1.4.339c.643.254,1.087,1.162,1.157,2.369.083,1.432-.4,2.805-1.125,3.195a3.667,3.667,0,0,1-3.5.16,3.289,3.289,0,0,1-1.667-2.714,1.683,1.683,0,0,0-.463-.89c-.067-.081-.13-.157-.175-.224l-.433-.655-.46.636a3.03,3.03,0,0,1-.2.23,1.633,1.633,0,0,0-.52.932,4.707,4.707,0,0,0,1.126,3.566,4.794,4.794,0,0,0,3.48,1.544c.267.008.523.013.772.013.345,0,.676-.008,1-.025a4.339,4.339,0,0,0,4.255-3.567C-3372.578,873.1-3372.4,870.794-3374.345,869.076Zm.9,5.981a3.8,3.8,0,0,1-3.745,3.111c-.574.029-1.15.03-1.724.011a4.048,4.048,0,0,1-4.082-4.523c.026-.311.4-.593.616-.888.19.288.521.562.55.866.293,3.067,3.205,4.461,5.961,2.981,1.854-1,1.964-5.736-.089-6.548a5.65,5.65,0,0,0-1.557-.375c-.729-.064-1.474.034-2.2-.051-.247-.029-.453-.4-.677-.617.23-.174.448-.474.692-.5.728-.069,1.467-.015,2.2-.034a2.918,2.918,0,0,0,3.017-3.029c.012-.479.019-.959,0-1.437a2.848,2.848,0,0,0-2.778-2.852c-.509-.033-1.022-.027-1.532-.012a2.838,2.838,0,0,0-3.01,3c-.006.16.052.352-.018.472a7.222,7.222,0,0,1-.575.761c-.206-.239-.553-.455-.6-.72a4.034,4.034,0,0,1,3.338-4.617,10.492,10.492,0,0,1,2.763-.045,3.962,3.962,0,0,1,3.587,4.038c.06,2.861-.159,3.478-1.863,5.063C-3372.96,870.674-3373.1,872.888-3373.447,875.057Z" transform="translate(3414.711 -850.149)" fill="#fdc936"/>
  <path id="Path_13068" data-name="Path 13068" d="M-3372.877,871.406c1.7-1.585,1.923-2.2,1.863-5.063a3.962,3.962,0,0,0-3.587-4.038,10.5,10.5,0,0,0-2.763.045,4.034,4.034,0,0,0-3.338,4.617c.043.265.39.481.6.72a7.217,7.217,0,0,0,.575-.761c.07-.12.012-.313.018-.472a2.838,2.838,0,0,1,3.01-3c.51-.015,1.023-.021,1.532.012a2.848,2.848,0,0,1,2.778,2.852c.022.478.015.958,0,1.437a2.918,2.918,0,0,1-3.017,3.029c-.734.019-1.473-.035-2.2.034-.244.023-.462.323-.692.5.225.215.431.588.677.617.725.085,1.469-.013,2.2.051a5.649,5.649,0,0,1,1.557.375c2.053.812,1.943,5.552.089,6.548-2.755,1.48-5.668.086-5.961-2.981-.029-.3-.359-.578-.55-.866-.214.3-.59.577-.616.888a4.048,4.048,0,0,0,4.082,4.523c.574.018,1.15.018,1.724-.011a3.8,3.8,0,0,0,3.745-3.111C-3370.8,875.178-3370.667,872.964-3372.877,871.406Zm-6.432,7.339a3.628,3.628,0,0,1-.857-2.736.384.384,0,0,1,.056-.09.229.229,0,0,1,.03.057,4.4,4.4,0,0,0,2.237,3.569,4.192,4.192,0,0,0,.915.359A3.646,3.646,0,0,1-3379.309,878.744Zm7.619-1.484a3.179,3.179,0,0,1-2.895,2.624,5.7,5.7,0,0,0,1.263-.5c1.3-.7,1.789-2.621,1.7-4.216-.1-1.659-.785-2.9-1.842-3.317a6.19,6.19,0,0,0-1.709-.411c-.226-.02-.45-.026-.671-.026-.142,0-.282,0-.421,0a8.825,8.825,0,0,1-1.031-.022l-.034-.034.011-.008c.416-.037.838-.032,1.284-.027.276,0,.561.006.845,0a3.445,3.445,0,0,0,3.547-3.559c.012-.471.019-.976,0-1.475a3.4,3.4,0,0,0-3.286-3.37c-.554-.036-1.111-.026-1.583-.012a3.383,3.383,0,0,0-3.537,3.525,1.785,1.785,0,0,0,.01.234c0,.016,0,.033,0,.049-.034.053-.071.1-.111.158a.213.213,0,0,1-.017-.022,3.468,3.468,0,0,1,.635-2.584,3.412,3.412,0,0,1,2.252-1.382,9.959,9.959,0,0,1,2.618-.043,3.414,3.414,0,0,1,3.106,3.509c.057,2.712-.117,3.19-1.689,4.654l-.491.456.548.386C-3371.22,873.239-3371.356,875.2-3371.689,877.26Z" transform="translate(3412.418 -852.439)" fill="#fdc936"/>
</svg>
