<svg id="anesthesia-Icon" xmlns="http://www.w3.org/2000/svg" width="64" height="64" viewBox="0 0 64 64">
  <path id="Path_13009" data-name="Path 13009" d="M9.96,15.47a.5.5,0,0,0,0-1A.5.5,0,0,0,9.96,15.47Z" transform="translate(8.496 14.608)" fill="#ffc936"/>
  <path id="Path_13010" data-name="Path 13010" d="M65.126,11.294l-9.377-9.38c-1-1.04-2.587.575-1.57,1.571l.774.774L42.436,16.78l-3.914-3.916a1.1,1.1,0,0,0-1.57,0l-3.118,3.119L22.289,27.531c-1.039,1,.575,2.588,1.57,1.571l10.77-10.773,3.118,3.119-3.185,3.163-.774-.774a1.1,1.1,0,0,0-1.57,0L29.1,26.956,19.568,36.49a1.136,1.136,0,0,0,0,1.571l9.377,9.38a1.1,1.1,0,0,0,1.57,0l9.532-9.534,3.118-3.141a1.1,1.1,0,0,0,0-1.571l-.774-.774,3.162-3.163,3.118,3.119L29.7,51.356,15.632,37.287,18.219,34.7c1.039-1-.575-2.588-1.57-1.571l-3.384,3.385a1.136,1.136,0,0,0,0,1.571l4.688,4.69L15.61,45.118a1.1,1.1,0,0,0,0,1.571l1.57,1.571L1.832,63.678A1.111,1.111,0,0,0,3.4,65.248L18.817,49.83l1.57,1.571a1.135,1.135,0,0,0,1.57,0L24.3,49.055l4.688,4.69a1.135,1.135,0,0,0,1.57,0L51.083,33.216l3.14-3.119a1.136,1.136,0,0,0,0-1.571l-3.914-3.916L62.826,12.09l.774.774a1.111,1.111,0,0,0,1.57-1.571ZM29.9,29.323l3.118,3.119-7.984,7.986-3.118-3.119L29.9,29.323Zm-.155,15.795L26.623,42l7.984-7.986,3.118,3.119-7.984,7.986Zm9.532-9.534-7.829-7.831,1.57-1.571.774.774,3.118,3.119,3.914,3.916-1.57,1.571ZM21.139,49.033,18.02,45.914l1.57-1.571,3.118,3.119Zm19.7-18.14L36.155,26.2,39.34,23.04l4.688,4.69-3.185,3.163Zm9.421-.044L46.35,26.934l-6.259-6.26-3.914-3.916,1.57-1.571,7.033,7.035L47.9,25.341l3.914,3.916-1.57,1.571Zm-1.57-7.831L46.35,20.673l-2.344-2.345L56.523,5.808l4.688,4.69L48.694,23.018Z" transform="translate(-1.5 -1.578)" fill="#ffc936"/>
</svg>
