<svg id="arrow-next" xmlns="http://www.w3.org/2000/svg" width="40.659" height="49.172" viewBox="0 0 40.659 49.172">
  <path id="Path_12" data-name="Path 12" d="M87.168,20.663c5.02,9.919-2.54,18.749-7.56,26.612-2.359,2.843-5.02,6.472-8.77,7.137a61.088,61.088,0,0,1-11.25-6.048L49.246,41.227c-2.54-3.508,0-7.621,1.331-11.129a159.552,159.552,0,0,1,12.1-21.773A8.71,8.71,0,0,1,65.878,5.24c9.375,0,17,8.1,21.411,15.6" transform="translate(-48.161 -5.24)" fill="#2c8eff"/>
  <path id="Path_569" data-name="Path 569" d="M8.437.895a2.8,2.8,0,0,1,4.1,0l7.681,8.272a2.808,2.808,0,0,1-2.052,4.706c-2.414,0-3.762-4.706-7.6-4.706s-5.307,4.706-7.76,4.706A2.8,2.8,0,0,1,.755,9.167Z" transform="translate(29.622 14.557) rotate(90)" fill="#fff"/>
</svg>
