<svg id="Asnan-Curves-BG" xmlns="http://www.w3.org/2000/svg" xmlns:xlink="http://www.w3.org/1999/xlink" width="1340" height="2037" viewBox="0 0 1340 2037">
  <defs>
    <clipPath id="clip-path">
      <rect id="Rectangle_17156" data-name="Rectangle 17156" width="1340" height="2037" transform="translate(-316)" fill="#fff"/>
    </clipPath>
    <clipPath id="clip-path-2">
      <rect width="1161.658" height="1592" fill="none"/>
    </clipPath>
  </defs>
  <g id="Mask_Group_163" data-name="Mask Group 163" transform="translate(316)" clip-path="url(#clip-path)">
    <g id="Repeat_Grid_17" data-name="Repeat Grid 17" transform="translate(-137.658 445)" opacity="0.134" clip-path="url(#clip-path-2)">
      <g id="Group_38417" data-name="Group 38417" transform="translate(-595.308 -2072.094)">
        <path id="Path_15" data-name="Path 15" d="M227.71,3.962c0-1.446-1.88-1.085-2.53,0A93.988,93.988,0,0,0,214.841,27.17a50.61,50.61,0,0,0-3.9,16.7c0,11.713,1.735,22.919,1.229,34.632-.723,25.233-21.69,47.718-43.38,57.84-16.557,9.11-28.92,16.34-39.331,21.69-6.507,3.543-11.93,6.362-16.268,8.6-3.181,1.591-5.929,2.82-8.17,3.76l-12.8,6.073-14.46,7.23q-25.305,12.942-49.815,27.474L10.52,246.385c21.69-13.159,44.465-25.016,67.312-36.15,17.063-8.387,34.343-16.268,51.695-24l22.992-9.761h0a90.81,90.81,0,0,0,21.69-14.46,164.266,164.266,0,0,0,52.2-114.524l1.085-32.174a94,94,0,0,0,0-11.062" transform="translate(646.234 2452.287)" fill="#d6dee0"/>
        <path id="Path_15-2" data-name="Path 15" d="M227.71,3.962c0-1.446-1.88-1.085-2.53,0A93.988,93.988,0,0,0,214.841,27.17a50.61,50.61,0,0,0-3.9,16.7c0,11.713,1.735,22.919,1.229,34.632-.723,25.233-21.69,47.718-43.38,57.84-16.557,9.11-28.92,16.34-39.331,21.69-6.507,3.543-11.93,6.362-16.268,8.6-3.181,1.591-5.929,2.82-8.17,3.76l-12.8,6.073-14.46,7.23q-25.305,12.942-49.815,27.474L10.52,246.385c21.69-13.159,44.465-25.016,67.312-36.15,17.063-8.387,34.343-16.268,51.695-24l22.992-9.761h0a90.81,90.81,0,0,0,21.69-14.46,164.266,164.266,0,0,0,52.2-114.524l1.085-32.174a94,94,0,0,0,0-11.062" transform="translate(825.356 2178.537)" fill="#d6dee0"/>
        <path id="Path_15-3" data-name="Path 15" d="M423.059,4.82c0-2.747-3.571-2.06-4.807,0A178.526,178.526,0,0,0,398.615,48.9,96.128,96.128,0,0,0,391.2,80.626c0,22.247,3.3,43.534,2.335,65.781-1.373,47.928-41.2,90.638-82.4,109.864-31.449,17.3-54.932,31.037-74.708,41.2-12.36,6.729-22.659,12.085-30.9,16.342-6.043,3.021-11.261,5.356-15.518,7.141L165.7,332.489l-27.466,13.733Q90.171,370.8,43.617,398.407l-33.1,66.88c41.2-24.994,84.458-47.516,127.854-68.665,32.41-15.93,65.232-30.9,98.191-45.594l43.671-18.54h0a172.487,172.487,0,0,0,41.2-27.466A312.014,312.014,0,0,0,420.587,87.492l2.06-61.112a178.555,178.555,0,0,0,0-21.011" transform="translate(584.788 2342.836)" fill="#d6dee0"/>
        <path id="Path_15-4" data-name="Path 15" d="M423.059,4.82c0-2.747-3.571-2.06-4.807,0A178.526,178.526,0,0,0,398.615,48.9,96.128,96.128,0,0,0,391.2,80.626c0,22.247,3.3,43.534,2.335,65.781-1.373,47.928-41.2,90.638-82.4,109.864-31.449,17.3-54.932,31.037-74.708,41.2-12.36,6.729-22.659,12.085-30.9,16.342-6.043,3.021-11.261,5.356-15.518,7.141L165.7,332.489l-27.466,13.733Q90.171,370.8,43.617,398.407l-33.1,66.88c41.2-24.994,84.458-47.516,127.854-68.665,32.41-15.93,65.232-30.9,98.191-45.594l43.671-18.54h0a172.487,172.487,0,0,0,41.2-27.466A312.014,312.014,0,0,0,420.587,87.492l2.06-61.112a178.555,178.555,0,0,0,0-21.011" transform="translate(763.909 2069.086)" fill="#d6dee0"/>
      </g>
      <g id="Group_38418" data-name="Group 38418" transform="translate(-347.308 -2072.094)">
        <path id="Path_15-5" data-name="Path 15" d="M227.71,3.962c0-1.446-1.88-1.085-2.53,0A93.988,93.988,0,0,0,214.841,27.17a50.61,50.61,0,0,0-3.9,16.7c0,11.713,1.735,22.919,1.229,34.632-.723,25.233-21.69,47.718-43.38,57.84-16.557,9.11-28.92,16.34-39.331,21.69-6.507,3.543-11.93,6.362-16.268,8.6-3.181,1.591-5.929,2.82-8.17,3.76l-12.8,6.073-14.46,7.23q-25.305,12.942-49.815,27.474L10.52,246.385c21.69-13.159,44.465-25.016,67.312-36.15,17.063-8.387,34.343-16.268,51.695-24l22.992-9.761h0a90.81,90.81,0,0,0,21.69-14.46,164.266,164.266,0,0,0,52.2-114.524l1.085-32.174a94,94,0,0,0,0-11.062" transform="translate(646.234 2452.287)" fill="#d6dee0"/>
        <path id="Path_15-6" data-name="Path 15" d="M227.71,3.962c0-1.446-1.88-1.085-2.53,0A93.988,93.988,0,0,0,214.841,27.17a50.61,50.61,0,0,0-3.9,16.7c0,11.713,1.735,22.919,1.229,34.632-.723,25.233-21.69,47.718-43.38,57.84-16.557,9.11-28.92,16.34-39.331,21.69-6.507,3.543-11.93,6.362-16.268,8.6-3.181,1.591-5.929,2.82-8.17,3.76l-12.8,6.073-14.46,7.23q-25.305,12.942-49.815,27.474L10.52,246.385c21.69-13.159,44.465-25.016,67.312-36.15,17.063-8.387,34.343-16.268,51.695-24l22.992-9.761h0a90.81,90.81,0,0,0,21.69-14.46,164.266,164.266,0,0,0,52.2-114.524l1.085-32.174a94,94,0,0,0,0-11.062" transform="translate(825.356 2178.537)" fill="#d6dee0"/>
        <path id="Path_15-7" data-name="Path 15" d="M423.059,4.82c0-2.747-3.571-2.06-4.807,0A178.526,178.526,0,0,0,398.615,48.9,96.128,96.128,0,0,0,391.2,80.626c0,22.247,3.3,43.534,2.335,65.781-1.373,47.928-41.2,90.638-82.4,109.864-31.449,17.3-54.932,31.037-74.708,41.2-12.36,6.729-22.659,12.085-30.9,16.342-6.043,3.021-11.261,5.356-15.518,7.141L165.7,332.489l-27.466,13.733Q90.171,370.8,43.617,398.407l-33.1,66.88c41.2-24.994,84.458-47.516,127.854-68.665,32.41-15.93,65.232-30.9,98.191-45.594l43.671-18.54h0a172.487,172.487,0,0,0,41.2-27.466A312.014,312.014,0,0,0,420.587,87.492l2.06-61.112a178.555,178.555,0,0,0,0-21.011" transform="translate(584.788 2342.836)" fill="#d6dee0"/>
        <path id="Path_15-8" data-name="Path 15" d="M423.059,4.82c0-2.747-3.571-2.06-4.807,0A178.526,178.526,0,0,0,398.615,48.9,96.128,96.128,0,0,0,391.2,80.626c0,22.247,3.3,43.534,2.335,65.781-1.373,47.928-41.2,90.638-82.4,109.864-31.449,17.3-54.932,31.037-74.708,41.2-12.36,6.729-22.659,12.085-30.9,16.342-6.043,3.021-11.261,5.356-15.518,7.141L165.7,332.489l-27.466,13.733Q90.171,370.8,43.617,398.407l-33.1,66.88c41.2-24.994,84.458-47.516,127.854-68.665,32.41-15.93,65.232-30.9,98.191-45.594l43.671-18.54h0a172.487,172.487,0,0,0,41.2-27.466A312.014,312.014,0,0,0,420.587,87.492l2.06-61.112a178.555,178.555,0,0,0,0-21.011" transform="translate(763.909 2069.086)" fill="#d6dee0"/>
      </g>
      <g id="Group_38419" data-name="Group 38419" transform="translate(-99.308 -2072.094)">
        <path id="Path_15-9" data-name="Path 15" d="M227.71,3.962c0-1.446-1.88-1.085-2.53,0A93.988,93.988,0,0,0,214.841,27.17a50.61,50.61,0,0,0-3.9,16.7c0,11.713,1.735,22.919,1.229,34.632-.723,25.233-21.69,47.718-43.38,57.84-16.557,9.11-28.92,16.34-39.331,21.69-6.507,3.543-11.93,6.362-16.268,8.6-3.181,1.591-5.929,2.82-8.17,3.76l-12.8,6.073-14.46,7.23q-25.305,12.942-49.815,27.474L10.52,246.385c21.69-13.159,44.465-25.016,67.312-36.15,17.063-8.387,34.343-16.268,51.695-24l22.992-9.761h0a90.81,90.81,0,0,0,21.69-14.46,164.266,164.266,0,0,0,52.2-114.524l1.085-32.174a94,94,0,0,0,0-11.062" transform="translate(646.234 2452.287)" fill="#d6dee0"/>
        <path id="Path_15-10" data-name="Path 15" d="M227.71,3.962c0-1.446-1.88-1.085-2.53,0A93.988,93.988,0,0,0,214.841,27.17a50.61,50.61,0,0,0-3.9,16.7c0,11.713,1.735,22.919,1.229,34.632-.723,25.233-21.69,47.718-43.38,57.84-16.557,9.11-28.92,16.34-39.331,21.69-6.507,3.543-11.93,6.362-16.268,8.6-3.181,1.591-5.929,2.82-8.17,3.76l-12.8,6.073-14.46,7.23q-25.305,12.942-49.815,27.474L10.52,246.385c21.69-13.159,44.465-25.016,67.312-36.15,17.063-8.387,34.343-16.268,51.695-24l22.992-9.761h0a90.81,90.81,0,0,0,21.69-14.46,164.266,164.266,0,0,0,52.2-114.524l1.085-32.174a94,94,0,0,0,0-11.062" transform="translate(825.356 2178.537)" fill="#d6dee0"/>
        <path id="Path_15-11" data-name="Path 15" d="M423.059,4.82c0-2.747-3.571-2.06-4.807,0A178.526,178.526,0,0,0,398.615,48.9,96.128,96.128,0,0,0,391.2,80.626c0,22.247,3.3,43.534,2.335,65.781-1.373,47.928-41.2,90.638-82.4,109.864-31.449,17.3-54.932,31.037-74.708,41.2-12.36,6.729-22.659,12.085-30.9,16.342-6.043,3.021-11.261,5.356-15.518,7.141L165.7,332.489l-27.466,13.733Q90.171,370.8,43.617,398.407l-33.1,66.88c41.2-24.994,84.458-47.516,127.854-68.665,32.41-15.93,65.232-30.9,98.191-45.594l43.671-18.54h0a172.487,172.487,0,0,0,41.2-27.466A312.014,312.014,0,0,0,420.587,87.492l2.06-61.112a178.555,178.555,0,0,0,0-21.011" transform="translate(584.788 2342.836)" fill="#d6dee0"/>
        <path id="Path_15-12" data-name="Path 15" d="M423.059,4.82c0-2.747-3.571-2.06-4.807,0A178.526,178.526,0,0,0,398.615,48.9,96.128,96.128,0,0,0,391.2,80.626c0,22.247,3.3,43.534,2.335,65.781-1.373,47.928-41.2,90.638-82.4,109.864-31.449,17.3-54.932,31.037-74.708,41.2-12.36,6.729-22.659,12.085-30.9,16.342-6.043,3.021-11.261,5.356-15.518,7.141L165.7,332.489l-27.466,13.733Q90.171,370.8,43.617,398.407l-33.1,66.88c41.2-24.994,84.458-47.516,127.854-68.665,32.41-15.93,65.232-30.9,98.191-45.594l43.671-18.54h0a172.487,172.487,0,0,0,41.2-27.466A312.014,312.014,0,0,0,420.587,87.492l2.06-61.112a178.555,178.555,0,0,0,0-21.011" transform="translate(763.909 2069.086)" fill="#d6dee0"/>
      </g>
      <g id="Group_38420" data-name="Group 38420" transform="translate(148.692 -2072.094)">
        <path id="Path_15-13" data-name="Path 15" d="M227.71,3.962c0-1.446-1.88-1.085-2.53,0A93.988,93.988,0,0,0,214.841,27.17a50.61,50.61,0,0,0-3.9,16.7c0,11.713,1.735,22.919,1.229,34.632-.723,25.233-21.69,47.718-43.38,57.84-16.557,9.11-28.92,16.34-39.331,21.69-6.507,3.543-11.93,6.362-16.268,8.6-3.181,1.591-5.929,2.82-8.17,3.76l-12.8,6.073-14.46,7.23q-25.305,12.942-49.815,27.474L10.52,246.385c21.69-13.159,44.465-25.016,67.312-36.15,17.063-8.387,34.343-16.268,51.695-24l22.992-9.761h0a90.81,90.81,0,0,0,21.69-14.46,164.266,164.266,0,0,0,52.2-114.524l1.085-32.174a94,94,0,0,0,0-11.062" transform="translate(646.234 2452.287)" fill="#d6dee0"/>
        <path id="Path_15-14" data-name="Path 15" d="M227.71,3.962c0-1.446-1.88-1.085-2.53,0A93.988,93.988,0,0,0,214.841,27.17a50.61,50.61,0,0,0-3.9,16.7c0,11.713,1.735,22.919,1.229,34.632-.723,25.233-21.69,47.718-43.38,57.84-16.557,9.11-28.92,16.34-39.331,21.69-6.507,3.543-11.93,6.362-16.268,8.6-3.181,1.591-5.929,2.82-8.17,3.76l-12.8,6.073-14.46,7.23q-25.305,12.942-49.815,27.474L10.52,246.385c21.69-13.159,44.465-25.016,67.312-36.15,17.063-8.387,34.343-16.268,51.695-24l22.992-9.761h0a90.81,90.81,0,0,0,21.69-14.46,164.266,164.266,0,0,0,52.2-114.524l1.085-32.174a94,94,0,0,0,0-11.062" transform="translate(825.356 2178.537)" fill="#d6dee0"/>
        <path id="Path_15-15" data-name="Path 15" d="M423.059,4.82c0-2.747-3.571-2.06-4.807,0A178.526,178.526,0,0,0,398.615,48.9,96.128,96.128,0,0,0,391.2,80.626c0,22.247,3.3,43.534,2.335,65.781-1.373,47.928-41.2,90.638-82.4,109.864-31.449,17.3-54.932,31.037-74.708,41.2-12.36,6.729-22.659,12.085-30.9,16.342-6.043,3.021-11.261,5.356-15.518,7.141L165.7,332.489l-27.466,13.733Q90.171,370.8,43.617,398.407l-33.1,66.88c41.2-24.994,84.458-47.516,127.854-68.665,32.41-15.93,65.232-30.9,98.191-45.594l43.671-18.54h0a172.487,172.487,0,0,0,41.2-27.466A312.014,312.014,0,0,0,420.587,87.492l2.06-61.112a178.555,178.555,0,0,0,0-21.011" transform="translate(584.788 2342.836)" fill="#d6dee0"/>
        <path id="Path_15-16" data-name="Path 15" d="M423.059,4.82c0-2.747-3.571-2.06-4.807,0A178.526,178.526,0,0,0,398.615,48.9,96.128,96.128,0,0,0,391.2,80.626c0,22.247,3.3,43.534,2.335,65.781-1.373,47.928-41.2,90.638-82.4,109.864-31.449,17.3-54.932,31.037-74.708,41.2-12.36,6.729-22.659,12.085-30.9,16.342-6.043,3.021-11.261,5.356-15.518,7.141L165.7,332.489l-27.466,13.733Q90.171,370.8,43.617,398.407l-33.1,66.88c41.2-24.994,84.458-47.516,127.854-68.665,32.41-15.93,65.232-30.9,98.191-45.594l43.671-18.54h0a172.487,172.487,0,0,0,41.2-27.466A312.014,312.014,0,0,0,420.587,87.492l2.06-61.112a178.555,178.555,0,0,0,0-21.011" transform="translate(763.909 2069.086)" fill="#d6dee0"/>
      </g>
      <g id="Group_38421" data-name="Group 38421" transform="translate(396.692 -2072.094)">
        <path id="Path_15-17" data-name="Path 15" d="M227.71,3.962c0-1.446-1.88-1.085-2.53,0A93.988,93.988,0,0,0,214.841,27.17a50.61,50.61,0,0,0-3.9,16.7c0,11.713,1.735,22.919,1.229,34.632-.723,25.233-21.69,47.718-43.38,57.84-16.557,9.11-28.92,16.34-39.331,21.69-6.507,3.543-11.93,6.362-16.268,8.6-3.181,1.591-5.929,2.82-8.17,3.76l-12.8,6.073-14.46,7.23q-25.305,12.942-49.815,27.474L10.52,246.385c21.69-13.159,44.465-25.016,67.312-36.15,17.063-8.387,34.343-16.268,51.695-24l22.992-9.761h0a90.81,90.81,0,0,0,21.69-14.46,164.266,164.266,0,0,0,52.2-114.524l1.085-32.174a94,94,0,0,0,0-11.062" transform="translate(646.234 2452.287)" fill="#d6dee0"/>
        <path id="Path_15-18" data-name="Path 15" d="M227.71,3.962c0-1.446-1.88-1.085-2.53,0A93.988,93.988,0,0,0,214.841,27.17a50.61,50.61,0,0,0-3.9,16.7c0,11.713,1.735,22.919,1.229,34.632-.723,25.233-21.69,47.718-43.38,57.84-16.557,9.11-28.92,16.34-39.331,21.69-6.507,3.543-11.93,6.362-16.268,8.6-3.181,1.591-5.929,2.82-8.17,3.76l-12.8,6.073-14.46,7.23q-25.305,12.942-49.815,27.474L10.52,246.385c21.69-13.159,44.465-25.016,67.312-36.15,17.063-8.387,34.343-16.268,51.695-24l22.992-9.761h0a90.81,90.81,0,0,0,21.69-14.46,164.266,164.266,0,0,0,52.2-114.524l1.085-32.174a94,94,0,0,0,0-11.062" transform="translate(825.356 2178.537)" fill="#d6dee0"/>
        <path id="Path_15-19" data-name="Path 15" d="M423.059,4.82c0-2.747-3.571-2.06-4.807,0A178.526,178.526,0,0,0,398.615,48.9,96.128,96.128,0,0,0,391.2,80.626c0,22.247,3.3,43.534,2.335,65.781-1.373,47.928-41.2,90.638-82.4,109.864-31.449,17.3-54.932,31.037-74.708,41.2-12.36,6.729-22.659,12.085-30.9,16.342-6.043,3.021-11.261,5.356-15.518,7.141L165.7,332.489l-27.466,13.733Q90.171,370.8,43.617,398.407l-33.1,66.88c41.2-24.994,84.458-47.516,127.854-68.665,32.41-15.93,65.232-30.9,98.191-45.594l43.671-18.54h0a172.487,172.487,0,0,0,41.2-27.466A312.014,312.014,0,0,0,420.587,87.492l2.06-61.112a178.555,178.555,0,0,0,0-21.011" transform="translate(584.788 2342.836)" fill="#d6dee0"/>
        <path id="Path_15-20" data-name="Path 15" d="M423.059,4.82c0-2.747-3.571-2.06-4.807,0A178.526,178.526,0,0,0,398.615,48.9,96.128,96.128,0,0,0,391.2,80.626c0,22.247,3.3,43.534,2.335,65.781-1.373,47.928-41.2,90.638-82.4,109.864-31.449,17.3-54.932,31.037-74.708,41.2-12.36,6.729-22.659,12.085-30.9,16.342-6.043,3.021-11.261,5.356-15.518,7.141L165.7,332.489l-27.466,13.733Q90.171,370.8,43.617,398.407l-33.1,66.88c41.2-24.994,84.458-47.516,127.854-68.665,32.41-15.93,65.232-30.9,98.191-45.594l43.671-18.54h0a172.487,172.487,0,0,0,41.2-27.466A312.014,312.014,0,0,0,420.587,87.492l2.06-61.112a178.555,178.555,0,0,0,0-21.011" transform="translate(763.909 2069.086)" fill="#d6dee0"/>
      </g>
      <g id="Group_38427" data-name="Group 38427" transform="translate(-595.308 -1533.094)">
        <path id="Path_15-21" data-name="Path 15" d="M227.71,3.962c0-1.446-1.88-1.085-2.53,0A93.988,93.988,0,0,0,214.841,27.17a50.61,50.61,0,0,0-3.9,16.7c0,11.713,1.735,22.919,1.229,34.632-.723,25.233-21.69,47.718-43.38,57.84-16.557,9.11-28.92,16.34-39.331,21.69-6.507,3.543-11.93,6.362-16.268,8.6-3.181,1.591-5.929,2.82-8.17,3.76l-12.8,6.073-14.46,7.23q-25.305,12.942-49.815,27.474L10.52,246.385c21.69-13.159,44.465-25.016,67.312-36.15,17.063-8.387,34.343-16.268,51.695-24l22.992-9.761h0a90.81,90.81,0,0,0,21.69-14.46,164.266,164.266,0,0,0,52.2-114.524l1.085-32.174a94,94,0,0,0,0-11.062" transform="translate(646.234 2452.287)" fill="#d6dee0"/>
        <path id="Path_15-22" data-name="Path 15" d="M227.71,3.962c0-1.446-1.88-1.085-2.53,0A93.988,93.988,0,0,0,214.841,27.17a50.61,50.61,0,0,0-3.9,16.7c0,11.713,1.735,22.919,1.229,34.632-.723,25.233-21.69,47.718-43.38,57.84-16.557,9.11-28.92,16.34-39.331,21.69-6.507,3.543-11.93,6.362-16.268,8.6-3.181,1.591-5.929,2.82-8.17,3.76l-12.8,6.073-14.46,7.23q-25.305,12.942-49.815,27.474L10.52,246.385c21.69-13.159,44.465-25.016,67.312-36.15,17.063-8.387,34.343-16.268,51.695-24l22.992-9.761h0a90.81,90.81,0,0,0,21.69-14.46,164.266,164.266,0,0,0,52.2-114.524l1.085-32.174a94,94,0,0,0,0-11.062" transform="translate(825.356 2178.537)" fill="#d6dee0"/>
        <path id="Path_15-23" data-name="Path 15" d="M423.059,4.82c0-2.747-3.571-2.06-4.807,0A178.526,178.526,0,0,0,398.615,48.9,96.128,96.128,0,0,0,391.2,80.626c0,22.247,3.3,43.534,2.335,65.781-1.373,47.928-41.2,90.638-82.4,109.864-31.449,17.3-54.932,31.037-74.708,41.2-12.36,6.729-22.659,12.085-30.9,16.342-6.043,3.021-11.261,5.356-15.518,7.141L165.7,332.489l-27.466,13.733Q90.171,370.8,43.617,398.407l-33.1,66.88c41.2-24.994,84.458-47.516,127.854-68.665,32.41-15.93,65.232-30.9,98.191-45.594l43.671-18.54h0a172.487,172.487,0,0,0,41.2-27.466A312.014,312.014,0,0,0,420.587,87.492l2.06-61.112a178.555,178.555,0,0,0,0-21.011" transform="translate(584.788 2342.836)" fill="#d6dee0"/>
        <path id="Path_15-24" data-name="Path 15" d="M423.059,4.82c0-2.747-3.571-2.06-4.807,0A178.526,178.526,0,0,0,398.615,48.9,96.128,96.128,0,0,0,391.2,80.626c0,22.247,3.3,43.534,2.335,65.781-1.373,47.928-41.2,90.638-82.4,109.864-31.449,17.3-54.932,31.037-74.708,41.2-12.36,6.729-22.659,12.085-30.9,16.342-6.043,3.021-11.261,5.356-15.518,7.141L165.7,332.489l-27.466,13.733Q90.171,370.8,43.617,398.407l-33.1,66.88c41.2-24.994,84.458-47.516,127.854-68.665,32.41-15.93,65.232-30.9,98.191-45.594l43.671-18.54h0a172.487,172.487,0,0,0,41.2-27.466A312.014,312.014,0,0,0,420.587,87.492l2.06-61.112a178.555,178.555,0,0,0,0-21.011" transform="translate(763.909 2069.086)" fill="#d6dee0"/>
      </g>
      <g id="Group_38428" data-name="Group 38428" transform="translate(-347.308 -1533.094)">
        <path id="Path_15-25" data-name="Path 15" d="M227.71,3.962c0-1.446-1.88-1.085-2.53,0A93.988,93.988,0,0,0,214.841,27.17a50.61,50.61,0,0,0-3.9,16.7c0,11.713,1.735,22.919,1.229,34.632-.723,25.233-21.69,47.718-43.38,57.84-16.557,9.11-28.92,16.34-39.331,21.69-6.507,3.543-11.93,6.362-16.268,8.6-3.181,1.591-5.929,2.82-8.17,3.76l-12.8,6.073-14.46,7.23q-25.305,12.942-49.815,27.474L10.52,246.385c21.69-13.159,44.465-25.016,67.312-36.15,17.063-8.387,34.343-16.268,51.695-24l22.992-9.761h0a90.81,90.81,0,0,0,21.69-14.46,164.266,164.266,0,0,0,52.2-114.524l1.085-32.174a94,94,0,0,0,0-11.062" transform="translate(646.234 2452.287)" fill="#d6dee0"/>
        <path id="Path_15-26" data-name="Path 15" d="M227.71,3.962c0-1.446-1.88-1.085-2.53,0A93.988,93.988,0,0,0,214.841,27.17a50.61,50.61,0,0,0-3.9,16.7c0,11.713,1.735,22.919,1.229,34.632-.723,25.233-21.69,47.718-43.38,57.84-16.557,9.11-28.92,16.34-39.331,21.69-6.507,3.543-11.93,6.362-16.268,8.6-3.181,1.591-5.929,2.82-8.17,3.76l-12.8,6.073-14.46,7.23q-25.305,12.942-49.815,27.474L10.52,246.385c21.69-13.159,44.465-25.016,67.312-36.15,17.063-8.387,34.343-16.268,51.695-24l22.992-9.761h0a90.81,90.81,0,0,0,21.69-14.46,164.266,164.266,0,0,0,52.2-114.524l1.085-32.174a94,94,0,0,0,0-11.062" transform="translate(825.356 2178.537)" fill="#d6dee0"/>
        <path id="Path_15-27" data-name="Path 15" d="M423.059,4.82c0-2.747-3.571-2.06-4.807,0A178.526,178.526,0,0,0,398.615,48.9,96.128,96.128,0,0,0,391.2,80.626c0,22.247,3.3,43.534,2.335,65.781-1.373,47.928-41.2,90.638-82.4,109.864-31.449,17.3-54.932,31.037-74.708,41.2-12.36,6.729-22.659,12.085-30.9,16.342-6.043,3.021-11.261,5.356-15.518,7.141L165.7,332.489l-27.466,13.733Q90.171,370.8,43.617,398.407l-33.1,66.88c41.2-24.994,84.458-47.516,127.854-68.665,32.41-15.93,65.232-30.9,98.191-45.594l43.671-18.54h0a172.487,172.487,0,0,0,41.2-27.466A312.014,312.014,0,0,0,420.587,87.492l2.06-61.112a178.555,178.555,0,0,0,0-21.011" transform="translate(584.788 2342.836)" fill="#d6dee0"/>
        <path id="Path_15-28" data-name="Path 15" d="M423.059,4.82c0-2.747-3.571-2.06-4.807,0A178.526,178.526,0,0,0,398.615,48.9,96.128,96.128,0,0,0,391.2,80.626c0,22.247,3.3,43.534,2.335,65.781-1.373,47.928-41.2,90.638-82.4,109.864-31.449,17.3-54.932,31.037-74.708,41.2-12.36,6.729-22.659,12.085-30.9,16.342-6.043,3.021-11.261,5.356-15.518,7.141L165.7,332.489l-27.466,13.733Q90.171,370.8,43.617,398.407l-33.1,66.88c41.2-24.994,84.458-47.516,127.854-68.665,32.41-15.93,65.232-30.9,98.191-45.594l43.671-18.54h0a172.487,172.487,0,0,0,41.2-27.466A312.014,312.014,0,0,0,420.587,87.492l2.06-61.112a178.555,178.555,0,0,0,0-21.011" transform="translate(763.909 2069.086)" fill="#d6dee0"/>
      </g>
      <g id="Group_38429" data-name="Group 38429" transform="translate(-99.308 -1533.094)">
        <path id="Path_15-29" data-name="Path 15" d="M227.71,3.962c0-1.446-1.88-1.085-2.53,0A93.988,93.988,0,0,0,214.841,27.17a50.61,50.61,0,0,0-3.9,16.7c0,11.713,1.735,22.919,1.229,34.632-.723,25.233-21.69,47.718-43.38,57.84-16.557,9.11-28.92,16.34-39.331,21.69-6.507,3.543-11.93,6.362-16.268,8.6-3.181,1.591-5.929,2.82-8.17,3.76l-12.8,6.073-14.46,7.23q-25.305,12.942-49.815,27.474L10.52,246.385c21.69-13.159,44.465-25.016,67.312-36.15,17.063-8.387,34.343-16.268,51.695-24l22.992-9.761h0a90.81,90.81,0,0,0,21.69-14.46,164.266,164.266,0,0,0,52.2-114.524l1.085-32.174a94,94,0,0,0,0-11.062" transform="translate(646.234 2452.287)" fill="#d6dee0"/>
        <path id="Path_15-30" data-name="Path 15" d="M227.71,3.962c0-1.446-1.88-1.085-2.53,0A93.988,93.988,0,0,0,214.841,27.17a50.61,50.61,0,0,0-3.9,16.7c0,11.713,1.735,22.919,1.229,34.632-.723,25.233-21.69,47.718-43.38,57.84-16.557,9.11-28.92,16.34-39.331,21.69-6.507,3.543-11.93,6.362-16.268,8.6-3.181,1.591-5.929,2.82-8.17,3.76l-12.8,6.073-14.46,7.23q-25.305,12.942-49.815,27.474L10.52,246.385c21.69-13.159,44.465-25.016,67.312-36.15,17.063-8.387,34.343-16.268,51.695-24l22.992-9.761h0a90.81,90.81,0,0,0,21.69-14.46,164.266,164.266,0,0,0,52.2-114.524l1.085-32.174a94,94,0,0,0,0-11.062" transform="translate(825.356 2178.537)" fill="#d6dee0"/>
        <path id="Path_15-31" data-name="Path 15" d="M423.059,4.82c0-2.747-3.571-2.06-4.807,0A178.526,178.526,0,0,0,398.615,48.9,96.128,96.128,0,0,0,391.2,80.626c0,22.247,3.3,43.534,2.335,65.781-1.373,47.928-41.2,90.638-82.4,109.864-31.449,17.3-54.932,31.037-74.708,41.2-12.36,6.729-22.659,12.085-30.9,16.342-6.043,3.021-11.261,5.356-15.518,7.141L165.7,332.489l-27.466,13.733Q90.171,370.8,43.617,398.407l-33.1,66.88c41.2-24.994,84.458-47.516,127.854-68.665,32.41-15.93,65.232-30.9,98.191-45.594l43.671-18.54h0a172.487,172.487,0,0,0,41.2-27.466A312.014,312.014,0,0,0,420.587,87.492l2.06-61.112a178.555,178.555,0,0,0,0-21.011" transform="translate(584.788 2342.836)" fill="#d6dee0"/>
        <path id="Path_15-32" data-name="Path 15" d="M423.059,4.82c0-2.747-3.571-2.06-4.807,0A178.526,178.526,0,0,0,398.615,48.9,96.128,96.128,0,0,0,391.2,80.626c0,22.247,3.3,43.534,2.335,65.781-1.373,47.928-41.2,90.638-82.4,109.864-31.449,17.3-54.932,31.037-74.708,41.2-12.36,6.729-22.659,12.085-30.9,16.342-6.043,3.021-11.261,5.356-15.518,7.141L165.7,332.489l-27.466,13.733Q90.171,370.8,43.617,398.407l-33.1,66.88c41.2-24.994,84.458-47.516,127.854-68.665,32.41-15.93,65.232-30.9,98.191-45.594l43.671-18.54h0a172.487,172.487,0,0,0,41.2-27.466A312.014,312.014,0,0,0,420.587,87.492l2.06-61.112a178.555,178.555,0,0,0,0-21.011" transform="translate(763.909 2069.086)" fill="#d6dee0"/>
      </g>
      <g id="Group_38430" data-name="Group 38430" transform="translate(148.692 -1533.094)">
        <path id="Path_15-33" data-name="Path 15" d="M227.71,3.962c0-1.446-1.88-1.085-2.53,0A93.988,93.988,0,0,0,214.841,27.17a50.61,50.61,0,0,0-3.9,16.7c0,11.713,1.735,22.919,1.229,34.632-.723,25.233-21.69,47.718-43.38,57.84-16.557,9.11-28.92,16.34-39.331,21.69-6.507,3.543-11.93,6.362-16.268,8.6-3.181,1.591-5.929,2.82-8.17,3.76l-12.8,6.073-14.46,7.23q-25.305,12.942-49.815,27.474L10.52,246.385c21.69-13.159,44.465-25.016,67.312-36.15,17.063-8.387,34.343-16.268,51.695-24l22.992-9.761h0a90.81,90.81,0,0,0,21.69-14.46,164.266,164.266,0,0,0,52.2-114.524l1.085-32.174a94,94,0,0,0,0-11.062" transform="translate(646.234 2452.287)" fill="#d6dee0"/>
        <path id="Path_15-34" data-name="Path 15" d="M227.71,3.962c0-1.446-1.88-1.085-2.53,0A93.988,93.988,0,0,0,214.841,27.17a50.61,50.61,0,0,0-3.9,16.7c0,11.713,1.735,22.919,1.229,34.632-.723,25.233-21.69,47.718-43.38,57.84-16.557,9.11-28.92,16.34-39.331,21.69-6.507,3.543-11.93,6.362-16.268,8.6-3.181,1.591-5.929,2.82-8.17,3.76l-12.8,6.073-14.46,7.23q-25.305,12.942-49.815,27.474L10.52,246.385c21.69-13.159,44.465-25.016,67.312-36.15,17.063-8.387,34.343-16.268,51.695-24l22.992-9.761h0a90.81,90.81,0,0,0,21.69-14.46,164.266,164.266,0,0,0,52.2-114.524l1.085-32.174a94,94,0,0,0,0-11.062" transform="translate(825.356 2178.537)" fill="#d6dee0"/>
        <path id="Path_15-35" data-name="Path 15" d="M423.059,4.82c0-2.747-3.571-2.06-4.807,0A178.526,178.526,0,0,0,398.615,48.9,96.128,96.128,0,0,0,391.2,80.626c0,22.247,3.3,43.534,2.335,65.781-1.373,47.928-41.2,90.638-82.4,109.864-31.449,17.3-54.932,31.037-74.708,41.2-12.36,6.729-22.659,12.085-30.9,16.342-6.043,3.021-11.261,5.356-15.518,7.141L165.7,332.489l-27.466,13.733Q90.171,370.8,43.617,398.407l-33.1,66.88c41.2-24.994,84.458-47.516,127.854-68.665,32.41-15.93,65.232-30.9,98.191-45.594l43.671-18.54h0a172.487,172.487,0,0,0,41.2-27.466A312.014,312.014,0,0,0,420.587,87.492l2.06-61.112a178.555,178.555,0,0,0,0-21.011" transform="translate(584.788 2342.836)" fill="#d6dee0"/>
        <path id="Path_15-36" data-name="Path 15" d="M423.059,4.82c0-2.747-3.571-2.06-4.807,0A178.526,178.526,0,0,0,398.615,48.9,96.128,96.128,0,0,0,391.2,80.626c0,22.247,3.3,43.534,2.335,65.781-1.373,47.928-41.2,90.638-82.4,109.864-31.449,17.3-54.932,31.037-74.708,41.2-12.36,6.729-22.659,12.085-30.9,16.342-6.043,3.021-11.261,5.356-15.518,7.141L165.7,332.489l-27.466,13.733Q90.171,370.8,43.617,398.407l-33.1,66.88c41.2-24.994,84.458-47.516,127.854-68.665,32.41-15.93,65.232-30.9,98.191-45.594l43.671-18.54h0a172.487,172.487,0,0,0,41.2-27.466A312.014,312.014,0,0,0,420.587,87.492l2.06-61.112a178.555,178.555,0,0,0,0-21.011" transform="translate(763.909 2069.086)" fill="#d6dee0"/>
      </g>
      <g id="Group_38431" data-name="Group 38431" transform="translate(396.692 -1533.094)">
        <path id="Path_15-37" data-name="Path 15" d="M227.71,3.962c0-1.446-1.88-1.085-2.53,0A93.988,93.988,0,0,0,214.841,27.17a50.61,50.61,0,0,0-3.9,16.7c0,11.713,1.735,22.919,1.229,34.632-.723,25.233-21.69,47.718-43.38,57.84-16.557,9.11-28.92,16.34-39.331,21.69-6.507,3.543-11.93,6.362-16.268,8.6-3.181,1.591-5.929,2.82-8.17,3.76l-12.8,6.073-14.46,7.23q-25.305,12.942-49.815,27.474L10.52,246.385c21.69-13.159,44.465-25.016,67.312-36.15,17.063-8.387,34.343-16.268,51.695-24l22.992-9.761h0a90.81,90.81,0,0,0,21.69-14.46,164.266,164.266,0,0,0,52.2-114.524l1.085-32.174a94,94,0,0,0,0-11.062" transform="translate(646.234 2452.287)" fill="#d6dee0"/>
        <path id="Path_15-38" data-name="Path 15" d="M227.71,3.962c0-1.446-1.88-1.085-2.53,0A93.988,93.988,0,0,0,214.841,27.17a50.61,50.61,0,0,0-3.9,16.7c0,11.713,1.735,22.919,1.229,34.632-.723,25.233-21.69,47.718-43.38,57.84-16.557,9.11-28.92,16.34-39.331,21.69-6.507,3.543-11.93,6.362-16.268,8.6-3.181,1.591-5.929,2.82-8.17,3.76l-12.8,6.073-14.46,7.23q-25.305,12.942-49.815,27.474L10.52,246.385c21.69-13.159,44.465-25.016,67.312-36.15,17.063-8.387,34.343-16.268,51.695-24l22.992-9.761h0a90.81,90.81,0,0,0,21.69-14.46,164.266,164.266,0,0,0,52.2-114.524l1.085-32.174a94,94,0,0,0,0-11.062" transform="translate(825.356 2178.537)" fill="#d6dee0"/>
        <path id="Path_15-39" data-name="Path 15" d="M423.059,4.82c0-2.747-3.571-2.06-4.807,0A178.526,178.526,0,0,0,398.615,48.9,96.128,96.128,0,0,0,391.2,80.626c0,22.247,3.3,43.534,2.335,65.781-1.373,47.928-41.2,90.638-82.4,109.864-31.449,17.3-54.932,31.037-74.708,41.2-12.36,6.729-22.659,12.085-30.9,16.342-6.043,3.021-11.261,5.356-15.518,7.141L165.7,332.489l-27.466,13.733Q90.171,370.8,43.617,398.407l-33.1,66.88c41.2-24.994,84.458-47.516,127.854-68.665,32.41-15.93,65.232-30.9,98.191-45.594l43.671-18.54h0a172.487,172.487,0,0,0,41.2-27.466A312.014,312.014,0,0,0,420.587,87.492l2.06-61.112a178.555,178.555,0,0,0,0-21.011" transform="translate(584.788 2342.836)" fill="#d6dee0"/>
        <path id="Path_15-40" data-name="Path 15" d="M423.059,4.82c0-2.747-3.571-2.06-4.807,0A178.526,178.526,0,0,0,398.615,48.9,96.128,96.128,0,0,0,391.2,80.626c0,22.247,3.3,43.534,2.335,65.781-1.373,47.928-41.2,90.638-82.4,109.864-31.449,17.3-54.932,31.037-74.708,41.2-12.36,6.729-22.659,12.085-30.9,16.342-6.043,3.021-11.261,5.356-15.518,7.141L165.7,332.489l-27.466,13.733Q90.171,370.8,43.617,398.407l-33.1,66.88c41.2-24.994,84.458-47.516,127.854-68.665,32.41-15.93,65.232-30.9,98.191-45.594l43.671-18.54h0a172.487,172.487,0,0,0,41.2-27.466A312.014,312.014,0,0,0,420.587,87.492l2.06-61.112a178.555,178.555,0,0,0,0-21.011" transform="translate(763.909 2069.086)" fill="#d6dee0"/>
      </g>
      <g id="Group_38437" data-name="Group 38437" transform="translate(-595.308 -994.094)">
        <path id="Path_15-41" data-name="Path 15" d="M227.71,3.962c0-1.446-1.88-1.085-2.53,0A93.988,93.988,0,0,0,214.841,27.17a50.61,50.61,0,0,0-3.9,16.7c0,11.713,1.735,22.919,1.229,34.632-.723,25.233-21.69,47.718-43.38,57.84-16.557,9.11-28.92,16.34-39.331,21.69-6.507,3.543-11.93,6.362-16.268,8.6-3.181,1.591-5.929,2.82-8.17,3.76l-12.8,6.073-14.46,7.23q-25.305,12.942-49.815,27.474L10.52,246.385c21.69-13.159,44.465-25.016,67.312-36.15,17.063-8.387,34.343-16.268,51.695-24l22.992-9.761h0a90.81,90.81,0,0,0,21.69-14.46,164.266,164.266,0,0,0,52.2-114.524l1.085-32.174a94,94,0,0,0,0-11.062" transform="translate(646.234 2452.287)" fill="#d6dee0"/>
        <path id="Path_15-42" data-name="Path 15" d="M227.71,3.962c0-1.446-1.88-1.085-2.53,0A93.988,93.988,0,0,0,214.841,27.17a50.61,50.61,0,0,0-3.9,16.7c0,11.713,1.735,22.919,1.229,34.632-.723,25.233-21.69,47.718-43.38,57.84-16.557,9.11-28.92,16.34-39.331,21.69-6.507,3.543-11.93,6.362-16.268,8.6-3.181,1.591-5.929,2.82-8.17,3.76l-12.8,6.073-14.46,7.23q-25.305,12.942-49.815,27.474L10.52,246.385c21.69-13.159,44.465-25.016,67.312-36.15,17.063-8.387,34.343-16.268,51.695-24l22.992-9.761h0a90.81,90.81,0,0,0,21.69-14.46,164.266,164.266,0,0,0,52.2-114.524l1.085-32.174a94,94,0,0,0,0-11.062" transform="translate(825.356 2178.537)" fill="#d6dee0"/>
        <path id="Path_15-43" data-name="Path 15" d="M423.059,4.82c0-2.747-3.571-2.06-4.807,0A178.526,178.526,0,0,0,398.615,48.9,96.128,96.128,0,0,0,391.2,80.626c0,22.247,3.3,43.534,2.335,65.781-1.373,47.928-41.2,90.638-82.4,109.864-31.449,17.3-54.932,31.037-74.708,41.2-12.36,6.729-22.659,12.085-30.9,16.342-6.043,3.021-11.261,5.356-15.518,7.141L165.7,332.489l-27.466,13.733Q90.171,370.8,43.617,398.407l-33.1,66.88c41.2-24.994,84.458-47.516,127.854-68.665,32.41-15.93,65.232-30.9,98.191-45.594l43.671-18.54h0a172.487,172.487,0,0,0,41.2-27.466A312.014,312.014,0,0,0,420.587,87.492l2.06-61.112a178.555,178.555,0,0,0,0-21.011" transform="translate(584.788 2342.836)" fill="#d6dee0"/>
        <path id="Path_15-44" data-name="Path 15" d="M423.059,4.82c0-2.747-3.571-2.06-4.807,0A178.526,178.526,0,0,0,398.615,48.9,96.128,96.128,0,0,0,391.2,80.626c0,22.247,3.3,43.534,2.335,65.781-1.373,47.928-41.2,90.638-82.4,109.864-31.449,17.3-54.932,31.037-74.708,41.2-12.36,6.729-22.659,12.085-30.9,16.342-6.043,3.021-11.261,5.356-15.518,7.141L165.7,332.489l-27.466,13.733Q90.171,370.8,43.617,398.407l-33.1,66.88c41.2-24.994,84.458-47.516,127.854-68.665,32.41-15.93,65.232-30.9,98.191-45.594l43.671-18.54h0a172.487,172.487,0,0,0,41.2-27.466A312.014,312.014,0,0,0,420.587,87.492l2.06-61.112a178.555,178.555,0,0,0,0-21.011" transform="translate(763.909 2069.086)" fill="#d6dee0"/>
      </g>
      <g id="Group_38438" data-name="Group 38438" transform="translate(-347.308 -994.094)">
        <path id="Path_15-45" data-name="Path 15" d="M227.71,3.962c0-1.446-1.88-1.085-2.53,0A93.988,93.988,0,0,0,214.841,27.17a50.61,50.61,0,0,0-3.9,16.7c0,11.713,1.735,22.919,1.229,34.632-.723,25.233-21.69,47.718-43.38,57.84-16.557,9.11-28.92,16.34-39.331,21.69-6.507,3.543-11.93,6.362-16.268,8.6-3.181,1.591-5.929,2.82-8.17,3.76l-12.8,6.073-14.46,7.23q-25.305,12.942-49.815,27.474L10.52,246.385c21.69-13.159,44.465-25.016,67.312-36.15,17.063-8.387,34.343-16.268,51.695-24l22.992-9.761h0a90.81,90.81,0,0,0,21.69-14.46,164.266,164.266,0,0,0,52.2-114.524l1.085-32.174a94,94,0,0,0,0-11.062" transform="translate(646.234 2452.287)" fill="#d6dee0"/>
        <path id="Path_15-46" data-name="Path 15" d="M227.71,3.962c0-1.446-1.88-1.085-2.53,0A93.988,93.988,0,0,0,214.841,27.17a50.61,50.61,0,0,0-3.9,16.7c0,11.713,1.735,22.919,1.229,34.632-.723,25.233-21.69,47.718-43.38,57.84-16.557,9.11-28.92,16.34-39.331,21.69-6.507,3.543-11.93,6.362-16.268,8.6-3.181,1.591-5.929,2.82-8.17,3.76l-12.8,6.073-14.46,7.23q-25.305,12.942-49.815,27.474L10.52,246.385c21.69-13.159,44.465-25.016,67.312-36.15,17.063-8.387,34.343-16.268,51.695-24l22.992-9.761h0a90.81,90.81,0,0,0,21.69-14.46,164.266,164.266,0,0,0,52.2-114.524l1.085-32.174a94,94,0,0,0,0-11.062" transform="translate(825.356 2178.537)" fill="#d6dee0"/>
        <path id="Path_15-47" data-name="Path 15" d="M423.059,4.82c0-2.747-3.571-2.06-4.807,0A178.526,178.526,0,0,0,398.615,48.9,96.128,96.128,0,0,0,391.2,80.626c0,22.247,3.3,43.534,2.335,65.781-1.373,47.928-41.2,90.638-82.4,109.864-31.449,17.3-54.932,31.037-74.708,41.2-12.36,6.729-22.659,12.085-30.9,16.342-6.043,3.021-11.261,5.356-15.518,7.141L165.7,332.489l-27.466,13.733Q90.171,370.8,43.617,398.407l-33.1,66.88c41.2-24.994,84.458-47.516,127.854-68.665,32.41-15.93,65.232-30.9,98.191-45.594l43.671-18.54h0a172.487,172.487,0,0,0,41.2-27.466A312.014,312.014,0,0,0,420.587,87.492l2.06-61.112a178.555,178.555,0,0,0,0-21.011" transform="translate(584.788 2342.836)" fill="#d6dee0"/>
        <path id="Path_15-48" data-name="Path 15" d="M423.059,4.82c0-2.747-3.571-2.06-4.807,0A178.526,178.526,0,0,0,398.615,48.9,96.128,96.128,0,0,0,391.2,80.626c0,22.247,3.3,43.534,2.335,65.781-1.373,47.928-41.2,90.638-82.4,109.864-31.449,17.3-54.932,31.037-74.708,41.2-12.36,6.729-22.659,12.085-30.9,16.342-6.043,3.021-11.261,5.356-15.518,7.141L165.7,332.489l-27.466,13.733Q90.171,370.8,43.617,398.407l-33.1,66.88c41.2-24.994,84.458-47.516,127.854-68.665,32.41-15.93,65.232-30.9,98.191-45.594l43.671-18.54h0a172.487,172.487,0,0,0,41.2-27.466A312.014,312.014,0,0,0,420.587,87.492l2.06-61.112a178.555,178.555,0,0,0,0-21.011" transform="translate(763.909 2069.086)" fill="#d6dee0"/>
      </g>
      <g id="Group_38439" data-name="Group 38439" transform="translate(-99.308 -994.094)">
        <path id="Path_15-49" data-name="Path 15" d="M227.71,3.962c0-1.446-1.88-1.085-2.53,0A93.988,93.988,0,0,0,214.841,27.17a50.61,50.61,0,0,0-3.9,16.7c0,11.713,1.735,22.919,1.229,34.632-.723,25.233-21.69,47.718-43.38,57.84-16.557,9.11-28.92,16.34-39.331,21.69-6.507,3.543-11.93,6.362-16.268,8.6-3.181,1.591-5.929,2.82-8.17,3.76l-12.8,6.073-14.46,7.23q-25.305,12.942-49.815,27.474L10.52,246.385c21.69-13.159,44.465-25.016,67.312-36.15,17.063-8.387,34.343-16.268,51.695-24l22.992-9.761h0a90.81,90.81,0,0,0,21.69-14.46,164.266,164.266,0,0,0,52.2-114.524l1.085-32.174a94,94,0,0,0,0-11.062" transform="translate(646.234 2452.287)" fill="#d6dee0"/>
        <path id="Path_15-50" data-name="Path 15" d="M227.71,3.962c0-1.446-1.88-1.085-2.53,0A93.988,93.988,0,0,0,214.841,27.17a50.61,50.61,0,0,0-3.9,16.7c0,11.713,1.735,22.919,1.229,34.632-.723,25.233-21.69,47.718-43.38,57.84-16.557,9.11-28.92,16.34-39.331,21.69-6.507,3.543-11.93,6.362-16.268,8.6-3.181,1.591-5.929,2.82-8.17,3.76l-12.8,6.073-14.46,7.23q-25.305,12.942-49.815,27.474L10.52,246.385c21.69-13.159,44.465-25.016,67.312-36.15,17.063-8.387,34.343-16.268,51.695-24l22.992-9.761h0a90.81,90.81,0,0,0,21.69-14.46,164.266,164.266,0,0,0,52.2-114.524l1.085-32.174a94,94,0,0,0,0-11.062" transform="translate(825.356 2178.537)" fill="#d6dee0"/>
        <path id="Path_15-51" data-name="Path 15" d="M423.059,4.82c0-2.747-3.571-2.06-4.807,0A178.526,178.526,0,0,0,398.615,48.9,96.128,96.128,0,0,0,391.2,80.626c0,22.247,3.3,43.534,2.335,65.781-1.373,47.928-41.2,90.638-82.4,109.864-31.449,17.3-54.932,31.037-74.708,41.2-12.36,6.729-22.659,12.085-30.9,16.342-6.043,3.021-11.261,5.356-15.518,7.141L165.7,332.489l-27.466,13.733Q90.171,370.8,43.617,398.407l-33.1,66.88c41.2-24.994,84.458-47.516,127.854-68.665,32.41-15.93,65.232-30.9,98.191-45.594l43.671-18.54h0a172.487,172.487,0,0,0,41.2-27.466A312.014,312.014,0,0,0,420.587,87.492l2.06-61.112a178.555,178.555,0,0,0,0-21.011" transform="translate(584.788 2342.836)" fill="#d6dee0"/>
        <path id="Path_15-52" data-name="Path 15" d="M423.059,4.82c0-2.747-3.571-2.06-4.807,0A178.526,178.526,0,0,0,398.615,48.9,96.128,96.128,0,0,0,391.2,80.626c0,22.247,3.3,43.534,2.335,65.781-1.373,47.928-41.2,90.638-82.4,109.864-31.449,17.3-54.932,31.037-74.708,41.2-12.36,6.729-22.659,12.085-30.9,16.342-6.043,3.021-11.261,5.356-15.518,7.141L165.7,332.489l-27.466,13.733Q90.171,370.8,43.617,398.407l-33.1,66.88c41.2-24.994,84.458-47.516,127.854-68.665,32.41-15.93,65.232-30.9,98.191-45.594l43.671-18.54h0a172.487,172.487,0,0,0,41.2-27.466A312.014,312.014,0,0,0,420.587,87.492l2.06-61.112a178.555,178.555,0,0,0,0-21.011" transform="translate(763.909 2069.086)" fill="#d6dee0"/>
      </g>
      <g id="Group_38440" data-name="Group 38440" transform="translate(148.692 -994.094)">
        <path id="Path_15-53" data-name="Path 15" d="M227.71,3.962c0-1.446-1.88-1.085-2.53,0A93.988,93.988,0,0,0,214.841,27.17a50.61,50.61,0,0,0-3.9,16.7c0,11.713,1.735,22.919,1.229,34.632-.723,25.233-21.69,47.718-43.38,57.84-16.557,9.11-28.92,16.34-39.331,21.69-6.507,3.543-11.93,6.362-16.268,8.6-3.181,1.591-5.929,2.82-8.17,3.76l-12.8,6.073-14.46,7.23q-25.305,12.942-49.815,27.474L10.52,246.385c21.69-13.159,44.465-25.016,67.312-36.15,17.063-8.387,34.343-16.268,51.695-24l22.992-9.761h0a90.81,90.81,0,0,0,21.69-14.46,164.266,164.266,0,0,0,52.2-114.524l1.085-32.174a94,94,0,0,0,0-11.062" transform="translate(646.234 2452.287)" fill="#d6dee0"/>
        <path id="Path_15-54" data-name="Path 15" d="M227.71,3.962c0-1.446-1.88-1.085-2.53,0A93.988,93.988,0,0,0,214.841,27.17a50.61,50.61,0,0,0-3.9,16.7c0,11.713,1.735,22.919,1.229,34.632-.723,25.233-21.69,47.718-43.38,57.84-16.557,9.11-28.92,16.34-39.331,21.69-6.507,3.543-11.93,6.362-16.268,8.6-3.181,1.591-5.929,2.82-8.17,3.76l-12.8,6.073-14.46,7.23q-25.305,12.942-49.815,27.474L10.52,246.385c21.69-13.159,44.465-25.016,67.312-36.15,17.063-8.387,34.343-16.268,51.695-24l22.992-9.761h0a90.81,90.81,0,0,0,21.69-14.46,164.266,164.266,0,0,0,52.2-114.524l1.085-32.174a94,94,0,0,0,0-11.062" transform="translate(825.356 2178.537)" fill="#d6dee0"/>
        <path id="Path_15-55" data-name="Path 15" d="M423.059,4.82c0-2.747-3.571-2.06-4.807,0A178.526,178.526,0,0,0,398.615,48.9,96.128,96.128,0,0,0,391.2,80.626c0,22.247,3.3,43.534,2.335,65.781-1.373,47.928-41.2,90.638-82.4,109.864-31.449,17.3-54.932,31.037-74.708,41.2-12.36,6.729-22.659,12.085-30.9,16.342-6.043,3.021-11.261,5.356-15.518,7.141L165.7,332.489l-27.466,13.733Q90.171,370.8,43.617,398.407l-33.1,66.88c41.2-24.994,84.458-47.516,127.854-68.665,32.41-15.93,65.232-30.9,98.191-45.594l43.671-18.54h0a172.487,172.487,0,0,0,41.2-27.466A312.014,312.014,0,0,0,420.587,87.492l2.06-61.112a178.555,178.555,0,0,0,0-21.011" transform="translate(584.788 2342.836)" fill="#d6dee0"/>
        <path id="Path_15-56" data-name="Path 15" d="M423.059,4.82c0-2.747-3.571-2.06-4.807,0A178.526,178.526,0,0,0,398.615,48.9,96.128,96.128,0,0,0,391.2,80.626c0,22.247,3.3,43.534,2.335,65.781-1.373,47.928-41.2,90.638-82.4,109.864-31.449,17.3-54.932,31.037-74.708,41.2-12.36,6.729-22.659,12.085-30.9,16.342-6.043,3.021-11.261,5.356-15.518,7.141L165.7,332.489l-27.466,13.733Q90.171,370.8,43.617,398.407l-33.1,66.88c41.2-24.994,84.458-47.516,127.854-68.665,32.41-15.93,65.232-30.9,98.191-45.594l43.671-18.54h0a172.487,172.487,0,0,0,41.2-27.466A312.014,312.014,0,0,0,420.587,87.492l2.06-61.112a178.555,178.555,0,0,0,0-21.011" transform="translate(763.909 2069.086)" fill="#d6dee0"/>
      </g>
      <g id="Group_38441" data-name="Group 38441" transform="translate(396.692 -994.094)">
        <path id="Path_15-57" data-name="Path 15" d="M227.71,3.962c0-1.446-1.88-1.085-2.53,0A93.988,93.988,0,0,0,214.841,27.17a50.61,50.61,0,0,0-3.9,16.7c0,11.713,1.735,22.919,1.229,34.632-.723,25.233-21.69,47.718-43.38,57.84-16.557,9.11-28.92,16.34-39.331,21.69-6.507,3.543-11.93,6.362-16.268,8.6-3.181,1.591-5.929,2.82-8.17,3.76l-12.8,6.073-14.46,7.23q-25.305,12.942-49.815,27.474L10.52,246.385c21.69-13.159,44.465-25.016,67.312-36.15,17.063-8.387,34.343-16.268,51.695-24l22.992-9.761h0a90.81,90.81,0,0,0,21.69-14.46,164.266,164.266,0,0,0,52.2-114.524l1.085-32.174a94,94,0,0,0,0-11.062" transform="translate(646.234 2452.287)" fill="#d6dee0"/>
        <path id="Path_15-58" data-name="Path 15" d="M227.71,3.962c0-1.446-1.88-1.085-2.53,0A93.988,93.988,0,0,0,214.841,27.17a50.61,50.61,0,0,0-3.9,16.7c0,11.713,1.735,22.919,1.229,34.632-.723,25.233-21.69,47.718-43.38,57.84-16.557,9.11-28.92,16.34-39.331,21.69-6.507,3.543-11.93,6.362-16.268,8.6-3.181,1.591-5.929,2.82-8.17,3.76l-12.8,6.073-14.46,7.23q-25.305,12.942-49.815,27.474L10.52,246.385c21.69-13.159,44.465-25.016,67.312-36.15,17.063-8.387,34.343-16.268,51.695-24l22.992-9.761h0a90.81,90.81,0,0,0,21.69-14.46,164.266,164.266,0,0,0,52.2-114.524l1.085-32.174a94,94,0,0,0,0-11.062" transform="translate(825.356 2178.537)" fill="#d6dee0"/>
        <path id="Path_15-59" data-name="Path 15" d="M423.059,4.82c0-2.747-3.571-2.06-4.807,0A178.526,178.526,0,0,0,398.615,48.9,96.128,96.128,0,0,0,391.2,80.626c0,22.247,3.3,43.534,2.335,65.781-1.373,47.928-41.2,90.638-82.4,109.864-31.449,17.3-54.932,31.037-74.708,41.2-12.36,6.729-22.659,12.085-30.9,16.342-6.043,3.021-11.261,5.356-15.518,7.141L165.7,332.489l-27.466,13.733Q90.171,370.8,43.617,398.407l-33.1,66.88c41.2-24.994,84.458-47.516,127.854-68.665,32.41-15.93,65.232-30.9,98.191-45.594l43.671-18.54h0a172.487,172.487,0,0,0,41.2-27.466A312.014,312.014,0,0,0,420.587,87.492l2.06-61.112a178.555,178.555,0,0,0,0-21.011" transform="translate(584.788 2342.836)" fill="#d6dee0"/>
        <path id="Path_15-60" data-name="Path 15" d="M423.059,4.82c0-2.747-3.571-2.06-4.807,0A178.526,178.526,0,0,0,398.615,48.9,96.128,96.128,0,0,0,391.2,80.626c0,22.247,3.3,43.534,2.335,65.781-1.373,47.928-41.2,90.638-82.4,109.864-31.449,17.3-54.932,31.037-74.708,41.2-12.36,6.729-22.659,12.085-30.9,16.342-6.043,3.021-11.261,5.356-15.518,7.141L165.7,332.489l-27.466,13.733Q90.171,370.8,43.617,398.407l-33.1,66.88c41.2-24.994,84.458-47.516,127.854-68.665,32.41-15.93,65.232-30.9,98.191-45.594l43.671-18.54h0a172.487,172.487,0,0,0,41.2-27.466A312.014,312.014,0,0,0,420.587,87.492l2.06-61.112a178.555,178.555,0,0,0,0-21.011" transform="translate(763.909 2069.086)" fill="#d6dee0"/>
      </g>
    </g>
  </g>
</svg>
