<svg id="Asnan-logo" xmlns="http://www.w3.org/2000/svg" xmlns:xlink="http://www.w3.org/1999/xlink" width="99.929" height="70.427" viewBox="0 0 99.929 70.427">
  <defs>
    <clipPath id="clip-path">
      <path id="Path_1" data-name="Path 1" d="M19.829,32.893,19.75,48.845h8.133V29.18c-2.692,1.2-5.373,2.423-8.032,3.713" transform="translate(-19.75 -29.18)" fill="none"/>
    </clipPath>
    <clipPath id="clip-path-3">
      <path id="Path_3" data-name="Path 3" d="M22.313,3.71,7.516,35.648,4.768,41.6l-.583,1.234-2.1,4.554L0,51.947H6.192L11.8,40.729l2.782-5.474.572-1.122L18.274,27.9l4.061-8.155V30.072l2.244-1.122L26.564,28c.359-.135.774-.337,1.279-.583.673-.337,1.5-.774,2.513-1.335V3.71Z" transform="translate(0 -3.71)" fill="none"/>
    </clipPath>
    <clipPath id="clip-path-5">
      <path id="Path_5" data-name="Path 5" d="M29.741,36.174a4.162,4.162,0,0,0-1.122,2.883,3.8,3.8,0,0,0,.247,1.458,3.152,3.152,0,0,0,1.829,1.649,13.461,13.461,0,0,0,1.6.4,6.249,6.249,0,0,1,1.413.437,1.032,1.032,0,0,1,.314.269.83.83,0,0,1,.168.5c0,.651-.46.976-1.391.976a5.306,5.306,0,0,1-2.042-.449,15.46,15.46,0,0,1-2.03.258L27.61,46.674a9.917,9.917,0,0,0,5.048,1.458,9.254,9.254,0,0,0,2.075-.224,5.474,5.474,0,0,0,2.49-1.223,4.083,4.083,0,0,0,1.425-2.939v-.359a3.489,3.489,0,0,0-.909-2.479l-.135-.146a5.205,5.205,0,0,0-2.569-1.122,7.92,7.92,0,0,1-1.38-.426q-.538-.258-.538-.673c0-.617.449-.92,1.335-.92a5.16,5.16,0,0,1,2.367.651l1.526-2.905a10.938,10.938,0,0,0-4.106-.774,5.856,5.856,0,0,0-4.487,1.571" transform="translate(-27.61 -34.573)" fill="none"/>
    </clipPath>
    <clipPath id="clip-path-6">
      <path id="Path_6" data-name="Path 6" d="M38.15,34.32V47.86h4.487V40.692a2.636,2.636,0,0,1,.617-1.929,2.333,2.333,0,0,1,1.694-.673,1.862,1.862,0,0,1,1.66.8,4.274,4.274,0,0,1,.381,2.244V47.86h4.487V39.469a5.923,5.923,0,0,0-.4-2.244,4.117,4.117,0,0,0-1.054-1.492,4.263,4.263,0,0,0-1.941-.976,5.934,5.934,0,0,0-1.335-.146,4.655,4.655,0,0,0-4.072,1.851V34.331Z" transform="translate(-38.15 -34.32)" fill="none"/>
    </clipPath>
    <clipPath id="clip-path-7">
      <path id="Path_7" data-name="Path 7" d="M56.054,43.252a2.816,2.816,0,0,1,0-3.691,2.872,2.872,0,0,1,4.05-.3l.157.146a2.861,2.861,0,0,1,0,4.038,2.8,2.8,0,0,1-2.03.819,2.748,2.748,0,0,1-2.176-.987m4.891-8.683v1.75a5.183,5.183,0,0,0-1.391-1.122,5.609,5.609,0,0,0-2.535-.494,7.562,7.562,0,0,0-1.122.09,5.968,5.968,0,0,0-2.973,1.447A6.36,6.36,0,0,0,51.8,37.53a6.8,6.8,0,0,0-1.122,3.9,6.484,6.484,0,0,0,2.244,5.127,6.159,6.159,0,0,0,4.139,1.627,5.228,5.228,0,0,0,2.591-.617,4.588,4.588,0,0,0,1.29-1.122v1.739h4.487V34.58Z" transform="translate(-50.677 -34.58)" fill="none"/>
    </clipPath>
    <clipPath id="clip-path-8">
      <path id="Path_8" data-name="Path 8" d="M64.5,34.58V48.187h4.487v-7.37a2.636,2.636,0,0,1,.617-1.929A2.333,2.333,0,0,1,71.3,38.2a1.918,1.918,0,0,1,1.66.808,4.274,4.274,0,0,1,.381,2.244v6.933h4.487V39.538a4.689,4.689,0,0,0-1.447-3.7,4.947,4.947,0,0,0-3.365-1.122,5.34,5.34,0,0,0-2.659.595,5.856,5.856,0,0,0-1.425,1.256V34.58Z" transform="translate(-64.5 -34.58)" fill="none"/>
    </clipPath>
  </defs>
  <g id="Group_34212" data-name="Group 34212">
    <g id="AsnanTower_Main_logo_mark">
      <g id="Group_469" data-name="Group 469">
        <path id="Path_501" data-name="Path 501" d="M754.518,520.771v.378q0,10.851,0,21.7a.46.46,0,0,1-.286.5c-2.161,1.057-4.316,2.128-6.472,3.2-.4.2-.8.4-1.233.617V537.04l-.051-.013-7.633,15.227c.159-.083.251-.125.338-.176,3.688-2.172,7.456-4.194,11.34-5.991,3.383-1.565,6.55-3.519,9.812-5.3a16.529,16.529,0,0,0,3.75-2.576,9.8,9.8,0,0,0,3.066-5.352,15.317,15.317,0,0,0,.139-2.756c-.015-1.222-.13-2.443-.155-3.666a4.466,4.466,0,0,1,.187-1.423c.374-1.173.8-2.33,1.236-3.481a7.236,7.236,0,0,1,.63-1.19c.082-.133.266-.2.4-.3a1.512,1.512,0,0,1,.15.46c-.007.5-.059,1.005-.079,1.509-.073,1.866-.077,3.737-.221,5.6a25.231,25.231,0,0,1-7.187,16.139,16.338,16.338,0,0,1-5.24,3.6c-5.723,2.507-11.409,5.095-16.892,8.1-1.278.7-2.537,1.438-3.8,2.171a.974.974,0,0,0-.354.388q-2.667,5.293-5.312,10.6a.507.507,0,0,1-.537.327c-1.814-.013-3.628-.007-5.441-.007h-.394l2.02-4.379c-.053.011-.083.008-.1.022a37.4,37.4,0,0,0-7.724,7.878,14.114,14.114,0,0,0-2.492,5.493c-.129.66-.162,1.339-.249,2.008a1.471,1.471,0,0,0,.463,1.285c.4.385.856.707,1.291,1.051a2.981,2.981,0,0,0,.3.188,1.58,1.58,0,0,1,.829,2.06,5.13,5.13,0,0,1-1.189,2.112,1.646,1.646,0,0,1-2.236.025,4.584,4.584,0,0,1-1.247-3.091,18.717,18.717,0,0,1,1.062-6.955,32.043,32.043,0,0,1,7.08-11.905,42.5,42.5,0,0,1,6.676-5.888,1.277,1.277,0,0,0,.4-.479q8.624-18.62,17.227-37.249a.487.487,0,0,1,.528-.331c2.4.012,4.808.007,7.212.007Z" transform="translate(-713.926 -516.66)" fill="#ffc936"/>
        <g id="Group_2179" data-name="Group 2179" transform="translate(10.263)">
          <g id="Group_2178" data-name="Group 2178" transform="translate(0 0.399)">
            <g id="Group_1" data-name="Group 1" transform="translate(22.155 32.324)" clip-path="url(#clip-path)">
              <g id="Group_1-2" data-name="Group 1" transform="translate(0.011 0)">
                <rect id="Rectangle_2" data-name="Rectangle 2" width="8.099" height="19.62" fill="#2c8eff"/>
              </g>
            </g>
            <g id="Group_2" data-name="Group 2" transform="translate(22.155 32.324)" clip-path="url(#clip-path)">
              <g id="Group_2-2" data-name="Group 2" transform="translate(0.011 0)">
                <rect id="Rectangle_3" data-name="Rectangle 3" width="8.099" height="19.62" fill="#2c8eff"/>
              </g>
            </g>
            <g id="Group_3" data-name="Group 3" transform="translate(0 3.751)" clip-path="url(#clip-path-3)">
              <g id="Group_3-2" data-name="Group 3" transform="translate(0 -0.045)">
                <rect id="Rectangle_4" data-name="Rectangle 4" width="30.266" height="48.226" fill="#2c8eff"/>
              </g>
            </g>
            <g id="Group_4" data-name="Group 4" transform="translate(0 3.751)" clip-path="url(#clip-path-3)">
              <g id="Group_4-2" data-name="Group 4" transform="translate(0 -0.045)">
                <rect id="Rectangle_5" data-name="Rectangle 5" width="30.266" height="48.226" fill="#2c8eff"/>
              </g>
            </g>
            <g id="Group_5" data-name="Group 5" transform="translate(30.973 38.373)" clip-path="url(#clip-path-5)">
              <g id="Group_5-2" data-name="Group 5" transform="translate(0.022 0.042)">
                <rect id="Rectangle_6" data-name="Rectangle 6" width="11.061" height="13.529" fill="#2c8eff"/>
                <rect id="Rectangle_7" data-name="Rectangle 7" width="11.061" height="13.529" fill="#2c8eff"/>
              </g>
            </g>
            <g id="Group_6" data-name="Group 6" transform="translate(42.797 38.09)" clip-path="url(#clip-path-6)">
              <g id="Group_6-2" data-name="Group 6" transform="translate(-0.011 0)">
                <rect id="Rectangle_8" data-name="Rectangle 8" width="13.349" height="13.551" fill="#2c8eff"/>
                <rect id="Rectangle_9" data-name="Rectangle 9" width="13.349" height="13.551" fill="#2c8eff"/>
              </g>
            </g>
            <g id="Group_7" data-name="Group 7" transform="translate(56.849 38.381)" clip-path="url(#clip-path-7)">
              <g id="Group_7-2" data-name="Group 7" transform="translate(0.015 0.011)">
                <rect id="Rectangle_10" data-name="Rectangle 10" width="14.763" height="13.551" fill="#2c8eff"/>
                <rect id="Rectangle_11" data-name="Rectangle 11" width="14.763" height="13.551" fill="#2c8eff"/>
              </g>
            </g>
            <g id="Group_8" data-name="Group 8" transform="translate(72.356 38.381)" clip-path="url(#clip-path-8)">
              <g id="Group_8-2" data-name="Group 8" transform="translate(0 0.011)">
                <rect id="Rectangle_12" data-name="Rectangle 12" width="13.349" height="13.551" fill="#2c8eff"/>
                <rect id="Rectangle_13" data-name="Rectangle 13" width="13.349" height="13.551" fill="#2c8eff"/>
              </g>
            </g>
            <path id="Path_11" data-name="Path 11" d="M77.872,3.841c-.1.987-.381,1.885-.494,2.872l-.561,4.633L75.46,24.751a23.8,23.8,0,0,1-3.59,10.1c-.168.2-.325.494-.595.538-.123-.236,0-.482,0-.718a35.335,35.335,0,0,0,.819-4.487l.9-9.659.684-7.269A41.8,41.8,0,0,1,77.311,3.9c.1-.123.2-.3.381-.337s.179.135.213.247" transform="translate(8.674 0.023)" fill="#ffc936"/>
            <path id="Path_12" data-name="Path 12" d="M55.4,8.1c.931,1.84-.471,3.478-1.4,4.936-.438.527-.931,1.2-1.627,1.324a11.33,11.33,0,0,1-2.087-1.122l-1.918-1.324c-.471-.651,0-1.413.247-2.064a29.593,29.593,0,0,1,2.244-4.038,1.615,1.615,0,0,1,.595-.572c1.739,0,3.152,1.5,3.971,2.894" transform="translate(5.866 0.228)" fill="#ffc936"/>
            <path id="Path_13" data-name="Path 13" d="M35.61,12.861c.864,1.705-.449,3.231-1.312,4.577-.4.494-.864,1.122-1.5,1.234a8.6,8.6,0,0,1-1.941-1.066L29.07,16.384c-.437-.606,0-1.313.224-1.918a26.384,26.384,0,0,1,2.053-3.747,1.582,1.582,0,0,1,.55-.538c1.627,0,2.928,1.4,3.7,2.692" transform="translate(3.518 0.829)" fill="#ffc936"/>
            <path id="Path_14" data-name="Path 14" d="M71.482,16.143a1.122,1.122,0,0,0-.359.359A18.522,18.522,0,0,1,70,19.116a3.366,3.366,0,0,1-1.413,1.413A.381.381,0,0,1,68.4,20.2a.393.393,0,0,0-.415-.247c-.561.415-.718,1.054-1.122,1.571A4,4,0,0,1,65,23.188c-.213,0-.247-.314-.415-.46s-.314,0-.426.056a25.254,25.254,0,0,1-2.244,2.4h0a.639.639,0,0,1-.426.123,12.138,12.138,0,0,0-2.58-.449c-1.929.359-3.152,2.345-4.88,3.13-1.885,1.122-4.4.471-6.215-.337h0a7.056,7.056,0,0,1-3.04-4.8c-.763-4.756.247-9.434.9-13.933l1.122-7.056L46.825.584c0-.09,0-.247-.2-.213a.393.393,0,0,0-.2.179L43.392,8.6l-.976,6-.651,5.216C41.4,24.6,40.576,30.39,43.19,34.406a5.205,5.205,0,0,0,4.577,2.378h0a9.95,9.95,0,0,0,2.513-.314c1.683-.415,2.917-2.244,3.792-3.567a4.274,4.274,0,0,1,3.971-2.3,6.08,6.08,0,0,0,3.881-1.941h0a10.1,10.1,0,0,1,3.455-2.109,10.691,10.691,0,0,0,2.928-2.614,5.138,5.138,0,0,0,1.817-1.873,13.338,13.338,0,0,0,1.627-5.609.28.28,0,0,0-.3-.236" transform="translate(5.036 -0.366)" fill="#ffc936"/>
            <path id="Path_15" data-name="Path 15" d="M44.219,3.156c0-.224-.292-.168-.393,0a14.583,14.583,0,0,0-1.6,3.6,7.853,7.853,0,0,0-.606,2.591c0,1.817.269,3.556.191,5.373-.112,3.915-3.365,7.4-6.731,8.974-2.569,1.413-4.487,2.535-6.1,3.365-1.01.55-1.851.987-2.524,1.335-.494.247-.92.438-1.268.583l-1.986.942-2.244,1.122q-3.926,2.008-7.729,4.263l-2.7,5.463c3.365-2.042,6.9-3.881,10.444-5.609,2.647-1.3,5.329-2.524,8.021-3.724l3.567-1.514h0a14.09,14.09,0,0,0,3.365-2.244,25.487,25.487,0,0,0,8.1-17.769l.168-4.992a14.587,14.587,0,0,0,0-1.716" transform="translate(1.281 -0.044)" fill="#ffc936"/>
            <path id="Path_16" data-name="Path 16" d="M40.187,49.831h-8.5A1.537,1.537,0,0,0,30,51.143a2.042,2.042,0,0,0,0,.37v3.96a1.537,1.537,0,0,0,1.335,1.716,2.164,2.164,0,0,0,.381,0h8.5a1.537,1.537,0,0,0,1.716-1.335,2.167,2.167,0,0,0,0-.381V51.547a1.537,1.537,0,0,0-1.346-1.705,2.043,2.043,0,0,0-.37,0m.875,5.609a.774.774,0,0,1-.662.875.684.684,0,0,1-.213,0H31.684a.774.774,0,0,1-.875-.662.684.684,0,0,1,0-.213v-3.9a.774.774,0,0,1,.673-.864.605.605,0,0,1,.2,0h8.5a.774.774,0,0,1,.875.662.606.606,0,0,1,0,.2Z" transform="translate(3.653 5.658)" fill="#ffc936"/>
            <path id="Path_17" data-name="Path 17" d="M52.995,55.5a.774.774,0,0,1-.583.931.853.853,0,0,1-.337,0h-2.49c-.864,0-1.122-.3-1.122-.3a1.952,1.952,0,0,1-.269-1.223v-5h-.841v5a1.952,1.952,0,0,1-.269,1.223s-.2.3-1.054.3H43.605a.774.774,0,0,1-.864-.673.606.606,0,0,1,0-.2V49.83h-.83V55.5a1.537,1.537,0,0,0,1.335,1.716,2.042,2.042,0,0,0,.37,0h2.546a1.537,1.537,0,0,0,1.716-1.357,1.919,1.919,0,0,0,0-.359,1.537,1.537,0,0,0,1.335,1.716,2.043,2.043,0,0,0,.37,0h2.524a1.537,1.537,0,0,0,1.716-1.335,2.166,2.166,0,0,0,0-.381V49.83h-.819Z" transform="translate(5.103 5.659)" fill="#ffc936"/>
            <path id="Path_18" data-name="Path 18" d="M53.824,51.556v.269a1.537,1.537,0,0,0,1.324,1.716h.381A1.537,1.537,0,0,0,53.8,54.865a2.008,2.008,0,0,0,0,.449v.247a1.537,1.537,0,0,0,1.346,1.716h10.6v-.853H55.54a.774.774,0,0,1-.875-.662.606.606,0,0,1,0-.2v-.247c0-.864.314-1.122.314-1.122a1.9,1.9,0,0,1,1.29-.269H65.8v-.853H56.269a1.84,1.84,0,0,1-1.212-.269s-.314-.2-.314-1.054v-.269a.774.774,0,0,1,.673-.864.606.606,0,0,1,.2,0H65.8v-.853H55.54a1.537,1.537,0,0,0-1.716,1.391,2.041,2.041,0,0,0,0,.37" transform="translate(6.551 5.649)" fill="#ffc936"/>
            <path id="Path_19" data-name="Path 19" d="M18,50.681h5.609V57.21h.841V50.681h5.609V49.84H18Z" transform="translate(2.192 5.66)" fill="#ffc936"/>
            <path id="Path_20" data-name="Path 20" d="M81.332,61.752a7.539,7.539,0,0,0-1.84-2.917A20.932,20.932,0,0,0,75,55.627c-.909-.5-1.772-.942-2.6-1.324H76a1.537,1.537,0,0,0,1.716-1.335,2.166,2.166,0,0,0,0-.381v-1.01a1.537,1.537,0,0,0-1.335-1.716,2.164,2.164,0,0,0-.381,0H65.75v7.381h.841V50.68H75.97a.774.774,0,0,1,.875.662.606.606,0,0,1,0,.2v1.01a.774.774,0,0,1-.718.83H70.3a1.66,1.66,0,0,0,.191.606.684.684,0,0,0,.079.157q.135.3.269.337A35.561,35.561,0,0,1,78.494,58.7c1.716,1.335,2.625,2.591,2.726,3.758a.561.561,0,0,1-.135.46,2.76,2.76,0,0,1-.494.381.247.247,0,0,0-.1.236,1.043,1.043,0,0,0,.191.538.527.527,0,0,0,.4.292c.2,0,.359-.123.46-.393a1.683,1.683,0,0,0,.112-.662,5.385,5.385,0,0,0-.314-1.683" transform="translate(8.008 5.661)" fill="#ffc936"/>
          </g>
          <path id="Path_1100" data-name="Path 1100" d="M73.961,2.242s-.942-.684-.325-1.021,1.481,0,1.817-.09S76.44.01,74.926.01s-2.861.617-2.67,1.974S74.017,3.218,73.737,4s-3.029.819-3.455,1.032-.931.83,1.122.74,3.6-.853,3.691-1.829S73.961,2.242,73.961,2.242Z" transform="translate(8.513 -0.01)" fill="#ffc936"/>
        </g>
      </g>
    </g>
  </g>
</svg>
