<svg id="Asnan-Appointment-icon" xmlns="http://www.w3.org/2000/svg" xmlns:xlink="http://www.w3.org/1999/xlink" width="34.044" height="41.171" viewBox="0 0 34.044 41.171">
  <defs>
    <clipPath id="clip-path">
      <path id="Path_12" data-name="Path 12" d="M80.821,18.153c4.2,8.305-2.127,15.7-6.33,22.282-1.975,2.38-4.2,5.419-7.343,5.976a51.147,51.147,0,0,1-9.419-5.064l-8.66-5.976c-2.127-2.937,0-6.381,1.114-9.318A133.593,133.593,0,0,1,60.311,7.823,7.293,7.293,0,0,1,63,5.24c7.849,0,14.23,6.786,17.927,13.065" transform="translate(-48.161 -5.24)" fill="#ffc936"/>
    </clipPath>
    <clipPath id="clip-path-2">
      <path id="Path_1" data-name="Path 1" d="M19.762,29.738l-.012,2.4h1.223V29.18c-.4.18-.808.364-1.208.558" transform="translate(-19.75 -29.18)" fill="none"/>
    </clipPath>
    <clipPath id="clip-path-4">
      <path id="Path_3" data-name="Path 3" d="M3.355,3.71,1.13,8.512l-.413.9-.088.186-.315.685L0,10.963H.931l.843-1.687.418-.823.086-.169.469-.938L3.358,6.12V7.674L3.7,7.5l.3-.143c.054-.02.116-.051.192-.088.1-.051.226-.116.378-.2V3.71Z" transform="translate(0 -3.71)" fill="none"/>
    </clipPath>
    <clipPath id="clip-path-6">
      <path id="Path_5" data-name="Path 5" d="M27.93,34.813a.626.626,0,0,0-.169.433.572.572,0,0,0,.037.219.474.474,0,0,0,.275.248,2.022,2.022,0,0,0,.241.061.94.94,0,0,1,.213.066.155.155,0,0,1,.047.04.125.125,0,0,1,.025.076c0,.1-.069.147-.209.147a.8.8,0,0,1-.307-.067,2.325,2.325,0,0,1-.305.039l-.169.317a1.491,1.491,0,0,0,.759.219,1.391,1.391,0,0,0,.312-.034.823.823,0,0,0,.374-.184.614.614,0,0,0,.214-.442V35.9a.525.525,0,0,0-.137-.373l-.02-.022a.783.783,0,0,0-.386-.169,1.192,1.192,0,0,1-.207-.064q-.081-.039-.081-.1c0-.093.067-.138.2-.138a.776.776,0,0,1,.356.1l.229-.437a1.645,1.645,0,0,0-.617-.116.88.88,0,0,0-.675.236" transform="translate(-27.61 -34.573)" fill="none"/>
    </clipPath>
    <clipPath id="clip-path-7">
      <path id="Path_6" data-name="Path 6" d="M38.15,34.32v2.036h.675V35.278a.4.4,0,0,1,.093-.29.351.351,0,0,1,.255-.1.28.28,0,0,1,.25.12.643.643,0,0,1,.057.337v1.012h.675V35.094a.891.891,0,0,0-.061-.337.619.619,0,0,0-.159-.224.641.641,0,0,0-.292-.147.893.893,0,0,0-.2-.022.7.7,0,0,0-.612.278v-.32Z" transform="translate(-38.15 -34.32)" fill="none"/>
    </clipPath>
    <clipPath id="clip-path-8">
      <path id="Path_7" data-name="Path 7" d="M51.485,35.884a.423.423,0,0,1,0-.555.432.432,0,0,1,.609-.046l.024.022a.43.43,0,0,1,0,.607.422.422,0,0,1-.305.123.413.413,0,0,1-.327-.148m.735-1.305v.263a.779.779,0,0,0-.209-.169.843.843,0,0,0-.381-.074,1.138,1.138,0,0,0-.169.013.9.9,0,0,0-.447.218.957.957,0,0,0-.169.191,1.022,1.022,0,0,0-.169.587.975.975,0,0,0,.337.771.926.926,0,0,0,.622.245.786.786,0,0,0,.39-.093.69.69,0,0,0,.194-.169v.261H52.9V34.58Z" transform="translate(-50.677 -34.58)" fill="none"/>
    </clipPath>
    <clipPath id="clip-path-9">
      <path id="Path_8" data-name="Path 8" d="M64.5,34.58v2.046h.675V35.518a.4.4,0,0,1,.093-.29.351.351,0,0,1,.255-.1.288.288,0,0,1,.25.121.643.643,0,0,1,.057.337v1.042H66.5v-1.3a.705.705,0,0,0-.218-.557.744.744,0,0,0-.506-.169.8.8,0,0,0-.4.089.88.88,0,0,0-.214.189v-.3Z" transform="translate(-64.5 -34.58)" fill="none"/>
    </clipPath>
  </defs>
  <path id="Path_12-2" data-name="Path 12" d="M80.821,18.153c4.2,8.305-2.127,15.7-6.33,22.282-1.975,2.38-4.2,5.419-7.343,5.976a51.147,51.147,0,0,1-9.419-5.064l-8.66-5.976c-2.127-2.937,0-6.381,1.114-9.318A133.593,133.593,0,0,1,60.311,7.823,7.293,7.293,0,0,1,63,5.24c7.849,0,14.23,6.786,17.927,13.065" transform="translate(-48.16 -5.24)" fill="#ffc936"/>
  <g id="Mask_Group_58" data-name="Mask Group 58" transform="translate(0 0)" clip-path="url(#clip-path)">
    <g id="Group_36114" data-name="Group 36114" transform="translate(277.641 -138.635)">
      <path id="Path_12394" data-name="Path 12394" d="M-267.6,159.95a27.232,27.232,0,0,1,.024-3.16,2.615,2.615,0,0,1,2.729-2.2c.725-.011,1.451,0,2.177,0,.122,0,.244-.011.4-.018,0-.558-.006-1.093,0-1.627a1.755,1.755,0,0,1,1.18-1.847,1.744,1.744,0,0,1,2.386,1.608c.024.61,0,1.221,0,1.858h7.24a15.168,15.168,0,0,1,.013-1.56,3.221,3.221,0,0,1,.324-1.24,1.724,1.724,0,0,1,2.007-.7,1.677,1.677,0,0,1,1.22,1.581c.025.624,0,1.249,0,1.944.17,0,.313,0,.455,0,.887.02,1.779-.019,2.658.076a2.55,2.55,0,0,1,2.289,2.515c.029.912.006,1.825.006,2.766Z" transform="translate(-0.215 1)" fill="#fff"/>
      <path id="Path_12395" data-name="Path 12395" d="M-242.7,223.157H-267.86c-.009.115-.022.212-.022.31,0,4.931-.009,9.861,0,14.792a2.735,2.735,0,0,0,2.917,2.881q9.684,0,19.368,0a2.712,2.712,0,0,0,2.911-2.911q0-7.339,0-14.679C-242.683,223.418-242.694,223.286-242.7,223.157Z" transform="translate(0 -61.336)" fill="#fff"/>
    </g>
    <g id="Group_34961" data-name="Group 34961" transform="translate(1.659 -2.227)">
      <g id="Group_34960" data-name="Group 34960">
        <g id="Group_34945" data-name="Group 34945" transform="translate(13.186 29.488)">
          <g id="AsnanTower_Main_logo_mark" transform="translate(0 0)">
            <g id="Group_469" data-name="Group 469">
              <path id="Path_501" data-name="Path 501" d="M720.029,520.146v.057q0,1.632,0,3.263a.069.069,0,0,1-.043.075c-.325.159-.649.32-.973.48l-.185.093v-1.522l-.008,0-1.148,2.289.051-.027c.555-.327,1.121-.63,1.705-.9.509-.235.985-.529,1.475-.8a2.49,2.49,0,0,0,.564-.387,1.473,1.473,0,0,0,.461-.8,2.3,2.3,0,0,0,.021-.414c0-.184-.02-.367-.023-.551a.675.675,0,0,1,.028-.214c.056-.176.12-.35.186-.523a1.105,1.105,0,0,1,.095-.179c.012-.02.04-.031.061-.045a.224.224,0,0,1,.022.069c0,.076-.009.151-.012.227-.011.281-.012.562-.033.842a3.793,3.793,0,0,1-1.081,2.427,2.455,2.455,0,0,1-.788.541c-.86.377-1.715.766-2.54,1.219-.192.106-.381.216-.571.326a.146.146,0,0,0-.053.058q-.4.8-.8,1.593a.076.076,0,0,1-.081.049c-.273,0-.545,0-.818,0h-.059l.3-.658c-.008,0-.013,0-.015,0a5.617,5.617,0,0,0-1.162,1.184,2.12,2.12,0,0,0-.375.826c-.02.1-.024.2-.037.3a.221.221,0,0,0,.07.193,2.466,2.466,0,0,0,.194.158.439.439,0,0,0,.045.028.238.238,0,0,1,.125.31.77.77,0,0,1-.179.317.247.247,0,0,1-.336,0,.689.689,0,0,1-.187-.465,2.814,2.814,0,0,1,.16-1.046,4.816,4.816,0,0,1,1.065-1.79,6.386,6.386,0,0,1,1-.885.192.192,0,0,0,.06-.072q1.3-2.8,2.59-5.6a.073.073,0,0,1,.08-.05c.361,0,.723,0,1.084,0Z" transform="translate(-713.926 -519.528)" fill="#d6dee0"/>
              <g id="Group_2179" data-name="Group 2179" transform="translate(1.543)">
                <g id="Group_2178" data-name="Group 2178" transform="translate(0 0.06)">
                  <g id="Group_1" data-name="Group 1" transform="translate(3.331 4.86)" clip-path="url(#clip-path-2)">
                    <g id="Group_1-2" data-name="Group 1" transform="translate(0.002 0)">
                      <rect id="Rectangle_2" data-name="Rectangle 2" width="1.218" height="2.95" fill="#d6dee0"/>
                    </g>
                  </g>
                  <g id="Group_2" data-name="Group 2" transform="translate(3.331 4.86)" clip-path="url(#clip-path-2)">
                    <g id="Group_2-2" data-name="Group 2" transform="translate(0.002 0)">
                      <rect id="Rectangle_3" data-name="Rectangle 3" width="1.218" height="2.95" fill="#d6dee0"/>
                    </g>
                  </g>
                  <g id="Group_3" data-name="Group 3" transform="translate(0 0.564)" clip-path="url(#clip-path-4)">
                    <g id="Group_3-2" data-name="Group 3" transform="translate(0 -0.007)">
                      <rect id="Rectangle_4" data-name="Rectangle 4" width="4.551" height="7.251" fill="#d6dee0"/>
                    </g>
                  </g>
                  <g id="Group_4" data-name="Group 4" transform="translate(0 0.564)" clip-path="url(#clip-path-4)">
                    <g id="Group_4-2" data-name="Group 4" transform="translate(0 -0.007)">
                      <rect id="Rectangle_5" data-name="Rectangle 5" width="4.551" height="7.251" fill="#d6dee0"/>
                    </g>
                  </g>
                  <g id="Group_5" data-name="Group 5" transform="translate(4.657 5.77)" clip-path="url(#clip-path-6)">
                    <g id="Group_5-2" data-name="Group 5" transform="translate(0.003 0.006)">
                      <rect id="Rectangle_6" data-name="Rectangle 6" width="1.663" height="2.034" fill="#d6dee0"/>
                      <rect id="Rectangle_7" data-name="Rectangle 7" width="1.663" height="2.034" fill="#d6dee0"/>
                    </g>
                  </g>
                  <g id="Group_6" data-name="Group 6" transform="translate(6.435 5.727)" clip-path="url(#clip-path-7)">
                    <g id="Group_6-2" data-name="Group 6" transform="translate(-0.002 0)">
                      <rect id="Rectangle_8" data-name="Rectangle 8" width="2.007" height="2.037" fill="#d6dee0"/>
                      <rect id="Rectangle_9" data-name="Rectangle 9" width="2.007" height="2.037" fill="#d6dee0"/>
                    </g>
                  </g>
                  <g id="Group_7" data-name="Group 7" transform="translate(8.547 5.771)" clip-path="url(#clip-path-8)">
                    <g id="Group_7-2" data-name="Group 7" transform="translate(0.002 0.002)">
                      <rect id="Rectangle_10" data-name="Rectangle 10" width="2.22" height="2.037" fill="#d6dee0"/>
                      <rect id="Rectangle_11" data-name="Rectangle 11" width="2.22" height="2.037" fill="#d6dee0"/>
                    </g>
                  </g>
                  <g id="Group_8" data-name="Group 8" transform="translate(10.879 5.771)" clip-path="url(#clip-path-9)">
                    <g id="Group_8-2" data-name="Group 8" transform="translate(0 0.002)">
                      <rect id="Rectangle_12" data-name="Rectangle 12" width="2.007" height="2.037" fill="#d6dee0"/>
                      <rect id="Rectangle_13" data-name="Rectangle 13" width="2.007" height="2.037" fill="#d6dee0"/>
                    </g>
                  </g>
                  <path id="Path_11" data-name="Path 11" d="M72.221,3.6c-.015.148-.057.283-.074.432l-.084.7-.2,2.016a3.579,3.579,0,0,1-.54,1.518c-.025.03-.049.074-.089.081-.019-.035,0-.073,0-.108a5.317,5.317,0,0,0,.123-.675l.135-1.452.1-1.093a6.284,6.284,0,0,1,.546-1.407c.015-.019.03-.046.057-.051s.027.02.032.037" transform="translate(-59.209 -3.018)" fill="#d6dee0"/>
                  <path id="Path_12-3" data-name="Path 12" d="M49.248,5.67c.14.277-.071.523-.211.742-.066.079-.14.18-.245.2a1.7,1.7,0,0,1-.314-.169l-.288-.2c-.071-.1,0-.213.037-.31a4.45,4.45,0,0,1,.337-.607.243.243,0,0,1,.089-.086.773.773,0,0,1,.6.435" transform="translate(-40.038 -4.418)" fill="#d6dee0"/>
                  <path id="Path_13" data-name="Path 13" d="M29.895,10.583c.13.256-.067.486-.2.688-.061.074-.13.169-.226.186a1.294,1.294,0,0,1-.292-.16l-.268-.184c-.066-.091,0-.2.034-.288a3.967,3.967,0,0,1,.309-.563.238.238,0,0,1,.083-.081.723.723,0,0,1,.557.4" transform="translate(-24.012 -8.525)" fill="#d6dee0"/>
                  <path id="Path_14" data-name="Path 14" d="M45.878,2.738a.169.169,0,0,0-.054.054,2.785,2.785,0,0,1-.169.393.506.506,0,0,1-.213.213.057.057,0,0,1-.029-.049.059.059,0,0,0-.062-.037c-.084.062-.108.159-.169.236a.6.6,0,0,1-.28.25c-.032,0-.037-.047-.062-.069s-.047,0-.064.008a3.8,3.8,0,0,1-.337.361h0a.1.1,0,0,1-.064.019,1.825,1.825,0,0,0-.388-.067c-.29.054-.474.353-.734.471a1.06,1.06,0,0,1-.934-.051h0a1.061,1.061,0,0,1-.457-.722A6.885,6.885,0,0,1,42,1.652L42.165.591,42.17.4c0-.013,0-.037-.03-.032a.059.059,0,0,0-.03.027L41.654,1.6l-.147.9-.1.784a3.619,3.619,0,0,0,.214,2.193.783.783,0,0,0,.688.358h0a1.5,1.5,0,0,0,.378-.047c.253-.062.439-.337.57-.536a.643.643,0,0,1,.6-.346.914.914,0,0,0,.584-.292h0A1.518,1.518,0,0,1,44.96,4.3a1.608,1.608,0,0,0,.44-.393.773.773,0,0,0,.273-.282,2.005,2.005,0,0,0,.245-.843.042.042,0,0,0-.046-.035" transform="translate(-34.373 -0.366)" fill="#d6dee0"/>
                  <path id="Path_15" data-name="Path 15" d="M15.587,3.03c0-.034-.044-.025-.059,0a2.193,2.193,0,0,0-.241.541,1.181,1.181,0,0,0-.091.39c0,.273.04.535.029.808a1.686,1.686,0,0,1-1.012,1.349c-.386.213-.675.381-.918.506-.152.083-.278.148-.379.2-.074.037-.138.066-.191.088l-.3.142-.337.169q-.59.3-1.162.641l-.406.821c.506-.307,1.037-.584,1.57-.843.4-.2.8-.38,1.206-.56l.536-.228h0a2.118,2.118,0,0,0,.506-.337,3.832,3.832,0,0,0,1.218-2.672l.025-.751a2.194,2.194,0,0,0,0-.258" transform="translate(-8.746 -2.562)" fill="#d6dee0"/>
                  <path id="Path_16" data-name="Path 16" d="M31.523,49.824H30.244a.231.231,0,0,0-.253.2.307.307,0,0,0,0,.056v.6a.231.231,0,0,0,.2.258.325.325,0,0,0,.057,0h1.278a.231.231,0,0,0,.258-.2.326.326,0,0,0,0-.057v-.59a.231.231,0,0,0-.2-.256.308.308,0,0,0-.056,0m.132.843a.116.116,0,0,1-.1.132.1.1,0,0,1-.032,0H30.244a.116.116,0,0,1-.132-.1.1.1,0,0,1,0-.032v-.587a.116.116,0,0,1,.1-.13.091.091,0,0,1,.03,0h1.278a.116.116,0,0,1,.132.1.091.091,0,0,1,0,.03Z" transform="translate(-24.931 -41.481)" fill="#d6dee0"/>
                  <path id="Path_17" data-name="Path 17" d="M43.567,50.682a.116.116,0,0,1-.088.14.128.128,0,0,1-.051,0h-.374c-.13,0-.169-.046-.169-.046a.294.294,0,0,1-.04-.184V49.84h-.126v.752a.293.293,0,0,1-.04.184s-.03.046-.159.046h-.364a.116.116,0,0,1-.13-.1.091.091,0,0,1,0-.03v-.86H41.9v.852a.231.231,0,0,0,.2.258.308.308,0,0,0,.056,0h.383a.231.231,0,0,0,.258-.2.288.288,0,0,0,0-.054.231.231,0,0,0,.2.258.307.307,0,0,0,.056,0h.379a.231.231,0,0,0,.258-.2.327.327,0,0,0,0-.057V49.83h-.123Z" transform="translate(-34.832 -41.487)" fill="#d6dee0"/>
                  <path id="Path_18" data-name="Path 18" d="M53.794,50.022v.04a.231.231,0,0,0,.2.258h.057a.231.231,0,0,0-.26.2.3.3,0,0,0,0,.067v.037a.231.231,0,0,0,.2.258h1.594v-.128H54.052a.116.116,0,0,1-.132-.1.092.092,0,0,1,0-.03v-.037c0-.13.047-.169.047-.169a.285.285,0,0,1,.194-.04H55.6v-.128H54.162a.277.277,0,0,1-.182-.04s-.047-.03-.047-.159v-.04a.116.116,0,0,1,.1-.13.091.091,0,0,1,.03,0H55.6v-.128H54.052a.231.231,0,0,0-.258.209.308.308,0,0,0,0,.056" transform="translate(-44.716 -41.421)" fill="#d6dee0"/>
                  <path id="Path_19" data-name="Path 19" d="M18,49.967h.843v.982h.126v-.982h.843V49.84H18Z" transform="translate(-14.964 -41.495)" fill="#d6dee0"/>
                  <path id="Path_20" data-name="Path 20" d="M68.093,51.642a1.134,1.134,0,0,0-.277-.439,3.148,3.148,0,0,0-.675-.482c-.137-.076-.266-.142-.391-.2h.541a.231.231,0,0,0,.258-.2.324.324,0,0,0,0-.057v-.152a.231.231,0,0,0-.2-.258.325.325,0,0,0-.057,0H65.75v1.11h.127v-.987h1.41a.116.116,0,0,1,.132.1.091.091,0,0,1,0,.03v.152a.116.116,0,0,1-.108.125h-.875a.25.25,0,0,0,.029.091.1.1,0,0,0,.012.024q.02.046.04.051a5.347,5.347,0,0,1,1.15.634.9.9,0,0,1,.41.565.084.084,0,0,1-.02.069.415.415,0,0,1-.074.057.037.037,0,0,0-.015.035.157.157,0,0,0,.029.081.079.079,0,0,0,.061.044c.03,0,.054-.019.069-.059a.253.253,0,0,0,.017-.1.81.81,0,0,0-.047-.253" transform="translate(-54.66 -41.506)" fill="#d6dee0"/>
                </g>
                <path id="Path_1100" data-name="Path 1100" d="M70.509.346s-.142-.1-.049-.153.223,0,.273-.013S70.882.01,70.654.01s-.43.093-.4.3.265.186.223.3-.455.123-.52.155-.14.125.169.111.541-.128.555-.275S70.509.346,70.509.346Z" transform="translate(-58.108 -0.01)" fill="#d6dee0"/>
              </g>
            </g>
          </g>
        </g>
      </g>
    </g>
  </g>
</svg>
