<svg id="Asnan-Google-Play" xmlns="http://www.w3.org/2000/svg" width="153" height="44" viewBox="0 0 153 44">
  <rect id="Rectangle_16994" data-name="Rectangle 16994" width="153" height="44" rx="6" fill="#b8c2c4"/>
  <g id="Group_35068" data-name="Group 35068" transform="translate(13 7.852)">
    <path id="Path_556" data-name="Path 556" d="M400.6,299.474a2.227,2.227,0,0,0-.5,1.552v24.311a2.12,2.12,0,0,0,.513,1.538l.085.074,13.621-13.621v-.3L400.687,299.4Z" transform="translate(-400.095 -299.036)" fill="#fff" fill-rule="evenodd"/>
    <path id="Path_557" data-name="Path 557" d="M922.843,639.9l-4.543-4.543v-.318l4.543-4.543.1.06,5.374,3.054c1.538.866,1.538,2.3,0,3.175l-5.374,3.054Z" transform="translate(-904.087 -621.057)" fill="#fff" fill-rule="evenodd" opacity="0.37"/>
    <path id="Path_558" data-name="Path 558" d="M436.748,806.642,432.106,802,418.4,815.706a1.8,1.8,0,0,0,2.284.074l16.064-9.138" transform="translate(-417.893 -787.856)" fill="#fff" fill-rule="evenodd" opacity="0.792"/>
    <path id="Path_559" data-name="Path 559" d="M436.748,295.973l-16.064-9.125a1.781,1.781,0,0,0-2.284.074l13.706,13.692Z" transform="translate(-417.893 -286.469)" fill="#fff" fill-rule="evenodd" opacity="0.568"/>
    <path id="Path_560" data-name="Path 560" d="M437.038,967.7l-15.954,9.064a1.81,1.81,0,0,1-2.2.011l-.085.085.085.074a1.815,1.815,0,0,0,2.2-.011l16.064-9.125Z" transform="translate(-418.282 -949.013)" fill="#fff" fill-rule="evenodd" opacity="0.2"/>
    <path id="Path_561" data-name="Path 561" d="M1088.986,803.428l-5.486,3.115.1.1,5.374-3.054a1.926,1.926,0,0,0,1.149-1.587A1.978,1.978,0,0,1,1088.986,803.428Z" transform="translate(-1064.758 -787.856)" fill="#fff" fill-rule="evenodd" opacity="0.12"/>
    <path id="Path_562" data-name="Path 562" d="M402.886,286.838l21.438,12.179a2.02,2.02,0,0,1,1.149,1.428,1.926,1.926,0,0,0-1.149-1.587l-21.438-12.179c-1.538-.88-2.786-.145-2.786,1.612v.159C400.1,286.69,401.347,285.968,402.886,286.838Z" transform="translate(-400.095 -286.301)" fill="#fff" fill-rule="evenodd" opacity="0.25"/>
  </g>
  <g id="Group_35069" data-name="Group 35069" transform="translate(2.404 -0.446)">
    <path id="Path_554" data-name="Path 554" d="M1687.456,278.409a3.346,3.346,0,0,1-2.5-1.034,3.52,3.52,0,0,1-1.009-2.522,3.443,3.443,0,0,1,1.009-2.52,3.336,3.336,0,0,1,2.495-1.034,3.381,3.381,0,0,1,2.5,1.034,3.651,3.651,0,0,1,0,5.039,3.319,3.319,0,0,1-2.5,1.037Zm-29.614,0a3.469,3.469,0,0,1-2.509-1.02,3.553,3.553,0,0,1,2.509-6.087,3.5,3.5,0,0,1,1.4.291,2.833,2.833,0,0,1,1.066.762l.066.079-.743.729-.077-.09a2.112,2.112,0,0,0-1.724-.743,2.384,2.384,0,0,0-1.719.7,2.665,2.665,0,0,0,0,3.652,2.513,2.513,0,0,0,3.485,0,1.9,1.9,0,0,0,.5-1.143h-2.383v-1.025h3.405l.014.093a3.755,3.755,0,0,1,.05.515,3.087,3.087,0,0,1-.85,2.276,3.318,3.318,0,0,1-2.49,1.011Zm39.375-.145h-1.05l-3.216-5.146.027.927v4.217h-1.05v-6.813h1.2l.033.052,3.024,4.847-.027-.924v-3.976h1.061Zm-17.651,0H1678.5v-5.791h-1.845v-1.025h4.752v1.025h-1.845v5.791Zm-3.776,0h-1.061v-6.816h1.061Zm-5.963,0h-1.061v-5.791h-1.845v-1.025h4.751v1.025h-1.845Zm-3.578-.011h-4.069v-6.8h4.069v1.025h-3.005v1.87h2.712v1.014h-2.712v1.87h3.005Zm19.488-1.582a2.348,2.348,0,0,0,1.719.713,2.288,2.288,0,0,0,1.719-.713,2.7,2.7,0,0,0,0-3.63,2.353,2.353,0,0,0-1.719-.713,2.279,2.279,0,0,0-1.717.713,2.706,2.706,0,0,0-.005,3.63Z" transform="translate(-1608.942 -263.861)" fill="#fff"/>
    <path id="Path_555" data-name="Path 555" d="M1676.459,688.193a4.677,4.677,0,1,0,4.691,4.678,4.6,4.6,0,0,0-4.691-4.678Zm0,7.5a2.842,2.842,0,1,1,2.637-2.835,2.707,2.707,0,0,1-2.637,2.837Zm-10.235-7.5a4.677,4.677,0,1,0,4.691,4.678,4.6,4.6,0,0,0-4.691-4.678Zm0,7.5a2.842,2.842,0,1,1,2.638-2.835,2.707,2.707,0,0,1-2.638,2.837Zm-12.179-6.073v1.98h4.751a4.173,4.173,0,0,1-1.075,2.492,4.849,4.849,0,0,1-3.666,1.453,5.278,5.278,0,0,1,0-10.556,5.071,5.071,0,0,1,3.578,1.417l1.4-1.4a6.9,6.9,0,0,0-4.971-2,7.258,7.258,0,1,0,0,14.516,6.644,6.644,0,0,0,5.07-2.04,6.569,6.569,0,0,0,1.722-4.642,6.11,6.11,0,0,0-.109-1.234h-6.706l.006.016Zm49.815,1.541a4.347,4.347,0,0,0-4.006-2.98,4.444,4.444,0,0,0-4.409,4.677,4.572,4.572,0,0,0,4.642,4.677,4.643,4.643,0,0,0,3.9-2.076L1702.4,694.4a2.66,2.66,0,0,1-2.3,1.294,2.389,2.389,0,0,1-2.273-1.418l6.254-2.591-.22-.523Zm-6.378,1.563a2.567,2.567,0,0,1,2.443-2.725,1.8,1.8,0,0,1,1.736.99Zm-5.08,4.532h2.054v-13.74H1692.4Zm-3.372-8.025h-.074a3.239,3.239,0,0,0-2.468-1.05,4.677,4.677,0,0,0,0,9.347,3.23,3.23,0,0,0,2.468-1.064h.074v.672c0,1.785-.954,2.747-2.492,2.747a2.593,2.593,0,0,1-2.358-1.661l-1.785.746a4.464,4.464,0,0,0,4.14,2.761c2.407,0,4.447-1.417,4.447-4.875v-8.393h-1.941v.77Zm-2.358,6.462a2.844,2.844,0,0,1,0-5.667,2.63,2.63,0,0,1,2.492,2.846,2.6,2.6,0,0,1-2.492,2.823Zm26.8-12.179h-4.911v13.742h2.054v-5.2h2.86a4.275,4.275,0,1,0,0-8.538Zm.06,6.619h-2.92v-4.716h2.92a2.358,2.358,0,1,1,0,4.716Zm12.681-1.966a3.867,3.867,0,0,0-3.666,2.1l1.82.757a1.953,1.953,0,0,1,1.87-1.014,1.983,1.983,0,0,1,2.163,1.771v.145a4.6,4.6,0,0,0-2.139-.526c-1.966,0-3.959,1.075-3.959,3.09a3.176,3.176,0,0,0,3.408,3.03,2.891,2.891,0,0,0,2.613-1.343h.074v1.064h1.98v-5.264c.005-2.452-1.816-3.809-4.16-3.809Zm-.258,7.526c-.671,0-1.612-.329-1.612-1.174,0-1.064,1.173-1.467,2.174-1.467a3.566,3.566,0,0,1,1.87.463,2.472,2.472,0,0,1-2.428,2.18Zm11.645-7.233-2.358,5.961h-.074l-2.443-5.961h-2.21l3.666,8.332-2.089,4.631h2.138l5.64-12.963Zm-18.485,8.8h2.054V683.516h-2.054Z" transform="translate(-1601.551 -664.273)" fill="#fff" fill-rule="evenodd"/>
  </g>
</svg>
