<svg id="Asnan-App-Store" xmlns="http://www.w3.org/2000/svg" width="153" height="44" viewBox="0 0 153 44">
  <rect id="Rectangle_16994" data-name="Rectangle 16994" width="153" height="44" rx="6" fill="#b8c2c4"/>
  <g id="Group_34991" data-name="Group 34991" transform="translate(13 7)">
    <path id="Path_529" data-name="Path 529" d="M32.75,20.905a6.674,6.674,0,0,1,3.178-5.6A6.835,6.835,0,0,0,30.545,12.4c-2.265-.238-4.461,1.359-5.614,1.359-1.177,0-2.953-1.332-4.867-1.293a7.167,7.167,0,0,0-6.032,3.68c-2.613,4.516-.664,11.153,1.836,14.8,1.254,1.788,2.711,3.784,4.623,3.714,1.871-.077,2.57-1.192,4.827-1.192,2.236,0,2.893,1.192,4.843,1.15,2.008-.032,3.272-1.8,4.478-3.6a14.773,14.773,0,0,0,2.048-4.171,6.451,6.451,0,0,1-3.938-5.939Z" transform="translate(-12.791 -5.29)" fill="#fff"/>
    <path id="Path_530" data-name="Path 530" d="M27.5,10.924a6.568,6.568,0,0,0,1.5-4.7,6.688,6.688,0,0,0-4.327,2.238,6.252,6.252,0,0,0-1.543,4.534A5.526,5.526,0,0,0,27.5,10.924Z" transform="translate(-11.229 -6.221)" fill="#fff"/>
  </g>
  <g id="Group_35065" data-name="Group 35065" transform="translate(0.438 -0.523)">
    <path id="Path_531" data-name="Path 531" d="M55.344,33.517H52.731l-1.432-4.5H46.32l-1.364,4.5H42.41L47.342,18.2h3.046Zm-4.479-6.389-1.295-4q-.209-.613-.772-2.887h-.046q-.226.977-.732,2.887l-1.272,4Z" transform="translate(5.438 0.728)" fill="#fff"/>
    <path id="Path_532" data-name="Path 532" d="M66.059,27.325a6.278,6.278,0,0,1-1.523,4.454,4.453,4.453,0,0,1-3.389,1.456,3.387,3.387,0,0,1-3.135-1.568h-.046v5.819H55.512V25.573q0-1.777-.091-3.637h2.158l.137,1.751h.046a4.367,4.367,0,0,1,6.989-.433A6.087,6.087,0,0,1,66.059,27.325Zm-2.5.09a4.548,4.548,0,0,0-.732-2.66,2.508,2.508,0,0,0-2.137-1.091,2.552,2.552,0,0,0-1.647.6,2.792,2.792,0,0,0-.966,1.58,3.214,3.214,0,0,0-.114.748v1.842a2.951,2.951,0,0,0,.739,2.036,2.45,2.45,0,0,0,1.92.83,2.508,2.508,0,0,0,2.158-1.068,4.7,4.7,0,0,0,.78-2.82Z" transform="translate(7.405 1.259)" fill="#fff"/>
    <path id="Path_533" data-name="Path 533" d="M77.1,27.325a6.27,6.27,0,0,1-1.524,4.454,4.449,4.449,0,0,1-3.386,1.455,3.384,3.384,0,0,1-3.135-1.568h-.046v5.819H66.55V25.572q0-1.777-.091-3.637h2.158l.137,1.751H68.8a4.368,4.368,0,0,1,6.991-.433A6.1,6.1,0,0,1,77.1,27.325Zm-2.5.09a4.548,4.548,0,0,0-.732-2.66,2.508,2.508,0,0,0-2.137-1.091,2.555,2.555,0,0,0-1.648.6,2.791,2.791,0,0,0-.965,1.581A3.276,3.276,0,0,0,69,26.6v1.842a2.961,2.961,0,0,0,.741,2.04,2.455,2.455,0,0,0,1.923.83,2.508,2.508,0,0,0,2.153-1.073A4.7,4.7,0,0,0,74.6,27.415Z" transform="translate(9.075 1.259)" fill="#fff"/>
    <path id="Path_534" data-name="Path 534" d="M89.288,29.25a4.083,4.083,0,0,1-1.359,3.182,6.031,6.031,0,0,1-4.173,1.341,7.305,7.305,0,0,1-3.971-.954l.569-2.045a6.728,6.728,0,0,0,3.553.978,3.355,3.355,0,0,0,2.161-.627,2.045,2.045,0,0,0,.771-1.672,2.134,2.134,0,0,0-.636-1.568A5.918,5.918,0,0,0,84.085,26.7q-4.024-1.5-4.023-4.389a3.888,3.888,0,0,1,1.41-3.1A5.56,5.56,0,0,1,85.22,18a7.436,7.436,0,0,1,3.477.732l-.613,2a6.032,6.032,0,0,0-2.932-.7,2.968,2.968,0,0,0-2.021.636,1.819,1.819,0,0,0-.613,1.387,1.873,1.873,0,0,0,.7,1.5,7.95,7.95,0,0,0,2.224,1.18,7.562,7.562,0,0,1,2.909,1.862,3.892,3.892,0,0,1,.934,2.656Z" transform="translate(11.09 0.697)" fill="#fff"/>
    <path id="Path_535" data-name="Path 535" d="M95.972,24.111H93.267v5.363q0,2.046,1.432,2.045a4.365,4.365,0,0,0,1.09-.114l.068,1.863a5.561,5.561,0,0,1-1.908.272,2.945,2.945,0,0,1-2.274-.886,4.355,4.355,0,0,1-.818-2.978V24.109H89.244V22.268h1.612V20.245l2.411-.732v2.751h2.706v1.845Z" transform="translate(12.52 0.928)" fill="#fff"/>
    <path id="Path_536" data-name="Path 536" d="M107.113,27.37a6.061,6.061,0,0,1-1.455,4.18,5.2,5.2,0,0,1-4.048,1.682,4.94,4.94,0,0,1-3.874-1.613,5.874,5.874,0,0,1-1.444-4.067,6,6,0,0,1,1.488-4.2,5.151,5.151,0,0,1,4.011-1.637,5.045,5.045,0,0,1,3.91,1.614,5.807,5.807,0,0,1,1.412,4.045Zm-2.547.079a4.969,4.969,0,0,0-.658-2.621,2.425,2.425,0,0,0-2.2-1.322,2.461,2.461,0,0,0-2.251,1.322A5.065,5.065,0,0,0,98.8,27.5a4.962,4.962,0,0,0,.658,2.62,2.508,2.508,0,0,0,4.432-.023,4.987,4.987,0,0,0,.68-2.645Z" transform="translate(13.586 1.259)" fill="#fff"/>
    <path id="Path_537" data-name="Path 537" d="M113.4,24.1a4.262,4.262,0,0,0-.773-.068,2.319,2.319,0,0,0-2,.978,3.678,3.678,0,0,0-.613,2.181v5.8h-2.453l.023-7.568q0-1.91-.092-3.478h2.138l.09,2.113h.068A3.778,3.778,0,0,1,111.01,22.3a2.968,2.968,0,0,1,1.777-.592,3.942,3.942,0,0,1,.613.045V24.1Z" transform="translate(15.279 1.259)" fill="#fff"/>
    <path id="Path_538" data-name="Path 538" d="M123.446,26.942a5.752,5.752,0,0,1-.09,1.113h-7.364a3.205,3.205,0,0,0,1.068,2.5,3.647,3.647,0,0,0,2.4.772,8.144,8.144,0,0,0,2.98-.523l.385,1.7a9.211,9.211,0,0,1-3.7.682,5.365,5.365,0,0,1-4.036-1.511,5.583,5.583,0,0,1-1.463-4.057,6.329,6.329,0,0,1,1.365-4.159,4.7,4.7,0,0,1,3.867-1.777,4.117,4.117,0,0,1,3.616,1.777A5.975,5.975,0,0,1,123.446,26.942Zm-2.34-.636a3.335,3.335,0,0,0-.477-1.886,2.145,2.145,0,0,0-1.956-1.023,2.328,2.328,0,0,0-1.953,1,3.658,3.658,0,0,0-.732,1.908H121.1Z" transform="translate(16.208 1.256)" fill="#fff"/>
    <path id="Path_539" data-name="Path 539" d="M49.867,10.487a3.779,3.779,0,0,1-1.218,3.06,4.845,4.845,0,0,1-3.2.949,14.855,14.855,0,0,1-1.765-.09v-7.4a13.024,13.024,0,0,1,2.078-.157,4.479,4.479,0,0,1,2.982.86,3.475,3.475,0,0,1,1.128,2.777Zm-1.272.033A2.752,2.752,0,0,0,47.9,8.5a2.75,2.75,0,0,0-2.039-.7,5.106,5.106,0,0,0-.972.078V13.5a6.375,6.375,0,0,0,.815.033,2.854,2.854,0,0,0,2.138-.77,3.084,3.084,0,0,0,.751-2.246Z" transform="translate(5.63 0.011)" fill="#fff"/>
    <path id="Path_540" data-name="Path 540" d="M55.607,11.4a2.976,2.976,0,0,1-.715,2.055,2.552,2.552,0,0,1-1.986.827A2.426,2.426,0,0,1,51,13.49a2.889,2.889,0,0,1-.708-2,2.948,2.948,0,0,1,.732-2.065A2.535,2.535,0,0,1,53,8.623a2.482,2.482,0,0,1,1.922.792A2.866,2.866,0,0,1,55.607,11.4Zm-1.254.039a2.455,2.455,0,0,0-.324-1.289A1.191,1.191,0,0,0,52.948,9.5a1.21,1.21,0,0,0-1.107.649,2.487,2.487,0,0,0-.324,1.311,2.455,2.455,0,0,0,.324,1.289,1.218,1.218,0,0,0,1.1.649,1.2,1.2,0,0,0,1.082-.66,2.439,2.439,0,0,0,.339-1.3Z" transform="translate(6.629 0.279)" fill="#fff"/>
    <path id="Path_541" data-name="Path 541" d="M63.8,8.719l-1.7,5.427H60.994l-.706-2.357a17.639,17.639,0,0,1-.437-1.754h-.022a12.836,12.836,0,0,1-.436,1.754l-.747,2.357H57.528L55.935,8.719h1.239l.613,2.58q.223.915.369,1.742h.022q.135-.68.448-1.731L59.4,8.72h.983l.738,2.535q.268.927.435,1.787h.033a17.072,17.072,0,0,1,.369-1.787l.658-2.535H63.8Z" transform="translate(7.483 0.296)" fill="#fff"/>
    <path id="Path_542" data-name="Path 542" d="M68.823,14.161H67.616V11.053q0-1.437-1.093-1.437a1.089,1.089,0,0,0-.872.4,1.4,1.4,0,0,0-.335.93V14.16H64.11V10.285q0-.715-.044-1.553h1.061l.056.849h.033a1.743,1.743,0,0,1,.627-.655,2.039,2.039,0,0,1,1.093-.305,1.732,1.732,0,0,1,1.262.491,2.388,2.388,0,0,1,.627,1.8Z" transform="translate(8.713 0.278)" fill="#fff"/>
    <path id="Path_543" data-name="Path 543" d="M71.246,14.474h-1.2V6.556h1.2Z" transform="translate(9.616 -0.032)" fill="#fff"/>
    <path id="Path_544" data-name="Path 544" d="M77.956,11.4a2.976,2.976,0,0,1-.715,2.055,2.553,2.553,0,0,1-1.986.827,2.423,2.423,0,0,1-1.9-.793,2.889,2.889,0,0,1-.708-2,2.948,2.948,0,0,1,.732-2.065,2.534,2.534,0,0,1,1.97-.8,2.484,2.484,0,0,1,1.923.792,2.866,2.866,0,0,1,.688,1.987Zm-1.254.039a2.455,2.455,0,0,0-.324-1.289A1.189,1.189,0,0,0,75.3,9.5a1.208,1.208,0,0,0-1.107.649,2.487,2.487,0,0,0-.324,1.311,2.455,2.455,0,0,0,.324,1.289,1.218,1.218,0,0,0,1.1.649,1.2,1.2,0,0,0,1.081-.66,2.429,2.429,0,0,0,.336-1.3Z" transform="translate(10.01 0.279)" fill="#fff"/>
    <path id="Path_545" data-name="Path 545" d="M82.915,14.161H81.832l-.09-.627h-.033a1.858,1.858,0,0,1-1.585.748,1.636,1.636,0,0,1-1.238-.491,1.542,1.542,0,0,1-.424-1.106,1.686,1.686,0,0,1,.836-1.518,4.319,4.319,0,0,1,2.341-.513v-.1q0-1.072-1.127-1.072a2.524,2.524,0,0,0-1.415.4l-.246-.792a3.48,3.48,0,0,1,1.861-.468q2.128,0,2.13,2.245v2a8.476,8.476,0,0,0,.073,1.3ZM81.661,12.3V11.46q-2-.034-2,1.093a.817.817,0,0,0,.231.636.844.844,0,0,0,.589.209,1.219,1.219,0,0,0,.738-.251,1.03,1.03,0,0,0,.438-.854Z" transform="translate(10.89 0.278)" fill="#fff"/>
    <path id="Path_546" data-name="Path 546" d="M88.966,14.474H87.9l-.056-.872h-.033a1.8,1.8,0,0,1-1.743.995,2.042,2.042,0,0,1-1.63-.77,3,3,0,0,1-.647-2,3.147,3.147,0,0,1,.7-2.133,2.162,2.162,0,0,1,1.672-.76,1.626,1.626,0,0,1,1.529.737h.023V6.556h1.209v6.455Q88.922,13.8,88.966,14.474Zm-1.254-2.289V11.28a1.777,1.777,0,0,0-.033-.38,1.374,1.374,0,0,0-.436-.732,1.186,1.186,0,0,0-.807-.3,1.238,1.238,0,0,0-1.062.536,2.3,2.3,0,0,0-.387,1.373,2.143,2.143,0,0,0,.371,1.306,1.242,1.242,0,0,0,1.054.535,1.162,1.162,0,0,0,.953-.446,1.487,1.487,0,0,0,.35-.992Z" transform="translate(11.695 -0.032)" fill="#fff"/>
    <path id="Path_547" data-name="Path 547" d="M97.946,11.4a2.976,2.976,0,0,1-.715,2.055,2.55,2.55,0,0,1-1.986.827,2.429,2.429,0,0,1-1.9-.793,2.889,2.889,0,0,1-.708-2,2.948,2.948,0,0,1,.732-2.065,2.536,2.536,0,0,1,1.972-.8,2.479,2.479,0,0,1,1.92.792,2.866,2.866,0,0,1,.689,1.987Zm-1.254.039a2.455,2.455,0,0,0-.324-1.289A1.193,1.193,0,0,0,95.284,9.5a1.212,1.212,0,0,0-1.107.649,2.487,2.487,0,0,0-.324,1.311,2.455,2.455,0,0,0,.324,1.289,1.233,1.233,0,0,0,2.178-.011,2.45,2.45,0,0,0,.341-1.3Z" transform="translate(13.032 0.279)" fill="#fff"/>
    <path id="Path_548" data-name="Path 548" d="M103.505,14.161h-1.2V11.053q0-1.437-1.1-1.437a1.085,1.085,0,0,0-.871.4,1.4,1.4,0,0,0-.335.93V14.16h-1.2V10.285q0-.715-.043-1.553h1.059l.056.849H99.9a1.761,1.761,0,0,1,.627-.655,2.043,2.043,0,0,1,1.1-.305,1.731,1.731,0,0,1,1.261.491,2.384,2.384,0,0,1,.627,1.8Z" transform="translate(13.957 0.278)" fill="#fff"/>
    <path id="Path_549" data-name="Path 549" d="M110.371,9.8h-1.328v2.637c0,.67.236,1.005.7,1.005a2.125,2.125,0,0,0,.537-.056l.031.915a2.711,2.711,0,0,1-.941.135A1.442,1.442,0,0,1,108.259,14a2.129,2.129,0,0,1-.4-1.463V9.8h-.793V8.9h.793V7.9l1.182-.356V8.9h1.328v.9Z" transform="translate(15.215 0.116)" fill="#fff"/>
    <path id="Path_550" data-name="Path 550" d="M116.1,14.474H114.9V11.387q0-1.463-1.092-1.463a1.15,1.15,0,0,0-1.15.847,1.517,1.517,0,0,0-.056.434v3.267H111.39V6.556h1.2V9.827h.023a1.824,1.824,0,0,1,1.63-.892,1.682,1.682,0,0,1,1.242.491,2.472,2.472,0,0,1,.613,1.821Z" transform="translate(15.869 -0.032)" fill="#fff"/>
    <path id="Path_551" data-name="Path 551" d="M121.841,11.191a2.915,2.915,0,0,1-.045.547h-3.618a1.582,1.582,0,0,0,.523,1.228,1.8,1.8,0,0,0,1.185.38,4,4,0,0,0,1.463-.257l.189.836a4.544,4.544,0,0,1-1.822.335,2.63,2.63,0,0,1-1.986-.743,2.736,2.736,0,0,1-.719-1.993,3.106,3.106,0,0,1,.67-2.043,2.308,2.308,0,0,1,1.9-.871,2.018,2.018,0,0,1,1.777.871A2.9,2.9,0,0,1,121.841,11.191Zm-1.15-.314a1.624,1.624,0,0,0-.234-.927,1.053,1.053,0,0,0-.96-.5,1.15,1.15,0,0,0-.96.491,1.826,1.826,0,0,0-.358.941Z" transform="translate(16.72 0.278)" fill="#fff"/>
  </g>
</svg>
