<svg id="Asnan-share-icon" xmlns="http://www.w3.org/2000/svg" xmlns:xlink="http://www.w3.org/1999/xlink" width="64.227" height="73.813" viewBox="0 0 64.227 73.813">
  <defs>
    <clipPath id="clip-path">
      <rect id="Rectangle_80" data-name="Rectangle 80" width="64.227" height="73.813" fill="#2c8eff"/>
    </clipPath>
  </defs>
  <g id="Group_970" data-name="Group 970" clip-path="url(#clip-path)">
    <path id="Path_660" data-name="Path 660" d="M0,35.487c.187-.738.337-1.488.567-2.213a12.055,12.055,0,0,1,19.915-4.991.785.785,0,0,0,1.192.11q9.278-5.781,18.585-11.515a.725.725,0,0,0,.393-1.017,12.065,12.065,0,1,1,13.4,8.176,11.566,11.566,0,0,1-10.3-3.248.84.84,0,0,0-1.254-.122q-9.306,5.8-18.637,11.564c-.161.1-.316.209-.467.309a12.739,12.739,0,0,1,0,8.791l7.746,4.8c3.831,2.373,7.667,4.739,11.488,7.129a.684.684,0,0,0,1.023-.1,11.573,11.573,0,0,1,12.21-2.885,11.619,11.619,0,0,1,8.189,9.53A12.092,12.092,0,0,1,54.05,73.667a3,3,0,0,0-.465.146H50.7a1.7,1.7,0,0,0-.329-.127,12.04,12.04,0,0,1-9.719-15.709c.177-.554,0-.751-.414-1.007q-9.3-5.74-18.575-11.514a.786.786,0,0,0-1.19.124A12.062,12.062,0,0,1,.422,40.1C.265,39.526.14,38.945,0,38.368V35.487m4.437,1.39a7.65,7.65,0,1,0,7.74-7.6,7.621,7.621,0,0,0-7.74,7.6M44.484,12.083a7.648,7.648,0,1,0,7.651-7.6,7.665,7.665,0,0,0-7.651,7.6m7.65,57.29a7.651,7.651,0,1,0-7.65-7.605,7.653,7.653,0,0,0,7.65,7.605" transform="translate(0 -0.001)" fill="#2c8eff"/>
  </g>
</svg>
