<svg id="Before-After-hand-icon" xmlns="http://www.w3.org/2000/svg" xmlns:xlink="http://www.w3.org/1999/xlink" width="122" height="95" viewBox="0 0 122 95">
  <defs>
    <clipPath id="clip-path">
      <rect id="Rectangle_17044" data-name="Rectangle 17044" width="122" height="95" transform="translate(0.415 0.5)" fill="#fff"/>
    </clipPath>
  </defs>
  <g id="Group_35263" data-name="Group 35263" transform="translate(-0.415 -0.5)" clip-path="url(#clip-path)">
    <path id="Path_719" data-name="Path 719" d="M75.814,122.474a9.342,9.342,0,0,1-5.425-2.777c-2.8-3.2-2.735-6.8-1.2-10.437,1.923-4.543,5.568-6.919,10.385-7.656,7.182-1.1,14.358-2.243,21.768-3.4-.424-.446-.728-.778-1.046-1.1Q82.11,78.916,63.919,60.732c-3.313-3.312-4.479-7.168-2.993-11.7,2.157-6.588,11.059-9.366,16.344-4.88,3.525,2.992,6.669,6.432,9.966,9.69a12.03,12.03,0,0,0,.947,1.107c1.45-3.521,3.694-5.92,7.13-7.053a10.73,10.73,0,0,1,9.765,1.548,10.836,10.836,0,0,1,16.747-5.579,11.586,11.586,0,0,1,3.528-5.228,10.505,10.505,0,0,1,14.441.8q10.966,11.824,21.664,23.894a28.9,28.9,0,0,1,6.96,16.013c.048.386.157.765.237,1.147v5.038c-.082.388-.191.772-.242,1.164a29.374,29.374,0,0,1-7.719,16.793c-3.278,3.495-6.7,6.86-10.118,10.217a29.766,29.766,0,0,1-14.64,7.951c-1.7.379-3.455.552-5.185.82Zm28.446-5.624c8.035,0,16.071-.023,24.106.007a25.039,25.039,0,0,0,18.177-7.023c3.31-3.188,6.622-6.389,9.727-9.773a24.7,24.7,0,0,0,1.951-31.813,93.38,93.38,0,0,0-6.86-7.847q-7.641-8.45-15.331-16.856a4.952,4.952,0,0,0-5.645-1.482,5.03,5.03,0,0,0-3.321,4.556,5.092,5.092,0,0,0,1.461,3.805,2.893,2.893,0,0,1,.834,3.169c-.759,2.009-3.1,2.4-4.8.759-2.014-1.941-3.924-4-6-5.862a4.6,4.6,0,0,0-5.374-.631,4.846,4.846,0,0,0-2.863,4.616,5.2,5.2,0,0,0,1.723,3.819c1.781,1.781,3.584,3.541,5.333,5.352a2.818,2.818,0,0,1,.232,4.075c-1.126,1.182-2.772,1.127-4.168-.145-.266-.242-.512-.505-.766-.76-3.421-3.42-6.812-6.87-10.271-10.251-2.728-2.666-6.758-2.034-8.345,1.235-1.011,2.082-.584,4.239,1.275,6.111,3.464,3.489,6.955,6.952,10.425,10.436a6.712,6.712,0,0,1,1.062,1.287,2.691,2.691,0,0,1-1.9,4.033,3.293,3.293,0,0,1-3.035-1.3Q88.615,63.088,75.339,49.82A13.261,13.261,0,0,0,74.018,48.6a5.055,5.055,0,0,0-8.093,3.406A5.486,5.486,0,0,0,67.87,56.8q20.411,20.379,40.807,40.773c.969.968,1.637,1.993,1.185,3.4-.439,1.369-1.573,1.806-2.865,2.006q-6.393.985-12.784,1.989c-4.97.785-9.945,1.534-14.9,2.4a6.437,6.437,0,0,0-5.2,4.6c-.912,2.7-.068,4.945,3.524,4.907,8.874-.093,17.749-.031,26.624-.031" transform="translate(-45.827 -27.474)" fill="#fff"/>
    <path id="Path_720" data-name="Path 720" d="M27.109,0c.972.175,1.952.314,2.914.532A25,25,0,0,1,47.761,14.415c.844,1.707.411,3.256-1.036,4.033-1.424.765-2.992.251-3.887-1.466a21.556,21.556,0,0,0-6.183-7.509A19.466,19.466,0,1,0,15.948,42.317c.421.228.85.445,1.252.7A2.78,2.78,0,1,1,14.54,47.9,25.171,25.171,0,0,1,.2,28.127a2.377,2.377,0,0,0-.2-.539v-4.8c.088-.384.193-.765.261-1.152,1.7-9.712,7.085-16.478,16.31-20A51.539,51.539,0,0,1,23.51,0Z" fill="#fff"/>
    <path id="Path_721" data-name="Path 721" d="M121.962,134.512c-8.875,0-17.75-.062-26.624.03-3.591.037-4.435-2.2-3.524-4.907a6.438,6.438,0,0,1,5.2-4.6c4.955-.867,9.931-1.616,14.9-2.4q6.389-1.01,12.784-1.989c1.292-.2,2.426-.636,2.865-2.006.452-1.408-.215-2.433-1.185-3.4Q105.966,94.858,85.572,74.462a5.486,5.486,0,0,1-1.945-4.79,5.055,5.055,0,0,1,8.093-3.406,13.264,13.264,0,0,1,1.322,1.216q13.276,13.268,26.544,26.542a3.294,3.294,0,0,0,3.035,1.3,2.691,2.691,0,0,0,1.9-4.033,6.7,6.7,0,0,0-1.062-1.287c-3.47-3.484-6.961-6.947-10.425-10.436-1.859-1.872-2.286-4.029-1.275-6.111,1.587-3.269,5.616-3.9,8.345-1.235,3.459,3.381,6.851,6.831,10.271,10.251.254.254.5.518.766.76,1.4,1.272,3.042,1.326,4.168.145a2.817,2.817,0,0,0-.232-4.075c-1.749-1.811-3.552-3.571-5.333-5.352a5.2,5.2,0,0,1-1.723-3.819,4.846,4.846,0,0,1,2.863-4.616,4.6,4.6,0,0,1,5.374.631c2.079,1.867,3.989,3.921,6,5.862,1.7,1.639,4.04,1.251,4.8-.759a2.893,2.893,0,0,0-.834-3.169,5.092,5.092,0,0,1-1.461-3.805,5.03,5.03,0,0,1,3.321-4.556,4.953,4.953,0,0,1,5.645,1.482q7.674,8.42,15.331,16.857a93.45,93.45,0,0,1,6.86,7.847,24.7,24.7,0,0,1-1.951,31.813c-3.105,3.384-6.416,6.585-9.727,9.773a25.039,25.039,0,0,1-18.177,7.023c-8.035-.03-16.071-.007-24.106-.007" transform="translate(-63.529 -45.136)" fill="#fff" opacity="0.507"/>
  </g>
</svg>
