<svg id="Group_253" data-name="Group 253" xmlns="http://www.w3.org/2000/svg" width="64.234" height="537" viewBox="0 0 64.234 537">
  <rect id="Rectangle_16" data-name="Rectangle 16" width="6" height="537" transform="translate(28.652)" fill="#fff"/>
  <path id="Polygon_5" data-name="Polygon 5" d="M14.869,3.157a4,4,0,0,1,5.862,0l8.628,9.291a4,4,0,0,1-2.931,6.722H9.173a4,4,0,0,1-2.931-6.722Z" transform="translate(64.234 250.821) rotate(90)" fill="#fff"/>
  <path id="Polygon_6" data-name="Polygon 6" d="M14.869,3.157a4,4,0,0,1,5.862,0l8.628,9.291a4,4,0,0,1-2.931,6.722H9.173a4,4,0,0,1-2.931-6.722Z" transform="translate(0 286.422) rotate(-90)" fill="#fff"/>
</svg>
