<svg id="Dental-emergencies-icon2" xmlns="http://www.w3.org/2000/svg" width="27.069" height="27.068" viewBox="0 0 27.069 27.068">
  <path id="Path_642" data-name="Path 642" d="M-120.19-185.614h7.613c.056.02.11.044.167.058a2.661,2.661,0,0,1,2.068,2.034,6.655,6.655,0,0,1,.087,1.364c.013.428,0,.857,0,1.3h.319c.96,0,1.922.026,2.881-.006a2.709,2.709,0,0,1,2.785,2.77c-.036,2.934-.008,5.868-.015,8.8a.334.334,0,0,0,.254.378,3.952,3.952,0,0,1,2.426,2.546c.075.222.122.454.181.681v1.057a7.249,7.249,0,0,1-.228.8c-.57,1.4-1.143,2.8-1.739,4.188a1.831,1.831,0,0,1-1.86,1.085,1.88,1.88,0,0,1-1.618-1.288c-.134-.409-.248-.824-.373-1.236-.024-.078-.058-.154-.115-.3-.053.141-.083.209-.1.279-.123.4-.238.809-.365,1.211a1.882,1.882,0,0,1-1.637,1.336,1.866,1.866,0,0,1-1.895-1.157c-.174-.4-.348-.807-.5-1.219a.357.357,0,0,0-.4-.271q-6.794.012-13.587,0a2.624,2.624,0,0,1-2.647-2.651q0-7.177,0-14.353a2.629,2.629,0,0,1,2.667-2.658c1,0,2.009,0,3.013,0h.293c0-.706,0-1.375,0-2.043a2.726,2.726,0,0,1,1.731-2.52C-120.589-185.493-120.388-185.549-120.19-185.614Zm14.857,8.886c0-.447,0-.859,0-1.272a1.622,1.622,0,0,0-1.8-1.8h-18.5c-.079,0-.159,0-.238,0a1.5,1.5,0,0,0-1.477,1.142,15.978,15.978,0,0,0-.116,1.925H-119c.088,0,.177,0,.264,0a.53.53,0,0,1,.5.547.511.511,0,0,1-.5.508c-.1.007-.194.005-.291.005h-8.4c0,.1-.01.166-.01.227q0,5.762,0,11.524a1.6,1.6,0,0,0,1.689,1.667q6.529,0,13.058,0c.083,0,.165-.007.259-.012a9.206,9.206,0,0,1-.852-2.675,5.013,5.013,0,0,1-4.456.86,4.886,4.886,0,0,1-3.354-3.007,5.051,5.051,0,0,1,3.1-6.686,4.8,4.8,0,0,1,3.96.326,5.063,5.063,0,0,1,2.731,4.8l.242-.118a3.9,3.9,0,0,1,2.9-.256c.268.079.523.287.783.286s.532-.213.81-.281c.4-.1.805-.147,1.216-.218v-6.443h-8.388a2.941,2.941,0,0,1-.343-.011.506.506,0,0,1-.452-.5c-.01-.345.232-.552.653-.552h8.546Zm-1.039,8.78a.551.551,0,0,1,.014.7.465.465,0,0,1-.518.176,1.007,1.007,0,0,1-.369-.235,2.938,2.938,0,0,0-3.7-.279,2.941,2.941,0,0,0-1.051,3.555q.792,1.927,1.595,3.849a.838.838,0,0,0,.805.573.846.846,0,0,0,.771-.653c.123-.4.241-.808.363-1.211a1.14,1.14,0,0,1,1.11-.918,1.154,1.154,0,0,1,1.11.923c.126.421.249.842.375,1.263a.792.792,0,0,0,.5.54.792.792,0,0,0,1.044-.5q.8-1.921,1.6-3.847a2.921,2.921,0,0,0-1.049-3.574A2.838,2.838,0,0,0-106.372-167.948Zm-10.024,3a4.035,4.035,0,0,0,4.025-4.012,4.031,4.031,0,0,0-4-4.01,4.032,4.032,0,0,0-4.025,4.011A4.034,4.034,0,0,0-116.4-164.944Zm5.08-15.916c0-.736.043-1.451-.011-2.158a1.631,1.631,0,0,0-1.632-1.532q-3.422-.024-6.844,0a1.606,1.606,0,0,0-1.608,1.4,14.712,14.712,0,0,0-.048,1.66c0,.207,0,.415,0,.615h1.271c0-.629,0-1.237,0-1.844a.513.513,0,0,1,.552-.565q3.25,0,6.5,0a.513.513,0,0,1,.556.562c0,.537,0,1.075,0,1.612v.252Zm-7.807-.008h5.474v-1.344h-5.483c0,.414,0,.809,0,1.2C-119.133-180.966-119.127-180.924-119.123-180.868Z" transform="translate(128.49 185.614)" fill="#ffc936"/>
  <path id="Path_643" data-name="Path 643" d="M91.232-15.622a1.077,1.077,0,0,1-1.121-1.1,1.118,1.118,0,0,1,1.118-1.119,1.116,1.116,0,0,1,1.094,1.088A1.079,1.079,0,0,1,91.232-15.622Z" transform="translate(-79.046 26.332)" fill="#ffc936"/>
  <path id="Path_644" data-name="Path 644" d="M63.809,91.822c.234,0,.461,0,.689,0a.4.4,0,1,1,0,.8c-.227,0-.454,0-.707,0,0,.24,0,.466,0,.691a.4.4,0,1,1-.8,0c0-.221,0-.441,0-.69-.237,0-.463,0-.688,0a.4.4,0,0,1-.452-.4.4.4,0,0,1,.45-.405c.215,0,.429,0,.644-.005a.285.285,0,0,0,.046-.017c0-.214,0-.439,0-.664a.4.4,0,0,1,.4-.448c.247,0,.4.169.4.449,0,.208,0,.416,0,.624A.328.328,0,0,0,63.809,91.822Z" transform="translate(-51.214 -75.172)" fill="#ffc936"/>
</svg>
