<svg id="Dental-icon2" xmlns="http://www.w3.org/2000/svg" width="27.677" height="28.461" viewBox="0 0 27.677 28.461">
  <path id="Path_640" data-name="Path 640" d="M41.677-212.439c-.26.4-.383.426-.8.194-.313-.173-.617-.362-.939-.514a.864.864,0,0,1-.491-.589,3.4,3.4,0,0,0-.249-.621c-.19.645-.4,1.256-1.175,1.447.764.2.992.8,1.143,1.46l.064-.015c.1-.281.2-.565.309-.842a.376.376,0,0,1,.55-.239.373.373,0,0,1,.232.494q-.358,1.032-.723,2.062a.386.386,0,0,1-.4.277.406.406,0,0,1-.4-.313q-.286-.808-.57-1.617a.561.561,0,0,0-.153-.249c-.07.37-.133.742-.21,1.111a38.846,38.846,0,0,1-1.8,5.662c-.793,2.1-1.613,4.2-2.345,6.325-.331.961-.459,1.993-.723,2.981a5.313,5.313,0,0,1-.512,1.183,1.74,1.74,0,0,1-1.013.7H30.8a2.466,2.466,0,0,1-1.482-1.425,5.477,5.477,0,0,1-.329-.791c-.445-1.484-.872-2.973-1.318-4.457a2.1,2.1,0,0,0-.309-.641,1.033,1.033,0,0,0-1.625-.093,2.255,2.255,0,0,0-.424.82c-.454,1.481-.858,2.978-1.33,4.453a2.985,2.985,0,0,1-1.749,2.134h-.659a1.861,1.861,0,0,1-1.238-1.008,4.179,4.179,0,0,1-.3-.8c-.178-.753-.308-1.518-.5-2.268-.167-.658-.389-1.3-.587-1.951-.262.59-.467,1.171-.672,1.752-.021.061-.043.122-.062.183a.422.422,0,0,1-.417.338.427.427,0,0,1-.416-.336c-.34-.984-.684-1.966-1.041-2.944a.7.7,0,0,0-.282-.338c-.544-.32-1.106-.608-1.651-.927a2.707,2.707,0,0,1-.416-.374v-.167a2.224,2.224,0,0,1,.384-.37c.561-.329,1.139-.629,1.7-.955a1.238,1.238,0,0,0,.259-.294c.006-.007.006-.018.01-.026a2.548,2.548,0,0,0,.021-2.334,21.63,21.63,0,0,1-1.3-4.428,8.043,8.043,0,0,1,.191-4.591,13.353,13.353,0,0,1,.985-1.783.383.383,0,0,1,.607-.139.421.421,0,0,1,.043.654,6.062,6.062,0,0,0-1.174,4.547,24.051,24.051,0,0,0,1.415,5.483.867.867,0,0,0,.071.121c.056-.158.107-.291.151-.427.071-.217.184-.394.434-.394s.36.165.437.387c.335.967.675,1.934,1.028,2.894a.7.7,0,0,0,.281.337c.569.334,1.149.647,1.728.963.181.1.355.226.3.443a.749.749,0,0,1-.306.41c-.613.365-1.244.7-1.878,1.051.237.7.507,1.377.694,2.077.289,1.087.514,2.19.781,3.283a2.257,2.257,0,0,0,.273.659.8.8,0,0,0,1.347.146,3.557,3.557,0,0,0,.679-1.184c.476-1.483.9-2.985,1.333-4.481a2.581,2.581,0,0,1,.776-1.342,1.919,1.919,0,0,1,3.048.8c.246.592.372,1.235.562,1.851.364,1.181.723,2.363,1.111,3.536a2.353,2.353,0,0,0,.435.731.848.848,0,0,0,1.516-.172,5.62,5.62,0,0,0,.367-1.354,25.457,25.457,0,0,1,1.321-4.509c.869-2.323,1.773-4.633,2.624-6.963a18.2,18.2,0,0,0,.993-4.025.24.24,0,0,0-.157-.3.481.481,0,0,1-.345-.453.488.488,0,0,1,.363-.441.347.347,0,0,0,.238-.4,5.3,5.3,0,0,0-.921-2.708c-.087.233-.163.425-.231.62q-.372,1.057-.739,2.116c-.076.22-.171.413-.447.413s-.369-.191-.446-.412c-.295-.845-.588-1.69-.9-2.529a.661.661,0,0,0-.264-.317c-.5-.293-1.006-.566-1.513-.843-.179-.1-.359-.223-.3-.44a.764.764,0,0,1,.306-.41c.4-.254.825-.47,1.24-.7l0-.079c-.359-.056-.716-.139-1.077-.164a5.877,5.877,0,0,0-3.337.793,4.3,4.3,0,0,1-4.375.025,6.083,6.083,0,0,0-3.2-.826,5.587,5.587,0,0,0-2.44.661c-.28.149-.488.1-.622-.115-.145-.237-.072-.461.208-.614a6.31,6.31,0,0,1,3.241-.774,6.331,6.331,0,0,1,3.032.844,3.626,3.626,0,0,0,3.809.033,6.472,6.472,0,0,1,5.266-.575l.126.039c.224-.635.434-1.262.667-1.882.1-.269.248-.521.374-.781H35.2a3.47,3.47,0,0,1,.274.492c.3.813.575,1.634.877,2.445a.7.7,0,0,0,.283.333c.5.3,1.024.567,1.534.855a.434.434,0,0,1,0,.818c-.308.178-.621.347-.918.511.2.472.424.918.579,1.386s.238.954.365,1.479c.208-.594.4-1.148.6-1.7a.422.422,0,0,1,.418-.333.423.423,0,0,1,.416.336,5.678,5.678,0,0,1,.279.809A1.969,1.969,0,0,0,41.214-213c.178.071.31.263.463.4ZM20.31-202.3c-.485-.268-.922-.517-1.366-.752a.765.765,0,0,1-.394-.466c-.23-.687-.479-1.367-.736-2.092-.044.107-.075.172-.1.239-.213.6-.437,1.2-.633,1.8a.876.876,0,0,1-.462.546c-.435.226-.859.473-1.315.726.461.254.882.5,1.313.719a.873.873,0,0,1,.463.545c.189.588.4,1.168.61,1.75.031.087.072.17.124.291.257-.724.5-1.4.733-2.081a.765.765,0,0,1,.389-.47C19.382-201.781,19.819-202.031,20.31-202.3Zm16.848-15.164c-.362-.2-.681-.4-1.019-.56a1,1,0,0,1-.56-.666c-.166-.53-.366-1.05-.573-1.634-.211.6-.409,1.14-.585,1.683a.919.919,0,0,1-.493.589c-.354.173-.692.379-1.073.59.413.229.792.415,1.144.643a1.015,1.015,0,0,1,.371.442c.226.563.415,1.141.638,1.772.206-.584.4-1.109.573-1.643a.978.978,0,0,1,.544-.646C36.469-217.058,36.794-217.263,37.158-217.466Z" transform="translate(-14 222)" fill="#ffc936"/>
  <path id="Path_641" data-name="Path 641" d="M70.49-134.7a4.58,4.58,0,0,1,4.464-4.252c.347-.006.536.145.546.421s-.175.439-.517.452a3.714,3.714,0,0,0-3.619,3.607c0,.362-.178.54-.476.525s-.433-.212-.414-.58C70.477-134.586,70.484-134.643,70.49-134.7Z" transform="translate(-67.361 142.979)" fill="#ffc936"/>
</svg>
