<svg id="Dental-emergencies-icon" xmlns="http://www.w3.org/2000/svg" width="56.793" height="56.794" viewBox="0 0 56.793 56.794">
  <path id="Path_642" data-name="Path 642" d="M-111.075-185.614H-95.1c.117.041.232.092.351.123a5.582,5.582,0,0,1,4.339,4.268,13.962,13.962,0,0,1,.183,2.861c.027.9.006,1.8.006,2.735h.669c2.015,0,4.032.055,6.045-.012a5.683,5.683,0,0,1,5.842,5.812c-.075,6.155-.017,12.311-.032,18.467a.7.7,0,0,0,.533.794,8.293,8.293,0,0,1,5.089,5.343c.158.466.255.952.38,1.429v2.218a15.209,15.209,0,0,1-.478,1.685c-1.2,2.937-2.4,5.873-3.648,8.788a3.842,3.842,0,0,1-3.9,2.277,3.945,3.945,0,0,1-3.4-2.7c-.281-.858-.519-1.73-.782-2.594-.05-.164-.122-.322-.241-.634-.112.3-.175.438-.22.586-.257.847-.5,1.7-.766,2.541a3.948,3.948,0,0,1-3.436,2.8,3.915,3.915,0,0,1-3.975-2.427c-.366-.846-.729-1.694-1.051-2.557a.749.749,0,0,0-.835-.568q-14.254.024-28.507.01a5.506,5.506,0,0,1-5.553-5.561q-.008-15.058,0-30.115a5.516,5.516,0,0,1,5.6-5.578c2.107-.006,4.215,0,6.322,0h.615c0-1.482-.007-2.885,0-4.288a5.72,5.72,0,0,1,3.632-5.287C-111.913-185.361-111.49-185.478-111.075-185.614ZM-79.9-166.97c0-.937,0-1.8,0-2.668a3.4,3.4,0,0,0-3.773-3.77H-122.5c-.166,0-.333,0-.5,0a3.158,3.158,0,0,0-3.1,2.4,33.521,33.521,0,0,0-.243,4.039h17.767c.185,0,.371-.01.554.006a1.112,1.112,0,0,1,1.042,1.148,1.072,1.072,0,0,1-1.055,1.065c-.2.016-.406.012-.61.012h-17.614c-.01.22-.02.348-.02.477q0,12.09,0,24.18a3.353,3.353,0,0,0,3.544,3.5q13.7.006,27.4,0c.173,0,.347-.015.543-.024-.646-1.869-1.709-3.539-1.787-5.612a10.517,10.517,0,0,1-9.349,1.8,10.252,10.252,0,0,1-7.036-6.309,10.6,10.6,0,0,1,6.506-14.029,10.08,10.08,0,0,1,8.309.685c3.937,2.153,5.747,5.6,5.729,10.079l.507-.249a8.192,8.192,0,0,1,6.082-.537c.562.165,1.1.6,1.642.6.566,0,1.116-.447,1.7-.589.833-.2,1.689-.308,2.551-.458v-13.518h-17.6a6.167,6.167,0,0,1-.72-.022,1.062,1.062,0,0,1-.948-1.049c-.021-.724.487-1.158,1.37-1.158H-79.9Zm-2.181,18.422a1.156,1.156,0,0,1,.028,1.477.976.976,0,0,1-1.087.37,2.113,2.113,0,0,1-.774-.493,6.164,6.164,0,0,0-7.756-.586,6.17,6.17,0,0,0-2.206,7.46q1.661,4.042,3.346,8.075a1.757,1.757,0,0,0,1.689,1.2,1.775,1.775,0,0,0,1.617-1.37c.258-.846.506-1.7.762-2.542a2.391,2.391,0,0,1,2.328-1.926,2.422,2.422,0,0,1,2.329,1.938c.265.883.522,1.767.787,2.65a1.661,1.661,0,0,0,1.052,1.134,1.663,1.663,0,0,0,2.19-1.052q1.687-4.031,3.35-8.072a6.128,6.128,0,0,0-2.2-7.5A5.954,5.954,0,0,0-82.084-148.549Zm-21.032,6.3a8.466,8.466,0,0,0,8.445-8.418,8.458,8.458,0,0,0-8.39-8.414,8.46,8.46,0,0,0-8.444,8.416A8.463,8.463,0,0,0-103.116-142.246Zm10.658-33.394c0-1.544.091-3.044-.023-4.528a3.421,3.421,0,0,0-3.424-3.214q-7.18-.051-14.36,0a3.37,3.37,0,0,0-3.373,2.938,30.863,30.863,0,0,0-.1,3.483c-.008.435,0,.871,0,1.289h2.666c0-1.32-.005-2.595,0-3.87a1.076,1.076,0,0,1,1.158-1.186q6.82-.008,13.639,0a1.077,1.077,0,0,1,1.167,1.178c.009,1.127,0,2.255,0,3.382v.528Zm-16.379-.017h11.484v-2.82h-11.5c0,.869,0,1.7,0,2.528C-108.857-175.861-108.845-175.773-108.837-175.657Z" transform="translate(128.49 185.614)" fill="#fff"/>
  <path id="Path_643" data-name="Path 643" d="M91.232-15.622a1.077,1.077,0,0,1-1.121-1.1,1.118,1.118,0,0,1,1.118-1.119,1.116,1.116,0,0,1,1.094,1.088A1.079,1.079,0,0,1,91.232-15.622Z" transform="translate(-65.816 36.487)" fill="#fff"/>
  <path id="Path_644" data-name="Path 644" d="M67.259,93.815c.644,0,1.271-.009,1.9,0a1.11,1.11,0,1,1-.011,2.214c-.625.008-1.25,0-1.948,0,0,.662,0,1.284,0,1.9a1.115,1.115,0,1,1-2.212,0c0-.608,0-1.215,0-1.9-.654,0-1.275,0-1.9,0a1.1,1.1,0,0,1-1.245-1.1,1.113,1.113,0,0,1,1.24-1.116c.591-.008,1.182-.01,1.774-.015a.783.783,0,0,0,.127-.048c0-.589,0-1.21,0-1.83a1.091,1.091,0,0,1,1.107-1.235c.682,0,1.1.465,1.105,1.238.005.573,0,1.146.009,1.719A.9.9,0,0,0,67.259,93.815Z" transform="translate(-40.689 -59.978)" fill="#fff"/>
</svg>
