<svg xmlns="http://www.w3.org/2000/svg" width="25" height="30" viewBox="0 0 25 30">
  <g id="Dentist_Icon" data-name="Dentist Icon" transform="translate(-83.669 0)">
    <g id="Group_36164" data-name="Group 36164" transform="translate(83.669 0)">
      <g id="Group_607" data-name="Group 607">
        <path id="Path_637" data-name="Path 637" d="M311.911-425.614c.68.177,1.357.361,2.039.528q4.682,1.149,9.366,2.291a.925.925,0,0,1,.81,1.021c0,3.322.068,6.645-.018,9.965a18.739,18.739,0,0,1-3.632,11.086,13.258,13.258,0,0,1-8.381,5.07,3.647,3.647,0,0,1-1.593-.159,13.589,13.589,0,0,1-9.794-8.625,21.238,21.238,0,0,1-1.543-8.871.437.437,0,0,1,.441-.478.437.437,0,0,1,.443.476c.056,1.159.041,2.328.187,3.476a17.256,17.256,0,0,0,3.5,8.842,12.521,12.521,0,0,0,7.334,4.409,3.71,3.71,0,0,0,1.787-.163,12.628,12.628,0,0,0,8.722-7.609,19.335,19.335,0,0,0,1.551-6.1c.07-.777.105-1.559.109-2.339.012-2.911,0-5.823,0-8.734v-.368c-.832-.206-1.647-.41-2.463-.61-2.933-.717-5.867-1.429-8.8-2.155a1.485,1.485,0,0,0-.744.028q-5.524,1.355-11.05,2.7c-.037.009-.073.021-.139.041v.345q0,3.019,0,6.038c0,.223-.04.435-.274.492a.576.576,0,0,1-.451-.075.642.642,0,0,1-.154-.441c-.01-1.749-.006-3.5-.006-5.246,0-.342,0-.684,0-1.026a.923.923,0,0,1,.777-.99c1.133-.278,2.267-.551,3.4-.828q3.942-.964,7.883-1.931a.986.986,0,0,0,.155-.067Z" transform="translate(-299.152 425.614)" fill="#50595c"/>
        <path id="Path_638" data-name="Path 638" d="M347.326-365.115c0,1.338-.071,2.681.015,4.014a14.124,14.124,0,0,0,2.713,7.883,9.166,9.166,0,0,0,5.938,3.541,3.081,3.081,0,0,0,1.256-.237,9.361,9.361,0,0,0,5.641-4.414c.055-.092.106-.187.161-.279.181-.3.409-.389.654-.254a.448.448,0,0,1,.127.684c-.327.521-.643,1.053-1.018,1.54a10,10,0,0,1-6.495,3.84,3.87,3.87,0,0,1-1.579-.251,10.349,10.349,0,0,1-6.691-5.71,15.514,15.514,0,0,1-1.541-5.549c-.082-.942-.1-1.891-.108-2.837-.015-2.061-.005-4.123,0-6.184a.9.9,0,0,1,.825-1.055q4.265-1.066,8.531-2.127a1.441,1.441,0,0,1,.663-.006q4.3,1.057,8.585,2.139a.891.891,0,0,1,.789,1.026c0,2.472.011,4.944,0,7.415a17.3,17.3,0,0,1-1,5.649c-.114.325-.326.452-.6.37a.455.455,0,0,1-.255-.649,17.59,17.59,0,0,0,.958-6.212c-.029-2.129-.01-4.26,0-6.389,0-.234-.059-.339-.3-.4-2.769-.684-5.535-1.38-8.3-2.068a.8.8,0,0,0-.368,0c-2.777.689-5.552,1.385-8.33,2.072a.316.316,0,0,0-.29.373c.012,1.358.006,2.716.006,4.074Z" transform="translate(-343.598 375.668)" fill="#50595c"/>
        <path id="Path_639" data-name="Path 639" d="M410.77-265.163a4.76,4.76,0,0,1,.885-2.977,2.942,2.942,0,0,1,3.426-1.015,4.842,4.842,0,0,0,3.164,0,3.089,3.089,0,0,1,4.047,2.2,5.9,5.9,0,0,1-.449,4.539c-.273.562-.611,1.092-.875,1.657a14.943,14.943,0,0,0-.777,1.887c-.263.845-.625,1.2-1.376,1.162A1.352,1.352,0,0,1,417.587-259c-.066-.472-.066-.953-.128-1.426a1.885,1.885,0,0,0-.209-.633.646.646,0,0,0-1.161,0,5.681,5.681,0,0,0-.279,1.24,10.5,10.5,0,0,1-.184,1.205,1.2,1.2,0,0,1-1.288.9,1.145,1.145,0,0,1-1.142-.995,10.831,10.831,0,0,0-1.272-2.848,8.509,8.509,0,0,1-1.1-2.943C410.788-264.755,410.781-265.019,410.77-265.163Zm.849-.14c.072.421.122.847.219,1.262a10.4,10.4,0,0,0,1.219,2.681,8.554,8.554,0,0,1,.982,2.369c.046.21.112.409.381.4a.411.411,0,0,0,.4-.4c.052-.336.055-.679.111-1.014a7.006,7.006,0,0,1,.284-1.3,1.442,1.442,0,0,1,1.461-.978,1.435,1.435,0,0,1,1.437.969,7.1,7.1,0,0,1,.288,1.3c.059.344.063.7.118,1.042a.4.4,0,0,0,.41.383c.255,0,.317-.193.36-.39a8.115,8.115,0,0,1,.879-2.19c.292-.53.59-1.058.855-1.6a5.185,5.185,0,0,0,.57-3.284,4.42,4.42,0,0,0-.258-.9,2.184,2.184,0,0,0-2.921-1.328,4.71,4.71,0,0,1-2.051.3,14.772,14.772,0,0,1-1.659-.366,2.1,2.1,0,0,0-2.5,1A4.133,4.133,0,0,0,411.619-265.3Z" transform="translate(-404.17 278.518)" fill="#50595c"/>
      </g>
    </g>
  </g>
</svg>
