<svg id="Dental-icon" xmlns="http://www.w3.org/2000/svg" width="54.54" height="55.406" viewBox="0 0 54.54 55.406">
  <path id="Path_640" data-name="Path 640" d="M68.54-203.387c-.512.772-.755.83-1.585.377-.616-.336-1.217-.7-1.851-1a1.687,1.687,0,0,1-.968-1.146,6.575,6.575,0,0,0-.491-1.21c-.374,1.255-.789,2.444-2.316,2.817,1.506.4,1.955,1.56,2.253,2.843l.127-.029c.2-.547.39-1.1.609-1.639a.744.744,0,0,1,1.084-.465.723.723,0,0,1,.457.962q-.7,2.009-1.424,4.014a.76.76,0,0,1-.785.538.8.8,0,0,1-.795-.61q-.563-1.573-1.123-3.148a1.09,1.09,0,0,0-.3-.484c-.137.721-.261,1.445-.415,2.163a74.961,74.961,0,0,1-3.552,11.021c-1.563,4.1-3.178,8.175-4.622,12.314-.653,1.872-.9,3.88-1.424,5.8a10.278,10.278,0,0,1-1.01,2.3,3.429,3.429,0,0,1-2,1.368h-1.3a4.834,4.834,0,0,1-2.921-2.775,10.588,10.588,0,0,1-.648-1.54c-.876-2.889-1.718-5.788-2.6-8.676a4.074,4.074,0,0,0-.609-1.248,2.051,2.051,0,0,0-3.2-.181,4.372,4.372,0,0,0-.836,1.6c-.895,2.883-1.69,5.8-2.622,8.669-.587,1.807-1.479,3.449-3.446,4.153h-1.3a3.659,3.659,0,0,1-2.439-1.961,8.072,8.072,0,0,1-.584-1.558c-.351-1.466-.608-2.955-.983-4.415-.329-1.281-.767-2.533-1.157-3.8-.516,1.149-.921,2.28-1.325,3.411-.042.118-.085.237-.122.357a.829.829,0,0,1-.821.659.838.838,0,0,1-.82-.655c-.67-1.915-1.347-3.828-2.052-5.73a1.374,1.374,0,0,0-.556-.658c-1.073-.622-2.18-1.184-3.254-1.8a5.315,5.315,0,0,1-.82-.728v-.325a4.359,4.359,0,0,1,.756-.721c1.106-.64,2.244-1.224,3.353-1.859a2.421,2.421,0,0,0,.511-.571c.011-.013.012-.034.02-.05a4.907,4.907,0,0,0,.042-4.544,41.72,41.72,0,0,1-2.556-8.62c-.556-3.007-.826-6.026.377-8.937a25.9,25.9,0,0,1,1.94-3.471.76.76,0,0,1,1.2-.271.813.813,0,0,1,.086,1.273,11.7,11.7,0,0,0-2.313,8.851A46.364,46.364,0,0,0,20.2-192.047a1.684,1.684,0,0,0,.14.235c.111-.307.211-.567.3-.831.139-.423.363-.767.856-.768s.71.322.861.754c.66,1.883,1.329,3.764,2.025,5.634a1.369,1.369,0,0,0,.553.657c1.121.649,2.264,1.26,3.405,1.875.356.192.7.441.583.862a1.46,1.46,0,0,1-.6.8c-1.208.71-2.451,1.363-3.7,2.046.467,1.362,1,2.681,1.367,4.044.569,2.115,1.013,4.264,1.539,6.391a4.365,4.365,0,0,0,.538,1.283,1.591,1.591,0,0,0,2.654.284,6.9,6.9,0,0,0,1.337-2.3c.938-2.888,1.77-5.81,2.626-8.724a5.011,5.011,0,0,1,1.53-2.612,3.8,3.8,0,0,1,6.007,1.549c.485,1.153.733,2.4,1.107,3.6.717,2.3,1.425,4.6,2.189,6.883a4.569,4.569,0,0,0,.858,1.423,1.68,1.68,0,0,0,2.987-.334,10.837,10.837,0,0,0,.723-2.636,49.1,49.1,0,0,1,2.6-8.778c1.713-4.523,3.493-9.02,5.17-13.556a35.087,35.087,0,0,0,1.957-7.835.465.465,0,0,0-.308-.579.938.938,0,0,1-.68-.882.953.953,0,0,1,.716-.859.675.675,0,0,0,.47-.787,10.238,10.238,0,0,0-1.816-5.271c-.172.453-.321.827-.456,1.206q-.733,2.058-1.457,4.119c-.151.429-.338.8-.88.8s-.727-.371-.879-.8c-.581-1.644-1.159-3.29-1.767-4.924a1.291,1.291,0,0,0-.519-.617c-.98-.571-1.982-1.1-2.981-1.64-.353-.19-.708-.434-.594-.857a1.489,1.489,0,0,1,.6-.8c.79-.494,1.626-.914,2.443-1.363l0-.155c-.707-.109-1.411-.27-2.122-.319a11.7,11.7,0,0,0-6.577,1.544,8.554,8.554,0,0,1-8.621.049,12.1,12.1,0,0,0-6.3-1.608,11.115,11.115,0,0,0-4.808,1.286c-.552.29-.962.2-1.225-.223-.285-.462-.141-.9.409-1.195a12.557,12.557,0,0,1,6.387-1.508,12.592,12.592,0,0,1,5.975,1.643,7.221,7.221,0,0,0,7.506.065,12.892,12.892,0,0,1,10.377-1.12l.249.076c.44-1.236.856-2.458,1.315-3.663.2-.524.489-1.015.737-1.52h.757a6.729,6.729,0,0,1,.54.958c.587,1.582,1.133,3.18,1.727,4.759a1.375,1.375,0,0,0,.557.649c.994.579,2.019,1.1,3.022,1.665a.841.841,0,0,1-.007,1.593c-.607.347-1.225.675-1.809,1,.4.919.836,1.786,1.141,2.7s.47,1.856.719,2.878c.41-1.156.793-2.236,1.177-3.315a.83.83,0,0,1,.824-.649.832.832,0,0,1,.82.654,10.963,10.963,0,0,1,.549,1.575,3.846,3.846,0,0,0,2.6,3.05c.351.137.61.512.912.777ZM26.434-183.654c-.956-.522-1.816-1.007-2.692-1.463a1.5,1.5,0,0,1-.776-.908c-.454-1.337-.945-2.662-1.451-4.073-.088.208-.148.334-.2.466-.42,1.167-.861,2.327-1.247,3.505a1.711,1.711,0,0,1-.91,1.063c-.858.439-1.694.921-2.591,1.413.909.495,1.738.966,2.587,1.4a1.706,1.706,0,0,1,.912,1.061c.372,1.145.8,2.273,1.2,3.407.061.169.142.331.245.566.506-1.41.993-2.724,1.444-4.051a1.494,1.494,0,0,1,.767-.915C24.607-182.639,25.468-183.125,26.434-183.654Zm33.2-29.521c-.713-.392-1.341-.782-2.008-1.09a1.96,1.96,0,0,1-1.1-1.3c-.328-1.032-.721-2.044-1.129-3.181-.417,1.176-.806,2.219-1.152,3.275a1.8,1.8,0,0,1-.972,1.146c-.7.338-1.364.738-2.114,1.149.814.445,1.561.807,2.254,1.253a1.983,1.983,0,0,1,.731.86c.446,1.1.817,2.222,1.258,3.45.406-1.137.8-2.158,1.13-3.2a1.91,1.91,0,0,1,1.071-1.257C58.278-212.38,58.918-212.778,59.634-213.174Z" transform="translate(-14 222)" fill="#fff"/>
  <path id="Path_641" data-name="Path 641" d="M70.5-131.057a8.505,8.505,0,0,1,8.29-7.9c.644-.011.995.27,1.014.782s-.324.815-.96.839a6.9,6.9,0,0,0-6.72,6.7c0,.672-.331,1-.884.976s-.8-.394-.769-1.077C70.481-130.842,70.494-130.95,70.5-131.057Z" transform="translate(-64.361 147.939)" fill="#fff"/>
</svg>
