<svg id="Dental-emergencies-icon-3" xmlns="http://www.w3.org/2000/svg" width="147.396" height="147.396" viewBox="0 0 147.396 147.396">
  <path id="Path_642" data-name="Path 642" d="M-83.293-185.614h41.455c.3.107.6.238.912.318,5.887,1.526,9.82,5.165,11.26,11.076.578,2.374.4,4.943.475,7.426.069,2.331.015,4.666.015,7.1h1.737c5.23,0,10.464.142,15.687-.032A14.75,14.75,0,0,1,3.412-144.645c-.194,15.974-.044,31.952-.083,47.928a1.819,1.819,0,0,0,1.383,2.059A21.522,21.522,0,0,1,17.919-80.791c.409,1.209.662,2.471.987,3.709v5.758a39.473,39.473,0,0,1-1.239,4.372C14.56-59.331,11.441-51.712,8.2-44.146c-1.716,4.005-5.631,6.162-10.126,5.908a10.238,10.238,0,0,1-8.812-7.013c-.729-2.227-1.348-4.489-2.029-6.731-.13-.427-.316-.836-.626-1.646-.29.768-.454,1.137-.571,1.52-.667,2.2-1.3,4.406-1.989,6.595a10.247,10.247,0,0,1-8.916,7.275,10.161,10.161,0,0,1-10.317-6.3c-.95-2.2-1.893-4.4-2.729-6.637a1.944,1.944,0,0,0-2.168-1.475q-36.992.063-73.985.025a14.289,14.289,0,0,1-14.411-14.433q-.022-39.079,0-78.158a14.317,14.317,0,0,1,14.521-14.476c5.47-.016,10.939,0,16.409,0h1.6c0-3.846-.018-7.487,0-11.127a14.845,14.845,0,0,1,9.427-13.721C-85.467-184.957-84.37-185.26-83.293-185.614Zm80.9,48.386c0-2.432,0-4.678,0-6.924,0-6.307-3.481-9.783-9.792-9.783H-112.936c-.432,0-.864-.01-1.3.007-3.831.149-7.4,2.588-8.042,6.219-.6,3.392-.446,6.915-.629,10.482h46.11c.48,0,.963-.027,1.438.017a2.885,2.885,0,0,1,2.7,2.979,2.781,2.781,0,0,1-2.738,2.764c-.525.04-1.055.03-1.582.03q-22.022,0-44.043,0h-1.671c-.025.57-.053.9-.053,1.237q0,31.377,0,62.753c0,5.392,3.747,9.075,9.2,9.078q35.551.016,71.1,0c.45,0,.9-.04,1.41-.063C-42.7-63.282-45.457-67.615-45.661-73c-7.5,5.357-15.564,7.123-24.263,4.683A26.607,26.607,0,0,1-88.186-84.686,27.506,27.506,0,0,1-71.3-121.095a26.162,26.162,0,0,1,21.563,1.777c10.217,5.588,14.914,14.525,14.869,26.159.553-.271.934-.459,1.316-.645A21.262,21.262,0,0,1-17.769-95.2c1.46.427,2.845,1.565,4.262,1.56,1.468-.006,2.9-1.159,4.409-1.529,2.161-.528,4.384-.8,6.621-1.188v-35.082H-4.252q-21.949,0-43.9,0a16.006,16.006,0,0,1-1.868-.058,2.756,2.756,0,0,1-2.461-2.724c-.055-1.879,1.265-3.005,3.555-3.006q22.309,0,44.619,0Zm-5.66,47.81c.888,1.348,1.034,2.605.074,3.834a2.532,2.532,0,0,1-2.822.959,5.484,5.484,0,0,1-2.008-1.28,16,16,0,0,0-20.13-1.52,16.013,16.013,0,0,0-5.724,19.36q4.311,10.491,8.683,20.957a4.561,4.561,0,0,0,4.384,3.122,4.607,4.607,0,0,0,4.2-3.556c.671-2.2,1.312-4.4,1.979-6.6.978-3.221,3.155-5.017,6.043-5s5.088,1.841,6.044,5.028c.687,2.291,1.355,4.587,2.043,6.878a4.311,4.311,0,0,0,2.729,2.942c2.354.879,4.617-.181,5.685-2.731Q7.5-57.483,11.821-67.97A15.9,15.9,0,0,0,6.108-87.433,15.451,15.451,0,0,0-8.052-89.419ZM-62.636-73.061A21.971,21.971,0,0,0-40.72-94.908,21.95,21.95,0,0,0-62.5-116.745,21.956,21.956,0,0,0-84.411-94.9,21.965,21.965,0,0,0-62.636-73.061Zm27.661-86.667c0-4.008.235-7.9-.06-11.752a8.879,8.879,0,0,0-8.886-8.342q-18.633-.133-37.268,0a8.745,8.745,0,0,0-8.755,7.626,80.1,80.1,0,0,0-.259,9.04c-.021,1.13,0,2.26,0,3.346h6.92c0-3.426-.014-6.735.005-10.043a2.792,2.792,0,0,1,3.006-3.077q17.7-.021,35.4,0a2.794,2.794,0,0,1,3.028,3.058c.022,2.926.006,5.852.006,8.778v1.371Zm-42.509-.045h29.8v-7.32H-77.539c0,2.254,0,4.408,0,6.561C-77.536-160.3-77.506-160.073-77.485-159.773Z" transform="translate(128.49 185.614)" fill="#ffc936"/>
  <path id="Path_643" data-name="Path 643" d="M93.76-10.622A3.5,3.5,0,0,1,90.111-14.2a3.638,3.638,0,0,1,3.64-3.641,3.633,3.633,0,0,1,3.56,3.542A3.513,3.513,0,0,1,93.76-10.622Z" transform="translate(-27.98 64.944)" fill="#ffc936"/>
  <path id="Path_644" data-name="Path 644" d="M71.219,96.1c1.115,0,2.2-.015,3.284,0a1.921,1.921,0,1,1-.019,3.833c-1.082.014-2.164,0-3.372,0,0,1.146.007,2.222,0,3.3a1.929,1.929,0,1,1-3.83-.006c-.007-1.052,0-2.1,0-3.29-1.132,0-2.207.007-3.282,0a1.907,1.907,0,0,1-2.155-1.906A1.927,1.927,0,0,1,63.99,96.1c1.023-.014,2.047-.017,3.07-.026a1.355,1.355,0,0,0,.22-.082c0-1.019-.006-2.094,0-3.168A1.888,1.888,0,0,1,69.2,90.687c1.18,0,1.9.8,1.913,2.143.009.992.008,1.983.016,2.975A1.563,1.563,0,0,0,71.219,96.1Z" transform="translate(-3.465 -6.472)" fill="#ffc936"/>
</svg>
