<svg xmlns="http://www.w3.org/2000/svg" width="131.353" height="147.782" viewBox="0 0 131.353 147.782">
  <g id="Dental-Problems-icon-3" transform="translate(0.242 0.501)">
    <path id="Path_645" data-name="Path 645" d="M96.451,11.562C94.41,12.2,92.7,12.733,91,13.277c-2.011.645-2.941-.334-2.7-2.172,1.035-7.747,2.15-15.485,3.409-23.2.124-.76,1.426-1.328,2.182-1.985.473.894,1.437,1.845,1.34,2.674-.641,5.512-1.51,11-2.3,16.491-.142.99-.253,1.985-.447,3.53,1.927-.613,3.464-1.122,5.014-1.591,3.032-.918,3.9-.121,3.346,3.054a9.085,9.085,0,0,0-.136,3.381l4.962-9.812c-.361-.253-.458-.379-.537-.368-8.216,1.118-6.865-.575-4.779-6.329.965-2.659,1.8-5.375,2.967-7.942.352-.775,1.619-1.134,2.466-1.683.344.969,1.166,2.067.946,2.884-.808,3-1.961,5.911-3.107,9.206,1.8-.243,3.118-.492,4.445-.585,3.038-.214,3.768.8,2.469,3.579C108.943,5.85,107.2,9.225,105.4,12.858L113.475,12q.532-2.8,1.061-5.575c.445-2.357,1.6-3.87,4.215-2.979,4.247,1.446,8.425,3.1,12.675,4.542,1,.339,2.473.644,3.212.166,19.852-12.85,44.18-.3,49.1,23.156,1.257,6,1.075,12.417.752,18.6-1,19.084-4.011,37.858-10.8,55.815a168.106,168.106,0,0,1-8.478,18.123c-2.476,4.747-6.731,6.642-10.923,5.547a10.751,10.751,0,0,1-7.8-10.391c-.121-4.536-.01-9.079-.046-13.62a20.349,20.349,0,0,0-.286-4.06c-1.588-7.433-7.569-12.451-14-11.849-6.581.617-11.968,6.934-12.234,14.611-.165,4.761-.012,9.534-.051,14.3-.046,5.554-2.808,9.532-7.492,10.891-4.443,1.289-8.443-.661-11.431-5.77-8.413-14.378-12.851-30.135-15.791-46.372-1.069-5.9-1.706-11.884-2.608-17.82-.464-3.052-.295-5.832,2.17-8.118,1.6-1.483,1.859-3.169,1.326-5.487-2.061-8.972-.1-17.253,6.106-24.033A16.083,16.083,0,0,0,96.451,11.562Zm23.358-4.081c-1.561,3.5-2.1,5.885.1,7.952,2.737,2.577,3.154,5.543,1.873,8.943a13.542,13.542,0,0,0-.714,2.968,6.174,6.174,0,0,1-4.888,5.7A18.555,18.555,0,0,0,106.084,39.5a11.44,11.44,0,0,1-5.414,3.684,15.1,15.1,0,0,0-8.748,6.471c-1.029,1.623-2.475,2.991-3.43,4.649a6.773,6.773,0,0,0-1.177,3.978c1.885,11.273,3.577,22.6,6.105,33.738a99.254,99.254,0,0,0,12.082,29.8c1.284,2.105,2.976,3.6,5.575,2.842a5.392,5.392,0,0,0,4-5.334c.072-1.359-.01-2.726.042-4.087.2-5.2-.166-10.512.764-15.583,1.959-10.68,12.337-17.118,22.05-14.275,7.317,2.143,13.029,9.814,13.245,18.014.131,4.992.026,9.991.054,14.987.017,3,1.165,5.453,4.184,6.292,2.946.82,4.643-1.167,5.9-3.493,1.455-2.69,2.972-5.358,4.223-8.144C176.026,89.658,179.725,64.867,180,39.521c.128-11.71-4.957-21.339-15.026-27.795-8.629-5.533-20.8-5.093-27.71,1.125,3.51,1.533,6.767,3.005,10.066,4.376,1.585.658,3.625,1.069,2.938,3.347-.745,2.471-2.947,1.966-4.533,1.17-4.727-2.375-9.338-4.982-13.972-7.54C127.859,12.046,123.985,9.831,119.808,7.481ZM90.5,42.729a30.942,30.942,0,0,1,5.1-2.567,18.36,18.36,0,0,0,9.366-6.234,12.265,12.265,0,0,1,5.795-3.76c4.31-1.225,6.244-3.83,6.6-8.12a4.577,4.577,0,0,0-3.679-5.027C100.531,15.342,87.618,29.623,90.5,42.729Z" transform="translate(-53.821 17.264)" fill="#ffc936" stroke="#57c1ff" stroke-width="0.5"/>
    <path id="Path_646" data-name="Path 646" d="M64.652,23.473c-2.516,2.075-4.548,3.74-6.567,5.42s-3.432,1.141-3.971-1.288c-2.162-9.727-4.288-19.464-6.248-29.233-.2-1,.8-2.25,1.242-3.382.808.916,2.095,1.717,2.345,2.766,1.884,7.908,3.56,15.867,5.318,23.805.168.756.447,1.485.788,2.594,1.921-1.539,3.6-2.87,5.267-4.224,3.837-3.123,3.912-3.112,6.046,1.648V13c-2.057,1.108-3.917,2.137-5.8,3.12-2.9,1.516-4.093.912-4.166-2.263-.218-9.53-.431-19.06-.447-28.59,0-1.147,1.214-2.3,1.866-3.444.655,1.122,1.858,2.233,1.879,3.366.159,8.6.087,17.2.087,26.837,3.011-1.652,5.031-2.78,7.069-3.874,2.292-1.231,3.6-.5,3.55,2.075-.222,12.285-.476,24.57-.86,36.851-.03.957-1.153,1.88-1.768,2.818-.689-.913-1.826-1.751-1.993-2.751C67.1,40.025,66.1,32.872,65.038,25.731,64.958,25.193,64.856,24.659,64.652,23.473Z" transform="translate(-47.84 18.179)" fill="#ffc936" stroke="#57c1ff" stroke-width="0.5"/>
  </g>
</svg>
