<svg xmlns="http://www.w3.org/2000/svg" width="51.83" height="58.492" viewBox="0 0 51.83 58.492">
  <g id="Dental-Problems-icon" transform="translate(0.246 0.501)">
    <path id="Path_645" data-name="Path 645" d="M87.87-4.023c-.8.252-1.469.459-2.136.673-.789.253-1.153-.131-1.057-.852.406-3.038.843-6.072,1.337-9.1.049-.3.559-.521.855-.779.185.351.563.724.526,1.049-.251,2.161-.592,4.312-.9,6.467-.056.388-.1.778-.175,1.384.755-.24,1.358-.44,1.966-.624,1.189-.36,1.528-.047,1.312,1.2a3.563,3.563,0,0,0-.053,1.326l1.946-3.848c-.142-.1-.18-.149-.21-.144-3.222.438-2.692-.225-1.874-2.482.378-1.042.706-2.108,1.164-3.114.138-.3.635-.445.967-.66.135.38.457.81.371,1.131-.317,1.177-.769,2.318-1.218,3.61.707-.1,1.223-.193,1.743-.23,1.191-.084,1.478.314.968,1.4-.63,1.348-1.314,2.672-2.019,4.1l3.166-.336q.208-1.1.416-2.186c.175-.924.627-1.517,1.653-1.168,1.666.567,3.3,1.217,4.97,1.781a1.736,1.736,0,0,0,1.26.065c7.785-5.039,17.324-.119,19.252,9.08a28.677,28.677,0,0,1,.295,7.294A72.034,72.034,0,0,1,118.158,32.9a65.921,65.921,0,0,1-3.325,7.107,3.706,3.706,0,0,1-4.283,2.175,4.216,4.216,0,0,1-3.06-4.075c-.047-1.779,0-3.56-.018-5.341a7.979,7.979,0,0,0-.112-1.592c-.623-2.915-2.968-4.883-5.492-4.646-2.581.242-4.693,2.719-4.8,5.729-.065,1.867,0,3.739-.02,5.608a4.134,4.134,0,0,1-2.938,4.271c-1.742.506-3.311-.259-4.483-2.263-3.3-5.638-5.039-11.817-6.192-18.184-.419-2.315-.669-4.66-1.023-6.988a3.272,3.272,0,0,1,.851-3.183,2,2,0,0,0,.52-2.152A10.03,10.03,0,0,1,86.181-.055,6.307,6.307,0,0,0,87.87-4.023Zm9.159-1.6c-.612,1.373-.824,2.308.037,3.118A2.962,2.962,0,0,1,97.8,1a5.311,5.311,0,0,0-.28,1.164A2.421,2.421,0,0,1,95.6,4.4a7.276,7.276,0,0,0-3.957,2.535,4.486,4.486,0,0,1-2.123,1.444,5.923,5.923,0,0,0-3.43,2.538c-.4.636-.97,1.173-1.345,1.823a2.656,2.656,0,0,0-.462,1.56c.739,4.421,1.4,8.863,2.394,13.23a38.921,38.921,0,0,0,4.738,11.685c.5.826,1.167,1.41,2.186,1.115a2.115,2.115,0,0,0,1.567-2.092c.028-.533,0-1.069.017-1.6a43.247,43.247,0,0,1,.3-6.111,6.936,6.936,0,0,1,8.646-5.6,7.7,7.7,0,0,1,5.194,7.064c.051,1.958.01,3.918.021,5.877a2.291,2.291,0,0,0,1.641,2.467c1.155.321,1.821-.457,2.314-1.37.57-1.055,1.166-2.1,1.656-3.193,4.114-9.17,5.565-18.891,5.674-28.83a12.221,12.221,0,0,0-5.892-10.9c-3.384-2.17-8.158-2-10.866.441,1.377.6,2.653,1.179,3.947,1.716.622.258,1.421.419,1.152,1.312-.292.969-1.156.771-1.778.459-1.854-.931-3.662-1.954-5.479-2.957C100.187-3.833,98.667-4.7,97.03-5.623ZM85.537,8.2a12.134,12.134,0,0,1,2-1.007,7.2,7.2,0,0,0,3.673-2.445,4.81,4.81,0,0,1,2.272-1.474A3.228,3.228,0,0,0,96.071.089a1.8,1.8,0,0,0-1.443-1.971C89.471-2.541,84.407,3.059,85.537,8.2Z" transform="translate(-71.135 15.409)" fill="#fff" stroke="#57c1ff" stroke-width="0.5"/>
    <path id="Path_646" data-name="Path 646" d="M54.354-2.039c-.975.8-1.762,1.449-2.545,2.1s-1.33.442-1.539-.5c-.838-3.769-1.662-7.542-2.421-11.328-.078-.389.31-.872.481-1.311.313.355.812.665.909,1.072.73,3.065,1.38,6.149,2.061,9.225.065.293.173.576.306,1.005.744-.6,1.4-1.112,2.041-1.637,1.487-1.21,1.516-1.206,2.343.639V-6.1c-.8.43-1.518.828-2.247,1.209-1.126.588-1.586.353-1.614-.877-.084-3.693-.167-7.386-.173-11.079,0-.444.47-.89.723-1.334.254.435.72.865.728,1.3.062,3.332.034,6.666.034,10.4,1.167-.64,1.95-1.077,2.739-1.5.888-.477,1.394-.193,1.376.8-.086,4.761-.184,9.521-.333,14.28-.012.371-.447.729-.685,1.092-.267-.354-.707-.679-.772-1.066-.463-2.759-.849-5.53-1.26-8.3C54.473-1.372,54.433-1.579,54.354-2.039Z" transform="translate(-47.84 18.179)" fill="#fff" stroke="#57c1ff" stroke-width="0.5"/>
  </g>
</svg>
