<svg id="dentophobia-Icon" xmlns="http://www.w3.org/2000/svg" width="70.621" height="64" viewBox="0 0 70.621 64">
  <path id="Path_13004" data-name="Path 13004" d="M4.414,67H33.1a4.418,4.418,0,0,0,4.414-4.414V54.862a1.1,1.1,0,0,0-1.1-1.1H2.207V29.483H32a1.1,1.1,0,0,0,0-2.207H2.207v-3.31a2.209,2.209,0,0,1,2.207-2.207,4.377,4.377,0,0,0,4.257-3.31H19.862a1.1,1.1,0,0,0,0-2.207H8.828V14.034H28.69v2.207h-1.1a1.1,1.1,0,0,0,0,2.207h1.26a4.41,4.41,0,0,0,4.257,3.31,2.21,2.21,0,0,1,2.207,2.207V50.448a1.1,1.1,0,0,0,2.207,0V23.966A4.419,4.419,0,0,0,33.1,19.552,2.209,2.209,0,0,1,30.9,17.345v-3.31A2.209,2.209,0,0,0,33.1,11.828V5.207A2.209,2.209,0,0,0,30.9,3H6.621A2.209,2.209,0,0,0,4.414,5.207v6.621a2.209,2.209,0,0,0,2.207,2.207v3.31a2.211,2.211,0,0,1-2.207,2.207A4.418,4.418,0,0,0,0,23.966V62.586A4.418,4.418,0,0,0,4.414,67ZM6.621,5.207H8.828v3.31a1.1,1.1,0,0,0,2.207,0V5.207h2.207v3.31a1.1,1.1,0,0,0,2.207,0V5.207h2.207v3.31a1.1,1.1,0,0,0,2.207,0V5.207h2.207v3.31a1.1,1.1,0,0,0,2.207,0V5.207h2.207v3.31a1.1,1.1,0,0,0,2.207,0V5.207H30.9v6.621H6.621ZM35.31,55.966v6.621A2.209,2.209,0,0,1,33.1,64.793H4.414a2.209,2.209,0,0,1-2.207-2.207V55.966ZM65.1,43.939a5.479,5.479,0,0,0-3.9,1.615L50.28,56.478a5.517,5.517,0,1,0,7.8,7.8L69,53.357a5.516,5.516,0,0,0-3.9-9.418ZM56.521,62.721a3.39,3.39,0,0,1-4.681,0,3.314,3.314,0,0,1,0-4.682l4.681-4.681L61.2,58.04ZM67.444,51.8l-4.682,4.682L58.08,51.8l4.682-4.682C65.858,44.02,70.514,48.725,67.444,51.8Zm-21.1,3.065a6.621,6.621,0,1,0-6.621-6.621A6.632,6.632,0,0,0,46.345,54.862Zm-3.788-8.849,6.016,6.016A4.392,4.392,0,0,1,42.557,46.014Zm7.576,4.456-6.016-6.016A4.392,4.392,0,0,1,50.133,50.469Z" transform="translate(0 -3)" fill="#fec936"/>
  <path id="Path_13005" data-name="Path 13005" d="M15,46h4a1,1,0,0,0,1-1V41h4a1,1,0,0,0,1-1V36a1,1,0,0,0-1-1H20V31a1,1,0,0,0-1-1H15a1,1,0,0,0-1,1v4H10a1,1,0,0,0-1,1v4a1,1,0,0,0,1,1h4v4A1,1,0,0,0,15,46Zm-4-7V37h4a1,1,0,0,0,1-1V32h2v4a1,1,0,0,0,1,1h4v2H19a1,1,0,0,0-1,1v4H16V40a1,1,0,0,0-1-1Z" transform="translate(5.143 0.857)" fill="#fec936"/>
</svg>
