<svg id="Dental-icon-3" xmlns="http://www.w3.org/2000/svg" width="142.417" height="144.697" viewBox="0 0 142.417 144.697">
  <path id="Path_640" data-name="Path 640" d="M156.417-173.391c-1.336,2.016-1.971,2.168-4.139.985-1.609-.878-3.177-1.841-4.834-2.616a4.406,4.406,0,0,1-2.527-2.993,17.174,17.174,0,0,0-1.282-3.159c-.976,3.277-2.059,6.383-6.048,7.356,3.932,1.039,5.105,4.074,5.882,7.425l.331-.075c.527-1.428,1.019-2.87,1.59-4.28a1.943,1.943,0,0,1,2.829-1.215,1.888,1.888,0,0,1,1.194,2.513q-1.841,5.248-3.718,10.483a1.984,1.984,0,0,1-2.051,1.406,2.087,2.087,0,0,1-2.075-1.592q-1.47-4.109-2.932-8.221a2.846,2.846,0,0,0-.787-1.264c-.359,1.884-.682,3.775-1.083,5.65-2.114,9.909-5.676,19.351-9.275,28.783-4.082,10.7-8.3,21.351-12.069,32.159-1.705,4.888-2.363,10.132-3.72,15.155a26.845,26.845,0,0,1-2.636,6.015c-1.107,1.97-3.167,2.823-5.21,3.573h-3.391c-3.752-1.142-5.993-3.891-7.628-7.247a27.654,27.654,0,0,1-1.691-4.021c-2.289-7.544-4.486-15.116-6.78-22.659a10.64,10.64,0,0,0-1.59-3.259,5.355,5.355,0,0,0-8.362-.472,11.419,11.419,0,0,0-2.184,4.17c-2.336,7.53-4.413,15.142-6.846,22.639-1.532,4.719-3.863,9.008-9,10.847H53a9.554,9.554,0,0,1-6.368-5.122A21.083,21.083,0,0,1,45.1-86.494c-.918-3.829-1.587-7.718-2.566-11.529-.859-3.344-2-6.616-3.022-9.919-1.347,3-2.4,5.954-3.46,8.907-.11.309-.221.618-.319.931a2.165,2.165,0,0,1-2.143,1.721,2.189,2.189,0,0,1-2.142-1.71c-1.75-5-3.517-10-5.358-14.965a3.588,3.588,0,0,0-1.453-1.719c-2.8-1.625-5.694-3.092-8.5-4.713A13.883,13.883,0,0,1,14-121.39v-.848a11.384,11.384,0,0,1,1.973-1.884c2.887-1.672,5.86-3.2,8.756-4.854a6.321,6.321,0,0,0,1.334-1.492c.029-.034.03-.089.053-.13,2.128-3.94,1.863-7.7.11-11.866a108.967,108.967,0,0,1-6.674-22.512c-1.452-7.852-2.156-15.738.984-23.341a67.643,67.643,0,0,1,5.067-9.064,1.983,1.983,0,0,1,3.122-.707c1.112.828,1.229,2.048.224,3.324-5.382,6.829-6.93,14.629-6.04,23.115,1.014,9.669,4.048,18.794,7.279,27.875a4.4,4.4,0,0,0,.365.613c.289-.8.552-1.48.778-2.171.363-1.1.947-2,2.235-2.005s1.853.841,2.248,1.969c1.724,4.919,3.471,9.83,5.288,14.715a3.575,3.575,0,0,0,1.444,1.715c2.927,1.7,5.913,3.291,8.891,4.9.929.5,1.829,1.151,1.523,2.252a3.814,3.814,0,0,1-1.574,2.083c-3.155,1.855-6.4,3.559-9.661,5.344,1.218,3.557,2.611,7,3.569,10.561,1.486,5.524,2.645,11.135,4.019,16.691a11.4,11.4,0,0,0,1.4,3.351c1.7,2.662,4.879,3.119,6.932.742a18.033,18.033,0,0,0,3.492-6.018c2.449-7.542,4.621-15.173,6.858-22.783a13.086,13.086,0,0,1,3.995-6.822A9.927,9.927,0,0,1,87.679-114.6c1.266,3.01,1.914,6.278,2.891,9.413,1.871,6,3.72,12.015,5.715,17.977a11.933,11.933,0,0,0,2.241,3.717c2.467,2.941,6.2,2.6,7.8-.873a28.3,28.3,0,0,0,1.887-6.883,128.245,128.245,0,0,1,6.8-22.924c4.472-11.812,9.122-23.556,13.5-35.4a91.645,91.645,0,0,0,5.109-20.463,1.215,1.215,0,0,0-.805-1.512,2.449,2.449,0,0,1-1.776-2.3,2.49,2.49,0,0,1,1.869-2.243,1.764,1.764,0,0,0,1.226-2.054,26.74,26.74,0,0,0-4.741-13.766c-.449,1.184-.838,2.161-1.191,3.15q-1.914,5.374-3.8,10.757c-.393,1.119-.881,2.1-2.3,2.1s-1.9-.969-2.3-2.095c-1.516-4.294-3.026-8.592-4.614-12.859a3.37,3.37,0,0,0-1.356-1.613c-2.558-1.49-5.175-2.88-7.783-4.284-.922-.5-1.848-1.134-1.551-2.238a3.889,3.889,0,0,1,1.575-2.083c2.062-1.29,4.245-2.388,6.38-3.56l.011-.4c-1.846-.286-3.684-.7-5.541-.833a30.539,30.539,0,0,0-17.173,4.033,22.334,22.334,0,0,1-22.511.128,31.6,31.6,0,0,0-16.445-4.2,29.02,29.02,0,0,0-12.554,3.359c-1.442.758-2.512.529-3.2-.584-.745-1.206-.369-2.344,1.068-3.121A32.786,32.786,0,0,1,52.787-210.2a32.877,32.877,0,0,1,15.6,4.291c6.5,3.672,13.046,3.823,19.6.169a33.661,33.661,0,0,1,27.1-2.926l.65.2c1.15-3.227,2.235-6.418,3.434-9.566.521-1.37,1.276-2.65,1.925-3.971h1.978a17.575,17.575,0,0,1,1.411,2.5c1.534,4.132,2.959,8.3,4.51,12.43a3.59,3.59,0,0,0,1.455,1.7c2.595,1.511,5.271,2.88,7.892,4.348,1.986,1.112,1.969,3.026-.019,4.161-1.585.9-3.2,1.762-4.723,2.6,1.033,2.4,2.183,4.665,2.98,7.047.791,2.365,1.227,4.848,1.877,7.517,1.071-3.019,2.07-5.838,3.074-8.657a2.168,2.168,0,0,1,2.152-1.695,2.173,2.173,0,0,1,2.141,1.707,28.633,28.633,0,0,1,1.434,4.113,10.045,10.045,0,0,0,6.779,7.966c.918.359,1.594,1.336,2.381,2.03ZM46.468-121.855c-2.5-1.364-4.743-2.631-7.029-3.821a3.9,3.9,0,0,1-2.026-2.371c-1.186-3.492-2.467-6.952-3.788-10.636-.229.543-.387.874-.511,1.217-1.1,3.047-2.248,6.078-3.256,9.154a4.469,4.469,0,0,1-2.376,2.775c-2.239,1.147-4.422,2.4-6.765,3.691,2.373,1.292,4.538,2.523,6.754,3.654a4.455,4.455,0,0,1,2.383,2.77c.971,2.99,2.078,5.936,3.139,8.9.159.442.372.864.64,1.479,1.321-3.683,2.593-7.115,3.77-10.579a3.9,3.9,0,0,1,2-2.39C41.7-119.2,43.945-120.475,46.468-121.855Zm86.694-77.1c-1.862-1.024-3.5-2.043-5.243-2.847a5.119,5.119,0,0,1-2.884-3.386c-.856-2.7-1.883-5.337-2.948-8.307-1.088,3.071-2.1,5.794-3.009,8.554a4.688,4.688,0,0,1-2.538,2.994c-1.821.881-3.563,1.926-5.521,3,2.127,1.162,4.076,2.107,5.885,3.272a5.179,5.179,0,0,1,1.91,2.245c1.163,2.862,2.134,5.8,3.285,9.009,1.059-2.969,2.084-5.636,2.951-8.353a4.987,4.987,0,0,1,2.8-3.283C129.62-196.876,131.291-197.916,133.163-198.951Z" transform="translate(-14 222)" fill="#ffc936"/>
  <path id="Path_641" data-name="Path 641" d="M70.551-119.66a20.781,20.781,0,0,1,20.255-19.293c1.574-.026,2.431.659,2.478,1.912s-.793,1.992-2.346,2.051a16.851,16.851,0,0,0-16.42,16.366c-.007,1.641-.809,2.452-2.161,2.384-1.326-.067-1.967-.962-1.878-2.631C70.495-119.134,70.526-119.4,70.551-119.66Z" transform="translate(-56.1 160.631)" fill="#ffc936"/>
</svg>
