<svg id="digital-radiology-Icon" xmlns="http://www.w3.org/2000/svg" width="90" height="64" viewBox="0 0 90 64">
  <path id="Path_13006" data-name="Path 13006" d="M23.155,37.5c-1.316,1.468-1.937,3.7-1.844,6.63.251,7.969,1.867,10.25,3.045,11.916.869,1.227,1.348,1.9.827,5.507C24.776,64.379,26.328,68.4,28,70.506a4.115,4.115,0,0,0,3.086,1.885,1.714,1.714,0,0,0,1.4-.7c.726-.966.457-2.338.05-4.416-.442-2.257-1.049-5.347.013-6.758a3.3,3.3,0,0,1,2.776-.976,3.269,3.269,0,0,1,2.746.976c1.061,1.411.454,4.5.011,6.757-.407,2.078-.676,3.45.05,4.416a1.714,1.714,0,0,0,1.4.7A4.112,4.112,0,0,0,42.612,70.5c1.673-2.105,3.225-6.127,2.817-8.951-.521-3.6-.042-4.28.827-5.507a12.363,12.363,0,0,0,1.664-3.012,12.331,12.331,0,0,0,1.664,3.012c.868,1.227,1.347,1.9.826,5.507C50,64.378,51.555,68.4,53.227,70.5a4.115,4.115,0,0,0,3.086,1.885,1.714,1.714,0,0,0,1.4-.7c.726-.966.457-2.338.05-4.416-.442-2.257-1.049-5.347.013-6.758a3.3,3.3,0,0,1,2.776-.976,3.27,3.27,0,0,1,2.746.976c1.061,1.411.454,4.5.011,6.757-.407,2.078-.676,3.45.05,4.416a1.714,1.714,0,0,0,1.4.7A4.112,4.112,0,0,0,67.839,70.5c1.673-2.105,3.225-6.127,2.817-8.951-.521-3.6-.042-4.28.827-5.507,1.179-1.666,2.793-3.947,3.046-11.916.093-2.931-.528-5.162-1.844-6.63a5.991,5.991,0,0,0-4.617-1.894,14.465,14.465,0,0,0-7.534,2.552A14.477,14.477,0,0,0,53,35.606,5.991,5.991,0,0,0,48.383,37.5a5.769,5.769,0,0,0-.462.588,5.77,5.77,0,0,0-.462-.588,5.991,5.991,0,0,0-4.617-1.894,14.465,14.465,0,0,0-7.534,2.552,14.478,14.478,0,0,0-7.535-2.552,6,6,0,0,0-4.619,1.9ZM50.38,39.587A3.349,3.349,0,0,1,53,38.608a11.735,11.735,0,0,1,6.581,2.522c.006.006.015.008.02.014s.021.027.034.039a9.805,9.805,0,0,0,5.363,1.893h.026a1.507,1.507,0,0,0,.024-3,7.188,7.188,0,0,1-1.515-.252,10.942,10.942,0,0,1,4.534-1.216,3.346,3.346,0,0,1,2.615.979c.772.861,1.131,2.356,1.064,4.443-.222,7.012-1.473,8.779-2.477,10.2-1.286,1.817-2.02,3.248-1.365,7.789.222,1.536-.7,4.45-1.945,6.223.022-.12.046-.236.068-.348.558-2.847,1.323-6.746-.572-9.268a5.785,5.785,0,0,0-4.938-2.087,5.763,5.763,0,0,0-4.907,2.087c-1.9,2.521-1.131,6.42-.572,9.268l.068.349c-1.249-1.773-2.168-4.688-1.947-6.225.655-4.541-.079-5.972-1.364-7.789-1.005-1.419-2.256-3.186-2.477-10.2-.062-2.087.3-3.582,1.067-4.443Zm-4.925,0c.772.861,1.131,2.356,1.064,4.443-.222,7.012-1.473,8.779-2.477,10.2-1.286,1.817-2.02,3.248-1.365,7.789.222,1.536-.7,4.45-1.945,6.223.022-.12.046-.236.068-.348.558-2.847,1.323-6.746-.572-9.268a5.785,5.785,0,0,0-4.938-2.087,5.763,5.763,0,0,0-4.907,2.087c-1.9,2.521-1.131,6.42-.572,9.268l.068.349c-1.249-1.773-2.168-4.688-1.947-6.225.655-4.541-.079-5.972-1.364-7.789-1.005-1.419-2.256-3.186-2.477-10.2-.066-2.087.292-3.582,1.064-4.443a3.349,3.349,0,0,1,2.615-.979,11.735,11.735,0,0,1,6.581,2.522c.006.006.015.008.02.014s.021.027.034.039a9.805,9.805,0,0,0,5.363,1.893h.026a1.507,1.507,0,0,0,.024-3,7.188,7.188,0,0,1-1.515-.252,10.935,10.935,0,0,1,4.534-1.216,3.353,3.353,0,0,1,2.619.979Z" transform="translate(-3.5 -18.397)" fill="#fec936"/>
  <path id="Path_13008" data-name="Path 13008" d="M14.167,25.742h19.5a1.5,1.5,0,1,0,0-3h-19.5a1.5,1.5,0,0,0,0,3Zm0,4.915h19.5a1.5,1.5,0,0,0,0-3h-19.5a1.5,1.5,0,1,0,0,3Z" transform="translate(-3.5 -16.5)" fill="#fec936"/>
  <g id="Rectangle_17259" data-name="Rectangle 17259" fill="none" stroke="#fec936" stroke-width="3">
    <rect width="90" height="64" rx="12" stroke="none"/>
    <rect x="1.5" y="1.5" width="87" height="61" rx="10.5" fill="none"/>
  </g>
</svg>
