<svg id="DisLikes-icon" xmlns="http://www.w3.org/2000/svg" xmlns:xlink="http://www.w3.org/1999/xlink" width="73.814" height="73.81" viewBox="0 0 73.814 73.81">
  <defs>
    <clipPath id="clip-path">
      <rect id="Rectangle_79" data-name="Rectangle 79" width="73.814" height="73.81" fill="#d6dee0"/>
    </clipPath>
  </defs>
  <g id="Group_967" data-name="Group 967" clip-path="url(#clip-path)">
    <path id="Path_656" data-name="Path 656" d="M0,39.363v-4.9c.046-.208.1-.415.135-.625.244-1.609.4-3.238.736-4.827A36.772,36.772,0,0,1,35.071.049a36.3,36.3,0,0,1,16.749,3.1A36.819,36.819,0,0,1,73.159,43.81,36.04,36.04,0,0,1,59.475,66.118a35.577,35.577,0,0,1-16.148,7.117c-1.319.225-2.649.384-3.974.573h-4.9c-.208-.046-.414-.107-.625-.134-1.259-.165-2.533-.248-3.775-.494A36.473,36.473,0,0,1,7.554,59.3,35.549,35.549,0,0,1,.561,43.266c-.218-1.3-.376-2.6-.561-3.9m68.073-2.372a31.175,31.175,0,1,0-31.233,31.1,31.109,31.109,0,0,0,31.233-31.1" transform="translate(0 0)" fill="#d6dee0"/>
    <path id="Path_657" data-name="Path 657" d="M59.941,86.7c-5.992.306-11.466,3.358-14.689,9.986a2.033,2.033,0,0,0,.286,2.408,1.991,1.991,0,0,0,2.161.6,2.252,2.252,0,0,0,1.407-1.347,12.442,12.442,0,0,1,5.678-5.9,13.538,13.538,0,0,1,9.571-1.166A12.419,12.419,0,0,1,73.21,98.3a2.17,2.17,0,0,0,2.354,1.5,2.112,2.112,0,0,0,1.524-3.1,16.225,16.225,0,0,0-7.5-7.961A19.507,19.507,0,0,0,59.941,86.7" transform="translate(-23.541 -45.367)" fill="#d6dee0"/>
    <path id="Path_658" data-name="Path 658" d="M52.838,47.452a4.294,4.294,0,0,1,4.287,4.309,4.361,4.361,0,0,1-4.3,4.332,4.413,4.413,0,0,1-4.344-4.378,4.338,4.338,0,0,1,4.355-4.263" transform="translate(-25.37 -24.831)" fill="#d6dee0"/>
    <path id="Path_659" data-name="Path 659" d="M93.888,47.453a4.276,4.276,0,0,1,4.279,4.31,4.34,4.34,0,0,1-4.292,4.328,4.406,4.406,0,0,1-4.342-4.377,4.33,4.33,0,0,1,4.355-4.261" transform="translate(-46.851 -24.831)" fill="#d6dee0"/>
  </g>
</svg>
