<svg id="Doctors-category-icon-3" xmlns="http://www.w3.org/2000/svg" xmlns:xlink="http://www.w3.org/1999/xlink" width="28" height="46" viewBox="0 0 28 46">
  <defs>
    <clipPath id="clip-path">
      <rect id="Rectangle_17078" data-name="Rectangle 17078" width="28" height="46" transform="translate(-0.344 0)" fill="#fff"/>
    </clipPath>
  </defs>
  <g id="Group_35455" data-name="Group 35455" transform="translate(0.344 0)" clip-path="url(#clip-path)">
    <path id="Path_783" data-name="Path 783" d="M27.295,94.958c-.209,1.161-.372,2.333-.636,3.481a36.2,36.2,0,0,1-2.029,6.032,6.652,6.652,0,0,0-.542,2.343c-.069,2.288,0,4.58-.024,6.87a20.351,20.351,0,0,1-.866,6.1,11.339,11.339,0,0,1-1.776,3.445,3.336,3.336,0,0,1-.8.774,1.27,1.27,0,0,1-2.088-1.075c-.057-1.379-.067-2.761-.116-4.141a14.423,14.423,0,0,0-.679-4.312c-.095-.271-.213-.533-.32-.8l-.167-.022a24.028,24.028,0,0,0-.666,2.653c-.227,1.638-.305,3.3-.52,4.938a15.817,15.817,0,0,1-.6,2.551,2.589,2.589,0,0,1-1.531,1.772h-.39a2.626,2.626,0,0,1-1.439-1.24,10.171,10.171,0,0,1-.552-1.082,18.127,18.127,0,0,1-1.22-5.487c-.119-1.22-.179-2.447-.265-3.67-.015,0-.054,0-.071.018a2.953,2.953,0,0,0-.228.252,5.286,5.286,0,0,0-1.094,2.772c-.145,1.468-.193,2.946-.3,4.418a15.264,15.264,0,0,1-.23,1.832,1.239,1.239,0,0,1-.941,1.016,1.152,1.152,0,0,1-1.253-.453,11.764,11.764,0,0,1-1.166-1.672A18.97,18.97,0,0,1,2.657,114.3a31.565,31.565,0,0,1,.33-4.6,10.127,10.127,0,0,0-.743-5.894A20.138,20.138,0,0,1,.492,98.554c-.2-.964-.33-1.942-.492-2.914v-1.95c.093-.425.167-.856.284-1.275a3.516,3.516,0,0,1,4.1-2.761,20.827,20.827,0,0,1,2.92.71.722.722,0,0,0,.781-.132,6.329,6.329,0,0,1,4.945-1.611c.145.016.29.037.433.063.24.042.534.056.462.415s-.35.289-.621.281a12.331,12.331,0,0,0-1.983.018A5.312,5.312,0,0,0,8.5,90.831a3.311,3.311,0,0,1,.634.327,1.627,1.627,0,0,1,.283.467c-.194.052-.415.19-.576.138-.445-.142-.853-.4-1.3-.545A17.285,17.285,0,0,0,4.6,90.4c-2.283-.292-3.573.81-3.826,3.1a16.583,16.583,0,0,0,.742,6.345c.346,1.228.871,2.4,1.315,3.6.351.95.7,1.9,1.069,2.895a3.025,3.025,0,0,1,2.423.195,10.956,10.956,0,0,0,5.9.435,11.108,11.108,0,0,1,3.682.126,6.432,6.432,0,0,0,3.3-.314,3.467,3.467,0,0,1,2.7.092c.449.18.9.368,1.353.557-.027-2.032.994-3.724,1.633-5.531a27.532,27.532,0,0,0,1.655-7.089,7.353,7.353,0,0,0-.327-3.124,2.6,2.6,0,0,0-2.413-1.813,8.443,8.443,0,0,0-3.79.731c-.5.2-.982.425-1.468.649-.261.12-.54.193-.636-.145-.035-.121.162-.4.315-.469a13.859,13.859,0,0,1,4.61-1.471,3.651,3.651,0,0,1,4.342,3.42c.024.173.067.344.1.516Zm-3.959,16.467c0-.452.019-.988-.005-1.522-.025-.569.1-1.279-.191-1.666-.3-.4-1.02-.5-1.558-.725a2.579,2.579,0,0,0-2.039-.094,7.267,7.267,0,0,1-3.972.348,11.289,11.289,0,0,0-3.968.011,6.831,6.831,0,0,1-2.371.058c-1.274-.2-2.518-.586-3.785-.841a3.945,3.945,0,0,0-1.268.024c-.286.038-.39.268-.381.58a11.554,11.554,0,0,1-.059,1.41c-.128,1.357-.35,2.711-.4,4.07a18.346,18.346,0,0,0,2,8.731,9.23,9.23,0,0,0,1.15,1.68c.336.418.726.318.931-.177a.779.779,0,0,0,.073-.231q.157-2.208.3-4.417a.421.421,0,0,0-.112-.23c-.112-.149-.236-.289-.355-.433l.558-.392c0-.012.015-.108.03-.2a6.248,6.248,0,0,1,1.544-3.71,1.9,1.9,0,0,0,.677-1.911c-.026-.128.183-.3.283-.457.132.135.347.252.379.407a4.045,4.045,0,0,1,.089,1.161,27.014,27.014,0,0,0,.229,5.587,15.063,15.063,0,0,0,1.172,4.7,6.1,6.1,0,0,0,.864,1.34.635.635,0,0,0,1.135-.053,5.914,5.914,0,0,0,.712-1.528A28.088,28.088,0,0,0,15.7,117.5a12.486,12.486,0,0,1,1.647-5.4,2.579,2.579,0,0,1,.424-.59.478.478,0,0,1,.452-.064.491.491,0,0,1,.085.451c-.082.223-.276.4-.376.621a.628.628,0,0,0-.051.474,11.638,11.638,0,0,1,1.227,5.261c.066,1.525.076,3.052.116,4.578.019.728.453.986,1.046.561a7.837,7.837,0,0,0,1.03-1.067l-.159-.033-.243-.619.676-.156.1.136.944-2.273a4.367,4.367,0,0,1-.555-.429c-.037-.039.033-.272.09-.288a3.88,3.88,0,0,1,.655-.073,24.559,24.559,0,0,0,.582-6.445,3.358,3.358,0,0,1-.649-.176.4.4,0,0,1,0-.341,3.014,3.014,0,0,1,.608-.2" transform="translate(0.009 -79.757)" fill="#fff"/>
    <path id="Path_784" data-name="Path 784" d="M104.162,0l4.118,1.454c.076.027.174.031.226.082.154.151.29.32.433.481-.185.075-.37.151-.557.222a.943.943,0,0,1-.174.026c-.436,1.278-.942,2.547-1.283,3.858a7.173,7.173,0,0,0,0,1.987c.025.725-.1.829-.768.6l-1.828-.624c-.122.339-.239.653-.348.969q-2.943,8.6-5.889,17.2c-.1.279-.125.761-.582.593s-.169-.558-.074-.838q2.985-8.743,5.984-17.48c.073-.212.14-.427.223-.68-.672-.232-1.314-.446-1.952-.675-.507-.182-.594-.4-.213-.768a8.3,8.3,0,0,0,2.119-3.92c.156-.559.372-1.1.559-1.645-.562-.339-.58-.394-.293-.847Zm-.6,4.769,2.721.929,1.278-3.741-2.718-.93-1.282,3.742m-1.3,1.858,3.916,1.339a12.093,12.093,0,0,0-.015-1.264.593.593,0,0,0-.316-.394c-.43-.183-.883-.312-1.326-.465-1.317-.455-1.317-.456-2.186.63a1.1,1.1,0,0,0-.073.154" transform="translate(-87.777 0.189)" fill="#fff"/>
    <path id="Path_785" data-name="Path 785" d="M228.723,154.887c-.318,1.393-.562,2.751-.949,4.067-.341,1.161-.833,2.279-1.279,3.407-.1.242-.139.671-.557.5s-.2-.512-.079-.783a24.041,24.041,0,0,0,1.752-5.242c.127-.635.178-1.285.314-1.917.032-.151.25-.3.415-.364.068-.025.225.187.382.329" transform="translate(-203.68 -139.302)" fill="#fff"/>
    <path id="Path_786" data-name="Path 786" d="M56.727,123.759a6.051,6.051,0,0,1-2.606-.726c-.232-.121-.408-.294-.23-.524a.553.553,0,0,1,.524-.1,5.111,5.111,0,0,0,4.905-.006c.54-.259,1.095-.493,1.657-.7a.456.456,0,0,1,.418.142c.042.127-.032.408-.128.448-1.446.6-2.806,1.463-4.446,1.468h-.095" transform="translate(-48.564 -109.638)" fill="#fff"/>
    <path id="Path_787" data-name="Path 787" d="M34.145,183.432c0,.048-.038-.075.008-.142a4.271,4.271,0,0,1,.39-.446c.107.152.277.292.311.46.215,1.076.369,2.165.609,3.236.133.6.41,1.161.581,1.751.041.142-.081.331-.128.5-.171-.078-.451-.116-.5-.241a15.682,15.682,0,0,1-1.272-5.116" transform="translate(-30.795 -164.831)" fill="#fff"/>
    <path id="Path_788" data-name="Path 788" d="M170.7,122.394c.493.317.96.6,1.4.92a.391.391,0,0,1-.013.379.485.485,0,0,1-.426.089,8.983,8.983,0,0,1-1.179-.673.485.485,0,0,1-.122-.415c.021-.1.19-.177.337-.3" transform="translate(-153.739 -110.274)" fill="#fff"/>
    <path id="Path_789" data-name="Path 789" d="M73.947,290.766c-.165-.214-.356-.36-.334-.459.03-.139.219-.242.339-.361.108.114.292.222.3.345s-.156.255-.308.475" transform="translate(-66.426 -261.493)" fill="#fff"/>
    <path id="Path_790" data-name="Path 790" d="M150.878,291.006c-.184-.221-.369-.346-.366-.466a.459.459,0,0,1,.3-.339c.1-.013.311.169.334.291s-.132.27-.269.513" transform="translate(-135.831 -261.723)" fill="#fff"/>
    <path id="Path_791" data-name="Path 791" d="M143.806,430.01c-.165-.232-.34-.371-.328-.49a.46.46,0,0,1,.328-.313c.1-.006.3.194.308.318s-.154.258-.308.486" transform="translate(-129.482 -387.178)" fill="#fff"/>
    <path id="Path_792" data-name="Path 792" d="M140.471,417.06c-.168-.223-.342-.352-.335-.471s.187-.332.293-.332a.458.458,0,0,1,.341.3c.02.118-.147.266-.3.509" transform="translate(-126.467 -375.49)" fill="#fff"/>
    <path id="Path_793" data-name="Path 793" d="M217.036,410.382c-.241.17-.382.346-.5.33s-.231-.209-.345-.324c.116-.11.222-.289.35-.308s.254.147.492.3" transform="translate(-195.111 -369.915)" fill="#fff"/>
    <path id="Path_794" data-name="Path 794" d="M59.188,293.5c.171.216.363.36.342.457-.031.14-.215.247-.334.368-.108-.114-.289-.219-.3-.344s.148-.255.3-.481" transform="translate(-53.142 -264.699)" fill="#fff"/>
    <path id="Path_795" data-name="Path 795" d="M49.158,284.862c-.157-.214-.327-.344-.318-.46s.183-.243.285-.364c.126.116.317.213.356.353.027.094-.162.248-.323.471" transform="translate(-44.07 -256.161)" fill="#fff"/>
    <path id="Path_796" data-name="Path 796" d="M210.956,297.489c-.225.175-.354.354-.476.349a.451.451,0,0,1-.327-.306c-.009-.108.176-.311.3-.329s.268.141.507.286" transform="translate(-189.658 -268.042)" fill="#fff"/>
    <path id="Path_797" data-name="Path 797" d="M46.769,303.606c-.209.166-.332.337-.453.337s-.244-.172-.366-.269c.109-.129.2-.327.333-.365.1-.029.259.15.487.3" transform="translate(-41.462 -273.55)" fill="#fff"/>
    <path id="Path_798" data-name="Path 798" d="M128.605,400.47c.158.232.327.372.312.489s-.2.23-.317.344c-.115-.114-.306-.219-.321-.345s.161-.256.326-.488" transform="translate(-115.765 -361.243)" fill="#fff"/>
    <path id="Path_799" data-name="Path 799" d="M51.692,403.1c-.166-.229-.343-.367-.331-.487a.458.458,0,0,1,.324-.316c.106-.006.3.192.313.315s-.154.26-.306.487" transform="translate(-46.345 -362.889)" fill="#fff"/>
    <path id="Path_800" data-name="Path 800" d="M154.482,301.327c.152.246.318.4.3.51s-.221.218-.342.325c-.1-.121-.282-.237-.292-.366s.167-.245.338-.469" transform="translate(-139.109 -271.764)" fill="#fff"/>
    <path id="Path_801" data-name="Path 801" d="M228.429,306.16c-.157-.239-.323-.381-.306-.5s.2-.231.318-.345c.113.116.3.224.317.352s-.161.254-.329.491" transform="translate(-205.876 -275.366)" fill="#fff"/>
    <path id="Path_802" data-name="Path 802" d="M65.647,398.934c.166.236.336.372.323.487s-.2.235-.306.351c-.117-.111-.308-.21-.328-.336s.15-.258.311-.5" transform="translate(-58.957 -359.856)" fill="#fff"/>
    <path id="Path_803" data-name="Path 803" d="M125.259,387.46c.155.243.322.39.3.507s-.217.219-.336.327c-.106-.118-.287-.231-.3-.357s.163-.25.329-.477" transform="translate(-112.743 -349.501)" fill="#fff"/>
    <path id="Path_804" data-name="Path 804" d="M48.377,387.478c.153.242.32.391.3.508s-.22.217-.342.323c-.1-.119-.284-.235-.291-.359s.166-.25.332-.471" transform="translate(-43.353 -349.517)" fill="#fff"/>
    <path id="Path_805" data-name="Path 805" d="M66,315.588c-.24.143-.39.3-.509.284a.317.317,0,0,1,.042-.633c.121,0,.248.175.467.349" transform="translate(-58.83 -284.321)" fill="#fff"/>
    <path id="Path_806" data-name="Path 806" d="M142.887,315.519c-.225.167-.359.343-.48.335a.453.453,0,0,1-.325-.31.448.448,0,0,1,.3-.326c.122-.015.266.15.5.3" transform="translate(-128.223 -284.301)" fill="#fff"/>
    <path id="Path_807" data-name="Path 807" d="M216.81,318.85c-.221.147-.358.31-.476.3s-.229-.195-.343-.3c.12-.12.226-.306.365-.336.1-.021.241.172.454.342" transform="translate(-194.927 -287.27)" fill="#fff"/>
    <path id="Path_808" data-name="Path 808" d="M152.9,388.233c-.229.185-.356.367-.473.36s-.243-.19-.364-.3c.105-.117.2-.307.32-.331s.267.129.517.267" transform="translate(-137.232 -349.955)" fill="#fff"/>
    <path id="Path_809" data-name="Path 809" d="M134.215,377.578c.16.237.331.38.315.5a.456.456,0,0,1-.333.3c-.107,0-.294-.2-.3-.322s.16-.254.322-.48" transform="translate(-120.832 -340.582)" fill="#fff"/>
    <path id="Path_810" data-name="Path 810" d="M57.315,379.948c-.167-.227-.339-.359-.329-.475s.189-.241.295-.361c.121.108.319.2.341.329s-.149.263-.307.508" transform="translate(-51.422 -341.966)" fill="#fff"/>
    <path id="Path_811" data-name="Path 811" d="M45.771,367.565c-.234.157-.375.325-.5.312a.318.318,0,0,1,.008-.637c.123-.009.259.162.49.325" transform="translate(-40.573 -331.252)" fill="#fff"/>
    <path id="Path_812" data-name="Path 812" d="M199.992,360.914c-.17-.21-.363-.35-.343-.448.028-.14.212-.249.329-.371.112.112.3.215.314.338s-.151.257-.3.481" transform="translate(-180.176 -324.804)" fill="#fff"/>
    <path id="Path_813" data-name="Path 813" d="M224.534,352.324c.162.238.334.38.317.5s-.209.23-.324.343c-.112-.117-.3-.224-.313-.354-.015-.114.157-.252.319-.485" transform="translate(-202.348 -317.79)" fill="#fff"/>
    <path id="Path_814" data-name="Path 814" d="M200.789,285.823c-.222.144-.36.3-.479.29s-.228-.2-.34-.3c.12-.119.227-.306.366-.333.1-.02.24.175.453.348" transform="translate(-180.468 -257.457)" fill="#fff"/>
    <path id="Path_815" data-name="Path 815" d="M158.933,334.982c-.229.174-.36.35-.476.34s-.245-.188-.367-.293c.108-.12.2-.313.329-.338s.265.14.514.291" transform="translate(-142.672 -301.874)" fill="#fff"/>
    <path id="Path_816" data-name="Path 816" d="M151.012,348.724c-.227.164-.359.334-.479.326s-.328-.191-.327-.3a.455.455,0,0,1,.3-.335c.12-.017.265.15.506.305" transform="translate(-135.555 -314.265)" fill="#fff"/>
    <path id="Path_817" data-name="Path 817" d="M130.091,437.4c-.249.154-.4.319-.512.3s-.218-.22-.325-.341c.121-.1.237-.277.365-.287s.245.162.472.33" transform="translate(-116.646 -394.273)" fill="#fff"/>
    <path id="Path_818" data-name="Path 818" d="M73.847,348.781c-.244.142-.392.3-.509.277s-.217-.212-.324-.329c.119-.109.233-.3.357-.3s.249.175.476.355" transform="translate(-65.888 -314.272)" fill="#fff"/>
    <path id="Path_819" data-name="Path 819" d="M208.225,342.026c-.155-.235-.319-.375-.3-.49s.2-.23.312-.343c.115.113.307.217.323.342s-.162.254-.331.49" transform="translate(-187.644 -307.744)" fill="#fff"/>
    <path id="Path_820" data-name="Path 820" d="M232.621,337.756c.155.213.343.364.318.462-.035.138-.226.236-.351.352-.107-.117-.292-.231-.3-.353s.17-.25.331-.46" transform="translate(-209.637 -304.642)" fill="#fff"/>
    <path id="Path_821" data-name="Path 821" d="M116.934,339.761c-.225.162-.358.331-.48.324s-.325-.194-.323-.3a.456.456,0,0,1,.3-.335c.12-.016.265.153.5.309" transform="translate(-104.802 -306.172)" fill="#fff"/>
    <path id="Path_822" data-name="Path 822" d="M225.181,292.116c-.239.16-.382.329-.5.312s-.229-.209-.342-.325c.117-.111.225-.3.352-.311s.253.159.487.324" transform="translate(-202.464 -263.158)" fill="#fff"/>
    <path id="Path_823" data-name="Path 823" d="M39.985,339.787c-.234.146-.377.307-.5.291s-.315-.215-.306-.318a.459.459,0,0,1,.323-.316c.12-.009.253.171.48.343" transform="translate(-35.354 -306.166)" fill="#fff"/>
    <path id="Path_824" data-name="Path 824" d="M66.947,427.377c.147.24.309.387.289.5s-.212.223-.329.332c-.11-.119-.3-.232-.306-.36s.171-.248.346-.475" transform="translate(-60.099 -385.527)" fill="#fff"/>
    <path id="Path_825" data-name="Path 825" d="M82.019,335.06c-.247.147-.4.308-.511.285s-.22-.218-.327-.338c.122-.106.238-.286.367-.3s.245.171.471.349" transform="translate(-73.259 -301.894)" fill="#fff"/>
    <path id="Path_826" data-name="Path 826" d="M48.906,354.594c-.235.161-.375.332-.49.317s-.232-.2-.346-.318c.115-.113.22-.3.348-.317s.255.157.489.318" transform="translate(-43.375 -319.55)" fill="#fff"/>
    <path id="Path_827" data-name="Path 827" d="M125.551,354.892c-.167-.231-.342-.368-.329-.485s.2-.233.314-.349c.115.112.305.214.323.34s-.152.259-.309.494" transform="translate(-113.006 -319.355)" fill="#fff"/>
    <path id="Path_828" data-name="Path 828" d="M198.9,327.961c-.236.148-.381.311-.5.294a.319.319,0,0,1,.024-.638c.122-.006.253.172.477.344" transform="translate(-178.78 -295.491)" fill="#fff"/>
    <path id="Path_829" data-name="Path 829" d="M64.044,359.772c-.251.125-.411.272-.528.244a.316.316,0,0,1,.081-.626c.121,0,.236.191.447.382" transform="translate(-57.069 -324.168)" fill="#fff"/>
    <path id="Path_830" data-name="Path 830" d="M140.381,360.183c-.14-.244-.3-.4-.272-.51s.228-.309.334-.3a.462.462,0,0,1,.3.339c.006.116-.178.243-.363.467" transform="translate(-126.44 -324.155)" fill="#fff"/>
    <path id="Path_831" data-name="Path 831" d="M124.069,324.008c-.234.167-.37.339-.486.326s-.238-.2-.355-.309c.112-.116.213-.307.34-.327s.259.151.5.31" transform="translate(-111.207 -291.953)" fill="#fff"/>
    <path id="Path_832" data-name="Path 832" d="M214.627,366.281c-.176-.214-.37-.352-.351-.45.026-.142.206-.256.32-.382.112.111.3.212.316.337s-.141.261-.285.5" transform="translate(-193.378 -329.636)" fill="#fff"/>
    <path id="Path_833" data-name="Path 833" d="M123.136,417.364c-.246.159-.4.329-.508.307s-.221-.22-.329-.342c.121-.1.235-.28.364-.292s.246.16.473.327" transform="translate(-110.369 -376.195)" fill="#fff"/>
    <path id="Path_834" data-name="Path 834" d="M92.74,292.268c.16.231.327.367.314.482s-.193.239-.3.357c-.119-.111-.314-.21-.334-.337s.156-.259.32-.5" transform="translate(-83.4 -263.588)" fill="#fff"/>
    <path id="Path_835" data-name="Path 835" d="M122.369,367.553c-.223.159-.371.342-.471.319-.138-.032-.239-.221-.356-.342.117-.106.229-.287.353-.3s.252.16.474.32" transform="translate(-109.684 -331.245)" fill="#fff"/>
    <path id="Path_836" data-name="Path 836" d="M63.547,414.39c.149.245.313.395.291.509s-.219.217-.34.324c-.105-.12-.286-.236-.294-.363s.17-.246.343-.47" transform="translate(-57.034 -373.806)" fill="#fff"/>
    <path id="Path_837" data-name="Path 837" d="M196.849,374.5c-.217.164-.364.352-.461.329-.14-.033-.243-.218-.362-.339.116-.106.224-.286.348-.3s.253.154.475.307" transform="translate(-176.909 -337.525)" fill="#fff"/>
    <path id="Path_838" data-name="Path 838" d="M169.63,292.27c.163.231.333.367.321.482s-.2.239-.3.357c-.119-.112-.313-.211-.333-.339s.154-.259.317-.5" transform="translate(-152.799 -263.59)" fill="#fff"/>
    <path id="Path_839" data-name="Path 839" d="M136.4,295.524c-.223.162-.354.331-.474.324s-.236-.188-.353-.293c.116-.121.216-.309.353-.341.1-.024.249.155.474.311" transform="translate(-122.345 -266.244)" fill="#fff"/>
    <path id="Path_840" data-name="Path 840" d="M159.137,318c.169.232.345.367.333.483s-.2.237-.31.355c-.116-.111-.306-.211-.325-.337s.148-.261.3-.5" transform="translate(-143.342 -286.808)" fill="#fff"/>
    <path id="Path_841" data-name="Path 841" d="M77.793,303.484c-.224.154-.38.336-.478.309-.136-.038-.229-.233-.34-.36.121-.1.239-.272.362-.275s.246.167.456.327" transform="translate(-69.463 -273.416)" fill="#fff"/>
    <path id="Path_842" data-name="Path 842" d="M123.917,303.708c-.24.146-.386.306-.508.289s-.306-.218-.3-.326a.451.451,0,0,1,.326-.306c.122-.006.253.171.48.342" transform="translate(-111.102 -273.604)" fill="#fff"/>
    <path id="Path_843" data-name="Path 843" d="M175.041,310.141c-.245.166-.387.337-.5.321s-.23-.208-.343-.323c.116-.11.223-.29.351-.307s.254.15.493.31" transform="translate(-157.207 -279.439)" fill="#fff"/>
    <path id="Path_844" data-name="Path 844" d="M142.634,398.944c.147.25.306.4.283.514s-.218.217-.338.323c-.106-.121-.287-.236-.3-.364s.171-.244.352-.473" transform="translate(-128.404 -359.866)" fill="#fff"/>
    <path id="Path_845" data-name="Path 845" d="M199.563,395.841c.169.232.341.366.331.484a.318.318,0,0,1-.635.02c-.017-.118.148-.262.3-.5" transform="translate(-179.825 -357.065)" fill="#fff"/>
    <path id="Path_846" data-name="Path 846" d="M197.754,306.885c-.181-.219-.364-.343-.363-.465a.449.449,0,0,1,.3-.329.44.44,0,0,1,.333.284c.02.122-.135.271-.271.51" transform="translate(-178.14 -276.063)" fill="#fff"/>
    <path id="Path_847" data-name="Path 847" d="M98.176,310.064c-.23.173-.362.349-.479.339s-.24-.193-.358-.3c.109-.118.205-.309.331-.332s.262.142.506.293" transform="translate(-87.842 -279.383)" fill="#fff"/>
    <path id="Path_848" data-name="Path 848" d="M82.818,320.117c-.226.168-.359.344-.48.335a.453.453,0,0,1-.323-.312.447.447,0,0,1,.3-.324c.121-.015.264.15.5.3" transform="translate(-74.012 -288.45)" fill="#fff"/>
    <path id="Path_849" data-name="Path 849" d="M209,387.521c-.241.151-.388.316-.508.3a.454.454,0,0,1-.3-.337c0-.107.207-.288.33-.295s.251.167.475.334" transform="translate(-187.893 -349.255)" fill="#fff"/>
    <path id="Path_850" data-name="Path 850" d="M113.232,287.067c.182.231.362.36.353.474-.011.129-.191.244-.3.365-.117-.108-.3-.2-.331-.327s.132-.262.276-.512" transform="translate(-101.935 -258.894)" fill="#fff"/>
    <path id="Path_851" data-name="Path 851" d="M227.788,374.817c-.243.142-.391.3-.51.278s-.3-.222-.291-.329a.45.45,0,0,1,.329-.3c.12,0,.248.173.472.35" transform="translate(-204.851 -337.775)" fill="#fff"/>
    <path id="Path_852" data-name="Path 852" d="M203.334,411.826c-.238.159-.378.325-.493.309s-.231-.2-.345-.312c.113-.114.216-.3.341-.319s.256.156.5.321" transform="translate(-182.749 -371.201)" fill="#fff"/>
    <path id="Path_853" data-name="Path 853" d="M76.3,368.155c-.161-.231-.33-.368-.316-.483s.2-.234.308-.349c.117.112.31.212.329.338s-.156.257-.32.495" transform="translate(-68.566 -331.326)" fill="#fff"/>
    <path id="Path_854" data-name="Path 854" d="M46.9,321.916c.15.244.311.389.291.5s-.209.223-.324.333c-.11-.118-.3-.228-.308-.355s.166-.248.341-.482" transform="translate(-42.013 -290.346)" fill="#fff"/>
    <path id="Path_855" data-name="Path 855" d="M56.923,334.8c.164.225.334.357.327.478a.315.315,0,0,1-.63.025c-.015-.121.15-.264.3-.5" transform="translate(-51.091 -301.979)" fill="#fff"/>
    <path id="Path_856" data-name="Path 856" d="M153.719,367.882c-.242.148-.388.308-.506.289s-.309-.216-.3-.324a.452.452,0,0,1,.326-.306c.12-.008.252.168.481.341" transform="translate(-137.997 -331.524)" fill="#fff"/>
    <path id="Path_857" data-name="Path 857" d="M190.841,345.13c-.157-.243-.326-.39-.306-.5s.217-.219.337-.326c.105.118.283.229.294.356s-.16.247-.325.474" transform="translate(-171.951 -310.549)" fill="#fff"/>
    <path id="Path_858" data-name="Path 858" d="M134.091,336.875c-.233.16-.37.326-.485.313s-.236-.194-.353-.3c.112-.117.212-.31.339-.33s.258.154.5.318" transform="translate(-120.254 -303.559)" fill="#fff"/>
  </g>
</svg>
