<svg id="Doctors-category-icon-7" xmlns="http://www.w3.org/2000/svg" xmlns:xlink="http://www.w3.org/1999/xlink" width="48" height="42" viewBox="0 0 48 42">
  <defs>
    <clipPath id="clip-path">
      <rect id="Rectangle_17082" data-name="Rectangle 17082" width="48" height="42" transform="translate(-1.998 -1.748)" fill="#fff"/>
    </clipPath>
  </defs>
  <g id="Group_35462" data-name="Group 35462" transform="translate(1.998 1.748)" clip-path="url(#clip-path)">
    <path id="Path_879" data-name="Path 879" d="M29.4,0h2.622c1.012.157,2.038.255,3.034.481a14.276,14.276,0,0,1,8.951,5.7v.749a21.447,21.447,0,0,1-2.145,5.256,1.186,1.186,0,0,0-.1.538c-.008,1.4-.023,2.809.005,4.213a.938.938,0,0,1-.7,1.015,8.318,8.318,0,0,1-5.371.132,1.324,1.324,0,0,0-.713-.016,9.564,9.564,0,0,1-5.712,0,1.188,1.188,0,0,0-.666.009,10.112,10.112,0,0,1-6.255.005,1.252,1.252,0,0,0-.709,0,10.115,10.115,0,0,1-6.211.007,1.351,1.351,0,0,0-.754,0,9.349,9.349,0,0,1-5.573.012,1.6,1.6,0,0,0-.846,0,8.225,8.225,0,0,1-5.41-.185.868.868,0,0,1-.612-.927c.018-1.42.01-2.84,0-4.259a1.186,1.186,0,0,0-.1-.538A21.3,21.3,0,0,1,0,6.929V6.18c.231-.31.446-.636.7-.929A14.67,14.67,0,0,1,8.951.481c1-.221,2.022-.324,3.034-.481h2.622c.073.025.144.056.218.073,1.3.3,2.612.551,3.9.9A12.35,12.35,0,0,0,21.98,1.5a12.49,12.49,0,0,0,3.4-.55C26.7.585,28.057.313,29.4,0M41.322,10.35a13.275,13.275,0,0,0,1.289-3.394.852.852,0,0,0-.158-.665,17.138,17.138,0,0,0-2.544-2.322A15.874,15.874,0,0,0,25.769,2.19a11.216,11.216,0,0,1-7.439.017A16.317,16.317,0,0,0,8.037,2.073,12.812,12.812,0,0,0,1.569,6.24a.712.712,0,0,0-.179.765c.4,1.045.793,2.092,1.193,3.136a1.105,1.105,0,0,0,.16.218,3.574,3.574,0,0,1,6.019-.151,3.864,3.864,0,0,1,6.365.2A4.092,4.092,0,0,1,18.61,8.635a4.15,4.15,0,0,1,3.4,1.872,4.157,4.157,0,0,1,6.879-.1,3.862,3.862,0,0,1,6.354-.208c1.823-2.158,3.868-2.106,6.08.15M17.841,13.241c.06-.4.221-.741.68-.747.482-.007.639.36.708.741h2.1a2.822,2.822,0,0,0-1.372-2.888,2.649,2.649,0,0,0-3.076.14,2.76,2.76,0,0,0-1.136,2.753Zm4.836,0h2.107c.063-.422.236-.753.7-.75s.624.341.68.731h2.107a2.8,2.8,0,0,0-1.341-2.865,2.645,2.645,0,0,0-2.962.035,2.826,2.826,0,0,0-1.289,2.85m-8.3,0a2.739,2.739,0,0,0-1.24-2.944,2.379,2.379,0,0,0-2.724.119A2.706,2.706,0,0,0,9.389,13.24h1.8c.058-.388.206-.716.638-.745.513-.035.662.36.761.748Zm20.239,0a2.7,2.7,0,0,0-1.173-2.921,2.381,2.381,0,0,0-2.765.087,2.746,2.746,0,0,0-1.054,2.825h1.8c.081-.376.222-.735.685-.743.481-.009.64.351.716.752ZM19.228,14.595c-.071.389-.174.758-.648.79-.555.037-.673-.382-.758-.774h-2.1c0,.672-.012,1.31.012,1.946a.431.431,0,0,0,.247.309,8.457,8.457,0,0,0,5.1,0c.1-.032.25-.167.252-.258.022-.665.012-1.331.012-2.015Zm3.431-.007c0,.7-.012,1.35.013,2,0,.1.162.251.276.286a8.465,8.465,0,0,0,5.061,0c.107-.033.261-.162.264-.25.022-.665.012-1.332.012-2.02H26.153c-.039.413-.167.741-.615.777-.552.044-.691-.36-.768-.794Zm16.231-1.355h1.548c0-.449.031-.87-.006-1.284a2.244,2.244,0,0,0-2.113-2.007,2.2,2.2,0,0,0-2.275,1.748,12.445,12.445,0,0,0-.1,1.546h1.571c.071-.409.242-.762.728-.741.43.019.6.333.649.738m-30.858.006c0-.442.028-.832-.005-1.218A2.248,2.248,0,0,0,5.886,9.94a2.2,2.2,0,0,0-2.272,1.814A8.963,8.963,0,0,0,3.6,13.243H5.112c.049-.4.207-.721.64-.748.508-.032.667.353.75.744ZM9.354,14.59c0,.7-.01,1.349.011,2a.392.392,0,0,0,.237.27,7.691,7.691,0,0,0,4.551,0c.1-.029.239-.144.242-.223.019-.677.011-1.355.011-2.036H12.566c-.062.42-.194.767-.67.784-.526.018-.648-.377-.718-.8Zm20.246,0c0,.687-.012,1.322.012,1.956a.43.43,0,0,0,.255.3,7.746,7.746,0,0,0,4.548,0,.388.388,0,0,0,.229-.274c.02-.649.011-1.3.011-1.969H32.807c-.035.416-.167.741-.613.775-.549.043-.687-.365-.768-.789ZM8.04,14.6H6.49c-.064.432-.2.791-.7.787s-.625-.374-.674-.785H3.559c0,.675-.012,1.326.013,1.975,0,.1.161.25.275.283a6.756,6.756,0,0,0,3.91-.006.469.469,0,0,0,.271-.335c.027-.62.013-1.241.013-1.919m27.927,0c0,.676-.012,1.327.013,1.976,0,.1.167.246.283.28a6.825,6.825,0,0,0,3.912,0c.106-.031.257-.161.26-.249.022-.664.012-1.33.012-2.011H38.9c-.052.43-.19.79-.69.787s-.628-.372-.689-.782Z" transform="translate(-0.001 -0.13)" fill="#fff"/>
    <path id="Path_880" data-name="Path 880" d="M44.007,227.271v.749c-.242.322-.465.66-.728.964a14.677,14.677,0,0,1-8.224,4.734c-1,.221-2.022.324-3.033.481H29.4c-.088-.026-.174-.058-.264-.078-1.2-.267-2.417-.454-3.583-.818a10.5,10.5,0,0,0-4.968-.494c-.975.168-1.917.522-2.884.748-1.026.241-2.063.43-3.1.642H11.985c-1.012-.157-2.037-.255-3.033-.482A14.284,14.284,0,0,1,0,228.02v-.749a21.223,21.223,0,0,1,2.147-5.257,1.185,1.185,0,0,0,.1-.538c.008-1.389,0-2.777,0-4.166,0-.691.084-.828.734-1.073a8.271,8.271,0,0,1,5.371-.107,1.217,1.217,0,0,0,.666,0,9.344,9.344,0,0,1,5.708,0,1.173,1.173,0,0,0,.664,0,10.113,10.113,0,0,1,6.256-.007,1.252,1.252,0,0,0,.709,0,10.111,10.111,0,0,1,6.211-.008,1.362,1.362,0,0,0,.756.01,9.547,9.547,0,0,1,5.622,0,1.417,1.417,0,0,0,.757,0,8.34,8.34,0,0,1,5.371.132.938.938,0,0,1,.7,1.015c-.029,1.4-.013,2.808-.005,4.213a1.185,1.185,0,0,0,.1.538,21.4,21.4,0,0,1,2.145,5.256m-8.766-3.28a3.861,3.861,0,0,1-6.359-.2,4.159,4.159,0,0,1-6.883-.1,4.157,4.157,0,0,1-6.882.1A3.858,3.858,0,0,1,8.765,224c-1.843,2.16-3.885,2.108-6.079-.149a15.448,15.448,0,0,0-1.3,3.342.808.808,0,0,0,.183.767A11.148,11.148,0,0,0,5,230.818a16.177,16.177,0,0,0,13.24,1.195,11.016,11.016,0,0,1,7.391-.034,16.337,16.337,0,0,0,10.025.24,12.935,12.935,0,0,0,6.782-4.257.718.718,0,0,0,.182-.764c-.325-.89-.638-1.785-.97-2.673a7.134,7.134,0,0,0-.355-.7,3.605,3.605,0,0,1-6.051.169m-10.453-3.029H22.677a2.819,2.819,0,0,0,1.28,2.836,2.65,2.65,0,0,0,3.08-.025,2.768,2.768,0,0,0,1.225-2.808H26.153c-.042.426-.228.728-.657.741-.46.014-.644-.311-.709-.742m-9.044,0a2.777,2.777,0,0,0,1.273,2.837,2.651,2.651,0,0,0,3.08-.033,2.814,2.814,0,0,0,1.233-2.808h-2.11c-.048.394-.214.732-.669.745-.483.014-.644-.347-.714-.741Zm17.059-.009c-.025.435-.22.731-.645.75-.489.023-.642-.355-.73-.738h-1.8a2.757,2.757,0,0,0,1.192,2.913,2.487,2.487,0,0,0,2.814-.124,2.64,2.64,0,0,0,.946-2.8Zm-21.606.012h-1.8a2.7,2.7,0,0,0,1.251,2.963,2.506,2.506,0,0,0,2.772-.2,2.66,2.66,0,0,0,.914-2.765H12.556c-.05.437-.246.754-.7.743-.429-.01-.613-.317-.659-.738m4.523-1.343c.638,0,1.213-.006,1.787,0,.225,0,.335-.031.41-.3a.787.787,0,0,1,.528-.479c.2-.028.46.165.649.316.1.079.1.278.146.423h2.108c0-.674.012-1.312-.012-1.949a.431.431,0,0,0-.252-.3,8.439,8.439,0,0,0-5.1,0,.432.432,0,0,0-.248.309c-.024.636-.012,1.274-.012,1.983m12.568-.015c0-.691.01-1.342-.01-1.992a.392.392,0,0,0-.228-.278,8.466,8.466,0,0,0-5.151,0c-.094.029-.225.15-.227.231-.018.678-.01,1.356-.01,2.03H24.8c.036-.431.185-.765.655-.784.525-.021.656.37.722.795Zm7.694,1.346a11.984,11.984,0,0,0,.007,1.3,2.238,2.238,0,0,0,2.161,2.007,2.213,2.213,0,0,0,2.25-1.844,9.242,9.242,0,0,0,.013-1.455H38.887c-.03.409-.214.73-.662.743-.481.014-.645-.348-.716-.749Zm-32.417,0c0,.456-.025.863,0,1.266a2.248,2.248,0,0,0,2.051,2.031,2.2,2.2,0,0,0,2.318-1.645,11.8,11.8,0,0,0,.134-1.643H6.482c-.046.4-.221.732-.678.74-.48.008-.636-.36-.707-.748ZM14.408,219.6c0-.684.015-1.306-.013-1.926a.473.473,0,0,0-.272-.338,7.587,7.587,0,0,0-4.506,0c-.1.031-.248.168-.251.26-.022.664-.012,1.329-.012,2.006h1.856c0-.433.163-.762.623-.787.521-.028.675.349.736.786Zm20.245.008c0-.691.01-1.341-.011-1.991a.391.391,0,0,0-.231-.275,7.645,7.645,0,0,0-4.551,0c-.1.03-.245.142-.247.219-.019.678-.011,1.357-.011,2.044h1.836c.064-.414.19-.767.665-.785.527-.021.655.368.725.794ZM8.041,219.6c0-.683.015-1.305-.013-1.926a.47.47,0,0,0-.276-.332,6.8,6.8,0,0,0-3.914,0c-.107.031-.263.158-.266.245-.022.665-.012,1.331-.012,2.018H5.126c.015-.421.162-.755.622-.79.554-.041.663.4.763.788Zm27.927-.005H37.53c.038-.416.172-.741.618-.778.554-.046.686.362.759.774h1.542c0-.669.012-1.306-.012-1.941a.427.427,0,0,0-.251-.3,6.83,6.83,0,0,0-3.957,0c-.1.031-.246.169-.249.262-.022.65-.012,1.3-.012,1.986" transform="translate(-0.001 -195.566)" fill="#fff"/>
  </g>
</svg>
