<svg id="Doctors-category-icon-1" xmlns="http://www.w3.org/2000/svg" xmlns:xlink="http://www.w3.org/1999/xlink" width="45" height="45" viewBox="0 0 45 45">
  <defs>
    <clipPath id="clip-path">
      <rect id="Rectangle_17046" data-name="Rectangle 17046" width="45" height="45" transform="translate(0.281 0.329)" fill="#fff"/>
    </clipPath>
  </defs>
  <g id="Group_35266" data-name="Group 35266" transform="translate(-0.281 -0.329)" clip-path="url(#clip-path)">
    <path id="Path_724" data-name="Path 724" d="M4.126,0a1.231,1.231,0,0,1,.5,1.063,5.19,5.19,0,0,0,2.4,4.247c.872.582.876,1.078.017,1.648A5.275,5.275,0,0,0,4.612,11.2c-.006.08,0,.16-.006.24a.783.783,0,0,1-.784.843c-.432-.01-.709-.33-.755-.827a10.076,10.076,0,0,0-.178-1.324A5.169,5.169,0,0,0,.653,6.959C.423,6.8.217,6.607,0,6.429V5.853c.217-.179.421-.376.652-.534a5.242,5.242,0,0,0,2.4-4.256A1.228,1.228,0,0,1,3.55,0ZM2.239,6.14l1.6,1.966,1.6-1.963-1.6-1.97L2.239,6.14" transform="translate(0.066 0.344)" fill="#fff"/>
    <path id="Path_725" data-name="Path 725" d="M387.525,348.315a1.233,1.233,0,0,1-.5-1.062,5.216,5.216,0,0,0-2.48-4.3c-.76-.494-.772-1.058-.023-1.539a5.266,5.266,0,0,0,2.514-4.385c.035-.653.3-1,.787-.988.473.009.729.346.757.969a5.3,5.3,0,0,0,1.918,3.974c.146.124.31.224.46.343.232.184.46.375.689.563v.576c-.23.188-.449.391-.692.56a5.236,5.236,0,0,0-2.363,4.229,1.236,1.236,0,0,1-.5,1.064Zm.287-4.176,1.6-1.965-1.6-1.966-1.6,1.964,1.6,1.966" transform="translate(-347.062 -303.447)" fill="#fff"/>
    <path id="Path_726" data-name="Path 726" d="M85.5,95.982q.275,1.942.55,3.884a7.378,7.378,0,0,1-.478,4.18,3.782,3.782,0,0,1-5.185,2.118,7.325,7.325,0,0,1-4.07-4.179,33.853,33.853,0,0,1-2.5-9.461,33.647,33.647,0,0,0-1.711-7.641,10.4,10.4,0,0,1,.712-9.236,7.508,7.508,0,0,1,5.715-3.593,9.637,9.637,0,0,1,4.949.817c.923.355,1.849.705,2.762,1.088a3.184,3.184,0,0,0,2.552.013c1.286-.524,2.576-1.042,3.89-1.487a7.992,7.992,0,0,1,7.989,1.337,8.235,8.235,0,0,1,2.876,5.57,11.577,11.577,0,0,1-.761,6.018,23.5,23.5,0,0,0-1.434,6.284,36.007,36.007,0,0,1-2.58,10.227,7.376,7.376,0,0,1-4.077,4.234,3.789,3.789,0,0,1-5.237-2.174,7.784,7.784,0,0,1-.35-4.7,13.932,13.932,0,0,0,.24-4.953,5.8,5.8,0,0,0-.47-1.447,1.449,1.449,0,0,0-1.338-.937,1.413,1.413,0,0,0-1.369.959,11.455,11.455,0,0,0-.539,1.97,5.652,5.652,0,0,0-.013,1.1l-.125.013m-1.543.026.131-.013c0-.4-.031-.8.006-1.2a5.98,5.98,0,0,1,1.044-3.142,2.889,2.889,0,0,1,4.777.008,5.453,5.453,0,0,1,.786,1.676,12.55,12.55,0,0,1,.04,5.563,8.933,8.933,0,0,0-.126,3.752c.566,2.223,2.159,2.913,4.139,1.772a6.292,6.292,0,0,0,2.652-3.185,33.256,33.256,0,0,0,2.312-8.872,31.247,31.247,0,0,1,1.812-8.01,9.313,9.313,0,0,0,.293-5.8,6.345,6.345,0,0,0-8.35-4.7c-1.383.437-2.735.979-4.079,1.527a4.7,4.7,0,0,1-3.719,0c-1.329-.543-2.677-1.043-4.031-1.522a6.362,6.362,0,0,0-8.284,4.281,9.31,9.31,0,0,0,.164,6.168,32.15,32.15,0,0,1,1.832,8.1,32.836,32.836,0,0,0,2.324,8.868,6.033,6.033,0,0,0,3.1,3.381,2.333,2.333,0,0,0,3.473-1.417,6.055,6.055,0,0,0,.269-3.209c-.2-1.341-.377-2.685-.565-4.028" transform="translate(-64.448 -64.718)" fill="#fff"/>
    <path id="Path_727" data-name="Path 727" d="M120.8,200.045a.8.8,0,0,1,.708.68c.384,1.579.865,3.144,1.118,4.744a41.8,41.8,0,0,0,2.612,10.318.757.757,0,0,1-.388,1.077c-.426.178-.823-.026-1.047-.55a34.488,34.488,0,0,1-2.29-8.135,38.923,38.923,0,0,0-1.5-7.11.76.76,0,0,1,.783-1.024" transform="translate(-108.393 -180.505)" fill="#fff"/>
    <path id="Path_728" data-name="Path 728" d="M111.963,116.876a6.776,6.776,0,0,1,.772-3.071,3.342,3.342,0,0,1,2.9-1.748.789.789,0,0,1,.929.74.779.779,0,0,1-.84.786,1.794,1.794,0,0,0-1.759,1.241,15.419,15.419,0,0,0-.456,2.135c-.035.186.009.387-.028.572a.759.759,0,0,1-1.511-.073c-.013-.159,0-.319,0-.583" transform="translate(-101.15 -100.959)" fill="#fff"/>
  </g>
</svg>
