<svg id="drilling-tool-Icon" xmlns="http://www.w3.org/2000/svg" width="64.008" height="64" viewBox="0 0 64.008 64">
  <path id="Icon" d="M53.007,40H34.5a4.218,4.218,0,0,1,.147-1.92l2.821-8.362a9.011,9.011,0,0,0-4.7-11.058,3.345,3.345,0,0,0-.3-.668l-.82-1.281a3.362,3.362,0,0,0-2.842-1.555H25.36a3.378,3.378,0,0,0-3.374,3.373V19.4a4.2,4.2,0,0,1-2.218-.037l-4.125-1.223A9.049,9.049,0,0,0,4.534,29.718l2.822,8.366a4.327,4.327,0,0,1,.059,2.544A11.035,11.035,0,0,0,0,51v8a5.006,5.006,0,0,0,5,5H59.007a5.006,5.006,0,0,0,5-5V51a11.014,11.014,0,0,0-11-11ZM23.985,18.528a1.375,1.375,0,0,1,1.374-1.373h3.45a1.37,1.37,0,0,1,1.158.633l.819,1.281a1.367,1.367,0,0,1-.03,1.526L29.6,22.259a1.37,1.37,0,0,1-.452.412l0,0-2.328,1.313a1.359,1.359,0,0,1-1.544-.133l-.78-.637a1.369,1.369,0,0,1-.506-1.065ZM6.43,29.08a7.048,7.048,0,0,1,8.649-9.025L19.2,21.276c.173.052.35.079.525.116A6.845,6.845,0,0,0,18.4,24.138a1,1,0,0,0,.761,1.194,1.03,1.03,0,0,0,.217.023,1,1,0,0,0,.976-.783,4.863,4.863,0,0,1,1.628-2.65v.23a3.364,3.364,0,0,0,1.241,2.616l.781.637a3.354,3.354,0,0,0,3.79.324l2.327-1.313A3.389,3.389,0,0,0,31.241,23.4L32.4,21.737a3.353,3.353,0,0,0,.39-.785,6.984,6.984,0,0,1,2.788,8.125l-2.818,8.355a6.272,6.272,0,0,0-.074,3.85h0a1.9,1.9,0,0,0,.05.193,18.967,18.967,0,0,1-1.241,14.769l-.814,1.588a.71.71,0,0,1-.693.393.741.741,0,0,1-.674-.441l-4.463-9.745a4.244,4.244,0,0,0-7.7.006l-4.461,9.741a.74.74,0,0,1-.673.44.692.692,0,0,1-.689-.383l-.885-1.711a18.637,18.637,0,0,1-1.3-14.322c.04-.084.067-.166.031-.1.022-.045.082-.193.1-.242a6.329,6.329,0,0,0-.025-4.026ZM62.008,59a3,3,0,0,1-3,3H5a3,3,0,0,1-3-3V51a9.037,9.037,0,0,1,4.747-7.909A20.687,20.687,0,0,0,8.673,57.06l.886,1.711a2.736,2.736,0,0,0,2.433,1.457l.089,0a2.742,2.742,0,0,0,2.43-1.61l4.459-9.734a2.243,2.243,0,0,1,4.065-.006l4.46,9.738a2.767,2.767,0,0,0,4.96.143l.813-1.584A20.825,20.825,0,0,0,34.963,42H53.007a9.011,9.011,0,0,1,9,9ZM34.841,15.857a1,1,0,0,0,.707-.293l3.537-3.536,2.121,2.122a1,1,0,0,0,1.414,0l2.828-2.829L58.886,24.757a3,3,0,1,0,4.243-4.243L49.393,6.777A4.976,4.976,0,0,0,48.278,1.42a5.118,5.118,0,0,0-7.072,0L35.548,7.077a1,1,0,0,0,0,1.414l2.123,2.123L34.134,14.15a1,1,0,0,0,.707,1.707Zm26.874,6.071A1,1,0,1,1,60.3,23.343L46.863,9.907l1.415-1.416ZM37.67,7.784l4.951-4.95a3.074,3.074,0,0,1,4.244,0,3,3,0,0,1,0,4.243l-4.951,4.952Z" transform="translate(0 -0.002)" fill="#ffc936"/>
</svg>
