<svg id="why-asnan-icon" xmlns="http://www.w3.org/2000/svg" xmlns:xlink="http://www.w3.org/1999/xlink" width="64" height="64" viewBox="0 0 64 64">
  <defs>
    <clipPath id="clip-path">
      <rect id="Rectangle_17129" data-name="Rectangle 17129" width="64" height="64" fill="#fec936"/>
    </clipPath>
  </defs>
  <g id="Group_35737" data-name="Group 35737" clip-path="url(#clip-path)">
    <path id="Path_12367" data-name="Path 12367" d="M0,155.114c.081-.211.163-.421.243-.632a3.865,3.865,0,0,1,4-2.473,3.764,3.764,0,0,1,3.38,3.319c.253,2.755.42,5.518.624,8.277.111,1.494.154,3,.367,4.476a3.675,3.675,0,0,0,.838,1.822c2.352,2.645,4.767,5.235,7.168,7.835a1.283,1.283,0,0,0,1.885.182,1.3,1.3,0,0,0,.01-1.892c-2.007-2.228-4.028-4.443-6.04-6.666a3.4,3.4,0,0,1-.312-4.594,3.354,3.354,0,0,1,5.111-.178c3.518,3.58,7.037,7.158,10.505,10.785a10.281,10.281,0,0,1,1.7,2.514,10.063,10.063,0,0,1,.659,6.575c-.733,3.814-1.395,7.641-2.126,11.456a3.763,3.763,0,0,1-.632,1.07H14.505a1.251,1.251,0,0,1-.64-1.245c.038-1.268,0-2.538.031-3.806a2.846,2.846,0,0,0-.78-2.036c-3.511-3.948-6.985-7.93-10.531-11.845a8.944,8.944,0,0,1-2.43-6.281c.008-2.808-.042-5.616-.074-8.424,0-.288-.053-.575-.081-.863v-7.375m26.216,39.949c.058-.23.115-.41.148-.593.632-3.454,1.224-6.917,1.9-10.362a8.289,8.289,0,0,0-2.565-8.16c-1.422-1.344-2.744-2.794-4.113-4.2q-2.839-2.906-5.683-5.808a1.49,1.49,0,0,0-1.765-.353,1.358,1.358,0,0,0-.747,1.563,2.592,2.592,0,0,0,.593,1c1.988,2.219,4,4.413,5.995,6.63a3.2,3.2,0,1,1-4.7,4.335c-2.469-2.654-4.944-5.3-7.337-8.027a5.315,5.315,0,0,1-1.163-2.359,33.614,33.614,0,0,1-.4-4.157c-.219-2.969-.413-5.94-.64-8.908a1.875,1.875,0,0,0-1.826-1.726A1.843,1.843,0,0,0,1.965,155.5a4.768,4.768,0,0,0-.052.931c.064,5.229.148,10.457.192,15.686A6.4,6.4,0,0,0,3.78,176.49c3.424,3.842,6.791,7.735,10.267,11.529a6.109,6.109,0,0,1,1.778,4.923c-.063.694-.01,1.4-.01,2.123Z" transform="translate(0 -132.989)" fill="#fec936"/>
    <path id="Path_12368" data-name="Path 12368" d="M271,197.026a3.826,3.826,0,0,1-.678-1.116c-.79-4.143-1.611-8.284-2.262-12.45a9.11,9.11,0,0,1,2.471-8c3.5-3.658,7.057-7.261,10.606-10.872a3.37,3.37,0,0,1,4.938,4.585c-1.865,2.105-3.773,4.172-5.662,6.256-.238.262-.487.517-.7.8a1.27,1.27,0,0,0,1.865,1.714,2.789,2.789,0,0,0,.218-.224q3.492-3.794,6.986-7.586a3.619,3.619,0,0,0,1.031-2.279q.274-4.05.578-8.1c.111-1.515.163-3.039.374-4.54a3.776,3.776,0,0,1,4.076-3.17,3.819,3.819,0,0,1,3.521,3.732c-.049,5.791-.117,11.582-.253,17.371a7.171,7.171,0,0,1-2.029,4.592q-1.348,1.519-2.7,3.036c-.505.566-1.066.657-1.517.256s-.441-.932.084-1.531c.879-1,1.759-2,2.654-2.993a6.165,6.165,0,0,0,1.657-4.2q.091-8.061.17-16.122c.015-1.439-.814-2.308-2.087-2.2a1.848,1.848,0,0,0-1.717,1.687c-.141,1.722-.25,3.447-.38,5.17-.2,2.594-.375,5.189-.609,7.779a4.447,4.447,0,0,1-1.26,2.6q-3.611,3.94-7.237,7.865a3.2,3.2,0,1,1-4.7-4.335c1.908-2.122,3.833-4.23,5.749-6.345.168-.185.343-.366.492-.565a1.435,1.435,0,0,0-.173-2.018,1.451,1.451,0,0,0-1.98.1c-1.239,1.236-2.456,2.494-3.679,3.746-2.068,2.116-4.081,4.288-6.213,6.337a8.492,8.492,0,0,0-2.486,8.477c.691,3.293,1.232,6.618,1.84,9.929.041.223.1.444.149.691h10.394c0-.681-.015-1.339,0-1.995a10.3,10.3,0,0,1,.143-2.294,5.139,5.139,0,0,1,1.008-1.968c1.819-2.144,3.714-4.223,5.578-6.329a.986.986,0,0,1,1.261-.373.957.957,0,0,1,.2,1.613c-1.526,1.737-3,3.53-4.619,5.174a4.949,4.949,0,0,0-1.643,4.347c.1.8,0,1.624.036,2.435a1.328,1.328,0,0,1-.628,1.321Z" transform="translate(-234.36 -133.026)" fill="#fec936"/>
    <path id="Path_12369" data-name="Path 12369" d="M378.529,0c.708.549.779.815.426,1.646q-1.022,2.4-2.05,4.8c-.307.715-.786.972-1.346.743s-.716-.774-.42-1.475c.692-1.642,1.385-3.283,2.1-4.915a5.17,5.17,0,0,1,.541-.8Z" transform="translate(-328.01)" fill="#fec936"/>
    <path id="Path_12370" data-name="Path 12370" d="M102.948,0a3.53,3.53,0,0,1,.62.745c.738,1.666,1.449,3.344,2.149,5.026.351.844-.132,1.613-.931,1.451a1.24,1.24,0,0,1-.773-.611c-.774-1.717-1.482-3.464-2.231-5.192-.264-.61.04-1.016.415-1.419Z" transform="translate(-88.943)" fill="#fec936"/>
    <path id="Path_12371" data-name="Path 12371" d="M133.3,30.569l-.694,4.117c-.107.635-.223,1.269-.32,1.906a1.631,1.631,0,0,0,.714,1.74,1.739,1.739,0,0,0,1.89.022c1.62-.853,3.254-1.678,4.859-2.558a3.83,3.83,0,0,1,3.919-.023c1.573.851,3.167,1.662,4.744,2.507a1.763,1.763,0,0,0,2.715-2.014c-.335-1.882-.655-3.768-.948-5.657a3.489,3.489,0,0,1,1.126-3.162c1.328-1.295,2.645-2.6,3.985-3.882a1.739,1.739,0,0,0-1-3.155c-1.855-.247-3.7-.557-5.555-.82a3.638,3.638,0,0,1-2.892-2.117c-.815-1.638-1.627-3.279-2.422-4.927a1.766,1.766,0,0,0-3.379.007c-.758,1.574-1.573,3.12-2.306,4.7a4.014,4.014,0,0,1-3.378,2.419c-1.794.233-3.583.5-5.374.763a1.685,1.685,0,0,0-1.116,2.811c.465.6.467,1.174,0,1.535s-1.026.226-1.516-.347a3.606,3.606,0,0,1,2.089-5.847c1.946-.34,3.906-.6,5.864-.869a1.964,1.964,0,0,0,1.63-1.18c.777-1.611,1.6-3.2,2.365-4.815a3.674,3.674,0,0,1,6.871.028c.67,1.431,1.474,2.8,2.071,4.263a2.786,2.786,0,0,0,2.618,1.825c1.695.173,3.379.459,5.062.733A3.4,3.4,0,0,1,157.748,21a3.394,3.394,0,0,1-.84,3.635c-1.361,1.379-2.758,2.723-4.156,4.064a2.039,2.039,0,0,0-.637,2.024c.358,1.878.654,3.768.956,5.657a3.39,3.39,0,0,1-1.368,3.409,3.337,3.337,0,0,1-3.7.407q-2.543-1.261-5.031-2.631a2.321,2.321,0,0,0-2.465-.01c-1.6.891-3.222,1.738-4.859,2.557a3.555,3.555,0,0,1-5.274-2.773,12.693,12.693,0,0,1,.362-3.143c.2-1.273.444-2.539.655-3.81a1.727,1.727,0,0,0-.584-1.572c-.6-.583-1.2-1.156-1.791-1.745-.513-.512-.555-1.061-.135-1.483a1,1,0,0,1,1.488.123c.645.621,1.291,1.243,1.919,1.882a3.7,3.7,0,0,1,1.011,2.973" transform="translate(-109.783 -8.197)" fill="#fec936"/>
    <path id="Path_12372" data-name="Path 12372" d="M408.934,66.184a3.574,3.574,0,0,1-.758-.92.8.8,0,0,1,.557-1.04c.758-.276,1.531-.513,2.3-.764,1.141-.373,2.282-.75,3.426-1.115a.986.986,0,0,1,1.374.555.963.963,0,0,1-.728,1.239c-1.866.623-3.738,1.226-5.608,1.835-.137.045-.281.069-.421.1l-.14.107" transform="translate(-356.991 -54.481)" fill="#fec936"/>
    <path id="Path_12373" data-name="Path 12373" d="M41.011,61.871c.195.053.376.1.553.152q2.666.868,5.331,1.742c.717.236,1.041.734.85,1.282-.2.575-.724.783-1.441.55-1.837-.6-3.672-1.2-5.507-1.806-.435-.143-.787-.425-.714-.891a2.3,2.3,0,0,1,.529-.9c.07-.092.264-.09.4-.13" transform="translate(-35.052 -54.137)" fill="#fec936"/>
    <path id="Path_12374" data-name="Path 12374" d="M63.8,132.356a4.081,4.081,0,0,1-.771-.888.76.76,0,0,1,.454-1.033q2.091-.805,4.223-1.5a.832.832,0,0,1,1.02.527.777.777,0,0,1-.255,1.1c-1.486.628-3.011,1.165-4.672,1.793" transform="translate(-55.068 -112.78)" fill="#fec936"/>
    <path id="Path_12375" data-name="Path 12375" d="M405.924,131.078c.027.814-.559,1.332-1.175,1.137-1.384-.438-2.752-.93-4.111-1.442a.914.914,0,0,1-.5-1.2.94.94,0,0,1,1.175-.568c1.337.451,2.671.914,3.981,1.435.3.118.491.494.628.639" transform="translate(-349.949 -112.835)" fill="#fec936"/>
  </g>
</svg>
