<svg xmlns="http://www.w3.org/2000/svg" width="58.684" height="58.739" viewBox="0 0 58.684 58.739">
  <g id="FAQ-icon" transform="translate(0.495 0.5)">
    <path id="Path_647" data-name="Path 647" d="M102.633-167.812c-.179.915-.312,1.842-.544,2.744a15.888,15.888,0,0,1-5.059,8.132,1.287,1.287,0,0,0-.5,1.1c.028,1.877,0,3.755.017,5.632a1.17,1.17,0,0,1-.673,1.243,1.214,1.214,0,0,1-1.419-.375c-1.217-1.226-2.456-2.429-3.654-3.673a.887.887,0,0,0-.929-.267,24.934,24.934,0,0,1-10.819-.2,15.479,15.479,0,0,1-8.376-5.479A15.6,15.6,0,0,1,67.172-171.2a15.884,15.884,0,0,1,10.394-13.3,28.756,28.756,0,0,1,4.014-1.009l.433-.108h5.634l.545.117a25.591,25.591,0,0,1,3.007.661,16.14,16.14,0,0,1,10.98,11.847c.2.774.3,1.572.453,2.36ZM94.3-152.7c0-1.449.032-2.706-.013-3.961a1.829,1.829,0,0,1,.724-1.548,18.04,18.04,0,0,0,2.2-2.162,13.518,13.518,0,0,0,2.944-11.059A13.73,13.73,0,0,0,91.4-182.357c-2.8-1.179-5.756-1.067-8.7-.956a13.35,13.35,0,0,0-4.849,1.111,14.076,14.076,0,0,0-8.358,15.131,13.8,13.8,0,0,0,6.447,9.777,13.261,13.261,0,0,0,6.949,2.13,23.129,23.129,0,0,0,7.153-.486,1.618,1.618,0,0,1,1.82.485C92.6-154.36,93.4-153.6,94.3-152.7Z" transform="translate(-44.944 185.614)" fill="#fff" stroke="#55c5ff" stroke-width="1"/>
    <path id="Path_648" data-name="Path 648" d="M-109.57,22.207c0-.718-.006-1.348,0-1.978a1.162,1.162,0,0,1,1.32-1.308c3.906,0,7.811.013,11.717-.007a5.588,5.588,0,0,0,5.287-3.178,5.684,5.684,0,0,0,.6-2.659q-.005-3.549,0-7.1c0-.169-.007-.339.006-.507a1.119,1.119,0,0,1,1.141-1.083A1.086,1.086,0,0,1-88.4,5.459c.013,2.854.133,5.716-.037,8.56a7.774,7.774,0,0,1-7.707,7.143c-3.492.022-6.985.005-10.477.006h-.665c-.01.209-.026.389-.027.57,0,1.089.045,2.182-.033,3.265a1.625,1.625,0,0,1-.6.98.909.909,0,0,1-1.15-.088,4.554,4.554,0,0,1-.463-.409c-1.33-1.325-2.648-2.663-4-3.969a1.312,1.312,0,0,0-.819-.334c-2.046-.028-4.093-.01-6.14-.016a7.857,7.857,0,0,1-7.973-8q-.01-8.562,0-17.124a7.855,7.855,0,0,1,7.973-8c3.661-.008,7.323,0,10.984,0,.056,0,.113,0,.169,0a1.14,1.14,0,0,1,1.257,1.141,1.133,1.133,0,0,1-1.234,1.106c-.45.009-.9,0-1.352,0q-4.816,0-9.632,0a5.7,5.7,0,0,0-5.916,5.927q-.007,8.393,0,16.786a5.7,5.7,0,0,0,5.936,5.908c2.253,0,4.507.01,6.76-.006a1.6,1.6,0,0,1,1.3.62C-111.432,20.441-110.52,21.272-109.57,22.207Z" transform="translate(128.502 31.559)" fill="#fff" stroke="#55c5ff" stroke-width="1"/>
    <path id="Path_649" data-name="Path 649" d="M-61.479,123.792h11.425a4.046,4.046,0,0,1,.562.017,1.117,1.117,0,0,1,.964,1.136,1.117,1.117,0,0,1-.964,1.079,4.067,4.067,0,0,1-.562.017H-73.017a4.027,4.027,0,0,1-.562-.017,1.117,1.117,0,0,1-.964-1.136,1.117,1.117,0,0,1,.964-1.079,4.067,4.067,0,0,1,.562-.017Z" transform="translate(80.635 -88.861)" fill="#fff" stroke="#55c5ff" stroke-width="1"/>
    <path id="Path_650" data-name="Path 650" d="M-63.674,179.652q4.7,0,9.405,0c.949,0,1.511.672,1.243,1.47a1.081,1.081,0,0,1-1.114.775c-.676.005-1.352,0-2.027,0H-72.894c-.188,0-.376.008-.563-.006a1.119,1.119,0,0,1-1.085-1.139,1.109,1.109,0,0,1,1.069-1.095c.43-.026.863-.009,1.295-.009Z" transform="translate(80.634 -138.411)" fill="#fff" stroke="#55c5ff" stroke-width="1"/>
    <path id="Path_651" data-name="Path 651" d="M-65.232,70.157c-2.7,0-5.4,0-8.1,0a1.131,1.131,0,0,1-1.209-.949,1.106,1.106,0,0,1,.706-1.211,1.621,1.621,0,0,1,.55-.083q8.074-.006,16.147,0a1.134,1.134,0,0,1,1.276,1.118,1.131,1.131,0,0,1-1.267,1.127Q-61.181,70.164-65.232,70.157Z" transform="translate(80.646 -39.286)" fill="#fff" stroke="#55c5ff" stroke-width="1"/>
    <path id="Path_652" data-name="Path 652" d="M137.166,181.966a1.121,1.121,0,1,1,1.124-1.1A1.134,1.134,0,0,1,137.166,181.966Z" transform="translate(-106.184 -138.482)" fill="#fff" stroke="#55c5ff" stroke-width="1"/>
    <path id="Path_653" data-name="Path 653" d="M188.99-105.231c0-.357,0-.713,0-1.07a2.117,2.117,0,0,1,1.72-2.307,2.512,2.512,0,0,0,1.86-1.975,2.5,2.5,0,0,0-2.113-2.933,2.5,2.5,0,0,0-2.808,2.078,6.009,6.009,0,0,1-.1.609,1.061,1.061,0,0,1-1.282.872,1.131,1.131,0,0,1-.926-1.217,4.839,4.839,0,0,1,4.209-4.622,4.805,4.805,0,0,1,5.114,3.354,4.712,4.712,0,0,1-2.871,5.84.666.666,0,0,0-.549.8c.038.617.02,1.238.006,1.857a1.19,1.19,0,0,1-1.132,1.291,1.161,1.161,0,0,1-1.126-1.278C188.981-104.367,188.991-104.8,188.99-105.231Z" transform="translate(-149.91 123.71)" fill="#fff" stroke="#55c5ff" stroke-width="1"/>
    <path id="Path_654" data-name="Path 654" d="M218.867,22.506a1.1,1.1,0,0,1-1.1-1.1,1.141,1.141,0,0,1,1.125-1.146,1.19,1.19,0,0,1,1.12,1.117A1.14,1.14,0,0,1,218.867,22.506Z" transform="translate(-178.676 2.981)" fill="#fff" stroke="#55c5ff" stroke-width="1"/>
  </g>
</svg>
