<svg id="first-visit-icon" xmlns="http://www.w3.org/2000/svg" xmlns:xlink="http://www.w3.org/1999/xlink" width="460.756" height="450.149" viewBox="0 0 460.756 450.149">
  <defs>
    <clipPath id="clip-path">
      <rect id="Rectangle_17346" data-name="Rectangle 17346" width="460.756" height="450.149" fill="#ffc936"/>
    </clipPath>
  </defs>
  <g id="Group_38895" data-name="Group 38895" clip-path="url(#clip-path)">
    <path id="Path_13103" data-name="Path 13103" d="M458.5,114.149A136.843,136.843,0,0,0,323.543,0c-.44,0-.87.01-1.3.01h-.29A162.922,162.922,0,0,0,225.66,31.721a11.51,11.51,0,0,1-14.146.68,148.931,148.931,0,0,0-78.269-22.244,146.753,146.753,0,0,0-15.536.82l-.18.02a124.838,124.838,0,0,0-91.6,51.816C-.319,98.893-6.677,140.482,7.029,186.48c2.529,8.448,6.168,16.686,10.037,25.4,1.81,4.1,3.689,8.348,5.479,12.677l1.45,3.519-2.189,3.1a40.517,40.517,0,0,0-3.119,41.439l.13.28a41.32,41.32,0,0,0,35.19,24.513l7.048.45-.6,7.038a43.471,43.471,0,0,0,10.877,32.511,42.2,42.2,0,0,0,30.882,14.366l5.559.1,1.1,5.448c6.068,30.142,15.446,39.569,43.628,43.868l5.269.81.57,5.289c.03.32.07.66.1,1.01.04.45.09.91.14,1.35l.04.45A41.554,41.554,0,0,0,187,447.379l.28.11a40.107,40.107,0,0,0,44.268-10.747l.28-.3,4.459-4.469c5.069-5.089,10.307-10.357,15.526-15.486l.49-.44a56.533,56.533,0,0,0,17.065-23.434l2.829-7.288L279.085,389a40.4,40.4,0,0,0,39.209-.77,38.1,38.1,0,0,0,19.095-33.691l-.13-7.078,7.4.03a39.475,39.475,0,0,0,39.3-39.649l.87-6.388,5.169-.48c.17-.03.32-.05.46-.07a12.2,12.2,0,0,1,2-.19,38.861,38.861,0,0,0,35.67-51.976,15.588,15.588,0,0,1,2.329-15.456A156.977,156.977,0,0,0,458.5,114.149M82.489,203.735A27.676,27.676,0,0,1,106.1,220.56a25.553,25.553,0,0,1-5.608,29.142c-7.038,7.6-14.856,15.436-25.313,25.373-.21.2-.47.44-.73.68a26.338,26.338,0,0,1-37.03-1.959,26.858,26.858,0,0,1-.74-36.96l.1-.11c7.258-7.648,15.386-15.776,24.833-24.843A28.1,28.1,0,0,1,82.2,203.7m79.239,73.96a26.848,26.848,0,0,1-7.558,18.435l-.08.07-6.438,6.478c-8.478,8.528-17.245,17.355-25.993,25.923l-.38.36a26.8,26.8,0,0,1-18.405,7.268c-.32,0-.63-.01-.95-.02a27.2,27.2,0,0,1-18.745-45.868c9.048-9.287,19.165-19.415,31.781-31.831a26.119,26.119,0,0,1,29.8-5.808,27.278,27.278,0,0,1,16.955,24.813m9.387,100.133a27.429,27.429,0,0,1-19.055,7.768c-.21,0-.42,0-.63-.01a26.9,26.9,0,0,1-24.4-16.416,25.527,25.527,0,0,1,5.509-29.582c11.257-11.737,22.674-22.974,33.411-33.481a27.181,27.181,0,0,1,38.33,38.55c-10.677,10.9-21.724,21.844-32.4,32.421Zm85.677,1.33a26.694,26.694,0,0,1-7.808,19.155c-3.989,3.969-7.948,7.938-11.917,11.917-5.479,5.488-11.147,11.167-16.765,16.715-.37.39-.77.76-1.17,1.12a26.727,26.727,0,0,1-37.57-1.8c-.14-.14-.28-.28-.42-.43a26.37,26.37,0,0,1,.64-37.2c8.608-8.728,18.345-18.595,28.022-27.952A25.938,25.938,0,0,1,239.1,353.7a27.093,27.093,0,0,1,17.435,25.243Zm157.3-109A23.19,23.19,0,0,1,384.4,284.373a38.377,38.377,0,0,1-14.986-8.918c-12.077-11.627-24.073-23.714-35.68-35.41l-7.658-7.718L315.326,243.1q21.759,21.744,43.508,43.438a31.335,31.335,0,0,1,9.328,17.825,23.294,23.294,0,0,1-29.812,26.623,38.375,38.375,0,0,1-15.436-9.008c-12.107-11.717-24.094-23.814-35.69-35.52q-3.674-3.7-7.348-7.418l-10.787,10.707c14.416,14.376,29.022,28.992,43.468,43.478a29.018,29.018,0,0,1,9.258,24.253,23.605,23.605,0,0,1-.59,3.559,22.994,22.994,0,0,1-27.632,16.885,30.405,30.405,0,0,1-12.947-5.738l-.34-.27a144.647,144.647,0,0,1-10.8-10.787c-1.73-1.85-3.359-3.6-5.049-5.309-4.039-4.069-8.078-8.028-12.917-12.727l-2.679-2.6c-4.559-4.429-9.268-9.008-13.986-13.366a41.391,41.391,0,0,1-11.157-16.855A41.589,41.589,0,0,0,185.621,283h-.1c-.59-.02-1.19-.06-1.929-.11l-6.868-.44-.32-6.158A43.727,43.727,0,0,0,162.277,246.2a41.448,41.448,0,0,0-31.222-10.9l-6.508.5-.88-6.468c-2.909-21.454-13.486-34.331-32.331-39.379-17.845-4.789-33.451,1.31-47.7,18.625l-6.418,7.8-4.949-8.8a133.559,133.559,0,0,1-16.556-75.06c2.229-28.842,13.916-54.455,33.821-74.07C69.352,38.939,95,27.473,123.718,25.3a131.153,131.153,0,0,1,74.11,16.366l8.108,4.619-7.618,7.228c-.67.65-1.33,1.27-2.009,1.88q-37.43,32.9-74.78,65.762l-.2.17a27.962,27.962,0,0,0-4.639,38.77,56.154,56.154,0,0,0,31.681,20.5l.25.06A59.981,59.981,0,0,0,204.4,167.815l.14-.12c3.929-3.279,7.858-6.778,11.667-10.157,2.759-2.459,5.609-4.989,8.478-7.458.2-.19.41-.38.62-.56a19.222,19.222,0,0,1,27.073,2.049,46.619,46.619,0,0,0,61.693,7.388l.26-.18c.36-.22.73-.43,1.27-.71l4.7-2.509,3.609,3.269c.24.22.5.44.76.67.66.59,1.41,1.25,2.129,1.96l78.519,78.509a30.344,30.344,0,0,1,9.527,19.335,23.333,23.333,0,0,1-1.05,10.647m7.9-50.446c-.37.58-.78,1.14-1.11,1.58l-.28.37-4.759,6.568-83.817-83.787L346.907,130.6,336.83,119.268c-.57.49-1.13.99-1.69,1.48q-4.394,3.9-8.8,7.818-8.308,7.393-16.645,14.766c-.52.51-1.07,1-1.63,1.48a31.809,31.809,0,0,1-44.758-3.669l-.27-.3a34.306,34.306,0,0,0-48.457-2.149l-.13.12c-3.529,3.069-7.028,6.158-10.537,9.247q-3.989,3.509-8,7.028a46.377,46.377,0,0,1-63.583-.52c-.36-.34-.74-.67-1.13-1.01-3.569-3.089-5.389-6.548-5.409-10.287-.03-3.7,1.69-7.128,5.119-10.177,5.908-5.269,11.947-10.567,17.785-15.7l5.638-4.949c6.878-6.048,13.836-12.267,20.554-18.275,15.326-13.7,31.172-27.862,47.387-41.139a152.5,152.5,0,0,1,107.271-37.78A122.6,122.6,0,0,1,444.041,119.368,144.459,144.459,0,0,1,421.687,219.5" transform="translate(0)" fill="#ffc936"/>
  </g>
</svg>
