<svg id="globbe-icon" xmlns="http://www.w3.org/2000/svg" width="55.147" height="55.078" viewBox="0 0 55.147 55.078">
  <path id="Path_13074" data-name="Path 13074" d="M-3366.271,820.281c-1.593,1.107-3.1,2.135-4.573,3.2a.883.883,0,0,0-.3.742,47.06,47.06,0,0,1,1.478,10.206c0,.055.048.108.1.21a5.09,5.09,0,0,0,.6.069c2.727,0,5.453,0,8.407,0-.263-1.573-.5-3.025-.751-4.474-.052-.305-.16-.6-.2-.907a1.344,1.344,0,0,1,.968-1.664,1.312,1.312,0,0,1,1.7,1.022,34.269,34.269,0,0,1,.834,4.1,27.643,27.643,0,0,1-22.57,30.475,27.638,27.638,0,0,1-32.16-23.849,27.412,27.412,0,0,1,23.613-30.547c11.591-1.446,20.658,3.033,27.168,12.7.852,1.265.8,2.066-.044,2.589s-1.494.174-2.341-1.126C-3364.965,822.078-3365.651,821.162-3366.271,820.281Zm-38.152.027a24.379,24.379,0,0,0-5.642,14.347h8.9c.055-.114.1-.167.1-.221a46.784,46.784,0,0,1,1.474-10.193.879.879,0,0,0-.282-.747C-3401.348,822.424-3402.855,821.4-3404.423,820.309Zm43.767,17.29h-8.7c-.617,3.544-1.217,6.957-1.791,10.374a.856.856,0,0,0,.214.7c1.5,1.082,3.038,2.124,4.626,3.222A24.554,24.554,0,0,0-3360.656,837.6Zm-49.415-.032a24.45,24.45,0,0,0,5.658,14.346c1.484-1.043,2.88-2.071,4.329-3.018a.929.929,0,0,0,.446-1.206c-.4-1.784-.756-3.582-1.024-5.39-.231-1.556-.319-3.133-.474-4.731Zm11.928-2.951c.055.026.11.074.165.074,3.536.011,7.072.01,10.608.032.614,0,.608-.364.607-.792,0-1.675,0-3.35,0-5.026v-1.53l-.236.261-9.921-2.318A31.511,31.511,0,0,0-3398.143,834.616Zm25.59.1c.18-2.45-.7-8.3-1.276-9.379l-10.126,2.334c0,2.041-.014,4.327.033,6.612,0,.149.474.409.731.413,1.922.035,3.846.02,5.77.02Zm-14.276,9.825v-6.952h-11.617c.462,3.255.908,6.4,1.326,9.35Zm13.23,2.389c.416-2.989.854-6.131,1.3-9.348H-3383.9v6.964Zm-13.2-35.321c-3.586.391-7.706,5.549-9.141,10.748a24.776,24.776,0,0,0,9.141,2.16Zm2.9,12.927a25.139,25.139,0,0,0,9.266-2.261c-1.961-4.6-3.978-8.995-9.266-10.831Zm.03,23.139v13.1c5.265-1.876,7.3-6.256,9.233-10.845A25.573,25.573,0,0,0-3383.877,847.675Zm-2.957,0a24.95,24.95,0,0,0-9.335,2.308c.841,1.678,1.576,3.315,2.46,4.867a12.793,12.793,0,0,0,4.277,4.7,26.774,26.774,0,0,0,2.6,1.254Zm10.494,11.48a24.391,24.391,0,0,0,8.067-5.164l-3.657-2.69Zm-26.126-40.93,3.669,2.668,4.4-7.835A24.274,24.274,0,0,0-3402.466,818.229Zm8.063,40.921-4.4-7.857-3.647,2.705A24.2,24.2,0,0,0-3394.4,859.149Zm22.471-38.233,3.662-2.7a24.388,24.388,0,0,0-8.046-5.128Z" transform="translate(3412.949 -808.602)" fill="#fdc936"/>
</svg>
