<svg xmlns="http://www.w3.org/2000/svg" width="309.307" height="101.107" viewBox="0 0 309.307 101.107">
  <path id="Path_12408" data-name="Path 12408" d="M1806.945,711.019a25.255,25.255,0,1,0,25.333,25.26,24.839,24.839,0,0,0-25.331-25.26Zm0,40.5a15.346,15.346,0,1,1,14.241-15.309,14.618,14.618,0,0,1-14.241,15.32Zm-55.269-40.5a25.255,25.255,0,1,0,25.333,25.26,24.843,24.843,0,0,0-25.333-25.26Zm0,40.5a15.346,15.346,0,1,1,14.244-15.309,14.62,14.62,0,0,1-14.247,15.32Zm-65.771-32.793v10.691h25.657a22.529,22.529,0,0,1-5.8,13.457,26.188,26.188,0,0,1-19.8,7.846,28.5,28.5,0,1,1,0-57,27.382,27.382,0,0,1,19.322,7.652l7.562-7.56A37.258,37.258,0,0,0,1686,683.01a39.191,39.191,0,1,0,0,78.382,35.876,35.876,0,0,0,27.378-11.018,35.464,35.464,0,0,0,9.3-25.066,32.971,32.971,0,0,0-.586-6.664h-36.214l.03.086Zm269.01,8.321a23.473,23.473,0,0,0-21.631-16.091,24,24,0,0,0-23.812,25.255,24.69,24.69,0,0,0,25.068,25.255,25.075,25.075,0,0,0,21.062-11.21l-8.57-5.719a14.365,14.365,0,0,1-12.421,6.988,12.9,12.9,0,0,1-12.275-7.658l33.773-13.991-1.189-2.824Zm-34.441,8.44a13.859,13.859,0,0,1,13.192-14.715,9.723,9.723,0,0,1,9.374,5.346Zm-27.434,24.472h11.093V685.763h-11.1Zm-18.208-43.334h-.4a17.49,17.49,0,0,0-13.327-5.67,25.255,25.255,0,0,0,0,50.473,17.443,17.443,0,0,0,13.327-5.746h.4v3.629c0,9.639-5.152,14.833-13.457,14.833a14,14,0,0,1-12.735-8.969L1839,769.2a24.107,24.107,0,0,0,22.354,14.909c13,0,24.017-7.651,24.017-26.325V712.465H1874.89v4.159ZM1862.1,751.518a15.357,15.357,0,0,1,0-30.6,14.2,14.2,0,0,1,13.457,15.368,14.04,14.04,0,0,1-13.457,15.244Z" transform="translate(-1646.804 -683.005)" fill="#50595c" fill-rule="evenodd"/>
</svg>
