<svg id="why-asnan-icon" xmlns="http://www.w3.org/2000/svg" xmlns:xlink="http://www.w3.org/1999/xlink" width="70" height="64" viewBox="0 0 70 64">
  <defs>
    <clipPath id="clip-path">
      <rect id="Rectangle_17127" data-name="Rectangle 17127" width="70" height="64" fill="#ffc936"/>
    </clipPath>
  </defs>
  <g id="Group_35734" data-name="Group 35734" clip-path="url(#clip-path)">
    <path id="Path_12363" data-name="Path 12363" d="M0,30.473a1.955,1.955,0,0,1,1.83-.8c4.625.015,9.251.007,13.876.007h.931c0-.841.042-1.636-.011-2.425a1.85,1.85,0,0,1,1.116-1.916c5.172-2.893,10.319-5.832,15.484-8.738a.946.946,0,0,0,.566-.959c-.019-4.6-.011-9.193-.011-13.789,0-.207-.01-.415.006-.62a1.215,1.215,0,1,1,2.429-.016c.019.228.006.459.007.689s0,.447,0,.749h.8q3.657,0,7.314,0c1.346,0,1.735.4,1.736,1.77,0,.385,0,.77,0,1.226,1.4,0,2.739,0,4.076,0,1.387,0,1.976.762,1.382,2.035a5.368,5.368,0,0,0-.008,4.826c.6,1.3-.006,2.051-1.454,2.054q-4.443.008-8.886,0c-1.306,0-1.7-.407-1.705-1.737,0-.407,0-.814,0-1.255H36.222a22.389,22.389,0,0,1-.025,2.924,2.366,2.366,0,0,0,1.547,2.68c4.8,2.618,9.523,5.387,14.306,8.042a2.127,2.127,0,0,1,1.328,2.279c-.07.7-.013,1.413-.013,2.2H67.927c.159,0,.319,0,.478,0,1.183.024,1.594.441,1.594,1.629q0,8.411,0,16.823,0,7.1,0,14.2c0,1.253-.377,1.63-1.637,1.63q-33.357,0-66.713.012A1.658,1.658,0,0,1,0,63.156ZM50.969,61.514c.012-.174.027-.285.027-.4q-.022-16.475-.035-32.951a1.123,1.123,0,0,0-.671-1.118q-7.362-4.136-14.7-8.322a1.03,1.03,0,0,0-1.176,0q-7.389,4.228-14.805,8.407a1.04,1.04,0,0,0-.62,1.059q.028,16.268.014,32.537v.755H25.03v-.795q0-6.893,0-13.787c0-1.287.388-1.673,1.678-1.673q8.3,0,16.608,0c1.278,0,1.655.387,1.656,1.7q0,6.893,0,13.787v.8ZM2.476,61.478H16.59V32.207H2.476ZM67.525,32.221H53.408V61.494H67.525ZM27.51,61.49h6.22V47.716H27.51ZM42.494,47.736H36.257V61.493h6.238ZM43.6,5.179H36.279v3.85H43.6Zm2.453,3.01c0,.626,0,1.215,0,1.8.008,1.056-.41,1.517-1.454,1.547-.727.021-1.455-.013-2.181.019-.164.007-.321.187-.481.288.153.088.305.252.459.253,2.112.017,4.225.011,6.485.011a3.827,3.827,0,0,1-.108-3.923Z" transform="translate(0 0)" fill="#ffc936"/>
    <path id="Path_12364" data-name="Path 12364" d="M223.71,170.467a5.082,5.082,0,0,1-5.059-5.125,5.055,5.055,0,1,1,10.109.059,5.081,5.081,0,0,1-5.05,5.066m2.61-5.036a2.613,2.613,0,1,0-5.223-.047,2.612,2.612,0,0,0,5.223.047" transform="translate(-188.704 -138.154)" fill="#ffc936"/>
    <rect id="Rectangle_17111" data-name="Rectangle 17111" width="4.797" height="2.371" transform="translate(32.59 40.541)" fill="#ffc936"/>
    <rect id="Rectangle_17112" data-name="Rectangle 17112" width="4.74" height="2.375" transform="translate(22.723 40.552)" fill="#ffc936"/>
    <rect id="Rectangle_17113" data-name="Rectangle 17113" width="4.75" height="2.38" transform="translate(42.533 40.549)" fill="#ffc936"/>
    <rect id="Rectangle_17114" data-name="Rectangle 17114" width="4.799" height="2.349" transform="translate(32.597 34.885)" fill="#ffc936"/>
    <rect id="Rectangle_17115" data-name="Rectangle 17115" width="4.712" height="2.365" transform="translate(22.737 34.885)" fill="#ffc936"/>
    <rect id="Rectangle_17116" data-name="Rectangle 17116" width="4.743" height="2.348" transform="translate(42.527 34.88)" fill="#ffc936"/>
    <rect id="Rectangle_17117" data-name="Rectangle 17117" width="2.331" height="4.827" transform="translate(5.38 44.454)" fill="#ffc936"/>
    <rect id="Rectangle_17118" data-name="Rectangle 17118" width="2.353" height="4.807" transform="translate(11.275 44.457)" fill="#ffc936"/>
    <rect id="Rectangle_17119" data-name="Rectangle 17119" width="2.353" height="4.797" transform="translate(5.373 34.871)" fill="#ffc936"/>
    <path id="Path_12365" data-name="Path 12365" d="M84.5,252.543v4.828H82.088c0-1.5-.009-2.985.017-4.469a.517.517,0,0,1,.367-.343c.653-.036,1.31-.016,2.03-.016" transform="translate(-70.843 -217.713)" fill="#ffc936"/>
    <rect id="Rectangle_17120" data-name="Rectangle 17120" width="2.346" height="4.791" transform="translate(5.377 54.043)" fill="#ffc936"/>
    <rect id="Rectangle_17121" data-name="Rectangle 17121" width="2.351" height="4.788" transform="translate(11.293 54.071)" fill="#ffc936"/>
    <path id="Path_12366" data-name="Path 12366" d="M411.493,327.153v-4.868h2.4c0,1.532.007,3.035-.015,4.537a.463.463,0,0,1-.322.316c-.674.03-1.35.015-2.062.015" transform="translate(-355.134 -277.843)" fill="#ffc936"/>
    <rect id="Rectangle_17122" data-name="Rectangle 17122" width="2.336" height="4.837" transform="translate(62.291 44.431)" fill="#ffc936"/>
    <rect id="Rectangle_17123" data-name="Rectangle 17123" width="2.344" height="4.795" transform="translate(56.372 34.868)" fill="#ffc936"/>
    <rect id="Rectangle_17124" data-name="Rectangle 17124" width="2.344" height="4.791" transform="translate(62.292 34.871)" fill="#ffc936"/>
    <rect id="Rectangle_17125" data-name="Rectangle 17125" width="2.336" height="4.791" transform="translate(56.377 54.037)" fill="#ffc936"/>
    <rect id="Rectangle_17126" data-name="Rectangle 17126" width="2.359" height="4.777" transform="translate(62.273 54.051)" fill="#ffc936"/>
  </g>
</svg>
