<svg xmlns="http://www.w3.org/2000/svg" xmlns:xlink="http://www.w3.org/1999/xlink" width="133.768" height="94.275" viewBox="0 0 133.768 94.275">
  <defs>
    <clipPath id="clip-path">
      <path id="Path_1" data-name="Path 1" d="M19.855,34.151,19.75,55.5H30.637V29.18c-3.6,1.607-7.193,3.244-10.752,4.971" transform="translate(-19.75 -29.18)" fill="none"/>
    </clipPath>
    <clipPath id="clip-path-3">
      <path id="Path_3" data-name="Path 3" d="M29.868,3.71,10.061,46.463,6.382,54.436,5.6,56.088l-2.808,6.1L0,68.282H8.289L15.8,53.265l3.724-7.328.766-1.5,4.175-8.349L29.9,25.169V39l3-1.5,2.658-1.276c.481-.18,1.036-.451,1.712-.781.9-.45,2.012-1.036,3.364-1.787V3.71Z" transform="translate(0 -3.71)" fill="none"/>
    </clipPath>
    <clipPath id="clip-path-5">
      <path id="Path_5" data-name="Path 5" d="M30.463,36.716a5.571,5.571,0,0,0-1.5,3.859,5.091,5.091,0,0,0,.33,1.952,4.22,4.22,0,0,0,2.448,2.207,18.023,18.023,0,0,0,2.147.541,8.364,8.364,0,0,1,1.892.586,1.381,1.381,0,0,1,.42.36,1.111,1.111,0,0,1,.225.676c0,.871-.616,1.306-1.862,1.306a7.1,7.1,0,0,1-2.733-.6,20.694,20.694,0,0,1-2.718.345l-1.5,2.823a13.275,13.275,0,0,0,6.758,1.952,12.387,12.387,0,0,0,2.778-.3,7.328,7.328,0,0,0,3.334-1.637,5.466,5.466,0,0,0,1.907-3.934v-.481a4.67,4.67,0,0,0-1.216-3.319l-.18-.2a6.968,6.968,0,0,0-3.439-1.5,10.6,10.6,0,0,1-1.847-.571q-.721-.345-.721-.9c0-.826.6-1.231,1.787-1.231a6.908,6.908,0,0,1,3.169.871l2.042-3.889a14.641,14.641,0,0,0-5.5-1.036,7.839,7.839,0,0,0-6.007,2.1" transform="translate(-27.61 -34.573)" fill="none"/>
    </clipPath>
    <clipPath id="clip-path-6">
      <path id="Path_6" data-name="Path 6" d="M38.15,34.32V52.445h6.007v-9.6a3.529,3.529,0,0,1,.826-2.583,3.123,3.123,0,0,1,2.268-.9,2.493,2.493,0,0,1,2.222,1.066,5.721,5.721,0,0,1,.511,3v9.01H55.99V41.213a7.929,7.929,0,0,0-.541-3,5.511,5.511,0,0,0-1.412-2,5.706,5.706,0,0,0-2.6-1.306,7.944,7.944,0,0,0-1.787-.2A6.232,6.232,0,0,0,44.2,37.188V34.335Z" transform="translate(-38.15 -34.32)" fill="none"/>
    </clipPath>
    <clipPath id="clip-path-7">
      <path id="Path_7" data-name="Path 7" d="M57.875,46.188a3.769,3.769,0,0,1,0-4.94,3.844,3.844,0,0,1,5.421-.405l.21.2a3.829,3.829,0,0,1,0,5.406,3.754,3.754,0,0,1-2.718,1.1,3.679,3.679,0,0,1-2.913-1.321M64.422,34.6v2.343a6.938,6.938,0,0,0-1.862-1.5,7.508,7.508,0,0,0-3.394-.661,10.123,10.123,0,0,0-1.5.12,7.989,7.989,0,0,0-3.979,1.937,8.515,8.515,0,0,0-1.5,1.7,9.1,9.1,0,0,0-1.5,5.226,8.68,8.68,0,0,0,3,6.863A8.244,8.244,0,0,0,59.226,52.8a7,7,0,0,0,3.469-.826,6.142,6.142,0,0,0,1.727-1.5V52.8h6.007V34.58Z" transform="translate(-50.677 -34.58)" fill="none"/>
    </clipPath>
    <clipPath id="clip-path-8">
      <path id="Path_8" data-name="Path 8" d="M64.5,34.58V52.8h6.007V42.929a3.529,3.529,0,0,1,.826-2.583A3.123,3.123,0,0,1,73.6,39.43a2.568,2.568,0,0,1,2.222,1.081,5.721,5.721,0,0,1,.511,3V52.8H82.34V41.217A6.277,6.277,0,0,0,80.4,36.262a6.622,6.622,0,0,0-4.5-1.5,7.148,7.148,0,0,0-3.559.8,7.839,7.839,0,0,0-1.907,1.682V34.58Z" transform="translate(-64.5 -34.58)" fill="none"/>
    </clipPath>
  </defs>
  <g id="Group_39276" data-name="Group 39276" transform="translate(-189.406 -935.335)">
    <path id="Path_501" data-name="Path 501" d="M768.264,521.019v.507q0,14.526.007,29.052a.616.616,0,0,1-.383.664c-2.893,1.415-5.777,2.849-8.663,4.278-.534.265-1.067.533-1.65.825V542.8l-.069-.018-10.217,20.383c.213-.111.336-.168.452-.236,4.936-2.907,9.981-5.614,15.18-8.019,4.528-2.1,8.769-4.711,13.135-7.1a22.122,22.122,0,0,0,5.02-3.449,13.111,13.111,0,0,0,4.1-7.165,20.511,20.511,0,0,0,.186-3.689c-.02-1.636-.174-3.271-.207-4.907a5.982,5.982,0,0,1,.251-1.9c.5-1.57,1.069-3.119,1.655-4.66a9.682,9.682,0,0,1,.843-1.594c.11-.178.357-.272.541-.4a2.034,2.034,0,0,1,.2.616c-.01.674-.079,1.346-.106,2.02-.1,2.5-.1,5-.3,7.492a33.773,33.773,0,0,1-9.62,21.6,21.866,21.866,0,0,1-7.014,4.814c-7.661,3.356-15.273,6.82-22.612,10.849-1.71.939-3.4,1.925-5.082,2.906a1.3,1.3,0,0,0-.475.519q-3.57,7.085-7.11,14.185a.678.678,0,0,1-.719.438c-2.428-.018-4.856-.009-7.284-.009H727.8l2.7-5.861c-.07.015-.111.011-.135.029a50.052,50.052,0,0,0-10.34,10.546,18.889,18.889,0,0,0-3.336,7.353c-.173.884-.216,1.792-.333,2.688a1.969,1.969,0,0,0,.62,1.72c.532.515,1.146.946,1.728,1.407a4.011,4.011,0,0,0,.4.252,2.116,2.116,0,0,1,1.11,2.757,6.865,6.865,0,0,1-1.593,2.827,2.2,2.2,0,0,1-2.993.034,6.136,6.136,0,0,1-1.669-4.138,25.057,25.057,0,0,1,1.421-9.31,42.9,42.9,0,0,1,9.478-15.936,56.866,56.866,0,0,1,8.936-7.881,1.711,1.711,0,0,0,.532-.641q11.544-24.925,23.061-49.862a.652.652,0,0,1,.707-.444c3.218.016,6.436.009,9.654.009Z" transform="translate(-524.52 419.819)" fill="#d6dee0"/>
    <g id="Group_2179" data-name="Group 2179" transform="translate(203.145 935.335)">
      <g id="Group_2178" data-name="Group 2178" transform="translate(0 0.534)">
        <g id="Group_1" data-name="Group 1" transform="translate(29.658 43.269)" clip-path="url(#clip-path)">
          <g id="Group_1-2" data-name="Group 1" transform="translate(0.015 0)">
            <rect id="Rectangle_2" data-name="Rectangle 2" width="10.842" height="26.264" fill="#d6dee0"/>
          </g>
        </g>
        <g id="Group_2" data-name="Group 2" transform="translate(29.658 43.269)" clip-path="url(#clip-path)">
          <g id="Group_2-2" data-name="Group 2" transform="translate(0.015 0)">
            <rect id="Rectangle_3" data-name="Rectangle 3" width="10.842" height="26.264" fill="#d6dee0"/>
          </g>
        </g>
        <g id="Group_3" data-name="Group 3" transform="translate(0 5.022)" clip-path="url(#clip-path-3)">
          <g id="Group_3-2" data-name="Group 3" transform="translate(0 -0.06)">
            <rect id="Rectangle_4" data-name="Rectangle 4" width="40.515" height="64.557" fill="#d6dee0"/>
          </g>
        </g>
        <g id="Group_4" data-name="Group 4" transform="translate(0 5.022)" clip-path="url(#clip-path-3)">
          <g id="Group_4-2" data-name="Group 4" transform="translate(0 -0.06)">
            <rect id="Rectangle_5" data-name="Rectangle 5" width="40.515" height="64.557" fill="#d6dee0"/>
          </g>
        </g>
        <g id="Group_5" data-name="Group 5" transform="translate(41.461 51.367)" clip-path="url(#clip-path-5)">
          <g id="Group_5-2" data-name="Group 5" transform="translate(0.03 0.056)">
            <rect id="Rectangle_6" data-name="Rectangle 6" width="14.806" height="18.11" fill="#d6dee0"/>
            <rect id="Rectangle_7" data-name="Rectangle 7" width="14.806" height="18.11" fill="#d6dee0"/>
          </g>
        </g>
        <g id="Group_6" data-name="Group 6" transform="translate(57.289 50.988)" clip-path="url(#clip-path-6)">
          <g id="Group_6-2" data-name="Group 6" transform="translate(-0.015 0)">
            <rect id="Rectangle_8" data-name="Rectangle 8" width="17.87" height="18.14" fill="#d6dee0"/>
            <rect id="Rectangle_9" data-name="Rectangle 9" width="17.87" height="18.14" fill="#d6dee0"/>
          </g>
        </g>
        <g id="Group_7" data-name="Group 7" transform="translate(76.1 51.378)" clip-path="url(#clip-path-7)">
          <g id="Group_7-2" data-name="Group 7" transform="translate(0.02 0.015)">
            <rect id="Rectangle_10" data-name="Rectangle 10" width="19.762" height="18.14" fill="#d6dee0"/>
            <rect id="Rectangle_11" data-name="Rectangle 11" width="19.762" height="18.14" fill="#d6dee0"/>
          </g>
        </g>
        <g id="Group_8" data-name="Group 8" transform="translate(96.858 51.378)" clip-path="url(#clip-path-8)">
          <g id="Group_8-2" data-name="Group 8" transform="translate(0 0.015)">
            <rect id="Rectangle_12" data-name="Rectangle 12" width="17.87" height="18.14" fill="#d6dee0"/>
            <rect id="Rectangle_13" data-name="Rectangle 13" width="17.87" height="18.14" fill="#d6dee0"/>
          </g>
        </g>
        <path id="Path_11" data-name="Path 11" d="M80.124,3.937c-.135,1.321-.511,2.523-.661,3.844l-.751,6.2L76.9,31.928A31.866,31.866,0,0,1,72.09,45.444c-.225.27-.435.661-.8.721-.165-.315,0-.646,0-.961a47.3,47.3,0,0,0,1.1-6.007l1.2-12.929.916-9.731A55.952,55.952,0,0,1,79.374,4.012c.135-.165.27-.405.511-.45s.24.18.285.33" transform="translate(35.729 1.235)" fill="#d6dee0"/>
        <path id="Path_12" data-name="Path 12" d="M57.845,9.069c1.246,2.463-.631,4.655-1.877,6.607-.586.706-1.246,1.607-2.177,1.772A15.168,15.168,0,0,1,51,15.947L48.43,14.175c-.631-.871,0-1.892.33-2.763a39.615,39.615,0,0,1,3-5.406,2.162,2.162,0,0,1,.8-.766c2.328,0,4.22,2.012,5.316,3.874" transform="translate(24.161 2.079)" fill="#d6dee0"/>
        <path id="Path_13" data-name="Path 13" d="M37.888,13.769c1.156,2.283-.6,4.325-1.757,6.127-.541.661-1.156,1.5-2.012,1.652a11.518,11.518,0,0,1-2.6-1.427l-2.388-1.637c-.586-.811,0-1.757.3-2.568A35.318,35.318,0,0,1,32.182,10.9a2.117,2.117,0,0,1,.736-.721c2.177,0,3.919,1.877,4.956,3.6" transform="translate(14.49 4.558)" fill="#d6dee0"/>
        <path id="Path_14" data-name="Path 14" d="M81.686,21.486a1.5,1.5,0,0,0-.481.481,24.8,24.8,0,0,1-1.5,3.5,4.505,4.505,0,0,1-1.892,1.892.511.511,0,0,1-.255-.435.526.526,0,0,0-.556-.33c-.751.556-.961,1.412-1.5,2.1a5.361,5.361,0,0,1-2.493,2.222c-.285,0-.33-.42-.556-.616s-.42,0-.571.075a33.8,33.8,0,0,1-3,3.214h0a.856.856,0,0,1-.571.165,16.248,16.248,0,0,0-3.454-.6c-2.583.481-4.22,3.138-6.532,4.19-2.523,1.5-5.887.631-8.319-.451h0a9.445,9.445,0,0,1-4.07-6.427c-1.021-6.367.33-12.629,1.2-18.651l1.5-9.445L48.68.657c0-.12,0-.33-.27-.285a.526.526,0,0,0-.27.24L44.085,11.394l-1.306,8.034-.871,6.983c-.5,6.4-1.592,14.146,1.907,19.522a6.968,6.968,0,0,0,6.127,3.184h0A13.32,13.32,0,0,0,53.3,48.7c2.253-.556,3.9-3,5.076-4.775A5.721,5.721,0,0,1,63.7,40.842a8.139,8.139,0,0,0,5.2-2.6h0a13.515,13.515,0,0,1,4.625-2.823,14.311,14.311,0,0,0,3.919-3.5,6.878,6.878,0,0,0,2.433-2.508,17.855,17.855,0,0,0,2.177-7.508.375.375,0,0,0-.405-.315" transform="translate(20.742 -0.366)" fill="#d6dee0"/>
        <path id="Path_15" data-name="Path 15" d="M55.63,3.206c0-.3-.39-.225-.526,0a19.522,19.522,0,0,0-2.147,4.82,10.512,10.512,0,0,0-.811,3.469c0,2.433.36,4.76.255,7.193-.15,5.241-4.505,9.911-9.01,12.013-3.439,1.892-6.007,3.394-8.169,4.505-1.352.736-2.478,1.321-3.379,1.787-.661.33-1.231.586-1.7.781l-2.658,1.261-3,1.5q-5.256,2.688-10.346,5.706L10.52,53.557c4.505-2.733,9.235-5.2,13.981-7.508,3.544-1.742,7.133-3.379,10.737-4.986l4.775-2.027h0a18.861,18.861,0,0,0,4.505-3A34.118,34.118,0,0,0,55.36,12.246l.225-6.682a19.526,19.526,0,0,0,0-2.3" transform="translate(5.278 0.96)" fill="#d6dee0"/>
        <path id="Path_16" data-name="Path 16" d="M43.641,49.834H32.258a2.057,2.057,0,0,0-2.253,1.757,2.733,2.733,0,0,0,0,.5v5.3a2.057,2.057,0,0,0,1.787,2.3,2.9,2.9,0,0,0,.511,0H43.686a2.057,2.057,0,0,0,2.3-1.787,2.9,2.9,0,0,0,0-.511V52.131a2.057,2.057,0,0,0-1.8-2.283,2.735,2.735,0,0,0-.5,0m1.171,7.508a1.036,1.036,0,0,1-.886,1.171.916.916,0,0,1-.285,0H32.258a1.036,1.036,0,0,1-1.171-.886.916.916,0,0,1,0-.285V52.131a1.036,1.036,0,0,1,.9-1.156.811.811,0,0,1,.27,0H43.641a1.036,1.036,0,0,1,1.171.886.811.811,0,0,1,0,.27Z" transform="translate(15.045 24.445)" fill="#d6dee0"/>
        <path id="Path_17" data-name="Path 17" d="M56.752,57.413a1.036,1.036,0,0,1-.781,1.246,1.142,1.142,0,0,1-.451,0H52.187c-1.156,0-1.5-.405-1.5-.405a2.613,2.613,0,0,1-.36-1.637v-6.7H49.2v6.7a2.613,2.613,0,0,1-.36,1.637s-.27.405-1.412.405H44.183a1.036,1.036,0,0,1-1.156-.9.811.811,0,0,1,0-.27V49.83H41.915v7.583a2.057,2.057,0,0,0,1.787,2.3,2.735,2.735,0,0,0,.5,0h3.409a2.057,2.057,0,0,0,2.3-1.817,2.569,2.569,0,0,0,0-.481,2.057,2.057,0,0,0,1.787,2.3,2.735,2.735,0,0,0,.5,0h3.379a2.057,2.057,0,0,0,2.3-1.787,2.9,2.9,0,0,0,0-.511V49.83h-1.1Z" transform="translate(21.019 24.449)" fill="#d6dee0"/>
        <path id="Path_18" data-name="Path 18" d="M53.836,52.168v.36a2.057,2.057,0,0,0,1.772,2.3h.511A2.057,2.057,0,0,0,53.806,56.6a2.688,2.688,0,0,0,0,.6v.33a2.057,2.057,0,0,0,1.8,2.3H69.8V58.685H56.133a1.036,1.036,0,0,1-1.171-.886.811.811,0,0,1,0-.27V57.2c0-1.156.42-1.5.42-1.5a2.538,2.538,0,0,1,1.727-.36H69.874V54.195H57.109a2.463,2.463,0,0,1-1.622-.36s-.42-.27-.42-1.412v-.36a1.036,1.036,0,0,1,.9-1.156.811.811,0,0,1,.27,0H69.874V49.765H56.133a2.057,2.057,0,0,0-2.3,1.862,2.734,2.734,0,0,0,0,.5" transform="translate(26.984 24.409)" fill="#d6dee0"/>
        <path id="Path_19" data-name="Path 19" d="M18,50.966h7.508v8.74h1.126v-8.74h7.508V49.84H18Z" transform="translate(9.03 24.454)" fill="#d6dee0"/>
        <path id="Path_20" data-name="Path 20" d="M86.608,65.781a10.092,10.092,0,0,0-2.463-3.9,28.021,28.021,0,0,0-6.007-4.295c-1.216-.676-2.373-1.261-3.484-1.772h4.82a2.057,2.057,0,0,0,2.3-1.787,2.9,2.9,0,0,0,0-.511V52.161a2.057,2.057,0,0,0-1.787-2.3,2.9,2.9,0,0,0-.511,0H65.75v9.881h1.126V50.96H79.43a1.036,1.036,0,0,1,1.171.886.811.811,0,0,1,0,.27v1.352a1.036,1.036,0,0,1-.961,1.111H71.847a2.222,2.222,0,0,0,.255.811.916.916,0,0,0,.105.21q.18.405.36.45A47.6,47.6,0,0,1,82.809,61.7c2.3,1.787,3.514,3.469,3.649,5.031a.751.751,0,0,1-.18.616,3.7,3.7,0,0,1-.661.511.33.33,0,0,0-.135.315,1.4,1.4,0,0,0,.255.721.706.706,0,0,0,.541.39c.27,0,.481-.165.616-.526a2.252,2.252,0,0,0,.15-.886,7.209,7.209,0,0,0-.42-2.253" transform="translate(32.985 24.46)" fill="#d6dee0"/>
      </g>
      <path id="Path_1100" data-name="Path 1100" d="M75.337,3s-1.261-.916-.435-1.367,1.982,0,2.433-.12,1.321-1.5-.706-1.5S72.8.836,73.055,2.653s2.358,1.652,1.982,2.7-4.054,1.1-4.625,1.382-1.246,1.111,1.5.991,4.82-1.141,4.94-2.448S75.337,3,75.337,3Z" transform="translate(35.065 -0.01)" fill="#d6dee0"/>
    </g>
  </g>
</svg>
