<svg id="gurantee-icon" xmlns="http://www.w3.org/2000/svg" width="53.693" height="64" viewBox="0 0 53.693 64">
  <path id="Path_13069" data-name="Path 13069" d="M-3495,761h1.75a8.956,8.956,0,0,1,3.654,1.785,23.536,23.536,0,0,0,2.659,1.966,6.123,6.123,0,0,0,2.234.842c1.377.193,2.781.2,4.174.273a6.354,6.354,0,0,1,5.9,4.75c.363,1.366.673,2.747.985,4.126a4.523,4.523,0,0,0,1.39,2.386q1.4,1.292,2.78,2.607a6.392,6.392,0,0,1,1.382,7.865c-.573,1.155-1.227,2.275-1.717,3.464a6.2,6.2,0,0,0-.494,2.339,21.054,21.054,0,0,0,.388,3.408,6.622,6.622,0,0,1-4.387,7.861c-1.074.388-2.11.88-3.153,1.348a12.119,12.119,0,0,0-1.06.6c1.926,4.135,3.811,8.189,5.7,12.239a1.11,1.11,0,0,1-.013,1.235,1.141,1.141,0,0,1-1.241.354c-1.658-.3-3.322-.567-4.977-.884a.545.545,0,0,0-.69.32c-.812,1.429-1.632,2.854-2.481,4.261a5.665,5.665,0,0,1-.786.853h-.625a6.659,6.659,0,0,1-.748-1.029q-2.319-4.9-4.587-9.833a1.062,1.062,0,0,0-.748-.653c-1.021-.284-2.034-.6-3.046-.913a4.535,4.535,0,0,0-2.821.023c-.909.294-1.825.573-2.749.816a1.173,1.173,0,0,0-.832.737q-2.269,4.927-4.587,9.832A6.229,6.229,0,0,1-3504.5,825h-.625a6.111,6.111,0,0,1-.771-.865q-1.257-2.082-2.448-4.2a.613.613,0,0,0-.787-.35c-1.572.3-3.155.541-4.729.831-.536.1-1.041.178-1.421-.319-.367-.48-.149-.938.068-1.4q2.558-5.479,5.106-10.962c.536-1.151.542-1.166-.647-1.7-1.328-.593-2.684-1.124-4-1.737a6.329,6.329,0,0,1-3.659-6.625c.132-1.094.222-2.2.4-3.281a6.085,6.085,0,0,0-.7-3.962c-.964-1.846-2.138-3.628-2.289-5.8v-.25a2.116,2.116,0,0,0,.091-.357,6.529,6.529,0,0,1,2.284-4.431c.862-.784,1.7-1.6,2.557-2.385a4.726,4.726,0,0,0,1.483-2.54c.3-1.36.586-2.725.972-4.061a6.025,6.025,0,0,1,4.981-4.593,34.144,34.144,0,0,1,4.6-.349,5.456,5.456,0,0,0,3.1-1.134C-3499.066,763.167-3497.4,761.456-3495,761Zm7.557,51.028a4.585,4.585,0,0,0,4.108-2.039q1.094-1.634,2.155-3.29a6.6,6.6,0,0,1,3.109-2.6c1.249-.516,2.5-1.038,3.722-1.607a4.323,4.323,0,0,0,2.531-4.641c-.147-1.135-.242-2.278-.42-3.407a7.286,7.286,0,0,1,.876-4.814c.534-.963,1.008-1.96,1.5-2.948a4.344,4.344,0,0,0-.945-5.458c-1.007-.966-2.034-1.91-3.04-2.878a5.847,5.847,0,0,1-1.661-2.881c-.338-1.394-.653-2.794-1-4.187a4.321,4.321,0,0,0-3.914-3.4c-1.33-.09-2.66-.186-3.991-.232a6.628,6.628,0,0,1-3.876-1.369q-1.518-1.15-3.05-2.283a4.357,4.357,0,0,0-5.591.017q-1.552,1.157-3.1,2.321a6.22,6.22,0,0,1-3.332,1.283c-1.392.1-2.785.174-4.178.247a4.342,4.342,0,0,0-4.2,3.446q-.46,1.878-.882,3.766a6.616,6.616,0,0,1-2.009,3.519q-1.4,1.292-2.777,2.61a4.345,4.345,0,0,0-.959,5.506c.592,1.192,1.2,2.376,1.794,3.567a5.931,5.931,0,0,1,.648,3.264c-.138,1.408-.31,2.813-.485,4.218a4.372,4.372,0,0,0,2.763,4.858q1.775.766,3.557,1.518a6.457,6.457,0,0,1,2.972,2.484c.726,1.117,1.447,2.237,2.189,3.342a4.321,4.321,0,0,0,5.064,1.839q1.857-.536,3.7-1.116a6.638,6.638,0,0,1,4.053-.011c.437.136.872.275,1.312.4C-3489.547,811.432-3488.291,811.786-3487.439,812.028Zm.633,2,3.628,7.787c.168-.27.282-.441.385-.618.607-1.043,1.218-2.084,1.816-3.133a1.12,1.12,0,0,1,1.347-.626c.527.12,1.063.2,1.6.29.864.145,1.729.284,2.7.442l-4.555-9.77c-.546.834-1.032,1.535-1.476,2.262A6.652,6.652,0,0,1-3486.806,814.026Zm-14.508.047c-.571-.1-1.048-.159-1.509-.277a6.346,6.346,0,0,1-3.832-2.813c-.515-.792-1.039-1.579-1.613-2.452l-4.5,9.661c1.355-.239,2.579-.458,3.8-.67,1.351-.233,1.406-.2,2.089.973.631,1.087,1.264,2.172,1.946,3.343Z" transform="translate(3521 -761)" fill="#fdc936"/>
  <path id="Path_13070" data-name="Path 13070" d="M-3424.412,871.587a16.924,16.924,0,0,1-16.922-16.92,16.906,16.906,0,0,1,16.918-16.914,16.906,16.906,0,0,1,16.923,16.91A16.928,16.928,0,0,1-3424.412,871.587Zm-.036-2a14.927,14.927,0,0,0,14.955-14.857,14.908,14.908,0,0,0-14.823-14.978,14.9,14.9,0,0,0-15.017,14.847A14.925,14.925,0,0,0-3424.448,869.587Z" transform="translate(3451.291 -828.159)" fill="#fdc936"/>
  <path id="Path_13071" data-name="Path 13071" d="M-3383.064,916.106c2.4-2.327,4.738-4.581,7.059-6.852a3.366,3.366,0,0,1,2.989-1.074,3.174,3.174,0,0,1,2.685,2.231,3.222,3.222,0,0,1-.793,3.46c-1.744,1.789-3.506,3.559-5.262,5.336q-1.954,1.976-3.913,3.947a3.381,3.381,0,0,1-5.171.038c-1.682-1.674-3.365-3.348-5.032-5.037a3.211,3.211,0,0,1-.793-3.513,3.183,3.183,0,0,1,2.838-2.211,3.274,3.274,0,0,1,2.766,1.032C-3384.78,914.374-3383.875,915.29-3383.064,916.106Zm10.921-4.389a1.405,1.405,0,0,0-.917-1.493,1.394,1.394,0,0,0-1.561.485q-3.688,3.73-7.386,7.451a1.072,1.072,0,0,1-1.812.006c-1.093-1.086-2.173-2.184-3.271-3.264a1.345,1.345,0,0,0-2-.1,1.363,1.363,0,0,0,.065,2q2.524,2.554,5.078,5.078a1.334,1.334,0,0,0,2.088-.015q4.625-4.648,9.221-9.325A3.407,3.407,0,0,0-3372.143,911.717Z" transform="translate(3407.697 -889.746)" fill="#fdc936"/>
</svg>
