<svg id="Icon_-whatsapp" data-name="Icon -whatsapp" xmlns="http://www.w3.org/2000/svg" width="52.709" height="52.709" viewBox="0 0 52.709 52.709">
  <path id="Icon_simple-whatsapp" data-name="Icon simple-whatsapp" d="M38.429,31.586c-.661-.329-3.881-1.9-4.48-2.122s-1.039-.329-1.478.329-1.693,2.117-2.073,2.552-.766.461-1.419.165A17.824,17.824,0,0,1,23.7,29.249,19.925,19.925,0,0,1,20.056,24.7c-.382-.659-.042-1.021.286-1.351.3-.3.661-.758.99-1.149a5.567,5.567,0,0,0,.652-1.089,1.207,1.207,0,0,0-.055-1.151c-.165-.329-1.476-3.558-2.025-4.845-.527-1.283-1.07-1.12-1.476-1.12-.378-.033-.815-.033-1.254-.033a2.476,2.476,0,0,0-1.75.788,7.332,7.332,0,0,0-2.3,5.436c0,3.2,2.35,6.292,2.677,6.753.327.428,4.623,7.017,11.2,9.85,1.568.659,2.789,1.054,3.742,1.381a9.086,9.086,0,0,0,4.129.266c1.261-.2,3.881-1.583,4.428-3.132a5.436,5.436,0,0,0,.4-3.13c-.163-.3-.593-.461-1.252-.758M26.488,47.768h-.035a21.97,21.97,0,0,1-11.1-3.031l-.791-.47L6.325,46.408,8.532,38.4l-.525-.824A21.782,21.782,0,0,1,41.932,10.709,21.5,21.5,0,0,1,48.321,26.06,21.809,21.809,0,0,1,26.5,47.77M45.066,7.575A26.666,26.666,0,0,0,26.453,0,26.112,26.112,0,0,0,3.725,39.176L0,52.709l13.913-3.628a26.491,26.491,0,0,0,12.54,3.178h.013A26.223,26.223,0,0,0,52.709,26.133,25.9,25.9,0,0,0,45.033,7.66" transform="translate(0 0)" fill="#50595c"/>
</svg>
