<svg id="Icon-Email" xmlns="http://www.w3.org/2000/svg" xmlns:xlink="http://www.w3.org/1999/xlink" width="66.937" height="52.709" viewBox="0 0 66.937 52.709">
  <defs>
    <clipPath id="clip-path">
      <rect id="Rectangle_16993" data-name="Rectangle 16993" width="66.937" height="52.709" fill="#50595c"/>
    </clipPath>
  </defs>
  <g id="Group_35064" data-name="Group 35064" clip-path="url(#clip-path)">
    <path id="Path_710" data-name="Path 710" d="M52.687,52.709H14.25a2.834,2.834,0,0,0-.43-.118A15.665,15.665,0,0,1,.652,41.468C.372,40.494.214,39.485,0,38.492V14.233A3.024,3.024,0,0,0,.118,13.8,15.625,15.625,0,0,1,15.507.031Q33.47-.034,51.434.03A15.6,15.6,0,0,1,66.428,11.76c.209.814.341,1.648.509,2.473V38.492a2.436,2.436,0,0,0-.113.364C65.836,45.423,62.181,49.8,55.915,51.98a28.158,28.158,0,0,1-3.228.729M33.493,5.234q-8.792,0-17.584,0A10.434,10.434,0,0,0,5.231,15.87q-.008,10.5,0,21A10.431,10.431,0,0,0,15.86,47.489q17.616.012,35.233,0A10.431,10.431,0,0,0,61.705,36.918q.015-10.564-.007-21.129a10.74,10.74,0,0,0-.2-2.135A10.408,10.408,0,0,0,51.142,5.236q-8.825-.015-17.649,0" transform="translate(0 0)" fill="#50595c"/>
    <path id="Path_711" data-name="Path 711" d="M103.047,143.707a15.57,15.57,0,0,1-9.525-3.219c-4.159-3.193-8.293-6.418-12.432-9.637a2.61,2.61,0,1,1,3.2-4.118q5.942,4.586,11.865,9.2a10.519,10.519,0,0,0,13.633.113q6.183-4.7,12.356-9.414a2.614,2.614,0,0,1,4.3,1.426,2.54,2.54,0,0,1-1.079,2.68l-9.81,7.479c-1.038.791-2.07,1.591-3.118,2.369a15.778,15.778,0,0,1-9.387,3.124" transform="translate(-69.502 -109.518)" fill="#50595c"/>
  </g>
</svg>
