<svg xmlns="http://www.w3.org/2000/svg" width="54.414" height="54.415" viewBox="0 0 54.414 54.415">
  <g id="Icon-phone" transform="translate(1 1.037)">
    <path id="Icon_awesome-phone-alt" data-name="Icon awesome-phone-alt" d="M50.884,37.012,39.426,32.1a2.455,2.455,0,0,0-2.864.706l-5.074,6.2A37.919,37.919,0,0,1,13.361,20.88l6.2-5.074a2.449,2.449,0,0,0,.706-2.864L15.355,1.484A2.472,2.472,0,0,0,12.542.062L1.9,2.517A2.455,2.455,0,0,0,0,4.91,47.462,47.462,0,0,0,47.468,52.378a2.455,2.455,0,0,0,2.394-1.9l2.455-10.639a2.485,2.485,0,0,0-1.433-2.824Z" transform="translate(0 0)" fill="#50595c" stroke="#f0f3f4" stroke-width="2"/>
  </g>
</svg>
