<svg id="international-patients-icon" xmlns="http://www.w3.org/2000/svg" xmlns:xlink="http://www.w3.org/1999/xlink" width="315.262" height="252.258" viewBox="0 0 315.262 252.258">
  <defs>
    <clipPath id="clip-path">
      <rect id="Rectangle_17343" data-name="Rectangle 17343" width="315.262" height="252.258" fill="#ffc936" stroke="#ffc936" stroke-width="1"/>
    </clipPath>
  </defs>
  <g id="Group_38891" data-name="Group 38891" clip-path="url(#clip-path)">
    <path id="Path_13097" data-name="Path 13097" d="M112.3,89.974c-.649-2.476-1.185-4.657-1.795-6.819Q100.358,47.161,90.2,11.17c-1.466-5.207-.41-8.281,3.4-10.075A8.665,8.665,0,0,1,97.054.123c6.791-.073,13.6-.275,20.377.081,6.681.354,11.166,4.233,14.4,10Q159.8,60.028,187.887,109.79a8.228,8.228,0,0,0,5.336,4.256c15.339,4.492,30.625,9.171,45.933,13.772,10.675,3.209,19.015,10.213,27.536,16.908,2.323,1.825,4.62,3.7,6.763,5.724,5.962,5.648,7.192,12.475,4.749,20.142-2.4,7.529-8.023,10.973-15.37,12.649-18.611,4.242-36.924,2.827-55.226-1.982Q134.722,162.1,61.762,143.229a37.9,37.9,0,0,1-17.976-10.35C31.007,119.783,18.294,106.62,5.4,93.64A17.425,17.425,0,0,1,0,80.449c.132-15,.014-30.012.059-45.019C.085,27.67,4.2,24.479,11.751,26.219c4.373,1,8.734,2.069,13.112,3.051,7.085,1.592,11.472,5.859,13.427,12.877q3.61,12.965,7.65,25.809a5.154,5.154,0,0,0,2.727,3.088c20.622,6.336,41.291,12.512,61.955,18.713a13.2,13.2,0,0,0,1.679.216M7.58,33.229v3.978c0,14.131.062,28.263-.039,42.394a12.571,12.571,0,0,0,3.982,9.609q19.083,19.037,37.9,38.346a28.573,28.573,0,0,0,13.727,7.9c49.073,12.669,98.171,25.245,147.163,38.228,16.707,4.427,33.3,6.08,50.314,2.462,5.538-1.176,9.658-3.916,11.034-9.455,1.34-5.384-1.233-9.539-5.445-12.8-3.289-2.552-6.586-5.1-9.81-7.725a67.991,67.991,0,0,0-24.907-12.871c-14.862-4.18-29.667-8.562-44.45-13.014a7.276,7.276,0,0,1-3.85-3.029c-6.3-10.9-12.41-21.9-18.574-32.872q-19.95-35.51-39.881-71.022c-1.438-2.566-3.055-5.21-6.2-5.322-7.063-.253-14.143-.079-21.565-.079C106,39.284,114.929,70.32,124,101.826,96.532,93.7,69.746,85.8,43,77.768a5.155,5.155,0,0,1-2.747-3.085C37.1,64.661,34.139,54.58,31.1,44.519c-.871-2.891-1.943-5.783-5.2-6.676-5.883-1.611-11.832-3-18.319-4.615" transform="translate(-0.001 -0.001)" fill="#ffc936" stroke="#ffc936" stroke-width="1"/>
    <path id="Path_13098" data-name="Path 13098" d="M157.622,94.825H6.715c-4.594,0-6.746-1.3-6.639-3.992.1-2.557,2.148-3.72,6.583-3.72h301.81c4.594,0,6.76,1.305,6.656,3.992-.1,2.549-2.168,3.72-6.6,3.72H157.622" transform="translate(0.131 157.432)" fill="#ffc936" stroke="#ffc936" stroke-width="1"/>
    <path id="Path_13099" data-name="Path 13099" d="M53.6,74.74c-.025,9-6.557,15.572-15.519,15.614-9.063.042-15.657-6.692-15.55-15.883.1-9.025,6.746-15.577,15.654-15.442,9.02.135,15.44,6.681,15.415,15.712m-15.583-8a7.769,7.769,0,0,0-7.849,7.953,7.642,7.642,0,0,0,7.816,7.939,7.955,7.955,0,0,0,7.939-7.911,8.093,8.093,0,0,0-7.905-7.981" transform="translate(40.736 106.672)" fill="#ffc936" stroke="#ffc936" stroke-width="1"/>
    <path id="Path_13100" data-name="Path 13100" d="M70.462,77.473c.014,9.022-6.437,15.574-15.44,15.687-9.043.112-15.7-6.617-15.631-15.8.07-9.036,6.642-15.588,15.578-15.527,8.981.065,15.48,6.625,15.494,15.639m-23.433-.051a7.628,7.628,0,0,0,7.731,8.015,7.947,7.947,0,0,0,8.021-7.821,8.083,8.083,0,0,0-7.821-8.065,7.781,7.781,0,0,0-7.931,7.871" transform="translate(71.23 111.745)" fill="#ffc936" stroke="#ffc936" stroke-width="1"/>
  </g>
</svg>
