<svg id="jumeirah-icon" xmlns="http://www.w3.org/2000/svg" xmlns:xlink="http://www.w3.org/1999/xlink" width="388.719" height="130.676" viewBox="0 0 388.719 130.676">
  <defs>
    <clipPath id="clip-path">
      <rect id="Rectangle_17349" data-name="Rectangle 17349" width="388.719" height="130.676" fill="#fff"/>
    </clipPath>
  </defs>
  <g id="Group_38903" data-name="Group 38903" clip-path="url(#clip-path)">
    <path id="Path_13104" data-name="Path 13104" d="M510.726,166.633H536.1c0-10.793-5.9-14.921-12.014-14.921-8.134,0-12.469,7.237-13.361,14.921m14.358,34.713c-15.692,0-25.259-13.348-25.259-26.6,0-12.131,8.564-27.039,25.6-27.039,9.45,0,20.915,6.57,20.915,23.032H510.278v3.119c0,11.243,6.014,21.032,17.812,21.032,7.787,0,15.687-6.345,17.81-11.573-.338,9.126-8.914,18.026-20.815,18.026" transform="translate(-317.1 -93.711)" fill="#fff"/>
    <path id="Path_13105" data-name="Path 13105" d="M808.76,195.113c-5.232,0-8.458-3.335-8.458-9.229,0-5.678,4.006-8.351,9.229-10.356,5.232-1.667,8.359-2.442,11.911-4.227v18.03a17.281,17.281,0,0,1-12.682,5.782m21.95-.477v-1.749h-.03V162.735c0-13.132-11.023-15.025-17.467-15.025-9.017,0-13.478,2.893-17.593,5.552l.225,13.808c2.672-8.008,6.565-15.137,16.025-15.137,7.016,0,9.572,5.011,9.572,9.689,0,.554,0,4.227-.446,4.673-3.448,3.669-16.8,5.232-22.7,8.9-5.786,3.448-7.458,8.342-7.458,12.578,0,4.781,3.452,13.569,13.357,13.569,7.475,0,13.253-3.98,16.77-7.519a.142.142,0,0,0,.052-.047v.857a6.571,6.571,0,0,1-3,5.7,54.128,54.128,0,0,1,7.692-.715,63.994,63.994,0,0,1,8.1.715,6.634,6.634,0,0,1-3.105-5.7" transform="translate(-501.725 -93.71)" fill="#fff"/>
    <path id="Path_13106" data-name="Path 13106" d="M656.8,194.548V155.161c0-4.1,1.109-6.687,2.78-7.58a10.872,10.872,0,0,0-7.622,2.82,10.873,10.873,0,0,0-7.623-2.82c.018.008.039.026.056.035a.264.264,0,0,0-.056,0c1.672.888,2.781,3.482,2.781,7.575v39.352a6.555,6.555,0,0,1-3,5.7,54.122,54.122,0,0,1,7.692-.715,64.072,64.072,0,0,1,8.1.715,6.627,6.627,0,0,1-3.114-5.7" transform="translate(-408.645 -93.621)" fill="#fff"/>
    <path id="Path_13107" data-name="Path 13107" d="M638.6,64.4a12.726,12.726,0,0,0-3.088,3.534c-2.963-9.507-20.642-14.877-11.833-25.328-18.086,17.354,8.77,21.677,11.833,36.84.26-3.872,2.408-6.692,5.05-9.294A7.269,7.269,0,0,0,638.6,64.4" transform="translate(-391.731 -27.028)" fill="#fff"/>
    <path id="Path_13108" data-name="Path 13108" d="M665.21,22.491C662.914,13.006,645.59,4.859,650.441,0c-12.023,7.3,3,16.562,9.857,24.128,2.23,3,1.065,5.509-1.2,7.835-4.9-9.269-20.686-16.081-14.241-23.267-12.062,10.563-.294,17.116,7.025,24.531a28.286,28.286,0,0,1,2.434,2.793,11.182,11.182,0,0,1,2.356,5.2,8.083,8.083,0,0,1-.364,3.526,10.792,10.792,0,0,1-1.157,2.412c3.647-3.456,5.167-6.6,5.332-9.507,3.577-3.673,6.293-8.03,4.73-15.159" transform="translate(-405.816)" fill="#fff"/>
    <path id="Path_13109" data-name="Path 13109" d="M153.061,194.637v-1.749h-.021V155.813c0-4.634.221-7.35,2.891-8.1a62.045,62.045,0,0,0-7.735.844,59.261,59.261,0,0,0-7.508-.844c2.67.753,2.891,3.469,2.891,8.1v33.3c-3.224,3.11-6.336,5.674-11.8,5.674-6.343,0-11.46-4.894-11.46-14.357V155.813c0-4.634.221-7.35,2.9-8.1a61.875,61.875,0,0,0-7.739.844,61.933,61.933,0,0,0-7.729-.844c2.659.753,2.886,3.469,2.886,8.1v11.369h0v13.245c0,16.579,10.356,20.919,16.915,20.919,7.664,0,12.595-3.867,15.938-7.45v.741a6.643,6.643,0,0,1-3.116,5.7,54.175,54.175,0,0,1,7.694-.715,64.106,64.106,0,0,1,8.108.715,6.629,6.629,0,0,1-3.119-5.7" transform="translate(-68.359 -93.71)" fill="#fff"/>
    <path id="Path_13110" data-name="Path 13110" d="M342.938,194.637V162.955c0-10.46-8.9-15.245-16.463-15.245-7.127,0-14.134,5.228-17.586,9.792-2.235-6.345-8.909-9.792-15.135-9.792-7.57,0-13.584,5.557-16.25,7.679l-.111.1c.013-4.435.284-7.043,2.891-7.779a61.965,61.965,0,0,0-7.74.844,59.265,59.265,0,0,0-7.5-.844c2.67.753,2.891,3.469,2.891,8.1v38.823a6.646,6.646,0,0,1-3.114,5.7,54.2,54.2,0,0,1,7.692-.715,64.042,64.042,0,0,1,8.105.715,6.639,6.639,0,0,1-3.112-5.7V159.724c2.115-2.551,6.115-5.678,11.236-5.678,8.9,0,11.577,5.457,11.577,11.8v28.789a6.559,6.559,0,0,1-3.008,5.7,54.188,54.188,0,0,1,7.7-.715,63.971,63.971,0,0,1,8.1.715,6.647,6.647,0,0,1-3.11-5.7v-31.9a4.372,4.372,0,0,0-.221-1.672c2.781-3.889,7.566-7.016,12.019-7.016,8.574,0,11.683,5.678,11.683,12.248v28.342a6.714,6.714,0,0,1-3.229,5.7,54.362,54.362,0,0,1,7.7-.715,64.1,64.1,0,0,1,8.108.715,6.639,6.639,0,0,1-3.118-5.7" transform="translate(-168.007 -93.71)" fill="#fff"/>
    <path id="Path_13111" data-name="Path 13111" d="M733.339,147.71c-3.9,0-9.685,5.786-12.015,9.793,0,0-.083.108-.225.273v-1.962c0-4.634.225-7.35,2.889-8.1a61.953,61.953,0,0,0-7.74.845,59.221,59.221,0,0,0-7.5-.845c2.668.753,2.893,3.469,2.893,8.1v37.078h-.008v1.746a6.548,6.548,0,0,1-3,5.7,54.41,54.41,0,0,1,7.705-.715,64.068,64.068,0,0,1,8.1.715,6.62,6.62,0,0,1-3.11-5.7V161.622c2.109-2.672,5.448-6.012,9.672-6.012a7.954,7.954,0,0,1,6.57,3.452V148.6a7.451,7.451,0,0,0-4.227-.888" transform="translate(-449.57 -93.71)" fill="#fff"/>
    <path id="Path_13112" data-name="Path 13112" d="M974.617,154.659V123.2c0-10.238-8.013-15.466-16.7-15.466-7.341,0-14.344,5.786-16.8,7.9V92.8c0-4.638.225-7.35,2.893-8.108a62.843,62.843,0,0,0-7.744.844,62.3,62.3,0,0,0-7.726-.844c2.672.758,2.893,3.469,2.893,8.108v61.856a6.544,6.544,0,0,1-3.006,5.7,54.284,54.284,0,0,1,7.692-.715,64.31,64.31,0,0,1,8.116.715,6.631,6.631,0,0,1-3.118-5.7V120.084c2.1-2.888,7.116-5.782,12.127-5.782,9.121,0,11.91,6,11.91,12.573v27.784a6.721,6.721,0,0,1-3.231,5.7,54.3,54.3,0,0,1,7.7-.715,64.3,64.3,0,0,1,8.112.715,6.63,6.63,0,0,1-3.118-5.7" transform="translate(-589.016 -53.732)" fill="#fff"/>
    <path id="Path_13113" data-name="Path 13113" d="M24.888,85.539a69.338,69.338,0,0,0-8.311-.844c2.675.758,2.9,3.469,2.9,8.108v55.217C19.476,177.059,3.453,182.4,0,184.409c26.933-4.119,30.157-31.612,30.157-37.394V104.168h0V92.8c0-4.639.223-7.35,2.887-8.108a67.587,67.587,0,0,0-8.16.844" transform="translate(0.001 -53.732)" fill="#fff"/>
  </g>
</svg>
