<svg id="laborattry-icon" xmlns="http://www.w3.org/2000/svg" width="85.175" height="114.762" viewBox="0 0 85.175 114.762">
  <path id="Path_13033" data-name="Path 13033" d="M-3247,1769.44a16.492,16.492,0,0,1,.938-2.258,6.445,6.445,0,0,1,5.724-3.333c2.987-.047,5.975-.012,8.963-.013h1.163v-8.294c-1.565,0-3.155-.027-4.743.007a7.6,7.6,0,0,1-4.391-1.045,6.713,6.713,0,0,1-2.926-7.488,6.693,6.693,0,0,1,6.254-4.908c2.65-.052,5.3-.033,7.955-.006a2.234,2.234,0,0,1,2.349,2.2,2.248,2.248,0,0,1-2.393,2.268c-2.428.026-4.855,0-7.282.011-1.618.007-2.645.9-2.634,2.254s1.031,2.224,2.665,2.225q17.479.007,34.956,0c1.687,0,2.743-.911,2.707-2.3-.035-1.345-1.058-2.177-2.708-2.182-2.316-.007-4.631,0-6.947,0-1.633-.007-2.651-.874-2.656-2.232s1.016-2.219,2.64-2.251a99.018,99.018,0,0,0,9.951-.266c7.884-.956,13.939-8.826,13.127-16.722-.037-.362-.135-.718-.192-1.011a1.087,1.087,0,0,0-.168-.115c-1.869-.571-3.236-.385-4.394,1.609-1.056,1.82-3.17,2.425-5.294,2.325a1.335,1.335,0,0,0-1.466.836c-.569,1.09-1.2,2.15-1.844,3.2a4.425,4.425,0,0,1-6.287,1.652q-6.713-3.816-13.377-7.718a4.418,4.418,0,0,1-1.655-6.287c.633-1.142,1.348-2.241,1.929-3.408a1.525,1.525,0,0,0-.031-1.256,6.758,6.758,0,0,1-.153-7.319q6.057-10.525,12.142-21.035a6.471,6.471,0,0,1,6.306-3.464,1.17,1.17,0,0,0,1.3-.738,18.149,18.149,0,0,1,1.06-1.842,3.956,3.956,0,0,0,.769-3.682,4.508,4.508,0,0,1,.524-2.969,61.234,61.234,0,0,1,3.171-5.532,7.606,7.606,0,0,1,1.428-1.349h1.345a5.774,5.774,0,0,0,.52.38q10.37,5.986,20.741,11.967c1.728,1,2.018,2.082,1.036,3.8-.962,1.684-1.961,3.349-2.9,5.043a4.857,4.857,0,0,1-3.488,2.547,1.414,1.414,0,0,0-.86.533q-1.127,1.8-2.123,3.682a1.145,1.145,0,0,0,.025.972,6.775,6.775,0,0,1,.1,7.7c-.367.6-.261.931.2,1.423a10.982,10.982,0,0,1,2.992,9.57,3.068,3.068,0,0,0,.214,1.394q5.613,16-5.019,29.2c-.793.982-1.717,1.86-2.64,2.851,4.115,4.482,4.791,9.984,4.384,15.774,2.652,0,5.079-.037,7.5.01a6.456,6.456,0,0,1,5.722,3.334,16.879,16.879,0,0,1,.941,2.258v12.323H-3247Zm80.6,7.8a2.205,2.205,0,0,0,.075-.327q.008-2.746.011-5.491c0-2.445-.668-3.107-3.137-3.107h-69.925a8.172,8.172,0,0,0-1.119.022,2.016,2.016,0,0,0-1.958,1.846c-.115,2.333-.035,4.676-.035,7.056Zm-24.983-56.16c-.289-.246-.536-.421-.741-.636a11.156,11.156,0,0,1-1.673-13.075,11.257,11.257,0,0,1,12.067-5.574c1.375.284,2.066-.235,2.219-1.659a2.369,2.369,0,0,0-1.429-2.433q-8.343-4.8-16.677-9.619c-1.695-.974-2.8-.644-3.8,1.083q-2.246,3.874-4.478,7.756-3.663,6.352-7.323,12.705c-.831,1.447-.664,2.677.593,3.411q8.7,5.082,17.447,10.077a2.154,2.154,0,0,0,3.1-.826C-3191.85,1721.953-3191.665,1721.586-3191.378,1721.084Zm11.406,2.344a19.766,19.766,0,0,1-2.856,13.614,20.31,20.31,0,0,1-10.912,8.582c.238,1.526.458,2.939.677,4.343,13.1-3.3,20.453-18.124,16.975-29.054Zm2.7-10.632a6.732,6.732,0,0,0-6.661-6.75,6.794,6.794,0,0,0-6.778,6.77,6.721,6.721,0,0,0,6.741,6.663A6.672,6.672,0,0,0-3177.274,1712.8ZM-3189.4,1763.8c0-1.376.012-2.64,0-3.9a4.144,4.144,0,0,0-4.372-4.351c-3.174-.017-6.347,0-9.521,0h-2.113v8.26Zm-36.211-.036h15.544v-8.153h-15.544Zm51.756-77.5,2.229-3.885-17.457-10.083-2.24,3.881Zm-25.484,39.645-13.585-7.841-2.23,3.886,13.58,7.834Zm5.474-40.844,13.584,7.838,2.238-3.877-13.585-7.842Zm13.361,78.712c.313-4.8.1-9.324-3.463-12.954l-4.066,2.247c3.556,2.849,3.161,6.847,3.114,10.707Z" transform="translate(3247 -1667)" fill="#50595c"/>
  <path id="Path_13034" data-name="Path 13034" d="M-3122.349,2004.372a2.334,2.334,0,0,1-2.381,2.294,2.333,2.333,0,0,1-2.234-2.323,2.329,2.329,0,0,1,2.379-2.292A2.335,2.335,0,0,1-3122.349,2004.372Z" transform="translate(3153.501 -1926.706)" fill="#50595c"/>
</svg>
