<svg id="laborattry-icon2" xmlns="http://www.w3.org/2000/svg" width="51.638" height="69.575" viewBox="0 0 51.638 69.575">
  <path id="Path_13033" data-name="Path 13033" d="M-3247,1729.1a10.033,10.033,0,0,1,.569-1.369,3.908,3.908,0,0,1,3.47-2.021c1.811-.029,3.623-.007,5.434-.008h.7v-5.028c-.949,0-1.913-.016-2.875,0a4.61,4.61,0,0,1-2.663-.633,4.07,4.07,0,0,1-1.774-4.539,4.057,4.057,0,0,1,3.792-2.976c1.607-.032,3.215-.02,4.822,0a1.354,1.354,0,0,1,1.424,1.332,1.363,1.363,0,0,1-1.451,1.375c-1.472.016-2.943,0-4.415.007-.981,0-1.6.544-1.6,1.366s.625,1.348,1.615,1.349q10.6,0,21.193,0c1.022,0,1.663-.552,1.641-1.393-.021-.815-.641-1.32-1.642-1.323-1.4,0-2.808,0-4.211,0-.99,0-1.607-.53-1.61-1.353s.616-1.345,1.6-1.365a60,60,0,0,0,6.033-.161,9.474,9.474,0,0,0,7.958-10.138c-.023-.22-.082-.435-.116-.613a.639.639,0,0,0-.1-.07,1.968,1.968,0,0,0-2.664.975,3.336,3.336,0,0,1-3.21,1.41.809.809,0,0,0-.889.507c-.345.661-.728,1.3-1.118,1.939a2.683,2.683,0,0,1-3.811,1q-4.07-2.313-8.11-4.679a2.678,2.678,0,0,1-1-3.812c.383-.693.817-1.359,1.169-2.066a.924.924,0,0,0-.019-.762,4.1,4.1,0,0,1-.092-4.437q3.672-6.381,7.361-12.753a3.924,3.924,0,0,1,3.823-2.1.709.709,0,0,0,.791-.447,11.019,11.019,0,0,1,.643-1.117,2.4,2.4,0,0,0,.466-2.232,2.733,2.733,0,0,1,.318-1.8,37.156,37.156,0,0,1,1.923-3.354,4.608,4.608,0,0,1,.866-.818h.815a3.528,3.528,0,0,0,.316.23q6.286,3.629,12.574,7.255a1.437,1.437,0,0,1,.628,2.3c-.583,1.021-1.188,2.03-1.76,3.057a2.944,2.944,0,0,1-2.114,1.544.859.859,0,0,0-.522.323q-.683,1.092-1.287,2.233a.694.694,0,0,0,.015.589,4.107,4.107,0,0,1,.059,4.666c-.222.364-.158.564.122.863a6.659,6.659,0,0,1,1.813,5.8,1.863,1.863,0,0,0,.13.845,17.378,17.378,0,0,1-3.043,17.705c-.481.6-1.041,1.128-1.6,1.728,2.495,2.717,2.9,6.053,2.657,9.563,1.608,0,3.079-.022,4.55.006a3.913,3.913,0,0,1,3.469,2.021,10.2,10.2,0,0,1,.571,1.369v7.471H-3247Zm48.867,4.731a1.272,1.272,0,0,0,.046-.2q.005-1.665.007-3.329c0-1.483-.405-1.883-1.9-1.883h-42.392a4.988,4.988,0,0,0-.679.013,1.223,1.223,0,0,0-1.187,1.119c-.069,1.415-.021,2.835-.021,4.278Zm-15.146-34.047c-.175-.149-.325-.255-.449-.386a6.763,6.763,0,0,1-1.014-7.927,6.824,6.824,0,0,1,7.315-3.379c.833.172,1.253-.143,1.345-1.006a1.437,1.437,0,0,0-.866-1.475q-5.058-2.911-10.111-5.832c-1.027-.59-1.7-.39-2.3.657q-1.362,2.348-2.715,4.7-2.221,3.851-4.44,7.7c-.5.877-.4,1.623.36,2.068q5.273,3.081,10.577,6.109a1.306,1.306,0,0,0,1.877-.5C-3213.565,1700.315-3213.453,1700.093-3213.279,1699.789Zm6.915,1.421a11.983,11.983,0,0,1-1.731,8.254,12.313,12.313,0,0,1-6.615,5.2l.41,2.633c7.942-2,12.4-10.988,10.291-17.614Zm1.635-6.445a4.081,4.081,0,0,0-4.038-4.092,4.118,4.118,0,0,0-4.109,4.1,4.075,4.075,0,0,0,4.087,4.04A4.045,4.045,0,0,0-3204.729,1694.764Zm-7.348,30.922c0-.834.007-1.6,0-2.367a2.512,2.512,0,0,0-2.65-2.638c-1.924-.01-3.848,0-5.772,0h-1.281v5.008Zm-21.953-.022h9.424v-4.943h-9.424Zm31.378-46.982,1.352-2.355-10.583-6.113-1.358,2.353Zm-15.45,24.035-8.236-4.753-1.352,2.356,8.233,4.749Zm3.319-24.762,8.236,4.752,1.357-2.351-8.236-4.755Zm8.1,47.719c.19-2.908.059-5.653-2.1-7.854l-2.465,1.362c2.156,1.727,1.917,4.151,1.888,6.491Z" transform="translate(3247 -1667)" fill="#fdc936"/>
  <path id="Path_13034" data-name="Path 13034" d="M-3124.257,2003.412a1.369,1.369,0,0,1-1.4,1.346,1.368,1.368,0,0,1-1.311-1.363,1.366,1.366,0,0,1,1.4-1.345A1.37,1.37,0,0,1-3124.257,2003.412Z" transform="translate(3143.275 -1956.52)" fill="#fdc936"/>
</svg>
