<svg id="Likes-icon-2" xmlns="http://www.w3.org/2000/svg" xmlns:xlink="http://www.w3.org/1999/xlink" width="19.316" height="19.314" viewBox="0 0 19.316 19.314">
  <defs>
    <clipPath id="clip-path">
      <rect id="Rectangle_79" data-name="Rectangle 79" width="19.316" height="19.314" fill="#fff"/>
    </clipPath>
  </defs>
  <g id="Group_967" data-name="Group 967" clip-path="url(#clip-path)">
    <path id="Path_656" data-name="Path 656" d="M0,10.3V9.017c.012-.055.027-.109.035-.164.064-.421.1-.847.193-1.263A9.623,9.623,0,0,1,9.178.012a9.5,9.5,0,0,1,4.383.811,9.634,9.634,0,0,1,5.584,10.64A9.431,9.431,0,0,1,15.564,17.3a9.31,9.31,0,0,1-4.226,1.862c-.345.059-.693.1-1.04.15H9.015c-.055-.012-.108-.028-.164-.035-.329-.043-.663-.065-.988-.129a9.544,9.544,0,0,1-5.887-3.631,9.3,9.3,0,0,1-1.83-4.2C.09,10.982.049,10.64,0,10.3m17.814-.621a8.158,8.158,0,1,0-8.173,8.138,8.14,8.14,0,0,0,8.173-8.138" transform="translate(0 0.001)" fill="#fff"/>
    <path id="Path_657" data-name="Path 657" d="M48.9,90.132a4.379,4.379,0,0,1-3.844-2.613.532.532,0,0,1,.075-.63.521.521,0,0,1,.565-.158.589.589,0,0,1,.368.353,3.256,3.256,0,0,0,1.486,1.545,3.543,3.543,0,0,0,2.5.305A3.25,3.25,0,0,0,52.372,87.1a.568.568,0,0,1,.616-.391.553.553,0,0,1,.4.811A4.246,4.246,0,0,1,51.423,89.6a5.1,5.1,0,0,1-2.524.534" transform="translate(-39.375 -75.881)" fill="#fff"/>
    <path id="Path_658" data-name="Path 658" d="M49.622,47.452a1.124,1.124,0,0,1,1.122,1.128,1.141,1.141,0,0,1-1.125,1.134,1.155,1.155,0,0,1-1.137-1.146,1.135,1.135,0,0,1,1.14-1.115" transform="translate(-42.434 -41.533)" fill="#fff"/>
    <path id="Path_659" data-name="Path 659" d="M90.672,47.453a1.119,1.119,0,0,1,1.12,1.128,1.136,1.136,0,0,1-1.123,1.132,1.153,1.153,0,0,1-1.136-1.145,1.133,1.133,0,0,1,1.14-1.115" transform="translate(-78.363 -41.534)" fill="#fff"/>
  </g>
</svg>
