<svg id="mcroscope-Icon" xmlns="http://www.w3.org/2000/svg" width="50.213" height="64" viewBox="0 0 50.213 64">
  <path id="Icon" d="M57.6,44.473H38.172A1.008,1.008,0,0,0,37.1,45.541v3.2a1.008,1.008,0,0,0,1.067,1.067h2.455a16.122,16.122,0,0,1-1.921.96,8.093,8.093,0,0,0-5.336-2.028,8,8,0,0,0-5.656,2.348A15.089,15.089,0,0,1,17.681,36.9a15.29,15.29,0,0,1,9.285-13.981,5.028,5.028,0,0,0,1.814.427,5.165,5.165,0,0,0,3.095-1.067L41.8,36.683c.213.213.427.427.64.427h.213a1.517,1.517,0,0,0,.64-.213l.427-.32a4.738,4.738,0,0,0,1.174.854l-.213,1.387a1.17,1.17,0,0,0,.854,1.281h.213a1.039,1.039,0,0,0,1.067-.854l.213-1.281a4.282,4.282,0,0,0,1.6-.32l.534.96a1.121,1.121,0,0,0,.961.534.962.962,0,0,0,.534-.107,1.182,1.182,0,0,0,.427-1.494l-.747-1.174a6.52,6.52,0,0,0,.747-1.494h1.281a1.067,1.067,0,0,0,0-2.134H51.086c-.107-.213-.107-.534-.213-.747l.534-.427c.213-.213.427-.427.427-.64a.9.9,0,0,0-.213-.747L35.5,6.587c-.213-.213-.427-.427-.64-.427a.9.9,0,0,0-.747.213L32.089,7.761,28.46,2.532a1.05,1.05,0,0,0-1.494-.32L23.444,4.666a.676.676,0,0,0-.534.64.9.9,0,0,0,.213.747l3.629,5.229-.64.427c-.213.213-.427.427-.427.64a.9.9,0,0,0,.213.747l.747,1.067a4,4,0,0,0-1.387,1.281A22.571,22.571,0,0,0,10.318,36.683,22.326,22.326,0,0,0,23.444,57.173H11.705a1.008,1.008,0,0,0-1.067,1.067v2.882L8.61,64.11a.969.969,0,0,0,0,1.067c.213.64.534.854.961.854H47.35a1.121,1.121,0,0,0,.96-.534.969.969,0,0,0,0-1.067l-2.028-2.988V58.561a1.008,1.008,0,0,0-1.067-1.067H42.441a22.931,22.931,0,0,0,8.965-7.577H57.6a1.008,1.008,0,0,0,1.067-1.067v-3.2A1.041,1.041,0,0,0,57.6,44.473Zm-24.333,6.4a6,6,0,0,1,5.976,5.976v.534H27.393v-.534a6.214,6.214,0,0,1,.32-2.028,4.533,4.533,0,0,1,1.067-1.814h0A6.188,6.188,0,0,1,33.263,50.877ZM27.5,20.888a2.652,2.652,0,0,1-1.387-2.348,2.45,2.45,0,0,1,.427-1.494,2.421,2.421,0,0,1,1.708-1.174h.534a2.642,2.642,0,0,1,2.668,2.668,2.145,2.145,0,0,1-.427,1.387l-.107.213A2.645,2.645,0,0,1,27.5,20.888ZM48.844,33.161h0a.962.962,0,0,1,.107.534,2.141,2.141,0,0,1-2.134,2.134,1.863,1.863,0,0,1-1.281-.427l1.281-.854ZM34.33,8.721,49.165,30.386l-6.19,4.269L33.263,20.461v-.107a1.979,1.979,0,0,0,.213-.747v-.213a2.35,2.35,0,0,0,.107-.854,2.955,2.955,0,0,0-.107-.961v-.107a4.662,4.662,0,0,0-3.842-3.629h-.213c-.213,0-.427-.107-.64-.107h-.213l-.534-.747.64-.427h0L32.2,10.109h0ZM25.365,5.733,27.18,4.559l2.988,4.376-1.814,1.281ZM12.239,36.9a20.529,20.529,0,0,1,11.739-18.57v.213a1.816,1.816,0,0,0,.107.747V19.5c0,.213.107.32.107.534,0,.107,0,.107.107.213.107.213.107.32.213.534,0,.107.107.107.107.213a2.232,2.232,0,0,0,.427.64,17.231,17.231,0,0,0,1.281,31.376v.107a2.333,2.333,0,0,1-.32.534c0,.107-.107.213-.107.32-.107.107-.107.32-.213.427,0,.107-.107.213-.107.32s-.107.213-.107.427c0,.107-.107.213-.107.32a.392.392,0,0,1-.107.32v.32A20.781,20.781,0,0,1,12.239,36.9Zm-.64,27,.747-1.067H44.682l.747,1.067Zm32.55-3.2H12.772V59.628h31.27V60.7Zm12.38-13.02H50.765a.951.951,0,0,0-.854.534,20.689,20.689,0,0,1-8.645,7.364v-.107c0-.107-.107-.32-.107-.427a.392.392,0,0,0-.107-.32c0-.213-.107-.32-.107-.534,0-.107-.107-.213-.107-.32-.107-.213-.107-.32-.213-.534,0-.107,0-.107-.107-.213a2.232,2.232,0,0,0-.427-.64h0a15.181,15.181,0,0,0,4.376-2.988,1.2,1.2,0,0,0,.32-1.174,1.026,1.026,0,0,0-.961-.64H39.346V46.608H56.635v1.067Z" transform="translate(-8.45 -2.031)" fill="#ffc936"/>
</svg>
