<svg xmlns="http://www.w3.org/2000/svg" width="378.131" height="389.24" viewBox="0 0 378.131 389.24">
  <path id="Path_774" data-name="Path 774" d="M826.872,663.3c24.315-14.236,33.336-18.751,50.7-26.785,15.126-7,29.288-15.736,43.872-23.714,6.006-3.286,11.848-6.705,16.767-11.52,6.827-6.683,12.069-14.356,13.707-23.932a68.509,68.509,0,0,0,.623-12.323c-.067-5.465-.583-10.925-.691-16.391a19.959,19.959,0,0,1,.837-6.362c1.674-5.243,3.571-10.419,5.527-15.565a32.323,32.323,0,0,1,2.816-5.323c.366-.595,1.191-.908,1.807-1.349a6.767,6.767,0,0,1,.668,2.058c-.032,2.25-.265,4.5-.353,6.746-.327,8.342-.346,16.707-.99,25.024-2.153,27.828-12.566,52.031-32.133,72.16A73.03,73.03,0,0,1,906.6,642.1c-25.589,11.211-51.014,22.78-75.526,36.239-5.714,3.137-11.342,6.428-16.975,9.708-.65.378-25.3,14.494-45.249,31.067s-24.873,21.684-34.538,35.225c-5.312,7.442-9.372,15.511-11.143,24.561-.578,2.952-.723,5.986-1.112,8.977a6.579,6.579,0,0,0,2.07,5.746c1.776,1.721,3.826,3.159,5.773,4.7a13.294,13.294,0,0,0,1.339.841c3.874,2.376,4.848,4.742,3.708,9.209a22.94,22.94,0,0,1-5.319,9.443c-2.369,2.688-7.458,2.643-10,.113-3.822-3.808-5.228-8.626-5.575-13.821-.716-10.708,1.533-20.993,4.746-31.1,6.421-20.189,17.472-37.65,31.658-53.229a189.949,189.949,0,0,1,29.849-26.325C781.045,692.932,802.556,677.534,826.872,663.3Z" transform="matrix(-0.809, -0.588, 0.588, -0.809, 473.825, 1229.593)" fill="#ffc936"/>
</svg>
