<svg id="payment-plan-icon" xmlns="http://www.w3.org/2000/svg" xmlns:xlink="http://www.w3.org/1999/xlink" width="226.011" height="174.175" viewBox="0 0 226.011 174.175">
  <defs>
    <clipPath id="clip-path">
      <rect id="Rectangle_17342" data-name="Rectangle 17342" width="226.011" height="174.175" fill="#ffc936"/>
    </clipPath>
  </defs>
  <g id="Group_38889" data-name="Group 38889" clip-path="url(#clip-path)">
    <path id="Path_13093" data-name="Path 13093" d="M225.8,100.066c.029-5.874.088-11.718.088-17.592v-61.4c-.058-7.218-3.594-12.917-9.234-14.816A109.205,109.205,0,0,0,175.011.123a256.957,256.957,0,0,0-43.1,6.575c-6.137,1.4-12.361,2.952-18.352,4.471-8.329,2.1-16.92,4.267-25.453,6.02a319.075,319.075,0,0,1-34.454,5.143,118.608,118.608,0,0,1-37.172-3.361,19.162,19.162,0,0,0-4.179-.5A12.5,12.5,0,0,0,4.845,20.7C2.128,22.654.491,25.839.111,29.872a50.336,50.336,0,0,0-.088,5.172c.029.789.029,1.549.029,2.309v113.97c0,10.14,3.828,15.342,13.209,17.943a114.521,114.521,0,0,0,37.7,4.822A263.228,263.228,0,0,0,93.8,167.454c5.786-1.315,11.543-2.747,17.3-4.208,7.978-1.987,16.219-4.062,24.43-5.757a345.125,345.125,0,0,1,35.447-5.552,117.094,117.094,0,0,1,38.545,3.361c4.588,1.081,9,.263,12.069-2.221,3.01-2.426,4.53-6.254,4.413-11.017-.351-14-.263-28.229-.2-41.993M187.577,9.942,187.9,7.02l2.922.351c.672.088,1.344.146,2.016.234a43.148,43.148,0,0,1,5.319.76c2.688.614,5.348,1.315,8.007,1.987,2.1.555,4.208,1.081,6.312,1.607a7.744,7.744,0,0,1,6.371,7.773c.117,4.3.117,8.767.088,13.092l-.029,8.095-2.835.088c-.263,0-.526.029-.789.029A27.877,27.877,0,0,1,187.4,13.887a22.178,22.178,0,0,1,.175-3.945M6.891,31.626c0-2.455.731-4.267,2.163-5.406a6.18,6.18,0,0,1,5.494-.964c4.822,1.023,9.614,2.1,14.524,3.215l9.293,2.075.088,2.25c.321,6.78-2.542,13.822-7.89,19.258a28.47,28.47,0,0,1-20.222,8.884H9.755l-2.864-.088ZM38.423,164.24l-2.776-.263-.117,2.893H32.286l.058-.292c-1.461-.175-2.893-.409-4.325-.672-3.127-.7-6.108-1.49-9.118-2.279-1.87-.5-3.77-.994-5.669-1.461A7.1,7.1,0,0,1,7.242,155.3c-.088-4.734-.088-9.439-.058-14.173v-8.562l2.981.058a28.839,28.839,0,0,1,28.4,29.34c-.029.76-.058,1.52-.146,2.279m180.6-24.138v3.01a5.12,5.12,0,0,1-6.692,5.7c-5.2-.964-10.4-1.958-15.693-2.981l-9.264-1.753.058-2.455a30.893,30.893,0,0,1,.2-3.331l-14,9.351.292-2.747c-.789.058-1.578.088-2.367.146a108.8,108.8,0,0,0-12.244,1.14c-12.04,2.075-24.46,4.53-37.931,7.452-6.663,1.461-13.3,3.039-19.93,4.617-8.5,2.046-17.3,4.15-26.038,5.932a168.105,168.105,0,0,1-17.3,2.309c-2.455.234-4.939.468-7.393.76-.321,0-.614.029-.877.029a12.03,12.03,0,0,1-1.49-.088l-2.484-.321-.088-2.484c-.847-23.7-12.683-36.529-36.149-39.159l-2.6-.292V68.125L9.7,67.862C32.2,65.729,43.887,54.1,45.407,32.269l.175-2.513L48.1,29.58c1.987-.175,3.974-.263,5.961-.38a106.823,106.823,0,0,0,12.507-1.169c12.654-2.163,25.424-4.646,37.931-7.393,6.634-1.461,13.355-3.127,19.842-4.7,8.27-2.016,16.8-4.091,25.278-5.845,6.224-1.286,12.624-1.958,18.79-2.6q4.208-.438,8.416-.964l3.156-.38.146,3.156c1.052,23.729,12.858,36.587,36.09,39.3l2.572.321v56.313l-2.572.292c-20.719,2.309-32.408,13.121-35.623,33.022l7.1-.584a28.572,28.572,0,0,1,28.171-24.723l2.689-.029.321,3.244a11.828,11.828,0,0,1,.146,1.753c.029,7.306,0,14.612,0,21.888" transform="translate(0 -0.002)" fill="#ffc936"/>
    <path id="Path_13094" data-name="Path 13094" d="M32.2,74.165a3.9,3.9,0,0,1-.847,3.01,4.094,4.094,0,0,1-3.01,1.344h-.409a3.606,3.606,0,0,1-2.542-.877,4.271,4.271,0,0,1-1.315-2.952L20.424,24.427a4.027,4.027,0,0,1,.847-2.952,4.084,4.084,0,0,1,2.922-1.315,4.715,4.715,0,0,1,.643,0,3.715,3.715,0,0,1,2.426.847,3.955,3.955,0,0,1,1.286,2.542l1.432-.2-1.4.5L30.3,47.659h-.029Z" transform="translate(39.215 38.729)" fill="#ffc936"/>
    <path id="Path_13095" data-name="Path 13095" d="M62.6,73.529a3.278,3.278,0,0,1-.906,2.542A3.425,3.425,0,0,1,59.389,77.3h-.351a4.385,4.385,0,0,1-2.805-1.2L24.088,50.092,51.353,20.519a3.4,3.4,0,0,1,2.25-1.257h.351a3.486,3.486,0,0,1,2.309.935,3.325,3.325,0,0,1,1.2,2.279,3.544,3.544,0,0,1-1.052,2.659L33.819,48.982l27.353,22,.058.029A3.423,3.423,0,0,1,62.6,73.529" transform="translate(46.304 37.026)" fill="#ffc936"/>
    <path id="Path_13096" data-name="Path 13096" d="M92.035,45.035c-.672-9.059-3.8-15.985-9.264-20.573a20.792,20.792,0,0,0-1.87-1.4c-.643-.438-1.315-.847-1.987-1.227l-.964-.5a19.281,19.281,0,0,0-1.87-.818c-.555-.2-1.052-.409-1.578-.555q-1.052-.351-2.192-.614a36.576,36.576,0,0,0-8.182-.906c-1.227,0-2.542.029-3.857.117l-16.92,1.227a4.041,4.041,0,0,0-2.864,1.227,3.811,3.811,0,0,0-.731,2.747L43.378,73.7a3.839,3.839,0,0,0,1.227,2.776,3.5,3.5,0,0,0,2.338.731,2.852,2.852,0,0,0,.555-.029l16.949-1.227a34.952,34.952,0,0,0,16.365-4.822,24.17,24.17,0,0,0,5.026-4.267c4.763-5.348,6.838-12.683,6.2-21.83M66.669,69.524c-1.081.175-2.192.321-3.361.409l-11.981.847L48.054,25.543,62.2,24.579c.789,0,1.607,0,2.367.029.555.029,1.081.088,1.607.117.526.058,1.052.146,1.549.234a11.162,11.162,0,0,1,1.49.321,2.965,2.965,0,0,1,.526.117c.526.146,1.11.321,1.666.526a18.779,18.779,0,0,1,3.478,1.636c.38.263.789.526,1.169.818a10.749,10.749,0,0,1,1.11.906,6.988,6.988,0,0,1,.672.643,14.973,14.973,0,0,1,1.286,1.432,25.6,25.6,0,0,1,4.793,14.378c.994,13.706-4.793,21.742-17.242,23.788" transform="translate(76.372 35.45)" fill="#ffc936"/>
  </g>
</svg>
