<svg xmlns="http://www.w3.org/2000/svg" width="51.01" height="61.629" viewBox="0 0 51.01 61.629">
  <g id="Prevention-icon" transform="translate(0 0.001)">
    <path id="Path_637" data-name="Path 637" d="M325.186-425.614c1.386.363,2.769.742,4.16,1.086q9.554,2.361,19.111,4.707a1.9,1.9,0,0,1,1.653,2.1c0,6.824.139,13.651-.037,20.47-.213,8.288-2.372,16.037-7.411,22.774a27.022,27.022,0,0,1-17.1,10.414,7.393,7.393,0,0,1-3.251-.328c-9.8-2.362-16.241-8.541-19.984-17.719a43.891,43.891,0,0,1-3.148-18.222.894.894,0,0,1,.9-.981c.541,0,.874.368.9.978.115,2.382.083,4.782.382,7.141.842,6.642,2.907,12.844,7.138,18.164a25.519,25.519,0,0,0,14.965,9.058,7.523,7.523,0,0,0,3.646-.336c8.558-2.215,14.3-7.656,17.8-15.631a39.939,39.939,0,0,0,3.164-12.521c.144-1.6.215-3.2.222-4.8.025-5.981.01-11.961.01-17.942v-.756c-1.7-.423-3.361-.843-5.026-1.253-5.984-1.473-11.97-2.936-17.949-4.427a3.009,3.009,0,0,0-1.519.058q-11.272,2.783-22.547,5.553c-.075.018-.148.043-.283.083v.709q0,6.2,0,12.4c0,.457-.081.893-.559,1.01a1.168,1.168,0,0,1-.921-.154,1.325,1.325,0,0,1-.314-.906c-.02-3.592-.013-7.185-.013-10.777,0-.7,0-1.4,0-2.107a1.893,1.893,0,0,1,1.585-2.033c2.312-.571,4.626-1.133,6.938-1.7q8.043-1.981,16.084-3.967a2.006,2.006,0,0,0,.316-.137Z" transform="translate(-299.152 425.613)" fill="#fff"/>
    <path id="Path_638" data-name="Path 638" d="M348.3-357.275c0,2.749-.144,5.508.03,8.246.374,5.879,1.917,11.409,5.536,16.193a18.681,18.681,0,0,0,12.116,7.274,6.247,6.247,0,0,0,2.562-.486,19.12,19.12,0,0,0,11.511-9.067c.112-.19.216-.385.329-.574.369-.617.835-.8,1.334-.522a.924.924,0,0,1,.26,1.406c-.668,1.07-1.312,2.164-2.077,3.164a20.381,20.381,0,0,1-13.252,7.888,7.847,7.847,0,0,1-3.222-.515A21.157,21.157,0,0,1,349.774-336a32.036,32.036,0,0,1-3.144-11.4c-.167-1.935-.207-3.884-.221-5.827-.031-4.234-.01-8.469-.009-12.7a1.851,1.851,0,0,1,1.684-2.168q8.7-2.19,17.407-4.37a2.923,2.923,0,0,1,1.353-.012q8.765,2.171,17.518,4.393a1.828,1.828,0,0,1,1.61,2.109c0,5.078.022,10.155-.006,15.233a35.768,35.768,0,0,1-2.044,11.6c-.232.667-.666.928-1.223.76a.936.936,0,0,1-.52-1.333,36.358,36.358,0,0,0,1.955-12.76c-.059-4.374-.021-8.75,0-13.125,0-.48-.12-.7-.606-.818-5.65-1.406-11.294-2.835-16.943-4.247a1.614,1.614,0,0,0-.752,0c-5.667,1.415-11.329,2.846-17,4.257a.648.648,0,0,0-.592.766c.025,2.789.012,5.579.012,8.369Z" transform="translate(-340.692 378.953)" fill="#fff"/>
    <path id="Path_639" data-name="Path 639" d="M410.77-260.76a9.826,9.826,0,0,1,1.805-6.116,5.98,5.98,0,0,1,6.991-2.085,9.816,9.816,0,0,0,6.456,0c3.7-1.212,7.015.655,8.258,4.517a12.2,12.2,0,0,1-.917,9.325c-.556,1.154-1.246,2.243-1.786,3.4a30.814,30.814,0,0,0-1.585,3.877c-.536,1.736-1.275,2.458-2.807,2.387a2.769,2.769,0,0,1-2.505-2.648c-.135-.97-.135-1.958-.261-2.929a3.891,3.891,0,0,0-.427-1.3,1.314,1.314,0,0,0-2.368,0,11.741,11.741,0,0,0-.569,2.548,21.7,21.7,0,0,1-.375,2.476,2.447,2.447,0,0,1-2.627,1.85,2.341,2.341,0,0,1-2.33-2.044,22.32,22.32,0,0,0-2.6-5.851,17.555,17.555,0,0,1-2.244-6.045C410.807-259.921,410.793-260.465,410.77-260.76Zm1.732-.288c.146.865.248,1.74.448,2.593a21.441,21.441,0,0,0,2.487,5.507,17.637,17.637,0,0,1,2,4.866c.093.431.229.84.778.823a.842.842,0,0,0,.811-.826c.106-.69.112-1.4.227-2.083a14.481,14.481,0,0,1,.579-2.675,2.943,2.943,0,0,1,2.982-2.009,2.928,2.928,0,0,1,2.933,1.99,14.653,14.653,0,0,1,.587,2.673c.12.707.129,1.432.241,2.141a.814.814,0,0,0,.837.787c.52,0,.647-.4.735-.8a16.738,16.738,0,0,1,1.794-4.5c.6-1.088,1.2-2.173,1.745-3.289a10.713,10.713,0,0,0,1.163-6.747,9.134,9.134,0,0,0-.525-1.839,4.447,4.447,0,0,0-5.959-2.727,9.551,9.551,0,0,1-4.184.617,29.963,29.963,0,0,1-3.386-.751,4.272,4.272,0,0,0-5.1,2.053A8.532,8.532,0,0,0,412.5-261.048Z" transform="translate(-397.304 288.193)" fill="#fff"/>
  </g>
</svg>
