<svg xmlns="http://www.w3.org/2000/svg" width="121.858" height="147.396" viewBox="0 0 121.858 147.396">
  <g id="Prevention-icon-3" transform="translate(0 0.002)">
    <path id="Path_637" data-name="Path 637" d="M361.344-425.614c3.312.868,6.614,1.774,9.938,2.6q22.823,5.646,45.654,11.258c2.773.685,3.948,2.193,3.949,5.016,0,16.32.331,32.649-.087,48.958-.509,19.823-5.668,38.355-17.7,54.469-10.254,13.728-24.165,21.617-40.85,24.908-2.737.54-5.234-.173-7.766-.783-23.406-5.648-38.8-20.427-47.74-42.378a105.082,105.082,0,0,1-7.521-43.583,2.138,2.138,0,0,1,2.151-2.346c1.292,0,2.089.881,2.159,2.338.275,5.7.2,11.438.913,17.079,2.012,15.886,6.944,30.718,17.052,43.443,9.235,11.626,21.381,18.451,35.749,21.664,3.084.69,5.868-.067,8.709-.8,20.445-5.3,34.167-18.311,42.515-37.386a95.611,95.611,0,0,0,7.558-29.947c.344-3.816.514-7.659.531-11.491.06-14.3.024-28.608.024-42.912v-1.808c-4.056-1.013-8.029-2.016-12.007-3-14.295-3.523-28.6-7.021-42.88-10.588a7.182,7.182,0,0,0-3.628.138q-26.927,6.657-53.862,13.282c-.179.044-.355.1-.676.2v1.7q0,14.832.009,29.664c0,1.093-.194,2.136-1.336,2.415a2.787,2.787,0,0,1-2.2-.369,3.171,3.171,0,0,1-.749-2.168c-.049-8.592-.031-17.184-.031-25.776,0-1.68-.005-3.36,0-5.04A4.527,4.527,0,0,1,303-411.727c5.522-1.366,11.05-2.709,16.573-4.07q19.214-4.737,38.424-9.489a4.789,4.789,0,0,0,.755-.328Z" transform="translate(-299.153 425.612)" fill="#ffc936"/>
    <path id="Path_638" data-name="Path 638" d="M350.945-336.016c0,6.575-.345,13.173.071,19.722.893,14.062,4.58,27.287,13.226,38.729,7.3,9.667,17.115,15.337,28.944,17.4,1.918.334,4.118-.589,6.121-1.163,12.105-3.473,21.135-10.894,27.5-21.686.267-.454.515-.92.785-1.373.882-1.476,1.995-1.909,3.188-1.248,1.177.652,1.49,1.968.621,3.362-1.595,2.56-3.135,5.176-4.961,7.567a48.679,48.679,0,0,1-31.658,18.866c-2.433.41-5.2-.524-7.7-1.231-15.18-4.293-25.768-14.036-32.612-28.054a76.69,76.69,0,0,1-7.511-27.262c-.4-4.627-.494-9.289-.529-13.937-.075-10.128-.024-20.256-.022-30.384,0-3.175.98-4.418,4.023-5.185q20.789-5.237,41.583-10.451a6.975,6.975,0,0,1,3.232-.029q20.939,5.193,41.848,10.508c2.832.714,3.845,2.049,3.846,5.043,0,12.144.053,24.289-.015,36.432a85.636,85.636,0,0,1-4.882,27.755c-.554,1.6-1.591,2.22-2.921,1.818-1.253-.379-1.792-1.639-1.243-3.189a87.05,87.05,0,0,0,4.671-30.519c-.14-10.462-.05-20.928,0-31.392.005-1.148-.288-1.668-1.447-1.957-13.5-3.362-26.981-6.781-40.475-10.158a3.851,3.851,0,0,0-1.8-.01c-13.537,3.383-27.064,6.807-40.6,10.181a1.55,1.55,0,0,0-1.415,1.831c.059,6.672.029,13.344.029,20.016Z" transform="translate(-332.777 387.863)" fill="#ffc936"/>
    <path id="Path_639" data-name="Path 639" d="M410.77-248.819c.065-5.691,1.179-10.494,4.313-14.627,3.982-5.252,10.109-7.216,16.7-4.987a23.424,23.424,0,0,0,15.422.01c8.847-2.9,16.759,1.567,19.727,10.8,2.487,7.738,1.252,15.151-2.191,22.3-1.329,2.759-2.976,5.366-4.267,8.141a73.726,73.726,0,0,0-3.785,9.273c-1.281,4.151-3.046,5.88-6.707,5.709-3.078-.144-5.461-2.573-5.984-6.332-.323-2.319-.323-4.682-.624-7.005a9.312,9.312,0,0,0-1.02-3.11,3.138,3.138,0,0,0-5.658.009,28.107,28.107,0,0,0-1.359,6.094,51.965,51.965,0,0,1-.9,5.922,5.847,5.847,0,0,1-6.276,4.424c-2.864-.107-4.845-1.7-5.565-4.889-1.15-5.091-3.715-9.515-6.2-13.994a42.016,42.016,0,0,1-5.36-14.459C410.858-246.813,410.825-248.113,410.77-248.819Zm4.138-.688c.349,2.069.593,4.162,1.069,6.2,1.113,4.771,3.581,8.954,5.94,13.172A42.209,42.209,0,0,1,426.7-218.5c.223,1.03.548,2.009,1.858,1.967a2.014,2.014,0,0,0,1.937-1.975c.254-1.649.267-3.337.543-4.981a34.66,34.66,0,0,1,1.383-6.4,7.03,7.03,0,0,1,7.123-4.8,6.994,6.994,0,0,1,7.006,4.76,35.1,35.1,0,0,1,1.4,6.394c.286,1.691.308,3.425.575,5.12a1.945,1.945,0,0,0,2,1.883c1.241-.011,1.546-.947,1.755-1.916a40.056,40.056,0,0,1,4.286-10.761c1.425-2.6,2.875-5.2,4.169-7.866,2.471-5.1,3.831-10.43,2.777-16.136a21.864,21.864,0,0,0-1.255-4.4c-2.592-6.236-7.8-8.627-14.235-6.522-3.264,1.067-6.579,1.913-10,1.475a71.516,71.516,0,0,1-8.088-1.8c-5.248-1.307-9.347.311-12.178,4.91A20.424,20.424,0,0,0,414.908-249.508Z" transform="translate(-378.601 314.432)" fill="#ffc936"/>
  </g>
</svg>
