<svg xmlns="http://www.w3.org/2000/svg" width="23.886" height="29.137" viewBox="0 0 23.886 29.137">
  <g id="Prevention-icon2" transform="translate(0 0)">
    <path id="Path_637" data-name="Path 637" d="M311.343-425.614c.649.171,1.3.351,1.948.513q4.474,1.116,8.949,2.225a.9.9,0,0,1,.774.991c0,3.226.065,6.454-.017,9.678a18.4,18.4,0,0,1-3.47,10.767,12.636,12.636,0,0,1-8.007,4.924A3.431,3.431,0,0,1,310-396.67a13.055,13.055,0,0,1-9.358-8.377,20.929,20.929,0,0,1-1.474-8.615.421.421,0,0,1,.422-.464c.253,0,.409.174.423.462.054,1.126.039,2.261.179,3.376a16.917,16.917,0,0,0,3.342,8.588,11.931,11.931,0,0,0,7.008,4.283,3.491,3.491,0,0,0,1.707-.159,12.13,12.13,0,0,0,8.334-7.39,19.031,19.031,0,0,0,1.482-5.92c.067-.754.1-1.514.1-2.272.012-2.828,0-5.655,0-8.483V-422c-.795-.2-1.574-.4-2.354-.592-2.8-.7-5.605-1.388-8.405-2.093a1.4,1.4,0,0,0-.711.027q-5.278,1.316-10.558,2.626c-.035.009-.07.021-.133.039v.335q0,2.932,0,5.864c0,.216-.038.422-.262.477a.543.543,0,0,1-.431-.073.63.63,0,0,1-.147-.428c-.01-1.7-.006-3.4-.006-5.1,0-.332,0-.664,0-1a.894.894,0,0,1,.742-.961c1.082-.27,2.166-.535,3.249-.8q3.766-.936,7.532-1.876a.935.935,0,0,0,.148-.065Z" transform="translate(-299.152 425.614)" fill="#ffc936"/>
    <path id="Path_638" data-name="Path 638" d="M347.284-365.329c0,1.3-.068,2.6.014,3.9a13.866,13.866,0,0,0,2.593,7.656,8.734,8.734,0,0,0,5.674,3.439,2.9,2.9,0,0,0,1.2-.23,8.968,8.968,0,0,0,5.39-4.287c.052-.09.1-.182.154-.271.173-.292.391-.377.625-.247a.439.439,0,0,1,.122.665c-.313.506-.614,1.023-.972,1.5a9.528,9.528,0,0,1-6.205,3.729,3.643,3.643,0,0,1-1.509-.243,9.935,9.935,0,0,1-6.392-5.546,15.259,15.259,0,0,1-1.472-5.389c-.078-.915-.1-1.836-.1-2.755-.015-2,0-4,0-6.006a.874.874,0,0,1,.789-1.025c2.717-.69,5.432-1.384,8.151-2.066a1.356,1.356,0,0,1,.634-.006q4.1,1.027,8.2,2.077a.863.863,0,0,1,.754,1c0,2.4.01,4.8,0,7.2a17.057,17.057,0,0,1-.957,5.487c-.109.315-.312.439-.573.359a.444.444,0,0,1-.244-.63,17.34,17.34,0,0,0,.916-6.033c-.027-2.068-.01-4.137,0-6.206,0-.227-.056-.33-.284-.387-2.646-.665-5.289-1.34-7.934-2.008a.749.749,0,0,0-.352,0c-2.653.669-5.3,1.346-7.959,2.013a.306.306,0,0,0-.277.362c.012,1.319.006,2.638.006,3.957Z" transform="translate(-343.723 375.578)" fill="#ffc936"/>
    <path id="Path_639" data-name="Path 639" d="M410.77-265.283a4.677,4.677,0,0,1,.845-2.891,2.785,2.785,0,0,1,3.274-.986,4.555,4.555,0,0,0,3.023,0,2.945,2.945,0,0,1,3.867,2.136,5.817,5.817,0,0,1-.43,4.409c-.26.545-.583,1.061-.836,1.609a14.642,14.642,0,0,0-.742,1.833c-.251.821-.6,1.162-1.315,1.128a1.3,1.3,0,0,1-1.173-1.252c-.063-.458-.063-.926-.122-1.385a1.852,1.852,0,0,0-.2-.615.613.613,0,0,0-1.109,0,5.6,5.6,0,0,0-.266,1.2,10.346,10.346,0,0,1-.176,1.171,1.147,1.147,0,0,1-1.23.875,1.1,1.1,0,0,1-1.091-.966,10.6,10.6,0,0,0-1.215-2.766,8.35,8.35,0,0,1-1.051-2.858C410.787-264.887,410.781-265.144,410.77-265.283Zm.811-.136c.068.409.116.823.21,1.226a10.182,10.182,0,0,0,1.164,2.6,8.385,8.385,0,0,1,.938,2.3c.044.2.107.4.364.389.241-.008.348-.184.38-.39.05-.326.052-.66.106-.985a6.9,6.9,0,0,1,.271-1.265,1.378,1.378,0,0,1,1.4-.95,1.371,1.371,0,0,1,1.373.941,6.984,6.984,0,0,1,.275,1.264c.056.334.06.677.113,1.012a.383.383,0,0,0,.392.372c.243,0,.3-.187.344-.379a7.958,7.958,0,0,1,.84-2.127c.279-.515.564-1.027.817-1.555a5.108,5.108,0,0,0,.544-3.19,4.352,4.352,0,0,0-.246-.87,2.077,2.077,0,0,0-2.79-1.289,4.434,4.434,0,0,1-1.959.292,13.925,13.925,0,0,1-1.585-.355,1.993,1.993,0,0,0-2.387.971A4.064,4.064,0,0,0,411.581-265.419Z" transform="translate(-404.464 278.254)" fill="#ffc936"/>
  </g>
</svg>
