<svg id="Prevention-icon4" xmlns="http://www.w3.org/2000/svg" width="253.253" height="306.769" viewBox="0 0 253.253 306.769">
  <path id="Path_637" data-name="Path 637" d="M428.4-425.614c6.883,1.806,13.746,3.693,20.653,5.4q47.432,11.751,94.881,23.431c5.763,1.425,8.206,4.565,8.207,10.439.006,33.966.689,67.95-.182,101.894-1.057,41.257-11.779,79.827-36.794,113.363-21.311,28.57-50.221,44.991-84.9,51.84-5.688,1.124-10.878-.359-16.139-1.63-48.644-11.755-80.634-42.514-99.217-88.2-11.811-29.04-16.661-59.389-15.63-90.707.1-3.018,1.8-4.879,4.47-4.883,2.686,0,4.341,1.833,4.487,4.866.571,11.855.413,23.806,1.9,35.546,4.181,33.062,14.431,63.932,35.438,90.415,19.194,24.2,44.435,38.4,74.3,45.089,6.41,1.435,12.194-.139,18.1-1.671,42.49-11.024,71.009-38.11,88.358-77.809a199.22,199.22,0,0,0,15.708-62.327c.714-7.942,1.068-15.941,1.1-23.916.125-29.77.05-59.541.05-89.311v-3.763c-8.429-2.108-16.686-4.2-24.955-6.236-29.709-7.333-59.43-14.613-89.116-22.036a14.9,14.9,0,0,0-7.54.287q-55.962,13.854-111.94,27.643c-.373.092-.737.216-1.406.415v3.531q0,30.87.018,61.739c0,2.275-.4,4.446-2.777,5.026a5.784,5.784,0,0,1-4.573-.769c-1.049-.925-1.548-2.958-1.557-4.511-.1-17.882-.065-35.764-.065-53.646,0-3.5-.011-6.993,0-10.49.024-5.48,2.586-8.812,7.868-10.121,11.477-2.843,22.965-5.638,34.444-8.472q39.931-9.859,79.855-19.748a9.917,9.917,0,0,0,1.569-.683Z" transform="translate(-299.152 425.614)" fill="#ffc936"/>
  <path id="Path_638" data-name="Path 638" d="M355.854-296.512c0,13.685-.716,27.416.148,41.046,1.856,29.266,9.518,56.792,27.487,80.605,15.182,20.118,35.569,31.92,60.153,36.21,3.986.7,8.558-1.225,12.72-2.421,25.158-7.228,43.925-22.672,57.149-45.135.556-.945,1.07-1.915,1.632-2.857,1.833-3.073,4.146-3.974,6.625-2.6,2.445,1.358,3.1,4.1,1.291,7-3.314,5.329-6.514,10.772-10.31,15.748-16.675,21.861-38.942,34.732-65.793,39.264-5.057.853-10.8-1.09-16-2.562-31.549-8.935-53.554-29.213-67.776-58.386a159.79,159.79,0,0,1-15.609-56.74c-.828-9.63-1.027-19.334-1.1-29.007-.156-21.078-.051-42.158-.046-63.238,0-6.609,2.038-9.2,8.361-10.79q43.2-10.9,86.42-21.751a14.473,14.473,0,0,1,6.717-.061q43.516,10.809,86.971,21.869c5.885,1.486,7.991,4.265,7.992,10.5.006,25.275.11,50.551-.031,75.825a178.459,178.459,0,0,1-10.147,57.765c-1.151,3.322-3.306,4.621-6.071,3.783-2.6-.789-3.724-3.411-2.584-6.637,7.263-20.559,10-41.762,9.708-63.517-.291-21.775-.1-43.557-.008-65.335.011-2.39-.6-3.471-3.007-4.072-28.052-7-56.074-14.113-84.118-21.142a7.992,7.992,0,0,0-3.732-.021C414.77-356.128,386.657-349,358.519-341.98c-2.227.556-2.961,1.46-2.941,3.81.123,13.885.06,27.772.06,41.658Z" transform="translate(-318.095 404.422)" fill="#ffc936"/>
  <path id="Path_639" data-name="Path 639" d="M410.77-226.632c.135-11.844,2.449-21.84,8.963-30.443,8.275-10.931,21.009-15.018,34.711-10.379a48.614,48.614,0,0,0,32.052.021c18.386-6.033,34.829,3.261,41,22.486,5.168,16.1,2.6,31.533-4.554,46.416-2.761,5.742-6.184,11.167-8.868,16.942a153.656,153.656,0,0,0-7.867,19.3c-2.661,8.64-6.33,12.238-13.938,11.881-6.4-.3-11.349-5.354-12.437-13.179-.671-4.827-.672-9.744-1.3-14.579a19.4,19.4,0,0,0-2.12-6.473c-2.582-4.854-9.627-5-11.759.019-1.664,3.922-2.07,8.41-2.825,12.684-.724,4.095-.68,8.388-1.864,12.325-1.927,6.413-6.715,9.445-13.043,9.207-5.951-.223-10.069-3.534-11.566-10.174-2.39-10.6-7.72-19.8-12.887-29.126-5.242-9.456-9.605-19.26-11.139-30.092C410.953-222.456,410.885-225.162,410.77-226.632Zm8.6-1.432c.726,4.305,1.233,8.662,2.222,12.906,2.314,9.929,7.442,18.635,12.346,27.414,4.288,7.677,8.076,15.549,9.947,24.22.462,2.143,1.138,4.182,3.862,4.094,2.556-.082,3.691-1.937,4.025-4.111.527-3.433.556-6.945,1.128-10.367.749-4.482,1.3-9.1,2.874-13.317,2.459-6.6,7.655-10.039,14.8-10,7.009.04,12.145,3.41,14.561,9.906,1.568,4.216,2.156,8.828,2.913,13.308.6,3.519.641,7.129,1.2,10.657.346,2.2,1.575,3.942,4.156,3.92s3.213-1.972,3.647-3.988c1.717-7.969,5.023-15.29,8.907-22.4,2.961-5.417,5.976-10.817,8.665-16.371,5.136-10.608,7.963-21.708,5.772-33.584a45.561,45.561,0,0,0-2.609-9.156C512.4-257.908,501.578-262.883,488.2-258.5c-6.784,2.221-13.673,3.982-20.775,3.069-5.67-.729-11.237-2.351-16.809-3.74-10.906-2.721-19.425.647-25.309,10.22C421.39-242.582,419.711-235.6,419.37-228.064Z" transform="translate(-343.914 363.191)" fill="#ffc936"/>
</svg>
