<svg id="Prosthodontist_Implant_Cosmetic_Dentistry" data-name="Prosthodontist, Implant &amp; Cosmetic Dentistry" xmlns="http://www.w3.org/2000/svg" xmlns:xlink="http://www.w3.org/1999/xlink" width="59.968" height="59.968" viewBox="0 0 59.968 59.968">
  <defs>
    <clipPath id="clip-path">
      <rect id="Rectangle_17046" data-name="Rectangle 17046" width="59.968" height="59.968" transform="translate(0 0)" fill="#fff"/>
    </clipPath>
  </defs>
  <g id="Group_35266" data-name="Group 35266" clip-path="url(#clip-path)">
    <path id="Path_724" data-name="Path 724" d="M5.5,0a1.64,1.64,0,0,1,.66,1.416,6.916,6.916,0,0,0,3.2,5.659c1.162.775,1.167,1.437.023,2.2A7.029,7.029,0,0,0,6.145,14.92c-.008.106,0,.213-.008.319a1.043,1.043,0,0,1-1.045,1.124c-.575-.013-.945-.44-1.006-1.1A13.427,13.427,0,0,0,3.849,13.5,6.889,6.889,0,0,0,.87,9.273C.563,9.062.289,8.8,0,8.568V7.8c.289-.238.561-.5.869-.711a6.986,6.986,0,0,0,3.2-5.672A1.636,1.636,0,0,1,4.731,0ZM2.984,8.183,5.111,10.8,7.25,8.188,5.115,5.562,2.984,8.183" transform="translate(-0.286 0.02)" fill="#fff"/>
    <path id="Path_725" data-name="Path 725" d="M388.707,352.4a1.643,1.643,0,0,1-.661-1.416,6.951,6.951,0,0,0-3.3-5.736c-1.013-.659-1.028-1.409-.03-2.051a7.018,7.018,0,0,0,3.35-5.844c.047-.87.4-1.329,1.049-1.316.63.013.972.461,1.008,1.292a7.056,7.056,0,0,0,2.556,5.3c.194.165.414.3.613.457.31.246.612.5.918.751v.767c-.307.25-.6.521-.922.746a6.978,6.978,0,0,0-3.149,5.636,1.647,1.647,0,0,1-.661,1.418Zm.383-5.566,2.135-2.618-2.136-2.62-2.132,2.618,2.132,2.62" transform="translate(-335.159 -293.045)" fill="#fff"/>
    <path id="Path_726" data-name="Path 726" d="M90.209,103.969q.367,2.588.733,5.176a9.832,9.832,0,0,1-.637,5.57,5.039,5.039,0,0,1-6.91,2.822,9.761,9.761,0,0,1-5.424-5.568,45.113,45.113,0,0,1-3.327-12.608,44.839,44.839,0,0,0-2.28-10.183,13.857,13.857,0,0,1,.949-12.308,10,10,0,0,1,7.615-4.788,12.843,12.843,0,0,1,6.595,1.088c1.231.473,2.465.94,3.68,1.45a4.242,4.242,0,0,0,3.4.017c1.713-.7,3.433-1.389,5.184-1.982a10.651,10.651,0,0,1,10.647,1.782,10.974,10.974,0,0,1,3.833,7.423,15.427,15.427,0,0,1-1.014,8.019,31.317,31.317,0,0,0-1.911,8.374,47.983,47.983,0,0,1-3.438,13.629,9.83,9.83,0,0,1-5.434,5.643,5.049,5.049,0,0,1-6.978-2.9,10.373,10.373,0,0,1-.466-6.268,18.566,18.566,0,0,0,.319-6.6,7.727,7.727,0,0,0-.627-1.928,1.931,1.931,0,0,0-1.783-1.249,1.883,1.883,0,0,0-1.824,1.278,15.264,15.264,0,0,0-.719,2.625,7.532,7.532,0,0,0-.017,1.466l-.166.018M88.153,104l.175-.018c0-.532-.041-1.069.008-1.6A7.969,7.969,0,0,1,89.727,98.2a3.85,3.85,0,0,1,6.366.01,7.266,7.266,0,0,1,1.047,2.233,16.724,16.724,0,0,1,.053,7.413,11.9,11.9,0,0,0-.168,5c.755,2.962,2.877,3.881,5.516,2.361a8.385,8.385,0,0,0,3.534-4.244,44.318,44.318,0,0,0,3.082-11.823,41.641,41.641,0,0,1,2.415-10.675,12.411,12.411,0,0,0,.39-7.728,8.455,8.455,0,0,0-11.128-6.268c-1.843.583-3.645,1.3-5.436,2.035a6.259,6.259,0,0,1-4.957,0c-1.771-.724-3.567-1.39-5.371-2.028a8.478,8.478,0,0,0-11.04,5.7,12.406,12.406,0,0,0,.218,8.219,42.844,42.844,0,0,1,2.441,10.8,43.758,43.758,0,0,0,3.1,11.818,8.04,8.04,0,0,0,4.131,4.505c2.131.948,3.755.279,4.628-1.889a8.07,8.07,0,0,0,.358-4.276c-.262-1.788-.5-3.578-.753-5.368" transform="translate(-62.523 -62.745)" fill="#fff"/>
    <path id="Path_727" data-name="Path 727" d="M121.081,200.045a1.06,1.06,0,0,1,.944.906c.512,2.1,1.153,4.189,1.49,6.322A55.7,55.7,0,0,0,127,221.024a1.009,1.009,0,0,1-.517,1.435c-.568.238-1.1-.035-1.4-.733a45.96,45.96,0,0,1-3.051-10.841,51.87,51.87,0,0,0-2-9.475,1.012,1.012,0,0,1,1.044-1.365" transform="translate(-104.916 -174.444)" fill="#fff"/>
    <path id="Path_728" data-name="Path 728" d="M111.965,118.479a9.03,9.03,0,0,1,1.029-4.092,4.454,4.454,0,0,1,3.858-2.329,1.052,1.052,0,0,1,1.238.986,1.039,1.039,0,0,1-1.12,1.047,2.391,2.391,0,0,0-2.344,1.654,20.55,20.55,0,0,0-.608,2.846c-.047.248.012.516-.038.762a1.012,1.012,0,0,1-2.013-.1c-.017-.211,0-.425,0-.777" transform="translate(-97.929 -97.706)" fill="#fff"/>
  </g>
</svg>
