<svg id="reaction-icon" xmlns="http://www.w3.org/2000/svg" xmlns:xlink="http://www.w3.org/1999/xlink" width="20.376" height="20.374" viewBox="0 0 20.376 20.374">
  <defs>
    <clipPath id="clip-path">
      <rect id="Rectangle_79" data-name="Rectangle 79" width="20.376" height="20.374" fill="#838e91"/>
    </clipPath>
  </defs>
  <g id="Group_967" data-name="Group 967" clip-path="url(#clip-path)">
    <path id="Path_656" data-name="Path 656" d="M0,10.865V9.512C.013,9.455.029,9.4.037,9.34.1,8.9.147,8.446.24,8.007A10.151,10.151,0,0,1,9.681.013a10.021,10.021,0,0,1,4.624.856A10.163,10.163,0,0,1,20.2,12.092a9.948,9.948,0,0,1-3.777,6.158,9.821,9.821,0,0,1-4.458,1.965c-.364.062-.731.106-1.1.158H9.51c-.058-.013-.114-.029-.173-.037-.347-.046-.7-.069-1.042-.136a10.069,10.069,0,0,1-6.21-3.83A9.812,9.812,0,0,1,.155,11.942c-.06-.358-.1-.718-.155-1.077m18.792-.655A8.606,8.606,0,1,0,10.17,18.8a8.587,8.587,0,0,0,8.622-8.585" transform="translate(0 0.001)" fill="#838e91"/>
    <path id="Path_657" data-name="Path 657" d="M49.115,90.32a4.619,4.619,0,0,1-4.055-2.757.561.561,0,0,1,.079-.665.55.55,0,0,1,.6-.167.622.622,0,0,1,.388.372,3.435,3.435,0,0,0,1.567,1.629,3.737,3.737,0,0,0,2.642.322,3.428,3.428,0,0,0,2.444-1.937.6.6,0,0,1,.65-.413.583.583,0,0,1,.421.855,4.479,4.479,0,0,1-2.071,2.2,5.385,5.385,0,0,1-2.662.563" transform="translate(-39.066 -75.288)" fill="#838e91"/>
    <path id="Path_658" data-name="Path 658" d="M49.684,47.452a1.185,1.185,0,0,1,1.183,1.189,1.2,1.2,0,0,1-1.186,1.2,1.218,1.218,0,0,1-1.2-1.209,1.2,1.2,0,0,1,1.2-1.177" transform="translate(-42.102 -41.208)" fill="#838e91"/>
    <path id="Path_659" data-name="Path 659" d="M90.735,47.453a1.18,1.18,0,0,1,1.181,1.19,1.2,1.2,0,0,1-1.185,1.195,1.216,1.216,0,0,1-1.2-1.208,1.2,1.2,0,0,1,1.2-1.176" transform="translate(-77.75 -41.209)" fill="#838e91"/>
  </g>
</svg>
