<svg id="searchbar-box-icon" xmlns="http://www.w3.org/2000/svg" width="31.738" height="31.738" viewBox="0 0 31.738 31.738">
  <path id="Path_12384" data-name="Path 12384" d="M30.778-551H32.7a1.487,1.487,0,0,0,.238.058,11.869,11.869,0,0,1,3.506.825A12.748,12.748,0,0,1,43.3-532.783c-.391.835-.914,1.608-1.412,2.473a1.555,1.555,0,0,1,.215.164q3.913,3.908,7.825,7.817a2.892,2.892,0,0,1,.806,1.146v.682a1.905,1.905,0,0,1-1.24,1.24h-.682a3.017,3.017,0,0,1-1.165-.831q-3.9-3.918-7.821-7.825c-.072-.072-.147-.141-.227-.217-.052.034-.1.061-.136.091a12.3,12.3,0,0,1-11.226,2.06,12.394,12.394,0,0,1-8.988-9.737c-.114-.5-.171-1.011-.254-1.517v-1.984c.02-.068.045-.134.058-.2a19.456,19.456,0,0,1,.462-2.389,12.565,12.565,0,0,1,9.774-8.936C29.783-550.86,30.283-550.918,30.778-551Zm1,22.365a9.615,9.615,0,0,0,9.59-9.6,9.609,9.609,0,0,0-9.606-9.583,9.63,9.63,0,0,0-9.6,9.6A9.64,9.64,0,0,0,31.777-528.635Z" transform="translate(-19 551)" fill="#50595c"/>
</svg>
