<svg id="Searchbar-icon" xmlns="http://www.w3.org/2000/svg" width="42" height="42" viewBox="0 0 42 42">
  <path id="Path_636" data-name="Path 636" d="M34.586-551h2.543a1.96,1.96,0,0,0,.314.076,15.71,15.71,0,0,1,4.64,1.092,16.869,16.869,0,0,1,9.079,22.938c-.517,1.105-1.21,2.128-1.869,3.273a2.053,2.053,0,0,1,.285.217q5.178,5.171,10.355,10.344A3.827,3.827,0,0,1,61-511.543v.9A2.521,2.521,0,0,1,59.359-509h-.9a3.993,3.993,0,0,1-1.542-1.1q-5.167-5.185-10.349-10.355c-.1-.1-.2-.186-.3-.287-.069.045-.126.08-.18.12A16.276,16.276,0,0,1,31.23-517.9c-6.438-1.928-10.394-6.319-11.894-12.885-.151-.66-.226-1.338-.336-2.008v-2.625c.026-.09.06-.178.077-.269a25.747,25.747,0,0,1,.612-3.161A16.628,16.628,0,0,1,32.623-550.67C33.27-550.815,33.931-550.891,34.586-551Zm1.322,29.6A12.724,12.724,0,0,0,48.6-534.11a12.716,12.716,0,0,0-12.711-12.682,12.744,12.744,0,0,0-12.7,12.7A12.756,12.756,0,0,0,35.908-521.4Z" transform="translate(-19 551)" fill="#fff"/>
</svg>
