<svg width="253" height="306" viewBox="0 0 253 306" fill="none" xmlns="http://www.w3.org/2000/svg">
<g clip-path="url(#clip0_1_14223)">
<g clip-path="url(#clip1_1_14223)">
<path d="M129.108 0C135.984 1.80199 142.839 3.68288 149.74 5.39767C181.327 13.2118 212.92 21.0024 244.519 28.7695C250.276 30.1916 252.715 33.3223 252.717 39.1829C252.717 73.0636 253.404 106.963 252.536 140.821C251.48 181.974 240.769 220.447 215.791 253.9C194.503 282.399 165.624 298.777 130.985 305.609C125.303 306.73 120.119 305.25 114.863 303.984C66.2714 292.258 34.3131 261.577 15.7535 216.006C4.18907 187.295 -1.13338 156.453 0.139695 125.527C0.0790129 124.906 0.149681 124.28 0.347119 123.689C0.544558 123.098 0.864326 122.555 1.2856 122.095C1.70687 121.636 2.22023 121.27 2.79219 121.022C3.36415 120.774 3.9819 120.65 4.60522 120.656C7.28744 120.656 8.94203 122.485 9.08735 125.51C9.65825 137.343 9.50254 149.256 10.9827 160.967C15.1597 193.946 25.3987 224.738 46.3831 251.155C65.5552 275.291 90.7705 289.46 120.599 296.13C127.001 297.563 132.781 295.991 138.679 294.469C181.123 283.466 209.61 256.455 226.941 216.855C235.506 197.119 240.805 176.121 242.632 154.684C243.346 146.762 243.699 138.784 243.734 130.829C243.859 101.142 243.784 71.4381 243.784 41.7426V37.9892C235.363 35.8862 227.115 33.8039 218.857 31.7611C189.18 24.4473 159.483 17.1853 129.837 9.78014C127.343 9.22901 124.75 9.32766 122.305 10.0666C85.0379 19.28 47.765 28.4713 10.4865 37.6404C10.1149 37.7317 9.74957 37.848 9.08317 38.0556V41.5848C9.08317 62.1125 9.0894 82.6403 9.10186 103.168C9.10186 105.437 8.69911 107.602 6.32829 108.182C5.55529 108.375 4.75063 108.407 3.9647 108.275C3.17877 108.144 2.42857 107.851 1.76108 107.416C0.699306 106.162 0.144627 104.556 0.206091 102.915C0.104366 85.0776 0.141722 67.2404 0.141722 49.4032C0.141722 45.9155 0.131342 42.4277 0.141722 38.94C-0.0692743 36.5758 0.622144 34.2194 2.07703 32.344C3.53192 30.4686 5.64255 29.2131 7.98497 28.8298C19.4488 25.9939 30.925 23.2058 42.3909 20.3804C68.9834 13.8243 95.5731 7.25778 122.16 0.680942C122.701 0.49937 123.225 0.271544 123.727 0H129.108Z" fill="#FFC936"/>
<path d="M37.7158 107.64C37.7158 121.29 36.9995 134.987 37.8631 148.583C39.717 177.776 47.3713 205.232 65.3206 228.985C80.4756 249.054 100.852 260.825 125.409 265.108C129.391 265.802 133.958 263.885 138.116 262.694C163.247 255.484 181.993 240.078 195.207 217.673C195.761 216.731 196.276 215.763 196.837 214.823C198.668 211.759 200.978 210.86 203.455 212.232C205.899 213.585 206.548 216.317 204.744 219.211C201.433 224.526 198.236 229.957 194.445 234.921C178.517 256.085 154.916 270.149 128.722 274.087C123.671 274.938 117.927 272.999 112.737 271.531C81.223 262.619 59.242 242.392 45.0337 213.291C36.3728 195.555 31.0853 176.363 29.4408 156.694C28.6103 147.088 28.4151 137.41 28.3425 127.761C28.1868 106.735 28.2927 85.7087 28.2968 64.6827C28.2968 58.0913 30.3313 55.5109 36.6487 53.9185C65.421 46.6705 94.1967 39.4383 122.976 32.222C125.177 31.6769 127.475 31.6563 129.686 32.1619C158.666 39.3491 187.625 46.6207 216.563 53.9767C222.442 55.459 224.545 58.2305 224.547 64.4461C224.547 89.6573 224.657 114.871 224.516 140.08C224.343 159.714 220.918 179.185 214.381 197.7C213.231 201.021 211.078 202.309 208.317 201.474C205.716 200.687 204.597 198.071 205.737 194.853C212.718 174.481 216.002 153.024 215.434 131.495C215.143 109.776 215.33 88.0484 215.434 66.3249C215.444 63.9416 214.836 62.8621 212.43 62.2621C184.403 55.2825 156.416 48.1846 128.403 41.1738C127.176 40.8718 125.896 40.8647 124.666 41.1531C96.5627 48.1763 68.4803 55.2846 40.3793 62.2891C39.9267 62.3209 39.4861 62.448 39.0861 62.6621C38.6862 62.8762 38.336 63.1724 38.0586 63.5314C37.7812 63.8903 37.5829 64.3039 37.4765 64.7449C37.3702 65.1859 37.3583 65.6444 37.4417 66.0903C37.5642 79.9415 37.5019 93.7927 37.5019 107.644L37.7158 107.64Z" fill="#FFC936"/>
<path d="M66.7812 136.218C66.9162 124.404 69.2289 114.432 75.7352 105.852C84.0019 94.9489 96.7217 90.8716 110.405 95.499C120.769 99.1197 132.053 99.127 142.421 95.5198C160.788 89.4994 177.213 98.773 183.375 117.941C188.538 134.005 185.974 149.395 178.826 164.236C176.067 169.964 172.648 175.376 169.968 181.137C166.915 187.369 164.29 193.8 162.11 200.388C159.451 209.006 155.787 212.595 148.186 212.24C141.796 211.941 136.849 206.898 135.763 199.095C135.093 194.28 135.093 189.375 134.468 184.552C134.149 182.292 133.432 180.106 132.35 178.096C131.817 176.99 130.983 176.057 129.943 175.405C128.902 174.753 127.699 174.408 126.471 174.409C125.244 174.411 124.042 174.76 123.003 175.416C121.965 176.071 121.134 177.007 120.604 178.114C119.197 182.214 118.251 186.457 117.783 190.766C117.397 194.896 116.773 199.001 115.915 203.06C115.217 205.905 113.513 208.403 111.119 210.091C108.724 211.779 105.8 212.543 102.885 212.244C96.9397 212.022 92.8271 208.715 91.3323 202.095C88.9449 191.526 83.6199 182.341 78.461 173.043C72.9317 163.809 69.1591 153.632 67.3335 143.025C66.964 140.383 66.8954 137.684 66.7812 136.218ZM75.3718 134.79C76.0964 139.085 76.6029 143.43 77.5911 147.661C79.9017 157.566 85.0253 166.25 89.9227 175.007C94.4205 182.517 97.7676 190.659 99.8523 199.161C100.315 201.299 100.99 203.332 103.71 203.245C104.777 203.204 105.788 202.757 106.535 201.994C107.283 201.232 107.711 200.212 107.731 199.145C108.258 195.721 108.285 192.217 108.858 188.804C109.394 184.294 110.355 179.846 111.729 175.517C112.746 172.455 114.749 169.817 117.424 168.014C120.1 166.211 123.297 165.345 126.517 165.552C129.688 165.382 132.828 166.256 135.455 168.041C138.082 169.826 140.051 172.423 141.061 175.434C142.442 179.759 143.415 184.203 143.968 188.708C144.562 192.219 144.607 195.819 145.162 199.338C145.195 200.406 145.651 201.418 146.429 202.15C147.208 202.883 148.245 203.278 149.314 203.247C151.89 203.224 152.523 201.281 152.957 199.269C154.825 191.431 157.822 183.905 161.855 176.929C164.813 171.531 167.823 166.134 170.51 160.599C175.64 150.011 178.463 138.946 176.275 127.1C175.728 123.973 174.855 120.911 173.669 117.966C168.288 105.02 157.476 100.056 144.117 104.426C137.341 106.641 130.459 108.397 123.357 107.488C117.693 106.568 112.086 105.32 106.566 103.751C95.6712 101.038 87.1616 104.397 81.2844 113.945C77.5418 120.263 75.5044 127.447 75.3718 134.79Z" fill="#FFC936"/>
</g>
</g>
<defs>
<clipPath id="clip0_1_14223">
<rect width="252.978" height="305.997" fill="white"/>
</clipPath>
<clipPath id="clip1_1_14223">
<rect width="252.98" height="305.997" fill="white" transform="translate(-0.00195312)"/>
</clipPath>
</defs>
</svg>
