<svg xmlns="http://www.w3.org/2000/svg" width="45.573" height="64" viewBox="0 0 45.573 64">
  <g id="sterlization-icon" transform="translate(0 0)">
    <path id="Path_12986" data-name="Path 12986" d="M13.457,65.821h39.2a3.189,3.189,0,0,0,3.186-3.185V34.171a13.931,13.931,0,0,0-13.524-13.9V13.976a1.039,1.039,0,0,0-1.039-1.039H38.3V3.9H51.281V8.418h2.077V2.86A1.039,1.039,0,0,0,52.32,1.821H28.854A1.039,1.039,0,0,0,27.816,2.86V12.933H24.833a1.039,1.039,0,0,0-1.039,1.039v6.291A13.931,13.931,0,0,0,10.271,34.171V62.636A3.188,3.188,0,0,0,13.457,65.821ZM29.893,3.9h6.33v9.035h-6.33ZM28.854,15.01H40.244v5.233H25.872V15.014Zm-4.66,7.31H41.921A11.86,11.86,0,0,1,53.767,34.171V58.412H39.4v2.077H53.767v2.147a1.109,1.109,0,0,1-1.109,1.108h-39.2a1.109,1.109,0,0,1-1.109-1.108V60.489h14.37V58.412H12.348V47.143h3.624V45.066H12.348V41.189h3.624V39.112H12.348V34.171A11.86,11.86,0,0,1,24.194,22.325Z" transform="translate(-10.271 -1.821)" fill="#fec936"/>
    <path id="Path_12987" data-name="Path 12987" d="M46.943,32.97h2a8.2,8.2,0,0,0-8.2-8.195v2a6.2,6.2,0,0,1,6.2,6.2Z" transform="translate(-8.58 -0.801)" fill="#fec936"/>
    <path id="Path_12988" data-name="Path 12988" d="M31.213,45.5h2V42.335h3.168v-2H33.213V37.166h-2v3.169H28.044v2h3.169Z" transform="translate(-9.425 -0.246)" fill="#fec936"/>
    <path id="Path_12989" data-name="Path 12989" d="M31.81,54.794a1,1,0,0,0,.806,0,16.72,16.72,0,0,0,9.977-15.3V32.923a1,1,0,0,0-1-1H22.833a1,1,0,0,0-1,1V39.5A16.719,16.719,0,0,0,31.81,54.794ZM23.833,33.923h16.76V39.5a14.72,14.72,0,0,1-8.38,13.281A14.718,14.718,0,0,1,23.833,39.5Z" transform="translate(-9.425 0.553)" fill="#fec936"/>
  </g>
</svg>
