<svg width="60" height="60" viewBox="0 0 60 60" fill="none" xmlns="http://www.w3.org/2000/svg">
<g clip-path="url(#clip0_1_21121)">
<mask id="mask0_1_21121" style="mask-type:luminance" maskUnits="userSpaceOnUse" x="0" y="0" width="60" height="60">
<path d="M59.968 0H0V59.968H59.968V0Z" fill="white"/>
</mask>
<g mask="url(#mask0_1_21121)">
<path d="M5.21484 0.0200195C5.43394 0.182532 5.60904 0.397131 5.72428 0.644382C5.83953 0.891633 5.89128 1.16373 5.87484 1.43602C5.90358 2.5693 6.21045 3.67815 6.76846 4.66496C7.32647 5.65176 8.11851 6.48627 9.07484 7.09502C10.2368 7.87002 10.2418 8.53202 9.09784 9.29502C8.14308 9.90527 7.35001 10.7373 6.7862 11.7202C6.2224 12.7031 5.90459 13.8078 5.85984 14.94C5.85184 15.046 5.85984 15.153 5.85184 15.259C5.86305 15.4028 5.8443 15.5474 5.7968 15.6835C5.7493 15.8197 5.67407 15.9446 5.57586 16.0502C5.47766 16.1558 5.35861 16.24 5.22624 16.2972C5.09388 16.3545 4.95107 16.3837 4.80684 16.383C4.23184 16.37 3.86184 15.943 3.80084 15.283C3.7609 14.6908 3.68173 14.1018 3.56384 13.52C3.15742 11.7776 2.08907 10.2617 0.584844 9.29302C0.277844 9.08202 0.00384375 8.82002 -0.285156 8.58802V7.82002C0.00384375 7.58202 0.275844 7.32002 0.583844 7.10902C1.53776 6.49455 2.32765 5.65697 2.8852 4.66871C3.44276 3.68045 3.75119 2.57124 3.78384 1.43702C3.7671 1.16434 3.81891 0.891804 3.93455 0.644288C4.05018 0.396772 4.22596 0.182154 4.44584 0.0200195L5.21484 0.0200195ZM2.69884 8.20302L4.82584 10.82L6.96484 8.20802L4.82984 5.58202L2.69884 8.20302Z" fill="white"/>
<path d="M53.5505 59.355C53.3315 59.1924 53.1563 58.9778 53.0409 58.7306C52.9255 58.4834 52.8735 58.2113 52.8895 57.939C52.8595 56.7839 52.5421 55.6546 51.9659 54.6531C51.3897 53.6516 50.573 52.8095 49.5895 52.203C48.5765 51.544 48.5615 50.794 49.5595 50.152C50.5632 49.537 51.3961 48.6794 51.9815 47.6582C52.5669 46.6369 52.8861 45.4849 52.9095 44.308C52.9565 43.438 53.3095 42.979 53.9585 42.992C54.5885 43.005 54.9305 43.453 54.9665 44.284C54.9861 45.2993 55.2246 46.2984 55.6657 47.2131C56.1068 48.1278 56.7402 48.9365 57.5225 49.584C57.7165 49.749 57.9365 49.884 58.1355 50.041C58.4455 50.287 58.7475 50.541 59.0535 50.792V51.559C58.7465 51.809 58.4535 52.08 58.1315 52.305C57.1915 52.9213 56.4143 53.7556 55.866 54.7369C55.3178 55.7182 55.0147 56.8174 54.9825 57.941C54.9986 58.2136 54.9465 58.486 54.8311 58.7335C54.7158 58.981 54.5406 59.1959 54.3215 59.359L53.5505 59.355ZM53.9335 53.789L56.0685 51.171L53.9325 48.551L51.8005 51.169L53.9325 53.789" fill="white"/>
<path d="M27.6859 41.224C27.9306 42.9494 28.1749 44.6747 28.4189 46.4C28.7516 48.2792 28.5303 50.2145 27.7819 51.97C27.5415 52.6306 27.1655 53.2336 26.6781 53.7402C26.1907 54.2467 25.6027 54.6457 24.952 54.9115C24.3012 55.1773 23.602 55.304 22.8993 55.2834C22.1966 55.2628 21.506 55.0954 20.8719 54.792C19.6346 54.2849 18.5148 53.529 17.5817 52.5712C16.6487 51.6134 15.9224 50.4741 15.4479 49.224C13.7342 45.2047 12.6135 40.9576 12.1209 36.616C11.7598 33.1445 10.9946 29.7271 9.84091 26.433C9.0371 24.4477 8.70448 22.303 8.86914 20.1675C9.03379 18.032 9.69126 15.9637 10.7899 14.125C11.597 12.7876 12.7063 11.6579 14.0287 10.8265C15.3511 9.99501 16.8499 9.48489 18.4049 9.33703C20.6607 9.11125 22.9361 9.48663 24.9999 10.425C26.2309 10.898 27.4649 11.365 28.6799 11.875C29.2148 12.1122 29.793 12.2361 30.3781 12.2391C30.9633 12.242 31.5427 12.1238 32.0799 11.892C33.7929 11.192 35.5129 10.503 37.2639 9.91002C39.0364 9.23151 40.958 9.03894 42.8299 9.35224C44.7018 9.66554 46.456 10.4733 47.9109 11.692C50.1173 13.5642 51.4949 16.2321 51.7439 19.115C52.1246 21.8306 51.7746 24.5986 50.7299 27.134C49.7113 29.8243 49.0683 32.6422 48.8189 35.508C48.3481 40.1952 47.1897 44.7874 45.3809 49.137C44.9104 50.3999 44.1851 51.5525 43.2503 52.5232C42.3155 53.494 41.1911 54.2622 39.9469 54.78C39.3043 55.0917 38.603 55.2636 37.8891 55.2842C37.1752 55.3049 36.4651 55.1738 35.8056 54.8997C35.1461 54.6256 34.5522 54.2148 34.0632 53.6942C33.5743 53.1737 33.2013 52.5554 32.9689 51.88C32.1691 49.8892 32.0063 47.6993 32.5029 45.612C33.003 43.4488 33.1111 41.2134 32.8219 39.012C32.6985 38.3446 32.4877 37.6964 32.1949 37.084C32.0578 36.7207 31.8143 36.4071 31.4962 36.1843C31.1781 35.9615 30.8002 35.8398 30.4119 35.835C30.0115 35.8264 29.6187 35.9456 29.2907 36.1755C28.9627 36.4053 28.7165 36.7337 28.5879 37.113C28.2706 37.9649 28.0299 38.8434 27.8689 39.738C27.8156 40.225 27.8099 40.716 27.8519 41.204L27.6859 41.222M25.6299 41.255L25.8049 41.237C25.8049 40.705 25.7639 40.168 25.8129 39.637C25.8742 38.14 26.3563 36.6905 27.2039 35.455C27.5578 34.9367 28.0331 34.5127 28.5883 34.22C29.1435 33.9274 29.7619 33.7749 30.3896 33.7759C31.0172 33.7769 31.6351 33.9313 32.1894 34.2257C32.7437 34.5201 33.2176 34.9456 33.5699 35.465C34.0436 36.1443 34.3977 36.8995 34.6169 37.698C35.1889 40.1339 35.207 42.6672 34.6699 45.111C34.2602 46.747 34.203 48.4513 34.5019 50.111C35.2569 53.073 37.3789 53.992 40.0179 52.472C41.6414 51.497 42.887 50.0012 43.5519 48.228C45.1202 44.4482 46.1574 40.4694 46.6339 36.405C46.9657 32.7559 47.7777 29.1666 49.0489 25.73C49.9991 23.2614 50.1358 20.5538 49.4389 18.002C49.1963 16.8156 48.7016 15.6951 47.9883 14.7165C47.2751 13.7378 46.3599 12.9237 45.3048 12.3294C44.2497 11.7351 43.0792 11.3744 41.8726 11.2717C40.6659 11.1689 39.4513 11.3266 38.3109 11.734C36.4679 12.317 34.6659 13.034 32.8749 13.769C32.0922 14.1066 31.2488 14.2807 30.3964 14.2807C29.544 14.2807 28.7006 14.1066 27.9179 13.769C26.1469 13.045 24.3509 12.379 22.5469 11.741C21.4498 11.3458 20.283 11.1812 19.1194 11.2574C17.9557 11.3337 16.8204 11.6491 15.7842 12.1841C14.748 12.7191 13.8334 13.462 13.0974 14.3666C12.3615 15.2711 11.82 16.3177 11.5069 17.441C10.6432 20.1258 10.7201 23.0248 11.7249 25.66C13.0023 29.1393 13.8228 32.7696 14.1659 36.46C14.6415 40.5249 15.685 44.5031 17.2659 48.278C17.9961 50.265 19.4805 51.8838 21.3969 52.783C23.5279 53.731 25.1519 53.062 26.0249 50.894C26.5279 49.5271 26.6516 48.0495 26.3829 46.618C26.1209 44.83 25.8829 43.04 25.6299 41.25" fill="white"/>
<path d="M16.1651 25.601C16.4011 25.6246 16.6224 25.7267 16.7936 25.891C16.9647 26.0552 17.0758 26.2721 17.1091 26.507C17.6211 28.607 18.2621 30.696 18.5991 32.829C19.1699 37.5425 20.3411 42.1636 22.0841 46.58C22.1549 46.7062 22.1977 46.8461 22.2096 46.9903C22.2216 47.1344 22.2024 47.2795 22.1533 47.4156C22.1043 47.5517 22.0266 47.6756 21.9254 47.7791C21.8243 47.8825 21.7021 47.963 21.5671 48.015C20.9991 48.253 20.4671 47.98 20.1671 47.282C18.7095 43.8071 17.6848 40.1661 17.1161 36.441C16.7464 33.2272 16.0768 30.0551 15.1161 26.966C15.0553 26.8051 15.0365 26.6314 15.0615 26.4612C15.0865 26.2911 15.1545 26.1301 15.2589 25.9935C15.3634 25.8569 15.501 25.7492 15.6587 25.6805C15.8163 25.6118 15.9889 25.5845 16.1601 25.601" fill="white"/>
<path d="M14.0368 20.773C14.0518 19.3469 14.4045 17.9446 15.0658 16.681C15.4437 15.9848 16.0004 15.402 16.6785 14.9926C17.3567 14.5832 18.1317 14.3621 18.9238 14.352C19.0713 14.3254 19.2227 14.3305 19.368 14.3672C19.5133 14.4038 19.6491 14.471 19.7664 14.5644C19.8836 14.6577 19.9795 14.775 20.0477 14.9085C20.1159 15.0419 20.1548 15.1884 20.1618 15.338C20.1633 15.4823 20.1349 15.6252 20.0782 15.7578C20.0214 15.8904 19.9377 16.0097 19.8324 16.1082C19.727 16.2067 19.6023 16.2822 19.4662 16.3298C19.3301 16.3775 19.1856 16.3963 19.0418 16.3851C18.5248 16.3701 18.0168 16.5232 17.5942 16.8214C17.1715 17.1197 16.857 17.5469 16.6978 18.0391C16.4281 18.9722 16.225 19.9232 16.0898 20.8851C16.0428 21.1331 16.1018 21.401 16.0518 21.647C16.0162 21.8969 15.8886 22.1244 15.694 22.285C15.4993 22.4456 15.2517 22.5277 14.9997 22.5152C14.7477 22.5027 14.5094 22.3964 14.3316 22.2173C14.1539 22.0382 14.0494 21.7992 14.0388 21.547C14.0218 21.336 14.0388 21.122 14.0388 20.77" fill="white"/>
</g>
</g>
<defs>
<clipPath id="clip0_1_21121">
<rect width="59.968" height="59.968" fill="white"/>
</clipPath>
</defs>
</svg>
