<svg id="time-icon" xmlns="http://www.w3.org/2000/svg" xmlns:xlink="http://www.w3.org/1999/xlink" width="17.026" height="17.018" viewBox="0 0 17.026 17.018">
  <defs>
    <clipPath id="clip-path">
      <rect id="Rectangle_17327" data-name="Rectangle 17327" width="17.026" height="17.018" fill="#fff"/>
    </clipPath>
  </defs>
  <g id="Group_38669" data-name="Group 38669" clip-path="url(#clip-path)">
    <path id="Path_13074" data-name="Path 13074" d="M17.025,8.537A8.513,8.513,0,1,1,8.534,0a8.485,8.485,0,0,1,8.491,8.537M1.6,8.782A6.918,6.918,0,1,0,7.8,1.621,6.9,6.9,0,0,0,1.6,8.782" transform="translate(0.001 0)" fill="#fff"/>
    <path id="Path_13075" data-name="Path 13075" d="M86.985,39.126c0-.733,0-1.466,0-2.2a.782.782,0,0,1,1.527-.3,1.819,1.819,0,0,1,.044.417c0,1.221,0,2.442,0,3.664a.373.373,0,0,0,.189.36q1.288.848,2.563,1.716a.786.786,0,0,1,.014,1.4.6.6,0,0,1-.651.007c-.349-.209-.686-.436-1.025-.661-.776-.514-1.549-1.035-2.327-1.545a.65.65,0,0,1-.324-.569c0-.762,0-1.525,0-2.287h-.008" transform="translate(-79.258 -32.861)" fill="#fff"/>
  </g>
</svg>
