<svg id="Velet-service-icon" xmlns="http://www.w3.org/2000/svg" width="68.161" height="68.161" viewBox="0 0 68.161 68.161">
  <path id="Path_13031" data-name="Path 13031" d="M-3419.5,1200.4a1.732,1.732,0,0,1-1.593.7c-7.031-.02-14.061-.011-21.092-.016-.475,0-.95-.052-1.463-.082-.013.093-.032.2-.045.31a3.3,3.3,0,0,1-3.423,3.07c-3.343.009-6.687,0-10.03,0h-.788v2.2c1,0,1.975,0,2.953,0,1.026,0,1.4.379,1.4,1.416q.007,2.851,0,5.7c0,1.4-.265,1.661-1.693,1.675-.136,0-.271,0-.441,0a1.953,1.953,0,0,0-.06.411,5.651,5.651,0,0,1-.8,3.678.817.817,0,0,0,.058.735,5.889,5.889,0,0,1,.716,3.965,1.463,1.463,0,0,1-.381.843c-.65.708-1.338,1.381-2.033,2.047a1.1,1.1,0,0,1-1.744-.015c-.675-.652-1.369-1.292-1.976-2.005a1.977,1.977,0,0,1-.424-1.165c-.037-2.564-.019-5.13-.019-7.694v-.8c-.359,0-.65.007-.942,0-.821-.022-1.247-.415-1.252-1.216q-.019-3.194,0-6.389a1.087,1.087,0,0,1,1.21-1.184c1.028-.016,2.056,0,3.133,0v-2.169a3.542,3.542,0,0,1-2.533-1.283,3.959,3.959,0,0,1-.721-2.79c.022-.64,0-1.282,0-1.923,0-.6-.012-1.191,0-1.786a3.291,3.291,0,0,1,3.255-3.237c.709-.017,1.418,0,2.238,0a14.763,14.763,0,0,1,.019-1.84,2.878,2.878,0,0,1,.455-1.3c.836-1.139,1.748-2.222,2.731-3.454h-.847c-3.389,0-6.779.021-10.168-.011a4.37,4.37,0,0,1-4.245-3.777,4.4,4.4,0,0,1,2.916-4.755c.209-.074.412-.167.618-.251h30.92q4.8,3.749,9.616,7.488a1.336,1.336,0,0,0,.757.2c1.371.019,2.744.038,4.115,0a1.681,1.681,0,0,1,1.59.7Zm-2.233-12.505c-1.3,0-2.554-.024-3.808.01a2.377,2.377,0,0,1-1.634-.547c-2.858-2.252-5.744-4.469-8.606-6.716a1.966,1.966,0,0,0-1.3-.453q-11.126.022-22.253.01c-2.061,0-4.121.006-6.181,0a2.2,2.2,0,0,0-1.948.951,2.049,2.049,0,0,0-.14,2.27,2.157,2.157,0,0,0,2.024,1.18q6.387,0,12.774,0a1.248,1.248,0,0,1,1.318.653,1.215,1.215,0,0,1-.32,1.376c-1.078,1.336-2.081,2.74-3.241,4a3.145,3.145,0,0,0-.688,2.73h4.15a6.53,6.53,0,0,1,.661-1.946c1.652-2.106,3.407-4.132,5.111-6.2a1.541,1.541,0,0,1,1.3-.618c1.648.02,3.3-.029,4.944.031a2.147,2.147,0,0,1,1.259.525,39.707,39.707,0,0,1,2.863,2.864,2.319,2.319,0,0,1,.537,1.323c.072,1.232.027,2.471.024,3.707,0,1.08-.365,1.448-1.436,1.449-2.083,0-4.167-.009-6.25.006a2.166,2.166,0,0,0-2.127,1.627,2.08,2.08,0,0,0,.926,2.379,2.864,2.864,0,0,0,1.357.37c6.708.023,13.416.016,20.124.016h.564Zm-25.1,7.7c-4.5,0-8.918-.007-13.334.007a1.054,1.054,0,0,0-1.1,1.153q-.027,2.128,0,4.258a1.071,1.071,0,0,0,1.154,1.169c4.349.012,8.7.015,13.047-.013.32,0,.882-.239.914-.435a4.19,4.19,0,0,0,.046-2.34A5.2,5.2,0,0,1-3446.833,1195.593Zm-2.511-2.2c1.254,0,2.258.029,3.26-.015a4.467,4.467,0,0,0,1.064-.319,11.5,11.5,0,0,1,2.449-.73c1.591-.118,3.2-.033,4.8-.036.219,0,.438-.019.647-.029.212-2.64.212-2.64-1.564-4.416a6.635,6.635,0,0,0-.734-.718,1.5,1.5,0,0,0-.768-.318c-1.187-.033-2.377-.042-3.564,0a1.3,1.3,0,0,0-.84.411q-2.143,2.5-4.217,5.051A5.682,5.682,0,0,0-3449.344,1193.391Zm-6.488,19.774v-4.337h-6.486v4.337Zm-3.262,11.555a1.941,1.941,0,0,0,1.1-2.3,4.981,4.981,0,0,0-.653-1.49,1.918,1.918,0,0,1,.009-2.294,4.156,4.156,0,0,0,.6-3.215h-2.138c0,2.414.062,4.79-.029,7.16A2.252,2.252,0,0,0-3459.094,1224.721Z" transform="translate(3487.656 -1178)" fill="#fdc936"/>
  <path id="Path_13032" data-name="Path 13032" d="M-3598,1524.316a10.963,10.963,0,0,1,1.117-.86c3.134-1.845,6.322-3.6,9.409-5.521a12.226,12.226,0,0,1,10.778-1.285c2.151.7,4.322,1.342,6.5,1.962a3.864,3.864,0,0,1,2.93,2.9c.252-.193.465-.347.668-.512,2.57-2.1,5.126-4.218,7.71-6.3a4.287,4.287,0,0,1,6.99,2.431,3.721,3.721,0,0,1-1.229,3.674q-6.615,5.683-13.309,11.275a1.9,1.9,0,0,1-1.142.327c-4.923.021-9.845.04-14.768,0a15.455,15.455,0,0,0-4.458.583c-3.009.865-6.04,1.657-9.06,2.485a6.022,6.022,0,0,0-.623.245H-3598Zm19.816-.687c2.424,0,4.78,0,7.136,0a1.465,1.465,0,0,0,1.618-1.256,1.464,1.464,0,0,0-1.21-1.593c-2.561-.772-5.117-1.56-7.69-2.289a8.688,8.688,0,0,0-6.852.707c-3.447,1.945-6.851,3.965-10.264,5.969a.737.737,0,0,0-.34.508c-.022,2.471-.015,4.941-.015,7.483.282-.066.5-.11.715-.168,2.272-.617,4.561-1.182,6.812-1.87a21.025,21.025,0,0,1,6.613-.916c4.442.081,8.886.018,13.329.032a1.726,1.726,0,0,0,1.235-.433c2.221-1.912,4.468-3.794,6.706-5.687q2.78-2.351,5.555-4.708a1.9,1.9,0,0,0,.668-2.262,1.829,1.829,0,0,0-2.032-1.179,3.362,3.362,0,0,0-1.582.691c-3.567,2.871-7.093,5.794-10.659,8.667a2.382,2.382,0,0,1-1.357.484c-2.587.046-5.176.023-7.763.021-.2,0-.4-.02-.622-.032Z" transform="translate(3598 -1467.561)" fill="#fdc936"/>
</svg>
