<svg width="58" height="70" viewBox="0 0 58 70" fill="none" xmlns="http://www.w3.org/2000/svg">
<g clip-path="url(#clip0_1_1244)">
<g clip-path="url(#clip1_1_1244)">
<g clip-path="url(#clip2_1_1244)">
<path d="M2.33992 21.8415C-4.77048 35.8909 5.93761 48.3978 13.048 59.5351C16.3893 63.562 20.1584 68.7021 25.47 69.644C31.0663 67.3532 36.407 64.482 41.4046 61.0776L56.0532 50.9686C59.6509 45.9998 56.0532 40.1741 54.1679 35.2053C49.2675 24.4945 43.5371 14.1833 37.0293 4.36573C35.9214 2.54152 34.3592 1.03593 32.4954 -0.00390625C19.2165 -0.00390625 8.41633 11.4691 2.16853 22.0922" fill="#FFC936"/>
<path d="M16.9014 32.5646C16.5025 32.9358 16.1843 33.3852 15.9667 33.8848C15.7492 34.3843 15.6369 34.9234 15.6369 35.4683C15.6369 36.0132 15.7492 36.5522 15.9667 37.0518C16.1843 37.5514 16.5025 38.0008 16.9014 38.3719L28.618 49.2514C29.1854 49.7719 29.8917 50.1164 30.6511 50.2433C31.4105 50.3701 32.1904 50.2739 32.8961 49.9661C33.6019 49.6584 34.2031 49.1524 34.627 48.5096C35.0508 47.8668 35.2789 47.1149 35.2836 46.3449C35.2836 42.9257 28.618 41.0164 28.618 35.5802C28.618 30.144 35.2836 28.0633 35.2836 24.5888C35.2836 23.8168 35.0583 23.0616 34.6352 22.4158C34.2122 21.7701 33.6099 21.2618 32.9022 20.9533C32.1945 20.6449 31.4122 20.5497 30.6511 20.6795C29.8901 20.8092 29.1835 21.1582 28.618 21.6837L16.9014 32.5646Z" fill="white"/>
</g>
</g>
</g>
<defs>
<clipPath id="clip0_1_1244">
<rect width="57.59" height="69.64" fill="white" transform="matrix(-1 0 0 1 57.59 0)"/>
</clipPath>
<clipPath id="clip1_1_1244">
<rect width="57.59" height="69.64" fill="white" transform="matrix(-1 0 0 1 57.59 0)"/>
</clipPath>
<clipPath id="clip2_1_1244">
<rect width="57.59" height="69.6479" fill="white" transform="matrix(-1 0 0 1 57.59 -0.00390625)"/>
</clipPath>
</defs>
</svg>
