<svg width="30" height="40" viewBox="0 0 30 40" fill="none" xmlns="http://www.w3.org/2000/svg">
<g clip-path="url(#clip0_1_1319)">
<g clip-path="url(#clip1_1_1319)">
<g clip-path="url(#clip2_1_1319)">
<mask id="mask0_1_1319" style="mask-type:luminance" maskUnits="userSpaceOnUse" x="0" y="0" width="30" height="40">
<path d="M29.34 0.00537109H0V39.9736H29.34V0.00537109Z" fill="white"/>
</mask>
<g mask="url(#mask0_1_1319)">
<path d="M21.3891 31.9133C21.6218 31.9408 21.8127 31.9639 22.0037 31.9852C22.0941 31.9838 22.1838 32.0009 22.2673 32.0356C22.3508 32.0702 22.4263 32.1217 22.4891 32.1867C22.5519 32.2518 22.6007 32.329 22.6324 32.4137C22.6641 32.4984 22.678 32.5886 22.6734 32.6789C22.6778 32.7704 22.6613 32.8617 22.6252 32.9459C22.5891 33.0301 22.5344 33.105 22.465 33.1649C22.3957 33.2248 22.3137 33.2682 22.2251 33.2917C22.1366 33.3152 22.0439 33.3183 21.954 33.3007C21.3029 33.1603 21.0409 33.4783 20.8259 33.9997C20.659 34.4065 20.4245 34.7857 20.1864 35.2432L20.6971 35.3195C20.7846 35.3267 20.8698 35.3511 20.9479 35.3912C21.026 35.4313 21.0954 35.4864 21.1522 35.5533C21.209 35.6202 21.252 35.6977 21.2789 35.7812C21.3057 35.8648 21.3158 35.9528 21.3087 36.0403C21.3015 36.1278 21.2772 36.213 21.2371 36.2911C21.197 36.3692 21.1419 36.4386 21.0749 36.4954C21.008 36.5522 20.9305 36.5952 20.847 36.622C20.7634 36.6489 20.6754 36.659 20.5879 36.6518C20.5603 36.6546 20.5324 36.6528 20.5053 36.6465C19.6526 36.3357 19.2805 36.8002 18.9794 37.5152C18.6951 38.1893 18.2963 38.8137 17.9739 39.4692C17.9101 39.6237 17.8002 39.7546 17.6592 39.8443C17.5182 39.9339 17.353 39.9779 17.1861 39.9702C15.4532 39.9746 13.7221 39.9862 11.9865 39.9586C11.8763 39.9356 11.7723 39.8893 11.6815 39.8229C11.5907 39.7564 11.5151 39.6712 11.4598 39.5732C10.9536 38.6849 10.4828 37.7701 10.005 36.8659C9.94504 36.7727 9.89418 36.6739 9.85308 36.571C9.76924 36.173 9.53729 35.8216 9.20418 35.5881C8.87108 35.3546 8.4617 35.2564 8.05891 35.3133C7.96118 35.3245 7.86219 35.3131 7.76955 35.28C7.6769 35.247 7.59306 35.1931 7.52446 35.1227C7.45585 35.0522 7.40431 34.9669 7.37378 34.8734C7.34325 34.7799 7.33455 34.6806 7.34835 34.5832C7.39009 34.1969 7.69652 33.9748 8.15839 33.9961L8.32804 34.005C8.20457 33.4179 8.08733 32.8326 7.95232 32.2526C7.91479 32.1616 7.84573 32.0872 7.75781 32.043C7.67964 32.0146 7.59659 32.0022 7.51355 32.0065C6.93977 31.9506 6.65821 31.709 6.68042 31.296C6.70262 30.883 7.01438 30.6565 7.58194 30.6742C7.66099 30.6742 7.74093 30.6742 7.87239 30.6742L7.74981 28.7646C7.38654 28.7291 7.04547 28.6962 6.7044 28.6625C6.61245 28.6646 6.52105 28.6477 6.43592 28.6129C6.35079 28.5781 6.27375 28.5261 6.20962 28.4602C6.14549 28.3942 6.09565 28.3158 6.06321 28.2297C6.03077 28.1437 6.01643 28.0518 6.02108 27.96C6.02574 27.8681 6.04929 27.7782 6.09026 27.6959C6.13123 27.6135 6.18875 27.5405 6.25921 27.4814C6.32968 27.4223 6.41158 27.3784 6.49979 27.3523C6.588 27.3263 6.68064 27.3188 6.7719 27.3302C6.91046 27.3302 7.04902 27.3479 7.18669 27.3586C7.32437 27.3692 7.45937 27.3835 7.65211 27.4012L7.52332 25.4161C7.22222 25.3859 6.94954 25.361 6.67775 25.3273C6.59027 25.322 6.50468 25.2996 6.42587 25.2613C6.34706 25.2229 6.27657 25.1695 6.21842 25.1039C6.16027 25.0383 6.11561 24.9619 6.08698 24.8791C6.05836 24.7963 6.04632 24.7086 6.05157 24.6211C6.05682 24.5337 6.07925 24.4481 6.11757 24.3693C6.1559 24.2904 6.20938 24.22 6.27495 24.1618C6.34051 24.1037 6.41689 24.059 6.49972 24.0304C6.58255 24.0017 6.67021 23.9897 6.75769 23.995C6.96464 23.995 7.17071 24.0225 7.43362 24.0411L7.34479 22.6884C7.09606 22.6797 6.84793 22.6584 6.60137 22.6245C5.93651 22.5346 5.3125 22.252 4.80633 21.8116C4.30016 21.3713 3.93396 20.7924 3.7529 20.1464C3.35943 18.8922 3.03435 17.6159 2.61245 16.3715C2.40754 15.8026 2.12637 15.2642 1.77665 14.771C0.940756 13.6148 0.379293 12.2834 0.134898 10.8778C-0.109498 9.47225 -0.0303998 8.02946 0.366186 6.65902C0.494087 6.18028 0.820945 5.97155 1.2162 6.08791C1.61145 6.20426 1.76688 6.54622 1.63987 7.02318C1.27824 8.25229 1.21704 9.55025 1.4614 10.8079C1.70577 12.0656 2.24855 13.2462 3.04412 14.2505C3.65653 15.1764 4.09618 16.2055 4.34178 17.2881C4.57627 18.0706 4.77256 18.8638 5.00793 19.6454C5.12063 20.1523 5.41191 20.6017 5.82856 20.9115C6.24522 21.2214 6.75944 21.371 7.27729 21.333C10.3001 21.333 13.323 21.333 16.3458 21.333C16.4842 21.3239 16.6231 21.3283 16.7606 21.3463C16.9156 21.3703 17.057 21.4486 17.1595 21.5673C17.262 21.6859 17.3188 21.8372 17.3199 21.9941C17.321 22.1509 17.2662 22.3029 17.1653 22.423C17.0645 22.5431 16.9241 22.6233 16.7695 22.6493C16.6321 22.6685 16.4931 22.6736 16.3547 22.6644H8.67532L8.7748 24.1664L20.4778 25.1434L20.6625 22.6618C20.2495 22.6618 19.8551 22.6618 19.4599 22.6618C18.966 22.6564 18.6703 22.4077 18.6649 22.0045C18.6596 21.6013 18.9563 21.3357 19.4439 21.333C20.3321 21.3277 21.2203 21.333 22.1085 21.333C22.6127 21.3572 23.1095 21.2051 23.5138 20.9028C23.918 20.6006 24.2044 20.167 24.3237 19.6765C24.687 18.4561 24.9836 17.2135 25.4064 16.0145C25.6595 15.2986 26.0143 14.6229 26.4598 14.008C27.2261 12.9416 27.7199 11.7041 27.8985 10.4032C28.077 9.10223 27.9347 7.77738 27.4841 6.54401C27.0335 5.31064 26.2881 4.20616 25.3129 3.32677C24.3377 2.44738 23.1623 1.81975 21.8891 1.49856C20.569 1.19548 19.1896 1.27842 17.9153 1.73749C15.8357 2.48119 13.5643 2.49091 11.4785 1.76502C10.4224 1.38904 9.29361 1.26274 8.18055 1.39604C7.0675 1.52933 6.00043 1.9186 5.063 2.53332C4.87559 2.65056 4.68729 2.77047 4.491 2.87083C4.09308 3.07423 3.84083 3.01739 3.62855 2.69319C3.5745 2.62348 3.53607 2.54297 3.51585 2.45711C3.49563 2.37125 3.4941 2.28204 3.51137 2.19554C3.52864 2.10903 3.56429 2.02725 3.61593 1.95573C3.66756 1.88421 3.73396 1.82463 3.81064 1.78101C4.54328 1.31256 5.31295 0.904702 6.11197 0.561508C7.98823 -0.136275 10.0491 -0.157635 11.9395 0.50111C12.507 0.681011 13.084 0.829273 13.6679 0.945211C14.9062 1.14355 16.1751 1.00266 17.3397 0.537526C22.9852 -1.43251 27.9094 2.36456 29.064 7.19905C29.3905 8.43088 29.4403 9.71968 29.21 10.973C28.9796 12.2264 28.4748 13.4133 27.7317 14.4486C27.0357 15.4647 26.5265 16.5968 26.228 17.7918C26.0503 18.4597 25.8638 19.1241 25.6693 19.7911C25.5048 20.633 25.044 21.388 24.3705 21.9192C23.697 22.4505 22.8554 22.7227 21.9984 22.6866L21.8207 25.2384C22.1227 25.2695 22.406 25.2971 22.6894 25.3273C22.7793 25.3296 22.8679 25.3502 22.9496 25.3878C23.0314 25.4254 23.1047 25.4792 23.165 25.546C23.2253 25.6127 23.2715 25.691 23.3006 25.7762C23.3298 25.8613 23.3414 25.9515 23.3346 26.0412C23.3279 26.1309 23.303 26.2184 23.2614 26.2982C23.2199 26.378 23.1625 26.4486 23.0929 26.5056C23.0232 26.5625 22.9428 26.6048 22.8563 26.6297C22.7698 26.6547 22.6792 26.6618 22.5899 26.6507C22.3181 26.6383 22.0472 26.6001 21.7363 26.5699L21.5987 28.5497C21.954 28.5843 22.2924 28.6189 22.6317 28.6509C23.0953 28.6944 23.3538 28.9511 23.3351 29.3544C23.3165 29.7576 23.0322 29.9903 22.5633 29.9814C22.2328 29.9752 21.9024 29.9521 21.5258 29.9335L21.3882 31.9088M20.0399 31.8023L20.1589 29.8056L9.08301 28.8916C9.11321 29.3135 9.14429 29.6821 9.16561 30.0516C9.21002 30.8359 9.20824 30.8359 10.0067 30.9141C10.0621 30.9178 10.1173 30.9246 10.1719 30.9345C10.3455 30.9595 10.5027 31.0506 10.6107 31.1888C10.7186 31.3271 10.7689 31.5017 10.7511 31.6761C10.7287 31.8426 10.6438 31.9944 10.5137 32.1006C10.3835 32.2068 10.2179 32.2596 10.0503 32.2481C9.81933 32.2481 9.58839 32.2481 9.27575 32.2481C9.32818 32.5224 9.39941 32.7928 9.48892 33.0573C9.62085 33.3776 9.78262 33.6848 9.9721 33.9748C10.0658 34.1124 10.2095 34.2081 10.3727 34.2413C13.0864 34.5421 15.8014 34.8304 18.5175 35.1064C18.5737 35.1097 18.63 35.1001 18.6819 35.0783C18.7338 35.0564 18.78 35.0228 18.8168 34.9803C19.1419 34.3905 19.4448 33.7883 19.7805 33.1399C18.8994 33.0573 18.0734 32.9782 17.2483 32.9019C15.7161 32.7606 14.184 32.6247 12.6527 32.4764C12.551 32.476 12.4509 32.4522 12.3599 32.4067C12.269 32.3613 12.1898 32.2955 12.1284 32.2145C12.0671 32.1335 12.0252 32.0394 12.0062 31.9395C11.9871 31.8397 11.9913 31.7368 12.0185 31.6388C12.0578 31.474 12.1596 31.3308 12.3025 31.2396C12.4453 31.1485 12.6181 31.1164 12.7841 31.1503C13.8885 31.248 14.9928 31.3463 16.0971 31.4452C17.393 31.5624 18.688 31.6815 20.0425 31.8005M20.4111 26.4757L8.86451 25.5182L9.01462 27.514L20.2637 28.4706L20.4138 26.4757M18.0814 36.381L10.8576 35.6171C11.3906 36.6447 11.88 37.5871 12.3845 38.5197C12.4253 38.5952 12.5905 38.6388 12.6989 38.6388C14.0143 38.6468 15.3297 38.6494 16.6443 38.6388C16.7131 38.6338 16.7801 38.6138 16.8404 38.5802C16.9007 38.5466 16.9529 38.5002 16.9933 38.4442C17.3557 37.7932 17.6932 37.127 18.0814 36.3836" fill="white"/>
<path d="M15.0926 5.85481C12.7283 5.85407 10.4014 5.26463 8.32187 4.13969C8.23397 4.10516 8.15444 4.05229 8.08858 3.9846C8.02272 3.91692 7.97206 3.83596 7.93995 3.74715C7.90785 3.65833 7.89505 3.56369 7.90241 3.46954C7.90977 3.37538 7.93712 3.28388 7.98263 3.20113C8.02814 3.11838 8.09077 3.04629 8.16635 2.98965C8.24192 2.93302 8.3287 2.89315 8.4209 2.8727C8.5131 2.85225 8.6086 2.85169 8.70103 2.87106C8.79346 2.89043 8.8807 2.92928 8.95693 2.98503C10.5434 3.84761 12.2985 4.35466 14.1005 4.47099C16.131 4.56365 18.1508 4.12817 19.9627 3.20708C20.1252 3.12892 20.2797 3.03566 20.445 2.9646C20.5224 2.92476 20.607 2.90075 20.6939 2.89399C20.7807 2.88723 20.868 2.89785 20.9507 2.92522C21.0334 2.95259 21.1098 2.99617 21.1755 3.05341C21.2412 3.11065 21.2948 3.1804 21.3332 3.25859C21.3774 3.33401 21.4048 3.41815 21.4133 3.50518C21.4219 3.59221 21.4115 3.68006 21.3828 3.76267C21.354 3.84527 21.3077 3.92065 21.247 3.9836C21.1863 4.04655 21.1127 4.09556 21.0312 4.12726C19.9521 4.62029 18.8453 5.05031 17.7164 5.41515C16.8557 5.62329 15.9817 5.77167 15.1006 5.85925" fill="white"/>
<path d="M2.34776 4.86404C2.26121 4.8675 2.17484 4.85347 2.09383 4.82277C2.01283 4.79208 1.93885 4.74535 1.87632 4.6854C1.8138 4.62544 1.76401 4.55349 1.72994 4.47384C1.69588 4.39419 1.67823 4.30849 1.67806 4.22187C1.67534 4.13519 1.68972 4.04883 1.72039 3.96772C1.75106 3.88661 1.79742 3.81234 1.85681 3.74915C1.9162 3.68597 1.98746 3.6351 2.06652 3.59947C2.14558 3.56384 2.23089 3.54415 2.31757 3.5415C2.49246 3.54328 2.66013 3.61156 2.78649 3.73249C2.91286 3.85341 2.98846 4.01791 2.99793 4.19256C2.99938 4.36742 2.93201 4.53583 2.81038 4.66146C2.68874 4.78709 2.52258 4.85985 2.34776 4.86404Z" fill="white"/>
</g>
</g>
</g>
</g>
<defs>
<clipPath id="clip0_1_1319">
<rect width="29.34" height="39.98" fill="white"/>
</clipPath>
<clipPath id="clip1_1_1319">
<rect width="29.34" height="39.98" fill="white"/>
</clipPath>
<clipPath id="clip2_1_1319">
<rect width="29.34" height="39.9691" fill="white" transform="translate(0 0.00537109)"/>
</clipPath>
</defs>
</svg>
