<svg width="37" height="40" viewBox="0 0 37 40" fill="none" xmlns="http://www.w3.org/2000/svg">
<g clip-path="url(#clip0_1_1347)">
<g clip-path="url(#clip1_1_1347)">
<g clip-path="url(#clip2_1_1347)">
<mask id="mask0_1_1347" style="mask-type:luminance" maskUnits="userSpaceOnUse" x="0" y="0" width="37" height="40">
<path d="M36.48 0.00244141H0V39.978H36.48V0.00244141Z" fill="white"/>
</mask>
<g mask="url(#mask0_1_1347)">
<path d="M0 36.7221C0.242051 35.8511 0.74035 35.073 1.4302 34.4888C6.79333 29.1494 12.147 23.8002 17.4911 18.4412C18.2567 17.6457 19.272 17.1371 20.3675 17.0003C20.9336 16.9325 21.4675 16.7006 21.9035 16.3332C23.2706 15.0469 24.5551 13.6682 25.8352 12.3677L23.832 10.345C23.6881 10.4454 23.45 10.7225 23.3159 10.679C23.0561 10.579 22.844 10.384 22.7225 10.1336C22.4167 9.51899 22.1816 8.87171 22.0216 8.20413C21.9172 7.74867 21.9948 7.27045 22.2377 6.87127C22.4805 6.47209 22.8696 6.18347 23.3221 6.06682C23.8007 5.94049 24.263 5.75925 24.6999 5.52672C25.3078 5.1469 25.8562 4.67933 26.3273 4.13915C26.5052 3.95088 26.6402 3.7264 26.7232 3.48108C26.8062 3.23576 26.8352 2.97539 26.8082 2.71783C26.7812 2.46026 26.6988 2.21157 26.5668 1.98879C26.4347 1.76601 26.2561 1.5744 26.0431 1.42709C25.4283 0.870115 25.4852 0.555647 26.2545 0.254505C26.6512 0.0628029 27.0882 -0.0306274 27.5286 -0.0178962C27.969 -0.00516502 28.3998 0.113354 28.7848 0.327651C29.1697 0.541949 29.4975 0.845733 29.7403 1.21335C29.9831 1.58097 30.1339 2.00162 30.18 2.43979C30.1912 2.58835 30.2418 2.73125 30.3266 2.85375C31.174 3.72697 32.0357 4.58598 32.8139 5.37037C33.2637 5.25954 33.7235 5.19378 34.1863 5.17405C34.5823 5.18631 34.9642 5.32353 35.2775 5.56607C35.5907 5.80861 35.8191 6.14403 35.9301 6.52431C36.0722 6.90108 36.0974 7.31196 36.0023 7.70325C35.9072 8.09454 35.6963 8.44806 35.3971 8.71759C33.4185 10.6968 31.4396 12.6757 29.4604 14.6543C21.3311 22.7801 13.205 30.9097 5.08211 39.0433C4.74773 39.4058 4.32729 39.6781 3.85971 39.8349C3.39214 39.9918 2.89255 40.0282 2.40719 39.9407C1.92183 39.8531 1.46639 39.6446 1.08304 39.3343C0.699689 39.024 0.400814 38.6221 0.214087 38.1656C0.131472 37.9595 0.0710661 37.7454 0 37.5349L0 36.7221ZM21.3287 21.4358C20.0069 21.5006 18.7686 21.5903 17.5293 21.6134C16.8899 21.621 16.2585 21.7579 15.6734 22.0159C15.0882 22.274 14.5613 22.6477 14.1244 23.1147C10.0209 27.2413 5.90766 31.3587 1.78465 35.4669C1.62065 35.6215 1.4686 35.7884 1.32982 35.9661C1.13602 36.2264 1.01128 36.5315 0.967211 36.8531C0.923144 37.1746 0.961193 37.502 1.07781 37.8049C1.19443 38.1077 1.38582 38.3761 1.63414 38.585C1.88246 38.794 2.17964 38.9366 2.49797 38.9997C2.86837 39.0714 3.25122 39.0422 3.60645 38.9151C3.96167 38.7881 4.27621 38.5678 4.51714 38.2775C9.99811 32.7835 15.4832 27.2937 20.9725 21.808C21.0746 21.7058 21.1724 21.5992 21.3278 21.434M16.7636 20.7135C17.8456 20.6647 19.0608 20.5847 20.2769 20.5599C20.9241 20.557 21.564 20.4234 22.1583 20.1671C22.7525 19.9108 23.2889 19.5371 23.7352 19.0684C27.3282 15.4517 30.9318 11.8457 34.5461 8.25033C34.678 8.12751 34.799 7.99346 34.9077 7.84969C35.0634 7.63411 35.1352 7.36917 35.1097 7.10445C35.0842 6.83972 34.9631 6.59337 34.7691 6.41149C34.5783 6.22649 34.3277 6.11584 34.0624 6.09955C33.7972 6.08325 33.5349 6.16239 33.3229 6.32266C33.1832 6.43678 33.0514 6.56024 32.9285 6.6922C29.6121 10.0086 26.2956 13.3268 22.9792 16.6468C22.2836 17.3623 21.3729 17.8303 20.3862 17.9793C19.7928 18.0454 19.2261 18.2622 18.7401 18.6091C18.0369 19.2651 17.3775 19.9666 16.7663 20.7091M23.1285 8.94233C23.3799 8.58726 23.703 8.28891 24.077 8.06657C24.451 7.84423 24.8675 7.70286 25.2995 7.6516C26.0644 7.50825 26.7842 7.18528 27.3998 6.7093C28.0154 6.23331 28.5092 5.61791 28.8404 4.91377C29.1243 4.43047 29.2782 3.88182 29.2869 3.32135C29.2956 2.76087 29.1589 2.20771 28.8901 1.7158C28.7075 1.40305 28.4193 1.16573 28.0774 1.04652C27.7354 0.927322 27.3621 0.934067 27.0247 1.06555C27.0851 1.15438 27.1428 1.24321 27.2023 1.32405C27.5158 1.73302 27.701 2.2258 27.7344 2.74003C27.7677 3.25426 27.6478 3.76683 27.3898 4.21288C26.8941 5.15399 26.1059 5.90848 25.1441 6.36263C24.6662 6.57882 24.1769 6.7689 23.6783 6.93205C23.5512 6.95547 23.4303 7.00471 23.323 7.07672C23.2157 7.14873 23.1243 7.24198 23.0544 7.35071C22.9846 7.45944 22.9378 7.58134 22.9169 7.70888C22.896 7.83641 22.9015 7.96688 22.933 8.09221C22.9819 8.38104 23.0469 8.66693 23.1276 8.94855M24.1438 9.08358L26.608 11.5407L27.5195 10.7776C26.8221 10.0856 26.1665 9.42647 25.4976 8.78155C25.452 8.73734 25.3973 8.70368 25.3373 8.68296C25.2773 8.66224 25.2134 8.65495 25.1503 8.66162C24.8065 8.77799 24.4778 8.93967 24.1438 9.08447M30.1631 4.12405C30.0299 4.47938 29.8806 4.84893 29.7545 5.22913C29.7465 5.27637 29.7492 5.32479 29.7623 5.37087C29.7753 5.41696 29.7985 5.45957 29.83 5.49563C30.3026 5.9922 30.7867 6.47901 31.2513 6.94982L32.1396 6.12279L30.1631 4.12405ZM27.5452 7.75908L26.4792 8.30718L28.2035 10.0403L29.0092 9.22304L27.5452 7.75908ZM30.5424 7.67025L29.1611 6.23027L28.3785 7.09106L29.75 8.45375L30.5424 7.6667" fill="white"/>
<path d="M36.4792 21.0998C35.9336 21.3943 35.2973 21.4729 34.6964 21.3201C34.6263 21.2703 34.5674 21.2064 34.5235 21.1325C34.4796 21.0586 34.4516 20.9764 34.4414 20.891C34.4532 20.8123 34.4823 20.7372 34.5265 20.671C34.5707 20.6048 34.629 20.5492 34.6973 20.5082C35.2995 20.3599 35.9353 20.442 36.4801 20.7382L36.4792 21.0998Z" fill="white"/>
<path d="M13.0768 11.6933C12.8103 11.4268 12.5438 11.2687 12.455 11.0431C12.257 10.5145 11.9486 10.0342 11.5503 9.63423C11.1521 9.23427 10.6731 8.92384 10.1453 8.72364C10.0273 8.66133 9.92551 8.57208 9.84834 8.46312C9.77118 8.35416 9.72076 8.22855 9.70117 8.09648C9.72 7.96416 9.77011 7.83823 9.84736 7.72916C9.92461 7.62008 10.0268 7.53101 10.1453 7.46933C10.6712 7.26332 11.149 6.95123 11.549 6.55249C11.9489 6.15375 12.2625 5.67691 12.4701 5.15168C12.5328 5.03375 12.6223 4.93216 12.7314 4.85503C12.8404 4.7779 12.966 4.72738 13.0981 4.70752C13.2308 4.72629 13.3571 4.77637 13.4666 4.8536C13.5762 4.93083 13.6657 5.033 13.728 5.15168C13.9325 5.67824 14.2447 6.15634 14.6446 6.55541C15.0444 6.95448 15.5231 7.26575 16.05 7.46933C16.1688 7.53196 16.2709 7.62187 16.3481 7.73167C16.4254 7.84146 16.4754 7.96802 16.4942 8.10092C16.4717 8.23284 16.4189 8.35771 16.3398 8.46565C16.2607 8.57358 16.1575 8.66161 16.0385 8.72275C15.5126 8.92935 15.0356 9.24335 14.6379 9.64471C14.2402 10.0461 13.9306 10.526 13.7288 11.0537C13.64 11.2785 13.3637 11.4286 13.0901 11.6942M11.2637 8.09204L13.1026 9.9442L14.9601 8.09648L13.1123 6.24432L11.2637 8.09204Z" fill="white"/>
<path d="M29.0744 30.7793C28.8195 31.0564 28.6773 31.3416 28.4526 31.4304C27.9177 31.6342 27.432 31.949 27.0275 32.3539C26.623 32.7589 26.3088 33.2449 26.1056 33.78C26.0385 33.8959 25.9453 33.9945 25.8333 34.0679C25.7213 34.1413 25.5937 34.1875 25.4607 34.2029C25.334 34.186 25.2133 34.1389 25.1088 34.0654C25.0042 33.992 24.9189 33.8944 24.8602 33.7809C24.6634 33.2434 24.3524 32.755 23.9486 32.3494C23.5448 31.9437 23.0578 31.6305 22.5212 31.4313C22.4037 31.3657 22.3032 31.2735 22.2277 31.1621C22.1521 31.0508 22.1036 30.9233 22.0859 30.7899C22.1033 30.6631 22.1508 30.5423 22.2245 30.4376C22.2983 30.3329 22.3961 30.2475 22.5097 30.1885C23.0455 29.9873 23.5325 29.6748 23.9388 29.2717C24.345 28.8685 24.6611 28.3838 24.8664 27.8496C24.9315 27.7323 25.0236 27.6322 25.1352 27.5577C25.2468 27.4833 25.3745 27.4365 25.5078 27.4214C25.6404 27.4417 25.7664 27.493 25.8755 27.5711C25.9846 27.6492 26.0738 27.7519 26.1358 27.8709C26.3333 28.3918 26.6393 28.8647 27.0335 29.2584C27.4277 29.652 27.9012 29.9572 28.4224 30.1539C28.648 30.2427 28.8026 30.5092 29.0709 30.7757M27.3333 30.7988L25.4927 28.9511L23.6272 30.7979L25.4927 32.6554L27.3359 30.7997" fill="white"/>
<path d="M5.82928 15.835C5.79754 15.6582 5.80237 15.4768 5.84349 15.302C5.93232 15.1287 6.11887 14.9013 6.26989 14.896C6.37104 14.9118 6.46639 14.9535 6.5467 15.017C6.62701 15.0805 6.68955 15.1637 6.72826 15.2584C6.79249 15.6705 6.79249 16.09 6.72826 16.5021C6.68666 16.5951 6.62257 16.6762 6.54178 16.7383C6.46098 16.8003 6.36602 16.8413 6.26545 16.8574C6.1322 16.8672 5.91011 16.6513 5.85504 16.4905C5.81307 16.2715 5.80737 16.047 5.83816 15.8261H5.83105" fill="white"/>
<path d="M6.75224 19.479C6.78594 19.6709 6.7805 19.8676 6.73625 20.0573C6.65275 20.2287 6.44221 20.4428 6.28587 20.4437C6.1862 20.4216 6.09388 20.3743 6.01768 20.3063C5.94148 20.2383 5.88396 20.152 5.85059 20.0555C5.78678 19.6696 5.78678 19.2759 5.85059 18.89C5.87724 18.7275 6.14019 18.4725 6.26899 18.4885C6.37229 18.5204 6.46782 18.5734 6.54949 18.6442C6.63117 18.715 6.69719 18.8021 6.74336 18.8998C6.78881 19.0894 6.79426 19.2863 6.75935 19.4781" fill="white"/>
<path d="M34.1224 22.7154C34.1546 22.8921 34.1497 23.0736 34.1081 23.2484C34.0193 23.4332 33.8248 23.6792 33.664 23.6926C33.5601 23.6686 33.4641 23.6184 33.3852 23.5467C33.3064 23.475 33.2473 23.3842 33.2136 23.283C33.1475 22.9009 33.1475 22.5103 33.2136 22.1282C33.2412 21.9665 33.5076 21.716 33.6347 21.7338C33.7372 21.7672 33.8317 21.8215 33.9123 21.8932C33.9929 21.9649 34.0577 22.0524 34.1028 22.1504C34.1476 22.3386 34.153 22.5339 34.1188 22.7243" fill="white"/>
<path d="M34.1183 19.1436C34.1518 19.334 34.1464 19.5292 34.1023 19.7175C34.0206 19.8871 33.8136 20.0994 33.6581 20.103C33.5593 20.0832 33.4671 20.0383 33.3906 19.9727C33.314 19.907 33.2557 19.8228 33.2211 19.7281C33.1581 19.3305 33.1581 18.9255 33.2211 18.528C33.2546 18.4325 33.312 18.3473 33.3879 18.2804C33.4638 18.2135 33.5556 18.1672 33.6546 18.146C33.81 18.146 34.0277 18.3565 34.1032 18.5253C34.1486 18.7296 34.1547 18.9406 34.121 19.1471" fill="white"/>
<path d="M8.05514 18.1256C7.86443 18.1589 7.66896 18.1535 7.48039 18.1096C7.30983 18.0279 7.09219 17.8165 7.09575 17.6655C7.1196 17.5661 7.16843 17.4745 7.2376 17.3992C7.30678 17.324 7.39402 17.2676 7.49105 17.2355C7.88948 17.1721 8.29542 17.1721 8.69384 17.2355C8.79024 17.2705 8.87599 17.3297 8.94275 17.4075C9.00952 17.4854 9.05505 17.5791 9.07493 17.6797C9.07493 17.8307 8.84841 18.035 8.67519 18.1114C8.4707 18.1551 8.25993 18.1608 8.05336 18.1283" fill="white"/>
<path d="M31.8678 21.3695C31.6614 21.4045 31.45 21.3985 31.2459 21.3518C31.1558 21.3053 31.0771 21.2394 31.0156 21.1587C30.9542 21.078 30.9115 20.9846 30.8906 20.8854C30.9122 20.7922 30.9575 20.7062 31.0221 20.6357C31.0867 20.5652 31.1684 20.5126 31.2593 20.483C31.661 20.423 32.0693 20.423 32.4709 20.483C32.5661 20.5175 32.6507 20.5759 32.7167 20.6526C32.7826 20.7293 32.8277 20.8217 32.8476 20.9209C32.8476 21.0737 32.6246 21.2762 32.4523 21.3544C32.2621 21.3973 32.0654 21.4027 31.8731 21.3704" fill="white"/>
<path d="M4.48434 17.2139C4.67649 17.1799 4.87354 17.1854 5.06353 17.2299C5.16156 17.2737 5.24944 17.3374 5.32161 17.4169C5.39378 17.4964 5.44867 17.59 5.48282 17.6918C5.50058 17.8162 5.24652 18.0791 5.08307 18.1084C4.71229 18.1743 4.33279 18.1743 3.962 18.1084C3.85878 18.076 3.76471 18.0195 3.68751 17.9437C3.6103 17.8679 3.55216 17.7749 3.51784 17.6723C3.45655 17.3791 3.68396 17.2157 3.98865 17.2086C4.15388 17.2086 4.32 17.2086 4.48523 17.2086" fill="white"/>
</g>
</g>
</g>
</g>
<defs>
<clipPath id="clip0_1_1347">
<rect width="36.48" height="39.98" fill="white"/>
</clipPath>
<clipPath id="clip1_1_1347">
<rect width="36.48" height="39.98" fill="white"/>
</clipPath>
<clipPath id="clip2_1_1347">
<rect width="36.48" height="39.9756" fill="white" transform="translate(0 0.00244141)"/>
</clipPath>
</defs>
</svg>
