<svg width="25" height="40" viewBox="0 0 25 40" fill="none" xmlns="http://www.w3.org/2000/svg">
<g clip-path="url(#clip0_1_1372)">
<g clip-path="url(#clip1_1_1372)">
<g clip-path="url(#clip2_1_1372)">
<mask id="mask0_1_1372" style="mask-type:luminance" maskUnits="userSpaceOnUse" x="0" y="0" width="25" height="40">
<path d="M24.33 0.00488281H0V39.9756H24.33V0.00488281Z" fill="white"/>
</mask>
<g mask="url(#mask0_1_1372)">
<path d="M24.024 13.2135C23.8424 14.2224 23.7008 15.2407 23.4714 16.2383C23.0387 18.0338 22.4488 19.7877 21.7083 21.4796C21.429 22.124 21.2694 22.8139 21.2374 23.5155C21.1774 25.5037 21.2374 27.4952 21.2165 29.4851C21.2362 31.2799 20.9824 33.0672 20.464 34.7855C20.1252 35.8645 19.6032 36.8771 18.9208 37.779C18.7284 38.0405 18.4934 38.2679 18.2257 38.4516C18.0591 38.5931 17.8543 38.6821 17.6371 38.7071C17.4199 38.732 17.2002 38.692 17.0058 38.5919C16.8114 38.4918 16.6512 38.3363 16.5453 38.145C16.4395 37.9537 16.3929 37.7353 16.4114 37.5175C16.3618 36.3192 16.3531 35.1183 16.3106 33.9192C16.3051 32.6476 16.1062 31.3842 15.7206 30.1724C15.638 29.9369 15.5355 29.7093 15.4425 29.4773L15.2974 29.4581C15.0609 30.215 14.8677 30.9846 14.7187 31.7634C14.5214 33.1867 14.4537 34.6309 14.2668 36.0542C14.1547 36.8062 13.9803 37.5476 13.7455 38.2708C13.6603 38.6139 13.4955 38.9322 13.2644 39.1997C13.0332 39.4672 12.7423 39.6765 12.4152 39.8106H12.0763C11.5396 39.62 11.0936 39.2357 10.8259 38.7331C10.6474 38.4295 10.4873 38.1156 10.3462 37.7929C9.74712 36.2684 9.38946 34.6598 9.28615 33.0251C9.18275 31.965 9.13061 30.8988 9.05588 29.8361C9.04285 29.8361 9.00896 29.8361 8.99419 29.8518C8.924 29.9209 8.85785 29.994 8.79607 30.0707C8.25476 30.7658 7.92477 31.602 7.84546 32.4794C7.71947 33.755 7.67776 35.0393 7.58479 36.3183C7.55035 36.8525 7.48361 37.3841 7.38493 37.9102C7.35203 38.1221 7.25663 38.3192 7.11096 38.4765C6.96528 38.6338 6.77597 38.744 6.56727 38.793C6.36737 38.8483 6.15525 38.8401 5.96021 38.7696C5.76517 38.6991 5.59685 38.5697 5.4785 38.3994C5.09938 37.9454 4.76038 37.4593 4.46533 36.9466C3.34801 34.8015 2.71643 32.4368 2.61538 30.0203C2.61338 28.6828 2.70921 27.3469 2.90213 26.0233C3.20374 24.29 2.97886 22.506 2.25652 20.9018C1.54137 19.4579 1.02908 17.9222 0.734153 16.3382C0.560368 15.5005 0.447407 14.6507 0.306641 13.8061V12.1117C0.387451 11.7424 0.451752 11.3679 0.553416 11.0038C0.712076 10.2156 1.17507 9.5217 1.84198 9.07258C2.5089 8.62347 3.32598 8.45537 4.11602 8.60473C4.97553 8.74901 5.8235 8.95519 6.65329 9.22167C6.76528 9.27076 6.88918 9.28606 7.00974 9.26568C7.13031 9.24531 7.2423 9.19014 7.33193 9.10697C7.90812 8.58259 8.58916 8.18662 9.32992 7.94529C10.0707 7.70396 10.8543 7.62279 11.6288 7.70713C11.7548 7.72103 11.8808 7.73927 12.005 7.76186C12.2136 7.79836 12.469 7.81053 12.4065 8.12247C12.3439 8.43442 12.1023 8.37359 11.8669 8.36664C11.293 8.32558 10.7168 8.33082 10.1438 8.38228C9.21918 8.53871 8.36416 8.97304 7.69253 9.62746C7.88586 9.70205 8.07057 9.79732 8.24343 9.91159C8.34768 10.032 8.43082 10.1692 8.48934 10.3174C8.32077 10.3626 8.12874 10.4825 7.98884 10.4373C7.60216 10.3139 7.24764 10.0897 6.85923 9.96373C6.03002 9.6519 5.17485 9.41405 4.30371 9.25295C2.31995 8.99922 1.19903 9.95678 0.979191 11.9466C0.834746 13.8088 1.05372 15.6814 1.62394 17.46C1.92459 18.527 2.38077 19.5454 2.76658 20.5881C3.07157 21.4136 3.37483 22.2391 3.69546 23.1037C4.03904 22.9848 4.40354 22.9384 4.76594 22.9676C5.12833 22.9968 5.48074 23.1008 5.80088 23.2731C7.44278 23.8668 9.21633 23.9976 10.9276 23.6511C11.9927 23.5092 13.074 23.5463 14.1269 23.7606C15.0902 23.9217 16.0788 23.8277 16.9944 23.4877C17.3709 23.3434 17.7726 23.2761 18.1756 23.2898C18.5786 23.3035 18.9747 23.398 19.3405 23.5677C19.7307 23.7241 20.1226 23.8874 20.5162 24.0517C20.4927 22.286 21.3799 20.8158 21.9351 19.2456C22.685 17.2651 23.1686 15.1937 23.3732 13.0858C23.4751 12.171 23.3782 11.2451 23.0891 10.3713C22.9469 9.92316 22.6685 9.53057 22.2927 9.24819C21.9169 8.96581 21.4623 8.8077 20.9924 8.79589C19.8603 8.75049 18.7331 8.9679 17.6991 9.43108C17.2647 9.60487 16.8458 9.80037 16.4235 9.99501C16.1967 10.0993 15.9543 10.1627 15.8709 9.86902C15.8405 9.76388 16.0117 9.52145 16.1446 9.46149C17.3946 8.80381 18.7505 8.37115 20.1504 8.1833C20.5978 8.09658 21.0586 8.10728 21.5015 8.21466C21.9444 8.32204 22.359 8.52359 22.717 8.80558C23.075 9.08758 23.3681 9.4434 23.5762 9.84882C23.7844 10.2542 23.9027 10.6998 23.9233 11.155C23.9441 11.3054 23.9815 11.4539 24.0101 11.6034L24.024 13.2135ZM20.584 27.5222C20.584 27.1294 20.6005 26.6637 20.5796 26.1997C20.5579 25.7052 20.6665 25.0883 20.4136 24.752C20.153 24.4045 19.5273 24.3176 19.0599 24.1221C18.7856 23.9886 18.4871 23.9125 18.1824 23.8985C17.8778 23.8844 17.5734 23.9327 17.2881 24.0404C16.1883 24.461 14.9929 24.5657 13.8367 24.3428C12.6959 24.1424 11.5285 24.1456 10.3888 24.3523C9.71027 24.4891 9.01302 24.5062 8.32859 24.4027C7.22157 24.2289 6.14063 23.8935 5.03969 23.672C4.67371 23.6194 4.30163 23.6265 3.93789 23.6928C3.68938 23.7258 3.59901 23.9257 3.60683 24.1968C3.61472 24.6058 3.5976 25.015 3.55556 25.422C3.44434 26.6011 3.25144 27.7776 3.20799 28.9585C3.15156 31.5921 3.74864 34.1987 4.94585 36.5451C5.22409 37.0671 5.55922 37.5567 5.94512 38.0049C6.23708 38.3681 6.57596 38.2812 6.75409 37.8511C6.78557 37.7879 6.80698 37.7202 6.81752 37.6504C6.90847 36.3713 6.99536 35.092 7.0782 33.8123C7.06728 33.7372 7.03327 33.6674 6.98088 33.6125C6.88356 33.483 6.77581 33.3614 6.67241 33.2362L7.15727 32.8956C7.15727 32.8852 7.17031 32.8018 7.18334 32.7218C7.26336 31.5288 7.73497 30.3956 8.52497 29.4981C8.7698 29.3051 8.95498 29.0467 9.05908 28.7529C9.16319 28.459 9.18196 28.1417 9.11323 27.8376C9.09064 27.7264 9.27225 27.5769 9.35914 27.4405C9.47384 27.5578 9.66066 27.6595 9.68846 27.7941C9.76276 28.1249 9.78881 28.4647 9.7658 28.803C9.66401 30.4237 9.7307 32.0507 9.96478 33.6577C10.0817 35.065 10.4256 36.4442 10.9832 37.7416C11.1814 38.1609 11.4338 38.5524 11.7339 38.906C11.7839 38.9955 11.8579 39.0693 11.9475 39.1191C12.0371 39.1689 12.1389 39.1927 12.2413 39.1879C12.3437 39.1831 12.4427 39.1499 12.5273 39.092C12.6119 39.0341 12.6787 38.9537 12.7202 38.86C12.9887 38.4492 13.1971 38.0021 13.3388 37.5322C13.6962 35.9788 13.9005 34.3942 13.9488 32.8009C14.0614 31.1481 14.5509 29.543 15.3799 28.1087C15.4779 27.9213 15.602 27.7487 15.7484 27.596C15.804 27.5547 15.8691 27.528 15.9377 27.5183C16.0063 27.5086 16.0762 27.5162 16.1411 27.5404C16.1844 27.5948 16.2138 27.6589 16.2267 27.7272C16.2395 27.7955 16.2355 27.8659 16.215 27.9323C16.1437 28.1261 15.9752 28.2799 15.8883 28.4719C15.8199 28.598 15.804 28.746 15.844 28.8838C16.553 30.3029 16.9182 31.8689 16.9101 33.4552C16.9675 34.7803 16.9762 36.1072 17.0109 37.4332C17.0274 38.0658 17.4045 38.2899 17.9198 37.9206C18.2468 37.6406 18.5465 37.3301 18.8148 36.9935L18.6767 36.9648L18.4655 36.427L19.0529 36.2914L19.1398 36.4096L19.9601 34.4345C19.7896 34.3234 19.6283 34.1987 19.4778 34.0617C19.4457 34.0278 19.5065 33.8254 19.556 33.8115C19.7436 33.7742 19.934 33.753 20.1252 33.748C20.54 31.9118 20.7101 30.0287 20.6309 28.1478C20.4383 28.1158 20.2493 28.0646 20.0669 27.9949C20.0451 27.9485 20.0338 27.8979 20.0338 27.8467C20.0338 27.7955 20.0451 27.7449 20.0669 27.6986C20.2364 27.622 20.4135 27.5638 20.5953 27.5248" fill="white"/>
<path d="M14.5354 0.169384L18.1136 1.43281C18.1797 1.45627 18.2648 1.45974 18.31 1.50406C18.4438 1.63527 18.562 1.78212 18.6863 1.92201C18.5255 1.98718 18.3648 2.05322 18.2023 2.11491C18.1527 2.12714 18.1021 2.1347 18.0511 2.13751C17.6722 3.248 17.2326 4.35067 16.9362 5.48983C16.8561 6.06257 16.8561 6.64366 16.9362 7.21639C16.958 7.84637 16.8494 7.93674 16.2689 7.73775L14.6805 7.19554C14.5745 7.49011 14.4728 7.76295 14.3781 8.03753C12.6733 13.0194 10.9676 18.0012 9.261 22.9831C9.17411 23.2255 9.15239 23.6444 8.75529 23.4984C8.35818 23.3524 8.60843 23.0135 8.69098 22.7702C10.4201 17.7055 12.1534 12.6426 13.8906 7.58134C13.9541 7.39713 14.0123 7.21031 14.0844 6.99047C13.5005 6.78888 12.9427 6.60293 12.3883 6.40395C11.9477 6.2458 11.8721 6.05638 12.2032 5.73661C13.116 4.79027 13.7527 3.61242 14.0445 2.33041C14.18 1.84468 14.3677 1.37459 14.5302 0.901022C14.0418 0.606455 14.0262 0.558664 14.2756 0.165039L14.5354 0.169384ZM14.014 4.3133L16.3784 5.12054L17.4889 1.86988L15.1271 1.06177L14.014 4.3133ZM12.8836 5.92777L16.2863 7.09127C16.3011 6.72518 16.2967 6.35857 16.2733 5.99294C16.2555 5.91918 16.2217 5.85025 16.1742 5.79107C16.1268 5.73189 16.0668 5.68392 15.9987 5.65059C15.625 5.49157 15.2314 5.37948 14.8465 5.24653C13.7021 4.85117 13.7021 4.8503 12.947 5.79396C12.9224 5.83686 12.9012 5.8816 12.8836 5.92777Z" fill="white"/>
<path d="M22.0585 13.5471C21.7822 14.7575 21.5701 15.9375 21.2339 17.081C20.9376 18.0898 20.51 19.0613 20.1225 20.0415C20.0356 20.2517 20.0017 20.6245 19.6385 20.4759C19.2753 20.3273 19.4647 20.031 19.5699 19.7956C20.2507 18.3408 20.7616 16.8124 21.0922 15.2406C21.2026 14.6889 21.2469 14.1241 21.3651 13.5749C21.3929 13.4437 21.5823 13.3142 21.7257 13.2586C21.7848 13.2369 21.9212 13.4211 22.0576 13.5445" fill="white"/>
<path d="M7.3928 12.2752C6.60006 12.2385 5.8259 12.0228 5.12837 11.6443C4.92678 11.5392 4.77385 11.3889 4.92852 11.189C4.99093 11.1373 5.0654 11.1022 5.14501 11.087C5.22461 11.0719 5.30677 11.077 5.38384 11.1021C6.03771 11.4587 6.77077 11.6451 7.51555 11.6442C8.26033 11.6433 8.99293 11.4551 9.64593 11.0969C10.1152 10.8719 10.5974 10.6685 11.0857 10.4887C11.1518 10.4768 11.2198 10.4819 11.2833 10.5035C11.3468 10.5251 11.4038 10.5624 11.449 10.6121C11.4855 10.7224 11.4212 10.9666 11.3377 11.0013C10.0813 11.5227 8.89952 12.2726 7.47448 12.2769H7.39193" fill="white"/>
<path d="M3.21008 16.1682C3.21008 16.2099 3.17706 16.103 3.21703 16.0448C3.32088 15.9079 3.43412 15.7784 3.55591 15.6572C3.64889 15.7893 3.79661 15.911 3.82615 16.0569C4.01297 16.9919 4.14679 17.9382 4.35533 18.8688C4.4709 19.3901 4.71159 19.8776 4.86017 20.3903C4.8958 20.5137 4.78979 20.6779 4.74895 20.8248C4.60037 20.757 4.35707 20.724 4.31449 20.6153C3.69785 19.2065 3.32415 17.7035 3.20921 16.1699" fill="white"/>
<path d="M15.0363 10.5361C15.4647 10.8116 15.8705 11.0575 16.2528 11.3356C16.2791 11.3869 16.2918 11.4441 16.2898 11.5017C16.2878 11.5593 16.2712 11.6154 16.2416 11.6649C16.1901 11.7057 16.1299 11.734 16.0656 11.7474C16.0014 11.7608 15.9348 11.759 15.8714 11.7422C15.5156 11.5734 15.1732 11.3779 14.8469 11.1574C14.8025 11.1096 14.7699 11.0522 14.7515 10.9896C14.7331 10.927 14.7295 10.861 14.7409 10.7968C14.7592 10.7099 14.906 10.643 15.0337 10.5361" fill="white"/>
<path d="M6.8347 25.441C6.69133 25.2551 6.52536 25.1282 6.54448 25.0422C6.57055 24.9214 6.73478 24.8319 6.83905 24.7285C6.93289 24.8276 7.09277 24.9214 7.09972 25.0283C7.10668 25.1351 6.96417 25.2499 6.8321 25.441" fill="white"/>
<path d="M13.3728 25.4501C13.2129 25.258 13.0521 25.1494 13.0547 25.0452C13.069 24.9777 13.1005 24.9151 13.1462 24.8635C13.1919 24.8119 13.2502 24.773 13.3154 24.7506C13.4023 24.7393 13.5856 24.8974 13.6056 25.0034C13.6256 25.1095 13.4909 25.2381 13.3719 25.4492" fill="white"/>
<path d="M12.7445 37.2233C12.6011 37.0217 12.4491 36.9009 12.4595 36.7975C12.4795 36.7314 12.5162 36.6716 12.5662 36.6239C12.6161 36.5763 12.6776 36.5424 12.7445 36.5255C12.8314 36.5203 13.0052 36.6941 13.0121 36.8018C13.0191 36.9096 12.8783 37.0251 12.7445 37.2233Z" fill="white"/>
<path d="M12.467 36.1265C12.3211 35.9327 12.1699 35.8206 12.176 35.7172C12.182 35.6138 12.3384 35.4287 12.4306 35.4287C12.4983 35.4426 12.5613 35.474 12.6133 35.5197C12.6653 35.5655 12.7044 35.6239 12.7269 35.6894C12.7442 35.7919 12.5991 35.9205 12.4662 36.1317" fill="white"/>
<path d="M19.3495 35.168C19.1401 35.3157 19.0175 35.4687 18.915 35.4548C18.8125 35.4409 18.7143 35.2732 18.6152 35.1732C18.716 35.0777 18.8081 34.9221 18.9194 34.9056C19.0306 34.8891 19.1401 35.0333 19.3469 35.1663" fill="white"/>
<path d="M5.55302 25.0312C5.70161 25.2189 5.86844 25.3441 5.8502 25.4284C5.82326 25.55 5.66338 25.643 5.55998 25.7481C5.46613 25.6491 5.30886 25.5578 5.2993 25.4492C5.28974 25.3406 5.4279 25.2276 5.55998 25.0312" fill="white"/>
<path d="M4.71998 24.9445C4.58356 24.7586 4.43584 24.6456 4.44366 24.5448C4.45148 24.444 4.60267 24.3337 4.6913 24.2285C4.80079 24.3293 4.96675 24.4136 5.00064 24.5352C5.0241 24.6169 4.85987 24.7507 4.71998 24.9445Z" fill="white"/>
<path d="M18.8052 25.5925C18.6097 25.7446 18.4976 25.9001 18.3916 25.8958C18.3252 25.88 18.264 25.8472 18.2142 25.8006C18.1643 25.7539 18.1276 25.6951 18.1075 25.6299C18.0996 25.536 18.2604 25.3596 18.3681 25.344C18.4759 25.3283 18.601 25.4665 18.8087 25.5925" fill="white"/>
<path d="M4.91087 26.1221C4.72927 26.2663 4.62239 26.4149 4.51725 26.4149C4.41211 26.4149 4.30523 26.2655 4.19922 26.1812C4.29393 26.0691 4.373 25.8971 4.48857 25.864C4.57546 25.8388 4.71362 25.9944 4.91174 26.1247" fill="white"/>
<path d="M11.4559 34.0908C11.5932 34.2924 11.7401 34.4141 11.727 34.5157C11.714 34.6174 11.5532 34.7156 11.4516 34.8146C11.3517 34.7156 11.1857 34.6243 11.1727 34.5149C11.1596 34.4054 11.3125 34.2924 11.4559 34.0908Z" fill="white"/>
<path d="M4.94437 34.9459C4.80013 34.7469 4.64633 34.627 4.65675 34.5228C4.67588 34.4565 4.71188 34.3964 4.76123 34.3482C4.81058 34.3001 4.8716 34.2656 4.93829 34.2482C5.03039 34.2429 5.19896 34.415 5.21026 34.5219C5.22156 34.6288 5.07645 34.7478 4.94437 34.945" fill="white"/>
<path d="M13.6578 25.6934C13.7898 25.9071 13.9341 26.0409 13.9184 26.1365C13.9028 26.2321 13.7264 26.3259 13.6213 26.4189C13.5344 26.3138 13.3762 26.213 13.3675 26.1009C13.3588 25.9888 13.5126 25.888 13.6612 25.6934" fill="white"/>
<path d="M19.8958 26.7626C19.7594 26.5549 19.6152 26.4315 19.63 26.3281C19.6447 26.2247 19.8037 26.1274 19.9063 26.0283C20.0045 26.1291 20.1669 26.223 20.1817 26.3342C20.1965 26.4454 20.0418 26.5549 19.8958 26.7608" fill="white"/>
<path d="M6.11148 33.9609C6.25572 34.166 6.40344 34.2842 6.39215 34.3841C6.38085 34.484 6.21836 34.5883 6.12625 34.6891C6.02459 34.5927 5.85862 34.5066 5.84124 34.3972C5.82386 34.2877 5.97159 34.173 6.11148 33.9627" fill="white"/>
<path d="M11.1734 32.9893C11.3081 33.2004 11.4532 33.3282 11.4341 33.4298C11.415 33.5315 11.2455 33.6201 11.1421 33.714C11.05 33.6114 10.8927 33.5132 10.8814 33.4038C10.8702 33.2943 11.0231 33.1865 11.1673 32.9893" fill="white"/>
<path d="M4.66453 32.9902C4.79748 33.2005 4.94259 33.33 4.92521 33.4316C4.90783 33.5333 4.73405 33.6202 4.62804 33.7123C4.54114 33.6089 4.38126 33.5081 4.37518 33.4004C4.3691 33.2926 4.51942 33.1831 4.66366 32.9911" fill="white"/>
<path d="M6.52973 27.174C6.32119 27.2982 6.19085 27.4347 6.08745 27.4208C6.05133 27.4184 6.01605 27.4089 5.9836 27.3928C5.95115 27.3768 5.92217 27.3545 5.89833 27.3273C5.87449 27.3 5.85624 27.2684 5.84463 27.2341C5.83302 27.1998 5.82829 27.1636 5.83068 27.1275C5.83308 27.0913 5.84256 27.0561 5.8586 27.0236C5.87463 26.9912 5.8969 26.9622 5.92413 26.9384C5.95136 26.9145 5.98303 26.8963 6.01731 26.8847C6.0516 26.8731 6.08783 26.8683 6.12394 26.8707C6.22908 26.8707 6.33944 27.0228 6.52973 27.174Z" fill="white"/>
<path d="M13.0413 27.1315C12.8458 27.2766 12.7293 27.4296 12.6242 27.4226C12.5578 27.4061 12.4968 27.3726 12.4473 27.3254C12.3977 27.2782 12.3614 27.2188 12.3418 27.1533C12.357 27.0875 12.389 27.0268 12.4347 26.9771C12.4804 26.9275 12.5382 26.8905 12.6025 26.87C12.7085 26.8569 12.8336 27.0003 13.0369 27.1307" fill="white"/>
<path d="M19.3132 27.4457C19.1212 27.5734 19.0021 27.715 18.8996 27.7063C18.7971 27.6976 18.7006 27.5369 18.6016 27.4457C18.7058 27.3414 18.7979 27.1798 18.9187 27.1537C19.0056 27.1355 19.1281 27.3032 19.3132 27.4509" fill="white"/>
<path d="M13.9128 33.266C13.7138 33.4267 13.6035 33.5849 13.5018 33.5788C13.4002 33.5727 13.2907 33.4137 13.1855 33.3181C13.2768 33.2164 13.3593 33.0514 13.4636 33.0305C13.5679 33.0096 13.6956 33.1426 13.9128 33.2625" fill="white"/>
<path d="M11.9268 32.1521C12.0659 32.3581 12.2145 32.4823 12.2006 32.5866C12.1789 32.6513 12.1408 32.7093 12.0901 32.7549C12.0394 32.8006 11.9778 32.8324 11.9112 32.8473C11.8182 32.8473 11.6557 32.6735 11.6505 32.5675C11.6453 32.4615 11.7895 32.3468 11.9303 32.1504" fill="white"/>
<path d="M5.41905 33.0086C5.27394 32.8114 5.12448 32.6967 5.13317 32.5959C5.14186 32.4951 5.2974 32.3865 5.38951 32.2822C5.49465 32.3761 5.6667 32.456 5.68581 32.5681C5.70493 32.6802 5.55634 32.7966 5.41905 33.0095" fill="white"/>
<path d="M4.81519 31.5581C4.61186 31.6945 4.48934 31.8405 4.38072 31.8292C4.30732 31.8283 4.23729 31.7982 4.18605 31.7457C4.1348 31.6931 4.10652 31.6224 4.10744 31.549C4.10837 31.4756 4.13841 31.4055 4.19096 31.3543C4.24351 31.303 4.31427 31.2748 4.38767 31.2757C4.49455 31.2679 4.61273 31.4165 4.81345 31.5581" fill="white"/>
<path d="M17.518 31.3826C17.3703 31.2001 17.2026 31.0784 17.22 30.9933C17.2443 30.8716 17.4042 30.7769 17.5059 30.6709C17.6032 30.7682 17.7666 30.8577 17.7787 30.9646C17.7909 31.0715 17.6475 31.1879 17.518 31.3826Z" fill="white"/>
<path d="M19.5777 30.0127C19.7184 30.2195 19.8679 30.3429 19.8531 30.4472C19.8384 30.5514 19.6715 30.647 19.5716 30.7452C19.4743 30.6435 19.3109 30.5505 19.2996 30.4376C19.2866 30.3385 19.436 30.2186 19.5768 30.0162" fill="white"/>
<path d="M17.9558 24.6528C17.7629 24.7779 17.643 24.9135 17.5396 24.9048C17.4362 24.8961 17.3415 24.731 17.2441 24.6441C17.3484 24.5407 17.4414 24.3782 17.5622 24.3547C17.6491 24.3374 17.7707 24.5068 17.9558 24.6571" fill="white"/>
<path d="M14.4278 28.7736C14.2288 28.9248 14.115 29.0777 14.0142 29.069C13.9134 29.0603 13.8013 28.9057 13.6953 28.8144C13.7892 28.7102 13.8691 28.5425 13.9812 28.5208C14.0933 28.499 14.2115 28.6424 14.4278 28.7736Z" fill="white"/>
<path d="M13.7297 29.9473C13.5324 30.0898 13.4177 30.2375 13.3134 30.2305C13.2092 30.2236 13.0284 30.0646 13.0293 29.9699C13.0438 29.9029 13.0755 29.8409 13.1212 29.7899C13.1669 29.7388 13.225 29.7006 13.29 29.6788C13.3943 29.664 13.5202 29.8091 13.7297 29.9438" fill="white"/>
<path d="M11.9812 37.4797C11.7648 37.6135 11.6336 37.7569 11.5363 37.7404C11.439 37.7239 11.3469 37.5492 11.2539 37.4441C11.359 37.3572 11.4598 37.2034 11.5711 37.1947C11.6823 37.186 11.784 37.3355 11.9812 37.4815" fill="white"/>
<path d="M7.21405 29.9914C7.00203 30.1148 6.87343 30.2521 6.77177 30.2321C6.6701 30.2121 6.58321 30.0479 6.49023 29.9462C6.59364 29.8515 6.6927 29.6855 6.80044 29.6855C6.90819 29.6855 7.01681 29.8376 7.21405 29.994" fill="white"/>
<path d="M18.1819 29.7941C18.0472 29.5899 17.9047 29.4683 17.9212 29.3684C17.9377 29.2684 18.095 29.1685 18.1923 29.0703C18.2923 29.1685 18.4591 29.2589 18.473 29.3675C18.4869 29.4761 18.3322 29.5882 18.1854 29.7933" fill="white"/>
<path d="M20.2701 28.7793C20.4047 28.9644 20.5681 29.0956 20.5464 29.1807C20.516 29.3006 20.35 29.3858 20.2414 29.4866C20.1484 29.3849 19.9876 29.2859 19.9807 29.1799C19.9737 29.0739 20.1284 28.9626 20.2683 28.7801" fill="white"/>
<path d="M10.8403 29.192C10.6448 29.3328 10.5293 29.4796 10.4233 29.4736C10.3173 29.4675 10.1409 29.305 10.1426 29.2129C10.1572 29.146 10.1889 29.084 10.2346 29.033C10.2802 28.982 10.3384 28.9437 10.4033 28.9218C10.5075 28.9079 10.6335 29.0548 10.8377 29.1903" fill="white"/>
<path d="M20.0383 25.1677C19.8306 25.3067 19.7063 25.4536 19.6038 25.4388C19.5013 25.4241 19.4048 25.2572 19.3066 25.1564C19.4083 25.06 19.5021 24.8957 19.6125 24.8862C19.7228 24.8766 19.8323 25.0243 20.0357 25.1677" fill="white"/>
<path d="M4.32367 29.2192C4.12034 29.3461 3.99608 29.486 3.8892 29.4721C3.78233 29.4582 3.61549 29.2853 3.62331 29.1958C3.64244 29.1297 3.67833 29.0697 3.72751 29.0215C3.77669 28.9734 3.83748 28.9389 3.90397 28.9212C4.00825 28.9134 4.12381 29.0698 4.32106 29.2192" fill="white"/>
<path d="M6.25 36.3698C6.37773 36.5784 6.5185 36.7061 6.50112 36.8043C6.48374 36.9025 6.3169 36.998 6.21524 37.0928C6.11966 36.9894 5.95456 36.8912 5.94935 36.7799C5.94413 36.6687 6.09794 36.5644 6.25 36.3672" fill="white"/>
<path d="M7.9098 28.824C7.69518 28.9517 7.56223 29.0916 7.46578 29.0716C7.36933 29.0516 7.27462 28.8822 7.18164 28.7779C7.28765 28.6858 7.38844 28.5294 7.50053 28.5173C7.61263 28.5051 7.71342 28.6658 7.9098 28.8205" fill="white"/>
<path d="M5.10533 30.456C4.90113 30.5959 4.77948 30.7445 4.67956 30.7315C4.57963 30.7185 4.47796 30.5577 4.37891 30.4552C4.47883 30.357 4.57007 30.1945 4.68129 30.1797C4.79252 30.1649 4.90287 30.3161 5.1062 30.456" fill="white"/>
<path d="M11.1986 30.8839C11.0535 30.6831 10.9014 30.5641 10.9127 30.4624C10.924 30.3608 11.0865 30.26 11.1855 30.1592C11.2855 30.2565 11.4506 30.3451 11.4662 30.4546C11.4819 30.5641 11.335 30.6797 11.1986 30.8839Z" fill="white"/>
<path d="M17.7815 28.219C17.5764 28.3476 17.4504 28.4893 17.347 28.4745C17.3106 28.4731 17.2749 28.4646 17.2418 28.4494C17.2086 28.4342 17.1789 28.4126 17.1541 28.3859C17.1293 28.3592 17.11 28.3279 17.0974 28.2938C17.0847 28.2596 17.0789 28.2233 17.0803 28.1869C17.0816 28.1505 17.0902 28.1147 17.1054 28.0816C17.1206 28.0485 17.1421 28.0187 17.1688 27.9939C17.1955 27.9691 17.2269 27.9499 17.261 27.9372C17.2952 27.9246 17.3315 27.9187 17.3679 27.9201C17.4739 27.9149 17.5877 28.0696 17.7824 28.219" fill="white"/>
<path d="M6.36043 30.9422C6.14233 31.0508 6.0033 31.1785 5.90164 31.1542C5.83229 31.1417 5.77041 31.103 5.7288 31.0461C5.68718 30.9893 5.66901 30.9186 5.67805 30.8487C5.68709 30.7788 5.72265 30.7151 5.77737 30.6707C5.83209 30.6263 5.90178 30.6047 5.97202 30.6102C6.07716 30.6102 6.17709 30.7762 6.36043 30.9422Z" fill="white"/>
<path d="M12.413 31.3106C12.2913 31.0985 12.1523 30.963 12.1766 30.8674C12.201 30.7718 12.3747 30.5989 12.4668 30.6067C12.5319 30.6293 12.5901 30.6683 12.6357 30.7199C12.6814 30.7715 12.713 30.8339 12.7275 30.9013C12.7327 31.0021 12.5729 31.1124 12.4121 31.3071" fill="white"/>
<path d="M11.475 27.8586C11.2717 28.0038 11.1535 28.1532 11.0527 28.1419C10.9519 28.1306 10.8459 27.9681 10.7443 27.8734C10.8416 27.7726 10.9293 27.6067 11.0397 27.5893C11.1501 27.5719 11.2656 27.7205 11.475 27.8586Z" fill="white"/>
<path d="M18.7631 31.847C18.6102 31.661 18.4416 31.5411 18.4582 31.4559C18.4807 31.3326 18.6371 31.2335 18.7362 31.124C18.8335 31.2205 18.9969 31.3082 19.0108 31.4169C19.0247 31.5255 18.8883 31.6436 18.7631 31.8513" fill="white"/>
<path d="M11.3933 35.7778C11.1796 35.916 11.0457 36.0637 10.9519 36.0446C10.858 36.0255 10.7599 35.8534 10.666 35.7474C10.7712 35.6605 10.8702 35.5041 10.9823 35.4937C11.0944 35.4833 11.1961 35.6327 11.3933 35.7778Z" fill="white"/>
<path d="M8.41418 24.9258C8.55321 25.1265 8.69832 25.2447 8.68702 25.3446C8.67573 25.4445 8.51932 25.5523 8.42634 25.6548C8.32294 25.5584 8.1535 25.4723 8.13612 25.362C8.11874 25.2516 8.27167 25.1369 8.41418 24.9275" fill="white"/>
<path d="M11.3221 31.5547C11.1284 31.6929 10.9997 31.8519 10.9129 31.8319C10.7929 31.8041 10.7052 31.6398 10.6035 31.5347C10.7052 31.4426 10.8025 31.2853 10.9102 31.274C11.018 31.2627 11.1292 31.413 11.3221 31.5521" fill="white"/>
<path d="M5.95843 35.2695C6.0879 35.4824 6.2304 35.6127 6.21129 35.7118C6.19217 35.8108 6.02099 35.9004 5.91585 35.9933C5.82461 35.8891 5.66733 35.7883 5.66038 35.6779C5.65343 35.5675 5.8081 35.4642 5.95843 35.2695Z" fill="white"/>
<path d="M17.6253 32.1334C17.4367 32.2759 17.309 32.4392 17.2247 32.4192C17.1031 32.3906 17.0136 32.2298 16.9102 32.1247C17.011 32.0326 17.1048 31.8762 17.2125 31.864C17.3203 31.8518 17.4324 31.9978 17.6253 32.1308" fill="white"/>
<path d="M14.9229 24.9258C15.0645 25.1265 15.2122 25.2447 15.2018 25.3446C15.1914 25.4446 15.028 25.5523 14.9411 25.6548C14.8377 25.5575 14.6691 25.4715 14.6518 25.3602C14.6344 25.249 14.7856 25.1352 14.9272 24.9258" fill="white"/>
<path d="M12.5116 25.447C12.3178 25.5878 12.204 25.7347 12.0997 25.7286C11.9954 25.7225 11.8946 25.5652 11.793 25.474C11.8938 25.3688 11.9807 25.2055 12.0997 25.1777C12.1866 25.1568 12.3161 25.3124 12.5116 25.4479" fill="white"/>
<path d="M14.0235 27.1084C14.1703 27.31 14.3232 27.4273 14.3128 27.5281C14.3024 27.6289 14.139 27.734 14.0435 27.8366C13.9427 27.7401 13.7776 27.6532 13.7611 27.5437C13.7445 27.4343 13.8896 27.3169 14.0217 27.1093" fill="white"/>
<path d="M7.53696 26.132C7.34232 26.2658 7.20677 26.4239 7.12161 26.4004C7.00344 26.3674 6.92262 26.198 6.82617 26.0876C6.93131 26.0008 7.03385 25.8513 7.14072 25.8487C7.2476 25.8461 7.35448 25.9929 7.53696 26.132Z" fill="white"/>
<path d="M11.4346 26.1634C11.2261 26.2903 11.0992 26.4293 10.9932 26.4145C10.8872 26.3998 10.7273 26.2251 10.7325 26.1313C10.7526 26.0661 10.7892 26.0074 10.8389 25.9607C10.8886 25.9141 10.9496 25.8812 11.0158 25.8654C11.1218 25.8601 11.2357 26.014 11.4329 26.1625" fill="white"/>
<path d="M15.795 26.6826C15.5821 26.8269 15.4587 26.9755 15.3605 26.9616C15.2624 26.9477 15.1607 26.7808 15.0625 26.6809C15.1633 26.5853 15.2563 26.4289 15.3675 26.4141C15.4787 26.3994 15.5882 26.5445 15.7959 26.6835" fill="white"/>
<path d="M12.6645 33.9609C12.7922 34.1782 12.9304 34.3085 12.9104 34.4076C12.8904 34.5066 12.721 34.5961 12.6167 34.6882C12.5246 34.5831 12.3673 34.4832 12.356 34.3719C12.3447 34.2607 12.5046 34.1599 12.6619 33.9609" fill="white"/>
<path d="M17.4488 33.6992C17.5957 33.9008 17.7451 34.0173 17.7364 34.1198C17.7354 34.1908 17.707 34.2588 17.6571 34.3094C17.6073 34.3601 17.5399 34.3896 17.4688 34.3918C17.3978 34.3941 17.3286 34.3689 17.2757 34.3214C17.2228 34.274 17.1902 34.208 17.1846 34.1372C17.1699 34.0346 17.3133 33.9095 17.4453 33.7027" fill="white"/>
<path d="M17.3428 26.7876C17.1855 26.5973 17.0265 26.4896 17.0273 26.3835C17.0422 26.3173 17.074 26.2561 17.1197 26.206C17.1655 26.1559 17.2235 26.1185 17.288 26.0977C17.3536 26.11 17.4148 26.1392 17.4656 26.1825C17.5163 26.2258 17.5549 26.2816 17.5774 26.3444C17.5948 26.4504 17.4609 26.5799 17.3428 26.7876Z" fill="white"/>
<path d="M9.27808 26.6647C9.07823 26.815 8.96352 26.9679 8.86186 26.9593C8.76019 26.9506 8.65331 26.7915 8.55078 26.6986C8.64549 26.596 8.72891 26.4301 8.8384 26.4101C8.94788 26.3901 9.06606 26.5335 9.27808 26.6647Z" fill="white"/>
<path d="M7.9497 27.5212C7.75333 27.6671 7.63776 27.8201 7.53262 27.8122C7.4663 27.7953 7.40554 27.7615 7.35633 27.7139C7.30711 27.6664 7.27113 27.6068 7.25195 27.5412C7.26731 27.4757 7.29941 27.4153 7.3451 27.366C7.3908 27.3166 7.44853 27.28 7.51263 27.2596C7.61777 27.2466 7.74203 27.3899 7.9471 27.5203" fill="white"/>
<path d="M18.6396 33.2555C18.4302 33.3867 18.3025 33.5301 18.1982 33.5162C18.133 33.4943 18.0746 33.4558 18.0289 33.4044C17.9832 33.353 17.9517 33.2906 17.9375 33.2233C17.9375 33.1303 18.1174 32.9731 18.2242 32.967C18.3311 32.9609 18.4423 33.1121 18.637 33.2572" fill="white"/>
<path d="M10.116 24.4854C10.2741 24.6861 10.4305 24.7982 10.4227 24.8972C10.4132 25.0093 10.2568 25.1093 10.162 25.2144C10.0604 25.1206 9.90136 25.0406 9.87442 24.9303C9.84749 24.8199 9.98912 24.7026 10.1142 24.4854" fill="white"/>
<path d="M20.2295 32.1917C20.0183 32.3151 19.8897 32.4524 19.7863 32.4333C19.6829 32.4142 19.5257 32.2404 19.5335 32.1474C19.5544 32.0829 19.5918 32.0249 19.6419 31.9792C19.692 31.9335 19.7532 31.9016 19.8194 31.8867C19.9236 31.8867 20.0349 32.0379 20.2295 32.1917Z" fill="white"/>
<path d="M18.1852 35.3054C17.9784 35.4436 17.8567 35.5879 17.7568 35.574C17.6569 35.56 17.5561 35.4002 17.457 35.3028C17.5552 35.2038 17.6447 35.0422 17.7533 35.0256C17.862 35.0091 17.9758 35.1612 18.1878 35.3046" fill="white"/>
<path d="M7.01943 32.0071C6.87953 31.8064 6.73268 31.6874 6.74485 31.5874C6.75701 31.4875 6.91863 31.3841 7.01248 31.2842C7.11414 31.3815 7.28185 31.4684 7.29836 31.5779C7.31487 31.6874 7.1628 31.8012 7.0203 32.008" fill="white"/>
<path d="M4.54459 27.4371C4.67492 27.6491 4.81482 27.7751 4.79744 27.8715C4.78007 27.968 4.61584 28.0653 4.51591 28.1609C4.42033 28.0584 4.25523 27.9628 4.24828 27.8524C4.24133 27.7421 4.39252 27.6369 4.54459 27.4336" fill="white"/>
<path d="M5.36568 28.5244C5.50818 28.7199 5.6559 28.8346 5.64982 28.9398C5.65124 28.9757 5.64557 29.0116 5.63314 29.0454C5.6207 29.0791 5.60173 29.1101 5.57733 29.1365C5.55292 29.1629 5.52355 29.1843 5.49088 29.1994C5.45822 29.2144 5.42291 29.2229 5.38696 29.2243C5.35102 29.2258 5.31515 29.2201 5.28139 29.2077C5.24764 29.1952 5.21666 29.1763 5.19024 29.1518C5.16381 29.1274 5.14246 29.0981 5.12738 29.0654C5.11231 29.0328 5.10382 28.9974 5.10239 28.9615C5.08936 28.8564 5.23273 28.7321 5.36307 28.527" fill="white"/>
<path d="M13.9604 31.5973C13.7501 31.7259 13.6232 31.8649 13.5207 31.8484C13.4182 31.8319 13.2522 31.6607 13.26 31.5669C13.2801 31.5018 13.3168 31.4431 13.3665 31.3965C13.4162 31.3499 13.4771 31.317 13.5433 31.301C13.6476 31.2941 13.7623 31.447 13.9613 31.5973" fill="white"/>
<path d="M16.7126 30.0537C16.5762 29.8425 16.4293 29.7148 16.4467 29.6192C16.4641 29.5236 16.6353 29.4289 16.7395 29.3359C16.8308 29.4385 16.9855 29.5349 16.995 29.6453C17.0046 29.7556 16.856 29.8599 16.7126 30.0572" fill="white"/>
<path d="M12.3219 28.9545C12.1194 29.0936 12.0004 29.2378 11.9005 29.2265C11.8006 29.2152 11.6954 29.0579 11.5938 28.9658C11.6911 28.8642 11.778 28.6965 11.8883 28.6791C11.9987 28.6617 12.1125 28.8129 12.3228 28.9554" fill="white"/>
</g>
</g>
</g>
</g>
<defs>
<clipPath id="clip0_1_1372">
<rect width="24.33" height="39.98" fill="white"/>
</clipPath>
<clipPath id="clip1_1_1372">
<rect width="24.33" height="39.98" fill="white"/>
</clipPath>
<clipPath id="clip2_1_1372">
<rect width="24.33" height="39.9707" fill="white" transform="translate(0 0.00488281)"/>
</clipPath>
</defs>
</svg>
