<svg width="40" height="40" viewBox="0 0 40 40" fill="none" xmlns="http://www.w3.org/2000/svg">
<g clip-path="url(#clip0_1_1301)">
<g clip-path="url(#clip1_1_1301)">
<g clip-path="url(#clip2_1_1301)">
<mask id="mask0_1_1301" style="mask-type:luminance" maskUnits="userSpaceOnUse" x="0" y="0" width="40" height="40">
<path d="M39.98 0H0V39.98H39.98V0Z" fill="white"/>
</mask>
<g mask="url(#mask0_1_1301)">
<path d="M3.47432 0.0136719C3.62119 0.121606 3.73877 0.264537 3.81635 0.429473C3.89393 0.59441 3.92906 0.776121 3.91854 0.958088C3.93752 1.7136 4.14191 2.45287 4.51373 3.11083C4.88555 3.76879 5.41339 4.32528 6.0508 4.73131C6.82553 5.24839 6.82908 5.68906 6.06591 6.19547C5.42848 6.60273 4.89911 7.15823 4.523 7.81452C4.14689 8.47081 3.93523 9.20839 3.9061 9.96425C3.90077 10.0353 3.9061 10.1064 3.90077 10.1775C3.90813 10.2733 3.89557 10.3696 3.86386 10.4603C3.83216 10.551 3.78201 10.6342 3.71657 10.7045C3.65112 10.7749 3.57181 10.831 3.48364 10.8691C3.39546 10.9073 3.30032 10.9268 3.20423 10.9264C2.82042 10.9176 2.57432 10.6332 2.53345 10.1917C2.50682 9.79653 2.45399 9.40356 2.37531 9.01539C2.1045 7.85332 1.39202 6.84227 0.388748 6.19636C0.184406 6.05509 0.00138618 5.88362 -0.191406 5.72548V5.21374C0.00138618 5.05471 0.182629 4.87968 0.38786 4.73931C1.0236 4.32956 1.54998 3.77114 1.92149 3.11232C2.293 2.45351 2.49847 1.71412 2.52013 0.958088C2.50916 0.776247 2.54391 0.594555 2.62119 0.429589C2.69848 0.264624 2.81584 0.121636 2.96257 0.0136719L3.47432 0.0136719ZM1.79782 5.46872L3.21933 7.2154L4.64084 5.47139L3.21933 3.72115L1.79782 5.46872Z" fill="white"/>
<path d="M35.6996 39.5711C35.553 39.4631 35.4356 39.3203 35.358 39.1556C35.2805 38.9908 35.2452 38.8093 35.2554 38.6275C35.2344 37.8578 35.022 37.1055 34.6373 36.4385C34.2526 35.7715 33.7078 35.2108 33.0521 34.8072C32.3769 34.3683 32.3662 33.8673 33.0316 33.4399C33.7008 33.03 34.2561 32.4583 34.6464 31.7775C35.0367 31.0967 35.2495 30.3287 35.2652 29.5441C35.2963 28.9639 35.5317 28.6556 35.9644 28.6663C36.3846 28.6743 36.6121 28.9737 36.6369 29.5272C36.6507 30.2036 36.81 30.869 37.104 31.4783C37.3981 32.0876 37.82 32.6263 38.341 33.0579C38.4707 33.1681 38.6164 33.2569 38.7497 33.3626C38.9558 33.5261 39.1584 33.6958 39.3618 33.8628V34.3746C39.1575 34.5416 38.9629 34.7219 38.747 34.8721C38.1203 35.283 37.6022 35.8391 37.2367 36.4933C36.8711 37.1475 36.6691 37.8803 36.6476 38.6293C36.6579 38.8114 36.6226 38.9931 36.5451 39.1582C36.4675 39.3232 36.3501 39.4663 36.2034 39.5746L35.6996 39.5711ZM35.9546 35.8609L37.3761 34.1151L35.9546 32.3685L34.5331 34.1133L35.9546 35.86" fill="white"/>
<path d="M18.4538 27.4847C18.6167 28.635 18.7796 29.7852 18.9425 30.9354C19.1644 32.1883 19.0168 33.4787 18.5178 34.6491C18.3574 35.0895 18.1068 35.4914 17.7819 35.8291C17.4569 36.1668 17.065 36.4328 16.6312 36.61C16.1973 36.7872 15.7312 36.8717 15.2628 36.8581C14.7944 36.8444 14.334 36.733 13.9112 36.5309C13.0863 36.1927 12.3397 35.6886 11.7177 35.0499C11.0957 34.4113 10.6115 33.6516 10.2952 32.8181C9.15169 30.1386 8.4035 27.3071 8.07414 24.4125C7.83335 22.0982 7.32319 19.8199 6.55401 17.6239C6.01821 16.3003 5.79649 14.8705 5.90624 13.4467C6.016 12.023 6.45424 10.6441 7.18658 9.41821C7.72496 8.52668 8.46461 7.7736 9.34631 7.21928C10.228 6.66496 11.2273 6.32479 12.264 6.22602C13.7681 6.07562 15.2851 6.32606 16.661 6.95188C17.481 7.26728 18.3037 7.57823 19.1148 7.91851C19.4715 8.0767 19.8571 8.15939 20.2473 8.16138C20.6375 8.16337 21.0239 8.08461 21.3821 7.93006C22.5247 7.46451 23.6708 7.0043 24.8382 6.60894C26.0198 6.1566 27.3008 6.0282 28.5487 6.23704C29.7966 6.44588 30.966 6.98437 31.936 7.79679C33.4068 9.04498 34.3251 10.8235 34.4911 12.7454C34.745 14.5561 34.5116 16.4016 33.815 18.0921C33.1359 19.8857 32.7072 21.7644 32.541 23.6751C32.2271 26.7999 31.4547 29.8614 30.2488 32.7612C29.9351 33.603 29.4517 34.3713 28.8286 35.0184C28.2055 35.6655 27.456 36.1776 26.6266 36.5229C26.1983 36.7308 25.7308 36.8455 25.2549 36.8594C24.779 36.8733 24.3055 36.7862 23.8658 36.6036C23.4261 36.4211 23.0301 36.1473 22.704 35.8005C22.3778 35.4536 22.129 35.0415 21.9738 34.5914C21.4412 33.2651 21.3326 31.8063 21.6629 30.4157C21.9965 28.9734 22.0688 27.483 21.8761 26.0152C21.794 25.5702 21.6536 25.138 21.4586 24.7297C21.3671 24.4875 21.2047 24.2785 20.9927 24.1299C20.7806 23.9814 20.5287 23.9003 20.2698 23.8972C20.0028 23.8914 19.7409 23.9708 19.5222 24.1241C19.3034 24.2773 19.1393 24.4963 19.0535 24.7492C18.8421 25.3172 18.6819 25.9029 18.5747 26.4994C18.539 26.824 18.5352 27.1514 18.5631 27.4767L18.4521 27.4883M17.0812 27.5114L17.1976 27.4998C17.1976 27.1444 17.17 26.7891 17.2029 26.4337C17.2432 25.4344 17.5647 24.4669 18.1304 23.6422C18.3664 23.2966 18.6833 23.014 19.0535 22.819C19.4237 22.6239 19.8359 22.5223 20.2544 22.523C20.6728 22.5237 21.0847 22.6267 21.4543 22.823C21.8238 23.0193 22.1397 23.303 22.3745 23.6493C22.6905 24.1022 22.9266 24.6058 23.0729 25.1383C23.4543 26.7624 23.4664 28.4514 23.1084 30.0808C22.8354 31.1714 22.7972 32.3077 22.9964 33.4142C23.4993 35.3892 24.9146 36.0022 26.6737 34.9885C27.7561 34.3384 28.5866 33.3411 29.0299 32.1588C30.0752 29.6388 30.7665 26.9862 31.084 24.2766C31.3052 21.8439 31.8465 19.4511 32.6938 17.1601C33.3276 15.5141 33.4188 13.7086 32.9541 12.0071C32.7919 11.2165 32.4618 10.4699 31.9862 9.81787C31.5105 9.16583 30.9004 8.62353 30.1971 8.22764C29.4937 7.83175 28.7136 7.5915 27.9094 7.52315C27.1052 7.4548 26.2957 7.55993 25.5356 7.83144C24.3069 8.21969 23.1057 8.70123 21.9117 9.1881C21.3899 9.41287 20.8277 9.52881 20.2596 9.52881C19.6915 9.52881 19.1293 9.41287 18.6075 9.1881C17.4268 8.70567 16.2292 8.26145 15.0262 7.83588C14.2946 7.57253 13.5165 7.46296 12.7406 7.51403C11.9647 7.56511 11.2077 7.77572 10.5169 8.13271C9.82612 8.48969 9.21641 8.98537 8.72593 9.58873C8.23545 10.1921 7.87473 10.8902 7.66634 11.6393C7.0906 13.4294 7.14199 15.3623 7.81205 17.1192C8.66343 19.4376 9.21053 21.8566 9.43967 24.3156C9.75612 27.0255 10.4511 29.6776 11.5044 32.1944C11.9912 33.5192 12.9808 34.5986 14.2586 35.1982C14.5355 35.3666 14.848 35.4677 15.171 35.4935C15.4941 35.5192 15.8186 35.4688 16.1187 35.3464C16.4187 35.224 16.6859 35.0329 16.8987 34.7885C17.1116 34.5442 17.2641 34.2533 17.3442 33.9393C17.6797 33.0279 17.7623 32.0427 17.5832 31.0883C17.4055 29.8969 17.2482 28.7028 17.0812 27.5096" fill="white"/>
<path d="M10.7736 17.0684C10.9307 17.0849 11.0778 17.1533 11.1917 17.2627C11.3056 17.3721 11.3798 17.5163 11.4026 17.6726C11.7438 19.0754 12.1711 20.4658 12.3959 21.8874C12.7757 25.0294 13.5555 28.11 14.7165 31.0543C14.7638 31.1384 14.7923 31.2317 14.8003 31.3279C14.8083 31.424 14.7955 31.5208 14.7628 31.6115C14.7301 31.7023 14.6783 31.785 14.6108 31.8539C14.5434 31.9229 14.4618 31.9765 14.3718 32.0112C13.9933 32.1693 13.6406 31.9881 13.4416 31.5225C12.4697 29.2059 11.7864 26.7785 11.4071 24.295C11.1608 22.1525 10.7146 20.0377 10.0744 17.9782C10.0341 17.871 10.0218 17.7553 10.0385 17.642C10.0552 17.5287 10.1005 17.4215 10.1701 17.3305C10.2397 17.2395 10.3312 17.1677 10.4362 17.1219C10.5411 17.076 10.656 17.0576 10.7701 17.0684" fill="white"/>
<path d="M9.35742 13.8493C9.36735 12.8984 9.6024 11.9634 10.0433 11.1209C10.2955 10.656 10.6673 10.267 11.1203 9.99394C11.5733 9.72091 12.0909 9.57383 12.6198 9.5679C12.7181 9.55006 12.8191 9.55345 12.916 9.57784C13.0129 9.60224 13.1035 9.64707 13.1817 9.70933C13.2598 9.77159 13.3238 9.84984 13.3692 9.93884C13.4147 10.0278 13.4406 10.1255 13.4452 10.2253C13.4463 10.3215 13.4274 10.4168 13.3897 10.5053C13.352 10.5937 13.2962 10.6734 13.226 10.7391C13.1558 10.8048 13.0726 10.8551 12.9819 10.8869C12.8911 10.9187 12.7947 10.9312 12.6989 10.9237C12.3542 10.9136 12.0155 11.0157 11.7337 11.2145C11.4519 11.4133 11.2422 11.6981 11.1361 12.0262C10.9564 12.6481 10.821 13.282 10.731 13.9231C10.6999 14.0883 10.739 14.2669 10.7061 14.4312C10.6839 14.5989 10.5995 14.7522 10.4697 14.8606C10.3398 14.969 10.174 15.0246 10.005 15.0165C9.83606 15.0083 9.67635 14.9369 9.55754 14.8165C9.43874 14.6961 9.36953 14.5354 9.36364 14.3664C9.35209 14.2251 9.36364 14.083 9.36364 13.8484" fill="white"/>
</g>
</g>
</g>
</g>
<defs>
<clipPath id="clip0_1_1301">
<rect width="39.98" height="39.98" fill="white"/>
</clipPath>
<clipPath id="clip1_1_1301">
<rect width="39.98" height="39.98" fill="white"/>
</clipPath>
<clipPath id="clip2_1_1301">
<rect width="39.98" height="39.98" fill="white"/>
</clipPath>
</defs>
</svg>
