<svg width="40" height="40" viewBox="0 0 40 40" fill="none" xmlns="http://www.w3.org/2000/svg">
<g clip-path="url(#clip0_1_1335)">
<g clip-path="url(#clip1_1_1335)">
<path d="M36.1325 14.6433H36.0513L36.7572 14.3122C37.106 14.1554 37.4112 13.9158 37.6464 13.6142C37.8815 13.3127 38.0395 12.9583 38.1066 12.5818C38.1713 12.2321 38.1499 11.872 38.0444 11.5324C37.9389 11.1927 37.7524 10.8839 37.5009 10.6324C37.2495 10.381 36.9406 10.1945 36.601 10.089C36.2614 9.98345 35.9013 9.96213 35.5516 10.0268C35.1805 10.0926 34.8307 10.2467 34.5317 10.4761C34.2327 10.7055 33.9933 11.0035 33.8337 11.3449L31.9596 15.3492C31.9041 15.4662 31.8862 15.5976 31.9086 15.7251C31.931 15.8527 31.9925 15.9702 32.0846 16.0613C32.1915 16.1681 32.3336 16.2324 32.4844 16.2425C32.5768 16.2418 32.6681 16.2227 32.753 16.1862L34.0711 15.5616L35.9451 15.8801C36.2255 15.9335 36.49 16.0501 36.7184 16.2211C36.9468 16.3922 37.1332 16.6131 37.2632 16.8672H34.6208C33.8767 16.867 33.157 17.1324 32.5913 17.6157C32.0256 18.099 31.6509 18.7684 31.5348 19.5033L30.1168 28.5051C29.9297 29.6415 29.3363 30.6714 28.447 31.4033C27.5577 32.1352 26.4329 32.5193 25.2817 32.4843C24.3469 32.4357 23.4451 32.1228 22.6811 31.5821C21.917 31.0414 21.322 30.295 20.9651 29.4296L20.5653 28.4926C20.5175 28.3797 20.4375 28.2833 20.3353 28.2156C20.2331 28.1478 20.1132 28.1116 19.9906 28.1115C19.868 28.1116 19.7481 28.1478 19.6459 28.2156C19.5437 28.2833 19.4637 28.3797 19.4159 28.4926L18.9349 29.6108C18.5297 30.5564 17.8284 31.3449 16.9363 31.8575C16.0443 32.3701 15.0099 32.579 13.9889 32.4529C12.9678 32.3267 12.0154 31.8724 11.2749 31.1581C10.5345 30.4439 10.046 29.5084 9.88318 28.4926L8.45265 19.4971C8.33523 18.7633 7.96002 18.0954 7.3944 17.6133C6.82879 17.1313 6.10984 16.8667 5.36669 16.8672H2.71802C2.85057 16.6102 3.04079 16.3874 3.27379 16.2161C3.50679 16.0449 3.77625 15.9299 4.06109 15.8801L5.93516 15.5616L7.25325 16.1862C7.33038 16.2196 7.41293 16.2386 7.49687 16.2425C7.57909 16.2429 7.66059 16.2272 7.7367 16.1961C7.81281 16.165 7.88203 16.1192 7.9404 16.0613C8.03249 15.9702 8.09399 15.8527 8.11637 15.7251C8.13875 15.5976 8.12092 15.4662 8.06534 15.3492L6.19128 11.3449C6.03168 11.0035 5.79228 10.7055 5.49328 10.4761C5.19428 10.2467 4.84447 10.0926 4.47339 10.0268C4.12371 9.96213 3.76354 9.98345 3.42394 10.089C3.08434 10.1945 2.77549 10.381 2.52404 10.6324C2.27258 10.8839 2.08606 11.1927 1.98055 11.5324C1.87504 11.872 1.85372 12.2321 1.91842 12.5818C1.98419 12.9529 2.13828 13.3027 2.3677 13.6017C2.59711 13.9007 2.8951 14.1401 3.23651 14.2997L3.9424 14.6308H3.86119C3.17526 14.7421 2.54604 15.079 2.0731 15.5881C1.60016 16.0973 1.31052 16.7496 1.25 17.4419C1.25 17.5293 1.25 17.6293 1.25 17.7292V35.6078C1.25 36.1048 1.44745 36.5815 1.7989 36.9329C2.15036 37.2844 2.62703 37.4818 3.12406 37.4818H36.8572C37.3542 37.4818 37.8309 37.2844 38.1824 36.9329C38.5338 36.5815 38.7313 36.1048 38.7313 35.6078V17.7292C38.7313 17.6293 38.7313 17.5293 38.7313 17.4294C38.6661 16.7434 38.3759 16.0981 37.9059 15.5942C37.4359 15.0903 36.8124 14.756 36.1325 14.6433ZM34.9331 11.8697C35.0051 11.708 35.1157 11.5666 35.2551 11.4576C35.3945 11.3487 35.5585 11.2757 35.7327 11.245H35.9139C36.0382 11.2428 36.1616 11.2661 36.2765 11.3134C36.3914 11.3606 36.4955 11.4309 36.5823 11.5198C36.6938 11.6284 36.7772 11.7625 36.8251 11.9105C36.873 12.0586 36.884 12.2161 36.8572 12.3694C36.8265 12.5436 36.7534 12.7077 36.6445 12.8471C36.5356 12.9865 36.3941 13.097 36.2325 13.169L33.7962 14.3122L34.9331 11.8697ZM3.12406 12.3694C3.09489 12.2176 3.10295 12.0611 3.14756 11.9131C3.19216 11.7651 3.27199 11.6302 3.38018 11.5198C3.46915 11.4285 3.57627 11.3569 3.69463 11.3096C3.81299 11.2622 3.93995 11.2402 4.06734 11.245H4.2485C4.42273 11.2757 4.58676 11.3487 4.72617 11.4576C4.86559 11.5666 4.97613 11.708 5.0481 11.8697L6.19128 14.3059L3.74875 13.169C3.58713 13.097 3.44565 12.9865 3.33673 12.8471C3.22781 12.7077 3.15478 12.5436 3.12406 12.3694ZM36.8572 36.2325H3.12406C2.95838 36.2325 2.79949 36.1667 2.68234 36.0495C2.56519 35.9324 2.49937 35.7735 2.49937 35.6078V18.1165H4.99813V19.3659H3.74875V20.6153H5.62281C5.78849 20.6153 5.94738 20.5495 6.06453 20.4323C6.18168 20.3152 6.2475 20.1563 6.2475 19.9906V18.3477C6.50173 18.483 6.72134 18.6752 6.88926 18.9092C7.05719 19.1432 7.16892 19.4128 7.21577 19.697L7.75924 23.114H6.01012L5.5541 22.2082C5.50219 22.1052 5.42276 22.0186 5.32463 21.9579C5.22649 21.8973 5.11348 21.865 4.99813 21.8647H3.74875V23.114H4.61082L5.06684 24.0198C5.11875 24.1228 5.19818 24.2095 5.29631 24.2701C5.39444 24.3308 5.50745 24.3631 5.62281 24.3634H7.95914L8.25899 26.2375H6.2475C6.13214 26.2378 6.01913 26.2701 5.921 26.3307C5.82286 26.3914 5.74344 26.478 5.69153 26.581L5.23551 27.4868H3.74875V28.7362H5.62281C5.73817 28.7359 5.85118 28.7036 5.94931 28.6429C6.04745 28.5823 6.12687 28.4957 6.17878 28.3926L6.63481 27.4868H8.45889L8.6463 28.6925C8.7226 29.1355 8.84616 29.569 9.01487 29.9856H7.49687C7.3312 29.9856 7.17231 30.0514 7.05515 30.1686C6.938 30.2857 6.87219 30.4446 6.87219 30.6103V32.4843H8.12156V31.235H9.69578C10.069 31.757 10.5248 32.2149 11.0451 32.5905L10.283 33.7337H9.37094V34.9831H10.6203C10.7232 34.9826 10.8244 34.9566 10.9148 34.9076C11.0053 34.8585 11.0822 34.7879 11.1388 34.702L12.1321 33.2152C12.6448 33.4432 13.1875 33.5968 13.7437 33.6713V34.9831H14.9931V33.7337C15.5726 33.696 16.1433 33.5718 16.686 33.3652L17.5981 34.7332C17.6581 34.8134 17.7366 34.8779 17.8268 34.9214C17.9171 34.9649 18.0164 34.9861 18.1166 34.9831H19.3659V33.7337H18.4539L17.8292 32.7779H17.8917C18.806 32.1599 19.5322 31.3018 19.9906 30.2979C20.4936 31.2924 21.2472 32.1386 22.177 32.753L21.5523 33.7337H20.6153V34.9831H21.8647C21.9676 34.9826 22.0687 34.9566 22.1592 34.9076C22.2496 34.8585 22.3266 34.7879 22.3832 34.702L23.3077 33.3214C23.8437 33.5432 24.4103 33.6823 24.9881 33.7337V34.9831H26.2375V33.6713C26.7931 33.5973 27.3356 33.4459 27.8492 33.2215L28.8424 34.702C28.899 34.7879 28.976 34.8585 29.0664 34.9076C29.1569 34.9566 29.258 34.9826 29.3609 34.9831H30.6103V33.7337H29.6983L28.9361 32.5968C29.0663 32.508 29.1915 32.4121 29.311 32.3094C29.6808 31.993 30.0103 31.6321 30.2917 31.235H31.8597V32.4843H33.1091V30.6103C33.1091 30.4446 33.0432 30.2857 32.9261 30.1686C32.8089 30.0514 32.6501 29.9856 32.4844 29.9856H30.9851C31.1521 29.5834 31.2756 29.1646 31.3537 28.7362L31.5411 27.4868H33.3464L33.8025 28.3926C33.8544 28.4957 33.9338 28.5823 34.0319 28.6429C34.1301 28.7036 34.2431 28.7359 34.3584 28.7362H36.2325V27.4868H34.7457L34.2897 26.581C34.2378 26.478 34.1584 26.3914 34.0603 26.3307C33.9621 26.2701 33.8491 26.2378 33.7337 26.2375H31.741L32.0346 24.3634H34.3584C34.4738 24.3631 34.5868 24.3308 34.6849 24.2701C34.7831 24.2095 34.8625 24.1228 34.9144 24.0198L35.3704 23.114H36.2325V21.8647H34.9831C34.8678 21.865 34.7548 21.8973 34.6566 21.9579C34.5585 22.0186 34.4791 22.1052 34.4272 22.2082L33.9711 23.114H32.2345L32.7717 19.697C32.817 19.4123 32.9274 19.1418 33.0942 18.9067C33.2611 18.6716 33.4799 18.4781 33.7337 18.3414V19.9906C33.7337 20.1563 33.7996 20.3152 33.9167 20.4323C34.0339 20.5495 34.1928 20.6153 34.3584 20.6153H36.2325V19.3659H34.9831V18.1165H37.4819V35.6078C37.4819 35.7735 37.4161 35.9324 37.2989 36.0495C37.1818 36.1667 37.0229 36.2325 36.8572 36.2325Z" fill="white"/>
<path d="M26.0059 2.49887H25.4812C23.8377 2.49861 22.2093 2.81242 20.6836 3.4234C20.2383 3.60074 19.7421 3.60074 19.2968 3.4234C17.7711 2.81242 16.1427 2.49861 14.4992 2.49887H13.9745C12.2181 2.47206 10.5153 3.10337 9.20087 4.26864C7.88648 5.43391 7.05563 7.04881 6.87176 8.79572C6.78071 9.87996 6.94843 10.9703 7.36113 11.9771C7.77382 12.9838 8.41969 13.8782 9.24557 14.5866L11.0572 28.0173C11.1129 28.8923 11.5011 29.7129 12.1422 30.311C12.7832 30.9091 13.6287 31.2395 14.5054 31.2345C14.8838 31.2327 15.2593 31.1694 15.6174 31.0471C16.1595 30.8405 16.6401 30.4992 17.0139 30.0555C17.3877 29.6118 17.6423 29.0802 17.7538 28.5109L19.8653 18.8407C19.8737 18.8142 19.8904 18.7911 19.9129 18.7747C19.9353 18.7583 19.9624 18.7495 19.9902 18.7495C20.018 18.7495 20.0451 18.7583 20.0675 18.7747C20.09 18.7911 20.1067 18.8142 20.1151 18.8407L22.2078 28.5109C22.3211 29.0822 22.5786 29.6152 22.9558 30.0591C23.333 30.503 23.8174 30.8431 24.363 31.0471C24.727 31.1714 25.1091 31.2347 25.4937 31.2345C26.3588 31.2352 27.1922 30.9083 27.8261 30.3196C28.4601 29.7309 28.8476 28.9239 28.9107 28.0611L30.7286 14.5866C31.5556 13.8788 32.2026 12.9847 32.6164 11.978C33.0302 10.9712 33.1989 9.88048 33.1086 8.79572C32.9248 7.04881 32.0939 5.43391 30.7795 4.26864C29.4651 3.10337 27.7623 2.47206 26.0059 2.49887ZM29.7541 13.7432C29.6297 13.8447 29.5492 13.9901 29.5292 14.1493L27.6551 27.8924C27.6295 28.4543 27.3889 28.9848 26.9831 29.3743C26.5773 29.7638 26.0374 29.9825 25.475 29.9851C25.2308 29.9832 24.9884 29.9432 24.7566 29.8664C24.4161 29.7311 24.1155 29.5118 23.8829 29.2289C23.6502 28.9459 23.493 28.6086 23.426 28.2485L21.3333 18.5846C21.2667 18.2778 21.0972 18.0031 20.8529 17.8061C20.6085 17.609 20.3041 17.5016 19.9902 17.5016C19.6763 17.5016 19.3719 17.609 19.1275 17.8061C18.8832 18.0031 18.7137 18.2778 18.6471 18.5846L16.5544 28.2485C16.4874 28.6086 16.3302 28.9459 16.0975 29.2289C15.8649 29.5118 15.5643 29.7311 15.2238 29.8664C14.992 29.9432 14.7496 29.9832 14.5054 29.9851C13.9434 29.981 13.4044 29.7618 12.9989 29.3726C12.5935 28.9834 12.3524 28.4538 12.3253 27.8924L10.4512 14.1493C10.4312 13.9901 10.3507 13.8447 10.2263 13.7432C9.505 13.1697 8.93573 12.4275 8.56863 11.5822C8.20153 10.7369 8.04786 9.81433 8.12113 8.89567C8.27836 7.46195 8.96609 6.13886 10.0492 5.18639C11.1323 4.23392 12.5324 3.72094 13.9745 3.74824H14.4992C15.9819 3.74718 17.4513 4.02917 18.8283 4.57908C19.5741 4.87796 20.4063 4.87796 21.1521 4.57908C22.5291 4.02917 23.9984 3.74718 25.4812 3.74824H26.0059C27.448 3.72094 28.8481 4.23392 29.9312 5.18639C31.0143 6.13886 31.702 7.46195 31.8593 8.89567C31.9296 9.81648 31.7721 10.7405 31.4006 11.5859C31.029 12.4314 30.455 13.1723 29.7291 13.7432H29.7541Z" fill="white"/>
</g>
</g>
<defs>
<clipPath id="clip0_1_1335">
<rect width="39.98" height="39.98" fill="white"/>
</clipPath>
<clipPath id="clip1_1_1335">
<rect width="39.98" height="39.98" fill="white"/>
</clipPath>
</defs>
</svg>
