<svg width="34" height="40" viewBox="0 0 34 40" fill="none" xmlns="http://www.w3.org/2000/svg">
<g clip-path="url(#clip0_1_1461)">
<g clip-path="url(#clip1_1_1461)">
<g clip-path="url(#clip2_1_1461)">
<mask id="mask0_1_1461" style="mask-type:luminance" maskUnits="userSpaceOnUse" x="0" y="0" width="34" height="40">
<path d="M33.89 0.00341797H0V39.9762H33.89V0.00341797Z" fill="white"/>
</mask>
<g mask="url(#mask0_1_1461)">
<path d="M-0.578125 10.1273C-0.542497 9.9379 -0.512083 9.74847 -0.471241 9.5599C-0.303087 8.72666 0.175232 7.98837 0.866979 7.49435C1.22326 7.23366 1.5891 6.99381 1.95841 6.75572C2.0207 6.70364 2.09329 6.66532 2.17143 6.64326C2.24956 6.6212 2.33148 6.6159 2.41181 6.62772C2.49213 6.63953 2.56905 6.66819 2.63753 6.71181C2.706 6.75544 2.76448 6.81304 2.80914 6.88085C2.85257 6.94585 2.88203 7.01916 2.89567 7.09613C2.90931 7.17311 2.90682 7.25207 2.88836 7.32804C2.8699 7.404 2.83587 7.4753 2.78843 7.53744C2.74099 7.59957 2.68117 7.65118 2.61275 7.689C2.29818 7.9158 1.96797 8.12349 1.64993 8.3416C1.38827 8.50542 1.16319 8.72142 0.988736 8.9761C0.814281 9.23079 0.694196 9.51871 0.635976 9.82188C0.577756 10.125 0.58265 10.437 0.650354 10.7382C0.718058 11.0393 0.847118 11.3234 1.02948 11.5724C1.69569 12.5787 2.37031 13.5743 3.05332 14.5591C3.15207 14.6815 3.2944 14.761 3.45044 14.7807C4.89138 14.9045 6.25464 15.4872 7.33997 16.443C7.76577 16.8193 8.17158 17.2199 8.57304 17.6222C8.7051 17.7298 8.80459 17.872 8.86037 18.0329C8.91614 18.1938 8.926 18.367 8.88882 18.5332C8.85165 18.6994 8.76892 18.852 8.64991 18.9738C8.5309 19.0956 8.38031 19.1819 8.21503 19.2229C6.9637 19.6704 5.70369 20.0919 4.44802 20.5264C4.3281 20.5681 4.21079 20.6133 4.06567 20.6697C4.15865 21.0095 4.23426 21.3336 4.33679 21.6499C4.45577 21.9995 4.49673 22.3708 4.4568 22.7379C4.41686 23.105 4.297 23.4588 4.10565 23.7746C3.71722 24.4593 3.35485 25.1597 2.98901 25.8601C2.65145 26.4604 2.47377 27.1374 2.47304 27.8261C2.4723 28.5148 2.64852 29.1922 2.98481 29.7932C3.32109 30.3943 3.80615 30.8988 4.39348 31.2585C4.98081 31.6182 5.6507 31.821 6.33891 31.8474C6.76297 31.8778 6.99412 32.108 6.96718 32.4687C6.94111 32.8163 6.67173 33.0126 6.24246 32.9901C5.39085 32.945 4.56355 32.6903 3.83406 32.2486C3.10457 31.8069 2.49546 31.1918 2.06084 30.4581C1.62622 29.7244 1.37955 28.8946 1.34273 28.0426C1.30591 27.1906 1.48009 26.3427 1.84979 25.5742C2.22345 24.8087 2.63187 24.0596 3.05506 23.3201C3.19037 23.1073 3.27493 22.8662 3.3022 22.6155C3.32947 22.3647 3.29873 22.1111 3.21234 21.8741C3.15394 21.7304 3.11055 21.581 3.08286 21.4283C3.07322 21.2782 3.01139 21.1362 2.90808 21.0269C2.80477 20.9175 2.66649 20.8478 2.51716 20.8296C2.27514 20.7583 2.05105 20.6364 1.85973 20.4719C1.66841 20.3074 1.51423 20.1041 1.40742 19.8755C1.3006 19.6469 1.24359 19.3983 1.24015 19.146C1.23672 18.8937 1.28694 18.6435 1.3875 18.4121C1.46034 18.2942 1.48764 18.1538 1.46428 18.0171C1.44093 17.8805 1.36851 17.7571 1.26062 17.67C1.04192 17.4746 0.877948 17.2255 0.784871 16.9473C0.691795 16.6691 0.672832 16.3715 0.729852 16.0838C0.786872 15.796 0.917905 15.5281 1.11003 15.3065C1.30216 15.0848 1.54874 14.9171 1.82546 14.8198C1.65166 14.5591 1.47787 14.2923 1.30407 14.0316C0.972125 13.5389 0.656688 13.0332 0.302146 12.5544C-0.180739 11.915 -0.484581 11.1586 -0.578125 10.3628L-0.578125 10.1273ZM6.50489 17.2408C6.51966 17.2538 6.52053 17.2842 6.50489 17.2408C5.92493 16.7465 5.25009 16.3759 4.52178 16.1517C3.79346 15.9276 3.02703 15.8546 2.2695 15.9373C2.18446 15.9427 2.10257 15.9715 2.03284 16.0205C1.96311 16.0695 1.90825 16.1368 1.87429 16.2149C1.84033 16.2931 1.8286 16.3791 1.84037 16.4635C1.85215 16.5479 1.88698 16.6274 1.94103 16.6933C2.30253 17.2868 2.42331 17.3398 3.12284 17.2329C3.26219 17.2071 3.40345 17.1928 3.54516 17.1904C4.54013 17.2051 5.53511 17.2251 6.50749 17.2434M6.52922 18.5946C5.30499 18.2571 4.01992 18.2033 2.77177 18.4373C2.72144 18.443 2.67319 18.4606 2.631 18.4886C2.53117 18.6042 2.46173 18.7428 2.42896 18.8919C2.39618 19.0411 2.40111 19.196 2.4433 19.3428C2.4693 19.4237 2.51175 19.4983 2.56798 19.562C2.62421 19.6257 2.69301 19.6771 2.77005 19.7129C2.84708 19.7487 2.9307 19.7682 3.01564 19.7702C3.10058 19.7722 3.185 19.7565 3.26361 19.7243C3.74068 19.5696 4.21253 19.3976 4.68612 19.2325L6.52922 18.5929" fill="white"/>
<path d="M6.50489 17.2408C6.51966 17.2538 6.52053 17.2842 6.50489 17.2408ZM6.50489 17.2408C5.92493 16.7465 5.2501 16.3759 4.52178 16.1517C3.79346 15.9276 3.02703 15.8546 2.2695 15.9373C2.18446 15.9427 2.10257 15.9715 2.03284 16.0205C1.96311 16.0695 1.90825 16.1368 1.87429 16.2149C1.84033 16.2931 1.8286 16.3791 1.84037 16.4635C1.85215 16.5479 1.88698 16.6274 1.94103 16.6933C2.30253 17.2868 2.42331 17.3398 3.12284 17.2329C3.26219 17.2071 3.40345 17.1928 3.54516 17.1904C4.54013 17.2051 5.53511 17.2251 6.50749 17.2434M6.52922 18.5946C5.30499 18.2571 4.01992 18.2033 2.77177 18.4373C2.72144 18.443 2.67319 18.4606 2.631 18.4886C2.53117 18.6042 2.46173 18.7428 2.42896 18.8919C2.39618 19.0411 2.40111 19.196 2.4433 19.3428C2.4693 19.4237 2.51175 19.4983 2.56798 19.562C2.62421 19.6257 2.69301 19.6771 2.77005 19.7129C2.84708 19.7487 2.9307 19.7682 3.01564 19.7702C3.10058 19.7722 3.185 19.7565 3.26361 19.7243C3.74068 19.5696 4.21253 19.3976 4.68612 19.2325L6.52922 18.5929M-0.578125 10.1273C-0.542497 9.9379 -0.512083 9.74847 -0.471241 9.5599C-0.303087 8.72666 0.175232 7.98837 0.866979 7.49435C1.22326 7.23366 1.5891 6.99381 1.95841 6.75572C2.0207 6.70364 2.09329 6.66532 2.17143 6.64326C2.24956 6.6212 2.33148 6.6159 2.41181 6.62772C2.49213 6.63953 2.56905 6.66819 2.63753 6.71181C2.706 6.75544 2.76448 6.81304 2.80914 6.88085C2.85257 6.94585 2.88203 7.01916 2.89567 7.09613C2.90931 7.17311 2.90682 7.25207 2.88836 7.32804C2.8699 7.404 2.83587 7.4753 2.78843 7.53744C2.74099 7.59957 2.68117 7.65118 2.61275 7.689C2.29818 7.9158 1.96797 8.12349 1.64993 8.3416C1.38827 8.50542 1.16319 8.72142 0.988736 8.9761C0.814281 9.23079 0.694196 9.51871 0.635976 9.82188C0.577756 10.125 0.58265 10.437 0.650354 10.7382C0.718058 11.0393 0.847118 11.3234 1.02948 11.5724C1.69569 12.5787 2.3703 13.5743 3.05332 14.5591C3.15207 14.6815 3.2944 14.761 3.45044 14.7807C4.89138 14.9045 6.25464 15.4872 7.33997 16.443C7.76577 16.8193 8.17158 17.2199 8.57304 17.6222C8.7051 17.7298 8.80459 17.872 8.86037 18.0329C8.91614 18.1938 8.926 18.367 8.88882 18.5332C8.85165 18.6994 8.76892 18.852 8.64991 18.9738C8.5309 19.0956 8.38031 19.1819 8.21503 19.2229C6.9637 19.6704 5.70369 20.0919 4.44802 20.5264C4.3281 20.5681 4.21079 20.6133 4.06567 20.6697C4.15865 21.0095 4.23426 21.3336 4.33679 21.6499C4.45577 21.9995 4.49673 22.3708 4.4568 22.7379C4.41686 23.105 4.297 23.4588 4.10565 23.7746C3.71722 24.4593 3.35485 25.1597 2.98901 25.8601C2.65145 26.4604 2.47377 27.1374 2.47304 27.8261C2.4723 28.5148 2.64852 29.1922 2.98481 29.7932C3.32109 30.3943 3.80615 30.8988 4.39348 31.2585C4.98081 31.6182 5.6507 31.821 6.33891 31.8474C6.76297 31.8778 6.99412 32.108 6.96718 32.4687C6.94111 32.8163 6.67173 33.0126 6.24245 32.9901C5.39085 32.945 4.56355 32.6903 3.83406 32.2486C3.10457 31.8069 2.49546 31.1918 2.06084 30.4581C1.62622 29.7244 1.37955 28.8946 1.34273 28.0426C1.30591 27.1906 1.48009 26.3427 1.84979 25.5742C2.22345 24.8087 2.63187 24.0596 3.05506 23.3201C3.19037 23.1073 3.27493 22.8662 3.3022 22.6155C3.32947 22.3647 3.29873 22.1111 3.21234 21.8741C3.15394 21.7304 3.11055 21.581 3.08286 21.4283C3.07322 21.2782 3.01139 21.1362 2.90808 21.0269C2.80477 20.9175 2.66649 20.8478 2.51716 20.8296C2.27514 20.7583 2.05105 20.6364 1.85973 20.4719C1.66841 20.3074 1.51423 20.1041 1.40742 19.8755C1.3006 19.6469 1.24359 19.3983 1.24015 19.146C1.23672 18.8937 1.28694 18.6435 1.3875 18.4121C1.46034 18.2942 1.48764 18.1538 1.46428 18.0171C1.44093 17.8805 1.36851 17.7571 1.26062 17.67C1.04192 17.4746 0.877948 17.2255 0.784871 16.9473C0.691795 16.6691 0.672832 16.3715 0.729852 16.0838C0.786872 15.796 0.917905 15.5281 1.11003 15.3065C1.30216 15.0848 1.54874 14.9171 1.82546 14.8198C1.65166 14.5591 1.47787 14.2923 1.30407 14.0316C0.972125 13.5389 0.656688 13.0332 0.302146 12.5544C-0.180739 11.915 -0.484581 11.1586 -0.578125 10.3628L-0.578125 10.1273Z" stroke="#919697" stroke-width="0.260692"/>
<path d="M19.6726 39.9978C19.515 39.7753 19.3838 39.5353 19.2815 39.2826C19.0556 38.4753 18.9 37.648 18.6663 36.8425C18.2556 35.4462 17.4845 34.1826 16.4304 33.1789C16.0411 32.8001 15.6327 32.4412 15.2538 32.0493C15.1768 31.9644 15.0786 31.9014 14.9693 31.8667C14.86 31.8321 14.7435 31.827 14.6316 31.852C12.792 32.1266 10.9515 32.3916 9.11104 32.6636C8.63137 32.7349 8.32897 32.5767 8.27335 32.2083C8.21774 31.8398 8.46453 31.6 8.94072 31.5322C10.066 31.3723 11.2001 31.2524 12.3115 31.0273C13.1388 30.829 13.9548 30.5862 14.7559 30.3C14.8932 30.2266 15.051 30.2009 15.2045 30.2268C15.3579 30.2528 15.4985 30.329 15.604 30.4434C15.6422 30.4736 15.6862 30.4958 15.7333 30.5085C15.7803 30.5212 15.8295 30.5242 15.8777 30.5172C16.1975 30.4816 16.5156 30.4234 16.8006 30.3791C16.7667 30.1384 16.6459 29.8742 16.725 29.6987C16.8604 29.4881 17.051 29.3186 17.2759 29.2086C17.7799 28.8958 18.3022 28.6116 18.8157 28.3127C19.1877 28.0954 19.5161 28.1319 19.7047 28.4178C19.9046 28.7202 19.8029 29.0487 19.4153 29.2868C18.9339 29.584 18.4438 29.8681 17.9685 30.2114L20.0323 29.9116C21.3488 29.7213 22.667 29.5379 23.9818 29.3407C24.5763 29.273 25.1387 29.035 25.6011 28.6553C26.0636 28.2756 26.4066 27.7704 26.5887 27.2004C27.197 25.5554 27.8305 23.9165 28.4527 22.2759C28.4892 22.1794 28.5257 22.0821 28.5691 21.9891C28.5923 21.9141 28.6308 21.8446 28.6821 21.7851C28.7335 21.7256 28.7965 21.6773 28.8674 21.6434C28.9383 21.6094 29.0154 21.5905 29.094 21.5877C29.1725 21.585 29.2507 21.5985 29.3238 21.6275C29.3969 21.6565 29.4631 21.7002 29.5185 21.756C29.5738 21.8118 29.617 21.8785 29.6454 21.9517C29.6737 22.025 29.6866 22.1034 29.6833 22.1819C29.6799 22.2604 29.6603 22.3374 29.6258 22.408C29.1991 23.5576 28.7612 24.7029 28.3275 25.8491C28.1268 26.3801 27.9148 26.9075 27.7271 27.4428C27.4618 28.2945 26.9444 29.0456 26.2433 29.5972C25.5422 30.1487 24.6904 30.4747 23.8002 30.532C21.4183 30.8379 19.0443 31.2107 16.6668 31.5557C16.6073 31.5705 16.5492 31.5903 16.493 31.6148C16.5275 31.6703 16.5674 31.7224 16.612 31.7703C18.5471 33.4262 19.8213 35.7233 20.2018 38.2416C20.2467 38.5223 20.3096 38.7997 20.3903 39.0723C20.4668 39.239 20.4743 39.4292 20.4111 39.6014C20.3479 39.7736 20.2193 39.9139 20.0532 39.9917L19.6726 39.9978Z" fill="white" stroke="#919697" stroke-width="0.260692"/>
<path d="M33.0905 13.3102L30.6165 19.8162C30.5844 19.9031 30.5592 19.99 30.5209 20.07C30.4673 20.2116 30.3597 20.3261 30.2217 20.3884C30.0836 20.4506 29.9265 20.4555 29.7849 20.4019C29.6433 20.3483 29.5288 20.2407 29.4665 20.1026C29.4043 19.9646 29.3994 19.8075 29.453 19.6659C29.512 19.4686 29.5981 19.2801 29.6711 19.0863C30.401 17.1572 31.124 15.2245 31.8722 13.3024C31.9659 13.0715 32.1333 12.8781 32.3484 12.7523C32.6308 12.602 32.875 12.7932 33.0914 13.2337L33.0905 13.3102Z" fill="white" stroke="#919697" stroke-width="0.260692"/>
<path d="M6.7925 0.275879C6.93207 0.344869 7.04624 0.456248 7.11867 0.594073C7.19109 0.731897 7.21806 0.889102 7.1957 1.04318C7.15921 1.80354 7.207 2.57258 7.10881 3.32337C7.04059 3.79248 6.87471 4.24205 6.6219 4.64305C6.36908 5.04405 6.03496 5.38755 5.64111 5.65135C5.33871 5.87149 5.02819 6.08063 4.70957 6.27875C4.64753 6.325 4.57674 6.35813 4.50149 6.37612C4.42624 6.39412 4.34812 6.39662 4.27187 6.38345C4.19563 6.37028 4.12286 6.34173 4.05801 6.29954C3.99315 6.25735 3.93757 6.20239 3.89464 6.13802C3.8517 6.07365 3.82232 6.00122 3.80829 5.92513C3.79425 5.84904 3.79585 5.7709 3.81299 5.69545C3.83013 5.62 3.86245 5.54882 3.90798 5.48627C3.95351 5.42371 4.0113 5.37108 4.07783 5.33157C4.36024 5.12649 4.6583 4.94488 4.94072 4.74067C5.26901 4.51888 5.53941 4.22169 5.7293 3.87397C5.91918 3.52625 6.02303 3.13811 6.03215 2.74203C6.05184 2.19979 6.05503 1.65726 6.04171 1.11444C6.02048 0.95495 6.04298 0.792691 6.1068 0.644996C6.17063 0.497301 6.27337 0.369719 6.40407 0.275879L6.7925 0.275879Z" fill="white" stroke="#919697" stroke-width="0.260692"/>
<path d="M8.9093 11.4701C8.94221 11.9032 8.84696 12.3364 8.63543 12.7157C8.42389 13.0951 8.10541 13.4038 7.71967 13.6034C7.36065 13.8034 6.95054 13.8929 6.54085 13.8606C6.13115 13.8283 5.74013 13.6756 5.41689 13.4218C5.0919 13.1889 4.79384 12.9187 4.48014 12.6693C4.41871 12.5969 4.34197 12.539 4.25545 12.4998C4.16892 12.4607 4.07479 12.4413 3.97984 12.4429C3.88489 12.4446 3.79149 12.4673 3.70639 12.5095C3.6213 12.5516 3.54662 12.6121 3.48777 12.6867C3.17146 12.9639 2.87427 12.9813 2.63009 12.7379C2.38591 12.4946 2.40329 12.1627 2.70048 11.8472C2.99572 11.5331 3.39643 11.3388 3.82595 11.3016C4.25546 11.2644 4.68361 11.3869 5.02846 11.6456C5.36215 11.889 5.67063 12.167 5.9965 12.4208C6.18281 12.5943 6.42585 12.6942 6.68036 12.7019C6.93486 12.7096 7.18348 12.6245 7.37991 12.4625C7.57624 12.2997 7.70563 12.0703 7.74331 11.8181C7.78099 11.5659 7.72431 11.3086 7.58412 11.0956C7.35297 10.6611 7.10618 10.2388 6.87503 9.80603C6.82428 9.73933 6.7883 9.66259 6.76947 9.58092C6.75065 9.49925 6.74942 9.41451 6.76585 9.33233C6.78229 9.25014 6.81602 9.17239 6.86481 9.10424C6.9136 9.03609 6.97632 8.9791 7.04883 8.93705C7.35557 8.77282 7.66667 8.891 7.87957 9.26466C8.13505 9.71305 8.40095 10.1562 8.62515 10.622C8.74091 10.8981 8.83589 11.1825 8.9093 11.4727" fill="white"/>
<path d="M8.9093 11.4701C8.94221 11.9032 8.84696 12.3364 8.63543 12.7157C8.42389 13.0951 8.10541 13.4038 7.71967 13.6034C7.36065 13.8034 6.95054 13.8929 6.54085 13.8606C6.13115 13.8283 5.74013 13.6756 5.41689 13.4218C5.0919 13.1889 4.79384 12.9187 4.48014 12.6693C4.41871 12.5969 4.34197 12.539 4.25545 12.4998C4.16892 12.4607 4.07479 12.4413 3.97984 12.4429C3.88489 12.4446 3.79149 12.4673 3.70639 12.5095C3.6213 12.5516 3.54662 12.6121 3.48777 12.6867C3.17146 12.9639 2.87427 12.9813 2.63009 12.7379C2.38591 12.4946 2.40329 12.1627 2.70048 11.8472C2.99572 11.5331 3.39643 11.3388 3.82595 11.3016C4.25546 11.2644 4.68361 11.3869 5.02846 11.6456C5.36215 11.889 5.67063 12.167 5.9965 12.4208C6.18281 12.5943 6.42585 12.6942 6.68036 12.7019C6.93486 12.7096 7.18348 12.6245 7.37991 12.4625C7.57624 12.2997 7.70563 12.0703 7.74331 11.8181C7.78099 11.5659 7.72431 11.3086 7.58412 11.0956C7.35297 10.6611 7.10618 10.2388 6.87503 9.80603C6.82428 9.73933 6.7883 9.66259 6.76947 9.58092C6.75065 9.49925 6.74942 9.41451 6.76585 9.33233C6.78229 9.25014 6.81602 9.17239 6.86481 9.10424C6.9136 9.03609 6.97632 8.9791 7.04883 8.93705C7.35557 8.77282 7.66667 8.891 7.87957 9.26466C8.13505 9.71305 8.40095 10.1562 8.62515 10.622C8.74091 10.8981 8.83589 11.1825 8.9093 11.4727" stroke="#919697" stroke-width="0.260692"/>
<path d="M17.6504 23.229C17.8781 23.7148 18.0918 24.1641 18.2995 24.6194C18.495 25.0443 18.4212 25.3537 18.0953 25.5136C17.7695 25.6735 17.4679 25.5275 17.2689 25.1147C17.0499 24.662 16.8344 24.2066 16.6042 23.7174C16.5488 23.8276 16.4879 23.9349 16.4217 24.0389C16.3572 24.1531 16.2527 24.2395 16.1284 24.2813C16.0041 24.3232 15.8687 24.3176 15.7482 24.2657C15.6848 24.2498 15.6252 24.2212 15.5731 24.1816C15.5209 24.1421 15.4773 24.0924 15.4449 24.0356C15.4124 23.9788 15.3917 23.916 15.3841 23.8511C15.3765 23.7861 15.3822 23.7202 15.4006 23.6574C15.596 23.0577 15.8255 22.4696 16.088 21.896C16.2105 21.6293 16.5034 21.6154 16.7727 21.6997C17.2402 21.8474 17.7069 21.996 18.17 22.1567C18.5602 22.2923 18.7253 22.5686 18.6271 22.8849C18.5289 23.2012 18.2639 23.3325 17.8511 23.2534C17.8025 23.2438 17.7529 23.2429 17.6539 23.2334" fill="white"/>
<path d="M17.6504 23.229C17.8781 23.7148 18.0918 24.1641 18.2995 24.6194C18.495 25.0443 18.4212 25.3537 18.0953 25.5136C17.7695 25.6735 17.4679 25.5275 17.2689 25.1147C17.0499 24.662 16.8344 24.2066 16.6042 23.7174C16.5488 23.8276 16.4879 23.9349 16.4217 24.0389C16.3572 24.1531 16.2527 24.2395 16.1284 24.2813C16.0041 24.3232 15.8687 24.3176 15.7482 24.2657C15.6848 24.2498 15.6252 24.2212 15.5731 24.1816C15.5209 24.1421 15.4773 24.0924 15.4449 24.0356C15.4124 23.9788 15.3917 23.916 15.3841 23.8511C15.3765 23.7861 15.3822 23.7202 15.4006 23.6574C15.596 23.0577 15.8255 22.4696 16.088 21.896C16.2105 21.6293 16.5034 21.6154 16.7727 21.6997C17.2402 21.8474 17.7069 21.996 18.17 22.1567C18.5602 22.2923 18.7253 22.5686 18.6271 22.8849C18.5289 23.2012 18.2639 23.3325 17.8511 23.2534C17.8025 23.2438 17.7529 23.2429 17.6539 23.2334" stroke="#919697" stroke-width="0.260692"/>
<path d="M23.1592 16.1326C23.1332 16.3012 23.1236 16.3933 23.1062 16.4802C23.1001 16.5517 23.0794 16.6213 23.0455 16.6845C23.0115 16.7478 22.965 16.8035 22.9088 16.8481C22.8526 16.8928 22.7878 16.9255 22.7185 16.9443C22.6492 16.963 22.5768 16.9675 22.5057 16.9573C22.4374 16.9579 22.3697 16.9447 22.3066 16.9186C22.2434 16.8926 22.1862 16.8541 22.1382 16.8054C22.0902 16.7568 22.0525 16.699 22.0273 16.6356C22.002 16.5721 21.9898 16.5042 21.9913 16.4359C21.9722 15.8815 21.9687 15.3262 21.9766 14.7709C21.9818 14.3894 22.2312 14.2252 22.5805 14.1965C23.0567 14.1577 23.5332 14.1267 24.0099 14.1035C24.4253 14.0835 24.6782 14.2669 24.7173 14.598C24.759 14.9525 24.5504 15.1802 24.1177 15.2523L23.9326 15.281L24.8146 16.11C24.9371 16.2247 25.064 16.3351 25.1778 16.4576C25.2851 16.562 25.3477 16.7039 25.3524 16.8535C25.3571 17.0031 25.3035 17.1487 25.203 17.2596C25.1525 17.3146 25.0915 17.3589 25.0236 17.39C24.9556 17.421 24.8822 17.4381 24.8076 17.4404C24.7329 17.4427 24.6586 17.43 24.5889 17.4031C24.5192 17.3763 24.4556 17.3358 24.4018 17.284C23.9952 16.9294 23.6067 16.554 23.1583 16.1395" fill="white"/>
<path d="M23.1592 16.1326C23.1332 16.3012 23.1236 16.3933 23.1062 16.4802C23.1001 16.5517 23.0794 16.6213 23.0455 16.6845C23.0115 16.7478 22.965 16.8035 22.9088 16.8481C22.8526 16.8928 22.7878 16.9255 22.7185 16.9443C22.6492 16.963 22.5768 16.9675 22.5057 16.9573C22.4374 16.9579 22.3697 16.9447 22.3066 16.9186C22.2434 16.8926 22.1862 16.8541 22.1382 16.8054C22.0902 16.7568 22.0525 16.699 22.0273 16.6356C22.002 16.5721 21.9898 16.5042 21.9913 16.4359C21.9722 15.8815 21.9687 15.3262 21.9766 14.7709C21.9818 14.3894 22.2312 14.2252 22.5805 14.1965C23.0567 14.1577 23.5332 14.1267 24.0099 14.1035C24.4253 14.0835 24.6782 14.2669 24.7173 14.598C24.759 14.9525 24.5504 15.1802 24.1177 15.2523L23.9326 15.281L24.8146 16.11C24.9371 16.2247 25.064 16.3351 25.1778 16.4576C25.2851 16.562 25.3477 16.7039 25.3524 16.8535C25.3571 17.0031 25.3035 17.1487 25.203 17.2596C25.1525 17.3146 25.0915 17.3589 25.0236 17.3899C24.9556 17.421 24.8822 17.4381 24.8076 17.4404C24.7329 17.4427 24.6586 17.43 24.5889 17.4031C24.5192 17.3763 24.4556 17.3358 24.4018 17.284C23.9952 16.9294 23.6067 16.554 23.1583 16.1395" stroke="#919697" stroke-width="0.260692"/>
<path d="M29.4274 13.835C29.2605 14.6171 29.1067 15.3992 28.9199 16.1734C28.906 16.2445 28.8771 16.3117 28.8351 16.3706C28.7931 16.4296 28.7389 16.4788 28.6762 16.515C28.6136 16.5513 28.5439 16.5736 28.4718 16.5807C28.3998 16.5877 28.3271 16.5792 28.2586 16.5558C28.187 16.5456 28.1183 16.5206 28.0569 16.4825C27.9955 16.4443 27.9426 16.3938 27.9018 16.3342C27.8609 16.2745 27.8329 16.207 27.8195 16.136C27.8062 16.0649 27.8077 15.9918 27.8241 15.9214C27.9579 15.1611 28.1135 14.4042 28.2708 13.6482C28.2802 13.577 28.304 13.5085 28.3407 13.4468C28.3775 13.3851 28.4264 13.3316 28.4846 13.2894C28.5427 13.2473 28.6089 13.2175 28.6789 13.2018C28.749 13.1861 28.8215 13.1848 28.8921 13.198C29.2084 13.2259 29.39 13.4709 29.4239 13.835" fill="white"/>
<path d="M29.4274 13.835C29.2605 14.6171 29.1067 15.3992 28.9199 16.1734C28.906 16.2445 28.8771 16.3117 28.8351 16.3706C28.7931 16.4296 28.7389 16.4788 28.6762 16.515C28.6136 16.5513 28.5439 16.5736 28.4718 16.5807C28.3998 16.5877 28.3271 16.5792 28.2586 16.5558C28.187 16.5456 28.1183 16.5206 28.0569 16.4825C27.9955 16.4443 27.9426 16.3938 27.9018 16.3342C27.8609 16.2745 27.8329 16.207 27.8195 16.136C27.8062 16.0649 27.8077 15.9918 27.8241 15.9214C27.9579 15.1611 28.1135 14.4042 28.2708 13.6482C28.2802 13.577 28.304 13.5085 28.3407 13.4468C28.3775 13.3851 28.4264 13.3316 28.4846 13.2894C28.5427 13.2473 28.6089 13.2175 28.6789 13.2018C28.749 13.1861 28.8215 13.1848 28.8921 13.198C29.2084 13.2259 29.39 13.4709 29.4239 13.835" stroke="#919697" stroke-width="0.260692"/>
<path d="M21.0194 28.0024C20.8934 27.8989 20.6622 27.7955 20.5962 27.6278C20.562 27.53 20.5509 27.4255 20.5639 27.3227C20.5768 27.2199 20.6135 27.1215 20.6709 27.0352C21.2462 26.4634 21.8553 25.9246 22.4723 25.3972C22.5726 25.3108 22.703 25.2677 22.8351 25.2772C22.9671 25.2866 23.09 25.3479 23.177 25.4476C23.2304 25.486 23.2753 25.535 23.3088 25.5915C23.3424 25.6481 23.364 25.7109 23.3721 25.7762C23.3803 25.8414 23.3749 25.9077 23.3563 25.9708C23.3376 26.0338 23.3062 26.0924 23.2639 26.1427C22.6409 26.751 21.9744 27.3237 21.32 27.9033C21.2679 27.9493 21.1767 27.952 21.015 28.0024" fill="white"/>
<path d="M21.0194 28.0024C20.8934 27.8989 20.6622 27.7955 20.5962 27.6278C20.562 27.53 20.5509 27.4255 20.5639 27.3227C20.5768 27.2199 20.6135 27.1215 20.6709 27.0352C21.2462 26.4634 21.8553 25.9246 22.4723 25.3972C22.5726 25.3108 22.703 25.2677 22.8351 25.2772C22.9671 25.2866 23.09 25.3479 23.177 25.4476C23.2304 25.486 23.2753 25.535 23.3088 25.5915C23.3424 25.6481 23.364 25.7109 23.3721 25.7762C23.3803 25.8414 23.3749 25.9077 23.3563 25.9708C23.3376 26.0338 23.3062 26.0924 23.2639 26.1427C22.6409 26.751 21.9744 27.3237 21.32 27.9033C21.2679 27.9493 21.1767 27.952 21.015 28.0024" stroke="#919697" stroke-width="0.260692"/>
<path d="M26.2853 22.2002C26.2364 22.3615 26.172 22.5178 26.0933 22.6668C25.6805 23.2577 25.2643 23.8469 24.8307 24.423C24.7901 24.4972 24.7336 24.5615 24.6653 24.6113C24.597 24.6611 24.5186 24.6953 24.4356 24.7113C24.3526 24.7273 24.2671 24.7248 24.1852 24.704C24.1033 24.6831 24.0269 24.6445 23.9617 24.5908C23.9008 24.5379 23.8514 24.4732 23.8164 24.4006C23.7814 24.328 23.7616 24.249 23.7582 24.1685C23.7548 24.088 23.7679 24.0076 23.7966 23.9323C23.8253 23.857 23.869 23.7883 23.9252 23.7305L25.1635 22.0038C25.222 21.8863 25.3236 21.7959 25.4471 21.7514C25.5706 21.7069 25.7065 21.7117 25.8265 21.7648C26.0004 21.8858 26.1551 22.0322 26.2853 22.1993" fill="white"/>
<path d="M26.2853 22.2002C26.2364 22.3615 26.172 22.5178 26.0933 22.6668C25.6805 23.2577 25.2643 23.8469 24.8307 24.423C24.7901 24.4972 24.7336 24.5615 24.6653 24.6113C24.597 24.6611 24.5186 24.6953 24.4356 24.7113C24.3526 24.7273 24.2671 24.7248 24.1852 24.704C24.1033 24.6831 24.0269 24.6445 23.9617 24.5908C23.9008 24.5379 23.8514 24.4732 23.8164 24.4006C23.7814 24.328 23.7616 24.249 23.7582 24.1685C23.7548 24.088 23.7679 24.0076 23.7966 23.9323C23.8253 23.857 23.869 23.7883 23.9252 23.7305L25.1635 22.0038C25.222 21.8863 25.3236 21.7959 25.4471 21.7514C25.5706 21.7069 25.7065 21.7117 25.8265 21.7648C26.0004 21.8858 26.1551 22.0322 26.2853 22.1993" stroke="#919697" stroke-width="0.260692"/>
<path d="M28.2875 18.1976C28.2645 18.2972 28.2355 18.3953 28.2006 18.4913C27.9225 19.1413 27.6479 19.7948 27.3542 20.4378C27.3306 20.5189 27.2898 20.594 27.2347 20.6579C27.1796 20.7219 27.1114 20.7733 27.0348 20.8088C26.9581 20.8442 26.8747 20.8627 26.7903 20.8632C26.7059 20.8637 26.6223 20.846 26.5452 20.8115C26.2359 20.669 26.1533 20.3414 26.3228 19.9503C26.5985 19.3131 26.8731 18.6758 27.1466 18.0386C27.2734 17.7431 27.5028 17.5511 27.8122 17.6623C28.019 17.7362 28.1737 17.9552 28.3509 18.1098L28.2866 18.1967" fill="white"/>
<path d="M28.2875 18.1976C28.2645 18.2972 28.2355 18.3953 28.2006 18.4913C27.9225 19.1413 27.6479 19.7948 27.3542 20.4378C27.3306 20.5189 27.2898 20.594 27.2347 20.6579C27.1796 20.7219 27.1114 20.7733 27.0348 20.8088C26.9581 20.8442 26.8747 20.8627 26.7903 20.8632C26.7059 20.8637 26.6223 20.846 26.5452 20.8115C26.2359 20.669 26.1533 20.3414 26.3228 19.9503C26.5985 19.3131 26.8731 18.6758 27.1466 18.0386C27.2734 17.7431 27.5028 17.5511 27.8122 17.6623C28.019 17.7362 28.1737 17.9552 28.3509 18.1098L28.2866 18.1967" stroke="#919697" stroke-width="0.260692"/>
</g>
</g>
</g>
</g>
<defs>
<clipPath id="clip0_1_1461">
<rect width="33.89" height="39.98" fill="white"/>
</clipPath>
<clipPath id="clip1_1_1461">
<rect width="33.89" height="39.98" fill="white"/>
</clipPath>
<clipPath id="clip2_1_1461">
<rect width="33.89" height="39.9728" fill="white" transform="translate(0 0.00341797)"/>
</clipPath>
</defs>
</svg>
