<svg width="40" height="35" viewBox="0 0 40 35" fill="none" xmlns="http://www.w3.org/2000/svg">
<g clip-path="url(#clip0_1_1485)">
<g clip-path="url(#clip1_1_1485)">
<g clip-path="url(#clip2_1_1485)">
<mask id="mask0_1_1485" style="mask-type:luminance" maskUnits="userSpaceOnUse" x="0" y="0" width="40" height="35">
<path d="M39.97 0.00292969H0V34.9767H39.97V0.00292969Z" fill="white"/>
</mask>
<g mask="url(#mask0_1_1485)">
<path d="M26.1437 1.35059H28.3271C29.1698 1.48132 30.0242 1.56293 30.8535 1.75112C33.8556 2.31678 36.5247 4.01647 38.3071 6.49756V7.12125C37.9083 8.65286 37.3076 10.1247 36.5209 11.498C36.4586 11.6388 36.4301 11.7922 36.4377 11.946C36.431 13.1118 36.4185 14.285 36.4418 15.4542C36.4632 15.6417 36.4159 15.8306 36.3088 15.986C36.2016 16.1414 36.0418 16.2527 35.8589 16.2994C34.4213 16.8297 32.8484 16.8684 31.3865 16.4093C31.1935 16.3506 30.9881 16.346 30.7927 16.396C29.2443 16.8805 27.5848 16.8805 26.0363 16.396C25.8545 16.3455 25.6621 16.3481 25.4817 16.4035C23.7896 16.9553 21.9661 16.9567 20.2731 16.4076C20.0805 16.3507 19.8754 16.3507 19.6828 16.4076C18.002 16.9519 16.1927 16.9539 14.5108 16.4134C14.3058 16.3539 14.088 16.3539 13.8829 16.4134C12.373 16.8885 10.7542 16.892 9.24225 16.4234C9.01168 16.3602 8.76835 16.3602 8.53778 16.4234C7.06176 16.8819 5.47408 16.8276 4.03283 16.2694C3.87105 16.2206 3.73148 16.1166 3.63838 15.9756C3.54527 15.8346 3.50453 15.6654 3.52321 15.4975C3.5382 14.315 3.53154 13.1326 3.52321 11.951C3.53076 11.7972 3.50224 11.6438 3.43994 11.503C2.65435 10.128 2.05643 8.65408 1.66211 7.12042L1.66211 6.49672C1.85447 6.23858 2.0335 5.96712 2.24501 5.72314C4.02934 3.67136 6.44722 2.27355 9.11568 1.75112C9.94839 1.56709 10.7994 1.48132 11.6421 1.35059H13.8255C13.8863 1.3714 13.9454 1.39722 14.007 1.41137C15.0895 1.66119 16.182 1.8702 17.2546 2.16081C18.1344 2.42759 19.046 2.57518 19.965 2.59965C20.9254 2.57846 21.8782 2.42433 22.7962 2.14166C23.8954 1.83772 25.0254 1.61122 26.1437 1.35059ZM36.0713 9.96912C36.5568 9.08065 36.918 8.12969 37.1446 7.14291C37.1621 7.04652 37.1595 6.94756 37.1368 6.85226C37.1142 6.75695 37.072 6.66737 37.0131 6.58915C36.3737 5.87513 35.6639 5.22735 34.8947 4.65561C33.1833 3.50806 31.2274 2.77649 29.183 2.51928C27.1386 2.26207 25.0624 2.48635 23.1202 3.17422C21.1171 3.88349 18.932 3.88848 16.9257 3.18837C14.1555 2.22734 11.1488 2.1882 8.35459 3.07679C6.24617 3.6543 4.36604 4.86556 2.96863 6.54669C2.88403 6.62653 2.82479 6.72951 2.79828 6.84278C2.77178 6.95605 2.77918 7.07461 2.81957 7.18371C3.15266 8.05389 3.47991 8.92573 3.81299 9.79508C3.84981 9.86082 3.89455 9.92178 3.94623 9.97661C4.20476 9.54933 4.56667 9.19398 4.9986 8.9433C5.43053 8.69262 5.9186 8.55466 6.41785 8.54213C6.91711 8.52961 7.41148 8.64292 7.85544 8.87163C8.2994 9.10034 8.67866 9.4371 8.9583 9.85087C9.26735 9.43029 9.67407 9.0912 10.1434 8.86285C10.6127 8.6345 11.1305 8.52374 11.6522 8.54013C12.1739 8.55653 12.6837 8.69957 13.1378 8.95694C13.5918 9.2143 13.9765 9.57826 14.2585 10.0174C14.5804 9.54894 15.0144 9.16844 15.521 8.91058C16.0276 8.65271 16.5906 8.52567 17.1588 8.54102C17.722 8.55043 18.2744 8.69737 18.7679 8.96906C19.2613 9.24075 19.6809 9.62895 19.99 10.0999C20.3005 9.62769 20.7218 9.23871 21.2172 8.96688C21.7126 8.69506 22.267 8.54864 22.8321 8.54043C23.3971 8.53221 23.9555 8.66245 24.4586 8.91976C24.9617 9.17708 25.3942 9.55364 25.7182 10.0166C25.9998 9.57854 26.3835 9.21542 26.8364 8.95843C27.2893 8.70145 27.7978 8.55828 28.3183 8.54125C28.8387 8.52421 29.3555 8.63381 29.8243 8.86062C30.293 9.08744 30.6996 9.42469 31.0093 9.84338C32.5273 8.04639 34.2302 8.08969 36.0721 9.96828M16.5185 12.3765C16.5684 12.0434 16.7025 11.7594 17.0847 11.7544C17.4861 11.7486 17.6168 12.0542 17.6743 12.3715H19.4229C19.4981 11.9021 19.4291 11.421 19.2251 10.9916C19.0212 10.5623 18.6918 10.2049 18.2805 9.96662C17.8946 9.71672 17.4403 9.59362 16.9811 9.61452C16.5219 9.63542 16.0806 9.79928 15.7191 10.0832C15.3587 10.3348 15.078 10.6846 14.9103 11.0909C14.7427 11.4972 14.6951 11.9431 14.7731 12.3756L16.5185 12.3765ZM20.5454 12.3765H22.3C22.3524 12.0251 22.4965 11.7494 22.8828 11.7519C23.2692 11.7544 23.4025 12.0359 23.4491 12.3607H25.2036C25.2797 11.8968 25.2137 11.4207 25.0145 10.995C24.8152 10.5693 24.4919 10.2137 24.0869 9.97495C23.7199 9.73311 23.2888 9.60666 22.8492 9.61185C22.4097 9.61705 21.9817 9.75365 21.6205 10.0041C21.2278 10.2501 20.9164 10.6065 20.7255 11.0287C20.5346 11.4508 20.4725 11.92 20.5471 12.3773M13.6356 12.3773C13.7416 11.912 13.699 11.4252 13.5137 10.9854C13.3285 10.5457 13.01 10.1751 12.6031 9.92582C12.2604 9.70784 11.859 9.60044 11.4533 9.61816C11.0476 9.63589 10.6571 9.77788 10.3348 10.0249C9.97609 10.2885 9.70353 10.6525 9.55148 11.0709C9.39943 11.4892 9.3747 11.9432 9.48041 12.3756H10.9793C11.0276 12.0526 11.1508 11.7794 11.5106 11.7553C11.9377 11.7261 12.0618 12.0551 12.1442 12.3781L13.6356 12.3773ZM30.4888 12.3773C30.6008 11.9207 30.5668 11.4404 30.3915 11.0041C30.2163 10.5678 29.9087 10.1974 29.512 9.94497C29.1685 9.71575 28.762 9.59952 28.3492 9.61251C27.9364 9.6255 27.538 9.76705 27.2096 10.0174C26.8498 10.2812 26.575 10.6444 26.419 11.0624C26.2631 11.4804 26.2328 11.9348 26.3319 12.3698H27.8308C27.8983 12.0567 28.0157 11.7578 28.4012 11.7511C28.8017 11.7436 28.9341 12.0434 28.9974 12.3773H30.4888ZM17.6734 13.504C17.6143 13.8279 17.5285 14.1352 17.1338 14.1618C16.6717 14.1926 16.5734 13.8437 16.5026 13.5173H14.754C14.754 14.0769 14.744 14.6081 14.7639 15.1377C14.7752 15.1939 14.7997 15.2466 14.8355 15.2914C14.8713 15.3361 14.9173 15.3717 14.9696 15.395C16.3515 15.8321 17.8346 15.8321 19.2164 15.395C19.2997 15.3684 19.4246 15.256 19.4263 15.1802C19.4446 14.6265 19.4363 14.0719 19.4363 13.5023L17.6734 13.504ZM20.5304 13.4981C20.5304 14.081 20.5205 14.6223 20.5413 15.1636C20.5413 15.2468 20.6762 15.3726 20.7711 15.4017C22.143 15.8315 23.6135 15.8315 24.9854 15.4017C25.0745 15.3742 25.2028 15.2668 25.2053 15.1935C25.2236 14.6398 25.2153 14.0844 25.2153 13.5115H23.4399C23.4075 13.8554 23.3009 14.1285 22.9278 14.1585C22.4682 14.1951 22.3524 13.8587 22.2883 13.4973L20.5304 13.4981ZM34.0461 12.3698H35.3352C35.3352 11.9959 35.361 11.6454 35.3302 11.3006C35.2838 10.8582 35.0812 10.4469 34.7586 10.1405C34.4361 9.83416 34.0149 9.65292 33.5707 9.62937C33.133 9.60522 32.7011 9.7388 32.3535 10.0059C32.006 10.273 31.7656 10.6558 31.6762 11.0849C31.6218 11.5119 31.594 11.9419 31.593 12.3723H32.9012C32.9603 12.0317 33.1027 11.7378 33.5074 11.7553C33.8654 11.7711 34.007 12.0326 34.0478 12.3698M8.35209 12.3748C8.35209 12.0068 8.3754 11.682 8.34793 11.3606C8.31431 10.9033 8.11405 10.4743 7.78512 10.1549C7.45619 9.83547 7.02148 9.64789 6.56343 9.62771C6.11831 9.6063 5.68065 9.74788 5.3324 10.0259C4.98415 10.304 4.74919 10.6994 4.67152 11.1382C4.63325 11.5505 4.62935 11.9652 4.65986 12.3781H5.91891C5.95972 12.0451 6.09129 11.7778 6.45185 11.7553C6.87486 11.7286 7.00726 12.0492 7.07638 12.3748H8.35209ZM9.45126 13.4998C9.45126 14.0827 9.44294 14.6231 9.46042 15.1652C9.47301 15.2157 9.4975 15.2625 9.53183 15.3016C9.56616 15.3407 9.60934 15.371 9.65778 15.39C10.8921 15.7723 12.2131 15.7723 13.4474 15.39C13.5307 15.3659 13.6464 15.2701 13.6489 15.2044C13.6648 14.6406 13.6581 14.076 13.6581 13.509H12.1259C12.0743 13.8587 11.9644 14.1476 11.568 14.1618C11.13 14.1768 11.0284 13.8479 10.9701 13.4956L9.45126 13.4998ZM26.3103 13.4998C26.3103 14.0719 26.3003 14.6006 26.3203 15.1286C26.3332 15.1841 26.3592 15.2358 26.3962 15.2792C26.4331 15.3227 26.4799 15.3567 26.5326 15.3784C27.7666 15.7573 29.0858 15.7573 30.3198 15.3784C30.3675 15.3584 30.4097 15.3273 30.4429 15.2876C30.4761 15.2478 30.4993 15.2008 30.5105 15.1502C30.5271 14.6098 30.5196 14.0677 30.5196 13.5106H28.9808C28.9516 13.857 28.8417 14.1277 28.4703 14.156C28.0132 14.1918 27.8983 13.852 27.8308 13.499L26.3103 13.4998ZM8.35708 13.5081H7.06639C7.01309 13.8679 6.89985 14.1668 6.48349 14.1635C6.06714 14.1601 5.96305 13.852 5.92225 13.5098H4.62572C4.62572 14.0719 4.61573 14.614 4.63654 15.1544C4.63654 15.2377 4.77061 15.3626 4.86554 15.39C5.9276 15.7093 7.06035 15.7076 8.12143 15.3851C8.1786 15.36 8.22893 15.3216 8.26819 15.273C8.30746 15.2245 8.33451 15.1672 8.34709 15.1061C8.36958 14.5898 8.35792 14.0727 8.35792 13.5081M31.613 13.5081C31.613 14.071 31.603 14.6131 31.6238 15.1536C31.6238 15.2368 31.7629 15.3584 31.8594 15.3867C32.922 15.7046 34.0544 15.7046 35.117 15.3867C35.2053 15.3609 35.331 15.2527 35.3335 15.1794C35.3518 14.6265 35.3435 14.0719 35.3435 13.5048H34.0545C34.0112 13.8629 33.8962 14.1626 33.4799 14.1601C33.0635 14.1576 32.957 13.8504 32.9062 13.509L31.613 13.5081Z" fill="white"/>
<path d="M38.3071 27.8603V28.484C38.1056 28.7522 37.9199 29.0336 37.7009 29.2867C35.9176 31.3228 33.509 32.7093 30.8527 33.2288C30.02 33.4128 29.169 33.4986 28.3271 33.6293H26.1437C26.0705 33.6077 25.9988 33.581 25.9239 33.5644C24.9246 33.342 23.9112 33.1863 22.9403 32.8832C21.6145 32.4155 20.1954 32.2744 18.8034 32.4719C17.9915 32.6118 17.2071 32.9065 16.4019 33.0947C15.5475 33.2954 14.684 33.4528 13.8205 33.6293H11.6421C10.7994 33.4986 9.94589 33.417 9.11651 33.228C6.11475 32.6625 3.4456 30.9638 1.66211 28.484L1.66211 27.8603C2.05927 26.3276 2.66059 24.8553 3.44993 23.4828C3.51226 23.342 3.54078 23.1886 3.5332 23.0348C3.53987 21.8781 3.5332 20.7223 3.5332 19.5657C3.5332 18.9903 3.60315 18.8762 4.14441 18.6722C5.5838 18.1457 7.15768 18.1144 8.61689 18.5831C8.79815 18.6347 8.99021 18.6347 9.17147 18.5831C10.7171 18.0874 12.379 18.0874 13.9246 18.5831C14.105 18.6364 14.297 18.6364 14.4775 18.5831C16.1697 18.0306 17.9935 18.0286 19.6869 18.5773C19.8796 18.6342 20.0846 18.6342 20.2773 18.5773C21.9579 18.0325 23.7673 18.0302 25.4493 18.5706C25.6541 18.6328 25.8724 18.6356 26.0788 18.579C27.6039 18.1091 29.2351 18.1091 30.7603 18.579C30.9665 18.6361 31.1844 18.6361 31.3906 18.579C32.8528 18.1213 34.4252 18.1599 35.8631 18.6889C36.046 18.7356 36.2058 18.8469 36.3129 19.0022C36.4201 19.1576 36.4674 19.3465 36.446 19.5341C36.4219 20.6999 36.4352 21.8723 36.4418 23.0423C36.4343 23.1961 36.4628 23.3495 36.5251 23.4903C37.3122 24.8634 37.9129 26.3352 38.3113 27.867M31.0117 25.1357C30.7029 25.5558 30.2965 25.8944 29.8277 26.1225C29.3588 26.3505 28.8415 26.4611 28.3204 26.4447C27.7992 26.4283 27.2899 26.2854 26.8363 26.0284C26.3827 25.7713 25.9984 25.4078 25.7166 24.9692C25.3924 25.4324 24.9597 25.8093 24.4563 26.0668C23.9529 26.3243 23.3941 26.4547 22.8287 26.4465C22.2633 26.4383 21.7086 26.2917 21.2129 26.0197C20.7172 25.7477 20.2956 25.3584 19.985 24.8859C19.6747 25.3586 19.2532 25.748 18.7576 26.0202C18.2619 26.2923 17.7072 26.4389 17.1418 26.4472C16.5764 26.4554 16.0176 26.325 15.5142 26.0673C15.0109 25.8097 14.5783 25.4326 14.2543 24.9692C13.9729 25.408 13.5889 25.7718 13.1354 26.0291C12.6819 26.2863 12.1727 26.4294 11.6516 26.4459C11.1305 26.4623 10.6132 26.3517 10.1444 26.1236C9.67565 25.8955 9.26941 25.5567 8.9608 25.1365C7.42612 26.9352 5.72573 26.8919 3.89876 25.0125C3.43112 25.8949 3.06783 26.8289 2.81624 27.7954C2.78497 27.906 2.78256 28.0228 2.80924 28.1346C2.83591 28.2464 2.89079 28.3495 2.96863 28.4341C3.75072 29.4119 4.72255 30.2214 5.82565 30.8139C7.488 31.7513 9.33055 32.3248 11.2312 32.4963C13.1319 32.6679 15.0474 32.4336 16.8507 31.809C18.8377 31.0911 21.0117 31.0811 23.0053 31.7807C25.6981 32.7208 28.6184 32.7907 31.3532 31.9806C33.5632 31.426 35.5404 30.1849 37.0006 28.4357C37.0849 28.3559 37.1441 28.2532 37.1711 28.1402C37.198 28.0272 37.1914 27.9088 37.1521 27.7995C36.8815 27.0584 36.6209 26.3131 36.3444 25.5737C36.2566 25.3741 36.158 25.1795 36.0488 24.9908C35.7884 25.419 35.4249 25.7752 34.9916 26.0269C34.5582 26.2786 34.0687 26.4178 33.5677 26.4318C33.0667 26.4458 32.5702 26.3341 32.1235 26.107C31.6768 25.8799 31.294 25.5445 31.0101 25.1315M22.3058 22.6093H20.5454C20.4717 23.0641 20.5335 23.5305 20.723 23.9504C20.9126 24.3704 21.2215 24.7252 21.6113 24.9708C21.9877 25.235 22.4372 25.375 22.897 25.3713C23.3568 25.3676 23.804 25.2203 24.176 24.95C24.5574 24.704 24.8576 24.3508 25.0391 23.9349C25.2205 23.5189 25.2752 23.0586 25.1961 22.6118H23.4399C23.405 22.9665 23.2501 23.218 22.8928 23.2288C22.5098 23.2405 22.3566 22.9698 22.3025 22.6109M14.7714 22.6109C14.6923 23.0655 14.7509 23.5334 14.9398 23.9544C15.1287 24.3754 15.4392 24.7303 15.8315 24.9733C16.2086 25.2364 16.6584 25.3752 17.1182 25.3703C17.578 25.3654 18.0248 25.217 18.3962 24.9458C18.7752 24.6972 19.0739 24.3439 19.2561 23.9289C19.4383 23.5139 19.4963 23.0549 19.4229 22.6076H17.6659C17.626 22.9357 17.4877 23.2171 17.1088 23.228C16.7066 23.2396 16.5726 22.939 16.5143 22.6109H14.7714ZM28.9766 22.6034C28.9558 22.9657 28.7934 23.2121 28.4395 23.228C28.0323 23.2471 27.9049 22.9324 27.8316 22.6134H26.3328C26.2309 23.0707 26.2715 23.5482 26.4489 23.9818C26.6263 24.4154 26.9322 24.7844 27.3253 25.0391C27.6806 25.2608 28.0947 25.3696 28.513 25.3512C28.9313 25.3328 29.3342 25.1879 29.6686 24.9359C30.0175 24.6701 30.2789 24.3061 30.4193 23.8906C30.5597 23.4751 30.5726 23.0271 30.4563 22.6043L28.9766 22.6034ZM10.9851 22.6134H9.48624C9.3723 23.082 9.41205 23.5748 9.59963 24.0191C9.78721 24.4634 10.1127 24.8356 10.528 25.0807C10.8862 25.2838 11.2965 25.3764 11.7073 25.3468C12.118 25.3171 12.5108 25.1666 12.8362 24.9142C13.1732 24.646 13.4247 24.2853 13.5598 23.8764C13.695 23.4675 13.708 23.028 13.5973 22.6118H12.1176C12.076 22.9757 11.9127 23.2396 11.5347 23.2305C11.1775 23.2221 11.0242 22.9665 10.9859 22.6159M14.7523 21.4976C15.2836 21.4976 15.7624 21.4926 16.2403 21.4976C16.4277 21.4976 16.5193 21.4718 16.5817 21.2478C16.6185 21.1514 16.6774 21.065 16.7538 20.9957C16.8302 20.9264 16.9219 20.8761 17.0214 20.8489C17.188 20.8256 17.4045 20.9863 17.5618 21.1121C17.6451 21.1778 17.6451 21.3435 17.6834 21.4643H19.4388C19.4388 20.903 19.4488 20.3718 19.4288 19.8413C19.416 19.7861 19.3904 19.7346 19.3539 19.6912C19.3174 19.6478 19.2712 19.6136 19.2189 19.5915C17.8372 19.1535 16.3538 19.1535 14.9721 19.5915C14.9197 19.6148 14.8736 19.6504 14.8376 19.6951C14.8017 19.7399 14.777 19.7926 14.7656 19.8488C14.7456 20.3784 14.7556 20.9097 14.7556 21.5001M25.2211 21.4876C25.2211 20.9122 25.2294 20.3701 25.2128 19.8289C25.2019 19.7779 25.179 19.7303 25.1459 19.6901C25.1129 19.6498 25.0707 19.618 25.0229 19.5974C23.6279 19.1519 22.1287 19.1519 20.7336 19.5974C20.6554 19.6215 20.5463 19.7223 20.5446 19.7897C20.5296 20.3543 20.5363 20.9189 20.5363 21.4801H22.3133C22.3433 21.1212 22.4673 20.8431 22.8587 20.8273C23.2959 20.8098 23.405 21.1354 23.4599 21.4893L25.2211 21.4876ZM31.628 22.6084C31.6103 22.9691 31.6123 23.3305 31.6338 23.691C31.6802 24.1403 31.8883 24.5575 32.2193 24.8649C32.5503 25.1723 32.9817 25.349 33.4333 25.3622C33.8784 25.3758 34.3134 25.2278 34.6578 24.9456C35.0023 24.6633 35.2328 24.2658 35.3069 23.8267C35.3423 23.4237 35.3459 23.0186 35.3177 22.6151H34.0436C34.0187 22.9557 33.8654 23.223 33.4924 23.2338C33.0919 23.2455 32.9553 22.944 32.8962 22.6101L31.628 22.6084ZM4.63405 22.6084C4.63405 22.9882 4.61323 23.3271 4.63405 23.6626C4.67494 24.1002 4.86845 24.5094 5.1807 24.8186C5.49295 25.1278 5.90402 25.3173 6.34193 25.3539C6.7737 25.3907 7.20456 25.2733 7.55795 25.0225C7.91135 24.7717 8.1644 24.4038 8.27215 23.9841C8.34119 23.5312 8.37848 23.074 8.38373 22.6159H7.05972C7.02142 22.949 6.8757 23.2255 6.49515 23.2321C6.09545 23.2388 5.96555 22.9324 5.90642 22.6093L4.63405 22.6084ZM13.6598 21.4726C13.6598 20.9031 13.6723 20.3851 13.6489 19.8688C13.6364 19.8072 13.6093 19.7496 13.5699 19.7006C13.5305 19.6516 13.4799 19.6128 13.4224 19.5874C12.2006 19.2074 10.8921 19.2074 9.67027 19.5874C9.58699 19.6132 9.46375 19.7273 9.46126 19.8039C9.44294 20.3568 9.45126 20.9105 9.45126 21.4743H10.9968C10.9968 21.1137 11.1325 20.8398 11.5155 20.8189C11.9494 20.7956 12.0776 21.1096 12.1284 21.4735L13.6598 21.4726ZM30.518 21.4793C30.518 20.9039 30.5263 20.3626 30.5088 19.8214C30.4974 19.7706 30.4739 19.7233 30.4405 19.6835C30.407 19.6436 30.3645 19.6124 30.3164 19.5924C29.0825 19.2077 27.7607 19.2077 26.5268 19.5924C26.4435 19.6173 26.3228 19.7106 26.3211 19.7747C26.3053 20.3393 26.3119 20.9047 26.3119 21.4768H27.8408C27.8941 21.132 27.999 20.8381 28.3945 20.8231C28.8334 20.8056 28.94 21.1295 28.9983 21.4843L30.518 21.4793ZM8.35792 21.4726C8.35792 20.9039 8.37041 20.3859 8.34709 19.8688C8.33366 19.8077 8.30579 19.7507 8.2658 19.7026C8.22581 19.6545 8.17488 19.6167 8.11726 19.5924C7.05434 19.2729 5.92097 19.2729 4.85804 19.5924C4.76894 19.6182 4.63904 19.7239 4.63654 19.7964C4.61822 20.3501 4.62655 20.9047 4.62655 21.4768H5.93057C5.94306 21.1262 6.06547 20.8481 6.44852 20.8189C6.90984 20.7848 7.0006 21.152 7.08387 21.4751L8.35792 21.4726ZM31.613 21.4685H32.9137C32.9453 21.122 33.0569 20.8514 33.4283 20.8206C33.8896 20.7823 33.9995 21.1221 34.0603 21.4651H35.3443C35.3443 20.908 35.3543 20.3776 35.3343 19.8488C35.3219 19.7936 35.2965 19.742 35.2601 19.6986C35.2238 19.6551 35.1775 19.621 35.1253 19.599C34.051 19.2739 32.9046 19.2739 31.8303 19.599C31.747 19.6248 31.6255 19.7398 31.623 19.8172C31.6046 20.3585 31.613 20.8997 31.613 21.471" fill="white"/>
</g>
</g>
</g>
</g>
<defs>
<clipPath id="clip0_1_1485">
<rect width="39.97" height="34.98" fill="white"/>
</clipPath>
<clipPath id="clip1_1_1485">
<rect width="39.97" height="34.98" fill="white"/>
</clipPath>
<clipPath id="clip2_1_1485">
<rect width="39.97" height="34.9738" fill="white" transform="translate(0 0.00292969)"/>
</clipPath>
</defs>
</svg>
