<svg width="23" height="22" viewBox="0 0 23 22" fill="none" xmlns="http://www.w3.org/2000/svg">
<path d="M22.2857 8.23654C22.2857 8.43297 22.1696 8.64725 21.9375 8.87939L17.0759 13.6205L18.2277 20.3169C18.2366 20.3794 18.2411 20.4687 18.2411 20.5848C18.2411 20.7723 18.1942 20.9307 18.1004 21.0602C18.0067 21.1897 17.8705 21.2544 17.692 21.2544C17.5223 21.2544 17.3438 21.2008 17.1562 21.0937L11.1429 17.933L5.12946 21.0937C4.93304 21.2008 4.75446 21.2544 4.59375 21.2544C4.40625 21.2544 4.26562 21.1897 4.17188 21.0602C4.07812 20.9307 4.03125 20.7723 4.03125 20.5848C4.03125 20.5312 4.04018 20.4419 4.05804 20.3169L5.20982 13.6205L0.334821 8.87939C0.111607 8.63832 0 8.42404 0 8.23654C0 7.90618 0.25 7.70082 0.75 7.62047L7.47321 6.64279L10.4866 0.549038C10.6562 0.182966 10.875 -7.05719e-05 11.1429 -7.05719e-05C11.4107 -7.05719e-05 11.6295 0.182966 11.7991 0.549038L14.8125 6.64279L21.5357 7.62047C22.0357 7.70082 22.2857 7.90618 22.2857 8.23654Z" fill="#FFC936"/>
</svg>
