<svg width="44" height="17" viewBox="0 0 44 17" fill="none" xmlns="http://www.w3.org/2000/svg">
<path d="M36.9793 6.14635V8.96454e-05H43.4202V4.85224C43.4202 7.47947 43.0643 9.38111 42.3522 10.5577C41.4181 12.1259 39.9388 13.3121 37.9139 14.1162L36.4456 12.0575C37.6696 11.6065 38.5705 10.9346 39.1489 10.0429C39.7277 9.15056 40.0498 7.85189 40.1162 6.14635H36.9793Z" fill="#50595C"/>
<path d="M28.1649 6.14635V8.96454e-05H34.6057V4.85224C34.6057 7.47947 34.2504 9.38111 33.5378 10.5577C32.6036 12.1259 31.1244 13.3121 29.0995 14.1162L27.6311 12.0575C28.8552 11.6065 29.7556 10.9346 30.334 10.0429C30.9128 9.15056 31.2349 7.85189 31.3018 6.14635H28.1649Z" fill="#50595C"/>
<path d="M6.44085 9.88686V16.0331H0V11.181C0 8.55373 0.355822 6.65209 1.06794 5.47554C2.00209 3.90731 3.48136 2.72112 5.50623 1.91699L6.97459 3.97571C5.75056 4.42667 4.84962 5.09855 4.27129 5.99034C3.69248 6.88264 3.37035 8.18131 3.30393 9.88686H6.44085Z" fill="#50595C"/>
<path d="M15.2553 9.88686V16.0331H8.81445V11.181C8.81445 8.55373 9.1698 6.65209 9.88239 5.47554C10.8165 3.90731 12.2958 2.72112 14.3207 1.91699L15.789 3.97571C14.565 4.42667 13.6645 5.09855 13.0862 5.99034C12.5074 6.88264 12.1853 8.18131 12.1184 9.88686H15.2553Z" fill="#50595C"/>
</svg>
