<svg id="Doctors-category-icon-2" xmlns="http://www.w3.org/2000/svg" xmlns:xlink="http://www.w3.org/1999/xlink" width="39" height="46" viewBox="0 0 39 46">
  <defs>
    <clipPath id="clip-path">
      <rect id="Rectangle_17049" data-name="Rectangle 17049" width="39" height="46" transform="translate(0 0)" fill="#fff" stroke="#919697" stroke-width="0.3"/>
    </clipPath>
  </defs>
  <g id="Group_35270" data-name="Group 35270" transform="translate(0 0)" clip-path="url(#clip-path)">
    <path id="Path_730" data-name="Path 730" d="M0,85.9c.041-.218.076-.436.123-.653a3.859,3.859,0,0,1,1.54-2.377c.41-.3.831-.576,1.256-.85a.663.663,0,0,1,.979.144.65.65,0,0,1-.226.93c-.362.261-.742.5-1.108.751a2.585,2.585,0,0,0-.714,3.718Q3,89.3,4.179,91a.7.7,0,0,0,.457.255,7.78,7.78,0,0,1,4.476,1.913c.49.433.957.894,1.419,1.357a1.055,1.055,0,0,1-.412,1.842c-1.44.515-2.89,1-4.335,1.5-.138.048-.273.1-.44.165.107.391.194.764.312,1.128a2.909,2.909,0,0,1-.266,2.445c-.447.788-.864,1.594-1.285,2.4a4.626,4.626,0,0,0,3.855,6.89c.488.035.754.3.723.715-.03.4-.34.626-.834.6a5.959,5.959,0,0,1-5.055-8.534c.43-.881.9-1.743,1.387-2.594a1.893,1.893,0,0,0,.181-1.664,2.592,2.592,0,0,1-.149-.513.742.742,0,0,0-.651-.689,2.049,2.049,0,0,1-1.3-2.782.655.655,0,0,0-.146-.854,1.942,1.942,0,0,1,.65-3.28c-.2-.3-.4-.607-.6-.907-.382-.567-.745-1.149-1.153-1.7A5.19,5.19,0,0,1,0,86.171V85.9m8.151,8.186c.018.05.017.015,0,0a6.437,6.437,0,0,0-4.874-1.5.533.533,0,0,0-.378.87c.416.683.555.744,1.36.621a2.947,2.947,0,0,1,.486-.049c1.145.017,2.29.04,3.409.061m.025,1.555a9.608,9.608,0,0,0-4.324-.181.367.367,0,0,0-.162.059,1.057,1.057,0,0,0-.216.983.709.709,0,0,0,.944.439c.549-.178,1.092-.376,1.637-.566l2.121-.736" transform="translate(-0.665 -74.249)" fill="#fff" stroke="#919697" stroke-width="0.3"/>
    <path id="Path_731" data-name="Path 731" d="M127.1,296a4.055,4.055,0,0,1-.45-.823c-.26-.929-.439-1.881-.708-2.808a9.538,9.538,0,0,0-2.573-4.216c-.448-.436-.918-.849-1.354-1.3a.747.747,0,0,0-.716-.227c-2.117.316-4.235.621-6.353.934-.552.082-.9-.1-.964-.524s.22-.7.768-.778c1.295-.184,2.6-.322,3.879-.581a27.217,27.217,0,0,0,2.813-.837.809.809,0,0,1,.976.165.413.413,0,0,0,.315.085c.368-.041.734-.108,1.062-.159-.039-.277-.178-.581-.087-.783a1.577,1.577,0,0,1,.634-.564c.58-.36,1.181-.687,1.772-1.031.428-.25.806-.208,1.023.121.23.348.113.726-.333,1-.554.342-1.118.669-1.665,1.064l2.375-.345c1.515-.219,3.032-.43,4.545-.657a3.574,3.574,0,0,0,3-2.463c.7-1.893,1.429-3.779,2.145-5.667.042-.111.084-.223.134-.33a.656.656,0,1,1,1.216.482c-.491,1.323-.995,2.641-1.494,3.96-.231.611-.475,1.218-.691,1.834a5.075,5.075,0,0,1-4.519,3.555c-2.741.352-5.473.781-8.209,1.178a1.268,1.268,0,0,0-.2.068,1.166,1.166,0,0,0,.137.179,12.2,12.2,0,0,1,4.131,7.447,7.592,7.592,0,0,0,.217.956.8.8,0,0,1-.388,1.058Z" transform="translate(-104.462 -249.975)" fill="#fff" stroke="#919697" stroke-width="0.3"/>
    <path id="Path_732" data-name="Path 732" d="M390.9,160.847l-2.847,7.487c-.037.1-.066.2-.11.292a.657.657,0,1,1-1.229-.465c.068-.227.167-.444.251-.667.84-2.22,1.672-4.444,2.533-6.656a1.3,1.3,0,0,1,.548-.633c.325-.173.606.047.855.554Z" transform="translate(-352.819 -145.533)" fill="#fff" stroke="#919697" stroke-width="0.3"/>
    <path id="Path_733" data-name="Path 733" d="M59.781,0a.849.849,0,0,1,.464.883c-.042.875.013,1.76-.1,2.624a3.9,3.9,0,0,1-1.689,2.679q-.522.38-1.072.722a.656.656,0,1,1-.727-1.09c.325-.236.668-.445.993-.68a2.855,2.855,0,0,0,1.256-2.3q.034-.936.011-1.873A1.022,1.022,0,0,1,59.334,0Z" transform="translate(-51.964 0.314)" fill="#fff" stroke="#919697" stroke-width="0.3"/>
    <path id="Path_734" data-name="Path 734" d="M46.566,113.676a2.547,2.547,0,0,1-1.369,2.455,2.4,2.4,0,0,1-2.65-.209c-.374-.268-.717-.579-1.078-.866a.738.738,0,0,0-1.142.02c-.364.319-.706.339-.987.059s-.261-.662.081-1.025a2.016,2.016,0,0,1,2.679-.232c.384.28.739.6,1.114.892a1.208,1.208,0,0,0,1.592.048,1.192,1.192,0,0,0,.235-1.573c-.266-.5-.55-.986-.816-1.484a.68.68,0,0,1,.2-1c.353-.189.711-.053.956.377.294.516.6,1.026.858,1.562a6.921,6.921,0,0,1,.327.979" transform="translate(-36.313 -100.48)" fill="#fff" stroke="#919697" stroke-width="0.3"/>
    <path id="Path_735" data-name="Path 735" d="M208.214,277.291c.262.559.508,1.076.747,1.6.225.489.14.845-.235,1.029s-.722.016-.951-.459c-.252-.521-.5-1.045-.765-1.608a4.2,4.2,0,0,1-.21.37.612.612,0,0,1-.775.261.559.559,0,0,1-.4-.7,19.063,19.063,0,0,1,.791-2.027c.141-.307.478-.323.788-.226.538.17,1.075.341,1.608.526.449.156.639.474.526.838s-.418.515-.893.424c-.056-.011-.113-.012-.227-.023" transform="translate(-187.903 -250.563)" fill="#fff" stroke="#919697" stroke-width="0.3"/>
    <path id="Path_736" data-name="Path 736" d="M292.043,180.446c-.03.194-.041.3-.061.4a.607.607,0,0,1-.691.549.587.587,0,0,1-.592-.6c-.022-.638-.026-1.277-.017-1.916.006-.439.293-.628.695-.661q.822-.067,1.645-.107c.478-.023.769.188.814.569.048.408-.192.67-.69.753l-.213.033,1.015.954c.141.132.287.259.418.4a.665.665,0,0,1,.029.923.645.645,0,0,1-.922.028c-.468-.408-.915-.84-1.431-1.317" transform="translate(-265.391 -161.884)" fill="#fff" stroke="#919697" stroke-width="0.3"/>
    <path id="Path_737" data-name="Path 737" d="M367.8,167.255c-.192.9-.369,1.8-.584,2.691a.583.583,0,0,1-.761.44.6.6,0,0,1-.5-.73c.154-.875.333-1.746.514-2.616a.608.608,0,0,1,.715-.518c.364.032.573.314.612.733" transform="translate(-333.935 -151.337)" fill="#fff" stroke="#919697" stroke-width="0.3"/>
    <path id="Path_738" data-name="Path 738" d="M272.991,325.342c-.145-.119-.411-.238-.487-.431a.771.771,0,0,1,.086-.682c.662-.658,1.363-1.278,2.073-1.885a.577.577,0,0,1,.811.058.55.55,0,0,1,.1.8c-.717.7-1.484,1.359-2.237,2.026-.06.053-.165.056-.351.114" transform="translate(-248.803 -293.121)" fill="#fff" stroke="#919697" stroke-width="0.3"/>
    <path id="Path_739" data-name="Path 739" d="M316.618,276.871a3.037,3.037,0,0,1-.221.537c-.475.68-.954,1.358-1.453,2.021a.661.661,0,0,1-1,.193.682.682,0,0,1-.042-.99l1.425-1.987a.587.587,0,0,1,.763-.275,2.421,2.421,0,0,1,.528.5" transform="translate(-286.369 -251.327)" fill="#fff" stroke="#919697" stroke-width="0.3"/>
    <path id="Path_740" data-name="Path 740" d="M347.986,224.306a2.909,2.909,0,0,1-.1.338c-.32.748-.636,1.5-.974,2.24a.68.68,0,0,1-.931.43c-.356-.164-.451-.541-.256-.991q.476-1.1.948-2.2c.146-.34.41-.561.766-.433.238.085.416.337.62.515l-.074.1" transform="translate(-315.433 -203.368)" fill="#fff" stroke="#919697" stroke-width="0.3"/>
  </g>
</svg>
