<svg id="Doctors-category-icon-5" xmlns="http://www.w3.org/2000/svg" xmlns:xlink="http://www.w3.org/1999/xlink" width="33.033" height="45" viewBox="0 0 33.033 45">
  <defs>
    <clipPath id="clip-path">
      <rect id="Rectangle_17080" data-name="Rectangle 17080" width="33.033" height="44.999" fill="#fff"/>
    </clipPath>
  </defs>
  <g id="Group_35459" data-name="Group 35459" clip-path="url(#clip-path)">
    <path id="Path_870" data-name="Path 870" d="M24.081,35.925c.262.031.477.057.692.081a.743.743,0,0,1,.754.781.68.68,0,0,1-.81.7c-.733-.158-1.028.2-1.27.787-.188.458-.452.885-.72,1.4l.575.086a.751.751,0,1,1-.123,1.5.289.289,0,0,1-.093-.006c-.96-.35-1.379.173-1.718.978-.32.759-.769,1.462-1.132,2.2a.914.914,0,0,1-.887.564c-1.951.005-3.9.018-5.854-.013a.889.889,0,0,1-.593-.434c-.57-1-1.1-2.03-1.638-3.048a1.955,1.955,0,0,1-.171-.332,1.806,1.806,0,0,0-2.02-1.416.725.725,0,0,1-.8-.822c.047-.435.392-.685.912-.661l.191.01c-.139-.661-.271-1.32-.423-1.973a.461.461,0,0,0-.219-.236.7.7,0,0,0-.275-.041c-.646-.063-.963-.335-.938-.8s.376-.72,1.015-.7c.089,0,.179,0,.327,0L8.725,32.38c-.409-.04-.793-.077-1.177-.115a.753.753,0,1,1,.076-1.5c.156,0,.312.02.467.032s.307.028.524.048L8.47,28.61c-.339-.034-.646-.062-.952-.1a.75.75,0,1,1,.09-1.5c.233,0,.465.031.761.052l-.1-1.523a8.276,8.276,0,0,1-.837-.072,3.869,3.869,0,0,1-3.207-2.79c-.443-1.412-.809-2.849-1.284-4.25A7.524,7.524,0,0,0,2,16.625,10.572,10.572,0,0,1,.412,7.492c.144-.539.512-.774.957-.643s.62.516.477,1.053a9.009,9.009,0,0,0,1.581,8.137,10.35,10.35,0,0,1,1.461,3.42c.264.881.485,1.774.75,2.654a2.435,2.435,0,0,0,2.555,1.9q5.105,0,10.21,0a2.384,2.384,0,0,1,.467.015.743.743,0,0,1,.01,1.467,2.282,2.282,0,0,1-.467.017H9.767l.112,1.691,13.176,1.1.208-2.794c-.465,0-.909,0-1.354,0-.556-.006-.889-.286-.895-.74s.328-.753.877-.756c1-.006,2,0,3,0a2.446,2.446,0,0,0,2.494-1.865c.409-1.374.743-2.773,1.219-4.123a8.917,8.917,0,0,1,1.186-2.259A9.068,9.068,0,0,0,24.644,1.682a7.951,7.951,0,0,0-4.474.269,10.891,10.891,0,0,1-7.247.031A8.173,8.173,0,0,0,5.7,2.847c-.211.132-.423.267-.644.38-.448.229-.732.165-.971-.2A.693.693,0,0,1,4.29,2,17.988,17.988,0,0,1,6.881.627,9.682,9.682,0,0,1,13.442.559a18.112,18.112,0,0,0,1.946.5A7.814,7.814,0,0,0,19.522.6c6.356-2.218,11.9,2.057,13.2,7.5a9.725,9.725,0,0,1-1.5,8.162,11.665,11.665,0,0,0-1.693,3.764c-.2.752-.41,1.5-.629,2.251a4.038,4.038,0,0,1-4.133,3.26l-.2,2.873c.34.035.659.066.978.1A.748.748,0,1,1,25.433,30c-.306-.014-.611-.057-.961-.091l-.155,2.229c.4.039.781.078,1.163.114.522.049.813.338.792.792s-.341.716-.869.706c-.372-.007-.744-.033-1.168-.054l-.155,2.224m-1.518-.12.134-2.248L10.226,32.523c.034.475.069.89.093,1.306.05.883.048.883.947.971a1.683,1.683,0,0,1,.186.023.765.765,0,0,1,.652.835.745.745,0,0,1-.789.644c-.26,0-.52,0-.872,0a6.862,6.862,0,0,0,.24.911,6.219,6.219,0,0,0,.544,1.033.719.719,0,0,0,.451.3q4.583.508,9.17.974a.413.413,0,0,0,.337-.142c.366-.664.707-1.342,1.085-2.072-.992-.093-1.922-.182-2.851-.268-1.725-.159-3.45-.312-5.174-.479a.744.744,0,0,1-.714-.943.735.735,0,0,1,.862-.55q1.865.165,3.73.332c1.459.132,2.917.266,4.442.4m.415-5.995-13-1.078.169,2.247,12.665,1.077.169-2.246M20.357,40.955l-8.133-.86c.6,1.157,1.151,2.218,1.719,3.268.046.085.232.134.354.134,1.481.009,2.962.012,4.442,0a.532.532,0,0,0,.393-.219c.408-.733.788-1.483,1.225-2.32" transform="translate(0 -0.001)" fill="#fff"/>
    <path id="Path_871" data-name="Path 871" d="M103.023,37.718A16.032,16.032,0,0,1,95.4,35.787a.748.748,0,1,1,.715-1.3,14.013,14.013,0,0,0,5.791,1.673,13.233,13.233,0,0,0,6.6-1.423c.183-.088.357-.193.543-.273a.738.738,0,0,1,1,.331.68.68,0,0,1-.34.978,34.537,34.537,0,0,1-3.732,1.45,21.63,21.63,0,0,1-2.945.5" transform="translate(-86.03 -31.132)" fill="#fff"/>
    <path id="Path_872" data-name="Path 872" d="M20.914,43.976a.725.725,0,0,1-.754-.723.743.743,0,0,1,.72-.766.775.775,0,0,1,.766.733.75.75,0,0,1-.732.756" transform="translate(-18.272 -38.506)" fill="#fff"/>
  </g>
</svg>
