<svg id="Doctors-category-icon-8" xmlns="http://www.w3.org/2000/svg" xmlns:xlink="http://www.w3.org/1999/xlink" width="44.001" height="15.438" viewBox="0 0 44.001 15.438">
  <defs>
    <clipPath id="clip-path">
      <path id="Path_47" data-name="Path 47" d="M378.4,466.818c-.062-.926-.183-1.7-1.046-1.7-.481.4-.56,2.1-.59,2.3l-.024.463-.264,11.564c0,.5.2.645.537.728l.48.041a4.174,4.174,0,0,0,.731-.083c.133-.035.194-.339.176-.59V478.1l-.006-8.424h.026V468.1h0S378.428,467.215,378.4,466.818Z" transform="translate(-376.478 -465.12)" fill="none"/>
    </clipPath>
  </defs>
  <g id="kids" transform="translate(0)">
    <g id="Group_21" data-name="Group 21" transform="translate(0)" style="isolation: isolate">
      <g id="Group_20" data-name="Group 20">
        <path id="Path_18" data-name="Path 18" d="M315.864,494.689c0-.153-.015-.295-.024-.448a6.952,6.952,0,0,1-1.91-.251v.157l.02,4.488.106,1.362c.1.483.69.5.9.5a.956.956,0,0,0,1.056-.74l-.065-1.642Z" transform="translate(-312.861 -485.301)" fill="#fff"/>
        <path id="Path_19" data-name="Path 19" d="M353.379,489.884c.1,1.584.23,4.127.428,5.925.041.38,0,1.1-1.247,1.1-.828,0-1.339-.4-1.258-1.27.076-.822.651-6.484.7-6.726.018-.088.056-.124.165-.124C353.16,488.808,353.307,489.183,353.379,489.884Z" transform="translate(-339.21 -481.634)" fill="#fff"/>
        <path id="Path_20" data-name="Path 20" d="M423.751,480.719c-2.112,0-6.228-1.329-6.228-3.77,0-1.868,1.881-2.72,3.629-2.72a4.714,4.714,0,0,1,4.224,1.837l.026.03v.039c0,.48-.669.775-1.149.775a.819.819,0,0,1-.5-.142,4.647,4.647,0,0,0-3.242-1.335c-.76,0-2.037.186-2.037,1.442,0,1.474,3.622,2.161,4.518,2.161,3.935,0,4.8-2.585,4.8-3.581,0-2.063-2.24-2.235-4.613-2.417-2.47-.188-5.011-.383-5.011-2.833,0-3.03,3.793-4.422,7.319-4.422a3.848,3.848,0,0,1,3.537,1.813.658.658,0,0,1,.094.36c0,.745-1.067,1.362-1.612,1.362l-.142-.024a.153.153,0,0,1-.138-.151.145.145,0,0,1,.053-.118l.02-.026a1.419,1.419,0,0,0,.369-.672.2.2,0,0,0,0-.068,4.759,4.759,0,0,0-2.918-.654c-1.807,0-4.5.669-4.5,2.511,0,1.252,1.624,1.385,3.5,1.538,2.7.224,6.051.5,6.051,4.253C429.8,479.581,425.364,480.719,423.751,480.719Z" transform="translate(-385.917 -465.406)" fill="#fff"/>
        <path id="Path_21" data-name="Path 21" d="M425.182,465.657a3.7,3.7,0,0,1,3.446,1.75.59.59,0,0,1,.079.31c0,.664-1.008,1.247-1.492,1.247l-.121-.02a.039.039,0,0,1-.039-.039c0-.02,0-.02.018-.039a1.564,1.564,0,0,0,.424-.778.245.245,0,0,0-.02-.118c-.1-.271-1.329-.719-3.024-.719s-4.616.6-4.616,2.626c0,3.242,9.556-.487,9.556,5.792,0,3.461-4.153,4.686-5.927,4.686-1.975,0-6.108-1.265-6.108-3.655,0-1.868,1.955-2.606,3.508-2.606a4.627,4.627,0,0,1,4.127,1.789c0,.389-.59.664-1.029.664a.711.711,0,0,1-.422-.118,4.753,4.753,0,0,0-3.328-1.362c-.946,0-2.158.295-2.158,1.556,0,1.612,3.79,2.276,4.64,2.276,3.888,0,4.916-2.491,4.916-3.7,0-4.4-9.635-.622-9.635-5.25,0-2.877,3.649-4.3,7.2-4.3m0-.227c-3.581,0-7.439,1.415-7.439,4.525,0,2.552,2.728,2.765,5.134,2.947,2.316.176,4.5.345,4.5,2.3,0,.968-.841,3.467-4.678,3.467-.843,0-4.4-.684-4.4-2.045,0-1.156,1.2-1.326,1.918-1.326a4.551,4.551,0,0,1,3.168,1.3.94.94,0,0,0,.59.176c.518,0,1.27-.319,1.27-.88v-.077l-.05-.062a4.86,4.86,0,0,0-4.324-1.881c-1.807,0-3.749.88-3.749,2.836,0,2.511,4.2,3.885,6.349,3.885,1.648,0,6.167-1.179,6.167-4.916,0-3.861-3.413-4.142-6.161-4.365-2.1-.176-3.4-.333-3.4-1.427,0-1.769,2.62-2.4,4.378-2.4a5.092,5.092,0,0,1,2.806.59v.026a1.3,1.3,0,0,1-.345.59l-.02.026a.25.25,0,0,0-.079.188.277.277,0,0,0,.251.264l.112.018h.039c.59,0,1.73-.666,1.73-1.474a.794.794,0,0,0-.109-.415,4,4,0,0,0-3.655-1.872Z" transform="translate(-385.635 -465.159)" fill="#fff"/>
        <path id="Path_22" data-name="Path 22" d="M356.644,466.663c-2.408-.2-4.813.07-4.813,1.208,0,.245.489.481.9.481.206,0,.378-.018.451-.018a.232.232,0,0,0,.074-.153.194.194,0,0,0-.088-.153c-.077-.039-.714-.115-.714-.247,0-.074.112-.15.431-.227a6.071,6.071,0,0,1,1.536-.171,21.826,21.826,0,0,1,6.762,1.294c3.446,1.088,7.3,4.324,7.3,6.841,0,3.381-4.206,3.917-6.264,3.811a14.111,14.111,0,0,1-3.557-.563s1.149.666,1.179,1.474a5.6,5.6,0,0,0,3.366.669c3.41,0,7.074-1.651,7.074-5.111C370.286,471.868,365.144,467.373,356.644,466.663Z" transform="translate(-339.59 -465.985)" fill="#fff"/>
        <path id="Path_23" data-name="Path 23" d="M352.255,478.66a1.474,1.474,0,1,1,1.533-1.474,1.5,1.5,0,0,1-1.533,1.474Zm0-2.228a.767.767,0,1,0,.8.767.787.787,0,0,0-.8-.767Z" transform="translate(-338.891 -472.412)" fill="#fff"/>
        <path id="Path_24" data-name="Path 24" d="M417.84,467.74l1.418,1.35c.236.224.407.215.59.044l1.515-1.444s-1.309,1.108-1.533,1.288-.371.129-.569-.059C419.14,468.808,417.84,467.74,417.84,467.74Z" transform="translate(-386.143 -466.753)" fill="#fff"/>
        <path id="Path_25" data-name="Path 25" d="M417.316,468.24l1.415,1.35c.236.224.227.389.047.56l-1.518,1.442s1.164-1.244,1.356-1.459.133-.352-.065-.542C418.439,469.478,417.316,468.24,417.316,468.24Z" transform="translate(-385.734 -467.141)" fill="#fff"/>
        <path id="Path_26" data-name="Path 26" d="M426.182,471.439s-1.179-1.126-1.418-1.347-.224-.389-.044-.56l1.515-1.442s-1.164,1.243-1.353,1.474-.135.352.065.542C425.065,470.2,426.182,471.439,426.182,471.439Z" transform="translate(-390.897 -467.035)" fill="#fff"/>
        <path id="Path_27" data-name="Path 27" d="M421.189,476.193s-1.179-1.123-1.415-1.35-.407-.212-.59-.041l-1.515,1.444s1.306-1.112,1.533-1.291.369-.127.568.059C419.9,475.129,421.189,476.193,421.189,476.193Z" transform="translate(-386.023 -471.678)" fill="#fff"/>
        <g id="Group_18" data-name="Group 18" transform="translate(31.634 0.865)">
          <path id="Path_28" data-name="Path 28" d="M421.154,469.313a1.768,1.768,0,1,0-1.768,1.672,1.715,1.715,0,0,0,1.768-1.672Z" transform="translate(-417.62 -467.449)" fill="#fff"/>
        </g>
        <path id="Path_29" data-name="Path 29" d="M376.1,466.77s-.4.1-.784.186-.295.36-.194.483l.935-.23Z" transform="translate(-355.951 -466.105)" fill="#fff"/>
        <path id="Path_30" data-name="Path 30" d="M375.945,468.26s-.392.1-.784.188-.295.36-.195.483l.935-.227Z" transform="translate(-355.843 -467.155)" fill="#fff"/>
        <path id="Path_31" data-name="Path 31" d="M375.789,469.77s-.4.1-.787.186-.295.362-.192.483l.931-.224Z" transform="translate(-355.732 -468.22)" fill="#fff"/>
        <path id="Path_32" data-name="Path 32" d="M375.642,471.28l-.782.186c-.392.088-.295.36-.195.483l.931-.227Z" transform="translate(-355.632 -469.285)" fill="#fff"/>
        <path id="Path_33" data-name="Path 33" d="M375.445,472.78s-.392.1-.784.186-.295.36-.195.483l.935-.227Z" transform="translate(-355.49 -470.343)" fill="#fff"/>
        <path id="Path_34" data-name="Path 34" d="M375.335,474.28s-.392.1-.784.186-.295.36-.195.483l.931-.227Z" transform="translate(-355.413 -471.4)" fill="#fff"/>
        <path id="Path_35" data-name="Path 35" d="M375.183,475.78s-.389.1-.782.188-.295.36-.194.481l.935-.224Z" transform="translate(-355.308 -472.458)" fill="#fff"/>
        <path id="Path_36" data-name="Path 36" d="M64.13,13.937l.926.186.009-.413" transform="translate(-45.231 -9.946)" fill="#fff"/>
        <path id="Path_37" data-name="Path 37" d="M377.647,466.84s.138.151-.147.466l.23-.053.05-.44Z" transform="translate(-357.693 -466.133)" fill="#fff" opacity="0.65" style="mix-blend-mode: multiply;isolation: isolate"/>
        <path id="Path_38" data-name="Path 38" d="M377.5,468.342s.135.156-.151.469l.233-.056.05-.445Z" transform="translate(-357.587 -467.19)" fill="#fff" opacity="0.65" style="mix-blend-mode: multiply;isolation: isolate"/>
        <path id="Path_39" data-name="Path 39" d="M377.343,469.855s.142.142-.133.46l.23-.053.044-.44Z" transform="translate(-357.488 -468.255)" fill="#fff" opacity="0.65" style="mix-blend-mode: multiply;isolation: isolate"/>
        <path id="Path_40" data-name="Path 40" d="M377.223,471.353s.142.144-.133.466l.221-.056.044-.44Z" transform="translate(-357.403 -469.314)" fill="#fff" opacity="0.65" style="mix-blend-mode: multiply;isolation: isolate"/>
        <path id="Path_41" data-name="Path 41" d="M377.069,472.853s.142.151-.138.463l.23-.05.039-.445Z" transform="translate(-357.291 -470.371)" fill="#fff" opacity="0.65" style="mix-blend-mode: multiply;isolation: isolate"/>
        <path id="Path_42" data-name="Path 42" d="M376.936,474.36s.142.15-.136.466l.236-.056.033-.44Z" transform="translate(-357.2 -471.436)" fill="#fff" opacity="0.65" style="mix-blend-mode: multiply;isolation: isolate"/>
        <path id="Path_43" data-name="Path 43" d="M376.829,475.85s.144.151-.138.466l.23-.053.039-.44Z" transform="translate(-357.122 -472.487)" fill="#fff" opacity="0.65" style="mix-blend-mode: multiply;isolation: isolate"/>
        <path id="Path_44" data-name="Path 44" d="M376.69,477.38s.171.026.153.142l.065-.192Z" transform="translate(-357.122 -473.552)" fill="#fff" opacity="0.8" style="mix-blend-mode: multiply;isolation: isolate"/>
        <path id="Path_45" data-name="Path 45" d="M378.393,466.808c-.062-.926-.218-1.769-1.046-1.7-.481.4-.56,2.1-.59,2.3l-.024.463-.264,11.563a.675.675,0,0,0,.537.728l.48.041a4.173,4.173,0,0,0,.731-.083c.088-.295.138-.459.176-.59v-1.442l-.006-8.424h.026v-1.584h0S378.42,467.213,378.393,466.808Z" transform="translate(-356.965 -464.931)" fill="#fff"/>
        <g id="Group_19" data-name="Group 19" transform="translate(19.504 0.18)" clip-path="url(#clip-path)">
          <path id="Path_46" data-name="Path 46" d="M380.634,465.724a3.72,3.72,0,0,0-.492-2.154,12.227,12.227,0,0,0-.383,2.759v.463l-.138,11.563c0,.5.1.71.274.769h.271a2,2,0,0,0,.5-.107,3.81,3.81,0,0,0,0-.59v-9.857h.015v-1.584h0S380.645,466.126,380.634,465.724Z" transform="translate(-378.692 -464.027)" fill="#fff"/>
        </g>
        <path id="Path_48" data-name="Path 48" d="M364.075,500.582a10.172,10.172,0,0,0,5.011,2.683v-1.5a9.857,9.857,0,0,1-1.769-.33,8.687,8.687,0,0,1-2.838-1.315,4.083,4.083,0,0,1-1.388-1.589,4,4,0,0,0,.985,2.052Z" transform="translate(-347.53 -488.503)" fill="#fff"/>
        <path id="Path_49" data-name="Path 49" d="M324.29,472.423a8.52,8.52,0,0,0,3.849-6.8c0-.59-.758-1.105-1.256-1.105-.714,0-1,.813-1,.958l.264.459c.062-.459.295-.5.54-.5s.369.168.369.419a7.546,7.546,0,0,1-1.56,3.168,16.647,16.647,0,0,1-2.529,2.526,9.023,9.023,0,0,0-2.738-1.056l-.21,1.035a2.661,2.661,0,0,1,.719.295c.26.166.539.352.843.563a5.444,5.444,0,0,1-1.839.513l-.216,1.073a7.908,7.908,0,0,0,3.2-.69c1.73,1.5,3.537,3.344,4.112,5.934a.681.681,0,0,0,.69.539c.129,0,.176-.312.176-.728a7.621,7.621,0,0,0-.41-2.358,9.674,9.674,0,0,0-3.009-4.245Z" transform="translate(-316.81 -464.517)" fill="#fff"/>
        <path id="Path_50" data-name="Path 50" d="M312.949,486.921c-.224,0-1.936-.05-1.9-.76.039-.643,1.536-.693,1.828-.7h.112a2.334,2.334,0,0,1,.513.065l.209-1.035-.083-.02h-.018a5.377,5.377,0,0,0-.792-.088,3.625,3.625,0,0,0-1.8.5,1.738,1.738,0,0,0-.734,1.291,1.542,1.542,0,0,0,.734,1.232,4.381,4.381,0,0,0,1.99.563l.215-1.073a2.809,2.809,0,0,1-.28.026Z" transform="translate(-310.294 -478.524)" fill="#fff"/>
        <path id="Path_51" data-name="Path 51" d="M332.893,492.2a7.219,7.219,0,0,0-.943-.88,15.945,15.945,0,0,1-1.559.855s.84.767,1.1,1.049Z" transform="translate(-324.469 -483.411)" fill="#fff"/>
        <path id="Path_52" data-name="Path 52" d="M324.549,485.963a6.615,6.615,0,0,1-1.385.834,5.054,5.054,0,0,0-1.394-.8l.274-1.035a9.4,9.4,0,0,1,2.506,1.005Z" transform="translate(-318.39 -478.932)" fill="#fff"/>
        <path id="Path_53" data-name="Path 53" d="M315.784,473.623c-.094-1.833-.165-3-.165-3l-.188-4.4a.731.731,0,0,0-.778-.7c-.4,0-.778.059-.8.4v1.435l.024.363V471.1c.018.985.018,1.029,0,2.267a4.223,4.223,0,0,0,1.91.247Z" transform="translate(-312.804 -465.225)" fill="#fff"/>
      </g>
    </g>
  </g>
</svg>
