<svg xmlns="http://www.w3.org/2000/svg" version="1.1" xmlns:xlink="http://www.w3.org/1999/xlink" xmlns:svgjs="http://svgjs.com/svgjs" width="512" height="512" x="0" y="0" viewBox="0 0 64 64" style="enable-background:new 0 0 512 512" xml:space="preserve" class=""><g><path d="M57.84,23.44l-.13,0,1.13-.53A3.76,3.76,0,0,0,61,20.14a3.51,3.51,0,0,0-4.09-4.09,3.76,3.76,0,0,0-2.75,2.11l-3,6.41a1,1,0,0,0,.2,1.14A1,1,0,0,0,52,26a1.11,1.11,0,0,0,.43-.09l2.11-1,3,.51A3,3,0,0,1,59.65,27H55.42a5,5,0,0,0-4.94,4.22L48.21,45.63A7.61,7.61,0,0,1,40.47,52a7.92,7.92,0,0,1-6.91-4.89l-.64-1.5A1,1,0,0,0,32,45h0a1,1,0,0,0-.92.61l-.77,1.79a7.6,7.6,0,0,1-14.49-1.79l-2.29-14.4A5,5,0,0,0,8.59,27H4.35A3,3,0,0,1,6.5,25.42l3-.51,2.11,1A1.11,1.11,0,0,0,12,26a1,1,0,0,0,.71-.29,1,1,0,0,0,.2-1.14l-3-6.41a3.76,3.76,0,0,0-2.75-2.11,3.51,3.51,0,0,0-4.09,4.09,3.76,3.76,0,0,0,2.11,2.75l1.13.53-.13,0A5,5,0,0,0,2,27.92c0,.14,0,.3,0,.46V57a3,3,0,0,0,3,3H59a3,3,0,0,0,3-3V28.38c0-.16,0-.32,0-.48A5,5,0,0,0,57.84,23.44ZM55.92,19a1.73,1.73,0,0,1,1.28-1l.29,0a1.46,1.46,0,0,1,1.07.44A1.53,1.53,0,0,1,59,19.8a1.73,1.73,0,0,1-1,1.28l-3.9,1.83ZM5,19.8a1.53,1.53,0,0,1,.41-1.36A1.46,1.46,0,0,1,6.51,18l.29,0a1.73,1.73,0,0,1,1.28,1l1.83,3.9L6,21.08A1.73,1.73,0,0,1,5,19.8ZM59,58H5a1,1,0,0,1-1-1V29H8v2H6v2H9a1,1,0,0,0,1-1V29.37a3,3,0,0,1,1.55,2.16L12.42,37H9.62l-.73-1.45A1,1,0,0,0,8,35H6v2H7.38l.73,1.45A1,1,0,0,0,9,39h3.74l.48,3H10a1,1,0,0,0-.89.55L8.38,44H6v2H9a1,1,0,0,0,.89-.55L10.62,44h2.92l.3,1.93A10.07,10.07,0,0,0,14.43,48H12a1,1,0,0,0-1,1v3h2V50h2.52a9.47,9.47,0,0,0,2.16,2.17L16.46,54H15v2h2a1,1,0,0,0,.83-.45l1.59-2.38A9.43,9.43,0,0,0,22,53.9V56h2V54a9.32,9.32,0,0,0,2.71-.59l1.46,2.19A1,1,0,0,0,29,56h2V54H29.54l-1-1.53.1,0A9.61,9.61,0,0,0,32,48.5a10.26,10.26,0,0,0,3.5,3.93l-1,1.57H33v2h2a1,1,0,0,0,.83-.45l1.48-2.21A9.16,9.16,0,0,0,40,54v2h2V53.9a9.61,9.61,0,0,0,2.58-.72l1.59,2.37A1,1,0,0,0,47,56h2V54H47.54l-1.22-1.82a6.8,6.8,0,0,0,.6-.46A9.47,9.47,0,0,0,48.49,50H51v2h2V49a1,1,0,0,0-1-1H49.6a9.8,9.8,0,0,0,.59-2l.3-2h2.89l.73,1.45A1,1,0,0,0,55,46h3V44H55.62l-.73-1.45A1,1,0,0,0,54,42H50.81l.47-3H55a1,1,0,0,0,.89-.55L56.62,37H58V35H56a1,1,0,0,0-.89.55L54.38,37H51.6l.86-5.47A3,3,0,0,1,54,29.36V32a1,1,0,0,0,1,1h3V31H56V29h4V57A1,1,0,0,1,59,58Z" fill="#ffffff" data-original="#000000" class=""></path><path d="M41.63,4h-.84a20.65,20.65,0,0,0-7.68,1.48,3,3,0,0,1-2.22,0A20.65,20.65,0,0,0,23.21,4h-.84A11.26,11.26,0,0,0,11,14.08a11,11,0,0,0,3.8,9.27l2.9,21.5A5.5,5.5,0,0,0,23.22,50,5.59,5.59,0,0,0,25,49.7a5.47,5.47,0,0,0,3.42-4.06L31.8,30.16a.21.21,0,0,1,.4,0l3.35,15.48A5.47,5.47,0,0,0,39,49.7a5.59,5.59,0,0,0,1.81.3,5.48,5.48,0,0,0,5.47-5.08l2.91-21.57A11,11,0,0,0,53,14.08h0A11.26,11.26,0,0,0,41.63,4Zm6,18a1,1,0,0,0-.36.65l-3,22A3.51,3.51,0,0,1,40.78,48a3.75,3.75,0,0,1-1.15-.19,3.47,3.47,0,0,1-2.13-2.59L34.15,29.75a2.2,2.2,0,0,0-4.3,0L26.5,45.22a3.47,3.47,0,0,1-2.13,2.59,3.75,3.75,0,0,1-1.15.19,3.52,3.52,0,0,1-3.49-3.35l-3-22a1,1,0,0,0-.36-.65A9,9,0,0,1,13,14.24,9.25,9.25,0,0,1,22.37,6h.84a18.65,18.65,0,0,1,6.93,1.33,5,5,0,0,0,3.72,0A18.65,18.65,0,0,1,40.79,6h.84A9.25,9.25,0,0,1,51,14.24h0A9,9,0,0,1,47.59,22Z" fill="#ffffff" data-original="#000000" class=""></path></g></svg>