<svg id="Group_35458" data-name="Group 35458" xmlns="http://www.w3.org/2000/svg" xmlns:xlink="http://www.w3.org/1999/xlink" width="41.066" height="45.001" viewBox="0 0 41.066 45.001">
  <defs>
    <clipPath id="clip-path">
      <rect id="Rectangle_17079" data-name="Rectangle 17079" width="41.066" height="45.001" fill="#fff"/>
    </clipPath>
  </defs>
  <g id="Doctors-category-icon-4">
    <g id="Group_35457" data-name="Group 35457" clip-path="url(#clip-path)">
      <path id="Path_859" data-name="Path 859" d="M0,41.336a5.075,5.075,0,0,1,1.61-2.514q9.056-9.016,18.08-18.065a5.427,5.427,0,0,1,3.238-1.622,3.29,3.29,0,0,0,1.729-.751c1.539-1.448,2.985-3,4.426-4.464l-2.255-2.277c-.162.113-.43.425-.581.376a1.236,1.236,0,0,1-.668-.614,10.223,10.223,0,0,1-.789-2.172,2.019,2.019,0,0,1,1.464-2.406,7.228,7.228,0,0,0,1.551-.608,8.189,8.189,0,0,0,1.832-1.562,2.023,2.023,0,0,0-.32-3.053c-.692-.627-.628-.981.238-1.32a3.091,3.091,0,0,1,4.419,2.46.943.943,0,0,0,.165.466c.954.983,1.924,1.95,2.8,2.833a7.856,7.856,0,0,1,1.545-.221,2.113,2.113,0,0,1,1.963,1.52,2.253,2.253,0,0,1-.6,2.469q-3.341,3.342-6.683,6.683Q19.437,30.215,5.721,43.949a3.3,3.3,0,0,1-5.48-.988c-.093-.232-.161-.473-.241-.71v-.915M24.01,24.128c-1.488.073-2.882.174-4.277.2A5.336,5.336,0,0,0,15.9,26.018Q8.971,32.986,2.009,39.923a5.024,5.024,0,0,0-.512.562A2.164,2.164,0,0,0,2.812,43.9a2.369,2.369,0,0,0,2.273-.813q9.255-9.277,18.524-18.54c.115-.115.225-.235.4-.421m-5.138-.811c1.218-.055,2.586-.145,3.955-.173a5.409,5.409,0,0,0,3.893-1.679q6.067-6.107,12.17-12.178a3.5,3.5,0,0,0,.407-.451,1.231,1.231,0,0,0-.156-1.619,1.253,1.253,0,0,0-1.628-.1,4.488,4.488,0,0,0-.444.416q-5.6,5.6-11.2,11.206a5.142,5.142,0,0,1-2.919,1.5,3.94,3.94,0,0,0-1.853.709,24.725,24.725,0,0,0-2.222,2.364m7.162-13.246A3.5,3.5,0,0,1,28.48,8.611a5.531,5.531,0,0,0,3.986-3.082,3.651,3.651,0,0,0,.056-3.6,1.712,1.712,0,0,0-2.1-.732c.068.1.133.2.2.291a2.932,2.932,0,0,1,.211,3.252A5.522,5.522,0,0,1,28.305,7.16a16.32,16.32,0,0,1-1.65.641,1.064,1.064,0,0,0-.839,1.306,8.884,8.884,0,0,0,.219.964m1.144.152,2.774,2.766,1.026-.859c-.785-.779-1.523-1.521-2.276-2.247a.488.488,0,0,0-.391-.135c-.387.131-.757.313-1.133.476M33.955,4.64c-.15.4-.318.816-.46,1.244a.364.364,0,0,0,.085.3c.532.559,1.077,1.107,1.6,1.637l1-.931L33.955,4.64M31.008,8.732l-1.2.617L31.749,11.3l.907-.92L31.008,8.732m3.374-.1L32.827,7.011l-.881.969L33.49,9.514l.892-.886" transform="translate(0 0)" fill="#fff"/>
      <path id="Path_860" data-name="Path 860" d="M383.723,226.938a2.782,2.782,0,0,1-2.007.248.693.693,0,0,1-.287-.483.608.608,0,0,1,.288-.431,2.8,2.8,0,0,1,2.007.259Z" transform="translate(-342.657 -203.188)" fill="#fff"/>
      <path id="Path_861" data-name="Path 861" d="M111.119,59.934c-.3-.3-.6-.478-.7-.732a4.469,4.469,0,0,0-2.6-2.611.957.957,0,0,1-.5-.706.946.946,0,0,1,.5-.706,4.63,4.63,0,0,0,2.617-2.609.963.963,0,0,1,.707-.5.951.951,0,0,1,.709.5,4.572,4.572,0,0,0,2.614,2.609.955.955,0,0,1,.5.711.97.97,0,0,1-.513.7,4.574,4.574,0,0,0-2.6,2.624c-.1.253-.411.422-.719.721m-2.056-4.055,2.07,2.085,2.091-2.08-2.08-2.085-2.082,2.08" transform="translate(-96.399 -46.773)" fill="#fff"/>
      <path id="Path_862" data-name="Path 862" d="M252.487,307.422c-.287.312-.447.633-.7.733a4.565,4.565,0,0,0-2.642,2.645.967.967,0,0,1-.726.476.894.894,0,0,1-.676-.475,4.455,4.455,0,0,0-2.633-2.645.973.973,0,0,1-.49-.722.9.9,0,0,1,.477-.677,4.559,4.559,0,0,0,2.653-2.633.948.948,0,0,1,.722-.482.961.961,0,0,1,.707.506,4.422,4.422,0,0,0,2.574,2.57c.254.1.428.4.73.7m-1.956.026-2.072-2.08-2.1,2.079,2.1,2.091,2.075-2.089" transform="translate(-219.758 -272.776)" fill="#fff"/>
      <path id="Path_863" data-name="Path 863" d="M64.337,166.031a1.479,1.479,0,0,1,.016-.6c.1-.195.31-.451.48-.457a.669.669,0,0,1,.516.408,4.545,4.545,0,0,1,0,1.4.691.691,0,0,1-.521.4c-.15.011-.4-.232-.462-.413a2.293,2.293,0,0,1-.019-.748h-.008" transform="translate(-57.776 -148.208)" fill="#fff"/>
      <path id="Path_864" data-name="Path 864" d="M65.32,205.831a1.627,1.627,0,0,1-.018.651c-.094.193-.331.434-.507.435a.673.673,0,0,1-.49-.437,4.021,4.021,0,0,1,0-1.312c.03-.183.326-.47.471-.452a.876.876,0,0,1,.534.463,1.579,1.579,0,0,1,.018.651h0" transform="translate(-57.718 -183.906)" fill="#fff"/>
      <path id="Path_865" data-name="Path 865" d="M368.374,241.674a1.46,1.46,0,0,1-.016.6c-.1.208-.319.485-.5.5a.7.7,0,0,1-.507-.461,3.815,3.815,0,0,1,0-1.3c.031-.182.331-.464.474-.444a.88.88,0,0,1,.527.469,1.582,1.582,0,0,1,.018.646h0" transform="translate(-329.961 -216.106)" fill="#fff"/>
      <path id="Path_866" data-name="Path 866" d="M368.421,202.049a1.609,1.609,0,0,1-.018.646c-.092.191-.325.43-.5.434a.662.662,0,0,1-.492-.422,4.316,4.316,0,0,1,0-1.351.665.665,0,0,1,.488-.43c.175,0,.42.237.505.427a1.85,1.85,0,0,1,.02.7" transform="translate(-330.014 -180.501)" fill="#fff"/>
      <path id="Path_867" data-name="Path 867" d="M79.648,191.4a1.624,1.624,0,0,1-.647-.018c-.192-.092-.437-.33-.433-.5a.676.676,0,0,1,.445-.484,4.309,4.309,0,0,1,1.354,0,.67.67,0,0,1,.429.5c0,.17-.255.4-.45.486a1.922,1.922,0,0,1-.7.019v0" transform="translate(-70.581 -170.998)" fill="#fff"/>
      <path id="Path_868" data-name="Path 868" d="M343.143,227.367a1.794,1.794,0,0,1-.7-.02.768.768,0,0,1-.4-.525.625.625,0,0,1,.415-.453,4.618,4.618,0,0,1,1.364,0,.663.663,0,0,1,.424.493c0,.172-.251.4-.445.488a1.69,1.69,0,0,1-.652.018v0" transform="translate(-307.269 -203.314)" fill="#fff"/>
      <path id="Path_869" data-name="Path 869" d="M39.9,190.383a1.621,1.621,0,0,1,.652.018.874.874,0,0,1,.472.52c.02.14-.266.436-.45.469a3.607,3.607,0,0,1-1.262,0,.771.771,0,0,1-.5-.491c-.069-.33.187-.514.53-.522.186,0,.373,0,.559,0v0" transform="translate(-34.853 -171.008)" fill="#fff"/>
    </g>
  </g>
</svg>
