<svg id="Doctors-category-icon-6" xmlns="http://www.w3.org/2000/svg" xmlns:xlink="http://www.w3.org/1999/xlink" width="44" height="39" viewBox="0 0 44 39">
  <defs>
    <clipPath id="clip-path">
      <rect id="Rectangle_17081" data-name="Rectangle 17081" width="44" height="39" transform="translate(0.001 -0.46)" fill="#fff"/>
    </clipPath>
  </defs>
  <g id="Group_35460" data-name="Group 35460" transform="translate(-0.001 0.46)" clip-path="url(#clip-path)">
    <path id="Path_873" data-name="Path 873" d="M19.637,0h4.44a2.821,2.821,0,0,0,.374.063,50.6,50.6,0,0,1,7.361.793,35.518,35.518,0,0,1,9.55,2.987,11.57,11.57,0,0,1,1.178.577,3.1,3.1,0,0,1,1.174,1.813v.939c-.356,1.152-.715,2.3-1.066,3.455-.6,1.982-1.23,3.958-1.788,5.953A2.191,2.191,0,0,1,38.7,18.34c-.583.009-1.166,0-1.749,0a3.242,3.242,0,0,1-2.412-.546,2.469,2.469,0,0,1-1.749.549c-.611-.016-1.223-.018-1.834,0a2.562,2.562,0,0,1-2.194-.708,2.944,2.944,0,0,1-2.17.709c-.725-.018-1.451-.023-2.176,0a3.061,3.061,0,0,1-2.563-.86,3.023,3.023,0,0,1-2.561.859c-.554-.02-1.109-.015-1.664,0a3.487,3.487,0,0,1-2.683-.7,2.355,2.355,0,0,1-1.894.7c-.64-.016-1.28-.018-1.92,0a2.63,2.63,0,0,1-1.882-.48,4.951,4.951,0,0,1-1.257.435,29.191,29.191,0,0,1-3.323,0A2,2,0,0,1,2.9,16.744c-.157-.6-.324-1.206-.507-1.8Q1.2,11.055,0,7.173V6.234A3.033,3.033,0,0,1,1.607,4.152c1.1-.5,2.2-1,3.322-1.418A44.963,44.963,0,0,1,17.519.162C18.225.111,18.931.055,19.637,0M40.7,12.17c.529-1.716,1.052-3.367,1.542-5.029a1.453,1.453,0,0,0-.831-1.766c-.456-.2-.908-.4-1.362-.6A42.325,42.325,0,0,0,25.772,1.548,56.171,56.171,0,0,0,15.205,1.8,41.613,41.613,0,0,0,5.191,4.153c-.874.335-1.7.787-2.578,1.117A1.512,1.512,0,0,0,1.539,7.362Q2.221,9.6,2.914,11.843c.029.1.069.187.125.336a3.533,3.533,0,0,1,6.131-.89,3.54,3.54,0,0,1,2.961-1.4,3.653,3.653,0,0,1,2.839,1.6c.035-.127.047-.167.057-.208a3.346,3.346,0,0,1,6.605-.012c.059.252.122.5.184.754l.1.035c.28-2.018,1.2-3.5,3.383-3.564,1.937-.058,3.032,1.1,3.451,2.965a3.591,3.591,0,0,1,5.795-.2,3.577,3.577,0,0,1,6.152.915M25.383,16.915h0c.512,0,1.024.005,1.535,0a1.183,1.183,0,0,0,1.243-1.488q-.427-2.064-.924-4.113a1.847,1.847,0,0,0-1.879-1.43,1.872,1.872,0,0,0-1.852,1.473c-.321,1.368-.619,2.741-.908,4.117a1.17,1.17,0,0,0,1.164,1.438c.54.014,1.08,0,1.62,0m-7.06,0v0c.569,0,1.138.018,1.706,0a1.145,1.145,0,0,0,1.109-1.3c-.3-1.488-.624-2.973-1-4.444A1.794,1.794,0,0,0,18.32,9.884a1.819,1.819,0,0,0-1.807,1.3c-.362,1.43-.682,2.873-.967,4.321a1.152,1.152,0,0,0,1.2,1.41c.526.011,1.052,0,1.578,0m-4.228-2.192h0c0-.469.012-.938,0-1.406a2.109,2.109,0,0,0-2.1-2.036,2.087,2.087,0,0,0-2.1,1.992c-.034.965-.02,1.931-.009,2.9a.669.669,0,0,0,.74.743q1.363.014,2.727,0a.675.675,0,0,0,.743-.741c.011-.483,0-.966,0-1.449m-5.639-.006c0-.455.009-.909,0-1.364a2.114,2.114,0,0,0-2.07-2.072,2.087,2.087,0,0,0-2.133,2c-.039.964-.023,1.931-.01,2.9a.671.671,0,0,0,.748.737q1.364.013,2.727,0a.678.678,0,0,0,.739-.747c.011-.483,0-.966,0-1.449m31.022.011h-.014c0-.511.03-1.025-.006-1.533a2.1,2.1,0,0,0-4.193.115c-.021.951-.012,1.9,0,2.855a.674.674,0,0,0,.737.747q1.363.015,2.727,0a.676.676,0,0,0,.749-.736c.017-.482,0-.966,0-1.449M29.621,14.7h0c0,.483-.007.966,0,1.449a.684.684,0,0,0,.766.762q1.342.012,2.684,0a.669.669,0,0,0,.759-.723c.013-.98.028-1.961-.01-2.939A2.084,2.084,0,0,0,31.7,11.282a2.109,2.109,0,0,0-2.081,2.059c-.012.454,0,.909,0,1.363" transform="translate(0.018 -0.001)" fill="#fff"/>
    <path id="Path_874" data-name="Path 874" d="M24.077,249.317h-4.44c-.124-.022-.248-.055-.373-.065-1.457-.119-2.919-.2-4.371-.359a40.727,40.727,0,0,1-10.836-2.647c-.813-.33-1.615-.691-2.413-1.058A3.087,3.087,0,0,1,0,243.084V242.06c.354-1.119.719-2.236,1.06-3.359q.939-3.1,1.854-6.2a2.136,2.136,0,0,1,2.044-1.519c.668-.014,1.337.006,2.006-.005a2.873,2.873,0,0,1,2.2.554,2.465,2.465,0,0,1,1.749-.556c.64.016,1.281.021,1.92,0a2.521,2.521,0,0,1,2.033.607,5.63,5.63,0,0,1,1.482-.538,31.476,31.476,0,0,1,3.96,0,6.053,6.053,0,0,1,1.663.66,2.765,2.765,0,0,1,2.1-.732c.711.016,1.423.019,2.134,0a3.323,3.323,0,0,1,2.56.7,2.363,2.363,0,0,1,1.933-.7c.64.017,1.281.018,1.92,0a2.587,2.587,0,0,1,1.809.449A8.151,8.151,0,0,1,35.97,231c.934-.064,1.877-.034,2.815-.014a2.107,2.107,0,0,1,2.029,1.589c.135.522.273,1.044.431,1.559q1.229,4.01,2.469,8.016v.939c-.053.144-.108.286-.158.431a2.724,2.724,0,0,1-1.448,1.653c-1.015.47-2.038.932-3.083,1.329a44.9,44.9,0,0,1-12.661,2.649q-1.144.087-2.287.171M3.021,237.133c-.532,1.73-1.062,3.395-1.551,5.071a1.434,1.434,0,0,0,.824,1.731c.466.208.934.41,1.4.615a42.5,42.5,0,0,0,14.274,3.22,56.563,56.563,0,0,0,9.632-.154,42.559,42.559,0,0,0,10.706-2.371c.955-.358,1.863-.845,2.818-1.2a1.5,1.5,0,0,0,1.062-2.029c-.323-1.075-.654-2.147-.983-3.219-.164-.533-.333-1.064-.513-1.639a3.58,3.58,0,0,1-6.162.892,3.528,3.528,0,0,1-2.931,1.385,3.621,3.621,0,0,1-2.851-1.6c-.061.231-.1.38-.139.529a3.317,3.317,0,0,1-4.314,2.311A3.362,3.362,0,0,1,22.04,237.9c-.039-.205-.092-.407-.139-.611a6.144,6.144,0,0,1-1.065,2.437,3.329,3.329,0,0,1-2.364,1.12,3.244,3.244,0,0,1-1.981-.547,3.52,3.52,0,0,1-1.516-2.492,3.623,3.623,0,0,1-2.89,1.621,3.555,3.555,0,0,1-2.914-1.392,3.564,3.564,0,0,1-6.15-.907M18.331,232.4h0c-.512,0-1.024-.005-1.535,0a1.182,1.182,0,0,0-1.243,1.487q.422,2.043.913,4.071a1.925,1.925,0,0,0,3.742,0c.322-1.368.62-2.741.908-4.116a1.169,1.169,0,0,0-1.165-1.437c-.54-.014-1.08,0-1.62,0m7.04,0v0c-.554,0-1.109-.016-1.663,0a1.155,1.155,0,0,0-1.129,1.32c.3,1.46.617,2.916.979,4.361a1.913,1.913,0,0,0,3.632.062c.372-1.442.694-2.9.979-4.361a1.148,1.148,0,0,0-1.22-1.388c-.526-.009-1.052,0-1.578,0M8.455,234.621h0c0-.5.01-.994,0-1.491a.667.667,0,0,0-.716-.724q-1.385-.017-2.77,0a.659.659,0,0,0-.725.713c-.013.994-.034,1.99.014,2.982A2.08,2.08,0,0,0,6.4,238.035a2.116,2.116,0,0,0,2.049-2.05c.013-.454,0-.909,0-1.363m26.8-.031h0c0,.469-.012.938,0,1.406a2.115,2.115,0,0,0,2.06,2.039,2.073,2.073,0,0,0,2.131-1.905c.053-1.006.031-2.016.018-3.024a.657.657,0,0,0-.736-.7q-1.363-.013-2.727,0a.677.677,0,0,0-.747.738c-.011.483,0,.966,0,1.449m-21.165.031h0c0-.5.009-.994,0-1.491a.664.664,0,0,0-.714-.725q-1.385-.017-2.769,0a.657.657,0,0,0-.724.713c-.013.98-.028,1.961.008,2.939A2.087,2.087,0,0,0,12,238.036a2.111,2.111,0,0,0,2.089-2.051c.013-.454,0-.909,0-1.363m15.526-.014h0c0,.469-.013.938,0,1.406a2.111,2.111,0,0,0,2.073,2.023,2.085,2.085,0,0,0,2.122-1.964c.039-.978.023-1.96.011-2.939a.668.668,0,0,0-.753-.729q-1.342-.012-2.684,0c-.524,0-.765.258-.773.8-.006.469,0,.937,0,1.406" transform="translate(0.018 -211.238)" fill="#fff"/>
    <path id="Path_875" data-name="Path 875" d="M303.43,36.864l-.556,1.291a42.142,42.142,0,0,0-13.822-2.861c0-.31,0-.578,0-.846,0-.168.02-.336.035-.562a43.38,43.38,0,0,1,14.342,2.978" transform="translate(-264.354 -30.993)" fill="#fff"/>
    <path id="Path_876" data-name="Path 876" d="M256.263,34.091V34.08a.68.68,0,1,1,1.361,0v.011a.68.68,0,1,1-1.361,0" transform="translate(-234.365 -30.549)" fill="#fff"/>
    <path id="Path_877" data-name="Path 877" d="M68.939,364.932v1.41a43.511,43.511,0,0,1-14.35-2.979l.552-1.294a42.112,42.112,0,0,0,13.8,2.863" transform="translate(-49.91 -331.156)" fill="#fff"/>
    <path id="Path_878" data-name="Path 878" d="M241.083,397.2h0a.688.688,0,0,1-.688.688h0a.688.688,0,1,1,0-1.376h0a.688.688,0,0,1,.688.688" transform="translate(-219.223 -362.659)" fill="#fff"/>
  </g>
</svg>
