<?xml version="1.0" standalone="no"?>
<!DOCTYPE svg PUBLIC "-//W3C//DTD SVG 1.1//EN" "http://www.w3.org/Graphics/SVG/1.1/DTD/svg11.dtd" >
<svg xmlns="http://www.w3.org/2000/svg" xmlns:xlink="http://www.w3.org/1999/xlink" version="1.1">
<metadata>
Created by FontForge 20170731 at Tue Dec  6 20:08:00 2022
 By Aleksey,,,
Copyright (c) Boutros International, 2004. All rights reserved.
</metadata>
<defs>
<font id="GESSTwoLight-Light" horiz-adv-x="0" >
  <font-face 
    font-family="GE SS Two Light"
    font-weight="300"
    font-stretch="normal"
    units-per-em="2048"
    panose-1="2 10 5 3 2 1 2 2 2 4"
    ascent="1638"
    descent="-410"
    bbox="-233 -825 2615 1985"
    underline-thickness="102"
    underline-position="-307"
    unicode-range="U+0020-FEFF"
  />
<missing-glyph horiz-adv-x="1024" 
d="M129 0h768v1536h-768v-1536zM256 129v1280h512v-1280h-512z" />
    <glyph glyph-name="alefmaddaabovearabic" unicode="&#x627;&#x653;" horiz-adv-x="440" 
d="M330 0v1325h-144v-1325h144zM498 1487l-35 47q-49 -55 -90 -55q-29 0 -94 32q-72 35 -107 35q-70 0 -123 -80l35 -47q51 60 84 60q32 0 100 -35t103 -35q61 0 127 78z" />
    <glyph glyph-name="alefhamzaabovearabic" unicode="&#x627;&#x654;" horiz-adv-x="440" 
d="M330 0v1325h-144v-1325h144zM459 1620q-27 131 -160 131q-83 0 -125.5 -49t-42.5 -131q0 -40 14 -72h-82v-82h392v82h-219q-21 30 -21 74q0 110 84 110q64 0 76 -71z" />
    <glyph glyph-name="wawhamzaabovearabic" unicode="&#x648;&#x654;" horiz-adv-x="991" 
d="M903 479q0 199 -109 328t-276 129q-174 0 -282.5 -126.5t-108.5 -324.5q0 -199 111 -326.5t280 -127.5q175 0 242 116q-6 -346 -289 -346v-137q225 12 328.5 135t103.5 375v305zM764 479q0 -137 -66.5 -228t-177.5 -91t-181.5 93t-70.5 234q0 137 66 229.5t176 92.5
q112 0 183 -95t71 -235zM766 1298q-34 162 -197 162q-94 0 -149 -58.5t-55 -162.5q0 -47 16 -90h-100v-100h483v100h-270q-25 39 -25 90q0 137 100 137q81 0 99 -88z" />
    <glyph glyph-name="alefhamzabelowarabic" unicode="&#x627;&#x655;" horiz-adv-x="460" 
d="M350 0v1325h-143v-1325h143zM442 -215q-27 129 -159 129q-82 0 -129 -53q-37 -46 -37 -125q0 -42 12 -72h-80v-82h393v82h-221q-20 26 -20 72q0 110 84 110q62 0 77 -71z" />
    <glyph glyph-name="yehhamzaabovearabic" unicode="&#x64a;&#x654;" horiz-adv-x="1492" 
d="M553 1008q-35 159 -197 159q-96 0 -150 -59t-54 -162q0 -45 16 -88h-100v-100h485v100h-272q-25 39 -25 88q0 139 100 139q81 0 99 -90zM1405 360v191h-502q88 352 424 352v125q-274 0 -428 -156t-174 -466h539q0 -279 -142.5 -443t-386.5 -164q-226 0 -364.5 142.5
t-157.5 394.5q-2 20 -2 221h-145v-197q0 -195 87 -355.5t239 -252.5t337 -92h12q140 0 263.5 54.5t211 148t138.5 223t51 274.5z" />
    <glyph glyph-name="shaddadammatanarabic" unicode="&#x64c;&#x651;" arabic-form="isolated" 
d="M332 1882q0 39 -31 69.5t-74 30.5q-40 0 -63 -26.5t-23 -63.5q0 -68 64 -123q-62 -59 -166 -65q43 55 43 106q0 38 -22.5 64.5t-53.5 26.5q-27 0 -55 -25q15 6 33 6q61 0 61 -78q0 -58 -41 -102q9 -22 12 -35q142 0 229 72.5t87 142.5zM399 1524l-30 155l-43 -8l26 -139
q2 -6 2 -21q0 -45 -37 -45q-62 0 -77 76l-21 105l-45 -13l21 -104q4 -20 4 -31q0 -28 -17 -51t-45 -23q-32 0 -41 48l-28 139l-43 -13l32 -155q15 -74 76 -74q48 0 69 34t21 101q41 -92 96 -92q40 0 63.5 19.5t23.5 48.5q0 11 -7 43zM227 1786q-57 34 -57 104q0 26 19 47
t44 21t45.5 -21t20.5 -47q0 -57 -72 -104z" />
    <glyph glyph-name="shaddakasratanarabic" unicode="&#x64d;&#x651;" arabic-form="isolated" 
d="M391 1769l-31 160l-43 -12l27 -137q2 -8 2 -23q0 -45 -41 -45q-56 0 -72 78l-22 104l-45 -12l20 -102q4 -24 4 -33q0 -29 -16 -51.5t-43 -22.5q-34 0 -43 47l-27 138l-45 -9l33 -157q15 -74 76 -74q48 0 69 34.5t21 102.5q43 -94 96 -94q39 0 62.5 21t23.5 49q0 14 -6 38
zM451 1634l-299 -84q-45 -17 -66 -61q44 12 109 28.5t99 25.5t72.5 23t58 30.5t26.5 37.5zM432 1511l-297 -84q-47 -18 -65 -61q44 13 107.5 28.5t98.5 25t72.5 23t57 30t26.5 38.5z" />
    <glyph glyph-name="shaddafathaarabic" unicode="&#x64e;&#x651;" arabic-form="isolated" 
d="M348 1798l-297 -82q-44 -17 -63 -59q41 11 105.5 26.5t98 24.5t72 22.5t58 30t26.5 37.5zM379 1513l-31 160l-43 -12l27 -137q2 -6 2 -19q0 -47 -43 -47q-57 0 -72 78l-20 102l-45 -10l20 -104q2 -10 2 -27q0 -32 -15.5 -56t-43.5 -24q-31 0 -43 47l-27 140l-43 -11
l33 -155q15 -74 74 -74q92 0 92 135q40 -94 96 -94q38 0 61 21t23 49q0 6 -4 38z" />
    <glyph glyph-name="shaddadammaarabicX" unicode="&#x64f;&#x651;" arabic-form="isolated" 
d="M301 1882q0 42 -29.5 72.5t-72.5 30.5q-38 0 -62 -27.5t-24 -65.5q0 -68 61 -120q-70 -70 -172 -70h-27q11 -23 14.5 -27t16.5 -4q130 0 212.5 71t82.5 140zM379 1530l-31 158l-43 -11l27 -137q2 -6 2 -18q0 -47 -43 -47q-57 0 -72 75l-20 103l-45 -8l20 -105
q2 -10 2 -27q0 -31 -17 -56t-42 -25q-14 0 -26.5 12.5t-16.5 36.5l-27 139l-43 -10l33 -156q15 -76 74 -76q92 0 92 138q41 -95 96 -95q39 0 61.5 20t22.5 48q0 9 -4 41zM199 1786q-58 37 -58 104q0 29 18.5 48.5t47.5 19.5q25 0 44 -19.5t19 -48.5q0 -57 -71 -104z" />
    <glyph glyph-name="shaddakasraarabic" unicode="&#x650;&#x651;" arabic-form="isolated" 
d="M367 1630l-33 160l-43 -12l28 -138q3 -12 3 -22q0 -43 -43 -43q-54 0 -72 78l-23 100l-43 -8l21 -105q4 -20 4 -30q0 -29 -17 -52.5t-45 -23.5q-34 0 -43 47l-26 139l-43 -10l31 -156q15 -73 75 -73h21q71 17 71 135q40 -94 95 -94q41 0 63.5 20t22.5 49q0 7 -4 39z
M420 1509l-299 -79q-42 -21 -64 -62q34 9 80 20t74.5 18t63 16t55.5 17.5t41.5 19t32 23t16.5 27.5z" />
    <glyph glyph-name="alefwithfathatanfinal" unicode="&#xfe8e;&#x64b;" horiz-adv-x="618" arabic-form="final" 
d="M678 0v143q-58 0 -95.5 1t-74.5 6t-58.5 12.5t-41.5 22t-30 33t-17.5 48t-10 63.5t-2.5 83v913h-147v-999q0 -148 77.5 -237t196.5 -89h203zM465 1649l-299 -80q-46 -21 -64 -62q40 11 106.5 27t99 25t72 23t59 30t26.5 37zM446 1526l-296 -80q-44 -20 -66 -62
q40 11 107 27t99 24.5t71.5 22.5t58.5 30.5t26 37.5z" />
    <glyph glyph-name="alefwithfathatanisolated" unicode="&#x627;&#x64b;" horiz-adv-x="440" arabic-form="isolated" 
d="M330 0v1325h-144v-1325h144zM465 1649l-299 -80q-46 -21 -64 -62q40 11 106.5 27t99 25t72 23t59 30t26.5 37zM446 1526l-296 -80q-44 -20 -66 -62q40 11 107 27t99 24.5t71.5 22.5t58.5 30.5t26 37.5z" />
    <glyph glyph-name="allahisolated" unicode="&#xfedf;&#xfee0;&#xfeea;" horiz-adv-x="2430" arabic-form="isolated" 
d="M1716 1618l-33 160l-43 -13l29 -137q2 -8 2 -22q0 -45 -41 -45q-59 0 -74 77l-20 105l-45 -12l20 -103q5 -25 5 -31q0 -28 -17 -51.5t-45 -23.5q-34 0 -43 47l-25 137l-45 -8l31 -158q15 -74 76 -74q92 0 92 138q41 -95 94 -95q41 0 64.5 20.5t23.5 49.5q0 15 -6 39z
M2343 1325h-145v-901q0 -112 -21.5 -173t-63.5 -84.5t-118 -23.5h-389q41 84 41 217v965h-144v-901q0 -162 -45.5 -222.5t-159.5 -60.5h-147q-123 0 -192.5 85.5t-69.5 240.5v657h-434q-174 0 -281.5 -138t-107.5 -357q0 -135 47 -246.5t130.5 -176.5t186.5 -65
q220 0 313 158q89 -299 392 -299h907q301 0 301 360v965zM741 655q0 -401 -264 -401q-118 0 -193 111.5t-75 271.5q0 163 76 272t196 109h260v-363z" />
    <glyph glyph-name="lamalefmaddaaboveisolatedarabi" unicode="&#xfedf;&#xfe82;" horiz-adv-x="1120" arabic-form="isolated" 
d="M1032 1325h-143v-901q0 -163 -46.5 -223t-158.5 -60h-61l-258 1026h-156l264 -1026h-334v-141h592q301 0 301 360v965zM498 1370l-35 47q-49 -55 -90 -55q-10 0 -95.5 34t-105.5 34q-70 0 -123 -80l35 -47q50 59 84 59q18 0 101 -35t102 -35q61 0 127 78z" />
    <glyph glyph-name="lamalefmaddaabovefinalarabic" unicode="&#xfee0;&#xfe82;" horiz-adv-x="1300" arabic-form="final" 
d="M1339 0v143h-354q43 82 43 217v965h-145v-901q0 -163 -45 -223t-160 -60h-60l-260 1026h-153l264 -1026h-334v-141h1204zM498 1370l-35 47q-49 -55 -90 -55q-10 0 -95.5 34t-105.5 34q-70 0 -123 -80l35 -47q50 59 84 59l203 -70q61 0 127 78z" />
    <glyph glyph-name="lamalefhamzaaboveisolatedarabi" unicode="&#xfedf;&#xfe84;" horiz-adv-x="1120" arabic-form="isolated" 
d="M1032 1325h-143v-901q0 -163 -46.5 -223t-158.5 -60h-61l-258 1026h-156l264 -1026h-334v-141h592q301 0 301 360v965zM459 1520q-27 131 -160 131q-83 0 -125.5 -49.5t-42.5 -131.5q0 -39 14 -71h-82v-82h392v82h-219q-21 30 -21 74q0 110 84 110q64 0 76 -72z" />
    <glyph glyph-name="lamalefhamzaabovefinalarabicX" unicode="&#xfee0;&#xfe84;" horiz-adv-x="1300" arabic-form="final" 
d="M1339 0v143h-354q43 82 43 217v965h-145v-901q0 -163 -45 -223t-160 -60h-60l-260 1026h-153l264 -1026h-334v-141h1204zM459 1520q-27 131 -160 131q-83 0 -125.5 -49.5t-42.5 -131.5q0 -39 14 -71h-82v-82h392v82h-219q-21 30 -21 74q0 110 84 110q64 0 76 -72z" />
    <glyph glyph-name="lamalefhamzabelowisolatedarabi" unicode="&#xfedf;&#xfe88;" horiz-adv-x="1120" arabic-form="isolated" 
d="M1032 1325h-143v-901q0 -140 -31 -197q-47 -86 -174 -86h-61l-258 1026h-156l264 -1026h-334v-141h592q301 0 301 360v965zM422 -215q-27 129 -160 129q-82 0 -129 -53q-37 -46 -37 -125q0 -40 13 -72h-80v-82h393v82h-221q-21 27 -21 72q0 110 84 110q63 0 78 -71z" />
    <glyph glyph-name="lamalefhamzabelowfinalarabicX" unicode="&#xfee0;&#xfe88;" horiz-adv-x="1300" arabic-form="final" 
d="M1339 0v143h-354q43 82 43 217v965h-145v-901q0 -163 -45 -223t-160 -60h-60l-260 1026h-153l264 -1026h-334v-141h1204zM422 -215q-27 129 -160 129q-77 0 -121.5 -46.5t-44.5 -131.5q0 -40 13 -72h-80v-82h393v82h-221q-21 27 -21 72q0 110 84 110q63 0 78 -71z" />
    <glyph glyph-name="lamalefisolatedarabic" unicode="&#xfedf;&#xfe8e;" horiz-adv-x="1120" arabic-form="isolated" 
d="M1032 1325h-143v-901q0 -140 -31 -197q-47 -86 -174 -86h-61l-258 1026h-156l264 -1026h-334v-141h592q301 0 301 360v965z" />
    <glyph glyph-name="lamaleffinalarabic" unicode="&#xfee0;&#xfe8e;" horiz-adv-x="1304" arabic-form="final" 
d="M1343 0v143h-354q43 82 43 217v965h-145v-901q0 -163 -45 -223t-160 -60h-59l-261 1026h-153l264 -1026h-334v-141h1204z" />
    <glyph glyph-name="hamzaarabic" unicode="&#x621;" horiz-adv-x="880" arabic-form="isolated" 
d="M793 354q-49 224 -279 224q-143 0 -221 -93q-68 -83 -68 -217q0 -64 25 -125h-144v-143h685v143h-385q-33 47 -33 125q0 195 145 195q112 0 133 -125z" />
    <glyph glyph-name="alefarabic" unicode="&#x627;" horiz-adv-x="440" arabic-form="isolated" 
d="M330 0v1325h-144v-1325h144z" />
    <glyph glyph-name="beharabic" unicode="&#x628;" horiz-adv-x="1671" arabic-form="isolated" 
d="M1583 930h-143v-506q0 -112 -21.5 -173t-63.5 -84.5t-118 -23.5h-594q-434 0 -434 453v336h-143v-336q0 -596 589 -596h629q299 0 299 360v570zM938 -311v174h-145v-174h145z" />
    <glyph glyph-name="tehmarbutaarabic" unicode="&#x629;" horiz-adv-x="1028" arabic-form="isolated" 
d="M721 1077v174h-146v-174h146zM453 1077v174h-146v-174h146zM940 475q0 207 -111 336q-120 135 -323 135t-322 -137q-118 -130 -118 -336q0 -212 114 -338q120 -135 324 -135q200 0 321 139q115 133 115 336zM776 487q0 -366 -272 -366q-139 0 -211 106q-62 89 -62 236
q0 157 62 252q73 110 221 110q136 0 207 -102q55 -88 55 -236z" />
    <glyph glyph-name="teharabic" unicode="&#x62a;" horiz-adv-x="1671" arabic-form="isolated" 
d="M1038 932v174h-145v-174h145zM770 932v174h-145v-174h145zM1583 930h-143v-506q0 -112 -21.5 -173t-63.5 -84.5t-118 -23.5h-594q-434 0 -434 453v336h-143v-336q0 -596 589 -596h629q299 0 299 360v570z" />
    <glyph glyph-name="theharabic" unicode="&#x62b;" horiz-adv-x="1671" arabic-form="isolated" 
d="M907 1157v174h-145v-174h145zM1042 932v174h-145v-174h145zM774 932v174h-147v-174h147zM1583 930h-143v-506q0 -112 -21.5 -173t-63.5 -84.5t-118 -23.5h-594q-434 0 -434 453v336h-143v-336q0 -596 589 -596h629q299 0 299 360v570z" />
    <glyph glyph-name="jeemarabic" unicode="&#x62c;" horiz-adv-x="1052" arabic-form="isolated" 
d="M963 498q2 20 2 61q0 290 -118 441t-349 151q-105 0 -152 -21v-124q55 28 119 28q160 0 249.5 -98.5t104.5 -292.5h-295q-112 0 -201.5 -42.5t-144 -113t-83.5 -156.5t-29 -179q0 -222 139.5 -356t361.5 -134h213v152h-213q-162 0 -254 88.5t-92 238.5q0 161 94.5 259
t251.5 98h396zM645 51v174h-145v-174h145z" />
    <glyph glyph-name="haharabic" unicode="&#x62d;" horiz-adv-x="1052" arabic-form="isolated" 
d="M963 498q2 20 2 61q0 290 -118 441t-349 151q-105 0 -152 -21v-124q55 28 119 28q160 0 249.5 -98.5t104.5 -292.5h-295q-112 0 -201.5 -42.5t-144 -113t-83.5 -156.5t-29 -179q0 -222 139.5 -356t361.5 -134h213v152h-213q-162 0 -254 88.5t-92 238.5q0 161 94.5 259
t251.5 98h396z" />
    <glyph glyph-name="khaharabic" unicode="&#x62e;" horiz-adv-x="1052" arabic-form="isolated" 
d="M698 1311v174h-145v-174h145zM963 498q2 20 2 61q0 290 -118 441t-349 151q-105 0 -152 -21v-124q55 28 119 28q160 0 249.5 -98.5t104.5 -292.5h-295q-112 0 -201.5 -42.5t-144 -113t-83.5 -156.5t-29 -179q0 -222 139.5 -356t361.5 -134h213v152h-213q-162 0 -254 88.5
t-92 238.5q0 161 94.5 259t251.5 98h396z" />
    <glyph glyph-name="dalarabic" unicode="&#x62f;" horiz-adv-x="1103" arabic-form="isolated" 
d="M1016 0q0 384 -94 588q-156 344 -592 344v-135h55q257 -15 379 -213q100 -163 100 -441h-758v-143h910z" />
    <glyph glyph-name="thalarabic" unicode="&#x630;" horiz-adv-x="1103" arabic-form="isolated" 
d="M567 1077v174h-145v-174h145zM1016 0q0 384 -94 588q-156 344 -592 344v-135h55q257 -15 379 -213q100 -163 100 -441h-758v-143h910z" />
    <glyph glyph-name="reharabic" unicode="&#x631;" horiz-adv-x="583" arabic-form="isolated" 
d="M496 930h-144v-783q0 -179 -71 -262.5t-215 -83.5v-137q225 12 327.5 135t102.5 375v756z" />
    <glyph glyph-name="zainarabic" unicode="&#x632;" horiz-adv-x="585" arabic-form="isolated" 
d="M498 1077v174h-146v-174h146zM496 930h-144v-783q0 -179 -71 -262.5t-215 -83.5v-137q225 12 327.5 135t102.5 375v756z" />
    <glyph glyph-name="seenarabic" unicode="&#x633;" horiz-adv-x="2418" arabic-form="isolated" 
d="M2331 930h-146v-506q0 -162 -44.5 -221.5t-160.5 -59.5h-245q39 79 39 217v570h-144v-506q0 -162 -37.5 -221.5t-136.5 -59.5h-258q25 118 25 217v570h-146v-596q-15 -249 -129 -392t-303 -143q-200 0 -318 162t-118 432v537h-143v-565q0 -152 45 -284t122 -224
t184 -144.5t228 -52.5q173 0 312 103t212 288q9 -30 9 -51h850q303 0 303 360v570z" />
    <glyph glyph-name="sheenarabic" unicode="&#x634;" horiz-adv-x="2418" arabic-form="isolated" 
d="M1913 1077v174h-146v-174h146zM1776 1305v174h-146v-174h146zM1645 1077v174h-146v-174h146zM2331 930h-146v-506q0 -162 -44.5 -221.5t-160.5 -59.5h-245q39 79 39 217v570h-144v-506q0 -162 -37.5 -221.5t-136.5 -59.5h-258q25 118 25 217v570h-146v-596
q-15 -249 -129 -392t-303 -143q-200 0 -318 162t-118 432v537h-143v-565q0 -152 45 -284t122 -224t184 -144.5t228 -52.5q173 0 312 103t212 288q9 -30 9 -51h850q303 0 303 360v570z" />
    <glyph glyph-name="sadarabic" unicode="&#x635;" horiz-adv-x="2430" arabic-form="isolated" 
d="M2337 0q10 143 10 238q0 694 -492 694q-175 0 -348 -125t-284 -338v461h-144v-537q0 -272 -115.5 -433t-318.5 -161q-200 0 -318 162t-118 432v537h-143v-565q0 -152 45 -284t122 -224t184 -144.5t228 -52.5q324 0 502 340h1190zM2195 141h-999q12 45 18 101
q97 236 279 397.5t352 161.5q167 0 262 -145t95 -386q0 -50 -7 -129z" />
    <glyph glyph-name="dadarabic" unicode="&#x636;" horiz-adv-x="2430" arabic-form="isolated" 
d="M1890 1077v174h-145v-174h145zM2337 0q10 143 10 238q0 694 -492 694q-175 0 -348 -125t-284 -338v461h-144v-537q0 -272 -115.5 -433t-318.5 -161q-200 0 -318 162t-118 432v537h-143v-565q0 -152 45 -284t122 -224t184 -144.5t228 -52.5q324 0 502 340h1190zM2195 141
h-999q12 45 18 101q97 236 279 397.5t352 161.5q167 0 262 -145t95 -386q0 -50 -7 -129z" />
    <glyph glyph-name="taharabic" unicode="&#x637;" horiz-adv-x="1611" arabic-form="isolated" 
d="M1509 0q15 129 15 238q0 694 -494 694q-199 0 -385.5 -154t-290.5 -407l33 952h-151v-1182h-170v-141h1443zM1370 141h-1014q48 170 156 322.5t245 245t263 92.5q165 0 260.5 -143.5t95.5 -387.5q0 -62 -6 -129z" />
    <glyph glyph-name="zaharabic" unicode="&#x638;" horiz-adv-x="1611" arabic-form="isolated" 
d="M1065 1077v174h-145v-174h145zM1509 0q15 129 15 238q0 694 -494 694q-199 0 -385.5 -154t-290.5 -407l33 952h-151v-1182h-170v-141h1443zM1370 141h-1014q48 170 156 322.5t245 245t263 92.5q165 0 260.5 -143.5t95.5 -387.5q0 -62 -6 -129z" />
    <glyph glyph-name="ainarabic" unicode="&#x639;" horiz-adv-x="1226" arabic-form="isolated" 
d="M1139 498v143h-551q-84 110 -84 238q0 165 64.5 255.5t183.5 90.5q195 0 229 -193l156 17q-26 127 -130 202.5t-257 75.5q-184 0 -293 -125t-109 -325q0 -150 62 -250q-154 -38 -249 -170t-95 -305q0 -222 139.5 -356t361.5 -134h258v152h-258q-162 0 -254 88.5
t-92 238.5q0 161 94.5 259t251.5 98h572z" />
    <glyph glyph-name="ghainarabic" unicode="&#x63a;" horiz-adv-x="1226" arabic-form="isolated" 
d="M825 1477v174h-145v-174h145zM1139 498v143h-551q-84 110 -84 238q0 165 64.5 255.5t183.5 90.5q195 0 229 -193l156 17q-26 127 -130 202.5t-257 75.5q-184 0 -293 -125t-109 -325q0 -150 62 -250q-154 -38 -249 -170t-95 -305q0 -222 139.5 -356t361.5 -134h258v152
h-258q-162 0 -254 88.5t-92 238.5q0 161 94.5 259t251.5 98h572z" />
    <glyph glyph-name="feharabic" unicode="&#x641;" horiz-adv-x="1886" arabic-form="isolated" 
d="M1450 1075v174h-145v-174h145zM1798 465q0 208 -115 335.5t-309 127.5q-198 0 -315 -130t-117 -335q0 -199 100 -320h-399q-434 0 -434 453v295h-143v-295q0 -596 589 -596h715q191 0 309.5 131.5t118.5 333.5zM1638 479q0 -360 -266 -360q-125 0 -197.5 91.5
t-72.5 244.5q0 165 71.5 259.5t206.5 94.5q122 0 190 -86t68 -244z" />
    <glyph glyph-name="qafarabic" unicode="&#x642;" horiz-adv-x="1449" arabic-form="isolated" 
d="M1165 1077v174h-147v-174h147zM897 1077v174h-147v-174h147zM1362 317v226q0 198 -107.5 309t-289.5 111q-180 0 -282.5 -114t-102.5 -312q0 -196 108 -310q111 -114 283 -114q159 0 250 108q-27 -220 -183 -330q-133 -92 -323 -92q-220 0 -361 156t-141 403v338h-147
v-364q0 -296 188 -484q191 -188 467 -188q301 0 469 174q172 175 172 483zM1217 528q0 -121 -56 -204q-67 -101 -190 -101q-126 0 -193 107q-53 86 -53 211q0 114 49 202q64 111 182 111h21q128 0 192 -113q48 -88 48 -213z" />
    <glyph glyph-name="kafarabic" unicode="&#x643;" horiz-adv-x="1671" arabic-form="isolated" 
d="M1071 944q-34 162 -199 162q-97 0 -150.5 -60t-53.5 -161q0 -45 16 -88h-100v-101h483v101h-270q-25 36 -25 90q0 135 102 135q80 0 95 -86zM1583 1325h-143v-901q0 -112 -21.5 -173t-63.5 -84.5t-118 -23.5h-594q-434 0 -434 453v336h-143v-336q0 -596 589 -596h629
q299 0 299 360v965z" />
    <glyph glyph-name="lamarabic" unicode="&#x644;" horiz-adv-x="1310" arabic-form="isolated" 
d="M209 393v168h-143v-196q0 -313 165 -508q170 -197 414 -197q243 0 408 195q170 200 170 510v960h-144v-932q0 -239 -96 -401q-114 -193 -338 -193q-221 0 -338 193q-98 165 -98 401z" />
    <glyph glyph-name="meemarabic" unicode="&#x645;" horiz-adv-x="1607" arabic-form="isolated" 
d="M1520 469q0 210 -115 335.5t-309 125.5h-592q-438 0 -438 -568v-694h143v686q0 210 78 330.5t217 120.5h280q-120 -129 -120 -336q0 -208 114 -335.5t316 -127.5q190 0 308 128.5t118 334.5zM1348 481q0 -342 -254 -342q-119 0 -186.5 87t-67.5 233q0 160 68.5 250
t193.5 90q117 0 181.5 -84.5t64.5 -233.5z" />
    <glyph glyph-name="noonarabic" unicode="&#x646;" horiz-adv-x="1310" arabic-form="isolated" 
d="M715 1077v174h-146v-174h146zM1223 930h-144v-537q0 -272 -115.5 -433t-318.5 -161q-200 0 -318 162t-118 432v537h-143v-565q0 -152 45 -284t122 -224t184 -144.5t228 -52.5q163 0 296 92.5t207.5 254t74.5 358.5v565z" />
    <glyph glyph-name="heharabic" unicode="&#x647;" horiz-adv-x="1028" arabic-form="isolated" 
d="M940 475q0 207 -111 336q-120 135 -323 135t-322 -137q-118 -130 -118 -336q0 -212 114 -338q120 -135 324 -135q200 0 321 139q115 133 115 336zM776 487q0 -366 -272 -366q-139 0 -211 106q-62 89 -62 236q0 157 62 252q73 110 221 110q136 0 207 -102q55 -88 55 -236z
" />
    <glyph glyph-name="wawarabic" unicode="&#x648;" horiz-adv-x="991" arabic-form="isolated" 
d="M903 479q0 199 -109 328t-276 129q-174 0 -282.5 -126.5t-108.5 -324.5q0 -199 111 -326.5t280 -127.5q175 0 242 116q-6 -346 -289 -346v-137q225 12 328.5 135t103.5 375v305zM764 479q0 -137 -67 -228t-177 -91q-111 0 -181.5 93t-70.5 234q0 137 66 229.5t176 92.5
q112 0 183 -95t71 -235z" />
    <glyph glyph-name="alefmaksuraarabic" unicode="&#x649;" horiz-adv-x="1492" arabic-form="isolated" 
d="M1405 360v191h-504q91 352 426 352v125q-274 0 -427.5 -155.5t-176.5 -466.5h541q0 -279 -142.5 -443t-386.5 -164q-226 0 -364.5 142t-157.5 395q-2 20 -2 221h-145v-197q0 -195 87 -355.5t239 -252.5t337 -92h12q139 0 262.5 54t211.5 147.5t139 223t51 275.5z" />
    <glyph glyph-name="yeharabic" unicode="&#x64a;" horiz-adv-x="1495" arabic-form="isolated" 
d="M1407 360l-2 191h-502q88 352 424 352v125q-274 0 -428 -156t-174 -466h539q0 -279 -142.5 -443t-386.5 -164q-226 0 -364.5 142.5t-157.5 394.5q-2 20 -2 221h-145v-197q0 -195 87 -355.5t239 -252.5t337 -92h12q137 0 260.5 54t212 146t141 220.5t52.5 271.5v8z
M942 -662v175h-145v-175h145zM674 -662v175h-146v-175h146z" />
    <glyph glyph-name="fathatanarabic" unicode="&#xfe70;" arabic-form="isolated" 
d="M424 1630l-299 -80q-46 -21 -64 -61q41 11 106.5 27t99 25t72.5 22.5t58.5 29.5t26.5 37zM406 1507l-297 -80q-45 -20 -66 -61q41 11 107.5 26.5t99.5 24.5t72 22.5t58 30t26 37.5z" />
    <glyph glyph-name="dammatanarabic" unicode="&#xfe72;" arabic-form="isolated" 
d="M432 1577q0 42 -29 72t-73 30q-36 0 -56 -20q-28 -28 -28 -72q0 -63 61 -121q-62 -59 -166 -65q43 52 43 106q0 38 -21.5 64t-51.5 26q-32 0 -56 -24q20 4 31 4q61 0 61 -76q0 -64 -38 -102q1 -5 3.5 -12.5t4 -13t2.5 -9.5q60 0 127 20q91 29 138.5 83.5t47.5 109.5z
M330 1483q-56 38 -56 104q0 27 18 47.5t44 20.5t45.5 -20.5t19.5 -49.5q0 -55 -71 -102z" />
    <glyph glyph-name="kasratanarabic" unicode="&#xfe74;" arabic-form="isolated" 
d="M412 -561l-299 -82q-43 -18 -64 -59q33 8 79 19t74 17.5t63 16t56 17.5t42 19t32.5 24t16.5 28zM395 -684l-299 -82q-43 -18 -61 -59q34 9 80 20t74 18t62.5 16t55 17.5t41 19t31.5 23t16 27.5z" />
    <glyph glyph-name="fathaarabic" unicode="&#xfe76;" arabic-form="isolated" 
d="M406 1507l-300 -82q-45 -20 -65 -59q42 11 106.5 26.5t98 24.5t73 22.5t59.5 30t28 37.5z" />
    <glyph glyph-name="dammaarabic" unicode="&#xfe78;" arabic-form="isolated" 
d="M301 1651q-28 28 -74 28q-37 0 -61.5 -28t-24.5 -66q0 -63 64 -121q-70 -67 -174 -67q-19 0 -27 2q3 -5 5 -16t7.5 -14t20.5 -3q127 0 211 72t84 139q0 38 -31 74zM227 1483q-57 34 -57 102q0 27 19 48.5t44 21.5q26 0 46 -21t20 -51q0 -53 -72 -100z" />
    <glyph glyph-name="kasraarabic" unicode="&#xfe7a;" arabic-form="isolated" 
d="M369 -545l-297 -82q-46 -18 -64 -59q64 17 156 41.5t121 32.5q69 18 84 67z" />
    <glyph glyph-name="shaddaarabic" unicode="&#xfe7c;" arabic-form="isolated" 
d="M379 1520l-31 157l-43 -10l27 -139q2 -6 2 -19q0 -47 -43 -47q-57 0 -72 78l-20 102l-45 -10l20 -104q2 -10 2 -27q0 -30 -17 -55t-42 -25q-31 0 -43 47l-27 140l-43 -11l33 -155q15 -74 74 -74q92 0 92 135q41 -92 96 -92q40 0 62 19.5t22 48.5q0 5 -4 41z" />
    <glyph glyph-name="sukunarabic" unicode="&#xfe7e;" arabic-form="isolated" 
d="M301 1542q-21 117 -119 117q-13 0 -37 -4q-98 -21 -98 -127q0 -15 4 -43q21 -117 119 -117q11 0 35 4q100 21 100 131q0 11 -4 39zM174 1628q41 0 68 -47q20 -36 20 -82q0 -100 -84 -100q-45 0 -69 47q-23 41 -23 84q0 81 68 96q6 2 20 2z" />
    <glyph glyph-name="alefwaslaisolated" unicode="&#x671;" horiz-adv-x="440" arabic-form="isolated" 
d="M330 0v1325h-144v-1325h144zM463 1425q0 261 -150 261q-127 0 -227 -222l6 142l-33 -2v-140h-57v-39h461zM414 1466h-299q98 170 196 170q103 0 103 -151v-19z" />
    <glyph glyph-name="peharabic" unicode="&#x67e;" horiz-adv-x="1671" arabic-form="isolated" 
d="M1583 930h-143v-506q0 -112 -21.5 -173t-63.5 -84.5t-118 -23.5h-594q-434 0 -434 453v336h-143v-336q0 -596 589 -596h629q299 0 299 360v570zM1092 -313v174h-148v-174h148zM823 -313v174h-147v-174h147zM956 -541v174h-145v-174h145z" />
    <glyph glyph-name="tcheharabic" unicode="&#x686;" horiz-adv-x="1052" arabic-form="isolated" 
d="M840 160v157h-146v-157h146zM963 498q2 20 2 61q0 290 -118 441t-349 151q-105 0 -152 -21v-124q55 28 119 28q160 0 249.5 -98.5t104.5 -292.5h-78q-225 0 -299 -12q-169 -27 -272.5 -161.5t-103.5 -317.5q0 -222 139.5 -356t361.5 -134h213v152h-213q-162 0 -254 88.5
t-92 238.5q0 161 94.5 259t251.5 98h396zM586 160v157h-146v-157h146zM713 -53v159h-148v-159h148z" />
    <glyph glyph-name="jeharabic" unicode="&#x698;" horiz-adv-x="589" arabic-form="isolated" 
d="M496 930h-144v-783q0 -179 -71 -262.5t-215 -83.5v-137q225 12 327.5 135t102.5 375v756zM369 1303v174h-146v-174h146zM502 1075v174h-146v-174h146zM233 1075v174h-145v-174h145z" />
    <glyph glyph-name="veharabic" unicode="&#x6a4;" horiz-adv-x="1886" arabic-form="isolated" 
d="M1446 1303v174h-146v-174h146zM1581 1075v174h-135v-174h135zM1313 1075v174h-148v-174h148zM1798 465q0 208 -115 335.5t-309 127.5q-198 0 -315 -130t-117 -335q0 -199 100 -320h-399q-434 0 -434 453v295h-143v-295q0 -596 589 -596h715q191 0 309.5 131.5
t118.5 333.5zM1638 479q0 -360 -266 -360q-125 0 -197.5 91.5t-72.5 244.5q0 165 71.5 259.5t206.5 94.5q122 0 190 -86t68 -244z" />
    <glyph glyph-name="alefwaslafinal" unicode="&#x671;" horiz-adv-x="618" arabic-form="final" 
d="M678 0v143q-158 0 -172 2q-83 12 -117 64q-41 62 -41 203v913h-147v-999q0 -163 88 -248q78 -78 186 -78h203zM479 1425q0 133 -36.5 197t-112.5 64q-128 0 -228 -222l7 142l-33 -2v-140h-58v-39h461zM430 1466h-299q98 170 197 170q102 0 102 -151v-19z" />
    <glyph glyph-name="pehfinalarabic" unicode="&#x67e;" horiz-adv-x="1900" arabic-form="final" 
d="M1923 0v143h-379q39 79 39 217v570h-143v-506q0 -136 -29 -199q-46 -82 -174 -82h-600q-428 0 -428 453v336h-143v-336q0 -596 589 -596h1268zM1092 -313v174h-148v-174h148zM823 -313v174h-147v-174h147zM956 -541v174h-145v-174h145z" />
    <glyph glyph-name="pehinitialarabic" unicode="&#x67e;" horiz-adv-x="583" arabic-form="initial" 
d="M475 930h-143v-506q0 -140 -31 -197q-44 -86 -174 -86h-147v-141h194q301 0 301 360v570zM477 -313v174h-145v-174h145zM209 -313v174h-148v-174h148zM342 -541v174h-145v-174h145z" />
    <glyph glyph-name="pehmedialarabic" unicode="&#x67e;" horiz-adv-x="671" arabic-form="medial" 
d="M690 0v143h-266q39 79 39 217v570h-144v-506q0 -140 -30 -199q-44 -84 -174 -84h-131v-141h706zM465 -313v174h-146v-174h146zM197 -313v174h-146v-174h146zM332 -541v174h-148v-174h148z" />
    <glyph glyph-name="vehfinalarabic" unicode="&#x6a4;" horiz-adv-x="2123" arabic-form="final" 
d="M1536 1483v174h-145v-174h145zM1673 1255v175h-137v-175h137zM1405 1255v175h-145v-175h145zM2157 0v143h-324q-114 0 -209 50q134 63 212.5 183t78.5 265q0 187 -122.5 306.5t-319.5 119.5q-196 0 -319.5 -119.5t-123.5 -306.5q0 -141 79 -263t212 -185
q-95 -50 -209 -50h-469q-434 0 -434 453v295h-143v-295q0 -596 589 -596h336q146 0 222 9.5t123 29t139 72.5q74 -42 105 -57.5t87 -31.5t116.5 -19t170.5 -3h203zM1475 279q-131 56 -209 160t-78 225q0 120 77.5 199t207.5 79q128 0 206 -77.5t78 -202.5q0 -122 -76 -225
t-206 -158z" />
    <glyph glyph-name="vehinitialarabic" unicode="&#x6a4;" horiz-adv-x="1212" arabic-form="initial" 
d="M764 1305v174h-146v-174h146zM897 1077v174h-145l12 -174h133zM629 1077v174h-146v-174h146zM1124 465q0 210 -115 336.5t-309 126.5q-196 0 -314 -131t-118 -334q0 -196 103 -320h-400v-143h727q191 0 308.5 131.5t117.5 333.5zM967 479q0 -360 -269 -360
q-125 0 -196.5 90.5t-71.5 245.5q0 166 71.5 260t205.5 94q125 0 192.5 -87.5t67.5 -242.5z" />
    <glyph glyph-name="vehmedialarabic" unicode="&#x6a4;" horiz-adv-x="1286" arabic-form="medial" 
d="M717 1466v174h-146v-174h146zM850 1239v174h-145v-174h145zM582 1239v174h-146v-174h146zM1319 0v143h-324q-114 0 -209 50q143 67 218 190q73 119 73 258q0 176 -110 295q-122 131 -332 131q-208 0 -330 -131q-112 -118 -112 -295q0 -139 73 -258q75 -124 217 -190
q-95 -50 -209 -50h-323v-143h203q172 0 237 12q110 20 246 99q137 -79 244 -99q65 -12 235 -12h203zM637 279q-144 61 -217 170q-70 101 -70 215q0 120 77.5 199t207.5 79q135 0 213 -84q74 -77 74 -196q0 -112 -72 -216q-75 -108 -213 -167z" />
    <glyph glyph-name="tchehfinalarabic" unicode="&#x686;" horiz-adv-x="1323" arabic-form="final" 
d="M1337 0v143h-82q-115 0 -200.5 130.5t-91.5 322.5q-18 553 -461 553q-109 0 -156 -21v-124q55 28 119 28q160 0 249.5 -98t104.5 -291h-78q-225 0 -299 -12q-169 -27 -272.5 -161.5t-103.5 -317.5q0 -222 139.5 -356t361.5 -134h213v152h-213q-162 0 -254 88.5t-92 238.5
q0 162 93.5 257.5t252.5 95.5h264q16 -133 77 -245.5t160 -180.5t214 -68h55zM782 143v160h-145v-160h145zM528 143v160h-145v-160h145zM655 -68v158h-147v-158h147z" />
    <glyph glyph-name="tchehinitialarabic" unicode="&#x686;" horiz-adv-x="1476" arabic-form="initial" 
d="M1389 207q0 318 -184.5 507t-491.5 189q-333 0 -508 -217q112 -112 125 -127q123 203 385 203q241 0 372.5 -142.5t131.5 -402.5l-5 -74h-1245v-143h1420v207zM932 -313v174h-146v-174h146zM664 -313v174h-146v-174h146zM799 -541v174h-148v-174h148z" />
    <glyph glyph-name="tchehmedialarabic" unicode="&#x686;" horiz-adv-x="1585" arabic-form="medial" 
d="M1614 0v143h-225v64q0 318 -184.5 507t-491.5 189q-333 0 -508 -217q112 -112 125 -127q123 203 385 203q241 0 372.5 -142.5t131.5 -402.5l-5 -74h-1245v-143h1645zM932 -313v174h-146v-174h146zM664 -313v174h-146v-174h146zM799 -541v174h-148l13 -174h135z" />
    <glyph glyph-name="jehfinalarabic" unicode="&#x698;" horiz-adv-x="804" arabic-form="final" 
d="M834 0v143h-338v787h-144v-783q0 -179 -71 -262.5t-215 -83.5v-137q357 21 415 336h353zM369 1303v174h-146v-174h146zM502 1075v174h-146l13 -174h133zM233 1075v174h-145v-174h145z" />
    <glyph glyph-name="alefmaksurainitialarabic" unicode="&#x6cc;" horiz-adv-x="563" arabic-form="initial" 
d="M475 930h-143v-506q0 -140 -31 -197q-44 -86 -174 -86h-133v-141h180q301 0 301 360v570zM473 -313v174h-145v-174h145zM205 -313v174h-146v-174h146z" />
    <glyph glyph-name="alefmaksuramedialarabic" unicode="&#x6cc;" horiz-adv-x="671" arabic-form="medial" 
d="M690 0v143h-266q39 79 39 217v570h-144v-506q0 -140 -30 -199q-44 -84 -174 -84h-131v-141h706zM465 -313v174h-146v-174h146zM197 -313v174h-146v-174h146z" />
    <glyph glyph-name="alefmaddaabovefinalarabic" unicode="&#x622;" horiz-adv-x="618" arabic-form="final" 
d="M678 0v143q-158 0 -172 2q-83 12 -117 64q-41 62 -41 203v913h-147v-999q0 -163 88 -248q78 -78 186 -78h203zM498 1487l-35 47q-49 -55 -90 -55q-29 0 -94 32q-72 35 -107 35q-70 0 -123 -80l35 -47q51 60 84 60q32 0 100 -35t103 -35q61 0 127 78z" />
    <glyph glyph-name="alefhamzaabovefinalarabic" unicode="&#x623;" horiz-adv-x="618" arabic-form="final" 
d="M678 0v143q-158 0 -172 2q-83 12 -117 64q-41 62 -41 203v913h-147v-999q0 -163 88 -248q78 -78 186 -78h203zM459 1620q-27 131 -160 131q-83 0 -125.5 -49t-42.5 -131q0 -40 14 -72h-82v-82h392v82h-219q-21 30 -21 74q0 110 84 110q64 0 76 -71z" />
    <glyph glyph-name="wawhamzaabovefinalarabic" unicode="&#x624;" horiz-adv-x="1148" arabic-form="final" 
d="M1174 0v141h-267v381q0 199 -97.5 304.5t-270.5 105.5q-174 0 -293 -135t-119 -334q0 -198 111 -330.5t282 -132.5h223q-27 -104 -93 -151.5t-175 -47.5v-137q355 21 416 336h283zM760 143l-238 -2q-106 0 -177 98t-71 238q0 127 74.5 224.5t181.5 97.5q104 0 167 -63.5
t63 -160.5v-432zM766 1298q-34 162 -197 162q-94 0 -149 -58.5t-55 -162.5q0 -47 16 -90h-100v-100h483v100h-270q-25 39 -25 90q0 137 100 137q81 0 99 -88z" />
    <glyph glyph-name="alefhamzabelowfinalarabic" unicode="&#x625;" horiz-adv-x="618" arabic-form="final" 
d="M678 0v143q-158 0 -172 2q-83 12 -117 64q-41 62 -41 203v913h-147v-999q0 -163 88 -248q78 -78 186 -78h203zM422 -215q-27 129 -160 129q-82 0 -129 -53q-37 -46 -37 -125q0 -40 13 -72h-80v-82h393v82h-221q-21 27 -21 72q0 110 84 110q63 0 78 -71z" />
    <glyph glyph-name="yehhamzaabovefinalarabic" unicode="&#x626;" horiz-adv-x="1916" arabic-form="final" 
d="M600 1092q-37 174 -215 174q-105 0 -163 -65t-58 -175q0 -50 18 -96h-108v-109h524v109h-295q-27 40 -27 96q0 150 111 150q87 0 105 -97zM1065 776v-164q139 0 215 -76.5t76 -224.5q0 -98 -45.5 -192.5t-121 -165.5t-179.5 -114.5t-213 -43.5q-264 0 -416 182t-152 482
v192h-157v-221q0 -166 55.5 -312.5t150.5 -251.5t228.5 -165.5t284.5 -60.5q186 0 347.5 88t259 242.5t97.5 336.5q39 -142 148 -224.5t266 -82.5h33v156h-48q-55 1 -101 22.5t-79 57.5t-63 82t-59 97.5t-61.5 102.5t-75.5 97.5t-95.5 82t-128 57t-166.5 21.5z" />
    <glyph glyph-name="yehhamzaaboveinitialarabic" unicode="&#x626;" horiz-adv-x="567" arabic-form="initial" 
d="M479 1182q-35 157 -196 157q-102 0 -158 -65q-47 -59 -47 -154q0 -45 16 -88h-100v-100h485v100h-272q-25 36 -25 88q0 140 101 140q79 0 98 -91zM479 823h-147v-399q0 -142 -27 -197q-47 -86 -174 -86h-135v-141h182q301 0 301 360v463z" />
    <glyph glyph-name="yehhamzaabovemedialarabic" unicode="&#x626;" horiz-adv-x="671" arabic-form="medial" 
d="M467 1182q-35 157 -199 157q-101 0 -157 -65q-48 -60 -48 -154q0 -45 19 -88h-100v-100h481v100h-270q-25 36 -25 88q0 140 102 140q82 0 97 -91zM690 0v143h-266q39 79 39 217v465h-144v-401q0 -140 -30 -199q-44 -84 -174 -84h-131v-141h706z" />
    <glyph glyph-name="aleffinalarabic" unicode="&#x627;" horiz-adv-x="618" arabic-form="final" 
d="M637 0v143q-117 0 -131 2q-83 12 -117 64q-41 62 -41 203v913h-147v-999q0 -163 88 -248q78 -78 186 -78h162z" />
    <glyph glyph-name="behfinalarabic" unicode="&#x628;" horiz-adv-x="1900" arabic-form="final" 
d="M938 -311v174h-145v-174h145zM1923 0v143h-379q39 79 39 217v570h-143v-506q0 -136 -29 -199q-46 -82 -174 -82h-600q-428 0 -428 453v336h-143v-336q0 -596 589 -596h1268z" />
    <glyph glyph-name="behinitialarabic" unicode="&#x628;" horiz-adv-x="483" arabic-form="initial" 
d="M475 930h-143v-506q0 -140 -31 -197q-44 -86 -174 -86h-133v-141h180q301 0 301 360v570zM475 -311v174h-145v-174h145z" />
    <glyph glyph-name="behmedialarabic" unicode="&#x628;" horiz-adv-x="671" arabic-form="medial" 
d="M690 0v143h-266q39 79 39 217v570h-144v-506q0 -140 -30 -199q-44 -84 -174 -84h-131v-141h706zM463 -311v174h-146v-174h146z" />
    <glyph glyph-name="tehmarbutafinalarabic" unicode="&#x629;" horiz-adv-x="1208" arabic-form="final" 
d="M795 1274v174h-146v-174h146zM526 1274v174h-145v-174h145zM1229 0v141h-78q-124 0 -193 86t-69 240v657h-434q-174 0 -281.5 -138t-107.5 -357q0 -135 47 -246.5t130.5 -176.5t186.5 -65q220 0 313 158q89 -299 392 -299h94zM741 655q-6 -401 -264 -401
q-118 0 -193 111.5t-75 271.5q0 163 76 272t196 109h260v-363z" />
    <glyph glyph-name="tehfinalarabic" unicode="&#x62a;" horiz-adv-x="1900" arabic-form="final" 
d="M1038 932v174h-145v-174h145zM770 932v174h-145v-174h145zM1923 0v143h-379q39 79 39 217v570h-143v-506q0 -136 -29 -199q-46 -82 -174 -82h-600q-428 0 -428 453v336h-143v-336q0 -596 589 -596h1268z" />
    <glyph glyph-name="tehinitialarabic" unicode="&#x62a;" horiz-adv-x="563" arabic-form="initial" 
d="M475 1077v174h-145v-174h145zM207 1077v174h-146v-174h146zM475 930h-143v-506q0 -140 -31 -197q-44 -86 -174 -86h-133v-141h180q301 0 301 360v570z" />
    <glyph glyph-name="tehmedialarabic" unicode="&#x62a;" horiz-adv-x="671" arabic-form="medial" 
d="M461 1077v174h-146v-174h146zM193 1077v174h-146v-174h146zM690 0v143h-266q39 79 39 217v570h-144v-506q0 -140 -30 -199q-44 -84 -174 -84h-131v-141h706z" />
    <glyph glyph-name="thehfinalarabic" unicode="&#x62b;" horiz-adv-x="1900" arabic-form="final" 
d="M907 1157v174h-145v-174h145zM1042 932v174h-145v-174h145zM774 932v174h-147v-174h147zM1923 0v143h-379q39 79 39 217v570h-143v-506q0 -136 -29 -199q-46 -82 -174 -82h-600q-428 0 -428 453v336h-143v-336q0 -596 589 -596h1268z" />
    <glyph glyph-name="thehinitialarabic" unicode="&#x62b;" horiz-adv-x="563" arabic-form="initial" 
d="M340 1305v174h-145v-174h145zM475 1077v174h-145v-174h145zM207 1077v174h-146v-174h146zM475 930h-143v-506q0 -140 -31 -197q-44 -86 -174 -86h-133v-141h180q301 0 301 360v570z" />
    <glyph glyph-name="thehmedialarabic" unicode="&#x62b;" horiz-adv-x="671" arabic-form="medial" 
d="M326 1305v174h-146v-174h146zM459 1077v174h-146v-174h146zM190 1077v174h-145v-174h145zM690 0v143h-266q39 79 39 217v570h-144v-506q0 -140 -30 -199q-44 -84 -174 -84h-131v-141h706z" />
    <glyph glyph-name="jeemfinalarabic" unicode="&#x62c;" horiz-adv-x="1323" arabic-form="final" 
d="M1337 0v143h-82q-115 0 -200.5 130.5t-91.5 322.5q-18 553 -461 553q-109 0 -156 -21v-124q55 28 119 28q160 0 249.5 -98t104.5 -291h-78q-225 0 -299 -12q-169 -27 -272.5 -161.5t-103.5 -317.5q0 -222 139.5 -356t361.5 -134h213v152h-213q-162 0 -254 88.5t-92 238.5
q0 162 93.5 257.5t252.5 95.5h264q16 -133 77 -245.5t160 -180.5t214 -68h55zM645 51v174h-145v-174h145z" />
    <glyph glyph-name="jeeminitialarabic" unicode="&#x62c;" horiz-adv-x="1476" arabic-form="initial" 
d="M1389 207q0 318 -184.5 507t-491.5 189q-333 0 -508 -217q112 -112 125 -127q123 203 385 203q241 0 372.5 -142.5t131.5 -402.5q0 -7 -5 -74h-1245v-143h1420v207zM823 -311v174h-147v-174h147z" />
    <glyph glyph-name="jeemmedialarabic" unicode="&#x62c;" horiz-adv-x="1585" arabic-form="medial" 
d="M1614 0v143h-225v64q0 318 -184.5 507t-491.5 189q-333 0 -508 -217q112 -112 125 -127q123 203 385 203q241 0 372.5 -142.5t131.5 -402.5q0 -7 -5 -74h-1245v-143h1645zM825 -311v174h-145v-174h145z" />
    <glyph glyph-name="hahfinalarabic" unicode="&#x62d;" horiz-adv-x="1323" arabic-form="final" 
d="M1337 0v143h-82q-115 0 -200.5 130.5t-91.5 322.5q-18 553 -461 553q-109 0 -156 -21v-124q55 28 119 28q160 0 249.5 -98t104.5 -291h-127q-184 0 -250 -12q-169 -28 -272.5 -161.5t-103.5 -317.5q0 -222 139.5 -356t361.5 -134h213v152h-213q-162 0 -254 88.5
t-92 238.5q0 162 93.5 257.5t252.5 95.5h264q16 -133 77 -245.5t160 -180.5t214 -68h55z" />
    <glyph glyph-name="hahinitialarabic" unicode="&#x62d;" horiz-adv-x="1476" arabic-form="initial" 
d="M1389 207q0 318 -184.5 507t-491.5 189q-333 0 -508 -217q112 -112 125 -127q123 203 385 203q241 0 372.5 -142.5t131.5 -402.5q0 -7 -5 -74h-1245v-143h1420v207z" />
    <glyph glyph-name="hahmedialarabic" unicode="&#x62d;" horiz-adv-x="1585" arabic-form="medial" 
d="M1614 0v143h-225v64q0 318 -184.5 507t-491.5 189q-333 0 -508 -217q112 -112 125 -127q123 203 385 203q241 0 372.5 -142.5t131.5 -402.5q0 -7 -5 -74h-1245v-143h1645z" />
    <glyph glyph-name="khahfinalarabic" unicode="&#x62e;" horiz-adv-x="1323" arabic-form="final" 
d="M645 1311v174h-145v-174h145zM1337 0v143h-82q-115 0 -200.5 130.5t-91.5 322.5q-18 553 -461 553q-109 0 -156 -21v-124q55 28 119 28q160 0 249.5 -98t104.5 -291h-78q-225 0 -299 -12q-169 -27 -272.5 -161.5t-103.5 -317.5q0 -222 139.5 -356t361.5 -134h213v152
h-213q-162 0 -254 88.5t-92 238.5q0 162 93.5 257.5t252.5 95.5h264q16 -133 77 -245.5t160 -180.5t214 -68h55z" />
    <glyph glyph-name="khahinitialarabic" unicode="&#x62e;" horiz-adv-x="1476" arabic-form="initial" 
d="M780 1077v174h-145v-174h145zM1389 207q0 318 -184.5 507t-491.5 189q-333 0 -508 -217q112 -112 125 -127q123 203 385 203q241 0 372.5 -142.5t131.5 -402.5q0 -7 -5 -74h-1245v-143h1420v207z" />
    <glyph glyph-name="khahmedialarabic" unicode="&#x62e;" horiz-adv-x="1585" arabic-form="medial" 
d="M780 1077v174h-145v-174h145zM1614 0v143h-225v64q0 318 -184.5 507t-491.5 189q-333 0 -508 -217q112 -112 125 -127q123 203 385 203q241 0 372.5 -142.5t131.5 -402.5q0 -7 -5 -74h-1245v-143h1645z" />
    <glyph glyph-name="dalfinalarabic" unicode="&#x62f;" horiz-adv-x="1269" arabic-form="final" 
d="M1296 0v143h-325q-35 789 -682 789v-135h55q257 -15 379 -213q100 -163 100 -441h-757v-143h1230z" />
    <glyph glyph-name="thalfinalarabic" unicode="&#x630;" horiz-adv-x="1269" arabic-form="final" 
d="M487 1077v174h-145v-174h145zM1296 0v143h-325q-35 789 -682 789v-135h55q257 -15 379 -213q100 -163 100 -441h-757v-143h1230z" />
    <glyph glyph-name="rehfinalarabic" unicode="&#x631;" horiz-adv-x="804" arabic-form="final" 
d="M834 0v143h-338v787h-144v-783q0 -179 -71 -262.5t-215 -83.5v-137q357 21 415 336h353z" />
    <glyph glyph-name="zainfinalarabic" unicode="&#x632;" horiz-adv-x="804" arabic-form="final" 
d="M498 1077v174h-146v-174h146zM834 0v143h-338v787h-144v-783q0 -179 -71 -262.5t-215 -83.5v-137q178 10 284.5 93.5t147.5 242.5h336z" />
    <glyph glyph-name="seenfinalarabic" unicode="&#x633;" horiz-adv-x="2594" arabic-form="final" 
d="M2615 0v143h-329q41 84 41 217v570h-144v-506q0 -160 -44.5 -220.5t-160.5 -60.5h-245q39 79 39 217v570h-144v-506q0 -162 -37.5 -221.5t-136.5 -59.5h-256q25 106 25 222v565h-148v-619q-20 -240 -133 -376t-297 -136q-200 0 -318 162t-118 432v537h-143v-565
q0 -152 45 -284t122 -224t184 -144.5t228 -52.5q173 0 314 103.5t208 285.5q9 -27 9 -49h1439z" />
    <glyph glyph-name="seeninitialarabic" unicode="&#x633;" horiz-adv-x="1718" arabic-form="initial" 
d="M1630 930h-145v-506q0 -162 -44.5 -221.5t-160.5 -59.5h-246q39 79 39 217v570h-143v-506q0 -162 -37.5 -221.5t-136.5 -59.5h-269v9q35 84 35 208v570h-143v-524q-21 -263 -217 -263h-191v-143h1356q303 0 303 360v570z" />
    <glyph glyph-name="seenmedialarabic" unicode="&#x633;" horiz-adv-x="1894" arabic-form="medial" 
d="M1917 0v143h-330q41 84 41 217v570h-143v-506q0 -162 -44.5 -221.5t-160.5 -59.5h-246q39 79 39 217v570h-143v-506q0 -162 -37.5 -221.5t-136.5 -59.5h-269v9q35 84 35 208v570h-145v-524q0 -128 -57.5 -195.5t-157.5 -67.5h-191v-143h1946z" />
    <glyph glyph-name="sheenfinalarabic" unicode="&#x634;" horiz-adv-x="2594" arabic-form="final" 
d="M2615 0v143h-329q41 84 41 217v570h-144v-506q0 -162 -44.5 -221.5t-160.5 -59.5h-245q39 79 39 217v570h-144v-506q0 -162 -37.5 -221.5t-136.5 -59.5h-256q25 106 25 222v565h-148v-619q-20 -240 -133 -376t-297 -136q-200 0 -318 162t-118 432v537h-143v-565
q0 -152 45 -284t122 -224t184 -144.5t228 -52.5q173 0 314 103.5t208 285.5q9 -27 9 -49h1439zM1911 1077v174h-146v-174h146zM1774 1305v174h-146v-174h146zM1642 1077v174h-145v-174h145z" />
    <glyph glyph-name="sheeninitialarabic" unicode="&#x634;" horiz-adv-x="1718" arabic-form="initial" 
d="M1212 1077v174h-145v-174h145zM1075 1305v174h-145v-174h145zM944 1077v174h-145v-174h145zM1630 930h-145v-506q0 -162 -44.5 -221.5t-160.5 -59.5h-246q39 79 39 217v570h-143v-506q0 -162 -37.5 -221.5t-136.5 -59.5h-269v9q35 84 35 208v570h-143v-524
q-21 -263 -217 -263h-191v-143h1356q303 0 303 360v570z" />
    <glyph glyph-name="sheenmedialarabic" unicode="&#x634;" horiz-adv-x="1894" arabic-form="medial" 
d="M1212 1077v174h-145v-174h145zM1075 1305v174h-145v-174h145zM944 1077v174h-145v-174h145zM1917 0v143h-330q41 84 41 217v570h-143v-506q0 -162 -44.5 -221.5t-160.5 -59.5h-246q39 79 39 217v570h-143v-506q0 -162 -37.5 -221.5t-136.5 -59.5h-269v9q35 84 35 208v570
h-145v-524q0 -128 -57.5 -195.5t-157.5 -67.5h-191v-143h1946z" />
    <glyph glyph-name="sadfinalarabic" unicode="&#x635;" horiz-adv-x="2584" arabic-form="final" 
d="M2607 0v143h-260v95q0 694 -492 694q-175 0 -348 -125t-284 -338v461h-144v-537q0 -272 -115.5 -433t-318.5 -161q-200 0 -318 162t-118 432v537h-143v-565q0 -152 45 -284t122 -224t184 -144.5t228 -52.5q324 0 502 340h1460zM2195 141h-999q12 45 18 101
q97 236 279 397.5t352 161.5q167 0 262 -145t95 -386q0 -50 -7 -129z" />
    <glyph glyph-name="sadinitialarabic" unicode="&#x635;" horiz-adv-x="1724" arabic-form="initial" 
d="M1632 0q10 143 10 238q0 694 -491 694q-173 0 -344 -122t-285 -335v356h-143v-368q0 -320 -217 -320h-191v-143h1661zM1491 141h-1004v35q54 165 160.5 309t239 230t254.5 86q167 0 261.5 -145t94.5 -386q0 -62 -6 -129z" />
    <glyph glyph-name="sadmedialarabic" unicode="&#x635;" horiz-adv-x="1904" arabic-form="medial" 
d="M1923 0v143h-270v95q0 694 -492 694q-177 0 -353 -128t-288 -349q2 14 2 41v335h-143v-368q0 -320 -217 -320h-191v-143h1952zM1501 141h-1014q35 127 108 248t162.5 211.5t194 145.5t199.5 55q167 0 261.5 -145t94.5 -386q0 -62 -6 -129z" />
    <glyph glyph-name="dadfinalarabic" unicode="&#x636;" horiz-adv-x="2584" arabic-form="final" 
d="M1880 1077v174h-145v-174h145zM2607 0v143h-260v95q0 694 -492 694q-175 0 -348 -125t-284 -338v461h-144v-537q0 -272 -115.5 -433t-318.5 -161q-200 0 -318 162t-118 432v537h-143v-565q0 -152 45 -284t122 -224t184 -144.5t228 -52.5q324 0 502 340h1460zM2195 141
h-999q12 45 18 101q97 236 279 397.5t352 161.5q167 0 262 -145t95 -386q0 -50 -7 -129z" />
    <glyph glyph-name="dadinitialarabic" unicode="&#x636;" horiz-adv-x="1724" arabic-form="initial" 
d="M1186 1077v174h-146v-174h146zM1632 0q10 143 10 238q0 694 -491 694q-173 0 -344 -122t-285 -335v356h-143v-368q0 -320 -217 -320h-191v-143h1661zM1491 141h-1004v35q54 165 160.5 309t239 230t254.5 86q167 0 261.5 -145t94.5 -386q0 -62 -6 -129z" />
    <glyph glyph-name="dadmedialarabic" unicode="&#x636;" horiz-adv-x="1904" arabic-form="medial" 
d="M1196 1077v174h-145v-174h145zM1923 0v143h-270v95q0 694 -492 694q-177 0 -353 -128t-288 -349q2 14 2 41v335h-143v-368q0 -320 -217 -320h-191v-143h1952zM1501 141h-1014q35 127 108 248t162.5 211.5t194 145.5t199.5 55q167 0 261.5 -145t94.5 -386q0 -62 -6 -129z
" />
    <glyph glyph-name="tahfinalarabic" unicode="&#x637;" horiz-adv-x="1849" arabic-form="final" 
d="M1860 0v143h-279q2 33 2 95q0 694 -493 694q-197 0 -385 -154t-291 -407l32 952h-151v-1182h-164v-141h1729zM1430 141h-1014q47 170 154.5 322t244.5 245t264 93q167 0 262 -145t95 -386q0 -62 -6 -129z" />
    <glyph glyph-name="tahinitialarabic" unicode="&#x637;" horiz-adv-x="1675" arabic-form="initial" 
d="M1575 0q12 129 12 238q0 694 -491 694q-200 0 -387 -154t-291 -407l33 952h-150v-1182h-379v-141h1653zM1434 141h-1014q47 170 154.5 322t244.5 245t264 93q165 0 261 -143.5t96 -387.5q0 -62 -6 -129z" />
    <glyph glyph-name="tahmedialarabic" unicode="&#x637;" horiz-adv-x="1849" arabic-form="medial" 
d="M1860 0v143h-279q2 33 2 95q0 694 -493 694q-197 0 -385 -154t-291 -407l32 952h-151v-1182h-377v-141h1942zM1430 141h-1014q47 170 154.5 322t244.5 245t264 93q167 0 262 -145t95 -386q0 -62 -6 -129z" />
    <glyph glyph-name="zahfinalarabic" unicode="&#x638;" horiz-adv-x="1849" arabic-form="final" 
d="M1124 1077v174h-145v-174h145zM1860 0v143h-279q2 33 2 95q0 694 -493 694q-197 0 -385 -154t-291 -407l32 952h-151v-1182h-164v-141h1729zM1430 141h-1014q47 170 154.5 322t244.5 245t264 93q167 0 262 -145t95 -386q0 -62 -6 -129z" />
    <glyph glyph-name="zahinitialarabic" unicode="&#x638;" horiz-adv-x="1675" arabic-form="initial" 
d="M1133 1077v174h-146v-174h146zM1575 0q12 129 12 238q0 694 -491 694q-200 0 -387 -154t-291 -407l33 952h-150v-1182h-379v-141h1653zM1434 141h-1014q47 170 154.5 322t244.5 245t264 93q165 0 261 -143.5t96 -387.5q0 -62 -6 -129z" />
    <glyph glyph-name="zahmedialarabic" unicode="&#x638;" horiz-adv-x="1849" arabic-form="medial" 
d="M1124 1077v174h-145v-174h145zM1860 0v143h-279q2 33 2 95q0 694 -493 694q-197 0 -385 -154t-291 -407l32 952h-151v-1182h-377v-141h1942zM1430 141h-1014q47 170 154.5 322t244.5 245t264 93q167 0 262 -145t95 -386q0 -62 -6 -129z" />
    <glyph glyph-name="ainfinalarabic" unicode="&#x639;" horiz-adv-x="1525" arabic-form="final" 
d="M1585 0v143q-205 0 -325.5 118t-120.5 298v82h-551q-84 110 -84 238q0 165 64.5 255.5t183.5 90.5q195 0 229 -193l156 17q-26 127 -130 202.5t-257 75.5q-184 0 -293 -125t-109 -325q0 -150 62 -250q-154 -38 -249 -170t-95 -305q0 -222 139.5 -356t361.5 -134h258v152
h-258q-162 0 -254 88.5t-92 238.5q0 160 92.5 257.5t245.5 97.5h457q9 -210 157.5 -353t356.5 -143h55z" />
    <glyph glyph-name="aininitialarabic" unicode="&#x639;" horiz-adv-x="1150" arabic-form="initial" 
d="M1063 0v143h-619q-94 98 -94 287q0 161 56 264q73 125 223 125q219 0 256 -217l174 19q-27 151 -158 235q-116 78 -274 78q-218 0 -338 -150q-113 -137 -113 -354q0 -166 74 -287h-313v-143h1126z" />
    <glyph glyph-name="ainmedialarabic" unicode="&#x639;" horiz-adv-x="1439" arabic-form="medial" 
d="M1460 0v143h-276q-124 0 -166 11q-75 18 -146 104q158 121 271 279q49 68 131 225q-242 196 -539 196q-261 0 -512 -163l2 -162q268 -104 439 -361q-108 -75 -183 -102q-77 -27 -188 -27h-318v-143h322q272 0 461 160q118 -160 305 -160h397zM1108 717
q-114 -202 -334 -352q-107 145 -186 210q-106 89 -236 138q210 116 391 116q110 0 209 -38q37 -16 156 -74z" />
    <glyph glyph-name="ghainfinalarabic" unicode="&#x63a;" horiz-adv-x="1525" arabic-form="final" 
d="M825 1477v174h-145v-174h145zM1585 0v143q-205 0 -325.5 118t-120.5 298v82h-551q-84 110 -84 238q0 165 64.5 255.5t183.5 90.5q195 0 229 -193l156 17q-26 127 -130 202.5t-257 75.5q-184 0 -293 -125t-109 -325q0 -150 62 -250q-154 -38 -249 -170t-95 -305
q0 -222 139.5 -356t361.5 -134h258v152h-258q-162 0 -254 88.5t-92 238.5q0 160 92.5 257.5t245.5 97.5h457q9 -210 157.5 -353t356.5 -143h55z" />
    <glyph glyph-name="ghaininitialarabic" unicode="&#x63a;" horiz-adv-x="1150" arabic-form="initial" 
d="M692 1077v174h-145v-174h145zM1063 0v143h-619q-94 98 -94 287q0 161 56 264q73 125 223 125q219 0 256 -217l174 19q-27 151 -158 235q-116 78 -274 78q-218 0 -338 -150q-113 -137 -113 -354q0 -166 74 -287h-313v-143h1126z" />
    <glyph glyph-name="ghainmedialarabic" unicode="&#x63a;" horiz-adv-x="1439" arabic-form="medial" 
d="M834 1077v174h-146v-174h146zM1460 0v143h-276q-82 0 -124.5 3t-78 18t-54.5 33t-55 61q158 121 271 279q49 68 131 225q-242 196 -539 196q-262 0 -510 -163v-162q268 -104 439 -361q-108 -77 -182 -103t-189 -26h-318v-143h322q272 0 461 160q118 -160 305 -160h397z
M1108 717q-114 -202 -334 -352q-110 150 -199 223.5t-223 124.5q210 116 391 116q99 0 148 -14.5t217 -97.5z" />
    <glyph glyph-name="fehfinalarabic" unicode="&#x641;" horiz-adv-x="2123" arabic-form="final" 
d="M1528 1257v175h-146v-175h146zM2157 0v143h-324q-114 0 -209 50q134 63 212.5 183t78.5 265q0 187 -122.5 306.5t-319.5 119.5q-196 0 -319.5 -119.5t-123.5 -306.5q0 -141 79 -263t212 -185q-95 -50 -209 -50h-469q-434 0 -434 453v295h-143v-295q0 -596 589 -596h336
q146 0 222 9.5t123 29t139 72.5q74 -42 105 -57.5t87 -31.5t116.5 -19t170.5 -3h203zM1475 279q-131 56 -209 160t-78 225q0 120 77.5 199t207.5 79q128 0 206 -77.5t78 -202.5q0 -122 -76 -225t-206 -158z" />
    <glyph glyph-name="fehinitialarabic" unicode="&#x641;" horiz-adv-x="1212" arabic-form="initial" 
d="M774 1077v174h-147v-174h147zM1124 465q0 210 -115 336.5t-309 126.5q-196 0 -314 -131t-118 -334q0 -196 103 -320h-400v-143h727q191 0 308.5 131.5t117.5 333.5zM967 479q0 -360 -269 -360q-125 0 -196.5 90.5t-71.5 245.5q0 166 71.5 260t205.5 94q125 0 192.5 -87.5
t67.5 -242.5z" />
    <glyph glyph-name="fehmedialarabic" unicode="&#x641;" horiz-adv-x="1286" arabic-form="medial" 
d="M711 1241v174h-146v-174h146zM1319 0v143h-324q-114 0 -209 50q143 67 218 190q73 119 73 258q0 176 -110 295q-122 131 -332 131q-208 0 -330 -131q-112 -118 -112 -295q0 -139 73 -258q75 -124 217 -190q-95 -50 -209 -50h-323v-143h203q172 0 237 12q110 20 246 99
q137 -79 244 -99q65 -12 235 -12h203zM637 279q-144 61 -217 170q-70 101 -70 215q0 120 77.5 199t207.5 79q135 0 213 -84q74 -77 74 -196q0 -112 -72 -216q-75 -108 -213 -167z" />
    <glyph glyph-name="qaffinalarabic" unicode="&#x642;" horiz-adv-x="1587" arabic-form="final" 
d="M1165 1077v174h-147v-174h147zM897 1077v174h-147v-174h147zM1612 0v143h-269v379q0 200 -96.5 305t-271.5 105q-173 0 -291.5 -135.5t-118.5 -333.5q0 -199 110.5 -331t280.5 -132h187q-127 -201 -428 -201q-219 0 -360.5 157t-141.5 402v338h-147v-364q0 -145 51 -271
t139 -213.5t208.5 -137.5t256.5 -50q432 0 582 340h309zM1198 143l-237 -2q-106 0 -177 100t-71 236q0 129 73.5 225.5t182.5 96.5q101 0 165 -63t64 -161v-432z" />
    <glyph glyph-name="qafinitialarabic" unicode="&#x642;" horiz-adv-x="1212" arabic-form="initial" 
d="M905 1077v174h-145v-174h145zM637 1077v174h-145v-174h145zM1124 465q0 210 -115 336.5t-309 126.5q-196 0 -314 -131t-118 -334q0 -196 103 -320h-400v-143h727q192 0 309 131t117 334zM967 479q0 -360 -269 -360q-125 0 -196.5 90.5t-71.5 245.5q0 166 71.5 260
t205.5 94q125 0 192.5 -87.5t67.5 -242.5z" />
    <glyph glyph-name="qafmedialarabic" unicode="&#x642;" horiz-adv-x="1286" arabic-form="medial" 
d="M850 1239v174h-145v-174h145zM582 1239v174h-146v-174h146zM1319 0v143h-324q-114 0 -209 50q143 67 218 190q73 119 73 258q0 176 -110 295q-122 131 -332 131q-208 0 -330 -131q-112 -118 -112 -295q0 -139 73 -258q75 -124 217 -190q-95 -50 -209 -50h-323v-143h203
q172 0 237 12q110 20 246 99q137 -79 244 -99q65 -12 235 -12h203zM637 279q-144 61 -217 170q-70 101 -70 215q0 120 77.5 199t207.5 79q135 0 213 -84q74 -77 74 -196q0 -112 -72 -216q-75 -108 -213 -167z" />
    <glyph glyph-name="kaffinalarabic" unicode="&#x643;" horiz-adv-x="1900" arabic-form="final" 
d="M1071 944q-34 162 -199 162q-97 0 -150.5 -60t-53.5 -161q0 -45 16 -88h-100v-101h483v101h-270q-25 36 -25 90q0 135 102 135q80 0 95 -86zM1925 0v143h-381q39 79 39 217v965h-143v-901q0 -163 -44.5 -222t-158.5 -59h-594q-434 0 -434 453v336h-143v-336
q0 -596 589 -596h1270z" />
    <glyph glyph-name="kafinitialarabic" unicode="&#x643;" horiz-adv-x="1433" arabic-form="initial" 
d="M1346 207q0 314 -181 504q-183 192 -495 192h-183l244 420h-170q-51 -91 -119.5 -214t-114.5 -205.5t-79 -141.5h422q261 0 393 -166q113 -140 113 -379q0 -12 -5 -74h-1245v-143h1420v207z" />
    <glyph glyph-name="kafmedialarabic" unicode="&#x643;" horiz-adv-x="1552" arabic-form="medial" 
d="M1602 0v143h-281v64q0 315 -180 504q-183 192 -496 192h-182l244 420h-170q-71 -127 -175 -312.5t-139 -248.5h422q261 0 393 -166q113 -140 113 -379q0 -24 -4 -74h-1245v-143h1700z" />
    <glyph glyph-name="lamfinalarabic" unicode="&#x644;" horiz-adv-x="1503" arabic-form="final" 
d="M1544 0v143h-348q27 105 27 222v960h-144v-932q0 -272 -117 -433t-317 -161q-198 0 -317 164t-119 430v168h-143v-196q0 -150 43.5 -281t119.5 -224t184 -146.5t232 -53.5q160 0 293.5 90.5t208.5 249.5h397z" />
    <glyph glyph-name="laminitialarabic" unicode="&#x644;" horiz-adv-x="550" arabic-form="initial" 
d="M463 1325h-144v-901q0 -142 -30 -197q-44 -86 -174 -86h-131v-141h178q301 0 301 360v965z" />
    <glyph glyph-name="lammedialarabic" unicode="&#x644;" horiz-adv-x="671" arabic-form="medial" 
d="M690 0v143h-266q39 79 39 217v965h-144v-901q0 -140 -30 -199q-44 -84 -174 -84h-131v-141h706z" />
    <glyph glyph-name="meemfinalarabic" unicode="&#x645;" horiz-adv-x="1957" arabic-form="final" 
d="M1980 0q-2 18 -2 63q0 51 2 80h-84q-154 0 -254.5 89t-115.5 241q-22 217 -132 337t-290 120h-600q-438 0 -438 -568v-694h143v686q0 210 78 330.5t217 120.5h280q-120 -129 -120 -336q0 -208 114 -335.5t316 -127.5q268 0 379 236q99 -242 440 -242h67zM1348 481
q0 -342 -254 -342q-119 0 -186.5 87t-67.5 233q0 160 68.5 250t193.5 90q117 0 181.5 -84.5t64.5 -233.5z" />
    <glyph glyph-name="meeminitialarabic" unicode="&#x645;" horiz-adv-x="1228" arabic-form="initial" 
d="M1141 287q0 204 -107 329q-116 134 -315 134q-201 0 -318 -132q-116 -131 -116 -333q0 -77 18 -142h-336v-143h395q117 -178 355 -178q197 0 313 137q111 129 111 328zM975 301q0 -350 -258 -350q-134 0 -203 100q-59 86 -59 225q0 149 59 238q71 109 211 109
q130 0 197 -101q53 -83 53 -221z" />
    <glyph glyph-name="meemmedialarabic" unicode="&#x645;" horiz-adv-x="1265" arabic-form="medial" 
d="M1292 0v143h-250q19 71 19 144q0 202 -109 329q-116 134 -315 134q-201 0 -318 -132q-114 -132 -114 -333q0 -73 16 -142h-241v-143h303q114 -178 352 -178q227 0 344 178h313zM893 301q0 -350 -258 -350q-134 0 -203 100q-57 83 -57 225q0 152 57 238q71 109 211 109
q131 0 195 -101q55 -82 55 -221z" />
    <glyph glyph-name="noonfinalarabic" unicode="&#x646;" horiz-adv-x="1503" arabic-form="final" 
d="M715 1077v174h-146v-174h146zM1550 0v143h-354q27 105 27 222v565h-144v-537q0 -272 -117 -433t-317 -161t-318 163.5t-118 430.5v537h-143v-565q0 -150 43.5 -281t119.5 -224t184 -146.5t232 -53.5q160 0 293.5 90.5t208.5 249.5h403z" />
    <glyph glyph-name="nooninitialarabic" unicode="&#x646;" horiz-adv-x="550" arabic-form="initial" 
d="M463 1077v174h-146v-174h146zM463 930h-144v-506q0 -142 -30 -197q-44 -86 -174 -86h-131v-141h178q301 0 301 360v570z" />
    <glyph glyph-name="noonmedialarabic" unicode="&#x646;" horiz-adv-x="671" arabic-form="medial" 
d="M465 1077v174h-146v-174h146zM690 0v143h-266q39 79 39 217v570h-144v-506q0 -140 -30 -199q-44 -84 -174 -84h-131v-141h706z" />
    <glyph glyph-name="hehfinalarabic" unicode="&#x647;" horiz-adv-x="1208" arabic-form="final" 
d="M1229 0v141h-78q-124 0 -193 86t-69 240v657h-434q-174 0 -281.5 -138t-107.5 -357q0 -135 47 -246.5t130.5 -176.5t186.5 -65q220 0 313 158q89 -299 392 -299h94zM741 655q-6 -401 -264 -401q-118 0 -193 111.5t-75 271.5q0 163 76 272t196 109h260v-363z" />
    <glyph glyph-name="hehinitialarabic" unicode="&#x647;" horiz-adv-x="1425" arabic-form="initial" 
d="M1307 0q30 144 30 281q0 305 -145 518q-81 120 -217 213.5t-258 115.5v-147q99 -29 186 -89.5t153 -146t104 -198.5t38 -238q0 -87 -18 -166h-301q96 113 96 283q0 180 -99.5 288.5t-263.5 108.5q-166 0 -268 -113t-102 -286q0 -171 92 -283h-350v-141h1323zM827 434
q0 -291 -217 -291q-102 0 -160.5 75.5t-58.5 197.5q0 137 58.5 213t168.5 76q100 0 154.5 -70t54.5 -201z" />
    <glyph glyph-name="hehmedialarabic" unicode="&#x647;" horiz-adv-x="1499" arabic-form="medial" 
d="M1565 0v143h-234q6 67 6 138q0 305 -145 518q-81 120 -217 213.5t-258 115.5v-147q99 -29 186 -89.5t153 -146t104 -198.5t38 -238q0 -87 -18 -166h-301q96 113 96 283q0 180 -99.5 288.5t-263.5 108.5q-166 0 -268 -113t-102 -286q0 -171 92 -283h-350v-141h1581z
M827 434q0 -291 -217 -291q-102 0 -160.5 75.5t-58.5 197.5q0 137 58.5 213t168.5 76q100 0 154.5 -70t54.5 -201z" />
    <glyph glyph-name="wawfinalarabic" unicode="&#x648;" horiz-adv-x="1148" arabic-form="final" 
d="M1174 0v141h-267v381q0 199 -97.5 304.5t-270.5 105.5q-175 0 -295 -135q-117 -135 -117 -334q0 -200 111 -332q110 -131 282 -131h223q-53 -199 -249 -199h-19v-137q355 21 416 336h283zM760 143l-238 -2q-120 0 -190 117q-58 94 -58 219q0 116 66 213q74 109 190 109
q112 0 175 -72q55 -61 55 -152v-432z" />
    <glyph glyph-name="alefmaksurafinalarabic" unicode="&#x649;" horiz-adv-x="1769" arabic-form="final" 
d="M1792 0v143h-43q-114 0 -176.5 56.5t-120.5 206.5q-46 120 -155 206t-205 86q-111 0 -111 -4h2v-129q128 0 197 -71t69 -207q0 -91 -42 -178t-111.5 -152t-165 -105t-195.5 -40q-243 0 -383.5 166.5t-140.5 445.5v178h-145v-205q0 -202 86.5 -369.5t239 -263.5t337.5 -96
q129 0 248.5 48.5t208 130.5t141.5 196.5t53 239.5q35 -132 137.5 -207.5t243.5 -75.5h31z" />
    <glyph glyph-name="yehfinalarabic" unicode="&#x64a;" horiz-adv-x="1769" arabic-form="final" 
d="M1792 0v143h-43q-114 0 -176.5 56.5t-120.5 206.5q-46 120 -155 206t-205 86q-111 0 -111 -4h2v-129q128 0 197 -71t69 -207q0 -91 -42 -178t-111.5 -152t-165 -105t-195.5 -40q-243 0 -383.5 166.5t-140.5 445.5v178h-145v-205q0 -202 86.5 -369.5t239 -263.5t337.5 -96
q129 0 248.5 48.5t208 130.5t141.5 196.5t53 239.5q35 -132 137.5 -207.5t243.5 -75.5h31zM952 -662v175h-145v-175h145zM684 -662v175h-145v-175h145z" />
    <glyph glyph-name="yehinitialarabic" unicode="&#x64a;" horiz-adv-x="616" arabic-form="initial" 
d="M475 930h-143v-506q0 -140 -31 -197q-44 -86 -174 -86h-133v-141h180q301 0 301 360v570zM473 -313v174h-145v-174h145zM205 -313v174h-146v-174h146z" />
    <glyph glyph-name="yehmedialarabic" unicode="&#x64a;" horiz-adv-x="671" arabic-form="medial" 
d="M690 0v143h-266q39 79 39 217v570h-144v-506q0 -140 -30 -199q-44 -84 -174 -84h-131v-141h706zM465 -313v174h-146v-174h146zM197 -313v174h-146v-174h146z" />
    <glyph glyph-name=".notdef" horiz-adv-x="1024" 
d="M129 0h768v1536h-768v-1536zM256 129v1280h512v-1280h-512z" />
    <glyph glyph-name=".null" 
 />
    <glyph glyph-name="nonmarkingreturn" horiz-adv-x="682" 
 />
    <glyph glyph-name="space" unicode=" " horiz-adv-x="364" 
 />
    <glyph glyph-name="exclam" unicode="!" horiz-adv-x="378" 
d="M215 805v522h-149v-522q0 -12 16 -193l29 -342h59l31 342q14 158 14 193zM215 0v158h-149v-158h149z" />
    <glyph glyph-name="quotedbl" unicode="&#x22;" horiz-adv-x="514" 
d="M211 1405h-168l55 -557h62zM467 1405h-168l55 -557h62z" />
    <glyph glyph-name="dollar" unicode="$" horiz-adv-x="1105" 
d="M936 412q0 220 -367 325v353q71 -14 126.5 -64t72.5 -117l139 11q-73 235 -338 284v164h-104v-164q-133 -12 -227 -84q-105 -80 -105 -209q0 -220 332 -309v-379q-95 13 -160.5 74.5t-87.5 155.5l-151 -15q34 -152 149 -239q103 -79 250 -97v-176h104v176q139 0 248 80
q119 88 119 230zM465 766q-88 28 -121 49q-61 46 -61 111q0 73 57 121q53 41 125 47v-328zM780 387q0 -150 -211 -168v354q211 -59 211 -186z" />
    <glyph glyph-name="quotesingle" unicode="'" horiz-adv-x="258" 
d="M211 1405h-168l55 -557h62z" />
    <glyph glyph-name="parenleft" unicode="(" horiz-adv-x="659" 
d="M600 -221q-164 129 -258 354q-94 227 -94 488q0 259 82 451t266 362l-64 75q-460 -334 -460 -903q0 -541 467 -913z" />
    <glyph glyph-name="parenright" unicode=")" horiz-adv-x="659" 
d="M594 600q0 540 -465 913l-63 -86q164 -126 258 -354q94 -224 94 -485q0 -497 -350 -817l63 -74q463 337 463 903z" />
    <glyph glyph-name="at" unicode="*" horiz-adv-x="673" 
d="M612 285v86l-237 -23l135 209l-70 47l-104 -242l-98 242l-78 -49l137 -211l-236 27v-88l236 18l-133 -215l76 -49l96 242l106 -232l78 39l-139 215z" />
    <glyph glyph-name="plus" unicode="+" horiz-adv-x="1261" 
d="M561 66h139v438h439v139h-439v438h-139v-438h-438v-139h438v-438z" />
    <glyph glyph-name="hyphen" unicode="-" horiz-adv-x="1314" 
d="M1192 399v142h-1069v-142h1069z" />
    <glyph glyph-name="period" unicode="." horiz-adv-x="360" 
d="M238 0v213h-187v-213h187z" />
    <glyph glyph-name="slash" unicode="/" horiz-adv-x="714" 
d="M649 1327h-143l-440 -1327h145z" />
    <glyph glyph-name="zero" unicode="0" horiz-adv-x="561" 
d="M381 244v284l-201 123v-282z" />
    <glyph glyph-name="one" unicode="1" horiz-adv-x="413" 
d="M279 0v1321l-144 -111v-1210h144z" />
    <glyph glyph-name="two" unicode="2" horiz-adv-x="976" 
d="M842 1196v129q-82 -2 -174 -2q-296 0 -432 -238q-101 -174 -101 -444v-641h144v664q0 219 83 358q104 174 318 174h162z" />
    <glyph glyph-name="three" unicode="3" horiz-adv-x="1101" 
d="M967 1141v182h-127v-125q0 -145 -63 -216t-232 -71q98 17 98 230v182h-123v-125q0 -72 -9.5 -117.5t-35.5 -81.5t-74.5 -51.5t-124.5 -15.5v393h-141v-1325h144v786h311q174 0 275.5 95t101.5 260z" />
    <glyph glyph-name="four" unicode="4" horiz-adv-x="1003" 
d="M868 0v129h-329q-114 0 -186 71.5t-72 180.5q0 108 74 181t184 73h40.5t32.5 -0.5t23 -1t15 -0.5h5v125h-106q-103 0 -172.5 64.5t-69.5 164.5q0 95 66.5 154t175.5 59h272v123h-313q-151 0 -245.5 -83.5t-94.5 -221.5q0 -233 203 -322q-236 -64 -236 -340
q0 -155 116.5 -255.5t289.5 -100.5h327z" />
    <glyph glyph-name="five" unicode="5" horiz-adv-x="1161" 
d="M1026 578q0 191 -184 405q-139 163 -262 225q-123 -60 -263 -225q-182 -215 -182 -405q0 -221 122 -354.5t321 -133.5q200 0 324 135t124 353zM868 565q0 -164 -76 -259t-212 -95q-132 0 -210.5 96.5t-78.5 257.5q0 126 89.5 280.5t199.5 221.5q112 -64 200 -218t88 -284
z" />
    <glyph glyph-name="six" unicode="6" horiz-adv-x="976" 
d="M842 641q0 321 -139.5 502.5t-395.5 181.5h-172v-129h160q191 0 297 -142t106 -390v-664h144v641z" />
    <glyph glyph-name="seven" unicode="7" horiz-adv-x="1079" 
d="M944 1325h-143l-250 -1223l-277 1223h-139l293 -1325h227z" />
    <glyph glyph-name="eight" unicode="8" horiz-adv-x="1079" 
d="M944 0l-289 1325h-227l-293 -1325h139l277 1223l250 -1223h143z" />
    <glyph glyph-name="nine" unicode="9" horiz-adv-x="1044" 
d="M907 909q0 187 -101.5 300.5t-281.5 113.5q-178 0 -283.5 -116.5t-105.5 -299.5q0 -187 103 -299t284 -112q144 0 242 79v-575h143v909zM764 922q0 -320 -242 -320q-112 0 -176.5 80t-64.5 217q0 151 65 233t186 82q114 0 173 -76.5t59 -215.5z" />
    <glyph glyph-name="colon" unicode=":" horiz-adv-x="360" 
d="M238 406v210h-187v-210h187zM238 0v213h-187v-213h187z" />
    <glyph glyph-name="less" unicode="&#x3c;" horiz-adv-x="1110" 
d="M915 0l-479 477l479 479h-182l-479 -479l479 -477h182z" />
    <glyph glyph-name="equal" unicode="=" horiz-adv-x="1239" 
d="M1116 670v139h-993v-139h993zM1116 307v142h-993v-142h993z" />
    <glyph glyph-name="greater" unicode="&#x3e;" horiz-adv-x="1110" 
d="M856 477l-479 479h-162l479 -479l-479 -477h162z" />
    <glyph glyph-name="bracketleft" unicode="[" horiz-adv-x="479" 
d="M414 -272v112h-197v1522h197v111h-348v-1745h348z" />
    <glyph glyph-name="backslash" unicode="\" horiz-adv-x="704" 
d="M639 0l-436 1327h-146l441 -1327h141z" />
    <glyph glyph-name="bracketright" unicode="]" horiz-adv-x="479" 
d="M414 -270v1743h-348v-111h196v-1522h-196v-110h348z" />
    <glyph glyph-name="underscore" unicode="_" horiz-adv-x="782" 
d="M748 -164v131h-715v-131h715z" />
    <glyph glyph-name="braceleft" unicode="{" horiz-adv-x="768" 
d="M684 -289v68q-82 1 -133 8.5t-90 28.5t-55.5 59t-16.5 98v414q0 111 -147 205q72 56 109.5 109t37.5 94v413q0 121 59.5 162t233.5 41v78q-233 0 -334.5 -65.5t-101.5 -215.5v-413q0 -64 -47 -118t-121 -85h-4q172 -112 172 -205v-414q0 -138 88.5 -202t290.5 -64z" />
    <glyph glyph-name="bar" unicode="|" horiz-adv-x="270" 
d="M70 -289h129v1774h-129v-1774z" />
    <glyph glyph-name="braceright" unicode="}" horiz-adv-x="768" 
d="M74 -289v68q82 1 133 8.5t90 28.5t55.5 59t16.5 98v414q0 111 147 205q-72 56 -109.5 109t-37.5 94v413q0 121 -59.5 162t-233.5 41v78q233 0 334.5 -65.5t101.5 -215.5v-413q0 -64 47 -118t121 -85h4q-172 -112 -172 -205v-414q0 -138 -88.5 -202t-290.5 -64z" />
    <glyph glyph-name="nbspace" unicode="&#xa0;" horiz-adv-x="1275" 
 />
    <glyph glyph-name="guillemotleft" unicode="&#xab;" horiz-adv-x="501" 
d="M428 92q-62 83 -86 148q-29 85 -29 190q0 215 113 346l-20 27q-160 -148 -160 -361q0 -212 160 -372zM240 92q-61 86 -84 148q-29 85 -29 190q0 215 113 346l-23 27q-158 -149 -158 -361q0 -211 158 -372z" />
    <glyph glyph-name="guillemotright" unicode="&#xbb;" horiz-adv-x="501" 
d="M432 442q0 214 -156 361l-22 -27q111 -132 111 -346q0 -105 -29 -190q-19 -60 -82 -148l20 -22q158 161 158 372zM248 442q0 213 -160 361l-22 -27q114 -132 114 -346q0 -108 -28 -190q-24 -65 -86 -148l22 -22q160 160 160 372z" />
    <glyph glyph-name="multiply" unicode="&#xd7;" horiz-adv-x="1159" 
d="M172 262l100 -98l308 311l311 -309l98 100l-311 307l309 312l-100 98l-307 -311l-312 309l-98 -100l311 -308z" />
    <glyph glyph-name="divide" unicode="&#xf7;" horiz-adv-x="1265" 
d="M719 774v207h-168v-207h168zM1167 492v153h-1069v-153h1069zM719 156v206h-168v-206h168z" />
    <glyph glyph-name="commaarabic" unicode="&#x60c;" horiz-adv-x="360" 
d="M238 0v207h-82q0 115 61 295h-88q-78 -191 -78 -389v-113h187z" />
    <glyph glyph-name="semicolonarabic" unicode="&#x61b;" horiz-adv-x="360" 
d="M238 403v205h-82q0 118 61 295h-88q-78 -191 -78 -387v-113h187zM238 0v213h-187v-213h187z" />
    <glyph glyph-name="questionarabic" unicode="&#x61f;" horiz-adv-x="991" 
d="M924 891q0 216 -111.5 335.5t-308.5 119.5q-193 0 -315.5 -109t-122.5 -291q0 -138 108.5 -245.5t249.5 -118.5v-299h149v436q-170 0 -260 62.5t-90 185.5q0 104 77 170.5t196 66.5q123 0 193.5 -84.5t70.5 -228.5h164zM584 0v184h-168v-184h168z" />
    <glyph glyph-name="tatweelarabic" unicode="&#x640;" horiz-adv-x="405" 
d="M422 0v143h-432v-143h432z" />
    <glyph glyph-name="maddaabove" unicode="&#x653;" 
d="M457 1370l-35 47q-49 -55 -90 -55q-27 0 -94 33q-72 35 -107 35q-70 0 -123 -80l35 -47q50 59 84 59q32 0 100 -35t103 -35q61 0 127 78z" />
    <glyph glyph-name="hamzaabove" unicode="&#x654;" 
d="M418 1520q-27 131 -160 131q-83 0 -125.5 -49.5t-42.5 -131.5q0 -39 14 -71h-81v-82h391v82h-219q-21 30 -21 74q0 110 84 110q64 0 76 -72z" />
    <glyph glyph-name="hamzabelow" unicode="&#x655;" 
d="M381 -215q-27 129 -160 129q-82 0 -129 -53q-37 -46 -37 -125q0 -40 13 -72h-80v-82h393v82h-221q-21 27 -21 72q0 110 84 110q63 0 78 -71z" />
    <glyph glyph-name="zeroarabic" unicode="&#x660;" horiz-adv-x="561" 
d="M381 244v284l-201 123v-282z" />
    <glyph glyph-name="onearabic" unicode="&#x661;" horiz-adv-x="413" 
d="M279 0v1321l-144 -111v-1210h144z" />
    <glyph glyph-name="twoarabic" unicode="&#x662;" horiz-adv-x="976" 
d="M842 1196v129q-82 -2 -174 -2q-296 0 -432 -238q-101 -174 -101 -444v-641h144v664q0 219 83 358q104 174 318 174h162z" />
    <glyph glyph-name="threearabic" unicode="&#x663;" horiz-adv-x="1101" 
d="M967 1141v182h-127v-125q0 -145 -63 -216t-232 -71q98 17 98 230v182h-123v-125q0 -72 -9.5 -117.5t-35.5 -81.5t-74.5 -51.5t-124.5 -15.5v393h-141v-1325h144v786h311q174 0 275.5 95t101.5 260z" />
    <glyph glyph-name="fourarabic" unicode="&#x664;" horiz-adv-x="1003" 
d="M868 0v129h-329q-114 0 -186 71.5t-72 180.5q0 108 74 181t184 73h40.5t32.5 -0.5t23 -1t15 -0.5h5v125h-106q-103 0 -172.5 64.5t-69.5 164.5q0 95 66.5 154t175.5 59h272v123h-313q-151 0 -245.5 -83.5t-94.5 -221.5q0 -233 203 -322q-236 -64 -236 -340
q0 -155 116.5 -255.5t289.5 -100.5h327z" />
    <glyph glyph-name="fivearabic" unicode="&#x665;" horiz-adv-x="1161" 
d="M1026 578q0 191 -184 405q-139 163 -262 225q-123 -60 -263 -225q-182 -215 -182 -405q0 -221 122 -354.5t321 -133.5q200 0 324 135t124 353zM868 565q0 -164 -76 -259t-212 -95q-132 0 -210.5 96.5t-78.5 257.5q0 126 89.5 280.5t199.5 221.5q112 -64 200 -218t88 -284
z" />
    <glyph glyph-name="sixarabic" unicode="&#x666;" horiz-adv-x="976" 
d="M842 641q0 321 -139.5 502.5t-395.5 181.5h-172v-129h160q191 0 297 -142t106 -390v-664h144v641z" />
    <glyph glyph-name="sevenarabic" unicode="&#x667;" horiz-adv-x="1079" 
d="M944 1325h-143l-250 -1223l-277 1223h-139l293 -1325h227z" />
    <glyph glyph-name="eightarabic" unicode="&#x668;" horiz-adv-x="1079" 
d="M944 0l-289 1325h-227l-293 -1325h139l277 1223l250 -1223h143z" />
    <glyph glyph-name="ninearabic" unicode="&#x669;" horiz-adv-x="1044" 
d="M907 909q0 187 -101.5 300.5t-281.5 113.5q-178 0 -283.5 -116.5t-105.5 -299.5q0 -187 103 -299t284 -112q144 0 242 79v-575h143v909zM764 922q0 -320 -242 -320q-112 0 -176.5 80t-64.5 217q0 151 65 233t186 82q114 0 173 -76.5t59 -215.5z" />
    <glyph glyph-name="percentarabic" unicode="&#x66a;" horiz-adv-x="714" 
d="M299 1090v215h-186v-215h186zM649 1327h-143l-440 -1327h145zM612 25v215h-186v-215h186z" />
    <glyph glyph-name="decimalseparatorarabic" unicode="&#x66b;" horiz-adv-x="323" 
d="M49 276v-206h82q0 -115 -61 -295h88q78 191 78 389v112h-187z" />
    <glyph glyph-name="thousandsseparatorarabic" unicode="&#x66c;" horiz-adv-x="323" 
d="M49 276v-206h82q0 -115 -61 -295h88q78 191 78 389v112h-187z" />
    <glyph glyph-name="asteriskarabic" unicode="&#x66d;" horiz-adv-x="1024" 
d="M915 502l-18 41l-283 -41l-77 293h-41l-80 -293l-283 43l-18 -43l239 -191l-106 -284l35 -27l233 193l232 -193l34 31l-104 282z" />
    <glyph glyph-name="superscriptalef" unicode="&#x670;" 
d="M47 1524h70v356h-70v-356z" />
    <glyph glyph-name="extendedarabicindicdigitzero" unicode="&#x6f0;" horiz-adv-x="561" 
d="M381 244v284l-201 123v-282z" />
    <glyph glyph-name="extendedarabicindicdigitone" unicode="&#x6f1;" horiz-adv-x="413" 
d="M279 0v1321l-144 -111v-1210h144z" />
    <glyph glyph-name="extendedarabicindicdigittwo" unicode="&#x6f2;" horiz-adv-x="976" 
d="M842 1196v129q-82 -2 -174 -2q-296 0 -432 -238q-101 -174 -101 -444v-641h144v664q0 219 83 358q104 174 318 174h162z" />
    <glyph glyph-name="extendedarabicindicdigitthree" unicode="&#x6f3;" horiz-adv-x="1101" 
d="M967 1141v182h-127v-125q0 -145 -63 -216t-232 -71q98 17 98 230v182h-123v-125q0 -72 -9.5 -117.5t-35.5 -81.5t-74.5 -51.5t-124.5 -15.5v393h-141v-1325h144v786h311q174 0 275.5 95t101.5 260z" />
    <glyph glyph-name="extendedarabicindicdigitfour" unicode="&#x6f4;" horiz-adv-x="1003" 
d="M868 0v129h-329q-114 0 -186 71.5t-72 180.5q0 108 74 181t184 73h40.5t32.5 -0.5t23 -1t15 -0.5h5v125h-106q-103 0 -172.5 64.5t-69.5 164.5q0 95 66.5 154t175.5 59h272v123h-313q-151 0 -245.5 -83.5t-94.5 -221.5q0 -233 203 -322q-236 -64 -236 -340
q0 -155 116.5 -255.5t289.5 -100.5h327z" />
    <glyph glyph-name="extendedarabicindicdigitfive" unicode="&#x6f5;" horiz-adv-x="1161" 
d="M1026 578q0 191 -184 405q-139 163 -262 225q-123 -60 -263 -225q-182 -215 -182 -405q0 -221 122 -354.5t321 -133.5q200 0 324 135t124 353zM868 565q0 -164 -76 -259t-212 -95q-132 0 -210.5 96.5t-78.5 257.5q0 126 89.5 280.5t199.5 221.5q112 -64 200 -218t88 -284
z" />
    <glyph glyph-name="extendedarabicindicdigitsix" unicode="&#x6f6;" horiz-adv-x="976" 
d="M842 641q0 321 -139.5 502.5t-395.5 181.5h-172v-129h160q191 0 297 -142t106 -390v-664h144v641z" />
    <glyph glyph-name="extendedarabicindicdigitseven" unicode="&#x6f7;" horiz-adv-x="1079" 
d="M944 1325h-143l-250 -1223l-277 1223h-139l293 -1325h227z" />
    <glyph glyph-name="extendedarabicindicdigiteight" unicode="&#x6f8;" horiz-adv-x="1079" 
d="M944 0l-289 1325h-227l-293 -1325h139l277 1223l250 -1223h143z" />
    <glyph glyph-name="extendedarabicindicdigitnine" unicode="&#x6f9;" horiz-adv-x="1044" 
d="M907 909q0 187 -101.5 300.5t-281.5 113.5q-178 0 -283.5 -116.5t-105.5 -299.5q0 -187 103 -299t284 -112q144 0 242 79v-575h143v909zM764 922q0 -320 -242 -320q-112 0 -176.5 80t-64.5 217q0 151 65 233t186 82q114 0 173 -76.5t59 -215.5z" />
    <glyph glyph-name="zeronojoin" unicode="&#x200c;" horiz-adv-x="40" 
d="M41 0v1479h-41v-1479h41z" />
    <glyph glyph-name="zerojoin" unicode="&#x200d;" horiz-adv-x="40" 
d="M145 1358l-96 98l96 96l-28 29l-97 -98l-96 98l-28 -29l98 -96l-98 -98l28 -27l76 76v-1407h41v1407l76 -76z" />
    <glyph glyph-name="lefttoright" unicode="&#x200e;" horiz-adv-x="40" 
d="M274 1456l-122 125l-29 -29l74 -73h-197v-1479h41v1438h160l-78 -78l29 -29z" />
    <glyph glyph-name="righttoleft" unicode="&#x200f;" horiz-adv-x="40" 
d="M41 0v1479h-197l74 73l-29 29l-122 -125l122 -125l29 29l-78 78h160v-1438h41z" />
    <glyph glyph-name="hyphenminus" unicode="&#x2010;" horiz-adv-x="929" 
d="M49 393h862v80h-862v-80z" />
    <glyph glyph-name="quotedblleft" unicode="&#x201c;" horiz-adv-x="546" 
d="M485 1325h-53q-143 -131 -143 -221v-166h164v147q-64 0 -64 52q0 102 96 188zM266 1325h-51q-145 -133 -145 -221v-166h163v147q-63 0 -63 52q0 102 96 188z" />
    <glyph glyph-name="quotedblright" unicode="&#x201d;" horiz-adv-x="546" 
d="M485 1157v168h-161v-149q32 0 46.5 -12t14.5 -40q0 -100 -96 -186h51q145 133 145 219zM266 1157v168h-162v-149q64 0 64 -52q0 -101 -98 -186h51q145 133 145 219z" />
    <glyph glyph-name="delete" unicode="&#x2421;" horiz-adv-x="1452" 
d="M1380 117v63h-260v469h-73v-532h333zM981 117v63h-326v180h293v64h-293v162h314v63h-387v-532h399zM518 387q0 217 -162 254q-27 8 -94 8h-184v-532h194q42 0 84 10q162 40 162 260zM446 387q0 -114 -53 -170q-40 -37 -129 -37h-114v406h112q57 0 90 -11q94 -37 94 -188z
" />
    <glyph glyph-name="ornateleftparenthesis" unicode="&#xfd3e;" horiz-adv-x="659" 
d="M600 -221q-164 129 -258 354q-94 227 -94 488q0 259 82 451t266 362l-64 75q-460 -334 -460 -903q0 -541 467 -913z" />
    <glyph glyph-name="ornaterightparenthesis" unicode="&#xfd3f;" horiz-adv-x="659" 
d="M594 600q0 540 -465 913l-63 -86q164 -126 258 -354q94 -224 94 -485q0 -497 -350 -817l63 -74q463 337 463 903z" />
    <glyph glyph-name="zerowidthnobreakspace" unicode="&#xfeff;" 
 />
    <glyph glyph-name="CR" horiz-adv-x="681" 
 />
    <glyph glyph-name="_4" horiz-adv-x="573" 
 />
    <glyph glyph-name="_13" horiz-adv-x="559" 
 />
    <glyph glyph-name="kashidaautoarabic" horiz-adv-x="405" 
d="M422 0v139h-434v-139h434z" />
    <glyph glyph-name="nonbreakingspace" horiz-adv-x="1275" 
 />
    <glyph glyph-name="_246" 
 />
    </font>
</defs>
</svg>
