<?xml version="1.0" standalone="no"?>
<!DOCTYPE svg PUBLIC "-//W3C//DTD SVG 1.1//EN" "http://www.w3.org/Graphics/SVG/1.1/DTD/svg11.dtd" >
<svg xmlns="http://www.w3.org/2000/svg" xmlns:xlink="http://www.w3.org/1999/xlink" version="1.1">
<metadata>
Created by FontForge 20170731 at Wed Dec 20 17:38:27 2017
 By Aleksey,,,
(URW)++,Copyright 2017 by (URW)++ Design &#38; Development
</metadata>
<defs>
<font id="URWGeometricArabic-Bold" horiz-adv-x="0" >
  <font-face 
    font-family="URWGeometricArabic-Bold"
    font-weight="400"
    font-stretch="normal"
    units-per-em="1000"
    panose-1="0 0 0 0 0 0 0 0 0 0"
    ascent="731"
    descent="-269"
    x-height="443"
    cap-height="667"
    bbox="-423 -511 1437 1088"
    underline-thickness="103"
    underline-position="-353"
    unicode-range="U+0020-FEFC"
  />
<missing-glyph horiz-adv-x="364" 
d="M33 0v666h265v-666h-265zM66 33h199v600h-199v-600z" />
    <glyph glyph-name="uni064D0651" unicode="&#x64b;&#x651;" 
d="M-150 1019l-205 -37l-11 61l205 37zM-141 918l-205 -38l-11 61l205 38zM-250 706q-22 -15 -51 -15q-33 0 -53.5 18.5t-20.5 47.5v88h56v-79q0 -20 20 -20t20 20v59h57v-59q0 -20 20 -20t20 20v79h56v-88q0 -29 -21 -47.5t-54 -18.5q-31 0 -49 15z" />
    <glyph glyph-name="fi" unicode="fi" horiz-adv-x="476" 
d="M178 443h76v-102h-76v-341h-114v341h-42v102h42v81q0 78 36 117q32 34 89 34q28 0 63 -8v-103q-26 8 -39 8q-19 0 -27 -11t-8 -37v-81zM423 443v-443h-114v443h114zM366 664q29 0 50 -20.5t21 -49.5q0 -30 -21 -50.5t-50 -20.5q-30 0 -51 20.5t-21 50.5q0 29 21 49.5
t51 20.5z" />
    <glyph glyph-name="fl" unicode="fl" horiz-adv-x="477" 
d="M178 443h76v-102h-76v-341h-114v341h-42v102h42v81q0 78 36 117q32 34 89 34q28 0 63 -8v-103q-26 8 -39 8q-19 0 -27 -11t-8 -37v-81zM423 0h-114v667h114v-667z" />
    <glyph glyph-name="uniFC5E" unicode="&#x64c;&#x651;" arabic-form="isolated" 
d="M-241 941q-21 23 -21 48q0 37 24 61q21 21 51 21q39 0 60 -29q17 -23 17 -53q0 -55 -40 -86q-32 -24 -77 -24q-58 0 -96 35l-23 -33l-52 38l46 71h30q32 -49 81 -49zM-183 948q10 4 16.5 15.5t6.5 24.5t-7 21.5t-18 8.5q-24 0 -24 -28q0 -31 26 -42zM-250 706
q-22 -15 -51 -15q-33 0 -53.5 18.5t-20.5 47.5v88h56v-79q0 -20 20 -20t20 20v59h57v-59q0 -20 20 -20t20 20v79h56v-88q0 -29 -21 -47.5t-54 -18.5q-31 0 -49 15z" />
    <glyph glyph-name="uniFC5F" unicode="&#x64d;&#x651;" arabic-form="isolated" 
d="M-255 930q-22 -16 -51 -16q-33 0 -53.5 19t-20.5 48v88h56v-80q0 -19 19 -19q21 0 21 19v60h56v-60q0 -19 20 -19q21 0 21 19v80h56v-88q0 -34 -27 -53q-20 -14 -48 -14q-33 0 -49 16zM-147 825l-205 -37l-11 61l205 37zM-138 723l-205 -37l-11 61l205 38z" />
    <glyph glyph-name="uniFC60" unicode="&#x64e;&#x651;" arabic-form="isolated" 
d="M-145 920l-209 -37l-13 69l210 38zM-250 706q-22 -15 -51 -15q-33 0 -53.5 18.5t-20.5 47.5v88h56v-79q0 -20 20 -20t20 20v59h57v-59q0 -20 20 -20t20 20v79h56v-88q0 -29 -21 -47.5t-54 -18.5q-31 0 -49 15z" />
    <glyph glyph-name="uniFC61" unicode="&#x64f;&#x651;" arabic-form="isolated" 
d="M-212 906l-153 -28l-11 58l114 21q-19 22 -19 51q0 34 23 58q22 22 52 22q34 0 55 -23t21 -60q0 -41 -27 -69q-23 -24 -55 -30zM-203 969q21 11 21 37q0 28 -23 28q-21 0 -21 -27q0 -29 23 -38zM-250 706q-22 -15 -51 -15q-33 0 -53.5 18.5t-20.5 47.5v88h56v-79
q0 -20 20 -20t20 20v59h57v-59q0 -20 20 -20t20 20v79h56v-88q0 -29 -21 -47.5t-54 -18.5q-31 0 -49 15z" />
    <glyph glyph-name="uniFC62" unicode="&#x650;&#x651;" arabic-form="isolated" 
d="M-254 844q-22 -15 -51 -15q-32 0 -53 18.5t-21 47.5v88h56v-79q0 -20 19 -20q21 0 21 20v59h56v-59q0 -20 20 -20q21 0 21 20v79h56v-88q0 -29 -21 -47.5t-54 -18.5q-32 0 -49 15zM-137 723l-210 -37l-13 69l211 38z" />
    <glyph glyph-name="uniFC63" unicode="&#x651;&#x670;" arabic-form="isolated" 
d="M-219 876h-66v161h66v-161zM-250 706q-22 -15 -51 -15q-33 0 -53.5 18.5t-20.5 47.5v88h56v-79q0 -20 20 -20t20 20v59h57v-59q0 -20 20 -20t20 20v79h56v-88q0 -29 -21 -47.5t-54 -18.5q-31 0 -49 15z" />
    <glyph glyph-name="uniFDF2" unicode="&#x627;&#xfedf;&#xfee0;&#x6c1;" horiz-adv-x="1411" arabic-form="isolated" 
d="M722 850h-60v146h60v-146zM693 677q-22 -16 -51 -16q-32 0 -53 18.5t-21 46.5v87h56v-77q0 -20 20 -20t20 20v58h56v-58q0 -20 20 -20q21 0 21 20v77h56v-87q0 -28 -21 -46.5t-54 -18.5t-49 16zM1331 0h-115v666h115v-666zM693 63q-50 -63 -164 -63q-126 0 -176 77
q-50 -47 -121 -47q-81 0 -132 58q-49 56 -49 146q0 102 66 162q57 53 146 53h56v45h106v-263q0 -67 28 -95q25 -25 77 -25q59 0 84 35q21 30 21 89v341h115v-341q0 -68 28 -97q26 -27 78 -27q55 0 80 28.5t25 91.5v345h115v-365q0 -211 -220 -211q-113 0 -163 63zM319 352
h-53q-55 0 -82 -34q-23 -29 -23 -78q0 -57 27 -90q23 -28 58 -28q39 0 77 34q-4 23 -4 55v141z" />
    <glyph glyph-name="uniFEF5" unicode="&#xfedf;&#xfe82;" horiz-adv-x="652" arabic-form="isolated" 
d="M361 644q-11 -30 -32.5 -47t-47.5 -17q-27 0 -61 19q-19 11 -30 11q-22 0 -43 -27l-36 30q25 63 77 63q20 0 49 -18q24 -15 44 -15q22 0 39 31zM363 0h-331v111h146v413h115v-413h58q60 0 83 25.5t23 92.5v437h115v-468q0 -198 -209 -198z" />
    <glyph glyph-name="uniFEF6" unicode="&#xfee0;&#xfe82;" horiz-adv-x="696" arabic-form="final" 
d="M361 644q-11 -30 -32.5 -47t-47.5 -17q-27 0 -61 19q-19 11 -30 11q-22 0 -43 -27l-36 30q25 63 77 63q20 0 49 -18q24 -15 44 -15q22 0 39 31zM363 0h-331v111h146v413h115v-413h58q60 0 83 25.5t23 92.5v437h115v-437q0 -67 22 -92q24 -26 84 -26h28v-111h-41
q-102 0 -150 57q-51 -57 -152 -57z" />
    <glyph glyph-name="uniFEF7" unicode="&#xfedf;&#xfe84;" horiz-adv-x="652" arabic-form="isolated" 
d="M328 604h-187v52h42q-10 17 -10 37q0 31 21.5 51.5t54.5 20.5q35 0 60 -26l-18 -36q-16 12 -36 12q-32 0 -32 -28q0 -15 12 -31h93v-52zM363 0h-331v111h146v413h115v-413h58q60 0 83 25.5t23 92.5v437h115v-468q0 -198 -209 -198z" />
    <glyph glyph-name="uniFEF8" unicode="&#xfee0;&#xfe84;" horiz-adv-x="696" arabic-form="final" 
d="M328 604h-187v52h42q-10 17 -10 37q0 31 21.5 51.5t54.5 20.5q35 0 60 -26l-18 -36q-16 12 -36 12q-32 0 -32 -28q0 -15 12 -31h93v-52zM363 0h-331v111h146v413h115v-413h58q60 0 83 25.5t23 92.5v437h115v-437q0 -67 22 -92q24 -26 84 -26h28v-111h-41q-102 0 -150 57
q-51 -57 -152 -57z" />
    <glyph glyph-name="uniFEF9" unicode="&#xfedf;&#xfe88;" horiz-adv-x="652" arabic-form="isolated" 
d="M363 0h-331v111h146v413h115v-413h58q60 0 83 25.5t23 92.5v437h115v-468q0 -198 -209 -198zM327 -252h-187v52h42q-10 17 -10 36q0 31 21.5 52t54.5 21q34 0 60 -26l-18 -36q-16 12 -36 12q-32 0 -32 -28q0 -16 12 -31h93v-52z" />
    <glyph glyph-name="uniFEFA" unicode="&#xfee0;&#xfe88;" horiz-adv-x="696" arabic-form="final" 
d="M363 0h-331v111h146v413h115v-413h58q60 0 83 25.5t23 92.5v437h115v-437q0 -67 22 -92q24 -26 84 -26h28v-111h-41q-102 0 -150 57q-51 -57 -152 -57zM327 -252h-187v52h42q-10 17 -10 36q0 31 21.5 52t54.5 21q34 0 60 -26l-18 -36q-16 12 -36 12q-32 0 -32 -28
q0 -16 12 -31h93v-52z" />
    <glyph glyph-name="uniFEFB" unicode="&#xfedf;&#xfe8e;" horiz-adv-x="652" arabic-form="isolated" 
d="M363 0h-331v111h146v413h115v-413h58q60 0 83 25.5t23 92.5v437h115v-468q0 -198 -209 -198z" />
    <glyph glyph-name="uniFEFC" unicode="&#xfee0;&#xfe8e;" horiz-adv-x="696" arabic-form="final" 
d="M363 0h-331v111h146v413h115v-413h58q60 0 83 25.5t23 92.5v437h115v-437q0 -67 22 -92q24 -26 84 -26h28v-111h-41q-102 0 -150 57q-51 -57 -152 -57z" />
    <glyph glyph-name="uniFB50" unicode="&#x671;" horiz-adv-x="277" arabic-form="isolated" 
d="M39 760q46 133 148 133q52 0 78 -27q21 -22 21 -58q0 -57 -57 -86q-45 -23 -114 -23q-21 0 -32 1q-1 -6 -4 -18l-6 -30l-58 8l9 47q-32 4 -58 14l10 50q37 -8 63 -11zM100 755h13q106 0 106 49q0 32 -36 32q-53 0 -83 -81zM196 0h-115v611h115v-611z" />
    <glyph glyph-name="uniFB51" unicode="&#x671;" horiz-adv-x="320" arabic-form="final" 
d="M39 760q46 133 148 133q52 0 78 -27q21 -22 21 -58q0 -57 -57 -86q-45 -23 -114 -23q-21 0 -32 1q-1 -6 -4 -18l-6 -30l-58 8l9 47q-32 4 -58 14l10 50q37 -8 63 -11zM100 755h13q106 0 106 49q0 32 -36 32q-53 0 -83 -81zM196 611v-382q0 -67 22 -92q24 -26 83 -26h29
v-111h-41q-208 0 -208 198v413h115z" />
    <glyph glyph-name="uniFB52" unicode="&#x67b;" horiz-adv-x="883" arabic-form="isolated" 
d="M592 0h-284q-120 0 -184 77q-49 60 -49 144q0 66 36 120q35 51 93 75l48 -74q-34 -17 -53 -47t-19 -65q0 -52 37 -86q36 -33 92 -33h264q66 0 93 35q22 29 22 89v195h115v-219q0 -211 -211 -211zM498 -132q0 -24 -17 -41t-42 -17q-24 0 -41.5 17t-17.5 41t17.5 41
t41.5 17q25 0 42 -17t17 -41zM498 -261q0 -24 -17 -41t-42 -17q-24 0 -41.5 17t-17.5 41t17.5 41t41.5 17q25 0 42 -17t17 -41z" />
    <glyph glyph-name="uniFB53" unicode="&#x67b;" horiz-adv-x="925" arabic-form="final" 
d="M592 0h-284q-120 0 -184 77q-49 60 -49 144q0 66 36 120q35 51 93 75l48 -74q-34 -17 -53 -47t-19 -65q0 -52 37 -86q36 -33 92 -33h264q66 0 93 35q22 29 22 89v195h115v-195q0 -68 28 -97q26 -27 77 -27h27v-111h-36q-102 0 -152 62q-51 -62 -155 -62zM494 -132
q0 -24 -17 -41t-42 -17q-24 0 -41 17t-17 41t17 41t41 17q25 0 42 -17t17 -41zM494 -261q0 -24 -17 -41t-42 -17q-24 0 -41 17t-17 41t17 41t41 17q25 0 42 -17t17 -41z" />
    <glyph glyph-name="uniFB54" unicode="&#x67b;" horiz-adv-x="318" arabic-form="initial" 
d="M-10 0v111h27q59 0 84 35q21 30 21 89v195h115v-219q0 -211 -211 -211h-36zM119 -319q-24 0 -41 17t-17 41t17 41t41 17q25 0 42 -17t17 -41t-17 -41t-42 -17zM119 -190q-24 0 -41 17t-17 41t17 41t41 17q25 0 42 -17t17 -41t-17 -41t-42 -17z" />
    <glyph glyph-name="uniFB55" unicode="&#x67b;" horiz-adv-x="359" arabic-form="medial" 
d="M-10 0v111h27q59 0 84 35q21 30 21 89v195h115v-195q0 -68 28 -97q26 -27 77 -27h27v-111h-35q-104 0 -154 63q-51 -63 -154 -63h-36zM173 -319q-24 0 -41 17t-17 41t17 41t41 17q25 0 42 -17t17 -41t-17 -41t-42 -17zM173 -190q-24 0 -41 17t-17 41t17 41t41 17
q25 0 42 -17t17 -41t-17 -41t-42 -17z" />
    <glyph glyph-name="uniFB56" unicode="&#x67e;" horiz-adv-x="883" arabic-form="isolated" 
d="M592 0h-284q-120 0 -184 77q-49 60 -49 144q0 66 36 120q35 51 93 75l48 -74q-34 -17 -53 -47t-19 -65q0 -52 37 -86q36 -33 92 -33h264q66 0 93 35q22 29 22 89v195h115v-219q0 -211 -211 -211zM431 -137q0 -25 -19 -43.5t-45 -18.5t-45 18.5t-19 43.5q0 26 19 44.5
t45 18.5t45 -18.5t19 -44.5zM575 -137q0 -25 -19 -43.5t-46 -18.5q-26 0 -44.5 18.5t-18.5 43.5q0 26 18.5 44.5t44.5 18.5q27 0 46 -18.5t19 -44.5zM497 -259q0 -23 -17 -40t-41 -17q-23 0 -40.5 17t-17.5 40t17 40t41 17t41 -16.5t17 -40.5z" />
    <glyph glyph-name="uniFB57" unicode="&#x67e;" horiz-adv-x="925" arabic-form="final" 
d="M592 0h-284q-120 0 -184 77q-49 60 -49 144q0 66 36 120q35 51 93 75l48 -74q-34 -17 -53 -47t-19 -65q0 -52 37 -86q36 -33 92 -33h264q66 0 93 35q22 29 22 89v195h115v-195q0 -68 28 -97q26 -27 77 -27h27v-111h-36q-102 0 -152 62q-51 -62 -155 -62zM427 -137
q0 -25 -19 -43.5t-45 -18.5t-45 18.5t-19 43.5q0 26 19 44.5t45 18.5t45 -18.5t19 -44.5zM571 -137q0 -25 -19 -43.5t-45 -18.5t-45 18.5t-19 43.5q0 26 19 44.5t45 18.5t45 -18.5t19 -44.5zM494 -259q0 -23 -17.5 -40t-41.5 -17q-23 0 -40.5 17t-17.5 40t17 40t41 17
t41.5 -16.5t17.5 -40.5z" />
    <glyph glyph-name="uniFB58" unicode="&#x67e;" horiz-adv-x="318" arabic-form="initial" 
d="M-10 0v111h27q59 0 84 35q21 30 21 89v195h115v-219q0 -211 -211 -211h-36zM108 -316q-23 0 -40.5 17t-17.5 40t17 40t41 17t41.5 -16.5t17.5 -40.5q0 -23 -17.5 -40t-41.5 -17zM36 -199q-26 0 -45 18.5t-19 43.5q0 26 19 44.5t45 18.5t45 -18.5t19 -44.5
q0 -25 -19 -43.5t-45 -18.5zM180 -199q-26 0 -45 18.5t-19 43.5q0 26 19 44.5t45 18.5t45 -18.5t19 -44.5q0 -25 -19 -43.5t-45 -18.5z" />
    <glyph glyph-name="uniFB59" unicode="&#x67e;" horiz-adv-x="359" arabic-form="medial" 
d="M26 0h-36v111h27q59 0 84 35q21 30 21 89v195h115v-195q0 -68 28 -97q26 -27 77 -27h27v-111h-35q-104 0 -154 63q-51 -63 -154 -63zM170 -137q0 -25 -19 -43.5t-45 -18.5t-45 18.5t-19 43.5q0 26 19 44.5t45 18.5t45 -18.5t19 -44.5zM314 -137q0 -25 -19 -43.5
t-45 -18.5t-45 18.5t-19 43.5q0 26 19 44.5t45 18.5t45 -18.5t19 -44.5zM237 -259q0 -23 -17.5 -40t-41.5 -17q-23 0 -40.5 17t-17.5 40t17 40t41 17t41.5 -16.5t17.5 -40.5z" />
    <glyph glyph-name="uniFB5A" unicode="&#x680;" horiz-adv-x="883" arabic-form="isolated" 
d="M592 0h-284q-120 0 -184 77q-49 60 -49 144q0 66 36 120q35 51 93 75l48 -74q-34 -17 -53 -47t-19 -65q0 -52 37 -86q36 -33 92 -33h264q66 0 93 35q22 29 22 89v195h115v-219q0 -211 -211 -211zM432 -132q0 -24 -17.5 -41t-41.5 -17q-25 0 -42 17t-17 41t17 41t42 17
q24 0 41.5 -17t17.5 -41zM564 -132q0 -24 -17 -41t-42 -17q-24 0 -41 17t-17 41t17 41t41 17q25 0 42 -17t17 -41zM432 -262q0 -24 -17.5 -41t-41.5 -17t-41.5 17t-17.5 41t17.5 41t41.5 17t41.5 -17t17.5 -41zM564 -262q0 -24 -17 -41t-42 -17q-24 0 -41 17t-17 41t17 41
t41 17q25 0 42 -17t17 -41z" />
    <glyph glyph-name="uniFB5B" unicode="&#x680;" horiz-adv-x="925" arabic-form="final" 
d="M592 0h-284q-120 0 -184 77q-49 60 -49 144q0 66 36 120q35 51 93 75l48 -74q-34 -17 -53 -47t-19 -65q0 -52 37 -86q36 -33 92 -33h264q66 0 93 35q22 29 22 89v195h115v-195q0 -68 28 -97q26 -27 77 -27h27v-111h-36q-102 0 -152 62q-51 -62 -155 -62zM428 -132
q0 -24 -17 -41t-42 -17q-24 0 -41 17t-17 41t17 41t41 17q25 0 42 -17t17 -41zM560 -132q0 -24 -17 -41t-42 -17q-24 0 -41 17t-17 41t17 41t41 17q25 0 42 -17t17 -41zM428 -262q0 -24 -17.5 -41t-41.5 -17t-41 17t-17 41t17 41t41 17t41.5 -17t17.5 -41zM560 -262
q0 -24 -17 -41t-42 -17q-24 0 -41 17t-17 41t17 41t41 17q25 0 42 -17t17 -41z" />
    <glyph glyph-name="uniFB5C" unicode="&#x680;" horiz-adv-x="318" arabic-form="initial" 
d="M-10 0v111h27q59 0 84 35q21 30 21 89v195h115v-219q0 -211 -211 -211h-36zM48 -320q-24 0 -41 17t-17 41t17 41t41 17t41.5 -17t17.5 -41t-17.5 -41t-41.5 -17zM180 -320q-24 0 -41 17t-17 41t17 41t41 17q25 0 42 -17t17 -41t-17 -41t-42 -17zM48 -190q-24 0 -41 17
t-17 41t17 41t41 17q25 0 42 -17t17 -41t-17 -41t-42 -17zM180 -190q-24 0 -41 17t-17 41t17 41t41 17q25 0 42 -17t17 -41t-17 -41t-42 -17z" />
    <glyph glyph-name="uniFB5D" unicode="&#x680;" horiz-adv-x="359" arabic-form="medial" 
d="M-10 0v111h27q59 0 84 35q21 30 21 89v195h115v-195q0 -68 28 -97q26 -27 77 -27h27v-111h-35q-104 0 -154 63q-51 -63 -154 -63h-36zM89 -320q-24 0 -41 17t-17 41t17 41t41 17t41.5 -17t17.5 -41t-17.5 -41t-41.5 -17zM221 -320q-24 0 -41 17t-17 41t17 41t41 17
q25 0 42 -17t17 -41t-17 -41t-42 -17zM89 -190q-24 0 -41 17t-17 41t17 41t41 17q25 0 42 -17t17 -41t-17 -41t-42 -17zM221 -190q-24 0 -41 17t-17 41t17 41t41 17q25 0 42 -17t17 -41t-17 -41t-42 -17z" />
    <glyph glyph-name="uniFB5E" unicode="&#x67a;" horiz-adv-x="883" arabic-form="isolated" 
d="M508 624q0 -24 -17 -41t-41 -17q-25 0 -42 17t-17 41t17 41t42 17q24 0 41 -17t17 -41zM508 491q0 -25 -17 -42t-41 -17q-25 0 -42 17t-17 42q0 24 17 40.5t42 16.5q24 0 41 -16.5t17 -40.5zM592 0h-284q-120 0 -184 77q-49 60 -49 144q0 66 36 120q35 51 93 75l48 -74
q-34 -17 -53 -47t-19 -65q0 -52 37 -86q36 -33 92 -33h264q66 0 93 35q22 29 22 89v195h115v-219q0 -211 -211 -211z" />
    <glyph glyph-name="uniFB5F" unicode="&#x67a;" horiz-adv-x="925" arabic-form="final" 
d="M512 624q0 -24 -17 -41t-41 -17q-25 0 -42 16.5t-17 41.5q0 24 17 41t42 17q24 0 41 -17t17 -41zM512 490q0 -24 -17 -41t-41 -17q-25 0 -42 17t-17 41t17 41t42 17q24 0 41 -17t17 -41zM592 0h-284q-120 0 -184 77q-49 60 -49 144q0 66 36 120q35 51 93 75l48 -74
q-34 -17 -53 -47t-19 -65q0 -52 37 -86q36 -33 92 -33h264q66 0 93 35q22 29 22 89v195h115v-195q0 -68 28 -97q26 -27 77 -27h27v-111h-36q-102 0 -152 62q-51 -62 -155 -62z" />
    <glyph glyph-name="uniFB60" unicode="&#x67a;" horiz-adv-x="318" arabic-form="initial" 
d="M235 708q0 -24 -17 -41t-42 -17q-24 0 -41 17t-17 41t17 41t41 17q25 0 42 -17t17 -41zM235 574q0 -24 -17 -41t-42 -17q-24 0 -41 17t-17 41t17 41t41 17q25 0 42 -17t17 -41zM26 0h-36v111h27q59 0 84 35q21 30 21 89v195h115v-219q0 -211 -211 -211z" />
    <glyph glyph-name="uniFB61" unicode="&#x67a;" horiz-adv-x="359" arabic-form="medial" 
d="M239 708q0 -24 -17 -41t-41 -17q-25 0 -42 17t-17 41t17 41t42 17q24 0 41 -17t17 -41zM239 574q0 -24 -17 -41t-41 -17q-25 0 -42 17t-17 41t17 41t42 17q24 0 41 -17t17 -41zM26 0h-36v111h27q59 0 84 35q21 30 21 89v195h115v-195q0 -68 28 -97q26 -27 77 -27h27v-111
h-35q-104 0 -154 63q-51 -63 -154 -63z" />
    <glyph glyph-name="uniFB62" unicode="&#x67f;" horiz-adv-x="883" arabic-form="isolated" 
d="M440 624q0 -24 -17 -41t-42 -17q-24 0 -41 17t-17 41t17 41t41 17q25 0 42 -17t17 -41zM572 624q0 -24 -17 -41t-42 -17q-24 0 -41 17t-17 41t17 41t41 17q25 0 42 -17t17 -41zM440 491q0 -24 -17.5 -41t-41.5 -17t-41 17t-17 41t17 40.5t41 16.5t41.5 -16.5t17.5 -40.5z
M572 491q0 -24 -17 -41t-42 -17q-24 0 -41 17t-17 41t17 40.5t41 16.5q25 0 42 -16.5t17 -40.5zM592 0h-284q-120 0 -184 77q-49 60 -49 144q0 66 36 120q35 51 93 75l48 -74q-34 -17 -53 -47t-19 -65q0 -52 37 -86q36 -33 92 -33h264q66 0 93 35q22 29 22 89v195h115v-219
q0 -211 -211 -211z" />
    <glyph glyph-name="uniFB63" unicode="&#x67f;" horiz-adv-x="925" arabic-form="final" 
d="M446 616q0 -24 -17 -41t-41 -17q-25 0 -42 17t-17 41t17 41t42 17q24 0 41 -17t17 -41zM579 616q0 -24 -17.5 -41t-41.5 -17t-41.5 17t-17.5 41t17.5 41t41.5 17t41.5 -17t17.5 -41zM446 483q0 -24 -17 -41t-41 -17t-41.5 17t-17.5 41t17.5 40.5t41.5 16.5t41 -16.5
t17 -40.5zM579 483q0 -24 -17.5 -41t-41.5 -17t-41.5 17t-17.5 41t17.5 40.5t41.5 16.5t41.5 -16.5t17.5 -40.5zM592 0h-284q-120 0 -184 77q-49 60 -49 144q0 66 36 120q35 51 93 75l48 -74q-34 -17 -53 -47t-19 -65q0 -52 37 -86q36 -33 92 -33h264q66 0 93 35
q22 29 22 89v195h115v-195q0 -68 28 -97q26 -27 77 -27h27v-111h-36q-102 0 -152 62q-51 -62 -155 -62z" />
    <glyph glyph-name="uniFB64" unicode="&#x67f;" horiz-adv-x="318" arabic-form="initial" 
d="M169 700q0 -24 -17 -40.5t-42 -16.5q-24 0 -41.5 16.5t-17.5 40.5t17.5 41t41.5 17q25 0 42 -17t17 -41zM301 700q0 -24 -17 -40.5t-42 -16.5q-24 0 -41 16.5t-17 40.5t17 41t41 17q25 0 42 -17t17 -41zM169 567q0 -24 -17.5 -41t-41.5 -17t-41.5 17t-17.5 41t17.5 41
t41.5 17t41.5 -17t17.5 -41zM301 567q0 -24 -17 -41t-42 -17q-24 0 -41 17t-17 41t17 41t41 17q25 0 42 -17t17 -41zM26 0h-36v111h27q59 0 84 35q21 30 21 89v195h115v-219q0 -211 -211 -211z" />
    <glyph glyph-name="uniFB65" unicode="&#x67f;" horiz-adv-x="359" arabic-form="medial" 
d="M173 700q0 -24 -17 -40.5t-42 -16.5q-24 0 -41 16.5t-17 40.5t17 41t41 17q25 0 42 -17t17 -41zM305 700q0 -24 -17 -40.5t-42 -16.5q-24 0 -41 16.5t-17 40.5t17 41t41 17q25 0 42 -17t17 -41zM173 567q0 -24 -17.5 -41t-41.5 -17t-41 17t-17 41t17 41t41 17t41.5 -17
t17.5 -41zM305 567q0 -24 -17 -41t-42 -17q-24 0 -41 17t-17 41t17 41t41 17q25 0 42 -17t17 -41zM26 0h-36v111h27q59 0 84 35q21 30 21 89v195h115v-195q0 -68 28 -97q26 -27 77 -27h27v-111h-35q-104 0 -154 63q-51 -63 -154 -63z" />
    <glyph glyph-name="uniFB66" unicode="&#x679;" horiz-adv-x="883" arabic-form="isolated" 
d="M511 455h-216v56h61v176h60v-107q42 60 103 60q45 0 71 -29q22 -25 22 -67q0 -89 -101 -89zM418 511l90 1q40 0 40 32q0 17 -11 27.5t-30 10.5q-24 0 -48 -19t-41 -52zM592 0h-284q-120 0 -184 77q-49 60 -49 144q0 66 36 120q35 51 93 75l48 -74q-34 -17 -53 -47
t-19 -65q0 -52 37 -86q36 -33 92 -33h264q66 0 93 35q22 29 22 89v195h115v-219q0 -211 -211 -211z" />
    <glyph glyph-name="uniFB67" unicode="&#x679;" horiz-adv-x="925" arabic-form="final" 
d="M511 455h-216v56h61v176h60v-107q42 60 103 60q45 0 71 -29q22 -25 22 -67q0 -89 -101 -89zM418 511l90 1q40 0 40 32q0 17 -11 27.5t-30 10.5q-24 0 -48 -19t-41 -52zM592 0h-284q-120 0 -184 77q-49 60 -49 144q0 66 36 120q35 51 93 75l48 -74q-34 -17 -53 -47
t-19 -65q0 -52 37 -86q36 -33 92 -33h264q66 0 93 35q22 29 22 89v195h115v-195q0 -68 28 -97q26 -27 77 -27h27v-111h-36q-102 0 -152 62q-51 -62 -155 -62z" />
    <glyph glyph-name="uniFB68" unicode="&#x679;" horiz-adv-x="318" arabic-form="initial" 
d="M234 539h-217v57h61v175h60v-107q42 60 103 60q46 0 72 -29q22 -25 22 -66q0 -90 -101 -90zM140 596h90q41 0 41 33q0 17 -11 27t-30 10q-25 0 -48.5 -18.5t-41.5 -51.5zM26 0h-36v111h27q59 0 84 35q21 30 21 89v195h115v-219q0 -211 -211 -211z" />
    <glyph glyph-name="uniFB69" unicode="&#x679;" horiz-adv-x="359" arabic-form="medial" 
d="M238 539h-216v57h61v175h59v-107q43 60 104 60q45 0 71 -29q22 -25 22 -66q0 -90 -101 -90zM145 596h90q40 0 40 33q0 17 -11 27t-30 10q-52 0 -89 -70zM26 0h-36v111h27q59 0 84 35q21 30 21 89v195h115v-195q0 -68 28 -97q26 -27 77 -27h27v-111h-35q-104 0 -154 63
q-51 -63 -154 -63z" />
    <glyph glyph-name="uniFB6A" unicode="&#x6a4;" horiz-adv-x="945" arabic-form="isolated" 
d="M745 697q0 -24 -17.5 -40.5t-41.5 -16.5t-41 17t-17 40t17.5 40t40.5 17q24 0 41.5 -17t17.5 -40zM678 574q0 -25 -19 -43.5t-45 -18.5t-45 18.5t-19 43.5q0 26 19 44.5t45 18.5t45 -18.5t19 -44.5zM822 574q0 -25 -19 -43.5t-45 -18.5t-45 18.5t-19 43.5q0 26 19 44.5
t45 18.5t45 -18.5t19 -44.5zM697 0h-389q-120 0 -184 77q-49 60 -49 144q0 66 36 120q35 51 93 75l48 -74q-34 -17 -53 -47t-19 -65q0 -52 37 -86q36 -33 92 -33h228q-31 51 -31 121q0 104 58 163q51 52 132 52q88 0 137 -55q42 -47 42 -121v-87q0 -86 -51 -136
q-48 -48 -127 -48zM612 230q0 -62 29 -94q23 -25 57 -25q67 0 67 75v79q0 80 -69 80q-40 0 -62 -30t-22 -85z" />
    <glyph glyph-name="uniFB6B" unicode="&#x6a4;" horiz-adv-x="973" arabic-form="final" 
d="M761 698q0 -24 -17 -40.5t-41 -16.5t-41 16.5t-17 40.5q0 23 17 40t41 17t41 -17t17 -40zM695 575q0 -25 -19 -43.5t-45 -18.5t-45 18.5t-19 43.5q0 26 19 44.5t45 18.5t45 -18.5t19 -44.5zM839 575q0 -25 -19 -43.5t-46 -18.5q-26 0 -45 18.5t-19 43.5q0 26 19 44.5
t45 18.5q27 0 46 -18.5t19 -44.5zM625 0h-317q-120 0 -184 77q-49 60 -49 144q0 66 36 120q35 51 93 75l48 -74q-34 -17 -53 -47t-19 -65q0 -52 37 -86q36 -33 92 -33h247q-50 61 -50 137q0 93 57 150q52 52 137 52q98 0 151 -66q44 -54 44 -136q0 -77 -51 -137h139v-111
h-208q-44 0 -75 7q-29 -7 -75 -7zM700 110q40 20 64 58.5t24 82.5q0 48 -26 75q-24 24 -62 24q-43 0 -67 -31q-20 -26 -20 -68q0 -43 24 -82t63 -59z" />
    <glyph glyph-name="uniFB6C" unicode="&#x6a4;" horiz-adv-x="536" arabic-form="initial" 
d="M346 698q0 -24 -17 -40.5t-41 -16.5t-41 16.5t-17 40.5q0 23 17 40t41 17t41 -17t17 -40zM280 575q0 -25 -19 -43.5t-46 -18.5q-26 0 -44.5 18.5t-18.5 43.5q0 26 18.5 44.5t44.5 18.5q27 0 46 -18.5t19 -44.5zM423 575q0 -25 -19 -43.5t-45 -18.5t-45 18.5t-19 43.5
q0 26 19 44.5t45 18.5t45 -18.5t19 -44.5zM288 0h-298v111h138q-31 51 -31 121q0 104 58 163q51 52 132 52q88 0 137 -55q42 -47 42 -121v-87q0 -85 -51 -136q-47 -47 -127 -48zM203 230q0 -62 29 -94q23 -25 57 -25q67 0 67 75v79q0 80 -69 80q-40 0 -62 -30t-22 -85z" />
    <glyph glyph-name="uniFB6D" unicode="&#x6a4;" horiz-adv-x="546" arabic-form="medial" 
d="M331 698q0 -24 -17.5 -40.5t-41.5 -16.5t-40.5 16.5t-16.5 40.5q0 23 17 40t40 17q24 0 41.5 -17t17.5 -40zM264 575q0 -25 -19 -43.5t-45 -18.5t-45 18.5t-19 43.5q0 26 19 44.5t45 18.5t45 -18.5t19 -44.5zM408 575q0 -25 -19 -43.5t-45 -18.5t-45 18.5t-19 43.5
q0 26 19 44.5t45 18.5t45 -18.5t19 -44.5zM198 0h-208v111h139q-51 62 -51 137q0 93 57 150q53 52 138 52q98 0 151 -66q44 -54 44 -136q0 -75 -51 -137h139v-111h-208q-46 0 -75 7q-29 -7 -75 -7zM273 110q40 21 63.5 59t23.5 82q0 48 -26 75q-23 24 -61 24q-44 0 -67 -31
q-20 -26 -20 -68q0 -43 24 -82t63 -59z" />
    <glyph glyph-name="uniFB6E" unicode="&#x6a6;" horiz-adv-x="945" arabic-form="isolated" 
d="M679 701q0 -24 -17.5 -40.5t-41.5 -16.5t-41.5 16.5t-17.5 40.5t17.5 41t41.5 17t41.5 -17t17.5 -41zM811 701q0 -24 -17 -40.5t-42 -16.5q-24 0 -41 16.5t-17 40.5t17 41t41 17q25 0 42 -17t17 -41zM679 568q0 -24 -17.5 -41t-41.5 -17t-41.5 17t-17.5 41t17.5 41
t41.5 17t41.5 -17t17.5 -41zM811 568q0 -24 -17 -41t-42 -17q-24 0 -41 17t-17 41t17 41t41 17q25 0 42 -17t17 -41zM697 0h-389q-120 0 -184 77q-49 60 -49 144q0 66 36 120q35 51 93 75l48 -74q-34 -17 -53 -47t-19 -65q0 -52 37 -86q36 -33 92 -33h228q-31 51 -31 121
q0 104 58 163q51 52 132 52q88 0 137 -55q42 -47 42 -121v-87q0 -86 -51 -136q-48 -48 -127 -48zM612 230q0 -62 29 -94q23 -25 57 -25q67 0 67 75v79q0 80 -69 80q-40 0 -62 -30t-22 -85z" />
    <glyph glyph-name="uniFB6F" unicode="&#x6a6;" horiz-adv-x="973" arabic-form="final" 
d="M695 702q0 -24 -17 -40.5t-41 -16.5q-25 0 -42 16.5t-17 40.5t17 41t42 17q24 0 41 -17t17 -41zM828 702q0 -24 -17.5 -40.5t-41.5 -16.5t-41.5 16.5t-17.5 40.5t17.5 41t41.5 17t41.5 -17t17.5 -41zM695 569q0 -24 -17 -41t-41 -17t-41.5 17t-17.5 41t17.5 41t41.5 17
t41 -17t17 -41zM828 569q0 -24 -17.5 -41t-41.5 -17t-41.5 17t-17.5 41t17.5 41t41.5 17t41.5 -17t17.5 -41zM625 0h-317q-120 0 -184 77q-49 60 -49 144q0 66 36 120q35 51 93 75l48 -74q-34 -17 -53 -47t-19 -65q0 -52 37 -86q36 -33 92 -33h247q-50 61 -50 137
q0 93 57 150q52 52 137 52q98 0 151 -66q44 -54 44 -136q0 -77 -51 -137h139v-111h-208q-44 0 -75 7q-29 -7 -75 -7zM700 110q40 20 64 58.5t24 82.5q0 48 -26 75q-24 24 -62 24q-43 0 -67 -31q-20 -26 -20 -68q0 -43 24 -82t63 -59z" />
    <glyph glyph-name="uniFB70" unicode="&#x6a6;" horiz-adv-x="536" arabic-form="initial" 
d="M280 702q0 -24 -17 -40.5t-41 -16.5q-25 0 -42 16.5t-17 40.5t17 41t42 17q24 0 41 -17t17 -41zM412 702q0 -24 -17 -40.5t-42 -16.5q-24 0 -41 16.5t-17 40.5t17 41t41 17q25 0 42 -17t17 -41zM280 569q0 -24 -17 -41t-41 -17t-41.5 17t-17.5 41t17.5 41t41.5 17t41 -17
t17 -41zM412 569q0 -24 -17 -41t-42 -17q-24 0 -41 17t-17 41t17 41t41 17q25 0 42 -17t17 -41zM288 0h-298v111h138q-31 51 -31 121q0 104 58 163q51 52 132 52q88 0 137 -55q42 -47 42 -121v-87q0 -85 -51 -136q-47 -47 -127 -48zM203 230q0 -62 29 -94q23 -25 57 -25
q67 0 67 75v79q0 80 -69 80q-40 0 -62 -30t-22 -85z" />
    <glyph glyph-name="uniFB71" unicode="&#x6a6;" horiz-adv-x="546" arabic-form="medial" 
d="M265 702q0 -24 -17 -40.5t-42 -16.5q-24 0 -41 16.5t-17 40.5t17 41t41 17q25 0 42 -17t17 -41zM397 702q0 -24 -17 -40.5t-42 -16.5q-24 0 -41 16.5t-17 40.5t17 41t41 17q25 0 42 -17t17 -41zM265 569q0 -24 -17.5 -41t-41.5 -17t-41 17t-17 41t17 41t41 17t41.5 -17
t17.5 -41zM397 569q0 -24 -17 -41t-42 -17q-24 0 -41 17t-17 41t17 41t41 17q25 0 42 -17t17 -41zM198 0h-208v111h139q-51 62 -51 137q0 93 57 150q53 52 138 52q98 0 151 -66q44 -54 44 -136q0 -75 -51 -137h139v-111h-208q-46 0 -75 7q-29 -7 -75 -7zM273 110
q40 21 63.5 59t23.5 82q0 48 -26 75q-23 24 -61 24q-44 0 -67 -31q-20 -26 -20 -68q0 -43 24 -82t63 -59z" />
    <glyph glyph-name="uniFB72" unicode="&#x684;" horiz-adv-x="594" arabic-form="isolated" 
d="M451 -331q-69 -36 -134 -36q-118 0 -192 76q-69 72 -69 189q0 149 118 237q102 77 270 88q-73 104 -159 104q-69 0 -140 -64l-58 66q85 106 208 106q86 0 161 -62q69 -58 108 -155v-86q-205 -2 -306 -67q-91 -59 -91 -167q0 -76 54 -121q45 -37 111 -37q46 0 86 23z
M316 -27q1 21 15.5 35.5t35.5 14.5t35.5 -14.5t14.5 -35.5q0 -20 -14.5 -34.5t-35.5 -14.5t-36 14.5t-15 34.5zM367 -87q21 -1 35.5 -15.5t14.5 -34.5q0 -21 -14.5 -35.5t-35.5 -14.5t-36 14.5t-15 35.5q1 21 16 35.5t35 14.5z" />
    <glyph glyph-name="uniFB73" unicode="&#x684;" horiz-adv-x="694" arabic-form="final" 
d="M451 -332q-67 -35 -134 -35q-118 0 -192 76q-69 73 -69 192q0 147 118 234q102 77 270 88q-73 104 -159 104q-69 0 -140 -64l-58 66q85 106 208 106q86 0 161 -62q69 -58 108 -155v-40q-21 -5 -51 -14q24 -28 61.5 -40.5t99.5 -12.5h30v-111h-33q-110 0 -171 31
q-55 28 -84 88q-125 -18 -191 -81q-58 -55 -58 -137q0 -84 54 -130q44 -39 111 -39q49 0 91 23zM307 -34q1 21 15.5 35t35.5 14t35.5 -14.5t14.5 -34.5q0 -21 -14.5 -35.5t-35.5 -14.5t-36 14.5t-15 35.5zM358 -95q21 -1 35.5 -15.5t14.5 -34.5q0 -21 -14.5 -35.5
t-35.5 -14.5t-36 14.5t-15 35.5q1 21 16 35.5t35 14.5z" />
    <glyph glyph-name="uniFB74" unicode="&#x684;" horiz-adv-x="561" arabic-form="initial" 
d="M128 0h-138v111h134q94 0 157 24.5t122 83.5q-73 108 -162 108q-69 0 -140 -64l-58 66q85 106 208 106q86 0 161 -62q69 -58 109 -155v-31q-84 -111 -185 -153q-83 -34 -208 -34zM309 -132q0 -24 -17 -41t-41 -17q-25 0 -42 17t-17 41t17 41t42 17q24 0 41 -17t17 -41z
M309 -261q0 -24 -17 -41t-41 -17q-25 0 -42 17t-17 41t17 41t42 17q24 0 41 -17t17 -41z" />
    <glyph glyph-name="uniFB75" unicode="&#x684;" horiz-adv-x="671" arabic-form="medial" 
d="M128 0h-138v111h134q94 0 157 24.5t122 83.5q-73 108 -162 108q-69 0 -140 -64l-58 66q85 106 208 106q86 0 161 -62q69 -58 109 -155v-25l-22 -35q41 -47 151 -47h31v-111h-34q-95 0 -152 22q-52 20 -83 62q-111 -84 -284 -84zM339 -132q0 -24 -17 -41t-42 -17
q-24 0 -41 17t-17 41t17 41t41 17q25 0 42 -17t17 -41zM339 -261q0 -24 -17 -41t-42 -17q-24 0 -41 17t-17 41t17 41t41 17q25 0 42 -17t17 -41z" />
    <glyph glyph-name="uniFB76" unicode="&#x683;" horiz-adv-x="594" arabic-form="isolated" 
d="M501 -318q-83 -49 -184 -49q-118 0 -192 76q-69 73 -69 192q0 147 118 234q102 77 270 88q-73 104 -159 104q-69 0 -140 -64l-58 66q85 106 208 106q86 0 161 -62q69 -58 108 -155v-86q-198 -2 -301 -67q-96 -59 -96 -164q0 -80 57 -124q46 -36 113 -36q68 0 129 30z
M382 -96q0 -23 -17 -39.5t-40 -16.5q-24 0 -41 16.5t-17 39.5t17.5 39.5t40.5 16.5t40 -16.5t17 -39.5zM516 -96q0 -23 -17 -39.5t-40 -16.5t-40 16.5t-17 39.5t17 39.5t40 16.5t40 -16.5t17 -39.5z" />
    <glyph glyph-name="uniFB77" unicode="&#x683;" horiz-adv-x="694" arabic-form="final" 
d="M501 -318q-83 -49 -184 -49q-118 0 -192 76q-69 73 -69 192q0 147 118 234q102 77 270 88q-73 104 -159 104q-69 0 -140 -64l-58 66q85 106 208 106q86 0 161 -62q69 -58 108 -155v-40q-21 -5 -51 -14q24 -28 61.5 -40.5t99.5 -12.5h30v-111h-33q-110 0 -171 31
q-55 28 -84 88q-126 -22 -191 -82q-58 -55 -58 -136q0 -80 56 -124q46 -36 112 -36q70 0 131 30zM373 -96q0 -22 -16 -38t-39 -16q-22 0 -38.5 16t-16.5 38q0 21 16.5 37t38.5 16q23 0 39 -15.5t16 -37.5zM502 -96q0 -22 -16 -38t-39 -16q-22 0 -38.5 16t-16.5 38
q0 21 16.5 37t38.5 16q23 0 39 -15.5t16 -37.5z" />
    <glyph glyph-name="uniFB78" unicode="&#x683;" horiz-adv-x="561" arabic-form="initial" 
d="M128 0h-138v111h134q94 0 157 24.5t122 83.5q-73 108 -162 108q-69 0 -140 -64l-58 66q85 106 208 106q86 0 161 -62q69 -58 109 -155v-31q-84 -111 -185 -153q-83 -34 -208 -34zM249 -137q0 -25 -19 -43.5t-45 -18.5t-45 18.5t-19 43.5q0 26 19 44.5t45 18.5t45 -18.5
t19 -44.5zM393 -137q0 -26 -18.5 -44t-45.5 -18q-26 0 -45 18.5t-19 43.5q0 26 19 44.5t45 18.5q27 0 45.5 -18.5t18.5 -44.5z" />
    <glyph glyph-name="uniFB79" unicode="&#x683;" horiz-adv-x="671" arabic-form="medial" 
d="M128 0h-138v111h134q94 0 157 24.5t122 83.5q-73 108 -162 108q-69 0 -140 -64l-58 66q85 106 208 106q86 0 161 -62q69 -58 109 -155v-25l-22 -35q41 -47 151 -47h31v-111h-34q-95 0 -152 22q-52 20 -83 62q-111 -84 -284 -84zM256 -137q0 -25 -19 -43.5t-45 -18.5
t-45 18.5t-19 43.5q0 26 19 44.5t45 18.5t45 -18.5t19 -44.5zM400 -137q0 -26 -19 -44t-46 -18q-26 0 -44.5 18.5t-18.5 43.5q0 26 18.5 44.5t44.5 18.5q27 0 46 -18t19 -45z" />
    <glyph glyph-name="uniFB7A" unicode="&#x686;" horiz-adv-x="594" arabic-form="isolated" 
d="M418 -237l33 -94q-69 -36 -134 -36q-118 0 -192 76q-69 72 -69 189q0 149 118 237q102 77 270 88q-73 104 -159 104q-69 0 -140 -64l-58 66q85 106 208 106q86 0 161 -62q69 -58 108 -155v-86q-205 -2 -306 -67q-91 -59 -91 -167q0 -76 54 -121q45 -37 111 -37
q46 0 86 23zM389 -39q0 -22 -15 -37t-37 -15t-37.5 15t-15.5 37q0 21 15.5 36.5t37.5 15.5q21 0 36.5 -15.5t15.5 -36.5zM520 -39q0 -21 -15.5 -36.5t-37.5 -15.5t-37 15t-15 37q0 21 15.5 36.5t36.5 15.5t37 -15.5t16 -36.5zM455 -145q0 -22 -16 -37.5t-38 -15.5t-38 15.5
t-16 37.5t16 37.5t38 15.5t38 -15.5t16 -37.5z" />
    <glyph glyph-name="uniFB7B" unicode="&#x686;" horiz-adv-x="694" arabic-form="final" 
d="M451 -332q-64 -35 -134 -35q-119 0 -192 76q-69 72 -69 192q0 147 118 235q102 76 270 88q-74 103 -159 103q-69 0 -140 -64l-58 66q85 106 208 106q86 0 161 -62q69 -58 108 -155v-40q-21 -5 -51 -14q23 -28 60.5 -40.5t99.5 -12.5h31v-111h-33q-110 0 -171 31
q-55 28 -84 88q-125 -19 -191 -81q-58 -55 -58 -137q0 -80 56 -125q45 -36 108 -36q46 0 86 23zM353 -42q0 -21 -15 -36.5t-37 -15.5t-37.5 15.5t-15.5 36.5q0 22 15.5 37t37.5 15q21 0 36.5 -15t15.5 -37zM484 -42q0 -21 -15.5 -36.5t-37.5 -15.5t-37 15.5t-15 36.5
q0 22 15.5 37t36.5 15t37 -15.5t16 -36.5zM419 -148q0 -22 -16 -37.5t-38 -15.5t-38 16t-16 37q0 22 16 37.5t38 15.5t38 -15.5t16 -37.5z" />
    <glyph glyph-name="uniFB7C" unicode="&#x686;" horiz-adv-x="561" arabic-form="initial" 
d="M128 0h-138v111h134q94 0 157 24.5t122 83.5q-73 108 -162 108q-69 0 -140 -64l-58 66q85 106 208 106q86 0 161 -62q69 -58 109 -155v-31q-84 -111 -185 -153q-83 -34 -208 -34zM243 -137q0 -25 -19 -43.5t-45 -18.5t-45 18.5t-19 43.5q0 26 19 44.5t45 18.5t45 -18.5
t19 -44.5zM387 -137q0 -25 -19 -43.5t-46 -18.5q-26 0 -45 18.5t-19 43.5q0 26 19 44.5t45 18.5q27 0 46 -18.5t19 -44.5zM309 -259q0 -23 -17 -40t-41 -17t-41 17t-17 40q0 24 17 40.5t41 16.5t41 -16.5t17 -40.5z" />
    <glyph glyph-name="uniFB7D" unicode="&#x686;" horiz-adv-x="671" arabic-form="medial" 
d="M128 0h-138v111h134q94 0 157 24.5t122 83.5q-73 108 -162 108q-69 0 -140 -64l-58 66q85 106 208 106q86 0 161 -62q69 -58 109 -155v-25l-22 -35q41 -47 151 -47h31v-111h-34q-95 0 -152 22q-52 20 -83 62q-111 -84 -284 -84zM272 -137q0 -25 -19 -43.5t-45 -18.5
t-45 18.5t-19 43.5q0 26 19 44.5t45 18.5t45 -18.5t19 -44.5zM416 -137q0 -25 -19 -43.5t-45 -18.5t-45 18.5t-19 43.5q0 26 19 44.5t45 18.5t45 -18.5t19 -44.5zM339 -259q0 -23 -17.5 -40t-41.5 -17q-23 0 -40.5 17t-17.5 40t17 40t41 17t41.5 -16.5t17.5 -40.5z" />
    <glyph glyph-name="uniFB7E" unicode="&#x687;" horiz-adv-x="594" arabic-form="isolated" 
d="M451 -331q-69 -36 -134 -36q-118 0 -192 76q-69 72 -69 189q0 149 118 237q102 77 270 88q-73 104 -159 104q-69 0 -140 -64l-58 66q85 106 208 106q86 0 161 -62q69 -58 108 -155v-86q-205 -2 -306 -67q-91 -59 -91 -167q0 -76 54 -121q45 -37 111 -37q46 0 86 23z
M396 -25q0 -20 -14 -33.5t-34 -13.5t-34 13.5t-14 33.5t14 34t34 14t34 -14t14 -34zM505 -25q0 -20 -14 -33.5t-35 -13.5q-20 0 -33.5 13.5t-13.5 33.5t13.5 34t33.5 14q21 0 35 -14t14 -34zM397 -130q0 -20 -14 -34t-34 -14t-34 14t-14 34t14 33.5t34 13.5t34 -14t14 -33z
M505 -130q0 -20 -14 -34t-34 -14t-34 14t-14 34q0 19 14 33t34 14t34 -13.5t14 -33.5z" />
    <glyph glyph-name="uniFB7F" unicode="&#x687;" horiz-adv-x="694" arabic-form="final" 
d="M451 -332q-67 -35 -134 -35q-118 0 -192 76q-69 73 -69 192q0 147 118 234q102 77 270 88q-73 104 -159 104q-69 0 -140 -64l-58 66q85 106 208 106q86 0 161 -62q69 -58 108 -155v-40q-21 -5 -51 -14q24 -28 61.5 -40.5t99.5 -12.5h30v-111h-33q-110 0 -171 31
q-55 28 -84 88q-125 -18 -191 -81q-58 -55 -58 -137q0 -84 54 -130q44 -39 111 -39q49 0 91 23zM363 -49q0 -19 -13 -31.5t-32 -12.5q-18 0 -31 13t-13 31t13 31t31 13q19 0 32 -12.5t13 -31.5zM465 -49q0 -19 -13 -31.5t-32 -12.5t-32 12.5t-13 31.5t13 31.5t32 12.5
t32 -12.5t13 -31.5zM363 -148q0 -19 -13 -31.5t-32 -12.5q-18 0 -31 13t-13 31t13 31t31 13q19 0 32 -12.5t13 -31.5zM465 -148q0 -19 -13 -31.5t-32 -12.5t-31.5 12.5t-12.5 31.5t12.5 31.5t31.5 12.5t32 -12.5t13 -31.5z" />
    <glyph glyph-name="uniFB80" unicode="&#x687;" horiz-adv-x="561" arabic-form="initial" 
d="M128 0h-138v111h134q94 0 157 24.5t122 83.5q-73 108 -162 108q-69 0 -140 -64l-58 66q85 106 208 106q86 0 161 -62q69 -58 109 -155v-31q-84 -111 -185 -153q-83 -34 -208 -34zM243 -132q0 -24 -17 -41t-41 -17q-25 0 -42 17t-17 41t17 41t42 17q24 0 41 -17t17 -41z
M376 -132q0 -24 -17.5 -41t-41.5 -17t-41.5 17t-17.5 41t17.5 41t41.5 17t41.5 -17t17.5 -41zM243 -262q0 -24 -17 -41t-41 -17t-41.5 17t-17.5 41t17.5 41t41.5 17t41 -17t17 -41zM376 -262q0 -24 -17.5 -41t-41.5 -17t-41.5 17t-17.5 41t17.5 41t41.5 17t41.5 -17
t17.5 -41z" />
    <glyph glyph-name="uniFB81" unicode="&#x687;" horiz-adv-x="671" arabic-form="medial" 
d="M128 0h-138v111h134q94 0 157 24.5t122 83.5q-73 108 -162 108q-69 0 -140 -64l-58 66q85 106 208 106q86 0 161 -62q69 -58 109 -155v-25l-22 -35q41 -47 151 -47h31v-111h-34q-95 0 -152 22q-52 20 -83 62q-111 -84 -284 -84zM273 -132q0 -24 -17 -41t-42 -17
q-24 0 -41.5 17t-17.5 41t17.5 41t41.5 17q25 0 42 -17t17 -41zM405 -132q0 -24 -17 -41t-42 -17q-24 0 -41 17t-17 41t17 41t41 17q25 0 42 -17t17 -41zM273 -262q0 -24 -17.5 -41t-41.5 -17t-41.5 17t-17.5 41t17.5 41t41.5 17t41.5 -17t17.5 -41zM405 -262q0 -24 -17 -41
t-42 -17q-24 0 -41 17t-17 41t17 41t41 17q25 0 42 -17t17 -41z" />
    <glyph glyph-name="uniFB82" unicode="&#x68d;" horiz-adv-x="471" arabic-form="isolated" 
d="M224 0h-204v111h180q82 0 82 69q0 43 -31 89.5t-83 83.5l66 89q81 -56 124 -130q38 -66 38 -134q0 -178 -172 -178zM215 -137q0 -25 -19 -43.5t-46 -18.5q-26 0 -44.5 18.5t-18.5 43.5q0 26 18.5 44.5t44.5 18.5q27 0 46 -18.5t19 -44.5zM358 -137q0 -26 -18.5 -44
t-45.5 -18q-26 0 -45 18.5t-19 43.5q0 26 19 44.5t45 18.5q27 0 45.5 -18t18.5 -45z" />
    <glyph glyph-name="uniFB83" unicode="&#x68d;" horiz-adv-x="515" arabic-form="final" 
d="M224 0h-204v111h180q82 0 82 69q0 43 -31 89.5t-83 83.5l66 89q77 -53 119 -121q38 -61 42 -125q2 -41 28.5 -63t74.5 -22h27v-111h-36q-86 0 -136 46q-44 -46 -129 -46zM237 -137q0 -25 -19 -43.5t-46 -18.5q-26 0 -44.5 18.5t-18.5 43.5q0 26 18.5 44.5t44.5 18.5
q27 0 46 -18.5t19 -44.5zM380 -137q0 -26 -18.5 -44t-45.5 -18q-26 0 -45 18.5t-19 43.5q0 26 19 44.5t45 18.5q27 0 45.5 -18t18.5 -45z" />
    <glyph glyph-name="uniFB84" unicode="&#x68c;" horiz-adv-x="471" arabic-form="isolated" 
d="M196 570q0 -25 -19 -43.5t-45 -18.5t-45 18.5t-19 43.5q0 26 19 44.5t45 18.5t45 -18.5t19 -44.5zM340 570q0 -26 -18.5 -44t-45.5 -18q-26 0 -45 18.5t-19 43.5q0 26 19 44.5t45 18.5t45 -18.5t19 -44.5zM224 0h-204v111h180q82 0 82 69q0 43 -31 89.5t-83 83.5l66 89
q81 -56 124 -130q38 -66 38 -134q0 -178 -172 -178z" />
    <glyph glyph-name="uniFB85" unicode="&#x68c;" horiz-adv-x="515" arabic-form="final" 
d="M196 570q0 -25 -19 -43.5t-45 -18.5t-45 18.5t-19 43.5q0 26 19 44.5t45 18.5t45 -18.5t19 -44.5zM340 570q0 -26 -19 -44t-46 -18q-26 0 -45 18.5t-19 43.5q0 26 19 44.5t45 18.5q27 0 46 -18.5t19 -44.5zM224 0h-204v111h180q82 0 82 69q0 43 -31 89.5t-83 83.5l66 89
q77 -53 119 -121q38 -61 42 -125q2 -41 28.5 -63t74.5 -22h27v-111h-36q-86 0 -136 46q-44 -46 -129 -46z" />
    <glyph glyph-name="uniFB86" unicode="&#x68e;" horiz-adv-x="471" arabic-form="isolated" 
d="M263 693q0 -24 -17.5 -40.5t-41.5 -16.5t-41 17t-17 40t17.5 40t40.5 17q24 0 41.5 -17t17.5 -40zM196 570q0 -25 -19 -43.5t-45 -18.5t-45 18.5t-19 43.5q0 26 19 44.5t45 18.5t45 -18.5t19 -44.5zM340 570q0 -25 -19 -43.5t-45 -18.5t-45 18.5t-19 43.5q0 26 19 44.5
t45 18.5t45 -18.5t19 -44.5zM224 0h-204v111h180q82 0 82 69q0 43 -31 89.5t-83 83.5l66 89q81 -56 124 -130q38 -66 38 -134q0 -178 -172 -178z" />
    <glyph glyph-name="uniFB87" unicode="&#x68e;" horiz-adv-x="515" arabic-form="final" 
d="M262 693q0 -24 -17 -40.5t-41 -16.5t-41 16.5t-17 40.5q0 23 17 40t41 17t41 -17t17 -40zM196 570q0 -25 -19 -43.5t-45 -18.5t-45 18.5t-19 43.5q0 26 19 44.5t45 18.5t45 -18.5t19 -44.5zM340 570q0 -25 -19 -43.5t-46 -18.5q-26 0 -45 18.5t-19 43.5q0 26 19 44.5
t45 18.5q27 0 46 -18.5t19 -44.5zM224 0h-204v111h180q82 0 82 69q0 43 -31 89.5t-83 83.5l66 89q77 -53 119 -121q38 -61 42 -125q2 -41 28.5 -63t74.5 -22h27v-111h-36q-86 0 -136 46q-44 -46 -129 -46z" />
    <glyph glyph-name="uniFB88" unicode="&#x688;" horiz-adv-x="471" arabic-form="isolated" 
d="M262 536h-217v56h62v176h59v-107q42 60 103 60q46 0 72 -29q22 -25 22 -66q0 -90 -101 -90zM168 592l91 1q40 0 40 33q0 17 -11 27t-30 10q-25 0 -49 -19t-41 -52zM224 0h-204v111h180q82 0 82 69q0 43 -31 89.5t-83 83.5l66 89q81 -56 124 -130q38 -66 38 -134
q0 -178 -172 -178z" />
    <glyph glyph-name="uniFB89" unicode="&#x688;" horiz-adv-x="515" arabic-form="final" 
d="M261 536h-216v56h61v176h60v-107q42 60 103 60q45 0 71 -29q22 -25 22 -66q0 -90 -101 -90zM168 592l90 1q40 0 40 33q0 17 -11 27t-30 10q-24 0 -48 -19t-41 -52zM224 0h-204v111h180q82 0 82 69q0 43 -31 89.5t-83 83.5l66 89q77 -53 119 -121q38 -61 42 -125
q2 -41 28.5 -63t74.5 -22h27v-111h-36q-86 0 -136 46q-44 -46 -129 -46z" />
    <glyph glyph-name="uniFB8A" unicode="&#x698;" horiz-adv-x="351" arabic-form="isolated" 
d="M271 698q0 -24 -17.5 -40.5t-41.5 -16.5t-40.5 16.5t-16.5 40.5q0 23 17 40t40 17q24 0 41.5 -17t17.5 -40zM204 575q0 -25 -19 -43.5t-45 -18.5t-45 18.5t-19 43.5q0 26 19 44.5t45 18.5t45 -18.5t19 -44.5zM348 575q0 -25 -19 -43.5t-45 -18.5t-45 18.5t-19 43.5
q0 26 19 44.5t45 18.5t45 -18.5t19 -44.5zM270 430v-416q0 -106 -59 -160q-48 -45 -124 -45q-72 0 -139 37l28 86q46 -23 83 -23q48 0 74 34q23 30 23 85v402h114z" />
    <glyph glyph-name="uniFB8B" unicode="&#x698;" horiz-adv-x="393" arabic-form="final" 
d="M265 698q0 -24 -17 -40.5t-41 -16.5t-41 17t-17 40t17.5 40t40.5 17q24 0 41 -17t17 -40zM199 575q0 -25 -19 -43.5t-45 -18.5t-45 18.5t-19 43.5q0 26 19 44.5t45 18.5t45 -18.5t19 -44.5zM343 575q0 -25 -19 -43.5t-46 -18.5q-26 0 -44.5 18.5t-18.5 43.5
q0 26 18.5 44.5t44.5 18.5q27 0 46 -18.5t19 -44.5zM266 26v-16q-2 -103 -58 -157q-47 -44 -121 -44q-72 0 -139 37l28 86q46 -23 83 -23q48 0 74 34q23 30 23 85v402h114v-195q0 -68 29 -97q26 -27 77 -27h27v-111h-36q-58 0 -101 26z" />
    <glyph glyph-name="uniFB8C" unicode="&#x691;" horiz-adv-x="351" arabic-form="isolated" 
d="M270 541h-216v56h61v176h59v-107q43 60 104 60q45 0 71 -29q22 -25 22 -66q0 -90 -101 -90zM177 597l90 1q40 0 40 33q0 17 -11 27t-30 10q-52 0 -89 -71zM270 430v-416q0 -106 -59 -160q-48 -45 -124 -45q-72 0 -139 37l28 86q46 -23 83 -23q48 0 74 34q23 30 23 85v402
h114z" />
    <glyph glyph-name="uniFB8D" unicode="&#x691;" horiz-adv-x="393" arabic-form="final" 
d="M264 541h-216v56h61v176h60v-107q42 60 103 60q45 0 71 -29q22 -25 22 -66q0 -90 -101 -90zM171 597l90 1q41 0 41 33q0 17 -11.5 27t-30.5 10q-24 0 -48 -19t-41 -52zM266 26v-16q-2 -103 -58 -157q-47 -44 -121 -44q-72 0 -139 37l28 86q46 -23 83 -23q48 0 74 34
q23 30 23 85v402h114v-195q0 -68 29 -97q26 -27 77 -27h27v-111h-36q-58 0 -101 26z" />
    <glyph glyph-name="uniFB8E" unicode="&#x6a9;" horiz-adv-x="937" arabic-form="isolated" 
d="M595 403h83q118 0 170 -58q44 -49 44 -143v-1q0 -201 -213 -201h-376q-118 0 -179 69q-49 55 -49 142q0 70 36 124q34 51 93 76l48 -75q-71 -37 -71 -116q0 -52 37 -82q34 -27 90 -27h364q104 0 104 94v2q0 44 -23.5 64t-73.5 20h-211v111l232 239l63 -63z" />
    <glyph glyph-name="uniFB8F" unicode="&#x6a9;" horiz-adv-x="1012" arabic-form="final" 
d="M675 0h-372q-118 0 -179 69q-49 55 -49 142q0 70 36 124q34 51 93 76l48 -75q-71 -37 -71 -116q0 -52 37 -82q34 -27 90 -27h364q104 0 104 94v2q0 44 -23.5 64t-73.5 20h-211v111l232 239l63 -63l-168 -175h83q214 0 214 -190v-4q0 -51 31 -76q27 -22 75 -22h24v-111
h-32q-103 0 -155 60q-55 -60 -160 -60z" />
    <glyph glyph-name="uniFB90" unicode="&#x6a9;" horiz-adv-x="553" arabic-form="initial" 
d="M295 0h-305v111h298q104 0 104 94v2q0 44 -23.5 64t-73.5 20h-253v111l232 239l63 -63l-168 -175h125q118 0 170 -58q44 -49 44 -143v-1q0 -201 -213 -201z" />
    <glyph glyph-name="uniFB91" unicode="&#x6a9;" horiz-adv-x="629" arabic-form="medial" 
d="M295 0h-305v111h298q104 0 104 92v3q0 44 -23 64.5t-74 20.5h-253v111l232 239l63 -63l-168 -175h128q111 0 165 -54q46 -46 46 -129v-6q0 -54 31 -80q26 -23 73 -23h27v-111h-36q-98 0 -151 60q-57 -60 -157 -60z" />
    <glyph glyph-name="uniFB92" unicode="&#x6af;" horiz-adv-x="937" arabic-form="isolated" 
d="M451 449l-45 46l201 211l45 -46zM595 403h83q118 0 170 -58q44 -49 44 -143v-1q0 -201 -213 -201h-376q-118 0 -179 69q-49 55 -49 142q0 70 36 124q34 51 93 76l48 -75q-71 -37 -71 -116q0 -52 37 -82q34 -27 90 -27h364q104 0 104 94v2q0 44 -23.5 64t-73.5 20h-211
v111l232 239l63 -63z" />
    <glyph glyph-name="uniFB93" unicode="&#x6af;" horiz-adv-x="1012" arabic-form="final" 
d="M451 449l-45 46l201 211l45 -46zM675 0h-372q-118 0 -179 69q-49 55 -49 142q0 70 36 124q34 51 93 76l48 -75q-71 -37 -71 -116q0 -52 37 -82q34 -27 90 -27h364q104 0 104 94v2q0 44 -23.5 64t-73.5 20h-211v111l232 239l63 -63l-168 -175h83q214 0 214 -190v-4
q0 -51 31 -76q27 -22 75 -22h24v-111h-32q-103 0 -155 60q-55 -60 -160 -60z" />
    <glyph glyph-name="uniFB94" unicode="&#x6af;" horiz-adv-x="553" arabic-form="initial" 
d="M27 453l-45 47l201 210l45 -46zM295 0h-305v111h298q104 0 104 94v2q0 44 -23.5 64t-73.5 20h-253v111l232 239l63 -63l-168 -175h125q118 0 170 -58q44 -49 44 -143v-1q0 -201 -213 -201z" />
    <glyph glyph-name="uniFB95" unicode="&#x6af;" horiz-adv-x="629" arabic-form="medial" 
d="M27 453l-45 47l201 210l45 -46zM295 0h-305v111h298q104 0 104 92v3q0 44 -23 64.5t-74 20.5h-253v111l232 239l63 -63l-168 -175h128q111 0 165 -54q46 -46 46 -129v-6q0 -54 31 -80q26 -23 73 -23h27v-111h-36q-98 0 -151 60q-57 -60 -157 -60z" />
    <glyph glyph-name="uniFB96" unicode="&#x6b3;" horiz-adv-x="937" arabic-form="isolated" 
d="M451 449l-45 46l201 211l45 -46zM595 403h83q118 0 170 -58q44 -49 44 -143v-1q0 -201 -213 -201h-376q-118 0 -179 69q-49 55 -49 142q0 70 36 124q34 51 93 76l48 -75q-71 -37 -71 -116q0 -52 37 -82q34 -27 90 -27h364q104 0 104 94v2q0 44 -23.5 64t-73.5 20h-211
v111l232 239l63 -63zM543 -132q0 -24 -17 -41t-42 -17q-24 0 -41 17t-17 41t17 41t41 17q25 0 42 -17t17 -41zM543 -261q0 -24 -17 -41t-42 -17q-24 0 -41 17t-17 41t17 41t41 17q25 0 42 -17t17 -41z" />
    <glyph glyph-name="uniFB97" unicode="&#x6b3;" horiz-adv-x="1012" arabic-form="final" 
d="M451 449l-45 46l201 211l45 -46zM675 0h-372q-118 0 -179 69q-49 55 -49 142q0 70 36 124q34 51 93 76l48 -75q-71 -37 -71 -116q0 -52 37 -82q34 -27 90 -27h364q104 0 104 94v2q0 44 -23.5 64t-73.5 20h-211v111l232 239l63 -63l-168 -175h83q214 0 214 -190v-4
q0 -51 31 -76q27 -22 75 -22h24v-111h-32q-103 0 -155 60q-55 -60 -160 -60zM543 -132q0 -24 -17 -41t-42 -17q-24 0 -41 17t-17 41t17 41t41 17q25 0 42 -17t17 -41zM543 -261q0 -24 -17 -41t-42 -17q-24 0 -41 17t-17 41t17 41t41 17q25 0 42 -17t17 -41z" />
    <glyph glyph-name="uniFB98" unicode="&#x6b3;" horiz-adv-x="553" arabic-form="initial" 
d="M27 453l-45 47l201 210l45 -46zM295 0h-305v111h298q104 0 104 94v2q0 44 -23.5 64t-73.5 20h-253v111l232 239l63 -63l-168 -175h125q118 0 170 -58q44 -49 44 -143v-1q0 -201 -213 -201zM251 -132q0 -24 -17 -41t-41 -17q-25 0 -42 17t-17 41t17 41t42 17q24 0 41 -17
t17 -41zM251 -261q0 -24 -17 -41t-41 -17q-25 0 -42 17t-17 41t17 41t42 17q24 0 41 -17t17 -41z" />
    <glyph glyph-name="uniFB99" unicode="&#x6b3;" horiz-adv-x="629" arabic-form="medial" 
d="M27 453l-45 47l201 210l45 -46zM295 0h-305v111h298q104 0 104 92v3q0 44 -23 64.5t-74 20.5h-253v111l232 239l63 -63l-168 -175h128q111 0 165 -54q46 -46 46 -129v-6q0 -54 31 -80q26 -23 73 -23h27v-111h-36q-98 0 -151 60q-57 -60 -157 -60zM265 -132q0 -24 -17 -41
t-42 -17q-24 0 -41 17t-17 41t17 41t41 17q25 0 42 -17t17 -41zM265 -261q0 -24 -17 -41t-42 -17q-24 0 -41 17t-17 41t17 41t41 17q25 0 42 -17t17 -41z" />
    <glyph glyph-name="uniFB9A" unicode="&#x6b1;" horiz-adv-x="937" arabic-form="isolated" 
d="M390 726q0 -26 -19 -44.5t-45 -18.5t-45 18.5t-19 44.5q0 25 19 43.5t45 18.5t45 -18.5t19 -43.5zM534 726q0 -27 -18.5 -45t-45.5 -18q-26 0 -45 18.5t-19 44.5q0 25 19 43.5t45 18.5q27 0 45.5 -18t18.5 -44zM451 449l-45 46l201 211l45 -46zM595 403h83q118 0 170 -58
q44 -49 44 -143v-1q0 -201 -213 -201h-376q-118 0 -179 69q-49 55 -49 142q0 70 36 124q34 51 93 76l48 -75q-71 -37 -71 -116q0 -52 37 -82q34 -27 90 -27h364q104 0 104 94v2q0 44 -23.5 64t-73.5 20h-211v111l232 239l63 -63z" />
    <glyph glyph-name="uniFB9B" unicode="&#x6b1;" horiz-adv-x="1012" arabic-form="final" 
d="M390 726q0 -26 -19 -44.5t-45 -18.5t-45 18.5t-19 44.5q0 25 19 43.5t45 18.5t45 -18.5t19 -43.5zM534 726q0 -27 -18.5 -45t-45.5 -18q-26 0 -45 18.5t-19 44.5q0 25 19 43.5t45 18.5q27 0 45.5 -18t18.5 -44zM451 449l-45 46l201 211l45 -46zM675 0h-372
q-118 0 -179 69q-49 55 -49 142q0 70 36 124q34 51 93 76l48 -75q-71 -37 -71 -116q0 -52 37 -82q34 -27 90 -27h364q104 0 104 94v2q0 44 -23.5 64t-73.5 20h-211v111l232 239l63 -63l-168 -175h83q214 0 214 -190v-4q0 -51 31 -76q27 -22 75 -22h24v-111h-32
q-103 0 -155 60q-55 -60 -160 -60z" />
    <glyph glyph-name="uniFB9C" unicode="&#x6b1;" horiz-adv-x="553" arabic-form="initial" 
d="M-29 741q0 -25 -19 -43.5t-45 -18.5t-45 18.5t-19 43.5q0 26 19 44.5t45 18.5t45 -19t19 -44zM115 741q0 -26 -19 -44t-46 -18q-26 0 -44.5 18.5t-18.5 43.5q0 26 18.5 44.5t44.5 18.5q27 0 46 -18.5t19 -44.5zM27 453l-45 47l201 210l45 -46zM295 0h-305v111h298
q104 0 104 94v2q0 44 -23.5 64t-73.5 20h-253v111l232 239l63 -63l-168 -175h125q118 0 170 -58q44 -49 44 -143v-1q0 -201 -213 -201z" />
    <glyph glyph-name="uniFB9D" unicode="&#x6b1;" horiz-adv-x="629" arabic-form="medial" 
d="M-29 741q0 -25 -19 -43.5t-45 -18.5t-45 18.5t-19 43.5q0 26 19 44.5t45 18.5t45 -19t19 -44zM115 741q0 -26 -19 -44t-46 -18q-26 0 -44.5 18.5t-18.5 43.5q0 26 18.5 44.5t44.5 18.5q27 0 46 -18.5t19 -44.5zM27 453l-45 47l201 210l45 -46zM295 0h-305v111h298
q104 0 104 92v3q0 44 -23 64.5t-74 20.5h-253v111l232 239l63 -63l-168 -175h128q111 0 165 -54q46 -46 46 -129v-6q0 -54 31 -80q26 -23 73 -23h27v-111h-36q-98 0 -151 60q-57 -60 -157 -60z" />
    <glyph glyph-name="uniFB9E" unicode="&#x6ba;" horiz-adv-x="680" arabic-form="isolated" 
d="M599 430v-349q0 -136 -82 -209q-72 -63 -191 -63q-127 0 -199 78q-62 67 -62 173q0 91 51 167l90 -33q-33 -61 -33 -122q0 -70 44 -113q41 -39 109 -39q71 0 114 43q44 43 44 118v349h115z" />
    <glyph glyph-name="uniFB9F" unicode="&#x6ba;" horiz-adv-x="721" arabic-form="final" 
d="M588 29l-1 -7q-17 -108 -94 -165q-68 -48 -168 -48q-126 0 -198 78q-62 67 -62 173q0 90 50 167l90 -33q-32 -62 -32 -122q0 -70 43 -113q41 -39 109 -39q71 0 115 43t44 118v349h115v-195q0 -68 28 -97q26 -27 77 -27h27v-111h-36q-62 0 -107 29z" />
    <glyph glyph-name="uniFBA0" unicode="&#x6bb;" horiz-adv-x="680" arabic-form="isolated" 
d="M331 423h-216v56h61v176h59v-107q43 60 104 60q45 0 71 -29q22 -25 22 -67q0 -89 -101 -89zM238 479l90 1q40 0 40 32q0 17 -11 27.5t-30 10.5q-24 0 -48 -19t-41 -52zM599 430v-349q0 -136 -82 -209q-72 -63 -191 -63q-127 0 -199 78q-62 67 -62 173q0 91 51 167l90 -33
q-33 -61 -33 -122q0 -70 44 -113q41 -39 109 -39q71 0 114 43q44 43 44 118v349h115z" />
    <glyph glyph-name="uniFBA1" unicode="&#x6bb;" horiz-adv-x="721" arabic-form="final" 
d="M331 423h-216v56h61v176h59v-107q43 60 104 60q45 0 71 -29q22 -25 22 -67q0 -89 -101 -89zM238 479l90 1q40 0 40 32q0 17 -11 27.5t-30 10.5q-24 0 -48 -19t-41 -52zM588 29l-1 -7q-17 -108 -94 -165q-68 -48 -168 -48q-126 0 -198 78q-62 67 -62 173q0 90 50 167
l90 -33q-32 -62 -32 -122q0 -70 43 -113q41 -39 109 -39q71 0 115 43t44 118v349h115v-195q0 -68 28 -97q26 -27 77 -27h27v-111h-36q-62 0 -107 29z" />
    <glyph glyph-name="uniFBA2" unicode="&#x6bb;" horiz-adv-x="318" arabic-form="initial" 
d="M234 539h-217v57h61v175h60v-107q42 60 103 60q46 0 72 -29q22 -25 22 -66q0 -90 -101 -90zM140 596h90q41 0 41 33q0 17 -11 27t-30 10q-25 0 -48.5 -18.5t-41.5 -51.5zM26 0h-36v111h27q59 0 84 35q21 30 21 89v195h115v-219q0 -211 -211 -211z" />
    <glyph glyph-name="uniFBA3" unicode="&#x6bb;" horiz-adv-x="359" arabic-form="medial" 
d="M238 539h-216v57h61v175h59v-107q43 60 104 60q45 0 71 -29q22 -25 22 -66q0 -90 -101 -90zM145 596h90q40 0 40 33q0 17 -11 27t-30 10q-52 0 -89 -70zM26 0h-36v111h27q59 0 84 35q21 30 21 89v195h115v-195q0 -68 28 -97q26 -27 77 -27h27v-111h-35q-104 0 -154 63
q-51 -63 -154 -63z" />
    <glyph glyph-name="uniFBA4" unicode="&#x6c0;" horiz-adv-x="516" arabic-form="isolated" 
d="M348 531h-192v54h40q-11 20 -11 38q0 32 23 53.5t57 21.5q38 0 63 -28l-19 -38q-17 12 -36 12q-30 0 -30 -28q0 -13 12 -31h93v-54zM267 -12h-18q-89 0 -138 69q-43 61 -43 163q0 111 59 172q51 53 131 53q92 0 144 -68q46 -61 46 -157q0 -117 -56 -179q-47 -53 -125 -53
zM172 218q0 -61 24 -92q21 -27 55 -27h14q38 0 58.5 31t20.5 88q0 60 -25 91q-23 27 -61 27q-44 0 -66 -35q-20 -30 -20 -83z" />
    <glyph glyph-name="uniFBA5" unicode="&#x6c0;" horiz-adv-x="547" arabic-form="final" 
d="M334 568h-192v55h40q-10 17 -10 37q0 33 22 54t57 21q38 0 63 -28l-19 -38q-17 13 -36 13q-30 0 -30 -28q0 -15 13 -31h92v-55zM557 0h-36q-114 0 -166 74q-50 -49 -123 -49q-80 0 -132 61q-49 58 -49 148q0 102 66 162q57 53 146 53h56v45h106v-259q0 -68 28 -97
q26 -27 77 -27h27v-111zM319 350h-53q-55 0 -82 -34q-23 -29 -23 -76q0 -53 25 -83q23 -28 60 -28q40 0 77 33q-4 21 -4 49v139z" />
    <glyph glyph-name="uniFBA6" unicode="&#x6c1;" horiz-adv-x="516" arabic-form="isolated" 
d="M267 -12h-18q-89 0 -138 69q-43 61 -43 163q0 111 59 172q51 53 131 53q92 0 144 -68q46 -61 46 -157q0 -117 -56 -179q-47 -53 -125 -53zM172 218q0 -61 24 -92q21 -27 55 -27h14q38 0 58.5 31t20.5 88q0 60 -25 91q-23 27 -61 27q-44 0 -66 -35q-20 -30 -20 -83z" />
    <glyph glyph-name="uniFBA7" unicode="&#x6c1;" horiz-adv-x="645" arabic-form="final" 
d="M631 0q-89 0 -143 54q-22 23 -57 82q-22 38 -37 52q-23 22 -53 22q-63 0 -137 -82q-34 -37 -104 -138l-82 53q71 131 158 207q89 77 175 77q63 0 105 -38q23 -21 59 -81q33 -55 58 -75q30 -22 71 -22h11v-111h-24z" />
    <glyph glyph-name="uniFBA8" unicode="&#x6c1;" horiz-adv-x="318" arabic-form="initial" 
d="M26 0h-36v111h27q59 0 84 35q21 30 21 89v195h115v-219q0 -211 -211 -211zM83 -309l-102 37l71 212l89 -14z" />
    <glyph glyph-name="uniFBA9" unicode="&#x6c1;" horiz-adv-x="630" arabic-form="medial" 
d="M640 0h-13q-57 0 -79 -11q-24 -12 -32 -45t-8 -122v-138h-65q-151 0 -230 98q-64 80 -64 207q0 29 3 59q-60 -48 -145 -48h-17v111h14q106 0 208 146l88 -39q-42 -115 -42 -215q0 -97 40 -151q36 -49 100 -49v61q0 86 15 133q17 57 64 84q51 30 145 30h18v-111z" />
    <glyph glyph-name="uniFBAA" unicode="&#x6be;" horiz-adv-x="628" arabic-form="isolated" 
d="M132 0h-142v111h70h41q-32 44 -32 96q0 63 42 105q40 40 103 40q71 0 113 -51q33 -41 33 -97q0 -52 -31 -93q14 0 38 2q73 6 73 75q0 35 -15.5 71.5t-42.5 64.5q-75 78 -225 88l23 101q183 -12 292 -134q83 -92 83 -197q0 -182 -185 -182h-68q-48 0 -87 17
q-37 -17 -83 -17zM214 116q59 28 59 92q0 31 -16 49t-43 18q-28 0 -43.5 -17.5t-15.5 -48.5q0 -66 59 -93z" />
    <glyph glyph-name="uniFBAB" unicode="&#x6be;" horiz-adv-x="674" arabic-form="final" 
d="M132 0h-142v111h73h38q-32 44 -32 96q0 63 42 105q40 40 103 40q71 0 113 -51q33 -41 33 -97q0 -52 -31 -93q13 0 37 2q74 5 74 75q0 35 -15.5 71.5t-42.5 64.5q-75 78 -225 88l23 101q182 -10 292 -130q45 -49 67 -108q15 -41 15 -80q0 -42 32 -65q28 -19 71 -19h27
v-111h-36q-91 0 -141 47q-47 -47 -137 -47h-68q-48 0 -87 17q-37 -17 -83 -17zM214 116q59 28 59 92q0 31 -16 49t-43 18q-28 0 -43.5 -17.5t-15.5 -48.5q0 -66 59 -93z" />
    <glyph glyph-name="uniFBAC" unicode="&#x6be;" horiz-adv-x="628" arabic-form="initial" 
d="M132 0h-142v111h70h41q-32 44 -32 96q0 63 42 105q40 40 103 40q71 0 113 -51q33 -41 33 -97q0 -52 -31 -93q14 0 38 2q73 6 73 75q0 35 -15.5 71.5t-42.5 64.5q-75 78 -225 88l23 101q183 -12 292 -134q83 -92 83 -197q0 -182 -185 -182h-68q-48 0 -87 17
q-37 -17 -83 -17zM214 116q59 28 59 92q0 31 -16 49t-43 18q-28 0 -43.5 -17.5t-15.5 -48.5q0 -66 59 -93z" />
    <glyph glyph-name="uniFBAD" unicode="&#x6be;" horiz-adv-x="674" arabic-form="medial" 
d="M132 0h-142v111h73h38q-32 44 -32 96q0 63 42 105q40 40 103 40q71 0 113 -51q33 -41 33 -97q0 -52 -31 -93q13 0 37 2q74 5 74 75q0 35 -15.5 71.5t-42.5 64.5q-75 78 -225 88l23 101q182 -10 292 -130q45 -49 67 -108q15 -41 15 -80q0 -42 32 -65q28 -19 71 -19h27
v-111h-36q-91 0 -141 47q-47 -47 -137 -47h-68q-48 0 -87 17q-37 -17 -83 -17zM214 116q59 28 59 92q0 31 -16 49t-43 18q-28 0 -43.5 -17.5t-15.5 -48.5q0 -66 59 -93z" />
    <glyph glyph-name="uniFBAE" unicode="&#x6d2;" horiz-adv-x="902" arabic-form="isolated" 
d="M791 0h-548q-111 0 -159 48q-42 43 -42 130q0 95 60 141q52 40 144 40h58v21q0 178 184 178q64 0 114 -37l-34 -91q-34 26 -76 26q-44 0 -64.5 -29.5t-20.5 -93.5v-78h-159q-91 0 -91 -75q0 -38 20.5 -53.5t70.5 -15.5h578z" />
    <glyph glyph-name="uniFBAF" unicode="&#x6d2;" horiz-adv-x="793" arabic-form="final" 
d="M803 0h-209q-198 0 -306 -30q-93 -26 -93 -68q0 -22 17.5 -29.5t66.5 -7.5h353l-31 -111h-319q-111 0 -161 35q-45 31 -45 93q0 127 154 182q130 47 381 47h192v-111z" />
    <glyph glyph-name="uniFBB0" unicode="&#x6d3;" horiz-adv-x="902" arabic-form="isolated" 
d="M281 528h-192v54h40q-10 19 -10 38q0 32 22.5 53t56.5 21q38 0 63 -27l-19 -38q-16 12 -36 12q-30 0 -30 -28q0 -14 13 -31h92v-54zM791 0h-548q-111 0 -159 48q-42 43 -42 130q0 95 60 141q52 40 144 40h58v21q0 178 184 178q64 0 114 -37l-34 -91q-34 26 -76 26
q-44 0 -64.5 -29.5t-20.5 -93.5v-78h-159q-91 0 -91 -75q0 -38 20.5 -53.5t70.5 -15.5h578z" />
    <glyph glyph-name="uniFBB1" unicode="&#x6d3;" horiz-adv-x="793" arabic-form="final" 
d="M571 218h-193v54h40q-10 17 -10 38q0 32 22.5 53t56.5 21q38 0 64 -28l-20 -37q-16 12 -36 12q-29 0 -29 -28q0 -16 12 -31h93v-54zM803 0h-209q-198 0 -306 -30q-93 -26 -93 -68q0 -22 17.5 -29.5t66.5 -7.5h353l-31 -111h-319q-111 0 -161 35q-45 31 -45 93
q0 127 154 182q130 47 381 47h192v-111z" />
    <glyph glyph-name="uniFBD3" unicode="&#x6ad;" horiz-adv-x="883" arabic-form="isolated" 
d="M803 931q0 -23 -17 -40t-41 -17q-23 0 -40.5 17t-17.5 40t17 40t41 17t41 -16.5t17 -40.5zM737 809q0 -25 -19 -43.5t-45 -18.5t-45 18.5t-19 43.5t19 43.5t45 18.5t45 -18.5t19 -43.5zM881 809q0 -25 -19 -43.5t-46 -18.5q-26 0 -44.5 18.5t-18.5 43.5t18.5 43.5
t44.5 18.5q27 0 46 -18.5t19 -43.5zM592 0h-284q-120 0 -184 77q-49 60 -49 144q0 66 36 120q35 51 93 75l48 -74q-34 -17 -53 -47t-19 -65q0 -52 37 -86q36 -33 92 -33h264q66 0 93 35q22 29 22 89v431h115v-455q0 -211 -211 -211zM465 352h-108l1 51h102q33 0 33 30
q0 17 -13.5 27.5t-34.5 10.5q-28 0 -54 -16v49l89 98l36 -30l-50 -57q38 -4 58.5 -26t20.5 -58q0 -37 -21.5 -58t-58.5 -21z" />
    <glyph glyph-name="uniFBD4" unicode="&#x6ad;" horiz-adv-x="925" arabic-form="final" 
d="M803 931q0 -23 -17 -40t-41 -17q-23 0 -40.5 17t-17.5 40t17 40t41 17t41 -16.5t17 -40.5zM737 809q0 -25 -19 -43.5t-45 -18.5t-45 18.5t-19 43.5t19 43.5t45 18.5t45 -18.5t19 -43.5zM881 809q0 -25 -19 -43.5t-46 -18.5q-26 0 -44.5 18.5t-18.5 43.5t18.5 43.5
t44.5 18.5q27 0 46 -18.5t19 -43.5zM592 0h-279q-125 0 -189 77q-49 59 -49 144q0 66 36 120q35 51 93 75l48 -74q-34 -17 -53 -47t-19 -65q0 -52 37 -86q36 -33 92 -33h264q66 0 93 35q22 29 22 89v431h115v-431q0 -68 28 -97q26 -27 77 -27h27v-111h-36q-102 0 -152 62
q-51 -62 -155 -62zM465 352h-108l1 51h102q33 0 33 30q0 17 -13.5 27.5t-34.5 10.5q-28 0 -54 -16v49l89 98l36 -30l-50 -57q38 -4 58.5 -26t20.5 -58q0 -37 -21.5 -58t-58.5 -21z" />
    <glyph glyph-name="uniFBD5" unicode="&#x6ad;" horiz-adv-x="553" arabic-form="initial" 
d="M153 807q0 -23 -17 -40t-41 -17t-41 17t-17 40q0 24 17 40.5t41 16.5t41 -16.5t17 -40.5zM87 685q0 -25 -19 -43.5t-46 -18.5q-26 0 -44.5 18.5t-18.5 43.5q0 26 18.5 44.5t44.5 18.5t45.5 -19t19.5 -44zM230 685q0 -25 -19 -43.5t-45 -18.5t-45 18.5t-19 43.5t19 44
t45 19t45 -18.5t19 -44.5zM295 0h-305v111h298q104 0 104 94v2q0 44 -23.5 64t-73.5 20h-253v111l232 239l63 -63l-168 -175h125q118 0 170 -58q44 -49 44 -143v-1q0 -201 -213 -201z" />
    <glyph glyph-name="uniFBD6" unicode="&#x6ad;" horiz-adv-x="629" arabic-form="medial" 
d="M153 807q0 -23 -17 -40t-41 -17t-41 17t-17 40q0 24 17 40.5t41 16.5t41 -16.5t17 -40.5zM87 685q0 -25 -19 -43.5t-46 -18.5q-26 0 -44.5 18.5t-18.5 43.5q0 26 18.5 44.5t44.5 18.5t45.5 -19t19.5 -44zM230 685q0 -25 -19 -43.5t-45 -18.5t-45 18.5t-19 43.5t19 44
t45 19t45 -18.5t19 -44.5zM295 0h-305v111h298q104 0 104 92v3q0 44 -23 64.5t-74 20.5h-253v111l232 239l63 -63l-168 -175h128q111 0 165 -54q46 -46 46 -129v-6q0 -54 31 -80q26 -23 73 -23h27v-111h-36q-98 0 -151 60q-57 -60 -157 -60z" />
    <glyph glyph-name="uniFBD7" unicode="&#x6c7;" horiz-adv-x="500" arabic-form="isolated" 
d="M288 555l-153 -28l-11 58l114 21q-19 22 -19 51q0 34 23 58q22 22 52 22q34 0 55 -23t21 -60q0 -41 -27 -69q-23 -24 -55 -30zM297 618q21 11 21 37q0 28 -23 28q-21 0 -21 -27t23 -38zM320 30q-28 -14 -63 -14q-107 0 -159 67q-42 54 -42 144q0 102 59 161q52 54 136 54
q88 0 137 -54q42 -47 42 -121v-253q0 -106 -64 -162q-53 -45 -132 -45q-73 0 -146 41l29 87q51 -27 96 -27q50 0 78 31q25 28 28 79q0 2 1 6v6zM320 129v136q0 80 -72 80q-45 0 -68 -35q-19 -29 -19 -77q0 -60 32 -93q26 -27 67 -27q31 0 60 16z" />
    <glyph glyph-name="uniFBD8" unicode="&#x6c7;" horiz-adv-x="516" arabic-form="final" 
d="M288 555l-153 -28l-11 58l114 21q-19 22 -19 51q0 34 23 58q22 22 52 22q34 0 55 -23t21 -60q0 -41 -27 -69q-23 -24 -55 -30zM297 618q21 11 21 37q0 28 -23 28q-21 0 -21 -27t23 -38zM429 0q-3 -99 -67 -151q-51 -42 -128 -42q-73 0 -146 41l29 87q51 -27 96 -27
q49 0 76 28q26 26 30 72q-34 0 -51 1q-108 3 -164 70q-48 56 -48 148q0 102 59 161q52 54 136 54q88 0 137 -54q42 -47 42 -121v-156h96v-111h-97zM320 111v154q0 80 -72 80q-45 0 -68 -35q-19 -29 -19 -77q0 -61 33 -94q27 -28 71 -28h55z" />
    <glyph glyph-name="uniFBD9" unicode="&#x6c6;" horiz-adv-x="500" arabic-form="isolated" 
d="M191 698l57 -110l53 110h86l-100 -180h-79l-101 180h84zM320 30q-28 -14 -63 -14q-107 0 -159 67q-42 54 -42 144q0 102 59 161q52 54 136 54q88 0 137 -54q42 -47 42 -121v-253q0 -106 -64 -162q-53 -45 -132 -45q-73 0 -146 41l29 87q51 -27 96 -27q50 0 78 31
q25 28 28 79q0 2 1 6v6zM320 129v136q0 80 -72 80q-45 0 -68 -35q-19 -29 -19 -77q0 -60 32 -93q26 -27 67 -27q31 0 60 16z" />
    <glyph glyph-name="uniFBDA" unicode="&#x6c6;" horiz-adv-x="516" arabic-form="final" 
d="M191 698l57 -110l53 110h86l-100 -180h-79l-101 180h84zM429 0q-3 -99 -67 -151q-51 -42 -128 -42q-73 0 -146 41l29 87q51 -27 96 -27q49 0 76 28q26 26 30 72q-34 0 -51 1q-108 3 -164 70q-48 56 -48 148q0 102 59 161q52 54 136 54q88 0 137 -54q42 -47 42 -121v-156
h96v-111h-97zM320 111v154q0 80 -72 80q-45 0 -68 -35q-19 -29 -19 -77q0 -61 33 -94q27 -28 71 -28h55z" />
    <glyph glyph-name="uniFBDB" unicode="&#x6c8;" horiz-adv-x="500" arabic-form="isolated" 
d="M280 527h-66v161h66v-161zM320 30q-28 -14 -63 -14q-107 0 -159 67q-42 54 -42 144q0 102 59 161q52 54 136 54q88 0 137 -54q42 -47 42 -121v-253q0 -106 -64 -162q-53 -45 -132 -45q-73 0 -146 41l29 87q51 -27 96 -27q50 0 78 31q25 28 28 79q0 2 1 6v6zM320 129v136
q0 80 -72 80q-45 0 -68 -35q-19 -29 -19 -77q0 -60 32 -93q26 -27 67 -27q31 0 60 16z" />
    <glyph glyph-name="uniFBDC" unicode="&#x6c8;" horiz-adv-x="516" arabic-form="final" 
d="M280 527h-66v161h66v-161zM429 0q-3 -99 -67 -151q-51 -42 -128 -42q-73 0 -146 41l29 87q51 -27 96 -27q49 0 76 28q26 26 30 72q-34 0 -51 1q-108 3 -164 70q-48 56 -48 148q0 102 59 161q52 54 136 54q88 0 137 -54q42 -47 42 -121v-156h96v-111h-97zM320 111v154
q0 80 -72 80q-45 0 -68 -35q-19 -29 -19 -77q0 -61 33 -94q27 -28 71 -28h55z" />
    <glyph glyph-name="uniFBDD" unicode="&#x677;" horiz-adv-x="500" arabic-form="isolated" 
d="M207 616l-154 -27l-10 58l114 20q-19 24 -19 52q0 34 23 57q21 22 52 22q33 0 54.5 -23t21.5 -59q0 -41 -27 -70q-23 -24 -55 -30zM216 679q21 11 21 38t-23 27q-21 0 -21 -26q0 -28 23 -39zM477 526h-192v54h40q-10 19 -10 38q0 33 22 54t57 21q38 0 63 -28l-19 -38
q-17 13 -36 13q-29 0 -29 -29q0 -15 12 -31h92v-54zM320 30q-28 -14 -63 -14q-107 0 -159 67q-42 54 -42 144q0 102 59 161q52 54 136 54q88 0 137 -54q42 -47 42 -121v-253q0 -106 -64 -162q-53 -45 -132 -45q-73 0 -146 41l29 87q51 -27 96 -27q50 0 78 31q25 28 28 79
q0 2 1 6v6zM320 129v136q0 80 -72 80q-45 0 -68 -35q-19 -29 -19 -77q0 -60 32 -93q26 -27 67 -27q31 0 60 16z" />
    <glyph glyph-name="uniFBDE" unicode="&#x6cb;" horiz-adv-x="500" arabic-form="isolated" 
d="M306 698q0 -24 -17.5 -40.5t-41.5 -16.5t-41 17t-17 40t17.5 40t40.5 17q24 0 41.5 -17t17.5 -40zM239 575q0 -25 -19 -43.5t-45 -18.5t-45 18.5t-19 43.5q0 26 19 44.5t45 18.5t45 -18.5t19 -44.5zM383 575q0 -25 -19 -43.5t-45 -18.5t-45 18.5t-19 43.5q0 26 19 44.5
t45 18.5t45 -18.5t19 -44.5zM320 30q-28 -14 -63 -14q-107 0 -159 67q-42 54 -42 144q0 102 59 161q52 54 136 54q88 0 137 -54q42 -47 42 -121v-253q0 -106 -64 -162q-53 -45 -132 -45q-73 0 -146 41l29 87q51 -27 96 -27q50 0 78 31q25 28 28 79q0 2 1 6v6zM320 129v136
q0 80 -72 80q-45 0 -68 -35q-19 -29 -19 -77q0 -60 32 -93q26 -27 67 -27q31 0 60 16z" />
    <glyph glyph-name="uniFBDF" unicode="&#x6cb;" horiz-adv-x="516" arabic-form="final" 
d="M306 698q0 -24 -17.5 -40.5t-41.5 -16.5t-41 17t-17 40t17.5 40t40.5 17q24 0 41.5 -17t17.5 -40zM239 575q0 -25 -19 -43.5t-45 -18.5t-45 18.5t-19 43.5q0 26 19 44.5t45 18.5t45 -18.5t19 -44.5zM383 575q0 -25 -19 -43.5t-45 -18.5t-45 18.5t-19 43.5q0 26 19 44.5
t45 18.5t45 -18.5t19 -44.5zM429 0q-3 -99 -67 -151q-51 -42 -128 -42q-73 0 -146 41l29 87q51 -27 96 -27q49 0 76 28q26 26 30 72q-34 0 -51 1q-108 3 -164 70q-48 56 -48 148q0 102 59 161q52 54 136 54q88 0 137 -54q42 -47 42 -121v-156h96v-111h-97zM320 111v154
q0 80 -72 80q-45 0 -68 -35q-19 -29 -19 -77q0 -61 33 -94q27 -28 71 -28h55z" />
    <glyph glyph-name="uniFBE0" unicode="&#x6c5;" horiz-adv-x="500" arabic-form="isolated" 
d="M320 30q-28 -14 -63 -14q-107 0 -159 67q-42 54 -42 144q0 102 59 161q52 54 136 54q88 0 137 -54q42 -47 42 -121v-253q0 -106 -64 -162q-53 -45 -132 -45q-73 0 -146 41l29 87q51 -27 96 -27q64 0 90 47h-120v30h131q3 10 5 33q0 2 1 6v6zM320 129v136q0 80 -72 80
q-45 0 -68 -35q-19 -29 -19 -77q0 -60 32 -93q26 -27 67 -27q31 0 60 16z" />
    <glyph glyph-name="uniFBE1" unicode="&#x6c5;" horiz-adv-x="516" arabic-form="final" 
d="M430 267v-156h96v-111h-97q-3 -99 -67 -151q-51 -42 -128 -42q-73 0 -146 41l29 87q51 -27 96 -27q65 0 91 47h-121v30h132q2 7 4 23q-34 0 -51 1q-108 3 -164 70q-48 56 -48 148q0 102 59 161q52 54 136 54q88 0 137 -54q42 -47 42 -121zM320 111v154q0 80 -72 80
q-45 0 -68 -35q-19 -29 -19 -77q0 -61 33 -94q27 -28 71 -28h55z" />
    <glyph glyph-name="uniFBE2" unicode="&#x6c9;" horiz-adv-x="500" arabic-form="isolated" 
d="M302 522l-56 111l-53 -111h-86l99 180h79l102 -180h-85zM320 30q-28 -14 -63 -14q-107 0 -159 67q-42 54 -42 144q0 102 59 161q52 54 136 54q88 0 137 -54q42 -47 42 -121v-253q0 -106 -64 -162q-53 -45 -132 -45q-73 0 -146 41l29 87q51 -27 96 -27q50 0 78 31
q25 28 28 79q0 2 1 6v6zM320 129v136q0 80 -72 80q-45 0 -68 -35q-19 -29 -19 -77q0 -60 32 -93q26 -27 67 -27q31 0 60 16z" />
    <glyph glyph-name="uniFBE3" unicode="&#x6c9;" horiz-adv-x="516" arabic-form="final" 
d="M302 522l-56 111l-53 -111h-86l99 180h79l102 -180h-85zM429 0q-3 -99 -67 -151q-51 -42 -128 -42q-73 0 -146 41l29 87q51 -27 96 -27q49 0 76 28q26 26 30 72q-34 0 -51 1q-108 3 -164 70q-48 56 -48 148q0 102 59 161q52 54 136 54q88 0 137 -54q42 -47 42 -121v-156
h96v-111h-97zM320 111v154q0 80 -72 80q-45 0 -68 -35q-19 -29 -19 -77q0 -61 33 -94q27 -28 71 -28h55z" />
    <glyph glyph-name="uniFBE4" unicode="&#x6d0;" horiz-adv-x="720" arabic-form="isolated" 
d="M610 338h-114q-81 0 -81 -63q0 -46 45 -73q19 -12 70 -31q68 -25 95 -49q45 -38 45 -106q0 -97 -87 -156q-82 -56 -221 -56q-156 0 -235 80q-66 67 -66 175q0 93 51 167l90 -32q-33 -63 -33 -121q0 -76 54 -119q50 -41 139 -41q85 0 143 33q50 29 50 66q0 32 -44 55
q-5 3 -69 29q-63 27 -93 59q-44 46 -44 120q0 84 58 131q47 38 117 38h130v-106zM422 -324q0 -24 -17.5 -41t-41.5 -17t-41.5 17t-17.5 41t17.5 41t41.5 17t41.5 -17t17.5 -41zM422 -453q0 -24 -17.5 -41t-41.5 -17t-41.5 17t-17.5 41t17.5 41t41.5 17t41.5 -17t17.5 -41z
" />
    <glyph glyph-name="uniFBE5" unicode="&#x6d0;" horiz-adv-x="702" arabic-form="final" 
d="M681 0q-7 -98 -98 -152q-83 -49 -221 -49q-155 0 -235 83q-66 68 -66 177q0 93 51 167l91 -33q-34 -61 -34 -121q0 -80 57 -126q55 -45 148 -45q82 0 136 27q53 27 59 72h-97v111h240v-111h-31zM422 -318q0 -24 -17 -41t-42 -17t-42 17t-17 41t17.5 40.5t41.5 16.5
t41.5 -16.5t17.5 -40.5zM422 -447q0 -24 -17 -41t-42 -17t-42 17t-17 41t17.5 40.5t41.5 16.5t41.5 -16.5t17.5 -40.5z" />
    <glyph glyph-name="uniFBE6" unicode="&#x6d0;" horiz-adv-x="318" arabic-form="initial" 
d="M-10 0v111h27q59 0 84 35q21 30 21 89v195h115v-219q0 -211 -211 -211h-36zM119 -319q-24 0 -41 17t-17 41t17 41t41 17q25 0 42 -17t17 -41t-17 -41t-42 -17zM119 -190q-24 0 -41 17t-17 41t17 41t41 17q25 0 42 -17t17 -41t-17 -41t-42 -17z" />
    <glyph glyph-name="uniFBE7" unicode="&#x6d0;" horiz-adv-x="359" arabic-form="medial" 
d="M-10 0v111h27q59 0 84 35q21 30 21 89v195h115v-195q0 -68 28 -97q26 -27 77 -27h27v-111h-35q-104 0 -154 63q-51 -63 -154 -63h-36zM173 -319q-24 0 -41 17t-17 41t17 41t41 17q25 0 42 -17t17 -41t-17 -41t-42 -17zM173 -190q-24 0 -41 17t-17 41t17 41t41 17
q25 0 42 -17t17 -41t-17 -41t-42 -17z" />
    <glyph glyph-name="uniFBE8" unicode="&#x649;" horiz-adv-x="318" arabic-form="initial" 
d="M26 0h-36v111h27q59 0 84 35q21 30 21 89v195h115v-219q0 -211 -211 -211z" />
    <glyph glyph-name="uniFBE9" unicode="&#x649;" horiz-adv-x="359" arabic-form="medial" 
d="M26 0h-36v111h27q59 0 84 35q21 30 21 89v195h115v-195q0 -68 28 -97q26 -27 77 -27h27v-111h-35q-104 0 -154 63q-51 -63 -154 -63z" />
    <glyph glyph-name="uniFBFC" unicode="&#x6cc;" horiz-adv-x="720" arabic-form="isolated" 
d="M610 338h-114q-81 0 -81 -63q0 -46 45 -73q19 -12 70 -31q68 -25 95 -49q45 -38 45 -106q0 -97 -87 -156q-82 -56 -221 -56q-156 0 -235 80q-66 67 -66 175q0 93 51 167l90 -32q-33 -63 -33 -121q0 -76 54 -119q50 -41 139 -41q85 0 143 33q50 29 50 66q0 32 -44 55
q-5 3 -69 29q-63 27 -93 59q-44 46 -44 120q0 84 58 131q47 38 117 38h130v-106z" />
    <glyph glyph-name="uniFBFD" unicode="&#x6cc;" horiz-adv-x="702" arabic-form="final" 
d="M681 0q-7 -98 -98 -152q-83 -49 -221 -49q-155 0 -235 83q-66 68 -66 177q0 93 51 167l91 -33q-34 -61 -34 -121q0 -80 57 -126q55 -45 148 -45q82 0 136 27q53 27 59 72h-97v111h240v-111h-31z" />
    <glyph glyph-name="uniFBFE" unicode="&#x6cc;" horiz-adv-x="318" arabic-form="initial" 
d="M-10 0v111h27q59 0 84 35q21 30 21 89v195h115v-219q0 -211 -211 -211h-36zM41 -199q-26 0 -45 18.5t-19 43.5q0 26 19 44.5t45 18.5t45 -18.5t19 -44.5q0 -25 -19 -43.5t-45 -18.5zM185 -199q-26 0 -45 18.5t-19 43.5q0 26 19 44.5t45 18.5q27 0 45.5 -18.5t18.5 -44.5
t-18.5 -44t-45.5 -18z" />
    <glyph glyph-name="uniFBFF" unicode="&#x6cc;" horiz-adv-x="359" arabic-form="medial" 
d="M-10 0v111h27q59 0 84 35q21 30 21 89v195h115v-195q0 -68 28 -97q26 -27 77 -27h27v-111h-35q-104 0 -154 63q-51 -63 -154 -63h-36zM82 -199q-26 0 -44.5 18.5t-18.5 43.5q0 26 18.5 44.5t44.5 18.5q27 0 46 -18.5t19 -44.5q0 -25 -19 -43.5t-46 -18.5zM226 -199
q-26 0 -45 18.5t-19 43.5q0 26 19 44.5t45 18.5q27 0 45.5 -18t18.5 -45q0 -26 -18.5 -44t-45.5 -18z" />
    <glyph glyph-name="uniFCF3" unicode="&#xfcf3;" horiz-adv-x="135" arabic-form="medial" 
d="M106 747l-154 -27l-10 58l113 20q-18 23 -18 52q0 34 23 57q21 22 51 22q33 0 54.5 -23t21.5 -59q0 -41 -27 -70q-22 -24 -54 -30zM114 810q21 10 21 38q0 27 -23 27q-21 0 -21 -26q0 -27 23 -39zM67 548q-20 -16 -50 -16q-33 0 -54 18.5t-21 47.5v89h57v-80
q0 -19 19 -19q21 0 21 19v60h56v-60q0 -19 20 -19q21 0 21 19v80h55v-89q0 -29 -20.5 -47.5t-53.5 -18.5t-50 16zM145 0h-155v111h155v-111z" />
    <glyph glyph-name="uniFCF4" unicode="&#xfcf4;" horiz-adv-x="135" arabic-form="medial" 
d="M63 686q-22 -16 -51 -16q-32 0 -53 19t-21 48v88h56v-80q0 -19 20 -19t20 19v60h57v-60q0 -19 20 -19t20 19v80h56v-88q0 -34 -27 -53q-20 -14 -48 -14q-32 0 -49 16zM180 565l-210 -38l-12 70l210 38zM145 0h-155v111h155v-111z" />
    <glyph glyph-name="uniFD3C" unicode="&#xfd3c;" horiz-adv-x="320" arabic-form="final" 
d="M241 816l-205 -37l-11 61l205 37zM251 715l-205 -38l-11 61l205 38zM330 0h-41q-208 0 -208 198v412h115v-381q0 -67 22 -92q24 -26 83 -26h29v-111z" />
    <glyph glyph-name="uniFD3D" unicode="&#xfd3d;" horiz-adv-x="277" arabic-form="isolated" 
d="M241 816l-205 -37l-11 61l205 37zM251 715l-205 -38l-11 61l205 38zM196 0h-115v610h115v-610z" />
    <glyph glyph-name="uniFE71" unicode="&#xfe71;" horiz-adv-x="135" arabic-form="medial" 
d="M170 666l-205 -37l-11 62l205 36zM179 565l-205 -38l-10 61l205 38zM145 0h-155v111h155v-111z" />
    <glyph glyph-name="uniFE72" unicode="&#xfe72;" horiz-adv-x="326" arabic-form="isolated" 
d="M176 748q-21 23 -21 48q0 37 24 61q21 21 51 21q39 0 60 -29q17 -23 17 -53q0 -55 -40 -86q-32 -24 -78 -24q-57 0 -95 35l-23 -33l-52 38l46 71h30q32 -49 81 -49zM234 755q10 4 16.5 15.5t6.5 24.5t-7 21.5t-18 8.5t-17.5 -8t-6.5 -21t7.5 -24.5t18.5 -16.5z" />
    <glyph glyph-name="uniFE74" unicode="&#xfe74;" horiz-adv-x="390" arabic-form="isolated" 
d="M158 -151l-205 -37l-11 62l205 37zM167 -252l-205 -37l-10 60l205 38z" />
    <glyph glyph-name="uniFE76" unicode="&#xfe76;" horiz-adv-x="261" arabic-form="isolated" 
d="M242 723l-210 -37l-13 69l210 38z" />
    <glyph glyph-name="uniFE77" unicode="&#xfe77;" horiz-adv-x="135" arabic-form="medial" 
d="M180 565l-210 -38l-12 70l210 38zM145 0h-155v111h155v-111z" />
    <glyph glyph-name="uniFE78" unicode="&#xfe78;" horiz-adv-x="284" arabic-form="isolated" 
d="M183 713l-154 -27l-10 58l113 20q-18 23 -18 52q0 35 23 58q21 22 51 22q38 0 59 -29q18 -22 18 -54q0 -41 -27 -70q-23 -24 -55 -30zM191 777q22 8 22 37q0 27 -23 27q-22 0 -22 -26q0 -12 6.5 -23t16.5 -15z" />
    <glyph glyph-name="uniFE79" unicode="&#xfe79;" horiz-adv-x="135" arabic-form="medial" 
d="M108 555l-153 -28l-11 58l114 21q-19 22 -19 51q0 34 23 58q22 22 52 22q34 0 55 -23t21 -60q0 -41 -27 -69q-22 -24 -55 -30zM117 618q21 10 21 37q0 28 -23 28q-21 0 -21 -27t23 -38zM145 0h-155v111h155v-111z" />
    <glyph glyph-name="uniFE7A" unicode="&#xfe7a;" horiz-adv-x="261" arabic-form="isolated" 
d="M242 -162l-210 -37l-13 72l210 38z" />
    <glyph glyph-name="uniFE7B" unicode="&#xfe7b;" horiz-adv-x="135" arabic-form="medial" 
d="M145 0h-155v111h155v-111zM180 -162l-210 -37l-12 72l210 38z" />
    <glyph glyph-name="uniFE7C" unicode="&#xfe7c;" horiz-adv-x="287" arabic-form="isolated" 
d="M144 706q-22 -15 -51 -15q-33 0 -53.5 18.5t-20.5 47.5v88h56v-79q0 -20 20 -20t20 20v59h57v-59q0 -20 20 -20t20 20v79h56v-88q0 -29 -21 -47.5t-54 -18.5q-31 0 -49 15z" />
    <glyph glyph-name="uniFE7D" unicode="&#xfe7d;" horiz-adv-x="135" arabic-form="medial" 
d="M67 548q-20 -16 -50 -16q-33 0 -54 18.5t-21 47.5v89h57v-80q0 -19 19 -19q21 0 21 19v60h56v-60q0 -19 20 -19q21 0 21 19v80h55v-89q0 -29 -20.5 -47.5t-53.5 -18.5t-50 16zM145 0h-155v111h155v-111z" />
    <glyph glyph-name="uniFE7E" unicode="&#xfe7e;" horiz-adv-x="195" arabic-form="isolated" 
d="M98 860q35 -9 56.5 -36t21.5 -62q0 -34 -21.5 -55t-56.5 -21q-37 0 -58 19.5t-21 53.5q0 35 22 63.5t57 37.5zM98 810q-11 -4 -18 -16t-7 -27q0 -30 24 -30q25 0 25 29q0 15 -7 27.5t-17 16.5z" />
    <glyph glyph-name="uniFE7F" unicode="&#xfe7f;" horiz-adv-x="135" arabic-form="medial" 
d="M67 701q35 -9 57 -36.5t22 -62.5q-1 -35 -22 -55t-57 -20t-57.5 20t-21.5 53q0 35 22 63.5t57 37.5zM67 652q-11 -4 -18 -16.5t-7 -27.5q0 -30 24 -30q25 0 25 30q0 15 -7 27.5t-17 16.5zM145 0h-155v111h155v-111z" />
    <glyph glyph-name="uniFE80" unicode="&#x621;" horiz-adv-x="526" arabic-form="isolated" 
d="M446 -3q-45 13 -97 13q-75 0 -145 -25q-61 -22 -99 -56l-71 77q39 34 90 61q-47 66 -47 151q0 90 58 150q54 55 134 55q99 0 164 -88l-51 -59q-49 46 -101 46q-47 0 -72 -35q-19 -28 -19 -71q0 -61 38 -114q54 13 116 13q72 0 137 -17z" />
    <glyph glyph-name="uniFE81" unicode="&#x622;" horiz-adv-x="315" arabic-form="isolated" 
d="M281 742q-11 -30 -32.5 -47t-47.5 -17q-27 0 -61 19q-19 11 -30 11q-23 0 -43 -27l-36 31q26 63 77 63q20 0 49 -18q24 -15 44 -15q23 0 39 30zM212 0h-115v610h115v-610z" />
    <glyph glyph-name="uniFE82" unicode="&#x622;" horiz-adv-x="330" arabic-form="final" 
d="M276 742q-11 -29 -32.5 -46.5t-46.5 -17.5q-28 0 -61 19q-19 11 -30 11q-24 0 -44 -27l-36 31q27 63 77 63q20 0 49 -18q25 -15 45 -15q22 0 38 30zM340 0h-41q-209 0 -209 198v412h115v-381q0 -67 23 -92q24 -26 83 -26h29v-111z" />
    <glyph glyph-name="uniFE83" unicode="&#x623;" horiz-adv-x="277" arabic-form="isolated" 
d="M235 681h-193v55h40q-10 17 -10 37q0 33 22.5 54t56.5 21q38 0 63 -28l-19 -38q-17 13 -36 13q-29 0 -29 -28q0 -16 12 -31h93v-55zM196 0h-115v611h115v-611z" />
    <glyph glyph-name="uniFE84" unicode="&#x623;" horiz-adv-x="320" arabic-form="final" 
d="M235 681h-193v55h40q-10 17 -10 37q0 33 22.5 54t56.5 21q38 0 63 -28l-19 -38q-17 13 -36 13q-29 0 -29 -28q0 -16 12 -31h93v-55zM330 0h-41q-208 0 -208 198v413h115v-382q0 -67 22 -92q24 -26 83 -26h29v-111z" />
    <glyph glyph-name="uniFE85" unicode="&#x624;" horiz-adv-x="500" arabic-form="isolated" 
d="M343 531h-192v54h40q-11 20 -11 38q0 32 23 53.5t57 21.5q38 0 63 -28l-19 -38q-17 12 -36 12q-30 0 -30 -28q0 -14 13 -31h92v-54zM320 30q-28 -14 -63 -14q-107 0 -159 67q-42 54 -42 144q0 102 59 161q52 54 136 54q88 0 137 -54q42 -47 42 -121v-253q0 -106 -64 -162
q-53 -45 -132 -45q-73 0 -146 41l29 87q51 -27 96 -27q50 0 78 31q25 28 28 79q0 2 1 6v6zM320 129v136q0 80 -72 80q-45 0 -68 -35q-19 -29 -19 -77q0 -60 32 -93q26 -27 67 -27q31 0 60 16z" />
    <glyph glyph-name="uniFE86" unicode="&#x624;" horiz-adv-x="516" arabic-form="final" 
d="M343 531h-192v54h40q-11 20 -11 38q0 32 23 53.5t57 21.5q38 0 63 -28l-19 -38q-17 12 -36 12q-30 0 -30 -28q0 -14 13 -31h92v-54zM429 0q-3 -99 -67 -151q-51 -42 -128 -42q-73 0 -146 41l29 87q51 -27 96 -27q49 0 76 28q26 26 30 72q-34 0 -51 1q-108 3 -164 70
q-48 56 -48 148q0 102 59 161q52 54 136 54q88 0 137 -54q42 -47 42 -121v-156h96v-111h-97zM320 111v154q0 80 -72 80q-45 0 -68 -35q-19 -29 -19 -77q0 -61 33 -94q27 -28 71 -28h55z" />
    <glyph glyph-name="uniFE87" unicode="&#x625;" horiz-adv-x="296" arabic-form="isolated" 
d="M206 0h-116v666h116v-666zM246 -258h-192v54h40q-10 19 -10 38q0 32 22.5 53.5t56.5 21.5q38 0 63 -28l-19 -38q-16 12 -36 12q-30 0 -30 -28q0 -14 13 -31h92v-54z" />
    <glyph glyph-name="uniFE88" unicode="&#x625;" horiz-adv-x="320" arabic-form="final" 
d="M330 0h-41q-208 0 -208 198v468h115v-437q0 -67 22 -92q24 -26 83 -26h29v-111zM271 -258h-192v54h40q-10 19 -10 38q0 32 22.5 53.5t56.5 21.5q38 0 63 -28l-19 -38q-16 12 -36 12q-29 0 -29 -28q0 -15 12 -31h92v-54z" />
    <glyph glyph-name="uniFE89" unicode="&#x626;" horiz-adv-x="720" arabic-form="isolated" 
d="M234 347h-193v55h40q-10 17 -10 37q0 33 22.5 54t56.5 21q38 0 63 -28l-19 -38q-17 13 -36 13q-29 0 -29 -28q0 -16 12 -31h93v-55zM610 338h-114q-81 0 -81 -63q0 -46 45 -73q19 -12 70 -31q68 -25 95 -49q45 -38 45 -106q0 -97 -87 -156q-82 -56 -221 -56
q-156 0 -235 80q-66 67 -66 175q0 93 51 167l90 -32q-33 -63 -33 -121q0 -76 54 -119q50 -41 139 -41q85 0 143 33q50 29 50 66q0 32 -44 55q-5 3 -69 29q-63 27 -93 59q-44 46 -44 120q0 84 58 131q47 38 117 38h130v-106z" />
    <glyph glyph-name="uniFE8A" unicode="&#x626;" horiz-adv-x="702" arabic-form="final" 
d="M283 326h-193v54h41q-11 20 -11 38q0 32 22.5 53.5t56.5 21.5q39 0 64 -28l-19 -38q-17 12 -36 12q-30 0 -30 -28q0 -15 12 -31h93v-54zM681 0q-7 -98 -98 -152q-83 -49 -221 -49q-155 0 -235 83q-66 68 -66 177q0 93 51 167l91 -33q-34 -61 -34 -121q0 -80 57 -126
q55 -45 148 -45q82 0 136 27q53 27 59 72h-97v111h240v-111h-31z" />
    <glyph glyph-name="uniFE8B" unicode="&#x626;" horiz-adv-x="318" arabic-form="initial" 
d="M272 529h-192v54h40q-11 20 -11 38q0 33 22.5 54t57.5 21q38 0 63 -28l-19 -38q-19 13 -36 13q-30 0 -30 -29q0 -14 13 -31h92v-54zM26 0h-36v111h27q59 0 84 35q21 30 21 89v195h115v-219q0 -211 -211 -211z" />
    <glyph glyph-name="uniFE8C" unicode="&#x626;" horiz-adv-x="359" arabic-form="medial" 
d="M277 529h-193v54h40q-10 19 -10 38q0 33 22.5 54t56.5 21q38 0 63 -28l-19 -38q-17 13 -36 13q-29 0 -29 -29q0 -15 12 -31h93v-54zM26 0h-36v111h27q59 0 84 35q21 30 21 89v195h115v-195q0 -68 28 -97q26 -27 77 -27h27v-111h-35q-104 0 -154 63q-51 -63 -154 -63z" />
    <glyph glyph-name="uniFE8D" unicode="&#x627;" horiz-adv-x="277" arabic-form="isolated" 
d="M196 0h-115v666h115v-666z" />
    <glyph glyph-name="uniFE8E" unicode="&#x627;" horiz-adv-x="320" arabic-form="final" 
d="M330 0h-41q-208 0 -208 198v468h115v-437q0 -67 22 -92q24 -26 83 -26h29v-111z" />
    <glyph glyph-name="uniFE8F" unicode="&#x628;" horiz-adv-x="883" arabic-form="isolated" 
d="M592 0h-284q-120 0 -184 77q-49 60 -49 144q0 66 36 120q35 51 93 75l48 -74q-34 -17 -53 -47t-19 -65q0 -52 37 -86q36 -33 92 -33h264q66 0 93 35q22 29 22 89v195h115v-219q0 -211 -211 -211zM503 -137q0 -25 -19 -43.5t-45 -18.5t-45 18.5t-19 43.5q0 26 19 44.5
t45 18.5t45 -18.5t19 -44.5z" />
    <glyph glyph-name="uniFE90" unicode="&#x628;" horiz-adv-x="925" arabic-form="final" 
d="M592 0h-284q-120 0 -184 77q-49 60 -49 144q0 66 36 120q35 51 93 75l48 -74q-34 -17 -53 -47t-19 -65q0 -52 37 -86q36 -33 92 -33h264q66 0 93 35q22 29 22 89v195h115v-195q0 -68 28 -97q26 -27 77 -27h27v-111h-36q-102 0 -152 62q-51 -62 -155 -62zM499 -137
q0 -25 -19 -43.5t-45 -18.5t-45 18.5t-19 43.5q0 26 19 44.5t45 18.5t45 -18.5t19 -44.5z" />
    <glyph glyph-name="uniFE91" unicode="&#x628;" horiz-adv-x="318" arabic-form="initial" 
d="M-10 0v111h27q59 0 84 35q21 30 21 89v195h115v-219q0 -211 -211 -211h-36zM115 -199q-26 0 -44.5 18.5t-18.5 43.5q0 26 18.5 44.5t44.5 18.5q27 0 46 -18.5t19 -44.5q0 -25 -19 -43.5t-46 -18.5z" />
    <glyph glyph-name="uniFE92" unicode="&#x628;" horiz-adv-x="359" arabic-form="medial" 
d="M-10 0v111h27q59 0 84 35q21 30 21 89v195h115v-195q0 -68 28 -97q26 -27 77 -27h27v-111h-35q-104 0 -154 63q-51 -63 -154 -63h-36zM178 -199q-26 0 -45 18.5t-19 43.5q0 26 19 44.5t45 18.5t45 -18.5t19 -44.5q0 -25 -19 -43.5t-45 -18.5z" />
    <glyph glyph-name="uniFE93" unicode="&#x629;" horiz-adv-x="516" arabic-form="isolated" 
d="M244 575q0 -25 -19 -43.5t-45 -18.5t-45 18.5t-19 43.5q0 26 19 44.5t45 18.5t45 -18.5t19 -44.5zM388 575q0 -26 -19 -44t-46 -18q-26 0 -44.5 18.5t-18.5 43.5q0 26 18.5 44.5t44.5 18.5q27 0 46 -18t19 -45zM267 -12h-18q-89 0 -138 69q-43 61 -43 163q0 111 59 172
q51 53 131 53q92 0 144 -68q46 -61 46 -157q0 -117 -56 -179q-47 -53 -125 -53zM172 218q0 -61 24 -92q21 -27 55 -27h14q38 0 58.5 31t20.5 88q0 60 -25 91q-23 27 -61 27q-44 0 -66 -35q-20 -30 -20 -83z" />
    <glyph glyph-name="uniFE94" unicode="&#x629;" horiz-adv-x="547" arabic-form="final" 
d="M230 613q0 -26 -19 -44.5t-45 -18.5t-45 19t-19 44t19 43.5t45 18.5t45 -18.5t19 -43.5zM374 613q0 -26 -18.5 -44.5t-45.5 -18.5q-26 0 -45 18.5t-19 44.5q0 25 19 43.5t45 18.5q27 0 45.5 -18t18.5 -44zM557 0h-36q-114 0 -166 74q-50 -49 -123 -49q-80 0 -132 61
q-49 58 -49 148q0 102 66 162q57 53 146 53h56v45h106v-259q0 -68 28 -97q26 -27 77 -27h27v-111zM319 350h-53q-55 0 -82 -34q-23 -29 -23 -76q0 -53 25 -83q23 -28 60 -28q40 0 77 33q-4 21 -4 49v139z" />
    <glyph glyph-name="uniFE95" unicode="&#x62a;" horiz-adv-x="883" arabic-form="isolated" 
d="M446 489q0 -25 -19 -43.5t-45 -18.5t-45 18.5t-19 43.5q0 26 19 44.5t45 18.5t45 -19t19 -44zM590 489q0 -26 -19 -44t-46 -18q-26 0 -45 18.5t-19 43.5t19 44t45 19q27 0 46 -18.5t19 -44.5zM592 0h-284q-120 0 -184 77q-49 60 -49 144q0 66 36 120q35 51 93 75l48 -74
q-34 -17 -53 -47t-19 -65q0 -52 37 -86q36 -33 92 -33h264q66 0 93 35q22 29 22 89v195h115v-219q0 -211 -211 -211z" />
    <glyph glyph-name="uniFE96" unicode="&#x62a;" horiz-adv-x="925" arabic-form="final" 
d="M446 489q0 -25 -19 -43.5t-45 -18.5t-45 18.5t-19 43.5q0 26 19 44.5t45 18.5t45 -19t19 -44zM590 489q0 -26 -19 -44t-46 -18q-26 0 -45 18.5t-19 43.5t19 44t45 19q27 0 46 -18.5t19 -44.5zM592 0h-284q-120 0 -184 77q-49 60 -49 144q0 66 36 120q35 51 93 75l48 -74
q-34 -17 -53 -47t-19 -65q0 -52 37 -86q36 -33 92 -33h264q66 0 93 35q22 29 22 89v195h115v-195q0 -68 28 -97q26 -27 77 -27h27v-111h-36q-102 0 -152 62q-51 -62 -155 -62z" />
    <glyph glyph-name="uniFE97" unicode="&#x62a;" horiz-adv-x="318" arabic-form="initial" 
d="M168 574q0 -26 -19 -44.5t-45 -18.5t-45 18.5t-19 44.5q0 25 19 43.5t45 18.5t45 -18.5t19 -43.5zM312 574q0 -26 -18.5 -44.5t-45.5 -18.5q-26 0 -45 18.5t-19 44.5q0 25 19 43.5t45 18.5q27 0 45.5 -18t18.5 -44zM26 0h-36v111h27q59 0 84 35q21 30 21 89v195h115v-219
q0 -211 -211 -211z" />
    <glyph glyph-name="uniFE98" unicode="&#x62a;" horiz-adv-x="359" arabic-form="medial" 
d="M173 574q0 -26 -19 -44.5t-46 -18.5q-26 0 -45 18.5t-19 44.5q0 25 19 43.5t45 18.5q27 0 46 -18.5t19 -43.5zM316 574q0 -27 -18.5 -45t-45.5 -18q-26 0 -45 18.5t-19 44.5q0 25 19 43.5t45 18.5q27 0 45.5 -18t18.5 -44zM26 0h-36v111h27q59 0 84 35q21 30 21 89v195
h115v-195q0 -68 28 -97q26 -27 77 -27h27v-111h-35q-104 0 -154 63q-51 -63 -154 -63z" />
    <glyph glyph-name="uniFE99" unicode="&#x62b;" horiz-adv-x="883" arabic-form="isolated" 
d="M512 611q0 -23 -17 -40t-41 -17t-41 17t-17 40q0 24 17 40.5t41 16.5t41 -16.5t17 -40.5zM446 489q0 -25 -19 -43.5t-45 -18.5t-45 18.5t-19 43.5q0 26 19 44.5t45 18.5t45 -19t19 -44zM590 489q0 -25 -19 -43.5t-46 -18.5q-26 0 -45 18.5t-19 43.5t19 44t45 19t45.5 -19
t19.5 -44zM592 0h-284q-120 0 -184 77q-49 60 -49 144q0 66 36 120q35 51 93 75l48 -74q-34 -17 -53 -47t-19 -65q0 -52 37 -86q36 -33 92 -33h264q66 0 93 35q22 29 22 89v195h115v-219q0 -211 -211 -211z" />
    <glyph glyph-name="uniFE9A" unicode="&#x62b;" horiz-adv-x="925" arabic-form="final" 
d="M512 611q0 -23 -17 -40t-41 -17t-41 17t-17 40q0 24 17 40.5t41 16.5t41 -16.5t17 -40.5zM446 489q0 -25 -19 -43.5t-45 -18.5t-45 18.5t-19 43.5q0 26 19 44.5t45 18.5t45 -19t19 -44zM590 489q0 -25 -19 -43.5t-46 -18.5q-26 0 -45 18.5t-19 43.5t19 44t45 19t45.5 -19
t19.5 -44zM592 0h-284q-120 0 -184 77q-49 60 -49 144q0 66 36 120q35 51 93 75l48 -74q-34 -17 -53 -47t-19 -65q0 -52 37 -86q36 -33 92 -33h264q66 0 93 35q22 29 22 89v195h115v-195q0 -68 28 -97q26 -27 77 -27h27v-111h-36q-102 0 -152 62q-51 -62 -155 -62z" />
    <glyph glyph-name="uniFE9B" unicode="&#x62b;" horiz-adv-x="318" arabic-form="initial" 
d="M235 696q0 -24 -17.5 -40.5t-41.5 -16.5t-41 17t-17 40t17.5 40t40.5 17q24 0 41.5 -17t17.5 -40zM168 574q0 -26 -19 -44.5t-45 -18.5t-45 18.5t-19 44.5q0 25 19 43.5t45 18.5t45 -18.5t19 -43.5zM312 574q0 -26 -19 -44.5t-45 -18.5t-45 18.5t-19 44.5q0 25 19 43.5
t45 18.5t45 -18.5t19 -43.5zM26 0h-36v111h27q59 0 84 35q21 30 21 89v195h115v-219q0 -211 -211 -211z" />
    <glyph glyph-name="uniFE9C" unicode="&#x62b;" horiz-adv-x="359" arabic-form="medial" 
d="M239 696q0 -23 -17 -40t-41 -17t-41 16.5t-17 40.5q0 23 17 40t41 17q23 0 40.5 -17t17.5 -40zM173 574q0 -26 -19 -44.5t-46 -18.5q-26 0 -45 18.5t-19 44.5q0 25 19 43.5t45 18.5q27 0 46 -18.5t19 -43.5zM316 574q0 -26 -19 -44.5t-45 -18.5t-45 18.5t-19 44.5
q0 25 19 43.5t45 18.5t45 -18.5t19 -43.5zM26 0h-36v111h27q59 0 84 35q21 30 21 89v195h115v-195q0 -68 28 -97q26 -27 77 -27h27v-111h-35q-104 0 -154 63q-51 -63 -154 -63z" />
    <glyph glyph-name="uniFE9D" unicode="&#x62c;" horiz-adv-x="594" arabic-form="isolated" 
d="M513 -304q-88 -63 -196 -63q-118 0 -192 76q-69 73 -69 192q0 147 118 234q102 77 270 88q-73 104 -159 104q-69 0 -140 -64l-58 66q85 106 208 106q86 0 161 -62q69 -58 108 -155v-86q-198 -2 -301 -67q-96 -59 -96 -164q0 -79 56 -124q45 -35 108 -35q74 0 135 38z
M391 -97q0 -23 -17 -39.5t-40 -16.5t-40 17t-17 39q0 23 17 39.5t40 16.5t40 -16.5t17 -39.5z" />
    <glyph glyph-name="uniFE9E" unicode="&#x62c;" horiz-adv-x="694" arabic-form="final" 
d="M513 -304q-88 -63 -196 -63q-118 0 -192 76q-69 73 -69 192q0 147 118 234q102 77 270 88q-73 104 -159 104q-69 0 -140 -64l-58 66q85 106 208 106q86 0 161 -62q69 -58 108 -155v-37q-33 -9 -51 -17q23 -28 60.5 -40.5t100.5 -12.5h30v-111h-33q-110 0 -171 31
q-55 28 -84 88q-126 -22 -191 -82q-58 -55 -58 -136q0 -79 56 -124q45 -35 108 -35q74 0 135 38zM391 -97q0 -23 -17 -39.5t-40 -16.5t-40 17t-17 39q0 23 17 39.5t40 16.5t40 -16.5t17 -39.5z" />
    <glyph glyph-name="uniFE9F" unicode="&#x62c;" horiz-adv-x="561" arabic-form="initial" 
d="M128 0h-138v111h134q94 0 157 24.5t122 83.5q-73 108 -162 108q-69 0 -140 -64l-58 66q85 106 208 106q86 0 161 -62q69 -58 109 -155v-31q-84 -111 -185 -153q-83 -34 -208 -34zM315 -137q0 -25 -19 -43.5t-46 -18.5q-26 0 -44.5 18.5t-18.5 43.5q0 26 18.5 44.5
t44.5 18.5q27 0 46 -18.5t19 -44.5z" />
    <glyph glyph-name="uniFEA0" unicode="&#x62c;" horiz-adv-x="671" arabic-form="medial" 
d="M128 0h-138v111h134q94 0 157 24.5t122 83.5q-73 108 -162 108q-69 0 -140 -64l-58 66q85 106 208 106q86 0 161 -62q69 -58 109 -155v-25l-22 -35q41 -47 151 -47h31v-111h-34q-95 0 -152 22q-52 20 -83 62q-111 -84 -284 -84zM344 -137q0 -25 -19 -43.5t-45 -18.5
t-45 18.5t-19 43.5q0 26 19 44.5t45 18.5t45 -18.5t19 -44.5z" />
    <glyph glyph-name="uniFEA1" unicode="&#x62d;" horiz-adv-x="594" arabic-form="isolated" 
d="M513 -304q-88 -63 -196 -63q-118 0 -192 76q-69 73 -69 192q0 147 118 234q102 77 270 88q-73 104 -159 104q-69 0 -140 -64l-58 66q85 106 208 106q86 0 161 -62q69 -58 108 -155v-86q-198 -2 -301 -67q-96 -59 -96 -164q0 -79 56 -124q45 -35 108 -35q74 0 135 38z" />
    <glyph glyph-name="uniFEA2" unicode="&#x62d;" horiz-adv-x="694" arabic-form="final" 
d="M513 -304q-88 -63 -196 -63q-118 0 -192 76q-69 73 -69 192q0 147 118 234q102 77 270 88q-73 104 -159 104q-69 0 -140 -64l-58 66q85 106 208 106q86 0 161 -62q69 -58 108 -155v-40q-21 -5 -51 -14q24 -28 61.5 -40.5t99.5 -12.5h30v-111h-33q-110 0 -171 31
q-55 28 -84 88q-126 -22 -191 -82q-58 -55 -58 -136q0 -79 56 -124q45 -35 108 -35q74 0 135 38z" />
    <glyph glyph-name="uniFEA3" unicode="&#x62d;" horiz-adv-x="561" arabic-form="initial" 
d="M128 0h-138v111h134q94 0 157 24.5t122 83.5q-73 108 -162 108q-69 0 -140 -64l-58 66q85 106 208 106q86 0 161 -62q69 -58 109 -155v-31q-84 -111 -185 -153q-83 -34 -208 -34z" />
    <glyph glyph-name="uniFEA4" unicode="&#x62d;" horiz-adv-x="671" arabic-form="medial" 
d="M128 0h-138v111h134q94 0 157 24.5t122 83.5q-73 108 -162 108q-69 0 -140 -64l-58 66q85 106 208 106q86 0 161 -62q69 -58 109 -155v-25l-22 -35q41 -47 151 -47h31v-111h-34q-95 0 -152 22q-52 20 -83 62q-111 -84 -284 -84z" />
    <glyph glyph-name="uniFEA5" unicode="&#x62e;" horiz-adv-x="594" arabic-form="isolated" 
d="M357 573q0 -25 -19 -43.5t-45 -18.5t-45 18.5t-19 43.5q0 26 19 44.5t45 18.5t45 -18.5t19 -44.5zM513 -304q-88 -63 -196 -63q-118 0 -192 76q-69 73 -69 192q0 147 118 234q102 77 270 88q-73 104 -159 104q-69 0 -140 -64l-58 66q85 106 208 106q86 0 161 -62
q69 -58 108 -155v-86q-198 -2 -301 -67q-96 -59 -96 -164q0 -79 56 -124q45 -35 108 -35q74 0 135 38z" />
    <glyph glyph-name="uniFEA6" unicode="&#x62e;" horiz-adv-x="694" arabic-form="final" 
d="M358 573q0 -25 -19 -43.5t-46 -18.5q-26 0 -44.5 18.5t-18.5 43.5q0 26 18.5 44.5t44.5 18.5q27 0 46 -18.5t19 -44.5zM513 -304q-88 -63 -196 -63q-118 0 -192 76q-69 73 -69 192q0 147 118 234q102 77 270 88q-73 104 -159 104q-69 0 -140 -64l-58 66q85 106 208 106
q86 0 161 -62q69 -58 108 -155v-40q-21 -5 -51 -14q24 -28 61.5 -40.5t99.5 -12.5h30v-111h-33q-110 0 -171 31q-55 28 -84 88q-126 -22 -191 -82q-58 -55 -58 -136q0 -79 56 -124q45 -35 108 -35q74 0 135 38z" />
    <glyph glyph-name="uniFEA7" unicode="&#x62e;" horiz-adv-x="561" arabic-form="initial" 
d="M317 573q0 -25 -19 -43.5t-46 -18.5q-26 0 -45 18.5t-19 43.5q0 26 19 44.5t45 18.5q27 0 46 -18.5t19 -44.5zM128 0h-138v111h134q94 0 157 24.5t122 83.5q-73 108 -162 108q-69 0 -140 -64l-58 66q85 106 208 106q86 0 161 -62q69 -58 109 -155v-31q-84 -111 -185 -153
q-83 -34 -208 -34z" />
    <glyph glyph-name="uniFEA8" unicode="&#x62e;" horiz-adv-x="671" arabic-form="medial" 
d="M316 573q0 -25 -19 -43.5t-45 -18.5t-45 18.5t-19 43.5q0 26 19 44.5t45 18.5t45 -18.5t19 -44.5zM128 0h-138v111h134q94 0 157 24.5t122 83.5q-73 108 -162 108q-69 0 -140 -64l-58 66q85 106 208 106q86 0 161 -62q69 -58 109 -155v-25l-22 -35q41 -47 151 -47h31
v-111h-34q-95 0 -152 22q-52 20 -83 62q-111 -84 -284 -84z" />
    <glyph glyph-name="uniFEA9" unicode="&#x62f;" horiz-adv-x="471" arabic-form="isolated" 
d="M224 0h-204v111h180q82 0 82 69q0 43 -31 89.5t-83 83.5l66 89q81 -56 124 -130q38 -66 38 -134q0 -178 -172 -178z" />
    <glyph glyph-name="uniFEAA" unicode="&#x62f;" horiz-adv-x="515" arabic-form="final" 
d="M224 0h-204v111h180q82 0 82 69q0 43 -31 89.5t-83 83.5l66 89q77 -53 119 -121q38 -61 42 -125q2 -41 28.5 -63t74.5 -22h27v-111h-36q-86 0 -136 46q-44 -46 -129 -46z" />
    <glyph glyph-name="uniFEAB" unicode="&#x630;" horiz-adv-x="471" arabic-form="isolated" 
d="M269 568q0 -25 -19 -43.5t-45 -18.5t-45 18.5t-19 43.5t19 44t45 19t45 -18.5t19 -44.5zM224 0h-204v111h180q82 0 82 69q0 43 -31 89.5t-83 83.5l66 89q81 -56 124 -130q38 -66 38 -134q0 -178 -172 -178z" />
    <glyph glyph-name="uniFEAC" unicode="&#x630;" horiz-adv-x="515" arabic-form="final" 
d="M269 568q0 -25 -19 -43.5t-45 -18.5t-45 18.5t-19 43.5q0 26 19 44.5t45 18.5t45 -18.5t19 -44.5zM224 0h-204v111h180q82 0 82 69q0 43 -31 89.5t-83 83.5l66 89q77 -53 119 -121q38 -61 42 -125q2 -41 28.5 -63t74.5 -22h27v-111h-36q-86 0 -136 46q-44 -46 -129 -46z
" />
    <glyph glyph-name="uniFEAD" unicode="&#x631;" horiz-adv-x="351" arabic-form="isolated" 
d="M270 430v-416q0 -106 -59 -160q-48 -45 -124 -45q-72 0 -139 37l28 86q46 -23 83 -23q48 0 74 34q23 30 23 85v402h114z" />
    <glyph glyph-name="uniFEAE" unicode="&#x631;" horiz-adv-x="393" arabic-form="final" 
d="M266 26v-16q-2 -103 -58 -157q-47 -44 -121 -44q-72 0 -139 37l28 86q46 -23 83 -23q48 0 74 34q23 30 23 85v402h114v-195q0 -68 29 -97q26 -27 77 -27h27v-111h-36q-58 0 -101 26z" />
    <glyph glyph-name="uniFEAF" unicode="&#x632;" horiz-adv-x="351" arabic-form="isolated" 
d="M278 573q0 -25 -19 -43.5t-46 -18.5q-26 0 -44.5 18.5t-18.5 43.5q0 26 18.5 44.5t44.5 18.5q27 0 46 -18.5t19 -44.5zM270 430v-416q0 -106 -59 -160q-48 -45 -124 -45q-72 0 -139 37l28 86q46 -23 83 -23q48 0 74 34q23 30 23 85v402h114z" />
    <glyph glyph-name="uniFEB0" unicode="&#x632;" horiz-adv-x="393" arabic-form="final" 
d="M272 573q0 -25 -19 -43.5t-45 -18.5t-45 18.5t-19 43.5q0 26 19 44.5t45 18.5t45 -18.5t19 -44.5zM266 26v-16q-2 -103 -58 -157q-47 -44 -121 -44q-72 0 -139 37l28 86q46 -23 83 -23q48 0 74 34q23 30 23 85v402h114v-195q0 -68 29 -97q26 -27 77 -27h27v-111h-36
q-58 0 -101 26z" />
    <glyph glyph-name="uniFEB1" unicode="&#x633;" horiz-adv-x="1282" arabic-form="isolated" 
d="M583 2q-22 -99 -98 -149q-66 -44 -160 -44q-126 0 -198 78q-62 67 -62 173q0 90 50 167l90 -33q-32 -62 -32 -122q0 -70 43 -113q41 -39 109 -39q71 0 115 43t44 118v286h115v-137q0 -119 92 -119t92 119v137h115v-137q0 -119 94 -119q95 0 95 119v200h115v-219
q0 -211 -209 -211q-103 0 -152 62q-49 -62 -148 -62q-64 0 -106 24q0 -3 -2 -10q-1 -8 -2 -12z" />
    <glyph glyph-name="uniFEB2" unicode="&#x633;" horiz-adv-x="1344" arabic-form="final" 
d="M587 24l-3 -17q-21 -101 -97 -153q-66 -45 -161 -45q-127 0 -199 78q-62 67 -62 173q0 91 51 167l90 -33q-33 -61 -33 -122q0 -70 44 -113q41 -39 109 -39q71 0 114 43q44 43 44 118v286h115v-137q0 -119 92 -119t92 119v137h116v-137q0 -119 94 -119t94 119v137h115
v-132q0 -68 28 -97q26 -27 78 -27h46v-111h-55q-104 0 -154 63q-48 -63 -151 -63q-104 0 -153 62q-47 -62 -147 -62q-65 0 -107 24z" />
    <glyph glyph-name="uniFEB3" unicode="&#x633;" horiz-adv-x="940" arabic-form="initial" 
d="M45 0h-55v111h47q59 0 84 35q21 30 21 89v132h115v-137q0 -119 91 -119q93 0 93 119v137h115v-137q0 -119 95 -119q94 0 94 119v200h115v-219q0 -211 -209 -211q-104 0 -152 62q-49 -62 -150 -62q-102 0 -150 63q-50 -63 -154 -63z" />
    <glyph glyph-name="uniFEB4" unicode="&#x633;" horiz-adv-x="1002" arabic-form="medial" 
d="M45 0h-55v111h47q59 0 84 35q21 30 21 89v132h115v-137q0 -119 90 -119q94 0 94 119v137h115v-137q0 -119 95 -119q94 0 94 119v137h115v-132q0 -68 28 -97q26 -27 77 -27h47v-111h-56q-103 0 -153 63q-49 -63 -153 -63q-103 0 -151 62q-49 -62 -151 -62q-101 0 -149 63
q-50 -63 -154 -63z" />
    <glyph glyph-name="uniFEB5" unicode="&#x634;" horiz-adv-x="1282" arabic-form="isolated" 
d="M897 656q0 -23 -17 -40t-41 -17t-41 17t-17 40q0 24 17 40.5t41 16.5t41 -16.5t17 -40.5zM831 534q0 -25 -19 -43.5t-46 -18.5q-26 0 -44.5 18.5t-18.5 43.5t18.5 43.5t44.5 18.5q27 0 46 -18.5t19 -43.5zM974 534q0 -25 -19 -43.5t-45 -18.5t-45 18.5t-19 43.5t19 43.5
t45 18.5t45 -18.5t19 -43.5zM583 2q-22 -99 -98 -149q-66 -44 -160 -44q-126 0 -198 78q-62 67 -62 173q0 90 50 167l90 -33q-32 -62 -32 -122q0 -70 43 -113q41 -39 109 -39q71 0 115 43t44 118v286h115v-137q0 -119 92 -119t92 119v137h115v-137q0 -119 94 -119
q95 0 95 119v200h115v-219q0 -211 -209 -211q-103 0 -152 62q-49 -62 -148 -62q-64 0 -106 24q0 -3 -2 -10q-1 -8 -2 -12z" />
    <glyph glyph-name="uniFEB6" unicode="&#x634;" horiz-adv-x="1344" arabic-form="final" 
d="M897 656q0 -23 -17 -40t-41 -17t-41 17t-17 40q0 24 17 40.5t41 16.5t41 -16.5t17 -40.5zM831 534q0 -25 -19 -43.5t-46 -18.5q-26 0 -44.5 18.5t-18.5 43.5t18.5 43.5t44.5 18.5q27 0 46 -18.5t19 -43.5zM974 534q0 -25 -19 -43.5t-45 -18.5t-45 18.5t-19 43.5t19 43.5
t45 18.5t45 -18.5t19 -43.5zM587 24l-3 -17q-21 -101 -97 -153q-66 -45 -161 -45q-127 0 -199 78q-62 67 -62 173q0 91 51 167l90 -33q-33 -61 -33 -122q0 -70 44 -113q41 -39 109 -39q71 0 114 43q44 43 44 118v286h115v-137q0 -119 92 -119t92 119v137h116v-137
q0 -119 94 -119t94 119v137h115v-132q0 -68 28 -97q26 -27 78 -27h46v-111h-55q-104 0 -154 63q-48 -63 -151 -63q-104 0 -153 62q-47 -62 -147 -62q-65 0 -107 24z" />
    <glyph glyph-name="uniFEB7" unicode="&#x634;" horiz-adv-x="940" arabic-form="initial" 
d="M551 656q0 -23 -17 -40t-41 -17q-23 0 -40.5 17t-17.5 40t17 40t41 17t41 -16.5t17 -40.5zM485 534q0 -25 -19 -43.5t-45 -18.5t-45 18.5t-19 43.5t19 43.5t45 18.5t45 -18.5t19 -43.5zM629 534q0 -25 -19 -43.5t-46 -18.5q-26 0 -44.5 18.5t-18.5 43.5t18.5 43.5
t44.5 18.5q27 0 46 -18.5t19 -43.5zM45 0h-55v111h47q59 0 84 35q21 30 21 89v132h115v-137q0 -119 91 -119q93 0 93 119v137h115v-137q0 -119 95 -119q94 0 94 119v200h115v-219q0 -211 -209 -211q-104 0 -152 62q-49 -62 -150 -62q-102 0 -150 63q-50 -63 -154 -63z" />
    <glyph glyph-name="uniFEB8" unicode="&#x634;" horiz-adv-x="1002" arabic-form="medial" 
d="M557 656q0 -23 -17.5 -40t-41.5 -17q-23 0 -40.5 17t-17.5 40t17 40t41 17t41.5 -16.5t17.5 -40.5zM490 534q0 -25 -19 -43.5t-45 -18.5t-45 18.5t-19 43.5t19 43.5t45 18.5t45 -18.5t19 -43.5zM634 534q0 -25 -19 -43.5t-45 -18.5t-45 18.5t-19 43.5t19 43.5t45 18.5
t45 -18.5t19 -43.5zM45 0h-55v111h47q59 0 84 35q21 30 21 89v132h115v-137q0 -119 90 -119q94 0 94 119v137h115v-137q0 -119 95 -119q94 0 94 119v137h115v-132q0 -68 28 -97q26 -27 77 -27h47v-111h-56q-103 0 -153 63q-49 -63 -153 -63q-103 0 -151 62q-49 -62 -151 -62
q-101 0 -149 63q-50 -63 -154 -63z" />
    <glyph glyph-name="uniFEB9" unicode="&#x635;" horiz-adv-x="1380" arabic-form="isolated" 
d="M588 29q0 -2 -1 -9q-1 -5 -1 -7q-18 -104 -95 -157q-67 -47 -165 -47q-127 0 -199 78q-62 67 -62 173q0 91 51 167l90 -33q-33 -61 -33 -122q0 -70 44 -113q41 -39 109 -39q71 0 114 43q44 43 44 118v249h115v-95q0 -119 94 -123q66 166 182 256q99 77 207 77
q113 0 176 -73q54 -62 54 -158q0 -214 -217 -214h-396q-66 2 -111 29zM803 111h282q66 0 91 29q21 25 21 78q0 62 -33 92q-29 26 -80 26q-82 0 -162 -68q-72 -61 -119 -157z" />
    <glyph glyph-name="uniFEBA" unicode="&#x635;" horiz-adv-x="1427" arabic-form="final" 
d="M586 18q-18 -107 -94 -162q-67 -47 -166 -47q-127 0 -199 78q-62 67 -62 173q0 91 51 167l90 -33q-33 -61 -33 -122q0 -70 44 -113q41 -39 108 -39q71 0 115 44q44 43 44 120v246h115v-95q0 -119 93 -123q66 166 183 256q99 77 206 77q113 0 176 -71q54 -61 54 -156
q0 -107 104 -107h22v-111h-31q-95 0 -146 56q-52 -56 -166 -56h-396q-67 2 -110 29q-2 -6 -2 -11zM802 111h283q65 0 90 29q21 25 21 78q0 62 -33 92q-29 26 -80 26q-82 0 -162 -68q-72 -61 -119 -157z" />
    <glyph glyph-name="uniFEBB" unicode="&#x635;" horiz-adv-x="1012" arabic-form="initial" 
d="M20 0h-30v111h21q59 0 84 35q22 29 22 89v95h115v-95q0 -119 93 -123q66 166 183 256q99 77 206 77q113 0 176 -73q54 -63 54 -160q0 -114 -61 -166q-53 -46 -156 -46h-400q-102 2 -152 63q-51 -63 -155 -63zM435 111h283q65 0 90 29q21 24 21 77q0 119 -113 119
q-82 0 -162 -68q-72 -61 -119 -157z" />
    <glyph glyph-name="uniFEBC" unicode="&#x635;" horiz-adv-x="1060" arabic-form="medial" 
d="M20 0h-30v111h21q59 0 84 35q22 29 22 89v95h115v-95q0 -119 93 -123q66 166 183 256q99 77 206 77q113 0 176 -72q54 -62 54 -160q0 -53 31 -79q26 -23 73 -23h22v-111h-31q-95 0 -146 56q-52 -56 -166 -56h-400q-102 2 -152 63q-51 -63 -155 -63zM435 111h283
q65 0 90 29q21 25 21 78q0 62 -33 92q-29 26 -80 26q-82 0 -162 -68q-72 -61 -119 -157z" />
    <glyph glyph-name="uniFEBD" unicode="&#x636;" horiz-adv-x="1380" arabic-form="isolated" 
d="M1115 589q0 -26 -19 -44.5t-46 -18.5q-26 0 -45 18.5t-19 44.5q0 25 19 43.5t45 18.5q27 0 46 -18.5t19 -43.5zM588 29q0 -2 -1 -9q-1 -5 -1 -7q-18 -104 -95 -157q-67 -47 -165 -47q-127 0 -199 78q-62 67 -62 173q0 91 51 167l90 -33q-33 -61 -33 -122q0 -70 44 -113
q41 -39 109 -39q71 0 114 43q44 43 44 118v249h115v-95q0 -119 94 -123q66 166 182 256q99 77 207 77q113 0 176 -73q54 -62 54 -158q0 -214 -217 -214h-396q-66 2 -111 29zM803 111h282q66 0 91 29q21 25 21 78q0 62 -33 92q-29 26 -80 26q-82 0 -162 -68
q-72 -61 -119 -157z" />
    <glyph glyph-name="uniFEBE" unicode="&#x636;" horiz-adv-x="1427" arabic-form="final" 
d="M1124 589q0 -26 -19 -44.5t-45 -18.5t-45 18.5t-19 44.5q0 25 19 43.5t45 18.5t45 -18.5t19 -43.5zM586 18q-18 -107 -94 -162q-67 -47 -166 -47q-127 0 -199 78q-62 67 -62 173q0 91 51 167l90 -33q-33 -61 -33 -122q0 -70 44 -113q41 -39 108 -39q71 0 115 44
q44 43 44 120v246h115v-95q0 -119 93 -123q66 166 183 256q99 77 206 77q113 0 176 -71q54 -61 54 -156q0 -107 104 -107h22v-111h-31q-95 0 -146 56q-52 -56 -166 -56h-396q-67 2 -110 29q-2 -6 -2 -11zM802 111h283q65 0 90 29q21 25 21 78q0 62 -33 92q-29 26 -80 26
q-82 0 -162 -68q-72 -61 -119 -157z" />
    <glyph glyph-name="uniFEBF" unicode="&#x636;" horiz-adv-x="1012" arabic-form="initial" 
d="M759 589q0 -26 -19 -44.5t-45 -18.5t-45 18.5t-19 44.5q0 25 19 43.5t45 18.5t45 -18.5t19 -43.5zM20 0h-30v111h21q59 0 84 35q22 29 22 89v95h115v-95q0 -119 93 -123q66 166 183 256q99 77 206 77q113 0 176 -73q54 -63 54 -160q0 -114 -61 -166q-53 -46 -156 -46
h-400q-102 2 -152 63q-51 -63 -155 -63zM435 111h283q65 0 90 29q21 24 21 77q0 119 -113 119q-82 0 -162 -68q-72 -61 -119 -157z" />
    <glyph glyph-name="uniFEC0" unicode="&#x636;" horiz-adv-x="1060" arabic-form="medial" 
d="M759 589q0 -26 -19 -44.5t-45 -18.5t-45 18.5t-19 44.5q0 25 19 43.5t45 18.5t45 -18.5t19 -43.5zM20 0h-30v111h21q59 0 84 35q22 29 22 89v95h115v-95q0 -119 93 -123q66 166 183 256q99 77 206 77q113 0 176 -72q54 -62 54 -160q0 -53 31 -79q26 -23 73 -23h22v-111
h-31q-95 0 -146 56q-52 -56 -166 -56h-400q-102 2 -152 63q-51 -63 -155 -63zM435 111h283q65 0 90 29q21 25 21 78q0 62 -33 92q-29 26 -80 26q-82 0 -162 -68q-72 -61 -119 -157z" />
    <glyph glyph-name="uniFEC1" unicode="&#x637;" horiz-adv-x="870" arabic-form="isolated" 
d="M585 0h-556v111h150v555h113v-398q63 94 146 139q69 38 147 38q103 0 164 -73q52 -63 52 -158q0 -116 -61 -168q-53 -46 -155 -46zM298 111h277q65 0 91 30q20 25 20 76q0 119 -113 119q-79 0 -158 -68q-68 -60 -117 -157z" />
    <glyph glyph-name="uniFEC2" unicode="&#x637;" horiz-adv-x="918" arabic-form="final" 
d="M581 0h-552v111h146v555h113v-398q63 94 146 139q69 38 147 38q103 0 164 -71q53 -63 53 -156q0 -107 104 -107h26v-111h-35q-96 0 -147 56q-52 -56 -165 -56zM294 111h277q65 0 91 30q21 25 21 75q0 120 -113 120q-80 0 -158 -68q-69 -60 -118 -157z" />
    <glyph glyph-name="uniFEC3" unicode="&#x637;" horiz-adv-x="835" arabic-form="initial" 
d="M550 0h-560v111h154v555h113v-398q63 94 146 139q69 38 147 38q103 0 164 -71q53 -64 53 -163q0 -211 -217 -211zM263 111h277q66 0 91 29q21 25 21 78q0 62 -33 92q-29 26 -80 26q-80 0 -158 -68q-69 -60 -118 -157z" />
    <glyph glyph-name="uniFEC4" unicode="&#x637;" horiz-adv-x="887" arabic-form="medial" 
d="M550 0h-560v111h154v555h113v-398q63 94 146 139q69 38 147 38q103 0 164 -71q53 -63 53 -156q0 -107 104 -107h26v-111h-35q-96 0 -147 56q-52 -56 -165 -56zM263 111h276q66 0 92 29q21 24 21 76q0 120 -113 120q-80 0 -158 -68q-69 -60 -118 -157z" />
    <glyph glyph-name="uniFEC5" unicode="&#x638;" horiz-adv-x="870" arabic-form="isolated" 
d="M585 0h-556v111h150v555h113v-398q63 94 146 139q69 38 147 38q103 0 164 -73q52 -63 52 -158q0 -116 -61 -168q-53 -46 -155 -46zM641 603q0 -26 -19 -44.5t-45 -18.5t-45 18.5t-19 44.5q0 25 19 43.5t45 18.5t45 -18.5t19 -43.5zM298 111h277q65 0 91 30q20 25 20 76
q0 119 -113 119q-79 0 -158 -68q-68 -60 -117 -157z" />
    <glyph glyph-name="uniFEC6" unicode="&#x638;" horiz-adv-x="918" arabic-form="final" 
d="M581 0h-552v111h146v555h113v-398q63 94 146 139q69 38 147 38q103 0 164 -71q53 -63 53 -156q0 -107 104 -107h26v-111h-35q-96 0 -147 56q-52 -56 -165 -56zM641 603q0 -26 -19 -44.5t-45 -18.5t-45 18.5t-19 44.5q0 25 19 43.5t45 18.5t45 -18.5t19 -43.5zM294 111
h277q65 0 91 30q21 25 21 75q0 120 -113 120q-80 0 -158 -68q-69 -60 -118 -157z" />
    <glyph glyph-name="uniFEC7" unicode="&#x638;" horiz-adv-x="835" arabic-form="initial" 
d="M550 0h-560v111h154v555h113v-398q63 94 146 139q69 38 147 38q103 0 164 -71q53 -64 53 -163q0 -211 -217 -211zM604 603q0 -26 -19 -44.5t-45 -18.5t-45 18.5t-19 44.5q0 25 19 43.5t45 18.5t45 -18.5t19 -43.5zM263 111h277q66 0 91 29q21 25 21 78q0 62 -33 92
q-29 26 -80 26q-80 0 -158 -68q-69 -60 -118 -157z" />
    <glyph glyph-name="uniFEC8" unicode="&#x638;" horiz-adv-x="887" arabic-form="medial" 
d="M550 0h-560v111h154v555h113v-398q63 94 146 139q69 38 147 38q103 0 164 -71q53 -63 53 -156q0 -107 104 -107h26v-111h-35q-96 0 -147 56q-52 -56 -165 -56zM604 603q0 -26 -19 -44.5t-45 -18.5t-45 18.5t-19 44.5q0 25 19 43.5t45 18.5t45 -18.5t19 -43.5zM263 111
h276q66 0 92 29q21 24 21 76q0 120 -113 120q-80 0 -158 -68q-69 -60 -118 -157z" />
    <glyph glyph-name="uniFEC9" unicode="&#x639;" horiz-adv-x="592" arabic-form="isolated" 
d="M532 -304q-89 -63 -200 -63q-126 0 -200 71q-67 64 -67 165q0 64 32 119q29 50 80 80q-86 55 -86 163q0 99 65 159q56 52 138 52h177v-109h-156q-54 0 -84 -35q-24 -30 -24 -73q0 -45 33 -75q33 -29 85 -29h190v-109h-179q-80 0 -122 -45q-34 -35 -34 -88q0 -64 53 -103
q45 -34 112 -34q79 0 139 38z" />
    <glyph glyph-name="uniFECA" unicode="&#x639;" horiz-adv-x="674" arabic-form="final" 
d="M537 -304q-41 -30 -94 -46.5t-105 -16.5q-127 0 -200 68q-67 61 -67 162q0 84 46 138q27 33 109 87q11 7 18 12l-11 13q-51 62 -81 90q-46 44 -83 51v47q49 78 125 117q62 33 129 33q77 0 148 -44q64 -39 107 -107v-46q-32 -5 -60 -27.5t-79 -84.5q-12 -14 -19 -23
q42 -8 65 -8h199v-111h-241q-66 0 -119 36q-12 -12 -56 -42q-40 -27 -57 -48q-26 -32 -26 -73q0 -63 53 -100q45 -31 113 -31q79 0 139 38zM193 295q32 -24 89 -89q26 -30 41 -45q11 11 38 43q54 63 93 90q-57 57 -131 58q-73 0 -130 -57z" />
    <glyph glyph-name="uniFECB" unicode="&#x639;" horiz-adv-x="585" arabic-form="initial" 
d="M535 0h-545v111h126q-36 51 -36 120q0 99 66 159q56 52 138 52h177v-109h-157q-54 0 -84 -35q-24 -30 -24 -73q0 -50 34 -83q32 -31 85 -31h220v-111z" />
    <glyph glyph-name="uniFECC" unicode="&#x639;" horiz-adv-x="702" arabic-form="medial" 
d="M230 0h-240v111h208q28 0 58 10q-52 64 -89 94.5t-71 38.5v47q49 78 125 117q62 33 129 33q77 0 148 -44q64 -39 107 -107v-46q-31 -5 -59 -27.5t-79 -83.5q-13 -16 -20 -24q34 -8 53 -8h212v-111h-242q-65 0 -118 36q-55 -36 -122 -36zM220 295q32 -23 89 -89
q25 -29 41 -44q16 15 58 62q43 48 73 70q-57 57 -131 58q-72 0 -130 -57z" />
    <glyph glyph-name="uniFECD" unicode="&#x63a;" horiz-adv-x="592" arabic-form="isolated" 
d="M388 573q0 -25 -19 -43.5t-46 -18.5q-26 0 -44.5 18.5t-18.5 43.5q0 26 18.5 44.5t44.5 18.5q27 0 46 -18.5t19 -44.5zM532 -304q-89 -63 -200 -63q-126 0 -200 71q-67 64 -67 165q0 64 32 119q29 50 80 80q-86 55 -86 163q0 99 65 159q56 52 138 52h177v-109h-156
q-54 0 -84 -35q-24 -30 -24 -73q0 -45 33 -75q33 -29 85 -29h190v-109h-179q-80 0 -122 -45q-34 -35 -34 -88q0 -64 53 -103q45 -34 112 -34q79 0 139 38z" />
    <glyph glyph-name="uniFECE" unicode="&#x63a;" horiz-adv-x="674" arabic-form="final" 
d="M378 574q0 -25 -19 -43.5t-45 -18.5t-45 18.5t-19 43.5q0 26 19 44.5t45 18.5t45 -18.5t19 -44.5zM537 -304q-41 -30 -94 -46.5t-105 -16.5q-127 0 -200 68q-67 61 -67 162q0 84 46 138q27 33 109 87q11 7 18 12l-11 13q-51 62 -81 90q-46 44 -83 51v47q49 78 125 117
q62 33 129 33q77 0 148 -44q64 -39 107 -107v-46q-32 -5 -60 -27.5t-79 -84.5q-12 -14 -19 -23q42 -8 65 -8h199v-111h-241q-66 0 -119 36q-12 -12 -56 -42q-40 -27 -57 -48q-26 -32 -26 -73q0 -63 53 -100q45 -31 113 -31q79 0 139 38zM193 295q32 -24 89 -89
q26 -30 41 -45q11 11 38 43q54 63 93 90q-57 57 -131 58q-73 0 -130 -57z" />
    <glyph glyph-name="uniFECF" unicode="&#x63a;" horiz-adv-x="585" arabic-form="initial" 
d="M376 573q0 -25 -19 -43.5t-45 -18.5t-45 18.5t-19 43.5q0 26 19 44.5t45 18.5t45 -18.5t19 -44.5zM535 0h-545v111h126q-36 51 -36 120q0 99 66 159q56 52 138 52h177v-109h-157q-54 0 -84 -35q-24 -30 -24 -73q0 -50 34 -83q32 -31 85 -31h220v-111z" />
    <glyph glyph-name="uniFED0" unicode="&#x63a;" horiz-adv-x="702" arabic-form="medial" 
d="M415 574q0 -25 -19 -43.5t-45 -18.5t-45 18.5t-19 43.5q0 26 19 44.5t45 18.5t45 -18.5t19 -44.5zM230 0h-240v111h208q28 0 58 10q-52 64 -89 94.5t-71 38.5v47q49 78 125 117q62 33 129 33q77 0 148 -44q64 -39 107 -107v-46q-31 -5 -59 -27.5t-79 -83.5
q-13 -16 -20 -24q34 -8 53 -8h212v-111h-242q-65 0 -118 36q-55 -36 -122 -36zM220 295q32 -23 89 -89q25 -29 41 -44q16 15 58 62q43 48 73 70q-57 57 -131 58q-72 0 -130 -57z" />
    <glyph glyph-name="uniFED1" unicode="&#x641;" horiz-adv-x="945" arabic-form="isolated" 
d="M751 572q0 -25 -19 -43.5t-45 -18.5t-45 18.5t-19 43.5q0 26 19 44.5t45 18.5t45 -18.5t19 -44.5zM697 0h-389q-120 0 -184 77q-49 60 -49 144q0 66 36 120q35 51 93 75l48 -74q-34 -17 -53 -47t-19 -65q0 -52 37 -86q36 -33 92 -33h228q-31 51 -31 121q0 104 58 163
q51 52 132 52q88 0 137 -55q42 -47 42 -121v-87q0 -86 -51 -136q-48 -48 -127 -48zM612 230q0 -62 29 -94q23 -25 57 -25q67 0 67 75v79q0 80 -69 80q-40 0 -62 -30t-22 -85z" />
    <glyph glyph-name="uniFED2" unicode="&#x641;" horiz-adv-x="973" arabic-form="final" 
d="M768 573q0 -25 -19 -43.5t-45 -18.5t-45 18.5t-19 43.5q0 26 19 44.5t45 18.5t45 -18.5t19 -44.5zM625 0h-317q-120 0 -184 77q-49 60 -49 144q0 66 36 120q35 51 93 75l48 -74q-34 -17 -53 -47t-19 -65q0 -52 37 -86q36 -33 92 -33h247q-50 61 -50 137q0 93 57 150
q52 52 137 52q98 0 151 -66q44 -54 44 -136q0 -77 -51 -137h139v-111h-208q-44 0 -75 7q-29 -7 -75 -7zM700 110q40 20 64 58.5t24 82.5q0 48 -26 75q-24 24 -62 24q-43 0 -67 -31q-20 -26 -20 -68q0 -43 24 -82t63 -59z" />
    <glyph glyph-name="uniFED3" unicode="&#x641;" horiz-adv-x="536" arabic-form="initial" 
d="M353 573q0 -25 -19 -43.5t-45 -18.5t-45 18.5t-19 43.5q0 26 19 44.5t45 18.5t45 -18.5t19 -44.5zM288 0h-298v111h138q-31 51 -31 121q0 104 58 163q51 52 132 52q88 0 137 -55q42 -47 42 -121v-87q0 -85 -51 -136q-47 -47 -127 -48zM203 230q0 -62 29 -94
q23 -25 57 -25q67 0 67 75v79q0 80 -69 80q-40 0 -62 -30t-22 -85z" />
    <glyph glyph-name="uniFED4" unicode="&#x641;" horiz-adv-x="546" arabic-form="medial" 
d="M338 573q0 -25 -19 -43.5t-46 -18.5q-26 0 -44.5 18.5t-18.5 43.5q0 26 18.5 44.5t44.5 18.5q27 0 46 -18.5t19 -44.5zM198 0h-208v111h139q-51 62 -51 137q0 93 57 150q53 52 138 52q98 0 151 -66q44 -54 44 -136q0 -75 -51 -137h139v-111h-208q-46 0 -75 7
q-29 -7 -75 -7zM273 110q40 21 63.5 59t23.5 82q0 48 -26 75q-23 24 -61 24q-44 0 -67 -31q-20 -26 -20 -68q0 -43 24 -82t63 -59z" />
    <glyph glyph-name="uniFED5" unicode="&#x642;" horiz-adv-x="741" arabic-form="isolated" 
d="M475 576q0 -25 -19 -43.5t-46 -18.5q-26 0 -44.5 18.5t-18.5 43.5t18.5 43.5t44.5 18.5q27 0 46 -18.5t19 -43.5zM618 576q0 -26 -18.5 -44t-45.5 -18q-26 0 -45 18.5t-19 43.5t19 43.5t45 18.5q27 0 45.5 -18t18.5 -44zM547 29q-26 -13 -55 -13q-104 0 -157 67
q-43 56 -43 144q0 102 58 161q53 54 137 54q87 0 136 -54q42 -47 42 -121v-187q0 -138 -92 -213q-82 -68 -218 -68q-147 0 -225 83q-65 69 -65 177q0 93 51 167l90 -32q-32 -60 -32 -123q0 -77 49 -121q48 -44 132 -44q74 0 124 31q44 27 62 75q4 7 6 17zM555 129v136
q0 80 -72 80q-45 0 -68 -35q-19 -29 -19 -77q0 -60 32 -93q27 -27 68 -27q31 0 59 16z" />
    <glyph glyph-name="uniFED6" unicode="&#x642;" horiz-adv-x="752" arabic-form="final" 
d="M475 575q0 -25 -19 -43.5t-46 -18.5q-26 0 -44.5 18.5t-18.5 43.5q0 26 18.5 44.5t44.5 18.5q27 0 46 -18.5t19 -44.5zM618 575q0 -26 -18.5 -44t-45.5 -18q-26 0 -45 18.5t-19 43.5q0 26 19 44.5t45 18.5q27 0 45.5 -18t18.5 -45zM655 0q-25 -101 -111 -154
q-76 -47 -189 -47q-147 0 -225 83q-65 69 -65 177q0 93 51 167l90 -32q-32 -60 -32 -123q0 -77 49 -121q48 -44 132 -44q74 0 124 30q44 26 63 73q-9 0 -28 1h-23q-106 6 -158 78q-41 55 -41 139q0 102 58 161q53 54 137 54q87 0 136 -54q42 -47 42 -121v-156h97v-111h-107z
M555 111v154q0 80 -72 80q-45 0 -68 -35q-19 -29 -19 -77q0 -61 33 -94q28 -28 72 -28h54z" />
    <glyph glyph-name="uniFED7" unicode="&#x642;" horiz-adv-x="536" arabic-form="initial" 
d="M280 575q0 -25 -19 -43.5t-46 -18.5q-26 0 -44.5 18.5t-18.5 43.5q0 26 18.5 44.5t44.5 18.5q27 0 46 -18.5t19 -44.5zM423 575q0 -26 -18.5 -44t-45.5 -18q-26 0 -45 18.5t-19 43.5q0 26 19 44.5t45 18.5q27 0 45.5 -18t18.5 -45zM288 0h-298v111h138q-31 51 -31 121
q0 104 58 163q51 52 132 52q88 0 137 -55q42 -47 42 -121v-87q0 -85 -51 -136q-47 -47 -127 -48zM203 230q0 -62 29 -94q23 -25 57 -25q67 0 67 75v79q0 80 -69 80q-40 0 -62 -30t-22 -85z" />
    <glyph glyph-name="uniFED8" unicode="&#x642;" horiz-adv-x="546" arabic-form="medial" 
d="M264 575q0 -25 -19 -43.5t-45 -18.5t-45 18.5t-19 43.5q0 26 19 44.5t45 18.5t45 -18.5t19 -44.5zM408 575q0 -26 -18.5 -44t-45.5 -18q-26 0 -45 18.5t-19 43.5q0 26 19 44.5t45 18.5q27 0 45.5 -18t18.5 -45zM198 0h-208v111h139q-51 62 -51 137q0 93 57 150
q53 52 138 52q98 0 151 -66q44 -54 44 -136q0 -75 -51 -137h139v-111h-208q-46 0 -75 7q-29 -7 -75 -7zM273 110q40 21 63.5 59t23.5 82q0 48 -26 75q-23 24 -61 24q-44 0 -67 -31q-20 -26 -20 -68q0 -43 24 -82t63 -59z" />
    <glyph glyph-name="uniFED9" unicode="&#x643;" horiz-adv-x="883" arabic-form="isolated" 
d="M592 0h-284q-120 0 -184 77q-49 60 -49 144q0 66 36 120q35 51 93 75l48 -74q-34 -17 -53 -47t-19 -65q0 -52 37 -86q36 -33 92 -33h264q66 0 93 35q22 29 22 89v431h115v-455q0 -211 -211 -211zM465 352h-108l1 51h102q33 0 33 30q0 17 -13.5 27.5t-34.5 10.5
q-28 0 -54 -16v49l89 98l36 -30l-50 -57q38 -4 58.5 -26t20.5 -58q0 -37 -21.5 -58t-58.5 -21z" />
    <glyph glyph-name="uniFEDA" unicode="&#x643;" horiz-adv-x="925" arabic-form="final" 
d="M592 0h-279q-125 0 -189 77q-49 59 -49 144q0 66 36 120q35 51 93 75l48 -74q-34 -17 -53 -47t-19 -65q0 -52 37 -86q36 -33 92 -33h264q66 0 93 35q22 29 22 89v431h115v-431q0 -68 28 -97q26 -27 77 -27h27v-111h-36q-102 0 -152 62q-51 -62 -155 -62zM465 352h-108
l1 51h102q33 0 33 30q0 17 -13.5 27.5t-34.5 10.5q-28 0 -54 -16v49l89 98l36 -30l-50 -57q38 -4 58.5 -26t20.5 -58q0 -37 -21.5 -58t-58.5 -21z" />
    <glyph glyph-name="uniFEDB" unicode="&#x643;" horiz-adv-x="553" arabic-form="initial" 
d="M295 0h-305v111h298q104 0 104 94v2q0 44 -23.5 64t-73.5 20h-253v111l232 239l63 -63l-168 -175h125q118 0 170 -58q44 -49 44 -143v-1q0 -201 -213 -201z" />
    <glyph glyph-name="uniFEDC" unicode="&#x643;" horiz-adv-x="629" arabic-form="medial" 
d="M295 0h-305v111h298q104 0 104 92v3q0 44 -23 64.5t-74 20.5h-253v111l232 239l63 -63l-168 -175h128q111 0 165 -54q46 -46 46 -129v-6q0 -54 31 -80q26 -23 73 -23h27v-111h-36q-98 0 -151 60q-57 -60 -157 -60z" />
    <glyph glyph-name="uniFEDD" unicode="&#x644;" horiz-adv-x="679" arabic-form="isolated" 
d="M599 666v-585q0 -136 -82 -209q-72 -63 -191 -63q-127 0 -199 78q-62 67 -62 173q0 91 51 167l90 -33q-33 -61 -33 -122q0 -70 44 -113q41 -39 108 -39q71 0 115 43t44 118v585h115z" />
    <glyph glyph-name="uniFEDE" unicode="&#x644;" horiz-adv-x="716" arabic-form="final" 
d="M585 15q-18 -105 -94 -159q-67 -47 -165 -47q-127 0 -199 78q-62 67 -62 173q0 91 51 167l90 -33q-33 -61 -33 -122q0 -70 44 -113q41 -39 108 -39q71 0 115 43t44 118v585h115v-431q0 -68 28 -97q26 -27 77 -27h22v-111h-31q-62 0 -107 29z" />
    <glyph glyph-name="uniFEDF" unicode="&#x644;" horiz-adv-x="313" arabic-form="initial" 
d="M21 0h-31v111h22q59 0 84 35q22 30 22 89v431h114v-455q0 -211 -211 -211z" />
    <glyph glyph-name="uniFEE0" unicode="&#x644;" horiz-adv-x="350" arabic-form="medial" 
d="M21 0h-31v111h22q59 0 84 35q22 30 22 89v431h114v-431q0 -68 29 -97q26 -27 77 -27h22v-111h-31q-104 0 -154 63q-50 -63 -154 -63z" />
    <glyph glyph-name="uniFEE1" unicode="&#x645;" horiz-adv-x="574" arabic-form="isolated" 
d="M135 -315h-115v229q0 145 116 183q11 4 33 8q-34 50 -34 127q0 104 58 163q51 52 132 52q87 0 136 -55q42 -47 42 -121v-89q0 -84 -49 -133q-46 -47 -123 -49h-90q-60 0 -83 -25.5t-23 -92.5v-197zM240 230q0 -62 29 -94q22 -25 57 -25q68 0 68 73v81q0 42 -16.5 61
t-52.5 19q-43 0 -66 -35q-19 -30 -19 -80z" />
    <glyph glyph-name="uniFEE2" unicode="&#x645;" horiz-adv-x="638" arabic-form="final" 
d="M135 -315h-115v229q0 144 115 183q18 5 34 8q-34 50 -34 127q0 104 58 163q51 52 132 52q87 0 136 -55q42 -48 42 -123v-40q0 -118 106 -118h39v-111h-48q-95 0 -146 55q-47 -52 -123 -55h-90q-60 0 -83 -25.5t-23 -92.5v-197zM240 230q0 -62 29 -94q22 -25 57 -25
q68 0 68 73v81q0 42 -16.5 61t-52.5 19q-43 0 -66 -35q-19 -30 -19 -80z" />
    <glyph glyph-name="uniFEE3" unicode="&#x645;" horiz-adv-x="548" arabic-form="initial" 
d="M-10 111h34q89 0 89 101v55q0 88 55 137q47 43 124 43q96 0 150 -70q45 -59 45 -150q0 -116 -62 -180q-52 -52 -130 -52q-85 0 -132 46q-44 -41 -110 -41h-63v111zM224 184q0 -78 68 -78q41 0 63 33q22 32 22 91q0 57 -24 88q-22 27 -60 27q-36 0 -52.5 -19t-16.5 -61
v-81z" />
    <glyph glyph-name="uniFEE4" unicode="&#x645;" horiz-adv-x="620" arabic-form="medial" 
d="M450 48q-51 -61 -140 -61q-90 0 -141 61q-44 -48 -116 -48h-63v111h34q46 0 67.5 26t21.5 83q0 55 17 100q23 63 73 96q46 30 107 30q69 0 117 -38q40 -31 62 -85q17 -46 17 -103q0 -109 89 -109h35v-111h-64q-72 0 -116 48zM224 224q0 -70 30 -103q23 -25 56 -25
q39 0 62 33q24 34 24 95t-27 93q-22 27 -59 27q-43 0 -65 -35q-21 -31 -21 -85z" />
    <glyph glyph-name="uniFEE5" unicode="&#x646;" horiz-adv-x="680" arabic-form="isolated" 
d="M377 458q0 -25 -19 -43.5t-46 -18.5q-26 0 -44.5 18.5t-18.5 43.5q0 26 18.5 44.5t44.5 18.5q27 0 46 -18.5t19 -44.5zM599 430v-349q0 -136 -82 -209q-72 -63 -191 -63q-127 0 -199 78q-62 67 -62 173q0 91 51 167l90 -33q-33 -61 -33 -122q0 -70 44 -113
q41 -39 109 -39q71 0 114 43q44 43 44 118v349h115z" />
    <glyph glyph-name="uniFEE6" unicode="&#x646;" horiz-adv-x="721" arabic-form="final" 
d="M377 458q0 -25 -19 -43.5t-46 -18.5q-26 0 -44.5 18.5t-18.5 43.5q0 26 18.5 44.5t44.5 18.5q27 0 46 -18.5t19 -44.5zM588 29l-1 -7q-17 -108 -94 -165q-68 -48 -168 -48q-126 0 -198 78q-62 67 -62 173q0 90 50 167l90 -33q-32 -62 -32 -122q0 -70 43 -113
q41 -39 109 -39q71 0 115 43t44 118v349h115v-195q0 -68 28 -97q26 -27 77 -27h27v-111h-36q-62 0 -107 29z" />
    <glyph glyph-name="uniFEE7" unicode="&#x646;" horiz-adv-x="318" arabic-form="initial" 
d="M241 571q0 -25 -19 -43.5t-45 -18.5t-45 18.5t-19 43.5q0 26 19 44.5t45 18.5t45 -18.5t19 -44.5zM26 0h-36v111h27q59 0 84 35q21 30 21 89v195h115v-219q0 -211 -211 -211z" />
    <glyph glyph-name="uniFEE8" unicode="&#x646;" horiz-adv-x="359" arabic-form="medial" 
d="M246 571q0 -25 -19 -43.5t-45 -18.5t-45 18.5t-19 43.5q0 26 19 44.5t45 18.5t45 -18.5t19 -44.5zM26 0h-36v111h27q59 0 84 35q21 30 21 89v195h115v-195q0 -68 28 -97q26 -27 77 -27h27v-111h-35q-104 0 -154 63q-51 -63 -154 -63z" />
    <glyph glyph-name="uniFEE9" unicode="&#x647;" horiz-adv-x="516" arabic-form="isolated" 
d="M267 -12h-18q-89 0 -138 69q-43 61 -43 163q0 111 59 172q51 53 131 53q92 0 144 -68q46 -61 46 -157q0 -117 -56 -179q-47 -53 -125 -53zM172 218q0 -61 24 -92q21 -27 55 -27h14q38 0 58.5 31t20.5 88q0 60 -25 91q-23 27 -61 27q-44 0 -66 -35q-20 -30 -20 -83z" />
    <glyph glyph-name="uniFEEA" unicode="&#x647;" horiz-adv-x="547" arabic-form="final" 
d="M557 0h-36q-114 0 -166 74q-50 -49 -123 -49q-80 0 -132 61q-49 58 -49 148q0 102 66 162q57 53 146 53h56v45h106v-259q0 -68 28 -97q26 -27 77 -27h27v-111zM319 350h-53q-55 0 -82 -34q-23 -29 -23 -76q0 -53 25 -83q23 -28 60 -28q40 0 77 33q-4 21 -4 49v139z" />
    <glyph glyph-name="uniFEEB" unicode="&#x647;" horiz-adv-x="628" arabic-form="initial" 
d="M132 0h-142v111h70h41q-32 44 -32 96q0 63 42 105q40 40 103 40q71 0 113 -51q33 -41 33 -97q0 -52 -31 -93q14 0 38 2q73 6 73 75q0 35 -15.5 71.5t-42.5 64.5q-75 78 -225 88l23 101q183 -12 292 -134q83 -92 83 -197q0 -182 -185 -182h-68q-48 0 -87 17
q-37 -17 -83 -17zM214 116q59 28 59 92q0 31 -16 49t-43 18q-28 0 -43.5 -17.5t-15.5 -48.5q0 -66 59 -93z" />
    <glyph glyph-name="uniFEEC" unicode="&#x647;" horiz-adv-x="674" arabic-form="medial" 
d="M132 0h-142v111h73h38q-32 44 -32 96q0 63 42 105q40 40 103 40q71 0 113 -51q33 -41 33 -97q0 -52 -31 -93q13 0 37 2q74 5 74 75q0 35 -15.5 71.5t-42.5 64.5q-75 78 -225 88l23 101q182 -10 292 -130q45 -49 67 -108q15 -41 15 -80q0 -42 32 -65q28 -19 71 -19h27
v-111h-36q-91 0 -141 47q-47 -47 -137 -47h-68q-48 0 -87 17q-37 -17 -83 -17zM214 116q59 28 59 92q0 31 -16 49t-43 18q-28 0 -43.5 -17.5t-15.5 -48.5q0 -66 59 -93z" />
    <glyph glyph-name="uniFEED" unicode="&#x648;" horiz-adv-x="500" arabic-form="isolated" 
d="M320 30q-28 -14 -63 -14q-107 0 -159 67q-42 54 -42 144q0 102 59 161q52 54 136 54q88 0 137 -54q42 -47 42 -121v-253q0 -106 -64 -162q-53 -45 -132 -45q-73 0 -146 41l29 87q51 -27 96 -27q50 0 78 31q25 28 28 79q0 2 1 6v6zM320 129v136q0 80 -72 80q-45 0 -68 -35
q-19 -29 -19 -77q0 -60 32 -93q26 -27 67 -27q31 0 60 16z" />
    <glyph glyph-name="uniFEEE" unicode="&#x648;" horiz-adv-x="516" arabic-form="final" 
d="M429 0q-3 -99 -67 -151q-51 -42 -128 -42q-73 0 -146 41l29 87q51 -27 96 -27q49 0 76 28q26 26 30 72q-34 0 -51 1q-108 3 -164 70q-48 56 -48 148q0 102 59 161q52 54 136 54q88 0 137 -54q42 -47 42 -121v-156h96v-111h-97zM320 111v154q0 80 -72 80q-45 0 -68 -35
q-19 -29 -19 -77q0 -61 33 -94q27 -28 71 -28h55z" />
    <glyph glyph-name="uniFEEF" unicode="&#x649;" horiz-adv-x="720" arabic-form="isolated" 
d="M610 338h-114q-81 0 -81 -63q0 -46 45 -73q19 -12 70 -31q68 -25 95 -49q45 -38 45 -106q0 -97 -87 -156q-82 -56 -221 -56q-156 0 -235 80q-66 67 -66 175q0 93 51 167l90 -32q-33 -63 -33 -121q0 -76 54 -119q50 -41 139 -41q85 0 143 33q50 29 50 66q0 32 -44 55
q-5 3 -69 29q-63 27 -93 59q-44 46 -44 120q0 84 58 131q47 38 117 38h130v-106z" />
    <glyph glyph-name="uniFEF0" unicode="&#x649;" horiz-adv-x="702" arabic-form="final" 
d="M681 0q-7 -98 -98 -152q-83 -49 -221 -49q-155 0 -235 83q-66 68 -66 177q0 93 51 167l91 -33q-34 -61 -34 -121q0 -80 57 -126q55 -45 148 -45q82 0 136 27q53 27 59 72h-97v111h240v-111h-31z" />
    <glyph glyph-name="uniFEF1" unicode="&#x64a;" horiz-adv-x="720" arabic-form="isolated" 
d="M610 338h-114q-81 0 -81 -63q0 -46 45 -73q19 -12 70 -31q68 -25 95 -49q45 -38 45 -106q0 -97 -87 -156q-82 -56 -221 -56q-156 0 -235 80q-66 67 -66 175q0 93 51 167l90 -32q-33 -63 -33 -121q0 -76 54 -119q50 -41 139 -41q85 0 143 33q50 29 50 66q0 32 -44 55
q-5 3 -69 29q-63 27 -93 59q-44 46 -44 120q0 84 58 131q47 38 117 38h130v-106zM356 -328q0 -26 -19 -44.5t-45 -18.5t-45 18.5t-19 44.5q0 25 19 43.5t45 18.5t45 -18.5t19 -43.5zM500 -328q0 -26 -19 -44.5t-46 -18.5q-26 0 -44.5 18.5t-18.5 44.5q0 25 18.5 43.5
t44.5 18.5q27 0 46 -18t19 -44z" />
    <glyph glyph-name="uniFEF2" unicode="&#x64a;" horiz-adv-x="702" arabic-form="final" 
d="M681 0q-7 -98 -98 -152q-83 -49 -221 -49q-155 0 -235 83q-66 68 -66 177q0 93 51 167l91 -33q-34 -61 -34 -121q0 -80 57 -126q55 -45 148 -45q82 0 136 27q53 27 59 72h-97v111h240v-111h-31zM356 -323q0 -25 -19 -43.5t-45 -18.5t-45 18.5t-19 43.5t19 43.5t45 18.5
t45 -18.5t19 -43.5zM500 -323q0 -26 -19 -44t-46 -18q-26 0 -44.5 18.5t-18.5 43.5t18.5 43.5t44.5 18.5q27 0 46 -18t19 -44z" />
    <glyph glyph-name="uniFEF3" unicode="&#x64a;" horiz-adv-x="318" arabic-form="initial" 
d="M-10 0v111h27q59 0 84 35q21 30 21 89v195h115v-219q0 -211 -211 -211h-36zM41 -199q-26 0 -45 18.5t-19 43.5q0 26 19 44.5t45 18.5t45 -18.5t19 -44.5q0 -25 -19 -43.5t-45 -18.5zM185 -199q-26 0 -45 18.5t-19 43.5q0 26 19 44.5t45 18.5q27 0 45.5 -18.5t18.5 -44.5
t-18.5 -44t-45.5 -18z" />
    <glyph glyph-name="uniFEF4" unicode="&#x64a;" horiz-adv-x="359" arabic-form="medial" 
d="M-10 0v111h27q59 0 84 35q21 30 21 89v195h115v-195q0 -68 28 -97q26 -27 77 -27h27v-111h-35q-104 0 -154 63q-51 -63 -154 -63h-36zM83 -199q-26 0 -45 18.5t-19 43.5q0 26 19 44.5t45 18.5t45 -18.5t19 -44.5q0 -25 -19 -43.5t-45 -18.5zM227 -199q-26 0 -45 18.5
t-19 43.5q0 26 19 44.5t45 18.5q27 0 45.5 -18.5t18.5 -44.5t-18.5 -44t-45.5 -18z" />
    <glyph glyph-name=".notdef" horiz-adv-x="364" 
d="M33 0v666h265v-666h-265zM66 33h199v600h-199v-600z" />
    <glyph glyph-name="glyph1" 
 />
    <glyph glyph-name="glyph2" horiz-adv-x="230" 
 />
    <glyph glyph-name="space" unicode=" " horiz-adv-x="230" 
 />
    <glyph glyph-name="exclam" unicode="!" horiz-adv-x="303" 
d="M98 171l-10 496h127l-10 -496h-107zM151 127q30 0 51 -20.5t21 -49.5t-21 -49.5t-51 -20.5q-29 0 -50 20.5t-21 49.5t21 49.5t50 20.5z" />
    <glyph glyph-name="quotedbl" unicode="&#x22;" horiz-adv-x="331" 
d="M137 390h-91l-13 297h117zM284 390h-90l-14 297h117z" />
    <glyph glyph-name="numbersign" unicode="#" horiz-adv-x="590" 
d="M112 184h-72l18 89h72l24 118h-72l18 89h72l41 200l94 -22l-36 -178h109l41 200l94 -20l-37 -180h72l-19 -89h-71l-24 -118h71l-18 -89h-71l-41 -200l-94 22l36 178h-109l-41 -200l-94 22zM337 273l24 118h-109l-24 -118h109z" />
    <glyph glyph-name="dollar" unicode="$" horiz-adv-x="582" 
d="M239 -11q-83 15 -134 81q-20 25 -27.5 43.5t-20.5 73.5l115 30q5 -17 6 -24q25 -97 106 -97q47 0 78 33q27 29 27 68q0 30 -21.5 49.5t-74.5 40.5l-60 23q-147 56 -147 178q0 72 47 125q41 45 106 61v93h116v-92q57 -14 99 -57q18 -19 48 -66l-97 -60q-24 37 -36 49
q-30 30 -72 30q-43 0 -70 -27q-23 -23 -23 -57q0 -47 78 -76l63 -24q90 -34 129 -84q35 -44 35 -105q0 -74 -48 -132q-42 -50 -106 -70v-99h-116v92z" />
    <glyph glyph-name="percent" unicode="%" horiz-adv-x="896" 
d="M534 197q0 207 161 207t161 -207q0 -206 -161 -206t-161 206zM618 197q0 -130 77 -130t77 130q0 131 -77 131t-77 -131zM607 681l64 -37l-381 -659l-65 37zM40 469q0 206 161 206q162 0 162 -206t-162 -206q-161 0 -161 206zM124 469q0 -130 77 -130t77 130
q0 131 -76 131q-78 0 -78 -131z" />
    <glyph glyph-name="ampersand" unicode="&#x26;" horiz-adv-x="662" 
d="M338 369l121 -144q11 23 35 90l107 -30l-16 -48q-17 -54 -47 -104l112 -133h-141l-42 50q-81 -65 -177 -65q-105 0 -172 65q-58 56 -58 134q0 56 30 100.5t102 95.5q-37 47 -51.5 78.5t-14.5 64.5q0 72 52 118q45 40 109 40q72 0 118 -49q40 -43 40 -103q0 -45 -24.5 -82
t-82.5 -78zM276 442q40 32 53 50t13 41t-15.5 39t-39.5 16q-25 0 -42 -17t-17 -43q0 -18 9 -34t39 -52zM396 135l-142 170q-45 -36 -62.5 -62t-17.5 -54q0 -45 37 -74q32 -25 77 -25q59 0 108 45z" />
    <glyph glyph-name="quotesingle" unicode="'" horiz-adv-x="184" 
d="M137 390h-91l-13 297h117z" />
    <glyph glyph-name="parenleft" unicode="(" horiz-adv-x="320" 
d="M164 746l102 -48q-42 -109 -59.5 -205t-17.5 -217t17.5 -217.5t59.5 -204.5l-102 -48q-26 57 -32.5 74t-17.5 61q-41 161 -41 335q0 192 49 363q11 39 42 107z" />
    <glyph glyph-name="parenright" unicode=")" horiz-adv-x="320" 
d="M155 746q26 -56 32.5 -73.5t17.5 -61.5q41 -162 41 -335q0 -192 -49 -363q-10 -38 -42 -107l-102 48q42 108 59.5 204.5t17.5 217.5t-17.5 217t-59.5 205z" />
    <glyph glyph-name="asterisk" unicode="*" horiz-adv-x="493" 
d="M198 634l-4 115h106l-4 -115l108 40l33 -102l-111 -31l72 -90l-87 -63l-64 96l-64 -96l-86 63l71 90l-111 31l33 102z" />
    <glyph glyph-name="plus" unicode="+" horiz-adv-x="556" 
d="M226 363v200h105v-200h198v-102h-198v-200h-105v200h-199v102h199z" />
    <glyph glyph-name="comma" unicode="," horiz-adv-x="259" 
d="M110 123l104 -38l-117 -262l-83 33z" />
    <glyph glyph-name="hyphen" unicode="-" horiz-adv-x="277" 
d="M24 364h229v-104h-229v104z" />
    <glyph glyph-name="period" unicode="." horiz-adv-x="251" 
d="M125 127q30 0 51 -20.5t21 -49.5t-21 -49.5t-51 -20.5q-29 0 -50 20.5t-21 49.5t21 49.5t50 20.5z" />
    <glyph glyph-name="slash" unicode="/" horiz-adv-x="554" 
d="M420 683l89 -54l-374 -645l-90 54z" />
    <glyph glyph-name="zero" unicode="0" horiz-adv-x="578" 
d="M30 333q0 348 259 348t259 -348t-259 -348t-259 348zM151 333q0 -237 138 -237t138 237q0 238 -138 238t-138 -238z" />
    <glyph glyph-name="one" unicode="1" horiz-adv-x="325" 
d="M255 0h-118v525l-84 -48l-56 96l164 94h94v-667z" />
    <glyph glyph-name="two" unicode="2" horiz-adv-x="493" 
d="M42 0v94l238 264q66 74 66 134q0 35 -25 56.5t-66 21.5q-61 0 -85 -39q-12 -20 -26 -67l-109 30q15 65 41 102q61 85 182 85q98 0 155 -60q50 -53 50 -132q0 -97 -70 -175l-185 -204h269v-110h-435z" />
    <glyph glyph-name="three" unicode="3" horiz-adv-x="486" 
d="M175 402h52q98 0 98 84q0 41 -29 65q-25 20 -64 20q-34 0 -56.5 -16t-49.5 -58l-99 53q44 76 95 105q45 26 109 26q98 0 158 -61q53 -53 53 -131q0 -79 -60 -134q40 -34 57 -70.5t17 -85.5q0 -100 -72 -161q-63 -53 -156 -53q-104 0 -166 70q-21 23 -33 49t-23 74l115 30
q13 -50 26 -71q26 -40 83 -40q51 0 81 32q27 28 27 70q0 95 -111 95h-52v108z" />
    <glyph glyph-name="four" unicode="4" horiz-adv-x="520" 
d="M400 627l-240 -380h140v150h118v-150h77v-108h-77v-139h-118v139h-280v99l283 449z" />
    <glyph glyph-name="five" unicode="5" horiz-adv-x="535" 
d="M220 451q24 4 42 4q106 0 176 -76q60 -65 60 -156q0 -108 -80 -177q-69 -61 -166 -61q-71 0 -123 33t-99 108l94 65q29 -46 41 -59q35 -36 90 -36q57 0 93 40q32 35 32 83q0 59 -40 95q-34 32 -84 32q-23 0 -46 -9t-36 -24q-3 -3 -9 -10l-91 20l70 344h322v-109h-224z
" />
    <glyph glyph-name="six" unicode="6" horiz-adv-x="547" 
d="M310 687l93 -68l-126 -176q84 -3 140 -43q44 -30 68.5 -77t24.5 -101q0 -106 -78 -176q-68 -61 -159 -61q-107 0 -178 78q-61 67 -61 158q0 81 53 155zM392 218q0 55 -38 88q-34 29 -83 29q-54 0 -89 -38q-30 -33 -30 -80q0 -55 38 -91q34 -30 82 -30q54 0 89 40
q31 34 31 82z" />
    <glyph glyph-name="seven" unicode="7" horiz-adv-x="454" 
d="M313 558h-306v109h448v-85l-323 -602l-103 54z" />
    <glyph glyph-name="eight" unicode="8" horiz-adv-x="516" 
d="M114 355q-34 33 -48.5 63.5t-14.5 70.5q0 87 67 144q58 48 140 48q94 0 155 -62q52 -54 52 -130q0 -40 -14.5 -70.5t-48.5 -63.5q45 -37 64.5 -73.5t19.5 -85.5q0 -97 -74 -158q-63 -53 -154 -53q-105 0 -171 68q-57 59 -57 143q0 49 19 85.5t65 73.5zM258 298
q-53 0 -84 -32q-27 -28 -27 -71q0 -48 35 -77q31 -25 76 -25q52 0 83 32q27 28 27 70q0 49 -34 78q-30 25 -76 25zM161 487q0 -41 31 -66q27 -22 66 -22q45 0 73 28q24 24 24 60q0 43 -31 69q-27 22 -66 22q-45 0 -73 -29q-24 -25 -24 -62z" />
    <glyph glyph-name="nine" unicode="9" horiz-adv-x="549" 
d="M236 -20l-92 68l126 175q-84 4 -141 43q-44 31 -68 78t-24 101q0 106 78 176q67 60 159 60q107 0 178 -77q61 -67 61 -159q0 -81 -53 -154zM155 449q0 -55 38 -88q33 -29 82 -29q55 0 90 38q30 33 30 79q0 56 -39 91q-33 31 -81 31q-54 0 -90 -40q-30 -35 -30 -82z" />
    <glyph glyph-name="colon" unicode=":" horiz-adv-x="251" 
d="M125 127q30 0 51 -20.5t21 -49.5t-21 -49.5t-51 -20.5q-29 0 -50 20.5t-21 49.5t21 49.5t50 20.5zM125 430q30 0 51 -20.5t21 -49.5q0 -30 -21 -50.5t-51 -20.5q-29 0 -50 20.5t-21 50.5q0 29 21 49.5t50 20.5z" />
    <glyph glyph-name="semicolon" unicode=";" horiz-adv-x="254" 
d="M110 123l105 -38l-117 -262l-84 33zM145 430q30 0 50.5 -20.5t20.5 -49.5q0 -30 -20.5 -50.5t-50.5 -20.5t-50.5 20.5t-20.5 50.5q0 29 20.5 49.5t50.5 20.5z" />
    <glyph glyph-name="less" unicode="&#x3c;" horiz-adv-x="576" 
d="M524 604v-119l-325 -148l325 -149v-119l-473 223v90z" />
    <glyph glyph-name="equal" unicode="=" horiz-adv-x="556" 
d="M500 443v-102h-444v102h444zM500 284v-103h-444v103h444z" />
    <glyph glyph-name="greater" unicode="&#x3e;" horiz-adv-x="576" 
d="M51 69v119l325 149l-325 148v119l473 -222v-91z" />
    <glyph glyph-name="question" unicode="?" horiz-adv-x="435" 
d="M155 171v66q0 49 12 74.5t50 57.5l42 35q52 44 52 91q0 35 -22.5 55t-61.5 20t-62.5 -17t-54.5 -66l-87 70q66 124 199 124q101 0 157 -58q49 -50 49 -130q0 -46 -19 -83t-66 -81l-46 -43q-19 -18 -22 -25t-3 -32v-58h-117zM214 127q29 0 50 -20.5t21 -49.5t-21 -49.5
t-50 -20.5q-30 0 -51 20.5t-21 49.5t21 49.5t51 20.5z" />
    <glyph glyph-name="at" unicode="@" horiz-adv-x="897" 
d="M639 531l-43 -329h4q73 0 110 51q32 44 32 123q0 96 -50 164q-68 90 -210 90q-158 0 -248 -95q-78 -82 -78 -211q0 -140 97 -220q81 -67 226 -67q60 0 106.5 8.5t120.5 31.5l30 -82q-125 -43 -261 -43q-207 0 -315 117q-93 101 -93 253q0 116 52 206q52 88 144 137
q95 50 216 50q170 0 267 -104q85 -91 85 -232q0 -129 -74 -201q-34 -33 -76.5 -47.5t-106.5 -14.5h-133q-90 0 -142 58q-45 50 -45 127q0 73 36 130q31 49 82 74q55 26 133 26h134zM506 202l31 244h-41q-77 0 -116 -42q-34 -37 -34 -100q0 -52 31 -79q27 -23 72 -23h57z" />
    <glyph glyph-name="A" unicode="A" horiz-adv-x="636" 
d="M455 164h-274l-60 -164h-124l249 667h145l249 -667h-125zM415 274l-97 268l-97 -268h194z" />
    <glyph glyph-name="B" unicode="B" horiz-adv-x="528" 
d="M70 0v667h155q110 0 166 -42q34 -24 53.5 -63.5t19.5 -82.5q0 -69 -55 -123q87 -55 87 -161q0 -90 -74 -148q-33 -26 -70.5 -36.5t-95.5 -10.5h-186zM187 392h49q35 0 53 4t32 16q29 24 29 64q0 44 -28 66q-25 18 -86 18h-49v-168zM187 108h64q38 0 58.5 5t37.5 18
q32 25 32 68q0 23 -11 43t-30 31q-29 17 -96 17h-55v-182z" />
    <glyph glyph-name="C" unicode="C" horiz-adv-x="674" 
d="M564 477q-36 38 -58 55q-52 38 -122 38q-106 0 -173 -77q-59 -67 -59 -160q0 -106 76 -176q65 -60 156 -60q71 0 128 43q15 11 55 51l84 -80q-68 -69 -128.5 -97.5t-138.5 -28.5q-96 0 -178 48q-80 45 -126 124q-48 81 -48 176t48 176q46 79 126 125q82 47 179 47
q75 0 137.5 -29t125.5 -95z" />
    <glyph glyph-name="D" unicode="D" horiz-adv-x="619" 
d="M70 667h153q178 0 278 -102q86 -89 86 -231q0 -164 -112 -255q-97 -79 -252 -79h-153v667zM188 557v-447h38q120 0 185 68q57 59 57 156q0 110 -73 170q-64 53 -169 53h-38z" />
    <glyph glyph-name="E" unicode="E" horiz-adv-x="483" 
d="M442 557h-254v-164h226v-110h-226v-173h263v-110h-381v667h372v-110z" />
    <glyph glyph-name="F" unicode="F" horiz-adv-x="446" 
d="M420 557h-232v-164h212v-110h-212v-283h-118v667h350v-110z" />
    <glyph glyph-name="G" unicode="G" horiz-adv-x="726" 
d="M383 366h310v-57q0 -156 -96 -246q-82 -78 -211 -78q-97 0 -179 47q-80 46 -127 124q-48 81 -48 176q0 96 48 177q46 79 126 125q82 47 178 47q108 0 194 -61q21 -15 69 -61l-83 -80q-41 41 -58 53q-54 38 -122 38q-106 0 -173 -77q-59 -67 -59 -161q0 -106 76 -175
q66 -60 157 -60q109 0 162 88q15 27 23 71h-187v110z" />
    <glyph glyph-name="H" unicode="H" horiz-adv-x="651" 
d="M188 393h274v274h119v-667h-119v283h-274v-283h-118v667h118v-274z" />
    <glyph glyph-name="I" unicode="I" horiz-adv-x="258" 
d="M188 667v-667h-118v667h118z" />
    <glyph glyph-name="J" unicode="J" horiz-adv-x="423" 
d="M352 667v-460q0 -63 -10.5 -100t-38.5 -67q-49 -55 -133 -55q-47 0 -88.5 20.5t-88.5 67.5l74 86q58 -62 103 -62q34 0 49 25.5t15 84.5v460h118z" />
    <glyph glyph-name="K" unicode="K" horiz-adv-x="592" 
d="M334 384l258 -384h-139l-199 297l-66 -70v-227h-118v667h118v-280l259 280h149z" />
    <glyph glyph-name="L" unicode="L" horiz-adv-x="435" 
d="M188 667v-558h245v-109h-363v667h118z" />
    <glyph glyph-name="M" unicode="M" horiz-adv-x="802" 
d="M70 0v667h112l219 -391l219 391h112v-667h-119v437l-167 -298h-91l-167 298v-437h-118z" />
    <glyph glyph-name="N" unicode="N" horiz-adv-x="707" 
d="M70 0v667h102l347 -464v464h118v-667h-102l-347 463v-463h-118z" />
    <glyph glyph-name="O" unicode="O" horiz-adv-x="762" 
d="M32 333q0 94 48 175q46 79 125 126q82 47 176 47t175 -48q79 -46 126 -125q48 -81 48 -175q0 -93 -48 -175q-47 -78 -126 -125q-81 -48 -175 -48t-175 48q-79 47 -126 125q-48 82 -48 175zM152 333q0 -105 76 -175q65 -61 153 -61q101 0 169 78q59 68 59 158
q0 106 -75 176q-65 61 -153 61q-102 0 -170 -78q-59 -68 -59 -159z" />
    <glyph glyph-name="P" unicode="P" horiz-adv-x="474" 
d="M188 252v-252h-118v667h153q63 0 103.5 -12t71.5 -40q66 -59 66 -155t-66 -156q-31 -28 -71.5 -40t-103.5 -12h-35zM188 359h43q63 0 89 25q28 27 28 75t-28 75q-25 25 -89 25h-43v-200z" />
    <glyph glyph-name="Q" unicode="Q" horiz-adv-x="759" 
d="M631 92l61 -59l-82 -81l-72 71q-78 -38 -158 -38q-94 0 -175 48q-79 47 -125 126q-48 81 -48 174q0 94 48 175q47 79 125 125q82 48 176 48t175 -48q79 -46 126 -125q48 -81 48 -174q0 -68 -26 -130.5t-73 -111.5zM549 174q60 67 60 159q0 106 -75 176q-65 61 -153 61
q-102 0 -170 -78q-59 -67 -59 -159q0 -104 76 -175q65 -61 153 -61q34 0 70 12l-44 43l81 81z" />
    <glyph glyph-name="R" unicode="R" horiz-adv-x="554" 
d="M380 283l159 -283h-133l-142 253q-24 -1 -41 -1h-35v-252h-118v667h153q67 0 110 -12.5t76 -39.5q34 -29 52.5 -70.5t18.5 -87.5q0 -59 -30 -107q-25 -42 -70 -67zM188 359h43q133 0 133 100q0 48 -31 74q-30 26 -102 26h-43v-200z" />
    <glyph glyph-name="S" unicode="S" horiz-adv-x="520" 
d="M475 552l-97 -60q-24 37 -37 49q-29 30 -71 30q-43 0 -70 -27q-23 -23 -23 -57q0 -47 78 -76l63 -24q89 -34 129 -84q35 -44 35 -105q0 -96 -74 -158q-64 -55 -153 -55q-72 0 -128 38q-49 33 -74 88q-9 20 -23 76l115 30l2 -7q3 -13 4 -17q25 -97 106 -97q47 0 78 33
q27 29 27 68q0 30 -21.5 49.5t-74.5 40.5l-60 23q-147 56 -147 178q0 89 69 145q59 48 144 48q92 0 154 -63q19 -19 49 -66z" />
    <glyph glyph-name="T" unicode="T" horiz-adv-x="438" 
d="M278 557v-557h-118v557h-163v110h444v-110h-163z" />
    <glyph glyph-name="U" unicode="U" horiz-adv-x="639" 
d="M188 667v-410q0 -77 18 -105q15 -24 47 -39.5t67 -15.5q34 0 66 15.5t47 39.5q11 16 14.5 38t3.5 67v410h118v-429q0 -100 -46 -159q-35 -44 -89 -69t-114 -25q-65 0 -122 29q-49 24 -82 65q-46 58 -46 159v429h118z" />
    <glyph glyph-name="V" unicode="V" horiz-adv-x="570" 
d="M354 0h-137l-220 667h124l165 -499l164 499h124z" />
    <glyph glyph-name="W" unicode="W" horiz-adv-x="876" 
d="M120 667l130 -460l139 460h99l140 -460l129 460h123l-198 -667h-109l-135 440l-134 -440h-109l-198 667h123z" />
    <glyph glyph-name="X" unicode="X" horiz-adv-x="567" 
d="M351 348l220 -348h-135l-152 244l-153 -244h-134l220 347l-201 320h134l135 -216l135 216h132z" />
    <glyph glyph-name="Y" unicode="Y" horiz-adv-x="540" 
d="M211 276l-221 391h132l148 -270l148 270h132l-221 -391v-276h-118v276z" />
    <glyph glyph-name="Z" unicode="Z" horiz-adv-x="511" 
d="M165 110h331v-110h-483v92l330 466h-302v109h448v-93z" />
    <glyph glyph-name="bracketleft" unicode="[" horiz-adv-x="311" 
d="M188 626v-700h88v-106h-203v912h203v-106h-88z" />
    <glyph glyph-name="backslash" unicode="\" horiz-adv-x="554" 
d="M134 683l375 -645l-90 -54l-374 645z" />
    <glyph glyph-name="bracketright" unicode="]" horiz-adv-x="311" 
d="M123 626h-88v106h203v-912h-203v106h88v700z" />
    <glyph glyph-name="asciicircum" unicode="^" horiz-adv-x="568" 
d="M153 339h-139l206 355h127l206 -355h-140l-130 220z" />
    <glyph glyph-name="underscore" unicode="_" horiz-adv-x="520" 
d="M-10 -46h540v-104h-540v104z" />
    <glyph glyph-name="grave" unicode="`" horiz-adv-x="476" 
d="M81 645l108 58l122 -168l-76 -44z" />
    <glyph glyph-name="a" unicode="a" horiz-adv-x="544" 
d="M491 0h-114v28q-31 -23 -58 -33t-61 -10q-104 0 -173 78q-60 67 -60 159q0 106 76 176q67 60 157 60q34 0 61 -9.5t58 -33.5v28h114v-443zM260 355q-57 0 -91 -42q-29 -36 -29 -91q0 -63 38 -101q33 -32 82 -32q56 0 90 42q29 36 29 91q0 63 -37 100q-33 33 -82 33z" />
    <glyph glyph-name="b" unicode="b" horiz-adv-x="544" 
d="M53 0v667h114v-252q31 24 58 33.5t61 9.5q104 0 173 -78q60 -67 60 -158q0 -106 -77 -176q-66 -61 -156 -61q-34 0 -61 10t-58 33v-28h-114zM284 355q-56 0 -89 -42q-29 -36 -29 -91q0 -63 37 -101q32 -32 81 -32q57 0 91 42q29 36 29 91q0 63 -38 100q-33 33 -82 33z
" />
    <glyph glyph-name="c" unicode="c" horiz-adv-x="465" 
d="M375 292q-38 39 -59 51t-54 12q-59 0 -93 -42q-29 -36 -29 -91q0 -64 38 -101q33 -32 85 -32q33 0 58.5 14.5t56.5 50.5l76 -73q-47 -51 -91 -73.5t-101 -22.5q-108 0 -177 77q-60 67 -60 160q0 107 77 176q67 60 160 60q55 0 98.5 -21.5t90.5 -70.5z" />
    <glyph glyph-name="d" unicode="d" horiz-adv-x="544" 
d="M491 0h-114v28q-31 -23 -58 -33t-61 -10q-104 0 -173 78q-60 67 -60 159q0 106 76 176q67 60 157 60q34 0 61 -9.5t58 -33.5v252h114v-667zM260 355q-57 0 -91 -42q-29 -36 -29 -91q0 -63 38 -101q33 -32 82 -32q56 0 89 42q29 36 29 91q0 63 -37 100q-32 33 -81 33z" />
    <glyph glyph-name="e" unicode="e" horiz-adv-x="493" 
d="M142 179q24 -91 111 -91q74 0 111 59l6 9l96 -40q-21 -35 -32.5 -49.5t-32.5 -31.5q-63 -50 -148 -50q-104 0 -170 77q-58 67 -58 160q0 106 73 176q64 60 151 60q104 0 166 -78q54 -68 54 -169q0 -8 -1 -32h-326zM355 264q-29 93 -106 93q-40 0 -68 -24t-39 -69h213z
" />
    <glyph glyph-name="f" unicode="f" horiz-adv-x="263" 
d="M178 443h76v-102h-76v-341h-114v341h-42v102h42v81q0 78 36 117q32 34 89 34q28 0 63 -8v-103q-26 8 -39 8q-19 0 -27 -11t-8 -37v-81z" />
    <glyph glyph-name="g" unicode="g" horiz-adv-x="544" 
d="M377 28q-34 -24 -60 -33.5t-61 -9.5q-103 0 -171 78q-60 68 -60 159q0 105 76 175q66 61 155 61q35 0 61 -9t60 -34v28h114v-452q0 -114 -75 -181q-64 -58 -164 -58q-93 0 -161 54q-19 14 -58 60l74 74l18 -20q32 -37 59 -51t67 -14q64 0 97 41q29 35 29 95v37zM260 355
q-57 0 -91 -42q-29 -36 -29 -91q0 -63 38 -101q33 -32 82 -32q56 0 89 42q29 36 29 91q0 63 -37 100q-32 33 -81 33z" />
    <glyph glyph-name="h" unicode="h" horiz-adv-x="509" 
d="M167 420q26 21 49 29.5t54 8.5q39 0 75.5 -15.5t62.5 -43.5q48 -52 48 -161v-238h-114v231q0 75 -22 100q-21 24 -59 24q-49 0 -73 -31q-21 -26 -21 -102v-222h-114v667h114v-247z" />
    <glyph glyph-name="i" unicode="i" horiz-adv-x="221" 
d="M167 443v-443h-114v443h114zM110 664q30 0 51 -20.5t21 -49.5q0 -30 -21 -50.5t-51 -20.5q-29 0 -50 20.5t-21 50.5q0 29 21 49.5t50 20.5z" />
    <glyph glyph-name="j" unicode="j" horiz-adv-x="230" 
d="M176 443v-535q0 -78 -36 -117q-31 -34 -86 -34q-29 0 -66 11v108q36 -11 52 -11q13 0 17.5 9t4.5 34v535h114zM119 664q30 0 51 -20.5t21 -49.5q0 -30 -21 -50.5t-51 -20.5q-29 0 -50 20.5t-21 50.5q0 29 21 49.5t50 20.5z" />
    <glyph glyph-name="k" unicode="k" horiz-adv-x="482" 
d="M287 257l203 -257h-140l-141 181l-42 -41v-140h-114v667h114v-382l161 158h150z" />
    <glyph glyph-name="l" unicode="l" horiz-adv-x="222" 
d="M168 0h-114v667h114v-667z" />
    <glyph glyph-name="m" unicode="m" horiz-adv-x="766" 
d="M385 405q56 53 134 53q95 0 150 -66q24 -30 34 -64.5t10 -89.5v-238h-114v230q0 72 -19 100q-17 25 -54 25q-44 0 -66 -30q-19 -26 -19 -104v-221h-114v230q0 72 -20 100q-17 25 -54 25q-44 0 -67 -31q-19 -25 -19 -103v-221h-114v443h114v-23q25 22 46 30t51 8
q67 0 121 -53z" />
    <glyph glyph-name="n" unicode="n" horiz-adv-x="509" 
d="M167 420q26 21 49 29.5t54 8.5q39 0 75.5 -15.5t62.5 -43.5q48 -52 48 -161v-238h-114v231q0 75 -22 100q-21 24 -59 24q-49 0 -73 -31q-21 -26 -21 -102v-222h-114v443h114v-23z" />
    <glyph glyph-name="o" unicode="o" horiz-adv-x="521" 
d="M261 458q106 0 176 -77q59 -66 59 -159q0 -107 -77 -177q-66 -60 -158 -60q-107 0 -176 78q-60 66 -60 159q0 107 77 176q66 60 159 60zM261 355q-58 0 -92 -42q-29 -36 -29 -91q0 -63 38 -101q33 -32 83 -32q57 0 91 42q29 36 29 91q0 63 -38 100q-32 33 -82 33z" />
    <glyph glyph-name="p" unicode="p" horiz-adv-x="544" 
d="M53 443h114v-28q31 24 58 33.5t61 9.5q104 0 173 -78q60 -67 60 -159q0 -105 -76 -175q-67 -61 -157 -61q-34 0 -61 10t-58 33v-261h-114v676zM284 89q57 0 91 41q29 37 29 91q0 63 -38 101q-33 33 -82 33q-56 0 -89 -42q-29 -37 -29 -92q0 -63 37 -100q32 -32 81 -32z
" />
    <glyph glyph-name="q" unicode="q" horiz-adv-x="544" 
d="M491 443v-676h-114v261q-31 -23 -58 -33t-61 -10q-104 0 -173 78q-60 67 -60 158q0 106 77 176q66 61 156 61q34 0 61 -9.5t58 -33.5v28h114zM260 89q56 0 89 41q29 36 29 91q0 64 -37 101q-32 33 -81 33q-57 0 -91 -42q-29 -37 -29 -92q0 -62 38 -100q33 -32 82 -32z
" />
    <glyph glyph-name="r" unicode="r" horiz-adv-x="307" 
d="M167 415q38 31 87 31q15 0 42 -3v-102q-28 2 -41 2q-53 0 -72 -32q-16 -29 -16 -98v-213h-114v443h114v-28z" />
    <glyph glyph-name="s" unicode="s" horiz-adv-x="384" 
d="M356 353l-89 -44q-19 27 -33 37.5t-34 10.5q-21 0 -33.5 -10t-12.5 -26q0 -15 9.5 -21.5t47.5 -21.5l40 -16q57 -21 82.5 -51t25.5 -74q0 -69 -54 -113q-47 -39 -112 -39q-88 0 -138 68q-18 24 -35 70l93 37q21 -41 38 -56.5t43 -15.5q23 0 37 12.5t14 33.5q0 14 -10 22
t-46 22l-45 17q-99 38 -99 123q0 64 51 105q43 35 105 35q53 0 89.5 -25t65.5 -80z" />
    <glyph glyph-name="t" unicode="t" horiz-adv-x="266" 
d="M172 341v-198q0 -25 5 -34t17 -9q17 0 53 11v-108q-37 -11 -66 -11q-63 0 -95 44q-28 39 -28 107v198h-46v102h46v95l114 45v-140h68v-102h-68z" />
    <glyph glyph-name="u" unicode="u" horiz-adv-x="509" 
d="M342 23q-26 -21 -49 -29.5t-53 -8.5q-39 0 -76 16t-62 43q-49 53 -49 161v238h114v-230q0 -76 22 -100t59 -24q49 0 74 30q20 26 20 103v221h114v-443h-114v23z" />
    <glyph glyph-name="v" unicode="v" horiz-adv-x="465" 
d="M115 443l118 -279l118 279h124l-192 -443h-100l-192 443h124z" />
    <glyph glyph-name="w" unicode="w" horiz-adv-x="662" 
d="M113 443l83 -255l91 255h90l90 -255l83 255h122l-161 -443h-90l-89 252l-90 -252h-90l-161 443h122z" />
    <glyph glyph-name="x" unicode="x" horiz-adv-x="478" 
d="M307 229l176 -229h-135l-109 143l-109 -143h-135l177 229l-165 214h136l97 -128l97 128h134z" />
    <glyph glyph-name="y" unicode="y" horiz-adv-x="473" 
d="M174 21l-183 422h124l120 -283l125 283h123l-301 -676h-121z" />
    <glyph glyph-name="z" unicode="z" horiz-adv-x="412" 
d="M171 103h235v-103h-387v84l227 257h-213v102h364v-84z" />
    <glyph glyph-name="braceleft" unicode="{" horiz-adv-x="315" 
d="M166 276q21 -21 29.5 -46.5t8.5 -64.5v-198q0 -32 7 -38t45 -6l24 1v-104h-13q-27 -1 -35 -1q-79 0 -113 43q-30 37 -30 113v190q0 32 -7.5 45t-28.5 19q-6 1 -18 4v91q36 10 45 20t9 44v189q0 86 39 123q35 33 104 33q11 0 48 -2v-103h-32q-31 0 -37.5 -6t-6.5 -37v-201
q0 -71 -38 -108z" />
    <glyph glyph-name="bar" unicode="|" horiz-adv-x="522" 
d="M204 728h113v-904h-113v904z" />
    <glyph glyph-name="braceright" unicode="}" horiz-adv-x="315" 
d="M148 276q-37 37 -37 108v201q0 31 -6.5 37t-38.5 6h-31v103q37 2 48 2q79 0 113 -43q30 -37 30 -113v-189q0 -34 8.5 -44t45.5 -20v-91q-12 -3 -18 -4q-21 -6 -28.5 -19t-7.5 -45v-190q0 -86 -40 -123q-34 -33 -103 -33q-11 0 -48 1v104l23 -1q39 0 46 6t7 38v198
q0 39 8.5 64.5t28.5 46.5z" />
    <glyph glyph-name="asciitilde" unicode="~" horiz-adv-x="697" 
d="M158 555l-75 48q19 40 29 56q51 86 133 86q41 0 120 -36q42 -19 57.5 -24.5t31.5 -5.5q33 0 58 34q5 7 26 41l76 -45q-27 -54 -45 -77q-23 -29 -56 -46t-69 -17q-23 0 -50 9t-97 41q-36 16 -57 16q-31 0 -57 -37q-6 -9 -25 -43z" />
    <glyph glyph-name="nonbreakingspace" unicode="&#xa0;" horiz-adv-x="230" 
 />
    <glyph glyph-name="exclamdown" unicode="&#xa1;" horiz-adv-x="303" 
d="M98 312h107l10 -496h-127zM151 355q-29 0 -50 20.5t-21 50.5q0 29 21 49.5t50 20.5q30 0 51 -20.5t21 -49.5q0 -30 -21 -50.5t-51 -20.5z" />
    <glyph glyph-name="cent" unicode="&#xa2;" horiz-adv-x="557" 
d="M234 104q-85 22 -134 92q-42 60 -42 137q0 89 55 154q47 56 121 75v105h117v-104q39 -10 68 -29t65 -57l-76 -73q-38 39 -59 50.5t-54 11.5q-59 0 -93 -41q-29 -36 -29 -92q0 -64 38 -101q33 -32 85 -32q33 0 58.5 14.5t56.5 51.5l76 -74q-36 -39 -66 -59t-70 -30v-103
h-117v104z" />
    <glyph glyph-name="sterling" unicode="&#xa3;" horiz-adv-x="565" 
d="M257 282q8 -46 8 -81q0 -50 -27 -92h287v-109h-460v100q50 39 65.5 60t15.5 52q0 26 -9 70h-72v107h49q-6 38 -6 70q0 79 31 129q29 46 83 71q46 22 99 22q126 0 194 -129l-95 -59q-25 43 -48 60.5t-54 17.5q-92 0 -92 -112q0 -27 8 -70h200v-107h-177z" />
    <glyph glyph-name="currency" unicode="&#xa4;" horiz-adv-x="723" 
d="M231 530q62 40 131 40t131 -40l85 86l64 -62l-87 -88q39 -63 39 -132t-39 -133l87 -87l-63 -64l-86 87q-63 -40 -131 -40t-131 40l-86 -87l-63 64l86 87q-38 64 -38 133q0 68 39 132l-87 88l64 62zM362 473q-61 0 -97 -44q-31 -38 -31 -95q0 -67 40 -106q35 -34 88 -34
q61 0 97 44q31 38 31 96q0 66 -40 105q-35 34 -88 34z" />
    <glyph glyph-name="yen" unicode="&#xa5;" horiz-adv-x="556" 
d="M378 348l-18 -32h131v-96h-154v-220h-118v220h-154v96h131l-18 32h-113v97h58l-125 222h132l148 -270l148 270h132l-125 -222h58v-97h-113z" />
    <glyph glyph-name="brokenbar" unicode="&#xa6;" horiz-adv-x="522" 
d="M317 348h-113v380h113v-380zM317 210v-386h-113v386h113z" />
    <glyph glyph-name="section" unicode="&#xa7;" horiz-adv-x="568" 
d="M459 57q37 -47 37 -108q0 -95 -68 -149q-59 -48 -151 -48q-145 0 -223 141q-4 8 -11 20l98 61q27 -48 43 -67q37 -45 96 -45q46 0 73 27q23 24 23 60q0 28 -22.5 48.5t-76.5 41.5l-61 23q-149 58 -149 181q0 74 52 131q-41 50 -41 112q0 89 70 146q60 49 145 49
q94 0 156 -64q17 -18 48 -67l-98 -62q-26 41 -37 53q-29 30 -70 30q-45 0 -72 -28q-24 -23 -24 -58q0 -48 81 -78l64 -25q91 -34 131 -85q35 -45 35 -107q0 -37 -10.5 -67t-37.5 -66zM215 308q-29 -30 -29 -64q0 -49 79 -79l63 -24l33 -14q24 31 24 62t-21 50.5t-77 41.5z
" />
    <glyph glyph-name="dieresis" unicode="&#xa8;" horiz-adv-x="476" 
d="M146 664q30 0 51 -20.5t21 -49.5t-21 -49.5t-51 -20.5q-29 0 -50 20.5t-21 49.5t21 49.5t50 20.5zM330 664q30 0 51 -20.5t21 -49.5t-21 -49.5t-51 -20.5q-29 0 -50 20.5t-21 49.5t21 49.5t50 20.5z" />
    <glyph glyph-name="copyright" unicode="&#xa9;" horiz-adv-x="837" 
d="M555 415q-25 27 -31 32q-36 32 -86 32q-65 0 -107 -47q-36 -41 -36 -99q0 -66 47 -108q40 -38 96 -38q48 0 86 33q6 5 34 32l66 -64l-17 -17q-40 -39 -79.5 -56t-89.5 -17q-106 0 -177 77q-61 67 -61 158q0 106 78 176q68 60 160 60q83 0 146 -53q7 -6 38 -36zM418 712
q103 0 191 -52q86 -50 136 -136q52 -88 52 -191t-52 -191q-50 -85 -136 -135q-88 -52 -191 -52q-102 0 -191 52q-85 50 -135 135q-52 89 -52 191q0 103 52 191q50 86 135 136q89 52 191 52zM418 633q-81 0 -151 -41q-67 -40 -107 -108q-41 -69 -41 -151q0 -81 41 -151
q40 -67 107 -107q70 -41 151 -41q82 0 151 41q68 40 108 107q41 70 41 151q0 82 -41 151q-40 68 -108 108q-69 41 -151 41z" />
    <glyph glyph-name="ordfeminine" unicode="&#xaa;" horiz-adv-x="349" 
d="M316 406h-81v13q-31 -23 -68 -23q-64 0 -107 46q-37 40 -37 94q0 64 48 108q42 37 97 37q36 0 67 -23v14h81v-266zM171 610q-30 0 -48.5 -20.5t-18.5 -53.5q0 -31 18 -49.5t48 -18.5t48 19.5t18 51.5t-18 51.5t-47 19.5z" />
    <glyph glyph-name="guillemotleft" unicode="&#xab;" horiz-adv-x="484" 
d="M323 222l121 -150l-77 -61l-170 211l170 214l77 -60zM153 222l122 -150l-77 -61l-171 211l171 214l76 -60z" />
    <glyph glyph-name="logicalnot" unicode="&#xac;" horiz-adv-x="687" 
d="M630 61h-110v198h-463v104h573v-302z" />
    <glyph glyph-name="uni00AD" unicode="&#xad;" horiz-adv-x="277" 
d="M24 364h229v-104h-229v104z" />
    <glyph glyph-name="registered" unicode="&#xae;" horiz-adv-x="837" 
d="M510 297l106 -189h-104l-91 165q-13 -1 -24 -1h-21v-164h-93v450h114q84 0 126 -35q50 -42 50 -109q0 -76 -63 -117zM376 359h27q77 0 77 56q0 29 -18.5 42.5t-58.5 13.5h-27v-112zM418 712q103 0 191 -52q86 -50 136 -136q52 -88 52 -191t-52 -191q-50 -85 -136 -135
q-88 -52 -191 -52q-102 0 -191 52q-85 50 -135 135q-52 89 -52 191q0 103 52 191q50 86 136 136q88 52 190 52zM418 633q-81 0 -151 -41q-68 -40 -107 -107q-41 -70 -41 -152q0 -81 41 -151q40 -67 107 -107q70 -41 151 -41q82 0 151 41q68 40 108 107q41 70 41 151
q0 82 -41 151q-40 68 -108 108q-69 41 -151 41z" />
    <glyph glyph-name="macron" unicode="&#xaf;" horiz-adv-x="476" 
d="M82 642h312v-103h-312v103z" />
    <glyph glyph-name="degree" unicode="&#xb0;" horiz-adv-x="332" 
d="M200 743q63 0 105 -47q37 -41 37 -95q0 -64 -47 -107q-40 -36 -95 -36q-64 0 -106 47q-37 40 -37 95q0 63 47 106q41 37 96 37zM200 658q-24 0 -41 -17t-17 -40q0 -24 17 -41.5t41 -17.5q23 0 40 17t17 42q0 23 -17 40t-40 17z" />
    <glyph glyph-name="plusminus" unicode="&#xb1;" horiz-adv-x="556" 
d="M226 431v200h105v-200h198v-102h-198v-200h-105v200h-199v102h199zM529 102v-102h-502v102h502z" />
    <glyph glyph-name="twosuperior" unicode="&#xb2;" horiz-adv-x="387" 
d="M60 406v62l145 154q38 40 38 72q0 18 -13 29t-36 11q-28 0 -39 -11.5t-23 -51.5l-77 21q8 33 17 50q36 68 124 68q61 0 97 -37q32 -32 32 -80q0 -58 -44 -105l-101 -107h154v-75h-274z" />
    <glyph glyph-name="threesuperior" unicode="&#xb3;" horiz-adv-x="387" 
d="M150 649h37q53 0 53 42q0 20 -13.5 31.5t-36.5 11.5q-20 0 -31.5 -8.5t-30.5 -35.5l-70 36q22 36 38 50q38 34 94 34q61 0 99 -38q33 -32 33 -79q0 -45 -33 -77q41 -36 41 -90q0 -60 -45 -97q-40 -32 -97 -32q-40 0 -72 17.5t-50 47.5q-9 16 -19 57l81 20
q10 -40 21.5 -53t39.5 -13q26 0 42 14.5t16 38.5q0 49 -60 49h-37v74z" />
    <glyph glyph-name="acute" unicode="&#xb4;" horiz-adv-x="476" 
d="M395 645l-154 -154l-76 44l123 168z" />
    <glyph glyph-name="mu" unicode="&#xb5;" horiz-adv-x="509" 
d="M53 443h114v-233q0 -69 22 -97q18 -24 59 -24q49 0 74 30q20 26 20 103v221h114v-443h-114v23q-44 -38 -90 -38q-45 0 -85 38v-256h-114v676z" />
    <glyph glyph-name="paragraph" unicode="&#xb6;" horiz-adv-x="645" 
d="M279 201q-67 7 -106 29q-58 33 -89 93q-27 51 -27 111q0 105 75 173q65 60 155 60h318v-98h-63v-802h-102v802h-59v-802h-102v434z" />
    <glyph glyph-name="glyph195" unicode="&#xb7;" horiz-adv-x="248" 
d="M55 312q0 28 20.5 47.5t49.5 19.5q28 0 48.5 -19.5t20.5 -47.5t-20.5 -48t-49.5 -20q-28 0 -48.5 20t-20.5 48z" />
    <glyph glyph-name="cedilla" unicode="&#xb8;" horiz-adv-x="476" 
d="M349 -67l-127 -161l-82 42l104 164z" />
    <glyph glyph-name="onesuperior" unicode="&#xb9;" horiz-adv-x="387" 
d="M250 406h-82v297l-47 -25l-40 65l105 58h64v-395z" />
    <glyph glyph-name="ordmasculine" unicode="&#xba;" horiz-adv-x="343" 
d="M171 681q67 0 110 -46q38 -40 38 -96q0 -64 -48 -106q-42 -37 -100 -37q-67 0 -110 47q-38 40 -38 96q0 64 48 106q42 36 100 36zM171 609q-30 0 -48.5 -19.5t-18.5 -50.5t18.5 -50.5t48.5 -19.5t48.5 19.5t18.5 50.5t-18.5 50.5t-48.5 19.5z" />
    <glyph glyph-name="guillemotright" unicode="&#xbb;" horiz-adv-x="484" 
d="M162 222l-121 154l77 60l171 -214l-171 -211l-77 61zM332 222l-121 154l76 60l171 -214l-171 -211l-76 61z" />
    <glyph glyph-name="onequarter" unicode="&#xbc;" horiz-adv-x="833" 
d="M683 368l-142 -214h67v86h83v-86h46v-74h-46v-80h-83v80h-168v65l174 264zM219 272h-82v297l-47 -25l-40 65l105 58h64v-395zM536 681l64 -37l-381 -659l-65 37z" />
    <glyph glyph-name="onehalf" unicode="&#xbd;" horiz-adv-x="833" 
d="M218 272h-82v297l-47 -25l-40 65l105 58h64v-395zM491 0v62l144 154q38 40 38 72q0 18 -13 29t-36 11q-27 0 -38.5 -11.5t-23.5 -51.5l-77 21q8 33 17 50q36 68 124 68q62 0 98 -37q31 -32 31 -80q0 -58 -43 -105l-102 -107h154v-75h-273zM535 681l64 -37l-381 -659
l-65 37z" />
    <glyph glyph-name="threequarters" unicode="&#xbe;" horiz-adv-x="833" 
d="M145 515h37q53 0 53 42q0 20 -13.5 31.5t-36.5 11.5q-20 0 -31.5 -8.5t-30.5 -36.5l-70 37q22 35 38 50q38 33 94 33q61 0 99 -37q33 -32 33 -79q0 -45 -33 -77q41 -36 41 -90q0 -60 -45 -97q-40 -32 -97 -32q-40 0 -72 17t-50 48q-9 16 -19 57l81 20q10 -41 21.5 -53.5
t39.5 -12.5q26 0 42 14.5t16 38.5q0 49 -60 49h-37v74zM721 368l-142 -214h68v86h82v-86h47v-74h-47v-80h-82v80h-169v65l174 264zM596 681l64 -37l-381 -659l-64 37z" />
    <glyph glyph-name="questiondown" unicode="&#xbf;" horiz-adv-x="435" 
d="M297 312v-66q0 -49 -12.5 -74.5t-50.5 -57.5l-41 -35q-53 -44 -53 -91q0 -35 23 -55.5t61 -20.5q39 0 63 17t55 67l86 -70q-66 -125 -198 -125q-101 0 -158 58q-49 51 -49 131q0 46 19.5 83t65.5 81l47 43q19 17 22 24.5t3 32.5v58h117zM238 355q-30 0 -50.5 20.5
t-20.5 50.5q0 29 20.5 49.5t50.5 20.5t50.5 -20.5t20.5 -49.5q0 -30 -20.5 -50.5t-50.5 -20.5z" />
    <glyph glyph-name="Agrave" unicode="&#xc0;" horiz-adv-x="636" 
d="M160 845l108 58l122 -168l-76 -44zM455 164h-274l-60 -164h-124l249 667h145l249 -667h-125zM415 274l-97 268l-97 -268h194z" />
    <glyph glyph-name="Aacute" unicode="&#xc1;" horiz-adv-x="636" 
d="M474 845l-154 -154l-76 44l122 168zM455 164h-274l-60 -164h-124l249 667h145l249 -667h-125zM415 274l-97 268l-97 -268h194z" />
    <glyph glyph-name="Acircumflex" unicode="&#xc2;" horiz-adv-x="636" 
d="M318 780l-88 -88l-87 43l139 151h73l138 -151l-86 -43zM455 164h-274l-60 -164h-124l249 667h145l249 -667h-125zM415 274l-97 268l-97 -268h194z" />
    <glyph glyph-name="Atilde" unicode="&#xc3;" horiz-adv-x="636" 
d="M455 164h-274l-60 -164h-124l249 667h145l249 -667h-125zM415 274l-97 268l-97 -268h194zM380 865l95 -23q-3 -40 -10 -59q-11 -28 -34.5 -44t-54.5 -16q-30 0 -76 21q-26 12 -32 12q-8 0 -10 -18q-1 -8 -3 -21l-94 22q4 32 6 40.5t9 22.5q27 56 86 56q16 0 30 -4t47 -19
q25 -10 31 -10q7 0 8 17q0 3 1 13z" />
    <glyph glyph-name="Adieresis" unicode="&#xc4;" horiz-adv-x="636" 
d="M455 164h-274l-60 -164h-124l249 667h145l249 -667h-125zM415 274l-97 268l-97 -268h194zM226 861q30 0 51 -20.5t21 -49.5q0 -30 -21 -50.5t-51 -20.5q-29 0 -50 20.5t-21 50.5q0 29 21 49.5t50 20.5zM410 861q30 0 51 -20.5t21 -49.5q0 -30 -21 -50.5t-51 -20.5
q-29 0 -50 20.5t-21 50.5q0 29 21 49.5t50 20.5z" />
    <glyph glyph-name="Aring" unicode="&#xc5;" horiz-adv-x="636" 
d="M209 791q0 47 36 79q31 28 73 28q49 0 81 -35q28 -31 28 -72q0 -48 -36 -80q-31 -27 -73 -27q-48 0 -80 35q-29 31 -29 72zM267 791q0 -22 15 -37t36 -15q22 0 37 15t15 37q0 21 -15 36t-37 15q-21 0 -36 -15t-15 -36zM455 164h-274l-60 -164h-124l249 667h145l249 -667
h-125zM415 274l-97 268l-97 -268h194z" />
    <glyph glyph-name="AE" unicode="&#xc6;" horiz-adv-x="839" 
d="M426 164h-213l-84 -164h-132l349 667h452v-110h-254v-164h226v-110h-226v-173h263v-110h-381v164zM426 274v283h-10l-146 -283h156z" />
    <glyph glyph-name="Ccedilla" unicode="&#xc7;" horiz-adv-x="674" 
d="M449 -67l-126 -161l-82 42l104 164zM564 477q-36 38 -58 55q-52 38 -122 38q-106 0 -173 -77q-59 -67 -59 -160q0 -106 76 -176q65 -60 156 -60q71 0 128 43q15 11 55 51l84 -80q-68 -69 -128.5 -97.5t-138.5 -28.5q-96 0 -178 48q-80 45 -126 124q-48 81 -48 176t48 176
q46 79 126 125q82 47 179 47q75 0 137.5 -29t125.5 -95z" />
    <glyph glyph-name="Egrave" unicode="&#xc8;" horiz-adv-x="483" 
d="M111 845l108 58l122 -168l-76 -44zM442 557h-254v-164h226v-110h-226v-173h263v-110h-381v667h372v-110z" />
    <glyph glyph-name="Eacute" unicode="&#xc9;" horiz-adv-x="483" 
d="M412 845l-154 -154l-77 44l123 168zM442 557h-254v-164h226v-110h-226v-173h263v-110h-381v667h372v-110z" />
    <glyph glyph-name="Ecircumflex" unicode="&#xca;" horiz-adv-x="483" 
d="M261 780l-88 -88l-87 43l139 151h73l138 -151l-86 -43zM442 557h-254v-164h226v-110h-226v-173h263v-110h-381v667h372v-110z" />
    <glyph glyph-name="Edieresis" unicode="&#xcb;" horiz-adv-x="483" 
d="M442 557h-254v-164h226v-110h-226v-173h263v-110h-381v667h372v-110zM169 861q29 0 50 -20.5t21 -49.5q0 -30 -21 -50.5t-50 -20.5q-30 0 -51 20.5t-21 50.5q0 29 21 49.5t51 20.5zM353 861q29 0 50 -20.5t21 -49.5q0 -30 -21 -50.5t-50 -20.5q-30 0 -51 20.5t-21 50.5
q0 29 21 49.5t51 20.5z" />
    <glyph glyph-name="Igrave" unicode="&#xcc;" horiz-adv-x="258" 
d="M-31 845l108 58l122 -168l-76 -44zM188 667v-667h-118v667h118z" />
    <glyph glyph-name="Iacute" unicode="&#xcd;" horiz-adv-x="258" 
d="M288 845l-154 -154l-76 44l123 168zM188 667v-667h-118v667h118z" />
    <glyph glyph-name="Icircumflex" unicode="&#xce;" horiz-adv-x="258" 
d="M129 780l-89 -88l-86 43l138 151h74l138 -151l-87 -43zM188 667v-667h-118v667h118z" />
    <glyph glyph-name="Idieresis" unicode="&#xcf;" horiz-adv-x="258" 
d="M189 667v-667h-119v667h119zM54 861q30 0 51 -20.5t21 -49.5q0 -30 -21 -50.5t-51 -20.5q-29 0 -50 20.5t-21 50.5q0 29 21 49.5t50 20.5zM205 861q30 0 50.5 -20.5t20.5 -49.5q0 -30 -20.5 -50.5t-50.5 -20.5t-50.5 20.5t-20.5 50.5q0 29 20.5 49.5t50.5 20.5z" />
    <glyph glyph-name="Eth" unicode="&#xd0;" horiz-adv-x="630" 
d="M81 412v255h153q178 0 278 -102q86 -89 86 -231q0 -164 -112 -255q-97 -79 -252 -79h-153v307h-63v105h63zM199 412h143v-105h-143v-197h38q120 0 185 68q57 59 57 156q0 110 -73 170q-64 53 -169 53h-38v-145z" />
    <glyph glyph-name="Ntilde" unicode="&#xd1;" horiz-adv-x="707" 
d="M70 0v667h102l347 -464v464h118v-667h-102l-347 463v-463h-118zM415 865l96 -23q-4 -40 -11 -59q-10 -28 -33.5 -44t-54.5 -16t-76 21q-27 12 -32 12q-9 0 -11 -18q-1 -8 -3 -21l-93 22q3 32 5 40.5t9 22.5q27 56 86 56q17 0 30.5 -4t47.5 -19q24 -10 30 -10q7 0 8 17
q1 3 2 13v10z" />
    <glyph glyph-name="Ograve" unicode="&#xd2;" horiz-adv-x="762" 
d="M224 845l107 58l123 -168l-76 -44zM32 333q0 94 48 175q46 79 125 126q82 47 176 47t175 -48q79 -46 126 -125q48 -81 48 -175q0 -93 -48 -175q-47 -78 -126 -125q-81 -48 -175 -48t-175 48q-79 47 -126 125q-48 82 -48 175zM152 333q0 -105 76 -175q65 -61 153 -61
q101 0 169 78q59 68 59 158q0 106 -75 176q-65 61 -153 61q-102 0 -170 -78q-59 -68 -59 -159z" />
    <glyph glyph-name="Oacute" unicode="&#xd3;" horiz-adv-x="762" 
d="M538 845l-154 -154l-76 44l122 168zM32 333q0 94 48 175q46 79 125 126q82 47 176 47t175 -48q79 -46 126 -125q48 -81 48 -175q0 -93 -48 -175q-47 -78 -126 -125q-81 -48 -175 -48t-175 48q-79 47 -126 125q-48 82 -48 175zM152 333q0 -105 76 -175q65 -61 153 -61
q101 0 169 78q59 68 59 158q0 106 -75 176q-65 61 -153 61q-102 0 -170 -78q-59 -68 -59 -159z" />
    <glyph glyph-name="Ocircumflex" unicode="&#xd4;" horiz-adv-x="762" 
d="M381 780l-89 -88l-86 43l138 151h74l138 -151l-87 -43zM32 333q0 94 48 175q46 79 125 126q82 47 176 47t175 -48q79 -46 126 -125q48 -81 48 -175q0 -93 -48 -175q-47 -78 -126 -125q-81 -48 -175 -48t-175 48q-79 47 -126 125q-48 82 -48 175zM152 333q0 -105 76 -175
q65 -61 153 -61q101 0 169 78q59 68 59 158q0 106 -75 176q-65 61 -153 61q-102 0 -170 -78q-59 -68 -59 -159z" />
    <glyph glyph-name="Otilde" unicode="&#xd5;" horiz-adv-x="762" 
d="M32 333q0 94 48 175q46 79 125 126q82 47 176 47t175 -48q79 -46 126 -125q48 -81 48 -175q0 -93 -48 -175q-47 -78 -126 -125q-81 -48 -175 -48t-175 48q-79 47 -126 125q-48 82 -48 175zM152 333q0 -105 76 -175q65 -61 153 -61q101 0 169 78q59 68 59 158
q0 106 -75 176q-65 61 -153 61q-102 0 -170 -78q-59 -68 -59 -159zM442 865l96 -23q-4 -40 -10 -59q-11 -28 -34.5 -44t-54.5 -16t-76 21q-27 12 -32 12q-8 0 -11 -18q0 -8 -3 -21l-93 22q3 32 5 40.5t9 22.5q27 56 86 56q17 0 31 -4t47 -19q24 -10 31 -10q6 0 8 17l1 12v11
z" />
    <glyph glyph-name="Odieresis" unicode="&#xd6;" horiz-adv-x="762" 
d="M32 333q0 94 48 175q46 79 125 126q82 47 176 47t175 -48q79 -46 126 -125q48 -81 48 -175q0 -93 -48 -175q-47 -78 -126 -125q-81 -48 -175 -48t-175 48q-79 47 -126 125q-48 82 -48 175zM152 333q0 -105 76 -175q65 -61 153 -61q101 0 169 78q59 68 59 158
q0 106 -75 176q-65 61 -153 61q-102 0 -170 -78q-59 -68 -59 -159zM289 861q30 0 50.5 -20.5t20.5 -49.5q0 -30 -20.5 -50.5t-50.5 -20.5t-50.5 20.5t-20.5 50.5q0 29 20.5 49.5t50.5 20.5zM473 861q30 0 50.5 -20.5t20.5 -49.5q0 -30 -20.5 -50.5t-50.5 -20.5t-50.5 20.5
t-20.5 50.5q0 29 20.5 49.5t50.5 20.5z" />
    <glyph glyph-name="multiply" unicode="&#xd7;" horiz-adv-x="556" 
d="M205 312l-141 141l73 73l141 -141l141 141l73 -73l-141 -141l141 -141l-73 -73l-141 141l-141 -141l-73 73z" />
    <glyph glyph-name="Oslash" unicode="&#xd8;" horiz-adv-x="769" 
d="M598 608l63 61l64 -62l-63 -63q72 -96 72 -211q0 -93 -48 -175q-47 -78 -126 -125q-81 -48 -175 -48q-118 0 -213 74l-63 -62l-65 63l64 63q-72 96 -72 210q0 94 48 175q46 79 125 125q82 48 175 48q119 0 214 -73zM516 527q-60 43 -132 43q-101 0 -169 -78
q-59 -68 -59 -159q0 -68 36 -127zM254 140q61 -43 131 -43q101 0 169 78q59 68 59 158q0 69 -35 128z" />
    <glyph glyph-name="Ugrave" unicode="&#xd9;" horiz-adv-x="639" 
d="M169 845l108 58l123 -168l-77 -44zM188 667v-410q0 -77 18 -105q15 -24 47 -39.5t67 -15.5q34 0 66 15.5t47 39.5q11 16 14.5 38t3.5 67v410h118v-429q0 -100 -46 -159q-35 -44 -89 -69t-114 -25q-65 0 -122 29q-49 24 -82 65q-46 58 -46 159v429h118z" />
    <glyph glyph-name="Uacute" unicode="&#xda;" horiz-adv-x="639" 
d="M470 845l-154 -154l-76 44l122 168zM188 667v-410q0 -77 18 -105q15 -24 47 -39.5t67 -15.5q34 0 66 15.5t47 39.5q11 16 14.5 38t3.5 67v410h118v-429q0 -100 -46 -159q-35 -44 -89 -69t-114 -25q-65 0 -122 29q-49 24 -82 65q-46 58 -46 159v429h118z" />
    <glyph glyph-name="Ucircumflex" unicode="&#xdb;" horiz-adv-x="639" 
d="M320 780l-89 -88l-86 43l138 151h74l138 -151l-87 -43zM188 667v-410q0 -77 18 -105q15 -24 47 -39.5t67 -15.5q34 0 66 15.5t47 39.5q11 16 14.5 38t3.5 67v410h118v-429q0 -100 -46 -159q-35 -44 -89 -69t-114 -25q-65 0 -122 29q-49 24 -82 65q-46 58 -46 159v429h118
z" />
    <glyph glyph-name="Udieresis" unicode="&#xdc;" horiz-adv-x="639" 
d="M188 667v-410q0 -77 18 -105q15 -24 47 -39.5t67 -15.5q34 0 66 15.5t47 39.5q11 16 14.5 38t3.5 67v410h118v-429q0 -100 -46 -159q-35 -44 -89 -69t-114 -25q-65 0 -122 29q-49 24 -82 65q-46 58 -46 159v429h118zM228 861q29 0 50 -20.5t21 -49.5q0 -30 -21 -50.5
t-50 -20.5q-30 0 -51 20.5t-21 50.5q0 29 21 49.5t51 20.5zM412 861q29 0 50 -20.5t21 -49.5q0 -30 -21 -50.5t-50 -20.5q-30 0 -51 20.5t-21 50.5q0 29 21 49.5t51 20.5z" />
    <glyph glyph-name="Yacute" unicode="&#xdd;" horiz-adv-x="540" 
d="M420 845l-154 -154l-76 44l122 168zM211 276l-221 391h132l148 -270l148 270h132l-221 -391v-276h-118v276z" />
    <glyph glyph-name="Thorn" unicode="&#xde;" horiz-adv-x="474" 
d="M188 576h35q63 0 103.5 -12t71.5 -40q66 -59 66 -155t-66 -156q-31 -28 -71.5 -40t-103.5 -12h-35v-161h-118v667h118v-91zM188 468v-200h43q63 0 89 25q28 27 28 75t-28 75q-25 25 -89 25h-43z" />
    <glyph glyph-name="germandbls" unicode="&#xdf;" horiz-adv-x="525" 
d="M53 0v489q0 90 61 145q53 47 130 47q93 0 149 -60q48 -52 48 -130q0 -67 -45 -119q94 -58 94 -169q0 -96 -72 -153q-62 -50 -157 -50h-61v107h64q54 0 85 31q27 27 27 69q0 28 -14 51.5t-36 33.5q-25 11 -64 11h-20v104h20q68 0 68 81q0 45 -25 70q-21 21 -56 21
q-40 0 -63 -27q-19 -24 -19 -63v-489h-114z" />
    <glyph glyph-name="agrave" unicode="&#xe0;" horiz-adv-x="544" 
d="M101 645l107 58l123 -168l-76 -44zM491 0h-114v28q-31 -23 -58 -33t-61 -10q-104 0 -173 78q-60 67 -60 159q0 106 76 176q67 60 157 60q34 0 61 -9.5t58 -33.5v28h114v-443zM260 355q-57 0 -91 -42q-29 -36 -29 -91q0 -63 38 -101q33 -32 82 -32q56 0 90 42q29 36 29 91
q0 63 -37 100q-33 33 -82 33z" />
    <glyph glyph-name="aacute" unicode="&#xe1;" horiz-adv-x="544" 
d="M421 645l-153 -154l-77 44l123 168zM491 0h-114v28q-31 -23 -58 -33t-61 -10q-104 0 -173 78q-60 67 -60 159q0 106 76 176q67 60 157 60q34 0 61 -9.5t58 -33.5v28h114v-443zM260 355q-57 0 -91 -42q-29 -36 -29 -91q0 -63 38 -101q33 -32 82 -32q56 0 90 42
q29 36 29 91q0 63 -37 100q-33 33 -82 33z" />
    <glyph glyph-name="acircumflex" unicode="&#xe2;" horiz-adv-x="544" 
d="M258 580l-89 -88l-86 43l138 151h74l138 -151l-87 -43zM491 0h-114v28q-31 -23 -58 -33t-61 -10q-104 0 -173 78q-60 67 -60 159q0 106 76 176q67 60 157 60q34 0 61 -9.5t58 -33.5v28h114v-443zM260 355q-57 0 -91 -42q-29 -36 -29 -91q0 -63 38 -101q33 -32 82 -32
q56 0 90 42q29 36 29 91q0 63 -37 100q-33 33 -82 33z" />
    <glyph glyph-name="atilde" unicode="&#xe3;" horiz-adv-x="544" 
d="M491 0h-114v28q-31 -23 -58 -33t-61 -10q-104 0 -173 78q-60 67 -60 159q0 106 76 176q67 60 157 60q34 0 61 -9.5t58 -33.5v28h114v-443zM260 355q-57 0 -91 -42q-29 -36 -29 -91q0 -63 38 -101q33 -32 82 -32q56 0 90 42q29 36 29 91q0 63 -37 100q-33 33 -82 33z
M319 665l96 -23q-4 -40 -11 -59q-10 -28 -33.5 -44t-54.5 -16t-76 21q-27 12 -32 12q-9 0 -11 -18q-1 -8 -3 -21l-93 22q3 32 5 40.5t9 22.5q27 56 86 56q17 0 31 -4t47 -19q24 -10 30 -10q7 0 9 17q0 3 1 13v10z" />
    <glyph glyph-name="adieresis" unicode="&#xe4;" horiz-adv-x="544" 
d="M491 0h-114v28q-31 -23 -58 -33t-61 -10q-104 0 -173 78q-60 67 -60 159q0 106 76 176q67 60 157 60q34 0 61 -9.5t58 -33.5v28h114v-443zM260 355q-57 0 -91 -42q-29 -36 -29 -91q0 -63 38 -101q33 -32 82 -32q56 0 90 42q29 36 29 91q0 63 -37 100q-33 33 -82 33z
M174 664q30 0 50.5 -20.5t20.5 -49.5t-20.5 -49.5t-50.5 -20.5t-50.5 20.5t-20.5 49.5t20.5 49.5t50.5 20.5zM358 664q30 0 50.5 -20.5t20.5 -49.5t-20.5 -49.5t-50.5 -20.5t-50.5 20.5t-20.5 49.5t21 49.5t50 20.5z" />
    <glyph glyph-name="aring" unicode="&#xe5;" horiz-adv-x="544" 
d="M161 591q0 47 35 79q32 28 73 28q49 0 81 -35q29 -31 29 -72q0 -48 -36 -80q-31 -27 -73 -27q-49 0 -81 35q-28 31 -28 72zM218 591q0 -22 15 -37t37 -15q21 0 36 15t15 37q0 21 -15 36t-36 15q-22 0 -37 -15t-15 -36zM491 0h-114v28q-31 -23 -58 -33t-61 -10
q-104 0 -173 78q-60 67 -60 159q0 106 76 176q67 60 157 60q34 0 61 -9.5t58 -33.5v28h114v-443zM260 355q-57 0 -91 -42q-29 -36 -29 -91q0 -63 38 -101q33 -32 82 -32q56 0 90 42q29 36 29 91q0 63 -37 100q-33 33 -82 33z" />
    <glyph glyph-name="ae" unicode="&#xe6;" horiz-adv-x="815" 
d="M418 48q-55 -63 -179 -63q-104 0 -163 49q-51 42 -51 109q0 74 61 114q52 34 140 34h112q-11 35 -36 51t-68 16q-38 0 -68.5 -11.5t-67.5 -39.5l-60 74q38 29 58 40q66 37 149 37q115 0 170 -66q63 66 156 66q77 0 136 -49q51 -43 72 -110q12 -39 12 -88q0 -8 -1 -32
h-326q24 -91 111 -91q74 0 111 59l6 9l96 -40q-21 -35 -32.5 -49.5t-32.5 -31.5q-63 -50 -148 -50q-91 0 -157 63zM464 265v-1h213q-29 93 -106 93q-40 0 -68 -24t-39 -68zM342 206h-102q-101 0 -101 -62q0 -58 101 -58q102 0 102 64v56z" />
    <glyph glyph-name="ccedilla" unicode="&#xe7;" horiz-adv-x="465" 
d="M328 -67l-126 -161l-82 42l104 164zM375 292q-38 39 -59 51t-54 12q-59 0 -93 -42q-29 -36 -29 -91q0 -64 38 -101q33 -32 85 -32q33 0 58.5 14.5t56.5 50.5l76 -73q-47 -51 -91 -73.5t-101 -22.5q-108 0 -177 77q-60 67 -60 160q0 107 77 176q67 60 160 60
q55 0 98.5 -21.5t90.5 -70.5z" />
    <glyph glyph-name="egrave" unicode="&#xe8;" horiz-adv-x="493" 
d="M95 645l107 58l123 -168l-76 -44zM142 179q24 -91 111 -91q74 0 111 59l6 9l96 -40q-21 -35 -32.5 -49.5t-32.5 -31.5q-63 -50 -148 -50q-104 0 -170 77q-58 67 -58 160q0 106 73 176q64 60 151 60q104 0 166 -78q54 -68 54 -169q0 -8 -1 -32h-326zM355 264
q-29 93 -106 93q-40 0 -68 -24t-39 -69h213z" />
    <glyph glyph-name="eacute" unicode="&#xe9;" horiz-adv-x="493" 
d="M399 645l-154 -154l-76 44l122 168zM142 179q24 -91 111 -91q74 0 111 59l6 9l96 -40q-21 -35 -32.5 -49.5t-32.5 -31.5q-63 -50 -148 -50q-104 0 -170 77q-58 67 -58 160q0 106 73 176q64 60 151 60q104 0 166 -78q54 -68 54 -169q0 -8 -1 -32h-326zM355 264
q-29 93 -106 93q-40 0 -68 -24t-39 -69h213z" />
    <glyph glyph-name="ecircumflex" unicode="&#xea;" horiz-adv-x="493" 
d="M246 580l-88 -88l-86 43l138 151h73l138 -151l-86 -43zM142 179q24 -91 111 -91q74 0 111 59l6 9l96 -40q-21 -35 -32.5 -49.5t-32.5 -31.5q-63 -50 -148 -50q-104 0 -170 77q-58 67 -58 160q0 106 73 176q64 60 151 60q104 0 166 -78q54 -68 54 -169q0 -8 -1 -32h-326z
M355 264q-29 93 -106 93q-40 0 -68 -24t-39 -69h213z" />
    <glyph glyph-name="edieresis" unicode="&#xeb;" horiz-adv-x="493" 
d="M142 179q24 -91 111 -91q74 0 111 59l6 9l96 -40q-21 -35 -32.5 -49.5t-32.5 -31.5q-63 -50 -148 -50q-104 0 -170 77q-58 67 -58 160q0 106 73 176q64 60 151 60q104 0 166 -78q54 -68 54 -169q0 -8 -1 -32h-326zM355 264q-29 93 -106 93q-40 0 -68 -24t-39 -69h213z
M155 664q30 0 50.5 -20.5t20.5 -49.5t-20.5 -49.5t-50.5 -20.5t-50.5 20.5t-20.5 49.5t20.5 49.5t50.5 20.5zM339 664q30 0 50.5 -20.5t20.5 -49.5t-20.5 -49.5t-50.5 -20.5t-50.5 20.5t-20.5 49.5t20.5 49.5t50.5 20.5z" />
    <glyph glyph-name="igrave" unicode="&#xec;" horiz-adv-x="221" 
d="M-53 645l108 58l122 -168l-76 -44zM167 443v-443h-114v443h114z" />
    <glyph glyph-name="iacute" unicode="&#xed;" horiz-adv-x="221" 
d="M273 645l-154 -154l-76 44l123 168zM167 443v-443h-114v443h114z" />
    <glyph glyph-name="icircumflex" unicode="&#xee;" horiz-adv-x="221" 
d="M111 580l-89 -88l-86 43l138 151h74l138 -151l-87 -43zM168 443v-443h-114v443h114z" />
    <glyph glyph-name="idieresis" unicode="&#xef;" horiz-adv-x="221" 
d="M168 443v-443h-114v443h114zM35 664q30 0 51 -20.5t21 -49.5t-21 -49.5t-51 -20.5q-29 0 -50 20.5t-21 49.5t21 49.5t50 20.5zM186 664q30 0 50.5 -20.5t20.5 -49.5t-20.5 -49.5t-50.5 -20.5t-50.5 20.5t-20.5 49.5t20.5 49.5t50.5 20.5z" />
    <glyph glyph-name="eth" unicode="&#xf0;" horiz-adv-x="526" 
d="M345 580q80 -60 120 -151q34 -80 34 -176t-37 -158q-32 -55 -91 -84q-50 -26 -108 -26q-106 0 -176 77q-60 67 -60 159q0 103 74 171q63 58 152 58q15 0 49 -7q2 0 11 -2q-39 47 -83 77l-98 -53l-42 52l63 34q-24 7 -70 14l15 102q115 -15 182 -48l77 42l41 -52zM384 222
q0 64 -38 101q-33 32 -83 32q-58 0 -92 -41q-30 -37 -30 -92q0 -64 39 -101q33 -33 83 -33q57 0 91 42q30 37 30 92z" />
    <glyph glyph-name="ntilde" unicode="&#xf1;" horiz-adv-x="509" 
d="M167 420q26 21 49 29.5t54 8.5q39 0 75.5 -15.5t62.5 -43.5q48 -52 48 -161v-238h-114v231q0 75 -22 100q-21 24 -59 24q-49 0 -73 -31q-21 -26 -21 -102v-222h-114v443h114v-23zM316 665l96 -23q-4 -40 -11 -59q-10 -28 -33.5 -44t-54.5 -16t-76 21q-27 12 -32 12
q-9 0 -11 -18q-1 -8 -3 -21l-93 22q3 32 5 40.5t9 22.5q27 56 86 56q17 0 30.5 -4t47.5 -19q24 -10 30 -10q7 0 8 17q1 5 2 23z" />
    <glyph glyph-name="ograve" unicode="&#xf2;" horiz-adv-x="521" 
d="M104 645l107 58l123 -168l-77 -44zM261 458q106 0 176 -77q59 -66 59 -159q0 -107 -77 -177q-66 -60 -158 -60q-107 0 -176 78q-60 66 -60 159q0 107 77 176q66 60 159 60zM261 355q-58 0 -92 -42q-29 -36 -29 -91q0 -63 38 -101q33 -32 83 -32q57 0 91 42q29 36 29 91
q0 63 -38 100q-32 33 -82 33z" />
    <glyph glyph-name="oacute" unicode="&#xf3;" horiz-adv-x="521" 
d="M418 645l-154 -154l-77 44l123 168zM261 458q106 0 176 -77q59 -66 59 -159q0 -107 -77 -177q-66 -60 -158 -60q-107 0 -176 78q-60 66 -60 159q0 107 77 176q66 60 159 60zM261 355q-58 0 -92 -42q-29 -36 -29 -91q0 -63 38 -101q33 -32 83 -32q57 0 91 42q29 36 29 91
q0 63 -38 100q-32 33 -82 33z" />
    <glyph glyph-name="ocircumflex" unicode="&#xf4;" horiz-adv-x="521" 
d="M261 580l-89 -88l-86 43l138 151h74l138 -151l-87 -43zM261 458q106 0 176 -77q59 -66 59 -159q0 -107 -77 -177q-66 -60 -158 -60q-107 0 -176 78q-60 66 -60 159q0 107 77 176q66 60 159 60zM261 355q-58 0 -92 -42q-29 -36 -29 -91q0 -63 38 -101q33 -32 83 -32
q57 0 91 42q29 36 29 91q0 63 -38 100q-32 33 -82 33z" />
    <glyph glyph-name="otilde" unicode="&#xf5;" horiz-adv-x="521" 
d="M322 665l95 -23q-3 -40 -10 -59q-11 -28 -34.5 -44t-54.5 -16q-30 0 -75 21q-27 12 -33 12q-8 0 -10 -18q-1 -8 -3 -21l-94 22q4 32 6 40.5t9 22.5q27 56 86 56q17 0 30.5 -4t46.5 -19q25 -10 31 -10q7 0 8 17q1 4 2 17v6zM261 458q106 0 176 -77q59 -66 59 -159
q0 -107 -77 -177q-66 -60 -158 -60q-107 0 -176 78q-60 66 -60 159q0 107 77 176q66 60 159 60zM261 355q-58 0 -92 -42q-29 -36 -29 -91q0 -63 38 -101q33 -32 83 -32q57 0 91 42q29 36 29 91q0 63 -38 100q-32 33 -82 33z" />
    <glyph glyph-name="odieresis" unicode="&#xf6;" horiz-adv-x="521" 
d="M261 458q106 0 176 -77q59 -66 59 -159q0 -107 -77 -177q-66 -60 -158 -60q-107 0 -176 78q-60 66 -60 159q0 107 77 176q66 60 159 60zM261 355q-58 0 -92 -42q-29 -36 -29 -91q0 -63 38 -101q33 -32 83 -32q57 0 91 42q29 36 29 91q0 63 -38 100q-32 33 -82 33z
M351 664q30 0 50.5 -20.5t20.5 -49.5t-20.5 -49.5t-50.5 -20.5t-50.5 20.5t-20.5 49.5t20.5 49.5t50.5 20.5zM167 664q30 0 50.5 -20.5t20.5 -49.5t-20.5 -49.5t-50.5 -20.5t-50.5 20.5t-20.5 49.5t20.5 49.5t50.5 20.5z" />
    <glyph glyph-name="divide" unicode="&#xf7;" horiz-adv-x="556" 
d="M278 560q33 0 55 -24q19 -21 19 -49q0 -33 -25 -55q-21 -19 -49 -19q-32 0 -54 25q-19 21 -19 49q0 32 24 54q21 19 49 19zM278 211q33 0 55 -25q19 -21 19 -49q0 -32 -25 -54q-21 -19 -49 -19q-32 0 -54 24q-19 21 -19 49q0 33 24 55q21 19 49 19zM513 363v-102h-469
v102h469z" />
    <glyph glyph-name="oslash" unicode="&#xf8;" horiz-adv-x="534" 
d="M409 411l36 35l57 -55l-39 -37q39 -58 39 -133q0 -106 -77 -176q-66 -60 -158 -60q-79 0 -143 47l-36 -35l-57 55l39 37q-39 61 -39 133q0 107 77 176q66 60 158 60q80 0 143 -47zM331 337q-29 18 -64 18q-58 0 -91 -42q-30 -36 -30 -90q0 -28 8 -54zM203 106
q29 -17 64 -17q57 0 91 41q29 37 29 91q0 28 -8 53z" />
    <glyph glyph-name="ugrave" unicode="&#xf9;" horiz-adv-x="509" 
d="M99 645l108 58l123 -168l-77 -44zM342 23q-26 -21 -49 -29.5t-53 -8.5q-39 0 -76 16t-62 43q-49 53 -49 161v238h114v-230q0 -76 22 -100t59 -24q49 0 74 30q20 26 20 103v221h114v-443h-114v23z" />
    <glyph glyph-name="uacute" unicode="&#xfa;" horiz-adv-x="509" 
d="M407 645l-154 -154l-76 44l122 168zM342 23q-26 -21 -49 -29.5t-53 -8.5q-39 0 -76 16t-62 43q-49 53 -49 161v238h114v-230q0 -76 22 -100t59 -24q49 0 74 30q20 26 20 103v221h114v-443h-114v23z" />
    <glyph glyph-name="ucircumflex" unicode="&#xfb;" horiz-adv-x="509" 
d="M255 580l-89 -88l-86 43l138 151h74l138 -151l-87 -43zM342 23q-26 -21 -49 -29.5t-53 -8.5q-39 0 -76 16t-62 43q-49 53 -49 161v238h114v-230q0 -76 22 -100t59 -24q49 0 74 30q20 26 20 103v221h114v-443h-114v23z" />
    <glyph glyph-name="udieresis" unicode="&#xfc;" horiz-adv-x="509" 
d="M342 23q-26 -21 -49 -29.5t-53 -8.5q-39 0 -76 16t-62 43q-49 53 -49 161v238h114v-230q0 -76 22 -100t59 -24q49 0 74 30q20 26 20 103v221h114v-443h-114v23zM163 664q29 0 50 -20.5t21 -49.5t-21 -49.5t-50 -20.5q-30 0 -51 20.5t-21 49.5t21 49.5t51 20.5zM347 664
q29 0 50 -20.5t21 -49.5t-21 -49.5t-50 -20.5q-30 0 -51 20.5t-21 49.5t21 49.5t51 20.5z" />
    <glyph glyph-name="yacute" unicode="&#xfd;" horiz-adv-x="473" 
d="M392 645l-154 -154l-77 44l123 168zM174 21l-183 422h124l120 -283l125 283h123l-301 -676h-121z" />
    <glyph glyph-name="thorn" unicode="&#xfe;" horiz-adv-x="545" 
d="M54 667h114v-252q31 24 58 33.5t61 9.5q104 0 173 -78q60 -67 60 -159q0 -105 -76 -175q-67 -61 -157 -61q-34 0 -61 10t-58 33v-261h-114v900zM285 89q57 0 91 41q29 37 29 91q0 63 -38 101q-33 33 -82 33q-56 0 -89 -42q-29 -37 -29 -92q0 -63 37 -100q32 -32 81 -32z
" />
    <glyph glyph-name="ydieresis" unicode="&#xff;" horiz-adv-x="473" 
d="M174 21l-183 422h124l120 -283l125 283h123l-301 -676h-121zM145 664q30 0 50.5 -20.5t20.5 -49.5t-20.5 -49.5t-50.5 -20.5t-50.5 20.5t-20.5 49.5t20.5 49.5t50.5 20.5zM329 664q30 0 50.5 -20.5t20.5 -49.5t-20.5 -49.5t-50.5 -20.5t-50.5 20.5t-20.5 49.5t20.5 49.5
t50.5 20.5z" />
    <glyph glyph-name="Amacron" unicode="&#x100;" horiz-adv-x="636" 
d="M162 842h312v-103h-312v103zM455 164h-274l-60 -164h-124l249 667h145l249 -667h-125zM415 274l-97 268l-97 -268h194z" />
    <glyph glyph-name="amacron" unicode="&#x101;" horiz-adv-x="544" 
d="M114 642h312v-103h-312v103zM491 0h-114v28q-31 -23 -58 -33t-61 -10q-104 0 -173 78q-60 67 -60 159q0 106 76 176q67 60 157 60q34 0 61 -9.5t58 -33.5v28h114v-443zM260 355q-57 0 -91 -42q-29 -36 -29 -91q0 -63 38 -101q33 -32 82 -32q56 0 90 42q29 36 29 91
q0 63 -37 100q-33 33 -82 33z" />
    <glyph glyph-name="Abreve" unicode="&#x102;" horiz-adv-x="636" 
d="M455 164h-274l-60 -164h-124l249 667h145l249 -667h-125zM415 274l-97 268l-97 -268h194zM166 864l99 9q1 -11 1 -21q3 -59 50 -59q45 0 53 61q1 5 3 18l99 -8q-5 -43 -8.5 -56t-13.5 -32q-44 -80 -133 -80q-50 0 -90 28q-34 25 -50 65q-6 15 -7.5 27t-2.5 48z" />
    <glyph glyph-name="abreve" unicode="&#x103;" horiz-adv-x="544" 
d="M108 665l99 8q1 -11 1 -21q3 -59 50 -59q45 0 53 61q1 5 2 18l99 -8q-4 -43 -7.5 -56t-13.5 -32q-44 -80 -133 -80q-50 0 -90 28q-34 25 -50 65q-6 15 -7.5 27t-2.5 49zM491 0h-114v28q-31 -23 -58 -33t-61 -10q-104 0 -173 78q-60 67 -60 159q0 106 76 176q67 60 157 60
q34 0 61 -9.5t58 -33.5v28h114v-443zM260 355q-57 0 -91 -42q-29 -36 -29 -91q0 -63 38 -101q33 -32 82 -32q56 0 90 42q29 36 29 91q0 63 -37 100q-33 33 -82 33z" />
    <glyph glyph-name="Aogonek" unicode="&#x104;" horiz-adv-x="636" 
d="M640 0q-2 -2 -7 -8q-29 -39 -29 -56q0 -9 12 -9q17 0 50 12l34 -86q-40 -14 -54 -17.5t-35 -3.5q-51 0 -83 30q-28 27 -28 66q0 32 26 72h-11l-60 164h-274l-60 -164h-124l249 667h145zM415 274l-97 268l-97 -268h194z" />
    <glyph glyph-name="aogonek" unicode="&#x105;" horiz-adv-x="544" 
d="M491 0q-2 -2 -6 -8q-30 -39 -30 -56q0 -9 13 -9q17 0 49 12l34 -86q-39 -14 -53 -17.5t-35 -3.5q-52 0 -84 30q-28 27 -28 66q0 32 26 72v28q-31 -23 -58 -33t-61 -10q-104 0 -173 78q-60 67 -60 159q0 106 76 176q67 60 157 60q34 0 61 -9.5t58 -33.5v28h114v-443z
M260 355q-57 0 -91 -42q-29 -36 -29 -91q0 -63 38 -101q33 -32 82 -32q56 0 90 42q29 36 29 91q0 63 -37 100q-33 33 -82 33z" />
    <glyph glyph-name="Cacute" unicode="&#x106;" horiz-adv-x="674" 
d="M549 845l-154 -154l-76 44l122 168zM564 477q-36 38 -58 55q-52 38 -122 38q-106 0 -173 -77q-59 -67 -59 -160q0 -106 76 -176q65 -60 156 -60q71 0 128 43q15 11 55 51l84 -80q-68 -69 -128.5 -97.5t-138.5 -28.5q-96 0 -178 48q-80 45 -126 124q-48 81 -48 176t48 176
q46 79 126 125q82 47 179 47q75 0 137.5 -29t125.5 -95z" />
    <glyph glyph-name="cacute" unicode="&#x107;" horiz-adv-x="465" 
d="M408 645l-154 -154l-76 44l122 168zM375 292q-38 39 -59 51t-54 12q-59 0 -93 -42q-29 -36 -29 -91q0 -64 38 -101q33 -32 85 -32q33 0 58.5 14.5t56.5 50.5l76 -73q-47 -51 -91 -73.5t-101 -22.5q-108 0 -177 77q-60 67 -60 160q0 107 77 176q67 60 160 60
q55 0 98.5 -21.5t90.5 -70.5z" />
    <glyph glyph-name="Ccircumflex" unicode="&#x108;" horiz-adv-x="674" 
d="M375 780l-88 -88l-87 43l138 151h74l138 -151l-86 -43zM564 477q-36 38 -58 55q-52 38 -122 38q-106 0 -173 -77q-59 -67 -59 -160q0 -106 76 -176q65 -60 156 -60q71 0 128 43q15 11 55 51l84 -80q-68 -69 -128.5 -97.5t-138.5 -28.5q-96 0 -178 48q-80 45 -126 124
q-48 81 -48 176t48 176q46 79 126 125q82 47 179 47q75 0 137.5 -29t125.5 -95z" />
    <glyph glyph-name="ccircumflex" unicode="&#x109;" horiz-adv-x="465" 
d="M253 580l-89 -88l-86 43l138 151h74l138 -151l-87 -43zM375 292q-38 39 -59 51t-54 12q-59 0 -93 -42q-29 -36 -29 -91q0 -64 38 -101q33 -32 85 -32q33 0 58.5 14.5t56.5 50.5l76 -73q-47 -51 -91 -73.5t-101 -22.5q-108 0 -177 77q-60 67 -60 160q0 107 77 176
q67 60 160 60q55 0 98.5 -21.5t90.5 -70.5z" />
    <glyph glyph-name="Cdotaccent" unicode="&#x10a;" horiz-adv-x="674" 
d="M564 477q-36 38 -58 55q-52 38 -122 38q-106 0 -173 -77q-59 -67 -59 -160q0 -106 76 -176q65 -60 156 -60q71 0 128 43q15 11 55 51l84 -80q-68 -69 -128.5 -97.5t-138.5 -28.5q-96 0 -178 48q-80 45 -126 124q-48 81 -48 176t48 176q46 79 126 125q82 47 179 47
q75 0 137.5 -29t125.5 -95zM383 861q30 0 51 -20.5t21 -49.5q0 -30 -21 -50.5t-51 -20.5q-29 0 -50 20.5t-21 50.5q0 29 21 49.5t50 20.5z" />
    <glyph glyph-name="cdotaccent" unicode="&#x10b;" horiz-adv-x="465" 
d="M375 292q-38 39 -59 51t-54 12q-59 0 -93 -42q-29 -36 -29 -91q0 -64 38 -101q33 -32 85 -32q33 0 58.5 14.5t56.5 50.5l76 -73q-47 -51 -91 -73.5t-101 -22.5q-108 0 -177 77q-60 67 -60 160q0 107 77 176q67 60 160 60q55 0 98.5 -21.5t90.5 -70.5zM256 664
q30 0 50.5 -20.5t20.5 -49.5t-20.5 -49.5t-50.5 -20.5t-50.5 20.5t-20.5 49.5t20.5 49.5t50.5 20.5z" />
    <glyph glyph-name="Ccaron" unicode="&#x10c;" horiz-adv-x="674" 
d="M375 807l89 89l86 -43l-138 -152h-74l-138 152l87 43zM564 477q-36 38 -58 55q-52 38 -122 38q-106 0 -173 -77q-59 -67 -59 -160q0 -106 76 -176q65 -60 156 -60q71 0 128 43q15 11 55 51l84 -80q-68 -69 -128.5 -97.5t-138.5 -28.5q-96 0 -178 48q-80 45 -126 124
q-48 81 -48 176t48 176q46 79 126 125q82 47 179 47q75 0 137.5 -29t125.5 -95z" />
    <glyph glyph-name="ccaron" unicode="&#x10d;" horiz-adv-x="465" 
d="M253 607l88 89l87 -43l-138 -152h-74l-138 152l86 43zM375 292q-38 39 -59 51t-54 12q-59 0 -93 -42q-29 -36 -29 -91q0 -64 38 -101q33 -32 85 -32q33 0 58.5 14.5t56.5 50.5l76 -73q-47 -51 -91 -73.5t-101 -22.5q-108 0 -177 77q-60 67 -60 160q0 107 77 176
q67 60 160 60q55 0 98.5 -21.5t90.5 -70.5z" />
    <glyph glyph-name="Dcaron" unicode="&#x10e;" horiz-adv-x="619" 
d="M291 807l89 89l86 -43l-138 -152h-73l-139 152l87 43zM70 667h153q178 0 278 -102q86 -89 86 -231q0 -164 -112 -255q-97 -79 -252 -79h-153v667zM188 557v-447h38q120 0 185 68q57 59 57 156q0 110 -73 170q-64 53 -169 53h-38z" />
    <glyph glyph-name="dcaron" unicode="&#x10f;" horiz-adv-x="675" 
d="M582 702l108 -32l-81 -189l-85 27zM491 0h-114v28q-31 -23 -58 -33t-61 -10q-104 0 -173 78q-60 67 -60 159q0 106 76 176q67 60 157 60q34 0 61 -9.5t58 -33.5v252h114v-667zM260 355q-57 0 -91 -42q-29 -36 -29 -91q0 -63 38 -101q33 -32 82 -32q56 0 89 42
q29 36 29 91q0 63 -37 100q-32 33 -81 33z" />
    <glyph glyph-name="Dcroat" unicode="&#x110;" horiz-adv-x="630" 
d="M81 412v255h153q178 0 278 -102q86 -89 86 -231q0 -164 -112 -255q-97 -79 -252 -79h-153v307h-63v105h63zM199 412h143v-105h-143v-197h38q120 0 185 68q57 59 57 156q0 110 -73 170q-64 53 -169 53h-38v-145z" />
    <glyph glyph-name="dcroat" unicode="&#x111;" horiz-adv-x="544" 
d="M491 502v-502h-114v28q-31 -23 -58 -33t-61 -10q-104 0 -173 78q-60 67 -60 159q0 106 76 176q67 60 157 60q34 0 61 -9.5t58 -33.5v87h-112v102h112v63h114v-63h57v-102h-57zM260 355q-57 0 -91 -42q-29 -36 -29 -91q0 -63 38 -101q33 -32 82 -32q56 0 89 42
q29 36 29 91q0 63 -37 100q-32 33 -81 33z" />
    <glyph glyph-name="Emacron" unicode="&#x112;" horiz-adv-x="483" 
d="M105 842h312v-103h-312v103zM442 557h-254v-164h226v-110h-226v-173h263v-110h-381v667h372v-110z" />
    <glyph glyph-name="emacron" unicode="&#x113;" horiz-adv-x="493" 
d="M90 642h312v-103h-312v103zM142 179q24 -91 111 -91q74 0 111 59l6 9l96 -40q-21 -35 -32.5 -49.5t-32.5 -31.5q-63 -50 -148 -50q-104 0 -170 77q-58 67 -58 160q0 106 73 176q64 60 151 60q104 0 166 -78q54 -68 54 -169q0 -8 -1 -32h-326zM355 264q-29 93 -106 93
q-40 0 -68 -24t-39 -69h213z" />
    <glyph glyph-name="Ebreve" unicode="&#x114;" horiz-adv-x="483" 
d="M442 557h-254v-164h226v-110h-226v-173h263v-110h-381v667h372v-110zM108 864l99 9q1 -11 2 -21q2 -59 49 -59q45 0 53 61q1 5 3 18l99 -8q-5 -43 -8 -56t-14 -32q-44 -80 -132 -80q-51 0 -90 28q-34 25 -50 65q-7 15 -8.5 27t-2.5 48z" />
    <glyph glyph-name="ebreve" unicode="&#x115;" horiz-adv-x="493" 
d="M142 179q24 -91 111 -91q74 0 111 59l6 9l96 -40q-21 -35 -32.5 -49.5t-32.5 -31.5q-63 -50 -148 -50q-104 0 -170 77q-58 67 -58 160q0 106 73 176q64 60 151 60q104 0 166 -78q54 -68 54 -169q0 -8 -1 -32h-326zM355 264q-29 93 -106 93q-40 0 -68 -24t-39 -69h213z
M95 665l99 8q0 -11 1 -21q2 -59 49 -59q46 0 54 61q0 5 2 18l99 -8q-5 -43 -8 -56t-14 -32q-44 -80 -132 -80q-51 0 -90 28q-34 25 -50 65q-6 15 -8 27t-2 49z" />
    <glyph glyph-name="Edotaccent" unicode="&#x116;" horiz-adv-x="483" 
d="M442 557h-254v-164h226v-110h-226v-173h263v-110h-381v667h372v-110zM261 861q29 0 50 -20.5t21 -49.5q0 -30 -21 -50.5t-50 -20.5q-30 0 -51 20.5t-21 50.5q0 29 21 49.5t51 20.5z" />
    <glyph glyph-name="edotaccent" unicode="&#x117;" horiz-adv-x="493" 
d="M142 179q24 -91 111 -91q74 0 111 59l6 9l96 -40q-21 -35 -32.5 -49.5t-32.5 -31.5q-63 -50 -148 -50q-104 0 -170 77q-58 67 -58 160q0 106 73 176q64 60 151 60q104 0 166 -78q54 -68 54 -169q0 -8 -1 -32h-326zM355 264q-29 93 -106 93q-40 0 -68 -24t-39 -69h213z
M246 664q30 0 50.5 -20.5t20.5 -49.5t-20.5 -49.5t-50.5 -20.5t-50.5 20.5t-20.5 49.5t20.5 49.5t50.5 20.5z" />
    <glyph glyph-name="Eogonek" unicode="&#x118;" horiz-adv-x="483" 
d="M451 0q-1 -2 -6 -8q-30 -39 -30 -56q0 -9 13 -9q17 0 49 12l34 -86q-39 -14 -53 -17.5t-35 -3.5q-52 0 -84 30q-27 27 -27 66q0 32 25 72h-267v667h372v-110h-254v-164h226v-110h-226v-173h263v-110z" />
    <glyph glyph-name="eogonek" unicode="&#x119;" horiz-adv-x="493" 
d="M298 -11q-28 -37 -28 -53q0 -9 13 -9q16 0 49 12l34 -86q-39 -14 -53.5 -17.5t-35.5 -3.5q-51 0 -83 30q-28 27 -28 66q0 30 22 66q-78 23 -124 92q-39 61 -39 136q0 106 73 176q64 60 151 60q104 0 166 -78q54 -68 54 -169q0 -8 -1 -32h-326q24 -91 111 -91q74 0 111 59
l6 9l96 -40q-21 -35 -32.5 -49.5t-32.5 -31.5q-46 -36 -103 -46zM355 264q-29 93 -106 93q-40 0 -68 -24t-39 -69h213z" />
    <glyph glyph-name="Ecaron" unicode="&#x11a;" horiz-adv-x="483" 
d="M261 807l89 89l86 -43l-138 -152h-73l-139 152l87 43zM442 557h-254v-164h226v-110h-226v-173h263v-110h-381v667h372v-110z" />
    <glyph glyph-name="ecaron" unicode="&#x11b;" horiz-adv-x="493" 
d="M246 607l89 89l86 -43l-138 -152h-73l-138 152l86 43zM142 179q24 -91 111 -91q74 0 111 59l6 9l96 -40q-21 -35 -32.5 -49.5t-32.5 -31.5q-63 -50 -148 -50q-104 0 -170 77q-58 67 -58 160q0 106 73 176q64 60 151 60q104 0 166 -78q54 -68 54 -169q0 -8 -1 -32h-326z
M355 264q-29 93 -106 93q-40 0 -68 -24t-39 -69h213z" />
    <glyph glyph-name="Gcircumflex" unicode="&#x11c;" horiz-adv-x="726" 
d="M369 780l-89 -88l-86 43l138 151h74l138 -151l-87 -43zM383 366h310v-57q0 -156 -96 -246q-82 -78 -211 -78q-97 0 -179 47q-80 46 -127 124q-48 81 -48 176q0 96 48 177q46 79 126 125q82 47 178 47q108 0 194 -61q21 -15 69 -61l-83 -80q-41 41 -58 53q-54 38 -122 38
q-106 0 -173 -77q-59 -67 -59 -161q0 -106 76 -175q66 -60 157 -60q109 0 162 88q15 27 23 71h-187v110z" />
    <glyph glyph-name="gcircumflex" unicode="&#x11d;" horiz-adv-x="544" 
d="M258 580l-89 -88l-86 43l138 151h74l138 -151l-86 -43zM377 28q-34 -24 -60 -33.5t-61 -9.5q-103 0 -171 78q-60 68 -60 159q0 105 76 175q66 61 155 61q35 0 61 -9t60 -34v28h114v-452q0 -114 -75 -181q-64 -58 -164 -58q-93 0 -161 54q-19 14 -58 60l74 74l18 -20
q32 -37 59 -51t67 -14q64 0 97 41q29 35 29 95v37zM260 355q-57 0 -91 -42q-29 -36 -29 -91q0 -63 38 -101q33 -32 82 -32q56 0 89 42q29 36 29 91q0 63 -37 100q-32 33 -81 33z" />
    <glyph glyph-name="Gbreve" unicode="&#x11e;" horiz-adv-x="726" 
d="M383 366h310v-57q0 -156 -96 -246q-82 -78 -211 -78q-97 0 -179 47q-80 46 -127 124q-48 81 -48 176q0 96 48 177q46 79 126 125q82 47 178 47q108 0 194 -61q21 -15 69 -61l-83 -80q-41 41 -58 53q-54 38 -122 38q-106 0 -173 -77q-59 -67 -59 -161q0 -106 76 -175
q66 -60 157 -60q109 0 162 88q15 27 23 71h-187v110zM235 864l99 9q1 -11 2 -21q2 -59 49 -59q45 0 53 61q1 5 3 18l99 -8q-5 -43 -8 -56t-14 -32q-44 -80 -132 -80q-51 0 -90 28q-34 25 -50 65q-7 15 -8.5 27t-2.5 48z" />
    <glyph glyph-name="gbreve" unicode="&#x11f;" horiz-adv-x="544" 
d="M377 28q-34 -24 -60 -33.5t-61 -9.5q-103 0 -171 78q-60 68 -60 159q0 105 76 175q66 61 155 61q35 0 61 -9t60 -34v28h114v-452q0 -114 -75 -181q-64 -58 -164 -58q-93 0 -161 54q-19 14 -58 60l74 74l18 -20q32 -37 59 -51t67 -14q64 0 97 41q29 35 29 95v37zM260 355
q-57 0 -91 -42q-29 -36 -29 -91q0 -63 38 -101q33 -32 82 -32q56 0 89 42q29 36 29 91q0 63 -37 100q-32 33 -81 33zM108 665l99 8q1 -11 1 -21q3 -59 50 -59q45 0 53 61q1 5 3 18l99 -8q-5 -43 -8 -56t-14 -32q-44 -80 -132 -80q-51 0 -90 28q-35 25 -51 65q-6 15 -7.5 27
t-2.5 49z" />
    <glyph glyph-name="Gdotaccent" unicode="&#x120;" horiz-adv-x="726" 
d="M383 366h310v-57q0 -156 -96 -246q-82 -78 -211 -78q-97 0 -179 47q-80 46 -127 124q-48 81 -48 176q0 96 48 177q46 79 126 125q82 47 178 47q108 0 194 -61q21 -15 69 -61l-83 -80q-41 41 -58 53q-54 38 -122 38q-106 0 -173 -77q-59 -67 -59 -161q0 -106 76 -175
q66 -60 157 -60q109 0 162 88q15 27 23 71h-187v110zM385 861q30 0 51 -20.5t21 -49.5q0 -30 -21 -50.5t-51 -20.5q-29 0 -50 20.5t-21 50.5q0 29 21 49.5t50 20.5z" />
    <glyph glyph-name="gdotaccent" unicode="&#x121;" horiz-adv-x="544" 
d="M377 28q-34 -24 -60 -33.5t-61 -9.5q-103 0 -171 78q-60 68 -60 159q0 105 76 175q66 61 155 61q35 0 61 -9t60 -34v28h114v-452q0 -114 -75 -181q-64 -58 -164 -58q-93 0 -161 54q-19 14 -58 60l74 74l18 -20q32 -37 59 -51t67 -14q64 0 97 41q29 35 29 95v37zM260 355
q-57 0 -91 -42q-29 -36 -29 -91q0 -63 38 -101q33 -32 82 -32q56 0 89 42q29 36 29 91q0 63 -37 100q-32 33 -81 33zM258 664q30 0 50.5 -20.5t20.5 -49.5t-20.5 -49.5t-50.5 -20.5t-50.5 20.5t-20.5 49.5t20.5 49.5t50.5 20.5z" />
    <glyph glyph-name="Gcommaaccent" unicode="&#x122;" horiz-adv-x="726" 
d="M338 -23l108 -32l-81 -189l-84 27zM383 366h310v-57q0 -156 -96 -246q-82 -78 -211 -78q-97 0 -179 47q-80 46 -127 124q-48 81 -48 176q0 96 48 177q46 79 126 125q82 47 178 47q108 0 194 -61q21 -15 69 -61l-83 -80q-41 41 -58 53q-54 38 -122 38q-106 0 -173 -77
q-59 -67 -59 -161q0 -106 76 -175q66 -60 157 -60q109 0 162 88q15 27 23 71h-187v110z" />
    <glyph glyph-name="gcommaaccent" unicode="&#x123;" horiz-adv-x="544" 
d="M309 481l-109 33l81 188l85 -27zM377 28q-34 -24 -60 -33.5t-61 -9.5q-103 0 -171 78q-60 68 -60 159q0 105 76 175q66 61 155 61q35 0 61 -9t60 -34v28h114v-452q0 -114 -75 -181q-64 -58 -164 -58q-93 0 -161 54q-19 14 -58 60l74 74l18 -20q32 -37 59 -51t67 -14
q64 0 97 41q29 35 29 95v37zM260 355q-57 0 -91 -42q-29 -36 -29 -91q0 -63 38 -101q33 -32 82 -32q56 0 89 42q29 36 29 91q0 63 -37 100q-32 33 -81 33z" />
    <glyph glyph-name="Hcircumflex" unicode="&#x124;" horiz-adv-x="651" 
d="M325 780l-88 -88l-87 43l139 151h73l138 -151l-86 -43zM188 393h274v274h119v-667h-119v283h-274v-283h-118v667h118v-274z" />
    <glyph glyph-name="hcircumflex" unicode="&#x125;" horiz-adv-x="509" 
d="M258 780l-89 -88l-86 43l138 151h74l138 -151l-87 -43zM167 420q26 21 49 29.5t54 8.5q39 0 75.5 -15.5t62.5 -43.5q48 -52 48 -161v-238h-114v231q0 75 -22 100q-21 24 -59 24q-49 0 -73 -31q-21 -26 -21 -102v-222h-114v667h114v-247z" />
    <glyph glyph-name="Hbar" unicode="&#x126;" horiz-adv-x="647" 
d="M579 501v-501h-118v283h-274v-283h-118v501h-57v103h57v63h118v-63h274v63h118v-63h57v-103h-57zM461 501h-274v-108h274v108z" />
    <glyph glyph-name="hbar" unicode="&#x127;" horiz-adv-x="507" 
d="M50 502h-57v102h57v63h114v-63h115v-102h-115v-82q27 21 49.5 29.5t53.5 8.5q39 0 75.5 -15.5t62.5 -43.5q49 -52 49 -161v-238h-114v231q0 75 -22 100q-22 24 -59 24q-49 0 -74 -31q-21 -26 -21 -102v-222h-114v502z" />
    <glyph glyph-name="Itilde" unicode="&#x128;" horiz-adv-x="258" 
d="M188 667v-667h-118v667h118zM191 865l95 -23q-3 -40 -10 -59q-11 -28 -34.5 -44t-54.5 -16t-76 21q-27 12 -32 12q-8 0 -10 -18q-1 -8 -4 -21l-93 22q3 32 5 40.5t9 22.5q27 56 87 56q16 0 30 -4t47 -19q24 -10 31 -10t8 17q0 5 2 23z" />
    <glyph glyph-name="itilde" unicode="&#x129;" horiz-adv-x="221" 
d="M167 443v-443h-114v443h114zM172 665l95 -23q-3 -40 -10 -59q-11 -28 -34.5 -44t-54.5 -16t-76 21q-27 12 -32 12q-8 0 -10 -18q-1 -8 -4 -21l-93 22q3 32 5 40.5t9 22.5q27 56 87 56q16 0 30 -4t47 -19q24 -10 31 -10t8 17q0 5 2 23z" />
    <glyph glyph-name="Imacron" unicode="&#x12a;" horiz-adv-x="258" 
d="M-27 842h312v-103h-312v103zM188 667v-667h-118v667h118z" />
    <glyph glyph-name="imacron" unicode="&#x12b;" horiz-adv-x="221" 
d="M-46 642h312v-103h-312v103zM167 443v-443h-114v443h114z" />
    <glyph glyph-name="Ibreve" unicode="&#x12c;" horiz-adv-x="258" 
d="M188 667v-667h-118v667h118zM-23 864l99 9q1 -11 1 -21q3 -59 50 -59q45 0 53 61q1 5 3 18l99 -8q-5 -43 -8.5 -56t-13.5 -32q-44 -80 -133 -80q-50 0 -90 28q-34 25 -50 65q-6 15 -7.5 27t-2.5 48z" />
    <glyph glyph-name="ibreve" unicode="&#x12d;" horiz-adv-x="221" 
d="M167 443v-443h-114v443h114zM-42 665l99 8q1 -11 1 -21q3 -59 50 -59q45 0 53 61q1 5 3 18l99 -8q-5 -43 -8.5 -56t-13.5 -32q-44 -80 -133 -80q-50 0 -90 28q-34 25 -50 65q-6 15 -7.5 27t-2.5 49z" />
    <glyph glyph-name="Iogonek" unicode="&#x12e;" horiz-adv-x="258" 
d="M189 0q-2 -2 -7 -8q-29 -39 -29 -56q0 -9 13 -9q16 0 48 12l34 -86q-39 -14 -53 -17.5t-35 -3.5q-51 0 -83 30q-28 27 -28 66q0 32 26 72h-5v667h119v-667z" />
    <glyph glyph-name="iogonek" unicode="&#x12f;" horiz-adv-x="221" 
d="M168 0q-2 -2 -7 -8q-29 -39 -29 -56q0 -9 13 -9q16 0 49 12l34 -86q-40 -14 -54 -17.5t-35 -3.5q-51 0 -83 30q-28 27 -28 66q0 33 26 72v443h114v-443zM111 664q29 0 50 -20.5t21 -49.5q0 -30 -21 -50.5t-50 -20.5q-30 0 -51 20.5t-21 50.5q0 29 21 49.5t51 20.5z" />
    <glyph glyph-name="Idotaccent" unicode="&#x130;" horiz-adv-x="258" 
d="M188 667v-667h-118v667h118zM129 861q30 0 51 -20.5t21 -49.5q0 -30 -21 -50.5t-51 -20.5q-29 0 -50 20.5t-21 50.5q0 29 21 49.5t50 20.5z" />
    <glyph glyph-name="dotlessi" unicode="&#x131;" horiz-adv-x="221" 
d="M167 443v-443h-114v443h114z" />
    <glyph glyph-name="IJ" unicode="&#x132;" horiz-adv-x="678" 
d="M188 667v-667h-118v667h118zM608 667v-460q0 -63 -11 -100t-38 -67q-50 -55 -134 -55q-47 0 -88.5 20.5t-88.5 67.5l75 86q58 -62 102 -62q34 0 49 25.5t15 84.5v460h119z" />
    <glyph glyph-name="ij" unicode="&#x133;" horiz-adv-x="447" 
d="M167 443v-443h-114v443h114zM110 664q30 0 51 -20.5t21 -49.5q0 -30 -21 -50.5t-51 -20.5q-29 0 -50 20.5t-21 50.5q0 29 21 49.5t50 20.5zM394 443v-535q0 -78 -36 -117q-32 -34 -87 -34q-29 0 -65 11v108q35 -11 52 -11q13 0 17.5 9t4.5 34v535h114zM337 664
q30 0 50.5 -20.5t20.5 -49.5q0 -30 -20.5 -50.5t-50.5 -20.5t-50.5 20.5t-20.5 50.5q0 29 20.5 49.5t50.5 20.5z" />
    <glyph glyph-name="Jcircumflex" unicode="&#x134;" horiz-adv-x="423" 
d="M257 780l-88 -88l-87 43l138 151h74l138 -151l-86 -43zM352 667v-460q0 -63 -10.5 -100t-38.5 -67q-49 -55 -133 -55q-47 0 -88.5 20.5t-88.5 67.5l74 86q58 -62 103 -62q34 0 49 25.5t15 84.5v460h118z" />
    <glyph glyph-name="jcircumflex" unicode="&#x135;" horiz-adv-x="230" 
d="M108 580l-89 -88l-86 43l138 151h74l138 -151l-87 -43zM176 443v-535q0 -78 -36 -117q-31 -34 -86 -34q-29 0 -66 11v108q36 -11 52 -11q13 0 17.5 9t4.5 34v535h114z" />
    <glyph glyph-name="Kcommaaccent" unicode="&#x136;" horiz-adv-x="592" 
d="M285 -23l108 -32l-81 -189l-85 27zM334 384l258 -384h-139l-199 297l-66 -70v-227h-118v667h118v-280l259 280h149z" />
    <glyph glyph-name="kcommaaccent" unicode="&#x137;" horiz-adv-x="482" 
d="M214 -23l109 -32l-81 -189l-85 27zM287 257l203 -257h-140l-141 181l-42 -41v-140h-114v667h114v-382l161 158h150z" />
    <glyph glyph-name="kgreenlandic" unicode="&#x138;" horiz-adv-x="482" 
d="M287 257l203 -257h-140l-141 181l-42 -41v-140h-114v443h114v-158l161 158h150z" />
    <glyph glyph-name="Lacute" unicode="&#x139;" horiz-adv-x="429" 
d="M291 845l-154 -154l-76 44l123 168zM189 667v-558h244v-109h-363v667h119z" />
    <glyph glyph-name="lacute" unicode="&#x13a;" horiz-adv-x="222" 
d="M274 857l-154 -154l-76 43l123 169zM168 0h-114v667h114v-667z" />
    <glyph glyph-name="Lcommaaccent" unicode="&#x13b;" horiz-adv-x="435" 
d="M236 -23l109 -32l-81 -189l-85 27zM188 667v-558h245v-109h-363v667h118z" />
    <glyph glyph-name="lcommaaccent" unicode="&#x13c;" horiz-adv-x="222" 
d="M70 -23l108 -32l-81 -189l-85 27zM168 0h-114v667h114v-667z" />
    <glyph glyph-name="Lcaron" unicode="&#x13d;" horiz-adv-x="435" 
d="M306 691l108 -33l-81 -188l-85 26zM188 667v-558h245v-109h-363v667h118z" />
    <glyph glyph-name="lcaron" unicode="&#x13e;" horiz-adv-x="352" 
d="M259 702l108 -32l-81 -189l-85 27zM168 0h-114v667h114v-667z" />
    <glyph glyph-name="Ldot" unicode="&#x13f;" horiz-adv-x="435" 
d="M188 667v-558h245v-109h-363v667h118zM338 403q29 0 50 -20t21 -50q0 -29 -21 -49.5t-50 -20.5q-30 0 -51 20.5t-21 49.5q0 30 21 50t51 20z" />
    <glyph glyph-name="ldot" unicode="&#x140;" horiz-adv-x="364" 
d="M293 403q29 0 50 -20t21 -50q0 -29 -21 -49.5t-50 -20.5q-30 0 -51 20.5t-21 49.5q0 30 21 50t51 20zM168 0h-114v667h114v-667z" />
    <glyph glyph-name="Lslash" unicode="&#x141;" horiz-adv-x="446" 
d="M199 442l108 70v-123l-108 -71v-209h245v-109h-363v241l-63 -41v123l63 41v303h118v-225z" />
    <glyph glyph-name="lslash" unicode="&#x142;" horiz-adv-x="265" 
d="M76 252l-61 -40v124l61 41v290h114v-214l60 41v-125l-60 -40v-329h-114v252z" />
    <glyph glyph-name="Nacute" unicode="&#x143;" horiz-adv-x="707" 
d="M521 845l-154 -154l-77 44l123 168zM70 0v667h102l347 -464v464h118v-667h-102l-347 463v-463h-118z" />
    <glyph glyph-name="nacute" unicode="&#x144;" horiz-adv-x="509" 
d="M423 645l-153 -154l-77 44l123 168zM167 420q26 21 49 29.5t54 8.5q39 0 75.5 -15.5t62.5 -43.5q48 -52 48 -161v-238h-114v231q0 75 -22 100q-21 24 -59 24q-49 0 -73 -31q-21 -26 -21 -102v-222h-114v443h114v-23z" />
    <glyph glyph-name="Ncommaaccent" unicode="&#x145;" horiz-adv-x="707" 
d="M330 -23l108 -32l-81 -189l-85 27zM70 0v667h102l347 -464v464h118v-667h-102l-347 463v-463h-118z" />
    <glyph glyph-name="ncommaaccent" unicode="&#x146;" horiz-adv-x="509" 
d="M231 -23l108 -32l-81 -189l-85 27zM167 420q26 21 49 29.5t54 8.5q39 0 75.5 -15.5t62.5 -43.5q48 -52 48 -161v-238h-114v231q0 75 -22 100q-21 24 -59 24q-49 0 -73 -31q-21 -26 -21 -102v-222h-114v443h114v-23z" />
    <glyph glyph-name="Ncaron" unicode="&#x147;" horiz-adv-x="707" 
d="M370 807l89 89l86 -43l-138 -152h-73l-139 152l87 43zM70 0v667h102l347 -464v464h118v-667h-102l-347 463v-463h-118z" />
    <glyph glyph-name="ncaron" unicode="&#x148;" horiz-adv-x="509" 
d="M260 607l88 89l86 -43l-137 -152h-74l-138 152l86 43zM167 420q26 21 49 29.5t54 8.5q39 0 75.5 -15.5t62.5 -43.5q48 -52 48 -161v-238h-114v231q0 75 -22 100q-21 24 -59 24q-49 0 -73 -31q-21 -26 -21 -102v-222h-114v443h114v-23z" />
    <glyph glyph-name="napostrophe" unicode="&#x149;" horiz-adv-x="604" 
d="M86 681l103 -38l-117 -261l-82 33zM262 420q26 21 49 29.5t54 8.5q38 0 75 -15.5t63 -43.5q48 -52 48 -161v-238h-114v231q0 75 -22 100q-21 24 -59 24q-49 0 -73 -31q-21 -26 -21 -102v-222h-114v443h114v-23z" />
    <glyph glyph-name="Eng" unicode="&#x14a;" horiz-adv-x="707" 
d="M637 0q1 -79 -36 -118q-31 -34 -86 -34q-29 0 -66 11v108q36 -12 52 -12q13 0 17.5 9.5t4.5 34.5v17l-335 447v-463h-118v667h102l347 -464v464h118v-667z" />
    <glyph glyph-name="eng" unicode="&#x14b;" horiz-adv-x="509" 
d="M167 420q26 21 49 29.5t54 8.5q39 0 75.5 -15.5t62.5 -43.5q48 -52 48 -161v-251q0 -68 -38 -106q-33 -33 -84 -33q-29 0 -66 11v108q36 -11 52 -11q13 0 17.5 9t4.5 33v233q0 75 -22 100q-21 24 -59 24q-49 0 -73 -31q-21 -26 -21 -102v-222h-114v443h114v-23z" />
    <glyph glyph-name="Omacron" unicode="&#x14c;" horiz-adv-x="762" 
d="M225 842h312v-103h-312v103zM32 333q0 94 48 175q46 79 125 126q82 47 176 47t175 -48q79 -46 126 -125q48 -81 48 -175q0 -93 -48 -175q-47 -78 -126 -125q-81 -48 -175 -48t-175 48q-79 47 -126 125q-48 82 -48 175zM152 333q0 -105 76 -175q65 -61 153 -61
q101 0 169 78q59 68 59 158q0 106 -75 176q-65 61 -153 61q-102 0 -170 -78q-59 -68 -59 -159z" />
    <glyph glyph-name="omacron" unicode="&#x14d;" horiz-adv-x="521" 
d="M105 642h312v-103h-312v103zM261 458q106 0 176 -77q59 -66 59 -159q0 -107 -77 -177q-66 -60 -158 -60q-107 0 -176 78q-60 66 -60 159q0 107 77 176q66 60 159 60zM261 355q-58 0 -92 -42q-29 -36 -29 -91q0 -63 38 -101q33 -32 83 -32q57 0 91 42q29 36 29 91
q0 63 -38 100q-32 33 -82 33z" />
    <glyph glyph-name="Obreve" unicode="&#x14e;" horiz-adv-x="762" 
d="M32 333q0 94 48 175q46 79 125 126q82 47 176 47t175 -48q79 -46 126 -125q48 -81 48 -175q0 -93 -48 -175q-47 -78 -126 -125q-81 -48 -175 -48t-175 48q-79 47 -126 125q-48 82 -48 175zM152 333q0 -105 76 -175q65 -61 153 -61q101 0 169 78q59 68 59 158
q0 106 -75 176q-65 61 -153 61q-102 0 -170 -78q-59 -68 -59 -159zM229 864l99 9q0 -11 1 -21q2 -59 49 -59q46 0 54 61q0 5 2 18l99 -8q-5 -43 -8 -56t-14 -32q-44 -80 -132 -80q-51 0 -90 28q-34 25 -50 65q-6 15 -8 27t-2 48z" />
    <glyph glyph-name="obreve" unicode="&#x14f;" horiz-adv-x="521" 
d="M261 458q106 0 176 -77q59 -66 59 -159q0 -107 -77 -177q-66 -60 -158 -60q-107 0 -176 78q-60 66 -60 159q0 107 77 176q66 60 159 60zM261 355q-58 0 -92 -42q-29 -36 -29 -91q0 -63 38 -101q33 -32 83 -32q57 0 91 42q29 36 29 91q0 63 -38 100q-32 33 -82 33z
M108 665l99 8q1 -11 2 -21q2 -59 49 -59q45 0 53 61q1 5 3 18l99 -8q-5 -43 -8 -56t-14 -32q-44 -80 -132 -80q-51 0 -90 28q-34 25 -50 65q-7 15 -8.5 27t-2.5 49z" />
    <glyph glyph-name="Ohungarumlaut" unicode="&#x150;" horiz-adv-x="762" 
d="M32 333q0 94 48 175q46 79 125 126q82 47 176 47t175 -48q79 -46 126 -125q48 -81 48 -175q0 -93 -48 -175q-47 -78 -126 -125q-81 -48 -175 -48t-175 48q-79 47 -126 125q-48 82 -48 175zM152 333q0 -105 76 -175q65 -61 153 -61q101 0 169 78q59 68 59 158
q0 106 -75 176q-65 61 -153 61q-102 0 -170 -78q-59 -68 -59 -159zM307 690l-64 45l122 169l99 -56zM513 904l96 -59l-154 -155l-67 42z" />
    <glyph glyph-name="ohungarumlaut" unicode="&#x151;" horiz-adv-x="523" 
d="M197 490l-64 45l122 169l99 -56zM403 704l96 -59l-154 -155l-66 42zM261 458q106 0 176 -77q59 -66 59 -159q0 -107 -77 -177q-66 -60 -158 -60q-107 0 -176 78q-60 66 -60 159q0 107 77 176q66 60 159 60zM261 355q-58 0 -92 -42q-29 -36 -29 -91q0 -63 38 -101
q33 -32 83 -32q57 0 91 42q29 36 29 91q0 63 -38 100q-32 33 -82 33z" />
    <glyph glyph-name="OE" unicode="&#x152;" horiz-adv-x="1023" 
d="M609 72q-99 -87 -229 -87q-93 0 -175 48q-79 47 -125 125q-48 82 -48 175q0 94 48 175q46 79 125 125q82 48 175 48q130 0 229 -86v72h372v-110h-253v-164h225v-110h-225v-173h263v-110h-382v72zM152 333q0 -105 76 -175q65 -61 153 -61q101 0 169 78q59 68 59 158
q0 106 -75 176q-65 61 -153 61q-102 0 -170 -78q-59 -68 -59 -159z" />
    <glyph glyph-name="oe" unicode="&#x153;" horiz-adv-x="849" 
d="M438 379q67 79 167 79q78 0 136 -49q52 -43 72 -110q12 -40 12 -89v-31h-326q24 -91 111 -91q74 0 110 58q2 4 6 10l97 -40q-22 -36 -33.5 -50t-32.5 -31q-63 -50 -147 -50q-105 0 -173 79q-69 -79 -177 -79q-106 0 -175 78q-60 66 -60 159q0 107 77 176q66 60 158 60
q108 0 178 -79zM261 355q-58 0 -92 -42q-29 -36 -29 -91q0 -63 38 -101q33 -32 83 -32q57 0 91 42q29 36 29 91q0 63 -38 100q-32 33 -82 33zM711 264q-29 93 -106 93q-40 0 -67.5 -24.5t-39.5 -68.5h213z" />
    <glyph glyph-name="Racute" unicode="&#x154;" horiz-adv-x="554" 
d="M412 845l-154 -154l-76 44l122 168zM380 283l159 -283h-133l-142 253q-24 -1 -41 -1h-35v-252h-118v667h153q67 0 110 -12.5t76 -39.5q34 -29 52.5 -70.5t18.5 -87.5q0 -59 -30 -107q-25 -42 -70 -67zM188 359h43q133 0 133 100q0 48 -31 74q-30 26 -102 26h-43v-200z
" />
    <glyph glyph-name="racute" unicode="&#x155;" horiz-adv-x="307" 
d="M305 645l-154 -154l-77 44l123 168zM167 415q38 31 87 31q15 0 42 -3v-102q-28 2 -41 2q-53 0 -72 -32q-16 -29 -16 -98v-213h-114v443h114v-28z" />
    <glyph glyph-name="Rcommaaccent" unicode="&#x156;" horiz-adv-x="554" 
d="M254 -23l109 -32l-82 -189l-84 27zM380 283l159 -283h-133l-142 253q-24 -1 -41 -1h-35v-252h-118v667h153q67 0 110 -12.5t76 -39.5q34 -29 52.5 -70.5t18.5 -87.5q0 -59 -30 -107q-25 -42 -70 -67zM188 359h43q133 0 133 100q0 48 -31 74q-30 26 -102 26h-43v-200z" />
    <glyph glyph-name="rcommaaccent" unicode="&#x157;" horiz-adv-x="307" 
d="M64 -23l108 -32l-81 -189l-85 27zM167 415q38 31 87 31q15 0 42 -3v-102q-28 2 -41 2q-53 0 -72 -32q-16 -29 -16 -98v-213h-114v443h114v-28z" />
    <glyph glyph-name="Rcaron" unicode="&#x158;" horiz-adv-x="554" 
d="M260 807l89 89l86 -43l-138 -152h-74l-138 152l86 43zM380 283l159 -283h-133l-142 253q-24 -1 -41 -1h-35v-252h-118v667h153q67 0 110 -12.5t76 -39.5q34 -29 52.5 -70.5t18.5 -87.5q0 -59 -30 -107q-25 -42 -70 -67zM188 359h43q133 0 133 100q0 48 -31 74
q-30 26 -102 26h-43v-200z" />
    <glyph glyph-name="rcaron" unicode="&#x159;" horiz-adv-x="304" 
d="M174 607l88 89l87 -43l-138 -152h-74l-138 152l86 43zM167 415q38 31 86 31q16 0 42 -3v-102q-27 2 -41 2q-52 0 -71 -32q-16 -29 -16 -98v-213h-114v443h114v-28z" />
    <glyph glyph-name="Sacute" unicode="&#x15a;" horiz-adv-x="520" 
d="M428 845l-154 -154l-76 44l122 168zM475 552l-97 -60q-24 37 -37 49q-29 30 -71 30q-43 0 -70 -27q-23 -23 -23 -57q0 -47 78 -76l63 -24q89 -34 129 -84q35 -44 35 -105q0 -96 -74 -158q-64 -55 -153 -55q-72 0 -128 38q-49 33 -74 88q-9 20 -23 76l115 30l2 -7
q3 -13 4 -17q25 -97 106 -97q47 0 78 33q27 29 27 68q0 30 -21.5 49.5t-74.5 40.5l-60 23q-147 56 -147 178q0 89 69 145q59 48 144 48q92 0 154 -63q19 -19 49 -66z" />
    <glyph glyph-name="sacute" unicode="&#x15b;" horiz-adv-x="384" 
d="M350 645l-153 -154l-77 44l123 168zM356 353l-89 -44q-19 27 -33 37.5t-34 10.5q-21 0 -33.5 -10t-12.5 -26q0 -15 9.5 -21.5t47.5 -21.5l40 -16q57 -21 82.5 -51t25.5 -74q0 -69 -54 -113q-47 -39 -112 -39q-88 0 -138 68q-18 24 -35 70l93 37q21 -41 38 -56.5t43 -15.5
q23 0 37 12.5t14 33.5q0 14 -10 22t-46 22l-45 17q-99 38 -99 123q0 64 51 105q43 35 105 35q53 0 89.5 -25t65.5 -80z" />
    <glyph glyph-name="Scircumflex" unicode="&#x15c;" horiz-adv-x="520" 
d="M258 780l-89 -88l-86 43l138 151h74l138 -151l-87 -43zM475 552l-97 -60q-24 37 -37 49q-29 30 -71 30q-43 0 -70 -27q-23 -23 -23 -57q0 -47 78 -76l63 -24q89 -34 129 -84q35 -44 35 -105q0 -96 -74 -158q-64 -55 -153 -55q-72 0 -128 38q-49 33 -74 88q-9 20 -23 76
l115 30l2 -7q3 -13 4 -17q25 -97 106 -97q47 0 78 33q27 29 27 68q0 30 -21.5 49.5t-74.5 40.5l-60 23q-147 56 -147 178q0 89 69 145q59 48 144 48q92 0 154 -63q19 -19 49 -66z" />
    </font>
</defs>
</svg>
