<?xml version="1.0" standalone="no"?>
<!DOCTYPE svg PUBLIC "-//W3C//DTD SVG 1.1//EN" "http://www.w3.org/Graphics/SVG/1.1/DTD/svg11.dtd" >
<svg xmlns="http://www.w3.org/2000/svg" xmlns:xlink="http://www.w3.org/1999/xlink" version="1.1">
<metadata>
Created by FontForge 20170731 at Wed Dec 20 17:38:27 2017
 By Aleksey,,,
(URW)++,Copyright 2017 by (URW)++ Design &#38; Development
</metadata>
<defs>
<font id="URWGeometricArabic-Heavy" horiz-adv-x="0" >
  <font-face 
    font-family="URWGeometricArabic-Heavy"
    font-weight="400"
    font-stretch="normal"
    units-per-em="1000"
    panose-1="0 0 0 0 0 0 0 0 0 0"
    ascent="731"
    descent="-269"
    x-height="443"
    cap-height="667"
    bbox="-445 -546 1457 1169"
    underline-thickness="132"
    underline-position="-431"
    unicode-range="U+0020-FEFC"
  />
<missing-glyph horiz-adv-x="364" 
d="M33 0v666h265v-666h-265zM66 33h199v600h-199v-600z" />
    <glyph glyph-name="uni064D0651" unicode="&#x64b;&#x651;" 
d="M-134 1079l-242 -44l-14 79l242 44zM-121 958l-242 -44l-14 79l242 44zM-250 709q-27 -15 -60 -15q-40 0 -66 23q-25 22 -25 57v108h74v-97q0 -18 19 -18q20 0 20 18v76h74v-76q0 -18 20 -18t20 18v97h74v-108q0 -40 -33 -62q-25 -18 -60 -18q-36 0 -57 15z" />
    <glyph glyph-name="fi" unicode="fi" horiz-adv-x="505" 
d="M198 317v-317h-142v317h-40v126h40v75q0 81 40 122q36 36 97 36q33 0 75 -9v-127q-25 9 -43 9q-27 0 -27 -34v-72h72v-126h-72zM301 596q0 36 28 61q24 21 57 21q38 0 63 -27q22 -24 22 -55q0 -37 -28 -61q-24 -21 -57 -21q-38 0 -63 27q-22 23 -22 55zM457 443v-443
h-142v443h142z" />
    <glyph glyph-name="fl" unicode="fl" horiz-adv-x="506" 
d="M198 317v-317h-142v317h-40v126h40v75q0 81 40 122q36 36 97 36q33 0 75 -9v-127q-25 9 -43 9q-27 0 -27 -34v-72h72v-126h-72zM458 0h-143v667h143v-667z" />
    <glyph glyph-name="uniFC5E" unicode="&#x64c;&#x651;" arabic-form="isolated" 
d="M-245 997q-20 26 -20 50q0 45 29 75q26 26 63 26q46 0 72 -37q21 -28 21 -65q0 -65 -48 -102q-39 -29 -94 -29q-65 0 -115 35l-24 -33l-70 53l55 85h35q39 -56 96 -58zM-170 1003q11 4 18.5 16.5t7.5 26.5t-8 23t-20 9q-25 0 -25 -30q0 -15 7.5 -28t19.5 -17zM-250 709
q-27 -15 -60 -15q-40 0 -66 23q-25 22 -25 57v108h74v-97q0 -18 19 -18q20 0 20 18v76h74v-76q0 -18 20 -18t20 18v97h74v-108q0 -40 -33 -62q-25 -18 -60 -18q-36 0 -57 15z" />
    <glyph glyph-name="uniFC5F" unicode="&#x64d;&#x651;" arabic-form="isolated" 
d="M-257 974q-27 -15 -60 -15q-40 0 -66 23q-25 22 -25 57v108h74v-97q0 -18 19 -18q20 0 20 18v76h74v-76q0 -18 20 -18t20 18v97h73v-108q0 -40 -32 -62q-26 -18 -60 -18q-36 0 -57 15zM-129 850l-242 -43l-14 79l242 44zM-117 730l-241 -44l-14 78l242 45z" />
    <glyph glyph-name="uniFC60" unicode="&#x64e;&#x651;" arabic-form="isolated" 
d="M-133 964l-244 -44l-16 88l244 44zM-250 709q-27 -15 -60 -15q-40 0 -66 23q-25 22 -25 57v108h74v-97q0 -18 19 -18q20 0 20 18v76h74v-76q0 -18 20 -18t20 18v97h74v-108q0 -40 -33 -62q-25 -18 -60 -18q-36 0 -57 15z" />
    <glyph glyph-name="uniFC61" unicode="&#x64f;&#x651;" arabic-form="isolated" 
d="M-204 950l-183 -33l-14 76l125 22q-18 26 -18 55q0 42 29 72q26 27 63 27q45 0 71 -35q22 -29 22 -68q0 -49 -33 -83q-26 -26 -62 -33zM-199 1029q10 4 16.5 15.5t6.5 24.5q0 27 -24 27q-23 0 -23 -26q0 -32 24 -41zM-250 709q-27 -15 -60 -15q-40 0 -66 23
q-25 22 -25 57v108h74v-97q0 -18 19 -18q20 0 20 18v76h74v-76q0 -18 20 -18t20 18v97h74v-108q0 -40 -33 -62q-25 -18 -60 -18q-36 0 -57 15z" />
    <glyph glyph-name="uniFC62" unicode="&#x650;&#x651;" arabic-form="isolated" 
d="M-256 866q-27 -15 -60 -15q-40 0 -66 23q-25 22 -25 57v108h74v-97q0 -18 19 -18q20 0 20 18v76h74v-76q0 -18 20 -18t20 18v97h73v-108q0 -40 -32 -62q-26 -18 -60 -18q-36 0 -57 15zM-120 730l-244 -44l-15 89l243 44z" />
    <glyph glyph-name="uniFC63" unicode="&#x651;&#x670;" arabic-form="isolated" 
d="M-212 910h-83v189h83v-189zM-250 709q-27 -15 -60 -15q-40 0 -66 23q-25 22 -25 57v108h74v-97q0 -18 19 -18q20 0 20 18v76h74v-76q0 -18 20 -18t20 18v97h74v-108q0 -40 -33 -62q-25 -18 -60 -18q-36 0 -57 15z" />
    <glyph glyph-name="uniFDF2" unicode="&#x627;&#xfedf;&#xfee0;&#x6c1;" horiz-adv-x="1517" arabic-form="isolated" 
d="M758 884h-82v184h82v-184zM718 674q-25 -15 -58 -15q-41 0 -67 23q-25 21 -25 56v106h73v-95q0 -18 20 -18q19 0 19 18v74h74v-74q0 -18 20 -18q21 0 21 18v95h73v-106q0 -39 -33 -62q-25 -17 -59 -17q-37 0 -58 15zM1443 0h-148v666h148v-666zM717 64q-55 -64 -183 -64
q-139 0 -196 76q-46 -43 -113 -43q-82 0 -136 58q-52 56 -52 146q0 99 64 161q58 55 147 55h50v44h132v-235q0 -69 25 -94q24 -24 81 -24q65 0 88 32q19 27 19 88v315h148v-315q0 -70 25 -96q24 -24 82 -24q64 0 87 31q19 26 19 87v317h149v-351q0 -124 -69 -179
q-62 -49 -186 -49q-126 0 -181 64zM298 334h-47q-35 0 -55 -22.5t-20 -63.5q0 -49 24 -79q20 -25 49 -25t53 23q-4 24 -4 61v106z" />
    <glyph glyph-name="uniFEF5" unicode="&#xfedf;&#xfe82;" horiz-adv-x="713" arabic-form="isolated" 
d="M409 649q-14 -32 -39.5 -51t-54.5 -19q-33 0 -73 22q-22 12 -34 12q-25 0 -52 -31l-46 39q14 36 39 56.5t54 20.5q23 0 59 -20q30 -17 53 -17q25 0 45 32zM396 0h-359v144h144v388h149v-388h55q68 0 90 32q17 25 17 86v404h148v-443q0 -121 -66 -175q-60 -48 -178 -48z
" />
    <glyph glyph-name="uniFEF6" unicode="&#xfee0;&#xfe82;" horiz-adv-x="772" arabic-form="final" 
d="M409 649q-14 -32 -39.5 -51t-54.5 -19q-33 0 -73 22q-22 12 -34 12q-25 0 -52 -31l-46 39q14 36 39 56.5t54 20.5q23 0 59 -20q30 -17 53 -17q25 0 45 32zM396 0h-359v144h144v388h149v-388h55q68 0 90 32q17 25 17 86v404h148v-404q0 -69 24 -94q23 -24 83 -24h35v-144
h-46q-116 0 -169 62q-56 -62 -171 -62z" />
    <glyph glyph-name="uniFEF7" unicode="&#xfedf;&#xfe84;" horiz-adv-x="714" arabic-form="isolated" 
d="M361 599h-213v66h48q-11 22 -11 42q0 36 27 60q24 21 57 21q39 0 68 -33l-23 -44q-17 12 -36 12q-14 0 -23 -7.5t-9 -19.5q0 -14 13 -31h102v-66zM396 0h-359v144h144v388h149v-388h55q68 0 90 32q17 25 17 86v404h148v-443q0 -121 -66 -175q-60 -48 -178 -48z" />
    <glyph glyph-name="uniFEF8" unicode="&#xfee0;&#xfe84;" horiz-adv-x="772" arabic-form="final" 
d="M361 599h-213v66h48q-11 22 -11 42q0 36 27 60q24 21 57 21q39 0 68 -33l-23 -44q-17 12 -36 12q-14 0 -23 -7.5t-9 -19.5q0 -14 13 -31h102v-66zM396 0h-359v144h144v388h149v-388h55q68 0 90 32q17 25 17 86v404h148v-404q0 -69 24 -94q23 -24 83 -24h35v-144h-46
q-116 0 -169 62q-56 -62 -171 -62z" />
    <glyph glyph-name="uniFEF9" unicode="&#xfedf;&#xfe88;" horiz-adv-x="714" arabic-form="isolated" 
d="M396 0h-359v144h144v388h149v-388h55q68 0 90 32q17 25 17 86v404h148v-443q0 -121 -66 -175q-60 -48 -178 -48zM361 -276h-213v66h48q-11 20 -11 41q0 37 27 61q23 20 56 20q38 0 69 -32l-23 -45q-19 13 -36 13q-32 0 -32 -27q0 -15 13 -31h102v-66z" />
    <glyph glyph-name="uniFEFA" unicode="&#xfee0;&#xfe88;" horiz-adv-x="772" arabic-form="final" 
d="M396 0h-359v144h144v388h149v-388h55q68 0 90 32q17 25 17 86v404h148v-404q0 -69 24 -94q23 -24 83 -24h35v-144h-46q-116 0 -169 62q-56 -62 -171 -62zM361 -276h-213v66h48q-11 20 -11 41q0 37 27 61q23 20 56 20q38 0 69 -32l-23 -45q-19 13 -36 13q-32 0 -32 -27
q0 -15 13 -31h102v-66z" />
    <glyph glyph-name="uniFEFB" unicode="&#xfedf;&#xfe8e;" horiz-adv-x="714" arabic-form="isolated" 
d="M396 0h-359v144h144v388h149v-388h55q68 0 90 32q17 25 17 86v404h148v-443q0 -121 -66 -175q-60 -48 -178 -48z" />
    <glyph glyph-name="uniFEFC" unicode="&#xfee0;&#xfe8e;" horiz-adv-x="772" arabic-form="final" 
d="M396 0h-359v144h144v388h149v-388h55q68 0 90 32q17 25 17 86v404h148v-404q0 -69 24 -94q23 -24 83 -24h35v-144h-46q-116 0 -169 62q-56 -62 -171 -62z" />
    <glyph glyph-name="uniFB50" unicode="&#x671;" horiz-adv-x="297" arabic-form="isolated" 
d="M32 774q47 145 161 145q58 0 88 -31q23 -25 23 -62q0 -64 -59 -97q-47 -27 -121 -27q-24 0 -36 1q-5 -23 -9 -46l-71 9q2 18 8 45q-42 6 -63 14l12 60q21 -5 67 -11zM106 770h15q99 0 99 52q0 28 -33 28q-53 0 -81 -80zM224 0h-150v608h150v-608z" />
    <glyph glyph-name="uniFB51" unicode="&#x671;" horiz-adv-x="354" arabic-form="final" 
d="M88 703q-5 -23 -9 -46l-71 9q2 18 8 45q-42 6 -63 14l12 60q21 -5 67 -11q47 145 161 145q58 0 88 -31q23 -25 23 -62q0 -64 -59 -97q-47 -27 -121 -27q-24 0 -36 1zM106 770h15q99 0 99 52q0 28 -33 28q-53 0 -81 -80zM222 608v-346q0 -70 23 -94q24 -24 84 -24h35v-144
h-46q-135 0 -193 63q-51 54 -51 160v385h148z" />
    <glyph glyph-name="uniFB52" unicode="&#x67b;" horiz-adv-x="890" arabic-form="isolated" 
d="M585 0h-280q-116 0 -182 81q-51 63 -51 149q0 69 36 124q35 51 94 76l58 -89q-56 -33 -56 -96q0 -44 31 -73q31 -28 79 -28h251q62 0 85 32q18 27 18 88v175h148v-211q0 -125 -62 -179q-55 -49 -169 -49zM512 -139q0 -28 -19.5 -47.5t-48.5 -19.5t-49 19.5t-20 47.5
t20 47.5t49 19.5t48.5 -19.5t19.5 -47.5zM512 -288q0 -28 -19.5 -47.5t-48.5 -19.5t-49 19.5t-20 47.5t20 47.5t49 19.5q28 0 48 -19.5t20 -47.5z" />
    <glyph glyph-name="uniFB53" unicode="&#x67b;" horiz-adv-x="947" arabic-form="final" 
d="M585 0h-280q-116 0 -182 81q-51 63 -51 149q0 69 36 124q35 51 94 76l58 -89q-56 -33 -56 -96q0 -44 31 -73q31 -28 79 -28h251q62 0 85 32q18 27 18 88v175h148v-175q0 -70 25 -96q24 -24 82 -24h34v-144h-44q-114 0 -168 61q-52 -61 -160 -61zM505 -139
q0 -28 -19.5 -47.5t-48.5 -19.5t-48.5 19.5t-19.5 47.5t19.5 47.5t48.5 19.5t48.5 -19.5t19.5 -47.5zM505 -288q0 -28 -19.5 -47.5t-48.5 -19.5t-48.5 19.5t-19.5 47.5t20 47.5t48 19.5t48 -19.5t20 -47.5z" />
    <glyph glyph-name="uniFB54" unicode="&#x67b;" horiz-adv-x="353" arabic-form="initial" 
d="M-10 0v144h34q65 0 88 32q19 27 19 88v175h148v-211q0 -124 -67 -179q-60 -49 -178 -49h-44zM137 -355q-29 0 -48.5 19.5t-19.5 47.5t20 47.5t48 19.5q29 0 49 -19.5t20 -47.5t-20 -47.5t-49 -19.5zM137 -206q-29 0 -48.5 19.5t-19.5 47.5t19.5 47.5t48.5 19.5t49 -19.5
t20 -47.5t-20 -47.5t-49 -19.5z" />
    <glyph glyph-name="uniFB55" unicode="&#x67b;" horiz-adv-x="410" arabic-form="medial" 
d="M-10 0v144h34q65 0 88 32q19 27 19 88v175h148v-175q0 -70 25 -96q24 -24 82 -24h34v-144h-44q-116 0 -170 64q-57 -64 -172 -64h-44zM201 -355q-29 0 -49 19.5t-20 47.5t20 47.5t49 19.5q28 0 48 -19.5t20 -47.5t-19.5 -47.5t-48.5 -19.5zM201 -206q-29 0 -49 19.5
t-20 47.5t20 47.5t49 19.5t48.5 -19.5t19.5 -47.5t-19.5 -47.5t-48.5 -19.5z" />
    <glyph glyph-name="uniFB56" unicode="&#x67e;" horiz-adv-x="890" arabic-form="isolated" 
d="M585 0h-280q-116 0 -182 81q-51 63 -51 149q0 69 36 124q35 51 94 76l58 -89q-56 -33 -56 -96q0 -44 31 -73q31 -28 79 -28h251q62 0 85 32q18 27 18 88v175h148v-211q0 -125 -62 -179q-55 -49 -169 -49zM436 -146q0 -34 -26 -56q-22 -19 -51 -19q-34 0 -57 25
q-20 21 -20 50q0 33 26 55q22 19 51 19q34 0 57 -24q20 -22 20 -50zM604 -146q0 -34 -26 -56q-22 -19 -51 -19q-34 0 -57 25q-20 21 -20 50q0 33 26 55q22 19 51 19q34 0 57 -24q20 -22 20 -50zM514 -287q0 -28 -20.5 -48t-49.5 -20t-49.5 20t-20.5 48t20.5 48t49.5 20
t49.5 -20t20.5 -48z" />
    <glyph glyph-name="uniFB57" unicode="&#x67e;" horiz-adv-x="947" arabic-form="final" 
d="M585 0h-280q-116 0 -182 81q-51 63 -51 149q0 69 36 124q35 51 94 76l58 -89q-56 -33 -56 -96q0 -44 31 -73q31 -28 79 -28h251q62 0 85 32q18 27 18 88v175h148v-175q0 -70 25 -96q24 -24 82 -24h34v-144h-44q-114 0 -168 61q-52 -61 -160 -61zM430 -146q0 -34 -26 -56
q-22 -19 -52 -19q-33 0 -56 25q-20 21 -20 50q0 33 25 55q22 19 51 19q35 0 58 -24q20 -21 20 -50zM598 -146q0 -34 -26 -56q-22 -19 -52 -19q-33 0 -56 25q-20 21 -20 50q0 33 25 55q22 19 51 19q35 0 58 -24q20 -21 20 -50zM507 -287q0 -28 -20.5 -48t-49.5 -20t-49 20
t-20 48t20 48t49 20t49.5 -20t20.5 -48z" />
    <glyph glyph-name="uniFB58" unicode="&#x67e;" horiz-adv-x="353" arabic-form="initial" 
d="M-10 0v144h34q65 0 88 32q19 27 19 88v175h148v-211q0 -124 -67 -179q-60 -49 -178 -49h-44zM122 -355q-29 0 -49 20t-20 48t20 48t49 20t49.5 -20t20.5 -48t-20.5 -48t-49.5 -20zM37 -221q-33 0 -56 25q-20 21 -20 50q0 33 25 55q22 19 51 19q35 0 58 -24q20 -21 20 -50
q0 -34 -26 -56q-22 -19 -52 -19zM205 -221q-33 0 -56 25q-20 21 -20 50q0 33 25 55q22 19 51 19q35 0 58 -24q20 -21 20 -50q0 -34 -26 -56q-22 -19 -52 -19z" />
    <glyph glyph-name="uniFB59" unicode="&#x67e;" horiz-adv-x="410" arabic-form="medial" 
d="M34 0h-44v144h34q65 0 88 32q19 27 19 88v175h148v-175q0 -70 25 -96q24 -24 82 -24h34v-144h-44q-116 0 -170 64q-57 -64 -172 -64zM195 -146q0 -34 -26 -56q-22 -19 -52 -19q-33 0 -56 25q-20 21 -20 50q0 33 25 55q22 19 51 19q35 0 58 -24q20 -21 20 -50zM363 -146
q0 -34 -26 -56q-22 -19 -51 -19q-34 0 -57 25q-20 21 -20 50q0 33 26 55q22 19 51 19q34 0 57 -24q20 -22 20 -50zM273 -287q0 -28 -20.5 -48t-50.5 -20q-29 0 -49 20t-20 48t20 48t49 20q30 0 50.5 -20t20.5 -48z" />
    <glyph glyph-name="uniFB5A" unicode="&#x680;" horiz-adv-x="890" arabic-form="isolated" 
d="M585 0h-280q-116 0 -182 81q-51 63 -51 149q0 69 36 124q35 51 94 76l58 -89q-56 -33 -56 -96q0 -44 31 -73q31 -28 79 -28h251q62 0 85 32q18 27 18 88v175h148v-211q0 -125 -62 -179q-55 -49 -169 -49zM437 -139q0 -28 -20 -47t-49 -19t-48.5 19t-19.5 47t19.5 47.5
t48.5 19.5t49 -19.5t20 -47.5zM587 -139q0 -28 -20 -47t-49 -19q-28 0 -47.5 19t-19.5 47t19.5 47.5t47.5 19.5q29 0 49 -19.5t20 -47.5zM437 -288q0 -28 -20 -47t-49 -19q-28 0 -48 19.5t-20 46.5q0 28 20 47.5t48 19.5q29 0 49 -19.5t20 -47.5zM587 -288q0 -28 -20 -47
t-49 -19q-28 0 -47.5 19t-19.5 47t19.5 47.5t47.5 19.5q29 0 49 -19.5t20 -47.5z" />
    <glyph glyph-name="uniFB5B" unicode="&#x680;" horiz-adv-x="947" arabic-form="final" 
d="M585 0h-280q-116 0 -182 81q-51 63 -51 149q0 69 36 124q35 51 94 76l58 -89q-56 -33 -56 -96q0 -44 31 -73q31 -28 79 -28h251q62 0 85 32q18 27 18 88v175h148v-175q0 -70 25 -96q24 -24 82 -24h34v-144h-44q-114 0 -168 61q-52 -61 -160 -61zM430 -139
q0 -28 -19.5 -47t-48.5 -19t-49 19t-20 47t20 47.5t49 19.5t48.5 -19.5t19.5 -47.5zM581 -139q0 -28 -20 -47t-49 -19t-48.5 19t-19.5 47t19.5 47.5t48.5 19.5t49 -19.5t20 -47.5zM430 -288q0 -27 -20 -46.5t-48 -19.5q-29 0 -49 19t-20 47t20 47.5t49 19.5q28 0 48 -19.5
t20 -47.5zM581 -288q0 -28 -20 -47t-49 -19t-48.5 19t-19.5 47t19.5 47.5t48.5 19.5t49 -19.5t20 -47.5z" />
    <glyph glyph-name="uniFB5C" unicode="&#x680;" horiz-adv-x="353" arabic-form="initial" 
d="M-10 0v144h34q65 0 88 32q19 27 19 88v175h148v-211q0 -124 -67 -179q-60 -49 -178 -49h-44zM62 -354q-28 0 -48 19.5t-20 46.5q0 28 20 47.5t48 19.5q29 0 48.5 -19.5t19.5 -47.5t-19.5 -47t-48.5 -19zM212 -354q-28 0 -47.5 19t-19.5 47t19.5 47.5t47.5 19.5
q29 0 49 -19.5t20 -47.5t-20 -47t-49 -19zM62 -205q-29 0 -48.5 19t-19.5 47t19.5 47.5t48.5 19.5t48.5 -19.5t19.5 -47.5t-19.5 -47t-48.5 -19zM212 -205q-28 0 -47.5 19t-19.5 47t19.5 47.5t47.5 19.5q29 0 49 -19.5t20 -47.5t-20 -47t-49 -19z" />
    <glyph glyph-name="uniFB5D" unicode="&#x680;" horiz-adv-x="410" arabic-form="medial" 
d="M-10 0v144h34q65 0 88 32q19 27 19 88v175h148v-175q0 -70 25 -96q24 -24 82 -24h34v-144h-44q-116 0 -170 64q-57 -64 -172 -64h-44zM103 -354q-28 0 -48 19.5t-20 46.5q0 28 20 47.5t48 19.5q29 0 48.5 -19.5t19.5 -47.5t-19.5 -47t-48.5 -19zM253 -354q-28 0 -47.5 19
t-19.5 47t19.5 47.5t47.5 19.5q29 0 49 -19.5t20 -47.5t-20 -47t-49 -19zM103 -205q-29 0 -48.5 19t-19.5 47t19.5 47.5t48.5 19.5t48.5 -19.5t19.5 -47.5t-19.5 -47t-48.5 -19zM253 -205q-28 0 -47.5 19t-19.5 47t19.5 47.5t47.5 19.5q29 0 49 -19.5t20 -47.5t-20 -47
t-49 -19z" />
    <glyph glyph-name="uniFB5E" unicode="&#x67a;" horiz-adv-x="890" arabic-form="isolated" 
d="M517 657q0 -28 -19.5 -47.5t-48.5 -19.5t-49 19.5t-20 47.5t20 47.5t49 19.5q28 0 48 -19.5t20 -47.5zM517 506q0 -28 -19.5 -47.5t-48.5 -19.5t-49 19.5t-20 47.5t20 47.5t49 19.5t48.5 -19.5t19.5 -47.5zM585 0h-280q-116 0 -182 81q-51 63 -51 149q0 69 36 124
q35 51 94 76l58 -89q-56 -33 -56 -96q0 -44 31 -73q31 -28 79 -28h251q62 0 85 32q18 27 18 88v175h148v-211q0 -125 -62 -179q-55 -49 -169 -49z" />
    <glyph glyph-name="uniFB5F" unicode="&#x67a;" horiz-adv-x="947" arabic-form="final" 
d="M518 657q0 -29 -19.5 -48.5t-48.5 -19.5t-48.5 19.5t-19.5 48.5q0 28 20 47.5t48 19.5t48 -19.5t20 -47.5zM518 506q0 -28 -19.5 -47.5t-48.5 -19.5t-48.5 19.5t-19.5 47.5t19.5 47.5t48.5 19.5t48.5 -19.5t19.5 -47.5zM585 0h-280q-116 0 -182 81q-51 63 -51 149
q0 69 36 124q35 51 94 76l58 -89q-56 -33 -56 -96q0 -44 31 -73q31 -28 79 -28h251q62 0 85 32q18 27 18 88v175h148v-175q0 -70 25 -96q24 -24 82 -24h34v-144h-44q-114 0 -168 61q-52 -61 -160 -61z" />
    <glyph glyph-name="uniFB60" unicode="&#x67a;" horiz-adv-x="353" arabic-form="initial" 
d="M269 737q0 -28 -19.5 -47.5t-48.5 -19.5t-48.5 19.5t-19.5 47.5t20 47.5t48 19.5t48 -19.5t20 -47.5zM269 586q0 -28 -19.5 -47.5t-48.5 -19.5t-48.5 19.5t-19.5 47.5t19.5 47.5t48.5 19.5t48.5 -19.5t19.5 -47.5zM34 0h-44v144h34q65 0 88 32q19 27 19 88v175h148v-211
q0 -124 -67 -179q-60 -49 -178 -49z" />
    <glyph glyph-name="uniFB61" unicode="&#x67a;" horiz-adv-x="410" arabic-form="medial" 
d="M275 737q0 -28 -20 -47.5t-49 -19.5t-48.5 19.5t-19.5 47.5t20 47.5t48 19.5q29 0 49 -19.5t20 -47.5zM275 586q0 -28 -20 -47.5t-49 -19.5t-48.5 19.5t-19.5 47.5t19.5 47.5t48.5 19.5t49 -19.5t20 -47.5zM34 0h-44v144h34q65 0 88 32q19 27 19 88v175h148v-175
q0 -70 25 -96q24 -24 82 -24h34v-144h-44q-116 0 -170 64q-57 -64 -172 -64z" />
    <glyph glyph-name="uniFB62" unicode="&#x67f;" horiz-adv-x="890" arabic-form="isolated" 
d="M441 656q0 -28 -20 -47.5t-49 -19.5t-48.5 19.5t-19.5 47.5t19.5 47t48.5 19t49 -19t20 -47zM592 656q0 -28 -20 -47.5t-50 -19.5q-28 0 -47.5 19.5t-19.5 47.5t19.5 47t47.5 19q29 0 49.5 -19t20.5 -47zM441 506q0 -28 -20 -47.5t-49 -19.5q-28 0 -48 19.5t-20 47.5
q0 27 20 46.5t48 19.5q29 0 49 -19t20 -47zM592 506q0 -28 -20 -47.5t-50 -19.5q-28 0 -47.5 19.5t-19.5 47.5t19.5 47t47.5 19q29 0 49.5 -19t20.5 -47zM585 0h-280q-116 0 -182 81q-51 63 -51 149q0 69 36 124q35 51 94 76l58 -89q-56 -33 -56 -96q0 -44 31 -73
q31 -28 79 -28h251q62 0 85 32q18 27 18 88v175h148v-211q0 -125 -62 -179q-55 -49 -169 -49z" />
    <glyph glyph-name="uniFB63" unicode="&#x67f;" horiz-adv-x="947" arabic-form="final" 
d="M443 653q0 -28 -20 -47.5t-49 -19.5q-28 0 -48 19.5t-20 47.5t20 47.5t48 19.5q29 0 49 -19.5t20 -47.5zM594 653q0 -28 -20 -47.5t-49 -19.5q-28 0 -48 19.5t-20 47.5t20 47.5t48 19.5q29 0 49 -19.5t20 -47.5zM443 503q0 -28 -20 -47.5t-49 -19.5q-28 0 -48 19.5
t-20 47.5t20 47.5t48 19.5q29 0 49 -19.5t20 -47.5zM594 503q0 -28 -20 -47.5t-49 -19.5q-28 0 -48 19.5t-20 47.5t20 47.5t48 19.5q29 0 49 -19.5t20 -47.5zM585 0h-280q-116 0 -182 81q-51 63 -51 149q0 69 36 124q35 51 94 76l58 -89q-56 -33 -56 -96q0 -44 31 -73
q31 -28 79 -28h251q62 0 85 32q18 27 18 88v175h148v-175q0 -70 25 -96q24 -24 82 -24h34v-144h-44q-114 0 -168 61q-52 -61 -160 -61z" />
    <glyph glyph-name="uniFB64" unicode="&#x67f;" horiz-adv-x="353" arabic-form="initial" 
d="M194 733q0 -28 -20 -47.5t-49 -19.5q-28 0 -48 19.5t-20 47.5t20 47.5t48 19.5q29 0 49 -19.5t20 -47.5zM345 733q0 -28 -20 -47.5t-49 -19.5q-28 0 -48 19.5t-20 47.5t20 47.5t48 19.5q29 0 49 -19.5t20 -47.5zM194 583q0 -28 -20 -47t-49 -19q-28 0 -48 19.5t-20 46.5
q0 28 20 47.5t48 19.5q29 0 49 -19.5t20 -47.5zM345 583q0 -28 -20 -47t-49 -19t-48.5 19t-19.5 47t19.5 47.5t48.5 19.5t49 -19.5t20 -47.5zM34 0h-44v144h34q65 0 88 32q19 27 19 88v175h148v-211q0 -124 -67 -179q-60 -49 -178 -49z" />
    <glyph glyph-name="uniFB65" unicode="&#x67f;" horiz-adv-x="410" arabic-form="medial" 
d="M199 733q0 -28 -20 -47.5t-48 -19.5t-48 19.5t-20 47.5t20 47.5t48 19.5t48 -19.5t20 -47.5zM350 733q0 -28 -20 -47.5t-49 -19.5q-28 0 -47.5 19.5t-19.5 47.5t19.5 47.5t47.5 19.5q29 0 49 -19.5t20 -47.5zM199 583q0 -27 -20 -46.5t-48 -19.5t-48 19.5t-20 46.5
q0 28 20 47.5t48 19.5t48 -19.5t20 -47.5zM350 583q0 -28 -20 -47t-49 -19q-28 0 -47.5 19t-19.5 47t19.5 47.5t47.5 19.5q29 0 49 -19.5t20 -47.5zM34 0h-44v144h34q65 0 88 32q19 27 19 88v175h148v-175q0 -70 25 -96q24 -24 82 -24h34v-144h-44q-116 0 -170 64
q-57 -64 -172 -64z" />
    <glyph glyph-name="uniFB66" unicode="&#x679;" horiz-adv-x="890" arabic-form="isolated" 
d="M508 468h-234v68h70v195h71v-113q42 56 104 56q53 0 81 -32q26 -29 26 -75q0 -99 -118 -99zM417 536l90 1q42 0 42 30q0 17 -12.5 27.5t-31.5 10.5q-26 0 -50 -19t-38 -50zM585 0h-280q-116 0 -182 81q-51 63 -51 149q0 69 36 124q35 51 94 76l58 -89q-56 -33 -56 -96
q0 -44 31 -73q31 -28 79 -28h251q62 0 85 32q18 27 18 88v175h148v-211q0 -125 -62 -179q-55 -49 -169 -49z" />
    <glyph glyph-name="uniFB67" unicode="&#x679;" horiz-adv-x="947" arabic-form="final" 
d="M508 468h-234v68h70v195h71v-113q42 56 104 56q53 0 81 -32q26 -29 26 -75q0 -99 -118 -99zM417 536l90 1q42 0 42 30q0 17 -12.5 27.5t-31.5 10.5q-26 0 -50 -19t-38 -50zM585 0h-280q-116 0 -182 81q-51 63 -51 149q0 69 36 124q35 51 94 76l58 -89q-56 -33 -56 -96
q0 -44 31 -73q31 -28 79 -28h251q62 0 85 32q18 27 18 88v175h148v-175q0 -70 25 -96q24 -24 82 -24h34v-144h-44q-114 0 -168 61q-52 -61 -160 -61z" />
    <glyph glyph-name="uniFB68" unicode="&#x679;" horiz-adv-x="353" arabic-form="initial" 
d="M259 548h-234v68h70v195h71v-113q42 56 104 56q53 0 81 -32q26 -29 26 -75q0 -99 -118 -99zM168 616l90 1q42 0 42 30q0 17 -12.5 28t-31.5 11q-25 0 -49.5 -19.5t-38.5 -50.5zM34 0h-44v144h34q65 0 88 32q19 27 19 88v175h148v-211q0 -124 -67 -179q-60 -49 -178 -49z
" />
    <glyph glyph-name="uniFB69" unicode="&#x679;" horiz-adv-x="410" arabic-form="medial" 
d="M265 548h-235v68h70v195h71v-113q42 56 104 56q53 0 82 -32q26 -29 26 -75q0 -99 -118 -99zM174 616l89 1q42 0 42 30q0 17 -12 28t-31 11q-25 0 -49.5 -19.5t-38.5 -50.5zM34 0h-44v144h34q65 0 88 32q19 27 19 88v175h148v-175q0 -70 25 -96q24 -24 82 -24h34v-144h-44
q-116 0 -170 64q-57 -64 -172 -64z" />
    <glyph glyph-name="uniFB6A" unicode="&#x6a4;" horiz-adv-x="963" arabic-form="isolated" 
d="M771 737q0 -28 -20.5 -48t-49.5 -20t-49.5 20t-20.5 48t20.5 48t49.5 20t49.5 -20t20.5 -48zM693 596q0 -33 -26 -55q-22 -19 -51 -19q-34 0 -57 24q-20 22 -20 50q0 34 26 56q22 19 51 19q34 0 57 -25q20 -21 20 -50zM862 596q0 -33 -26 -55q-23 -19 -52 -19
q-33 0 -57 24q-20 22 -20 50q0 33 26 56q22 19 51 19q34 0 58 -25q20 -21 20 -50zM711 0h-406q-116 0 -182 81q-51 63 -51 149q0 69 36 124q35 51 94 76l58 -89q-56 -33 -56 -96q0 -44 31 -73q31 -28 79 -28h225q-23 46 -23 99q0 104 61 164q53 52 135 52q91 0 143 -57
q45 -49 45 -123v-87q0 -88 -52 -140q-50 -52 -137 -52zM648 239q0 -95 65 -95q48 0 48 46v84q0 31 -11.5 44.5t-37.5 13.5q-30 0 -47 -25t-17 -68z" />
    <glyph glyph-name="uniFB6B" unicode="&#x6a4;" horiz-adv-x="992" arabic-form="final" 
d="M791 739q0 -28 -20.5 -48t-50.5 -20q-28 0 -48.5 20t-20.5 48t20.5 48t48.5 20q30 0 50.5 -20t20.5 -48zM713 598q0 -33 -26 -55q-21 -19 -51 -19q-34 0 -57 24q-20 21 -20 50q0 33 26 55q22 19 51 19q34 0 57 -24q20 -22 20 -50zM881 598q0 -33 -26 -55q-21 -19 -51 -19
q-34 0 -57 24q-20 21 -20 50q0 33 26 55q22 19 51 19q34 0 57 -24q20 -22 20 -50zM632 0h-327q-116 0 -182 81q-51 63 -51 149q0 69 36 124q35 51 94 76l58 -89q-56 -33 -56 -96q0 -44 31 -73q31 -28 79 -28h232q-31 53 -31 107q0 98 60 156q55 53 143 53q101 0 157 -68
q46 -56 46 -141q0 -57 -31 -107h112v-144h-197q-50 0 -87 8q-35 -8 -86 -8zM718 141q31 18 49 49t18 66q0 37 -18 58.5t-49 21.5t-49 -21.5t-18 -58.5q0 -34 18 -65t49 -50z" />
    <glyph glyph-name="uniFB6C" unicode="&#x6a4;" horiz-adv-x="538" arabic-form="initial" 
d="M356 739q0 -28 -20.5 -48t-49.5 -20t-49.5 20t-20.5 48t20.5 48t49.5 20t49.5 -20t20.5 -48zM279 598q0 -33 -26 -55q-22 -19 -52 -19q-34 0 -57 24q-20 21 -20 50q0 33 26 55q22 19 51 19q34 0 58 -24q20 -22 20 -50zM447 598q0 -33 -26 -55q-22 -19 -52 -19
q-34 0 -57 24q-20 21 -20 50q0 33 26 55q22 19 51 19q34 0 58 -24q20 -22 20 -50zM286 0h-296v144h124q-23 46 -23 99q0 104 61 164q53 52 135 52q91 0 143 -57q45 -49 45 -123v-87q0 -88 -52 -140q-50 -52 -137 -52zM223 239q0 -95 65 -95q48 0 48 46v84q0 31 -11.5 44.5
t-37.5 13.5q-30 0 -47 -25t-17 -68z" />
    <glyph glyph-name="uniFB6D" unicode="&#x6a4;" horiz-adv-x="547" arabic-form="medial" 
d="M343 739q0 -28 -20.5 -48t-49.5 -20t-49.5 20t-20.5 48t20.5 48t49.5 20t49.5 -20t20.5 -48zM265 598q0 -33 -26 -55q-21 -19 -51 -19q-34 0 -57 24q-20 21 -20 50q0 33 26 55q22 19 51 19q34 0 57 -24q20 -22 20 -50zM434 598q0 -33 -26 -55q-22 -19 -52 -19
q-34 0 -57 24q-20 21 -20 50q0 33 26 55q22 19 51 19q34 0 58 -24q20 -22 20 -50zM187 0h-197v144h111q-30 54 -30 107q0 98 60 156q55 53 143 53q101 0 157 -68q46 -56 46 -141q0 -54 -31 -107h111v-144h-197q-51 0 -86 8q-37 -8 -87 -8zM274 141q31 18 49 49t18 66
q0 37 -18 58.5t-49 21.5q-32 0 -49.5 -21t-17.5 -59q0 -35 18 -66t49 -49z" />
    <glyph glyph-name="uniFB6E" unicode="&#x6a6;" horiz-adv-x="963" arabic-form="isolated" 
d="M694 735q0 -28 -20 -47.5t-49 -19.5t-48.5 19.5t-19.5 47.5t19.5 47t48.5 19t49 -19t20 -47zM845 735q0 -28 -20 -47.5t-50 -19.5q-28 0 -47.5 19.5t-19.5 47.5t19.5 47t47.5 19q29 0 49.5 -19t20.5 -47zM694 585q0 -28 -20 -47.5t-49 -19.5q-28 0 -48 19.5t-20 47.5
q0 27 20 46.5t48 19.5q29 0 49 -19t20 -47zM845 585q0 -28 -20 -47.5t-50 -19.5q-28 0 -47.5 19.5t-19.5 47.5t19.5 47t47.5 19q29 0 49.5 -19t20.5 -47zM711 0h-406q-116 0 -182 81q-51 63 -51 149q0 69 36 124q35 51 94 76l58 -89q-56 -33 -56 -96q0 -44 31 -73
q31 -28 79 -28h225q-23 46 -23 99q0 104 61 164q53 52 135 52q91 0 143 -57q45 -49 45 -123v-87q0 -88 -52 -140q-50 -52 -137 -52zM648 239q0 -95 65 -95q48 0 48 46v84q0 31 -11.5 44.5t-37.5 13.5q-30 0 -47 -25t-17 -68z" />
    <glyph glyph-name="uniFB6F" unicode="&#x6a6;" horiz-adv-x="992" arabic-form="final" 
d="M713 736q0 -28 -19.5 -47t-48.5 -19t-48.5 19t-19.5 47t19.5 47.5t48.5 19.5t48.5 -19.5t19.5 -47.5zM864 736q0 -28 -20 -47t-49 -19q-28 0 -47.5 19t-19.5 47t19.5 47.5t47.5 19.5q29 0 49 -19.5t20 -47.5zM713 586q0 -27 -20 -46.5t-48 -19.5t-48 19.5t-20 46.5
q0 28 20 47.5t48 19.5t48 -19.5t20 -47.5zM864 586q0 -28 -20 -47t-49 -19q-28 0 -47.5 19t-19.5 47t19.5 47.5t47.5 19.5q29 0 49 -19.5t20 -47.5zM632 0h-327q-116 0 -182 81q-51 63 -51 149q0 69 36 124q35 51 94 76l58 -89q-56 -33 -56 -96q0 -44 31 -73q31 -28 79 -28
h232q-31 53 -31 107q0 98 60 156q55 53 143 53q101 0 157 -68q46 -56 46 -141q0 -57 -31 -107h112v-144h-197q-50 0 -87 8q-35 -8 -86 -8zM718 141q31 18 49 49t18 66q0 37 -18 58.5t-49 21.5t-49 -21.5t-18 -58.5q0 -34 18 -65t49 -50z" />
    <glyph glyph-name="uniFB70" unicode="&#x6a6;" horiz-adv-x="538" arabic-form="initial" 
d="M279 736q0 -28 -20 -47t-49 -19t-48.5 19t-19.5 47t19.5 47.5t48.5 19.5t49 -19.5t20 -47.5zM430 736q0 -28 -20 -47t-49 -19t-48.5 19t-19.5 47t19.5 47.5t48.5 19.5t49 -19.5t20 -47.5zM279 586q0 -28 -20 -47t-49 -19q-28 0 -48 19.5t-20 46.5q0 28 20 47.5t48 19.5
q29 0 49 -19.5t20 -47.5zM430 586q0 -28 -20 -47t-49 -19t-48.5 19t-19.5 47t19.5 47.5t48.5 19.5t49 -19.5t20 -47.5zM286 0h-296v144h124q-23 46 -23 99q0 104 61 164q53 52 135 52q91 0 143 -57q45 -49 45 -123v-87q0 -88 -52 -140q-50 -52 -137 -52zM223 239
q0 -95 65 -95q48 0 48 46v84q0 31 -11.5 44.5t-37.5 13.5q-30 0 -47 -25t-17 -68z" />
    <glyph glyph-name="uniFB71" unicode="&#x6a6;" horiz-adv-x="547" arabic-form="medial" 
d="M266 736q0 -28 -20 -47t-49 -19t-48.5 19t-19.5 47t19.5 47.5t48.5 19.5t49 -19.5t20 -47.5zM417 736q0 -28 -20.5 -47t-49.5 -19q-28 0 -47.5 19t-19.5 47t19.5 47.5t47.5 19.5q30 0 50 -19.5t20 -47.5zM266 586q0 -28 -20 -47t-49 -19q-28 0 -48 19.5t-20 46.5
q0 28 20 47.5t48 19.5q29 0 49 -19.5t20 -47.5zM417 586q0 -28 -20.5 -47t-49.5 -19q-28 0 -47.5 19t-19.5 47t19.5 47.5t47.5 19.5q30 0 50 -19.5t20 -47.5zM187 0h-197v144h111q-30 54 -30 107q0 98 60 156q55 53 143 53q101 0 157 -68q46 -56 46 -141q0 -54 -31 -107h111
v-144h-197q-51 0 -86 8q-37 -8 -87 -8zM274 141q31 18 49 49t18 66q0 37 -18 58.5t-49 21.5q-32 0 -49.5 -21t-17.5 -59q0 -35 18 -66t49 -49z" />
    <glyph glyph-name="uniFB72" unicode="&#x684;" horiz-adv-x="602" arabic-form="isolated" 
d="M409 -346q-52 -20 -94 -20q-122 0 -198 76q-72 74 -72 197q0 146 117 235q102 77 260 83q-62 92 -142 92q-68 0 -138 -61l-69 80q90 119 225 119q87 0 162 -63q71 -60 112 -165v-119q-200 6 -294 -46q-91 -49 -91 -153q0 -65 46 -105q41 -35 100 -35q22 0 41 9zM436 -14
q0 -22 -15.5 -37.5t-38.5 -15.5t-38.5 15t-15.5 36q0 22 16 38t38 16q23 0 38.5 -15t15.5 -37zM436 -130q0 -23 -15.5 -38.5t-38.5 -15.5t-38.5 15t-15.5 37t15.5 38t36.5 16q23 0 39.5 -15.5t16.5 -36.5z" />
    <glyph glyph-name="uniFB73" unicode="&#x684;" horiz-adv-x="711" arabic-form="final" 
d="M409 -348q-51 -18 -94 -18q-123 0 -198 77q-72 75 -72 202q0 142 117 230q103 76 260 82q-62 92 -142 92q-68 0 -138 -61l-69 80q90 119 225 119q87 0 162 -63q71 -60 112 -165v-37q-3 -2 -9 -9q-5 -6 -8 -8q45 -29 133 -29h33v-144h-35q-108 0 -167 25q-56 24 -86 77
q-119 -6 -186 -60q-60 -50 -60 -127q0 -78 46 -122q40 -38 101 -38q26 0 50 9zM426 -24q0 -23 -15 -38t-38 -15t-38.5 14.5t-15.5 36.5q0 23 16 39t38 16q23 0 38 -15t15 -38zM426 -140q0 -23 -15 -38.5t-38 -15.5t-38.5 15t-15.5 37q0 23 15 38.5t37 15.5q23 0 39 -15
t16 -37z" />
    <glyph glyph-name="uniFB74" unicode="&#x684;" horiz-adv-x="564" arabic-form="initial" 
d="M129 0h-139v144h138q153 0 251 84q-63 89 -140 89q-68 0 -138 -61l-69 80q90 119 224 119q87 0 162 -63q72 -60 113 -165v-42q-72 -100 -165 -142.5t-237 -42.5zM321 -139q0 -28 -20 -47.5t-49 -19.5t-48.5 19.5t-19.5 47.5t19.5 47.5t48.5 19.5t49 -19.5t20 -47.5z
M321 -288q0 -28 -20 -47.5t-49 -19.5t-48.5 19.5t-19.5 47.5t20 47.5t48 19.5q29 0 49 -19.5t20 -47.5z" />
    <glyph glyph-name="uniFB75" unicode="&#x684;" horiz-adv-x="670" arabic-form="medial" 
d="M129 0h-139v144h138q153 0 251 84q-63 89 -140 89q-68 0 -138 -61l-69 80q90 119 224 119q87 0 162 -63q72 -60 113 -165v-31q-2 -6 -6 -19q-1 -2 -1 -4q42 -29 123 -29h33v-144h-35q-97 0 -154 20q-53 18 -84 58q-115 -78 -278 -78zM352 -139q0 -28 -20 -47.5t-49 -19.5
t-48.5 19.5t-19.5 47.5t19.5 47.5t48.5 19.5t49 -19.5t20 -47.5zM352 -288q0 -28 -20 -47.5t-49 -19.5t-48.5 19.5t-19.5 47.5t20 47.5t48 19.5q29 0 49 -19.5t20 -47.5z" />
    <glyph glyph-name="uniFB76" unicode="&#x683;" horiz-adv-x="602" arabic-form="isolated" 
d="M498 -323q-80 -43 -183 -43q-123 0 -198 77q-72 75 -72 202q0 142 117 230q103 76 260 82q-62 92 -142 92q-68 0 -138 -61l-69 80q90 119 225 119q87 0 162 -63q71 -60 112 -165v-119q-186 5 -286 -44q-99 -50 -99 -149q0 -72 52 -111q42 -32 103 -32q60 0 118 20z
M410 -82q0 -26 -19 -44.5t-46 -18.5t-46 18.5t-19 44.5t19 44.5t46 18.5t46 -18.5t19 -44.5zM562 -82q0 -26 -19 -44.5t-46 -18.5t-46.5 18.5t-19.5 44.5t19.5 44.5t46.5 18.5t46 -18.5t19 -44.5z" />
    <glyph glyph-name="uniFB77" unicode="&#x683;" horiz-adv-x="711" arabic-form="final" 
d="M498 -323q-80 -43 -183 -43q-123 0 -198 77q-72 75 -72 202q0 142 117 230q103 76 260 82q-62 92 -142 92q-68 0 -138 -61l-69 80q90 119 225 119q87 0 162 -63q71 -60 112 -165v-37q-3 -2 -9 -9q-5 -6 -8 -8q45 -29 133 -29h33v-144h-35q-108 0 -167 25q-56 24 -86 77
q-121 -13 -185 -63q-61 -48 -61 -124q0 -72 51 -112q41 -32 100 -32q61 0 122 21zM395 -82q0 -25 -18 -42t-44 -17q-24 0 -42.5 17.5t-18.5 41.5t18.5 41.5t42.5 17.5q25 0 43.5 -17.5t18.5 -41.5zM536 -82q0 -24 -18 -41.5t-43 -17.5q-24 0 -42.5 17.5t-18.5 41.5
t18.5 41.5t42.5 17.5q25 0 43 -17.5t18 -41.5z" />
    <glyph glyph-name="uniFB78" unicode="&#x683;" horiz-adv-x="564" arabic-form="initial" 
d="M129 0h-139v144h138q153 0 251 84q-63 89 -140 89q-68 0 -138 -61l-69 80q90 119 224 119q87 0 162 -63q72 -60 113 -165v-42q-72 -100 -165 -142.5t-237 -42.5zM258 -146q0 -34 -26 -56q-22 -19 -51 -19q-34 0 -57 25q-20 21 -20 50q0 33 26 55q22 19 51 19q34 0 57 -24
q20 -22 20 -50zM427 -146q0 -35 -26 -57q-22 -18 -52 -18q-33 0 -57 25q-20 21 -20 50q0 33 26 55q22 19 51 19q35 0 58 -23q20 -20 20 -51z" />
    <glyph glyph-name="uniFB79" unicode="&#x683;" horiz-adv-x="670" arabic-form="medial" 
d="M129 0h-139v144h138q153 0 251 84q-63 89 -140 89q-68 0 -138 -61l-69 80q90 119 224 119q87 0 162 -63q72 -60 113 -165v-31q-2 -6 -6 -19q-1 -2 -1 -4q42 -29 123 -29h33v-144h-35q-97 0 -154 20q-53 18 -84 58q-115 -78 -278 -78zM262 -146q0 -34 -26 -56
q-22 -19 -51 -19q-34 0 -57 25q-20 21 -20 50q0 33 26 55q22 19 51 19q34 0 57 -24q20 -22 20 -50zM430 -146q0 -32 -22 -53.5t-55 -21.5q-34 0 -57 25q-20 21 -20 50q0 33 26 55q22 19 51 19q33 0 55 -21t22 -53z" />
    <glyph glyph-name="uniFB7A" unicode="&#x686;" horiz-adv-x="602" arabic-form="isolated" 
d="M374 -222l35 -124q-52 -20 -94 -20q-122 0 -198 76q-72 74 -72 197q0 146 117 235q102 77 260 83q-62 92 -142 92q-68 0 -138 -61l-69 80q90 119 225 119q87 0 162 -63q71 -60 112 -165v-119q-200 6 -294 -46q-91 -49 -91 -153q0 -65 46 -105q41 -35 100 -35q22 0 41 9z
M418 -36q0 -24 -17.5 -41t-42.5 -17t-42.5 17t-17.5 41t17.5 41.5t42.5 17.5t42.5 -17t17.5 -42zM561 -36q0 -24 -17.5 -41t-42.5 -17t-42.5 17t-17.5 41q0 25 17.5 42t42.5 17t42.5 -17.5t17.5 -41.5zM488 -152q0 -23 -17.5 -40t-42.5 -17q-24 0 -41.5 16.5t-17.5 40.5
q0 25 17 41.5t42 16.5t42.5 -17t17.5 -41z" />
    <glyph glyph-name="uniFB7B" unicode="&#x686;" horiz-adv-x="711" arabic-form="final" 
d="M409 -349q-48 -17 -94 -17q-123 0 -198 77q-72 75 -72 202q0 142 117 230q103 76 260 82q-62 92 -142 92q-68 0 -138 -61l-68 80q88 119 224 119q87 0 162 -63q71 -60 112 -165v-37q-3 -2 -9 -9q-5 -6 -8 -8q45 -29 133 -29h33v-144h-35q-109 0 -168 25q-55 24 -85 77
q-119 -6 -186 -60q-60 -50 -60 -128q0 -70 50 -111q40 -33 95 -33q17 0 41 8zM385 -40q0 -22 -15.5 -37.5t-38.5 -15.5q-22 0 -38 15.5t-16 37.5q0 21 16 37t38 16q23 0 38.5 -15.5t15.5 -37.5zM514 -40q0 -22 -16 -37.5t-38 -15.5q-23 0 -38.5 15.5t-15.5 37.5t15.5 37.5
t38.5 15.5q22 0 38 -16t16 -37zM448 -145q0 -21 -16 -36t-38 -15t-37.5 15t-15.5 36q0 22 15.5 37t37.5 15q23 0 38.5 -15t15.5 -37z" />
    <glyph glyph-name="uniFB7C" unicode="&#x686;" horiz-adv-x="564" arabic-form="initial" 
d="M129 0h-139v144h138q153 0 251 84q-63 89 -140 89q-68 0 -138 -61l-69 80q90 119 224 119q87 0 162 -63q72 -60 113 -165v-42q-72 -100 -165 -142.5t-237 -42.5zM245 -146q0 -34 -26 -56q-22 -19 -52 -19q-33 0 -56 25q-20 21 -20 50q0 33 25 55q22 19 51 19q35 0 58 -24
q20 -21 20 -50zM413 -146q0 -34 -26 -56q-22 -19 -51 -19q-34 0 -57 25q-20 21 -20 50q0 33 26 55q22 19 51 19q34 0 57 -24q20 -22 20 -50zM323 -287q0 -28 -20.5 -48t-50.5 -20q-29 0 -49 20t-20 48t20 48t49 20q30 0 50.5 -20t20.5 -48z" />
    <glyph glyph-name="uniFB7D" unicode="&#x686;" horiz-adv-x="670" arabic-form="medial" 
d="M129 0h-139v144h138q153 0 251 84q-63 89 -140 89q-68 0 -138 -61l-69 80q90 119 224 119q87 0 162 -63q72 -60 113 -165v-31q-2 -6 -6 -19q-1 -2 -1 -4q42 -29 123 -29h33v-144h-35q-97 0 -154 20q-53 18 -84 58q-115 -78 -278 -78zM276 -146q0 -34 -26 -56
q-22 -19 -51 -19q-34 0 -57 25q-20 21 -20 50q0 33 26 55q22 19 51 19q34 0 57 -24q20 -22 20 -50zM444 -146q0 -34 -26 -56q-22 -19 -51 -19q-34 0 -57 25q-20 21 -20 50q0 33 26 55q22 19 51 19q34 0 57 -24q20 -22 20 -50zM354 -287q0 -28 -20.5 -48t-50.5 -20
q-28 0 -48.5 20t-20.5 48t20.5 48t48.5 20q30 0 50.5 -20t20.5 -48z" />
    <glyph glyph-name="uniFB7E" unicode="&#x687;" horiz-adv-x="602" arabic-form="isolated" 
d="M409 -346q-52 -20 -94 -20q-122 0 -198 76q-72 74 -72 197q0 146 117 235q102 77 260 83q-62 92 -142 92q-68 0 -138 -61l-69 80q90 119 225 119q87 0 162 -63q71 -60 112 -165v-119q-200 6 -294 -46q-91 -49 -91 -153q0 -65 46 -105q41 -35 100 -35q22 0 41 9zM426 -19
q0 -22 -15 -36.5t-38 -14.5q-22 0 -37 14.5t-15 36.5t15 37t37 15q23 0 38 -15t15 -37zM543 -19q0 -22 -15 -36.5t-38 -14.5q-22 0 -37 14.5t-15 36.5t15 37t37 15q23 0 38 -15t15 -37zM427 -131q0 -22 -15.5 -37t-37.5 -15t-37 15t-15 37q0 21 15.5 36t36.5 15
q22 0 37.5 -15t15.5 -36zM544 -131q0 -22 -15 -37t-38 -15q-22 0 -37 15t-15 37q0 21 15 36t37 15t37.5 -15t15.5 -36z" />
    <glyph glyph-name="uniFB7F" unicode="&#x687;" horiz-adv-x="711" arabic-form="final" 
d="M409 -348q-51 -18 -94 -18q-123 0 -198 77q-72 75 -72 202q0 142 117 230q103 76 260 82q-62 92 -142 92q-68 0 -138 -61l-69 80q90 119 225 119q87 0 162 -63q71 -60 112 -165v-37q-3 -2 -9 -9q-5 -6 -8 -8q45 -29 133 -29h33v-144h-35q-108 0 -167 25q-56 24 -86 77
q-119 -6 -186 -60q-60 -50 -60 -127q0 -78 46 -122q40 -38 101 -38q26 0 50 9zM381 -44q0 -20 -13.5 -33t-33.5 -13t-33 13t-13 33q0 19 13.5 32.5t32.5 13.5q20 0 33.5 -13t13.5 -33zM486 -44q0 -20 -13.5 -33t-33.5 -13t-33 13t-13 33t13 33t33 13t33.5 -13.5t13.5 -32.5z
M382 -145q0 -20 -13.5 -33t-33.5 -13t-33 13t-13 33q0 19 13.5 32t32.5 13q20 0 33.5 -13t13.5 -32zM487 -145q0 -20 -13.5 -33t-33.5 -13t-33.5 13t-13.5 33q0 19 13.5 32t33.5 13t33.5 -13t13.5 -32z" />
    <glyph glyph-name="uniFB80" unicode="&#x687;" horiz-adv-x="564" arabic-form="initial" 
d="M129 0h-139v144h138q153 0 251 84q-63 89 -140 89q-68 0 -138 -61l-69 80q90 119 224 119q87 0 162 -63q72 -60 113 -165v-42q-72 -100 -165 -142.5t-237 -42.5zM245 -139q0 -28 -19.5 -47t-48.5 -19t-48.5 19t-19.5 47t19.5 47.5t48.5 19.5t48.5 -19.5t19.5 -47.5z
M396 -139q0 -28 -20 -47t-49 -19q-28 0 -48 19.5t-20 46.5q0 28 20 47.5t48 19.5q29 0 49 -19.5t20 -47.5zM245 -288q0 -27 -20 -46.5t-48 -19.5q-29 0 -48.5 19t-19.5 47t19.5 47.5t48.5 19.5q28 0 48 -19.5t20 -47.5zM396 -288q0 -28 -20 -47t-49 -19q-28 0 -48 19.5
t-20 46.5q0 28 20 47.5t48 19.5q29 0 49 -19.5t20 -47.5z" />
    <glyph glyph-name="uniFB81" unicode="&#x687;" horiz-adv-x="670" arabic-form="medial" 
d="M129 0h-139v144h138q153 0 251 84q-63 89 -140 89q-68 0 -138 -61l-69 80q90 119 224 119q87 0 162 -63q72 -60 113 -165v-31q-2 -6 -6 -19q-1 -2 -1 -4q42 -29 123 -29h33v-144h-35q-97 0 -154 20q-53 18 -84 58q-115 -78 -278 -78zM276 -139q0 -28 -19.5 -47t-48.5 -19
t-48.5 19t-19.5 47t19.5 47.5t48.5 19.5t48.5 -19.5t19.5 -47.5zM427 -139q0 -28 -20 -47t-49 -19q-28 0 -47.5 19t-19.5 47t19.5 47.5t47.5 19.5q29 0 49 -19.5t20 -47.5zM276 -288q0 -27 -20 -46.5t-48 -19.5t-48 19.5t-20 46.5q0 28 20 47.5t48 19.5t48 -19.5t20 -47.5z
M427 -288q0 -28 -20 -47t-49 -19q-28 0 -47.5 19t-19.5 47t19.5 47.5t47.5 19.5q29 0 49 -19.5t20 -47.5z" />
    <glyph glyph-name="uniFB82" unicode="&#x68d;" horiz-adv-x="483" arabic-form="isolated" 
d="M226 0h-206v144h179q61 0 61 50q0 34 -29 74.5t-74 69.5l85 114q82 -54 126 -127q40 -67 40 -137q0 -91 -45 -139q-46 -49 -137 -49zM219 -146q0 -34 -26 -56q-22 -19 -52 -19q-33 0 -56 25q-20 21 -20 50q0 33 25 55q22 19 51 19q35 0 58 -24q20 -21 20 -50zM387 -146
q0 -32 -22 -53.5t-56 -21.5q-33 0 -56 25q-20 21 -20 50q0 33 25 55q22 19 51 19q35 0 58 -23q20 -20 20 -51z" />
    <glyph glyph-name="uniFB83" unicode="&#x68d;" horiz-adv-x="534" arabic-form="final" 
d="M226 0h-206v144h179q61 0 61 50q0 34 -29 74.5t-74 69.5l85 114q74 -49 117 -114q39 -58 47 -121q4 -38 28.5 -55.5t74.5 -17.5h35v-144h-44q-91 0 -146 41q-44 -41 -128 -41zM240 -146q0 -34 -26 -56q-22 -19 -51 -19q-34 0 -57 25q-20 21 -20 50q0 33 26 55
q22 19 51 19q34 0 57 -24q20 -22 20 -50zM408 -146q0 -32 -22 -53.5t-55 -21.5q-34 0 -57 25q-20 21 -20 50q0 33 26 55q22 19 51 19q33 0 55 -21t22 -53z" />
    <glyph glyph-name="uniFB84" unicode="&#x68c;" horiz-adv-x="483" arabic-form="isolated" 
d="M199 589q0 -33 -26 -55q-21 -19 -51 -19q-34 0 -57 24q-20 21 -20 50q0 33 26 55q22 19 51 19q34 0 57 -24q20 -22 20 -50zM368 589q0 -32 -22 -53t-56 -21t-57 24q-20 21 -20 50q0 33 26 55q22 19 51 19q35 0 58 -23q20 -20 20 -51zM226 0h-206v144h179q61 0 61 50
q0 34 -29 74.5t-74 69.5l85 114q82 -54 126 -127q40 -67 40 -137q0 -91 -45 -139q-46 -49 -137 -49z" />
    <glyph glyph-name="uniFB85" unicode="&#x68c;" horiz-adv-x="534" arabic-form="final" 
d="M203 589q0 -33 -26 -55q-21 -19 -51 -19q-34 0 -57 24q-20 21 -20 50q0 33 26 55q22 19 51 19q34 0 57 -24q20 -22 20 -50zM371 589q0 -32 -22 -53t-55 -21q-34 0 -57 24q-20 21 -20 50q0 33 26 55q22 19 51 19q33 0 55 -21t22 -53zM226 0h-206v144h179q61 0 61 50
q0 34 -29 74.5t-74 69.5l85 114q74 -49 117 -114q39 -58 47 -121q4 -38 28.5 -55.5t74.5 -17.5h35v-144h-44q-91 0 -146 41q-44 -41 -128 -41z" />
    <glyph glyph-name="uniFB86" unicode="&#x68e;" horiz-adv-x="483" arabic-form="isolated" 
d="M277 730q0 -28 -20.5 -48t-49.5 -20t-49.5 20t-20.5 48t20.5 48t49.5 20t49.5 -20t20.5 -48zM199 589q0 -33 -26 -55q-21 -19 -51 -19q-34 0 -57 24q-20 21 -20 50q0 33 26 55q22 19 51 19q34 0 57 -24q20 -22 20 -50zM368 589q0 -33 -26 -55q-22 -19 -52 -19
q-34 0 -57 24q-20 21 -20 50q0 33 26 55q22 19 51 19q34 0 58 -24q20 -22 20 -50zM226 0h-206v144h179q61 0 61 50q0 34 -29 74.5t-74 69.5l85 114q82 -54 126 -127q40 -67 40 -137q0 -91 -45 -139q-46 -49 -137 -49z" />
    <glyph glyph-name="uniFB87" unicode="&#x68e;" horiz-adv-x="534" arabic-form="final" 
d="M281 730q0 -28 -20.5 -48t-49.5 -20t-49.5 20t-20.5 48t20.5 48t49.5 20t49.5 -20t20.5 -48zM203 589q0 -33 -26 -55q-21 -19 -51 -19q-34 0 -57 24q-20 21 -20 50q0 33 26 55q22 19 51 19q34 0 57 -24q20 -22 20 -50zM371 589q0 -33 -26 -55q-21 -19 -51 -19
q-34 0 -57 24q-20 21 -20 50q0 33 26 55q22 19 51 19q34 0 57 -24q20 -22 20 -50zM226 0h-206v144h179q61 0 61 50q0 34 -29 74.5t-74 69.5l85 114q74 -49 117 -114q39 -58 47 -121q4 -38 28.5 -55.5t74.5 -17.5h35v-144h-44q-91 0 -146 41q-44 -41 -128 -41z" />
    <glyph glyph-name="uniFB88" unicode="&#x688;" horiz-adv-x="483" arabic-form="isolated" 
d="M265 543h-235v67h71v196h70v-114q42 56 105 56q53 0 81 -32q26 -29 26 -75q0 -98 -118 -98zM174 610l90 1q42 0 42 30q0 17 -12.5 28t-31.5 11q-25 0 -49.5 -19.5t-38.5 -50.5zM226 0h-206v144h179q61 0 61 50q0 34 -29 74.5t-74 69.5l85 114q82 -54 126 -127
q40 -67 40 -137q0 -91 -45 -139q-46 -49 -137 -49z" />
    <glyph glyph-name="uniFB89" unicode="&#x688;" horiz-adv-x="534" arabic-form="final" 
d="M269 543h-235v67h71v196h70v-114q41 56 105 56q53 0 81 -32q26 -29 26 -75q0 -98 -118 -98zM178 610l89 1q43 0 43 30q0 17 -12.5 28t-31.5 11q-25 0 -49.5 -19.5t-38.5 -50.5zM226 0h-206v144h179q61 0 61 50q0 34 -29 74.5t-74 69.5l85 114q74 -49 117 -114
q39 -58 47 -121q4 -38 28.5 -55.5t74.5 -17.5h35v-144h-44q-91 0 -146 41q-44 -41 -128 -41z" />
    <glyph glyph-name="uniFB8A" unicode="&#x698;" horiz-adv-x="356" arabic-form="isolated" 
d="M278 739q0 -28 -20.5 -48t-50.5 -20q-28 0 -48.5 20t-20.5 48t20.5 48t48.5 20q30 0 50.5 -20t20.5 -48zM200 598q0 -33 -26 -55q-21 -19 -51 -19q-34 0 -57 24q-20 21 -20 50q0 33 26 55q22 19 51 19q34 0 57 -24q20 -22 20 -50zM368 598q0 -33 -26 -55q-21 -19 -51 -19
q-34 0 -57 24q-20 21 -20 50q0 33 26 55q22 19 51 19q34 0 57 -24q20 -22 20 -50zM283 439v-432q0 -101 -60 -155q-49 -44 -123 -44q-83 0 -154 42l34 105q41 -22 76 -22q38 0 58.5 27t20.5 76v403h148z" />
    <glyph glyph-name="uniFB8B" unicode="&#x698;" horiz-adv-x="414" arabic-form="final" 
d="M271 739q0 -28 -20.5 -48t-49.5 -20t-49 20t-20 48t20 48t49 20t49.5 -20t20.5 -48zM194 598q0 -33 -26 -55q-22 -19 -52 -19q-34 0 -57 24q-20 21 -20 50q0 33 26 55q22 19 51 19q34 0 58 -24q20 -22 20 -50zM362 598q0 -34 -26 -55q-22 -19 -52 -19q-33 0 -56 24
q-20 21 -20 50q0 33 25 55q22 19 51 19q35 0 58 -24q20 -21 20 -50zM275 24v-19q-1 -99 -59 -153q-47 -44 -116 -44q-83 0 -154 42l34 105q41 -22 76 -22q38 0 58.5 27t20.5 76v403h148v-175q0 -70 25 -96q24 -24 81 -24h35v-144h-44q-61 0 -105 24z" />
    <glyph glyph-name="uniFB8C" unicode="&#x691;" horiz-adv-x="356" arabic-form="isolated" 
d="M266 552h-235v67h70v196h71v-114q41 56 105 56q52 0 81 -32q26 -28 26 -75q0 -98 -118 -98zM175 619l89 1q42 0 42 30q0 17 -12 28t-31 11q-25 0 -49.5 -19.5t-38.5 -50.5zM283 439v-432q0 -101 -60 -155q-49 -44 -123 -44q-83 0 -154 42l34 105q41 -22 76 -22
q38 0 58.5 27t20.5 76v403h148z" />
    <glyph glyph-name="uniFB8D" unicode="&#x691;" horiz-adv-x="414" arabic-form="final" 
d="M259 552h-234v67h70v196h71v-114q41 56 104 56q53 0 81 -32q26 -28 26 -75q0 -98 -118 -98zM168 619l90 1q42 0 42 30q0 17 -12.5 28t-31.5 11q-25 0 -49.5 -19.5t-38.5 -50.5zM275 24v-19q-1 -99 -59 -153q-47 -44 -116 -44q-83 0 -154 42l34 105q41 -22 76 -22
q38 0 58.5 27t20.5 76v403h148v-175q0 -70 25 -96q24 -24 81 -24h35v-144h-44q-61 0 -105 24z" />
    <glyph glyph-name="uniFB8E" unicode="&#x6a9;" horiz-adv-x="949" arabic-form="isolated" 
d="M631 423h39q132 0 190 -61q47 -52 47 -150v-1q0 -112 -62 -164q-58 -47 -171 -47h-370q-117 0 -181 76q-51 61 -51 151q0 70 36 125q35 52 94 77l58 -90q-55 -33 -55 -97q0 -45 31 -72q29 -26 77 -26h359q85 0 85 69v1q0 64 -83 64h-203v144l243 250l80 -80z" />
    <glyph glyph-name="uniFB8F" unicode="&#x6a9;" horiz-adv-x="1035" arabic-form="final" 
d="M666 0h-362q-117 0 -181 76q-51 61 -51 151q0 70 36 125q35 52 94 77l58 -90q-55 -33 -55 -97q0 -45 31 -72q29 -26 77 -26h359q85 0 85 69v1q0 64 -83 64h-203v144l243 250l80 -80l-163 -169h39q237 0 237 -192v-5q0 -42 26.5 -62t82.5 -20h29v-144h-38q-116 0 -171 57
q-64 -57 -170 -57z" />
    <glyph glyph-name="uniFB90" unicode="&#x6a9;" horiz-adv-x="555" arabic-form="initial" 
d="M281 0h-291v144h289q84 0 84 69v1q0 64 -82 64h-247v144l243 250l79 -80l-162 -169h82q133 0 190 -61q47 -51 47 -150v-1q0 -112 -62 -164q-57 -47 -170 -47z" />
    <glyph glyph-name="uniFB91" unicode="&#x6a9;" horiz-adv-x="642" arabic-form="medial" 
d="M281 0h-291v144h289q84 0 84 65v4q0 65 -82 65h-247v144l243 250l79 -80l-161 -169h87q122 0 181 -58q50 -48 50 -130v-7q0 -84 104 -84h35v-144h-44q-109 0 -165 57q-67 -57 -162 -57z" />
    <glyph glyph-name="uniFB92" unicode="&#x6af;" horiz-adv-x="949" arabic-form="isolated" 
d="M450 468l-54 55l211 219l54 -56zM631 423h39q132 0 190 -61q47 -52 47 -150v-1q0 -112 -62 -164q-58 -47 -171 -47h-370q-117 0 -181 76q-51 61 -51 151q0 70 36 125q35 52 94 77l58 -90q-55 -33 -55 -97q0 -45 31 -72q29 -26 77 -26h359q85 0 85 69v1q0 64 -83 64h-203
v144l243 250l80 -80z" />
    <glyph glyph-name="uniFB93" unicode="&#x6af;" horiz-adv-x="1035" arabic-form="final" 
d="M450 468l-54 55l211 219l54 -56zM666 0h-362q-117 0 -181 76q-51 61 -51 151q0 70 36 125q35 52 94 77l58 -90q-55 -33 -55 -97q0 -45 31 -72q29 -26 77 -26h359q85 0 85 69v1q0 64 -83 64h-203v144l243 250l80 -80l-163 -169h39q237 0 237 -192v-5q0 -42 26.5 -62
t82.5 -20h29v-144h-38q-116 0 -171 57q-64 -57 -170 -57z" />
    <glyph glyph-name="uniFB94" unicode="&#x6af;" horiz-adv-x="555" arabic-form="initial" 
d="M16 476l-53 55l211 219l53 -56zM281 0h-291v144h289q84 0 84 69v1q0 64 -82 64h-247v144l243 250l79 -80l-162 -169h82q133 0 190 -61q47 -51 47 -150v-1q0 -112 -62 -164q-57 -47 -170 -47z" />
    <glyph glyph-name="uniFB95" unicode="&#x6af;" horiz-adv-x="642" arabic-form="medial" 
d="M16 476l-53 55l211 219l53 -56zM281 0h-291v144h289q84 0 84 65v4q0 65 -82 65h-247v144l243 250l79 -80l-161 -169h87q122 0 181 -58q50 -48 50 -130v-7q0 -84 104 -84h35v-144h-44q-109 0 -165 57q-67 -57 -162 -57z" />
    <glyph glyph-name="uniFB96" unicode="&#x6b3;" horiz-adv-x="949" arabic-form="isolated" 
d="M450 468l-54 55l211 219l54 -56zM631 423h39q132 0 190 -61q47 -52 47 -150v-1q0 -112 -62 -164q-58 -47 -171 -47h-370q-117 0 -181 76q-51 61 -51 151q0 70 36 125q35 52 94 77l58 -90q-55 -33 -55 -97q0 -45 31 -72q29 -26 77 -26h359q85 0 85 69v1q0 64 -83 64h-203
v144l243 250l80 -80zM554 -139q0 -28 -20 -47.5t-49 -19.5t-48.5 19.5t-19.5 47.5t19.5 47.5t48.5 19.5t49 -19.5t20 -47.5zM554 -288q0 -28 -20 -47.5t-49 -19.5t-48.5 19.5t-19.5 47.5t20 47.5t48 19.5q29 0 49 -19.5t20 -47.5z" />
    <glyph glyph-name="uniFB97" unicode="&#x6b3;" horiz-adv-x="1035" arabic-form="final" 
d="M450 468l-54 55l211 219l54 -56zM666 0h-362q-117 0 -181 76q-51 61 -51 151q0 70 36 125q35 52 94 77l58 -90q-55 -33 -55 -97q0 -45 31 -72q29 -26 77 -26h359q85 0 85 69v1q0 64 -83 64h-203v144l243 250l80 -80l-163 -169h39q237 0 237 -192v-5q0 -42 26.5 -62
t82.5 -20h29v-144h-38q-116 0 -171 57q-64 -57 -170 -57zM554 -139q0 -28 -20 -47.5t-49 -19.5t-48.5 19.5t-19.5 47.5t19.5 47.5t48.5 19.5t49 -19.5t20 -47.5zM554 -288q0 -28 -20 -47.5t-49 -19.5t-48.5 19.5t-19.5 47.5t20 47.5t48 19.5q29 0 49 -19.5t20 -47.5z" />
    <glyph glyph-name="uniFB98" unicode="&#x6b3;" horiz-adv-x="555" arabic-form="initial" 
d="M16 476l-53 55l211 219l53 -56zM281 0h-291v144h289q84 0 84 69v1q0 64 -82 64h-247v144l243 250l79 -80l-162 -169h82q133 0 190 -61q47 -51 47 -150v-1q0 -112 -62 -164q-57 -47 -170 -47zM265 -139q0 -28 -20 -47.5t-49 -19.5t-48.5 19.5t-19.5 47.5t19.5 47.5
t48.5 19.5t49 -19.5t20 -47.5zM265 -288q0 -28 -20 -47.5t-49 -19.5t-48.5 19.5t-19.5 47.5t20 47.5t48 19.5q29 0 49 -19.5t20 -47.5z" />
    <glyph glyph-name="uniFB99" unicode="&#x6b3;" horiz-adv-x="642" arabic-form="medial" 
d="M16 476l-53 55l211 219l53 -56zM281 0h-291v144h289q84 0 84 65v4q0 65 -82 65h-247v144l243 250l79 -80l-161 -169h87q122 0 181 -58q50 -48 50 -130v-7q0 -84 104 -84h35v-144h-44q-109 0 -165 57q-67 -57 -162 -57zM273 -139q0 -28 -19.5 -47.5t-48.5 -19.5t-49 19.5
t-20 47.5t20 47.5t49 19.5t48.5 -19.5t19.5 -47.5zM273 -288q0 -28 -19.5 -47.5t-48.5 -19.5t-49 19.5t-20 47.5t20 47.5t49 19.5q28 0 48 -19.5t20 -47.5z" />
    <glyph glyph-name="uniFB9A" unicode="&#x6b1;" horiz-adv-x="949" arabic-form="isolated" 
d="M376 774q0 -34 -26 -56q-22 -19 -52 -19q-33 0 -56 25q-20 21 -20 50q0 33 25 55q22 19 51 19q35 0 58 -24q20 -21 20 -50zM544 774q0 -32 -22 -53.5t-55 -21.5q-34 0 -57 25q-20 21 -20 50q0 33 26 55q22 19 51 19q35 0 57 -23q20 -21 20 -51zM450 468l-54 55l211 219
l54 -56zM631 423h39q132 0 190 -61q47 -52 47 -150v-1q0 -112 -62 -164q-58 -47 -171 -47h-370q-117 0 -181 76q-51 61 -51 151q0 70 36 125q35 52 94 77l58 -90q-55 -33 -55 -97q0 -45 31 -72q29 -26 77 -26h359q85 0 85 69v1q0 64 -83 64h-203v144l243 250l80 -80z" />
    <glyph glyph-name="uniFB9B" unicode="&#x6b1;" horiz-adv-x="1035" arabic-form="final" 
d="M376 774q0 -34 -26 -56q-22 -19 -52 -19q-33 0 -56 25q-20 21 -20 50q0 33 25 55q22 19 51 19q35 0 58 -24q20 -21 20 -50zM544 774q0 -32 -22 -53.5t-55 -21.5q-34 0 -57 25q-20 21 -20 50q0 33 26 55q22 19 51 19q35 0 57 -23q20 -21 20 -51zM450 468l-54 55l211 219
l54 -56zM666 0h-362q-117 0 -181 76q-51 61 -51 151q0 70 36 125q35 52 94 77l58 -90q-55 -33 -55 -97q0 -45 31 -72q29 -26 77 -26h359q85 0 85 69v1q0 64 -83 64h-203v144l243 250l80 -80l-163 -169h39q237 0 237 -192v-5q0 -42 26.5 -62t82.5 -20h29v-144h-38
q-116 0 -171 57q-64 -57 -170 -57z" />
    <glyph glyph-name="uniFB9C" unicode="&#x6b1;" horiz-adv-x="555" arabic-form="initial" 
d="M-49 793q0 -33 -26 -55q-22 -19 -52 -19q-33 0 -56 24q-20 22 -20 50q0 33 25 56q22 19 51 19q35 0 58 -25q20 -21 20 -50zM119 793q0 -32 -22 -53t-56 -21q-33 0 -56 24q-20 22 -20 50q0 33 25 56q22 19 51 19q35 0 58 -23q20 -21 20 -52zM16 476l-53 55l211 219l53 -56
zM281 0h-291v144h289q84 0 84 69v1q0 64 -82 64h-247v144l243 250l79 -80l-162 -169h82q133 0 190 -61q47 -51 47 -150v-1q0 -112 -62 -164q-57 -47 -170 -47z" />
    <glyph glyph-name="uniFB9D" unicode="&#x6b1;" horiz-adv-x="642" arabic-form="medial" 
d="M-49 793q0 -33 -26 -55q-22 -19 -52 -19q-33 0 -56 24q-20 22 -20 50q0 33 25 56q22 19 51 19q35 0 58 -25q20 -21 20 -50zM119 793q0 -32 -22 -53t-56 -21q-33 0 -56 24q-20 22 -20 50q0 33 25 56q22 19 51 19q35 0 58 -23q20 -21 20 -52zM16 476l-53 55l211 219l53 -56
zM281 0h-291v144h289q84 0 84 65v4q0 65 -82 65h-247v144l243 250l79 -80l-161 -169h87q122 0 181 -58q50 -48 50 -130v-7q0 -84 104 -84h35v-144h-44q-109 0 -165 57q-67 -57 -162 -57z" />
    <glyph glyph-name="uniFB9E" unicode="&#x6ba;" horiz-adv-x="686" arabic-form="isolated" 
d="M613 439v-344q0 -141 -81 -216q-75 -70 -209 -70q-127 0 -200 81q-61 68 -61 169q0 92 55 174l113 -36q-32 -61 -32 -117q0 -60 36 -95q33 -32 89 -32q64 0 102 36q39 37 39 106v344h149z" />
    <glyph glyph-name="uniFB9F" unicode="&#x6ba;" horiz-adv-x="743" arabic-form="final" 
d="M593 21q-20 -106 -95 -161q-69 -51 -176 -51q-127 0 -200 81q-61 68 -61 169q0 92 55 174l113 -36q-32 -61 -32 -117q0 -60 36 -95q33 -32 89 -32q64 0 102 36q39 37 39 106v344h149v-175q0 -70 25 -96q24 -24 81 -24h35v-144h-44q-65 0 -115 29q0 -1 -1 -4v-4z" />
    <glyph glyph-name="uniFBA0" unicode="&#x6bb;" horiz-adv-x="686" arabic-form="isolated" 
d="M308 426h-235v67h71v196h70v-114q41 56 105 56q53 0 81 -32q26 -29 26 -75q0 -98 -118 -98zM217 493l90 1q42 0 42 30q0 17 -12.5 28t-31.5 11q-25 0 -49.5 -19.5t-38.5 -50.5zM613 439v-344q0 -141 -81 -216q-75 -70 -209 -70q-127 0 -200 81q-61 68 -61 169
q0 92 55 174l113 -36q-32 -61 -32 -117q0 -60 36 -95q33 -32 89 -32q64 0 102 36q39 37 39 106v344h149z" />
    <glyph glyph-name="uniFBA1" unicode="&#x6bb;" horiz-adv-x="743" arabic-form="final" 
d="M308 426h-235v67h71v196h70v-114q41 56 105 56q53 0 81 -32q26 -29 26 -75q0 -98 -118 -98zM217 493l90 1q42 0 42 30q0 17 -12.5 28t-31.5 11q-25 0 -49.5 -19.5t-38.5 -50.5zM593 21q-20 -106 -95 -161q-69 -51 -176 -51q-127 0 -200 81q-61 68 -61 169q0 92 55 174
l113 -36q-32 -61 -32 -117q0 -60 36 -95q33 -32 89 -32q64 0 102 36q39 37 39 106v344h149v-175q0 -70 25 -96q24 -24 81 -24h35v-144h-44q-65 0 -115 29q0 -1 -1 -4v-4z" />
    <glyph glyph-name="uniFBA2" unicode="&#x6bb;" horiz-adv-x="353" arabic-form="initial" 
d="M259 548h-234v68h70v195h71v-113q42 56 104 56q53 0 81 -32q26 -29 26 -75q0 -99 -118 -99zM168 616l90 1q42 0 42 30q0 17 -12.5 28t-31.5 11q-25 0 -49.5 -19.5t-38.5 -50.5zM34 0h-44v144h34q65 0 88 32q19 27 19 88v175h148v-211q0 -124 -67 -179q-60 -49 -178 -49z
" />
    <glyph glyph-name="uniFBA3" unicode="&#x6bb;" horiz-adv-x="410" arabic-form="medial" 
d="M265 548h-235v68h70v195h71v-113q42 56 104 56q53 0 82 -32q26 -29 26 -75q0 -99 -118 -99zM174 616l89 1q42 0 42 30q0 17 -12 28t-31 11q-25 0 -49.5 -19.5t-38.5 -50.5zM34 0h-44v144h34q65 0 88 32q19 27 19 88v175h148v-175q0 -70 25 -96q24 -24 82 -24h34v-144h-44
q-116 0 -170 64q-57 -64 -172 -64z" />
    <glyph glyph-name="uniFBA4" unicode="&#x6c0;" horiz-adv-x="528" arabic-form="isolated" 
d="M365 542h-215v67h44q-12 20 -12 42q0 38 28 62q24 21 59 21q43 0 72 -35l-23 -45q-19 12 -37 12q-27 0 -27 -26q0 -17 13 -31h98v-67zM270 -14h-12q-94 0 -144 70q-46 63 -46 171q0 112 62 176q53 54 134 54q93 0 148 -70q48 -63 48 -160q0 -124 -59 -188
q-50 -53 -131 -53zM198 224q0 -48 19 -73q17 -21 43 -21h8q62 0 62 94q0 46 -20 71q-17 22 -46 22q-31 0 -48.5 -25t-17.5 -68z" />
    <glyph glyph-name="uniFBA5" unicode="&#x6c0;" horiz-adv-x="560" arabic-form="final" 
d="M347 574h-215v67h44q-11 19 -11 42q0 38 27 62q24 21 59 21q44 0 72 -35l-23 -45q-18 13 -37 13q-27 0 -27 -27q0 -15 13 -31h98v-67zM570 0h-44q-126 0 -184 71q-47 -46 -117 -46q-81 0 -136 62q-52 59 -52 150q0 99 64 161q58 55 147 55h50v44h132v-233q0 -70 25 -96
q24 -24 81 -24h34v-144zM298 331h-47q-34 0 -54.5 -23t-20.5 -61q0 -41 21 -67q20 -24 52 -24q28 0 52 21q-3 24 -3 51v103z" />
    <glyph glyph-name="uniFBA6" unicode="&#x6c1;" horiz-adv-x="528" arabic-form="isolated" 
d="M270 -14h-12q-94 0 -144 70q-46 63 -46 171q0 112 62 176q53 54 134 54q93 0 148 -70q48 -63 48 -160q0 -124 -59 -188q-50 -53 -131 -53zM198 224q0 -48 19 -73q17 -21 43 -21h8q62 0 62 94q0 46 -20 71q-17 22 -46 22q-31 0 -48.5 -25t-17.5 -68z" />
    <glyph glyph-name="uniFBA7" unicode="&#x6c1;" horiz-adv-x="641" arabic-form="final" 
d="M628 0q-92 0 -146 49q-24 21 -58 74q-22 34 -36 47q-22 20 -51 20q-50 0 -106 -56q-30 -31 -101 -125l-15 -20l-101 65q76 134 160 208q89 78 176 78q66 0 108 -34q25 -20 59 -74q32 -51 56 -68q29 -20 70 -20h8v-144h-23z" />
    <glyph glyph-name="uniFBA8" unicode="&#x6c1;" horiz-adv-x="353" arabic-form="initial" 
d="M34 0h-44v144h34q65 0 88 32q19 27 19 88v175h148v-211q0 -124 -67 -179q-60 -49 -178 -49zM121 -338l-131 47l73 223l116 -15z" />
    <glyph glyph-name="uniFBA9" unicode="&#x6c1;" horiz-adv-x="662" arabic-form="medial" 
d="M672 0h-13q-45 0 -65 -7t-29 -26q-12 -26 -12 -133v-162h-81q-162 0 -247 102q-74 87 -74 232q0 17 1 35q-62 -41 -145 -41h-17v144h14q104 0 211 118l113 -50q-38 -102 -38 -194q0 -94 38 -148q33 -48 86 -48v67q0 87 16 135q19 60 68 89q55 31 156 31h18v-144z" />
    <glyph glyph-name="uniFBAA" unicode="&#x6be;" horiz-adv-x="650" arabic-form="isolated" 
d="M119 0h-129v144h61h36q-17 34 -17 70q0 63 43 104q40 39 102 39q70 0 113 -52q35 -41 35 -96q0 -34 -17 -65q7 0 20 2q5 1 7 1q52 9 52 66q0 65 -52 119q-71 74 -220 82l28 131q190 -10 305 -136q49 -53 72 -117q16 -46 16 -90q0 -202 -210 -202h-43q-59 0 -103 22
q-42 -22 -99 -22zM215 144q49 19 49 71q0 25 -13 40t-36 15t-36.5 -15t-13.5 -40q0 -51 50 -71z" />
    <glyph glyph-name="uniFBAB" unicode="&#x6be;" horiz-adv-x="701" arabic-form="final" 
d="M119 0h-129v144h65h32q-17 34 -17 70q0 63 43 104q40 39 102 39q70 0 113 -52q35 -41 35 -96q0 -34 -17 -65q13 0 25 3q54 8 54 66q0 65 -52 119q-71 74 -220 82l28 131q119 -5 215 -62q83 -49 132 -127q45 -72 45 -138q0 -74 104 -74h34v-144h-44q-100 0 -155 43
q-52 -43 -148 -43h-43q-59 0 -103 22q-42 -22 -99 -22zM215 144q49 19 49 71q0 25 -13 40t-36 15t-36.5 -15t-13.5 -40q0 -51 50 -71z" />
    <glyph glyph-name="uniFBAC" unicode="&#x6be;" horiz-adv-x="650" arabic-form="initial" 
d="M119 0h-129v144h61h36q-17 34 -17 70q0 63 43 104q40 39 102 39q70 0 113 -52q35 -41 35 -96q0 -34 -17 -65q7 0 20 2q5 1 7 1q52 9 52 66q0 65 -52 119q-71 74 -220 82l28 131q190 -10 305 -136q49 -53 72 -117q16 -46 16 -90q0 -202 -210 -202h-43q-59 0 -103 22
q-42 -22 -99 -22zM215 144q49 19 49 71q0 25 -13 40t-36 15t-36.5 -15t-13.5 -40q0 -51 50 -71z" />
    <glyph glyph-name="uniFBAD" unicode="&#x6be;" horiz-adv-x="701" arabic-form="medial" 
d="M119 0h-129v144h65h32q-17 34 -17 70q0 63 43 104q40 39 102 39q70 0 113 -52q35 -41 35 -96q0 -34 -17 -65q13 0 25 3q54 8 54 66q0 65 -52 119q-71 74 -220 82l28 131q119 -5 215 -62q83 -49 132 -127q45 -72 45 -138q0 -74 104 -74h34v-144h-44q-100 0 -155 43
q-52 -43 -148 -43h-43q-59 0 -103 22q-42 -22 -99 -22zM215 144q49 19 49 71q0 25 -13 40t-36 15t-36.5 -15t-13.5 -40q0 -51 50 -71z" />
    <glyph glyph-name="uniFBAE" unicode="&#x6d2;" horiz-adv-x="933" arabic-form="isolated" 
d="M809 0h-544q-124 0 -177 53q-47 48 -47 145q0 101 64 150q57 43 159 43h31v18q0 179 199 179q71 0 121 -37l-39 -114q-37 24 -76 24q-41 0 -59.5 -28.5t-18.5 -91.5v-81h-159q-74 0 -74 -60q0 -31 16.5 -43.5t57.5 -12.5h589z" />
    <glyph glyph-name="uniFBAF" unicode="&#x6d2;" horiz-adv-x="841" arabic-form="final" 
d="M851 0h-226q-219 0 -320 -35q-68 -24 -68 -56q0 -20 17 -26.5t71 -6.5h338l-36 -144h-298q-130 0 -191 40q-56 37 -56 112q0 138 154 202q141 58 421 58h194v-144z" />
    <glyph glyph-name="uniFBB0" unicode="&#x6d3;" horiz-adv-x="933" arabic-form="isolated" 
d="M306 589h-215v67h44q-11 18 -11 42q0 38 27 62q24 21 59 21q45 0 72 -35l-23 -45q-20 13 -37 13q-27 0 -27 -27q0 -15 13 -31h98v-67zM809 0h-544q-124 0 -177 53q-47 48 -47 145q0 101 64 150q57 43 159 43h31v18q0 179 199 179q71 0 121 -37l-39 -114q-37 24 -76 24
q-41 0 -59.5 -28.5t-18.5 -91.5v-81h-159q-74 0 -74 -60q0 -31 16.5 -43.5t57.5 -12.5h589z" />
    <glyph glyph-name="uniFBB1" unicode="&#x6d3;" horiz-adv-x="841" arabic-form="final" 
d="M617 243h-215v67h44q-11 20 -11 42q0 38 27 62q24 21 59 21q45 0 72 -35l-23 -45q-17 12 -37 12q-12 0 -19.5 -7.5t-7.5 -18.5q0 -17 13 -31h98v-67zM851 0h-226q-219 0 -320 -35q-68 -24 -68 -56q0 -20 17 -26.5t71 -6.5h338l-36 -144h-298q-130 0 -191 40
q-56 37 -56 112q0 138 154 202q141 58 421 58h194v-144z" />
    <glyph glyph-name="uniFBD3" unicode="&#x6ad;" horiz-adv-x="890" arabic-form="isolated" 
d="M815 960q0 -28 -20.5 -48t-49.5 -20t-49 20t-20 48t20 48t49 20t49.5 -20t20.5 -48zM738 819q0 -33 -26 -55q-23 -19 -52 -19q-33 0 -57 24q-20 22 -20 50q0 33 26 55q22 19 51 19q34 0 58 -24q20 -21 20 -50zM906 819q0 -33 -26 -55q-22 -19 -52 -19q-33 0 -56 24
q-20 22 -20 50q0 33 25 55q22 19 51 19q35 0 58 -24q20 -21 20 -50zM585 0h-280q-116 0 -182 81q-51 63 -51 149q0 69 36 124q35 51 94 76l58 -89q-56 -33 -56 -96q0 -44 31 -73q31 -28 79 -28h251q62 0 85 32q18 27 18 88v402h148v-438q0 -125 -62 -179q-55 -49 -169 -49z
M462 344h-121l2 66h112q31 0 31 30q0 18 -13 28t-35 10q-31 0 -57 -22v61l95 104l48 -40l-46 -51q36 -7 55.5 -31.5t19.5 -62.5q0 -46 -29 -71q-24 -21 -62 -21z" />
    <glyph glyph-name="uniFBD4" unicode="&#x6ad;" horiz-adv-x="947" arabic-form="final" 
d="M815 960q0 -28 -20.5 -48t-49.5 -20t-49 20t-20 48t20 48t49 20t49.5 -20t20.5 -48zM738 819q0 -33 -26 -55q-23 -19 -52 -19q-33 0 -57 24q-20 22 -20 50q0 33 26 55q22 19 51 19q34 0 58 -24q20 -21 20 -50zM906 819q0 -33 -26 -55q-22 -19 -52 -19q-33 0 -56 24
q-20 22 -20 50q0 33 25 55q22 19 51 19q35 0 58 -24q20 -21 20 -50zM585 0h-271q-126 0 -192 81q-50 61 -50 149q0 69 36 124q35 51 94 76l58 -89q-56 -33 -56 -96q0 -44 31 -73q31 -28 79 -28h251q62 0 85 32q18 27 18 88v402h148v-402q0 -70 25 -96q24 -24 82 -24h34v-144
h-44q-114 0 -168 61q-52 -61 -160 -61zM462 344h-121l2 66h112q31 0 31 30q0 18 -13 28t-35 10q-31 0 -57 -22v61l95 104l48 -40l-46 -51q36 -7 55.5 -31.5t19.5 -62.5q0 -46 -29 -71q-24 -21 -62 -21z" />
    <glyph glyph-name="uniFBD5" unicode="&#x6ad;" horiz-adv-x="555" arabic-form="initial" 
d="M151 857q0 -28 -20.5 -48t-49.5 -20t-49.5 20t-20.5 48t20.5 48t49.5 20t49.5 -20t20.5 -48zM73 716q0 -33 -26 -55q-21 -19 -51 -19q-34 0 -57 24q-20 21 -20 50q0 33 26 55q22 19 51 19q34 0 57 -24q20 -22 20 -50zM242 716q0 -33 -26 -55q-22 -19 -52 -19
q-34 0 -57 24q-20 21 -20 50q0 33 26 55q22 19 51 19q34 0 58 -24q20 -22 20 -50zM281 0h-291v144h289q84 0 84 69v1q0 64 -82 64h-247v144l243 250l79 -80l-162 -169h82q133 0 190 -61q47 -51 47 -150v-1q0 -112 -62 -164q-57 -47 -170 -47z" />
    <glyph glyph-name="uniFBD6" unicode="&#x6ad;" horiz-adv-x="642" arabic-form="medial" 
d="M151 857q0 -28 -20.5 -48t-49.5 -20t-49.5 20t-20.5 48t20.5 48t49.5 20t49.5 -20t20.5 -48zM73 716q0 -33 -26 -55q-21 -19 -51 -19q-34 0 -57 24q-20 21 -20 50q0 33 26 55q22 19 51 19q34 0 57 -24q20 -22 20 -50zM242 716q0 -33 -26 -55q-22 -19 -52 -19
q-34 0 -57 24q-20 21 -20 50q0 33 26 55q22 19 51 19q34 0 58 -24q20 -22 20 -50zM281 0h-291v144h289q84 0 84 65v4q0 65 -82 65h-247v144l243 250l79 -80l-161 -169h87q122 0 181 -58q50 -48 50 -130v-7q0 -84 104 -84h35v-144h-44q-110 0 -165 57q-67 -57 -162 -57z" />
    <glyph glyph-name="uniFBD7" unicode="&#x6c7;" horiz-adv-x="501" arabic-form="isolated" 
d="M296 572l-183 -33l-14 76l125 22q-18 24 -18 54q0 42 29 72q26 27 63 27q45 0 71 -35q22 -28 22 -67q0 -50 -33 -83q-26 -27 -62 -33zM301 650q23 12 23 40t-24 28q-23 0 -23 -27q0 -32 24 -41zM298 30q-17 -5 -37 -5q-120 0 -174 69q-42 53 -42 141q0 99 62 160
q56 56 143 56q91 0 143 -57q45 -49 45 -124v-263q0 -101 -69 -157q-56 -45 -136 -45q-83 0 -158 45l34 106q45 -24 91 -24q87 0 97 86q0 2 1 6v6zM298 150v124q0 58 -53 58q-32 0 -50.5 -23t-18.5 -64q0 -46 23 -75q21 -26 54 -26q23 0 45 6z" />
    <glyph glyph-name="uniFBD8" unicode="&#x6c7;" horiz-adv-x="513" arabic-form="final" 
d="M296 572l-183 -33l-14 76l125 22q-18 24 -18 54q0 42 29 72q26 27 63 27q45 0 71 -35q22 -28 22 -67q0 -50 -33 -83q-26 -27 -62 -33zM301 650q23 12 23 40t-24 28q-23 0 -23 -27q0 -32 24 -41zM438 0q-2 -98 -71 -151q-55 -44 -134 -44q-83 0 -158 45l34 106
q45 -24 91 -24q87 0 97 83q-21 0 -31 1q-113 5 -171 71q-50 57 -50 148q0 99 62 160q56 56 143 56q91 0 143 -57q45 -49 45 -124v-126h85v-144h-85zM298 144v130q0 58 -53 58q-32 0 -50.5 -23t-18.5 -64q0 -46 23 -75q22 -26 56 -26h43z" />
    <glyph glyph-name="uniFBD9" unicode="&#x6c6;" horiz-adv-x="501" arabic-form="isolated" 
d="M189 731l56 -116l53 116h103l-106 -197h-100l-107 197h101zM298 30q-17 -5 -37 -5q-120 0 -174 69q-42 53 -42 141q0 99 62 160q56 56 143 56q91 0 143 -57q45 -49 45 -124v-263q0 -101 -69 -157q-56 -45 -136 -45q-83 0 -158 45l34 106q45 -24 91 -24q87 0 97 86
q0 2 1 6v6zM298 150v124q0 58 -53 58q-32 0 -50.5 -23t-18.5 -64q0 -46 23 -75q21 -26 54 -26q23 0 45 6z" />
    <glyph glyph-name="uniFBDA" unicode="&#x6c6;" horiz-adv-x="513" arabic-form="final" 
d="M189 731l56 -116l53 116h103l-106 -197h-100l-107 197h101zM438 0q-2 -98 -71 -151q-55 -44 -134 -44q-83 0 -158 45l34 106q45 -24 91 -24q87 0 97 83q-21 0 -31 1q-113 5 -171 71q-50 57 -50 148q0 99 62 160q56 56 143 56q91 0 143 -57q45 -49 45 -124v-126h85v-144
h-85zM298 144v130q0 58 -53 58q-32 0 -50.5 -23t-18.5 -64q0 -46 23 -75q22 -26 56 -26h43z" />
    <glyph glyph-name="uniFBDB" unicode="&#x6c8;" horiz-adv-x="501" arabic-form="isolated" 
d="M287 539h-84v189h84v-189zM298 30q-17 -5 -37 -5q-120 0 -174 69q-42 53 -42 141q0 99 62 160q56 56 143 56q91 0 143 -57q45 -49 45 -124v-263q0 -101 -69 -157q-56 -45 -136 -45q-83 0 -158 45l34 106q45 -24 91 -24q87 0 97 86q0 2 1 6v6zM298 150v124q0 58 -53 58
q-32 0 -50.5 -23t-18.5 -64q0 -46 23 -75q21 -26 54 -26q23 0 45 6z" />
    <glyph glyph-name="uniFBDC" unicode="&#x6c8;" horiz-adv-x="513" arabic-form="final" 
d="M287 539h-84v189h84v-189zM438 0q-2 -98 -71 -151q-55 -44 -134 -44q-83 0 -158 45l34 106q45 -24 91 -24q87 0 97 83q-21 0 -31 1q-113 5 -171 71q-50 57 -50 148q0 99 62 160q56 56 143 56q91 0 143 -57q45 -49 45 -124v-126h85v-144h-85zM298 144v130q0 58 -53 58
q-32 0 -50.5 -23t-18.5 -64q0 -46 23 -75q22 -26 56 -26h43z" />
    <glyph glyph-name="uniFBDD" unicode="&#x677;" horiz-adv-x="501" arabic-form="isolated" 
d="M205 636l-183 -34l-14 76l125 23q-18 24 -18 54q0 42 29 72q26 27 63 27q45 0 71 -35q22 -28 22 -67q0 -49 -33 -83q-26 -27 -62 -33zM210 714q23 12 23 40t-24 28q-23 0 -23 -27q0 -32 24 -41zM499 530h-215v67h44q-11 20 -11 42q0 38 27 62q24 21 59 21q45 0 72 -35
l-23 -45q-19 13 -36 13q-28 0 -28 -27q0 -15 13 -31h98v-67zM298 30q-17 -5 -37 -5q-120 0 -174 69q-42 53 -42 141q0 99 62 160q56 56 143 56q91 0 143 -57q45 -49 45 -124v-263q0 -101 -69 -157q-56 -45 -136 -45q-83 0 -158 45l34 106q45 -24 91 -24q87 0 97 86q0 2 1 6
v6zM298 150v124q0 58 -53 58q-32 0 -50.5 -23t-18.5 -64q0 -46 23 -75q21 -26 54 -26q23 0 45 6z" />
    <glyph glyph-name="uniFBDE" unicode="&#x6cb;" horiz-adv-x="501" arabic-form="isolated" 
d="M315 739q0 -28 -20.5 -48t-49.5 -20t-49 20t-20 48t20 48t49 20t49.5 -20t20.5 -48zM238 598q0 -34 -26 -55q-22 -19 -52 -19q-34 0 -57 24q-20 21 -20 50q0 33 26 55q22 19 51 19q35 0 58 -24q20 -21 20 -50zM406 598q0 -34 -26 -55q-22 -19 -52 -19q-33 0 -56 24
q-20 21 -20 50q0 33 25 55q22 19 51 19q35 0 58 -24q20 -21 20 -50zM298 30q-17 -5 -37 -5q-120 0 -174 69q-42 53 -42 141q0 99 62 160q56 56 143 56q91 0 143 -57q45 -49 45 -124v-263q0 -101 -69 -157q-56 -45 -136 -45q-83 0 -158 45l34 106q45 -24 91 -24q87 0 97 86
q0 2 1 6v6zM298 150v124q0 58 -53 58q-32 0 -50.5 -23t-18.5 -64q0 -46 23 -75q21 -26 54 -26q23 0 45 6z" />
    <glyph glyph-name="uniFBDF" unicode="&#x6cb;" horiz-adv-x="513" arabic-form="final" 
d="M315 739q0 -28 -20.5 -48t-49.5 -20t-49 20t-20 48t20 48t49 20t49.5 -20t20.5 -48zM238 598q0 -34 -26 -55q-22 -19 -52 -19q-34 0 -57 24q-20 21 -20 50q0 33 26 55q22 19 51 19q35 0 58 -24q20 -21 20 -50zM406 598q0 -34 -26 -55q-22 -19 -52 -19q-33 0 -56 24
q-20 21 -20 50q0 33 25 55q22 19 51 19q35 0 58 -24q20 -21 20 -50zM438 0q-2 -98 -71 -151q-55 -44 -134 -44q-83 0 -158 45l34 106q45 -24 91 -24q87 0 97 83q-21 0 -31 1q-113 5 -171 71q-50 57 -50 148q0 99 62 160q56 56 143 56q91 0 143 -57q45 -49 45 -124v-126h85
v-144h-85zM298 144v130q0 58 -53 58q-32 0 -50.5 -23t-18.5 -64q0 -46 23 -75q22 -26 56 -26h43z" />
    <glyph glyph-name="uniFBE0" unicode="&#x6c5;" horiz-adv-x="501" arabic-form="isolated" 
d="M298 30q-17 -5 -37 -5q-120 0 -174 69q-42 53 -42 141q0 99 62 160q56 56 143 56q91 0 143 -57q45 -49 45 -124v-263q0 -101 -69 -157q-56 -45 -136 -45q-83 0 -158 45l34 106q45 -24 91 -24q58 0 81 38h-112v30h125l3 18q0 2 1 6v6zM298 150v124q0 58 -53 58
q-32 0 -50.5 -23t-18.5 -64q0 -46 23 -75q21 -26 54 -26q23 0 45 6z" />
    <glyph glyph-name="uniFBE1" unicode="&#x6c5;" horiz-adv-x="513" arabic-form="final" 
d="M438 270v-126h85v-144h-85q-2 -98 -71 -151q-55 -44 -134 -44q-83 0 -158 45l34 106q45 -24 91 -24q57 0 82 38h-113v30h125l3 15q-21 0 -31 1q-113 5 -171 71q-50 57 -50 148q0 99 62 160q56 56 143 56q91 0 143 -57q45 -49 45 -124zM298 144v130q0 58 -53 58
q-32 0 -50.5 -23t-18.5 -64q0 -46 23 -75q22 -26 56 -26h43z" />
    <glyph glyph-name="uniFBE2" unicode="&#x6c9;" horiz-adv-x="501" arabic-form="isolated" 
d="M300 536l-55 114l-53 -114h-104l106 196h100l107 -196h-101zM298 30q-17 -5 -37 -5q-120 0 -174 69q-42 53 -42 141q0 99 62 160q56 56 143 56q91 0 143 -57q45 -49 45 -124v-263q0 -101 -69 -157q-56 -45 -136 -45q-83 0 -158 45l34 106q45 -24 91 -24q87 0 97 86
q0 2 1 6v6zM298 150v124q0 58 -53 58q-32 0 -50.5 -23t-18.5 -64q0 -46 23 -75q21 -26 54 -26q23 0 45 6z" />
    <glyph glyph-name="uniFBE3" unicode="&#x6c9;" horiz-adv-x="513" arabic-form="final" 
d="M300 536l-55 114l-53 -114h-104l106 196h100l107 -196h-101zM438 0q-2 -98 -71 -151q-55 -44 -134 -44q-83 0 -158 45l34 106q45 -24 91 -24q87 0 97 83q-21 0 -31 1q-113 5 -171 71q-50 57 -50 148q0 99 62 160q56 56 143 56q91 0 143 -57q45 -49 45 -124v-126h85v-144
h-85zM298 144v130q0 58 -53 58q-32 0 -50.5 -23t-18.5 -64q0 -46 23 -75q22 -26 56 -26h43z" />
    <glyph glyph-name="uniFBE4" unicode="&#x6d0;" horiz-adv-x="732" arabic-form="isolated" 
d="M629 325h-126q-66 0 -66 -48q0 -41 44 -65q17 -9 69 -27q66 -22 94 -46q44 -37 44 -103q0 -106 -85 -168q-84 -61 -234 -61q-167 0 -250 82q-65 65 -65 167q0 94 55 176l115 -36q-33 -61 -33 -115q0 -66 50 -101q47 -33 128 -33q72 0 123 26q48 24 48 58q0 19 -16 30
t-70 31q-82 31 -115 66q-43 46 -43 120q0 92 64 142q51 39 125 39h144v-134zM437 -329q0 -28 -20 -47.5t-49 -19.5t-48.5 19.5t-19.5 47.5t19.5 47.5t48.5 19.5t49 -19.5t20 -47.5zM437 -478q0 -28 -20 -47.5t-49 -19.5t-48.5 19.5t-19.5 47.5t19.5 47.5t48.5 19.5t49 -19.5
t20 -47.5z" />
    <glyph glyph-name="uniFBE5" unicode="&#x6d0;" horiz-adv-x="736" arabic-form="final" 
d="M707 0q-11 -96 -102 -149q-87 -52 -236 -52q-166 0 -250 86q-65 68 -65 171q0 94 55 176l116 -37q-34 -59 -34 -116q0 -73 57 -114q53 -38 141 -38q72 0 119 20q46 19 57 53h-105v144h286v-144h-39zM437 -321q0 -29 -20 -48.5t-49 -19.5t-48.5 19.5t-19.5 48.5
q0 28 19.5 47t48.5 19t49 -19t20 -47zM437 -471q0 -28 -20 -47.5t-49 -19.5t-48.5 19.5t-19.5 47.5t19.5 47.5t48.5 19.5t49 -19.5t20 -47.5z" />
    <glyph glyph-name="uniFBE6" unicode="&#x6d0;" horiz-adv-x="353" arabic-form="initial" 
d="M-10 0v144h34q65 0 88 32q19 27 19 88v175h148v-211q0 -124 -67 -179q-60 -49 -178 -49h-44zM137 -355q-29 0 -48.5 19.5t-19.5 47.5t20 47.5t48 19.5q29 0 49 -19.5t20 -47.5t-20 -47.5t-49 -19.5zM137 -206q-29 0 -48.5 19.5t-19.5 47.5t19.5 47.5t48.5 19.5t49 -19.5
t20 -47.5t-20 -47.5t-49 -19.5z" />
    <glyph glyph-name="uniFBE7" unicode="&#x6d0;" horiz-adv-x="410" arabic-form="medial" 
d="M-10 0v144h34q65 0 88 32q19 27 19 88v175h148v-175q0 -70 25 -96q24 -24 82 -24h34v-144h-44q-116 0 -170 64q-57 -64 -172 -64h-44zM201 -355q-29 0 -49 19.5t-20 47.5t20 47.5t49 19.5q28 0 48 -19.5t20 -47.5t-19.5 -47.5t-48.5 -19.5zM201 -206q-29 0 -49 19.5
t-20 47.5t20 47.5t49 19.5t48.5 -19.5t19.5 -47.5t-19.5 -47.5t-48.5 -19.5z" />
    <glyph glyph-name="uniFBE8" unicode="&#x649;" horiz-adv-x="353" arabic-form="initial" 
d="M34 0h-44v144h34q65 0 88 32q19 27 19 88v175h148v-211q0 -124 -67 -179q-60 -49 -178 -49z" />
    <glyph glyph-name="uniFBE9" unicode="&#x649;" horiz-adv-x="410" arabic-form="medial" 
d="M34 0h-44v144h34q65 0 88 32q19 27 19 88v175h148v-175q0 -70 25 -96q24 -24 82 -24h34v-144h-44q-116 0 -170 64q-57 -64 -172 -64z" />
    <glyph glyph-name="uniFBFC" unicode="&#x6cc;" horiz-adv-x="732" arabic-form="isolated" 
d="M629 325h-126q-66 0 -66 -48q0 -41 44 -65q17 -9 69 -27q66 -22 94 -46q44 -37 44 -103q0 -106 -85 -168q-84 -61 -234 -61q-167 0 -250 82q-65 65 -65 167q0 94 55 176l115 -36q-33 -61 -33 -115q0 -66 50 -101q47 -33 128 -33q72 0 123 26q48 24 48 58q0 19 -16 30
t-70 31q-82 31 -115 66q-43 46 -43 120q0 92 64 142q51 39 125 39h144v-134z" />
    <glyph glyph-name="uniFBFD" unicode="&#x6cc;" horiz-adv-x="736" arabic-form="final" 
d="M707 0q-11 -96 -102 -149q-87 -52 -236 -52q-166 0 -250 86q-65 68 -65 171q0 94 55 176l116 -37q-34 -59 -34 -116q0 -73 57 -114q53 -38 141 -38q72 0 119 20q46 19 57 53h-105v144h286v-144h-39z" />
    <glyph glyph-name="uniFBFE" unicode="&#x6cc;" horiz-adv-x="353" arabic-form="initial" 
d="M-10 0v144h34q65 0 88 32q19 27 19 88v175h148v-211q0 -124 -67 -179q-60 -49 -178 -49h-44zM48 -221q-34 0 -57 25q-20 21 -20 50q0 33 26 55q22 19 51 19q34 0 57 -24q20 -22 20 -50q0 -34 -26 -56q-22 -19 -51 -19zM216 -221q-34 0 -57 25q-20 21 -20 50q0 33 26 55
q22 19 51 19q33 0 55 -21t22 -53t-22 -53.5t-55 -21.5z" />
    <glyph glyph-name="uniFBFF" unicode="&#x6cc;" horiz-adv-x="410" arabic-form="medial" 
d="M-10 0v144h34q65 0 88 32q19 27 19 88v175h148v-175q0 -70 25 -96q24 -24 82 -24h34v-144h-44q-116 0 -170 64q-57 -64 -172 -64h-44zM84 -221q-33 0 -57 25q-20 21 -20 50q0 33 26 55q22 19 51 19q34 0 58 -24q20 -22 20 -50q0 -33 -26 -56q-22 -19 -52 -19zM252 -221
q-33 0 -56 25q-20 21 -20 50q0 33 25 55q22 19 51 19q35 0 58 -23q20 -20 20 -51q0 -32 -22 -53.5t-56 -21.5z" />
    <glyph glyph-name="uniFCF3" unicode="&#xfcf3;" horiz-adv-x="149" arabic-form="medial" 
d="M121 803l-184 -33l-13 76l124 22q-17 25 -17 54q0 42 28 72q26 27 63 27q45 0 72 -35q21 -28 21 -67q0 -49 -33 -83q-25 -26 -61 -33zM125 881q24 11 24 40q0 28 -25 28q-23 0 -23 -27q0 -30 24 -41zM75 562q-27 -15 -60 -15q-41 0 -67 23q-25 21 -25 56v109h75v-97
q0 -19 19 -19t19 19v75h74v-75q0 -19 20 -19q21 0 21 19v97h73v-109q0 -39 -33 -62q-25 -17 -59 -17q-37 0 -57 15zM159 0h-169v144h169v-144z" />
    <glyph glyph-name="uniFCF4" unicode="&#xfcf4;" horiz-adv-x="149" arabic-form="medial" 
d="M68 719q-25 -15 -59 -15q-41 0 -67 23q-25 21 -25 56v108h74v-96q0 -19 20 -19q19 0 19 19v75h74v-75q0 -19 20 -19q21 0 21 19v96h73v-108q0 -40 -33 -62q-25 -17 -59 -17q-37 0 -58 15zM204 582l-243 -43l-16 88l244 44zM159 0h-169v144h169v-144z" />
    <glyph glyph-name="uniFD3C" unicode="&#xfd3c;" horiz-adv-x="354" arabic-form="final" 
d="M269 840l-242 -44l-14 80l242 43zM282 720l-242 -44l-14 78l242 45zM364 0h-46q-135 0 -193 63q-51 54 -51 160v384h148v-345q0 -70 23 -94q24 -24 84 -24h35v-144z" />
    <glyph glyph-name="uniFD3D" unicode="&#xfd3d;" horiz-adv-x="297" arabic-form="isolated" 
d="M269 840l-242 -44l-14 80l242 43zM282 720l-242 -44l-14 78l242 45zM224 0h-150v607h150v-607z" />
    <glyph glyph-name="uniFE71" unicode="&#xfe71;" horiz-adv-x="149" arabic-form="medial" 
d="M196 703l-242 -44l-15 80l242 43zM208 582l-242 -43l-14 78l242 45zM159 0h-169v144h169v-144z" />
    <glyph glyph-name="uniFE72" unicode="&#xfe72;" horiz-adv-x="389" arabic-form="isolated" 
d="M205 768q-20 26 -20 50q0 44 29 74q26 26 62 26q47 0 73 -36q21 -29 21 -65q0 -65 -48 -102q-39 -29 -95 -29q-64 0 -114 35l-24 -33l-70 53l55 84h35q39 -55 96 -57zM280 774q11 4 18.5 16.5t7.5 26.5q0 13 -8 22t-20 9q-26 0 -26 -29q0 -15 8 -28t20 -17z" />
    <glyph glyph-name="uniFE74" unicode="&#xfe74;" horiz-adv-x="531" arabic-form="isolated" 
d="M139 -164l-242 -43l-14 79l242 44zM152 -284l-242 -44l-14 78l242 45z" />
    <glyph glyph-name="uniFE76" unicode="&#xfe76;" horiz-adv-x="297" arabic-form="isolated" 
d="M278 730l-243 -44l-16 89l244 44z" />
    <glyph glyph-name="uniFE77" unicode="&#xfe77;" horiz-adv-x="149" arabic-form="medial" 
d="M204 582l-243 -43l-16 88l244 44zM159 0h-169v144h169v-144z" />
    <glyph glyph-name="uniFE78" unicode="&#xfe78;" horiz-adv-x="330" arabic-form="isolated" 
d="M216 719l-184 -33l-13 76l125 22q-18 26 -18 55q0 42 29 72q26 27 63 27q45 0 71 -35q22 -29 22 -68q0 -49 -33 -83q-26 -26 -62 -33zM221 798q10 4 16.5 15.5t6.5 23.5q0 28 -25 28q-23 0 -23 -27q0 -13 7 -24.5t18 -15.5z" />
    <glyph glyph-name="uniFE79" unicode="&#xfe79;" horiz-adv-x="149" arabic-form="medial" 
d="M126 572l-184 -33l-13 76l124 22q-17 25 -17 54q0 42 28 72q26 27 63 27q45 0 72 -35q21 -28 21 -67q0 -50 -33 -83q-25 -27 -61 -33zM130 650q23 11 23 40q0 28 -24 28q-23 0 -23 -27q0 -13 7 -25t17 -16zM159 0h-169v144h169v-144z" />
    <glyph glyph-name="uniFE7A" unicode="&#xfe7a;" horiz-adv-x="297" arabic-form="isolated" 
d="M278 -174l-243 -44l-16 90l244 44z" />
    <glyph glyph-name="uniFE7B" unicode="&#xfe7b;" horiz-adv-x="149" arabic-form="medial" 
d="M159 0h-169v144h169v-144zM204 -174l-243 -44l-16 90l244 44z" />
    <glyph glyph-name="uniFE7C" unicode="&#xfe7c;" horiz-adv-x="339" arabic-form="isolated" 
d="M170 709q-25 -15 -59 -15q-41 0 -67 23q-25 22 -25 57v108h74v-97q0 -18 19 -18q20 0 20 18v76h74v-76q0 -18 20 -18t20 18v97h74v-108q0 -40 -33 -62q-25 -18 -60 -18q-36 0 -57 15z" />
    <glyph glyph-name="uniFE7D" unicode="&#xfe7d;" horiz-adv-x="149" arabic-form="medial" 
d="M75 562q-27 -15 -60 -15q-41 0 -67 23q-25 21 -25 56v109h75v-97q0 -19 19 -19t19 19v75h74v-75q0 -19 20 -19q21 0 21 19v97h73v-109q0 -39 -33 -62q-25 -17 -59 -17q-37 0 -57 15zM159 0h-169v144h169v-144z" />
    <glyph glyph-name="uniFE7E" unicode="&#xfe7e;" horiz-adv-x="231" arabic-form="isolated" 
d="M115 895q48 -11 75 -51q22 -31 22 -68q0 -40 -27 -65q-26 -25 -70 -25q-49 0 -75 30q-21 23 -21 57q0 44 28 79q27 33 68 43zM115 831q-10 -4 -17.5 -18t-7.5 -29q0 -32 24 -32q26 0 26 32q0 15 -7.5 29t-17.5 18z" />
    <glyph glyph-name="uniFE7F" unicode="&#xfe7f;" horiz-adv-x="149" arabic-form="medial" 
d="M75 747q47 -11 74 -51q22 -31 22 -67q0 -41 -27 -66q-26 -24 -69 -24q-50 0 -76 29q-21 23 -21 58q0 43 28 78q27 33 69 43zM75 683q-11 -3 -18.5 -16.5t-7.5 -30.5q0 -32 25 -32t25 32q0 16 -7 29.5t-17 17.5zM159 0h-169v144h169v-144z" />
    <glyph glyph-name="uniFE80" unicode="&#x621;" horiz-adv-x="548" arabic-form="isolated" 
d="M460 -10q-45 13 -98 13q-68 0 -134 -21t-108 -57l-86 94q42 39 94 65q-46 64 -46 149q0 94 63 159q58 59 141 59q109 0 176 -98l-62 -73q-47 43 -94 43q-41 0 -63 -31q-17 -24 -17 -62q0 -54 36 -103q41 8 90 8q82 0 151 -20z" />
    <glyph glyph-name="uniFE81" unicode="&#x622;" horiz-adv-x="364" arabic-form="isolated" 
d="M329 751q-14 -32 -39.5 -51t-54.5 -19q-33 0 -73 22q-22 12 -34 12q-25 0 -52 -32l-46 39q14 36 39 57t54 21q23 0 59 -20q30 -17 53 -17q25 0 45 32zM252 0h-150v607h150v-607z" />
    <glyph glyph-name="uniFE82" unicode="&#x622;" horiz-adv-x="371" arabic-form="final" 
d="M320 751q-14 -32 -39 -51t-55 -19q-33 0 -73 22q-21 12 -33 12q-25 0 -52 -32l-47 39q15 36 40 57t53 21q23 0 59 -20q30 -17 53 -17q25 0 45 32zM381 0h-46q-135 0 -193 63q-51 54 -51 160v384h148v-345q0 -69 24 -94q23 -24 83 -24h35v-144z" />
    <glyph glyph-name="uniFE83" unicode="&#x623;" horiz-adv-x="297" arabic-form="isolated" 
d="M256 682h-215v67h44q-12 21 -12 42q0 38 28 62q24 21 59 21q44 0 72 -34l-23 -46q-18 13 -37 13q-27 0 -27 -27q0 -15 12 -31h99v-67zM224 0h-150v608h150v-608z" />
    <glyph glyph-name="uniFE84" unicode="&#x623;" horiz-adv-x="354" arabic-form="final" 
d="M256 682h-215v67h44q-12 21 -12 42q0 38 28 62q24 21 59 21q44 0 72 -34l-23 -46q-18 13 -37 13q-27 0 -27 -27q0 -15 12 -31h99v-67zM364 0h-46q-135 0 -193 63q-51 54 -51 160v385h148v-346q0 -70 23 -94q24 -24 84 -24h35v-144z" />
    <glyph glyph-name="uniFE85" unicode="&#x624;" horiz-adv-x="501" arabic-form="isolated" 
d="M352 542h-215v67h45q-12 20 -12 42q0 38 27 62q24 21 60 21q44 0 71 -35l-23 -45q-17 12 -36 12q-13 0 -20.5 -7t-7.5 -19q0 -15 13 -31h98v-67zM298 30q-17 -5 -37 -5q-120 0 -174 69q-42 53 -42 141q0 99 62 160q56 56 143 56q91 0 143 -57q45 -49 45 -124v-263
q0 -101 -69 -157q-56 -45 -136 -45q-83 0 -158 45l34 106q45 -24 91 -24q87 0 97 86q0 2 1 6v6zM298 150v124q0 58 -53 58q-32 0 -50.5 -23t-18.5 -64q0 -46 23 -75q21 -26 54 -26q23 0 45 6z" />
    <glyph glyph-name="uniFE86" unicode="&#x624;" horiz-adv-x="513" arabic-form="final" 
d="M352 542h-215v67h45q-12 20 -12 42q0 38 27 62q24 21 60 21q44 0 71 -35l-23 -45q-17 12 -36 12q-13 0 -20.5 -7t-7.5 -19q0 -15 13 -31h98v-67zM438 0q-2 -98 -71 -151q-55 -44 -134 -44q-83 0 -158 45l34 106q45 -24 91 -24q87 0 97 83q-21 0 -31 1q-113 5 -171 71
q-50 57 -50 148q0 99 62 160q56 56 143 56q91 0 143 -57q45 -49 45 -124v-126h85v-144h-85zM298 144v130q0 58 -53 58q-32 0 -50.5 -23t-18.5 -64q0 -46 23 -75q22 -26 56 -26h43z" />
    <glyph glyph-name="uniFE87" unicode="&#x625;" horiz-adv-x="330" arabic-form="isolated" 
d="M240 0h-150v666h150v-666zM276 -279h-215v67h44q-11 20 -11 42q0 38 27 62q24 21 59 21q46 0 72 -35l-23 -45q-17 13 -36 13q-28 0 -28 -27q0 -15 13 -31h98v-67z" />
    <glyph glyph-name="uniFE88" unicode="&#x625;" horiz-adv-x="354" arabic-form="final" 
d="M364 0h-46q-135 0 -193 63q-51 54 -51 160v443h148v-404q0 -70 23 -94q24 -24 84 -24h35v-144zM288 -279h-215v67h44q-11 18 -11 42q0 38 27 62q24 21 59 21q46 0 72 -35l-23 -45q-18 13 -37 13q-27 0 -27 -27q0 -15 13 -31h98v-67z" />
    <glyph glyph-name="uniFE89" unicode="&#x626;" horiz-adv-x="732" arabic-form="isolated" 
d="M238 355h-215v66h44q-11 19 -11 42q0 38 27 62q24 21 59 21q44 0 72 -34l-23 -46q-18 13 -37 13q-27 0 -27 -27q0 -15 13 -31h98v-66zM629 325h-126q-66 0 -66 -48q0 -41 44 -65q17 -9 69 -27q66 -22 94 -46q44 -37 44 -103q0 -106 -85 -168q-84 -61 -234 -61
q-167 0 -250 82q-65 65 -65 167q0 94 55 176l115 -36q-33 -61 -33 -115q0 -66 50 -101q47 -33 128 -33q72 0 123 26q48 24 48 58q0 19 -16 30t-70 31q-82 31 -115 66q-43 46 -43 120q0 92 64 142q51 39 125 39h144v-134z" />
    <glyph glyph-name="uniFE8A" unicode="&#x626;" horiz-adv-x="736" arabic-form="final" 
d="M301 332h-215v67h44q-11 20 -11 42q0 38 27 62q24 21 59 21q45 0 72 -35l-23 -45q-20 13 -37 13q-12 0 -19.5 -7.5t-7.5 -19.5q0 -15 13 -31h98v-67zM707 0q-11 -96 -102 -149q-87 -52 -236 -52q-166 0 -250 86q-65 68 -65 171q0 94 55 176l116 -37q-34 -59 -34 -116
q0 -73 57 -114q53 -38 141 -38q72 0 119 20q46 19 57 53h-105v144h286v-144h-39z" />
    <glyph glyph-name="uniFE8B" unicode="&#x626;" horiz-adv-x="353" arabic-form="initial" 
d="M308 538h-215v67h44q-11 22 -11 42q0 38 27 62q24 21 59 21q46 0 72 -34l-23 -46q-17 13 -36 13q-28 0 -28 -27q0 -15 13 -31h98v-67zM34 0h-44v144h34q65 0 88 32q19 27 19 88v175h148v-211q0 -124 -67 -179q-60 -49 -178 -49z" />
    <glyph glyph-name="uniFE8C" unicode="&#x626;" horiz-adv-x="410" arabic-form="medial" 
d="M314 538h-215v67h44q-12 21 -12 42q0 38 28 62q24 21 59 21q44 0 72 -34l-23 -46q-18 13 -37 13q-27 0 -27 -27q0 -15 13 -31h98v-67zM34 0h-44v144h34q65 0 88 32q19 27 19 88v175h148v-175q0 -70 25 -96q24 -24 82 -24h34v-144h-44q-116 0 -170 64q-57 -64 -172 -64z
" />
    <glyph glyph-name="uniFE8D" unicode="&#x627;" horiz-adv-x="297" arabic-form="isolated" 
d="M224 0h-150v666h150v-666z" />
    <glyph glyph-name="uniFE8E" unicode="&#x627;" horiz-adv-x="354" arabic-form="final" 
d="M364 0h-46q-135 0 -193 63q-51 54 -51 160v443h148v-404q0 -70 23 -94q24 -24 84 -24h35v-144z" />
    <glyph glyph-name="uniFE8F" unicode="&#x628;" horiz-adv-x="890" arabic-form="isolated" 
d="M585 0h-280q-116 0 -182 81q-51 63 -51 149q0 69 36 124q35 51 94 76l58 -89q-56 -33 -56 -96q0 -44 31 -73q31 -28 79 -28h251q62 0 85 32q18 27 18 88v175h148v-211q0 -125 -62 -179q-55 -49 -169 -49zM520 -146q0 -34 -26 -56q-22 -19 -51 -19q-34 0 -57 25
q-20 21 -20 50q0 33 26 55q22 19 51 19q34 0 57 -24q20 -22 20 -50z" />
    <glyph glyph-name="uniFE90" unicode="&#x628;" horiz-adv-x="947" arabic-form="final" 
d="M585 0h-280q-116 0 -182 81q-51 63 -51 149q0 69 36 124q35 51 94 76l58 -89q-56 -33 -56 -96q0 -44 31 -73q31 -28 79 -28h251q62 0 85 32q18 27 18 88v175h148v-175q0 -70 25 -96q24 -24 82 -24h34v-144h-44q-114 0 -168 61q-52 -61 -160 -61zM514 -146q0 -34 -26 -56
q-22 -19 -52 -19q-33 0 -56 25q-20 21 -20 50q0 33 25 55q22 19 51 19q35 0 58 -24q20 -21 20 -50z" />
    <glyph glyph-name="uniFE91" unicode="&#x628;" horiz-adv-x="353" arabic-form="initial" 
d="M-10 0v144h34q65 0 88 32q19 27 19 88v175h148v-211q0 -124 -67 -179q-60 -49 -178 -49h-44zM138 -221q-34 0 -57 25q-20 21 -20 50q0 33 26 55q22 19 51 19q34 0 58 -24q20 -22 20 -50q0 -33 -26 -56q-22 -19 -52 -19z" />
    <glyph glyph-name="uniFE92" unicode="&#x628;" horiz-adv-x="410" arabic-form="medial" 
d="M-10 0v144h34q65 0 88 32q19 27 19 88v175h148v-175q0 -70 25 -96q24 -24 82 -24h34v-144h-44q-116 0 -170 64q-57 -64 -172 -64h-44zM201 -221q-33 0 -56 25q-20 21 -20 50q0 33 25 55q22 19 51 19q35 0 58 -24q20 -21 20 -50q0 -34 -26 -56q-22 -19 -52 -19z" />
    <glyph glyph-name="uniFE93" unicode="&#x629;" horiz-adv-x="528" arabic-form="isolated" 
d="M250 598q0 -33 -26 -55q-21 -19 -51 -19q-34 0 -57 24q-20 21 -20 50q0 33 26 55q22 19 51 19q34 0 57 -24q20 -22 20 -50zM418 598q0 -32 -22 -53t-55 -21q-34 0 -57 24q-20 21 -20 50q0 33 26 55q22 19 51 19q33 0 55 -21t22 -53zM270 -14h-12q-94 0 -144 70
q-46 63 -46 171q0 112 62 176q53 54 134 54q93 0 148 -70q48 -63 48 -160q0 -124 -59 -188q-50 -53 -131 -53zM198 224q0 -48 19 -73q17 -21 43 -21h8q62 0 62 94q0 46 -20 71q-17 22 -46 22q-31 0 -48.5 -25t-17.5 -68z" />
    <glyph glyph-name="uniFE94" unicode="&#x629;" horiz-adv-x="560" arabic-form="final" 
d="M232 630q0 -33 -26 -55q-22 -19 -51 -19q-34 0 -57 24q-20 22 -20 50q0 34 26 56q22 19 51 19q34 0 57 -25q20 -21 20 -50zM400 630q0 -32 -22 -53t-55 -21q-34 0 -57 24q-20 22 -20 50q0 34 26 56q22 19 51 19q35 0 57 -23q20 -21 20 -52zM570 0h-44q-126 0 -184 71
q-47 -46 -117 -46q-81 0 -136 62q-52 59 -52 150q0 99 64 161q58 55 147 55h50v44h132v-233q0 -70 25 -96q24 -24 81 -24h34v-144zM298 331h-47q-34 0 -54.5 -23t-20.5 -61q0 -41 21 -67q20 -24 52 -24q28 0 52 21q-3 24 -3 51v103z" />
    <glyph glyph-name="uniFE95" unicode="&#x62a;" horiz-adv-x="890" arabic-form="isolated" 
d="M443 515q0 -33 -26 -56q-22 -19 -52 -19q-33 0 -57 25q-20 21 -20 50q0 33 26 55q22 19 51 19q34 0 58 -24q20 -22 20 -50zM611 515q0 -35 -26 -57q-22 -18 -52 -18q-33 0 -57 25q-20 21 -20 50q0 33 26 55q22 19 51 19q35 0 58 -23q20 -21 20 -51zM585 0h-280
q-116 0 -182 81q-51 63 -51 149q0 69 36 124q35 51 94 76l58 -89q-56 -33 -56 -96q0 -44 31 -73q31 -28 79 -28h251q62 0 85 32q18 27 18 88v175h148v-211q0 -125 -62 -179q-55 -49 -169 -49z" />
    <glyph glyph-name="uniFE96" unicode="&#x62a;" horiz-adv-x="947" arabic-form="final" 
d="M443 515q0 -33 -26 -56q-22 -19 -52 -19q-33 0 -57 25q-20 21 -20 50q0 33 26 55q22 19 51 19q34 0 58 -24q20 -22 20 -50zM611 515q0 -35 -26 -57q-22 -18 -52 -18q-33 0 -57 25q-20 21 -20 50q0 33 26 55q22 19 51 19q35 0 58 -23q20 -21 20 -51zM585 0h-280
q-116 0 -182 81q-51 63 -51 149q0 69 36 124q35 51 94 76l58 -89q-56 -33 -56 -96q0 -44 31 -73q31 -28 79 -28h251q62 0 85 32q18 27 18 88v175h148v-175q0 -70 25 -96q24 -24 82 -24h34v-144h-44q-114 0 -168 61q-52 -61 -160 -61z" />
    <glyph glyph-name="uniFE97" unicode="&#x62a;" horiz-adv-x="353" arabic-form="initial" 
d="M194 595q0 -33 -26 -56q-22 -19 -52 -19q-33 0 -57 25q-20 21 -20 50q0 33 26 55q22 19 51 19q34 0 58 -24q20 -22 20 -50zM362 595q0 -35 -26 -57q-22 -18 -52 -18q-33 0 -57 25q-20 21 -20 50q0 33 26 55q22 19 51 19q35 0 58 -23q20 -21 20 -51zM34 0h-44v144h34
q65 0 88 32q19 27 19 88v175h148v-211q0 -124 -67 -179q-60 -49 -178 -49z" />
    <glyph glyph-name="uniFE98" unicode="&#x62a;" horiz-adv-x="410" arabic-form="medial" 
d="M199 595q0 -34 -26 -56q-22 -19 -51 -19q-34 0 -57 25q-20 21 -20 50q0 33 26 55q22 19 51 19q34 0 57 -24q20 -22 20 -50zM367 595q0 -32 -22 -53.5t-55 -21.5q-34 0 -57 25q-20 21 -20 50q0 33 26 55q22 19 51 19q35 0 57 -23q20 -21 20 -51zM34 0h-44v144h34
q65 0 88 32q19 27 19 88v175h148v-175q0 -70 25 -96q24 -24 82 -24h34v-144h-44q-116 0 -170 64q-57 -64 -172 -64z" />
    <glyph glyph-name="uniFE99" unicode="&#x62b;" horiz-adv-x="890" arabic-form="isolated" 
d="M520 655q0 -28 -20.5 -47.5t-49.5 -19.5t-49 19.5t-20 47.5t20 48t49 20t49.5 -20t20.5 -48zM443 515q0 -33 -26 -56q-22 -19 -52 -19q-33 0 -57 25q-20 21 -20 50q0 33 26 55q22 19 51 19q34 0 58 -24q20 -22 20 -50zM611 515q0 -33 -26 -56q-22 -19 -52 -19
q-33 0 -57 25q-20 21 -20 50q0 33 26 55q22 19 51 19q34 0 58 -24q20 -22 20 -50zM585 0h-280q-116 0 -182 81q-51 63 -51 149q0 69 36 124q35 51 94 76l58 -89q-56 -33 -56 -96q0 -44 31 -73q31 -28 79 -28h251q62 0 85 32q18 27 18 88v175h148v-211q0 -125 -62 -179
q-55 -49 -169 -49z" />
    <glyph glyph-name="uniFE9A" unicode="&#x62b;" horiz-adv-x="947" arabic-form="final" 
d="M520 655q0 -28 -20.5 -47.5t-49.5 -19.5t-49 19.5t-20 47.5t20 48t49 20t49.5 -20t20.5 -48zM443 515q0 -33 -26 -56q-22 -19 -52 -19q-33 0 -57 25q-20 21 -20 50q0 33 26 55q22 19 51 19q34 0 58 -24q20 -22 20 -50zM611 515q0 -33 -26 -56q-22 -19 -52 -19
q-33 0 -57 25q-20 21 -20 50q0 33 26 55q22 19 51 19q34 0 58 -24q20 -22 20 -50zM585 0h-280q-116 0 -182 81q-51 63 -51 149q0 69 36 124q35 51 94 76l58 -89q-56 -33 -56 -96q0 -44 31 -73q31 -28 79 -28h251q62 0 85 32q18 27 18 88v175h148v-175q0 -70 25 -96
q24 -24 82 -24h34v-144h-44q-114 0 -168 61q-52 -61 -160 -61z" />
    <glyph glyph-name="uniFE9B" unicode="&#x62b;" horiz-adv-x="353" arabic-form="initial" 
d="M271 736q0 -28 -20.5 -48t-49.5 -20t-49 20t-20 48t20 47.5t49 19.5t49.5 -19.5t20.5 -47.5zM194 595q0 -33 -26 -56q-22 -19 -52 -19q-33 0 -57 25q-20 21 -20 50q0 33 26 55q22 19 51 19q34 0 58 -24q20 -22 20 -50zM362 595q0 -33 -26 -56q-22 -19 -52 -19
q-33 0 -57 25q-20 21 -20 50q0 33 26 55q22 19 51 19q34 0 58 -24q20 -22 20 -50zM34 0h-44v144h34q65 0 88 32q19 27 19 88v175h148v-211q0 -124 -67 -179q-60 -49 -178 -49z" />
    <glyph glyph-name="uniFE9C" unicode="&#x62b;" horiz-adv-x="410" arabic-form="medial" 
d="M277 736q0 -28 -20.5 -48t-50.5 -20q-28 0 -48.5 20t-20.5 48q0 27 20.5 47t48.5 20q29 0 50 -19.5t21 -47.5zM199 595q0 -34 -26 -56q-22 -19 -51 -19q-34 0 -57 25q-20 21 -20 50q0 33 26 55q22 19 51 19q34 0 57 -24q20 -22 20 -50zM367 595q0 -34 -26 -56
q-22 -19 -51 -19q-34 0 -57 25q-20 21 -20 50q0 33 26 55q22 19 51 19q34 0 57 -24q20 -22 20 -50zM34 0h-44v144h34q65 0 88 32q19 27 19 88v175h148v-175q0 -70 25 -96q24 -24 82 -24h34v-144h-44q-116 0 -170 64q-57 -64 -172 -64z" />
    <glyph glyph-name="uniFE9D" unicode="&#x62c;" horiz-adv-x="602" arabic-form="isolated" 
d="M519 -298q-39 -31 -94 -49.5t-110 -18.5q-123 0 -198 77q-72 75 -72 202q0 142 117 230q103 76 260 82q-62 92 -142 92q-68 0 -138 -61l-69 80q90 119 225 119q87 0 162 -63q71 -60 112 -165v-119q-186 5 -286 -44q-99 -50 -99 -149q0 -71 51 -110q40 -32 94 -32
q72 0 127 35zM413 -82q0 -26 -19 -44.5t-46 -18.5t-46 18.5t-19 44.5t19 44t46 18t46 -18t19 -44z" />
    <glyph glyph-name="uniFE9E" unicode="&#x62c;" horiz-adv-x="711" arabic-form="final" 
d="M519 -298q-39 -31 -94 -49.5t-110 -18.5q-123 0 -198 77q-72 75 -72 202q0 142 117 230q103 76 260 82q-62 92 -142 92q-68 0 -138 -61l-69 80q90 119 225 119q87 0 162 -63q71 -60 112 -165v-32q-5 -6 -14 -17q-2 -3 -3 -5q45 -29 133 -29h33v-144h-35q-108 0 -167 25
q-56 24 -86 77q-121 -13 -185 -63q-61 -48 -61 -124q0 -71 51 -110q40 -32 94 -32q72 0 127 35zM413 -82q0 -26 -19 -44.5t-46 -18.5t-46 18.5t-19 44.5t19 44t46 18t46 -18t19 -44z" />
    <glyph glyph-name="uniFE9F" unicode="&#x62c;" horiz-adv-x="564" arabic-form="initial" 
d="M129 0h-139v144h138q153 0 251 84q-63 89 -140 89q-68 0 -138 -61l-69 80q90 119 224 119q87 0 162 -63q72 -60 113 -165v-42q-72 -100 -165 -142.5t-237 -42.5zM329 -146q0 -34 -26 -56q-22 -19 -52 -19q-33 0 -56 25q-20 21 -20 50q0 33 25 55q22 19 51 19q35 0 58 -24
q20 -21 20 -50z" />
    <glyph glyph-name="uniFEA0" unicode="&#x62c;" horiz-adv-x="670" arabic-form="medial" 
d="M129 0h-139v144h138q153 0 251 84q-63 89 -140 89q-68 0 -138 -61l-69 80q90 119 224 119q87 0 162 -63q72 -60 113 -165v-31q-2 -6 -6 -19q-1 -2 -1 -4q42 -29 123 -29h33v-144h-35q-97 0 -154 20q-53 18 -84 58q-115 -78 -278 -78zM360 -146q0 -34 -26 -56
q-22 -19 -51 -19q-34 0 -57 25q-20 21 -20 50q0 33 26 55q22 19 51 19q34 0 57 -24q20 -22 20 -50z" />
    <glyph glyph-name="uniFEA1" unicode="&#x62d;" horiz-adv-x="602" arabic-form="isolated" 
d="M519 -298q-39 -31 -94 -49.5t-110 -18.5q-123 0 -198 77q-72 75 -72 202q0 142 117 230q103 76 260 82q-62 92 -142 92q-68 0 -138 -61l-69 80q90 119 225 119q87 0 162 -63q71 -60 112 -165v-119q-186 5 -286 -44q-99 -50 -99 -149q0 -71 51 -110q40 -32 94 -32
q72 0 127 35z" />
    <glyph glyph-name="uniFEA2" unicode="&#x62d;" horiz-adv-x="711" arabic-form="final" 
d="M519 -298q-39 -31 -94 -49.5t-110 -18.5q-123 0 -198 77q-72 75 -72 202q0 142 117 230q103 76 260 82q-62 92 -142 92q-68 0 -138 -61l-69 80q90 119 225 119q87 0 162 -63q71 -60 112 -165v-37q-3 -2 -9 -9q-5 -6 -8 -8q45 -29 133 -29h33v-144h-35q-108 0 -167 25
q-56 24 -86 77q-121 -13 -185 -63q-61 -48 -61 -124q0 -71 51 -110q40 -32 94 -32q72 0 127 35z" />
    <glyph glyph-name="uniFEA3" unicode="&#x62d;" horiz-adv-x="564" arabic-form="initial" 
d="M129 0h-139v144h138q153 0 251 84q-63 89 -140 89q-68 0 -138 -61l-69 80q90 119 224 119q87 0 162 -63q72 -60 113 -165v-42q-72 -100 -165 -142.5t-237 -42.5z" />
    <glyph glyph-name="uniFEA4" unicode="&#x62d;" horiz-adv-x="670" arabic-form="medial" 
d="M129 0h-139v144h138q153 0 251 84q-63 89 -140 89q-68 0 -138 -61l-69 80q90 119 224 119q87 0 162 -63q72 -60 113 -165v-31q-2 -6 -6 -19q-1 -2 -1 -4q42 -29 123 -29h33v-144h-35q-97 0 -154 20q-53 18 -84 58q-115 -78 -278 -78z" />
    <glyph glyph-name="uniFEA5" unicode="&#x62e;" horiz-adv-x="602" arabic-form="isolated" 
d="M372 597q0 -33 -26 -55q-22 -19 -52 -19q-33 0 -56 24q-20 22 -20 50q0 33 25 56q22 19 51 19q35 0 58 -25q20 -21 20 -50zM519 -298q-39 -31 -94 -49.5t-110 -18.5q-123 0 -198 77q-72 75 -72 202q0 142 117 230q103 76 260 82q-62 92 -142 92q-68 0 -138 -61l-69 80
q90 119 225 119q87 0 162 -63q71 -60 112 -165v-119q-186 5 -286 -44q-99 -50 -99 -149q0 -71 51 -110q40 -32 94 -32q72 0 127 35z" />
    <glyph glyph-name="uniFEA6" unicode="&#x62e;" horiz-adv-x="711" arabic-form="final" 
d="M372 597q0 -33 -26 -55q-22 -19 -52 -19q-33 0 -56 24q-20 22 -20 50q0 33 25 56q22 19 51 19q35 0 58 -25q20 -21 20 -50zM519 -298q-39 -31 -94 -49.5t-110 -18.5q-123 0 -198 77q-72 75 -72 202q0 142 117 230q103 76 260 82q-62 92 -142 92q-68 0 -138 -61l-69 80
q90 119 225 119q87 0 162 -63q71 -60 112 -165v-37q-3 -2 -9 -9q-5 -6 -8 -8q45 -29 133 -29h33v-144h-35q-108 0 -167 25q-56 24 -86 77q-121 -13 -185 -63q-61 -48 -61 -124q0 -71 51 -110q40 -32 94 -32q72 0 127 35z" />
    <glyph glyph-name="uniFEA7" unicode="&#x62e;" horiz-adv-x="564" arabic-form="initial" 
d="M332 597q0 -33 -26 -55q-22 -19 -51 -19q-34 0 -57 24q-20 22 -20 50q0 34 26 56q22 19 51 19q34 0 57 -25q20 -21 20 -50zM129 0h-139v144h138q153 0 251 84q-63 89 -140 89q-68 0 -138 -61l-69 80q90 119 224 119q87 0 162 -63q72 -60 113 -165v-42
q-72 -100 -165 -142.5t-237 -42.5z" />
    <glyph glyph-name="uniFEA8" unicode="&#x62e;" horiz-adv-x="670" arabic-form="medial" 
d="M328 597q0 -33 -26 -55q-22 -19 -51 -19q-34 0 -57 24q-20 22 -20 50q0 34 26 56q22 19 51 19q34 0 57 -25q20 -21 20 -50zM129 0h-139v144h138q153 0 251 84q-63 89 -140 89q-68 0 -138 -61l-69 80q90 119 224 119q87 0 162 -63q72 -60 113 -165v-31q-2 -6 -6 -19
q-1 -2 -1 -4q42 -29 123 -29h33v-144h-35q-97 0 -154 20q-53 18 -84 58q-115 -78 -278 -78z" />
    <glyph glyph-name="uniFEA9" unicode="&#x62f;" horiz-adv-x="483" arabic-form="isolated" 
d="M226 0h-206v144h179q61 0 61 50q0 34 -29 74.5t-74 69.5l85 114q82 -54 126 -127q40 -67 40 -137q0 -91 -45 -139q-46 -49 -137 -49z" />
    <glyph glyph-name="uniFEAA" unicode="&#x62f;" horiz-adv-x="534" arabic-form="final" 
d="M226 0h-206v144h179q61 0 61 50q0 34 -29 74.5t-74 69.5l85 114q74 -49 117 -114q39 -58 47 -121q4 -38 28.5 -55.5t74.5 -17.5h35v-144h-44q-91 0 -146 41q-44 -41 -128 -41z" />
    <glyph glyph-name="uniFEAB" unicode="&#x630;" horiz-adv-x="483" arabic-form="isolated" 
d="M286 588q0 -33 -26 -55q-22 -19 -52 -19q-33 0 -56 24q-20 22 -20 50q0 33 25 55q22 19 51 19q35 0 58 -24q20 -21 20 -50zM226 0h-206v144h179q61 0 61 50q0 34 -29 74.5t-74 69.5l85 114q82 -54 126 -127q40 -67 40 -137q0 -91 -45 -139q-46 -49 -137 -49z" />
    <glyph glyph-name="uniFEAC" unicode="&#x630;" horiz-adv-x="534" arabic-form="final" 
d="M290 588q0 -33 -26 -55q-22 -19 -52 -19q-33 0 -56 24q-20 22 -20 50q0 33 25 55q22 19 51 19q35 0 58 -24q20 -21 20 -50zM226 0h-206v144h179q61 0 61 50q0 34 -29 74.5t-74 69.5l85 114q74 -49 117 -114q39 -58 47 -121q4 -38 28.5 -55.5t74.5 -17.5h35v-144h-44
q-91 0 -146 41q-44 -41 -128 -41z" />
    <glyph glyph-name="uniFEAD" unicode="&#x631;" horiz-adv-x="356" arabic-form="isolated" 
d="M283 439v-432q0 -101 -60 -155q-49 -44 -123 -44q-83 0 -154 42l34 105q41 -22 76 -22q38 0 58.5 27t20.5 76v403h148z" />
    <glyph glyph-name="uniFEAE" unicode="&#x631;" horiz-adv-x="414" arabic-form="final" 
d="M275 24v-19q-1 -99 -59 -153q-47 -44 -116 -44q-83 0 -154 42l34 105q41 -22 76 -22q38 0 58.5 27t20.5 76v403h148v-175q0 -70 25 -96q24 -24 81 -24h35v-144h-44q-61 0 -105 24z" />
    <glyph glyph-name="uniFEAF" unicode="&#x632;" horiz-adv-x="356" arabic-form="isolated" 
d="M287 597q0 -33 -26 -55q-23 -19 -52 -19q-33 0 -57 24q-20 22 -20 50q0 33 26 56q22 19 51 19q34 0 58 -25q20 -21 20 -50zM283 439v-432q0 -101 -60 -155q-49 -44 -123 -44q-83 0 -154 42l34 105q41 -22 76 -22q38 0 58.5 27t20.5 76v403h148z" />
    <glyph glyph-name="uniFEB0" unicode="&#x632;" horiz-adv-x="414" arabic-form="final" 
d="M280 597q0 -33 -26 -55q-22 -19 -51 -19q-34 0 -57 24q-20 22 -20 50q0 34 26 56q22 19 51 19q34 0 57 -25q20 -21 20 -50zM275 24v-19q-1 -99 -59 -153q-47 -44 -116 -44q-83 0 -154 42l34 105q41 -22 76 -22q38 0 58.5 27t20.5 76v403h148v-175q0 -70 25 -96
q24 -24 81 -24h35v-144h-44q-61 0 -105 24z" />
    <glyph glyph-name="uniFEB1" unicode="&#x633;" horiz-adv-x="1306" arabic-form="isolated" 
d="M588 1q-26 -98 -100 -147q-66 -45 -166 -45q-127 0 -200 81q-61 68 -61 169q0 92 55 174l113 -36q-32 -61 -32 -117q0 -60 36 -95q33 -32 89 -32q64 0 102 36q39 37 39 106v284h149v-123q0 -62 21 -88q19 -24 57 -24q42 0 61 27t19 85v123h148v-123q0 -62 22 -88
q19 -24 61 -24q44 0 63.5 26.5t19.5 85.5v183h148v-211q0 -228 -231 -228q-105 0 -157 61q-51 -61 -150 -61q-60 0 -102 21q0 -3 -2 -11q-2 -6 -2 -9z" />
    <glyph glyph-name="uniFEB2" unicode="&#x633;" horiz-adv-x="1370" arabic-form="final" 
d="M592 21q-1 -8 -5 -22q-25 -96 -98 -146q-67 -44 -166 -44q-127 0 -200 81q-61 68 -61 169q0 92 55 174l113 -36q-32 -61 -32 -117q0 -60 36 -95q33 -32 89 -32q64 0 102 36q39 37 39 106v284h149v-123q0 -62 21 -88q19 -24 57 -24q41 0 60 26.5t19 85.5v123h149v-123
q0 -62 22 -88q19 -24 61 -24q43 0 62.5 26.5t19.5 85.5v123h149v-115q0 -70 25 -96q24 -24 81 -24h41v-144h-50q-114 0 -170 62q-53 -62 -158 -62q-106 0 -158 61q-49 -61 -149 -61q-61 0 -103 21z" />
    <glyph glyph-name="uniFEB3" unicode="&#x633;" horiz-adv-x="980" arabic-form="initial" 
d="M40 0h-50v144h41q64 0 87 32q19 27 19 88v115h149v-123q0 -62 21 -88q19 -24 57 -24q41 0 60 26.5t19 85.5v123h149v-123q0 -62 22 -88q19 -24 61 -24q44 0 63.5 26.5t19.5 85.5v183h148v-211q0 -123 -65 -179q-57 -49 -166 -49q-105 0 -157 61q-51 -61 -150 -61
q-105 0 -158 62q-54 -62 -170 -62z" />
    <glyph glyph-name="uniFEB4" unicode="&#x633;" horiz-adv-x="1044" arabic-form="medial" 
d="M40 0h-50v144h41q64 0 87 32q19 27 19 88v115h149v-123q0 -62 21 -88q19 -24 57 -24q41 0 60 26.5t19 85.5v123h149v-123q0 -62 22 -88q19 -24 61 -24q48 0 67 31q16 27 16 81v123h148v-115q0 -70 25 -96q24 -24 82 -24h41v-144h-51q-114 0 -170 62q-53 -62 -158 -62
t-157 61q-51 -61 -151 -61q-104 0 -157 62q-54 -62 -170 -62z" />
    <glyph glyph-name="uniFEB5" unicode="&#x634;" horiz-adv-x="1306" arabic-form="isolated" 
d="M911 696q0 -28 -20.5 -48t-49.5 -20t-49 20t-20 48t20 48t49 20t49.5 -20t20.5 -48zM834 555q0 -33 -26 -55q-22 -19 -52 -19q-34 0 -57 24q-20 21 -20 50q0 33 26 55q22 19 51 19q34 0 58 -24q20 -22 20 -50zM1002 555q0 -34 -26 -55q-22 -19 -52 -19q-34 0 -57 24
q-20 21 -20 50q0 33 26 55q22 19 51 19q35 0 58 -24q20 -21 20 -50zM588 1q-26 -98 -100 -147q-66 -45 -166 -45q-127 0 -200 81q-61 68 -61 169q0 92 55 174l113 -36q-32 -61 -32 -117q0 -60 36 -95q33 -32 89 -32q64 0 102 36q39 37 39 106v284h149v-123q0 -62 21 -88
q19 -24 57 -24q42 0 61 27t19 85v123h148v-123q0 -62 22 -88q19 -24 61 -24q44 0 63.5 26.5t19.5 85.5v183h148v-211q0 -228 -231 -228q-105 0 -157 61q-51 -61 -150 -61q-60 0 -102 21q0 -3 -2 -11q-2 -6 -2 -9z" />
    <glyph glyph-name="uniFEB6" unicode="&#x634;" horiz-adv-x="1370" arabic-form="final" 
d="M911 696q0 -28 -20.5 -48t-49.5 -20t-49 20t-20 48t20 48t49 20t49.5 -20t20.5 -48zM834 555q0 -33 -26 -55q-22 -19 -52 -19q-34 0 -57 24q-20 21 -20 50q0 33 26 55q22 19 51 19q34 0 58 -24q20 -22 20 -50zM1002 555q0 -34 -26 -55q-22 -19 -52 -19q-34 0 -57 24
q-20 21 -20 50q0 33 26 55q22 19 51 19q35 0 58 -24q20 -21 20 -50zM592 21q-1 -8 -5 -22q-25 -96 -98 -146q-67 -44 -166 -44q-127 0 -200 81q-61 68 -61 169q0 92 55 174l113 -36q-32 -61 -32 -117q0 -60 36 -95q33 -32 89 -32q64 0 102 36q39 37 39 106v284h149v-123
q0 -62 21 -88q19 -24 57 -24q41 0 60 26.5t19 85.5v123h149v-123q0 -62 22 -88q19 -24 61 -24q43 0 62.5 26.5t19.5 85.5v123h149v-115q0 -70 25 -96q24 -24 81 -24h41v-144h-50q-114 0 -170 62q-53 -62 -158 -62q-106 0 -158 61q-49 -61 -149 -61q-61 0 -103 21z" />
    <glyph glyph-name="uniFEB7" unicode="&#x634;" horiz-adv-x="980" arabic-form="initial" 
d="M579 696q0 -28 -20.5 -48t-50.5 -20q-28 0 -48.5 20t-20.5 48t20.5 48t48.5 20q30 0 50.5 -20t20.5 -48zM501 555q0 -33 -26 -55q-21 -19 -51 -19q-34 0 -57 24q-20 21 -20 50q0 33 26 55q22 19 51 19q34 0 57 -24q20 -22 20 -50zM669 555q0 -33 -26 -55q-21 -19 -51 -19
q-34 0 -57 24q-20 21 -20 50q0 33 26 55q22 19 51 19q34 0 57 -24q20 -22 20 -50zM40 0h-50v144h41q64 0 87 32q19 27 19 88v115h149v-123q0 -62 21 -88q19 -24 57 -24q41 0 60 26.5t19 85.5v123h149v-123q0 -62 22 -88q19 -24 61 -24q44 0 63.5 26.5t19.5 85.5v183h148
v-211q0 -123 -65 -179q-57 -49 -166 -49q-105 0 -157 61q-51 -61 -150 -61q-105 0 -158 62q-54 -62 -170 -62z" />
    <glyph glyph-name="uniFEB8" unicode="&#x634;" horiz-adv-x="1044" arabic-form="medial" 
d="M587 696q0 -28 -20.5 -48t-49.5 -20t-49 20t-20 48t20 48t49 20t49.5 -20t20.5 -48zM510 555q0 -33 -26 -55q-22 -19 -52 -19q-34 0 -57 24q-20 21 -20 50q0 33 26 55q22 19 51 19q34 0 58 -24q20 -22 20 -50zM678 555q0 -33 -26 -55q-22 -19 -52 -19q-34 0 -57 24
q-20 21 -20 50q0 33 26 55q22 19 51 19q34 0 58 -24q20 -22 20 -50zM40 0h-50v144h41q64 0 87 32q19 27 19 88v115h149v-123q0 -62 21 -88q19 -24 57 -24q41 0 60 26.5t19 85.5v123h149v-123q0 -62 22 -88q19 -24 61 -24q48 0 67 31q16 27 16 81v123h148v-115q0 -70 25 -96
q24 -24 82 -24h41v-144h-51q-114 0 -170 62q-53 -62 -158 -62t-157 61q-51 -61 -151 -61q-104 0 -157 62q-54 -62 -170 -62z" />
    <glyph glyph-name="uniFEB9" unicode="&#x635;" horiz-adv-x="1381" arabic-form="isolated" 
d="M595 29l-3 -15q-21 -103 -96 -156q-68 -49 -173 -49q-127 0 -200 81q-61 68 -61 169q0 92 55 174l113 -36q-32 -61 -32 -117q0 -60 36 -95q33 -32 89 -32q64 0 102 36q39 37 39 106v235h149v-66q0 -65 21 -91q21 -25 68 -28q55 140 165 230q104 84 216 84q118 0 184 -79
q54 -65 54 -159q0 -116 -64 -172q-54 -49 -151 -49h-389q-72 0 -122 29zM841 144h252q47 0 65 24q15 19 15 59q0 44 -23.5 67.5t-66.5 23.5q-67 0 -137 -52q-65 -48 -105 -122z" />
    <glyph glyph-name="uniFEBA" unicode="&#x635;" horiz-adv-x="1447" arabic-form="final" 
d="M592 17q-21 -105 -95 -159q-69 -49 -174 -49q-127 0 -200 81q-61 68 -61 169q0 92 55 174l113 -36q-32 -61 -32 -117q0 -60 36 -95q33 -32 88 -32q64 0 102 37q39 38 39 110v230h149v-66q0 -65 21 -91q21 -25 68 -28q55 140 165 230q104 84 216 84q117 0 183 -77
q55 -63 55 -155q0 -83 104 -83h33v-144h-42q-101 0 -157 50q-55 -50 -152 -50h-390q-72 0 -122 29q-2 -8 -2 -12zM840 144h252q47 0 65 24q15 19 15 59q0 44 -23.5 67.5t-66.5 23.5q-67 0 -137 -52q-65 -48 -105 -122z" />
    <glyph glyph-name="uniFEBB" unicode="&#x635;" horiz-adv-x="1046" arabic-form="initial" 
d="M32 0h-42v144h33q64 0 87 32q19 27 19 88v66h149v-66q0 -65 21 -91q21 -25 68 -28q55 140 165 230q104 84 216 84q118 0 184 -79q54 -65 54 -161q0 -114 -64 -171q-54 -48 -151 -48h-397q-116 0 -170 64q-57 -64 -172 -64zM506 144h252q43 0 61.5 19t18.5 62q0 45 -23 69
t-67 24q-67 0 -137 -52q-65 -48 -105 -122z" />
    <glyph glyph-name="uniFEBC" unicode="&#x635;" horiz-adv-x="1113" arabic-form="medial" 
d="M32 0h-42v144h33q64 0 87 32q19 27 19 88v66h149v-66q0 -65 21 -91q21 -25 68 -28q55 140 165 230q104 84 216 84q117 0 183 -77q55 -63 55 -156q0 -82 104 -82h33v-144h-42q-101 0 -157 50q-56 -50 -153 -50h-397q-116 0 -170 64q-57 -64 -172 -64zM506 144h252
q42 0 61 19.5t19 62.5q0 44 -23.5 68t-66.5 24q-67 0 -137 -52q-65 -48 -105 -122z" />
    <glyph glyph-name="uniFEBD" unicode="&#x636;" horiz-adv-x="1381" arabic-form="isolated" 
d="M1125 609q0 -33 -26 -55q-22 -19 -52 -19q-33 0 -56 24q-20 22 -20 50q0 33 25 55q22 19 51 19q35 0 58 -24q20 -21 20 -50zM595 29l-3 -15q-21 -103 -96 -156q-68 -49 -173 -49q-127 0 -200 81q-61 68 -61 169q0 92 55 174l113 -36q-32 -61 -32 -117q0 -60 36 -95
q33 -32 89 -32q64 0 102 36q39 37 39 106v235h149v-66q0 -65 21 -91q21 -25 68 -28q55 140 165 230q104 84 216 84q118 0 184 -79q54 -65 54 -159q0 -116 -64 -172q-54 -49 -151 -49h-389q-72 0 -122 29zM841 144h252q47 0 65 24q15 19 15 59q0 44 -23.5 67.5t-66.5 23.5
q-67 0 -137 -52q-65 -48 -105 -122z" />
    <glyph glyph-name="uniFEBE" unicode="&#x636;" horiz-adv-x="1447" arabic-form="final" 
d="M1141 609q0 -33 -26 -55q-22 -19 -51 -19q-34 0 -57 24q-20 22 -20 50q0 33 26 55q21 19 51 19q34 0 57 -24q20 -21 20 -50zM592 17q-21 -105 -95 -159q-69 -49 -174 -49q-127 0 -200 81q-61 68 -61 169q0 92 55 174l113 -36q-32 -61 -32 -117q0 -60 36 -95
q33 -32 88 -32q64 0 102 37q39 38 39 110v230h149v-66q0 -65 21 -91q21 -25 68 -28q55 140 165 230q104 84 216 84q117 0 183 -77q55 -63 55 -155q0 -83 104 -83h33v-144h-42q-101 0 -157 50q-55 -50 -152 -50h-390q-72 0 -122 29q-2 -8 -2 -12zM840 144h252q47 0 65 24
q15 19 15 59q0 44 -23.5 67.5t-66.5 23.5q-67 0 -137 -52q-65 -48 -105 -122z" />
    <glyph glyph-name="uniFEBF" unicode="&#x636;" horiz-adv-x="1046" arabic-form="initial" 
d="M798 609q0 -33 -26 -55q-22 -19 -51 -19q-34 0 -57 24q-20 22 -20 50q0 33 26 55q21 19 51 19q34 0 57 -24q20 -21 20 -50zM32 0h-42v144h33q64 0 87 32q19 27 19 88v66h149v-66q0 -65 21 -91q21 -25 68 -28q55 140 165 230q104 84 216 84q118 0 184 -79q54 -65 54 -161
q0 -114 -64 -171q-54 -48 -151 -48h-397q-116 0 -170 64q-57 -64 -172 -64zM506 144h252q43 0 61.5 19t18.5 62q0 45 -23 69t-67 24q-67 0 -137 -52q-65 -48 -105 -122z" />
    <glyph glyph-name="uniFEC0" unicode="&#x636;" horiz-adv-x="1113" arabic-form="medial" 
d="M798 609q0 -33 -26 -55q-22 -19 -51 -19q-34 0 -57 24q-20 22 -20 50q0 33 26 55q21 19 51 19q34 0 57 -24q20 -21 20 -50zM32 0h-42v144h33q64 0 87 32q19 27 19 88v66h149v-66q0 -65 21 -91q21 -25 68 -28q55 140 165 230q104 84 216 84q117 0 183 -77q55 -63 55 -156
q0 -82 104 -82h33v-144h-42q-101 0 -157 50q-56 -50 -153 -50h-397q-116 0 -170 64q-57 -64 -172 -64zM506 144h252q42 0 61 19.5t19 62.5q0 44 -23.5 68t-66.5 24q-67 0 -137 -52q-65 -48 -105 -122z" />
    <glyph glyph-name="uniFEC1" unicode="&#x637;" horiz-adv-x="884" arabic-form="isolated" 
d="M610 0h-573v144h163v522h144v-352q107 145 266 145q102 0 164 -79q51 -66 51 -159q0 -116 -64 -172q-55 -49 -151 -49zM354 144h243q79 0 79 82q0 92 -90 92q-63 0 -130 -52q-59 -47 -102 -122z" />
    <glyph glyph-name="uniFEC2" unicode="&#x637;" horiz-adv-x="952" arabic-form="final" 
d="M609 0h-572v144h162v522h144v-352q107 145 266 145q100 0 162 -77q52 -65 52 -155q0 -83 104 -83h35v-144h-44q-101 0 -157 50q-55 -50 -152 -50zM352 144h243q80 0 80 80q0 94 -90 94q-64 0 -131 -52q-59 -47 -102 -122z" />
    <glyph glyph-name="uniFEC3" unicode="&#x637;" horiz-adv-x="819" arabic-form="initial" 
d="M545 0h-555v144h145v522h144v-352q107 145 266 145q101 0 162 -77q53 -68 53 -168q0 -111 -65 -166q-56 -48 -150 -48zM289 144h242q47 0 65 24q15 19 15 59q0 44 -23.5 67.5t-66.5 23.5q-64 0 -130 -52q-60 -47 -102 -122z" />
    <glyph glyph-name="uniFEC4" unicode="&#x637;" horiz-adv-x="888" arabic-form="medial" 
d="M545 0h-555v144h145v522h144v-352q107 145 266 145q100 0 162 -77q53 -65 53 -155q0 -83 104 -83h34v-144h-44q-101 0 -157 50q-55 -50 -152 -50zM289 144h241q43 0 62 19t19 61q0 94 -90 94q-64 0 -130 -52q-60 -47 -102 -122z" />
    <glyph glyph-name="uniFEC5" unicode="&#x638;" horiz-adv-x="884" arabic-form="isolated" 
d="M681 616q0 -34 -26 -56q-22 -19 -52 -19q-33 0 -56 25q-20 21 -20 50q0 33 25 55q22 19 51 19q35 0 58 -24q20 -21 20 -50zM610 0h-573v144h163v522h144v-352q107 145 266 145q102 0 164 -79q51 -66 51 -159q0 -116 -64 -172q-55 -49 -151 -49zM354 144h243q79 0 79 82
q0 92 -90 92q-63 0 -130 -52q-59 -47 -102 -122z" />
    <glyph glyph-name="uniFEC6" unicode="&#x638;" horiz-adv-x="952" arabic-form="final" 
d="M681 616q0 -34 -26 -56q-22 -19 -52 -19q-33 0 -56 25q-20 21 -20 50q0 33 25 55q22 19 51 19q35 0 58 -24q20 -21 20 -50zM609 0h-572v144h162v522h144v-352q107 145 266 145q100 0 162 -77q52 -65 52 -155q0 -83 104 -83h35v-144h-44q-101 0 -157 50q-55 -50 -152 -50z
M352 144h243q80 0 80 80q0 94 -90 94q-64 0 -131 -52q-59 -47 -102 -122z" />
    <glyph glyph-name="uniFEC7" unicode="&#x638;" horiz-adv-x="819" arabic-form="initial" 
d="M623 616q0 -34 -26 -56q-22 -19 -52 -19q-33 0 -56 25q-20 21 -20 50q0 33 25 55q22 19 51 19q35 0 58 -24q20 -21 20 -50zM545 0h-555v144h145v522h144v-352q107 145 266 145q101 0 162 -77q53 -68 53 -168q0 -111 -65 -166q-56 -48 -150 -48zM289 144h242q47 0 65 24
q15 19 15 59q0 44 -23.5 67.5t-66.5 23.5q-64 0 -130 -52q-60 -47 -102 -122z" />
    <glyph glyph-name="uniFEC8" unicode="&#x638;" horiz-adv-x="888" arabic-form="medial" 
d="M623 616q0 -34 -26 -56q-22 -19 -52 -19q-33 0 -56 25q-20 21 -20 50q0 33 25 55q22 19 51 19q35 0 58 -24q20 -21 20 -50zM545 0h-555v144h145v522h144v-352q107 145 266 145q100 0 162 -77q53 -65 53 -155q0 -83 104 -83h34v-144h-44q-101 0 -157 50q-55 -50 -152 -50z
M289 144h241q43 0 62 19t19 61q0 94 -90 94q-64 0 -130 -52q-60 -47 -102 -122z" />
    <glyph glyph-name="uniFEC9" unicode="&#x639;" horiz-adv-x="607" arabic-form="isolated" 
d="M547 -298q-39 -31 -94.5 -49.5t-111.5 -18.5q-136 0 -212 74q-67 66 -67 170q0 63 31 118q30 51 81 81q-90 59 -90 168q0 101 69 162q57 50 138 50h188v-138h-161q-42 0 -65 -27q-21 -23 -21 -59q0 -39 28 -64q27 -25 71 -25h195v-140h-178q-73 0 -112 -39
q-31 -31 -31 -74q0 -53 44 -87q41 -31 103 -31q80 0 135 35z" />
    <glyph glyph-name="uniFECA" unicode="&#x639;" horiz-adv-x="685" arabic-form="final" 
d="M549 -298q-39 -31 -94.5 -49.5t-111.5 -18.5q-136 0 -212 74q-67 65 -67 169q0 85 46 140q26 32 104 85q10 6 17 11q-40 60 -84.5 99t-78.5 45v53q48 74 127 115q66 35 134 35q78 0 153 -46q67 -41 109 -106v-51q-33 -5 -61.5 -28t-75.5 -82q32 -3 65 -3h176v-144h-235
q-76 0 -131 37q-10 -11 -48 -38q-35 -26 -50 -45q-24 -30 -24 -66q0 -51 44 -84q41 -31 103 -31q80 0 135 35zM229 300q25 -23 69 -77q20 -23 31 -35q11 11 36 42q37 46 65 69q-50 39 -104 39q-50 0 -97 -38z" />
    <glyph glyph-name="uniFECB" unicode="&#x639;" horiz-adv-x="586" arabic-form="initial" 
d="M536 0h-546v144h105q-25 44 -25 101q0 101 69 162q58 50 139 50h187v-138h-160q-42 0 -66 -27q-20 -23 -20 -59q0 -40 27 -65q27 -24 72 -24h218v-144z" />
    <glyph glyph-name="uniFECC" unicode="&#x639;" horiz-adv-x="712" arabic-form="medial" 
d="M224 0h-234v144h193q25 0 49 3q-45 56 -75.5 80t-62.5 30v53q47 74 126 115q67 35 135 35q78 0 153 -46q67 -41 108 -106v-51q-32 -5 -60 -27.5t-77 -82.5q21 -3 44 -3h199v-144h-237q-75 0 -130 37q-55 -37 -131 -37zM254 300q25 -22 70 -77q19 -23 31 -35q12 12 37 42
q38 47 64 69q-48 39 -106 39q-48 0 -96 -38z" />
    <glyph glyph-name="uniFECD" unicode="&#x63a;" horiz-adv-x="607" arabic-form="isolated" 
d="M407 597q0 -33 -26 -55q-22 -19 -52 -19q-33 0 -56 24q-20 22 -20 50q0 33 25 56q22 19 51 19q35 0 58 -25q20 -21 20 -50zM547 -298q-39 -31 -94.5 -49.5t-111.5 -18.5q-136 0 -212 74q-67 66 -67 170q0 63 31 118q30 51 81 81q-90 59 -90 168q0 101 69 162
q57 50 138 50h188v-138h-161q-42 0 -65 -27q-21 -23 -21 -59q0 -39 28 -64q27 -25 71 -25h195v-140h-178q-73 0 -112 -39q-31 -31 -31 -74q0 -53 44 -87q41 -31 103 -31q80 0 135 35z" />
    <glyph glyph-name="uniFECE" unicode="&#x63a;" horiz-adv-x="685" arabic-form="final" 
d="M394 598q0 -34 -26 -56q-22 -19 -51 -19q-34 0 -57 25q-20 21 -20 50q0 33 26 55q22 19 51 19q34 0 57 -24q20 -22 20 -50zM549 -298q-39 -31 -94.5 -49.5t-111.5 -18.5q-136 0 -212 74q-67 65 -67 169q0 85 46 140q26 32 104 85q10 6 17 11q-40 60 -84.5 99t-78.5 45v53
q48 74 127 115q66 35 134 35q78 0 153 -46q67 -41 109 -106v-51q-33 -5 -61.5 -28t-75.5 -82q32 -3 65 -3h176v-144h-235q-76 0 -131 37q-10 -11 -48 -38q-35 -26 -50 -45q-24 -30 -24 -66q0 -51 44 -84q41 -31 103 -31q80 0 135 35zM229 300q25 -23 69 -77q20 -23 31 -35
q11 11 36 42q37 46 65 69q-50 39 -104 39q-50 0 -97 -38z" />
    <glyph glyph-name="uniFECF" unicode="&#x63a;" horiz-adv-x="586" arabic-form="initial" 
d="M390 597q0 -33 -26 -55q-23 -19 -52 -19q-33 0 -57 24q-20 22 -20 50q0 33 26 56q22 19 51 19q34 0 58 -25q20 -21 20 -50zM536 0h-546v144h105q-25 44 -25 101q0 101 69 162q58 50 139 50h187v-138h-160q-42 0 -66 -27q-20 -23 -20 -59q0 -40 27 -65q27 -24 72 -24h218
v-144z" />
    <glyph glyph-name="uniFED0" unicode="&#x63a;" horiz-adv-x="712" arabic-form="medial" 
d="M432 598q0 -34 -26 -56q-22 -19 -51 -19q-34 0 -57 25q-20 21 -20 50q0 33 26 55q22 19 51 19q34 0 57 -24q20 -22 20 -50zM224 0h-234v144h193q25 0 49 3q-45 56 -75.5 80t-62.5 30v53q47 74 126 115q67 35 135 35q78 0 153 -46q67 -41 108 -106v-51q-32 -5 -60 -27.5
t-77 -82.5q21 -3 44 -3h199v-144h-237q-75 0 -130 37q-55 -37 -131 -37zM254 300q25 -22 70 -77q19 -23 31 -35q12 12 37 42q38 47 64 69q-48 39 -106 39q-48 0 -96 -38z" />
    <glyph glyph-name="uniFED1" unicode="&#x641;" horiz-adv-x="963" arabic-form="isolated" 
d="M780 596q0 -34 -26 -56q-22 -19 -52 -19q-33 0 -56 25q-20 21 -20 50q0 33 25 55q22 19 51 19q35 0 58 -24q20 -21 20 -50zM711 0h-406q-116 0 -182 81q-51 63 -51 149q0 69 36 124q35 51 94 76l58 -89q-56 -33 -56 -96q0 -44 31 -73q31 -28 79 -28h225q-23 46 -23 99
q0 104 61 164q53 52 135 52q91 0 143 -57q45 -49 45 -123v-87q0 -88 -52 -140q-50 -52 -137 -52zM648 239q0 -95 65 -95q48 0 48 46v84q0 31 -11.5 44.5t-37.5 13.5q-30 0 -47 -25t-17 -68z" />
    <glyph glyph-name="uniFED2" unicode="&#x641;" horiz-adv-x="992" arabic-form="final" 
d="M800 597q0 -33 -26 -55q-23 -19 -52 -19q-33 0 -57 24q-20 22 -20 50q0 33 26 56q22 19 51 19q34 0 58 -25q20 -21 20 -50zM632 0h-327q-116 0 -182 81q-51 63 -51 149q0 69 36 124q35 51 94 76l58 -89q-56 -33 -56 -96q0 -44 31 -73q31 -28 79 -28h232q-31 53 -31 107
q0 98 60 156q55 53 143 53q101 0 157 -68q46 -56 46 -141q0 -57 -31 -107h112v-144h-197q-50 0 -87 8q-35 -8 -86 -8zM718 141q31 18 49 49t18 66q0 37 -18 58.5t-49 21.5t-49 -21.5t-18 -58.5q0 -34 18 -65t49 -50z" />
    <glyph glyph-name="uniFED3" unicode="&#x641;" horiz-adv-x="538" arabic-form="initial" 
d="M365 597q0 -33 -26 -55q-22 -19 -51 -19q-34 0 -57 24q-20 22 -20 50q0 34 26 56q22 19 51 19q34 0 57 -25q20 -21 20 -50zM286 0h-296v144h124q-23 46 -23 99q0 104 61 164q53 52 135 52q91 0 143 -57q45 -49 45 -123v-87q0 -88 -52 -140q-50 -52 -137 -52zM223 239
q0 -95 65 -95q48 0 48 46v84q0 31 -11.5 44.5t-37.5 13.5q-30 0 -47 -25t-17 -68z" />
    <glyph glyph-name="uniFED4" unicode="&#x641;" horiz-adv-x="547" arabic-form="medial" 
d="M352 597q0 -33 -26 -55q-22 -19 -52 -19q-33 0 -56 24q-20 22 -20 50q0 33 25 56q22 19 51 19q35 0 58 -25q20 -21 20 -50zM187 0h-197v144h111q-30 54 -30 107q0 98 60 156q55 53 143 53q101 0 157 -68q46 -56 46 -141q0 -54 -31 -107h111v-144h-197q-51 0 -86 8
q-37 -8 -87 -8zM274 141q31 18 49 49t18 66q0 37 -18 58.5t-49 21.5q-32 0 -49.5 -21t-17.5 -59q0 -35 18 -66t49 -49z" />
    <glyph glyph-name="uniFED5" unicode="&#x642;" horiz-adv-x="766" arabic-form="isolated" 
d="M494 598q0 -33 -26 -55q-22 -19 -51 -19q-34 0 -57 24q-20 22 -20 50q0 33 26 55q21 19 51 19q34 0 57 -24q20 -21 20 -50zM662 598q0 -32 -22 -53t-55 -21q-34 0 -57 24q-20 22 -20 50q0 33 26 55q21 19 51 19q33 0 55 -21t22 -53zM541 30q-13 -5 -25 -5q-116 0 -172 70
q-43 54 -43 140q0 99 62 160q56 56 143 56q91 0 143 -57q45 -49 45 -124v-177q0 -140 -97 -220q-89 -74 -241 -74q-151 0 -231 86q-63 69 -63 171q0 94 55 176l113 -35q-31 -61 -31 -119q0 -68 43 -107q41 -36 114 -36q134 0 178 80q4 5 7 15zM554 150v124q0 58 -53 58
q-32 0 -50.5 -23t-18.5 -64q0 -46 23 -75q21 -26 54 -26q23 0 45 6z" />
    <glyph glyph-name="uniFED6" unicode="&#x642;" horiz-adv-x="769" arabic-form="final" 
d="M494 598q0 -33 -26 -55q-21 -19 -51 -19q-34 0 -57 24q-20 21 -20 50q0 33 26 55q22 19 51 19q34 0 57 -24q20 -22 20 -50zM662 598q0 -32 -22 -53t-55 -21q-34 0 -57 24q-20 21 -20 50q0 33 26 55q22 19 51 19q33 0 55 -21t22 -53zM680 -1q-30 -99 -119 -151
q-83 -49 -205 -49q-151 0 -231 86q-63 69 -63 171q0 94 55 176l113 -35q-31 -61 -31 -119q0 -68 43 -107q41 -36 114 -36q137 0 180 82q-26 0 -37 1q-109 10 -161 86q-37 55 -37 131q0 99 62 160q56 56 143 56q91 0 143 -57q45 -49 45 -124v-126h85v-144zM554 144v130
q0 58 -53 58q-32 0 -50.5 -23t-18.5 -64q0 -46 24 -75q21 -26 55 -26h43z" />
    <glyph glyph-name="uniFED7" unicode="&#x642;" horiz-adv-x="538" arabic-form="initial" 
d="M279 598q0 -33 -26 -55q-22 -19 -52 -19q-34 0 -57 24q-20 21 -20 50q0 33 26 55q22 19 51 19q34 0 58 -24q20 -22 20 -50zM447 598q0 -32 -22 -53t-56 -21t-57 24q-20 21 -20 50q0 33 26 55q22 19 51 19q35 0 58 -23q20 -20 20 -51zM286 0h-296v144h124q-23 46 -23 99
q0 104 61 164q53 52 135 52q91 0 143 -57q45 -49 45 -123v-87q0 -88 -52 -140q-50 -52 -137 -52zM223 239q0 -95 65 -95q48 0 48 46v84q0 31 -11.5 44.5t-37.5 13.5q-30 0 -47 -25t-17 -68z" />
    <glyph glyph-name="uniFED8" unicode="&#x642;" horiz-adv-x="547" arabic-form="medial" 
d="M265 598q0 -33 -26 -55q-21 -19 -51 -19q-34 0 -57 24q-20 21 -20 50q0 33 26 55q22 19 51 19q34 0 57 -24q20 -22 20 -50zM434 598q0 -32 -22 -53t-56 -21t-57 24q-20 21 -20 50q0 33 26 55q22 19 51 19q35 0 58 -23q20 -20 20 -51zM187 0h-197v144h111q-30 54 -30 107
q0 98 60 156q55 53 143 53q101 0 157 -68q46 -56 46 -141q0 -54 -31 -107h111v-144h-197q-51 0 -86 8q-37 -8 -87 -8zM274 141q31 18 49 49t18 66q0 37 -18 58.5t-49 21.5q-32 0 -49.5 -21t-17.5 -59q0 -35 18 -66t49 -49z" />
    <glyph glyph-name="uniFED9" unicode="&#x643;" horiz-adv-x="890" arabic-form="isolated" 
d="M585 0h-280q-116 0 -182 81q-51 63 -51 149q0 69 36 124q35 51 94 76l58 -89q-56 -33 -56 -96q0 -44 31 -73q31 -28 79 -28h251q62 0 85 32q18 27 18 88v402h148v-438q0 -125 -62 -179q-55 -49 -169 -49zM462 344h-121l2 66h112q31 0 31 30q0 18 -13 28t-35 10
q-31 0 -57 -22v61l95 104l48 -40l-46 -51q36 -7 55.5 -31.5t19.5 -62.5q0 -46 -29 -71q-24 -21 -62 -21z" />
    <glyph glyph-name="uniFEDA" unicode="&#x643;" horiz-adv-x="947" arabic-form="final" 
d="M585 0h-271q-126 0 -192 81q-50 61 -50 149q0 69 36 124q35 51 94 76l58 -89q-56 -33 -56 -96q0 -44 31 -73q31 -28 79 -28h251q62 0 85 32q18 27 18 88v402h148v-402q0 -70 25 -96q24 -24 82 -24h34v-144h-44q-114 0 -168 61q-52 -61 -160 -61zM462 344h-121l2 66h112
q31 0 31 30q0 18 -13 28t-35 10q-31 0 -57 -22v61l95 104l48 -40l-46 -51q36 -7 55.5 -31.5t19.5 -62.5q0 -46 -29 -71q-24 -21 -62 -21z" />
    <glyph glyph-name="uniFEDB" unicode="&#x643;" horiz-adv-x="555" arabic-form="initial" 
d="M281 0h-291v144h289q84 0 84 69v1q0 64 -82 64h-247v144l243 250l79 -80l-162 -169h82q133 0 190 -61q47 -51 47 -150v-1q0 -112 -62 -164q-57 -47 -170 -47z" />
    <glyph glyph-name="uniFEDC" unicode="&#x643;" horiz-adv-x="642" arabic-form="medial" 
d="M281 0h-291v144h289q84 0 84 65v4q0 65 -82 65h-247v144l243 250l79 -80l-161 -169h87q122 0 181 -58q50 -48 50 -130v-7q0 -84 104 -84h35v-144h-44q-109 0 -165 57q-67 -57 -162 -57z" />
    <glyph glyph-name="uniFEDD" unicode="&#x644;" horiz-adv-x="685" arabic-form="isolated" 
d="M612 666v-571q0 -141 -80 -216q-75 -70 -209 -70q-127 0 -200 81q-61 68 -61 169q0 92 55 174l113 -36q-32 -61 -32 -117q0 -60 36 -95q33 -32 88 -32q64 0 102 36q39 37 39 106v571h149z" />
    <glyph glyph-name="uniFEDE" unicode="&#x644;" horiz-adv-x="734" arabic-form="final" 
d="M594 29l-3 -15q-21 -103 -96 -156q-68 -49 -172 -49q-127 0 -200 81q-61 68 -61 169q0 92 55 174l113 -36q-32 -61 -32 -117q0 -60 36 -95q33 -32 88 -32q64 0 102 36q39 37 39 106v571h149v-402q0 -70 25 -96q24 -24 81 -24h26v-144h-35q-65 0 -115 29z" />
    <glyph glyph-name="uniFEDF" unicode="&#x644;" horiz-adv-x="345" arabic-form="initial" 
d="M26 0h-36v144h26q65 0 88 32q19 27 19 88v402h148v-438q0 -124 -67 -179q-60 -49 -178 -49z" />
    <glyph glyph-name="uniFEE0" unicode="&#x644;" horiz-adv-x="394" arabic-form="medial" 
d="M26 0h-36v144h26q65 0 88 32q19 27 19 88v402h148v-402q0 -70 25 -96q24 -24 82 -24h26v-144h-36q-116 0 -171 64q-55 -64 -171 -64z" />
    <glyph glyph-name="uniFEE1" unicode="&#x645;" horiz-adv-x="590" arabic-form="isolated" 
d="M169 -315h-149v236q0 154 113 200q15 7 37 12q-27 42 -27 110q0 104 61 164q53 52 135 52q91 0 143 -57q45 -49 45 -123v-88q0 -87 -51 -139q-50 -51 -136 -52h-64q-67 0 -90 -32q-17 -25 -17 -86v-197zM275 239q0 -95 64 -95q49 0 49 45v85q0 31 -11.5 44.5t-37.5 13.5
q-30 0 -47 -25t-17 -68z" />
    <glyph glyph-name="uniFEE2" unicode="&#x645;" horiz-adv-x="661" arabic-form="final" 
d="M169 -315h-149v236q0 154 112 200q16 7 38 12q-27 42 -27 110q0 104 61 164q53 52 135 52q91 0 143 -58q45 -49 45 -127v-21q0 -62 27 -86q25 -23 79 -23h38v-144h-48q-103 0 -158 52q-52 -51 -125 -52h-64q-67 0 -90 -32q-17 -25 -17 -86v-197zM275 239q0 -95 64 -95
q49 0 49 45v85q0 31 -11.5 44.5t-37.5 13.5q-30 0 -47 -25t-17 -68z" />
    <glyph glyph-name="uniFEE3" unicode="&#x645;" horiz-adv-x="540" arabic-form="initial" 
d="M-10 144h30q46 0 64 24q14 19 14 56v46q0 92 57 144q50 45 130 45q100 0 157 -73q48 -60 48 -151q0 -115 -62 -180q-54 -57 -137 -57q-81 0 -129 33q-41 -31 -97 -31h-75v144zM238 189q0 -47 49 -47q64 0 64 97q0 46 -19 71q-17 22 -45 22q-26 0 -37.5 -13.5t-11.5 -44.5
v-85z" />
    <glyph glyph-name="uniFEE4" unicode="&#x645;" horiz-adv-x="611" arabic-form="medial" 
d="M440 39q-52 -50 -135 -50t-135 50q-42 -39 -105 -39h-75v144h30q46 0 64 24q14 19 14 59q0 53 17 99q25 65 78 100q48 33 112 33q71 0 123 -40q43 -33 65 -87q20 -49 20 -105q0 -44 18 -63.5t59 -19.5h31v-144h-76q-64 0 -105 39zM238 234q0 -57 23 -85q17 -20 44 -20
q31 0 50 27q18 28 18 78t-23 76q-18 21 -45 21q-30 0 -48.5 -26.5t-18.5 -70.5z" />
    <glyph glyph-name="uniFEE5" unicode="&#x646;" horiz-adv-x="686" arabic-form="isolated" 
d="M391 477q0 -34 -26 -55q-22 -19 -52 -19q-33 0 -56 24q-20 21 -20 50q0 33 25 55q22 19 51 19q35 0 58 -24q20 -21 20 -50zM613 439v-344q0 -141 -81 -216q-75 -70 -209 -70q-127 0 -200 81q-61 68 -61 169q0 92 55 174l113 -36q-32 -61 -32 -117q0 -60 36 -95
q33 -32 89 -32q64 0 102 36q39 37 39 106v344h149z" />
    <glyph glyph-name="uniFEE6" unicode="&#x646;" horiz-adv-x="743" arabic-form="final" 
d="M391 477q0 -34 -26 -55q-22 -19 -52 -19q-33 0 -56 24q-20 21 -20 50q0 33 25 55q22 19 51 19q35 0 58 -24q20 -21 20 -50zM593 21q-20 -106 -95 -161q-69 -51 -176 -51q-127 0 -200 81q-61 68 -61 169q0 92 55 174l113 -36q-32 -61 -32 -117q0 -60 36 -95q33 -32 89 -32
q64 0 102 36q39 37 39 106v344h149v-175q0 -70 25 -96q24 -24 81 -24h35v-144h-44q-65 0 -115 29q0 -1 -1 -4v-4z" />
    <glyph glyph-name="uniFEE7" unicode="&#x646;" horiz-adv-x="353" arabic-form="initial" 
d="M280 594q0 -33 -26 -55q-21 -19 -51 -19q-34 0 -57 24q-20 21 -20 50q0 33 26 55q22 19 51 19q34 0 57 -24q20 -22 20 -50zM34 0h-44v144h34q65 0 88 32q19 27 19 88v175h148v-211q0 -124 -67 -179q-60 -49 -178 -49z" />
    <glyph glyph-name="uniFEE8" unicode="&#x646;" horiz-adv-x="410" arabic-form="medial" 
d="M286 594q0 -33 -26 -55q-22 -19 -52 -19q-34 0 -57 24q-20 21 -20 50q0 33 26 55q22 19 51 19q34 0 58 -24q20 -22 20 -50zM34 0h-44v144h34q65 0 88 32q19 27 19 88v175h148v-175q0 -70 25 -96q24 -24 82 -24h34v-144h-44q-116 0 -170 64q-57 -64 -172 -64z" />
    <glyph glyph-name="uniFEE9" unicode="&#x647;" horiz-adv-x="528" arabic-form="isolated" 
d="M270 -14h-12q-94 0 -144 70q-46 63 -46 171q0 112 62 176q53 54 134 54q93 0 148 -70q48 -63 48 -160q0 -124 -59 -188q-50 -53 -131 -53zM198 224q0 -48 19 -73q17 -21 43 -21h8q62 0 62 94q0 46 -20 71q-17 22 -46 22q-31 0 -48.5 -25t-17.5 -68z" />
    <glyph glyph-name="uniFEEA" unicode="&#x647;" horiz-adv-x="560" arabic-form="final" 
d="M570 0h-44q-126 0 -184 71q-47 -46 -117 -46q-81 0 -136 62q-52 59 -52 150q0 99 64 161q58 55 147 55h50v44h132v-233q0 -70 25 -96q24 -24 81 -24h34v-144zM298 331h-47q-34 0 -54.5 -23t-20.5 -61q0 -41 21 -67q20 -24 52 -24q28 0 52 21q-3 24 -3 51v103z" />
    <glyph glyph-name="uniFEEB" unicode="&#x647;" horiz-adv-x="650" arabic-form="initial" 
d="M119 0h-129v144h61h36q-17 34 -17 70q0 63 43 104q40 39 102 39q70 0 113 -52q35 -41 35 -96q0 -34 -17 -65q7 0 20 2q5 1 7 1q52 9 52 66q0 65 -52 119q-71 74 -220 82l28 131q190 -10 305 -136q49 -53 72 -117q16 -46 16 -90q0 -202 -210 -202h-43q-59 0 -103 22
q-42 -22 -99 -22zM215 144q49 19 49 71q0 25 -13 40t-36 15t-36.5 -15t-13.5 -40q0 -51 50 -71z" />
    <glyph glyph-name="uniFEEC" unicode="&#x647;" horiz-adv-x="701" arabic-form="medial" 
d="M119 0h-129v144h65h32q-17 34 -17 70q0 63 43 104q40 39 102 39q70 0 113 -52q35 -41 35 -96q0 -34 -17 -65q13 0 25 3q54 8 54 66q0 65 -52 119q-71 74 -220 82l28 131q119 -5 215 -62q83 -49 132 -127q45 -72 45 -138q0 -74 104 -74h34v-144h-44q-100 0 -155 43
q-52 -43 -148 -43h-43q-59 0 -103 22q-42 -22 -99 -22zM215 144q49 19 49 71q0 25 -13 40t-36 15t-36.5 -15t-13.5 -40q0 -51 50 -71z" />
    <glyph glyph-name="uniFEED" unicode="&#x648;" horiz-adv-x="501" arabic-form="isolated" 
d="M298 30q-17 -5 -37 -5q-120 0 -174 69q-42 53 -42 141q0 99 62 160q56 56 143 56q91 0 143 -57q45 -49 45 -124v-263q0 -101 -69 -157q-56 -45 -136 -45q-83 0 -158 45l34 106q45 -24 91 -24q87 0 97 86q0 2 1 6v6zM298 150v124q0 58 -53 58q-32 0 -50.5 -23t-18.5 -64
q0 -46 23 -75q21 -26 54 -26q23 0 45 6z" />
    <glyph glyph-name="uniFEEE" unicode="&#x648;" horiz-adv-x="513" arabic-form="final" 
d="M438 0q-2 -98 -71 -151q-55 -44 -134 -44q-83 0 -158 45l34 106q45 -24 91 -24q87 0 97 83q-21 0 -31 1q-113 5 -171 71q-50 57 -50 148q0 99 62 160q56 56 143 56q91 0 143 -57q45 -49 45 -124v-126h85v-144h-85zM298 144v130q0 58 -53 58q-32 0 -50.5 -23t-18.5 -64
q0 -46 23 -75q22 -26 56 -26h43z" />
    <glyph glyph-name="uniFEEF" unicode="&#x649;" horiz-adv-x="732" arabic-form="isolated" 
d="M629 325h-126q-66 0 -66 -48q0 -41 44 -65q17 -9 69 -27q66 -22 94 -46q44 -37 44 -103q0 -106 -85 -168q-84 -61 -234 -61q-167 0 -250 82q-65 65 -65 167q0 94 55 176l115 -36q-33 -61 -33 -115q0 -66 50 -101q47 -33 128 -33q72 0 123 26q48 24 48 58q0 19 -16 30
t-70 31q-82 31 -115 66q-43 46 -43 120q0 92 64 142q51 39 125 39h144v-134z" />
    <glyph glyph-name="uniFEF0" unicode="&#x649;" horiz-adv-x="736" arabic-form="final" 
d="M707 0q-11 -96 -102 -149q-87 -52 -236 -52q-166 0 -250 86q-65 68 -65 171q0 94 55 176l116 -37q-34 -59 -34 -116q0 -73 57 -114q53 -38 141 -38q72 0 119 20q46 19 57 53h-105v144h286v-144h-39z" />
    <glyph glyph-name="uniFEF1" unicode="&#x64a;" horiz-adv-x="732" arabic-form="isolated" 
d="M629 325h-126q-66 0 -66 -48q0 -41 44 -65q17 -9 69 -27q66 -22 94 -46q44 -37 44 -103q0 -106 -85 -168q-84 -61 -234 -61q-167 0 -250 82q-65 65 -65 167q0 94 55 176l115 -36q-33 -61 -33 -115q0 -66 50 -101q47 -33 128 -33q72 0 123 26q48 24 48 58q0 19 -16 30
t-70 31q-82 31 -115 66q-43 46 -43 120q0 92 64 142q51 39 125 39h144v-134zM363 -336q0 -33 -26 -55q-22 -19 -52 -19q-34 0 -57 24q-20 21 -20 50q0 33 26 55q22 19 51 19q34 0 58 -24q20 -22 20 -50zM531 -336q0 -32 -22 -53t-56 -21q-33 0 -56 24q-20 21 -20 50
q0 33 25 55q22 19 51 19q35 0 58 -23q20 -20 20 -51z" />
    <glyph glyph-name="uniFEF2" unicode="&#x64a;" horiz-adv-x="736" arabic-form="final" 
d="M707 0q-11 -96 -102 -149q-87 -52 -236 -52q-166 0 -250 86q-65 68 -65 171q0 94 55 176l116 -37q-34 -59 -34 -116q0 -73 57 -114q53 -38 141 -38q72 0 119 20q46 19 57 53h-105v144h286v-144h-39zM363 -329q0 -33 -26 -55q-22 -19 -52 -19q-34 0 -57 24q-20 21 -20 50
q0 33 26 55q22 19 51 19q34 0 58 -24q20 -22 20 -50zM531 -329q0 -32 -22 -53t-56 -21q-33 0 -56 24q-20 21 -20 50q0 33 25 55q22 19 51 19q35 0 58 -23q20 -20 20 -51z" />
    <glyph glyph-name="uniFEF3" unicode="&#x64a;" horiz-adv-x="353" arabic-form="initial" 
d="M-10 0v144h34q65 0 88 32q19 27 19 88v175h148v-211q0 -124 -67 -179q-60 -49 -178 -49h-44zM48 -221q-34 0 -57 25q-20 21 -20 50q0 33 26 55q22 19 51 19q34 0 57 -24q20 -22 20 -50q0 -34 -26 -56q-22 -19 -51 -19zM216 -221q-34 0 -57 25q-20 21 -20 50q0 33 26 55
q22 19 51 19q33 0 55 -21t22 -53t-22 -53.5t-55 -21.5z" />
    <glyph glyph-name="uniFEF4" unicode="&#x64a;" horiz-adv-x="410" arabic-form="medial" 
d="M-10 0v144h34q65 0 88 32q19 27 19 88v175h148v-175q0 -70 25 -96q24 -24 82 -24h34v-144h-44q-116 0 -170 64q-57 -64 -172 -64h-44zM85 -221q-34 0 -57 25q-20 21 -20 50q0 33 26 55q22 19 51 19q34 0 57 -24q20 -22 20 -50q0 -34 -26 -56q-22 -19 -51 -19zM253 -221
q-33 0 -57 25q-20 21 -20 50q0 33 26 55q22 19 51 19q35 0 58 -23q20 -20 20 -51q0 -35 -26 -57q-22 -18 -52 -18z" />
    <glyph glyph-name=".notdef" horiz-adv-x="364" 
d="M33 0v666h265v-666h-265zM66 33h199v600h-199v-600z" />
    <glyph glyph-name="glyph1" 
 />
    <glyph glyph-name="glyph2" horiz-adv-x="218" 
 />
    <glyph glyph-name="space" unicode=" " horiz-adv-x="218" 
 />
    <glyph glyph-name="exclam" unicode="!" horiz-adv-x="318" 
d="M92 184l-12 483h157l-12 -483h-133zM74 67q0 37 28 61q24 21 57 21q37 0 63 -27q21 -23 21 -55q0 -36 -28 -61q-24 -21 -56 -21q-38 0 -63 27q-22 24 -22 55z" />
    <glyph glyph-name="quotedbl" unicode="&#x22;" horiz-adv-x="375" 
d="M158 377h-115l-15 323h145zM334 377h-116l-15 323h145z" />
    <glyph glyph-name="numbersign" unicode="#" horiz-adv-x="596" 
d="M104 177h-70l23 109h69l19 92h-69l22 109h70l40 195l116 -27l-35 -168h82l40 195l116 -25l-35 -170h70l-23 -109h-70l-19 -92h70l-23 -109h-70l-40 -195l-115 26l34 169h-81l-41 -195l-115 26zM329 286l19 92h-81l-20 -92h82z" />
    <glyph glyph-name="dollar" unicode="$" horiz-adv-x="592" 
d="M196 230q2 -6 6 -24q21 -85 87 -85q39 0 65 27q22 23 22 55q0 22 -19 38t-65 34l-58 22q-154 58 -154 185q0 72 46 126q40 46 103 64v95h146v-94q45 -13 77.5 -41.5t65.5 -82.5l-122 -77q-30 46 -48.5 60t-49.5 14q-30 0 -50.5 -19t-20.5 -46q0 -35 67 -60l60 -23
q94 -35 134 -86q36 -45 36 -108q0 -74 -45 -131q-39 -50 -104 -75v-101h-146v93q-65 14 -113 63q-44 45 -65 138z" />
    <glyph glyph-name="percent" unicode="%" horiz-adv-x="896" 
d="M597 683l80 -46l-379 -654l-79 46zM34 468q0 208 167 208q88 0 130 -60q37 -52 37 -147q0 -208 -168 -208q-87 0 -129 61q-37 52 -37 146zM135 474q0 -68 18 -97q16 -26 48 -26q66 0 66 116q0 119 -66 119t-66 -112zM528 197q0 208 167 208q87 0 130 -60q37 -52 37 -148
q0 -108 -48 -161q-43 -46 -119 -46q-88 0 -130 60q-37 52 -37 147zM629 197q0 -117 66 -117q65 0 65 117q0 118 -66 118q-65 0 -65 -118z" />
    <glyph glyph-name="ampersand" unicode="&#x26;" horiz-adv-x="688" 
d="M365 366l91 -106q15 31 30 75l136 -37q-5 -14 -12 -39q-18 -59 -51 -117l122 -142h-185l-31 37q-42 -29 -81 -41.5t-87 -12.5q-111 0 -182 67q-61 58 -61 139q0 78 59 136q24 23 65 54q-34 43 -47 73t-13 64q0 76 57 125q49 42 118 42q77 0 128 -52q43 -45 43 -109
q0 -43 -23.5 -80.5t-75.5 -75.5zM285 458q32 24 42 37.5t10 30.5q0 19 -12.5 30.5t-32.5 11.5t-33.5 -12.5t-13.5 -31.5q0 -21 31 -56q2 -3 9 -10zM257 284q-58 -52 -58 -89q0 -36 30 -58q27 -20 65 -20q41 0 79 29z" />
    <glyph glyph-name="quotesingle" unicode="'" horiz-adv-x="200" 
d="M158 377h-115l-15 323h145z" />
    <glyph glyph-name="parenleft" unicode="(" horiz-adv-x="339" 
d="M164 754l128 -60q-44 -113 -61.5 -206t-17.5 -212t17.5 -211.5t61.5 -206.5l-128 -61q-27 60 -30 68q-29 71 -47.5 186.5t-18.5 224.5t19 225.5t47 185.5q5 11 30 67z" />
    <glyph glyph-name="parenright" unicode=")" horiz-adv-x="339" 
d="M176 754q25 -56 30 -67q29 -69 47.5 -185.5t18.5 -225.5t-18.5 -224.5t-47.5 -186.5q-3 -8 -30 -68l-128 61q44 114 61.5 206.5t17.5 211.5t-17.5 212t-61.5 206z" />
    <glyph glyph-name="asterisk" unicode="*" horiz-adv-x="517" 
d="M195 654l-4 109h135l-4 -109l102 38l42 -129l-105 -29l68 -86l-110 -80l-60 91l-61 -91l-110 80l68 86l-105 29l42 129z" />
    <glyph glyph-name="plus" unicode="+" horiz-adv-x="556" 
d="M212 377v200h131v-200h199v-129h-199v-200h-131v200h-199v129h199z" />
    <glyph glyph-name="comma" unicode="," horiz-adv-x="283" 
d="M113 140l130 -47l-128 -287l-107 42z" />
    <glyph glyph-name="hyphen" unicode="-" horiz-adv-x="291" 
d="M20 378h251v-131h-251v131z" />
    <glyph glyph-name="period" unicode="." horiz-adv-x="266" 
d="M48 67q0 37 28 61q24 21 57 21q37 0 63 -27q21 -23 21 -55q0 -36 -28 -61q-24 -21 -56 -21q-38 0 -63 27q-22 24 -22 55z" />
    <glyph glyph-name="slash" unicode="/" horiz-adv-x="572" 
d="M39 51l376 634l118 -69l-376 -634z" />
    <glyph glyph-name="zero" unicode="0" horiz-adv-x="585" 
d="M24 333q0 185 77 273q68 77 191 77q142 0 210 -100q59 -88 59 -250q0 -184 -77 -273q-68 -77 -192 -77q-141 0 -209 101q-59 88 -59 249zM173 343q0 -123 33 -177q29 -48 86 -48q65 0 94 60q26 53 26 156q0 66 -14 117.5t-37 72.5q-27 24 -69 24q-47 0 -75 -31
q-19 -21 -31.5 -70.5t-12.5 -103.5z" />
    <glyph glyph-name="one" unicode="1" horiz-adv-x="344" 
d="M280 0h-148v487l-70 -39l-71 119l176 100h113v-667z" />
    <glyph glyph-name="two" unicode="2" horiz-adv-x="504" 
d="M39 0v113l234 256q60 67 60 117q0 29 -19 45.5t-53 16.5q-40 0 -59 -19.5t-35 -79.5l-138 38q17 74 51 118q28 36 76.5 57t104.5 21q105 0 166 -63q53 -54 53 -138q0 -96 -74 -176l-154 -169h242v-137h-455z" />
    <glyph glyph-name="three" unicode="3" horiz-adv-x="499" 
d="M175 283v129h60q79 0 79 67q0 33 -20 51.5t-55 18.5q-30 0 -49.5 -13.5t-51.5 -55.5l-121 66q48 78 104 110q49 27 117 27q103 0 167 -64q55 -56 55 -136q0 -73 -54 -128q69 -62 69 -151q0 -102 -77 -166q-66 -55 -161 -55q-55 0 -103 21t-78 57q-36 44 -56 125l141 37
q17 -61 37 -82.5t60 -21.5q43 0 67 26q22 24 22 60q0 78 -92 78h-60z" />
    <glyph glyph-name="four" unicode="4" horiz-adv-x="525" 
d="M298 691l121 -74l-224 -351h102v112h147v-112h61v-135h-61v-131h-147v131h-283v117z" />
    <glyph glyph-name="five" unicode="5" horiz-adv-x="548" 
d="M250 461q8 1 18 1q113 0 186 -76q63 -66 63 -159q0 -110 -83 -182q-72 -62 -171 -62q-81 0 -140 39q-52 35 -99 107l120 82q29 -52 55 -72.5t64 -20.5q49 0 80 34q26 29 26 72q0 49 -33 79q-29 26 -70 26q-45 0 -77 -37h-1q-2 -3 -4 -5l-114 24l74 356h342v-137h-221z
" />
    <glyph glyph-name="six" unicode="6" horiz-adv-x="550" 
d="M309 691l115 -84l-115 -159q43 -7 71.5 -18.5t56.5 -33.5q81 -67 81 -172q0 -108 -80 -179q-69 -62 -164 -62q-110 0 -183 79q-63 68 -63 161q0 82 54 156zM372 221q0 45 -31 73q-28 24 -68 24q-45 0 -74 -32q-24 -27 -24 -66q0 -47 31 -76q28 -26 67 -26q45 0 74 34
q25 28 25 69z" />
    <glyph glyph-name="seven" unicode="7" horiz-adv-x="460" 
d="M16 42l268 488h-283v137h465v-102l-321 -589z" />
    <glyph glyph-name="eight" unicode="8" horiz-adv-x="525" 
d="M102 356q-32 31 -45 60.5t-13 66.5q0 91 71 149q62 51 147 51q99 0 163 -65q55 -56 55 -135q0 -37 -13 -66.5t-44 -60.5q41 -35 59 -71.5t18 -84.5q0 -99 -76 -162q-67 -55 -162 -55q-109 0 -178 71q-60 60 -60 147q0 47 18.5 83.5t59.5 71.5zM262 287q-45 0 -70 -27
q-22 -22 -22 -58q0 -41 29 -65q25 -21 63 -21q44 0 70 27q23 23 23 59q0 41 -29 64q-25 21 -64 21zM185 481q0 -32 21.5 -52t56.5 -20q34 0 55.5 20t21.5 52t-21.5 53t-56.5 21q-34 0 -55.5 -21t-21.5 -53z" />
    <glyph glyph-name="nine" unicode="9" horiz-adv-x="553" 
d="M242 -24l-116 84l116 159q-44 6 -72.5 17.5t-55.5 34.5q-82 66 -82 172q0 107 80 179q70 61 164 61q110 0 183 -78q63 -69 63 -162q0 -82 -53 -156zM179 446q0 -46 31 -73q27 -24 67 -24q46 0 74 32q25 27 25 66q0 47 -32 76q-27 26 -66 26q-45 0 -74 -34
q-25 -29 -25 -69z" />
    <glyph glyph-name="colon" unicode=":" horiz-adv-x="266" 
d="M48 67q0 37 28 61q24 21 57 21q37 0 63 -27q21 -23 21 -55q0 -36 -28 -61q-24 -21 -56 -21q-38 0 -63 27q-22 24 -22 55zM48 350q0 36 28 61q24 21 57 21q37 0 63 -27q21 -24 21 -55q0 -37 -28 -62q-24 -21 -56 -21q-38 0 -63 28q-22 23 -22 55z" />
    <glyph glyph-name="semicolon" unicode=";" horiz-adv-x="277" 
d="M113 140l130 -47l-128 -287l-107 42zM71 350q0 36 28 61q24 21 57 21q38 0 63 -27q22 -24 22 -55q0 -37 -28 -61q-24 -22 -57 -22q-38 0 -63 28q-22 23 -22 55z" />
    <glyph glyph-name="less" unicode="&#x3c;" horiz-adv-x="591" 
d="M546 625v-148l-306 -140l306 -140v-149l-500 235v108z" />
    <glyph glyph-name="equal" unicode="=" horiz-adv-x="556" 
d="M514 466v-129h-471v129h471zM514 288v-129h-471v129h471z" />
    <glyph glyph-name="greater" unicode="&#x3e;" horiz-adv-x="591" 
d="M46 48v149l306 140l-306 140v148l500 -235v-107z" />
    <glyph glyph-name="question" unicode="?" horiz-adv-x="447" 
d="M150 184v60q0 51 13 78.5t53 60.5l39 33q45 37 45 74q0 26 -17 41t-47 15q-33 0 -55 -15.5t-54 -61.5l-109 87q44 72 99 101q49 26 117 26q101 0 161 -60q52 -53 52 -133q0 -49 -20 -87.5t-68 -82.5l-44 -41q-12 -11 -15.5 -18.5t-3.5 -23.5v-53h-146zM137 67q0 37 28 61
q24 21 57 21q38 0 63 -27q22 -23 22 -55q0 -36 -28 -61q-24 -21 -57 -21q-38 0 -63 27q-22 24 -22 55z" />
    <glyph glyph-name="at" unicode="@" horiz-adv-x="893" 
d="M642 535l-40 -318h1q60 0 92 48q29 41 29 109q0 74 -32 131q-28 50 -75 76q-55 32 -137 32q-151 0 -236 -89q-74 -77 -74 -199q0 -119 73 -192q79 -79 238 -79q55 0 98.5 7t127.5 30l37 -99q-80 -24 -136.5 -33t-131.5 -9q-113 0 -201 36q-77 31 -125 86
q-42 49 -65.5 114.5t-23.5 137.5q0 91 36 172q32 70 87 120q56 51 140 78q72 23 154 23q170 0 269 -106q85 -92 85 -234q0 -87 -36 -150q-31 -55 -85 -85q-55 -30 -144 -30h-129q-91 0 -145 60q-46 52 -46 132q0 50 19 96t54 77q63 58 181 58h141zM491 216l28 215h-27
q-68 0 -103 -37q-31 -32 -31 -88q0 -46 26 -69q23 -21 62 -21h45z" />
    <glyph glyph-name="A" unicode="A" horiz-adv-x="649" 
d="M451 147h-253l-51 -147h-156l249 667h170l249 -667h-157zM403 284l-79 225l-78 -225h157z" />
    <glyph glyph-name="B" unicode="B" horiz-adv-x="535" 
d="M64 0v667h166q99 0 154 -32q45 -26 71 -74q22 -41 22 -85q0 -66 -55 -119q86 -60 86 -156q0 -57 -31 -104q-28 -41 -74 -66q-54 -31 -143 -31h-196zM207 399h33q48 0 66 10q33 18 33 61q0 37 -22.5 52.5t-76.5 15.5h-33v-139zM207 132h48q52 0 74 12q36 20 36 62
q0 43 -32 61q-25 15 -87 15h-39v-150z" />
    <glyph glyph-name="C" unicode="C" horiz-adv-x="674" 
d="M548 455q-44 50 -82 70t-86 20q-92 0 -153 -69q-52 -60 -52 -143q0 -94 68 -157q58 -55 138 -55q48 0 86.5 21t83.5 71l105 -98q-70 -74 -139 -105q-61 -27 -134 -27q-97 0 -180 48q-81 46 -128 125q-49 82 -49 177t49 177q47 79 128 126q83 47 180 47q78 0 141.5 -30.5
t128.5 -99.5z" />
    <glyph glyph-name="D" unicode="D" horiz-adv-x="621" 
d="M64 667h164q179 0 279 -103q88 -89 88 -230q0 -163 -113 -254q-98 -80 -254 -80h-164v667zM212 529v-392h19q107 0 165 59q51 52 51 137q0 98 -65 151q-57 45 -151 45h-19z" />
    <glyph glyph-name="E" unicode="E" horiz-adv-x="495" 
d="M456 667v-136h-245v-125h218v-137h-218v-132h254v-137h-401v667h392z" />
    <glyph glyph-name="F" unicode="F" horiz-adv-x="458" 
d="M435 667v-137h-223v-124h203v-137h-203v-269h-148v667h371z" />
    <glyph glyph-name="G" unicode="G" horiz-adv-x="729" 
d="M369 380h332v-70q0 -106 -43 -180t-121 -113q-68 -34 -151 -34q-98 0 -182 48q-82 46 -129 125q-49 81 -49 177t49 177q47 80 128 126q84 47 182 47q77 0 140 -28.5t134 -94.5l-106 -99q-47 47 -84 65.5t-85 18.5q-95 0 -156 -68q-53 -60 -53 -144q0 -96 68 -158
q60 -54 142 -54q67 0 110 36q37 32 52 88h-178v135z" />
    <glyph glyph-name="H" unicode="H" horiz-adv-x="654" 
d="M212 667v-261h229v261h148v-667h-148v269h-229v-269h-148v667h148z" />
    <glyph glyph-name="I" unicode="I" horiz-adv-x="276" 
d="M212 667v-667h-148v667h148z" />
    <glyph glyph-name="J" unicode="J" horiz-adv-x="431" 
d="M368 667v-458q0 -48 -7 -79t-24 -61q-23 -41 -65 -63.5t-95 -22.5t-97 21.5t-92 71.5l88 106q54 -61 94 -61q50 0 50 88v458h148z" />
    <glyph glyph-name="K" unicode="K" horiz-adv-x="616" 
d="M360 383l255 -383h-175l-181 276l-47 -51v-225h-148v667h148v-240l224 240h189z" />
    <glyph glyph-name="L" unicode="L" horiz-adv-x="446" 
d="M64 667h148v-530h235v-137h-383v667z" />
    <glyph glyph-name="M" unicode="M" horiz-adv-x="799" 
d="M64 0v667h135l200 -349l200 349h136v-667h-148v369l-135 -236h-106l-134 236v-369h-148z" />
    <glyph glyph-name="N" unicode="N" horiz-adv-x="708" 
d="M64 0v667h124l308 -405v405h148v-667h-124l-308 405v-405h-148z" />
    <glyph glyph-name="O" unicode="O" horiz-adv-x="763" 
d="M26 333q0 94 49 176q47 80 128 126q83 48 178 48q96 0 179 -48q81 -47 128 -126q49 -82 49 -176t-49 -176q-48 -79 -128 -126q-83 -48 -179 -48q-95 0 -178 48q-81 47 -128 126q-49 82 -49 176zM175 333q0 -94 68 -157q59 -55 138 -55q92 0 154 70q53 61 53 142
q0 95 -68 158q-59 54 -139 54q-92 0 -153 -70q-53 -60 -53 -142z" />
    <glyph glyph-name="P" unicode="P" horiz-adv-x="482" 
d="M212 232v-232h-148v667h164q93 0 146 -30q52 -30 79 -84q24 -47 24 -103q0 -64 -31 -116q-28 -46 -72 -72q-53 -30 -146 -30h-16zM211 367h25q52 0 75 19.5t23 62.5q0 44 -23 63t-75 19h-25v-164z" />
    <glyph glyph-name="Q" unicode="Q" horiz-adv-x="761" 
d="M530 16q-72 -33 -149 -33q-95 0 -178 48q-81 47 -128 126q-49 82 -49 176t49 176q47 79 128 126q83 48 178 48q96 0 179 -48q80 -47 128 -126q49 -82 49 -176q0 -63 -23.5 -123.5t-65.5 -105.5l59 -58l-103 -101zM382 160l104 101l59 -57q43 60 43 126q0 97 -68 161
q-58 54 -139 54q-92 0 -153 -69q-53 -61 -53 -143q0 -96 70 -158q27 -25 62 -39.5t66 -14.5q15 0 45 5z" />
    <glyph glyph-name="R" unicode="R" horiz-adv-x="568" 
d="M392 0l-129 233h-3h-1l-15 -1h-16h-16v-232h-148v667h164q102 0 159 -33q52 -30 81 -84q24 -48 24 -102q0 -53 -23 -98.5t-65 -74.5l155 -275h-167zM211 367h25q64 0 90 22q23 19 23 59q0 43 -27 63.5t-86 20.5h-25v-165z" />
    <glyph glyph-name="S" unicode="S" horiz-adv-x="530" 
d="M491 549l-122 -77q-30 46 -48.5 60t-49.5 14q-30 0 -50.5 -19t-20.5 -46q0 -35 67 -60l60 -23q93 -35 134 -86q36 -45 36 -108q0 -99 -77 -164q-67 -57 -160 -57q-55 0 -103.5 22t-78.5 60q-36 46 -54 126l145 39q2 -7 6 -24q21 -85 87 -85q39 0 64 27q23 23 23 55
q0 22 -18.5 38t-65.5 34l-58 22q-154 58 -154 185q0 92 72 151q63 50 151 50q71 0 121.5 -31.5t93.5 -102.5z" />
    <glyph glyph-name="T" unicode="T" horiz-adv-x="443" 
d="M452 667v-137h-156v-530h-148v530h-157v137h461z" />
    <glyph glyph-name="U" unicode="U" horiz-adv-x="645" 
d="M212 667v-408q0 -67 13 -90q12 -20 39.5 -34t57.5 -14t58 14t40 34q13 23 13 90v408h148v-426q0 -84 -30 -135q-36 -60 -103 -94q-59 -29 -126 -29q-77 0 -141 38q-56 33 -87 85q-30 51 -30 135v426h148z" />
    <glyph glyph-name="V" unicode="V" horiz-adv-x="597" 
d="M147 667l152 -460l151 460h156l-223 -667h-169l-223 667h156z" />
    <glyph glyph-name="W" unicode="W" horiz-adv-x="877" 
d="M145 667l116 -394l117 394h121l117 -395l116 395h154l-200 -667h-130l-117 395l-118 -395h-129l-201 667h154z" />
    <glyph glyph-name="X" unicode="X" horiz-adv-x="595" 
d="M382 347l223 -347h-170l-138 216l-137 -216h-169l223 346l-205 321h169l120 -190l121 190h167z" />
    <glyph glyph-name="Y" unicode="Y" horiz-adv-x="565" 
d="M208 275l-224 392h166l132 -239l133 239h165l-224 -392v-275h-148v275z" />
    <glyph glyph-name="Z" unicode="Z" horiz-adv-x="516" 
d="M500 557l-296 -419h303v-138h-499v109l301 421h-274v137h465v-110z" />
    <glyph glyph-name="bracketleft" unicode="[" horiz-adv-x="326" 
d="M297 601h-84v-650h84v-134h-229v918h229v-134z" />
    <glyph glyph-name="backslash" unicode="\" horiz-adv-x="543" 
d="M127 684l377 -650l-89 -52l-376 650z" />
    <glyph glyph-name="bracketright" unicode="]" horiz-adv-x="326" 
d="M29 601v134h229v-918h-229v134h84v650h-84z" />
    <glyph glyph-name="asciicircum" unicode="^" horiz-adv-x="590" 
d="M171 329h-162l217 375h139l217 -375h-163l-124 211z" />
    <glyph glyph-name="underscore" unicode="_" horiz-adv-x="535" 
d="M-16 -35h567v-132h-567v132z" />
    <glyph glyph-name="grave" unicode="`" horiz-adv-x="476" 
d="M62 644l131 66l137 -175l-96 -51z" />
    <glyph glyph-name="a" unicode="a" horiz-adv-x="543" 
d="M496 0h-142v22q-54 -39 -111 -39q-100 0 -166 79q-58 68 -58 160q0 106 74 177q64 61 150 61q57 0 111 -38v21h142v-443zM260 332q-47 0 -74 -34q-24 -30 -24 -76q0 -53 30 -84q27 -27 68 -27q46 0 72 35q24 30 24 76q0 53 -30 84q-26 26 -66 26z" />
    <glyph glyph-name="b" unicode="b" horiz-adv-x="543" 
d="M47 0v667h142v-245q54 38 111 38q100 0 167 -78q57 -68 57 -160q0 -106 -74 -177q-64 -62 -150 -62q-57 0 -111 39v-22h-142zM284 332q-47 0 -73 -34q-23 -30 -23 -76q0 -53 30 -84q26 -27 66 -27q46 0 73 35q24 30 24 76q0 53 -30 83q-27 27 -67 27z" />
    <glyph glyph-name="c" unicode="c" horiz-adv-x="457" 
d="M448 376l-87 -96q-30 30 -50.5 41t-48.5 11q-49 0 -76 -34q-24 -29 -24 -76q0 -54 31 -85q27 -26 69 -26q30 0 52 12.5t49 43.5l88 -97q-47 -47 -90.5 -67t-98.5 -20q-110 0 -181 78q-62 67 -62 161q0 108 79 178q68 60 163 60q54 0 96 -19t91 -65z" />
    <glyph glyph-name="d" unicode="d" horiz-adv-x="543" 
d="M496 0h-142v22q-54 -39 -111 -39q-100 0 -166 79q-58 68 -58 160q0 106 74 177q64 61 150 61q57 0 111 -38v245h142v-667zM260 332q-48 0 -75 -34q-23 -30 -23 -78q0 -52 31 -82q26 -27 67 -27q46 0 72 35q23 30 23 76q0 53 -29 84q-26 26 -66 26z" />
    <glyph glyph-name="e" unicode="e" horiz-adv-x="494" 
d="M463 103q-77 -120 -209 -120q-107 0 -176 78q-59 67 -59 161q0 107 75 177q65 61 155 61q105 0 170 -79q56 -69 56 -169q0 -13 -1 -37h-309q24 -68 87 -68q55 0 84 46zM334 269q-12 36 -31.5 52t-52.5 16q-66 0 -85 -68h169z" />
    <glyph glyph-name="f" unicode="f" horiz-adv-x="275" 
d="M198 317v-317h-142v317h-40v126h40v75q0 81 40 122q36 36 97 36q33 0 75 -9v-127q-25 9 -43 9q-27 0 -27 -34v-72h72v-126h-72z" />
    <glyph glyph-name="g" unicode="g" horiz-adv-x="543" 
d="M354 22q-31 -22 -55.5 -30.5t-55.5 -8.5q-100 0 -166 79q-58 68 -58 160q0 106 74 177q64 61 150 61q31 0 55.5 -8.5t55.5 -29.5v21h142v-452q0 -115 -77 -182q-66 -59 -167 -59q-68 0 -121.5 28.5t-107.5 92.5l96 91q6 -6 14 -17q54 -67 119 -67q52 0 79 33q23 30 23 80
v31zM260 332q-47 0 -74 -34q-24 -30 -24 -76q0 -53 30 -84q27 -27 67 -27q47 0 73 35q23 29 23 76q0 53 -29 84q-26 26 -66 26z" />
    <glyph glyph-name="h" unicode="h" horiz-adv-x="511" 
d="M189 426q44 34 98 34q45 0 85 -23t63 -62q28 -49 28 -135v-240h-142v233q0 57 -13 78t-48 21q-43 0 -59 -28q-12 -21 -12 -80v-224h-142v667h142v-241z" />
    <glyph glyph-name="i" unicode="i" horiz-adv-x="238" 
d="M34 596q0 36 28 61q24 21 57 21q37 0 63 -27q21 -24 21 -55q0 -37 -28 -61q-24 -21 -56 -21q-38 0 -63 27q-22 23 -22 55zM190 443v-443h-142v443h142z" />
    <glyph glyph-name="j" unicode="j" horiz-adv-x="244" 
d="M196 443v-530q0 -80 -40 -122q-35 -36 -95 -36q-36 0 -78 14v131q36 -14 53 -14q18 0 18 33v524h142zM40 596q0 36 28 61q24 21 57 21q37 0 63 -27q21 -24 21 -55q0 -37 -28 -61q-24 -21 -56 -21q-38 0 -63 27q-22 23 -22 55z" />
    <glyph glyph-name="k" unicode="k" horiz-adv-x="500" 
d="M312 255l202 -255h-177l-124 160l-24 -24v-136h-142v667h142v-348l127 124h191z" />
    <glyph glyph-name="l" unicode="l" horiz-adv-x="239" 
d="M190 0h-142v667h142v-667z" />
    <glyph glyph-name="m" unicode="m" horiz-adv-x="756" 
d="M393 416q57 44 125 44q54 0 96.5 -23.5t66.5 -67.5q28 -48 28 -132v-237h-143v230q0 59 -11.5 80.5t-41.5 21.5q-37 0 -51 -26q-12 -22 -12 -84v-222h-143v230q0 59 -11.5 80.5t-42.5 21.5q-38 0 -52 -26q-12 -22 -12 -84v-222h-142v443h141v-17q46 34 95 34
q57 0 110 -44z" />
    <glyph glyph-name="n" unicode="n" horiz-adv-x="511" 
d="M189 426q44 34 98 34q45 0 85 -23t63 -62q28 -49 28 -135v-240h-142v233q0 57 -13 78t-48 21q-43 0 -59 -28q-12 -21 -12 -80v-224h-142v443h142v-17z" />
    <glyph glyph-name="o" unicode="o" horiz-adv-x="520" 
d="M260 460q109 0 180 -78q61 -67 61 -160q0 -108 -79 -178q-68 -61 -162 -61q-109 0 -180 78q-61 68 -61 161q0 107 79 177q68 61 162 61zM260 332q-47 0 -74 -34q-24 -30 -24 -76q0 -53 31 -84q26 -27 67 -27q47 0 74 35q24 30 24 76q0 53 -30 84q-27 26 -68 26z" />
    <glyph glyph-name="p" unicode="p" horiz-adv-x="543" 
d="M47 443h142v-21q54 38 111 38q100 0 167 -79q57 -68 57 -160q0 -106 -74 -176q-63 -62 -150 -62q-57 0 -111 39v-255h-142v676zM284 111q46 0 74 35q23 29 23 75q0 53 -30 84q-27 27 -67 27q-46 0 -73 -34q-23 -30 -23 -76q0 -54 30 -84q25 -27 66 -27z" />
    <glyph glyph-name="q" unicode="q" horiz-adv-x="543" 
d="M496 443v-676h-142v255q-54 -39 -111 -39q-100 0 -166 79q-58 68 -58 159q0 107 74 178q64 61 150 61q57 0 111 -38v21h142zM260 111q46 0 72 34q23 30 23 76q0 54 -30 84q-25 27 -65 27q-47 0 -74 -34q-24 -30 -24 -75q0 -54 30 -85q26 -27 68 -27z" />
    <glyph glyph-name="r" unicode="r" horiz-adv-x="315" 
d="M189 424q37 23 76 23q19 0 45 -5v-125q-27 3 -45 3q-47 0 -62 -25q-14 -23 -14 -80v-215h-142v443h142v-19z" />
    <glyph glyph-name="s" unicode="s" horiz-adv-x="394" 
d="M14 117l122 43q29 -53 65 -53q32 0 32 29q0 9 -6.5 15t-27.5 14l-74 30q-39 16 -60.5 47.5t-21.5 70.5q0 67 54 110q47 37 113 37q106 0 164 -102l-114 -52q-22 32 -51 32q-30 0 -30 -22q0 -8 6.5 -13.5t24.5 -12.5l62 -24q103 -39 103 -124q0 -72 -57 -119
q-49 -40 -119 -40q-132 0 -185 134z" />
    <glyph glyph-name="t" unicode="t" horiz-adv-x="282" 
d="M192 317v-162q0 -33 18 -33q17 0 53 14v-131q-42 -14 -79 -14q-68 0 -103 47q-31 41 -31 111v168h-44v126h44v89l142 55v-144h65v-126h-65z" />
    <glyph glyph-name="u" unicode="u" horiz-adv-x="511" 
d="M321 18q-44 -35 -97 -35q-46 0 -86 23t-63 62q-28 49 -28 135v240h142v-233q0 -56 13 -77.5t49 -21.5q42 0 58 28q12 21 12 80v224h142v-443h-142v18z" />
    <glyph glyph-name="v" unicode="v" horiz-adv-x="472" 
d="M135 443l101 -244l101 244h151l-188 -443h-127l-188 443h150z" />
    <glyph glyph-name="w" unicode="w" horiz-adv-x="654" 
d="M-15 443h149l71 -213l69 213h106l70 -213l71 213h148l-159 -443h-114l-69 209l-69 -209h-114z" />
    <glyph glyph-name="x" unicode="x" horiz-adv-x="508" 
d="M340 229l178 -229h-172l-92 120l-93 -120h-172l179 229l-167 214h172l81 -106l82 106h170z" />
    <glyph glyph-name="y" unicode="y" horiz-adv-x="475" 
d="M153 24l-168 419h150l96 -245l110 245h150l-303 -676h-150z" />
    <glyph glyph-name="z" unicode="z" horiz-adv-x="423" 
d="M405 443v-100l-192 -217h201v-126h-397v100l193 218h-180v125h375z" />
    <glyph glyph-name="braceleft" unicode="{" horiz-adv-x="328" 
d="M299 -49v-133q-53 -2 -63 -2q-155 0 -155 164v190q0 29 -7.5 37t-44.5 16v112l24 6q16 4 22 13.5t6 31.5v185q0 165 154 165q9 0 64 -2v-133h-52q-14 0 -17.5 -3.5t-3.5 -16.5v-202q0 -35 -7 -57.5t-24 -45.5q31 -40 31 -106v-199q0 -13 3.5 -16.5t16.5 -3.5h26h27z" />
    <glyph glyph-name="bar" unicode="|" horiz-adv-x="536" 
d="M198 728h139v-904h-139v904z" />
    <glyph glyph-name="braceright" unicode="}" horiz-adv-x="328" 
d="M29 -49q16 1 30 1q1 0 15 -1h2h7q12 0 15.5 3.5t3.5 16.5v199q0 66 31 106q-18 23 -24.5 45.5t-6.5 57.5v202q0 14 -3 17t-16 3h-6h-48v133q55 2 64 2q154 0 154 -165v-185q0 -22 6 -31.5t22 -13.5l24 -6v-112q-37 -8 -44.5 -16t-7.5 -37v-190q0 -164 -155 -164
q-11 0 -63 2v133z" />
    <glyph glyph-name="asciitilde" unicode="~" horiz-adv-x="721" 
d="M175 535l-98 63q37 76 58 101q48 59 121 59q51 0 126 -37q59 -28 84 -28q18 0 31.5 11.5t30.5 39.5q6 11 17 29l99 -59q-38 -78 -64 -104q-24 -25 -56.5 -40t-61.5 -15t-62.5 11t-96.5 40q-32 15 -53 15q-18 0 -31.5 -15.5t-43.5 -70.5z" />
    <glyph glyph-name="nonbreakingspace" unicode="&#xa0;" horiz-adv-x="218" 
 />
    <glyph glyph-name="exclamdown" unicode="&#xa1;" horiz-adv-x="318" 
d="M92 298h133l12 -482h-157zM74 416q0 36 28 61q24 21 57 21q37 0 63 -27q21 -24 21 -55q0 -37 -28 -61q-24 -21 -56 -21q-38 0 -63 27q-22 23 -22 55z" />
    <glyph glyph-name="cent" unicode="&#xa2;" horiz-adv-x="548" 
d="M360 0h-145v108q-78 25 -123 93q-39 60 -39 132q0 84 50 148q44 56 112 77v109h145v-104q63 -17 122 -75l-88 -97q-29 30 -50 41.5t-48 11.5q-49 0 -76 -34q-24 -30 -24 -77q0 -54 31 -84q26 -26 69 -26q29 0 52 12.5t49 42.5l88 -96q-59 -61 -125 -79v-103z" />
    <glyph glyph-name="sterling" unicode="&#xa3;" horiz-adv-x="572" 
d="M449 401v-129h-169q7 -42 7 -68q0 -33 -18 -70h269v-134h-479v115q12 10 23 19q30 24 42.5 43t12.5 42q0 18 -6 53h-72v129h45q-4 34 -4 57q0 111 69 170q64 55 155 55q102 0 165 -71q20 -24 44 -63l-118 -74q-29 44 -48.5 58.5t-47.5 14.5q-72 0 -72 -92q0 -24 6 -55
h196z" />
    <glyph glyph-name="currency" unicode="&#xa4;" horiz-adv-x="776" 
d="M254 557q40 21 69 29t65 8t65.5 -8t69.5 -29l91 91l87 -84l-93 -94q20 -41 28 -70.5t8 -65.5t-8 -66t-28 -71l92 -93l-85 -86l-91 93q-41 -22 -70.5 -30.5t-65.5 -8.5t-65.5 8.5t-69.5 30.5l-92 -93l-84 86l92 93q-21 41 -29 71t-8 66t8 65.5t29 70.5l-93 94l87 84z
M388 466q-57 0 -91 -42q-29 -35 -29 -90q0 -64 38 -101q32 -32 82 -32q58 0 91 42q30 36 30 90q0 64 -38 101q-33 32 -83 32z" />
    <glyph glyph-name="yen" unicode="&#xa5;" horiz-adv-x="556" 
d="M178 320l-14 24h-108v103h50l-126 220h166l131 -236h3l131 236h165l-125 -220h49v-103h-108l-14 -24h122v-102h-148v-218h-148v218h-148v102h122z" />
    <glyph glyph-name="brokenbar" unicode="&#xa6;" horiz-adv-x="536" 
d="M337 348h-139v380h139v-380zM337 210v-386h-139v386h139z" />
    <glyph glyph-name="section" unicode="&#xa7;" horiz-adv-x="587" 
d="M490 64q32 -45 32 -106q0 -98 -73 -156q-63 -50 -159 -50q-163 0 -252 159l126 79q35 -55 57 -75q28 -25 74 -25q36 0 57.5 18.5t21.5 49.5q0 23 -19.5 39.5t-70.5 35.5l-60 23q-157 59 -157 188q0 73 46 126q-35 46 -35 108q0 94 74 154q65 51 156 51q71 0 123 -30.5
t98 -99.5l-125 -79q-27 39 -50 55.5t-51 16.5q-36 0 -58 -22q-19 -20 -19 -48q0 -35 71 -62l62 -23q96 -37 138 -89q36 -46 36 -110q0 -67 -43 -128zM235 289l-3 -4q-20 -21 -20 -41q0 -36 74 -63l73 -28l11 -5q16 26 16 45q0 23 -18.5 38t-73.5 35z" />
    <glyph glyph-name="dieresis" unicode="&#xa8;" horiz-adv-x="476" 
d="M253 596q0 34 26 56q23 20 53 20q35 0 58 -25q21 -22 21 -51q0 -34 -26 -57q-23 -19 -53 -19q-35 0 -58 25q-21 22 -21 51zM65 596q0 34 26 56q22 20 53 20q35 0 58 -25q20 -22 20 -51q0 -34 -26 -57q-22 -19 -53 -19q-34 0 -58 25q-20 21 -20 51z" />
    <glyph glyph-name="copyright" unicode="&#xa9;" horiz-adv-x="833" 
d="M537 401q-31 36 -55 49.5t-54 13.5q-57 0 -94 -43q-32 -37 -32 -88q0 -58 41 -97q36 -33 85 -33q31 0 54 13t57 50l82 -76l-1 -1q-5 -4 -11 -10q-43 -44 -85.5 -63.5t-94.5 -19.5q-107 0 -179 78q-63 68 -63 159q0 106 80 177q69 61 162 61q56 0 97.5 -20.5t92.5 -73.5z
M416 716q104 0 193 -52q87 -51 138 -137q52 -90 52 -194t-53 -193q-50 -86 -137 -137q-89 -52 -193 -52t-193 52q-86 51 -137 137q-52 89 -52 193t52 193q51 87 137 137q89 53 193 53zM416 622q-78 0 -145 -39q-66 -39 -104 -104q-39 -67 -39 -146q0 -78 39 -145
q38 -66 104 -104q67 -39 145 -39q79 0 146 39q65 38 104 104q39 67 39 145q0 79 -39 146q-39 65 -104 104q-68 39 -146 39z" />
    <glyph glyph-name="ordfeminine" unicode="&#xaa;" horiz-adv-x="346" 
d="M319 406h-97v8q-31 -20 -63 -20q-63 0 -105 47q-36 41 -36 96q0 65 47 108q40 38 94 38q32 0 63 -20v9h97v-266zM223 539q0 26 -14.5 42t-38.5 16t-39 -16.5t-15 -42.5q0 -27 14.5 -42t39.5 -15q24 0 38.5 16t14.5 42z" />
    <glyph glyph-name="guillemotleft" unicode="&#xab;" horiz-adv-x="534" 
d="M376 222l123 -152l-97 -76l-185 228l185 233l97 -77zM180 222l123 -152l-97 -77l-185 228l185 233l97 -76z" />
    <glyph glyph-name="logicalnot" unicode="&#xac;" horiz-adv-x="702" 
d="M651 48h-137v198h-463v131h600v-329z" />
    <glyph glyph-name="uni00AD" unicode="&#xad;" horiz-adv-x="291" 
d="M20 378h251v-131h-251v131z" />
    <glyph glyph-name="registered" unicode="&#xae;" horiz-adv-x="833" 
d="M416 716q104 0 193 -52q87 -51 138 -138q52 -89 52 -193t-53 -193q-50 -86 -137 -137q-89 -52 -193 -52t-193 52q-86 51 -137 137q-52 90 -52 193q0 104 52 193q51 87 137 137q90 53 193 53zM597 108h-101l-84 152q-10 -1 -23 -1h-7v-151h-112v450h124q68 0 107 -22
q34 -19 53.5 -53.5t19.5 -75.5q0 -65 -55 -114l95 -170q91 86 91 211q0 78 -39 145q-39 65 -104 104q-67 39 -146 39q-78 0 -145 -39q-66 -39 -104 -104q-39 -67 -39 -146q0 -78 39 -145q38 -66 104 -104q67 -39 146 -39q100 0 180 63zM382 364h17q35 0 50 10t15 33
q0 25 -15.5 36t-49.5 11h-17v-90z" />
    <glyph glyph-name="macron" unicode="&#xaf;" horiz-adv-x="476" 
d="M70 649h336v-117h-336v117z" />
    <glyph glyph-name="degree" unicode="&#xb0;" horiz-adv-x="324" 
d="M196 745q64 0 107 -48q37 -41 37 -96q0 -65 -48 -108q-41 -37 -96 -37q-65 0 -108 47q-37 42 -37 98q0 63 48 106q41 38 97 38zM196 651q-22 0 -37 -14.5t-15 -36.5q0 -21 15 -36t37 -15q21 0 36 15t15 36t-15 36t-36 15z" />
    <glyph glyph-name="plusminus" unicode="&#xb1;" horiz-adv-x="556" 
d="M212 468v187h131v-187h199v-129h-199v-187h-131v187h-199v129h199zM542 129v-129h-529v129h529z" />
    <glyph glyph-name="twosuperior" unicode="&#xb2;" horiz-adv-x="387" 
d="M55 406v73l142 149q35 37 35 63q0 30 -37 30q-23 0 -33 -11t-20 -47l-94 24q11 47 31 74q17 23 48 36.5t67 13.5q66 0 104 -38q34 -33 34 -84q0 -58 -46 -106l-83 -86h137v-91h-285z" />
    <glyph glyph-name="threesuperior" unicode="&#xb3;" horiz-adv-x="387" 
d="M146 655h42q42 0 42 33q0 15 -10 24t-28 9t-29 -7.5t-31 -33.5l-83 44q30 47 62.5 67t79.5 20q64 0 104 -39q35 -34 35 -83q0 -40 -31 -73q22 -23 30.5 -42t8.5 -45q0 -61 -48 -100q-41 -33 -100 -33q-36 0 -67.5 14t-49.5 37q-21 27 -33 76l96 24q0 -1 1 -5q1 -3 1 -4
q9 -29 20 -40.5t32 -11.5t34 12t13 31q0 40 -49 40h-42v86z" />
    <glyph glyph-name="acute" unicode="&#xb4;" horiz-adv-x="476" 
d="M414 644l-172 -160l-96 51l137 175z" />
    <glyph glyph-name="mu" unicode="&#xb5;" horiz-adv-x="511" 
d="M189 -233h-142v676h142v-233q0 -57 13.5 -78t48.5 -21q42 0 58 28q12 21 12 80v224h142v-443h-142v18q-20 -20 -36 -27.5t-37 -7.5q-31 0 -59 16v-232z" />
    <glyph glyph-name="paragraph" unicode="&#xb6;" horiz-adv-x="645" 
d="M384 -233h-123v428q-46 8 -73 19t-54 35q-83 71 -83 181q0 107 77 176q67 61 161 61h322v-120h-62v-780h-123v780h-42v-780z" />
    <glyph glyph-name="glyph195" unicode="&#xb7;" horiz-adv-x="265" 
d="M48 312q0 36 28 60q24 21 56 21q37 0 62 -26q22 -23 22 -55q0 -36 -28 -60q-24 -21 -56 -21q-37 0 -62 27q-22 23 -22 54z" />
    <glyph glyph-name="cedilla" unicode="&#xb8;" horiz-adv-x="476" 
d="M367 -67l-142 -167l-103 47l117 171z" />
    <glyph glyph-name="onesuperior" unicode="&#xb9;" horiz-adv-x="387" 
d="M260 406h-101v275l-38 -20l-49 79l113 61h75v-395z" />
    <glyph glyph-name="ordmasculine" unicode="&#xba;" horiz-adv-x="339" 
d="M170 683q69 0 114 -47q38 -41 38 -97q0 -65 -49 -108q-43 -37 -103 -37q-68 0 -113 48q-39 40 -39 97q0 65 50 108q43 36 102 36zM224 539q0 26 -14.5 42t-39.5 16q-24 0 -39 -16t-15 -42t15 -42t39 -16q25 0 39.5 16t14.5 42z" />
    <glyph glyph-name="guillemotright" unicode="&#xbb;" horiz-adv-x="534" 
d="M354 222l-123 156l97 76l185 -233l-185 -228l-97 77zM158 222l-123 156l97 77l185 -233l-185 -228l-97 76z" />
    <glyph glyph-name="onequarter" unicode="&#xbc;" horiz-adv-x="833" 
d="M696 363l-132 -198h43v64h101v-64h36v-90h-36v-75h-101v75h-169v75l174 261zM529 683l80 -46l-379 -654l-80 46zM231 271h-101v276l-38 -21l-49 79l113 61h75v-395z" />
    <glyph glyph-name="onehalf" unicode="&#xbd;" horiz-adv-x="833" 
d="M528 683l80 -46l-379 -654l-80 46zM230 271h-101v276l-38 -21l-49 79l113 61h75v-395zM487 0v73l142 149q35 37 35 63q0 30 -37 30q-23 0 -32.5 -11t-19.5 -47l-95 24q29 124 147 124q65 0 104 -38q33 -34 33 -84q0 -57 -46 -106l-82 -86h136v-91h-285z" />
    <glyph glyph-name="threequarters" unicode="&#xbe;" horiz-adv-x="833" 
d="M732 363l-132 -198h44v64h100v-64h37v-90h-37v-75h-100v75h-170v75l174 261zM587 683l80 -46l-379 -654l-79 46zM143 520h42q42 0 42 33t-38 33q-18 0 -29 -7t-31 -34l-83 44q30 47 62.5 67t79.5 20q64 0 104 -39q35 -34 35 -82q0 -41 -31 -74q22 -22 30.5 -41.5
t8.5 -45.5q0 -61 -48 -99q-41 -34 -100 -34q-36 0 -67.5 14t-49.5 37q-21 28 -33 76l96 24l2 -8q9 -30 20 -41.5t32 -11.5q22 0 34.5 12t12.5 32q0 39 -49 39h-42v86z" />
    <glyph glyph-name="questiondown" unicode="&#xbf;" horiz-adv-x="447" 
d="M315 298v-59q0 -51 -13 -78.5t-53 -60.5l-40 -33q-44 -37 -44 -75q0 -26 17 -40.5t47 -14.5q33 0 54.5 15t54.5 62l109 -87q-44 -72 -99 -102q-49 -26 -117 -26q-102 0 -161 61q-52 52 -52 132q0 50 20 88.5t67 82.5l45 41q12 11 15.5 18.5t3.5 23.5v52h146zM327 416
q0 -37 -28 -61q-24 -21 -56 -21q-38 0 -63 27q-22 23 -22 55q0 36 28 61q24 21 57 21q37 0 63 -27q21 -24 21 -55z" />
    <glyph glyph-name="Agrave" unicode="&#xc0;" horiz-adv-x="649" 
d="M451 147h-253l-51 -147h-156l249 667h170l249 -667h-157zM403 284l-79 225l-78 -225h157zM146 854l132 65l136 -175l-96 -51z" />
    <glyph glyph-name="Aacute" unicode="&#xc1;" horiz-adv-x="649" 
d="M500 854l-171 -161l-96 51l136 175zM451 147h-253l-51 -147h-156l249 667h170l249 -667h-157zM403 284l-79 225l-78 -225h157z" />
    <glyph glyph-name="Acircumflex" unicode="&#xc2;" horiz-adv-x="649" 
d="M451 147h-253l-51 -147h-156l249 667h170l249 -667h-157zM403 284l-79 225l-78 -225h157zM238 694l-108 50l153 155h84l152 -155l-108 -50l-86 78z" />
    <glyph glyph-name="Atilde" unicode="&#xc3;" horiz-adv-x="649" 
d="M451 147h-253l-51 -147h-156l249 667h170l249 -667h-157zM403 284l-79 225l-78 -225h157zM376 881l118 -25q-4 -57 -21 -84q-12 -21 -36.5 -33.5t-53.5 -12.5q-40 0 -81 20q-11 6 -18 6q-5 0 -7.5 -6t-5.5 -28l-116 25q6 55 24 84q13 21 36.5 33.5t48.5 12.5q41 0 85 -23
q10 -6 17 -6q5 0 6.5 6.5t3.5 30.5z" />
    <glyph glyph-name="Adieresis" unicode="&#xc4;" horiz-adv-x="649" 
d="M451 147h-253l-51 -147h-156l249 667h170l249 -667h-157zM403 284l-79 225l-78 -225h157zM340 800q0 34 26 56q23 20 53 20q35 0 58 -25q21 -22 21 -51q0 -34 -26 -57q-23 -20 -53 -20q-35 0 -58 25q-21 22 -21 52zM152 800q0 34 26 56q22 20 53 20q35 0 58 -25
q20 -22 20 -51q0 -34 -26 -57q-22 -20 -53 -20q-34 0 -58 25q-20 22 -20 52z" />
    <glyph glyph-name="Aring" unicode="&#xc5;" horiz-adv-x="649" 
d="M204 791q0 53 40 88q34 31 81 31q54 0 90 -39q31 -34 31 -80q0 -53 -40 -89q-35 -30 -81 -30q-54 0 -90 39q-31 34 -31 80zM273 791q0 -22 15 -37t37 -15q21 0 36 15t15 37q0 21 -15 36t-36 15q-22 0 -37 -15t-15 -36zM451 147h-253l-51 -147h-156l249 667h170l249 -667
h-157zM403 284l-79 225l-78 -225h157z" />
    <glyph glyph-name="AE" unicode="&#xc6;" horiz-adv-x="851" 
d="M420 147h-187l-76 -147h-166l353 667h468v-136h-245v-125h218v-137h-218v-132h254v-137h-401v147zM420 284v215h-3l-112 -215h115z" />
    <glyph glyph-name="Ccedilla" unicode="&#xc7;" horiz-adv-x="674" 
d="M548 455q-44 50 -82 70t-86 20q-92 0 -153 -69q-52 -60 -52 -143q0 -94 68 -157q58 -55 138 -55q48 0 86.5 21t83.5 71l105 -98q-70 -74 -139 -105q-61 -27 -134 -27q-97 0 -180 48q-81 46 -128 125q-49 82 -49 177t49 177q47 79 128 126q83 47 180 47q78 0 141.5 -30.5
t128.5 -99.5zM465 -67l-142 -167l-103 47l117 171z" />
    <glyph glyph-name="Egrave" unicode="&#xc8;" horiz-adv-x="495" 
d="M456 667v-136h-245v-125h218v-137h-218v-132h254v-137h-401v667h392zM94 854l132 65l136 -175l-96 -51z" />
    <glyph glyph-name="Eacute" unicode="&#xc9;" horiz-adv-x="495" 
d="M456 667v-136h-245v-125h218v-137h-218v-132h254v-137h-401v667h392zM435 854l-172 -161l-96 51l137 175z" />
    <glyph glyph-name="Ecircumflex" unicode="&#xca;" horiz-adv-x="495" 
d="M456 667v-136h-245v-125h218v-137h-218v-132h254v-137h-401v667h392zM178 694l-108 50l153 155h84l152 -155l-108 -50l-86 78z" />
    <glyph glyph-name="Edieresis" unicode="&#xcb;" horiz-adv-x="495" 
d="M456 667v-136h-245v-125h218v-137h-218v-132h254v-137h-401v667h392zM280 800q0 34 26 56q22 20 53 20q35 0 58 -25q20 -22 20 -51q0 -34 -26 -57q-22 -20 -52 -20q-35 0 -59 25q-20 22 -20 52zM92 800q0 34 26 56q22 20 52 20q35 0 59 -25q20 -22 20 -51q0 -34 -26 -57
q-23 -20 -53 -20q-35 0 -58 25q-20 22 -20 52z" />
    <glyph glyph-name="Igrave" unicode="&#xcc;" horiz-adv-x="276" 
d="M212 667v-667h-148v667h148zM-49 854l131 65l137 -175l-96 -51z" />
    <glyph glyph-name="Iacute" unicode="&#xcd;" horiz-adv-x="276" 
d="M212 667v-667h-148v667h148zM318 854l-172 -161l-96 51l137 175z" />
    <glyph glyph-name="Icircumflex" unicode="&#xce;" horiz-adv-x="276" 
d="M212 667v-667h-148v667h148zM52 694l-108 50l152 155h85l152 -155l-108 -50l-87 78z" />
    <glyph glyph-name="Idieresis" unicode="&#xcf;" horiz-adv-x="276" 
d="M212 667v-667h-148v667h148zM-27 800q0 34 26 56q22 20 53 20q35 0 58 -25q20 -22 20 -51q0 -34 -26 -57q-22 -20 -53 -20q-34 0 -58 25q-20 22 -20 52zM146 800q0 34 26 56q22 20 53 20q35 0 58 -25q20 -22 20 -51q0 -34 -26 -57q-22 -20 -52 -20q-35 0 -59 25
q-20 22 -20 52z" />
    <glyph glyph-name="Eth" unicode="&#xd0;" horiz-adv-x="634" 
d="M77 424v242h164q178 0 279 -102q88 -89 88 -230q0 -163 -113 -255q-99 -79 -254 -79h-164v289h-61v135h61zM224 424h143v-135h-143v-152h20q107 0 165 59q50 52 50 136q0 99 -65 151q-56 46 -150 46h-20v-105z" />
    <glyph glyph-name="Ntilde" unicode="&#xd1;" horiz-adv-x="708" 
d="M64 0v667h124l308 -405v405h148v-667h-124l-308 405v-405h-148zM412 881l118 -25q-4 -57 -21 -84q-12 -21 -36.5 -33.5t-53.5 -12.5q-40 0 -81 20q-11 6 -18 6q-5 0 -7.5 -6t-5.5 -28l-116 25q6 55 24 84q13 21 36.5 33.5t48.5 12.5q41 0 85 -23q10 -6 17 -6q5 0 6.5 6.5
t3.5 30.5z" />
    <glyph glyph-name="Ograve" unicode="&#xd2;" horiz-adv-x="763" 
d="M204 854l132 65l136 -175l-96 -51zM26 333q0 94 49 176q47 80 128 126q83 48 178 48q96 0 179 -48q81 -47 128 -126q49 -82 49 -176t-49 -176q-48 -79 -128 -126q-83 -48 -179 -48q-95 0 -178 48q-81 47 -128 126q-49 82 -49 176zM175 333q0 -94 68 -157q59 -55 138 -55
q92 0 154 70q53 61 53 142q0 95 -68 158q-59 54 -139 54q-92 0 -153 -70q-53 -60 -53 -142z" />
    <glyph glyph-name="Oacute" unicode="&#xd3;" horiz-adv-x="763" 
d="M26 333q0 94 49 176q47 80 128 126q83 48 178 48q96 0 179 -48q81 -47 128 -126q49 -82 49 -176t-49 -176q-48 -79 -128 -126q-83 -48 -179 -48q-95 0 -178 48q-81 47 -128 126q-49 82 -49 176zM175 333q0 -94 68 -157q59 -55 138 -55q92 0 154 70q53 61 53 142
q0 95 -68 158q-59 54 -139 54q-92 0 -153 -70q-53 -60 -53 -142zM559 854l-172 -161l-96 51l137 175z" />
    <glyph glyph-name="Ocircumflex" unicode="&#xd4;" horiz-adv-x="763" 
d="M26 333q0 94 49 176q47 80 128 126q83 48 178 48q96 0 179 -48q81 -47 128 -126q49 -82 49 -176t-49 -176q-48 -79 -128 -126q-83 -48 -179 -48q-95 0 -178 48q-81 47 -128 126q-49 82 -49 176zM175 333q0 -94 68 -157q59 -55 138 -55q92 0 154 70q53 61 53 142
q0 95 -68 158q-59 54 -139 54q-92 0 -153 -70q-53 -60 -53 -142zM295 694l-108 50l152 155h85l152 -155l-108 -50l-87 78z" />
    <glyph glyph-name="Otilde" unicode="&#xd5;" horiz-adv-x="763" 
d="M26 333q0 94 49 176q47 80 128 126q83 48 178 48q96 0 179 -48q81 -47 128 -126q49 -82 49 -176t-49 -176q-48 -79 -128 -126q-83 -48 -179 -48q-95 0 -178 48q-81 47 -128 126q-49 82 -49 176zM175 333q0 -94 68 -157q59 -55 138 -55q92 0 154 70q53 61 53 142
q0 95 -68 158q-59 54 -139 54q-92 0 -153 -70q-53 -60 -53 -142zM433 881l118 -25q-4 -56 -21 -84q-13 -21 -37 -33.5t-53 -12.5q-40 0 -81 20q-12 6 -19 6q-5 0 -7 -5.5t-6 -28.5l-115 25q5 55 24 84q13 21 36.5 33.5t48.5 12.5q41 0 85 -23q10 -6 16 -6q5 0 7 7t4 30z" />
    <glyph glyph-name="Odieresis" unicode="&#xd6;" horiz-adv-x="763" 
d="M26 333q0 94 49 176q47 80 128 126q83 48 178 48q96 0 179 -48q81 -47 128 -126q49 -82 49 -176t-49 -176q-48 -79 -128 -126q-83 -48 -179 -48q-95 0 -178 48q-81 47 -128 126q-49 82 -49 176zM175 333q0 -94 68 -157q59 -55 138 -55q92 0 154 70q53 61 53 142
q0 95 -68 158q-59 54 -139 54q-92 0 -153 -70q-53 -60 -53 -142zM397 800q0 34 26 56q22 20 53 20q35 0 58 -25q20 -22 20 -51q0 -34 -26 -57q-22 -20 -52 -20q-35 0 -59 25q-20 22 -20 52zM209 800q0 34 25 56q23 20 53 20q35 0 59 -25q20 -22 20 -51q0 -34 -26 -57
q-23 -20 -53 -20q-35 0 -58 26q-20 21 -20 51z" />
    <glyph glyph-name="multiply" unicode="&#xd7;" horiz-adv-x="556" 
d="M186 312l-141 141l92 92l141 -141l141 141l92 -92l-141 -141l141 -141l-92 -92l-141 141l-141 -141l-92 92z" />
    <glyph glyph-name="Oslash" unicode="&#xd8;" horiz-adv-x="771" 
d="M732 592l-58 -56q67 -92 67 -203q0 -94 -49 -176q-47 -79 -128 -126q-83 -48 -179 -48q-118 0 -209 69l-57 -55l-81 78l58 56q-66 93 -66 201q0 95 49 177q47 80 128 126q83 48 180 48q109 0 208 -68l57 55zM568 432l-288 -280q50 -31 106 -31q91 0 153 70q53 61 53 142
q0 53 -24 99zM203 234l289 281q-49 30 -106 30q-93 0 -154 -69q-53 -61 -53 -143q0 -54 24 -99z" />
    <glyph glyph-name="Ugrave" unicode="&#xd9;" horiz-adv-x="645" 
d="M212 667v-408q0 -67 13 -90q12 -20 39.5 -34t57.5 -14t58 14t40 34q13 23 13 90v408h148v-426q0 -84 -30 -135q-36 -60 -103 -94q-59 -29 -126 -29q-77 0 -141 38q-56 33 -87 85q-30 51 -30 135v426h148zM145 854l131 65l137 -175l-97 -51z" />
    <glyph glyph-name="Uacute" unicode="&#xda;" horiz-adv-x="645" 
d="M212 667v-408q0 -67 13 -90q12 -20 39.5 -34t57.5 -14t58 14t40 34q13 23 13 90v408h148v-426q0 -84 -30 -135q-36 -60 -103 -94q-59 -29 -126 -29q-77 0 -141 38q-56 33 -87 85q-30 51 -30 135v426h148zM500 854l-172 -161l-96 51l137 175z" />
    <glyph glyph-name="Ucircumflex" unicode="&#xdb;" horiz-adv-x="645" 
d="M212 667v-408q0 -67 13 -90q12 -20 39.5 -34t57.5 -14t58 14t40 34q13 23 13 90v408h148v-426q0 -84 -30 -135q-36 -60 -103 -94q-59 -29 -126 -29q-77 0 -141 38q-56 33 -87 85q-30 51 -30 135v426h148zM236 694l-108 50l152 155h85l152 -155l-108 -50l-87 78z" />
    <glyph glyph-name="Udieresis" unicode="&#xdc;" horiz-adv-x="645" 
d="M212 667v-408q0 -67 13 -90q12 -20 39.5 -34t57.5 -14t58 14t40 34q13 23 13 90v408h148v-426q0 -84 -30 -135q-36 -60 -103 -94q-59 -29 -126 -29q-77 0 -141 38q-56 33 -87 85q-30 51 -30 135v426h148zM338 800q0 34 26 56q22 20 53 20q35 0 58 -25q20 -22 20 -51
q0 -34 -26 -57q-22 -20 -53 -20q-34 0 -58 25q-20 22 -20 52zM150 800q0 34 25 56q23 20 53 20q35 0 58 -25q21 -22 21 -51q0 -34 -26 -57q-23 -20 -53 -20q-35 0 -58 25q-20 22 -20 52z" />
    <glyph glyph-name="Yacute" unicode="&#xdd;" horiz-adv-x="565" 
d="M208 275l-224 392h166l132 -239l133 239h165l-224 -392v-275h-148v275zM460 854l-172 -161l-96 51l137 175z" />
    <glyph glyph-name="Thorn" unicode="&#xde;" horiz-adv-x="482" 
d="M212 586h16q93 0 146 -30q51 -29 79 -84q24 -47 24 -103q0 -64 -31 -117q-28 -45 -72 -71q-53 -30 -146 -30h-16v-151h-148v667h148v-81zM211 450v-164h25q52 0 75 19.5t23 62.5q0 44 -23 63t-75 19h-25z" />
    <glyph glyph-name="germandbls" unicode="&#xdf;" horiz-adv-x="534" 
d="M218 0v129h51q45 0 71 27q22 23 22 59q0 77 -95 77h-29v127h29q52 0 52 64q0 36 -17 55t-48 19t-48 -19.5t-17 -54.5v-483h-142v483q0 93 65 150q56 50 137 50q98 0 157 -62q52 -54 52 -135q0 -33 -8.5 -57t-29.5 -53q85 -62 85 -165q0 -99 -76 -159q-65 -52 -163 -52
h-48z" />
    <glyph glyph-name="agrave" unicode="&#xe0;" horiz-adv-x="543" 
d="M496 0h-142v22q-54 -39 -111 -39q-100 0 -166 79q-58 68 -58 160q0 106 74 177q64 61 150 61q57 0 111 -38v21h142v-443zM260 332q-47 0 -74 -34q-24 -30 -24 -76q0 -53 30 -84q27 -27 68 -27q46 0 72 35q24 30 24 76q0 53 -30 84q-26 26 -66 26zM81 645l131 65l136 -174
l-96 -51z" />
    <glyph glyph-name="aacute" unicode="&#xe1;" horiz-adv-x="543" 
d="M441 645l-172 -160l-96 50l137 175zM496 0h-142v22q-54 -39 -111 -39q-100 0 -166 79q-58 68 -58 160q0 106 74 177q64 61 150 61q57 0 111 -38v21h142v-443zM260 332q-47 0 -74 -34q-24 -30 -24 -76q0 -53 30 -84q27 -27 68 -27q46 0 72 35q24 30 24 76q0 53 -30 84
q-26 26 -66 26z" />
    <glyph glyph-name="acircumflex" unicode="&#xe2;" horiz-adv-x="543" 
d="M496 0h-142v22q-54 -39 -111 -39q-100 0 -166 79q-58 68 -58 160q0 106 74 177q64 61 150 61q57 0 111 -38v21h142v-443zM260 332q-47 0 -74 -34q-24 -30 -24 -76q0 -53 30 -84q27 -27 68 -27q46 0 72 35q24 30 24 76q0 53 -30 84q-26 26 -66 26zM344 485l-86 82l-87 -82
l-107 50l152 155h84l151 -155z" />
    <glyph glyph-name="atilde" unicode="&#xe3;" horiz-adv-x="543" 
d="M496 0h-142v22q-54 -39 -111 -39q-100 0 -166 79q-58 68 -58 160q0 106 74 177q64 61 150 61q57 0 111 -38v21h142v-443zM260 332q-47 0 -74 -34q-24 -30 -24 -76q0 -53 30 -84q27 -27 68 -27q46 0 72 35q24 30 24 76q0 53 -30 84q-26 26 -66 26zM309 673l118 -26
q-4 -56 -21 -84q-12 -21 -36.5 -33.5t-53.5 -12.5q-40 0 -81 21q-11 5 -19 5q-4 0 -6.5 -6t-5.5 -28l-116 26q6 55 24 84q13 20 36.5 32.5t48.5 12.5q41 0 85 -23q10 -5 16 -5t7.5 6.5t3.5 30.5z" />
    <glyph glyph-name="adieresis" unicode="&#xe4;" horiz-adv-x="543" 
d="M496 0h-142v22q-54 -39 -111 -39q-100 0 -166 79q-58 68 -58 160q0 106 74 177q64 61 150 61q57 0 111 -38v21h142v-443zM260 332q-47 0 -74 -34q-24 -30 -24 -76q0 -53 30 -84q27 -27 68 -27q46 0 72 35q24 30 24 76q0 53 -30 84q-26 26 -66 26zM282 596q0 34 26 56
q22 20 52 20q35 0 59 -25q20 -22 20 -51q0 -34 -26 -57q-23 -19 -53 -19q-35 0 -58 25q-20 21 -20 51zM93 596q0 34 26 56q22 20 53 20q35 0 58 -25q20 -22 20 -51q0 -34 -26 -57q-22 -19 -52 -19q-35 0 -59 25q-20 22 -20 51z" />
    <glyph glyph-name="aring" unicode="&#xe5;" horiz-adv-x="543" 
d="M148 591q0 52 40 88q35 31 81 31q54 0 90 -39q31 -34 31 -80q0 -53 -40 -89q-34 -30 -81 -30q-53 0 -89 39q-32 34 -32 80zM218 591q0 -22 15 -37t36 -15q22 0 37 15t15 37q0 21 -15 36t-37 15q-21 0 -36 -15t-15 -36zM496 0h-142v22q-54 -39 -111 -39q-100 0 -166 79
q-58 68 -58 160q0 106 74 177q64 61 150 61q57 0 111 -38v21h142v-443zM260 332q-47 0 -74 -34q-24 -30 -24 -76q0 -53 30 -84q27 -27 68 -27q46 0 72 35q24 30 24 76q0 53 -30 84q-26 26 -66 26z" />
    <glyph glyph-name="ae" unicode="&#xe6;" horiz-adv-x="786" 
d="M395 406q64 54 145 54q106 0 171 -79q57 -68 57 -168q0 -13 -2 -38h-309q13 -35 33.5 -51.5t54.5 -16.5q55 0 84 46l127 -50q-78 -120 -211 -120q-84 0 -147 52q-58 -52 -161 -52q-105 0 -165 49q-53 43 -53 108q0 72 61 109q54 33 143 33h82q-19 55 -74 55
q-62 0 -133 -44l-74 92q57 41 106 58t107 17q103 0 158 -54zM627 269q-12 36 -32 52t-53 16q-66 0 -84 -68h169zM312 189h-76q-77 0 -77 -41q0 -20 20 -31.5t56 -11.5q77 0 77 50v34z" />
    <glyph glyph-name="ccedilla" unicode="&#xe7;" horiz-adv-x="457" 
d="M343 -67l-142 -167l-103 47l117 171zM448 376l-87 -96q-29 30 -50.5 41t-48.5 11q-49 0 -76 -34q-24 -29 -24 -76q0 -54 31 -85q26 -26 69 -26q29 0 52 12.5t49 43.5l88 -97q-83 -87 -189 -87q-110 0 -181 78q-62 67 -62 161q0 108 79 178q68 60 163 60q54 0 98.5 -20
t88.5 -64z" />
    <glyph glyph-name="egrave" unicode="&#xe8;" horiz-adv-x="494" 
d="M75 644l131 66l137 -175l-96 -51zM463 103q-77 -120 -209 -120q-107 0 -176 78q-59 67 -59 161q0 107 75 177q65 61 155 61q105 0 170 -79q56 -69 56 -169q0 -13 -1 -37h-309q24 -68 87 -68q55 0 84 46zM334 269q-12 36 -31.5 52t-52.5 16q-66 0 -85 -68h169z" />
    <glyph glyph-name="eacute" unicode="&#xe9;" horiz-adv-x="494" 
d="M419 644l-172 -160l-96 51l137 175zM463 103q-77 -120 -209 -120q-107 0 -176 78q-59 67 -59 161q0 107 75 177q65 61 155 61q105 0 170 -79q56 -69 56 -169q0 -13 -1 -37h-309q24 -68 87 -68q55 0 84 46zM334 269q-12 36 -31.5 52t-52.5 16q-66 0 -85 -68h169z" />
    <glyph glyph-name="ecircumflex" unicode="&#xea;" horiz-adv-x="494" 
d="M463 103q-77 -120 -209 -120q-107 0 -176 78q-59 67 -59 161q0 107 75 177q65 61 155 61q105 0 170 -79q56 -69 56 -169q0 -13 -1 -37h-309q24 -68 87 -68q55 0 84 46zM334 269q-12 36 -31.5 52t-52.5 16q-66 0 -85 -68h169zM333 485l-86 82l-87 -82l-107 50l152 155h84
l151 -155z" />
    <glyph glyph-name="edieresis" unicode="&#xeb;" horiz-adv-x="494" 
d="M463 103q-77 -120 -209 -120q-107 0 -176 78q-59 67 -59 161q0 107 75 177q65 61 155 61q105 0 170 -79q56 -69 56 -169q0 -13 -1 -37h-309q24 -68 87 -68q55 0 84 46zM334 269q-12 36 -31.5 52t-52.5 16q-66 0 -85 -68h169zM263 596q0 34 25 56q23 20 53 20q35 0 59 -25
q20 -22 20 -51q0 -34 -26 -57q-23 -19 -53 -19q-35 0 -58 25q-20 22 -20 51zM74 596q0 34 26 56q22 20 53 20q35 0 58 -25q20 -22 20 -51q0 -34 -26 -57q-22 -19 -52 -19q-35 0 -59 25q-20 21 -20 51z" />
    <glyph glyph-name="igrave" unicode="&#xec;" horiz-adv-x="238" 
d="M-64 644l131 66l137 -175l-96 -51zM190 443v-443h-142v443h142z" />
    <glyph glyph-name="iacute" unicode="&#xed;" horiz-adv-x="238" 
d="M302 644l-172 -160l-96 51l137 175zM190 443v-443h-142v443h142z" />
    <glyph glyph-name="icircumflex" unicode="&#xee;" horiz-adv-x="238" 
d="M190 443v-443h-142v443h142zM205 485l-86 82l-87 -82l-107 50l152 155h84l151 -155z" />
    <glyph glyph-name="idieresis" unicode="&#xef;" horiz-adv-x="238" 
d="M190 443v-443h-142v443h142zM126 596q0 34 26 56q22 20 53 20q35 0 58 -25q20 -22 20 -51q0 -34 -26 -57q-22 -19 -52 -19q-35 0 -59 25q-20 22 -20 51zM-47 596q0 34 26 56q22 20 53 20q35 0 58 -25q20 -22 20 -51q0 -34 -26 -57q-22 -19 -53 -19q-34 0 -58 25
q-20 21 -20 51z" />
    <glyph glyph-name="eth" unicode="&#xf0;" horiz-adv-x="523" 
d="M359 570q144 -119 144 -319q0 -100 -42 -164q-33 -52 -91 -79q-51 -25 -108 -25q-108 0 -179 78q-62 67 -62 158q0 77 45 135q40 51 103 73q37 13 93 16q-19 27 -48 48l-100 -55l-51 65l55 29q-16 4 -44 8l19 129q71 -9 109.5 -19t78.5 -28l78 42l51 -64zM360 222
q0 53 -30 84q-27 26 -68 26q-47 0 -74 -34q-24 -30 -24 -76q0 -53 31 -84q26 -27 67 -27q47 0 74 35q24 30 24 76z" />
    <glyph glyph-name="ntilde" unicode="&#xf1;" horiz-adv-x="511" 
d="M189 426q44 34 98 34q45 0 85 -23t63 -62q28 -49 28 -135v-240h-142v233q0 57 -13 78t-48 21q-43 0 -59 -28q-12 -21 -12 -80v-224h-142v443h142v-17zM310 673l118 -26q-5 -56 -21 -84q-13 -21 -37.5 -33.5t-52.5 -12.5q-40 0 -81 21q-12 5 -19 5q-5 0 -7 -6t-6 -28
l-115 26q5 55 24 84q13 20 36.5 32.5t48.5 12.5q41 0 85 -23q10 -5 16 -5q5 0 7 6.5t4 30.5z" />
    <glyph glyph-name="ograve" unicode="&#xf2;" horiz-adv-x="520" 
d="M84 645l130 65l136 -174l-95 -51zM260 460q109 0 180 -78q61 -67 61 -160q0 -108 -79 -178q-68 -61 -162 -61q-109 0 -180 78q-61 68 -61 161q0 107 79 177q68 61 162 61zM260 332q-47 0 -74 -34q-24 -30 -24 -76q0 -53 30 -84q27 -27 68 -27q47 0 74 35q24 30 24 76
q0 53 -30 84q-27 26 -68 26z" />
    <glyph glyph-name="oacute" unicode="&#xf3;" horiz-adv-x="520" 
d="M436 645l-171 -160l-95 51l136 174zM260 460q109 0 180 -78q61 -67 61 -160q0 -108 -79 -178q-68 -61 -162 -61q-109 0 -180 78q-61 68 -61 161q0 107 79 177q68 61 162 61zM260 332q-47 0 -74 -34q-24 -30 -24 -76q0 -53 30 -84q27 -27 68 -27q47 0 74 35q24 30 24 76
q0 53 -30 84q-27 26 -68 26z" />
    <glyph glyph-name="ocircumflex" unicode="&#xf4;" horiz-adv-x="520" 
d="M346 485l-86 82l-86 -82l-108 50l152 155h84l152 -155zM260 460q109 0 180 -78q61 -67 61 -160q0 -108 -79 -178q-68 -61 -162 -61q-109 0 -180 78q-61 68 -61 161q0 107 79 177q68 61 162 61zM260 332q-47 0 -74 -34q-24 -30 -24 -76q0 -53 30 -84q27 -27 68 -27
q47 0 74 35q24 30 24 76q0 53 -30 84q-27 26 -68 26z" />
    <glyph glyph-name="otilde" unicode="&#xf5;" horiz-adv-x="520" 
d="M311 673l118 -26q-4 -56 -20 -84q-13 -21 -37.5 -33.5t-53.5 -12.5q-40 0 -81 21q-11 5 -18 5q-5 0 -7.5 -6t-5.5 -28l-115 26q5 55 24 84q13 20 36 32.5t48 12.5q41 0 86 -23q10 -5 16 -5q5 0 7 6.5t3 30.5zM260 460q109 0 180 -78q61 -67 61 -160q0 -108 -79 -178
q-68 -61 -162 -61q-109 0 -180 78q-61 68 -61 161q0 107 79 177q68 61 162 61zM260 332q-47 0 -74 -34q-24 -30 -24 -76q0 -53 30 -84q27 -27 68 -27q47 0 74 35q24 30 24 76q0 53 -30 84q-27 26 -68 26z" />
    <glyph glyph-name="odieresis" unicode="&#xf6;" horiz-adv-x="520" 
d="M260 460q109 0 180 -78q61 -67 61 -160q0 -108 -79 -178q-68 -61 -162 -61q-109 0 -180 78q-61 68 -61 161q0 107 79 177q68 61 162 61zM260 332q-47 0 -74 -34q-24 -30 -24 -76q0 -53 30 -84q27 -27 68 -27q47 0 74 35q24 30 24 76q0 53 -30 84q-27 26 -68 26zM275 596
q0 34 26 56q22 20 53 20q35 0 58 -25q20 -22 20 -51q0 -34 -26 -57q-22 -19 -52 -19q-35 0 -59 25q-20 21 -20 51zM87 596q0 34 26 56q22 20 52 20q35 0 59 -25q20 -22 20 -51q0 -34 -26 -57q-23 -19 -53 -19q-35 0 -58 25q-20 21 -20 51z" />
    <glyph glyph-name="divide" unicode="&#xf7;" horiz-adv-x="556" 
d="M525 377v-130h-495v130h495zM277 579q39 0 65 -29q22 -25 22 -58q0 -38 -28 -64q-25 -22 -58 -22q-39 0 -65 28q-22 25 -22 58q0 38 29 64q24 23 57 23zM278 218q38 0 64 -28q22 -25 22 -58q0 -39 -28 -65q-25 -22 -58 -22q-39 0 -65 29q-22 25 -22 58q0 38 29 64
q24 22 58 22z" />
    <glyph glyph-name="oslash" unicode="&#xf8;" horiz-adv-x="533" 
d="M61 96q-35 59 -35 125q0 108 79 178q68 61 162 61q79 0 140 -43l31 30l70 -68l-35 -32q35 -59 35 -125q0 -108 -79 -178q-68 -61 -163 -61q-74 0 -139 43l-31 -29l-70 67zM171 198l136 127q-20 8 -41 8q-47 0 -74 -34q-24 -31 -24 -77q0 -14 3 -24zM363 245l-136 -127
q19 -8 40 -8q47 0 75 35q24 31 24 78q0 14 -3 22z" />
    <glyph glyph-name="ugrave" unicode="&#xf9;" horiz-adv-x="511" 
d="M80 644l131 66l137 -175l-96 -51zM321 18q-44 -35 -97 -35q-46 0 -86 23t-63 62q-28 49 -28 135v240h142v-233q0 -56 13 -77.5t49 -21.5q42 0 58 28q12 21 12 80v224h142v-443h-142v18z" />
    <glyph glyph-name="uacute" unicode="&#xfa;" horiz-adv-x="511" 
d="M427 644l-171 -160l-96 51l136 175zM321 18q-44 -35 -97 -35q-46 0 -86 23t-63 62q-28 49 -28 135v240h142v-233q0 -56 13 -77.5t49 -21.5q42 0 58 28q12 21 12 80v224h142v-443h-142v18z" />
    <glyph glyph-name="ucircumflex" unicode="&#xfb;" horiz-adv-x="511" 
d="M321 18q-44 -35 -97 -35q-46 0 -86 23t-63 62q-28 49 -28 135v240h142v-233q0 -56 13 -77.5t49 -21.5q42 0 58 28q12 21 12 80v224h142v-443h-142v18zM342 485l-87 82l-86 -82l-108 50l152 155h84l152 -155z" />
    <glyph glyph-name="udieresis" unicode="&#xfc;" horiz-adv-x="511" 
d="M321 18q-44 -35 -97 -35q-46 0 -86 23t-63 62q-28 49 -28 135v240h142v-233q0 -56 13 -77.5t49 -21.5q42 0 58 28q12 21 12 80v224h142v-443h-142v18zM271 596q0 34 26 56q22 20 52 20q35 0 59 -25q20 -22 20 -51q0 -34 -26 -57q-22 -19 -53 -19q-35 0 -58 25
q-20 21 -20 51zM82 596q0 34 26 56q23 20 53 20q35 0 58 -25q20 -22 20 -51q0 -34 -25 -57q-23 -19 -53 -19q-35 0 -58 25q-21 21 -21 51z" />
    <glyph glyph-name="yacute" unicode="&#xfd;" horiz-adv-x="475" 
d="M153 24l-168 419h150l96 -245l110 245h150l-303 -676h-150zM412 644l-171 -160l-96 51l136 175z" />
    <glyph glyph-name="thorn" unicode="&#xfe;" horiz-adv-x="544" 
d="M48 667h142v-245q54 38 111 38q100 0 167 -79q57 -68 57 -160q0 -106 -74 -176q-63 -62 -150 -62q-57 0 -111 39v-255h-142v900zM285 111q46 0 74 35q23 29 23 75q0 53 -30 84q-27 27 -67 27q-46 0 -73 -34q-23 -30 -23 -76q0 -54 30 -84q25 -27 66 -27z" />
    <glyph glyph-name="ydieresis" unicode="&#xff;" horiz-adv-x="475" 
d="M153 24l-168 419h150l96 -245l110 245h150l-303 -676h-150zM253 596q0 34 26 56q23 20 53 20q35 0 58 -25q21 -22 21 -51q0 -34 -26 -57q-23 -19 -53 -19q-35 0 -58 25q-21 21 -21 51zM65 596q0 34 26 56q22 20 53 20q35 0 58 -25q20 -22 20 -51q0 -34 -26 -57
q-22 -19 -53 -19q-34 0 -58 25q-20 22 -20 51z" />
    <glyph glyph-name="Amacron" unicode="&#x100;" horiz-adv-x="649" 
d="M451 147h-253l-51 -147h-156l249 667h170l249 -667h-157zM403 284l-79 225l-78 -225h157zM157 858h336v-117h-336v117z" />
    <glyph glyph-name="amacron" unicode="&#x101;" horiz-adv-x="543" 
d="M496 0h-142v22q-54 -39 -111 -39q-100 0 -166 79q-58 68 -58 160q0 106 74 177q64 61 150 61q57 0 111 -38v21h142v-443zM260 332q-47 0 -74 -34q-24 -30 -24 -76q0 -53 30 -84q27 -27 68 -27q46 0 72 35q24 30 24 76q0 53 -30 84q-26 26 -66 26zM102 649h336v-117h-336
v117z" />
    <glyph glyph-name="Abreve" unicode="&#x102;" horiz-adv-x="649" 
d="M451 147h-253l-51 -147h-156l249 667h170l249 -667h-157zM403 284l-79 225l-78 -225h157zM160 878l122 9q3 -49 10 -59q10 -14 30 -14q23 0 32 17q7 12 13 56l123 -9q-6 -49 -8.5 -60.5t-11.5 -28.5q-22 -42 -60.5 -65.5t-86.5 -23.5q-58 0 -102 32q-38 28 -54 71
q-6 19 -7 75z" />
    <glyph glyph-name="abreve" unicode="&#x103;" horiz-adv-x="543" 
d="M496 0h-142v22q-54 -39 -111 -39q-100 0 -166 79q-58 68 -58 160q0 106 74 177q64 61 150 61q57 0 111 -38v21h142v-443zM260 332q-47 0 -74 -34q-24 -30 -24 -76q0 -53 30 -84q27 -27 68 -27q46 0 72 35q24 30 24 76q0 53 -30 84q-26 26 -66 26zM95 669l123 9
q2 -47 9.5 -61.5t30.5 -14.5q35 0 41 47q2 15 4 29l123 -9q-6 -50 -8.5 -61t-11.5 -28q-22 -43 -60.5 -66t-87.5 -23q-58 0 -101 32q-39 27 -54 71q-6 18 -8 75z" />
    <glyph glyph-name="Aogonek" unicode="&#x104;" horiz-adv-x="649" 
d="M659 0q-29 -37 -29 -54q0 -6 8 -6q13 0 36 12l43 -101q-45 -15 -63.5 -19.5t-40.5 -4.5q-58 0 -93 33q-30 28 -30 69q0 32 26 71h-14l-51 147h-253l-51 -147h-156l249 667h170zM403 284l-79 225l-78 -225h157z" />
    <glyph glyph-name="aogonek" unicode="&#x105;" horiz-adv-x="543" 
d="M496 0l-3 -4q-25 -33 -25 -50q0 -6 7 -6q14 0 37 12l42 -101q-45 -15 -63.5 -19.5t-39.5 -4.5q-58 0 -93 33q-31 28 -31 69q0 32 27 71v22q-54 -39 -111 -39q-100 0 -166 79q-58 68 -58 160q0 106 74 177q64 61 150 61q57 0 111 -38v21h142v-443zM260 332q-47 0 -74 -34
q-24 -30 -24 -76q0 -53 30 -84q27 -27 68 -27q46 0 72 35q24 30 24 76q0 53 -30 84q-26 26 -66 26z" />
    <glyph glyph-name="Cacute" unicode="&#x106;" horiz-adv-x="674" 
d="M548 455q-44 50 -82 70t-86 20q-92 0 -153 -69q-52 -60 -52 -143q0 -94 68 -157q58 -55 138 -55q48 0 86.5 21t83.5 71l105 -98q-70 -74 -139 -105q-61 -27 -134 -27q-97 0 -180 48q-81 46 -128 125q-49 82 -49 177t49 177q47 79 128 126q83 47 180 47q78 0 141.5 -30.5
t128.5 -99.5zM557 854l-172 -161l-96 51l137 175z" />
    <glyph glyph-name="cacute" unicode="&#x107;" horiz-adv-x="457" 
d="M423 644l-171 -160l-96 51l136 175zM448 376l-87 -96q-29 30 -50.5 41t-48.5 11q-49 0 -76 -34q-24 -29 -24 -76q0 -54 31 -85q26 -26 69 -26q29 0 52 12.5t49 43.5l88 -97q-83 -87 -189 -87q-110 0 -181 78q-62 67 -62 161q0 108 79 178q68 60 163 60q54 0 98.5 -20
t88.5 -64z" />
    <glyph glyph-name="Ccircumflex" unicode="&#x108;" horiz-adv-x="674" 
d="M548 455q-44 50 -82 70t-86 20q-92 0 -153 -69q-52 -60 -52 -143q0 -94 68 -157q58 -55 138 -55q48 0 86.5 21t83.5 71l105 -98q-70 -74 -139 -105q-61 -27 -134 -27q-97 0 -180 48q-81 46 -128 125q-49 82 -49 177t49 177q47 79 128 126q83 47 180 47q78 0 141.5 -30.5
t128.5 -99.5zM284 694l-108 50l153 155h84l152 -155l-108 -50l-86 78z" />
    <glyph glyph-name="ccircumflex" unicode="&#x109;" horiz-adv-x="457" 
d="M448 376l-87 -96q-30 30 -50.5 41t-48.5 11q-49 0 -76 -34q-24 -29 -24 -76q0 -54 31 -85q27 -26 69 -26q30 0 52 12.5t49 43.5l88 -97q-47 -47 -90.5 -67t-98.5 -20q-110 0 -181 78q-62 67 -62 161q0 108 79 178q68 60 163 60q54 0 96 -19t91 -65zM335 485l-87 82
l-86 -82l-107 50l151 155h84l152 -155z" />
    <glyph glyph-name="Cdotaccent" unicode="&#x10a;" horiz-adv-x="674" 
d="M548 455q-44 50 -82 70t-86 20q-92 0 -153 -69q-52 -60 -52 -143q0 -94 68 -157q58 -55 138 -55q48 0 86.5 21t83.5 71l105 -98q-70 -74 -139 -105q-61 -27 -134 -27q-97 0 -180 48q-81 46 -128 125q-49 82 -49 177t49 177q47 79 128 126q83 47 180 47q78 0 141.5 -30.5
t128.5 -99.5zM294 800q0 36 28 61q24 21 57 21q38 0 63 -27q22 -24 22 -55q0 -37 -28 -61q-24 -22 -57 -22q-38 0 -63 28q-22 23 -22 55z" />
    <glyph glyph-name="cdotaccent" unicode="&#x10b;" horiz-adv-x="457" 
d="M448 376l-87 -96q-29 30 -50.5 41t-48.5 11q-49 0 -76 -34q-24 -29 -24 -76q0 -54 31 -85q26 -26 69 -26q29 0 52 12.5t49 43.5l88 -97q-83 -87 -189 -87q-110 0 -181 78q-62 67 -62 161q0 108 79 178q68 60 163 60q54 0 98.5 -20t88.5 -64zM167 596q0 36 28 61
q24 21 57 21q38 0 63 -27q21 -24 21 -55q0 -37 -28 -61q-24 -21 -56 -21q-38 0 -63 27q-22 23 -22 55z" />
    <glyph glyph-name="Ccaron" unicode="&#x10c;" horiz-adv-x="674" 
d="M548 455q-44 50 -82 70t-86 20q-92 0 -153 -69q-52 -60 -52 -143q0 -94 68 -157q58 -55 138 -55q48 0 86.5 21t83.5 71l105 -98q-70 -74 -139 -105q-61 -27 -134 -27q-97 0 -180 48q-81 46 -128 125q-49 82 -49 177t49 177q47 79 128 126q83 47 180 47q78 0 141.5 -30.5
t128.5 -99.5zM284 902l87 -77l86 77l108 -50l-152 -155h-84l-153 155z" />
    <glyph glyph-name="ccaron" unicode="&#x10d;" horiz-adv-x="455" 
d="M448 376l-87 -96q-29 30 -50.5 41t-48.5 11q-49 0 -76 -34q-24 -29 -24 -76q0 -54 31 -85q26 -26 69 -26q29 0 52 12.5t49 43.5l88 -97q-83 -87 -189 -87q-110 0 -181 78q-62 67 -62 161q0 108 79 178q68 60 163 60q54 0 98.5 -20t88.5 -64zM335 702l107 -50l-152 -154
h-84l-151 154l107 50l86 -82z" />
    <glyph glyph-name="Dcaron" unicode="&#x10e;" horiz-adv-x="621" 
d="M64 667h164q179 0 279 -103q88 -89 88 -230q0 -163 -113 -254q-98 -80 -254 -80h-164v667zM212 529v-392h19q107 0 165 59q51 52 51 137q0 98 -65 151q-57 45 -151 45h-19zM205 902l87 -77l86 77l108 -50l-152 -155h-84l-153 155z" />
    <glyph glyph-name="dcaron" unicode="&#x10f;" horiz-adv-x="696" 
d="M496 0h-142v22q-54 -39 -111 -39q-100 0 -166 79q-58 68 -58 160q0 106 74 177q64 61 150 61q57 0 111 -38v245h142v-667zM260 332q-48 0 -75 -34q-23 -30 -23 -78q0 -52 31 -82q26 -27 67 -27q46 0 72 35q23 30 23 76q0 53 -29 84q-26 26 -66 26zM585 709l133 -38
l-91 -195l-106 30z" />
    <glyph glyph-name="Dcroat" unicode="&#x110;" horiz-adv-x="634" 
d="M77 424v242h164q178 0 279 -102q88 -89 88 -230q0 -163 -113 -255q-99 -79 -254 -79h-164v289h-61v135h61zM224 424h143v-135h-143v-152h20q107 0 165 59q50 52 50 136q0 99 -65 151q-56 46 -150 46h-20v-105z" />
    <glyph glyph-name="dcroat" unicode="&#x111;" horiz-adv-x="547" 
d="M354 492h-107v122h107v53h142v-53h54v-122h-54v-492h-142v22q-54 -39 -111 -39q-100 0 -166 79q-58 68 -58 160q0 106 74 177q64 61 150 61q57 0 111 -38v70zM260 332q-48 0 -75 -34q-23 -30 -23 -78q0 -52 31 -82q26 -27 67 -27q46 0 72 35q23 30 23 76q0 53 -29 84
q-26 26 -66 26z" />
    <glyph glyph-name="Emacron" unicode="&#x112;" horiz-adv-x="495" 
d="M456 667v-136h-245v-125h218v-137h-218v-132h254v-137h-401v667h392zM97 858h336v-117h-336v117z" />
    <glyph glyph-name="emacron" unicode="&#x113;" horiz-adv-x="494" 
d="M463 103q-77 -120 -209 -120q-107 0 -176 78q-59 67 -59 161q0 107 75 177q65 61 155 61q105 0 170 -79q56 -69 56 -169q0 -13 -1 -37h-309q24 -68 87 -68q55 0 84 46zM334 269q-12 36 -31.5 52t-52.5 16q-66 0 -85 -68h169zM79 649h336v-117h-336v117z" />
    <glyph glyph-name="Ebreve" unicode="&#x114;" horiz-adv-x="495" 
d="M456 667v-136h-245v-125h218v-137h-218v-132h254v-137h-401v667h392zM99 878l123 9q2 -49 10 -59q10 -14 30 -14q23 0 32 17q7 12 13 56l123 -9q-6 -49 -8.5 -60.5t-11.5 -28.5q-22 -42 -60.5 -65.5t-87.5 -23.5q-58 0 -102 32q-38 28 -53 71q-6 19 -8 75z" />
    <glyph glyph-name="ebreve" unicode="&#x115;" horiz-adv-x="494" 
d="M463 103q-77 -120 -209 -120q-107 0 -176 78q-59 67 -59 161q0 107 75 177q65 61 155 61q105 0 170 -79q56 -69 56 -169q0 -13 -1 -37h-309q24 -68 87 -68q55 0 84 46zM334 269q-12 36 -31.5 52t-52.5 16q-66 0 -85 -68h169zM82 669l123 9q1 -47 8.5 -61.5t30.5 -14.5
q35 0 41 47q2 16 4 29l123 -9q-6 -50 -8.5 -61t-11.5 -28q-21 -43 -60 -66t-87 -23q-58 0 -102 32q-38 27 -53 71q-7 18 -8 75z" />
    <glyph glyph-name="Edotaccent" unicode="&#x116;" horiz-adv-x="495" 
d="M456 667v-136h-245v-125h218v-137h-218v-132h254v-137h-401v667h392zM180 800q0 36 28 61q24 21 56 21q38 0 63 -27q22 -24 22 -55q0 -37 -28 -61q-24 -22 -57 -22q-37 0 -62 28q-22 23 -22 55z" />
    <glyph glyph-name="edotaccent" unicode="&#x117;" horiz-adv-x="494" 
d="M463 103q-77 -120 -209 -120q-107 0 -176 78q-59 67 -59 161q0 107 75 177q65 61 155 61q105 0 170 -79q56 -69 56 -169q0 -13 -1 -37h-309q24 -68 87 -68q55 0 84 46zM334 269q-12 36 -31.5 52t-52.5 16q-66 0 -85 -68h169zM162 596q0 36 27 61q25 21 57 21q38 0 63 -27
q22 -24 22 -55q0 -37 -28 -61q-24 -21 -57 -21q-37 0 -63 27q-21 23 -21 55z" />
    <glyph glyph-name="Eogonek" unicode="&#x118;" horiz-adv-x="495" 
d="M465 0q-28 -37 -28 -54q0 -6 7 -6q14 0 36 12l43 -101q-45 -15 -63.5 -19.5t-39.5 -4.5q-58 0 -93 33q-31 28 -31 69q0 32 27 71h-259v667h392v-136h-245v-125h218v-137h-218v-132h254v-137z" />
    <glyph glyph-name="eogonek" unicode="&#x119;" horiz-adv-x="494" 
d="M316 -8q-22 -31 -22 -46q0 -6 8 -6q13 0 36 12l43 -101q-46 -15 -64 -19.5t-40 -4.5q-57 0 -93 32q-30 29 -30 70q0 31 23 66q-76 26 -120 94q-38 60 -38 133q0 107 75 177q65 61 155 61q105 0 170 -79q56 -69 56 -169q0 -13 -1 -37h-309q24 -68 87 -68q55 0 84 46
l127 -50q-58 -91 -147 -111zM334 269q-12 36 -31.5 52t-52.5 16q-66 0 -85 -68h169z" />
    <glyph glyph-name="Ecaron" unicode="&#x11a;" horiz-adv-x="495" 
d="M456 667v-136h-245v-125h218v-137h-218v-132h254v-137h-401v667h392zM178 902l87 -77l86 77l108 -50l-152 -155h-84l-153 155z" />
    <glyph glyph-name="ecaron" unicode="&#x11b;" horiz-adv-x="494" 
d="M463 103q-77 -120 -209 -120q-107 0 -176 78q-59 67 -59 161q0 107 75 177q65 61 155 61q105 0 170 -79q56 -69 56 -169q0 -13 -1 -37h-309q24 -68 87 -68q55 0 84 46zM334 269q-12 36 -31.5 52t-52.5 16q-66 0 -85 -68h169zM333 702l107 -50l-151 -154h-84l-152 154
l107 50l87 -82z" />
    <glyph glyph-name="Gcircumflex" unicode="&#x11c;" horiz-adv-x="729" 
d="M369 380h332v-70q0 -106 -43 -180t-121 -113q-68 -34 -151 -34q-98 0 -182 48q-82 46 -129 125q-49 81 -49 177t49 177q47 80 128 126q84 47 182 47q77 0 140 -28.5t134 -94.5l-106 -99q-47 47 -84 65.5t-85 18.5q-95 0 -156 -68q-53 -60 -53 -144q0 -96 68 -158
q60 -54 142 -54q67 0 110 36q37 32 52 88h-178v135zM283 694l-108 50l153 155h84l152 -155l-108 -50l-86 78z" />
    <glyph glyph-name="gcircumflex" unicode="&#x11d;" horiz-adv-x="543" 
d="M354 22q-31 -22 -55.5 -30.5t-55.5 -8.5q-100 0 -166 79q-58 68 -58 160q0 106 74 177q64 61 150 61q31 0 55.5 -8.5t55.5 -29.5v21h142v-452q0 -115 -77 -182q-66 -59 -167 -59q-68 0 -121.5 28.5t-107.5 92.5l96 91q6 -6 14 -17q54 -67 119 -67q52 0 79 33q23 30 23 80
v31zM260 332q-47 0 -74 -34q-24 -30 -24 -76q0 -53 30 -84q27 -27 67 -27q47 0 73 35q23 29 23 76q0 53 -29 84q-26 26 -66 26zM344 485l-86 82l-87 -82l-107 50l152 155h84l151 -155z" />
    <glyph glyph-name="Gbreve" unicode="&#x11e;" horiz-adv-x="729" 
d="M369 380h332v-70q0 -106 -43 -180t-121 -113q-68 -34 -151 -34q-98 0 -182 48q-82 46 -129 125q-49 81 -49 177t49 177q47 80 128 126q84 47 182 47q77 0 140 -28.5t134 -94.5l-106 -99q-47 47 -84 65.5t-85 18.5q-95 0 -156 -68q-53 -60 -53 -144q0 -96 68 -158
q60 -54 142 -54q67 0 110 36q37 32 52 88h-178v135zM224 878l123 9q2 -50 10 -59q10 -14 30 -14q23 0 32 17q6 12 13 56l122 -9q-6 -49 -8 -60t-11 -29q-22 -42 -60.5 -65.5t-87.5 -23.5q-58 0 -102 32q-38 28 -53 71q-6 18 -8 75z" />
    <glyph glyph-name="gbreve" unicode="&#x11f;" horiz-adv-x="543" 
d="M354 22q-31 -22 -55.5 -30.5t-55.5 -8.5q-100 0 -166 79q-58 68 -58 160q0 106 74 177q64 61 150 61q31 0 55.5 -8.5t55.5 -29.5v21h142v-452q0 -115 -77 -182q-66 -59 -167 -59q-68 0 -121.5 28.5t-107.5 92.5l96 91q6 -6 14 -17q54 -67 119 -67q52 0 79 33q23 30 23 80
v31zM260 332q-47 0 -74 -34q-24 -30 -24 -76q0 -53 30 -84q27 -27 67 -27q47 0 73 35q23 29 23 76q0 53 -29 84q-26 26 -66 26zM96 669l122 9q2 -47 9.5 -61.5t30.5 -14.5q35 0 41 47q2 15 4 29l123 -9q-6 -50 -8.5 -61t-11.5 -28q-22 -43 -60.5 -66t-87.5 -23
q-57 0 -101 32q-39 27 -54 71q-6 18 -7 75z" />
    <glyph glyph-name="Gdotaccent" unicode="&#x120;" horiz-adv-x="729" 
d="M369 380h332v-70q0 -106 -43 -180t-121 -113q-68 -34 -151 -34q-98 0 -182 48q-82 46 -129 125q-49 81 -49 177t49 177q47 80 128 126q84 47 182 47q77 0 140 -28.5t134 -94.5l-106 -99q-47 47 -84 65.5t-85 18.5q-95 0 -156 -68q-53 -60 -53 -144q0 -96 68 -158
q60 -54 142 -54q67 0 110 36q37 32 52 88h-178v135zM302 800q0 36 28 61q24 21 57 21q37 0 62 -27q22 -24 22 -55q0 -37 -28 -61q-24 -22 -57 -22q-37 0 -62 28q-22 23 -22 55z" />
    <glyph glyph-name="gdotaccent" unicode="&#x121;" horiz-adv-x="543" 
d="M354 22q-31 -22 -55.5 -30.5t-55.5 -8.5q-100 0 -166 79q-58 68 -58 160q0 106 74 177q64 61 150 61q31 0 55.5 -8.5t55.5 -29.5v21h142v-452q0 -115 -77 -182q-66 -59 -167 -59q-68 0 -121.5 28.5t-107.5 92.5l96 91q6 -6 14 -17q54 -67 119 -67q52 0 79 33q23 30 23 80
v31zM260 332q-47 0 -74 -34q-24 -30 -24 -76q0 -53 30 -84q27 -27 67 -27q47 0 73 35q23 29 23 76q0 53 -29 84q-26 26 -66 26zM173 596q0 36 28 61q24 21 57 21q37 0 63 -27q21 -24 21 -55q0 -37 -28 -61q-24 -21 -56 -21q-38 0 -63 27q-22 23 -22 55z" />
    <glyph glyph-name="Gcommaaccent" unicode="&#x122;" horiz-adv-x="729" 
d="M369 380h332v-70q0 -106 -43 -180t-121 -113q-68 -34 -151 -34q-98 0 -182 48q-82 46 -129 125q-49 81 -49 177t49 177q47 80 128 126q84 47 182 47q77 0 140 -28.5t134 -94.5l-106 -99q-47 47 -84 65.5t-85 18.5q-95 0 -156 -68q-53 -60 -53 -144q0 -96 68 -158
q60 -54 142 -54q67 0 110 36q37 32 52 88h-178v135zM330 -16l132 -38l-90 -195l-107 30z" />
    <glyph glyph-name="gcommaaccent" unicode="&#x123;" horiz-adv-x="543" 
d="M354 22q-31 -22 -55.5 -30.5t-55.5 -8.5q-100 0 -166 79q-58 68 -58 160q0 106 74 177q64 61 150 61q31 0 55.5 -8.5t55.5 -29.5v21h142v-452q0 -115 -77 -182q-66 -59 -167 -59q-68 0 -121.5 28.5t-107.5 92.5l96 91q6 -6 14 -17q54 -67 119 -67q52 0 79 33q23 30 23 80
v31zM260 332q-47 0 -74 -34q-24 -30 -24 -76q0 -53 30 -84q27 -27 67 -27q47 0 73 35q23 29 23 76q0 53 -29 84q-26 26 -66 26zM317 475l-132 37l90 196l107 -31z" />
    <glyph glyph-name="Hcircumflex" unicode="&#x124;" horiz-adv-x="654" 
d="M212 667v-261h229v261h148v-667h-148v269h-229v-269h-148v667h148zM240 694l-108 50l153 155h84l152 -155l-108 -50l-86 78z" />
    <glyph glyph-name="hcircumflex" unicode="&#x125;" horiz-adv-x="511" 
d="M189 426q44 34 98 34q45 0 85 -23t63 -62q28 -49 28 -135v-240h-142v233q0 57 -13 78t-48 21q-43 0 -59 -28q-12 -21 -12 -80v-224h-142v667h142v-241zM170 694l-108 50l152 155h84l153 -155l-108 -50l-87 78z" />
    <glyph glyph-name="Hbar" unicode="&#x126;" horiz-adv-x="649" 
d="M439 614v53h148v-53h54v-122h-54v-492h-148v269h-230v-269h-148v492h-54v122h54v53h148v-53h230zM439 492h-230v-86h230v86z" />
    <glyph glyph-name="hbar" unicode="&#x127;" horiz-adv-x="504" 
d="M41 492h-54v122h54v53h142v-53h108v-122h-108v-66q44 34 98 34q45 0 85 -23t63 -62q28 -49 28 -135v-240h-142v233q0 57 -13 78t-48 21q-43 0 -59 -28q-12 -21 -12 -80v-224h-142v492z" />
    <glyph glyph-name="Itilde" unicode="&#x128;" horiz-adv-x="276" 
d="M212 667v-667h-147v667h147zM190 881l118 -25q-4 -57 -21 -84q-13 -21 -37 -33.5t-53 -12.5q-40 0 -81 20q-12 6 -19 6q-4 0 -6.5 -6t-6.5 -28l-115 25q5 55 24 84q13 21 36.5 33.5t48.5 12.5q41 0 85 -23q10 -6 16 -6q5 0 7 6.5t4 30.5z" />
    <glyph glyph-name="itilde" unicode="&#x129;" horiz-adv-x="238" 
d="M190 443v-443h-143v443h143zM170 673l118 -26q-4 -56 -21 -84q-12 -21 -36.5 -33.5t-53.5 -12.5q-40 0 -81 21q-12 5 -19 5q-5 0 -7 -6t-6 -28l-115 26q5 55 24 84q13 20 36.5 32.5t48.5 12.5q41 0 85 -23q10 -5 16 -5q5 0 7 6.5t4 30.5z" />
    <glyph glyph-name="Imacron" unicode="&#x12a;" horiz-adv-x="276" 
d="M212 667v-667h-148v667h148zM-30 858h336v-117h-336v117z" />
    <glyph glyph-name="imacron" unicode="&#x12b;" horiz-adv-x="238" 
d="M190 443v-443h-142v443h142zM-49 649h336v-117h-336v117z" />
    <glyph glyph-name="Ibreve" unicode="&#x12c;" horiz-adv-x="276" 
d="M212 667v-667h-148v667h148zM-27 878l123 9q2 -49 9 -59q10 -14 31 -14q22 0 31 17q7 12 13 56l123 -9q-6 -49 -8.5 -60.5t-11.5 -28.5q-21 -42 -60 -65.5t-87 -23.5q-58 0 -102 32q-38 28 -53 71q-7 18 -8 75z" />
    <glyph glyph-name="ibreve" unicode="&#x12d;" horiz-adv-x="238" 
d="M190 443v-443h-142v443h142zM-46 669l123 9q2 -47 9.5 -61.5t29.5 -14.5q35 0 41 47q2 15 4 29l123 -9q-6 -50 -8.5 -61t-11.5 -28q-21 -43 -60 -66t-87 -23q-58 0 -102 32q-38 27 -53 71q-7 18 -8 75z" />
    <glyph glyph-name="Iogonek" unicode="&#x12e;" horiz-adv-x="276" 
d="M212 0q-28 -37 -28 -54q0 -6 7 -6q14 0 36 12l43 -101q-45 -15 -63.5 -19.5t-39.5 -4.5q-58 0 -93 33q-31 28 -31 69q0 32 27 71h-6v667h148v-667z" />
    <glyph glyph-name="iogonek" unicode="&#x12f;" horiz-adv-x="238" 
d="M190 0q-28 -37 -28 -54q0 -6 7 -6q14 0 36 12l43 -101q-45 -15 -63.5 -19.5t-39.5 -4.5q-58 0 -93 33q-31 28 -31 69q0 32 27 71v443h142v-443zM34 596q0 36 28 61q24 21 57 21q38 0 63 -27q21 -24 21 -55q0 -37 -27 -61q-25 -21 -57 -21q-38 0 -63 27q-22 23 -22 55z
" />
    <glyph glyph-name="Idotaccent" unicode="&#x130;" horiz-adv-x="276" 
d="M213 667v-667h-148v667h148zM54 800q0 36 28 61q24 21 57 21q37 0 63 -27q21 -24 21 -55q0 -37 -28 -61q-24 -22 -57 -22q-37 0 -62 28q-22 23 -22 55z" />
    <glyph glyph-name="dotlessi" unicode="&#x131;" horiz-adv-x="238" 
d="M190 443v-443h-142v443h142z" />
    <glyph glyph-name="IJ" unicode="&#x132;" horiz-adv-x="697" 
d="M212 667v-667h-148v667h148zM633 667v-459q0 -49 -6.5 -79.5t-23.5 -59.5q-22 -40 -63 -62.5t-92 -22.5t-94 21t-91 70l82 96q56 -62 99 -62q56 0 56 99v459h133z" />
    <glyph glyph-name="ij" unicode="&#x133;" horiz-adv-x="479" 
d="M34 596q0 36 28 61q24 21 57 21q37 0 63 -27q21 -24 21 -55q0 -37 -28 -61q-24 -21 -56 -21q-38 0 -63 27q-22 23 -22 55zM190 443v-443h-142v443h142zM431 443v-530q0 -80 -41 -122q-35 -36 -94 -36q-37 0 -78 14v131q35 -14 53 -14q17 0 17 33v524h143zM275 596
q0 36 28 61q24 21 56 21q38 0 63 -27q22 -24 22 -55q0 -37 -28 -61q-24 -21 -57 -21q-37 0 -62 27q-22 23 -22 55z" />
    <glyph glyph-name="Jcircumflex" unicode="&#x134;" horiz-adv-x="431" 
d="M368 667v-458q0 -48 -7 -79t-24 -61q-23 -41 -65 -63.5t-95 -22.5t-97 21.5t-92 71.5l88 106q54 -61 94 -61q50 0 50 88v458h148zM173 694l-108 50l152 155h85l152 -155l-108 -50l-87 78z" />
    <glyph glyph-name="jcircumflex" unicode="&#x135;" horiz-adv-x="244" 
d="M196 443v-530q0 -80 -40 -122q-35 -36 -95 -36q-36 0 -78 14v131q36 -14 54 -14q17 0 17 33v524h142zM198 485l-86 82l-87 -82l-107 50l152 155h84l151 -155z" />
    <glyph glyph-name="Kcommaaccent" unicode="&#x136;" horiz-adv-x="616" 
d="M360 383l255 -383h-175l-181 276l-47 -51v-225h-148v667h148v-240l224 240h189zM284 -16l132 -38l-90 -195l-107 30z" />
    <glyph glyph-name="kcommaaccent" unicode="&#x137;" horiz-adv-x="500" 
d="M312 255l202 -255h-177l-124 160l-24 -24v-136h-142v667h142v-348l127 124h191zM214 -16l133 -38l-91 -195l-106 30z" />
    <glyph glyph-name="kgreenlandic" unicode="&#x138;" horiz-adv-x="500" 
d="M312 255l202 -255h-177l-124 160l-24 -24v-136h-142v443h142v-124l127 124h191z" />
    <glyph glyph-name="Lacute" unicode="&#x139;" horiz-adv-x="444" 
d="M64 667h148v-530h235v-137h-383v667zM324 854l-172 -161l-96 51l137 175z" />
    <glyph glyph-name="lacute" unicode="&#x13a;" horiz-adv-x="239" 
d="M302 856l-172 -160l-96 50l137 175zM190 0h-142v667h142v-667z" />
    <glyph glyph-name="Lcommaaccent" unicode="&#x13b;" horiz-adv-x="446" 
d="M64 667h148v-530h235v-137h-383v667zM225 -16l133 -38l-91 -195l-107 30z" />
    <glyph glyph-name="lcommaaccent" unicode="&#x13c;" horiz-adv-x="239" 
d="M191 0h-143v667h143v-667zM71 -16l133 -38l-91 -195l-106 30z" />
    <glyph glyph-name="Lcaron" unicode="&#x13d;" horiz-adv-x="446" 
d="M64 667h148v-530h235v-137h-383v667zM315 705l133 -38l-91 -195l-106 30z" />
    <glyph glyph-name="lcaron" unicode="&#x13e;" horiz-adv-x="391" 
d="M190 0h-142v667h142v-667zM279 709l133 -38l-91 -195l-106 30z" />
    <glyph glyph-name="Ldot" unicode="&#x13f;" horiz-adv-x="446" 
d="M64 667h148v-530h235v-137h-383v667zM267 333q0 37 28 61q24 22 57 22q38 0 63 -28q22 -23 22 -55q0 -36 -28 -61q-25 -21 -57 -21q-38 0 -63 27q-22 24 -22 55z" />
    <glyph glyph-name="ldot" unicode="&#x140;" horiz-adv-x="401" 
d="M235 333q0 37 28 61q24 22 56 22q38 0 63 -28q22 -23 22 -55q0 -36 -28 -61q-24 -21 -57 -21q-37 0 -63 27q-21 24 -21 55zM190 0h-142v667h142v-667z" />
    <glyph glyph-name="Lslash" unicode="&#x141;" horiz-adv-x="459" 
d="M226 461l104 63v-141l-104 -62v-184h235v-137h-383v232l-65 -40v141l65 39v295h148v-206z" />
    <glyph glyph-name="lslash" unicode="&#x142;" horiz-adv-x="280" 
d="M69 237l-60 -37v142l60 37v288h142v-200l60 37v-142l-60 -37v-325h-142v237z" />
    <glyph glyph-name="Nacute" unicode="&#x143;" horiz-adv-x="708" 
d="M64 0v667h124l308 -405v405h148v-667h-124l-308 405v-405h-148zM556 854l-172 -161l-96 51l136 175z" />
    <glyph glyph-name="nacute" unicode="&#x144;" horiz-adv-x="511" 
d="M444 644l-172 -160l-96 51l137 175zM189 426q44 34 98 34q45 0 85 -23t63 -62q28 -49 28 -135v-240h-142v233q0 57 -13 78t-48 21q-43 0 -59 -28q-12 -21 -12 -80v-224h-142v443h142v-17z" />
    <glyph glyph-name="Ncommaaccent" unicode="&#x145;" horiz-adv-x="708" 
d="M64 0v667h124l308 -405v405h148v-667h-124l-308 405v-405h-148zM320 -16l133 -38l-91 -195l-106 30z" />
    <glyph glyph-name="ncommaaccent" unicode="&#x146;" horiz-adv-x="511" 
d="M189 426q44 34 98 34q45 0 85 -23t63 -62q28 -49 28 -135v-240h-142v233q0 57 -13 78t-48 21q-43 0 -59 -28q-12 -21 -12 -80v-224h-142v443h142v-17zM221 -16l133 -38l-91 -195l-106 30z" />
    <glyph glyph-name="Ncaron" unicode="&#x147;" horiz-adv-x="708" 
d="M64 0v667h124l308 -405v405h148v-667h-124l-308 405v-405h-148zM284 902l87 -77l86 77l108 -50l-152 -155h-85l-152 155z" />
    <glyph glyph-name="ncaron" unicode="&#x148;" horiz-adv-x="511" 
d="M189 426q44 34 98 34q45 0 85 -23t63 -62q28 -49 28 -135v-240h-142v233q0 57 -13 78t-48 21q-43 0 -59 -28q-12 -21 -12 -80v-224h-142v443h142v-17zM347 702l107 -50l-152 -154h-84l-152 154l108 50l86 -82z" />
    <glyph glyph-name="napostrophe" unicode="&#x149;" horiz-adv-x="614" 
d="M88 693l126 -42l-126 -264l-104 38zM293 426q44 34 97 34q46 0 86 -23t62 -62q29 -49 29 -135v-240h-142v233q0 57 -13.5 78t-48.5 21q-43 0 -58 -28q-12 -21 -12 -80v-224h-142v443h142v-17z" />
    <glyph glyph-name="Eng" unicode="&#x14a;" horiz-adv-x="708" 
d="M644 667v-667q-1 -78 -41 -119q-35 -35 -94 -35q-36 0 -78 14v131q36 -14 53 -14q18 0 18 33v14l-290 381v-405h-148v667h124l308 -405v405h148z" />
    <glyph glyph-name="eng" unicode="&#x14b;" horiz-adv-x="511" 
d="M189 426q44 34 98 34q45 0 85 -23t63 -62q14 -25 20 -52.5t8 -82.5q3 -34 3 -143q0 -90 -4.5 -125.5t-19.5 -64.5t-45.5 -45t-68.5 -16q-36 0 -78 14v131q36 -14 54 -14q17 0 17 32v172v52q0 57 -13 78t-48 21q-43 0 -59 -28q-12 -21 -12 -80v-224h-142v443h142v-17z" />
    <glyph glyph-name="Omacron" unicode="&#x14c;" horiz-adv-x="763" 
d="M26 333q0 94 49 176q47 80 128 126q83 48 178 48q96 0 179 -48q81 -47 128 -126q49 -82 49 -176t-49 -176q-48 -79 -128 -126q-83 -48 -179 -48q-95 0 -178 48q-81 47 -128 126q-49 82 -49 176zM175 333q0 -94 68 -157q59 -55 138 -55q92 0 154 70q53 61 53 142
q0 95 -68 158q-59 54 -139 54q-92 0 -153 -70q-53 -60 -53 -142zM213 858h336v-117h-336v117z" />
    <glyph glyph-name="omacron" unicode="&#x14d;" horiz-adv-x="520" 
d="M260 460q109 0 180 -78q61 -67 61 -160q0 -108 -79 -178q-68 -61 -162 -61q-109 0 -180 78q-61 68 -61 161q0 107 79 177q68 61 162 61zM260 332q-47 0 -74 -34q-24 -30 -24 -76q0 -53 31 -84q26 -27 67 -27q47 0 74 35q24 30 24 76q0 53 -30 84q-27 26 -68 26zM92 649
h336v-117h-336v117z" />
    <glyph glyph-name="Obreve" unicode="&#x14e;" horiz-adv-x="763" 
d="M26 333q0 94 49 176q47 80 128 126q83 48 178 48q96 0 179 -48q81 -47 128 -126q49 -82 49 -176t-49 -176q-48 -79 -128 -126q-83 -48 -179 -48q-95 0 -178 48q-81 47 -128 126q-49 82 -49 176zM175 333q0 -94 68 -157q59 -55 138 -55q92 0 154 70q53 61 53 142
q0 95 -68 158q-59 54 -139 54q-92 0 -153 -70q-53 -60 -53 -142zM216 878l123 9q2 -49 10 -59q10 -14 30 -14q23 0 32 17q6 12 13 56l122 -9q-6 -49 -8 -60.5t-11 -28.5q-22 -42 -60.5 -65.5t-87.5 -23.5q-58 0 -102 32q-38 28 -53 71q-6 18 -8 75z" />
    <glyph glyph-name="obreve" unicode="&#x14f;" horiz-adv-x="520" 
d="M260 460q109 0 180 -78q61 -67 61 -160q0 -108 -79 -178q-68 -61 -162 -61q-109 0 -180 78q-61 68 -61 161q0 107 79 177q68 61 162 61zM260 332q-47 0 -74 -34q-24 -30 -24 -76q0 -53 31 -84q26 -27 67 -27q47 0 74 35q24 30 24 76q0 53 -30 84q-27 26 -68 26zM95 669
l123 9q2 -47 9.5 -61.5t29.5 -14.5q35 0 41 47q2 10 4 29l123 -9q-6 -50 -8.5 -61t-11.5 -28q-21 -43 -60 -66t-87 -23q-58 0 -102 32q-38 27 -53 71q-7 18 -8 75z" />
    <glyph glyph-name="Ohungarumlaut" unicode="&#x150;" horiz-adv-x="763" 
d="M481 859l41 58l115 -62l-171 -160l-72 42l65 91l-143 -133l-81 48l136 174zM26 333q0 94 49 176q47 80 128 126q83 48 178 48q96 0 179 -48q81 -47 128 -126q49 -82 49 -176t-49 -176q-48 -79 -128 -126q-83 -48 -179 -48q-95 0 -178 48q-81 47 -128 126q-49 82 -49 176z
M175 333q0 -94 68 -157q59 -55 138 -55q92 0 154 70q53 61 53 142q0 95 -68 158q-59 54 -139 54q-92 0 -153 -70q-53 -60 -53 -142z" />
    <glyph glyph-name="ohungarumlaut" unicode="&#x151;" horiz-adv-x="536" 
d="M361 648l41 58l115 -62l-171 -160l-72 42l65 91l-143 -133l-81 48l136 174zM260 460q109 0 180 -78q61 -67 61 -160q0 -108 -79 -178q-68 -61 -162 -61q-109 0 -180 78q-61 68 -61 161q0 107 79 177q68 61 162 61zM260 332q-47 0 -74 -34q-24 -30 -24 -76q0 -53 30 -84
q27 -27 68 -27q47 0 74 35q24 30 24 76q0 53 -30 84q-27 26 -68 26z" />
    <glyph glyph-name="OE" unicode="&#x152;" horiz-adv-x="1019" 
d="M989 0h-401v51q-95 -68 -202 -68q-98 0 -182 48q-81 46 -129 125q-49 82 -49 177t49 177q48 79 129 126q84 47 181 47q108 0 203 -67v51h392v-136h-245v-125h218v-137h-218v-133h254v-136zM175 333q0 -95 68 -158q59 -55 138 -55q92 0 154 70q53 61 53 143q0 95 -68 158
q-59 54 -139 54q-92 0 -153 -70q-53 -60 -53 -142z" />
    </font>
</defs>
</svg>
