<?xml version="1.0" standalone="no"?>
<!DOCTYPE svg PUBLIC "-//W3C//DTD SVG 1.1//EN" "http://www.w3.org/Graphics/SVG/1.1/DTD/svg11.dtd" >
<svg xmlns="http://www.w3.org/2000/svg" xmlns:xlink="http://www.w3.org/1999/xlink" version="1.1">
<metadata>
Created by FontForge 20170731 at Wed Dec 20 17:38:26 2017
 By Aleksey,,,
(URW)++,Copyright 2017 by (URW)++ Design &#38; Development
</metadata>
<defs>
<font id="URWGeometricArabic-Light" horiz-adv-x="0" >
  <font-face 
    font-family="URWGeometricArabic-Light"
    font-weight="400"
    font-stretch="normal"
    units-per-em="1000"
    panose-1="0 0 0 0 0 0 0 0 0 0"
    ascent="734"
    descent="-266"
    x-height="443"
    cap-height="667"
    bbox="-389 -447 1419 1052"
    underline-thickness="51"
    underline-position="-223"
    unicode-range="U+0020-FEFC"
  />
<missing-glyph horiz-adv-x="364" 
d="M33 0v666h265v-666h-265zM66 33h199v600h-199v-600z" />
    <glyph glyph-name="uni064D0651" unicode="&#x64b;&#x651;" 
d="M-174 931l-150 -27l-6 33l150 27zM-171 860l-149 -28l-6 33l149 27zM-250 704q-18 -16 -38 -16q-22 0 -36 13.5t-14 34.5v58h29v-54q0 -22 22 -22t22 21v38h30v-38q0 -21 22 -21t22 22v54h29v-58q0 -21 -14 -34.5t-36 -13.5q-24 0 -38 16z" />
    <glyph glyph-name="fi" unicode="fi" horiz-adv-x="428" 
d="M82 443v92q0 72 28 107q26 31 71 31q17 0 39 -6v-52q-16 5 -28 5q-54 0 -54 -85v-92h84v-51h-84v-392h-56v392h-47v51h47zM361 443v-443h-57v443h57zM332 632q18 0 30.5 -12.5t12.5 -29.5q0 -18 -12.5 -30.5t-30.5 -12.5q-17 0 -29.5 12.5t-12.5 30.5q0 17 12.5 29.5
t29.5 12.5z" />
    <glyph glyph-name="fl" unicode="fl" horiz-adv-x="428" 
d="M82 443v92q0 72 28 107q26 31 71 31q17 0 39 -6v-52q-16 5 -28 5q-54 0 -54 -85v-92h84v-51h-84v-392h-56v392h-47v51h47zM361 0h-57v667h57v-667z" />
    <glyph glyph-name="uniFC5E" unicode="&#x64c;&#x651;" arabic-form="isolated" 
d="M-233 858q-23 18 -23 47q0 24 14.5 39.5t36.5 15.5q24 0 38.5 -15t14.5 -39q0 -38 -28 -60q-23 -18 -54 -18q-47 0 -69 35l-20 -33l-25 16l32 51h22q20 -40 61 -39zM-202 867q21 8 21 37q0 13 -6.5 21t-16.5 8t-16 -8t-6 -20q0 -27 24 -38zM-250 704q-18 -16 -38 -16
q-22 0 -36 13.5t-14 34.5v58h29v-54q0 -22 22 -22t22 21v38h30v-38q0 -21 22 -21t22 22v54h29v-58q0 -21 -14 -34.5t-36 -13.5q-24 0 -38 16z" />
    <glyph glyph-name="uniFC5F" unicode="&#x64d;&#x651;" arabic-form="isolated" 
d="M-250 862q-16 -16 -39 -16q-22 0 -36 13.5t-14 34.5v58h30v-54q0 -22 21 -22q23 0 23 21v38h30v-38q0 -21 22 -21q21 0 21 22v54h30v-58q0 -21 -14 -34.5t-36 -13.5q-25 0 -38 16zM-174 785l-149 -27l-6 33l150 27zM-170 714l-150 -28l-6 33l150 27z" />
    <glyph glyph-name="uniFC60" unicode="&#x64e;&#x651;" arabic-form="isolated" 
d="M-167 859l-155 -28l-8 37l156 28zM-250 704q-18 -16 -38 -16q-22 0 -36 13.5t-14 34.5v58h29v-54q0 -22 22 -22t22 21v38h30v-38q0 -21 22 -21t22 22v54h29v-58q0 -21 -14 -34.5t-36 -13.5q-24 0 -38 16z" />
    <glyph glyph-name="uniFC61" unicode="&#x64f;&#x651;" arabic-form="isolated" 
d="M-221 844l-113 -20l-5 30l98 18q-21 18 -21 48q0 23 14 38t36 15q23 0 37.5 -15t14.5 -40q0 -28 -17 -48.5t-44 -25.5zM-210 881q21 8 21 36q0 29 -23 29q-9 0 -14.5 -8t-5.5 -20q0 -26 22 -37zM-250 704q-18 -16 -38 -16q-22 0 -36 13.5t-14 34.5v58h29v-54
q0 -22 22 -22t22 21v38h30v-38q0 -21 22 -21t22 22v54h29v-58q0 -21 -14 -34.5t-36 -13.5q-24 0 -38 16z" />
    <glyph glyph-name="uniFC62" unicode="&#x650;&#x651;" arabic-form="isolated" 
d="M-251 805q-16 -16 -38 -16t-36 13.5t-14 34.5v58h29v-55q0 -21 22 -21q23 0 23 21v38h29v-38q0 -21 22 -21t22 21v55h29v-58q0 -21 -14 -34.5t-36 -13.5q-25 0 -38 16zM-167 714l-155 -28l-7 37l156 28z" />
    <glyph glyph-name="uniFC63" unicode="&#x651;&#x670;" arabic-form="isolated" 
d="M-233 826h-36v115h36v-115zM-250 704q-18 -16 -38 -16q-22 0 -36 13.5t-14 34.5v58h29v-54q0 -22 22 -22t22 21v38h30v-38q0 -21 22 -21t22 22v54h29v-58q0 -21 -14 -34.5t-36 -13.5q-24 0 -38 16z" />
    <glyph glyph-name="uniFDF2" unicode="&#x627;&#xfedf;&#xfee0;&#x6c1;" horiz-adv-x="1280" arabic-form="isolated" 
d="M686 797h-28v95h28v-95zM672 681q-15 -17 -38 -17q-21 0 -35 13.5t-14 33.5v56h27v-52q0 -23 23 -23t23 22v37h28v-37q0 -22 22 -22q23 0 23 23v52h27v-56q0 -20 -14 -33.5t-35 -13.5q-25 0 -37 17zM1190 0h-56v666h56v-666zM673 70q-43 -70 -144 -70q-113 0 -153 88
q-55 -61 -137 -61q-79 0 -126 59q-43 55 -43 144q0 104 66 161q57 49 146 49h75v49h56v-309q0 -67 35 -99q29 -28 81 -28q60 0 90 40q26 34 26 92v388h56v-388q0 -67 34 -101q29 -31 82 -31q60 0 90 37q26 33 26 90v393h55v-393q0 -95 -54 -141q-44 -39 -118 -39
q-102 0 -143 70zM357 386h-74q-82 0 -122 -46q-35 -40 -35 -109q0 -76 35 -116q30 -35 78 -35q66 0 121 59q-3 20 -3 41v206z" />
    <glyph glyph-name="uniFEF5" unicode="&#xfedf;&#xfe82;" horiz-adv-x="568" arabic-form="isolated" 
d="M317 0h-292v53h158v460h55v-460h67q62 0 89.5 29.5t27.5 96.5v487h56v-504q0 -82 -49 -125q-42 -37 -112 -37zM296 632q-17 -51 -57 -51q-21 0 -47 18q-15 10 -26 10q-18 0 -32 -24l-21 16q21 44 54 44q18 0 39 -16q17 -14 33 -14q17 0 30 26z" />
    <glyph glyph-name="uniFEF6" unicode="&#xfee0;&#xfe82;" horiz-adv-x="602" arabic-form="final" 
d="M318 0h-293v53h158v460h55v-460h67q62 0 89.5 29.5t27.5 96.5v487h56v-487q0 -67 26 -96q28 -30 90 -30h18v-53h-30q-92 0 -132 62q-40 -62 -132 -62zM296 632q-17 -51 -57 -51q-21 0 -47 18q-15 10 -26 10q-18 0 -32 -24l-21 16q21 44 54 44q18 0 39 -16q17 -14 33 -14
q17 0 30 26z" />
    <glyph glyph-name="uniFEF7" unicode="&#xfedf;&#xfe84;" horiz-adv-x="568" arabic-form="isolated" 
d="M283 611h-150v29h34q-9 15 -9 32q0 26 18.5 43t47.5 17t46 -15l-11 -22q-16 10 -34 10q-17 0 -27 -9t-10 -24t14 -32h81v-29zM317 0h-292v53h158v460h55v-460h67q62 0 89.5 29.5t27.5 96.5v487h56v-504q0 -82 -49 -125q-42 -37 -112 -37z" />
    <glyph glyph-name="uniFEF8" unicode="&#xfee0;&#xfe84;" horiz-adv-x="602" arabic-form="final" 
d="M283 611h-150v29h34q-9 15 -9 32q0 26 18.5 43t47.5 17t46 -15l-11 -22q-16 10 -34 10q-17 0 -27 -9t-10 -24t14 -32h81v-29zM318 0h-293v53h158v460h55v-460h67q62 0 89.5 29.5t27.5 96.5v487h56v-487q0 -67 26 -96q28 -30 90 -30h18v-53h-30q-92 0 -132 62
q-40 -62 -132 -62z" />
    <glyph glyph-name="uniFEF9" unicode="&#xfedf;&#xfe88;" horiz-adv-x="567" arabic-form="isolated" 
d="M317 0h-292v53h158v460h55v-460h67q62 0 89.5 29.5t27.5 96.5v487h56v-504q0 -82 -49 -125q-42 -37 -112 -37zM281 -221h-150v29h34q-9 16 -9 32q0 26 18.5 43.5t46.5 17.5q27 0 47 -16l-11 -22q-17 11 -34 11q-16 0 -26.5 -9t-10.5 -24q0 -17 13 -33h82v-29z" />
    <glyph glyph-name="uniFEFA" unicode="&#xfee0;&#xfe88;" horiz-adv-x="602" arabic-form="final" 
d="M318 0h-293v53h158v460h55v-460h67q62 0 89.5 29.5t27.5 96.5v487h56v-487q0 -67 26 -96q28 -30 90 -30h18v-53h-30q-92 0 -132 62q-40 -62 -132 -62zM281 -221h-150v29h34q-9 16 -9 32q0 26 18.5 43.5t46.5 17.5q27 0 47 -16l-11 -22q-17 11 -34 11q-16 0 -26.5 -9
t-10.5 -24q0 -17 13 -33h82v-29z" />
    <glyph glyph-name="uniFEFB" unicode="&#xfedf;&#xfe8e;" horiz-adv-x="568" arabic-form="isolated" 
d="M317 0h-292v53h158v460h55v-460h67q62 0 89.5 29.5t27.5 96.5v487h56v-504q0 -82 -49 -125q-42 -37 -112 -37z" />
    <glyph glyph-name="uniFEFC" unicode="&#xfee0;&#xfe8e;" horiz-adv-x="602" arabic-form="final" 
d="M318 0h-293v53h158v460h55v-460h67q62 0 89.5 29.5t27.5 96.5v487h56v-487q0 -67 26 -96q28 -30 90 -30h18v-53h-30q-92 0 -132 62q-40 -62 -132 -62z" />
    <glyph glyph-name="uniFB50" unicode="&#x671;" horiz-adv-x="236" arabic-form="isolated" 
d="M44 735q40 113 122 113q76 0 76 -67q0 -45 -49 -68q-38 -17 -98 -17q-18 0 -27 1q-4 -11 -10 -37q-1 -6 -2 -10l-34 6q4 22 11 46q-17 3 -53 13l6 33q29 -8 58 -13zM79 730h16q50 0 80 13q29 13 29 34q0 35 -41 35q-52 0 -84 -82zM146 0h-56v616h56v-616z" />
    <glyph glyph-name="uniFB51" unicode="&#x671;" horiz-adv-x="270" arabic-form="final" 
d="M44 735q40 113 122 113q76 0 76 -67q0 -45 -49 -68q-38 -17 -98 -17q-18 0 -27 1q-4 -11 -10 -37q-1 -6 -2 -10l-34 6q4 22 11 46q-17 3 -53 13l6 33q29 -8 58 -13zM79 730h16q50 0 80 13q29 13 29 34q0 35 -41 35q-52 0 -84 -82zM146 616v-437q0 -67 26 -96
q28 -30 90 -30h18v-53h-29q-80 0 -123 48q-38 42 -38 114v454h56z" />
    <glyph glyph-name="uniFB52" unicode="&#x67b;" horiz-adv-x="865" arabic-form="isolated" 
d="M600 0h-300q-115 0 -174 71q-46 55 -46 135q0 62 33 113q32 48 87 73l27 -42q-44 -21 -68.5 -59.5t-24.5 -85.5q0 -67 47 -110q44 -42 113 -42h293q132 0 132 132v233h56v-238q0 -94 -54 -141q-45 -39 -121 -39zM468 -121q0 -16 -11 -27t-27 -11t-27.5 11t-11.5 27
t11.5 27.5t27.5 11.5t27 -11.5t11 -27.5zM468 -215q0 -16 -11 -27.5t-27 -11.5t-27.5 11.5t-11.5 27.5t11.5 27.5t27.5 11.5t27 -11.5t11 -27.5z" />
    <glyph glyph-name="uniFB53" unicode="&#x67b;" horiz-adv-x="896" arabic-form="final" 
d="M598 0h-298q-115 0 -174 71q-46 55 -46 135q0 62 33 113q32 48 87 73l27 -42q-44 -21 -68.5 -59.5t-24.5 -85.5q0 -67 47 -110q44 -42 113 -42h293q132 0 132 132v233h56v-233q0 -67 34 -101q29 -31 82 -31h15v-53h-24q-94 0 -135 71q-44 -71 -149 -71zM468 -121
q0 -16 -11 -27t-27 -11t-27.5 11t-11.5 27t11.5 27.5t27.5 11.5t27 -11.5t11 -27.5zM468 -215q0 -16 -11 -27.5t-27 -11.5t-27.5 11.5t-11.5 27.5t11.5 27.5t27.5 11.5t27 -11.5t11 -27.5z" />
    <glyph glyph-name="uniFB54" unicode="&#x67b;" horiz-adv-x="266" arabic-form="initial" 
d="M-10 0v53h15q59 0 90 40q26 34 26 92v233h56v-238q0 -94 -53 -141q-43 -39 -111 -39h-23zM91 -254q-16 0 -27 11.5t-11 27.5t11 27.5t27 11.5t27.5 -11.5t11.5 -27.5t-11.5 -27.5t-27.5 -11.5zM91 -159q-16 0 -27 11t-11 27t11 27.5t27 11.5t27.5 -11.5t11.5 -27.5
t-11.5 -27t-27.5 -11z" />
    <glyph glyph-name="uniFB55" unicode="&#x67b;" horiz-adv-x="297" arabic-form="medial" 
d="M-10 0v53h15q59 0 90 40q26 34 26 92v233h56v-233q0 -67 34 -101q29 -31 82 -31h14v-53h-22q-95 0 -136 70q-43 -70 -136 -70h-23zM144 -254q-16 0 -27.5 11.5t-11.5 27.5t11.5 27.5t27.5 11.5q15 0 26.5 -11.5t11.5 -27.5t-11.5 -27.5t-26.5 -11.5zM144 -159
q-16 0 -27.5 11t-11.5 27t11.5 27.5t27.5 11.5q15 0 26.5 -11.5t11.5 -27.5q0 -15 -11.5 -26.5t-26.5 -11.5z" />
    <glyph glyph-name="uniFB56" unicode="&#x67e;" horiz-adv-x="865" arabic-form="isolated" 
d="M600 0h-300q-115 0 -174 71q-46 55 -46 135q0 62 33 113q32 48 87 73l27 -42q-44 -21 -68.5 -59.5t-24.5 -85.5q0 -67 47 -110q44 -42 113 -42h293q132 0 132 132v233h56v-238q0 -94 -54 -141q-45 -39 -121 -39zM419 -121q0 -16 -11.5 -28t-27.5 -12t-27.5 12t-11.5 28
t11.5 27.5t27.5 11.5t27.5 -11.5t11.5 -27.5zM518 -121q0 -16 -11.5 -28t-27.5 -12t-27.5 12t-11.5 28t11.5 27.5t27.5 11.5t27.5 -11.5t11.5 -27.5zM466 -209q0 -15 -11 -26t-26 -11q-14 0 -25 11t-11 26t11 26t25 11q15 0 26 -11t11 -26z" />
    <glyph glyph-name="uniFB57" unicode="&#x67e;" horiz-adv-x="896" arabic-form="final" 
d="M598 0h-298q-115 0 -174 71q-46 55 -46 135q0 62 33 113q32 48 87 73l27 -42q-44 -21 -68.5 -59.5t-24.5 -85.5q0 -67 47 -110q44 -42 113 -42h293q132 0 132 132v233h56v-233q0 -67 34 -101q29 -31 82 -31h15v-53h-24q-94 0 -135 71q-44 -71 -149 -71zM419 -121
q0 -16 -11.5 -28t-27.5 -12t-27.5 12t-11.5 28t11.5 27.5t27.5 11.5t27.5 -11.5t11.5 -27.5zM518 -121q0 -16 -11.5 -28t-27.5 -12t-27.5 12t-11.5 28t11.5 27.5t27.5 11.5t27.5 -11.5t11.5 -27.5zM466 -209q0 -15 -11 -26t-26 -11q-14 0 -25 11t-11 26t11 26t25 11
q15 0 26 -11t11 -26z" />
    <glyph glyph-name="uniFB58" unicode="&#x67e;" horiz-adv-x="266" arabic-form="initial" 
d="M-10 0v53h15q59 0 90 40q26 34 26 92v233h56v-238q0 -94 -53 -141q-43 -39 -111 -39h-23zM84 -246q-15 0 -26 11t-11 26t11 26t26 11t26 -11t11 -26t-11 -26t-26 -11zM34 -161q-16 0 -27.5 12t-11.5 28t11.5 27.5t27.5 11.5t28 -11.5t12 -27.5t-12 -28t-28 -12zM134 -161
q-16 0 -28 12t-12 28t12 27.5t28 11.5t27.5 -11.5t11.5 -27.5t-11.5 -28t-27.5 -12z" />
    <glyph glyph-name="uniFB59" unicode="&#x67e;" horiz-adv-x="297" arabic-form="medial" 
d="M13 0h-23v53h15q59 0 90 40q26 34 26 92v233h56v-233q0 -67 34 -101q29 -31 82 -31h14v-53h-22q-95 0 -136 70q-43 -70 -136 -70zM139 -121q0 -16 -12 -28t-28 -12t-27.5 12t-11.5 28t11.5 27.5t27.5 11.5t28 -11.5t12 -27.5zM238 -121q0 -16 -11.5 -28t-27.5 -12t-28 12
t-12 28t12 27.5t28 11.5t27.5 -11.5t11.5 -27.5zM186 -209q0 -15 -11 -26t-26 -11t-26 11t-11 26t11 26t26 11t26 -11t11 -26z" />
    <glyph glyph-name="uniFB5A" unicode="&#x680;" horiz-adv-x="865" arabic-form="isolated" 
d="M600 0h-300q-115 0 -174 71q-46 55 -46 135q0 62 33 113q32 48 87 73l27 -42q-44 -21 -68.5 -59.5t-24.5 -85.5q0 -67 47 -110q44 -42 113 -42h293q132 0 132 132v233h56v-238q0 -94 -54 -141q-45 -39 -121 -39zM420 -121q0 -16 -11.5 -27t-27.5 -11t-27 11t-11 27
t11 27.5t27 11.5t27.5 -11.5t11.5 -27.5zM517 -121q0 -16 -11.5 -27t-27.5 -11t-27.5 11t-11.5 27t11.5 27.5t27.5 11.5t27.5 -11.5t11.5 -27.5zM420 -217q0 -16 -11.5 -27.5t-27.5 -11.5t-27 11.5t-11 27.5t11 27.5t27 11.5t27.5 -11.5t11.5 -27.5zM517 -217
q0 -16 -11.5 -27.5t-27.5 -11.5t-27.5 11.5t-11.5 27.5t11.5 27.5t27.5 11.5t27.5 -11.5t11.5 -27.5z" />
    <glyph glyph-name="uniFB5B" unicode="&#x680;" horiz-adv-x="896" arabic-form="final" 
d="M598 0h-298q-115 0 -174 71q-46 55 -46 135q0 62 33 113q32 48 87 73l27 -42q-44 -21 -68.5 -59.5t-24.5 -85.5q0 -67 47 -110q44 -42 113 -42h293q132 0 132 132v233h56v-233q0 -67 34 -101q29 -31 82 -31h15v-53h-24q-94 0 -135 71q-44 -71 -149 -71zM420 -121
q0 -16 -11.5 -27t-27.5 -11t-27 11t-11 27t11 27.5t27 11.5t27.5 -11.5t11.5 -27.5zM517 -121q0 -16 -11.5 -27t-27.5 -11t-27.5 11t-11.5 27t11.5 27.5t27.5 11.5t27.5 -11.5t11.5 -27.5zM420 -217q0 -16 -11.5 -27.5t-27.5 -11.5t-27 11.5t-11 27.5t11 27.5t27 11.5
t27.5 -11.5t11.5 -27.5zM517 -217q0 -16 -11.5 -27.5t-27.5 -11.5t-27.5 11.5t-11.5 27.5t11.5 27.5t27.5 11.5t27.5 -11.5t11.5 -27.5z" />
    <glyph glyph-name="uniFB5C" unicode="&#x680;" horiz-adv-x="266" arabic-form="initial" 
d="M-10 0v53h15q59 0 90 40q26 34 26 92v233h56v-238q0 -94 -53 -141q-43 -39 -111 -39h-23zM35 -256q-16 0 -27.5 11.5t-11.5 27.5t11.5 27.5t27.5 11.5t27.5 -11.5t11.5 -27.5t-11.5 -27.5t-27.5 -11.5zM132 -256q-16 0 -27.5 11.5t-11.5 27.5t11.5 27.5t27.5 11.5
t27 -11.5t11 -27.5t-11 -27.5t-27 -11.5zM35 -159q-16 0 -27.5 11t-11.5 27t11.5 27.5t27.5 11.5t27.5 -11.5t11.5 -27.5t-11.5 -27t-27.5 -11zM132 -159q-16 0 -27.5 11t-11.5 27t11.5 27.5t27.5 11.5t27 -11.5t11 -27.5t-11 -27t-27 -11z" />
    <glyph glyph-name="uniFB5D" unicode="&#x680;" horiz-adv-x="297" arabic-form="medial" 
d="M-10 0v53h15q59 0 90 40q26 34 26 92v233h56v-233q0 -67 34 -101q29 -31 82 -31h14v-53h-22q-95 0 -136 70q-43 -70 -136 -70h-23zM87 -256q-16 0 -27.5 11.5t-11.5 27.5t11.5 27.5t27.5 11.5t27 -11.5t11 -27.5t-11 -27.5t-27 -11.5zM183 -256q-16 0 -27 11.5t-11 27.5
t11 27.5t27 11.5t27.5 -11.5t11.5 -27.5t-11.5 -27.5t-27.5 -11.5zM87 -159q-16 0 -27.5 11t-11.5 27t11.5 27.5t27.5 11.5t27 -11.5t11 -27.5t-11 -27t-27 -11zM183 -159q-16 0 -27 11t-11 27t11 27.5t27 11.5t27.5 -11.5t11.5 -27.5t-11.5 -27t-27.5 -11z" />
    <glyph glyph-name="uniFB5E" unicode="&#x67a;" horiz-adv-x="865" arabic-form="isolated" 
d="M484 578q0 -16 -11.5 -27.5t-26.5 -11.5q-16 0 -27.5 11.5t-11.5 27.5t11.5 27.5t27.5 11.5q15 0 26.5 -11.5t11.5 -27.5zM484 478q0 -16 -11.5 -27.5t-26.5 -11.5q-16 0 -27.5 11.5t-11.5 27.5t11.5 27.5t27.5 11.5q15 0 26.5 -11.5t11.5 -27.5zM600 0h-300
q-115 0 -174 71q-46 55 -46 135q0 62 33 113q32 48 87 73l27 -42q-44 -21 -68.5 -59.5t-24.5 -85.5q0 -67 47 -110q44 -42 113 -42h293q132 0 132 132v233h56v-238q0 -94 -54 -141q-45 -39 -121 -39z" />
    <glyph glyph-name="uniFB5F" unicode="&#x67a;" horiz-adv-x="896" arabic-form="final" 
d="M492 560q0 -16 -11.5 -27.5t-27.5 -11.5t-27.5 11.5t-11.5 27.5t11.5 27t27.5 11t27.5 -11t11.5 -27zM492 460q0 -16 -11.5 -27.5t-27.5 -11.5t-27.5 11.5t-11.5 27.5t11.5 27.5t27.5 11.5t27.5 -11.5t11.5 -27.5zM598 0h-298q-115 0 -174 71q-46 55 -46 135q0 62 33 113
q32 48 87 73l27 -42q-44 -21 -68.5 -59.5t-24.5 -85.5q0 -67 47 -110q44 -42 113 -42h293q132 0 132 132v233h56v-233q0 -67 34 -101q29 -31 82 -31h15v-53h-24q-94 0 -135 71q-44 -71 -149 -71z" />
    <glyph glyph-name="uniFB60" unicode="&#x67a;" horiz-adv-x="266" arabic-form="initial" 
d="M185 650q0 -16 -11.5 -27.5t-27.5 -11.5t-27 11.5t-11 27.5t11 27t27 11t27.5 -11t11.5 -27zM185 550q0 -16 -11.5 -27.5t-27.5 -11.5t-27 11.5t-11 27.5t11 27.5t27 11.5t27.5 -11.5t11.5 -27.5zM13 0h-23v53h15q59 0 90 40q26 34 26 92v233h56v-238q0 -94 -53 -141
q-43 -39 -111 -39z" />
    <glyph glyph-name="uniFB61" unicode="&#x67a;" horiz-adv-x="297" arabic-form="medial" 
d="M188 650q0 -16 -11.5 -27.5t-27.5 -11.5t-27 11.5t-11 27.5t11 27t27 11t27.5 -11t11.5 -27zM188 550q0 -16 -11.5 -27.5t-27.5 -11.5t-27 11.5t-11 27.5t11 27.5t27 11.5t27.5 -11.5t11.5 -27.5zM13 0h-23v53h15q59 0 90 40q26 34 26 92v233h56v-233q0 -67 34 -101
q29 -31 82 -31h14v-53h-22q-95 0 -136 70q-43 -70 -136 -70z" />
    <glyph glyph-name="uniFB62" unicode="&#x67f;" horiz-adv-x="865" arabic-form="isolated" 
d="M433 578q0 -16 -11.5 -27t-27.5 -11q-15 0 -26.5 11.5t-11.5 26.5q0 16 11.5 27.5t26.5 11.5q16 0 27.5 -11.5t11.5 -27.5zM530 578q0 -16 -11.5 -27t-27.5 -11t-27.5 11t-11.5 27t11.5 27.5t27.5 11.5t27.5 -11.5t11.5 -27.5zM433 478q0 -16 -11.5 -27t-27.5 -11
q-15 0 -26.5 11.5t-11.5 26.5q0 16 11.5 27.5t26.5 11.5q16 0 27.5 -11.5t11.5 -27.5zM530 478q0 -16 -11.5 -27t-27.5 -11t-27.5 11t-11.5 27t11.5 27.5t27.5 11.5t27.5 -11.5t11.5 -27.5zM600 0h-300q-115 0 -174 71q-46 55 -46 135q0 62 33 113q32 48 87 73l27 -42
q-44 -21 -68.5 -59.5t-24.5 -85.5q0 -67 47 -110q44 -42 113 -42h293q132 0 132 132v233h56v-238q0 -94 -54 -141q-45 -39 -121 -39z" />
    <glyph glyph-name="uniFB63" unicode="&#x67f;" horiz-adv-x="896" arabic-form="final" 
d="M443 552q0 -16 -11 -27.5t-27 -11.5t-27.5 11.5t-11.5 27.5q0 15 11.5 26.5t27.5 11.5q15 0 26.5 -11.5t11.5 -26.5zM540 552q0 -16 -11.5 -27.5t-27.5 -11.5t-27 11.5t-11 27.5q0 15 11.5 26.5t26.5 11.5q16 0 27.5 -11.5t11.5 -26.5zM443 452q0 -16 -11 -27.5
t-27 -11.5t-27.5 11.5t-11.5 27.5t11.5 27t27.5 11t27 -11t11 -27zM540 452q0 -16 -11.5 -27.5t-27.5 -11.5t-27 11.5t-11 27.5t11 27t27 11t27.5 -11t11.5 -27zM598 0h-298q-115 0 -174 71q-46 55 -46 135q0 62 33 113q32 48 87 73l27 -42q-44 -21 -68.5 -59.5t-24.5 -85.5
q0 -67 47 -110q44 -42 113 -42h293q132 0 132 132v233h56v-233q0 -67 34 -101q29 -31 82 -31h15v-53h-24q-94 0 -135 71q-44 -71 -149 -71z" />
    <glyph glyph-name="uniFB64" unicode="&#x67f;" horiz-adv-x="266" arabic-form="initial" 
d="M136 642q0 -16 -11 -27.5t-27 -11.5t-27.5 11.5t-11.5 27.5q0 15 11.5 26.5t27.5 11.5q15 0 26.5 -11.5t11.5 -26.5zM233 642q0 -16 -11.5 -27.5t-27.5 -11.5t-27 11.5t-11 27.5q0 15 11.5 26.5t26.5 11.5q16 0 27.5 -11.5t11.5 -26.5zM136 542q0 -16 -11 -27.5
t-27 -11.5t-27.5 11.5t-11.5 27.5t11.5 27t27.5 11t27 -11t11 -27zM233 542q0 -16 -11.5 -27.5t-27.5 -11.5t-27 11.5t-11 27.5t11 27t27 11t27.5 -11t11.5 -27zM13 0h-23v53h15q59 0 90 40q26 34 26 92v233h56v-238q0 -94 -53 -141q-43 -39 -111 -39z" />
    <glyph glyph-name="uniFB65" unicode="&#x67f;" horiz-adv-x="297" arabic-form="medial" 
d="M139 642q0 -16 -11 -27.5t-27 -11.5t-27.5 11.5t-11.5 27.5q0 15 11.5 26.5t27.5 11.5q15 0 26.5 -11.5t11.5 -26.5zM236 642q0 -16 -11.5 -27.5t-27.5 -11.5t-27 11.5t-11 27.5q0 15 11.5 26.5t26.5 11.5q16 0 27.5 -11.5t11.5 -26.5zM139 542q0 -16 -11 -27.5
t-27 -11.5t-27.5 11.5t-11.5 27.5t11.5 27t27.5 11t27 -11t11 -27zM236 542q0 -16 -11.5 -27.5t-27.5 -11.5t-27 11.5t-11 27.5t11 27t27 11t27.5 -11t11.5 -27zM13 0h-23v53h15q59 0 90 40q26 34 26 92v233h56v-233q0 -67 34 -101q29 -31 82 -31h14v-53h-22q-95 0 -136 70
q-43 -70 -136 -70z" />
    <glyph glyph-name="uniFB66" unicode="&#x679;" horiz-adv-x="865" arabic-form="isolated" 
d="M506 436h-180v35h46v146h37v-100q19 30 45.5 47t53.5 17q33 0 52.5 -20t19.5 -53q0 -72 -74 -72zM411 471h91q39 0 39 37q0 36 -38 36q-50 0 -92 -73zM600 0h-300q-115 0 -174 71q-46 55 -46 135q0 62 33 113q32 48 87 73l27 -42q-44 -21 -68.5 -59.5t-24.5 -85.5
q0 -67 47 -110q44 -42 113 -42h293q132 0 132 132v233h56v-238q0 -94 -54 -141q-45 -39 -121 -39z" />
    <glyph glyph-name="uniFB67" unicode="&#x679;" horiz-adv-x="896" arabic-form="final" 
d="M506 436h-180v35h46v146h37v-100q19 30 45.5 47t53.5 17q33 0 52.5 -20t19.5 -53q0 -72 -74 -72zM411 471h91q39 0 39 37q0 36 -38 36q-50 0 -92 -73zM598 0h-298q-115 0 -174 71q-46 55 -46 135q0 62 33 113q32 48 87 73l27 -42q-44 -21 -68.5 -59.5t-24.5 -85.5
q0 -67 47 -110q44 -42 113 -42h293q132 0 132 132v233h56v-233q0 -67 34 -101q29 -31 82 -31h15v-53h-24q-94 0 -135 71q-44 -71 -149 -71z" />
    <glyph glyph-name="uniFB68" unicode="&#x679;" horiz-adv-x="266" arabic-form="initial" 
d="M199 526h-180v35h46v146h37v-100q19 30 45.5 47t53.5 17q33 0 52.5 -20t19.5 -53q0 -72 -74 -72zM104 561h91q39 0 39 37q0 36 -38 36q-50 0 -92 -73zM13 0h-23v53h15q59 0 90 40q26 34 26 92v233h56v-238q0 -94 -53 -141q-43 -39 -111 -39z" />
    <glyph glyph-name="uniFB69" unicode="&#x679;" horiz-adv-x="297" arabic-form="medial" 
d="M202 526h-180v35h46v146h37v-100q19 30 45.5 47t53.5 17q33 0 52.5 -20t19.5 -53q0 -72 -74 -72zM107 561h91q39 0 39 37q0 36 -38 36q-50 0 -92 -73zM13 0h-23v53h15q59 0 90 40q26 34 26 92v233h56v-233q0 -67 34 -101q29 -31 82 -31h14v-53h-22q-95 0 -136 70
q-43 -70 -136 -70z" />
    <glyph glyph-name="uniFB6A" unicode="&#x6a4;" horiz-adv-x="915" arabic-form="isolated" 
d="M700 629q0 -14 -11 -25t-25 -11q-15 0 -26 11t-11 25q0 15 11 26t26 11q14 0 25 -11t11 -26zM654 542q0 -16 -12 -28t-28 -12t-27.5 12t-11.5 28t11.5 27.5t27.5 11.5t28 -11.5t12 -27.5zM753 542q0 -16 -12 -28t-28 -12q-15 0 -27 12t-12 28q0 15 12 27t27 12
q16 0 28 -11.5t12 -27.5zM673 0h-373q-115 0 -174 71q-46 55 -46 135q0 62 33 113q32 48 87 73l27 -42q-44 -21 -68.5 -59.5t-24.5 -85.5q0 -67 47 -110q44 -42 113 -42h250q-52 60 -52 163q0 105 54 162q48 51 126 51q81 0 125 -51q38 -44 38 -116v-93q0 -82 -48 -128
q-44 -41 -114 -41zM548 215q0 -80 40 -125q34 -37 82 -37q109 0 109 123v77q0 62 -31 94q-27 29 -76 29q-64 0 -97 -50q-27 -42 -27 -111z" />
    <glyph glyph-name="uniFB6B" unicode="&#x6a4;" horiz-adv-x="945" arabic-form="final" 
d="M711 629q0 -14 -11 -25t-25 -11q-15 0 -26 11t-11 25q0 15 11 26t26 11q14 0 25 -11t11 -26zM664 542q0 -16 -11.5 -28t-27.5 -12t-27.5 12t-11.5 28t11.5 27.5t27.5 11.5t27.5 -11.5t11.5 -27.5zM764 542q0 -16 -12 -28t-28 -12t-27.5 12t-11.5 28t11.5 27.5t27.5 11.5
t28 -11.5t12 -27.5zM617 0h-317q-115 0 -174 71q-46 55 -46 135q0 62 33 113q32 48 87 73l27 -42q-44 -21 -68.5 -59.5t-24.5 -85.5q0 -67 47 -110q44 -42 113 -42h295q-45 32 -70.5 81.5t-25.5 103.5q0 91 52 144q49 50 128 50q91 0 140 -63q40 -52 40 -131q0 -57 -28 -109
q-25 -46 -68 -76h198v-53h-226q-28 0 -56 7q-28 -7 -56 -7zM673 56q64 28 97 81q28 45 28 100q0 65 -36 105q-33 37 -89 37q-64 0 -97 -47q-27 -37 -27 -94q0 -59 37 -111q33 -47 87 -71z" />
    <glyph glyph-name="uniFB6C" unicode="&#x6a4;" horiz-adv-x="530" arabic-form="initial" 
d="M325 629q0 -14 -11 -25t-25 -11q-15 0 -26 11t-11 25q0 15 11 26t26 11q14 0 25 -11t11 -26zM278 542q0 -16 -11.5 -28t-27.5 -12t-27.5 12t-11.5 28t11.5 27.5t27.5 11.5t27.5 -11.5t11.5 -27.5zM378 542q0 -16 -12 -28t-28 -12t-27.5 12t-11.5 28t11.5 27.5t27.5 11.5
t28 -11.5t12 -27.5zM287 0h-297v53h169q-53 59 -53 163q0 105 54 162q48 51 126 51q82 0 126 -51q38 -44 38 -116v-93q-1 -81 -49 -127q-44 -41 -114 -42zM162 215q0 -80 41 -125q33 -37 81 -37q110 0 110 123v77q0 62 -31 94q-27 29 -77 29q-64 0 -97 -50q-27 -42 -27 -111
z" />
    <glyph glyph-name="uniFB6D" unicode="&#x6a4;" horiz-adv-x="544" arabic-form="medial" 
d="M308 629q0 -14 -11 -25t-25 -11q-15 0 -26 11t-11 25q0 15 11 26t26 11q14 0 25 -11t11 -26zM262 542q0 -16 -12 -28t-28 -12t-27.5 12t-11.5 28t11.5 27.5t27.5 11.5t28 -11.5t12 -27.5zM361 542q0 -16 -12 -28t-28 -12t-27.5 12t-11.5 28t11.5 27.5t27.5 11.5t28 -11.5
t12 -27.5zM216 0h-226v53h198q-45 32 -70.5 81.5t-25.5 103.5q0 91 52 144q49 50 128 50q91 0 140 -63q40 -52 40 -131q0 -57 -28 -109q-25 -46 -68 -76h198v-53h-226q-28 0 -56 7q-28 -7 -56 -7zM272 56q64 28 97 81q28 45 28 100q0 65 -36 105q-33 37 -89 37
q-64 0 -97 -47q-27 -37 -27 -94q0 -59 37 -111q33 -47 87 -71z" />
    <glyph glyph-name="uniFB6E" unicode="&#x6a6;" horiz-adv-x="915" arabic-form="isolated" 
d="M654 642q0 -16 -11 -27.5t-27 -11.5t-27.5 11.5t-11.5 27.5q0 15 11.5 26.5t27.5 11.5q15 0 26.5 -11.5t11.5 -26.5zM751 642q0 -16 -11.5 -27.5t-27.5 -11.5t-27 11.5t-11 27.5q0 15 11.5 26.5t26.5 11.5q16 0 27.5 -11.5t11.5 -26.5zM654 542q0 -16 -11 -27.5
t-27 -11.5t-27.5 11.5t-11.5 27.5t11.5 27t27.5 11t27 -11t11 -27zM751 542q0 -16 -11.5 -27.5t-27.5 -11.5t-27 11.5t-11 27.5t11 27t27 11t27.5 -11t11.5 -27zM673 0h-373q-115 0 -174 71q-46 55 -46 135q0 62 33 113q32 48 87 73l27 -42q-44 -21 -68.5 -59.5t-24.5 -85.5
q0 -67 47 -110q44 -42 113 -42h250q-52 60 -52 163q0 105 54 162q48 51 126 51q81 0 125 -51q38 -44 38 -116v-93q0 -82 -48 -128q-44 -41 -114 -41zM548 215q0 -80 40 -125q34 -37 82 -37q109 0 109 123v77q0 62 -31 94q-27 29 -76 29q-64 0 -97 -50q-27 -42 -27 -111z" />
    <glyph glyph-name="uniFB6F" unicode="&#x6a6;" horiz-adv-x="945" arabic-form="final" 
d="M665 642q0 -16 -11.5 -27.5t-27.5 -11.5t-27 11.5t-11 27.5q0 15 11.5 26.5t26.5 11.5q16 0 27.5 -11.5t11.5 -26.5zM762 642q0 -16 -11.5 -27.5t-27.5 -11.5t-27.5 11.5t-11.5 27.5q0 15 11.5 26.5t27.5 11.5t27.5 -11.5t11.5 -26.5zM665 542q0 -16 -11.5 -27.5
t-27.5 -11.5t-27 11.5t-11 27.5t11 27t27 11t27.5 -11t11.5 -27zM762 542q0 -16 -11.5 -27.5t-27.5 -11.5t-27.5 11.5t-11.5 27.5t11.5 27t27.5 11t27.5 -11t11.5 -27zM617 0h-317q-115 0 -174 71q-46 55 -46 135q0 62 33 113q32 48 87 73l27 -42q-44 -21 -68.5 -59.5
t-24.5 -85.5q0 -67 47 -110q44 -42 113 -42h295q-45 32 -70.5 81.5t-25.5 103.5q0 91 52 144q49 50 128 50q91 0 140 -63q40 -52 40 -131q0 -57 -28 -109q-25 -46 -68 -76h198v-53h-226q-28 0 -56 7q-28 -7 -56 -7zM673 56q64 28 97 81q28 45 28 100q0 65 -36 105
q-33 37 -89 37q-64 0 -97 -47q-27 -37 -27 -94q0 -59 37 -111q33 -47 87 -71z" />
    <glyph glyph-name="uniFB70" unicode="&#x6a6;" horiz-adv-x="530" arabic-form="initial" 
d="M279 642q0 -16 -11.5 -27.5t-27.5 -11.5t-27 11.5t-11 27.5q0 15 11.5 26.5t26.5 11.5q16 0 27.5 -11.5t11.5 -26.5zM376 642q0 -16 -11.5 -27.5t-27.5 -11.5t-27.5 11.5t-11.5 27.5q0 15 11.5 26.5t27.5 11.5t27.5 -11.5t11.5 -26.5zM279 542q0 -16 -11.5 -27.5
t-27.5 -11.5t-27 11.5t-11 27.5t11 27t27 11t27.5 -11t11.5 -27zM376 542q0 -16 -11.5 -27.5t-27.5 -11.5t-27.5 11.5t-11.5 27.5t11.5 27t27.5 11t27.5 -11t11.5 -27zM287 0h-297v53h169q-53 59 -53 163q0 105 54 162q48 51 126 51q82 0 126 -51q38 -44 38 -116v-93
q-1 -81 -49 -127q-44 -41 -114 -42zM162 215q0 -80 41 -125q33 -37 81 -37q110 0 110 123v77q0 62 -31 94q-27 29 -77 29q-64 0 -97 -50q-27 -42 -27 -111z" />
    <glyph glyph-name="uniFB71" unicode="&#x6a6;" horiz-adv-x="544" arabic-form="medial" 
d="M262 642q0 -16 -11.5 -27.5t-26.5 -11.5q-16 0 -27.5 11.5t-11.5 27.5q0 15 11.5 26.5t27.5 11.5q15 0 26.5 -11.5t11.5 -26.5zM359 642q0 -16 -11.5 -27.5t-27.5 -11.5t-27.5 11.5t-11.5 27.5q0 15 11.5 26.5t27.5 11.5t27.5 -11.5t11.5 -26.5zM262 542
q0 -16 -11.5 -27.5t-26.5 -11.5q-16 0 -27.5 11.5t-11.5 27.5t11.5 27t27.5 11q15 0 26.5 -11.5t11.5 -26.5zM359 542q0 -16 -11.5 -27.5t-27.5 -11.5t-27.5 11.5t-11.5 27.5t11.5 27t27.5 11t27.5 -11t11.5 -27zM216 0h-226v53h198q-45 32 -70.5 81.5t-25.5 103.5
q0 91 52 144q49 50 128 50q91 0 140 -63q40 -52 40 -131q0 -57 -28 -109q-25 -46 -68 -76h198v-53h-226q-28 0 -56 7q-28 -7 -56 -7zM272 56q64 28 97 81q28 45 28 100q0 65 -36 105q-33 37 -89 37q-64 0 -97 -47q-27 -37 -27 -94q0 -59 37 -111q33 -47 87 -71z" />
    <glyph glyph-name="uniFB72" unicode="&#x684;" horiz-adv-x="576" arabic-form="isolated" 
d="M495 -312q-84 -55 -183 -55q-111 0 -180 76q-62 68 -62 172q0 155 128 243q107 74 288 89q-85 141 -199 141q-76 0 -148 -68l-34 37q80 84 182 84q85 0 158 -61q65 -54 101 -142v-36q-207 -10 -318 -92q-102 -74 -102 -196q0 -95 63 -149q53 -45 129 -45q83 0 152 44z
M367 -56q0 -16 -11 -27.5t-27 -11.5t-27.5 11.5t-11.5 27.5t11.5 27t27.5 11t27 -11t11 -27zM367 -150q0 -16 -11 -27.5t-27 -11.5t-27.5 11.5t-11.5 27.5t11.5 27t27.5 11t27 -11t11 -27z" />
    <glyph glyph-name="uniFB73" unicode="&#x684;" horiz-adv-x="674" arabic-form="final" 
d="M495 -312q-84 -55 -183 -55q-111 0 -180 76q-62 68 -62 172q0 155 128 243q107 74 288 89q-85 141 -199 141q-76 0 -148 -68l-34 37q80 84 182 84q85 0 158 -61q65 -54 101 -142v-36q-57 -3 -100 -10q23 -62 83 -86q48 -19 133 -19h22v-53h-27q-114 0 -176 38
q-58 35 -85 110q-136 -31 -206 -105q-64 -67 -64 -163q0 -95 63 -149q53 -45 129 -45q83 0 152 44zM363 -59q0 -16 -11.5 -27.5t-27.5 -11.5t-27 11.5t-11 27.5t11 27t27 11t27.5 -11t11.5 -27zM363 -154q0 -16 -11.5 -27t-27.5 -11t-27 11t-11 27t11 27.5t27 11.5
t27.5 -11.5t11.5 -27.5z" />
    <glyph glyph-name="uniFB74" unicode="&#x684;" horiz-adv-x="550" arabic-form="initial" 
d="M115 0h-125v53h120q122 0 189.5 30.5t146.5 120.5q-89 150 -205 150q-76 0 -148 -68l-34 37q80 84 182 84q85 0 158 -61q65 -54 101 -142v-14q-47 -61 -83 -94t-77 -54q-84 -42 -225 -42zM284 -121q0 -16 -11.5 -27t-27.5 -11t-27 11t-11 27t11 27.5t27 11.5t27.5 -11.5
t11.5 -27.5zM284 -215q0 -16 -11.5 -27.5t-27.5 -11.5t-27 11.5t-11 27.5t11 27.5t27 11.5t27.5 -11.5t11.5 -27.5z" />
    <glyph glyph-name="uniFB75" unicode="&#x684;" horiz-adv-x="671" arabic-form="medial" 
d="M115 0h-125v53h120q122 0 189.5 30.5t146.5 120.5q-89 150 -205 150q-76 0 -148 -68l-34 37q80 84 182 84q85 0 158 -61q65 -54 101 -142v-14q-21 -27 -47 -57q26 -47 83 -65q46 -15 123 -15h22v-53h-27q-94 0 -152 25q-54 23 -85 71q-55 -51 -125.5 -73.5t-176.5 -22.5z
M311 -121q0 -16 -11.5 -27t-27.5 -11t-27 11t-11 27t11 27.5t27 11.5t27.5 -11.5t11.5 -27.5zM311 -215q0 -16 -11.5 -27.5t-27.5 -11.5t-27 11.5t-11 27.5t11 27.5t27 11.5t27.5 -11.5t11.5 -27.5z" />
    <glyph glyph-name="uniFB76" unicode="&#x683;" horiz-adv-x="576" arabic-form="isolated" 
d="M495 -312q-84 -55 -183 -55q-111 0 -180 76q-62 68 -62 172q0 155 128 243q107 74 288 89q-85 141 -199 141q-76 0 -148 -68l-34 37q80 84 182 84q85 0 158 -61q65 -54 101 -142v-36q-207 -10 -318 -92q-102 -74 -102 -196q0 -95 63 -149q53 -45 129 -45q83 0 152 44z
M330 -123q0 -16 -11.5 -27.5t-27.5 -11.5t-28 11.5t-12 27.5t12 27.5t28 11.5t27.5 -11.5t11.5 -27.5zM429 -123q0 -16 -11.5 -27.5t-27.5 -11.5t-27.5 11.5t-11.5 27.5t11.5 27.5t27.5 11.5t27.5 -11.5t11.5 -27.5z" />
    <glyph glyph-name="uniFB77" unicode="&#x683;" horiz-adv-x="674" arabic-form="final" 
d="M495 -312q-84 -55 -183 -55q-111 0 -180 76q-62 68 -62 172q0 155 128 243q107 74 288 89q-85 141 -199 141q-76 0 -148 -68l-34 37q80 84 182 84q85 0 158 -61q65 -54 101 -142v-36q-57 -3 -100 -10q23 -62 83 -86q48 -19 133 -19h22v-53h-27q-114 0 -176 38
q-58 35 -85 110q-136 -31 -206 -105q-64 -67 -64 -163q0 -95 63 -149q53 -45 129 -45q83 0 152 44zM330 -123q0 -16 -11.5 -27.5t-27.5 -11.5t-28 11.5t-12 27.5t12 27.5t28 11.5t27.5 -11.5t11.5 -27.5zM429 -123q0 -16 -11.5 -27.5t-27.5 -11.5t-27.5 11.5t-11.5 27.5
t11.5 27.5t27.5 11.5t27.5 -11.5t11.5 -27.5z" />
    <glyph glyph-name="uniFB78" unicode="&#x683;" horiz-adv-x="550" arabic-form="initial" 
d="M115 0h-125v53h120q122 0 189.5 30.5t146.5 120.5q-89 150 -205 150q-76 0 -148 -68l-34 37q80 84 182 84q85 0 158 -61q65 -54 101 -142v-14q-47 -61 -83 -94t-77 -54q-84 -42 -225 -42zM233 -121q0 -16 -11.5 -28t-27.5 -12t-28 12t-12 28t12 27.5t28 11.5t27.5 -11.5
t11.5 -27.5zM332 -121q0 -16 -11.5 -28t-27.5 -12t-27.5 12t-11.5 28t11.5 27.5t27.5 11.5t27.5 -11.5t11.5 -27.5z" />
    <glyph glyph-name="uniFB79" unicode="&#x683;" horiz-adv-x="671" arabic-form="medial" 
d="M115 0h-125v53h120q122 0 189.5 30.5t146.5 120.5q-89 150 -205 150q-76 0 -148 -68l-34 37q80 84 182 84q85 0 158 -61q65 -54 101 -142v-14q-21 -27 -47 -57q26 -47 83 -65q46 -15 123 -15h22v-53h-27q-94 0 -152 25q-54 23 -85 71q-55 -51 -125.5 -73.5t-176.5 -22.5z
M244 -121q0 -16 -11.5 -28t-27.5 -12t-27.5 12t-11.5 28t11.5 27.5t27.5 11.5t27.5 -11.5t11.5 -27.5zM344 -121q0 -16 -12 -28t-28 -12t-27.5 12t-11.5 28t11.5 27.5t27.5 11.5t28 -11.5t12 -27.5z" />
    <glyph glyph-name="uniFB7A" unicode="&#x686;" horiz-adv-x="576" arabic-form="isolated" 
d="M470 -270l25 -42q-84 -55 -183 -55q-111 0 -180 76q-62 68 -62 172q0 155 128 243q107 74 288 89q-85 141 -199 141q-76 0 -148 -68l-34 37q80 84 182 84q85 0 158 -61q65 -54 101 -142v-36q-207 -10 -318 -92q-102 -74 -102 -196q0 -95 63 -149q53 -45 129 -45
q83 0 152 44zM337 -56q0 -15 -11 -26t-26 -11t-26 11t-11 26q0 14 11 25t26 11t26 -11t11 -25zM437 -56q0 -15 -11 -26t-26 -11q-14 0 -25 11t-11 26q0 14 11 25t25 11q15 0 26 -11t11 -25zM389 -140q0 -16 -11.5 -28t-27.5 -12t-27.5 12t-11.5 28t11.5 27.5t27.5 11.5
t27.5 -11.5t11.5 -27.5z" />
    <glyph glyph-name="uniFB7B" unicode="&#x686;" horiz-adv-x="674" arabic-form="final" 
d="M495 -312q-84 -55 -183 -55q-111 0 -180 76q-62 68 -62 172q0 155 128 243q107 74 288 89q-85 141 -199 141q-76 0 -148 -68l-34 37q80 84 182 84q85 0 158 -61q65 -54 101 -142v-36q-57 -3 -100 -10q23 -62 83 -86q48 -19 133 -19h22v-53h-27q-114 0 -176 38
q-58 35 -85 110q-136 -31 -206 -105q-64 -67 -64 -163q0 -95 63 -149q53 -45 129 -45q83 0 152 44zM330 -74q0 -14 -11.5 -25t-25.5 -11t-24.5 11t-10.5 25t10.5 24.5t24.5 10.5q15 0 26 -10.5t11 -24.5zM427 -74q0 -14 -11 -25t-25 -11t-25 11t-11 25t11 24.5t25 10.5
t25 -10.5t11 -24.5zM380 -156q0 -15 -11.5 -26.5t-26.5 -11.5t-26.5 11.5t-11.5 26.5t11.5 26.5t26.5 11.5q16 0 27 -11t11 -27z" />
    <glyph glyph-name="uniFB7C" unicode="&#x686;" horiz-adv-x="550" arabic-form="initial" 
d="M115 0h-125v53h120q122 0 189.5 30.5t146.5 120.5q-89 150 -205 150q-76 0 -148 -68l-34 37q80 84 182 84q85 0 158 -61q65 -54 101 -142v-14q-47 -61 -83 -94t-77 -54q-84 -42 -225 -42zM235 -121q0 -16 -11.5 -28t-27.5 -12t-28 12t-12 28t12 27.5t28 11.5t27.5 -11.5
t11.5 -27.5zM334 -121q0 -16 -11.5 -28t-27.5 -12t-28 12t-12 28t12 27.5t28 11.5t27.5 -11.5t11.5 -27.5zM282 -209q0 -15 -11 -26t-26 -11t-26 11t-11 26t11 26t26 11t26 -11t11 -26z" />
    <glyph glyph-name="uniFB7D" unicode="&#x686;" horiz-adv-x="671" arabic-form="medial" 
d="M115 0h-125v53h120q122 0 189.5 30.5t146.5 120.5q-89 150 -205 150q-76 0 -148 -68l-34 37q80 84 182 84q85 0 158 -61q65 -54 101 -142v-14q-21 -27 -47 -57q26 -47 83 -65q46 -15 123 -15h22v-53h-27q-94 0 -152 25q-54 23 -85 71q-55 -51 -125.5 -73.5t-176.5 -22.5z
M262 -121q0 -16 -11.5 -28t-27.5 -12t-28 12t-12 28t12 27.5t28 11.5t27.5 -11.5t11.5 -27.5zM361 -121q0 -16 -11.5 -28t-27.5 -12t-28 12t-12 28t12 27.5t28 11.5t27.5 -11.5t11.5 -27.5zM309 -209q0 -15 -11 -26t-26 -11t-26 11t-11 26t11 26t26 11t26 -11t11 -26z" />
    <glyph glyph-name="uniFB7E" unicode="&#x687;" horiz-adv-x="576" arabic-form="isolated" 
d="M495 -312q-84 -55 -183 -55q-111 0 -180 76q-62 68 -62 172q0 155 128 243q107 74 288 89q-85 141 -199 141q-76 0 -148 -68l-34 37q80 84 182 84q85 0 158 -61q65 -54 101 -142v-36q-207 -10 -318 -92q-102 -74 -102 -196q0 -95 63 -149q53 -45 129 -45q83 0 152 44z
M340 -46q0 -15 -10.5 -25.5t-25.5 -10.5t-25.5 10.5t-10.5 25.5t10.5 25.5t25.5 10.5t25.5 -10.5t10.5 -25.5zM430 -46q0 -15 -10.5 -25.5t-25.5 -10.5t-25.5 10.5t-10.5 25.5t10.5 25.5t25.5 10.5t25.5 -10.5t10.5 -25.5zM340 -136q0 -14 -11 -25t-25 -11q-15 0 -25.5 10.5
t-10.5 25.5t10.5 26t25.5 11q14 0 25 -11t11 -26zM430 -136q0 -15 -10.5 -25.5t-25.5 -10.5t-25.5 10.5t-10.5 25.5t10.5 26t25.5 11t25.5 -11t10.5 -26z" />
    <glyph glyph-name="uniFB7F" unicode="&#x687;" horiz-adv-x="674" arabic-form="final" 
d="M495 -312q-84 -55 -183 -55q-111 0 -180 76q-62 68 -62 172q0 155 128 243q107 74 288 89q-85 141 -199 141q-76 0 -148 -68l-34 37q80 84 182 84q85 0 158 -61q65 -54 101 -142v-36q-57 -3 -100 -10q23 -62 83 -86q48 -19 133 -19h22v-53h-27q-114 0 -176 38
q-58 35 -85 110q-136 -31 -206 -105q-64 -67 -64 -163q0 -95 63 -149q53 -45 129 -45q83 0 152 44zM328 -62q0 -15 -10.5 -25.5t-25.5 -10.5t-25.5 10.5t-10.5 25.5t10.5 25.5t25.5 10.5t25.5 -10.5t10.5 -25.5zM418 -62q0 -15 -10.5 -25.5t-25.5 -10.5t-25.5 10.5
t-10.5 25.5t10.5 25.5t25.5 10.5t25.5 -10.5t10.5 -25.5zM328 -152q0 -15 -10.5 -25.5t-25.5 -10.5t-25.5 10.5t-10.5 25.5t10.5 25.5t25.5 10.5t25.5 -10.5t10.5 -25.5zM418 -152q0 -15 -10.5 -25.5t-25.5 -10.5t-25.5 10.5t-10.5 25.5t10.5 25.5t25.5 10.5t25.5 -10.5
t10.5 -25.5z" />
    <glyph glyph-name="uniFB80" unicode="&#x687;" horiz-adv-x="550" arabic-form="initial" 
d="M115 0h-125v53h120q122 0 189.5 30.5t146.5 120.5q-89 150 -205 150q-76 0 -148 -68l-34 37q80 84 182 84q85 0 158 -61q65 -54 101 -142v-14q-47 -61 -83 -94t-77 -54q-84 -42 -225 -42zM236 -121q0 -16 -11.5 -27t-27.5 -11t-27.5 11t-11.5 27t11.5 27.5t27.5 11.5
t27.5 -11.5t11.5 -27.5zM332 -121q0 -16 -11.5 -27t-27.5 -11q-15 0 -26.5 11.5t-11.5 26.5q0 16 11.5 27.5t26.5 11.5q16 0 27.5 -11.5t11.5 -27.5zM236 -217q0 -16 -11.5 -27.5t-27.5 -11.5t-27.5 11.5t-11.5 27.5t11.5 27.5t27.5 11.5t27.5 -11.5t11.5 -27.5zM332 -217
q0 -16 -11.5 -27.5t-27.5 -11.5q-15 0 -26.5 11.5t-11.5 27.5t11.5 27.5t26.5 11.5q16 0 27.5 -11.5t11.5 -27.5z" />
    <glyph glyph-name="uniFB81" unicode="&#x687;" horiz-adv-x="671" arabic-form="medial" 
d="M115 0h-125v53h120q122 0 189.5 30.5t146.5 120.5q-89 150 -205 150q-76 0 -148 -68l-34 37q80 84 182 84q85 0 158 -61q65 -54 101 -142v-14q-21 -27 -47 -57q26 -47 83 -65q46 -15 123 -15h22v-53h-27q-94 0 -152 25q-54 23 -85 71q-55 -51 -125.5 -73.5t-176.5 -22.5z
M263 -121q0 -16 -11.5 -27t-27.5 -11t-27.5 11t-11.5 27t11.5 27.5t27.5 11.5t27.5 -11.5t11.5 -27.5zM359 -121q0 -16 -11.5 -27t-27.5 -11q-15 0 -26.5 11.5t-11.5 26.5q0 16 11.5 27.5t26.5 11.5q16 0 27.5 -11.5t11.5 -27.5zM263 -217q0 -16 -11.5 -27.5t-27.5 -11.5
t-27.5 11.5t-11.5 27.5t11.5 27.5t27.5 11.5t27.5 -11.5t11.5 -27.5zM359 -217q0 -16 -11.5 -27.5t-27.5 -11.5q-15 0 -26.5 11.5t-11.5 27.5t11.5 27.5t26.5 11.5q16 0 27.5 -11.5t11.5 -27.5z" />
    <glyph glyph-name="uniFB82" unicode="&#x68d;" horiz-adv-x="452" arabic-form="isolated" 
d="M226 0h-206v53h190q61 0 88 28q24 24 24 73q0 62 -36 123q-35 57 -96 104l32 45q79 -59 120 -136q35 -67 35 -136q0 -77 -40 -117q-39 -37 -111 -37zM206 -121q0 -16 -12 -28t-28 -12t-27.5 12t-11.5 28t11.5 27.5t27.5 11.5t28 -11.5t12 -27.5zM305 -121
q0 -16 -11.5 -28t-27.5 -12t-28 12t-12 28t12 27.5t28 11.5t27.5 -11.5t11.5 -27.5z" />
    <glyph glyph-name="uniFB83" unicode="&#x68d;" horiz-adv-x="496" arabic-form="final" 
d="M226 0h-206v53h190q61 0 88 28q24 24 24 73q0 62 -36 123q-35 57 -96 104l32 45q79 -59 119 -134q36 -65 36 -133q0 -53 37 -82q31 -24 76 -24h16v-53h-23q-85 0 -129 60q-35 -60 -128 -60zM229 -121q0 -16 -11.5 -28t-27.5 -12t-27.5 12t-11.5 28t11.5 27.5t27.5 11.5
t27.5 -11.5t11.5 -27.5zM329 -121q0 -16 -12 -28t-28 -12t-27.5 12t-11.5 28t11.5 27.5t27.5 11.5t28 -11.5t12 -27.5z" />
    <glyph glyph-name="uniFB84" unicode="&#x68c;" horiz-adv-x="452" arabic-form="isolated" 
d="M186 542q0 -16 -11.5 -28t-27.5 -12t-27.5 12t-11.5 28t11.5 27.5t27.5 11.5t27.5 -11.5t11.5 -27.5zM285 542q0 -16 -11.5 -28t-27.5 -12t-27.5 12t-11.5 28t11.5 27.5t27.5 11.5t27.5 -11.5t11.5 -27.5zM226 0h-206v53h190q61 0 88 28q24 24 24 73q0 62 -36 123
q-35 57 -96 104l32 45q79 -59 120 -136q35 -67 35 -136q0 -77 -40 -117q-39 -37 -111 -37z" />
    <glyph glyph-name="uniFB85" unicode="&#x68c;" horiz-adv-x="496" arabic-form="final" 
d="M185 542q0 -16 -12 -28t-28 -12t-27.5 12t-11.5 28t11.5 27.5t27.5 11.5t28 -11.5t12 -27.5zM284 542q0 -16 -12 -28t-28 -12t-27.5 12t-11.5 28t11.5 27.5t27.5 11.5t28 -11.5t12 -27.5zM226 0h-206v53h190q61 0 88 28q24 24 24 73q0 62 -36 123q-35 57 -96 104l32 45
q79 -59 119 -134q36 -65 36 -133q0 -53 37 -82q31 -24 76 -24h16v-53h-23q-85 0 -129 60q-35 -60 -128 -60z" />
    <glyph glyph-name="uniFB86" unicode="&#x68e;" horiz-adv-x="452" arabic-form="isolated" 
d="M233 629q0 -14 -11 -25t-26 -11q-14 0 -25.5 11t-11.5 25q0 15 11 26t26 11t26 -11t11 -26zM186 542q0 -16 -11.5 -28t-27.5 -12t-27.5 12t-11.5 28t11.5 27.5t27.5 11.5t27.5 -11.5t11.5 -27.5zM285 542q0 -16 -11.5 -28t-27.5 -12t-27.5 12t-11.5 28t11.5 27.5
t27.5 11.5t27.5 -11.5t11.5 -27.5zM226 0h-206v53h190q61 0 88 28q24 24 24 73q0 62 -36 123q-35 57 -96 104l32 45q79 -59 120 -136q35 -67 35 -136q0 -77 -40 -117q-39 -37 -111 -37z" />
    <glyph glyph-name="uniFB87" unicode="&#x68e;" horiz-adv-x="496" arabic-form="final" 
d="M231 629q0 -14 -11 -25t-25 -11q-15 0 -26 11t-11 25q0 15 11 26t26 11q14 0 25 -11t11 -26zM185 542q0 -16 -12 -28t-28 -12t-27.5 12t-11.5 28t11.5 27.5t27.5 11.5t28 -11.5t12 -27.5zM284 542q0 -16 -12 -28t-28 -12t-27.5 12t-11.5 28t11.5 27.5t27.5 11.5t28 -11.5
t12 -27.5zM226 0h-206v53h190q61 0 88 28q24 24 24 73q0 62 -36 123q-35 57 -96 104l32 45q79 -59 119 -134q36 -65 36 -133q0 -53 37 -82q31 -24 76 -24h16v-53h-23q-85 0 -129 60q-35 -60 -128 -60z" />
    <glyph glyph-name="uniFB88" unicode="&#x688;" horiz-adv-x="452" arabic-form="isolated" 
d="M249 526h-180v35h46v146h38v-100q41 64 99 64q33 0 52 -20t19 -53q0 -72 -74 -72zM154 561h91q40 0 40 37q0 36 -39 36q-49 0 -92 -73zM226 0h-206v53h190q61 0 88 28q24 24 24 73q0 62 -36 123q-35 57 -96 104l32 45q79 -59 120 -136q35 -67 35 -136q0 -77 -40 -117
q-39 -37 -111 -37z" />
    <glyph glyph-name="uniFB89" unicode="&#x688;" horiz-adv-x="496" arabic-form="final" 
d="M248 526h-181v35h47v146h37v-100q19 30 45.5 47t53.5 17q33 0 52.5 -20t19.5 -53q0 -72 -74 -72zM153 561h91q39 0 39 37q0 36 -38 36q-50 0 -92 -73zM226 0h-206v53h190q61 0 88 28q24 24 24 73q0 62 -36 123q-35 57 -96 104l32 45q79 -59 119 -134q36 -65 36 -133
q0 -53 37 -82q31 -24 76 -24h16v-53h-23q-85 0 -129 60q-35 -60 -128 -60z" />
    <glyph glyph-name="uniFB8A" unicode="&#x698;" horiz-adv-x="334" arabic-form="isolated" 
d="M252 629q0 -14 -11 -25t-26 -11q-14 0 -25 11t-11 25q0 15 11 26t25 11q15 0 26 -11t11 -26zM205 542q0 -16 -11.5 -28t-27.5 -12t-27.5 12t-11.5 28t11.5 27.5t27.5 11.5t27.5 -11.5t11.5 -27.5zM304 542q0 -16 -11.5 -28t-27.5 -12t-27.5 12t-11.5 28t11.5 27.5
t27.5 11.5t27.5 -11.5t11.5 -27.5zM244 418v-402q0 -107 -56 -161q-47 -45 -121 -45q-54 0 -117 30l16 48q50 -25 95 -25q63 0 96 43q31 39 31 106v406h56z" />
    <glyph glyph-name="uniFB8B" unicode="&#x698;" horiz-adv-x="365" arabic-form="final" 
d="M250 629q0 -14 -11 -25t-26 -11t-26 11t-11 25q0 15 11 26t26 11t26 -11t11 -26zM203 542q0 -16 -12 -28t-28 -12t-27.5 12t-11.5 28t11.5 27.5t27.5 11.5t28 -11.5t12 -27.5zM302 542q0 -16 -11.5 -28t-27.5 -12t-28 12t-12 28t12 27.5t28 11.5t27.5 -11.5t11.5 -27.5z
M244 39v-28q-2 -103 -56 -156q-46 -45 -121 -45q-54 0 -117 30l16 48q50 -25 95 -25q63 0 96 43q31 39 31 106v406h56v-233q0 -67 34 -101q29 -31 82 -31h15v-53h-24q-68 0 -107 39z" />
    <glyph glyph-name="uniFB8C" unicode="&#x691;" horiz-adv-x="334" arabic-form="isolated" 
d="M268 526h-180v35h46v146h38v-100q41 64 99 64q33 0 52 -20t19 -53q0 -72 -74 -72zM174 561h91q39 0 39 37q0 36 -39 36q-49 0 -91 -73zM244 418v-402q0 -107 -56 -161q-47 -45 -121 -45q-54 0 -117 30l16 48q50 -25 95 -25q63 0 96 43q31 39 31 106v406h56z" />
    <glyph glyph-name="uniFB8D" unicode="&#x691;" horiz-adv-x="365" arabic-form="final" 
d="M266 526h-180v35h46v146h37v-100q19 30 45.5 47t53.5 17q33 0 52.5 -20t19.5 -53q0 -72 -74 -72zM171 561h91q39 0 39 37q0 36 -38 36q-50 0 -92 -73zM244 39v-28q-2 -103 -56 -156q-46 -45 -121 -45q-54 0 -117 30l16 48q50 -25 95 -25q63 0 96 43q31 39 31 106v406h56
v-233q0 -67 34 -101q29 -31 82 -31h15v-53h-24q-68 0 -107 39z" />
    <glyph glyph-name="uniFB8E" unicode="&#x6a9;" horiz-adv-x="902" arabic-form="isolated" 
d="M521 375h156q175 0 175 -181v-10q0 -97 -54 -144q-45 -40 -123 -40h-381q-113 0 -169 61q-45 49 -45 129q0 66 33 118q31 49 86 74l28 -43q-44 -21 -67.5 -60t-23.5 -89q0 -67 46 -104q42 -33 111 -33h372q132 0 132 139v7q0 67 -32 96q-30 27 -91 27h-218v53l218 226
l32 -32z" />
    <glyph glyph-name="uniFB8F" unicode="&#x6a9;" horiz-adv-x="969" arabic-form="final" 
d="M675 0h-381q-113 0 -169 61q-45 49 -45 129q0 66 33 118q31 49 86 74l28 -43q-44 -21 -67.5 -60t-23.5 -89q0 -67 46 -104q42 -33 111 -33h372q132 0 132 139v7q0 67 -32 96q-30 27 -91 27h-218v53l218 226l32 -32l-185 -194h156q175 0 175 -181v-14q0 -62 32 -96
q29 -31 79 -31h16v-53h-24q-92 0 -133 71q-42 -71 -147 -71z" />
    <glyph glyph-name="uniFB90" unicode="&#x6a9;" horiz-adv-x="547" arabic-form="initial" 
d="M321 0h-331v53h321q131 0 131 139v7q0 67 -32 96q-29 27 -90 27h-266v53l218 226l32 -32l-186 -194h204q175 0 175 -181v-10q0 -97 -53 -144q-45 -40 -123 -40z" />
    <glyph glyph-name="uniFB91" unicode="&#x6a9;" horiz-adv-x="615" arabic-form="medial" 
d="M321 0h-331v53h321q131 0 131 135v15q0 119 -122 119h-266v53l218 226l32 -32l-186 -194h204q91 0 136 -49q39 -43 39 -119v-22q0 -68 35 -103q29 -29 78 -29h15v-53h-24q-43 0 -77.5 18.5t-54.5 52.5q-44 -71 -148 -71z" />
    <glyph glyph-name="uniFB92" unicode="&#x6af;" horiz-adv-x="902" arabic-form="isolated" 
d="M446 425l-27 28l186 199l27 -28zM521 375h156q175 0 175 -181v-10q0 -97 -54 -144q-45 -40 -123 -40h-381q-113 0 -169 61q-45 49 -45 129q0 66 33 118q31 49 86 74l28 -43q-44 -21 -67.5 -60t-23.5 -89q0 -67 46 -104q42 -33 111 -33h372q132 0 132 139v7q0 67 -32 96
q-30 27 -91 27h-218v53l218 226l32 -32z" />
    <glyph glyph-name="uniFB93" unicode="&#x6af;" horiz-adv-x="969" arabic-form="final" 
d="M446 425l-27 28l186 199l27 -28zM675 0h-381q-113 0 -169 61q-45 49 -45 129q0 66 33 118q31 49 86 74l28 -43q-44 -21 -67.5 -60t-23.5 -89q0 -67 46 -104q42 -33 111 -33h372q132 0 132 139v7q0 67 -32 96q-30 27 -91 27h-218v53l218 226l32 -32l-185 -194h156
q175 0 175 -181v-14q0 -62 32 -96q29 -31 79 -31h16v-53h-24q-92 0 -133 71q-42 -71 -147 -71z" />
    <glyph glyph-name="uniFB94" unicode="&#x6af;" horiz-adv-x="547" arabic-form="initial" 
d="M44 425l-27 28l186 199l27 -28zM321 0h-331v53h321q131 0 131 139v7q0 67 -32 96q-29 27 -90 27h-266v53l218 226l32 -32l-186 -194h204q175 0 175 -181v-10q0 -97 -53 -144q-45 -40 -123 -40z" />
    <glyph glyph-name="uniFB95" unicode="&#x6af;" horiz-adv-x="615" arabic-form="medial" 
d="M44 425l-27 28l186 199l27 -28zM321 0h-331v53h321q131 0 131 135v15q0 119 -122 119h-266v53l218 226l32 -32l-186 -194h204q91 0 136 -49q39 -43 39 -119v-22q0 -68 35 -103q29 -29 78 -29h15v-53h-24q-43 0 -77.5 18.5t-54.5 52.5q-44 -71 -148 -71z" />
    <glyph glyph-name="uniFB96" unicode="&#x6b3;" horiz-adv-x="902" arabic-form="isolated" 
d="M446 425l-27 28l186 199l27 -28zM521 375h156q175 0 175 -181v-10q0 -97 -54 -144q-45 -40 -123 -40h-381q-113 0 -169 61q-45 49 -45 129q0 66 33 118q31 49 86 74l28 -43q-44 -21 -67.5 -60t-23.5 -89q0 -67 46 -104q42 -33 111 -33h372q132 0 132 139v7q0 67 -32 96
q-30 27 -91 27h-218v53l218 226l32 -32zM513 -121q0 -16 -11.5 -27t-27.5 -11t-27.5 11t-11.5 27t11.5 27.5t27.5 11.5t27.5 -11.5t11.5 -27.5zM513 -215q0 -16 -11.5 -27.5t-27.5 -11.5t-27.5 11.5t-11.5 27.5t11.5 27.5t27.5 11.5t27.5 -11.5t11.5 -27.5z" />
    <glyph glyph-name="uniFB97" unicode="&#x6b3;" horiz-adv-x="969" arabic-form="final" 
d="M446 425l-27 28l186 199l27 -28zM675 0h-381q-113 0 -169 61q-45 49 -45 129q0 66 33 118q31 49 86 74l28 -43q-44 -21 -67.5 -60t-23.5 -89q0 -67 46 -104q42 -33 111 -33h372q132 0 132 139v7q0 67 -32 96q-30 27 -91 27h-218v53l218 226l32 -32l-185 -194h156
q175 0 175 -181v-14q0 -62 32 -96q29 -31 79 -31h16v-53h-24q-92 0 -133 71q-42 -71 -147 -71zM513 -121q0 -16 -11.5 -27t-27.5 -11t-27.5 11t-11.5 27t11.5 27.5t27.5 11.5t27.5 -11.5t11.5 -27.5zM513 -215q0 -16 -11.5 -27.5t-27.5 -11.5t-27.5 11.5t-11.5 27.5
t11.5 27.5t27.5 11.5t27.5 -11.5t11.5 -27.5z" />
    <glyph glyph-name="uniFB98" unicode="&#x6b3;" horiz-adv-x="547" arabic-form="initial" 
d="M44 425l-27 28l186 199l27 -28zM321 0h-331v53h321q131 0 131 139v7q0 67 -32 96q-29 27 -90 27h-266v53l218 226l32 -32l-186 -194h204q175 0 175 -181v-10q0 -97 -53 -144q-45 -40 -123 -40zM228 -121q0 -16 -11.5 -27t-27.5 -11t-27.5 11t-11.5 27t11.5 27.5
t27.5 11.5t27.5 -11.5t11.5 -27.5zM228 -215q0 -16 -11.5 -27.5t-27.5 -11.5t-27.5 11.5t-11.5 27.5t11.5 27.5t27.5 11.5t27.5 -11.5t11.5 -27.5z" />
    <glyph glyph-name="uniFB99" unicode="&#x6b3;" horiz-adv-x="615" arabic-form="medial" 
d="M44 425l-27 28l186 199l27 -28zM321 0h-331v53h321q131 0 131 135v15q0 119 -122 119h-266v53l218 226l32 -32l-186 -194h204q91 0 136 -49q39 -43 39 -119v-22q0 -68 35 -103q29 -29 78 -29h15v-53h-24q-43 0 -77.5 18.5t-54.5 52.5q-44 -71 -148 -71zM248 -121
q0 -16 -11.5 -27t-27.5 -11t-27.5 11t-11.5 27t11.5 27.5t27.5 11.5t27.5 -11.5t11.5 -27.5zM248 -215q0 -16 -11.5 -27.5t-27.5 -11.5t-27.5 11.5t-11.5 27.5t11.5 27.5t27.5 11.5t27.5 -11.5t11.5 -27.5z" />
    <glyph glyph-name="uniFB9A" unicode="&#x6b1;" horiz-adv-x="902" arabic-form="isolated" 
d="M410 650q0 -16 -11.5 -27.5t-27.5 -11.5t-27.5 11.5t-11.5 27.5t11.5 27.5t27.5 11.5t27.5 -11.5t11.5 -27.5zM509 650q0 -16 -11.5 -27.5t-27.5 -11.5t-27.5 11.5t-11.5 27.5t11.5 27.5t27.5 11.5t27.5 -11.5t11.5 -27.5zM446 425l-27 28l186 199l27 -28zM521 375h156
q175 0 175 -181v-10q0 -97 -54 -144q-45 -40 -123 -40h-381q-113 0 -169 61q-45 49 -45 129q0 66 33 118q31 49 86 74l28 -43q-44 -21 -67.5 -60t-23.5 -89q0 -67 46 -104q42 -33 111 -33h372q132 0 132 139v7q0 67 -32 96q-30 27 -91 27h-218v53l218 226l32 -32z" />
    <glyph glyph-name="uniFB9B" unicode="&#x6b1;" horiz-adv-x="969" arabic-form="final" 
d="M410 650q0 -16 -11.5 -27.5t-27.5 -11.5t-27.5 11.5t-11.5 27.5t11.5 27.5t27.5 11.5t27.5 -11.5t11.5 -27.5zM509 650q0 -16 -11.5 -27.5t-27.5 -11.5t-27.5 11.5t-11.5 27.5t11.5 27.5t27.5 11.5t27.5 -11.5t11.5 -27.5zM446 425l-27 28l186 199l27 -28zM675 0h-381
q-113 0 -169 61q-45 49 -45 129q0 66 33 118q31 49 86 74l28 -43q-44 -21 -67.5 -60t-23.5 -89q0 -67 46 -104q42 -33 111 -33h372q132 0 132 139v7q0 67 -32 96q-30 27 -91 27h-218v53l218 226l32 -32l-185 -194h156q175 0 175 -181v-14q0 -62 32 -96q29 -31 79 -31h16v-53
h-24q-92 0 -133 71q-42 -71 -147 -71z" />
    <glyph glyph-name="uniFB9C" unicode="&#x6b1;" horiz-adv-x="547" arabic-form="initial" 
d="M4 667q0 -16 -12 -27.5t-28 -11.5t-27.5 11.5t-11.5 27.5t11.5 27.5t27.5 11.5t28 -11.5t12 -27.5zM103 667q0 -16 -12 -27.5t-28 -11.5q-15 0 -27 12t-12 27t12 27t27 12q16 0 28 -11.5t12 -27.5zM44 425l-27 28l186 199l27 -28zM321 0h-331v53h321q131 0 131 139v7
q0 67 -32 96q-29 27 -90 27h-266v53l218 226l32 -32l-186 -194h204q175 0 175 -181v-10q0 -97 -53 -144q-45 -40 -123 -40z" />
    <glyph glyph-name="uniFB9D" unicode="&#x6b1;" horiz-adv-x="615" arabic-form="medial" 
d="M4 667q0 -16 -12 -27.5t-28 -11.5t-27.5 11.5t-11.5 27.5t11.5 27.5t27.5 11.5t28 -11.5t12 -27.5zM103 667q0 -16 -12 -27.5t-28 -11.5q-15 0 -27 12t-12 27t12 27t27 12q16 0 28 -11.5t12 -27.5zM44 425l-27 28l186 199l27 -28zM321 0h-331v53h321q131 0 131 135v15
q0 119 -122 119h-266v53l218 226l32 -32l-186 -194h204q91 0 136 -49q39 -43 39 -119v-22q0 -68 35 -103q29 -29 78 -29h15v-53h-24q-43 0 -77.5 18.5t-54.5 52.5q-44 -71 -148 -71z" />
    <glyph glyph-name="uniFB9E" unicode="&#x6ba;" horiz-adv-x="664" arabic-form="isolated" 
d="M574 418v-364q0 -124 -81 -190q-67 -55 -172 -55q-123 0 -192 78q-59 67 -59 172q0 90 46 157l45 -22q-36 -66 -36 -136q0 -89 58 -145q53 -51 138 -51q93 0 147 57q50 52 50 136v363h56z" />
    <glyph glyph-name="uniFB9F" unicode="&#x6ba;" horiz-adv-x="694" arabic-form="final" 
d="M572 28q-9 -112 -86 -170q-65 -49 -165 -49q-123 0 -192 78q-59 67 -59 172q0 90 46 157l45 -22q-36 -66 -36 -136q0 -89 58 -145q53 -51 138 -51q93 0 147 57q50 52 50 136v363h56v-233q0 -67 34 -101q29 -31 82 -31h14v-53h-23q-67 0 -109 39v-11z" />
    <glyph glyph-name="uniFBA0" unicode="&#x6bb;" horiz-adv-x="664" arabic-form="isolated" 
d="M352 412h-180v35h46v145h37v-99q19 30 45.5 47t53.5 17q33 0 52.5 -20t19.5 -53q0 -72 -74 -72zM257 447h91q39 0 39 37q0 35 -38 35q-51 0 -92 -72zM574 418v-364q0 -124 -81 -190q-67 -55 -172 -55q-123 0 -192 78q-59 67 -59 172q0 90 46 157l45 -22q-36 -66 -36 -136
q0 -89 58 -145q53 -51 138 -51q93 0 147 57q50 52 50 136v363h56z" />
    <glyph glyph-name="uniFBA1" unicode="&#x6bb;" horiz-adv-x="694" arabic-form="final" 
d="M352 412h-180v35h46v145h37v-99q19 30 45.5 47t53.5 17q33 0 52.5 -20t19.5 -53q0 -72 -74 -72zM257 447h91q39 0 39 37q0 35 -38 35q-51 0 -92 -72zM572 28q-9 -112 -86 -170q-65 -49 -165 -49q-123 0 -192 78q-59 67 -59 172q0 90 46 157l45 -22q-36 -66 -36 -136
q0 -89 58 -145q53 -51 138 -51q93 0 147 57q50 52 50 136v363h56v-233q0 -67 34 -101q29 -31 82 -31h14v-53h-23q-67 0 -109 39v-11z" />
    <glyph glyph-name="uniFBA2" unicode="&#x6bb;" horiz-adv-x="266" arabic-form="initial" 
d="M199 526h-180v35h46v146h37v-100q19 30 45.5 47t53.5 17q33 0 52.5 -20t19.5 -53q0 -72 -74 -72zM104 561h91q39 0 39 37q0 36 -38 36q-50 0 -92 -73zM13 0h-23v53h15q59 0 90 40q26 34 26 92v233h56v-238q0 -94 -53 -141q-43 -39 -111 -39z" />
    <glyph glyph-name="uniFBA3" unicode="&#x6bb;" horiz-adv-x="297" arabic-form="medial" 
d="M202 526h-180v35h46v146h37v-100q19 30 45.5 47t53.5 17q33 0 52.5 -20t19.5 -53q0 -72 -74 -72zM107 561h91q39 0 39 37q0 36 -38 36q-50 0 -92 -73zM13 0h-23v53h15q59 0 90 40q26 34 26 92v233h56v-233q0 -67 34 -101q29 -31 82 -31h14v-53h-22q-95 0 -136 70
q-43 -70 -136 -70z" />
    <glyph glyph-name="uniFBA4" unicode="&#x6c0;" horiz-adv-x="496" arabic-form="isolated" 
d="M323 518h-157v32h35q-9 18 -9 33q0 27 19 45t48 18q30 0 50 -17l-13 -25q-17 11 -34 11q-16 0 -26 -8.5t-10 -23.5q0 -16 14 -33h83v-32zM262 -8h-28q-81 0 -126 67q-40 58 -40 153q0 108 54 166q48 51 126 51q90 0 138 -66q42 -57 42 -151q0 -109 -51 -168
q-44 -52 -115 -52zM124 211q0 -83 33 -127q30 -39 81 -39h20q58 0 88 51q26 43 26 115q0 83 -36 126q-32 39 -88 39q-65 0 -97 -50q-27 -43 -27 -115z" />
    <glyph glyph-name="uniFBA5" unicode="&#x6c0;" horiz-adv-x="534" arabic-form="final" 
d="M317 558h-157v33h36q-10 16 -10 33q0 27 19.5 44.5t48.5 17.5q31 0 49 -17l-13 -25q-15 11 -34 11q-35 0 -35 -32q0 -16 13 -32h83v-33zM544 0h-22q-106 0 -146 88q-55 -61 -137 -61q-79 0 -126 59q-43 55 -43 144q0 104 66 161q57 49 146 49h75v49h56v-304
q0 -68 35 -102q30 -30 81 -30h15v-53zM357 386h-74q-82 0 -122 -46q-35 -40 -35 -109q0 -76 35 -116q30 -35 78 -35q66 0 121 59q-3 20 -3 41v206z" />
    <glyph glyph-name="uniFBA6" unicode="&#x6c1;" horiz-adv-x="496" arabic-form="isolated" 
d="M262 -8h-28q-81 0 -126 67q-40 58 -40 153q0 108 54 166q48 51 126 51q90 0 138 -66q42 -57 42 -151q0 -109 -51 -168q-44 -52 -115 -52zM124 211q0 -83 33 -127q30 -39 81 -39h20q58 0 88 51q26 43 26 115q0 83 -36 126q-32 39 -88 39q-65 0 -97 -50q-27 -43 -27 -115z
" />
    <glyph glyph-name="uniFBA7" unicode="&#x6c1;" horiz-adv-x="642" arabic-form="final" 
d="M624 0q-81 0 -131 61q-18 22 -55 92q-22 41 -39 58q-24 25 -56 25q-124 0 -272 -237l-45 28q63 121 153 195q86 70 167 70q57 0 96 -42q20 -22 56 -89q33 -61 60 -83q31 -25 73 -25h21v-53h-28z" />
    <glyph glyph-name="uniFBA8" unicode="&#x6c1;" horiz-adv-x="266" arabic-form="initial" 
d="M13 0h-23v53h15q59 0 90 40q26 34 26 92v233h56v-238q0 -94 -53 -141q-43 -39 -111 -39zM39 -262l-52 19l62 187l41 -9z" />
    <glyph glyph-name="uniFBA9" unicode="&#x6c1;" horiz-adv-x="567" arabic-form="medial" 
d="M577 0h-13q-56 0 -82 -18t-35 -59t-9 -136v-87h-40q-129 0 -194 91q-50 71 -50 181q0 57 14 116q-66 -88 -161 -88h-17v53h14q55 0 102 42t102 141l46 -20q-44 -126 -44 -234q0 -109 46 -167q44 -56 125 -56v43q0 142 36 194q40 57 142 57h18v-53z" />
    <glyph glyph-name="uniFBAA" unicode="&#x6be;" horiz-adv-x="595" arabic-form="isolated" 
d="M147 0h-157v53h109q6 0 21 1h18q-33 26 -51.5 64.5t-18.5 79.5q0 64 40 106q39 41 103 41q71 0 110 -51q31 -40 31 -97q0 -43 -18 -80.5t-51 -62.5q19 -1 76 -1q59 0 87 31q23 25 23 67q0 52 -26 104q-32 63 -94 104q-74 49 -184 60l11 48q173 -15 273 -129
q76 -86 76 -187q0 -72 -40 -112q-40 -39 -112 -39h-98q-35 0 -65 10q-30 -10 -63 -10zM211 65q39 17 62 53.5t23 80.5q0 46 -25 72q-22 24 -60 24q-43 0 -66 -30q-20 -25 -20 -64q0 -44 23.5 -81t62.5 -55z" />
    <glyph glyph-name="uniFBAB" unicode="&#x6be;" horiz-adv-x="644" arabic-form="final" 
d="M147 0h-157v53h110q6 0 20 1h18q-33 26 -51.5 64.5t-18.5 79.5q0 64 40 106q39 41 103 41q71 0 110 -51q31 -40 31 -97q0 -43 -18 -80.5t-51 -62.5q21 -1 76 -1q59 0 87 31q23 25 23 67q0 52 -26 104q-32 63 -94 104q-74 49 -184 60l11 48q173 -15 272 -124
q76 -84 76 -183q0 -52 35 -81q31 -26 80 -26h15v-53h-23q-88 0 -130 62q-37 -62 -128 -62h-98q-35 0 -65 10q-30 -10 -63 -10zM211 65q39 17 62 53.5t23 80.5q0 46 -25 72q-22 24 -60 24q-43 0 -66 -30q-20 -25 -20 -64q0 -44 23.5 -81t62.5 -55z" />
    <glyph glyph-name="uniFBAC" unicode="&#x6be;" horiz-adv-x="595" arabic-form="initial" 
d="M147 0h-157v53h109q6 0 21 1h18q-33 26 -51.5 64.5t-18.5 79.5q0 64 40 106q39 41 103 41q71 0 110 -51q31 -40 31 -97q0 -43 -18 -80.5t-51 -62.5q19 -1 76 -1q59 0 87 31q23 25 23 67q0 52 -26 104q-32 63 -94 104q-74 49 -184 60l11 48q173 -15 273 -129
q76 -86 76 -187q0 -72 -40 -112q-40 -39 -112 -39h-98q-35 0 -65 10q-30 -10 -63 -10zM211 65q39 17 62 53.5t23 80.5q0 46 -25 72q-22 24 -60 24q-43 0 -66 -30q-20 -25 -20 -64q0 -44 23.5 -81t62.5 -55z" />
    <glyph glyph-name="uniFBAD" unicode="&#x6be;" horiz-adv-x="644" arabic-form="medial" 
d="M147 0h-157v53h110q6 0 20 1h18q-33 26 -51.5 64.5t-18.5 79.5q0 64 40 106q39 41 103 41q71 0 110 -51q31 -40 31 -97q0 -43 -18 -80.5t-51 -62.5q21 -1 76 -1q59 0 87 31q23 25 23 67q0 52 -26 104q-32 63 -94 104q-74 49 -184 60l11 48q173 -15 272 -124
q76 -84 76 -183q0 -52 35 -81q31 -26 80 -26h15v-53h-23q-88 0 -130 62q-37 -62 -128 -62h-98q-35 0 -65 10q-30 -10 -63 -10zM211 65q39 17 62 53.5t23 80.5q0 46 -25 72q-22 24 -60 24q-43 0 -66 -30q-20 -25 -20 -64q0 -44 23.5 -81t62.5 -55z" />
    <glyph glyph-name="uniFBAE" unicode="&#x6d2;" horiz-adv-x="842" arabic-form="isolated" 
d="M757 0h-554q-164 0 -164 149q0 83 50 125q45 39 124 39h99v26q0 92 49 136q39 36 108 36q32 0 55.5 -8t50.5 -29l-24 -45q-34 28 -81 28q-103 0 -103 -135v-63h-151q-120 0 -120 -109q0 -52 27 -74.5t88 -22.5h566z" />
    <glyph glyph-name="uniFBAF" unicode="&#x6d2;" horiz-adv-x="749" arabic-form="final" 
d="M759 0h-189q-200 0 -320 -31q-121 -32 -121 -89q0 -29 25 -42t82 -13h369l-18 -53h-348q-93 0 -132 28q-34 24 -34 72q0 102 151 146q121 35 345 35h190v-53z" />
    <glyph glyph-name="uniFBB0" unicode="&#x6d3;" horiz-adv-x="842" arabic-form="isolated" 
d="M246 464h-157v33h35q-9 17 -9 33q0 27 19 44.5t48 17.5q32 0 50 -17l-13 -25q-15 11 -34 11q-36 0 -36 -32q0 -17 14 -32h83v-33zM757 0h-554q-164 0 -164 149q0 83 50 125q45 39 124 39h99v26q0 92 49 136q39 36 108 36q32 0 55.5 -8t50.5 -29l-24 -45q-34 28 -81 28
q-103 0 -103 -135v-63h-151q-120 0 -120 -109q0 -52 27 -74.5t88 -22.5h566z" />
    <glyph glyph-name="uniFBB1" unicode="&#x6d3;" horiz-adv-x="749" arabic-form="final" 
d="M526 171h-157v33h36q-10 16 -10 33q0 27 19.5 45t48.5 18q30 0 49 -18l-12 -25q-18 12 -35 12q-16 0 -25.5 -9t-9.5 -24q0 -16 13 -32h83v-33zM759 0h-189q-200 0 -320 -31q-121 -32 -121 -89q0 -29 25 -42t82 -13h369l-18 -53h-348q-93 0 -132 28q-34 24 -34 72
q0 102 151 146q121 35 345 35h190v-53z" />
    <glyph glyph-name="uniFBD3" unicode="&#x6ad;" horiz-adv-x="865" arabic-form="isolated" 
d="M780 877q0 -15 -11 -26t-25 -11q-15 0 -26 11t-11 26t11 26t26 11q14 0 25 -11.5t11 -25.5zM733 789q0 -16 -11.5 -27.5t-27.5 -11.5t-27.5 11.5t-11.5 27.5t11.5 27.5t27.5 11.5t27.5 -11.5t11.5 -27.5zM833 789q0 -16 -12 -27.5t-28 -11.5t-27.5 11.5t-11.5 27.5
t11.5 27.5t27.5 11.5t28 -11.5t12 -27.5zM600 0h-300q-115 0 -174 71q-46 55 -46 135q0 62 33 113q32 48 87 73l27 -42q-44 -21 -68.5 -59.5t-24.5 -85.5q0 -67 47 -110q44 -42 113 -42h293q132 0 132 132v481h56v-486q0 -94 -54 -141q-45 -39 -121 -39zM466 362h-92v29h88
q40 0 40 32q0 20 -14 31.5t-38 11.5q-23 0 -49 -8v29l80 89l18 -14l-58 -66q44 2 69 -19q22 -19 22 -53q0 -29 -17.5 -45.5t-48.5 -16.5z" />
    <glyph glyph-name="uniFBD4" unicode="&#x6ad;" horiz-adv-x="896" arabic-form="final" 
d="M780 877q0 -15 -11 -26t-25 -11q-15 0 -26 11t-11 26t11 26t26 11q14 0 25 -11.5t11 -25.5zM733 789q0 -16 -11.5 -27.5t-27.5 -11.5t-27.5 11.5t-11.5 27.5t11.5 27.5t27.5 11.5t27.5 -11.5t11.5 -27.5zM833 789q0 -16 -12 -27.5t-28 -11.5t-27.5 11.5t-11.5 27.5
t11.5 27.5t27.5 11.5t28 -11.5t12 -27.5zM598 0h-298q-115 0 -174 71q-46 55 -46 135q0 62 33 113q32 48 87 73l27 -42q-44 -21 -68.5 -59.5t-24.5 -85.5q0 -67 47 -110q44 -42 113 -42h293q132 0 132 132v481h56v-481q0 -67 34 -101q29 -31 82 -31h15v-53h-24
q-94 0 -135 71q-44 -71 -149 -71zM466 362h-92v29h88q40 0 40 32q0 20 -14 31.5t-38 11.5q-23 0 -49 -8v29l80 89l18 -14l-58 -66q44 2 69 -19q22 -19 22 -53q0 -29 -17.5 -45.5t-48.5 -16.5z" />
    <glyph glyph-name="uniFBD5" unicode="&#x6ad;" horiz-adv-x="547" arabic-form="initial" 
d="M153 722q0 -14 -11 -25t-26 -11q-14 0 -25 11t-11 25q0 15 11 26t25 11q15 0 26 -11t11 -26zM106 635q0 -16 -11.5 -28t-27.5 -12t-27.5 12t-11.5 28t11.5 27.5t27.5 11.5t27.5 -11.5t11.5 -27.5zM205 635q0 -16 -11.5 -28t-27.5 -12t-27.5 12t-11.5 28t11.5 27.5
t27.5 11.5t27.5 -11.5t11.5 -27.5zM321 0h-331v53h321q131 0 131 139v7q0 67 -32 96q-29 27 -90 27h-266v53l218 226l32 -32l-186 -194h204q175 0 175 -181v-10q0 -97 -53 -144q-45 -40 -123 -40z" />
    <glyph glyph-name="uniFBD6" unicode="&#x6ad;" horiz-adv-x="615" arabic-form="medial" 
d="M153 722q0 -14 -11 -25t-26 -11q-14 0 -25 11t-11 25q0 15 11 26t25 11q15 0 26 -11t11 -26zM106 635q0 -16 -11.5 -28t-27.5 -12t-27.5 12t-11.5 28t11.5 27.5t27.5 11.5t27.5 -11.5t11.5 -27.5zM205 635q0 -16 -11.5 -28t-27.5 -12t-27.5 12t-11.5 28t11.5 27.5
t27.5 11.5t27.5 -11.5t11.5 -27.5zM321 0h-331v53h321q131 0 131 135v15q0 119 -122 119h-266v53l218 226l32 -32l-186 -194h204q91 0 136 -49q39 -43 39 -119v-22q0 -68 35 -103q29 -29 78 -29h15v-53h-24q-43 0 -77.5 18.5t-54.5 52.5q-44 -71 -148 -71z" />
    <glyph glyph-name="uniFBD7" unicode="&#x6c7;" horiz-adv-x="493" arabic-form="isolated" 
d="M275 534l-113 -20l-4 30l98 18q-21 18 -21 48q0 23 14 38t35 15q24 0 38.5 -15t14.5 -40q0 -28 -17.5 -48.5t-44.5 -25.5zM287 571q21 9 21 36q0 29 -23 29q-20 0 -20 -28q0 -24 22 -37zM358 41q-47 -36 -112 -36q-86 0 -134 64q-42 57 -42 149q0 104 54 161
q48 50 126 50q81 0 125 -51q38 -44 38 -116v-246q0 -108 -56 -162q-47 -44 -122 -44q-61 0 -129 34l17 48q58 -29 106 -29q63 0 97 42q32 38 32 107v29zM358 100v153q0 123 -108 123q-63 0 -96 -50q-28 -42 -28 -109q0 -83 43 -126q34 -34 88 -34q62 0 101 43z" />
    <glyph glyph-name="uniFBD8" unicode="&#x6c7;" horiz-adv-x="517" arabic-form="final" 
d="M275 534l-113 -20l-4 30l98 18q-21 18 -21 48q0 23 14 38t35 15q24 0 38.5 -15t14.5 -40q0 -28 -17.5 -48.5t-44.5 -25.5zM287 571q21 9 21 36q0 29 -23 29q-20 0 -20 -28q0 -24 22 -37zM413 0q-4 -99 -60 -149q-46 -41 -118 -41q-61 0 -129 34l17 48q58 -29 106 -29
q60 0 94 38q31 36 34 99h-86q-104 0 -157 67q-44 56 -44 151q0 104 54 161q48 50 126 50q81 0 125 -51q38 -44 38 -116v-209h114v-53h-114zM358 53v200q0 123 -108 123q-63 0 -96 -50q-28 -42 -28 -109q0 -87 46 -129q38 -35 104 -35h82z" />
    <glyph glyph-name="uniFBD9" unicode="&#x6c6;" horiz-adv-x="493" arabic-form="isolated" 
d="M191 648l57 -98l54 98h52l-83 -141h-45l-87 141h52zM358 41q-47 -36 -112 -36q-86 0 -134 64q-42 57 -42 149q0 104 54 161q48 50 126 50q81 0 125 -51q38 -44 38 -116v-246q0 -108 -56 -162q-47 -44 -122 -44q-61 0 -129 34l17 48q58 -29 106 -29q63 0 97 42
q32 38 32 107v29zM358 100v153q0 123 -108 123q-63 0 -96 -50q-28 -42 -28 -109q0 -83 43 -126q34 -34 88 -34q62 0 101 43z" />
    <glyph glyph-name="uniFBDA" unicode="&#x6c6;" horiz-adv-x="517" arabic-form="final" 
d="M191 648l57 -98l54 98h52l-83 -141h-45l-87 141h52zM413 0q-4 -99 -60 -149q-46 -41 -118 -41q-61 0 -129 34l17 48q58 -29 106 -29q60 0 94 38q31 36 34 99h-86q-104 0 -157 67q-44 56 -44 151q0 104 54 161q48 50 126 50q81 0 125 -51q38 -44 38 -116v-209h114v-53
h-114zM358 53v200q0 123 -108 123q-63 0 -96 -50q-28 -42 -28 -109q0 -87 46 -129q38 -35 104 -35h82z" />
    <glyph glyph-name="uniFBDB" unicode="&#x6c8;" horiz-adv-x="493" arabic-form="isolated" 
d="M264 514h-36v116h36v-116zM358 41q-47 -36 -112 -36q-86 0 -134 64q-42 57 -42 149q0 104 54 161q48 50 126 50q81 0 125 -51q38 -44 38 -116v-246q0 -108 -56 -162q-47 -44 -122 -44q-61 0 -129 34l17 48q58 -29 106 -29q63 0 97 42q32 38 32 107v29zM358 100v153
q0 123 -108 123q-63 0 -96 -50q-28 -42 -28 -109q0 -83 43 -126q34 -34 88 -34q62 0 101 43z" />
    <glyph glyph-name="uniFBDC" unicode="&#x6c8;" horiz-adv-x="517" arabic-form="final" 
d="M264 514h-36v116h36v-116zM413 0q-4 -99 -60 -149q-46 -41 -118 -41q-61 0 -129 34l17 48q58 -29 106 -29q60 0 94 38q31 36 34 99h-86q-104 0 -157 67q-44 56 -44 151q0 104 54 161q48 50 126 50q81 0 125 -51q38 -44 38 -116v-209h114v-53h-114zM358 53v200
q0 123 -108 123q-63 0 -96 -50q-28 -42 -28 -109q0 -87 46 -129q38 -35 104 -35h82z" />
    <glyph glyph-name="uniFBDD" unicode="&#x677;" horiz-adv-x="493" arabic-form="isolated" 
d="M208 591l-113 -19l-5 29l99 18q-22 20 -22 48q0 23 14.5 38.5t35.5 15.5q24 0 38.5 -15t14.5 -40q0 -28 -17.5 -49t-44.5 -26zM220 629q21 9 21 35q0 13 -6.5 21.5t-16.5 8.5q-21 0 -21 -29q0 -25 23 -36zM441 520h-157v32h35q-9 17 -9 33q0 27 19 45t48 18t50 -17
l-13 -26q-16 12 -34 12q-16 0 -26 -8.5t-10 -23.5q0 -17 13 -33h84v-32zM358 41q-47 -36 -112 -36q-86 0 -134 64q-42 57 -42 149q0 104 54 161q48 50 126 50q81 0 125 -51q38 -44 38 -116v-246q0 -108 -56 -162q-47 -44 -122 -44q-61 0 -129 34l17 48q58 -29 106 -29
q63 0 97 42q32 38 32 107v29zM358 100v153q0 123 -108 123q-63 0 -96 -50q-28 -42 -28 -109q0 -83 43 -126q34 -34 88 -34q62 0 101 43z" />
    <glyph glyph-name="uniFBDE" unicode="&#x6cb;" horiz-adv-x="493" arabic-form="isolated" 
d="M283 629q0 -14 -11 -25t-25 -11q-15 0 -26 11t-11 25q0 15 11 26t26 11q14 0 25 -11t11 -26zM237 542q0 -16 -12 -28t-28 -12t-27.5 12t-11.5 28t11.5 27.5t27.5 11.5t28 -11.5t12 -27.5zM336 542q0 -16 -12 -28t-28 -12q-15 0 -27 12t-12 28q0 15 12 27t27 12
q16 0 28 -11.5t12 -27.5zM358 41q-47 -36 -112 -36q-86 0 -134 64q-42 57 -42 149q0 104 54 161q48 50 126 50q81 0 125 -51q38 -44 38 -116v-246q0 -108 -56 -162q-47 -44 -122 -44q-61 0 -129 34l17 48q58 -29 106 -29q63 0 97 42q32 38 32 107v29zM358 100v153
q0 123 -108 123q-63 0 -96 -50q-28 -42 -28 -109q0 -83 43 -126q34 -34 88 -34q62 0 101 43z" />
    <glyph glyph-name="uniFBDF" unicode="&#x6cb;" horiz-adv-x="517" arabic-form="final" 
d="M283 629q0 -14 -11 -25t-25 -11q-15 0 -26 11t-11 25q0 15 11 26t26 11q14 0 25 -11t11 -26zM237 542q0 -16 -12 -28t-28 -12t-27.5 12t-11.5 28t11.5 27.5t27.5 11.5t28 -11.5t12 -27.5zM336 542q0 -16 -12 -28t-28 -12q-15 0 -27 12t-12 28q0 15 12 27t27 12
q16 0 28 -11.5t12 -27.5zM413 0q-4 -99 -60 -149q-46 -41 -118 -41q-61 0 -129 34l17 48q58 -29 106 -29q60 0 94 38q31 36 34 99h-86q-104 0 -157 67q-44 56 -44 151q0 104 54 161q48 50 126 50q81 0 125 -51q38 -44 38 -116v-209h114v-53h-114zM358 53v200q0 123 -108 123
q-63 0 -96 -50q-28 -42 -28 -109q0 -87 46 -129q38 -35 104 -35h82z" />
    <glyph glyph-name="uniFBE0" unicode="&#x6c5;" horiz-adv-x="493" arabic-form="isolated" 
d="M358 41q-47 -36 -112 -36q-86 0 -134 64q-42 57 -42 149q0 104 54 161q48 50 126 50q81 0 125 -51q38 -44 38 -116v-246q0 -108 -56 -162q-47 -44 -122 -44q-61 0 -129 34l17 48q58 -29 106 -29q84 0 115 70h-142v26h150q6 24 6 53v29zM358 100v153q0 123 -108 123
q-63 0 -96 -50q-28 -42 -28 -109q0 -83 43 -126q34 -34 88 -34q62 0 101 43z" />
    <glyph glyph-name="uniFBE1" unicode="&#x6c5;" horiz-adv-x="517" arabic-form="final" 
d="M413 262v-209h114v-53h-114q-4 -99 -60 -149q-46 -41 -118 -41q-61 0 -129 34l17 48q58 -29 106 -29q83 0 114 70h-141v26h149q4 18 6 41h-86q-104 0 -157 67q-44 56 -44 151q0 104 54 161q48 50 126 50q81 0 125 -51q38 -44 38 -116zM358 53v200q0 123 -108 123
q-63 0 -96 -50q-28 -42 -28 -109q0 -87 46 -129q38 -35 104 -35h82z" />
    <glyph glyph-name="uniFBE2" unicode="&#x6c9;" horiz-adv-x="493" arabic-form="isolated" 
d="M302 509l-56 97l-55 -97h-52l83 140h46l86 -140h-52zM358 41q-47 -36 -112 -36q-86 0 -134 64q-42 57 -42 149q0 104 54 161q48 50 126 50q81 0 125 -51q38 -44 38 -116v-246q0 -108 -56 -162q-47 -44 -122 -44q-61 0 -129 34l17 48q58 -29 106 -29q63 0 97 42
q32 38 32 107v29zM358 100v153q0 123 -108 123q-63 0 -96 -50q-28 -42 -28 -109q0 -83 43 -126q34 -34 88 -34q62 0 101 43z" />
    <glyph glyph-name="uniFBE3" unicode="&#x6c9;" horiz-adv-x="517" arabic-form="final" 
d="M302 509l-56 97l-55 -97h-52l83 140h46l86 -140h-52zM413 0q-4 -99 -60 -149q-46 -41 -118 -41q-61 0 -129 34l17 48q58 -29 106 -29q60 0 94 38q31 36 34 99h-86q-104 0 -157 67q-44 56 -44 151q0 104 54 161q48 50 126 50q81 0 125 -51q38 -44 38 -116v-209h114v-53
h-114zM358 53v200q0 123 -108 123q-63 0 -96 -50q-28 -42 -28 -109q0 -87 46 -129q38 -35 104 -35h82z" />
    <glyph glyph-name="uniFBE4" unicode="&#x6d0;" horiz-adv-x="698" arabic-form="isolated" 
d="M579 368h-99q-51 0 -80 -23q-30 -24 -30 -71q0 -58 47 -92q20 -14 100 -46q67 -27 93 -58q28 -34 28 -85q0 -84 -85 -139q-79 -51 -203 -51q-143 0 -218 81q-62 67 -62 175q0 90 46 157l45 -22q-36 -66 -36 -136q0 -92 63 -148q60 -54 162 -54q113 0 180 49q53 38 53 87
q0 43 -47 71q-17 10 -74 33q-70 28 -101 58q-47 44 -47 119q0 72 52 114q43 35 105 34h108v-53zM387 -314q0 -16 -11 -27t-27 -11t-27.5 11t-11.5 27t11.5 27.5t27.5 11.5t27 -11.5t11 -27.5zM387 -408q0 -16 -11 -27.5t-27 -11.5t-27.5 11.5t-11.5 27.5t11.5 27.5
t27.5 11.5t27 -11.5t11 -27.5z" />
    <glyph glyph-name="uniFBE5" unicode="&#x6d0;" horiz-adv-x="644" arabic-form="final" 
d="M638 0q0 -93 -87 -148q-78 -49 -201 -49q-143 0 -218 81q-62 67 -62 175q0 90 46 157l45 -22q-36 -66 -36 -136q0 -92 63 -148q60 -54 162 -54q108 0 174 45q59 40 59 99h-94v53h165v-53h-16zM387 -312q0 -16 -11 -27t-27 -11t-27.5 11t-11.5 27t11.5 27.5t27.5 11.5
t27 -11.5t11 -27.5zM387 -406q0 -16 -11 -27.5t-27 -11.5t-27.5 11.5t-11.5 27.5t11.5 27.5t27.5 11.5t27 -11.5t11 -27.5z" />
    <glyph glyph-name="uniFBE6" unicode="&#x6d0;" horiz-adv-x="266" arabic-form="initial" 
d="M-10 0v53h15q59 0 90 40q26 34 26 92v233h56v-238q0 -94 -53 -141q-43 -39 -111 -39h-23zM91 -254q-16 0 -27 11.5t-11 27.5t11 27.5t27 11.5t27.5 -11.5t11.5 -27.5t-11.5 -27.5t-27.5 -11.5zM91 -159q-16 0 -27 11t-11 27t11 27.5t27 11.5t27.5 -11.5t11.5 -27.5
t-11.5 -27t-27.5 -11z" />
    <glyph glyph-name="uniFBE7" unicode="&#x6d0;" horiz-adv-x="297" arabic-form="medial" 
d="M-10 0v53h15q59 0 90 40q26 34 26 92v233h56v-233q0 -67 34 -101q29 -31 82 -31h14v-53h-22q-95 0 -136 70q-43 -70 -136 -70h-23zM144 -254q-16 0 -27.5 11.5t-11.5 27.5t11.5 27.5t27.5 11.5q15 0 26.5 -11.5t11.5 -27.5t-11.5 -27.5t-26.5 -11.5zM144 -159
q-16 0 -27.5 11t-11.5 27t11.5 27.5t27.5 11.5q15 0 26.5 -11.5t11.5 -27.5q0 -15 -11.5 -26.5t-26.5 -11.5z" />
    <glyph glyph-name="uniFBE8" unicode="&#x649;" horiz-adv-x="266" arabic-form="initial" 
d="M13 0h-23v53h15q59 0 90 40q26 34 26 92v233h56v-238q0 -94 -53 -141q-43 -39 -111 -39z" />
    <glyph glyph-name="uniFBE9" unicode="&#x649;" horiz-adv-x="297" arabic-form="medial" 
d="M13 0h-23v53h15q59 0 90 40q26 34 26 92v233h56v-233q0 -67 34 -101q29 -31 82 -31h14v-53h-22q-95 0 -136 70q-43 -70 -136 -70z" />
    <glyph glyph-name="uniFBFC" unicode="&#x6cc;" horiz-adv-x="698" arabic-form="isolated" 
d="M579 368h-99q-51 0 -80 -23q-30 -24 -30 -71q0 -58 47 -92q20 -14 100 -46q67 -27 93 -58q28 -34 28 -85q0 -84 -85 -139q-79 -51 -203 -51q-143 0 -218 81q-62 67 -62 175q0 90 46 157l45 -22q-36 -66 -36 -136q0 -92 63 -148q60 -54 162 -54q113 0 180 49q53 38 53 87
q0 43 -47 71q-17 10 -74 33q-70 28 -101 58q-47 44 -47 119q0 72 52 114q43 35 105 34h108v-53z" />
    <glyph glyph-name="uniFBFD" unicode="&#x6cc;" horiz-adv-x="644" arabic-form="final" 
d="M638 0q0 -93 -87 -148q-78 -49 -201 -49q-143 0 -218 81q-62 67 -62 175q0 90 46 157l45 -22q-36 -66 -36 -136q0 -92 63 -148q60 -54 162 -54q108 0 174 45q59 40 59 99h-94v53h165v-53h-16z" />
    <glyph glyph-name="uniFBFE" unicode="&#x6cc;" horiz-adv-x="266" arabic-form="initial" 
d="M-10 0v53h15q59 0 90 40q26 34 26 92v233h56v-238q0 -94 -53 -141q-43 -39 -111 -39h-23zM33 -161q-16 0 -28 12t-12 28t12 27.5t28 11.5t27.5 -11.5t11.5 -27.5t-11.5 -28t-27.5 -12zM132 -161q-16 0 -27.5 12t-11.5 28t11.5 27.5t27.5 11.5t27.5 -11.5t11.5 -27.5
t-11.5 -28t-27.5 -12z" />
    <glyph glyph-name="uniFBFF" unicode="&#x6cc;" horiz-adv-x="297" arabic-form="medial" 
d="M-10 0v53h15q59 0 90 40q26 34 26 92v233h56v-233q0 -67 34 -101q29 -31 82 -31h14v-53h-22q-95 0 -136 70q-43 -70 -136 -70h-23zM92 -161q-15 0 -27 12t-12 28q0 15 12 27t27 12q16 0 28 -11.5t12 -27.5t-12 -28t-28 -12zM192 -161q-16 0 -28 12t-12 28t12 27.5
t28 11.5t27.5 -11.5t11.5 -27.5t-11.5 -28t-27.5 -12z" />
    <glyph glyph-name="uniFCF3" unicode="&#xfcf3;" horiz-adv-x="116" arabic-form="medial" 
d="M87 672l-113 -19l-5 29l98 18q-21 20 -21 48q0 23 14 38.5t36 15.5q23 0 37.5 -15.5t14.5 -39.5q0 -28 -17 -49t-44 -26zM98 710q21 8 21 35q0 13 -6.5 21.5t-16.5 8.5q-9 0 -14.5 -8t-5.5 -21q0 -25 22 -36zM58 533q-17 -17 -38 -17q-22 0 -36 13.5t-14 34.5v59h29v-55
q0 -22 22 -22t22 21v39h30v-39q0 -21 22 -21t22 22v55h29v-59q0 -21 -14 -34.5t-36 -13.5q-24 0 -38 17zM126 0h-136v53h136v-53z" />
    <glyph glyph-name="uniFCF4" unicode="&#xfcf4;" horiz-adv-x="116" arabic-form="medial" 
d="M57 633q-18 -16 -38 -16q-22 0 -36 13.5t-14 34.5v58h29v-54q0 -22 22 -22q23 0 23 21v38h29v-38q0 -21 22 -21t22 22v54h29v-58q0 -21 -14 -34.5t-36 -13.5q-24 0 -38 16zM141 542l-155 -28l-7 37l156 28zM126 0h-136v53h136v-53z" />
    <glyph glyph-name="uniFD3C" unicode="&#xfd3c;" horiz-adv-x="270" arabic-form="final" 
d="M193 780l-149 -27l-6 31l150 27zM198 711l-150 -28l-6 31l150 28zM280 0h-29q-80 0 -123 48q-38 42 -38 114v452h56v-435q0 -67 26 -96q28 -30 90 -30h18v-53z" />
    <glyph glyph-name="uniFD3D" unicode="&#xfd3d;" horiz-adv-x="236" arabic-form="isolated" 
d="M193 780l-149 -27l-6 31l150 27zM198 711l-150 -28l-6 31l150 28zM146 0h-56v614h56v-614z" />
    <glyph glyph-name="uniFE71" unicode="&#xfe71;" horiz-adv-x="116" arabic-form="medial" 
d="M134 590h-1l5 -25l-150 -27l-6 32h2l-5 26l150 27zM126 0h-136v53h136v-53z" />
    <glyph glyph-name="uniFE72" unicode="&#xfe72;" horiz-adv-x="234" arabic-form="isolated" 
d="M134 716q-23 18 -23 47q0 24 14.5 39.5t36.5 15.5q24 0 38.5 -15t14.5 -39q0 -38 -28 -60q-23 -18 -54 -18q-47 0 -69 35l-20 -33l-25 16l32 51h22q19 -41 61 -39zM165 725q21 8 21 37q0 13 -6.5 21t-16.5 8q-22 0 -22 -28q0 -26 24 -38z" />
    <glyph glyph-name="uniFE74" unicode="&#xfe74;" horiz-adv-x="197" arabic-form="isolated" 
d="M175 -130l-150 -27l-6 33l150 27zM178 -202l-150 -27l-6 33l150 27z" />
    <glyph glyph-name="uniFE76" unicode="&#xfe76;" horiz-adv-x="201" arabic-form="isolated" 
d="M182 714l-156 -28l-7 37l156 28z" />
    <glyph glyph-name="uniFE77" unicode="&#xfe77;" horiz-adv-x="116" arabic-form="medial" 
d="M141 542l-155 -28l-7 37l156 28zM126 0h-136v53h136v-53z" />
    <glyph glyph-name="uniFE78" unicode="&#xfe78;" horiz-adv-x="217" arabic-form="isolated" 
d="M137 706l-113 -20l-5 29l98 18q-21 20 -21 49q0 23 14 38t36 15q23 0 37.5 -15.5t14.5 -39.5q0 -28 -17 -49t-44 -25zM148 743q21 8 21 36q0 13 -6.5 21t-16.5 8q-9 0 -14.5 -8t-5.5 -20q0 -26 22 -37z" />
    <glyph glyph-name="uniFE79" unicode="&#xfe79;" horiz-adv-x="116" arabic-form="medial" 
d="M86 534l-113 -20l-4 30l98 18q-22 19 -22 48q0 22 14.5 37.5t35.5 15.5q24 0 38.5 -15t14.5 -40q0 -27 -17.5 -48t-44.5 -26zM98 571q21 9 21 36q0 29 -23 29q-9 0 -15 -8t-6 -20q0 -25 23 -37zM126 0h-136v53h136v-53z" />
    <glyph glyph-name="uniFE7A" unicode="&#xfe7a;" horiz-adv-x="201" arabic-form="isolated" 
d="M182 -138l-156 -27l-7 39l156 29z" />
    <glyph glyph-name="uniFE7B" unicode="&#xfe7b;" horiz-adv-x="116" arabic-form="medial" 
d="M126 0h-136v53h136v-53zM141 -138l-155 -27l-7 39l156 29z" />
    <glyph glyph-name="uniFE7C" unicode="&#xfe7c;" horiz-adv-x="214" arabic-form="isolated" 
d="M107 704q-18 -16 -38 -16q-22 0 -36 13.5t-14 34.5v58h29v-54q0 -22 22 -22q23 0 23 21v38h29v-38q0 -21 22 -21t22 22v54h29v-58q0 -21 -14 -34.5t-36 -13.5q-24 0 -38 16z" />
    <glyph glyph-name="uniFE7D" unicode="&#xfe7d;" horiz-adv-x="116" arabic-form="medial" 
d="M58 533q-17 -17 -38 -17q-22 0 -36 13.5t-14 34.5v59h29v-55q0 -22 22 -22t22 21v39h30v-39q0 -21 22 -21t22 22v55h29v-59q0 -21 -14 -34.5t-36 -13.5q-24 0 -38 17zM126 0h-136v53h136v-53z" />
    <glyph glyph-name="uniFE7E" unicode="&#xfe7e;" horiz-adv-x="146" arabic-form="isolated" 
d="M73 810q24 -7 39 -26.5t15 -43.5q0 -25 -14.5 -39.5t-39.5 -14.5t-39.5 14t-14.5 38t15 44.5t39 27.5zM73 782q-11 -3 -18 -14t-7 -25q0 -29 24 -29q25 0 25 28q0 14 -7 25.5t-17 14.5z" />
    <glyph glyph-name="uniFE7F" unicode="&#xfe7f;" horiz-adv-x="116" arabic-form="medial" 
d="M58 638q24 -6 39 -25.5t15 -43.5q0 -25 -14.5 -40t-39.5 -15t-39.5 14t-14.5 39q0 24 15 44t39 27zM58 611q-11 -4 -18 -15t-7 -24q0 -29 24 -29q25 0 25 28q0 14 -7 25.5t-17 14.5zM126 0h-136v53h136v-53z" />
    <glyph glyph-name="uniFE80" unicode="&#x621;" horiz-adv-x="478" arabic-form="isolated" 
d="M414 6q-43 11 -91 11q-78 0 -149 -26q-62 -22 -101 -58l-39 43q38 32 88 55q-57 73 -57 169q0 87 53 140q47 48 118 48q84 0 145 -74l-29 -34q-51 56 -114 56q-60 0 -92 -46q-25 -37 -25 -92q0 -83 55 -146q64 20 136 20q60 0 121 -14z" />
    <glyph glyph-name="uniFE81" unicode="&#x622;" horiz-adv-x="233" arabic-form="isolated" 
d="M209 731q-17 -50 -56 -50q-22 0 -48 18q-15 10 -26 10q-18 0 -32 -24l-20 16q19 44 53 44q17 0 39 -16q17 -14 34 -14q16 0 30 26zM146 0h-56v614h56v-614z" />
    <glyph glyph-name="uniFE82" unicode="&#x622;" horiz-adv-x="270" arabic-form="final" 
d="M209 731q-17 -50 -56 -50q-22 0 -48 18q-15 10 -26 10q-18 0 -32 -24l-20 16q19 44 53 44q17 0 39 -16q17 -14 34 -14q16 0 30 26zM280 0h-29q-80 0 -123 48q-38 42 -38 114v452h56v-435q0 -67 26 -96q28 -30 90 -30h18v-53z" />
    <glyph glyph-name="uniFE83" unicode="&#x623;" horiz-adv-x="236" arabic-form="isolated" 
d="M196 682h-156v33h35q-9 17 -9 33q0 27 19 44.5t48 17.5q31 0 49 -17l-12 -25q-15 11 -35 11q-35 0 -35 -32q0 -16 13 -32h83v-33zM146 0h-56v616h56v-616z" />
    <glyph glyph-name="uniFE84" unicode="&#x623;" horiz-adv-x="270" arabic-form="final" 
d="M196 682h-156v33h35q-9 17 -9 33q0 27 19 44.5t48 17.5q31 0 49 -17l-12 -25q-15 11 -35 11q-35 0 -35 -32q0 -16 13 -32h83v-33zM280 0h-29q-80 0 -123 48q-38 42 -38 114v454h56v-437q0 -67 26 -96q28 -30 90 -30h18v-53z" />
    <glyph glyph-name="uniFE85" unicode="&#x624;" horiz-adv-x="493" arabic-form="isolated" 
d="M325 518h-157v32h36q-10 17 -10 33q0 27 19.5 45t48.5 18t49 -17l-12 -25q-19 11 -35 11t-25.5 -9t-9.5 -23q0 -16 13 -33h83v-32zM358 41q-47 -36 -112 -36q-86 0 -134 64q-42 57 -42 149q0 104 54 161q48 50 126 50q81 0 125 -51q38 -44 38 -116v-246q0 -108 -56 -162
q-47 -44 -122 -44q-61 0 -129 34l17 48q58 -29 106 -29q63 0 97 42q32 38 32 107v29zM358 100v153q0 123 -108 123q-63 0 -96 -50q-28 -42 -28 -109q0 -83 43 -126q34 -34 88 -34q62 0 101 43z" />
    <glyph glyph-name="uniFE86" unicode="&#x624;" horiz-adv-x="517" arabic-form="final" 
d="M325 518h-157v32h36q-10 17 -10 33q0 27 19.5 45t48.5 18t49 -17l-12 -25q-19 11 -35 11t-25.5 -9t-9.5 -23q0 -16 13 -33h83v-32zM413 0q-4 -99 -60 -149q-46 -41 -118 -41q-61 0 -129 34l17 48q58 -29 106 -29q60 0 94 38q31 36 34 99h-86q-104 0 -157 67
q-44 56 -44 151q0 104 54 161q48 50 126 50q81 0 125 -51q38 -44 38 -116v-209h114v-53h-114zM358 53v200q0 123 -108 123q-63 0 -96 -50q-28 -42 -28 -109q0 -87 46 -129q38 -35 104 -35h82z" />
    <glyph glyph-name="uniFE87" unicode="&#x625;" horiz-adv-x="235" arabic-form="isolated" 
d="M145 0h-55v666h55v-666zM195 -224h-157v32h36q-10 16 -10 33q0 27 19.5 45t48.5 18t49 -17l-13 -26q-16 12 -34 12q-35 0 -35 -32q0 -17 13 -33h83v-32z" />
    <glyph glyph-name="uniFE88" unicode="&#x625;" horiz-adv-x="270" arabic-form="final" 
d="M280 0h-29q-80 0 -123 48q-38 42 -38 114v504h56v-487q0 -67 26 -96q28 -30 90 -30h18v-53zM245 -224h-157v32h35q-9 16 -9 33q0 27 19 45t49 18q29 0 49 -17l-13 -26q-16 12 -34 12q-35 0 -35 -32q0 -17 13 -33h83v-32z" />
    <glyph glyph-name="uniFE89" unicode="&#x626;" horiz-adv-x="698" arabic-form="isolated" 
d="M228 335h-156v33h35q-9 17 -9 33q0 27 19 45t48 18q30 0 49 -18l-12 -25q-16 12 -35 12q-16 0 -25.5 -9t-9.5 -24q0 -16 13 -32h83v-33zM579 368h-99q-51 0 -80 -23q-30 -24 -30 -71q0 -58 47 -92q20 -14 100 -46q67 -27 93 -58q28 -34 28 -85q0 -84 -85 -139
q-79 -51 -203 -51q-143 0 -218 81q-62 67 -62 175q0 90 46 157l45 -22q-36 -66 -36 -136q0 -92 63 -148q60 -54 162 -54q113 0 180 49q53 38 53 87q0 43 -47 71q-17 10 -74 33q-70 28 -101 58q-47 44 -47 119q0 72 52 114q43 35 105 34h108v-53z" />
    <glyph glyph-name="uniFE8A" unicode="&#x626;" horiz-adv-x="644" arabic-form="final" 
d="M255 323h-156v32h35q-9 18 -9 33q0 27 19 45t48 18t49 -17l-12 -25q-17 11 -35 11q-16 0 -25.5 -9t-9.5 -23q0 -16 13 -33h83v-32zM638 0q0 -93 -87 -148q-78 -49 -201 -49q-143 0 -218 81q-62 67 -62 175q0 90 46 157l45 -22q-36 -66 -36 -136q0 -92 63 -148
q60 -54 162 -54q108 0 174 45q59 40 59 99h-94v53h165v-53h-16z" />
    <glyph glyph-name="uniFE8B" unicode="&#x626;" horiz-adv-x="266" arabic-form="initial" 
d="M224 518h-156v32h35q-9 18 -9 33q0 27 19 45t48 18t49 -17l-12 -25q-19 11 -35 11t-25.5 -9t-9.5 -23q0 -16 13 -33h83v-32zM13 0h-23v53h15q59 0 90 40q26 34 26 92v233h56v-238q0 -94 -53 -141q-43 -39 -111 -39z" />
    <glyph glyph-name="uniFE8C" unicode="&#x626;" horiz-adv-x="297" arabic-form="medial" 
d="M227 518h-156v32h35q-9 18 -9 33q0 27 19 45t48 18t49 -17l-12 -25q-19 11 -35 11t-25.5 -9t-9.5 -23q0 -16 13 -33h83v-32zM13 0h-23v53h15q59 0 90 40q26 34 26 92v233h56v-233q0 -67 34 -101q29 -31 82 -31h14v-53h-22q-95 0 -136 70q-43 -70 -136 -70z" />
    <glyph glyph-name="uniFE8D" unicode="&#x627;" horiz-adv-x="236" arabic-form="isolated" 
d="M146 0h-56v666h56v-666z" />
    <glyph glyph-name="uniFE8E" unicode="&#x627;" horiz-adv-x="270" arabic-form="final" 
d="M280 0h-29q-80 0 -123 48q-38 42 -38 114v504h56v-487q0 -67 26 -96q28 -30 90 -30h18v-53z" />
    <glyph glyph-name="uniFE8F" unicode="&#x628;" horiz-adv-x="865" arabic-form="isolated" 
d="M600 0h-300q-115 0 -174 71q-46 55 -46 135q0 62 33 113q32 48 87 73l27 -42q-44 -21 -68.5 -59.5t-24.5 -85.5q0 -67 47 -110q44 -42 113 -42h293q132 0 132 132v233h56v-238q0 -94 -54 -141q-45 -39 -121 -39zM469 -121q0 -16 -11.5 -28t-27.5 -12t-28 12t-12 28
t12 27.5t28 11.5t27.5 -11.5t11.5 -27.5z" />
    <glyph glyph-name="uniFE90" unicode="&#x628;" horiz-adv-x="896" arabic-form="final" 
d="M598 0h-298q-115 0 -174 71q-46 55 -46 135q0 62 33 113q32 48 87 73l27 -42q-44 -21 -68.5 -59.5t-24.5 -85.5q0 -67 47 -110q44 -42 113 -42h293q132 0 132 132v233h56v-233q0 -67 34 -101q29 -31 82 -31h15v-53h-24q-94 0 -135 71q-44 -71 -149 -71zM469 -121
q0 -16 -11.5 -28t-27.5 -12t-28 12t-12 28t12 27.5t28 11.5t27.5 -11.5t11.5 -27.5z" />
    <glyph glyph-name="uniFE91" unicode="&#x628;" horiz-adv-x="266" arabic-form="initial" 
d="M-10 0v53h15q59 0 90 40q26 34 26 92v233h56v-238q0 -94 -53 -141q-43 -39 -111 -39h-23zM87 -161q-16 0 -28 12t-12 28t12 27.5t28 11.5t27.5 -11.5t11.5 -27.5t-11.5 -28t-27.5 -12z" />
    <glyph glyph-name="uniFE92" unicode="&#x628;" horiz-adv-x="297" arabic-form="medial" 
d="M-10 0v53h15q59 0 90 40q26 34 26 92v233h56v-233q0 -67 34 -101q29 -31 82 -31h14v-53h-22q-95 0 -136 70q-43 -70 -136 -70h-23zM149 -161q-16 0 -27.5 12t-11.5 28t11.5 27.5t27.5 11.5t28 -11.5t12 -27.5t-12 -28t-28 -12z" />
    <glyph glyph-name="uniFE93" unicode="&#x629;" horiz-adv-x="496" arabic-form="isolated" 
d="M234 542q0 -16 -11.5 -28t-27.5 -12t-27.5 12t-11.5 28t11.5 27.5t27.5 11.5t27.5 -11.5t11.5 -27.5zM333 542q0 -16 -11.5 -28t-27.5 -12t-27.5 12t-11.5 28t11.5 27.5t27.5 11.5t27.5 -11.5t11.5 -27.5zM262 -8h-28q-81 0 -126 67q-40 58 -40 153q0 108 54 166
q48 51 126 51q90 0 138 -66q42 -57 42 -151q0 -109 -51 -168q-44 -52 -115 -52zM124 211q0 -83 33 -127q30 -39 81 -39h20q58 0 88 51q26 43 26 115q0 83 -36 126q-32 39 -88 39q-65 0 -97 -50q-27 -43 -27 -115z" />
    <glyph glyph-name="uniFE94" unicode="&#x629;" horiz-adv-x="534" arabic-form="final" 
d="M228 582q0 -16 -11.5 -27.5t-27.5 -11.5t-27.5 11.5t-11.5 27.5t11.5 27.5t27.5 11.5t27.5 -11.5t11.5 -27.5zM328 582q0 -16 -12 -27.5t-28 -11.5t-27.5 11.5t-11.5 27.5t11.5 27.5t27.5 11.5t28 -11.5t12 -27.5zM544 0h-22q-106 0 -146 88q-55 -61 -137 -61
q-79 0 -126 59q-43 55 -43 144q0 104 66 161q57 49 146 49h75v49h56v-304q0 -68 35 -102q30 -30 81 -30h15v-53zM357 386h-74q-82 0 -122 -46q-35 -40 -35 -109q0 -76 35 -116q30 -35 78 -35q66 0 121 59q-3 20 -3 41v206z" />
    <glyph glyph-name="uniFE95" unicode="&#x62a;" horiz-adv-x="865" arabic-form="isolated" 
d="M443 452q0 -16 -12 -28t-28 -12t-27.5 12t-11.5 28t11.5 27.5t27.5 11.5t28 -11.5t12 -27.5zM542 452q0 -16 -11.5 -28t-27.5 -12t-28 12t-12 28t12 27.5t28 11.5t27.5 -11.5t11.5 -27.5zM600 0h-300q-115 0 -174 71q-46 55 -46 135q0 62 33 113q32 48 87 73l27 -42
q-44 -21 -68.5 -59.5t-24.5 -85.5q0 -67 47 -110q44 -42 113 -42h293q132 0 132 132v233h56v-238q0 -94 -54 -141q-45 -39 -121 -39z" />
    <glyph glyph-name="uniFE96" unicode="&#x62a;" horiz-adv-x="896" arabic-form="final" 
d="M443 452q0 -16 -12 -28t-28 -12t-27.5 12t-11.5 28t11.5 27.5t27.5 11.5t28 -11.5t12 -27.5zM542 452q0 -16 -11.5 -28t-27.5 -12t-28 12t-12 28t12 27.5t28 11.5t27.5 -11.5t11.5 -27.5zM598 0h-298q-115 0 -174 71q-46 55 -46 135q0 62 33 113q32 48 87 73l27 -42
q-44 -21 -68.5 -59.5t-24.5 -85.5q0 -67 47 -110q44 -42 113 -42h293q132 0 132 132v233h56v-233q0 -67 34 -101q29 -31 82 -31h15v-53h-24q-94 0 -135 71q-44 -71 -149 -71z" />
    <glyph glyph-name="uniFE97" unicode="&#x62a;" horiz-adv-x="266" arabic-form="initial" 
d="M136 542q0 -16 -12 -28t-28 -12t-27.5 12t-11.5 28t11.5 27.5t27.5 11.5t28 -11.5t12 -27.5zM235 542q0 -16 -11.5 -28t-27.5 -12t-28 12t-12 28t12 27.5t28 11.5t27.5 -11.5t11.5 -27.5zM13 0h-23v53h15q59 0 90 40q26 34 26 92v233h56v-238q0 -94 -53 -141
q-43 -39 -111 -39z" />
    <glyph glyph-name="uniFE98" unicode="&#x62a;" horiz-adv-x="297" arabic-form="medial" 
d="M139 542q0 -16 -12 -28t-28 -12t-27.5 12t-11.5 28t11.5 27.5t27.5 11.5t28 -11.5t12 -27.5zM238 542q0 -16 -11.5 -28t-27.5 -12t-28 12t-12 28t12 27.5t28 11.5t27.5 -11.5t11.5 -27.5zM13 0h-23v53h15q59 0 90 40q26 34 26 92v233h56v-233q0 -67 34 -101
q29 -31 82 -31h14v-53h-22q-95 0 -136 70q-43 -70 -136 -70z" />
    <glyph glyph-name="uniFE99" unicode="&#x62b;" horiz-adv-x="865" arabic-form="isolated" 
d="M490 539q0 -14 -11.5 -25t-25.5 -11q-15 0 -26 11t-11 25q0 15 11 26t26 11t26 -11t11 -26zM443 452q0 -16 -12 -28t-28 -12t-27.5 12t-11.5 28t11.5 27.5t27.5 11.5t28 -11.5t12 -27.5zM542 452q0 -16 -11.5 -28t-27.5 -12t-28 12t-12 28t12 27.5t28 11.5t27.5 -11.5
t11.5 -27.5zM600 0h-300q-115 0 -174 71q-46 55 -46 135q0 62 33 113q32 48 87 73l27 -42q-44 -21 -68.5 -59.5t-24.5 -85.5q0 -67 47 -110q44 -42 113 -42h293q132 0 132 132v233h56v-238q0 -94 -54 -141q-45 -39 -121 -39z" />
    <glyph glyph-name="uniFE9A" unicode="&#x62b;" horiz-adv-x="896" arabic-form="final" 
d="M490 539q0 -14 -11.5 -25t-25.5 -11q-15 0 -26 11t-11 25q0 15 11 26t26 11t26 -11t11 -26zM443 452q0 -16 -12 -28t-28 -12t-27.5 12t-11.5 28t11.5 27.5t27.5 11.5t28 -11.5t12 -27.5zM542 452q0 -16 -11.5 -28t-27.5 -12t-28 12t-12 28t12 27.5t28 11.5t27.5 -11.5
t11.5 -27.5zM598 0h-298q-115 0 -174 71q-46 55 -46 135q0 62 33 113q32 48 87 73l27 -42q-44 -21 -68.5 -59.5t-24.5 -85.5q0 -67 47 -110q44 -42 113 -42h293q132 0 132 132v233h56v-233q0 -67 34 -101q29 -31 82 -31h15v-53h-24q-94 0 -135 71q-44 -71 -149 -71z" />
    <glyph glyph-name="uniFE9B" unicode="&#x62b;" horiz-adv-x="266" arabic-form="initial" 
d="M183 629q0 -14 -11 -25t-26 -11t-26 11t-11 25q0 15 11 26t26 11t26 -11t11 -26zM136 542q0 -16 -12 -28t-28 -12t-27.5 12t-11.5 28t11.5 27.5t27.5 11.5t28 -11.5t12 -27.5zM235 542q0 -16 -11.5 -28t-27.5 -12t-28 12t-12 28t12 27.5t28 11.5t27.5 -11.5t11.5 -27.5z
M13 0h-23v53h15q59 0 90 40q26 34 26 92v233h56v-238q0 -94 -53 -141q-43 -39 -111 -39z" />
    <glyph glyph-name="uniFE9C" unicode="&#x62b;" horiz-adv-x="297" arabic-form="medial" 
d="M186 629q0 -14 -11 -25t-26 -11t-26 11t-11 25q0 15 11 26t26 11t26 -11t11 -26zM139 542q0 -16 -12 -28t-28 -12t-27.5 12t-11.5 28t11.5 27.5t27.5 11.5t28 -11.5t12 -27.5zM238 542q0 -16 -11.5 -28t-27.5 -12t-28 12t-12 28t12 27.5t28 11.5t27.5 -11.5t11.5 -27.5z
M13 0h-23v53h15q59 0 90 40q26 34 26 92v233h56v-233q0 -67 34 -101q29 -31 82 -31h14v-53h-22q-95 0 -136 70q-43 -70 -136 -70z" />
    <glyph glyph-name="uniFE9D" unicode="&#x62c;" horiz-adv-x="576" arabic-form="isolated" 
d="M495 -312q-84 -55 -183 -55q-111 0 -180 76q-62 68 -62 172q0 155 128 243q107 74 288 89q-85 141 -199 141q-76 0 -148 -68l-34 37q80 84 182 84q85 0 158 -61q65 -54 101 -142v-36q-207 -10 -318 -92q-102 -74 -102 -196q0 -95 63 -149q53 -45 129 -45q83 0 152 44z
M351 -124q0 -16 -12 -27.5t-28 -11.5t-27.5 11.5t-11.5 27.5t11.5 28t27.5 12t28 -12t12 -28z" />
    <glyph glyph-name="uniFE9E" unicode="&#x62c;" horiz-adv-x="674" arabic-form="final" 
d="M495 -312q-84 -55 -183 -55q-111 0 -180 76q-62 68 -62 172q0 155 128 243q107 74 288 89q-85 141 -199 141q-76 0 -148 -68l-34 37q80 84 182 84q85 0 158 -61q65 -54 101 -142v-36q-57 -3 -100 -10q23 -63 83 -86q47 -19 133 -19h22v-53h-27q-114 0 -176 38
q-58 35 -85 110q-136 -31 -206 -105q-64 -67 -64 -163q0 -95 63 -149q53 -45 129 -45q83 0 152 44zM351 -124q0 -16 -12 -27.5t-28 -11.5t-27.5 11.5t-11.5 27.5t11.5 28t27.5 12t28 -12t12 -28z" />
    <glyph glyph-name="uniFE9F" unicode="&#x62c;" horiz-adv-x="550" arabic-form="initial" 
d="M115 0h-125v53h120q122 0 189.5 30.5t146.5 120.5q-89 150 -205 150q-76 0 -148 -68l-34 37q80 84 182 84q85 0 158 -61q65 -54 101 -142v-14q-47 -61 -83 -94t-77 -54q-84 -42 -225 -42zM285 -121q0 -16 -12 -28t-28 -12t-27.5 12t-11.5 28t11.5 27.5t27.5 11.5
t28 -11.5t12 -27.5z" />
    <glyph glyph-name="uniFEA0" unicode="&#x62c;" horiz-adv-x="671" arabic-form="medial" 
d="M115 0h-125v53h120q122 0 189.5 30.5t146.5 120.5q-89 150 -205 150q-76 0 -148 -68l-34 37q80 84 182 84q85 0 158 -61q65 -54 101 -142v-14q-21 -27 -47 -57q26 -47 83 -65q46 -15 123 -15h22v-53h-27q-94 0 -152 25q-54 23 -85 71q-55 -51 -125.5 -73.5t-176.5 -22.5z
M312 -121q0 -16 -12 -28t-28 -12t-27.5 12t-11.5 28t11.5 27.5t27.5 11.5t28 -11.5t12 -27.5z" />
    <glyph glyph-name="uniFEA1" unicode="&#x62d;" horiz-adv-x="576" arabic-form="isolated" 
d="M495 -312q-84 -55 -183 -55q-111 0 -180 76q-62 68 -62 172q0 155 128 243q107 74 288 89q-85 141 -199 141q-76 0 -148 -68l-34 37q80 84 182 84q85 0 158 -61q65 -54 101 -142v-36q-207 -10 -318 -92q-102 -74 -102 -196q0 -95 63 -149q53 -45 129 -45q83 0 152 44z
" />
    <glyph glyph-name="uniFEA2" unicode="&#x62d;" horiz-adv-x="674" arabic-form="final" 
d="M495 -312q-84 -55 -183 -55q-111 0 -180 76q-62 68 -62 172q0 155 128 243q107 74 288 89q-85 141 -199 141q-76 0 -148 -68l-34 37q80 84 182 84q85 0 158 -61q65 -54 101 -142v-36q-57 -3 -100 -10q23 -62 83 -86q48 -19 133 -19h22v-53h-27q-114 0 -176 38
q-58 35 -85 110q-136 -31 -206 -105q-64 -67 -64 -163q0 -95 63 -149q53 -45 129 -45q83 0 152 44z" />
    <glyph glyph-name="uniFEA3" unicode="&#x62d;" horiz-adv-x="550" arabic-form="initial" 
d="M115 0h-125v53h120q122 0 189.5 30.5t146.5 120.5q-89 150 -205 150q-76 0 -148 -68l-34 37q80 84 182 84q85 0 158 -61q65 -54 101 -142v-14q-47 -61 -83 -94t-77 -54q-84 -42 -225 -42z" />
    <glyph glyph-name="uniFEA4" unicode="&#x62d;" horiz-adv-x="671" arabic-form="medial" 
d="M115 0h-125v53h120q122 0 189.5 30.5t146.5 120.5q-89 150 -205 150q-76 0 -148 -68l-34 37q80 84 182 84q85 0 158 -61q65 -54 101 -142v-14q-21 -27 -47 -57q26 -47 83 -65q46 -15 123 -15h22v-53h-27q-94 0 -152 25q-54 23 -85 71q-55 -51 -125.5 -73.5t-176.5 -22.5z
" />
    <glyph glyph-name="uniFEA5" unicode="&#x62e;" horiz-adv-x="576" arabic-form="isolated" 
d="M327 539q0 -16 -12 -27.5t-28 -11.5t-27.5 11.5t-11.5 27.5t11.5 27.5t27.5 11.5t28 -11.5t12 -27.5zM495 -312q-84 -55 -183 -55q-111 0 -180 76q-62 68 -62 172q0 155 128 243q107 74 288 89q-85 141 -199 141q-76 0 -148 -68l-34 37q80 84 182 84q85 0 158 -61
q65 -54 101 -142v-36q-207 -10 -318 -92q-102 -74 -102 -196q0 -95 63 -149q53 -45 129 -45q83 0 152 44z" />
    <glyph glyph-name="uniFEA6" unicode="&#x62e;" horiz-adv-x="674" arabic-form="final" 
d="M327 539q0 -16 -11.5 -27.5t-27.5 -11.5t-27.5 11.5t-11.5 27.5t11.5 27.5t27.5 11.5t27.5 -11.5t11.5 -27.5zM495 -312q-84 -55 -183 -55q-111 0 -180 76q-62 68 -62 172q0 155 128 243q107 74 288 89q-85 141 -199 141q-76 0 -148 -68l-34 37q80 84 182 84
q85 0 158 -61q65 -54 101 -142v-36q-57 -3 -100 -10q23 -62 83 -86q48 -19 133 -19h22v-53h-27q-114 0 -176 38q-58 35 -85 110q-136 -31 -206 -105q-64 -67 -64 -163q0 -95 63 -149q53 -45 129 -45q83 0 152 44z" />
    <glyph glyph-name="uniFEA7" unicode="&#x62e;" horiz-adv-x="550" arabic-form="initial" 
d="M288 539q0 -16 -11.5 -27.5t-27.5 -11.5t-27.5 11.5t-11.5 27.5t11.5 27.5t27.5 11.5t27.5 -11.5t11.5 -27.5zM115 0h-125v53h120q122 0 189.5 30.5t146.5 120.5q-89 150 -205 150q-76 0 -148 -68l-34 37q80 84 182 84q85 0 158 -61q65 -54 101 -142v-14q-47 -61 -83 -94
t-77 -54q-84 -42 -225 -42z" />
    <glyph glyph-name="uniFEA8" unicode="&#x62e;" horiz-adv-x="671" arabic-form="medial" 
d="M288 539q0 -15 -12 -27t-27 -12q-16 0 -28 11.5t-12 27.5t12 27.5t28 11.5q15 0 27 -12t12 -27zM115 0h-125v53h120q122 0 189.5 30.5t146.5 120.5q-89 150 -205 150q-76 0 -148 -68l-34 37q80 84 182 84q85 0 158 -61q65 -54 101 -142v-14q-21 -27 -47 -57
q26 -47 83 -65q46 -15 123 -15h22v-53h-27q-94 0 -152 25q-54 23 -85 71q-55 -51 -125.5 -73.5t-176.5 -22.5z" />
    <glyph glyph-name="uniFEA9" unicode="&#x62f;" horiz-adv-x="452" arabic-form="isolated" 
d="M226 0h-206v53h190q61 0 88 28q24 24 24 73q0 62 -36 123q-35 57 -96 104l32 45q79 -59 120 -136q35 -67 35 -136q0 -77 -40 -117q-39 -37 -111 -37z" />
    <glyph glyph-name="uniFEAA" unicode="&#x62f;" horiz-adv-x="496" arabic-form="final" 
d="M226 0h-206v53h190q61 0 88 28q24 24 24 73q0 62 -36 123q-35 57 -96 104l32 45q79 -59 119 -134q36 -65 36 -133q0 -53 37 -82q31 -24 76 -24h16v-53h-23q-85 0 -129 60q-35 -60 -128 -60z" />
    <glyph glyph-name="uniFEAB" unicode="&#x630;" horiz-adv-x="452" arabic-form="isolated" 
d="M236 539q0 -16 -11.5 -27.5t-27.5 -11.5t-28 11.5t-12 27.5t12 27.5t28 11.5t27.5 -11.5t11.5 -27.5zM226 0h-206v53h190q61 0 88 28q24 24 24 73q0 62 -36 123q-35 57 -96 104l32 45q79 -59 120 -136q35 -67 35 -136q0 -77 -40 -117q-39 -37 -111 -37z" />
    <glyph glyph-name="uniFEAC" unicode="&#x630;" horiz-adv-x="496" arabic-form="final" 
d="M234 539q0 -16 -11.5 -27.5t-27.5 -11.5t-27.5 11.5t-11.5 27.5t11.5 27.5t27.5 11.5t27.5 -11.5t11.5 -27.5zM226 0h-206v53h190q61 0 88 28q24 24 24 73q0 62 -36 123q-35 57 -96 104l32 45q79 -59 119 -134q36 -65 36 -133q0 -53 37 -82q31 -24 76 -24h16v-53h-23
q-85 0 -129 60q-35 -60 -128 -60z" />
    <glyph glyph-name="uniFEAD" unicode="&#x631;" horiz-adv-x="334" arabic-form="isolated" 
d="M244 418v-402q0 -107 -56 -161q-47 -45 -121 -45q-54 0 -117 30l16 48q50 -25 95 -25q63 0 96 43q31 39 31 106v406h56z" />
    <glyph glyph-name="uniFEAE" unicode="&#x631;" horiz-adv-x="365" arabic-form="final" 
d="M244 39v-28q-2 -103 -56 -156q-46 -45 -121 -45q-54 0 -117 30l16 48q50 -25 95 -25q63 0 96 43q31 39 31 106v406h56v-233q0 -67 34 -101q29 -31 82 -31h15v-53h-24q-68 0 -107 39z" />
    <glyph glyph-name="uniFEAF" unicode="&#x632;" horiz-adv-x="334" arabic-form="isolated" 
d="M255 539q0 -16 -11.5 -27.5t-27.5 -11.5t-28 11.5t-12 27.5t12 27.5t28 11.5t27.5 -11.5t11.5 -27.5zM244 418v-402q0 -107 -56 -161q-47 -45 -121 -45q-54 0 -117 30l16 48q50 -25 95 -25q63 0 96 43q31 39 31 106v406h56z" />
    <glyph glyph-name="uniFEB0" unicode="&#x632;" horiz-adv-x="365" arabic-form="final" 
d="M252 539q0 -16 -11.5 -27.5t-27.5 -11.5t-27.5 11.5t-11.5 27.5t11.5 27.5t27.5 11.5t27.5 -11.5t11.5 -27.5zM244 39v-28q-2 -103 -56 -156q-46 -45 -121 -45q-54 0 -117 30l16 48q50 -25 95 -25q63 0 96 43q31 39 31 106v406h56v-233q0 -67 34 -101q29 -31 82 -31h15
v-53h-24q-68 0 -107 39z" />
    <glyph glyph-name="uniFEB1" unicode="&#x633;" horiz-adv-x="1253" arabic-form="isolated" 
d="M572 39q0 -7 -2 -21v-2q-12 -105 -88 -160q-65 -47 -161 -47q-123 0 -192 78q-59 67 -59 172q0 90 46 157l45 -22q-36 -66 -36 -136q0 -89 58 -145q53 -51 138 -51q93 0 147 57q50 52 50 136v298h56v-168q0 -67 34 -101q31 -31 85 -31q62 0 94 40q26 34 26 92v168h55
v-168q0 -67 35 -101q30 -31 85 -31q62 0 94 40q26 34 26 92v233h55v-238q0 -96 -54 -142q-44 -38 -120 -38q-107 0 -148 70q-43 -70 -148 -70q-81 0 -121 39z" />
    <glyph glyph-name="uniFEB2" unicode="&#x633;" horiz-adv-x="1311" arabic-form="final" 
d="M572 25q-9 -110 -87 -168q-66 -48 -164 -48q-123 0 -192 78q-59 67 -59 172q0 90 46 157l45 -22q-36 -66 -36 -136q0 -89 58 -145q53 -51 138 -51q93 0 147 57q50 52 50 136v298h56v-168q0 -67 34 -101q31 -31 85 -31q62 0 94 40q26 34 26 92v168h55v-168q0 -67 35 -101
q30 -31 85 -31q62 0 94 40q26 34 26 92v168h55v-168q0 -66 34 -101q30 -31 82 -31h42v-53h-49q-95 0 -137 71q-42 -71 -146 -71q-108 0 -148 70q-43 -70 -148 -70q-81 0 -121 39v-14z" />
    <glyph glyph-name="uniFEB3" unicode="&#x633;" horiz-adv-x="883" arabic-form="initial" 
d="M39 0h-49v53h42q59 0 90 40q26 34 26 92v168h56v-168q0 -67 34 -101q30 -31 84 -31q121 0 121 132v168h55v-168q0 -67 34 -101q31 -31 86 -31q62 0 94 40q26 34 26 92v233h55v-238q0 -95 -53 -141q-45 -39 -122 -39q-105 0 -147 70q-43 -70 -151 -70q-102 0 -144 70
q-43 -70 -137 -70z" />
    <glyph glyph-name="uniFEB4" unicode="&#x633;" horiz-adv-x="941" arabic-form="medial" 
d="M39 0h-49v53h42q59 0 90 40q26 34 26 92v168h56v-168q0 -67 34 -101q30 -31 83 -31q122 0 122 132v168h55v-168q0 -67 35 -101q30 -31 85 -31q64 0 95 41q25 33 25 91v168h55v-168q0 -66 34 -101q30 -31 82 -31h42v-53h-49q-93 0 -136 70q-43 -70 -149 -70
q-105 0 -146 70q-43 -70 -152 -70q-103 0 -143 70q-43 -70 -137 -70z" />
    <glyph glyph-name="uniFEB5" unicode="&#x634;" horiz-adv-x="1253" arabic-form="isolated" 
d="M876 592q0 -15 -11 -26t-26 -11t-26 11t-11 26t11 26t26 11t26 -11t11 -26zM829 504q0 -16 -11.5 -27.5t-27.5 -11.5t-28 11.5t-12 27.5t12 27.5t28 11.5t27.5 -11.5t11.5 -27.5zM928 504q0 -16 -11.5 -27.5t-27.5 -11.5t-28 11.5t-12 27.5t12 27.5t28 11.5t27.5 -11.5
t11.5 -27.5zM572 39q0 -7 -2 -21v-2q-12 -105 -88 -160q-65 -47 -161 -47q-123 0 -192 78q-59 67 -59 172q0 90 46 157l45 -22q-36 -66 -36 -136q0 -89 58 -145q53 -51 138 -51q93 0 147 57q50 52 50 136v298h56v-168q0 -67 34 -101q31 -31 85 -31q62 0 94 40q26 34 26 92
v168h55v-168q0 -67 35 -101q30 -31 85 -31q62 0 94 40q26 34 26 92v233h55v-238q0 -96 -54 -142q-44 -38 -120 -38q-107 0 -148 70q-43 -70 -148 -70q-81 0 -121 39z" />
    <glyph glyph-name="uniFEB6" unicode="&#x634;" horiz-adv-x="1311" arabic-form="final" 
d="M876 592q0 -15 -11 -26t-26 -11t-26 11t-11 26t11 26t26 11t26 -11t11 -26zM829 504q0 -16 -11.5 -27.5t-27.5 -11.5t-28 11.5t-12 27.5t12 27.5t28 11.5t27.5 -11.5t11.5 -27.5zM928 504q0 -16 -11.5 -27.5t-27.5 -11.5t-28 11.5t-12 27.5t12 27.5t28 11.5t27.5 -11.5
t11.5 -27.5zM572 25q-9 -110 -87 -168q-66 -48 -164 -48q-123 0 -192 78q-59 67 -59 172q0 90 46 157l45 -22q-36 -66 -36 -136q0 -89 58 -145q53 -51 138 -51q93 0 147 57q50 52 50 136v298h56v-168q0 -67 34 -101q31 -31 85 -31q62 0 94 40q26 34 26 92v168h55v-168
q0 -67 35 -101q30 -31 85 -31q62 0 94 40q26 34 26 92v168h55v-168q0 -66 34 -101q30 -31 82 -31h42v-53h-49q-95 0 -137 71q-42 -71 -146 -71q-108 0 -148 70q-43 -70 -148 -70q-81 0 -121 39v-14z" />
    <glyph glyph-name="uniFEB7" unicode="&#x634;" horiz-adv-x="883" arabic-form="initial" 
d="M507 592q0 -15 -11 -26t-26 -11t-26 11t-11 26t11 26t26 11t26 -11t11 -26zM460 504q0 -16 -11.5 -27.5t-27.5 -11.5t-28 11.5t-12 27.5t12 27.5t28 11.5t27.5 -11.5t11.5 -27.5zM559 504q0 -16 -11.5 -27.5t-27.5 -11.5t-27.5 11.5t-11.5 27.5t11.5 27.5t27.5 11.5
t27.5 -11.5t11.5 -27.5zM39 0h-49v53h42q59 0 90 40q26 34 26 92v168h56v-168q0 -67 34 -101q30 -31 84 -31q121 0 121 132v168h55v-168q0 -67 34 -101q31 -31 86 -31q62 0 94 40q26 34 26 92v233h55v-238q0 -95 -53 -141q-45 -39 -122 -39q-105 0 -147 70q-43 -70 -151 -70
q-102 0 -144 70q-43 -70 -137 -70z" />
    <glyph glyph-name="uniFEB8" unicode="&#x634;" horiz-adv-x="941" arabic-form="medial" 
d="M507 592q0 -15 -11 -26t-25 -11q-15 0 -26 11t-11 26t11 26t26 11q14 0 25 -11t11 -26zM461 504q0 -16 -12 -27.5t-28 -11.5t-27.5 11.5t-11.5 27.5t11.5 27.5t27.5 11.5t28 -11.5t12 -27.5zM560 504q0 -16 -12 -27.5t-28 -11.5q-15 0 -27 12t-12 27t12 27t27 12
q16 0 28 -11.5t12 -27.5zM39 0h-49v53h42q59 0 90 40q26 34 26 92v168h56v-168q0 -67 34 -101q30 -31 83 -31q122 0 122 132v168h55v-168q0 -67 35 -101q30 -31 85 -31q64 0 95 41q25 33 25 91v168h55v-168q0 -66 34 -101q30 -31 82 -31h42v-53h-49q-93 0 -136 70
q-43 -70 -149 -70q-105 0 -146 70q-43 -70 -152 -70q-103 0 -143 70q-43 -70 -137 -70z" />
    <glyph glyph-name="uniFEB9" unicode="&#x635;" horiz-adv-x="1375" arabic-form="isolated" 
d="M571 23q-10 -109 -87 -166q-65 -48 -163 -48q-123 0 -192 78q-59 67 -59 172q0 90 46 157l45 -22q-36 -66 -36 -136q0 -89 58 -145q53 -51 138 -51q93 0 147 57q50 52 50 136v275h56v-145q0 -64 31 -98q27 -31 74 -33q80 207 208 304q93 70 195 70q104 0 161 -65
q52 -58 52 -157q0 -116 -56 -163q-49 -43 -155 -43h-405q-67 2 -107 39q0 -11 -1 -16zM735 53h344q95 0 131 40q30 34 30 113q0 88 -47 132q-39 37 -108 37q-101 0 -197 -89q-93 -86 -153 -233z" />
    <glyph glyph-name="uniFEBA" unicode="&#x635;" horiz-adv-x="1409" arabic-form="final" 
d="M572 26q-9 -110 -87 -168q-65 -49 -164 -49q-123 0 -192 78q-59 67 -59 172q0 90 46 157l45 -22q-36 -66 -36 -136q0 -89 58 -145q53 -51 138 -51q93 0 147 57q50 52 50 136v275h56v-145q0 -64 31 -98q27 -31 74 -33q80 207 208 304q93 70 195 70q104 0 161 -65
q52 -58 52 -156q0 -86 32 -122q28 -32 84 -32h8v-53h-17q-96 0 -137 74q-45 -74 -181 -74h-405q-67 2 -107 39v-13zM735 53h344q95 0 131 40q30 34 30 113q0 88 -47 132q-39 37 -108 37q-101 0 -197 -89q-93 -86 -153 -233z" />
    <glyph glyph-name="uniFEBB" unicode="&#x635;" horiz-adv-x="972" arabic-form="initial" 
d="M7 0h-17v53h8q60 0 91 40q26 34 26 92v145h55v-145q0 -64 31 -98q27 -31 74 -33q80 207 208 304q94 70 195 70q105 0 163 -65q51 -59 51 -159q0 -114 -56 -162q-50 -42 -156 -42h-405q-91 2 -132 70q-43 -70 -136 -70zM331 53h344q96 0 131 40q30 34 30 113q0 88 -46 132
q-40 37 -108 37q-101 0 -197 -89q-93 -86 -154 -233z" />
    <glyph glyph-name="uniFEBC" unicode="&#x635;" horiz-adv-x="1006" arabic-form="medial" 
d="M7 0h-17v53h8q60 0 91 40q26 34 26 92v145h55v-145q0 -64 31 -98q27 -31 74 -33q80 207 208 304q94 70 195 70q106 0 163 -66q51 -59 51 -163q0 -146 115 -146h9v-53h-17q-95 0 -137 74q-45 -74 -182 -74h-405q-91 2 -132 70q-43 -70 -136 -70zM331 53h344q96 0 131 40
q30 35 30 114q0 87 -46 131q-40 37 -108 37q-101 0 -197 -89q-93 -86 -154 -233z" />
    <glyph glyph-name="uniFEBD" unicode="&#x636;" horiz-adv-x="1375" arabic-form="isolated" 
d="M1094 555q0 -16 -11.5 -27.5t-27.5 -11.5t-27.5 11.5t-11.5 27.5t11.5 28t27.5 12t27.5 -12t11.5 -28zM571 23q-10 -109 -87 -166q-65 -48 -163 -48q-123 0 -192 78q-59 67 -59 172q0 90 46 157l45 -22q-36 -66 -36 -136q0 -89 58 -145q53 -51 138 -51q93 0 147 57
q50 52 50 136v275h56v-145q0 -64 31 -98q27 -31 74 -33q80 207 208 304q93 70 195 70q104 0 161 -65q52 -58 52 -157q0 -116 -56 -163q-49 -43 -155 -43h-405q-67 2 -107 39q0 -11 -1 -16zM735 53h344q95 0 131 40q30 34 30 113q0 88 -47 132q-39 37 -108 37
q-101 0 -197 -89q-93 -86 -153 -233z" />
    <glyph glyph-name="uniFEBE" unicode="&#x636;" horiz-adv-x="1409" arabic-form="final" 
d="M1094 555q0 -16 -11.5 -27.5t-27.5 -11.5t-27.5 11.5t-11.5 27.5t11.5 28t27.5 12t27.5 -12t11.5 -28zM572 26q-9 -110 -87 -168q-65 -49 -164 -49q-123 0 -192 78q-59 67 -59 172q0 90 46 157l45 -22q-36 -66 -36 -136q0 -89 58 -145q53 -51 138 -51q93 0 147 57
q50 52 50 136v275h56v-145q0 -64 31 -98q27 -31 74 -33q80 207 208 304q93 70 195 70q104 0 161 -65q52 -58 52 -156q0 -86 32 -122q28 -32 84 -32h8v-53h-17q-96 0 -137 74q-45 -74 -181 -74h-405q-67 2 -107 39v-13zM735 53h344q95 0 131 40q30 34 30 113q0 88 -47 132
q-39 37 -108 37q-101 0 -197 -89q-93 -86 -153 -233z" />
    <glyph glyph-name="uniFEBF" unicode="&#x636;" horiz-adv-x="972" arabic-form="initial" 
d="M713 555q0 -16 -11.5 -27.5t-27.5 -11.5t-28 11.5t-12 27.5t12 28t28 12t27.5 -12t11.5 -28zM7 0h-17v53h8q60 0 91 40q26 34 26 92v145h55v-145q0 -64 31 -98q27 -31 74 -33q80 207 208 304q94 70 195 70q105 0 163 -65q51 -59 51 -159q0 -114 -56 -162
q-50 -42 -156 -42h-405q-91 2 -132 70q-43 -70 -136 -70zM331 53h344q96 0 131 40q30 34 30 113q0 88 -46 132q-40 37 -108 37q-101 0 -197 -89q-93 -86 -154 -233z" />
    <glyph glyph-name="uniFEC0" unicode="&#x636;" horiz-adv-x="1006" arabic-form="medial" 
d="M713 555q0 -16 -11.5 -27.5t-27.5 -11.5t-28 11.5t-12 27.5t12 28t28 12t27.5 -12t11.5 -28zM7 0h-17v53h8q60 0 91 40q26 34 26 92v145h55v-145q0 -64 31 -98q27 -31 74 -33q80 207 208 304q94 70 195 70q106 0 163 -66q51 -59 51 -163q0 -146 115 -146h9v-53h-17
q-95 0 -137 74q-45 -74 -182 -74h-405q-91 2 -132 70q-43 -70 -136 -70zM331 53h344q96 0 131 40q30 35 30 114q0 87 -46 131q-40 37 -108 37q-101 0 -197 -89q-93 -86 -154 -233z" />
    <glyph glyph-name="uniFEC1" unicode="&#x637;" horiz-adv-x="847" arabic-form="isolated" 
d="M555 0h-535v53h129v613h56v-499q78 144 185 211q80 50 163 50q105 0 163 -65q51 -59 51 -157q0 -116 -56 -163q-50 -43 -156 -43zM206 53h344q95 0 131 40q30 34 30 113q0 88 -46 132q-40 37 -108 37q-101 0 -197 -89q-93 -86 -154 -233z" />
    <glyph glyph-name="uniFEC2" unicode="&#x637;" horiz-adv-x="883" arabic-form="final" 
d="M551 0h-531v53h125v613h56v-499q77 144 184 211q80 50 164 50q105 0 162 -64q52 -59 52 -158q0 -85 32 -121q27 -32 83 -32h15v-53h-23q-94 0 -138 74q-45 -74 -181 -74zM202 53h344q95 0 131 40q30 34 30 113q0 88 -47 132q-39 37 -108 37q-100 0 -197 -89
q-92 -86 -153 -233z" />
    <glyph glyph-name="uniFEC3" unicode="&#x637;" horiz-adv-x="855" arabic-form="initial" 
d="M563 0h-573v53h167v613h56v-499q77 144 184 211q80 50 164 50q105 0 163 -65q51 -59 51 -158q0 -115 -56 -163q-50 -42 -156 -42zM214 53h344q95 0 131 40q30 34 30 113q0 88 -47 132q-39 37 -108 37q-100 0 -197 -89q-92 -86 -153 -233z" />
    <glyph glyph-name="uniFEC4" unicode="&#x637;" horiz-adv-x="895" arabic-form="medial" 
d="M563 0h-573v53h167v613h56v-499q77 144 184 211q80 50 164 50q105 0 163 -65q51 -59 51 -158q0 -83 31 -119q28 -33 84 -33h15v-53h-23q-94 0 -138 74q-45 -74 -181 -74zM214 53h344q95 0 131 40q30 34 30 113q0 88 -47 132q-39 37 -108 37q-100 0 -197 -89
q-92 -86 -153 -233z" />
    <glyph glyph-name="uniFEC5" unicode="&#x638;" horiz-adv-x="847" arabic-form="isolated" 
d="M555 0h-535v53h129v613h56v-499q78 144 185 211q80 50 163 50q105 0 163 -65q51 -59 51 -157q0 -116 -56 -163q-50 -43 -156 -43zM579 582q0 -16 -12 -28t-28 -12t-27.5 12t-11.5 28t11.5 27.5t27.5 11.5t28 -11.5t12 -27.5zM206 53h344q95 0 131 40q30 34 30 113
q0 88 -46 132q-40 37 -108 37q-101 0 -197 -89q-93 -86 -154 -233z" />
    <glyph glyph-name="uniFEC6" unicode="&#x638;" horiz-adv-x="883" arabic-form="final" 
d="M551 0h-531v53h125v613h56v-499q77 144 184 211q80 50 164 50q105 0 162 -64q52 -59 52 -158q0 -85 32 -121q27 -32 83 -32h15v-53h-23q-94 0 -138 74q-45 -74 -181 -74zM579 582q0 -16 -12 -28t-28 -12t-27.5 12t-11.5 28t11.5 27.5t27.5 11.5t28 -11.5t12 -27.5z
M202 53h344q95 0 131 40q30 34 30 113q0 88 -47 132q-39 37 -108 37q-100 0 -197 -89q-92 -86 -153 -233z" />
    <glyph glyph-name="uniFEC7" unicode="&#x638;" horiz-adv-x="855" arabic-form="initial" 
d="M563 0h-573v53h167v613h56v-499q77 144 184 211q80 50 164 50q105 0 163 -65q51 -59 51 -158q0 -115 -56 -163q-50 -42 -156 -42zM573 582q0 -16 -12 -28t-28 -12t-27.5 12t-11.5 28t11.5 27.5t27.5 11.5t28 -11.5t12 -27.5zM214 53h344q95 0 131 40q30 34 30 113
q0 88 -47 132q-39 37 -108 37q-100 0 -197 -89q-92 -86 -153 -233z" />
    <glyph glyph-name="uniFEC8" unicode="&#x638;" horiz-adv-x="895" arabic-form="medial" 
d="M563 0h-573v53h167v613h56v-499q77 144 184 211q80 50 164 50q105 0 163 -65q51 -59 51 -158q0 -83 31 -119q28 -33 84 -33h15v-53h-23q-94 0 -138 74q-45 -74 -181 -74zM573 582q0 -16 -12 -28t-28 -12t-27.5 12t-11.5 28t11.5 27.5t27.5 11.5t28 -11.5t12 -27.5z
M214 53h344q95 0 131 40q30 34 30 113q0 88 -47 132q-39 37 -108 37q-100 0 -197 -89q-92 -86 -153 -233z" />
    <glyph glyph-name="uniFEC9" unicode="&#x639;" horiz-adv-x="560" arabic-form="isolated" 
d="M499 -312q-86 -56 -187 -56q-111 0 -180 69q-62 63 -62 158q0 68 34 121q31 50 87 76q-44 24 -68 67t-24 100q0 91 58 146q52 51 134 51h159v-54h-148q-75 0 -115 -48q-32 -38 -32 -92q0 -63 45 -104q43 -40 113 -40h180v-53h-184q-92 0 -141 -56q-39 -44 -39 -108
q0 -86 64 -136q53 -42 128 -42q86 0 154 43z" />
    <glyph glyph-name="uniFECA" unicode="&#x639;" horiz-adv-x="659" arabic-form="final" 
d="M506 -312q-86 -56 -188 -56q-110 0 -176 64q-59 57 -59 146q0 83 53 139q29 30 118 84q10 6 18 11q-22 20 -69 73q-42 47 -66 67q-36 30 -67 36v37q92 147 244 147q75 0 139 -40q60 -37 105 -107v-37q-32 -6 -61 -29t-85 -89q-33 -38 -52 -57q43 -24 80 -24h229v-53h-242
q-57 0 -112 40q-15 -11 -60 -39q-60 -37 -83 -67q-30 -38 -30 -88q0 -78 60 -122q51 -37 126 -37q85 0 153 43zM129 284q26 -13 50.5 -35t73.5 -76q39 -43 61 -63q18 17 58 61q79 89 128 113q-74 97 -186 98q-57 0 -101.5 -23.5t-83.5 -74.5z" />
    <glyph glyph-name="uniFECB" unicode="&#x639;" horiz-adv-x="572" arabic-form="initial" 
d="M522 0h-532v53h171q-66 59 -66 163q0 95 58 153q53 51 135 51h159v-54h-149q-75 0 -114 -50q-32 -39 -32 -98q0 -75 44 -121q43 -44 113 -44h213v-53z" />
    <glyph glyph-name="uniFECC" unicode="&#x639;" horiz-adv-x="689" arabic-form="medial" 
d="M231 0h-241v53h228q41 0 82 26q-13 13 -40 44q-53 58 -80 82q-44 39 -80 47v37q92 147 244 147q75 0 139 -40q61 -37 106 -107v-37q-30 -6 -59.5 -29.5t-85.5 -86.5q-35 -40 -53 -59q41 -24 79 -24h229v-53h-242q-56 0 -111 40q-57 -40 -115 -40zM159 284
q26 -13 50.5 -34.5t73.5 -76.5q38 -42 61 -62q23 20 74 76q69 76 112 97q-73 98 -190 98q-56 0 -98.5 -23t-82.5 -75z" />
    <glyph glyph-name="uniFECD" unicode="&#x63a;" horiz-adv-x="560" arabic-form="isolated" 
d="M349 539q0 -16 -12 -27.5t-28 -11.5t-27.5 11.5t-11.5 27.5t11.5 27.5t27.5 11.5t28 -11.5t12 -27.5zM499 -312q-86 -56 -187 -56q-111 0 -180 69q-62 63 -62 158q0 68 34 121q31 50 87 76q-44 24 -68 67t-24 100q0 91 58 146q52 51 134 51h159v-54h-148q-75 0 -115 -48
q-32 -38 -32 -92q0 -63 45 -104q43 -40 113 -40h180v-53h-184q-92 0 -141 -56q-39 -44 -39 -108q0 -86 64 -136q53 -42 128 -42q86 0 154 43z" />
    <glyph glyph-name="uniFECE" unicode="&#x63a;" horiz-adv-x="659" arabic-form="final" 
d="M349 540q0 -16 -12 -27.5t-28 -11.5t-27.5 11.5t-11.5 27.5t11.5 28t27.5 12t28 -12t12 -28zM506 -312q-86 -56 -188 -56q-110 0 -176 64q-59 57 -59 146q0 83 53 139q29 30 118 84q10 6 18 11q-22 20 -69 73q-42 47 -66 67q-36 30 -67 36v37q92 147 244 147
q75 0 139 -40q60 -37 105 -107v-37q-32 -6 -61 -29t-85 -89q-33 -38 -52 -57q43 -24 80 -24h229v-53h-242q-57 0 -112 40q-15 -11 -60 -39q-60 -37 -83 -67q-30 -38 -30 -88q0 -78 60 -122q51 -37 126 -37q85 0 153 43zM129 284q26 -13 50.5 -35t73.5 -76q39 -43 61 -63
q18 17 58 61q79 89 128 113q-74 97 -186 98q-57 0 -101.5 -23.5t-83.5 -74.5z" />
    <glyph glyph-name="uniFECF" unicode="&#x63a;" horiz-adv-x="572" arabic-form="initial" 
d="M346 539q0 -16 -11.5 -27.5t-27.5 -11.5t-27.5 11.5t-11.5 27.5t11.5 27.5t27.5 11.5t27.5 -11.5t11.5 -27.5zM522 0h-532v53h171q-66 59 -66 163q0 95 58 153q53 51 135 51h159v-54h-149q-75 0 -114 -50q-32 -39 -32 -98q0 -75 44 -121q43 -44 113 -44h213v-53z" />
    <glyph glyph-name="uniFED0" unicode="&#x63a;" horiz-adv-x="689" arabic-form="medial" 
d="M383 540q0 -16 -11.5 -27.5t-27.5 -11.5t-28 11.5t-12 27.5t12 28t28 12t27.5 -12t11.5 -28zM231 0h-241v53h228q41 0 82 26q-13 13 -40 44q-53 58 -80 82q-44 39 -80 47v37q92 147 244 147q75 0 139 -40q61 -37 106 -107v-37q-30 -6 -59.5 -29.5t-85.5 -86.5
q-35 -40 -53 -59q41 -24 79 -24h229v-53h-242q-56 0 -111 40q-57 -40 -115 -40zM159 284q26 -13 50.5 -34.5t73.5 -76.5q38 -42 61 -62q23 20 74 76q69 76 112 97q-73 98 -190 98q-56 0 -98.5 -23t-82.5 -75z" />
    <glyph glyph-name="uniFED1" unicode="&#x641;" horiz-adv-x="915" arabic-form="isolated" 
d="M703 539q0 -16 -11.5 -27.5t-27.5 -11.5t-27.5 11.5t-11.5 27.5t11.5 27.5t27.5 11.5t27.5 -11.5t11.5 -27.5zM673 0h-373q-115 0 -174 71q-46 55 -46 135q0 62 33 113q32 48 87 73l27 -42q-44 -21 -68.5 -59.5t-24.5 -85.5q0 -67 47 -110q44 -42 113 -42h250
q-52 60 -52 163q0 105 54 162q48 51 126 51q81 0 125 -51q38 -44 38 -116v-93q0 -82 -48 -128q-44 -41 -114 -41zM548 215q0 -80 40 -125q34 -37 82 -37q109 0 109 123v77q0 62 -31 94q-27 29 -76 29q-64 0 -97 -50q-27 -42 -27 -111z" />
    <glyph glyph-name="uniFED2" unicode="&#x641;" horiz-adv-x="945" arabic-form="final" 
d="M714 539q0 -16 -11.5 -27.5t-27.5 -11.5t-27.5 11.5t-11.5 27.5t11.5 27.5t27.5 11.5t27.5 -11.5t11.5 -27.5zM617 0h-317q-115 0 -174 71q-46 55 -46 135q0 62 33 113q32 48 87 73l27 -42q-44 -21 -68.5 -59.5t-24.5 -85.5q0 -67 47 -110q44 -42 113 -42h295
q-45 32 -70.5 81.5t-25.5 103.5q0 91 52 144q49 50 128 50q91 0 140 -63q40 -52 40 -131q0 -57 -28 -109q-25 -46 -68 -76h198v-53h-226q-28 0 -56 7q-28 -7 -56 -7zM673 56q64 28 97 81q28 45 28 100q0 65 -36 105q-33 37 -89 37q-64 0 -97 -47q-27 -37 -27 -94
q0 -59 37 -111q33 -47 87 -71z" />
    <glyph glyph-name="uniFED3" unicode="&#x641;" horiz-adv-x="530" arabic-form="initial" 
d="M328 539q0 -16 -11.5 -27.5t-27.5 -11.5t-27.5 11.5t-11.5 27.5t11.5 27.5t27.5 11.5t27.5 -11.5t11.5 -27.5zM287 0h-297v53h169q-53 59 -53 163q0 105 54 162q48 51 126 51q82 0 126 -51q38 -44 38 -116v-93q-1 -81 -49 -127q-44 -41 -114 -42zM162 215q0 -80 41 -125
q33 -37 81 -37q110 0 110 123v77q0 62 -31 94q-27 29 -77 29q-64 0 -97 -50q-27 -42 -27 -111z" />
    <glyph glyph-name="uniFED4" unicode="&#x641;" horiz-adv-x="544" arabic-form="medial" 
d="M311 539q0 -16 -11.5 -27.5t-27.5 -11.5t-27.5 11.5t-11.5 27.5t11.5 27.5t27.5 11.5t27.5 -11.5t11.5 -27.5zM216 0h-226v53h198q-45 32 -70.5 81.5t-25.5 103.5q0 91 52 144q49 50 128 50q91 0 140 -63q40 -52 40 -131q0 -57 -28 -109q-25 -46 -68 -76h198v-53h-226
q-28 0 -56 7q-28 -7 -56 -7zM272 56q64 28 97 81q28 45 28 100q0 65 -36 105q-33 37 -89 37q-64 0 -97 -47q-27 -37 -27 -94q0 -59 37 -111q33 -47 87 -71z" />
    <glyph glyph-name="uniFED5" unicode="&#x642;" horiz-adv-x="701" arabic-form="isolated" 
d="M445 542q0 -16 -11.5 -27.5t-27.5 -11.5t-27.5 11.5t-11.5 27.5t11.5 28t27.5 12t27.5 -12t11.5 -28zM545 542q0 -16 -12 -27.5t-28 -11.5t-27.5 11.5t-11.5 27.5t11.5 28t27.5 12t28 -12t12 -28zM564 40q-46 -35 -110 -35q-86 0 -134 64q-42 57 -42 149q0 104 54 161
q48 50 126 50q81 0 125 -51q38 -44 38 -116v-212q0 -127 -83 -193q-72 -58 -190 -58q-142 0 -216 82q-62 68 -62 178q0 90 46 157l45 -22q-36 -66 -36 -136q0 -94 63 -151q59 -54 160 -54q98 0 155 50q49 43 59 117q2 12 2 20zM565 100v153q0 123 -107 123q-63 0 -96 -50
q-28 -42 -28 -109q0 -81 42 -124q35 -36 89 -36q62 0 100 43z" />
    <glyph glyph-name="uniFED6" unicode="&#x642;" horiz-adv-x="725" arabic-form="final" 
d="M445 542q0 -16 -11.5 -28t-27.5 -12t-27.5 12t-11.5 28t11.5 27.5t27.5 11.5t27.5 -11.5t11.5 -27.5zM545 542q0 -16 -12 -28t-28 -12t-27.5 12t-11.5 28t11.5 27.5t27.5 11.5t28 -11.5t12 -27.5zM618 0q-16 -102 -96 -155q-69 -46 -174 -46q-142 0 -216 82
q-62 68 -62 178q0 90 46 157l45 -22q-36 -66 -36 -136q0 -94 63 -151q59 -54 160 -54q91 0 149 45q49 38 63 102h-81q-104 0 -157 67q-44 56 -44 151q0 104 54 161q48 50 126 50q81 0 125 -51q38 -44 38 -116v-209h114v-53h-117zM565 53v200q0 123 -107 123q-63 0 -96 -50
q-28 -42 -28 -109q0 -83 45 -126q39 -38 105 -38h81z" />
    <glyph glyph-name="uniFED7" unicode="&#x642;" horiz-adv-x="530" arabic-form="initial" 
d="M278 542q0 -16 -11.5 -28t-27.5 -12t-27.5 12t-11.5 28t11.5 27.5t27.5 11.5t27.5 -11.5t11.5 -27.5zM378 542q0 -16 -12 -28t-28 -12t-27.5 12t-11.5 28t11.5 27.5t27.5 11.5t28 -11.5t12 -27.5zM287 0h-297v53h169q-53 59 -53 163q0 105 54 162q48 51 126 51
q82 0 126 -51q38 -44 38 -116v-93q-1 -81 -49 -127q-44 -41 -114 -42zM162 215q0 -80 41 -125q33 -37 81 -37q110 0 110 123v77q0 62 -31 94q-27 29 -77 29q-64 0 -97 -50q-27 -42 -27 -111z" />
    <glyph glyph-name="uniFED8" unicode="&#x642;" horiz-adv-x="544" arabic-form="medial" 
d="M262 542q0 -16 -12 -28t-28 -12t-27.5 12t-11.5 28t11.5 27.5t27.5 11.5t28 -11.5t12 -27.5zM361 542q0 -16 -12 -28t-28 -12t-27.5 12t-11.5 28t11.5 27.5t27.5 11.5t28 -11.5t12 -27.5zM216 0h-226v53h198q-45 32 -70.5 81.5t-25.5 103.5q0 91 52 144q49 50 128 50
q91 0 140 -63q40 -52 40 -131q0 -57 -28 -109q-25 -46 -68 -76h198v-53h-226q-28 0 -56 7q-28 -7 -56 -7zM272 56q64 28 97 81q28 45 28 100q0 65 -36 105q-33 37 -89 37q-64 0 -97 -47q-27 -37 -27 -94q0 -59 37 -111q33 -47 87 -71z" />
    <glyph glyph-name="uniFED9" unicode="&#x643;" horiz-adv-x="865" arabic-form="isolated" 
d="M600 0h-300q-115 0 -174 71q-46 55 -46 135q0 62 33 113q32 48 87 73l27 -42q-44 -21 -68.5 -59.5t-24.5 -85.5q0 -67 47 -110q44 -42 113 -42h293q132 0 132 132v481h56v-486q0 -94 -54 -141q-45 -39 -121 -39zM466 362h-92v29h88q40 0 40 32q0 20 -14 31.5t-38 11.5
q-23 0 -49 -8v29l80 89l18 -14l-58 -66q44 2 69 -19q22 -19 22 -53q0 -29 -17.5 -45.5t-48.5 -16.5z" />
    <glyph glyph-name="uniFEDA" unicode="&#x643;" horiz-adv-x="896" arabic-form="final" 
d="M598 0h-298q-115 0 -174 71q-46 55 -46 135q0 62 33 113q32 48 87 73l27 -42q-44 -21 -68.5 -59.5t-24.5 -85.5q0 -67 47 -110q44 -42 113 -42h293q132 0 132 132v481h56v-481q0 -67 34 -101q29 -31 82 -31h15v-53h-24q-94 0 -135 71q-44 -71 -149 -71zM466 362h-92v29
h88q40 0 40 32q0 20 -14 31.5t-38 11.5q-23 0 -49 -8v29l80 89l18 -14l-58 -66q44 2 69 -19q22 -19 22 -53q0 -29 -17.5 -45.5t-48.5 -16.5z" />
    <glyph glyph-name="uniFEDB" unicode="&#x643;" horiz-adv-x="547" arabic-form="initial" 
d="M321 0h-331v53h321q131 0 131 139v7q0 67 -32 96q-29 27 -90 27h-266v53l218 226l32 -32l-186 -194h204q175 0 175 -181v-10q0 -97 -53 -144q-45 -40 -123 -40z" />
    <glyph glyph-name="uniFEDC" unicode="&#x643;" horiz-adv-x="615" arabic-form="medial" 
d="M321 0h-331v53h321q131 0 131 135v15q0 119 -122 119h-266v53l218 226l32 -32l-186 -194h204q91 0 136 -49q39 -43 39 -119v-22q0 -68 35 -103q29 -29 78 -29h15v-53h-24q-43 0 -77.5 18.5t-54.5 52.5q-44 -71 -148 -71z" />
    <glyph glyph-name="uniFEDD" unicode="&#x644;" horiz-adv-x="664" arabic-form="isolated" 
d="M574 666v-612q0 -124 -81 -190q-67 -55 -170 -55q-124 0 -193 78q-60 67 -60 172q0 90 46 157l45 -22q-36 -66 -36 -136q0 -89 59 -144q54 -51 139 -51q91 0 145 57q50 52 50 138v608h56z" />
    <glyph glyph-name="uniFEDE" unicode="&#x644;" horiz-adv-x="694" arabic-form="final" 
d="M571 24q-9 -109 -87 -167q-65 -48 -161 -48q-124 0 -193 78q-60 67 -60 172q0 90 46 157l45 -22q-36 -66 -36 -136q0 -89 59 -144q54 -51 139 -51q91 0 145 57q50 52 50 138v608h56v-481q0 -67 34 -101q29 -31 82 -31h14v-53h-23q-67 0 -109 39q0 -10 -1 -15z" />
    <glyph glyph-name="uniFEDF" unicode="&#x644;" horiz-adv-x="267" arabic-form="initial" 
d="M13 0h-23v53h15q59 0 90 40q26 34 26 92v481h56v-486q0 -94 -53 -141q-43 -39 -111 -39z" />
    <glyph glyph-name="uniFEE0" unicode="&#x644;" horiz-adv-x="297" arabic-form="medial" 
d="M13 0h-23v53h15q59 0 90 40q26 34 26 92v481h56v-481q0 -67 34 -101q29 -31 82 -31h14v-53h-23q-94 0 -135 70q-43 -70 -136 -70z" />
    <glyph glyph-name="uniFEE1" unicode="&#x645;" horiz-adv-x="548" arabic-form="isolated" 
d="M76 -315h-56v203q0 75 40 119q36 38 95 44q18 2 28 2q-59 56 -59 163q0 105 54 162q48 51 126 51q82 0 126 -51q38 -44 38 -116v-92q0 -79 -44 -125q-41 -42 -110 -45h-122q-68 0 -95 -38q-21 -30 -21 -89v-188zM180 215q0 -82 40 -126q32 -36 81 -36q111 0 111 121v79
q0 123 -108 123q-64 0 -97 -50q-27 -42 -27 -111z" />
    <glyph glyph-name="uniFEE2" unicode="&#x645;" horiz-adv-x="603" arabic-form="final" 
d="M76 -315h-56v203q0 75 40 118q34 38 94 45q18 2 30 2q-60 55 -60 163q0 105 54 162q48 51 126 51q82 0 126 -51q38 -44 38 -116v-77q0 -68 35 -102q30 -30 81 -30h29v-53h-37q-92 0 -135 71q-39 -67 -127 -71h-122q-68 0 -95 -38q-21 -30 -21 -89v-188zM180 215
q0 -82 40 -126q32 -36 81 -36q111 0 111 121v79q0 123 -108 123q-64 0 -97 -50q-27 -42 -27 -111z" />
    <glyph glyph-name="uniFEE3" unicode="&#x645;" horiz-adv-x="554" arabic-form="initial" 
d="M-10 53h29q59 0 90 39q27 34 27 93v77q0 83 49 128q43 39 114 39q90 0 138 -65q42 -57 42 -148q0 -115 -58 -175q-47 -49 -120 -49q-100 0 -141 76q-43 -68 -132 -68h-38v53zM191 174q0 -129 111 -129q57 0 90 48q31 46 31 122q0 79 -36 122q-32 39 -88 39
q-108 0 -108 -123v-79z" />
    <glyph glyph-name="uniFEE4" unicode="&#x645;" horiz-adv-x="638" arabic-form="medial" 
d="M471 73q-44 -89 -152 -89q-107 0 -152 89q-42 -73 -136 -73h-41v53h33q117 0 117 141q0 45 10 78q13 80 62 121q43 36 107 36q74 0 119 -47q39 -40 51 -110q10 -33 10 -78q0 -141 116 -141h33v-53h-41q-92 0 -136 73zM195 207q0 -89 40 -134q33 -36 85 -36q57 0 91 48
q32 45 32 122q0 85 -35 128q-32 40 -89 40q-64 0 -97 -51q-27 -44 -27 -117z" />
    <glyph glyph-name="uniFEE5" unicode="&#x646;" horiz-adv-x="664" arabic-form="isolated" 
d="M351 425q0 -16 -11.5 -27.5t-27.5 -11.5t-28 11.5t-12 27.5t12 27.5t28 11.5t27.5 -11.5t11.5 -27.5zM574 418v-364q0 -124 -81 -190q-67 -55 -172 -55q-123 0 -192 78q-59 67 -59 172q0 90 46 157l45 -22q-36 -66 -36 -136q0 -89 58 -145q53 -51 138 -51q93 0 147 57
q50 52 50 136v363h56z" />
    <glyph glyph-name="uniFEE6" unicode="&#x646;" horiz-adv-x="694" arabic-form="final" 
d="M351 425q0 -16 -11.5 -27.5t-27.5 -11.5t-28 11.5t-12 27.5t12 27.5t28 11.5t27.5 -11.5t11.5 -27.5zM572 28q-9 -112 -86 -170q-65 -49 -165 -49q-123 0 -192 78q-59 67 -59 172q0 90 46 157l45 -22q-36 -66 -36 -136q0 -89 58 -145q53 -51 138 -51q93 0 147 57
q50 52 50 136v363h56v-233q0 -67 34 -101q29 -31 82 -31h14v-53h-23q-67 0 -109 39v-11z" />
    <glyph glyph-name="uniFEE7" unicode="&#x646;" horiz-adv-x="266" arabic-form="initial" 
d="M186 539q0 -16 -12 -27.5t-28 -11.5t-27.5 11.5t-11.5 27.5t11.5 27.5t27.5 11.5t28 -11.5t12 -27.5zM13 0h-23v53h15q59 0 90 40q26 34 26 92v233h56v-238q0 -94 -53 -141q-43 -39 -111 -39z" />
    <glyph glyph-name="uniFEE8" unicode="&#x646;" horiz-adv-x="297" arabic-form="medial" 
d="M189 539q0 -16 -12 -27.5t-28 -11.5t-27.5 11.5t-11.5 27.5t11.5 27.5t27.5 11.5t28 -11.5t12 -27.5zM13 0h-23v53h15q59 0 90 40q26 34 26 92v233h56v-233q0 -67 34 -101q29 -31 82 -31h14v-53h-22q-95 0 -136 70q-43 -70 -136 -70z" />
    <glyph glyph-name="uniFEE9" unicode="&#x647;" horiz-adv-x="496" arabic-form="isolated" 
d="M262 -8h-28q-81 0 -126 67q-40 58 -40 153q0 108 54 166q48 51 126 51q90 0 138 -66q42 -57 42 -151q0 -109 -51 -168q-44 -52 -115 -52zM124 211q0 -83 33 -127q30 -39 81 -39h20q58 0 88 51q26 43 26 115q0 83 -36 126q-32 39 -88 39q-65 0 -97 -50q-27 -43 -27 -115z
" />
    <glyph glyph-name="uniFEEA" unicode="&#x647;" horiz-adv-x="534" arabic-form="final" 
d="M544 0h-22q-106 0 -146 88q-55 -61 -137 -61q-79 0 -126 59q-43 55 -43 144q0 104 66 161q57 49 146 49h75v49h56v-304q0 -68 35 -102q30 -30 81 -30h15v-53zM357 386h-74q-82 0 -122 -46q-35 -40 -35 -109q0 -76 35 -116q30 -35 78 -35q66 0 121 59q-3 20 -3 41v206z
" />
    <glyph glyph-name="uniFEEB" unicode="&#x647;" horiz-adv-x="595" arabic-form="initial" 
d="M147 0h-157v53h109q6 0 21 1h18q-33 26 -51.5 64.5t-18.5 79.5q0 64 40 106q39 41 103 41q71 0 110 -51q31 -40 31 -97q0 -43 -18 -80.5t-51 -62.5q19 -1 76 -1q59 0 87 31q23 25 23 67q0 52 -26 104q-32 63 -94 104q-74 49 -184 60l11 48q173 -15 273 -129
q76 -86 76 -187q0 -72 -40 -112q-40 -39 -112 -39h-98q-35 0 -65 10q-30 -10 -63 -10zM211 65q39 17 62 53.5t23 80.5q0 46 -25 72q-22 24 -60 24q-43 0 -66 -30q-20 -25 -20 -64q0 -44 23.5 -81t62.5 -55z" />
    <glyph glyph-name="uniFEEC" unicode="&#x647;" horiz-adv-x="644" arabic-form="medial" 
d="M147 0h-157v53h110q6 0 20 1h18q-33 26 -51.5 64.5t-18.5 79.5q0 64 40 106q39 41 103 41q71 0 110 -51q31 -40 31 -97q0 -43 -18 -80.5t-51 -62.5q21 -1 76 -1q59 0 87 31q23 25 23 67q0 52 -26 104q-32 63 -94 104q-74 49 -184 60l11 48q173 -15 272 -124
q76 -84 76 -183q0 -52 35 -81q31 -26 80 -26h15v-53h-23q-88 0 -130 62q-37 -62 -128 -62h-98q-35 0 -65 10q-30 -10 -63 -10zM211 65q39 17 62 53.5t23 80.5q0 46 -25 72q-22 24 -60 24q-43 0 -66 -30q-20 -25 -20 -64q0 -44 23.5 -81t62.5 -55z" />
    <glyph glyph-name="uniFEED" unicode="&#x648;" horiz-adv-x="493" arabic-form="isolated" 
d="M358 41q-47 -36 -112 -36q-86 0 -134 64q-42 57 -42 149q0 104 54 161q48 50 126 50q81 0 125 -51q38 -44 38 -116v-246q0 -108 -56 -162q-47 -44 -122 -44q-61 0 -129 34l17 48q58 -29 106 -29q63 0 97 42q32 38 32 107v29zM358 100v153q0 123 -108 123q-63 0 -96 -50
q-28 -42 -28 -109q0 -83 43 -126q34 -34 88 -34q62 0 101 43z" />
    <glyph glyph-name="uniFEEE" unicode="&#x648;" horiz-adv-x="517" arabic-form="final" 
d="M413 0q-4 -99 -60 -149q-46 -41 -118 -41q-61 0 -129 34l17 48q58 -29 106 -29q60 0 94 38q31 36 34 99h-86q-104 0 -157 67q-44 56 -44 151q0 104 54 161q48 50 126 50q81 0 125 -51q38 -44 38 -116v-209h114v-53h-114zM358 53v200q0 123 -108 123q-63 0 -96 -50
q-28 -42 -28 -109q0 -87 46 -129q38 -35 104 -35h82z" />
    <glyph glyph-name="uniFEEF" unicode="&#x649;" horiz-adv-x="698" arabic-form="isolated" 
d="M579 368h-99q-51 0 -80 -23q-30 -24 -30 -71q0 -58 47 -92q20 -14 100 -46q67 -27 93 -58q28 -34 28 -85q0 -84 -85 -139q-79 -51 -203 -51q-143 0 -218 81q-62 67 -62 175q0 90 46 157l45 -22q-36 -66 -36 -136q0 -92 63 -148q60 -54 162 -54q113 0 180 49q53 38 53 87
q0 43 -47 71q-17 10 -74 33q-70 28 -101 58q-47 44 -47 119q0 72 52 114q43 35 105 34h108v-53z" />
    <glyph glyph-name="uniFEF0" unicode="&#x649;" horiz-adv-x="644" arabic-form="final" 
d="M638 0q0 -93 -87 -148q-78 -49 -201 -49q-143 0 -218 81q-62 67 -62 175q0 90 46 157l45 -22q-36 -66 -36 -136q0 -92 63 -148q60 -54 162 -54q108 0 174 45q59 40 59 99h-94v53h165v-53h-16z" />
    <glyph glyph-name="uniFEF1" unicode="&#x64a;" horiz-adv-x="698" arabic-form="isolated" 
d="M579 368h-99q-51 0 -80 -23q-30 -24 -30 -71q0 -58 47 -92q20 -14 100 -46q67 -27 93 -58q28 -34 28 -85q0 -84 -85 -139q-79 -51 -203 -51q-143 0 -218 81q-62 67 -62 175q0 90 46 157l45 -22q-36 -66 -36 -136q0 -92 63 -148q60 -54 162 -54q113 0 180 49q53 38 53 87
q0 43 -47 71q-17 10 -74 33q-70 28 -101 58q-47 44 -47 119q0 72 52 114q43 35 105 34h108v-53zM338 -314q0 -16 -11.5 -28t-27.5 -12t-27.5 12t-11.5 28t11.5 27.5t27.5 11.5t27.5 -11.5t11.5 -27.5zM437 -314q0 -16 -11.5 -28t-27.5 -12t-27.5 12t-11.5 28t11.5 27.5
t27.5 11.5t27.5 -11.5t11.5 -27.5z" />
    <glyph glyph-name="uniFEF2" unicode="&#x64a;" horiz-adv-x="644" arabic-form="final" 
d="M638 0q0 -93 -87 -148q-78 -49 -201 -49q-143 0 -218 81q-62 67 -62 175q0 90 46 157l45 -22q-36 -66 -36 -136q0 -92 63 -148q60 -54 162 -54q108 0 174 45q59 40 59 99h-94v53h165v-53h-16zM338 -312q0 -16 -11.5 -28t-27.5 -12t-27.5 12t-11.5 28t11.5 27.5t27.5 11.5
t27.5 -11.5t11.5 -27.5zM437 -312q0 -16 -11.5 -28t-27.5 -12t-27.5 12t-11.5 28t11.5 27.5t27.5 11.5t27.5 -11.5t11.5 -27.5z" />
    <glyph glyph-name="uniFEF3" unicode="&#x64a;" horiz-adv-x="266" arabic-form="initial" 
d="M-10 0v53h15q59 0 90 40q26 34 26 92v233h56v-238q0 -94 -53 -141q-43 -39 -111 -39h-23zM33 -161q-16 0 -28 12t-12 28t12 27.5t28 11.5t27.5 -11.5t11.5 -27.5t-11.5 -28t-27.5 -12zM132 -161q-16 0 -27.5 12t-11.5 28t11.5 27.5t27.5 11.5t27.5 -11.5t11.5 -27.5
t-11.5 -28t-27.5 -12z" />
    <glyph glyph-name="uniFEF4" unicode="&#x64a;" horiz-adv-x="297" arabic-form="medial" 
d="M-10 0v53h15q59 0 90 40q26 34 26 92v233h56v-233q0 -67 34 -101q29 -31 82 -31h14v-53h-22q-95 0 -136 70q-43 -70 -136 -70h-23zM92 -161q-15 0 -27 12t-12 28q0 15 12 27t27 12q16 0 28 -11.5t12 -27.5t-12 -28t-28 -12zM192 -161q-16 0 -28 12t-12 28t12 27.5
t28 11.5t27.5 -11.5t11.5 -27.5t-11.5 -28t-27.5 -12z" />
    <glyph glyph-name=".notdef" horiz-adv-x="364" 
d="M33 0v666h265v-666h-265zM66 33h199v600h-199v-600z" />
    <glyph glyph-name="glyph1" 
 />
    <glyph glyph-name="glyph2" horiz-adv-x="257" 
 />
    <glyph glyph-name="space" unicode=" " horiz-adv-x="257" 
 />
    <glyph glyph-name="exclam" unicode="!" horiz-adv-x="269" 
d="M108 154l-7 513h66l-7 -513h-52zM134 74q17 0 29 -12t12 -29q0 -18 -12 -30t-29 -12t-29 12t-12 29t12 29.5t29 12.5z" />
    <glyph glyph-name="quotedbl" unicode="&#x22;" horiz-adv-x="298" 
d="M97 423h-41l-9 244h60zM243 423h-41l-10 244h60z" />
    <glyph glyph-name="numbersign" unicode="#" horiz-adv-x="586" 
d="M139 243l36 180h-76l9 45h76l42 208l47 -11l-40 -197h173l42 208l47 -10l-39 -198h76l-9 -45h-76l-37 -180h77l-9 -45h-77l-42 -207l-46 11l39 196h-173l-42 -207l-47 11l40 196h-77l9 45h77zM188 243h173l36 180h-173z" />
    <glyph glyph-name="dollar" unicode="$" horiz-adv-x="562" 
d="M258 675v92h58v-92q85 -12 140 -94l-47 -30q-50 72 -126 72q-59 0 -97 -40q-33 -34 -33 -82q0 -74 104 -115l66 -26q84 -32 121 -78q32 -40 32 -95q0 -76 -51 -131q-44 -49 -109 -62v-97h-58v93q-149 10 -188 160l57 16q34 -121 144 -121q65 0 108 46q37 40 37 95
q0 43 -28 72t-95 56l-64 25q-135 53 -135 163q0 73 50 121q44 42 114 52z" />
    <glyph glyph-name="percent" unicode="%" horiz-adv-x="902" 
d="M547 198q0 204 148 204q154 0 154 -204t-153 -204q-149 0 -149 204zM595 202q0 -165 102 -165q104 0 104 159q0 162 -104 162q-53 0 -79 -45q-23 -40 -23 -111zM626 675l34 -19l-385 -665l-33 20zM53 469q0 204 149 204q153 0 153 -204t-153 -204q-149 0 -149 204z
M101 474q0 -165 103 -165t103 159q0 162 -103 162q-54 0 -80 -46q-23 -40 -23 -110z" />
    <glyph glyph-name="ampersand" unicode="&#x26;" horiz-adv-x="631" 
d="M224 381l-9 11q-71 87 -71 150q0 62 45 101q39 34 94 34q63 0 102 -41q34 -37 34 -89q0 -43 -25.5 -80t-91.5 -89l-7 -5l180 -217q26 42 51 116l53 -15q-30 -92 -66 -146l93 -111h-70l-56 69q-74 -80 -193 -80q-99 0 -161 59q-53 50 -53 123q0 55 32.5 101.5t110.5 102.5
l1 1zM264 411l5 4q56 44 78 73.5t22 62.5q0 37 -28 60q-24 20 -59 20q-40 0 -65 -28q-22 -24 -22 -57q0 -51 64 -129zM444 113l-189 230l-3 -3q-3 -2 -5 -4q-62 -44 -89.5 -82t-27.5 -79q0 -61 51 -99q44 -34 107 -34q93 0 156 71z" />
    <glyph glyph-name="quotesingle" unicode="'" horiz-adv-x="153" 
d="M97 423h-41l-9 244h60z" />
    <glyph glyph-name="parenleft" unicode="(" horiz-adv-x="285" 
d="M219 -154l-51 -23q-37 80 -59 203t-22 250q0 136 25 265q22 113 56 188l51 -23q-75 -194 -75 -430t75 -430z" />
    <glyph glyph-name="parenright" unicode=")" horiz-adv-x="285" 
d="M67 -154q75 194 75 430t-75 430l50 23q38 -80 60 -203t22 -250q0 -136 -25 -265q-22 -113 -57 -188z" />
    <glyph glyph-name="asterisk" unicode="*" horiz-adv-x="455" 
d="M87 641l119 -44l-5 127h54l-6 -127l120 44l16 -51l-122 -34l79 -100l-44 -32l-70 106l-71 -106l-43 32l79 99l-123 35z" />
    <glyph glyph-name="plus" unicode="+" horiz-adv-x="556" 
d="M253 337v200h51v-200h199v-29v-20h-199v-200h-51v200h-199v28v21h199z" />
    <glyph glyph-name="comma" unicode="," horiz-adv-x="218" 
d="M27 -133l79 221l53 -19l-95 -217z" />
    <glyph glyph-name="hyphen" unicode="-" horiz-adv-x="249" 
d="M32 338h185v-52h-185v52z" />
    <glyph glyph-name="period" unicode="." horiz-adv-x="217" 
d="M108 74q17 0 29 -12t12 -30q0 -17 -12 -29t-29 -12t-29 12t-12 29t12 29.5t29 12.5z" />
    <glyph glyph-name="slash" unicode="/" horiz-adv-x="540" 
d="M438 676l44 -27l-380 -658l-44 26z" />
    <glyph glyph-name="zero" unicode="0" horiz-adv-x="570" 
d="M43 333q0 186 68 270q60 74 174 74q130 0 189 -97q53 -84 53 -247q0 -185 -69 -270q-59 -74 -173 -74q-242 0 -242 344zM103 341q0 -297 182 -297t182 289q0 153 -53 226q-45 64 -129 64q-75 0 -121 -51q-27 -30 -44 -94t-17 -137z" />
    <glyph glyph-name="one" unicode="1" horiz-adv-x="291" 
d="M208 0h-59v603l-112 -65l-27 47l140 82h58v-667z" />
    <glyph glyph-name="two" unicode="2" horiz-adv-x="480" 
d="M49 0v56l246 276q82 91 82 166q0 59 -43 94q-36 31 -92 31q-55 0 -88.5 -27t-51.5 -85l-54 15q21 78 78 117q49 34 119 34q90 0 143 -56q46 -49 46 -124q0 -92 -80 -182l-233 -261h329v-54h-401z" />
    <glyph glyph-name="three" unicode="3" horiz-adv-x="467" 
d="M192 376h30q38 0 75 22q25 14 39 41t14 60q0 59 -40 94q-35 30 -88 30q-41 0 -70.5 -16t-55.5 -53l-49 28q64 95 176 95q87 0 139 -55q45 -49 45 -121q0 -93 -76 -147q92 -57 92 -166q0 -94 -65 -150q-56 -49 -140 -49q-77 0 -131 43q-46 37 -66 99l-2 10l57 16
q16 -49 38 -73q35 -39 103 -39q71 0 112 44q36 39 36 98q0 67 -44 104q-38 32 -100 32h-29v53z" />
    <glyph glyph-name="four" unicode="4" horiz-adv-x="517" 
d="M363 645l-269 -440h242v180h59v-180h83v-54h-83v-151h-59v151h-303v61l283 463z" />
    <glyph glyph-name="five" unicode="5" horiz-adv-x="515" 
d="M196 612l-40 -196q15 5 19 7q31 12 69 12q100 0 165 -71q55 -62 55 -149q0 -102 -72 -169q-63 -57 -150 -57t-151 53q-23 20 -48 58l47 33q49 -89 150 -89q77 0 125 53q41 47 41 115q0 77 -54 127q-47 43 -112 43t-110 -43l-47 10l64 318h284v-55h-235z" />
    <glyph glyph-name="six" unicode="6" horiz-adv-x="541" 
d="M317 675l46 -34l-161 -230q33 15 71 15q99 0 162 -69q55 -59 55 -143q0 -100 -73 -167q-62 -58 -148 -58q-99 0 -165 74q-57 63 -57 150q0 78 51 150zM431 211q0 75 -52 122q-45 40 -110 40q-75 0 -122 -53q-42 -46 -42 -110q0 -75 53 -124q46 -43 110 -43q74 0 122 55
q41 48 41 113z" />
    <glyph glyph-name="seven" unicode="7" horiz-adv-x="448" 
d="M370 612h-350v55h415v-51l-329 -625l-51 28z" />
    <glyph glyph-name="eight" unicode="8" horiz-adv-x="504" 
d="M145 355q-80 53 -80 146q0 81 60 132q52 44 127 44q85 0 139 -57q47 -49 47 -119q0 -93 -79 -146q101 -60 101 -171q0 -90 -67 -146q-57 -49 -141 -49q-97 0 -157 63q-52 54 -52 132q0 111 102 171zM252 324q-71 0 -114 -45q-37 -38 -37 -96q0 -65 48 -105
q42 -35 103 -35q70 0 113 45q37 39 37 96q0 65 -48 105q-41 35 -102 35zM119 500q0 -57 43 -93q37 -31 90 -31q61 0 99 40q33 35 33 85q0 57 -43 93q-36 31 -89 31q-62 0 -100 -40q-33 -35 -33 -85z" />
    <glyph glyph-name="nine" unicode="9" horiz-adv-x="543" 
d="M223 -9l-45 34l162 230q-34 -11 -69 -11q-102 0 -165 67q-55 58 -55 142q0 100 73 167q62 57 148 57q100 0 165 -73q57 -63 57 -150q0 -79 -51 -151zM109 456q0 -75 52 -120q45 -40 111 -40q75 0 122 52q42 46 42 110q0 74 -53 123q-46 42 -110 42q-74 0 -122 -54
q-42 -48 -42 -113z" />
    <glyph glyph-name="colon" unicode=":" horiz-adv-x="217" 
d="M108 74q17 0 29 -12t12 -30q0 -17 -12 -29t-29 -12t-29 12t-12 29t12 29.5t29 12.5zM108 426q17 0 29 -12t12 -29t-12 -29.5t-29 -12.5t-29 12.5t-12 29.5t12 29t29 12z" />
    <glyph glyph-name="semicolon" unicode=";" horiz-adv-x="219" 
d="M27 -133l79 221l53 -19l-95 -217zM126 412q17 0 29 -12t12 -29t-12 -29t-29 -12t-29.5 12t-12.5 29t12.5 29t29.5 12z" />
    <glyph glyph-name="less" unicode="&#x3c;" horiz-adv-x="549" 
d="M485 562v-60l-362 -165l362 -166v-60l-420 198v56z" />
    <glyph glyph-name="equal" unicode="=" horiz-adv-x="556" 
d="M473 272v-50h-391v50h391zM473 403v-50h-391v50h391z" />
    <glyph glyph-name="greater" unicode="&#x3e;" horiz-adv-x="549" 
d="M65 111v60l362 166l-362 166v59l420 -197v-57z" />
    <glyph glyph-name="question" unicode="?" horiz-adv-x="416" 
d="M169 154v67q0 45 11 67.5t45 52.5l45 38q68 60 68 127q0 56 -39 89q-34 28 -88 28q-44 0 -73.5 -17t-57.5 -60l-43 36q59 95 170 95q94 0 145 -52q45 -45 45 -119q0 -45 -19 -81.5t-62 -76.5l-51 -47q-26 -24 -32 -38t-6 -51v-58h-58zM198 74q17 0 29 -12t12 -29
q0 -18 -12 -30t-29 -12t-29 12.5t-12 28.5q0 17 12 29.5t29 12.5z" />
    <glyph glyph-name="at" unicode="@" horiz-adv-x="905" 
d="M623 518l-44 -346h30q85 0 130 61q39 53 39 144q0 89 -40 159q-34 61 -91 93q-65 38 -159 38q-174 0 -274 -107q-86 -92 -86 -236q0 -141 87 -230q93 -94 271 -94q105 0 218 36l16 -43q-109 -37 -239 -37q-108 0 -193 35q-74 30 -119 82q-42 48 -65 113t-23 137
q0 186 126 294q109 94 277 94q110 0 187 -45q78 -45 118 -127q35 -72 35 -160q0 -83 -32 -143q-29 -53 -78 -80q-48 -28 -132 -28h-138q-82 0 -129 54q-41 47 -41 120q0 48 18 91t50 72q58 53 168 53h113zM531 172l39 302h-69q-88 0 -136 -52q-42 -44 -42 -117
q0 -66 39 -102q34 -31 90 -31h79z" />
    <glyph glyph-name="A" unicode="A" horiz-adv-x="615" 
d="M71 0h-61l261 667h72l262 -667h-62l-75 193h-322zM167 248h280l-141 361z" />
    <glyph glyph-name="B" unicode="B" horiz-adv-x="520" 
d="M83 0v667h133q95 0 143 -28q37 -22 59 -61.5t22 -83.5q0 -94 -87 -144q63 -22 94 -70q27 -42 27 -99q0 -49 -24 -89.5t-69 -65.5q-48 -26 -131 -26h-167zM142 367h86q65 0 97 18q28 16 44 44t16 62q0 33 -14.5 60t-39.5 42q-35 19 -103 19h-86v-245zM142 55h102
q72 0 108 20q30 18 47 46.5t17 63.5q0 33 -16 62.5t-43 45.5q-41 23 -123 23h-92v-261z" />
    <glyph glyph-name="C" unicode="C" horiz-adv-x="659" 
d="M618 576l-40 -40q-44 45 -90 65.5t-104 20.5q-77 0 -142 -39q-63 -38 -100 -103q-37 -67 -37 -147q0 -79 38 -146q36 -65 100 -103q65 -39 142 -39q57 0 103 20.5t93 67.5l41 -41q-55 -54 -111 -78.5t-125 -24.5q-93 0 -173 47q-77 45 -122 123q-46 80 -46 174t46 174
q45 78 122 124q79 46 172 46q69 0 123.5 -23.5t109.5 -77.5z" />
    <glyph glyph-name="D" unicode="D" horiz-adv-x="619" 
d="M83 667h131q178 0 275 -102q84 -88 84 -231q0 -165 -109 -256q-95 -78 -250 -78h-131v667zM142 612v-557h75q146 0 226 86q70 74 70 193q0 136 -90 212q-79 66 -206 66h-75z" />
    <glyph glyph-name="E" unicode="E" horiz-adv-x="472" 
d="M416 612h-274v-246h244v-55h-244v-256h285v-55h-344v667h333v-55z" />
    <glyph glyph-name="F" unicode="F" horiz-adv-x="433" 
d="M393 612h-251v-246h229v-55h-229v-311h-59v667h310v-55z" />
    <glyph glyph-name="G" unicode="G" horiz-adv-x="728" 
d="M620 282h-200v55h261v-30q0 -154 -91 -242q-79 -76 -202 -76q-94 0 -174 47q-77 45 -123 123q-46 80 -46 174t46 174q45 78 122 124q79 46 172 46q69 0 124 -23.5t109 -77.5l-40 -40q-44 45 -90 65.5t-104 20.5q-126 0 -208 -94q-71 -82 -71 -195q0 -80 38 -147
q37 -65 100 -102q66 -39 144 -39q66 0 119 29q46 26 76 71q19 30 28 60.5t10 76.5z" />
    <glyph glyph-name="H" unicode="H" horiz-adv-x="650" 
d="M142 366h365v301h59v-667h-59v311h-365v-311h-59v667h59v-301z" />
    <glyph glyph-name="I" unicode="I" horiz-adv-x="226" 
d="M142 667v-667h-59v667h59z" />
    <glyph glyph-name="J" unicode="J" horiz-adv-x="395" 
d="M312 667v-469q0 -89 -28 -138q-19 -33 -54.5 -52t-77.5 -19q-39 0 -72 15t-73 51l36 42q32 -29 56 -40.5t51 -11.5q103 0 103 153v469h59z" />
    <glyph glyph-name="K" unicode="K" horiz-adv-x="560" 
d="M291 393l258 -393h-69l-229 349l-109 -120v-229h-59v667h59v-361l326 361h71z" />
    <glyph glyph-name="L" unicode="L" horiz-adv-x="422" 
d="M83 667h59v-612h264v-55h-323v667z" />
    <glyph glyph-name="M" unicode="M" horiz-adv-x="813" 
d="M379 156l-237 416v-572h-59v667h67l256 -450l256 450h68v-667h-60v572l-236 -416h-55z" />
    <glyph glyph-name="N" unicode="N" horiz-adv-x="711" 
d="M142 575v-575h-59v667h59l426 -576v576h59v-667h-59z" />
    <glyph glyph-name="O" unicode="O" horiz-adv-x="765" 
d="M45 333q0 93 46 173q45 78 122 124q78 47 169 47t170 -47q76 -46 121 -124q46 -80 46 -173q0 -92 -46 -173q-45 -78 -121 -123q-79 -48 -170 -48q-90 0 -169 48q-76 46 -122 124q-46 80 -46 172zM105 333q0 -78 38 -145q37 -65 99 -104q65 -39 140 -39t140 39
q63 39 100 104q38 67 38 145q0 79 -38 146q-37 65 -100 103q-64 40 -140 40q-75 0 -140 -40q-63 -38 -99 -103q-38 -67 -38 -146z" />
    <glyph glyph-name="P" unicode="P" horiz-adv-x="464" 
d="M83 667h131q91 0 137 -27q42 -24 65.5 -68.5t23.5 -99.5q0 -58 -27 -105q-24 -42 -63 -64q-46 -27 -136 -27h-72v-276h-59v667zM142 330h81q61 0 96 20q30 17 46.5 49.5t16.5 72.5q0 41 -16.5 72.5t-45.5 48.5q-35 19 -97 19h-81v-282z" />
    <glyph glyph-name="Q" unicode="Q" horiz-adv-x="763" 
d="M600 72l66 -66l-39 -39l-72 72q-81 -50 -173 -50q-90 0 -169 48q-76 46 -122 123q-46 81 -46 173q0 93 46 173q45 78 122 124q79 47 169 47q91 0 170 -47q76 -46 121 -124q46 -81 46 -173q0 -80 -35 -152q-31 -63 -84 -109zM514 81l-55 56l39 39l62 -63q51 42 77 105
q23 54 23 115q0 79 -38 146q-37 65 -99 103q-65 40 -141 40t-140 -40q-63 -38 -99 -103q-38 -67 -38 -146q0 -78 38 -145q37 -65 99 -104q65 -39 140 -39q70 0 132 36z" />
    <glyph glyph-name="R" unicode="R" horiz-adv-x="526" 
d="M83 667h131q99 0 150 -29q46 -27 71 -76q22 -43 22 -93q0 -66 -36 -115q-31 -42 -85 -62l161 -292h-66l-152 280q-42 -4 -65 -4h-72v-276h-59v667zM142 330h81q73 0 113 23q63 35 63 116q0 39 -17.5 71.5t-47.5 49.5q-39 22 -111 22h-81v-282z" />
    <glyph glyph-name="S" unicode="S" horiz-adv-x="500" 
d="M429 581l-47 -30q-50 72 -126 72q-59 0 -97 -40q-33 -34 -33 -82q0 -74 104 -115l66 -26q84 -32 121 -78q32 -40 32 -95q0 -90 -67 -148q-59 -50 -140 -50q-80 0 -134 48q-46 41 -65 113l57 16q34 -121 144 -121q65 0 108 46q37 40 37 95q0 43 -28 72t-95 56l-64 25
q-135 53 -135 162q0 82 62 132q53 44 129 44q108 0 171 -96z" />
    <glyph glyph-name="T" unicode="T" horiz-adv-x="432" 
d="M245 612v-612h-59v612h-176v55h412v-55h-177z" />
    <glyph glyph-name="U" unicode="U" horiz-adv-x="635" 
d="M142 667v-414q0 -52 5 -79.5t17 -49.5q21 -35 63.5 -57t89.5 -22q51 0 95 25q39 21 58 54q13 22 17.5 49.5t4.5 79.5v414h59v-435q0 -83 -28 -131q-31 -55 -93 -85q-53 -27 -113 -27q-69 0 -128 34q-51 30 -78 78q-28 47 -28 131v435h59z" />
    <glyph glyph-name="V" unicode="V" horiz-adv-x="547" 
d="M274 68l202 599h61l-227 -667h-72l-228 667h62z" />
    <glyph glyph-name="W" unicode="W" horiz-adv-x="877" 
d="M439 573l-163 -573h-25h-38l-203 667h62l173 -585l165 585h58l164 -585l174 585h61l-202 -667h-26h-38z" />
    <glyph glyph-name="X" unicode="X" horiz-adv-x="518" 
d="M95 667l165 -268l165 268h63l-196 -317l216 -350h-66l-183 299l-184 -299h-65l217 348l-197 319h65z" />
    <glyph glyph-name="Y" unicode="Y" horiz-adv-x="495" 
d="M218 279l-215 388h65l179 -332l180 332h64l-214 -388v-279h-59v279z" />
    <glyph glyph-name="Z" unicode="Z" horiz-adv-x="508" 
d="M94 55h386v-55h-453v56l383 556h-352v55h415v-57z" />
    <glyph glyph-name="bracketleft" unicode="[" horiz-adv-x="288" 
d="M240 -121v-52h-153v898h153v-52h-96v-794h96z" />
    <glyph glyph-name="backslash" unicode="\" horiz-adv-x="540" 
d="M102 676l380 -659l-44 -26l-380 658z" />
    <glyph glyph-name="bracketright" unicode="]" horiz-adv-x="288" 
d="M48 -121h96v794h-96v52h153v-898h-153v52z" />
    <glyph glyph-name="asciicircum" unicode="^" horiz-adv-x="484" 
d="M28 377l173 292h82l173 -292h-66l-149 245l-148 -245h-65z" />
    <glyph glyph-name="underscore" unicode="_" horiz-adv-x="492" 
d="M3 -73h485v-50h-485v50z" />
    <glyph glyph-name="grave" unicode="`" horiz-adv-x="476" 
d="M271 543l-34 -20l-116 116l57 31z" />
    <glyph glyph-name="a" unicode="a" horiz-adv-x="550" 
d="M484 0h-56v73q-37 -44 -76.5 -64t-90.5 -20q-100 0 -166 77q-57 66 -57 156q0 104 73 173q64 59 150 59q51 0 90 -19.5t77 -63.5v72h56v-443zM264 402q-80 0 -127 -57q-41 -49 -41 -123q0 -85 53 -136q46 -45 115 -45q77 0 124 57q41 50 41 124q0 85 -52 136
q-46 44 -113 44z" />
    <glyph glyph-name="b" unicode="b" horiz-adv-x="550" 
d="M66 0v667h56v-296q67 83 166 83q101 0 167 -76q57 -66 57 -156q0 -104 -73 -173q-64 -60 -151 -60q-100 0 -166 84v-73h-56zM287 402q-78 0 -125 -57q-40 -49 -40 -123q0 -85 52 -136q45 -45 113 -45q78 0 126 58q41 49 41 123q0 84 -53 136q-46 44 -114 44z" />
    <glyph glyph-name="c" unicode="c" horiz-adv-x="455" 
d="M427 384l-38 -38q-53 56 -124 56q-80 0 -128 -57q-41 -49 -41 -123q0 -86 53 -137q47 -44 118 -44q39 0 68 14t57 46l38 -38q-37 -39 -75.5 -56.5t-88.5 -17.5q-104 0 -170 76q-58 65 -58 157q0 106 74 174q64 58 154 58q47 0 83.5 -16t77.5 -54z" />
    <glyph glyph-name="d" unicode="d" horiz-adv-x="550" 
d="M484 0h-56v73q-66 -84 -166 -84q-101 0 -167 77q-57 65 -57 156q0 104 73 173q64 59 151 59q99 0 166 -83v296h56v-667zM263 402q-79 0 -126 -57q-41 -49 -41 -123q0 -85 53 -136q46 -45 114 -45q78 0 125 57q40 50 40 124q0 85 -52 136q-45 44 -113 44z" />
    <glyph glyph-name="e" unicode="e" horiz-adv-x="498" 
d="M96 198q8 -76 57 -119q43 -38 104 -38q91 0 141 79l50 -21q-69 -110 -191 -110q-100 0 -164 75q-55 66 -55 158q0 105 70 173q60 59 143 59q97 0 157 -76q52 -67 52 -164v-16h-364zM96 246h307q-10 79 -55 120q-39 36 -97 36q-66 0 -109 -47q-38 -42 -46 -109z" />
    <glyph glyph-name="f" unicode="f" horiz-adv-x="245" 
d="M82 443v92q0 72 28 107q26 31 71 31q17 0 39 -6v-52q-16 5 -28 5q-54 0 -54 -85v-92h84v-51h-84v-392h-56v392h-47v51h47z" />
    <glyph glyph-name="g" unicode="g" horiz-adv-x="550" 
d="M484 443v-451q0 -114 -71 -179q-62 -57 -159 -57q-61 0 -107 22t-89 71l37 38q37 -43 72.5 -61t84.5 -18q87 0 134 56q42 48 42 128v7v74q-66 -84 -166 -84q-101 0 -167 77q-57 66 -57 156q0 104 73 173q64 59 151 59q99 0 166 -83v72h56zM263 402q-78 0 -126 -57
q-41 -50 -41 -123q0 -85 53 -136q46 -45 114 -45q78 0 125 57q41 50 41 124q0 85 -53 136q-45 44 -113 44z" />
    <glyph glyph-name="h" unicode="h" horiz-adv-x="510" 
d="M122 382q51 72 143 72q49 0 90 -21.5t62 -59.5q26 -46 26 -132v-241h-56v232q0 76 -21 113q-14 26 -42.5 40.5t-64.5 14.5q-37 0 -68.5 -16.5t-46.5 -43.5q-22 -37 -22 -118v-222h-56v667h56v-285z" />
    <glyph glyph-name="i" unicode="i" horiz-adv-x="190" 
d="M124 443v-443h-57v443h57zM95 632q18 0 30.5 -12.5t12.5 -29.5q0 -18 -12.5 -30.5t-30.5 -12.5q-17 0 -29.5 12.5t-12.5 30.5q0 17 12.5 29.5t29.5 12.5z" />
    <glyph glyph-name="j" unicode="j" horiz-adv-x="200" 
d="M-6 -233v51q17 -4 29 -4q53 0 53 84v545h57v-545q0 -71 -29 -107q-25 -30 -70 -30q-18 0 -40 6zM105 632q17 0 29.5 -12.5t12.5 -29.5q0 -18 -12.5 -30.5t-30.5 -12.5q-17 0 -29.5 12.5t-12.5 30.5q0 17 12.5 29.5t30.5 12.5z" />
    <glyph glyph-name="k" unicode="k" horiz-adv-x="458" 
d="M426 443l-178 -178l205 -265h-70l-173 228l-88 -88v-140h-56v667h56v-456l232 232h72z" />
    <glyph glyph-name="l" unicode="l" horiz-adv-x="191" 
d="M123 0h-56v667h56v-667z" />
    <glyph glyph-name="m" unicode="m" horiz-adv-x="787" 
d="M122 443v-61q45 72 133 72q93 0 140 -83q52 83 149 83q103 0 150 -82q26 -45 26 -131v-241h-57v232q0 78 -20 116q-13 24 -38.5 38t-56.5 14q-34 0 -62.5 -15.5t-42.5 -40.5q-21 -39 -21 -122v-222h-56v232q0 78 -21 116q-13 24 -38.5 38t-57.5 14q-34 0 -62 -15t-44 -42
q-21 -36 -21 -121v-222h-56v443h56z" />
    <glyph glyph-name="n" unicode="n" horiz-adv-x="510" 
d="M122 443v-61q51 72 143 72q49 0 90 -21.5t62 -59.5q26 -46 26 -132v-241h-56v232q0 76 -21 113q-14 26 -42.5 40.5t-64.5 14.5q-37 0 -68.5 -16.5t-46.5 -43.5q-22 -37 -22 -118v-222h-56v443h56z" />
    <glyph glyph-name="o" unicode="o" horiz-adv-x="528" 
d="M264 454q103 0 169 -75q57 -66 57 -157q0 -105 -73 -174q-64 -59 -153 -59q-102 0 -169 76q-57 66 -57 157q0 105 74 173q63 59 152 59zM264 402q-79 0 -127 -57q-41 -49 -41 -123q0 -85 53 -136q46 -45 115 -45q79 0 127 57q42 50 42 124q0 85 -54 136q-46 44 -115 44z
" />
    <glyph glyph-name="p" unicode="p" horiz-adv-x="550" 
d="M66 -233v676h56v-72q66 83 166 83q101 0 167 -76q57 -66 57 -156q0 -105 -73 -173q-64 -60 -151 -60q-99 0 -166 84v-306h-56zM287 402q-78 0 -125 -57q-40 -49 -40 -123q0 -86 52 -137q45 -44 113 -44q79 0 126 57q41 50 41 124q0 84 -53 136q-46 44 -114 44z" />
    <glyph glyph-name="q" unicode="q" horiz-adv-x="550" 
d="M484 -233h-56v306q-67 -84 -166 -84q-101 0 -167 76q-57 66 -57 157q0 104 73 173q64 59 151 59q100 0 166 -83v72h56v-676zM263 402q-78 0 -126 -57q-41 -50 -41 -123q0 -85 53 -136q46 -45 114 -45q78 0 125 57q40 50 40 124q0 85 -52 136q-45 44 -113 44z" />
    <glyph glyph-name="r" unicode="r" horiz-adv-x="289" 
d="M66 443h56v-61q43 62 129 62q6 0 14 -1v-51h-13q-79 0 -109 -55q-21 -39 -21 -122v-215h-56v443z" />
    <glyph glyph-name="s" unicode="s" horiz-adv-x="368" 
d="M314 381l-46 -24q-17 26 -36 36.5t-45 10.5q-39 0 -62 -22q-21 -20 -21 -49q0 -28 20 -46q12 -12 64 -32l44 -17q52 -20 75 -46.5t23 -64.5q0 -63 -48 -103q-42 -35 -101 -35q-102 0 -148 106l49 21q22 -42 44.5 -59t56.5 -17q42 0 68 27q22 23 22 56q0 28 -19 46
q-14 13 -66 33l-49 19q-88 35 -88 109q0 57 45 93q38 31 93 31q80 0 125 -73z" />
    <glyph glyph-name="t" unicode="t" horiz-adv-x="242" 
d="M77 392h-52v51h52v109l56 23v-132h76v-51h-76v-260q0 -85 54 -85q12 0 28 4v-51q-22 -6 -39 -6q-52 0 -77 40q-22 35 -22 98v260z" />
    <glyph glyph-name="u" unicode="u" horiz-adv-x="510" 
d="M387 0v61q-51 -72 -143 -72q-49 0 -90 22t-62 59q-26 47 -26 133v240h56v-232q0 -75 21 -112q14 -26 42.5 -40.5t64.5 -14.5q37 0 68.5 16t46.5 43q22 38 22 119v221h56v-443h-56z" />
    <glyph glyph-name="v" unicode="v" horiz-adv-x="448" 
d="M383 443h61l-190 -443h-60l-190 443h61l159 -377z" />
    <glyph glyph-name="w" unicode="w" horiz-adv-x="672" 
d="M170 0l-166 443h61l131 -364l114 364h52l114 -364l132 364h60l-166 -443h-52l-114 360l-114 -360h-52z" />
    <glyph glyph-name="x" unicode="x" horiz-adv-x="429" 
d="M247 231l173 -231h-66l-140 188l-140 -188h-66l173 230l-159 213h66l127 -170l127 170h65z" />
    <glyph glyph-name="y" unicode="y" horiz-adv-x="435" 
d="M185 16l-181 427h61l150 -359l155 359h61l-295 -676h-58z" />
    <glyph glyph-name="z" unicode="z" horiz-adv-x="419" 
d="M388 394l-288 -343h299v-51h-367v49l289 343h-274v51h341v-47v-2z" />
    <glyph glyph-name="braceleft" unicode="{" horiz-adv-x="295" 
d="M48 301q32 11 45.5 33.5t13.5 65.5v187q0 81 32 112q29 26 94 26h7h6v-50q-50 0 -66 -15.5t-16 -65.5v-197q0 -48 -14 -76t-47 -45q34 -19 47.5 -47t13.5 -77v-194q0 -53 18 -68q17 -13 64 -13v-50h-17q-71 0 -98 36q-24 31 -24 102v187q0 46 -13 68t-46 34v47z" />
    <glyph glyph-name="bar" unicode="|" horiz-adv-x="492" 
d="M218 728h57v-904h-57v904z" />
    <glyph glyph-name="braceright" unicode="}" horiz-adv-x="295" 
d="M246 301v-47q-33 -12 -46 -34t-13 -68v-187q0 -80 -31 -111q-28 -27 -90 -27h-18v50q51 0 66.5 15.5t15.5 65.5v194q0 49 14 77t47 47q-32 17 -46.5 45t-14.5 76v197q0 53 -18 68q-17 13 -64 13v50h18q70 0 97 -36q24 -32 24 -102v-187q0 -43 13.5 -65.5t45.5 -33.5z" />
    <glyph glyph-name="asciitilde" unicode="~" horiz-adv-x="656" 
d="M128 592l-32 21q30 58 58.5 82t69.5 24q40 0 110 -34q67 -32 99 -32q29 0 49 14t44 51l33 -19q-24 -48 -50 -71q-16 -14 -39 -23.5t-42 -9.5q-25 0 -45.5 7t-95.5 40q-42 19 -72 19q-45 0 -87 -69z" />
    <glyph glyph-name="nonbreakingspace" unicode="&#xa0;" horiz-adv-x="257" 
 />
    <glyph glyph-name="exclamdown" unicode="&#xa1;" horiz-adv-x="269" 
d="M108 329h52l7 -513h-66zM134 409q-17 0 -29 12t-12 29t12 29.5t29 12.5t29 -12.5t12 -29.5t-12 -29t-29 -12z" />
    <glyph glyph-name="cent" unicode="&#xa2;" horiz-adv-x="547" 
d="M261 104q-89 14 -143 86q-46 62 -46 143q0 94 59 159q51 56 130 70v105h58v-102q45 -5 75 -19.5t67 -49.5l-38 -39q-53 57 -124 57q-80 0 -128 -57q-41 -50 -41 -124q0 -86 53 -136q47 -45 118 -45q39 0 68 14t57 46l38 -38q-34 -36 -66.5 -52t-78.5 -20v-102h-58v104z
" />
    <glyph glyph-name="sterling" unicode="&#xa3;" horiz-adv-x="557" 
d="M208 306l2 -9q14 -70 14 -113q0 -36 -15 -65t-53 -64h347v-55h-425v58q51 43 69 70t18 63q0 39 -14 105q0 1 -1 2v1l-1 7h-71v53h59l-3 13q-10 51 -10 99q0 107 60 159q56 47 133 47q104 0 163 -96l-47 -30q-48 72 -119 72q-65 0 -101 -46q-31 -39 -31 -102
q0 -42 13 -107l2 -9h208v-53h-197z" />
    <glyph glyph-name="currency" unicode="&#xa4;" horiz-adv-x="725" 
d="M186 481l-91 93l32 31l90 -92q61 53 146 53q82 0 144 -53l91 92l32 -31l-92 -93q50 -64 50 -147q0 -85 -50 -148l92 -93l-31 -31l-91 92q-63 -53 -145 -53q-83 0 -146 53l-91 -92l-31 31l91 93q-50 66 -50 147q0 84 50 148zM362 514q-79 0 -127 -57q-41 -50 -41 -123
q0 -85 53 -137q47 -44 115 -44q79 0 127 57q42 50 42 124q0 85 -53 136q-47 44 -116 44z" />
    <glyph glyph-name="yen" unicode="&#xa5;" horiz-adv-x="556" 
d="M249 239h-166v53h158v2l-45 81h-113v53h83l-132 239h65l179 -332l180 332h64l-132 -239h84v-53h-113l-45 -81v-2h158v-53h-166v-239h-59v239z" />
    <glyph glyph-name="brokenbar" unicode="&#xa6;" horiz-adv-x="492" 
d="M275 348h-57v380h57v-380zM275 210v-386h-57v386h57z" />
    <glyph glyph-name="section" unicode="&#xa7;" horiz-adv-x="535" 
d="M401 46q50 -45 50 -115q0 -84 -60 -133q-51 -42 -131 -42q-72 0 -123 35q-45 30 -80 91l48 31q59 -102 156 -102q61 0 99 38q32 34 32 83q0 41 -29 70.5t-94 55.5l-64 25q-134 53 -134 163q0 41 15.5 72t53.5 66q-57 47 -57 119q0 80 61 131q53 43 128 43q107 0 167 -95
l-47 -31q-49 72 -123 72q-58 0 -95 -40q-32 -33 -32 -81q0 -74 102 -114l66 -26q84 -32 121 -78q31 -39 31 -94q0 -73 -55 -137q-1 -1 -6 -7zM191 352q-62 -44 -62 -106q0 -75 104 -115l66 -26q25 -10 54 -26q50 52 50 109q0 44 -27.5 72.5t-95.5 54.5l-63 25q-14 6 -26 12z
" />
    <glyph glyph-name="dieresis" unicode="&#xa8;" horiz-adv-x="476" 
d="M146 631q18 0 30 -12t12 -29t-12 -29.5t-30 -12.5q-17 0 -29 12.5t-12 29.5t12 29t29 12zM330 631q18 0 30 -12t12 -29q0 -18 -12 -30t-30 -12q-17 0 -29 12.5t-12 29.5t12 29t29 12z" />
    <glyph glyph-name="copyright" unicode="&#xa9;" horiz-adv-x="863" 
d="M610 492l-35 -35q-56 59 -126 59q-81 0 -132 -60q-45 -51 -45 -123q0 -82 58 -136q50 -46 119 -46q36 0 66 13.5t63 46.5l35 -35q-40 -39 -78 -56.5t-85 -17.5q-103 0 -172 76q-59 65 -59 155q0 104 76 172q65 60 154 60q88 0 161 -73zM431 712q103 0 191 -52
q86 -50 136 -136q52 -88 52 -191t-52 -191q-50 -85 -136 -135q-88 -52 -191 -52t-191 52q-85 50 -135 135q-52 88 -52 191q0 102 52 191q50 86 136 136q88 52 190 52zM431 667q-90 0 -168 -46q-76 -44 -120 -120q-46 -78 -46 -168q0 -91 46 -168q44 -76 120 -120
q78 -46 168 -46q91 0 169 46q75 44 120 120q45 78 45 168q0 91 -45 169q-45 75 -120 120q-78 45 -169 45z" />
    <glyph glyph-name="ordfeminine" unicode="&#xaa;" horiz-adv-x="361" 
d="M314 406h-44v38q-40 -44 -95 -44q-61 0 -103 46q-35 39 -35 93q0 62 45 103q40 35 93 35q55 0 95 -43v37h44v-265zM177 638q-45 0 -72 -31q-24 -28 -24 -68q0 -47 31 -75q26 -24 65 -24q45 0 72 31q23 27 23 68q0 47 -30 75q-26 24 -65 24z" />
    <glyph glyph-name="guillemotleft" unicode="&#xab;" horiz-adv-x="420" 
d="M366 76l-36 -29l-142 175l142 178l36 -29l-118 -149zM218 76l-36 -29l-142 175l142 178l36 -29l-118 -149z" />
    <glyph glyph-name="logicalnot" unicode="&#xac;" horiz-adv-x="660" 
d="M590 87h-55v199h-465v51h520v-250z" />
    <glyph glyph-name="uni00AD" unicode="&#xad;" horiz-adv-x="249" 
d="M32 338h185v-52h-185v52z" />
    <glyph glyph-name="registered" unicode="&#xae;" horiz-adv-x="863" 
d="M493 299l110 -191h-59l-104 183q-32 -1 -60 -1h-22v-182h-51v450h111q63 0 96 -19q29 -16 46 -47t17 -68q0 -44 -22.5 -77.5t-61.5 -47.5zM358 337h66q102 0 102 87t-102 87h-66v-174zM431 712q103 0 191 -52q86 -50 136 -136q52 -88 52 -191t-52 -191q-50 -85 -136 -135
q-88 -52 -191 -52t-191 52q-85 50 -135 135q-52 88 -52 191q0 102 52 191q50 86 136 136q88 52 190 52zM431 667q-90 0 -168 -46q-76 -44 -120 -120q-46 -78 -46 -168q0 -91 46 -168q44 -76 120 -120q78 -46 168 -46q91 0 169 46q75 44 120 120q45 78 45 168q0 91 -45 169
q-45 75 -120 120q-78 45 -169 45z" />
    <glyph glyph-name="macron" unicode="&#xaf;" horiz-adv-x="476" 
d="M108 616h260v-51h-260v51z" />
    <glyph glyph-name="degree" unicode="&#xb0;" horiz-adv-x="350" 
d="M209 739q61 0 102 -46q36 -39 36 -93q0 -62 -46 -103q-39 -35 -92 -35q-62 0 -103 45q-36 40 -36 93q0 62 46 103q39 36 93 36zM209 506q41 0 69 31q25 27 25 63q0 42 -31 70q-27 24 -64 24q-41 0 -69 -31q-25 -27 -25 -63q0 -42 31 -70q27 -24 64 -24z" />
    <glyph glyph-name="plusminus" unicode="&#xb1;" horiz-adv-x="556" 
d="M502 50v-50h-449v50h449zM252 385v200h52v-200h198v-49h-198v-200h-52v200h-199v49h199z" />
    <glyph glyph-name="twosuperior" unicode="&#xb2;" horiz-adv-x="387" 
d="M68 406v41l149 160q48 50 48 91q0 30 -21 48t-54 18q-32 0 -50.5 -15t-30.5 -51l-43 12q26 98 125 98q57 0 91 -35q29 -30 29 -75q0 -56 -49 -109l-131 -140h190v-43h-253z" />
    <glyph glyph-name="threesuperior" unicode="&#xb3;" horiz-adv-x="387" 
d="M61 497l46 12q11 -35 29.5 -50t50.5 -15q40 0 63 23q20 21 20 52q0 34 -21.5 53.5t-58.5 19.5h-24v42h24q32 0 51.5 18.5t19.5 46.5q0 29 -19.5 47t-51.5 18q-24 0 -40.5 -9t-33.5 -32l-39 21q1 2 4 7l2 2q36 55 108 55q55 0 88 -34q29 -30 29 -74q0 -52 -41 -84
q50 -34 50 -96q0 -57 -41 -91q-35 -29 -88 -29q-46 0 -78.5 23t-46.5 65z" />
    <glyph glyph-name="acute" unicode="&#xb4;" horiz-adv-x="476" 
d="M205 543l92 127l58 -31l-116 -116z" />
    <glyph glyph-name="mu" unicode="&#xb5;" horiz-adv-x="510" 
d="M122 51v-284h-56v676h56v-232q0 -75 21 -112q14 -26 42.5 -40.5t64.5 -14.5q37 0 68.5 16t46.5 43q22 38 22 119v221h56v-443h-56v57q-52 -68 -139 -68q-80 0 -126 62z" />
    <glyph glyph-name="paragraph" unicode="&#xb6;" horiz-adv-x="641" 
d="M302 226h-19q-97 0 -159 71q-54 63 -54 149q0 100 69 165q60 56 144 56h304v-49h-65v-851h-52v851h-115h-2v-851h-51v459z" />
    <glyph glyph-name="glyph195" unicode="&#xb7;" horiz-adv-x="215" 
d="M67 311q0 16 12 28t28 12q17 0 28.5 -11.5t11.5 -28.5q0 -16 -11.5 -28t-28.5 -12q-16 0 -28 12t-12 28z" />
    <glyph glyph-name="cedilla" unicode="&#xb8;" horiz-adv-x="476" 
d="M309 -78l-92 -117l-38 19l77 121z" />
    <glyph glyph-name="onesuperior" unicode="&#xb9;" horiz-adv-x="387" 
d="M233 406h-47v342l-63 -35l-23 38l91 50h42v-395z" />
    <glyph glyph-name="ordmasculine" unicode="&#xba;" horiz-adv-x="355" 
d="M178 677q63 0 105 -45q35 -39 35 -93q0 -63 -46 -103q-39 -36 -94 -36q-64 0 -105 46q-36 39 -36 93q0 63 46 103q40 35 95 35zM178 638q-46 0 -73 -31q-24 -27 -24 -68q0 -47 31 -75q26 -24 66 -24q45 0 72 31q24 28 24 68q0 46 -30 74q-27 25 -66 25z" />
    <glyph glyph-name="guillemotright" unicode="&#xbb;" horiz-adv-x="420" 
d="M202 76l118 146l-118 149l37 29l141 -178l-141 -175zM54 76l118 146l-118 149l36 29l142 -178l-142 -175z" />
    <glyph glyph-name="onequarter" unicode="&#xbc;" horiz-adv-x="833" 
d="M548 675l33 -19l-384 -665l-34 20zM657 379l-159 -249h128v104h47v-104h50v-43h-50v-87h-47v87h-182v43l174 272zM196 272h-47v342l-63 -35l-23 37l91 51h42v-395z" />
    <glyph glyph-name="onehalf" unicode="&#xbd;" horiz-adv-x="833" 
d="M548 675l33 -19l-384 -665l-34 20zM497 0v41l149 160q47 50 47 91q0 30 -20.5 48t-53.5 18t-51.5 -15t-29.5 -51l-43 12q26 98 125 98q57 0 91 -35q29 -30 29 -75q0 -56 -50 -109l-130 -140h189v-43h-252zM196 272h-47v342l-63 -35l-23 37l91 51h42v-395z" />
    <glyph glyph-name="threequarters" unicode="&#xbe;" horiz-adv-x="833" 
d="M609 675l34 -19l-384 -665l-34 20zM696 379l-158 -249h128v104h47v-104h50v-43h-50v-87h-47v87h-182v43l174 272zM55 363l46 12q11 -36 29.5 -51t50.5 -15q40 0 63 24q20 20 20 52q0 33 -21.5 52.5t-58.5 19.5h-24v43h24q32 0 51.5 18t19.5 47t-19.5 47t-51.5 18
q-24 0 -40.5 -9.5t-33.5 -31.5l-39 21q1 2 4 6l2 2q36 55 108 55q55 0 88 -34q29 -29 29 -73q0 -53 -41 -84q50 -35 50 -96q0 -57 -41 -91q-35 -30 -88 -30q-46 0 -78.5 23t-46.5 65z" />
    <glyph glyph-name="questiondown" unicode="&#xbf;" horiz-adv-x="416" 
d="M264 329v-67q0 -45 -10.5 -68t-44.5 -52l-45 -39q-69 -59 -69 -126q0 -57 40 -89q34 -28 87 -28q44 0 73.5 17t58.5 59l43 -35q-59 -96 -171 -96q-93 0 -145 53q-44 45 -44 119q0 45 18.5 81.5t61.5 76.5l52 47q26 24 32 38t6 50v59h57zM235 409q-17 0 -29 12t-12 29
t12 29.5t30 12.5q16 0 28.5 -12.5t12.5 -29.5t-12.5 -29t-29.5 -12z" />
    <glyph glyph-name="Agrave" unicode="&#xc0;" horiz-adv-x="615" 
d="M341 743l-34 -20l-116 116l58 31zM71 0h-61l261 667h72l262 -667h-62l-75 193h-322zM167 248h280l-141 361z" />
    <glyph glyph-name="Aacute" unicode="&#xc1;" horiz-adv-x="615" 
d="M271 743l92 127l57 -31l-115 -116zM71 0h-61l261 667h72l262 -667h-62l-75 193h-322zM167 248h280l-141 361z" />
    <glyph glyph-name="Acircumflex" unicode="&#xc2;" horiz-adv-x="615" 
d="M214 723l-40 20l108 117h51l107 -117l-40 -20l-93 88zM71 0h-61l261 667h72l262 -667h-62l-75 193h-322zM167 248h280l-141 361z" />
    <glyph glyph-name="Atilde" unicode="&#xc3;" horiz-adv-x="615" 
d="M178 759q12 74 72 74q24 0 67 -21q29 -14 47 -14q22 0 28 35l44 -11q-9 -73 -71 -73q-28 0 -65 18q-31 16 -48 16q-21 0 -29 -35zM71 0h-61l261 667h72l262 -667h-62l-75 193h-322zM167 248h280l-141 361z" />
    <glyph glyph-name="Adieresis" unicode="&#xc4;" horiz-adv-x="615" 
d="M71 0h-61l261 667h72l262 -667h-62l-75 193h-322zM167 248h280l-141 361zM399 832q17 0 29.5 -12t12.5 -29q0 -18 -12.5 -30t-29.5 -12t-29.5 12.5t-12.5 29.5t12.5 29t29.5 12zM215 832q18 0 30 -12t12 -29t-12 -29.5t-30 -12.5q-17 0 -29 12.5t-12 29.5t12 29t29 12z
" />
    <glyph glyph-name="Aring" unicode="&#xc5;" horiz-adv-x="615" 
d="M71 0h-61l261 667h72l262 -667h-62l-75 193h-322zM167 248h280l-141 361zM224 791q0 36 28 60q23 21 55 21q37 0 62 -27q22 -23 22 -54q0 -37 -28 -61q-24 -21 -56 -21q-36 0 -61 27q-22 24 -22 55zM256 791q0 -22 15 -37t36 -15q22 0 37 15t15 37q0 21 -15 36t-37 15
q-21 0 -36 -15t-15 -36z" />
    <glyph glyph-name="AE" unicode="&#xc6;" horiz-adv-x="841" 
d="M452 193h-279l-97 -193h-66l342 667h433v-55h-274v-246h244v-55h-244v-256h284v-55h-343v193zM452 248v364h-67l-184 -364h251z" />
    <glyph glyph-name="Ccedilla" unicode="&#xc7;" horiz-adv-x="659" 
d="M401 -78l-93 -117l-38 19l77 121zM618 576l-40 -40q-44 45 -90 65.5t-104 20.5q-77 0 -142 -39q-63 -38 -100 -103q-37 -67 -37 -147q0 -79 38 -146q36 -65 100 -103q65 -39 142 -39q57 0 103 20.5t93 67.5l41 -41q-55 -54 -111 -78.5t-125 -24.5q-93 0 -173 47
q-77 45 -122 123q-46 80 -46 174t46 174q45 78 122 124q79 46 172 46q69 0 123.5 -23.5t109.5 -77.5z" />
    <glyph glyph-name="Egrave" unicode="&#xc8;" horiz-adv-x="472" 
d="M297 743l-34 -20l-116 116l58 31zM416 612h-274v-246h244v-55h-244v-256h285v-55h-344v667h333v-55z" />
    <glyph glyph-name="Eacute" unicode="&#xc9;" horiz-adv-x="472" 
d="M213 743l92 127l58 -31l-116 -116zM416 612h-274v-246h244v-55h-244v-256h285v-55h-344v667h333v-55z" />
    <glyph glyph-name="Ecircumflex" unicode="&#xca;" horiz-adv-x="472" 
d="M162 723l-40 20l107 117h51l108 -117l-40 -20l-93 88zM416 612h-274v-246h244v-55h-244v-256h285v-55h-344v667h333v-55z" />
    <glyph glyph-name="Edieresis" unicode="&#xcb;" horiz-adv-x="472" 
d="M416 612h-274v-246h244v-55h-244v-256h285v-55h-344v667h333v-55zM346 832q17 0 29 -12t12 -29q0 -18 -12 -30t-29 -12t-29.5 12.5t-12.5 29.5t12 29t30 12zM162 832q17 0 29.5 -12t12.5 -29t-12.5 -29.5t-29.5 -12.5t-29.5 12.5t-12.5 29.5t12.5 29t29.5 12z" />
    <glyph glyph-name="Igrave" unicode="&#xcc;" horiz-adv-x="226" 
d="M146 743l-34 -20l-116 116l57 31zM143 667v-667h-60v667h60z" />
    <glyph glyph-name="Iacute" unicode="&#xcd;" horiz-adv-x="226" 
d="M80 743l92 127l58 -31l-116 -116zM143 667v-667h-60v667h60z" />
    <glyph glyph-name="Icircumflex" unicode="&#xce;" horiz-adv-x="226" 
d="M20 723l-40 20l107 117h51l108 -117l-40 -20l-93 88zM142 667v-667h-59v667h59z" />
    <glyph glyph-name="Idieresis" unicode="&#xcf;" horiz-adv-x="226" 
d="M142 667v-667h-59v667h59zM179 832q18 0 30 -12t12 -29q0 -18 -12 -30t-30 -12q-17 0 -29 12.5t-12 29.5t12 29t29 12zM45 832q18 0 30 -12t12 -29t-12 -29.5t-30 -12.5q-16 0 -28.5 12.5t-12.5 29.5t12 29t29 12z" />
    <glyph glyph-name="Eth" unicode="&#xd0;" horiz-adv-x="629" 
d="M94 334h-62v52h62v281h131q178 0 275 -102q84 -88 84 -231q0 -165 -109 -256q-95 -78 -250 -78h-131v334zM317 334h-164v-279h76q145 0 225 86q70 74 70 193q0 136 -90 212q-79 66 -205 66h-76v-226h164v-52z" />
    <glyph glyph-name="Ntilde" unicode="&#xd1;" horiz-adv-x="711" 
d="M235 759q11 74 72 74q24 0 67 -21q28 -14 47 -14q21 0 27 35l45 -11q-10 -73 -72 -73q-28 0 -65 18q-31 16 -48 16q-21 0 -29 -35zM142 575v-575h-59v667h59l426 -576v576h59v-667h-59z" />
    <glyph glyph-name="Ograve" unicode="&#xd2;" horiz-adv-x="765" 
d="M418 743l-35 -20l-115 116l57 31zM45 333q0 93 46 173q45 78 122 124q78 47 169 47t170 -47q76 -46 121 -124q46 -80 46 -173q0 -92 -46 -173q-45 -78 -121 -123q-79 -48 -170 -48q-90 0 -169 48q-76 46 -122 124q-46 80 -46 172zM105 333q0 -78 38 -145q37 -65 99 -104
q65 -39 140 -39t140 39q63 39 100 104q38 67 38 145q0 79 -38 146q-37 65 -100 103q-64 40 -140 40q-75 0 -140 -40q-63 -38 -99 -103q-38 -67 -38 -146z" />
    <glyph glyph-name="Oacute" unicode="&#xd3;" horiz-adv-x="765" 
d="M347 743l92 127l58 -31l-116 -116zM45 333q0 93 46 173q45 78 122 124q78 47 169 47t170 -47q76 -46 121 -124q46 -80 46 -173q0 -92 -46 -173q-45 -78 -121 -123q-79 -48 -170 -48q-90 0 -169 48q-76 46 -122 124q-46 80 -46 172zM105 333q0 -78 38 -145q37 -65 99 -104
q65 -39 140 -39t140 39q63 39 100 104q38 67 38 145q0 79 -38 146q-37 65 -100 103q-64 40 -140 40q-75 0 -140 -40q-63 -38 -99 -103q-38 -67 -38 -146z" />
    <glyph glyph-name="Ocircumflex" unicode="&#xd4;" horiz-adv-x="765" 
d="M289 723l-40 20l108 117h51l107 -117l-40 -20l-93 88zM45 333q0 93 46 173q45 78 122 124q78 47 169 47t170 -47q76 -46 121 -124q46 -80 46 -173q0 -92 -46 -173q-45 -78 -121 -123q-79 -48 -170 -48q-90 0 -169 48q-76 46 -122 124q-46 80 -46 172zM105 333
q0 -78 38 -145q37 -65 99 -104q65 -39 140 -39t140 39q63 39 100 104q38 67 38 145q0 79 -38 146q-37 65 -100 103q-64 40 -140 40q-75 0 -140 -40q-63 -38 -99 -103q-38 -67 -38 -146z" />
    <glyph glyph-name="Otilde" unicode="&#xd5;" horiz-adv-x="765" 
d="M253 759q12 74 72 74q24 0 67 -21q29 -14 47 -14q22 0 28 35l44 -11q-9 -73 -71 -73q-28 0 -65 18q-31 16 -48 16q-21 0 -29 -35zM45 333q0 93 46 173q45 78 122 124q78 47 169 47t170 -47q76 -46 121 -124q46 -80 46 -173q0 -92 -46 -173q-45 -78 -121 -123
q-79 -48 -170 -48q-90 0 -169 48q-76 46 -122 124q-46 80 -46 172zM105 333q0 -78 38 -145q37 -65 99 -104q65 -39 140 -39t140 39q63 39 100 104q38 67 38 145q0 79 -38 146q-37 65 -100 103q-64 40 -140 40q-75 0 -140 -40q-63 -38 -99 -103q-38 -67 -38 -146z" />
    <glyph glyph-name="Odieresis" unicode="&#xd6;" horiz-adv-x="765" 
d="M45 333q0 93 46 173q45 78 122 124q78 47 169 47t170 -47q76 -46 121 -124q46 -80 46 -173q0 -92 -46 -173q-45 -78 -121 -123q-79 -48 -170 -48q-90 0 -169 48q-76 46 -122 124q-46 80 -46 172zM105 333q0 -78 38 -145q37 -65 99 -104q65 -39 140 -39t140 39
q63 39 100 104q38 67 38 145q0 79 -38 146q-37 65 -100 103q-64 40 -140 40q-75 0 -140 -40q-63 -38 -99 -103q-38 -67 -38 -146zM474 832q17 0 29.5 -12t12.5 -29q0 -18 -12.5 -30t-29.5 -12t-29.5 12.5t-12.5 29.5t12.5 29t29.5 12zM290 832q18 0 30 -12t12 -29
t-12.5 -29.5t-29.5 -12.5t-29 12.5t-12 29.5t12 29t29 12z" />
    <glyph glyph-name="multiply" unicode="&#xd7;" horiz-adv-x="556" 
d="M101 171l141 141l-141 141l36 36l141 -141l141 141l35 -36l-141 -141l141 -141l-35 -36l-141 141l-141 -141z" />
    <glyph glyph-name="Oslash" unicode="&#xd8;" horiz-adv-x="772" 
d="M608 591l75 77l32 -31l-76 -78q84 -100 84 -226q0 -92 -46 -173q-45 -78 -121 -123q-79 -48 -170 -48q-123 0 -221 86l-75 -76l-33 31l76 77q-84 100 -84 225q0 93 46 174q45 78 122 124q79 47 170 47q124 0 221 -86zM568 551q-81 71 -181 71q-76 0 -141 -40
q-63 -38 -100 -103q-37 -68 -37 -148q0 -101 65 -183zM599 519l-394 -403q81 -71 181 -71q75 0 140 39q63 39 100 104q38 67 38 146q0 103 -65 185z" />
    <glyph glyph-name="Ugrave" unicode="&#xd9;" horiz-adv-x="635" 
d="M359 743l-34 -20l-116 116l58 31zM142 667v-414q0 -52 5 -79.5t17 -49.5q21 -35 63.5 -57t89.5 -22q51 0 95 25q39 21 58 54q13 22 17.5 49.5t4.5 79.5v414h59v-435q0 -83 -28 -131q-31 -55 -93 -85q-53 -27 -113 -27q-69 0 -128 34q-51 30 -78 78q-28 47 -28 131v435h59
z" />
    <glyph glyph-name="Uacute" unicode="&#xda;" horiz-adv-x="635" 
d="M275 743l92 127l58 -31l-116 -116zM142 667v-414q0 -52 5 -79.5t17 -49.5q21 -35 63.5 -57t89.5 -22q51 0 95 25q39 21 58 54q13 22 17.5 49.5t4.5 79.5v414h59v-435q0 -83 -28 -131q-31 -55 -93 -85q-53 -27 -113 -27q-69 0 -128 34q-51 30 -78 78q-28 47 -28 131v435
h59z" />
    <glyph glyph-name="Ucircumflex" unicode="&#xdb;" horiz-adv-x="635" 
d="M224 723l-40 20l108 117h51l107 -117l-40 -20l-93 88zM142 667v-414q0 -52 5 -79.5t17 -49.5q21 -35 63.5 -57t89.5 -22q51 0 95 25q39 21 58 54q13 22 17.5 49.5t4.5 79.5v414h59v-435q0 -83 -28 -131q-31 -55 -93 -85q-53 -27 -113 -27q-69 0 -128 34q-51 30 -78 78
q-28 47 -28 131v435h59z" />
    <glyph glyph-name="Udieresis" unicode="&#xdc;" horiz-adv-x="635" 
d="M142 667v-414q0 -52 5 -79.5t17 -49.5q21 -35 63.5 -57t89.5 -22q51 0 95 25q39 21 58 54q13 22 17.5 49.5t4.5 79.5v414h59v-435q0 -83 -28 -131q-31 -55 -93 -85q-53 -27 -113 -27q-69 0 -128 34q-51 30 -78 78q-28 47 -28 131v435h59zM409 832q17 0 29.5 -12t12.5 -29
q0 -18 -12.5 -30t-29.5 -12t-29.5 12.5t-12.5 29.5t12.5 29t29.5 12zM225 832q17 0 29.5 -12t12.5 -29t-12.5 -29.5t-29.5 -12.5t-29 12.5t-12 29.5t12 29t29 12z" />
    <glyph glyph-name="Yacute" unicode="&#xdd;" horiz-adv-x="495" 
d="M205 743l92 127l58 -31l-116 -116zM218 279l-215 388h65l179 -332l180 332h64l-214 -388v-279h-59v279z" />
    <glyph glyph-name="Thorn" unicode="&#xde;" horiz-adv-x="464" 
d="M83 667h59v-104h72q91 0 137 -26q42 -24 65.5 -69t23.5 -99q0 -58 -27 -106q-24 -41 -63 -64q-46 -26 -136 -26h-72v-173h-59v667zM142 509v-282h81q62 0 96 20q30 16 46.5 48.5t16.5 73.5q0 40 -16.5 72t-45.5 48q-35 20 -97 20h-81z" />
    <glyph glyph-name="germandbls" unicode="&#xdf;" horiz-adv-x="515" 
d="M66 0v501q0 82 54 133q47 43 116 43q85 0 135 -55q43 -47 43 -120q0 -48 -21 -90q-18 -36 -43 -49q59 -22 90 -71q26 -44 26 -102q0 -92 -65 -144q-57 -46 -146 -46h-49v54h52q72 0 114 43q37 38 37 95q0 67 -46 104q-39 33 -101 33h-3v51h3q47 0 73 37q23 32 23 82
q0 62 -36 97q-32 31 -81 31q-57 0 -90 -40q-29 -34 -29 -86v-501h-56z" />
    <glyph glyph-name="agrave" unicode="&#xe0;" horiz-adv-x="550" 
d="M297 543l-35 -20l-115 116l57 31zM484 0h-56v73q-37 -44 -76.5 -64t-90.5 -20q-100 0 -166 77q-57 66 -57 156q0 104 73 173q64 59 150 59q51 0 90 -19.5t77 -63.5v72h56v-443zM264 402q-80 0 -127 -57q-41 -49 -41 -123q0 -85 53 -136q46 -45 115 -45q77 0 124 57
q41 50 41 124q0 85 -52 136q-46 44 -113 44z" />
    <glyph glyph-name="aacute" unicode="&#xe1;" horiz-adv-x="550" 
d="M232 543l93 127l57 -31l-116 -116zM484 0h-56v73q-37 -44 -76.5 -64t-90.5 -20q-100 0 -166 77q-57 66 -57 156q0 104 73 173q64 59 150 59q51 0 90 -19.5t77 -63.5v72h56v-443zM264 402q-80 0 -127 -57q-41 -49 -41 -123q0 -85 53 -136q46 -45 115 -45q77 0 124 57
q41 50 41 124q0 85 -52 136q-46 44 -113 44z" />
    <glyph glyph-name="acircumflex" unicode="&#xe2;" horiz-adv-x="550" 
d="M168 523l-40 20l108 117h51l107 -117l-40 -20l-93 88zM484 0h-56v73q-37 -44 -76.5 -64t-90.5 -20q-100 0 -166 77q-57 66 -57 156q0 104 73 173q64 59 150 59q51 0 90 -19.5t77 -63.5v72h56v-443zM264 402q-80 0 -127 -57q-41 -49 -41 -123q0 -85 53 -136
q46 -45 115 -45q77 0 124 57q41 50 41 124q0 85 -52 136q-46 44 -113 44z" />
    <glyph glyph-name="atilde" unicode="&#xe3;" horiz-adv-x="550" 
d="M132 559q12 74 72 74q24 0 67 -21q28 -14 47 -14q22 0 28 35l44 -11q-8 -73 -71 -73q-28 0 -65 18q-31 16 -48 16q-21 0 -29 -35zM484 0h-56v73q-37 -44 -76.5 -64t-90.5 -20q-100 0 -166 77q-57 66 -57 156q0 104 73 173q64 59 150 59q51 0 90 -19.5t77 -63.5v72h56
v-443zM264 402q-80 0 -127 -57q-41 -49 -41 -123q0 -85 53 -136q46 -45 115 -45q77 0 124 57q41 50 41 124q0 85 -52 136q-46 44 -113 44z" />
    <glyph glyph-name="adieresis" unicode="&#xe4;" horiz-adv-x="550" 
d="M484 0h-56v73q-37 -44 -76.5 -64t-90.5 -20q-100 0 -166 77q-57 66 -57 156q0 104 73 173q64 59 150 59q51 0 90 -19.5t77 -63.5v72h56v-443zM264 402q-80 0 -127 -57q-41 -49 -41 -123q0 -85 53 -136q46 -45 115 -45q77 0 124 57q41 50 41 124q0 85 -52 136
q-46 44 -113 44zM178 631q17 0 29 -12t12 -29t-12 -29.5t-29 -12.5t-29.5 12.5t-12.5 29.5t12 29t30 12zM361 631q18 0 30 -12t12 -29q0 -18 -12 -30t-30 -12q-17 0 -29 12.5t-12 29.5t12 29t29 12z" />
    <glyph glyph-name="aring" unicode="&#xe5;" horiz-adv-x="550" 
d="M190 591q0 36 27 60q24 21 56 21q37 0 62 -27q21 -23 21 -54q0 -36 -27 -61q-24 -20 -56 -20q-37 0 -62 26q-21 24 -21 55zM221 591q0 -22 15 -37t37 -15q21 0 36.5 15t15.5 37q0 21 -15.5 36t-36.5 15t-36.5 -15t-15.5 -36zM484 0h-56v73q-37 -44 -76.5 -64t-90.5 -20
q-100 0 -166 77q-57 66 -57 156q0 104 73 173q64 59 150 59q51 0 90 -19.5t77 -63.5v72h56v-443zM264 402q-80 0 -127 -57q-41 -49 -41 -123q0 -85 53 -136q46 -45 115 -45q77 0 124 57q41 50 41 124q0 85 -52 136q-46 44 -113 44z" />
    <glyph glyph-name="ae" unicode="&#xe6;" horiz-adv-x="832" 
d="M783 99q-71 -110 -191 -110q-61 0 -110 29q-43 25 -69 68q-38 -97 -179 -97q-98 0 -150 45q-46 39 -46 103q0 72 54 111q48 34 127 34h153q-4 46 -22 71q-35 49 -123 49q-76 0 -141 -48l-26 38q45 33 86 47.5t91 14.5q135 0 172 -102q27 50 79 78q46 24 97 24
q97 0 157 -77q52 -66 52 -163v-16h-363q10 -79 57 -121q41 -36 103 -36q91 0 141 79zM374 233h-141q-71 0 -107 -29q-32 -25 -32 -69q0 -48 42 -72q36 -22 98 -22q72 0 108 29q32 26 32 71v92zM431 246h307q-11 79 -56 120q-39 36 -97 36q-74 0 -119 -60q-27 -36 -35 -96z
" />
    <glyph glyph-name="ccedilla" unicode="&#xe7;" horiz-adv-x="455" 
d="M284 -78l-92 -117l-38 19l77 121zM427 384l-38 -38q-53 56 -124 56q-80 0 -128 -57q-41 -49 -41 -123q0 -86 53 -137q47 -44 118 -44q39 0 68 14t57 46l38 -38q-37 -39 -75.5 -56.5t-88.5 -17.5q-104 0 -170 76q-58 65 -58 157q0 106 74 174q64 58 154 58q47 0 83.5 -16
t77.5 -54z" />
    <glyph glyph-name="egrave" unicode="&#xe8;" horiz-adv-x="498" 
d="M290 543l-35 -20l-115 116l57 31zM96 198q8 -76 57 -119q43 -38 104 -38q91 0 141 79l50 -21q-69 -110 -191 -110q-100 0 -164 75q-55 66 -55 158q0 105 70 173q60 59 143 59q97 0 157 -76q52 -67 52 -164v-16h-364zM96 246h307q-10 79 -55 120q-39 36 -97 36
q-66 0 -109 -47q-38 -42 -46 -109z" />
    <glyph glyph-name="eacute" unicode="&#xe9;" horiz-adv-x="498" 
d="M209 543l92 127l58 -31l-116 -116zM96 198q8 -76 57 -119q43 -38 104 -38q91 0 141 79l50 -21q-69 -110 -191 -110q-100 0 -164 75q-55 66 -55 158q0 105 70 173q60 59 143 59q97 0 157 -76q52 -67 52 -164v-16h-364zM96 246h307q-10 79 -55 120q-39 36 -97 36
q-66 0 -109 -47q-38 -42 -46 -109z" />
    <glyph glyph-name="ecircumflex" unicode="&#xea;" horiz-adv-x="498" 
d="M156 523l-40 20l108 117h51l107 -117l-40 -20l-93 88zM96 198q8 -76 57 -119q43 -38 104 -38q91 0 141 79l50 -21q-69 -110 -191 -110q-100 0 -164 75q-55 66 -55 158q0 105 70 173q60 59 143 59q97 0 157 -76q52 -67 52 -164v-16h-364zM96 246h307q-10 79 -55 120
q-39 36 -97 36q-66 0 -109 -47q-38 -42 -46 -109z" />
    <glyph glyph-name="edieresis" unicode="&#xeb;" horiz-adv-x="498" 
d="M96 198q8 -76 57 -119q43 -38 104 -38q91 0 141 79l50 -21q-69 -110 -191 -110q-100 0 -164 75q-55 66 -55 158q0 105 70 173q60 59 143 59q97 0 157 -76q52 -67 52 -164v-16h-364zM96 246h307q-10 79 -55 120q-39 36 -97 36q-66 0 -109 -47q-38 -42 -46 -109zM157 631
q17 0 29.5 -12t12.5 -29t-12.5 -29.5t-29.5 -12.5t-29.5 12.5t-12.5 29.5t12.5 29t29.5 12zM341 631q17 0 29 -12t12 -29q0 -18 -12 -30t-29 -12t-29.5 12.5t-12.5 29.5t12.5 29t29.5 12z" />
    <glyph glyph-name="igrave" unicode="&#xec;" horiz-adv-x="190" 
d="M125 543l-34 -20l-116 116l57 31zM124 443v-443h-57v443h57z" />
    <glyph glyph-name="iacute" unicode="&#xed;" horiz-adv-x="190" 
d="M66 543l92 127l58 -31l-116 -116zM124 443v-443h-57v443h57z" />
    <glyph glyph-name="icircumflex" unicode="&#xee;" horiz-adv-x="190" 
d="M2 523l-40 20l107 117h51l108 -117l-40 -20l-93 88zM123 443v-443h-56v443h56z" />
    <glyph glyph-name="idieresis" unicode="&#xef;" horiz-adv-x="190" 
d="M123 443v-443h-56v443h56zM27 631q18 0 30 -12t12 -29t-12 -29.5t-30 -12.5q-17 0 -29 12.5t-12 29.5t12 29t29 12zM161 631q18 0 30 -12t12 -29q0 -18 -12 -30t-30 -12q-17 0 -29 12.5t-12 29.5t12 29t29 12z" />
    <glyph glyph-name="eth" unicode="&#xf0;" horiz-adv-x="531" 
d="M313 598q94 -62 140 -157q40 -84 40 -187q0 -128 -70 -201q-62 -64 -158 -64q-102 0 -169 76q-57 66 -57 157q0 104 73 172q63 59 149 59q83 0 140 -58q-21 49 -34.5 71t-37.5 46q-35 35 -73 55l-86 -46l-26 29l71 37q-47 20 -105 29l8 49q56 -9 88 -18.5t69 -27.5l76 40
l25 -28zM434 222q0 84 -54 135q-46 45 -115 45q-79 0 -126 -57q-42 -50 -42 -123q0 -84 54 -136q46 -44 114 -44q79 0 127 57q42 50 42 123z" />
    <glyph glyph-name="ntilde" unicode="&#xf1;" horiz-adv-x="510" 
d="M131 559q11 74 71 74q24 0 68 -21q28 -14 46 -14q22 0 28 35l44 -11q-9 -73 -71 -73q-28 0 -65 18q-31 16 -48 16q-21 0 -29 -35zM122 443v-61q51 72 143 72q49 0 90 -21.5t62 -59.5q26 -46 26 -132v-241h-56v232q0 76 -21 113q-14 26 -42.5 40.5t-64.5 14.5
q-37 0 -68.5 -16.5t-46.5 -43.5q-22 -37 -22 -118v-222h-56v443h56z" />
    <glyph glyph-name="ograve" unicode="&#xf2;" horiz-adv-x="528" 
d="M300 543l-35 -20l-115 116l57 31zM264 454q103 0 169 -75q57 -66 57 -157q0 -105 -73 -174q-64 -59 -153 -59q-102 0 -169 76q-57 66 -57 157q0 105 74 173q63 59 152 59zM264 402q-79 0 -127 -57q-41 -49 -41 -123q0 -85 53 -136q46 -45 115 -45q79 0 127 57
q42 50 42 124q0 85 -54 136q-46 44 -115 44z" />
    <glyph glyph-name="oacute" unicode="&#xf3;" horiz-adv-x="528" 
d="M229 543l92 127l58 -31l-116 -116zM264 454q103 0 169 -75q57 -66 57 -157q0 -105 -73 -174q-64 -59 -153 -59q-102 0 -169 76q-57 66 -57 157q0 105 74 173q63 59 152 59zM264 402q-79 0 -127 -57q-41 -49 -41 -123q0 -85 53 -136q46 -45 115 -45q79 0 127 57
q42 50 42 124q0 85 -54 136q-46 44 -115 44z" />
    <glyph glyph-name="ocircumflex" unicode="&#xf4;" horiz-adv-x="528" 
d="M357 523l-93 88l-93 -88l-40 20l108 117h51l107 -117zM264 454q103 0 169 -75q57 -66 57 -157q0 -106 -73 -174q-64 -59 -153 -59q-103 0 -169 76q-57 66 -57 158q0 104 74 172q64 59 152 59zM264 402q-79 0 -127 -57q-41 -49 -41 -123q0 -85 53 -136q46 -45 115 -45
q79 0 127 58q42 49 42 123q0 85 -54 136q-46 44 -115 44z" />
    <glyph glyph-name="otilde" unicode="&#xf5;" horiz-adv-x="528" 
d="M135 559q12 74 72 74q24 0 67 -21q28 -14 47 -14q22 0 27 35l45 -11q-9 -73 -71 -73q-28 0 -65 18q-31 16 -49 16q-20 0 -28 -35zM264 454q103 0 169 -75q57 -66 57 -157q0 -105 -73 -174q-64 -59 -153 -59q-102 0 -169 76q-57 66 -57 157q0 105 74 173q63 59 152 59z
M264 402q-79 0 -127 -57q-41 -49 -41 -123q0 -85 53 -136q46 -45 115 -45q79 0 127 57q42 50 42 124q0 85 -54 136q-46 44 -115 44z" />
    <glyph glyph-name="odieresis" unicode="&#xf6;" horiz-adv-x="528" 
d="M264 454q103 0 169 -75q57 -66 57 -157q0 -105 -73 -174q-64 -59 -153 -59q-102 0 -169 76q-57 66 -57 157q0 105 74 173q63 59 152 59zM264 402q-79 0 -127 -57q-41 -49 -41 -123q0 -85 53 -136q46 -45 115 -45q79 0 127 57q42 50 42 124q0 85 -54 136q-46 44 -115 44z
M356 631q17 0 29.5 -12t12.5 -29q0 -18 -12.5 -30t-29.5 -12t-29.5 12.5t-12.5 29.5t12.5 29t29.5 12zM172 631q17 0 29.5 -12t12.5 -29t-12.5 -29.5t-29.5 -12.5t-29 12.5t-12 29.5t12 29t29 12z" />
    <glyph glyph-name="divide" unicode="&#xf7;" horiz-adv-x="556" 
d="M486 337v-50h-416v50h416zM233 138q0 19 13 32.5t32 13.5t32 -13.5t13 -32.5q0 -18 -13.5 -31.5t-31.5 -13.5q-19 0 -32 13.5t-13 31.5zM233 486q0 18 13 31.5t32 13.5t32 -13.5t13 -31.5q0 -19 -13.5 -32.5t-31.5 -13.5q-19 0 -32 13.5t-13 32.5z" />
    <glyph glyph-name="oslash" unicode="&#xf8;" horiz-adv-x="542" 
d="M448 368q49 -65 49 -145q0 -107 -73 -175q-64 -59 -154 -59q-84 0 -148 56l-47 -46l-30 28l49 49q-49 65 -49 145q0 106 74 174q63 59 153 59q84 0 148 -56l48 47l29 -29zM411 331l-252 -250q49 -40 110 -40q82 0 129 57q42 50 42 126q0 60 -29 107zM132 113l252 249
q-49 40 -111 40q-82 0 -129 -57q-41 -50 -41 -127q0 -55 29 -105z" />
    <glyph glyph-name="ugrave" unicode="&#xf9;" horiz-adv-x="510" 
d="M292 543l-35 -20l-115 116l57 31zM387 0v61q-51 -72 -143 -72q-49 0 -90 22t-62 59q-26 47 -26 133v240h56v-232q0 -75 21 -112q14 -26 42.5 -40.5t64.5 -14.5q37 0 68.5 16t46.5 43q22 38 22 119v221h56v-443h-56z" />
    <glyph glyph-name="uacute" unicode="&#xfa;" horiz-adv-x="510" 
d="M214 543l93 127l57 -31l-116 -116zM387 0v61q-51 -72 -143 -72q-49 0 -90 22t-62 59q-26 47 -26 133v240h56v-232q0 -75 21 -112q14 -26 42.5 -40.5t64.5 -14.5q37 0 68.5 16t46.5 43q22 38 22 119v221h56v-443h-56z" />
    <glyph glyph-name="ucircumflex" unicode="&#xfb;" horiz-adv-x="510" 
d="M161 523l-39 20l107 117h51l107 -117l-39 -20l-93 88zM387 0v61q-51 -72 -143 -72q-49 0 -90 22t-62 59q-26 47 -26 133v240h56v-232q0 -75 21 -112q14 -26 42.5 -40.5t64.5 -14.5q37 0 68.5 16t46.5 43q22 38 22 119v221h56v-443h-56z" />
    <glyph glyph-name="udieresis" unicode="&#xfc;" horiz-adv-x="510" 
d="M387 0v61q-51 -72 -143 -72q-49 0 -90 22t-62 59q-26 47 -26 133v240h56v-232q0 -75 21 -112q14 -26 42.5 -40.5t64.5 -14.5q37 0 68.5 16t46.5 43q22 38 22 119v221h56v-443h-56zM162 631q18 0 30 -12t12 -29t-12 -29.5t-29 -12.5t-29.5 12.5t-12.5 29.5t12 29t29 12z
M346 631q18 0 30 -12t12 -29q0 -18 -12 -30t-30 -12q-17 0 -29 12.5t-12 29.5t12 29t29 12z" />
    <glyph glyph-name="yacute" unicode="&#xfd;" horiz-adv-x="435" 
d="M180 543l92 127l57 -31l-115 -116zM185 16l-181 427h61l150 -359l155 359h61l-295 -676h-58z" />
    <glyph glyph-name="thorn" unicode="&#xfe;" horiz-adv-x="551" 
d="M67 -233v900h56v-296q66 83 166 83q101 0 167 -76q57 -66 57 -156q0 -105 -73 -173q-64 -60 -151 -60q-99 0 -166 84v-306h-56zM288 402q-78 0 -125 -57q-40 -49 -40 -123q0 -86 52 -137q45 -44 113 -44q79 0 126 57q41 50 41 124q0 84 -53 136q-46 44 -114 44z" />
    <glyph glyph-name="ydieresis" unicode="&#xff;" horiz-adv-x="435" 
d="M185 16l-181 427h61l150 -359l155 359h61l-295 -676h-58zM125 631q18 0 30 -12t12 -29t-12 -29.5t-30 -12.5q-17 0 -29 12.5t-12 29.5t12 29t29 12zM309 631q17 0 29.5 -12t12.5 -29q0 -18 -12.5 -30t-29.5 -12t-29.5 12.5t-12.5 29.5t12.5 29t29.5 12z" />
    <glyph glyph-name="Amacron" unicode="&#x100;" horiz-adv-x="615" 
d="M177 816h260v-51h-260v51zM71 0h-61l261 667h72l262 -667h-62l-75 193h-322zM167 248h280l-141 361z" />
    <glyph glyph-name="amacron" unicode="&#x101;" horiz-adv-x="550" 
d="M143 616h260v-51h-260v51zM484 0h-56v73q-37 -44 -76.5 -64t-90.5 -20q-100 0 -166 77q-57 66 -57 156q0 104 73 173q64 59 150 59q51 0 90 -19.5t77 -63.5v72h56v-443zM264 402q-80 0 -127 -57q-41 -49 -41 -123q0 -85 53 -136q46 -45 115 -45q77 0 124 57q41 50 41 124
q0 85 -52 136q-46 44 -113 44z" />
    <glyph glyph-name="Abreve" unicode="&#x102;" horiz-adv-x="615" 
d="M182 841l49 4q2 -35 22.5 -55t52.5 -20q65 0 77 75l49 -4q-9 -60 -46 -92q-33 -28 -80 -28q-56 0 -91 37q-29 32 -33 83zM71 0h-61l261 667h72l262 -667h-62l-75 193h-322zM167 248h280l-141 361z" />
    <glyph glyph-name="abreve" unicode="&#x103;" horiz-adv-x="550" 
d="M138 641l48 4q3 -35 23 -55t52 -20q66 0 78 75l48 -4q-9 -60 -46 -92q-32 -27 -79 -27q-57 0 -91 36q-30 32 -33 83zM484 0h-56v73q-37 -44 -76.5 -64t-90.5 -20q-100 0 -166 77q-57 66 -57 156q0 104 73 173q64 59 150 59q51 0 90 -19.5t77 -63.5v72h56v-443zM264 402
q-80 0 -127 -57q-41 -49 -41 -123q0 -85 53 -136q46 -45 115 -45q77 0 124 57q41 50 41 124q0 85 -52 136q-46 44 -113 44z" />
    <glyph glyph-name="Aogonek" unicode="&#x104;" horiz-adv-x="615" 
d="M548 0h-5l-75 193h-322l-75 -193h-61l261 667h72l262 -667q-36 -42 -36 -67q0 -31 38 -31q14 0 34 7l16 -41q-31 -11 -57 -11q-38 0 -62 23q-21 20 -21 49q0 34 31 71zM167 248h280l-141 361z" />
    <glyph glyph-name="aogonek" unicode="&#x105;" horiz-adv-x="550" 
d="M484 443v-443q-35 -41 -35 -67q0 -31 37 -31q15 0 34 7l16 -41q-31 -11 -56 -11q-38 0 -62 23q-21 20 -21 48q0 34 31 72v73q-37 -44 -76.5 -64t-90.5 -20q-100 0 -166 77q-57 66 -57 156q0 104 73 173q64 59 150 59q51 0 90 -19.5t77 -63.5v72h56zM264 402
q-80 0 -127 -57q-41 -49 -41 -123q0 -85 53 -136q46 -45 115 -45q77 0 124 57q41 50 41 124q0 85 -52 136q-46 44 -113 44z" />
    <glyph glyph-name="Cacute" unicode="&#x106;" horiz-adv-x="659" 
d="M348 743l93 127l57 -31l-115 -116zM618 576l-40 -40q-44 45 -90 65.5t-104 20.5q-77 0 -142 -39q-63 -38 -100 -103q-37 -67 -37 -147q0 -79 38 -146q36 -65 100 -103q65 -39 142 -39q57 0 103 20.5t93 67.5l41 -41q-55 -54 -111 -78.5t-125 -24.5q-93 0 -173 47
q-77 45 -122 123q-46 80 -46 174t46 174q45 78 122 124q79 46 172 46q69 0 123.5 -23.5t109.5 -77.5z" />
    <glyph glyph-name="cacute" unicode="&#x107;" horiz-adv-x="455" 
d="M212 543l93 127l57 -31l-115 -116zM427 384l-38 -38q-53 56 -124 56q-80 0 -128 -57q-41 -49 -41 -123q0 -86 53 -137q47 -44 118 -44q39 0 68 14t57 46l38 -38q-37 -39 -75.5 -56.5t-88.5 -17.5q-104 0 -170 76q-58 65 -58 157q0 106 74 174q64 58 154 58q47 0 83.5 -16
t77.5 -54z" />
    <glyph glyph-name="Ccircumflex" unicode="&#x108;" horiz-adv-x="659" 
d="M274 723l-40 20l108 117h51l107 -117l-40 -20l-93 88zM618 576l-40 -40q-44 45 -90 65.5t-104 20.5q-77 0 -142 -39q-63 -38 -100 -103q-37 -67 -37 -147q0 -79 38 -146q36 -65 100 -103q65 -39 142 -39q57 0 103 20.5t93 67.5l41 -41q-55 -54 -111 -78.5t-125 -24.5
q-93 0 -173 47q-77 45 -122 123q-46 80 -46 174t46 174q45 78 122 124q79 46 172 46q69 0 123.5 -23.5t109.5 -77.5z" />
    <glyph glyph-name="ccircumflex" unicode="&#x109;" horiz-adv-x="455" 
d="M157 523l-40 20l107 117h51l108 -117l-40 -20l-93 88zM427 384l-38 -38q-53 56 -124 56q-80 0 -128 -57q-41 -49 -41 -123q0 -86 53 -137q47 -44 118 -44q39 0 68 14t57 46l38 -38q-37 -39 -75.5 -56.5t-88.5 -17.5q-104 0 -170 76q-58 65 -58 157q0 106 74 174
q64 58 154 58q47 0 83.5 -16t77.5 -54z" />
    <glyph glyph-name="Cdotaccent" unicode="&#x10a;" horiz-adv-x="659" 
d="M618 576l-40 -40q-44 45 -90 65.5t-104 20.5q-77 0 -142 -39q-63 -38 -100 -103q-37 -67 -37 -147q0 -79 38 -146q36 -65 100 -103q65 -39 142 -39q57 0 103 20.5t93 67.5l41 -41q-55 -54 -111 -78.5t-125 -24.5q-93 0 -173 47q-77 45 -122 123q-46 80 -46 174t46 174
q45 78 122 124q79 46 172 46q69 0 123.5 -23.5t109.5 -77.5zM376 832q17 0 29.5 -12t12.5 -29t-12.5 -29.5t-29.5 -12.5t-29.5 12.5t-12.5 29.5t12.5 29t29.5 12z" />
    <glyph glyph-name="cdotaccent" unicode="&#x10b;" horiz-adv-x="455" 
d="M427 384l-38 -38q-53 56 -124 56q-80 0 -128 -57q-41 -49 -41 -123q0 -86 53 -137q47 -44 118 -44q39 0 68 14t57 46l38 -38q-37 -39 -75.5 -56.5t-88.5 -17.5q-104 0 -170 76q-58 65 -58 157q0 106 74 174q64 58 154 58q47 0 83.5 -16t77.5 -54zM253 631q17 0 29.5 -12
t12.5 -29t-12.5 -29.5t-29.5 -12.5t-29 12.5t-12 29.5t12 29t29 12z" />
    <glyph glyph-name="Ccaron" unicode="&#x10c;" horiz-adv-x="659" 
d="M274 865l93 -88l93 88l40 -20l-107 -118h-51l-108 118zM618 576l-40 -40q-44 45 -90 65.5t-104 20.5q-77 0 -142 -39q-63 -38 -100 -103q-37 -67 -37 -147q0 -79 38 -146q36 -65 100 -103q65 -39 142 -39q57 0 103 20.5t93 67.5l41 -41q-55 -54 -111 -78.5t-125 -24.5
q-93 0 -173 47q-77 45 -122 123q-46 80 -46 174t46 174q45 78 122 124q79 46 172 46q69 0 123.5 -23.5t109.5 -77.5z" />
    <glyph glyph-name="ccaron" unicode="&#x10d;" horiz-adv-x="455" 
d="M157 665l93 -88l93 88l40 -20l-108 -118h-51l-107 118zM427 384l-38 -38q-53 56 -124 56q-80 0 -128 -57q-41 -49 -41 -123q0 -86 53 -137q47 -44 118 -44q39 0 68 14t57 46l38 -38q-37 -39 -75.5 -56.5t-88.5 -17.5q-104 0 -170 76q-58 65 -58 157q0 106 74 174
q64 58 154 58q47 0 83.5 -16t77.5 -54z" />
    <glyph glyph-name="Dcaron" unicode="&#x10e;" horiz-adv-x="619" 
d="M197 865l93 -88l93 88l39 -20l-107 -118h-51l-107 118zM83 667h131q178 0 275 -102q84 -88 84 -231q0 -165 -109 -256q-95 -78 -250 -78h-131v667zM142 612v-557h75q146 0 226 86q70 74 70 193q0 136 -90 212q-79 66 -206 66h-75z" />
    <glyph glyph-name="dcaron" unicode="&#x10f;" horiz-adv-x="638" 
d="M584 678l56 -17l-61 -140l-38 12zM484 0h-56v73q-66 -84 -166 -84q-101 0 -167 77q-57 65 -57 156q0 104 73 173q64 59 151 59q99 0 166 -83v296h56v-667zM263 402q-79 0 -126 -57q-41 -49 -41 -123q0 -85 53 -136q46 -45 114 -45q78 0 125 57q40 50 40 124q0 85 -52 136
q-45 44 -113 44z" />
    <glyph glyph-name="Dcroat" unicode="&#x110;" horiz-adv-x="629" 
d="M94 334h-62v52h62v281h131q178 0 275 -102q84 -88 84 -231q0 -165 -109 -256q-95 -78 -250 -78h-131v334zM317 334h-164v-279h76q145 0 225 86q70 74 70 193q0 136 -90 212q-79 66 -205 66h-76v-226h164v-52z" />
    <glyph glyph-name="dcroat" unicode="&#x111;" horiz-adv-x="551" 
d="M484 0h-56v73q-66 -84 -166 -84q-101 0 -167 77q-57 65 -57 156q0 104 73 173q64 59 151 59q99 0 166 -83v156h-122v52h122v88h56v-88h61v-52h-61v-527zM263 402q-79 0 -126 -57q-41 -49 -41 -123q0 -85 53 -136q46 -45 114 -45q78 0 125 57q40 50 40 124q0 85 -52 136
q-45 44 -113 44z" />
    <glyph glyph-name="Emacron" unicode="&#x112;" horiz-adv-x="472" 
d="M125 816h260v-51h-260v51zM416 612h-274v-246h244v-55h-244v-256h285v-55h-344v667h333v-55z" />
    <glyph glyph-name="emacron" unicode="&#x113;" horiz-adv-x="498" 
d="M119 616h260v-51h-260v51zM96 198q8 -76 57 -119q43 -38 104 -38q91 0 141 79l50 -21q-69 -110 -191 -110q-100 0 -164 75q-55 66 -55 158q0 105 70 173q60 59 143 59q97 0 157 -76q52 -67 52 -164v-16h-364zM96 246h307q-10 79 -55 120q-39 36 -97 36q-66 0 -109 -47
q-38 -42 -46 -109z" />
    <glyph glyph-name="Ebreve" unicode="&#x114;" horiz-adv-x="472" 
d="M130 841l48 4q3 -35 23 -55t52 -20q66 0 78 75l48 -4q-9 -60 -46 -92q-32 -28 -79 -28q-57 0 -91 37q-30 32 -33 83zM416 612h-274v-246h244v-55h-244v-256h285v-55h-344v667h333v-55z" />
    <glyph glyph-name="ebreve" unicode="&#x115;" horiz-adv-x="498" 
d="M127 641l49 4q3 -35 23 -55t52 -20q65 0 77 75l49 -4q-9 -60 -46 -92q-33 -28 -80 -28q-56 0 -91 37q-29 32 -33 83zM96 198q8 -76 57 -119q43 -38 104 -38q91 0 141 79l50 -21q-69 -110 -191 -110q-100 0 -164 75q-55 66 -55 158q0 105 70 173q60 59 143 59
q97 0 157 -76q52 -67 52 -164v-16h-364zM96 246h307q-10 79 -55 120q-39 36 -97 36q-66 0 -109 -47q-38 -42 -46 -109z" />
    <glyph glyph-name="Edotaccent" unicode="&#x116;" horiz-adv-x="472" 
d="M416 612h-274v-246h244v-55h-244v-256h285v-55h-344v667h333v-55zM255 832q17 0 29.5 -12t12.5 -29t-12.5 -29.5t-29.5 -12.5t-29.5 12.5t-12.5 29.5t12.5 29t29.5 12z" />
    <glyph glyph-name="edotaccent" unicode="&#x117;" horiz-adv-x="498" 
d="M96 198q8 -76 57 -119q43 -38 104 -38q91 0 141 79l50 -21q-69 -110 -191 -110q-100 0 -164 75q-55 66 -55 158q0 105 70 173q60 59 143 59q97 0 157 -76q52 -67 52 -164v-16h-364zM96 246h307q-10 79 -55 120q-39 36 -97 36q-66 0 -109 -47q-38 -42 -46 -109zM249 631
q17 0 29.5 -12t12.5 -29t-12.5 -29.5t-29.5 -12.5t-29.5 12.5t-12.5 29.5t12.5 29t29.5 12z" />
    <glyph glyph-name="Eogonek" unicode="&#x118;" horiz-adv-x="472" 
d="M427 0q-36 -41 -36 -67q0 -31 38 -31q14 0 34 7l16 -41q-31 -11 -57 -11q-38 0 -62 23q-21 20 -21 49q0 34 31 71h-287v667h333v-55h-274v-246h244v-55h-244v-256h285v-55z" />
    <glyph glyph-name="eogonek" unicode="&#x119;" horiz-adv-x="498" 
d="M278 -9q-27 -34 -27 -58q0 -31 38 -31q14 0 33 7l16 -41q-31 -11 -56 -11q-38 0 -62 23q-21 20 -21 48q0 32 24 64q-88 14 -140 85q-45 62 -45 145q0 105 70 173q60 59 143 59q97 0 157 -76q52 -67 52 -164v-16h-364q8 -76 57 -119q43 -38 104 -38q91 0 141 79l50 -21
q-63 -98 -170 -108zM96 246h307q-10 79 -55 120q-39 36 -97 36q-66 0 -109 -47q-38 -42 -46 -109z" />
    <glyph glyph-name="Ecaron" unicode="&#x11a;" horiz-adv-x="472" 
d="M162 865l93 -88l93 88l40 -20l-108 -118h-51l-107 118zM416 612h-274v-246h244v-55h-244v-256h285v-55h-344v667h333v-55z" />
    <glyph glyph-name="ecaron" unicode="&#x11b;" horiz-adv-x="498" 
d="M156 665l93 -88l93 88l40 -20l-107 -118h-51l-108 118zM96 198q8 -76 57 -119q43 -38 104 -38q91 0 141 79l50 -21q-69 -110 -191 -110q-100 0 -164 75q-55 66 -55 158q0 105 70 173q60 59 143 59q97 0 157 -76q52 -67 52 -164v-16h-364zM96 246h307q-10 79 -55 120
q-39 36 -97 36q-66 0 -109 -47q-38 -42 -46 -109z" />
    <glyph glyph-name="Gcircumflex" unicode="&#x11c;" horiz-adv-x="728" 
d="M276 723l-40 20l108 117h51l107 -117l-40 -20l-93 88zM620 282h-200v55h261v-30q0 -154 -91 -242q-79 -76 -202 -76q-94 0 -174 47q-77 45 -123 123q-46 80 -46 174t46 174q45 78 122 124q79 46 172 46q69 0 124 -23.5t109 -77.5l-40 -40q-44 45 -90 65.5t-104 20.5
q-126 0 -208 -94q-71 -82 -71 -195q0 -80 38 -147q37 -65 100 -102q66 -39 144 -39q66 0 119 29q46 26 76 71q19 30 28 60.5t10 76.5z" />
    <glyph glyph-name="gcircumflex" unicode="&#x11d;" horiz-adv-x="550" 
d="M354 523l-93 88l-93 -88l-40 20l108 117h51l107 -117zM484 443v-451q0 -114 -71 -179q-62 -57 -159 -57q-61 0 -107 22t-89 71l37 38q37 -43 72.5 -61t84.5 -18q87 0 134 56q42 48 42 128v7v74q-66 -84 -166 -84q-101 0 -167 77q-57 66 -57 156q0 104 73 173
q64 59 151 59q99 0 166 -83v72h56zM263 402q-78 0 -126 -57q-41 -50 -41 -123q0 -85 53 -136q46 -45 114 -45q78 0 125 57q41 50 41 124q0 85 -53 136q-45 44 -113 44z" />
    <glyph glyph-name="Gbreve" unicode="&#x11e;" horiz-adv-x="728" 
d="M262 841l49 4q2 -35 22.5 -55t52.5 -20q65 0 77 75l49 -4q-9 -60 -46 -92q-33 -28 -80 -28q-56 0 -91 37q-29 32 -33 83zM620 282h-200v55h261v-30q0 -154 -91 -242q-79 -76 -202 -76q-94 0 -174 47q-77 45 -123 123q-46 80 -46 174t46 174q45 78 122 124q79 46 172 46
q69 0 124 -23.5t109 -77.5l-40 -40q-44 45 -90 65.5t-104 20.5q-126 0 -208 -94q-71 -82 -71 -195q0 -80 38 -147q37 -65 100 -102q66 -39 144 -39q66 0 119 29q46 26 76 71q19 30 28 60.5t10 76.5z" />
    <glyph glyph-name="gbreve" unicode="&#x11f;" horiz-adv-x="550" 
d="M138 641l48 4q3 -35 23 -55t52 -20q66 0 78 75l48 -4q-9 -60 -46 -92q-32 -28 -79 -28q-57 0 -91 37q-30 32 -33 83zM484 443v-451q0 -114 -71 -179q-62 -57 -159 -57q-61 0 -107 22t-89 71l37 38q37 -43 72.5 -61t84.5 -18q87 0 134 56q42 48 42 128v7v74
q-66 -84 -166 -84q-101 0 -167 77q-57 66 -57 156q0 104 73 173q64 59 151 59q99 0 166 -83v72h56zM263 402q-78 0 -126 -57q-41 -50 -41 -123q0 -85 53 -136q46 -45 114 -45q78 0 125 57q41 50 41 124q0 85 -53 136q-45 44 -113 44z" />
    <glyph glyph-name="Gdotaccent" unicode="&#x120;" horiz-adv-x="728" 
d="M620 282h-200v55h261v-30q0 -154 -91 -242q-79 -76 -202 -76q-94 0 -174 47q-77 45 -123 123q-46 80 -46 174t46 174q45 78 122 124q79 46 172 46q69 0 124 -23.5t109 -77.5l-40 -40q-44 45 -90 65.5t-104 20.5q-126 0 -208 -94q-71 -82 -71 -195q0 -80 38 -147
q37 -65 100 -102q66 -39 144 -39q66 0 119 29q46 26 76 71q19 30 28 60.5t10 76.5zM386 832q17 0 29.5 -12t12.5 -29t-12.5 -29.5t-29.5 -12.5t-29.5 12.5t-12.5 29.5t12.5 29t29.5 12z" />
    <glyph glyph-name="gdotaccent" unicode="&#x121;" horiz-adv-x="550" 
d="M484 443v-451q0 -114 -71 -179q-62 -57 -159 -57q-61 0 -107 22t-89 71l37 38q37 -43 72.5 -61t84.5 -18q87 0 134 56q42 48 42 128v7v74q-66 -84 -166 -84q-101 0 -167 77q-57 66 -57 156q0 104 73 173q64 59 151 59q99 0 166 -83v72h56zM263 402q-78 0 -126 -57
q-41 -50 -41 -123q0 -85 53 -136q46 -45 114 -45q78 0 125 57q41 50 41 124q0 85 -53 136q-45 44 -113 44zM261 631q18 0 30 -12t12 -29t-12.5 -29.5t-29.5 -12.5t-29 12.5t-12 29.5t12 29t29 12z" />
    <glyph glyph-name="Gcommaaccent" unicode="&#x122;" horiz-adv-x="728" 
d="M356 -55l56 -17l-61 -140l-38 12zM620 282h-200v55h261v-30q0 -154 -91 -242q-79 -76 -202 -76q-94 0 -174 47q-77 45 -123 123q-46 80 -46 174t46 174q45 78 122 124q79 46 172 46q69 0 124 -23.5t109 -77.5l-40 -40q-44 45 -90 65.5t-104 20.5q-126 0 -208 -94
q-71 -82 -71 -195q0 -80 38 -147q37 -65 100 -102q66 -39 144 -39q66 0 119 29q46 26 76 71q19 30 28 60.5t10 76.5z" />
    <glyph glyph-name="gcommaaccent" unicode="&#x123;" horiz-adv-x="550" 
d="M294 513l-56 17l61 140l38 -12zM484 443v-451q0 -114 -71 -179q-62 -57 -159 -57q-61 0 -107 22t-89 71l37 38q37 -43 72.5 -61t84.5 -18q87 0 134 56q42 48 42 128v7v74q-66 -84 -166 -84q-101 0 -167 77q-57 66 -57 156q0 104 73 173q64 59 151 59q99 0 166 -83v72h56z
M263 402q-78 0 -126 -57q-41 -50 -41 -123q0 -85 53 -136q46 -45 114 -45q78 0 125 57q41 50 41 124q0 85 -53 136q-45 44 -113 44z" />
    <glyph glyph-name="Hcircumflex" unicode="&#x124;" horiz-adv-x="650" 
d="M231 723l-39 20l107 117h51l107 -117l-39 -20l-93 88zM142 366h365v301h59v-667h-59v311h-365v-311h-59v667h59v-301z" />
    <glyph glyph-name="hcircumflex" unicode="&#x125;" horiz-adv-x="510" 
d="M165 723l-40 20l107 117h51l108 -117l-40 -20l-93 88zM122 382q51 72 143 72q49 0 90 -21.5t62 -59.5q26 -46 26 -132v-241h-56v232q0 76 -21 113q-14 26 -42.5 40.5t-64.5 14.5q-37 0 -68.5 -16.5t-46.5 -43.5q-22 -37 -22 -118v-222h-56v667h56v-285z" />
    <glyph glyph-name="Hbar" unicode="&#x126;" horiz-adv-x="656" 
d="M631 579v-52h-62v-527h-59v311h-365v-311h-59v527h-61v52h61v88h59v-88h365v88h59v-88h62zM510 527h-365v-161h365v161z" />
    <glyph glyph-name="hbar" unicode="&#x127;" horiz-adv-x="510" 
d="M67 579v88h57v-88h122v-52h-122v-145q50 72 142 72q50 0 90.5 -21.5t61.5 -59.5q26 -46 26 -132v-241h-56v232q0 75 -21 113q-14 25 -42.5 40t-64.5 15q-37 0 -68.5 -16.5t-46.5 -43.5q-21 -37 -21 -118v-222h-57v527h-61v52h61z" />
    <glyph glyph-name="Itilde" unicode="&#x128;" horiz-adv-x="226" 
d="M-16 759q12 74 72 74q24 0 67 -21q28 -14 47 -14q21 0 27 35l45 -11q-9 -73 -72 -73q-28 0 -65 18q-31 16 -48 16q-20 0 -29 -35zM142 667v-667h-59v667h59z" />
    <glyph glyph-name="itilde" unicode="&#x129;" horiz-adv-x="190" 
d="M-34 559q12 74 72 74q24 0 67 -21q28 -14 47 -14q21 0 27 35l45 -11q-9 -73 -72 -73q-28 0 -65 18q-31 16 -48 16q-20 0 -29 -35zM123 443v-443h-56v443h56z" />
    <glyph glyph-name="Imacron" unicode="&#x12a;" horiz-adv-x="226" 
d="M-17 816h260v-51h-260v51zM143 667v-667h-59v667h59z" />
    <glyph glyph-name="imacron" unicode="&#x12b;" horiz-adv-x="190" 
d="M-35 616h260v-51h-260v51zM123 443v-443h-56v443h56z" />
    <glyph glyph-name="Ibreve" unicode="&#x12c;" horiz-adv-x="226" 
d="M142 667v-667h-59v667h59zM-12 841l48 4q3 -35 23 -55t52 -20q66 0 78 75l48 -4q-8 -60 -46 -92q-32 -28 -79 -28q-57 0 -91 37q-30 32 -33 83z" />
    <glyph glyph-name="ibreve" unicode="&#x12d;" horiz-adv-x="190" 
d="M124 443v-443h-57v443h57zM-29 641l48 4q3 -35 23 -55t52 -20q66 0 78 75l48 -4q-8 -60 -46 -92q-32 -28 -79 -28q-57 0 -91 37q-30 32 -33 83z" />
    <glyph glyph-name="Iogonek" unicode="&#x12e;" horiz-adv-x="226" 
d="M194 -132q-31 -11 -56 -11q-38 0 -62 23q-21 20 -21 49q0 34 31 71h-3v667h59v-667q-35 -42 -35 -67q0 -31 38 -31q14 0 33 7z" />
    <glyph glyph-name="iogonek" unicode="&#x12f;" horiz-adv-x="190" 
d="M175 -132q-31 -11 -56 -11q-38 0 -62 23q-21 20 -21 49q0 35 31 71v443h56v-443q-35 -42 -35 -67q0 -31 38 -31q14 0 33 7zM95 632q18 0 30 -12.5t12 -29.5q0 -18 -12 -30.5t-30 -12.5q-17 0 -29.5 12.5t-12.5 30.5q0 17 12.5 29.5t29.5 12.5z" />
    <glyph glyph-name="Idotaccent" unicode="&#x130;" horiz-adv-x="226" 
d="M142 667v-667h-59v667h59zM112 832q18 0 30 -12t12 -29t-12 -29.5t-30 -12.5q-16 0 -28.5 12.5t-12.5 29.5t12 29t29 12z" />
    <glyph glyph-name="dotlessi" unicode="&#x131;" horiz-adv-x="190" 
d="M123 443v-443h-56v443h56z" />
    <glyph glyph-name="IJ" unicode="&#x132;" horiz-adv-x="613" 
d="M142 667v-667h-59v667h59zM529 667v-469q0 -89 -28 -138q-19 -33 -54.5 -52t-77.5 -19q-39 0 -72 15t-73 51l36 42q31 -29 55 -40.5t52 -11.5q103 0 103 153v469h59z" />
    <glyph glyph-name="ij" unicode="&#x133;" horiz-adv-x="387" 
d="M124 443v-443h-57v443h57zM95 632q18 0 30.5 -12.5t12.5 -29.5q0 -18 -12.5 -30.5t-30.5 -12.5q-17 0 -29.5 12.5t-12.5 30.5q0 17 12.5 29.5t29.5 12.5zM181 -233v51q17 -4 29 -4q54 0 54 84v545h56v-545q0 -71 -29 -107q-25 -30 -70 -30q-18 0 -40 6zM292 632
q17 0 29.5 -12.5t12.5 -29.5q0 -18 -12.5 -30.5t-29.5 -12.5q-18 0 -30.5 12.5t-12.5 30.5q0 17 12.5 29.5t30.5 12.5z" />
    <glyph glyph-name="Jcircumflex" unicode="&#x134;" horiz-adv-x="395" 
d="M151 723l-40 20l108 117h51l107 -117l-40 -20l-93 88zM312 667v-469q0 -89 -28 -138q-19 -33 -54.5 -52t-77.5 -19q-39 0 -72 15t-73 51l36 42q32 -29 56 -40.5t51 -11.5q103 0 103 153v469h59z" />
    <glyph glyph-name="jcircumflex" unicode="&#x135;" horiz-adv-x="200" 
d="M-4 523l-40 20l107 117h51l108 -117l-40 -20l-93 88zM-6 -233v51q17 -4 28 -4q54 0 54 84v545h57v-545q0 -137 -100 -137q-17 0 -39 6z" />
    <glyph glyph-name="Kcommaaccent" unicode="&#x136;" horiz-adv-x="560" 
d="M287 -55l56 -17l-60 -140l-39 12zM291 393l258 -393h-69l-229 349l-109 -120v-229h-59v667h59v-361l326 361h71z" />
    <glyph glyph-name="kcommaaccent" unicode="&#x137;" horiz-adv-x="458" 
d="M219 -55l56 -17l-60 -140l-39 12zM426 443l-178 -178l205 -265h-70l-173 228l-88 -88v-140h-56v667h56v-456l232 232h72z" />
    <glyph glyph-name="kgreenlandic" unicode="&#x138;" horiz-adv-x="458" 
d="M426 443l-178 -178l205 -265h-70l-173 228l-88 -88v-140h-56v443h56v-232l232 232h72z" />
    <glyph glyph-name="Lacute" unicode="&#x139;" horiz-adv-x="422" 
d="M83 743l92 127l58 -31l-116 -116zM84 667h59v-612h264v-55h-323v667z" />
    <glyph glyph-name="lacute" unicode="&#x13a;" horiz-adv-x="191" 
d="M66 754l92 128l58 -31l-116 -116zM124 0h-57v667h57v-667z" />
    <glyph glyph-name="Lcommaaccent" unicode="&#x13b;" horiz-adv-x="422" 
d="M238 -55l56 -17l-61 -140l-38 12zM83 667h59v-612h264v-55h-323v667z" />
    <glyph glyph-name="lcommaaccent" unicode="&#x13c;" horiz-adv-x="190" 
d="M71 -55l56 -17l-61 -140l-38 12zM123 0h-56v667h56v-667z" />
    <glyph glyph-name="Lcaron" unicode="&#x13d;" horiz-adv-x="422" 
d="M299 678l55 -17l-60 -140l-38 12zM83 667h59v-612h264v-55h-323v667z" />
    <glyph glyph-name="lcaron" unicode="&#x13e;" horiz-adv-x="277" 
d="M223 678l56 -17l-60 -140l-39 12zM123 0h-56v667h56v-667z" />
    <glyph glyph-name="Ldot" unicode="&#x13f;" horiz-adv-x="422" 
d="M83 667h59v-612h264v-55h-323v667zM313 375q18 0 30 -12t12 -30q0 -17 -12 -29t-30 -12q-16 0 -28.5 12.5t-12.5 29.5q0 16 12 28.5t29 12.5z" />
    <glyph glyph-name="ldot" unicode="&#x140;" horiz-adv-x="317" 
d="M123 667v-667h-56v667h56zM253 375q17 0 29 -12t12 -30q0 -17 -12 -29t-29 -12t-29 12.5t-12 29.5q0 16 12 28.5t29 12.5z" />
    <glyph glyph-name="Lslash" unicode="&#x141;" horiz-adv-x="439" 
d="M100 297l-68 -46v59l68 46v311h59v-283l116 79v-59l-116 -79v-270h264v-55h-323v297z" />
    <glyph glyph-name="lslash" unicode="&#x142;" horiz-adv-x="244" 
d="M216 382l-66 -44v-338h-56v300l-66 -44v61l66 44v306h56v-268l66 44v-61z" />
    <glyph glyph-name="Nacute" unicode="&#x143;" horiz-adv-x="711" 
d="M330 743l92 127l58 -31l-116 -116zM142 575v-575h-59v667h59l426 -576v576h59v-667h-59z" />
    <glyph glyph-name="nacute" unicode="&#x144;" horiz-adv-x="510" 
d="M231 543l92 127l58 -31l-116 -116zM122 443v-61q51 72 143 72q49 0 90 -21.5t62 -59.5q26 -46 26 -132v-241h-56v232q0 76 -21 113q-14 26 -42.5 40.5t-64.5 14.5q-37 0 -68.5 -16.5t-46.5 -43.5q-22 -37 -22 -118v-222h-56v443h56z" />
    <glyph glyph-name="Ncommaaccent" unicode="&#x145;" horiz-adv-x="711" 
d="M348 -55l56 -17l-60 -140l-39 12zM142 575v-575h-59v667h59l426 -576v576h59v-667h-59z" />
    <glyph glyph-name="ncommaaccent" unicode="&#x146;" horiz-adv-x="510" 
d="M248 -55l56 -17l-61 -140l-38 12zM122 443v-61q51 72 143 72q49 0 90 -21.5t62 -59.5q26 -46 26 -132v-241h-56v232q0 76 -21 113q-14 26 -42.5 40.5t-64.5 14.5q-37 0 -68.5 -16.5t-46.5 -43.5q-22 -37 -22 -118v-222h-56v443h56z" />
    <glyph glyph-name="Ncaron" unicode="&#x147;" horiz-adv-x="711" 
d="M279 865l93 -88l93 88l40 -20l-108 -118h-51l-107 118zM142 575v-575h-59v667h59l426 -576v576h59v-667h-59z" />
    <glyph glyph-name="ncaron" unicode="&#x148;" horiz-adv-x="510" 
d="M166 665l93 -88l94 88l39 -20l-107 -118h-51l-107 118zM122 443v-61q51 72 143 72q49 0 90 -21.5t62 -59.5q26 -46 26 -132v-241h-56v232q0 76 -21 113q-14 26 -42.5 40.5t-64.5 14.5q-37 0 -68.5 -16.5t-46.5 -43.5q-22 -37 -22 -118v-222h-56v443h56z" />
    <glyph glyph-name="napostrophe" unicode="&#x149;" horiz-adv-x="585" 
d="M3 433l78 218l53 -19l-95 -213zM198 443v-61q50 72 142 72q50 0 90.5 -21.5t61.5 -59.5q26 -46 26 -132v-241h-56v232q0 76 -20 113q-14 26 -42.5 40.5t-64.5 14.5q-38 0 -69.5 -16.5t-46.5 -43.5q-21 -37 -21 -118v-222h-57v443h57z" />
    <glyph glyph-name="Eng" unicode="&#x14a;" horiz-adv-x="711" 
d="M627 667v-678q0 -71 -28 -107q-26 -30 -71 -30q-17 0 -39 6v51q17 -4 29 -4q53 0 53 84v12h-4l-425 574v-575h-59v667h59l426 -576v576h59z" />
    <glyph glyph-name="eng" unicode="&#x14b;" horiz-adv-x="510" 
d="M122 0h-56v443h56v-61q51 72 143 72q49 0 90 -21.5t62 -59.5q26 -46 26 -132v-252q0 -71 -29 -107q-25 -30 -70 -30q-17 0 -40 6v51q17 -4 29 -4q54 0 54 84v243q0 76 -21 113q-14 26 -42.5 40.5t-64.5 14.5q-37 0 -68.5 -16.5t-46.5 -43.5q-22 -37 -22 -118v-222z" />
    <glyph glyph-name="Omacron" unicode="&#x14c;" horiz-adv-x="765" 
d="M252 816h260v-51h-260v51zM45 333q0 93 46 173q45 78 122 124q78 47 169 47t170 -47q76 -46 121 -124q46 -80 46 -173q0 -92 -46 -173q-45 -78 -121 -123q-79 -48 -170 -48q-90 0 -169 48q-76 46 -122 124q-46 80 -46 172zM105 333q0 -78 38 -145q37 -65 99 -104
q65 -39 140 -39t140 39q63 39 100 104q38 67 38 145q0 79 -38 146q-37 65 -100 103q-64 40 -140 40q-75 0 -140 -40q-63 -38 -99 -103q-38 -67 -38 -146z" />
    <glyph glyph-name="omacron" unicode="&#x14d;" horiz-adv-x="528" 
d="M134 616h260v-51h-260v51zM264 454q103 0 169 -75q57 -66 57 -157q0 -105 -73 -174q-64 -59 -153 -59q-102 0 -169 76q-57 66 -57 157q0 105 74 173q63 59 152 59zM264 402q-79 0 -127 -57q-41 -49 -41 -123q0 -85 53 -136q46 -45 115 -45q79 0 127 57q42 50 42 124
q0 85 -54 136q-46 44 -115 44z" />
    <glyph glyph-name="Obreve" unicode="&#x14e;" horiz-adv-x="765" 
d="M257 841l49 4q2 -35 22.5 -55t52.5 -20q65 0 77 75l49 -4q-9 -60 -46 -92q-33 -28 -80 -28q-56 0 -91 37q-29 32 -33 83zM45 333q0 93 46 173q45 78 122 124q78 47 169 47t170 -47q76 -46 121 -124q46 -80 46 -173q0 -92 -46 -173q-45 -78 -121 -123q-79 -48 -170 -48
q-90 0 -169 48q-76 46 -122 124q-46 80 -46 172zM105 333q0 -78 38 -145q37 -65 99 -104q65 -39 140 -39t140 39q63 39 100 104q38 67 38 145q0 79 -38 146q-37 65 -100 103q-64 40 -140 40q-75 0 -140 -40q-63 -38 -99 -103q-38 -67 -38 -146z" />
    <glyph glyph-name="obreve" unicode="&#x14f;" horiz-adv-x="528" 
d="M139 641l49 4q2 -35 22.5 -55t52.5 -20q65 0 77 75l48 -4q-8 -60 -45 -92q-33 -28 -80 -28q-57 0 -91 37q-30 32 -33 83zM264 454q103 0 169 -75q57 -66 57 -157q0 -105 -73 -174q-64 -59 -153 -59q-102 0 -169 76q-57 66 -57 157q0 105 74 173q63 59 152 59zM264 402
q-79 0 -127 -57q-41 -49 -41 -123q0 -85 53 -136q46 -45 115 -45q79 0 127 57q42 50 42 124q0 85 -54 136q-46 44 -115 44z" />
    <glyph glyph-name="Ohungarumlaut" unicode="&#x150;" horiz-adv-x="765" 
d="M514 870l54 -31l-115 -116l-31 19zM374 870l54 -31l-115 -116l-31 19zM45 333q0 93 46 173q45 78 122 124q78 47 169 47t170 -47q76 -46 121 -124q46 -80 46 -173q0 -92 -46 -173q-45 -78 -121 -123q-79 -48 -170 -48q-90 0 -169 48q-76 46 -122 124q-46 80 -46 172z
M105 333q0 -78 38 -145q37 -65 99 -104q65 -39 140 -39t140 39q63 39 100 104q38 67 38 145q0 79 -38 146q-37 65 -100 103q-64 40 -140 40q-75 0 -140 -40q-63 -38 -99 -103q-38 -67 -38 -146z" />
    <glyph glyph-name="ohungarumlaut" unicode="&#x151;" horiz-adv-x="528" 
d="M266 670l54 -31l-115 -116l-32 19zM406 670l54 -31l-115 -116l-32 19zM264 454q103 0 169 -75q57 -66 57 -157q0 -105 -73 -174q-64 -59 -153 -59q-102 0 -169 76q-57 66 -57 157q0 105 74 173q63 59 152 59zM264 402q-79 0 -127 -57q-41 -49 -41 -123q0 -85 53 -136
q46 -45 115 -45q79 0 127 57q42 50 42 124q0 85 -54 136q-46 44 -115 44z" />
    <glyph glyph-name="OE" unicode="&#x152;" horiz-adv-x="1049" 
d="M660 0v144q-52 -78 -131 -119q-70 -36 -147 -36q-90 0 -169 48q-77 46 -122 123q-46 81 -46 173q0 93 46 173q45 78 122 124q78 47 169 47q89 0 167 -46q68 -41 111 -109v145h333v-55h-274v-246h244v-55h-244v-256h284v-55h-343zM105 333q0 -78 38 -145q37 -65 99 -104
q65 -39 140 -39t140 39q63 39 100 104q38 67 38 145q0 79 -38 146q-37 65 -99 103q-65 40 -141 40q-75 0 -140 -40q-63 -38 -99 -103q-38 -67 -38 -146z" />
    <glyph glyph-name="oe" unicode="&#x153;" horiz-adv-x="892" 
d="M461 336q32 60 84 91q46 27 100 27q98 0 157 -76q52 -67 52 -164v-16h-363q7 -76 57 -119q42 -38 103 -38q92 0 141 79l51 -21q-69 -110 -192 -110q-66 0 -119 36q-45 31 -71 83q-31 -59 -88 -91q-50 -28 -108 -28q-103 0 -170 76q-57 65 -57 157q0 105 74 173
q63 59 153 59q66 0 121 -35q47 -31 75 -83zM264 402q-79 0 -127 -57q-41 -49 -41 -123q0 -85 53 -136q46 -45 115 -45q79 0 127 57q42 50 42 124q0 85 -54 136q-46 44 -115 44zM491 246h307q-10 79 -55 120q-40 36 -97 36q-67 0 -110 -47q-37 -42 -45 -109z" />
    <glyph glyph-name="Racute" unicode="&#x154;" horiz-adv-x="526" 
d="M215 743l92 127l57 -31l-115 -116zM83 667h131q99 0 150 -29q46 -27 71 -76q22 -43 22 -93q0 -66 -36 -115q-31 -42 -85 -62l161 -292h-66l-152 280q-42 -4 -65 -4h-72v-276h-59v667zM142 330h81q73 0 113 23q63 35 63 116q0 39 -17.5 71.5t-47.5 49.5q-39 22 -111 22
h-81v-282z" />
    <glyph glyph-name="racute" unicode="&#x155;" horiz-adv-x="289" 
d="M103 543l93 127l57 -31l-115 -116zM66 443h56v-61q43 62 129 62q6 0 14 -1v-51h-13q-79 0 -109 -55q-21 -39 -21 -122v-215h-56v443z" />
    </font>
</defs>
</svg>
