<?xml version="1.0" standalone="no"?>
<!DOCTYPE svg PUBLIC "-//W3C//DTD SVG 1.1//EN" "http://www.w3.org/Graphics/SVG/1.1/DTD/svg11.dtd" >
<svg xmlns="http://www.w3.org/2000/svg" xmlns:xlink="http://www.w3.org/1999/xlink" version="1.1">
<metadata>
Created by FontForge 20170731 at Wed Dec 20 17:38:27 2017
 By Aleksey,,,
(URW)++,Copyright 2017 by (URW)++ Design &#38; Development
</metadata>
<defs>
<font id="URWGeometricArabic-SemiBold" horiz-adv-x="0" >
  <font-face 
    font-family="URWGeometricArabic-SemiBold"
    font-weight="400"
    font-stretch="normal"
    units-per-em="1000"
    panose-1="0 0 0 0 0 0 0 0 0 0"
    ascent="732"
    descent="-268"
    x-height="443"
    cap-height="667"
    bbox="-413 -495 1427 1077"
    underline-thickness="91"
    underline-position="-323"
    unicode-range="U+0020-FEFC"
  />
<missing-glyph horiz-adv-x="364" 
d="M33 0v666h265v-666h-265zM66 33h199v600h-199v-600z" />
    <glyph glyph-name="uni064D0651" unicode="&#x64b;&#x651;" 
d="M-158 991l-187 -34l-10 53l188 34zM-150 899l-188 -34l-9 52l188 35zM-250 705q-19 -16 -47 -16q-29 0 -47.5 17t-18.5 43v79h48v-71q0 -21 20 -21q21 0 21 21v52h48v-52q0 -21 20 -21q21 0 21 21v71h47v-79q0 -26 -18.5 -43t-47.5 -17q-30 0 -46 16z" />
    <glyph glyph-name="fi" unicode="fi" horiz-adv-x="464" 
d="M245 353h-77v-353h-100v353h-43v90h43v84q0 76 35 114q30 33 83 33q26 0 58 -7v-90q-25 7 -39 7q-37 0 -37 -57v-84h77v-90zM407 443v-443h-100v443h100zM293 593q0 26 18.5 44.5t45.5 18.5t46 -18.5t19 -44.5q0 -27 -19 -45.5t-46 -18.5t-45.5 18.5t-18.5 45.5z" />
    <glyph glyph-name="fl" unicode="fl" horiz-adv-x="465" 
d="M245 353h-77v-353h-100v353h-43v90h43v84q0 76 35 114q30 33 83 33q26 0 58 -7v-90q-25 7 -39 7q-37 0 -37 -57v-84h77v-90zM408 0h-100v667h100v-667z" />
    <glyph glyph-name="uniFC5E" unicode="&#x64c;&#x651;" arabic-form="isolated" 
d="M-239 914q-21 21 -21 48q0 31 19 52t48 21q35 0 55 -26q15 -20 15 -47q0 -50 -37 -78q-29 -22 -70 -22q-53 0 -87 35l-22 -33l-44 32l41 64h28q28 -46 75 -46zM-190 923q22 8 22 38q0 13 -6.5 21t-17.5 8q-10 0 -16 -8t-6 -20q0 -28 24 -39zM-250 705q-19 -16 -47 -16
q-29 0 -47.5 17t-18.5 43v79h48v-71q0 -21 20 -21q21 0 21 21v52h48v-52q0 -21 20 -21q21 0 21 21v71h47v-79q0 -26 -18.5 -43t-47.5 -17q-30 0 -46 16z" />
    <glyph glyph-name="uniFC5F" unicode="&#x64d;&#x651;" arabic-form="isolated" 
d="M-255 909q-19 -15 -46 -15q-29 0 -47.5 16.5t-18.5 43.5v78h48v-71q0 -20 19 -20q21 0 21 20v52h48v-52q0 -20 20 -20q21 0 21 20v71h48v-78q0 -27 -18.5 -43.5t-48.5 -16.5q-29 0 -46 15zM-156 813l-188 -34l-9 53l188 34zM-148 720l-188 -34l-9 53l188 34z" />
    <glyph glyph-name="uniFC60" unicode="&#x64e;&#x651;" arabic-form="isolated" 
d="M-150 900l-194 -35l-11 60l195 35zM-250 705q-19 -16 -47 -16q-29 0 -47.5 17t-18.5 43v79h48v-71q0 -21 20 -21q21 0 21 21v52h48v-52q0 -21 20 -21q21 0 21 21v71h47v-79q0 -26 -18.5 -43t-47.5 -17q-30 0 -46 16z" />
    <glyph glyph-name="uniFC61" unicode="&#x64f;&#x651;" arabic-form="isolated" 
d="M-215 885l-140 -25l-9 50l108 19q-19 22 -19 51q0 30 19.5 50.5t47.5 20.5q30 0 49 -20.5t19 -53.5q0 -34 -21 -60t-54 -32zM-205 941q20 10 20 36q0 28 -22 28q-21 0 -21 -27q0 -25 23 -37zM-250 705q-19 -16 -47 -16q-29 0 -47.5 17t-18.5 43v79h48v-71q0 -21 20 -21
q21 0 21 21v52h48v-52q0 -21 20 -21q21 0 21 21v71h47v-79q0 -26 -18.5 -43t-47.5 -17q-30 0 -46 16z" />
    <glyph glyph-name="uniFC62" unicode="&#x650;&#x651;" arabic-form="isolated" 
d="M-253 834q-21 -15 -47 -15q-29 0 -47.5 16.5t-18.5 43.5v79h48v-72q0 -20 19 -20q21 0 21 20v52h48v-52q0 -20 20 -20q21 0 21 20v72h48v-79q0 -26 -19 -43t-48 -17q-30 0 -45 15zM-145 720l-194 -34l-12 60l195 35z" />
    <glyph glyph-name="uniFC63" unicode="&#x651;&#x670;" arabic-form="isolated" 
d="M-222 861h-58v147h58v-147zM-250 705q-19 -16 -47 -16q-29 0 -47.5 17t-18.5 43v79h48v-71q0 -21 20 -21q21 0 21 21v52h48v-52q0 -21 20 -21q21 0 21 21v71h47v-79q0 -26 -18.5 -43t-47.5 -17q-30 0 -46 16z" />
    <glyph glyph-name="uniFDF2" unicode="&#x627;&#xfedf;&#xfee0;&#x6c1;" horiz-adv-x="1362" arabic-form="isolated" 
d="M706 835h-51v127h51v-127zM681 678q-20 -16 -47 -16q-28 0 -47 17t-19 42v78h48v-70q0 -20 20 -20q21 0 21 20v51h48v-51q0 -20 20 -20t20 20v70h48v-78q0 -26 -19 -42.5t-48 -16.5q-30 0 -45 16zM1278 0h-99v666h99v-666zM682 63q-48 -63 -155 -63q-120 0 -167 78
q-53 -50 -124 -50q-81 0 -131 59q-47 55 -47 145q0 104 66 164q57 51 146 51h59v45h93v-276q0 -120 105 -120t105 125v354h99v-354q0 -125 105 -125t105 120v359h99v-372q0 -108 -61 -160q-52 -43 -143 -43q-106 0 -154 63zM329 360h-56q-62 0 -93 -37q-26 -31 -26 -86
q0 -61 28 -96q24 -29 63 -29q43 0 88 39q-4 21 -4 52v157z" />
    <glyph glyph-name="uniFEF5" unicode="&#xfedf;&#xfe82;" horiz-adv-x="623" arabic-form="isolated" 
d="M348 0h-318v96h147v424h99v-424h59q60 0 82.5 25.5t22.5 92.5v452h100v-480q0 -98 -57 -145q-48 -41 -135 -41zM339 642q-11 -29 -30.5 -45.5t-42.5 -16.5q-25 0 -56 19q-17 10 -28 10q-22 0 -40 -25l-31 26q24 56 70 56q18 0 45 -17q21 -14 40 -14q20 0 35 30z" />
    <glyph glyph-name="uniFEF6" unicode="&#xfee0;&#xfe82;" horiz-adv-x="661" arabic-form="final" 
d="M348 0h-318v96h147v424h99v-424h59q60 0 82.5 25.5t22.5 92.5v452h100v-452q0 -67 22 -91q23 -27 83 -27h26v-96h-39q-95 0 -141 55q-48 -55 -143 -55zM339 642q-11 -29 -30.5 -45.5t-42.5 -16.5q-25 0 -56 19q-17 10 -28 10q-22 0 -40 -25l-31 26q24 56 70 56
q18 0 45 -17q21 -14 40 -14q20 0 35 30z" />
    <glyph glyph-name="uniFEF7" unicode="&#xfedf;&#xfe84;" horiz-adv-x="624" arabic-form="isolated" 
d="M313 607h-175v45h38q-9 20 -9 34q0 30 20.5 49t52.5 19q33 0 56 -22l-16 -32q-16 12 -35 12q-33 0 -33 -29q0 -14 12 -31h89v-45zM348 0h-318v96h147v424h99v-424h59q60 0 82.5 25.5t22.5 92.5v452h100v-480q0 -98 -57 -145q-48 -41 -135 -41z" />
    <glyph glyph-name="uniFEF8" unicode="&#xfee0;&#xfe84;" horiz-adv-x="661" arabic-form="final" 
d="M313 607h-175v45h38q-9 20 -9 34q0 30 20.5 49t52.5 19q33 0 56 -22l-16 -32q-16 12 -35 12q-33 0 -33 -29q0 -14 12 -31h89v-45zM348 0h-318v96h147v424h99v-424h59q60 0 82.5 25.5t22.5 92.5v452h100v-452q0 -67 22 -91q23 -27 83 -27h26v-96h-39q-95 0 -141 55
q-48 -55 -143 -55z" />
    <glyph glyph-name="uniFEF9" unicode="&#xfedf;&#xfe88;" horiz-adv-x="624" arabic-form="isolated" 
d="M348 0h-318v96h147v424h99v-424h59q60 0 82.5 25.5t22.5 92.5v452h100v-480q0 -98 -57 -145q-48 -41 -135 -41zM312 -240h-175v45h38q-9 16 -9 34q0 29 21 48.5t52 19.5q33 0 56 -23l-17 -31q-15 11 -34 11q-34 0 -34 -28q0 -15 13 -31h89v-45z" />
    <glyph glyph-name="uniFEFA" unicode="&#xfee0;&#xfe88;" horiz-adv-x="661" arabic-form="final" 
d="M348 0h-318v96h147v424h99v-424h59q60 0 82.5 25.5t22.5 92.5v452h100v-452q0 -67 22 -91q23 -27 83 -27h26v-96h-39q-95 0 -141 55q-48 -55 -143 -55zM312 -240h-175v45h38q-9 16 -9 34q0 29 21 48.5t52 19.5q33 0 56 -23l-17 -31q-15 11 -34 11q-34 0 -34 -28
q0 -15 13 -31h89v-45z" />
    <glyph glyph-name="uniFEFB" unicode="&#xfedf;&#xfe8e;" horiz-adv-x="624" arabic-form="isolated" 
d="M348 0h-318v96h147v424h99v-424h59q60 0 82.5 25.5t22.5 92.5v452h100v-480q0 -98 -57 -145q-48 -41 -135 -41z" />
    <glyph glyph-name="uniFEFC" unicode="&#xfee0;&#xfe8e;" horiz-adv-x="661" arabic-form="final" 
d="M348 0h-318v96h147v424h99v-424h59q60 0 82.5 25.5t22.5 92.5v452h100v-452q0 -67 22 -91q23 -27 83 -27h26v-96h-39q-95 0 -141 55q-48 -55 -143 -55z" />
    <glyph glyph-name="uniFB50" unicode="&#x671;" horiz-adv-x="268" arabic-form="isolated" 
d="M43 752q45 129 141 129q49 0 74 -25q20 -21 20 -56q0 -54 -56 -82q-44 -21 -111 -21q-20 0 -30 1q-1 -6 -4 -18l-6 -30l-52 7q5 28 10 47q-34 6 -58 15l10 46q28 -8 62 -13zM97 747h13q50 0 80 13q29 13 29 36q0 34 -38 34q-53 0 -84 -83zM184 0h-100v613h100v-613z" />
    <glyph glyph-name="uniFB51" unicode="&#x671;" horiz-adv-x="305" arabic-form="final" 
d="M43 752q45 129 141 129q49 0 74 -25q20 -21 20 -56q0 -54 -56 -82q-44 -21 -111 -21q-20 0 -30 1q-1 -6 -4 -18l-6 -30l-52 7q5 28 10 47q-34 6 -58 15l10 46q28 -8 62 -13zM97 747h13q50 0 80 13q29 13 29 36q0 34 -38 34q-53 0 -84 -83zM183 613v-399q0 -66 22 -91
q24 -27 84 -27h26v-96h-40q-99 0 -148 53q-43 47 -43 133v427h99z" />
    <glyph glyph-name="uniFB52" unicode="&#x67b;" horiz-adv-x="880" arabic-form="isolated" 
d="M596 0h-286q-121 0 -185 76q-48 57 -48 141q0 66 36 118q34 50 92 74l44 -67q-38 -18 -59.5 -50t-21.5 -70q0 -55 41 -92q39 -34 98 -34h270q67 0 96 36q24 30 24 89v205h99v-223q0 -203 -200 -203zM491 -129q0 -23 -15.5 -38.5t-38.5 -15.5t-38.5 15.5t-15.5 38.5
t15.5 38.5t38.5 15.5t38.5 -15.5t15.5 -38.5zM491 -249q0 -22 -16 -37.5t-38 -15.5t-38 15.5t-16 37.5q0 23 15.5 38.5t38.5 15.5t38.5 -15.5t15.5 -38.5z" />
    <glyph glyph-name="uniFB53" unicode="&#x67b;" horiz-adv-x="915" arabic-form="final" 
d="M596 0h-286q-121 0 -185 76q-48 57 -48 141q0 66 36 118q34 50 92 74l44 -67q-38 -18 -59.5 -50t-21.5 -70q0 -55 41 -92q39 -34 98 -34h270q67 0 96 36q24 30 24 89v205h99v-205q0 -125 105 -125h24v-96h-32q-97 0 -145 63q-49 -63 -152 -63zM489 -129q0 -22 -16 -38
t-38 -16q-23 0 -39 16t-16 38t16 38t39 16q22 0 38 -16t16 -38zM489 -249q0 -22 -16 -37.5t-38 -15.5q-23 0 -39 15.5t-16 37.5t16 38t39 16q22 0 38 -16t16 -38z" />
    <glyph glyph-name="uniFB54" unicode="&#x67b;" horiz-adv-x="301" arabic-form="initial" 
d="M-10 0v96h23q105 0 105 125v205h99v-223q0 -108 -60 -160q-50 -43 -135 -43h-32zM111 -302q-22 0 -38 15.5t-16 37.5q0 23 15.5 38.5t38.5 15.5t38.5 -15.5t15.5 -38.5q0 -22 -16 -37.5t-38 -15.5zM111 -183q-23 0 -38.5 15.5t-15.5 38.5t15.5 38.5t38.5 15.5t38.5 -15.5
t15.5 -38.5t-15.5 -38.5t-38.5 -15.5z" />
    <glyph glyph-name="uniFB55" unicode="&#x67b;" horiz-adv-x="336" arabic-form="medial" 
d="M-10 0v96h23q105 0 105 125v205h99v-205q0 -125 105 -125h24v-96h-32q-98 0 -146 63q-48 -63 -146 -63h-32zM161 -302q-22 0 -38 15.5t-16 37.5q0 23 15.5 38.5t38.5 15.5t38.5 -15.5t15.5 -38.5q0 -22 -16 -37.5t-38 -15.5zM161 -183q-23 0 -38.5 15.5t-15.5 38.5
t15.5 38.5t38.5 15.5t38.5 -15.5t15.5 -38.5t-15.5 -38.5t-38.5 -15.5z" />
    <glyph glyph-name="uniFB56" unicode="&#x67e;" horiz-adv-x="880" arabic-form="isolated" 
d="M596 0h-286q-121 0 -185 76q-48 57 -48 141q0 66 36 118q34 50 92 74l44 -67q-38 -18 -59.5 -50t-21.5 -70q0 -55 41 -92q39 -34 98 -34h270q67 0 96 36q24 30 24 89v205h99v-223q0 -203 -200 -203zM428 -132q0 -23 -17 -40t-41 -17q-23 0 -40 17t-17 40t17 40t40 17
q24 0 41 -17t17 -40zM561 -132q0 -23 -17.5 -40t-40.5 -17t-40.5 17t-17.5 40t17.5 40t40.5 17t40.5 -17t17.5 -40zM490 -246q0 -21 -15.5 -36.5t-37.5 -15.5q-21 0 -37 15.5t-16 36.5t15.5 36.5t37.5 15.5t37.5 -15t15.5 -37z" />
    <glyph glyph-name="uniFB57" unicode="&#x67e;" horiz-adv-x="915" arabic-form="final" 
d="M596 0h-286q-121 0 -185 76q-48 57 -48 141q0 66 36 118q34 50 92 74l44 -67q-38 -18 -59.5 -50t-21.5 -70q0 -55 41 -92q39 -34 98 -34h270q67 0 96 36q24 30 24 89v205h99v-205q0 -125 105 -125h24v-96h-32q-97 0 -145 63q-49 -63 -152 -63zM426 -132q0 -23 -17.5 -40
t-40.5 -17t-40.5 17t-17.5 40t17.5 40t40.5 17t40.5 -17t17.5 -40zM559 -132q0 -23 -17.5 -40t-41.5 -17q-23 0 -40 17t-17 40t17 40t40 17q24 0 41.5 -17t17.5 -40zM487 -246q0 -21 -15.5 -36.5t-36.5 -15.5q-22 0 -37.5 15.5t-15.5 36.5q0 22 15.5 37t37.5 15
q21 0 36.5 -15.5t15.5 -36.5z" />
    <glyph glyph-name="uniFB58" unicode="&#x67e;" horiz-adv-x="301" arabic-form="initial" 
d="M-10 0v96h23q105 0 105 125v205h99v-223q0 -108 -60 -160q-50 -43 -135 -43h-32zM102 -298q-22 0 -37.5 15.5t-15.5 36.5q0 22 15.5 37t37.5 15t37.5 -15.5t15.5 -36.5t-16 -36.5t-37 -15.5zM35 -189q-23 0 -40.5 17t-17.5 40t17.5 40t40.5 17q24 0 41 -17t17 -40
t-17 -40t-41 -17zM168 -189q-23 0 -40.5 17t-17.5 40t17.5 40t40.5 17t40.5 -17t17.5 -40t-17.5 -40t-40.5 -17z" />
    <glyph glyph-name="uniFB59" unicode="&#x67e;" horiz-adv-x="336" arabic-form="medial" 
d="M22 0h-32v96h23q105 0 105 125v205h99v-205q0 -125 105 -125h24v-96h-32q-98 0 -146 63q-48 -63 -146 -63zM159 -132q0 -23 -17.5 -40t-40.5 -17t-40.5 17t-17.5 40t17.5 40t40.5 17t40.5 -17t17.5 -40zM291 -132q0 -23 -17.5 -40t-40.5 -17t-40.5 17t-17.5 40t17.5 40
t40.5 17t40.5 -17t17.5 -40zM220 -246q0 -21 -15.5 -36.5t-37.5 -15.5q-21 0 -36.5 15.5t-15.5 36.5t15.5 36.5t36.5 15.5q22 0 37.5 -15t15.5 -37z" />
    <glyph glyph-name="uniFB5A" unicode="&#x680;" horiz-adv-x="880" arabic-form="isolated" 
d="M596 0h-286q-121 0 -185 76q-48 57 -48 141q0 66 36 118q34 50 92 74l44 -67q-38 -18 -59.5 -50t-21.5 -70q0 -55 41 -92q39 -34 98 -34h270q67 0 96 36q24 30 24 89v205h99v-223q0 -203 -200 -203zM429 -129q0 -22 -16 -37.5t-38 -15.5t-38 15.5t-16 37.5
q0 23 15.5 38.5t38.5 15.5t38.5 -15.5t15.5 -38.5zM553 -129q0 -22 -16 -37.5t-39 -15.5q-22 0 -37.5 15.5t-15.5 37.5t15.5 38t37.5 16q23 0 39 -15.5t16 -38.5zM429 -250q0 -23 -15.5 -38.5t-38.5 -15.5q-22 0 -38 16t-16 38t16 37.5t38 15.5t38 -15.5t16 -37.5zM553 -250
q0 -23 -16 -38.5t-39 -15.5q-22 0 -37.5 16t-15.5 38t15.5 37.5t37.5 15.5q23 0 39 -15.5t16 -37.5z" />
    <glyph glyph-name="uniFB5B" unicode="&#x680;" horiz-adv-x="915" arabic-form="final" 
d="M596 0h-286q-121 0 -185 76q-48 57 -48 141q0 66 36 118q34 50 92 74l44 -67q-38 -18 -59.5 -50t-21.5 -70q0 -55 41 -92q39 -34 98 -34h270q67 0 96 36q24 30 24 89v205h99v-205q0 -125 105 -125h24v-96h-32q-97 0 -145 63q-49 -63 -152 -63zM427 -129q0 -22 -16 -37.5
t-38 -15.5t-38 15.5t-16 37.5q0 23 15.5 38.5t38.5 15.5q22 0 38 -16t16 -38zM550 -129q0 -22 -16 -37.5t-38 -15.5t-38 15.5t-16 37.5t16 38t38 16q23 0 38.5 -15.5t15.5 -38.5zM427 -250q0 -22 -16 -38t-38 -16q-23 0 -38.5 15.5t-15.5 38.5q0 22 16 37.5t38 15.5
t38 -15.5t16 -37.5zM550 -250q0 -23 -15.5 -38.5t-38.5 -15.5q-22 0 -38 16t-16 38t16 37.5t38 15.5t38 -15.5t16 -37.5z" />
    <glyph glyph-name="uniFB5C" unicode="&#x680;" horiz-adv-x="301" arabic-form="initial" 
d="M-10 0v96h23q105 0 105 125v205h99v-223q0 -108 -60 -160q-50 -43 -135 -43h-32zM42 -304q-23 0 -38.5 15.5t-15.5 38.5q0 22 16 37.5t38 15.5t38 -15.5t16 -37.5t-16 -38t-38 -16zM165 -304q-22 0 -38 16t-16 38t16 37.5t38 15.5t38 -15.5t16 -37.5q0 -23 -15.5 -38.5
t-38.5 -15.5zM42 -182q-22 0 -38 15.5t-16 37.5q0 23 15.5 38.5t38.5 15.5t38.5 -15.5t15.5 -38.5q0 -22 -16 -37.5t-38 -15.5zM165 -182q-22 0 -38 15.5t-16 37.5t16 38t38 16q23 0 38.5 -15.5t15.5 -38.5q0 -22 -16 -37.5t-38 -15.5z" />
    <glyph glyph-name="uniFB5D" unicode="&#x680;" horiz-adv-x="336" arabic-form="medial" 
d="M-10 0v96h23q105 0 105 125v205h99v-205q0 -125 105 -125h24v-96h-32q-98 0 -146 63q-48 -63 -146 -63h-32zM83 -304q-23 0 -38.5 15.5t-15.5 38.5q0 22 16 37.5t38 15.5t38 -15.5t16 -37.5t-16 -38t-38 -16zM206 -304q-22 0 -38 16t-16 38t16 37.5t38 15.5t38 -15.5
t16 -37.5q0 -23 -15.5 -38.5t-38.5 -15.5zM83 -182q-22 0 -38 15.5t-16 37.5q0 23 15.5 38.5t38.5 15.5q22 0 38 -16t16 -38t-16 -37.5t-38 -15.5zM206 -182q-22 0 -38 15.5t-16 37.5t16 38t38 16q23 0 38.5 -15.5t15.5 -38.5q0 -22 -16 -37.5t-38 -15.5z" />
    <glyph glyph-name="uniFB5E" unicode="&#x67a;" horiz-adv-x="880" arabic-form="isolated" 
d="M504 609q0 -22 -16 -37.5t-38 -15.5t-38 15.5t-16 37.5q0 23 15.5 38.5t38.5 15.5t38.5 -15.5t15.5 -38.5zM504 483q0 -23 -15.5 -38.5t-38.5 -15.5t-38.5 15.5t-15.5 38.5t15.5 38.5t38.5 15.5t38.5 -15.5t15.5 -38.5zM596 0h-286q-121 0 -185 76q-48 57 -48 141
q0 66 36 118q34 50 92 74l44 -67q-38 -18 -59.5 -50t-21.5 -70q0 -55 41 -92q39 -34 98 -34h270q67 0 96 36q24 30 24 89v205h99v-223q0 -203 -200 -203z" />
    <glyph glyph-name="uniFB5F" unicode="&#x67a;" horiz-adv-x="915" arabic-form="final" 
d="M510 609q0 -22 -16 -38t-38 -16q-23 0 -38.5 15.5t-15.5 38.5q0 22 16 37.5t38 15.5t38 -15.5t16 -37.5zM510 482q0 -22 -16 -37.5t-38 -15.5t-38 15.5t-16 37.5q0 23 15.5 38.5t38.5 15.5q22 0 38 -16t16 -38zM596 0h-286q-121 0 -185 76q-48 57 -48 141q0 66 36 118
q34 50 92 74l44 -67q-38 -18 -59.5 -50t-21.5 -70q0 -55 41 -92q39 -34 98 -34h270q67 0 96 36q24 30 24 89v205h99v-205q0 -125 105 -125h24v-96h-32q-97 0 -145 63q-49 -63 -152 -63z" />
    <glyph glyph-name="uniFB60" unicode="&#x67a;" horiz-adv-x="301" arabic-form="initial" 
d="M219 695q0 -23 -15.5 -38.5t-38.5 -15.5t-38.5 15.5t-15.5 38.5t15.5 38.5t38.5 15.5t38.5 -15.5t15.5 -38.5zM219 569q0 -23 -15.5 -38.5t-38.5 -15.5t-38.5 15.5t-15.5 38.5q0 22 16 37.5t38 15.5t38 -15.5t16 -37.5zM22 0h-32v96h23q105 0 105 125v205h99v-223
q0 -108 -60 -160q-50 -43 -135 -43z" />
    <glyph glyph-name="uniFB61" unicode="&#x67a;" horiz-adv-x="336" arabic-form="medial" 
d="M223 695q0 -22 -16 -38t-38 -16q-23 0 -39 16t-16 38t16 38t39 16q22 0 38 -16t16 -38zM223 569q0 -22 -16 -38t-38 -16q-23 0 -39 16t-16 38t16 37.5t39 15.5q22 0 38 -15.5t16 -37.5zM22 0h-32v96h23q105 0 105 125v205h99v-205q0 -125 105 -125h24v-96h-32
q-98 0 -146 63q-48 -63 -146 -63z" />
    <glyph glyph-name="uniFB62" unicode="&#x67f;" horiz-adv-x="880" arabic-form="isolated" 
d="M440 609q0 -22 -16 -37.5t-39 -15.5q-22 0 -38 15.5t-16 37.5t16 38t38 16q23 0 39 -16t16 -38zM563 609q0 -22 -16 -37.5t-38 -15.5t-38 15.5t-16 37.5q0 23 15.5 38.5t38.5 15.5t38.5 -15.5t15.5 -38.5zM440 484q0 -22 -16 -38t-39 -16q-22 0 -38 16t-16 38t16 37.5
t38 15.5q23 0 39 -15.5t16 -37.5zM563 484q0 -23 -15.5 -38.5t-38.5 -15.5t-38.5 15.5t-15.5 38.5q0 22 16 37.5t38 15.5t38 -15.5t16 -37.5zM596 0h-286q-121 0 -185 76q-48 57 -48 141q0 66 36 118q34 50 92 74l44 -67q-38 -18 -59.5 -50t-21.5 -70q0 -55 41 -92
q39 -34 98 -34h270q67 0 96 36q24 30 24 89v205h99v-223q0 -203 -200 -203z" />
    <glyph glyph-name="uniFB63" unicode="&#x67f;" horiz-adv-x="915" arabic-form="final" 
d="M448 599q0 -23 -15.5 -38.5t-38.5 -15.5t-38.5 15.5t-15.5 38.5q0 22 16 37.5t38 15.5t38 -15.5t16 -37.5zM572 599q0 -22 -16 -38t-39 -16q-22 0 -38 16t-16 38t16 37.5t38 15.5q23 0 39 -15.5t16 -37.5zM448 473q0 -22 -16 -37.5t-38 -15.5t-38 15.5t-16 37.5
q0 23 15.5 38.5t38.5 15.5q22 0 38 -16t16 -38zM572 473q0 -22 -16 -37.5t-39 -15.5q-22 0 -38 15.5t-16 37.5t16 38t38 16q23 0 39 -16t16 -38zM596 0h-286q-121 0 -185 76q-48 57 -48 141q0 66 36 118q34 50 92 74l44 -67q-38 -18 -59.5 -50t-21.5 -70q0 -55 41 -92
q39 -34 98 -34h270q67 0 96 36q24 30 24 89v205h99v-205q0 -125 105 -125h24v-96h-32q-97 0 -145 63q-49 -63 -152 -63z" />
    <glyph glyph-name="uniFB64" unicode="&#x67f;" horiz-adv-x="301" arabic-form="initial" 
d="M157 685q0 -22 -16 -37.5t-38 -15.5t-38 15.5t-16 37.5q0 23 15.5 38.5t38.5 15.5t38.5 -15.5t15.5 -38.5zM281 685q0 -22 -16 -37.5t-39 -15.5q-22 0 -38 15.5t-16 37.5t16 38t38 16q23 0 39 -16t16 -38zM157 560q0 -22 -16 -38t-38 -16q-23 0 -38.5 15.5t-15.5 38.5
q0 22 16 37.5t38 15.5t38 -15.5t16 -37.5zM281 560q0 -22 -16 -38t-39 -16q-22 0 -38 16t-16 38t16 37.5t38 15.5q23 0 39 -15.5t16 -37.5zM22 0h-32v96h23q105 0 105 125v205h99v-223q0 -108 -60 -160q-50 -43 -135 -43z" />
    <glyph glyph-name="uniFB65" unicode="&#x67f;" horiz-adv-x="336" arabic-form="medial" 
d="M161 685q0 -22 -16 -37.5t-38 -15.5t-38 15.5t-16 37.5q0 23 15.5 38.5t38.5 15.5t38.5 -15.5t15.5 -38.5zM285 685q0 -22 -16 -37.5t-39 -15.5q-22 0 -38 15.5t-16 37.5t16 38t38 16q23 0 39 -16t16 -38zM161 560q0 -22 -16 -38t-38 -16q-23 0 -38.5 15.5t-15.5 38.5
q0 22 16 37.5t38 15.5t38 -15.5t16 -37.5zM285 560q0 -22 -16 -38t-39 -16q-22 0 -38 16t-16 38t16 37.5t38 15.5q23 0 39 -15.5t16 -37.5zM22 0h-32v96h23q105 0 105 125v205h99v-205q0 -125 105 -125h24v-96h-32q-98 0 -146 63q-48 -63 -146 -63z" />
    <glyph glyph-name="uniFB66" unicode="&#x679;" horiz-adv-x="880" arabic-form="isolated" 
d="M513 448h-208v52h57v166h54v-103q44 61 103 61q42 0 66 -27q21 -24 21 -63q0 -86 -93 -86zM418 500h91q39 0 39 34q0 37 -40 37q-50 0 -90 -71zM596 0h-286q-121 0 -185 76q-48 57 -48 141q0 66 36 118q34 50 92 74l44 -67q-38 -18 -59.5 -50t-21.5 -70q0 -55 41 -92
q39 -34 98 -34h270q67 0 96 36q24 30 24 89v205h99v-223q0 -203 -200 -203z" />
    <glyph glyph-name="uniFB67" unicode="&#x679;" horiz-adv-x="915" arabic-form="final" 
d="M513 448h-208v52h57v166h54v-103q44 61 103 61q42 0 66 -27q21 -24 21 -63q0 -86 -93 -86zM418 500h91q39 0 39 34q0 37 -40 37q-50 0 -90 -71zM596 0h-286q-121 0 -185 76q-48 57 -48 141q0 66 36 118q34 50 92 74l44 -67q-38 -18 -59.5 -50t-21.5 -70q0 -55 41 -92
q39 -34 98 -34h270q67 0 96 36q24 30 24 89v205h99v-205q0 -125 105 -125h24v-96h-32q-97 0 -145 63q-49 -63 -152 -63z" />
    <glyph glyph-name="uniFB68" unicode="&#x679;" horiz-adv-x="301" arabic-form="initial" 
d="M222 535h-208v51h57v167h54v-104q43 62 103 62q42 0 66 -28q21 -24 21 -63q0 -85 -93 -85zM127 586h91q39 0 39 34q0 37 -40 37q-51 0 -90 -71zM22 0h-32v96h23q105 0 105 125v205h99v-223q0 -108 -60 -160q-50 -43 -135 -43z" />
    <glyph glyph-name="uniFB69" unicode="&#x679;" horiz-adv-x="336" arabic-form="medial" 
d="M226 535h-208v51h57v167h54v-104q43 62 103 62q42 0 66 -28q21 -24 21 -63q0 -85 -93 -85zM131 586h91q39 0 39 34q0 37 -40 37q-51 0 -90 -71zM22 0h-32v96h23q105 0 105 125v205h99v-205q0 -125 105 -125h24v-96h-32q-98 0 -146 63q-48 -63 -146 -63z" />
    <glyph glyph-name="uniFB6A" unicode="&#x6a4;" horiz-adv-x="937" arabic-form="isolated" 
d="M732 678q0 -21 -15.5 -36.5t-37.5 -15.5q-21 0 -36.5 15.5t-15.5 36.5t15.5 36.5t36.5 15.5q22 0 37.5 -15.5t15.5 -36.5zM671 564q0 -23 -17.5 -40t-40.5 -17t-40.5 17t-17.5 40t17.5 40t40.5 17t40.5 -17t17.5 -40zM803 564q0 -23 -17 -40t-41 -17q-23 0 -40.5 17
t-17.5 40t17.5 40t40.5 17q24 0 41 -17t17 -40zM690 0h-380q-121 0 -185 76q-48 57 -48 141q0 66 36 118q34 50 92 74l44 -67q-38 -18 -59.5 -50t-21.5 -70q0 -55 41 -92q39 -34 98 -34h230q-36 55 -36 131q0 104 57 163q50 51 131 51q85 0 133 -54q41 -46 41 -119v-88
q0 -85 -50 -134q-46 -46 -123 -46zM595 225q0 -68 33 -102q26 -27 63 -27q76 0 76 88v77q0 90 -78 90q-48 0 -73 -39q-21 -32 -21 -87z" />
    <glyph glyph-name="uniFB6B" unicode="&#x6a4;" horiz-adv-x="965" arabic-form="final" 
d="M748 679q0 -21 -15.5 -36.5t-37.5 -15.5t-37.5 15t-15.5 37q0 21 15.5 36.5t37.5 15.5q21 0 37 -15.5t16 -36.5zM686 565q0 -23 -17 -40t-41 -17q-23 0 -40.5 17t-17.5 40t17.5 40t40.5 17q24 0 41 -17t17 -40zM819 565q0 -23 -17.5 -40t-40.5 -17t-40.5 17t-17.5 40
t17.5 40t40.5 17t40.5 -17t17.5 -40zM622 0h-312q-121 0 -185 76q-48 57 -48 141q0 66 36 118q34 50 92 74l44 -67q-38 -18 -59.5 -50t-21.5 -70q0 -55 41 -92q39 -34 98 -34h254q-60 66 -60 150q0 92 56 147q51 52 135 52q96 0 148 -65q43 -54 43 -134q0 -85 -60 -150h152
v-96h-213q-41 0 -70 7q-29 -7 -70 -7zM692 96q48 23 75 70q22 39 22 82q0 51 -28 81q-26 27 -69 27q-49 0 -75 -34q-21 -28 -21 -73q0 -49 29 -92q26 -41 67 -61z" />
    <glyph glyph-name="uniFB6C" unicode="&#x6a4;" horiz-adv-x="536" arabic-form="initial" 
d="M341 679q0 -21 -15.5 -36.5t-36.5 -15.5q-22 0 -37.5 15t-15.5 37q0 21 15.5 36.5t37.5 15.5q21 0 36.5 -15.5t15.5 -36.5zM280 565q0 -23 -17.5 -40t-40.5 -17t-40.5 17t-17.5 40t17.5 40t40.5 17t40.5 -17t17.5 -40zM413 565q0 -23 -17.5 -40t-41.5 -17q-23 0 -40 17
t-17 40t17 40t40 17q24 0 41.5 -17t17.5 -40zM289 0h-299v96h145q-35 53 -35 131q0 104 57 163q50 51 130 51q86 0 133 -54q41 -46 41 -119v-88q0 -84 -50 -134q-46 -45 -122 -46zM193 225q0 -67 34 -102q25 -27 62 -27q77 0 77 88v77q0 90 -79 90q-48 0 -73 -39
q-21 -32 -21 -87z" />
    <glyph glyph-name="uniFB6D" unicode="&#x6a4;" horiz-adv-x="545" arabic-form="medial" 
d="M325 679q0 -22 -15.5 -37t-37.5 -15q-21 0 -36.5 15.5t-15.5 36.5t15.5 36.5t36.5 15.5q22 0 37.5 -15.5t15.5 -36.5zM264 565q0 -23 -17.5 -40t-40.5 -17t-40.5 17t-17.5 40t17.5 40t40.5 17t40.5 -17t17.5 -40zM396 565q0 -23 -17 -40t-41 -17q-23 0 -40.5 17t-17.5 40
t17.5 40t40.5 17q24 0 41 -17t17 -40zM203 0h-213v96h152q-60 65 -60 150q0 92 56 147q51 52 135 52q96 0 148 -65q43 -54 43 -134q0 -86 -61 -150h152v-96h-213q-40 0 -69 7q-29 -7 -70 -7zM273 96q48 23 75 70q22 39 22 82q0 51 -29 81q-26 27 -68 27q-49 0 -75 -34
q-22 -29 -22 -73q0 -48 29 -92q27 -41 68 -61z" />
    <glyph glyph-name="uniFB6E" unicode="&#x6a6;" horiz-adv-x="937" arabic-form="isolated" 
d="M672 686q0 -22 -16 -38t-38 -16q-23 0 -39 16t-16 38t16 37.5t39 15.5q22 0 38 -15.5t16 -37.5zM795 686q0 -23 -15.5 -38.5t-38.5 -15.5t-38.5 15.5t-15.5 38.5q0 22 16 37.5t38 15.5t38 -15.5t16 -37.5zM672 560q0 -22 -16 -37.5t-38 -15.5q-23 0 -39 15.5t-16 37.5
t16 38t39 16q22 0 38 -16t16 -38zM795 560q0 -22 -16 -37.5t-38 -15.5t-38 15.5t-16 37.5q0 23 15.5 38.5t38.5 15.5t38.5 -15.5t15.5 -38.5zM690 0h-380q-121 0 -185 76q-48 57 -48 141q0 66 36 118q34 50 92 74l44 -67q-38 -18 -59.5 -50t-21.5 -70q0 -55 41 -92
q39 -34 98 -34h230q-36 55 -36 131q0 104 57 163q50 51 131 51q85 0 133 -54q41 -46 41 -119v-88q0 -85 -50 -134q-46 -46 -123 -46zM595 225q0 -68 33 -102q26 -27 63 -27q76 0 76 88v77q0 90 -78 90q-48 0 -73 -39q-21 -32 -21 -87z" />
    <glyph glyph-name="uniFB6F" unicode="&#x6a6;" horiz-adv-x="965" arabic-form="final" 
d="M687 687q0 -23 -15.5 -38.5t-38.5 -15.5t-38.5 15.5t-15.5 38.5q0 22 16 37.5t38 15.5t38 -15.5t16 -37.5zM811 687q0 -22 -16 -38t-39 -16q-22 0 -38 16t-16 38t16 37.5t38 15.5q23 0 39 -15.5t16 -37.5zM687 561q0 -22 -16 -38t-38 -16q-23 0 -38.5 15.5t-15.5 38.5
q0 22 16 37.5t38 15.5t38 -15.5t16 -37.5zM811 561q0 -22 -16 -38t-39 -16q-22 0 -38 16t-16 38t16 37.5t38 15.5q23 0 39 -15.5t16 -37.5zM622 0h-312q-121 0 -185 76q-48 57 -48 141q0 66 36 118q34 50 92 74l44 -67q-38 -18 -59.5 -50t-21.5 -70q0 -55 41 -92
q39 -34 98 -34h254q-60 66 -60 150q0 92 56 147q51 52 135 52q96 0 148 -65q43 -54 43 -134q0 -85 -60 -150h152v-96h-213q-41 0 -70 7q-29 -7 -70 -7zM692 96q48 23 75 70q22 39 22 82q0 51 -28 81q-26 27 -69 27q-49 0 -75 -34q-21 -28 -21 -73q0 -49 29 -92
q26 -41 67 -61z" />
    <glyph glyph-name="uniFB70" unicode="&#x6a6;" horiz-adv-x="536" arabic-form="initial" 
d="M281 687q0 -23 -15.5 -38.5t-38.5 -15.5t-38.5 15.5t-15.5 38.5q0 22 16 37.5t38 15.5t38 -15.5t16 -37.5zM404 687q0 -23 -15.5 -38.5t-38.5 -15.5q-22 0 -38 16t-16 38t16 37.5t38 15.5t38 -15.5t16 -37.5zM281 561q0 -22 -16 -38t-38 -16q-23 0 -38.5 15.5t-15.5 38.5
q0 22 16 37.5t38 15.5t38 -15.5t16 -37.5zM404 561q0 -23 -15.5 -38.5t-38.5 -15.5q-22 0 -38 16t-16 38t16 37.5t38 15.5t38 -15.5t16 -37.5zM289 0h-299v96h145q-35 53 -35 131q0 104 57 163q50 51 130 51q86 0 133 -54q41 -46 41 -119v-88q0 -84 -50 -134
q-46 -45 -122 -46zM193 225q0 -67 34 -102q25 -27 62 -27q77 0 77 88v77q0 90 -79 90q-48 0 -73 -39q-21 -32 -21 -87z" />
    <glyph glyph-name="uniFB71" unicode="&#x6a6;" horiz-adv-x="545" arabic-form="medial" 
d="M265 687q0 -22 -16 -38t-38 -16q-23 0 -39 16t-16 38t16 37.5t39 15.5q22 0 38 -15.5t16 -37.5zM388 687q0 -23 -15.5 -38.5t-38.5 -15.5t-38.5 15.5t-15.5 38.5q0 22 16 37.5t38 15.5t38 -15.5t16 -37.5zM265 561q0 -22 -16 -38t-38 -16q-23 0 -39 16t-16 38t16 37.5
t39 15.5q22 0 38 -15.5t16 -37.5zM388 561q0 -23 -15.5 -38.5t-38.5 -15.5t-38.5 15.5t-15.5 38.5q0 22 16 37.5t38 15.5t38 -15.5t16 -37.5zM203 0h-213v96h152q-60 65 -60 150q0 92 56 147q51 52 135 52q96 0 148 -65q43 -54 43 -134q0 -86 -61 -150h152v-96h-213
q-40 0 -69 7q-29 -7 -70 -7zM273 96q48 23 75 70q22 39 22 82q0 51 -29 81q-26 27 -68 27q-49 0 -75 -34q-22 -29 -22 -73q0 -48 29 -92q27 -41 68 -61z" />
    <glyph glyph-name="uniFB72" unicode="&#x684;" horiz-adv-x="591" arabic-form="isolated" 
d="M470 -324q-76 -43 -152 -43q-116 0 -189 76q-68 70 -68 184q0 150 118 239q102 76 275 91q-77 109 -167 109q-71 0 -141 -66l-53 60q84 99 200 99q87 0 161 -61q67 -56 107 -151v-70q-208 -5 -312 -77q-91 -64 -91 -173q0 -82 57 -128q47 -39 116 -39q56 0 107 30z
M409 -33q0 -20 -14.5 -34t-34.5 -14t-34.5 14t-14.5 34t14.5 34.5t34.5 14.5t34.5 -14.5t14.5 -34.5zM409 -140q0 -20 -14.5 -34.5t-34.5 -14.5t-34.5 14.5t-14.5 34.5t14.5 34t34.5 14t34.5 -14t14.5 -34z" />
    <glyph glyph-name="uniFB73" unicode="&#x684;" horiz-adv-x="686" arabic-form="final" 
d="M470 -325q-73 -42 -152 -42q-117 0 -189 76q-68 71 -68 186q0 149 118 237q102 76 275 91q-77 109 -167 109q-71 0 -141 -66l-53 60q84 99 200 99q87 0 161 -61q67 -56 107 -151v-41q-37 -5 -68 -12q23 -34 63.5 -49t110.5 -15h29v-96h-33q-110 0 -172 33q-54 30 -83 93
q-128 -22 -193 -89q-57 -58 -57 -142q0 -86 57 -134q47 -40 117 -40q57 0 109 30zM302 -39q1 20 15 34t34 14t34.5 -14t14.5 -34t-14.5 -34.5t-34.5 -14.5t-34.5 14.5t-14.5 34.5zM349 -99q21 0 36 -14.5t15 -33.5q0 -20 -14.5 -34.5t-34.5 -14.5t-34.5 14.5t-14.5 34.5
q1 20 14.5 34t32.5 14z" />
    <glyph glyph-name="uniFB74" unicode="&#x684;" horiz-adv-x="560" arabic-form="initial" 
d="M128 0h-138v96h132q110 0 179 32q56 26 114 87q-80 117 -173 117q-71 0 -141 -66l-53 60q84 99 201 99q86 0 160 -61q67 -56 107 -151v-26q-83 -110 -175 -150q-84 -37 -213 -37zM304 -129q0 -23 -15.5 -38.5t-38.5 -15.5t-38.5 15.5t-15.5 38.5t15.5 38.5t38.5 15.5
t38.5 -15.5t15.5 -38.5zM304 -249q0 -22 -16 -37.5t-38 -15.5t-38 15.5t-16 37.5q0 23 15.5 38.5t38.5 15.5t38.5 -15.5t15.5 -38.5z" />
    <glyph glyph-name="uniFB75" unicode="&#x684;" horiz-adv-x="671" arabic-form="medial" 
d="M128 0h-138v96h132q110 0 179 32q56 26 114 87q-80 117 -173 117q-71 0 -141 -66l-53 60q84 99 201 99q86 0 160 -61q67 -56 107 -151v-22q-4 -6 -14 -19l-15 -21q22 -29 61 -42t104 -13h29v-96h-33q-93 0 -150 23q-52 21 -83 63q-57 -45 -125.5 -65.5t-161.5 -20.5z
M333 -129q0 -23 -15.5 -38.5t-38.5 -15.5t-38.5 15.5t-15.5 38.5t15.5 38.5t38.5 15.5t38.5 -15.5t15.5 -38.5zM333 -249q0 -22 -16 -37.5t-38 -15.5t-38 15.5t-16 37.5q0 23 15.5 38.5t38.5 15.5t38.5 -15.5t15.5 -38.5z" />
    <glyph glyph-name="uniFB76" unicode="&#x683;" horiz-adv-x="591" arabic-form="isolated" 
d="M502 -316q-84 -51 -184 -51q-117 0 -189 76q-68 71 -68 186q0 149 118 237q102 76 275 91q-77 109 -167 109q-71 0 -141 -66l-53 60q84 99 200 99q87 0 161 -61q67 -56 107 -151v-70q-203 -6 -309 -77q-94 -64 -94 -171q0 -84 59 -131q47 -37 117 -37q71 0 135 34z
M369 -103q0 -22 -16 -37.5t-38 -15.5q-21 0 -37 16t-16 37t16 37t37 16q22 0 38 -15.5t16 -37.5zM495 -103q0 -21 -16 -37t-37 -16q-22 0 -38 15.5t-16 37.5t16 37.5t38 15.5q21 0 37 -16t16 -37z" />
    <glyph glyph-name="uniFB77" unicode="&#x683;" horiz-adv-x="686" arabic-form="final" 
d="M502 -316q-84 -51 -184 -51q-117 0 -189 76q-68 71 -68 186q0 149 118 237q102 76 275 91q-77 109 -167 109q-71 0 -141 -66l-53 60q84 99 200 99q87 0 161 -61q67 -56 107 -151v-41q-37 -5 -68 -12q23 -34 63.5 -49t110.5 -15h29v-96h-33q-110 0 -172 33q-54 30 -83 93
q-128 -25 -193 -90q-57 -58 -57 -141q0 -84 59 -131q47 -38 116 -38q71 0 136 35zM363 -103q0 -21 -15.5 -36t-36.5 -15t-36.5 15t-15.5 36t15.5 36t36.5 15t36.5 -15t15.5 -36zM486 -103q0 -21 -15.5 -36t-36.5 -15t-36.5 15t-15.5 36t15.5 36t36.5 15t36.5 -15t15.5 -36z
" />
    <glyph glyph-name="uniFB78" unicode="&#x683;" horiz-adv-x="560" arabic-form="initial" 
d="M128 0h-138v96h132q110 0 179 32q56 26 114 87q-80 117 -173 117q-71 0 -141 -66l-53 60q84 99 201 99q86 0 160 -61q67 -56 107 -151v-26q-83 -110 -175 -150q-84 -37 -213 -37zM245 -132q0 -23 -17.5 -40t-40.5 -17t-40.5 17t-17.5 40t17.5 40t40.5 17t40.5 -17
t17.5 -40zM377 -132q0 -23 -17 -40t-41 -17q-23 0 -40.5 17t-17.5 40t17.5 40t40.5 17q24 0 41 -17t17 -40z" />
    <glyph glyph-name="uniFB79" unicode="&#x683;" horiz-adv-x="671" arabic-form="medial" 
d="M128 0h-138v96h132q110 0 179 32q56 26 114 87q-80 117 -173 117q-71 0 -141 -66l-53 60q84 99 201 99q86 0 160 -61q67 -56 107 -151v-22q-4 -6 -14 -19l-15 -21q22 -29 61 -42t104 -13h29v-96h-33q-93 0 -150 23q-52 21 -83 63q-57 -45 -125.5 -65.5t-161.5 -20.5z
M253 -132q0 -23 -17.5 -40t-40.5 -17t-40.5 17t-17.5 40t17.5 40t40.5 17t40.5 -17t17.5 -40zM386 -132q0 -24 -17.5 -40.5t-41.5 -16.5q-23 0 -40 17t-17 40t17 40t40 17q24 0 41.5 -16.5t17.5 -40.5z" />
    <glyph glyph-name="uniFB7A" unicode="&#x686;" horiz-adv-x="591" arabic-form="isolated" 
d="M438 -244l32 -80q-76 -43 -152 -43q-116 0 -189 76q-68 70 -68 184q0 150 118 239q102 76 275 91q-77 109 -167 109q-71 0 -141 -66l-53 60q84 99 200 99q87 0 161 -61q67 -56 107 -151v-70q-208 -5 -312 -77q-91 -64 -91 -173q0 -82 57 -128q47 -39 116 -39q56 0 107 30
zM376 -41q0 -20 -14.5 -34.5t-34.5 -14.5t-34.5 14.5t-14.5 34.5t14.5 34.5t34.5 14.5t34.5 -14.5t14.5 -34.5zM501 -41q0 -20 -15 -34.5t-35 -14.5t-34.5 14.5t-14.5 34.5t14.5 34.5t34.5 14.5t35 -14.5t15 -34.5zM440 -142q0 -21 -15 -36t-36 -15t-36.5 15.5t-15.5 35.5
q0 21 15.5 36t36.5 15t36 -15t15 -36z" />
    <glyph glyph-name="uniFB7B" unicode="&#x686;" horiz-adv-x="686" arabic-form="final" 
d="M471 -325q-74 -43 -153 -43q-117 0 -189 76q-68 72 -68 187q0 150 118 238q103 76 276 90q-78 109 -168 109q-71 0 -141 -66l-53 60q85 100 201 100q86 0 160 -62q68 -56 107 -150v-41q-41 -7 -67 -13q23 -35 62.5 -49.5t110.5 -14.5h29v-96h-32q-111 0 -173 34
q-54 30 -83 93q-128 -24 -193 -90q-57 -59 -57 -142q0 -84 59 -131q47 -38 114 -38q57 0 107 30zM353 -50q0 -21 -14 -35t-35 -14q-20 0 -34.5 14t-14.5 35q0 20 14.5 34.5t34.5 14.5q21 0 35 -14.5t14 -34.5zM478 -50q0 -20 -14.5 -34.5t-35.5 -14.5q-20 0 -34.5 14.5
t-14.5 34.5t14.5 34.5t34.5 14.5q21 0 35.5 -14.5t14.5 -34.5zM417 -151q0 -21 -15 -36t-36 -15t-36.5 15t-15.5 36q0 20 15.5 35.5t36.5 15.5t36 -15t15 -36z" />
    <glyph glyph-name="uniFB7C" unicode="&#x686;" horiz-adv-x="560" arabic-form="initial" 
d="M128 0h-138v96h132q110 0 179 32q56 26 114 87q-80 117 -173 117q-71 0 -141 -66l-53 60q84 99 201 99q86 0 160 -61q67 -56 107 -151v-26q-83 -110 -175 -150q-84 -37 -213 -37zM242 -132q0 -23 -17.5 -40t-40.5 -17t-40.5 17t-17.5 40t17.5 40t40.5 17t40.5 -17
t17.5 -40zM374 -132q0 -23 -17.5 -40t-40.5 -17t-40.5 17t-17.5 40t17.5 40t40.5 17t40.5 -17t17.5 -40zM303 -246q0 -21 -15.5 -36.5t-37.5 -15.5q-21 0 -36.5 15.5t-15.5 36.5t15.5 36.5t36.5 15.5q22 0 37.5 -15t15.5 -37z" />
    <glyph glyph-name="uniFB7D" unicode="&#x686;" horiz-adv-x="671" arabic-form="medial" 
d="M128 0h-138v96h132q110 0 179 32q56 26 114 87q-80 117 -173 117q-71 0 -141 -66l-53 60q84 99 201 99q86 0 160 -61q67 -56 107 -151v-22q-4 -6 -14 -19l-15 -21q22 -29 61 -42t104 -13h29v-96h-33q-93 0 -150 23q-52 21 -83 63q-57 -45 -125.5 -65.5t-161.5 -20.5z
M270 -132q0 -23 -17 -40t-41 -17q-23 0 -40.5 17t-17.5 40t17.5 40t40.5 17q24 0 41 -17t17 -40zM403 -132q0 -23 -17.5 -40t-40.5 -17t-40.5 17t-17.5 40t17.5 40t40.5 17t40.5 -17t17.5 -40zM332 -246q0 -21 -16 -36.5t-37 -15.5q-22 0 -37.5 15.5t-15.5 36.5
q0 22 15.5 37t37.5 15t37.5 -15.5t15.5 -36.5z" />
    <glyph glyph-name="uniFB7E" unicode="&#x687;" horiz-adv-x="591" arabic-form="isolated" 
d="M470 -324q-76 -43 -152 -43q-116 0 -189 76q-68 70 -68 184q0 150 118 239q102 76 275 91q-77 109 -167 109q-71 0 -141 -66l-53 60q84 99 200 99q87 0 161 -61q67 -56 107 -151v-70q-208 -5 -312 -77q-91 -64 -91 -173q0 -82 57 -128q47 -39 116 -39q56 0 107 30z
M382 -28q0 -19 -13.5 -32t-32.5 -13t-32.5 13t-13.5 32t13.5 32.5t32.5 13.5t32.5 -13.5t13.5 -32.5zM487 -28q0 -19 -13.5 -32t-32.5 -13t-32.5 13t-13.5 32t13.5 32.5t32.5 13.5t32.5 -13.5t13.5 -32.5zM383 -130q0 -19 -13.5 -32.5t-32.5 -13.5t-32.5 13.5t-13.5 32.5
t13.5 32t32.5 13t32.5 -13t13.5 -32zM487 -130q0 -19 -13 -32.5t-32 -13.5t-32.5 13.5t-13.5 32.5t13.5 32t32.5 13t32 -13t13 -32z" />
    <glyph glyph-name="uniFB7F" unicode="&#x687;" horiz-adv-x="686" arabic-form="final" 
d="M470 -325q-73 -42 -152 -42q-117 0 -189 76q-68 71 -68 186q0 149 118 237q102 76 275 91q-77 109 -167 109q-71 0 -141 -66l-53 60q84 99 200 99q87 0 161 -61q67 -56 107 -151v-41q-37 -5 -68 -12q23 -34 63.5 -49t110.5 -15h29v-96h-33q-110 0 -172 33q-54 30 -83 93
q-128 -22 -193 -89q-57 -58 -57 -142q0 -86 57 -134q47 -40 117 -40q57 0 109 30zM354 -51q0 -18 -12.5 -30.5t-30.5 -12.5t-31 12.5t-13 30.5t13 30.5t31 12.5t30.5 -12.5t12.5 -30.5zM455 -51q0 -18 -13 -30.5t-31 -12.5t-31 12.5t-13 30.5t13 30.5t31 12.5t31 -12.5
t13 -30.5zM355 -149q0 -18 -13 -30.5t-31 -12.5t-31 12.5t-13 30.5t13 30.5t31 12.5t31 -12.5t13 -30.5zM455 -149q0 -18 -13 -30.5t-31 -12.5t-30.5 12.5t-12.5 30.5t12.5 30.5t30.5 12.5t31 -12.5t13 -30.5z" />
    <glyph glyph-name="uniFB80" unicode="&#x687;" horiz-adv-x="560" arabic-form="initial" 
d="M128 0h-138v96h132q110 0 179 32q56 26 114 87q-80 117 -173 117q-71 0 -141 -66l-53 60q84 99 201 99q86 0 160 -61q67 -56 107 -151v-26q-83 -110 -175 -150q-84 -37 -213 -37zM243 -129q0 -22 -16 -37.5t-39 -15.5q-22 0 -38 15.5t-16 37.5t16 38t38 16q23 0 39 -16
t16 -38zM366 -129q0 -22 -16 -37.5t-38 -15.5t-38 15.5t-16 37.5q0 23 15.5 38.5t38.5 15.5t38.5 -15.5t15.5 -38.5zM243 -250q0 -22 -16 -38t-39 -16q-22 0 -38 16t-16 38t16 37.5t38 15.5q23 0 39 -15.5t16 -37.5zM366 -250q0 -23 -15.5 -38.5t-38.5 -15.5t-38.5 15.5
t-15.5 38.5q0 22 16 37.5t38 15.5t38 -15.5t16 -37.5z" />
    <glyph glyph-name="uniFB81" unicode="&#x687;" horiz-adv-x="671" arabic-form="medial" 
d="M128 0h-138v96h132q110 0 179 32q56 26 114 87q-80 117 -173 117q-71 0 -141 -66l-53 60q84 99 201 99q86 0 160 -61q67 -56 107 -151v-22q-4 -6 -14 -19l-15 -21q22 -29 61 -42t104 -13h29v-96h-33q-93 0 -150 23q-52 21 -83 63q-57 -45 -125.5 -65.5t-161.5 -20.5z
M271 -129q0 -22 -16 -37.5t-38 -15.5t-38 15.5t-16 37.5q0 23 15.5 38.5t38.5 15.5t38.5 -15.5t15.5 -38.5zM395 -129q0 -22 -16 -37.5t-39 -15.5q-22 0 -38 15.5t-16 37.5t16 38t38 16q23 0 39 -16t16 -38zM271 -250q0 -22 -16 -38t-38 -16q-23 0 -38.5 15.5t-15.5 38.5
q0 22 16 37.5t38 15.5t38 -15.5t16 -37.5zM395 -250q0 -22 -16 -38t-39 -16q-22 0 -38 16t-16 38t16 37.5t38 15.5q23 0 39 -15.5t16 -37.5z" />
    <glyph glyph-name="uniFB82" unicode="&#x68d;" horiz-adv-x="466" arabic-form="isolated" 
d="M223 0h-203v96h180q92 0 92 78q0 47 -32 97t-87 89l58 77q80 -57 122 -131q38 -65 38 -133q0 -173 -168 -173zM213 -132q0 -23 -17.5 -40t-40.5 -17q-24 0 -41 17t-17 40t17 40t41 17q23 0 40.5 -17t17.5 -40zM345 -132q0 -23 -17 -40t-41 -17q-23 0 -40.5 17t-17.5 40
t17.5 40t40.5 17q24 0 41 -17t17 -40z" />
    <glyph glyph-name="uniFB83" unicode="&#x68d;" horiz-adv-x="506" arabic-form="final" 
d="M223 0h-203v96h180q92 0 92 78q0 47 -32 97t-87 89l58 77q77 -54 119 -124q37 -62 40 -127q2 -47 34 -70q27 -20 69 -20h23v-96h-32q-83 0 -132 49q-42 -49 -129 -49zM235 -132q0 -23 -17.5 -40t-40.5 -17t-40.5 17t-17.5 40t17.5 40t40.5 17t40.5 -17t17.5 -40z
M367 -132q0 -24 -17 -40.5t-41 -16.5q-23 0 -40 17t-17 40t17 40t40 17q24 0 41 -16.5t17 -40.5z" />
    <glyph glyph-name="uniFB84" unicode="&#x68c;" horiz-adv-x="466" arabic-form="isolated" 
d="M195 562q0 -23 -17.5 -40t-40.5 -17t-40.5 17t-17.5 40t17.5 40t40.5 17t40.5 -17t17.5 -40zM327 562q0 -24 -17 -40.5t-41 -16.5q-23 0 -40.5 17t-17.5 40t17.5 40t40.5 17q24 0 41 -17t17 -40zM223 0h-203v96h180q92 0 92 78q0 47 -32 97t-87 89l58 77q80 -57 122 -131
q38 -65 38 -133q0 -173 -168 -173z" />
    <glyph glyph-name="uniFB85" unicode="&#x68c;" horiz-adv-x="506" arabic-form="final" 
d="M192 562q0 -23 -17 -40t-41 -17q-23 0 -40.5 17t-17.5 40t17.5 40t40.5 17q24 0 41 -17t17 -40zM325 562q0 -24 -17 -40.5t-41 -16.5q-23 0 -40.5 17t-17.5 40t17.5 40t40.5 17q24 0 41 -17t17 -40zM223 0h-203v96h180q92 0 92 78q0 47 -32 97t-87 89l58 77
q77 -54 119 -124q37 -62 40 -127q2 -47 34 -70q27 -20 69 -20h23v-96h-32q-83 0 -132 49q-42 -49 -129 -49z" />
    <glyph glyph-name="uniFB86" unicode="&#x68e;" horiz-adv-x="466" arabic-form="isolated" 
d="M256 675q0 -21 -15.5 -36.5t-37.5 -15.5q-21 0 -36.5 15.5t-15.5 36.5t15.5 36.5t36.5 15.5q22 0 37.5 -15t15.5 -37zM195 562q0 -23 -17.5 -40t-40.5 -17t-40.5 17t-17.5 40t17.5 40t40.5 17t40.5 -17t17.5 -40zM327 562q0 -23 -17.5 -40t-40.5 -17t-40.5 17t-17.5 40
t17.5 40t40.5 17t40.5 -17t17.5 -40zM223 0h-203v96h180q92 0 92 78q0 47 -32 97t-87 89l58 77q80 -57 122 -131q38 -65 38 -133q0 -173 -168 -173z" />
    <glyph glyph-name="uniFB87" unicode="&#x68e;" horiz-adv-x="506" arabic-form="final" 
d="M254 675q0 -21 -16 -36.5t-37 -15.5q-22 0 -37.5 15.5t-15.5 36.5q0 22 15.5 37t37.5 15t37.5 -15.5t15.5 -36.5zM192 562q0 -23 -17 -40t-41 -17q-23 0 -40.5 17t-17.5 40t17.5 40t40.5 17q24 0 41 -17t17 -40zM325 562q0 -23 -17.5 -40t-40.5 -17t-40.5 17t-17.5 40
t17.5 40t40.5 17t40.5 -17t17.5 -40zM223 0h-203v96h180q92 0 92 78q0 47 -32 97t-87 89l58 77q77 -54 119 -124q37 -62 40 -127q2 -47 34 -70q27 -20 69 -20h23v-96h-32q-83 0 -132 49q-42 -49 -129 -49z" />
    <glyph glyph-name="uniFB88" unicode="&#x688;" horiz-adv-x="466" arabic-form="isolated" 
d="M260 533h-208v51h57v167h55v-104q43 62 102 62q43 0 66 -28q21 -24 21 -63q0 -85 -93 -85zM166 584h90q40 0 40 34q0 37 -40 37q-51 0 -90 -71zM223 0h-203v96h180q92 0 92 78q0 47 -32 97t-87 89l58 77q80 -57 122 -131q38 -65 38 -133q0 -173 -168 -173z" />
    <glyph glyph-name="uniFB89" unicode="&#x688;" horiz-adv-x="506" arabic-form="final" 
d="M258 533h-208v51h57v167h54v-104q44 62 103 62q42 0 66 -28q21 -24 21 -63q0 -85 -93 -85zM163 584h91q39 0 39 34q0 37 -40 37q-51 0 -90 -71zM223 0h-203v96h180q92 0 92 78q0 47 -32 97t-87 89l58 77q77 -54 119 -124q37 -62 40 -127q2 -47 34 -70q27 -20 69 -20h23
v-96h-32q-83 0 -132 49q-42 -49 -129 -49z" />
    <glyph glyph-name="uniFB8A" unicode="&#x698;" horiz-adv-x="349" arabic-form="isolated" 
d="M268 679q0 -21 -15.5 -36.5t-37.5 -15.5t-37.5 15t-15.5 37q0 21 15.5 36.5t37.5 15.5q21 0 37 -15.5t16 -36.5zM206 565q0 -23 -17 -40t-41 -17q-23 0 -40.5 17t-17.5 40t17.5 40t40.5 17q24 0 41 -17t17 -40zM339 565q0 -23 -17.5 -40t-40.5 -17t-40.5 17t-17.5 40
t17.5 40t40.5 17t40.5 -17t17.5 -40zM265 426v-409q0 -108 -59 -163q-48 -45 -124 -45q-65 0 -134 35l26 78q48 -24 87 -24q52 0 79 36q26 33 26 91v401h99z" />
    <glyph glyph-name="uniFB8B" unicode="&#x698;" horiz-adv-x="383" arabic-form="final" 
d="M263 679q0 -22 -15.5 -37t-37.5 -15t-37.5 15t-15.5 37q0 21 15.5 36.5t37.5 15.5t37.5 -15.5t15.5 -36.5zM202 565q0 -23 -17.5 -40t-41.5 -17q-23 0 -40 17t-17 40t17 40t40 17q24 0 41.5 -17t17.5 -40zM334 565q0 -23 -17.5 -40t-40.5 -17t-40.5 17t-17.5 40t17.5 40
t40.5 17t40.5 -17t17.5 -40zM262 26v-14q-2 -104 -58 -158q-47 -45 -122 -45q-65 0 -134 35l26 78q48 -24 87 -24q52 0 79 36q26 33 26 91v401h99v-205q0 -125 104 -125h24v-96h-32q-58 0 -99 26z" />
    <glyph glyph-name="uniFB8C" unicode="&#x691;" horiz-adv-x="349" arabic-form="isolated" 
d="M272 536h-208v51h57v167h54v-104q43 62 103 62q42 0 66 -28q21 -24 21 -62q0 -86 -93 -86zM178 587l90 1q39 0 39 34q0 36 -40 36q-51 0 -89 -71zM265 426v-409q0 -108 -59 -163q-48 -45 -124 -45q-65 0 -134 35l26 78q48 -24 87 -24q52 0 79 36q26 33 26 91v401h99z" />
    <glyph glyph-name="uniFB8D" unicode="&#x691;" horiz-adv-x="383" arabic-form="final" 
d="M267 536h-208v51h57v167h54v-104q43 62 103 62q42 0 66 -28q21 -24 21 -62q0 -86 -93 -86zM173 587l90 1q40 0 40 34q0 36 -41 36q-51 0 -89 -71zM262 26v-14q-2 -104 -58 -158q-47 -45 -122 -45q-65 0 -134 35l26 78q48 -24 87 -24q52 0 79 36q26 33 26 91v401h99v-205
q0 -125 104 -125h24v-96h-32q-58 0 -99 26z" />
    <glyph glyph-name="uniFB8E" unicode="&#x6a9;" horiz-adv-x="932" arabic-form="isolated" 
d="M578 394h103q112 0 162 -56q42 -48 42 -141v-1q0 -103 -59 -153q-51 -43 -144 -43h-379q-119 0 -178 66q-48 52 -48 138q0 70 36 124q33 50 92 75l44 -68q-78 -38 -78 -125q0 -56 40 -86q35 -28 95 -28h366q114 0 114 106v2q0 50 -27 72q-25 21 -77 21h-215v95l227 235
l55 -55z" />
    <glyph glyph-name="uniFB8F" unicode="&#x6a9;" horiz-adv-x="1002" arabic-form="final" 
d="M679 0h-376q-119 0 -178 66q-48 52 -48 138q0 70 36 124q33 50 92 75l44 -68q-78 -38 -78 -125q0 -56 40 -86q35 -28 95 -28h366q114 0 114 106v2q0 50 -27 72q-25 21 -77 21h-215v95l227 235l55 -55l-171 -178h103q204 0 204 -190v-3q0 -53 31 -81q28 -24 74 -24h22v-96
h-30q-95 0 -147 61q-53 -61 -156 -61z" />
    <glyph glyph-name="uniFB90" unicode="&#x6a9;" horiz-adv-x="553" arabic-form="initial" 
d="M302 0h-312v96h302q114 0 114 106v2q0 50 -26 72q-25 21 -78 21h-257v95l227 235l56 -55l-171 -178h145q112 0 161 -56q43 -48 43 -141v-1q0 -103 -60 -153q-51 -43 -144 -43z" />
    <glyph glyph-name="uniFB91" unicode="&#x6a9;" horiz-adv-x="623" arabic-form="medial" 
d="M302 0h-312v96h302q114 0 114 105v2q0 51 -26 73q-25 21 -78 21h-257v95l227 235l56 -55l-171 -178h147q106 0 157 -53q45 -46 45 -129v-4q0 -58 31 -87q27 -25 73 -25h23v-96h-32q-95 0 -144 61q-55 -61 -155 -61z" />
    <glyph glyph-name="uniFB92" unicode="&#x6af;" horiz-adv-x="932" arabic-form="isolated" 
d="M452 440l-41 42l196 207l41 -42zM578 394h103q112 0 162 -56q42 -48 42 -141v-1q0 -103 -59 -153q-51 -43 -144 -43h-379q-119 0 -178 66q-48 52 -48 138q0 70 36 124q33 50 92 75l44 -68q-78 -38 -78 -125q0 -56 40 -86q35 -28 95 -28h366q114 0 114 106v2q0 50 -27 72
q-25 21 -77 21h-215v95l227 235l55 -55z" />
    <glyph glyph-name="uniFB93" unicode="&#x6af;" horiz-adv-x="1002" arabic-form="final" 
d="M452 440l-41 42l196 207l41 -42zM679 0h-376q-119 0 -178 66q-48 52 -48 138q0 70 36 124q33 50 92 75l44 -68q-78 -38 -78 -125q0 -56 40 -86q35 -28 95 -28h366q114 0 114 106v2q0 50 -27 72q-25 21 -77 21h-215v95l227 235l55 -55l-171 -178h103q204 0 204 -190v-3
q0 -53 31 -81q28 -24 74 -24h22v-96h-30q-95 0 -147 61q-53 -61 -156 -61z" />
    <glyph glyph-name="uniFB94" unicode="&#x6af;" horiz-adv-x="553" arabic-form="initial" 
d="M32 443l-41 42l196 207l41 -42zM302 0h-312v96h302q114 0 114 106v2q0 50 -26 72q-25 21 -78 21h-257v95l227 235l56 -55l-171 -178h145q112 0 161 -56q43 -48 43 -141v-1q0 -103 -60 -153q-51 -43 -144 -43z" />
    <glyph glyph-name="uniFB95" unicode="&#x6af;" horiz-adv-x="623" arabic-form="medial" 
d="M32 443l-41 42l196 207l41 -42zM302 0h-312v96h302q114 0 114 105v2q0 51 -26 73q-25 21 -78 21h-257v95l227 235l56 -55l-171 -178h147q106 0 157 -53q45 -46 45 -129v-4q0 -58 31 -87q27 -25 73 -25h23v-96h-32q-95 0 -144 61q-55 -61 -155 -61z" />
    <glyph glyph-name="uniFB96" unicode="&#x6b3;" horiz-adv-x="932" arabic-form="isolated" 
d="M452 440l-41 42l196 207l41 -42zM578 394h103q112 0 162 -56q42 -48 42 -141v-1q0 -103 -59 -153q-51 -43 -144 -43h-379q-119 0 -178 66q-48 52 -48 138q0 70 36 124q33 50 92 75l44 -68q-78 -38 -78 -125q0 -56 40 -86q35 -28 95 -28h366q114 0 114 106v2q0 50 -27 72
q-25 21 -77 21h-215v95l227 235l55 -55zM538 -129q0 -23 -15.5 -38.5t-38.5 -15.5t-38.5 15.5t-15.5 38.5t15.5 38.5t38.5 15.5t38.5 -15.5t15.5 -38.5zM538 -249q0 -22 -16 -37.5t-38 -15.5t-38 15.5t-16 37.5q0 23 15.5 38.5t38.5 15.5t38.5 -15.5t15.5 -38.5z" />
    <glyph glyph-name="uniFB97" unicode="&#x6b3;" horiz-adv-x="1002" arabic-form="final" 
d="M452 440l-41 42l196 207l41 -42zM679 0h-376q-119 0 -178 66q-48 52 -48 138q0 70 36 124q33 50 92 75l44 -68q-78 -38 -78 -125q0 -56 40 -86q35 -28 95 -28h366q114 0 114 106v2q0 50 -27 72q-25 21 -77 21h-215v95l227 235l55 -55l-171 -178h103q204 0 204 -190v-3
q0 -53 31 -81q28 -24 74 -24h22v-96h-30q-95 0 -147 61q-53 -61 -156 -61zM538 -129q0 -23 -15.5 -38.5t-38.5 -15.5t-38.5 15.5t-15.5 38.5t15.5 38.5t38.5 15.5t38.5 -15.5t15.5 -38.5zM538 -249q0 -22 -16 -37.5t-38 -15.5t-38 15.5t-16 37.5q0 23 15.5 38.5t38.5 15.5
t38.5 -15.5t15.5 -38.5z" />
    <glyph glyph-name="uniFB98" unicode="&#x6b3;" horiz-adv-x="553" arabic-form="initial" 
d="M32 443l-41 42l196 207l41 -42zM302 0h-312v96h302q114 0 114 106v2q0 50 -26 72q-25 21 -78 21h-257v95l227 235l56 -55l-171 -178h145q112 0 161 -56q43 -48 43 -141v-1q0 -103 -60 -153q-51 -43 -144 -43zM245 -129q0 -23 -15.5 -38.5t-38.5 -15.5t-38.5 15.5
t-15.5 38.5t15.5 38.5t38.5 15.5t38.5 -15.5t15.5 -38.5zM245 -249q0 -22 -16 -37.5t-38 -15.5t-38 15.5t-16 37.5q0 23 15.5 38.5t38.5 15.5t38.5 -15.5t15.5 -38.5z" />
    <glyph glyph-name="uniFB99" unicode="&#x6b3;" horiz-adv-x="623" arabic-form="medial" 
d="M32 443l-41 42l196 207l41 -42zM302 0h-312v96h302q114 0 114 105v2q0 51 -26 73q-25 21 -78 21h-257v95l227 235l56 -55l-171 -178h147q106 0 157 -53q45 -46 45 -129v-4q0 -58 31 -87q27 -25 73 -25h23v-96h-32q-95 0 -144 61q-55 -61 -155 -61zM261 -129
q0 -23 -15.5 -38.5t-38.5 -15.5t-38.5 15.5t-15.5 38.5t15.5 38.5t38.5 15.5t38.5 -15.5t15.5 -38.5zM261 -249q0 -22 -16 -37.5t-38 -15.5t-38 15.5t-16 37.5q0 23 15.5 38.5t38.5 15.5t38.5 -15.5t15.5 -38.5z" />
    <glyph glyph-name="uniFB9A" unicode="&#x6b1;" horiz-adv-x="932" arabic-form="isolated" 
d="M397 703q0 -23 -17.5 -40t-40.5 -17t-40.5 17t-17.5 40t17.5 40t40.5 17t40.5 -17t17.5 -40zM529 703q0 -24 -17 -40.5t-41 -16.5q-23 0 -40 17t-17 40t17 40t40 17q24 0 41 -16.5t17 -40.5zM452 440l-41 42l196 207l41 -42zM578 394h103q112 0 162 -56q42 -48 42 -141
v-1q0 -103 -59 -153q-51 -43 -144 -43h-379q-119 0 -178 66q-48 52 -48 138q0 70 36 124q33 50 92 75l44 -68q-78 -38 -78 -125q0 -56 40 -86q35 -28 95 -28h366q114 0 114 106v2q0 50 -27 72q-25 21 -77 21h-215v95l227 235l55 -55z" />
    <glyph glyph-name="uniFB9B" unicode="&#x6b1;" horiz-adv-x="1002" arabic-form="final" 
d="M397 703q0 -23 -17.5 -40t-40.5 -17t-40.5 17t-17.5 40t17.5 40t40.5 17t40.5 -17t17.5 -40zM529 703q0 -24 -17 -40.5t-41 -16.5q-23 0 -40 17t-17 40t17 40t40 17q24 0 41 -16.5t17 -40.5zM452 440l-41 42l196 207l41 -42zM679 0h-376q-119 0 -178 66q-48 52 -48 138
q0 70 36 124q33 50 92 75l44 -68q-78 -38 -78 -125q0 -56 40 -86q35 -28 95 -28h366q114 0 114 106v2q0 50 -27 72q-25 21 -77 21h-215v95l227 235l55 -55l-171 -178h103q204 0 204 -190v-3q0 -53 31 -81q28 -24 74 -24h22v-96h-30q-95 0 -147 61q-53 -61 -156 -61z" />
    <glyph glyph-name="uniFB9C" unicode="&#x6b1;" horiz-adv-x="553" arabic-form="initial" 
d="M-20 717q0 -23 -17.5 -40t-40.5 -17t-40.5 17t-17.5 40t17.5 40t40.5 17t40.5 -17t17.5 -40zM113 717q0 -23 -17 -40t-41 -17q-23 0 -40.5 17t-17.5 40t17.5 40t40.5 17q24 0 41 -17t17 -40zM32 443l-41 42l196 207l41 -42zM302 0h-312v96h302q114 0 114 106v2
q0 50 -26 72q-25 21 -78 21h-257v95l227 235l56 -55l-171 -178h145q112 0 161 -56q43 -48 43 -141v-1q0 -103 -60 -153q-51 -43 -144 -43z" />
    <glyph glyph-name="uniFB9D" unicode="&#x6b1;" horiz-adv-x="623" arabic-form="medial" 
d="M-20 717q0 -23 -17.5 -40t-40.5 -17t-40.5 17t-17.5 40t17.5 40t40.5 17t40.5 -17t17.5 -40zM113 717q0 -23 -17 -40t-41 -17q-23 0 -40.5 17t-17.5 40t17.5 40t40.5 17q24 0 41 -17t17 -40zM32 443l-41 42l196 207l41 -42zM302 0h-312v96h302q114 0 114 105v2
q0 51 -26 73q-25 21 -78 21h-257v95l227 235l56 -55l-171 -178h147q106 0 157 -53q45 -46 45 -129v-4q0 -58 31 -87q27 -25 73 -25h23v-96h-32q-95 0 -144 61q-55 -61 -155 -61z" />
    <glyph glyph-name="uniFB9E" unicode="&#x6ba;" horiz-adv-x="677" arabic-form="isolated" 
d="M593 426v-352q0 -134 -83 -205q-70 -60 -183 -60q-126 0 -197 76q-63 67 -63 176q0 90 49 163l78 -31q-32 -64 -32 -124q0 -76 47 -122q45 -42 118 -42q74 0 121 46q46 46 46 124v351h99z" />
    <glyph glyph-name="uniFB9F" unicode="&#x6ba;" horiz-adv-x="711" arabic-form="final" 
d="M584 22q-15 -109 -94 -166q-66 -47 -163 -47q-127 0 -197 76q-63 67 -63 176q0 89 48 163l79 -31q-33 -63 -33 -124q0 -76 47 -122q45 -42 119 -42t121 46q46 46 46 124v351h99v-205q0 -125 105 -125h23v-96h-32q-60 0 -104 29q0 -5 -1 -7z" />
    <glyph glyph-name="uniFBA0" unicode="&#x6bb;" horiz-adv-x="677" arabic-form="isolated" 
d="M342 421h-208v52h57v166h54v-103q44 61 103 61q42 0 66 -27q21 -24 21 -63q0 -86 -93 -86zM248 473h90q39 0 39 34q0 37 -40 37q-50 0 -89 -71zM593 426v-352q0 -134 -83 -205q-70 -60 -183 -60q-126 0 -197 76q-63 67 -63 176q0 90 49 163l78 -31q-32 -64 -32 -124
q0 -76 47 -122q45 -42 118 -42q74 0 121 46q46 46 46 124v351h99z" />
    <glyph glyph-name="uniFBA1" unicode="&#x6bb;" horiz-adv-x="711" arabic-form="final" 
d="M342 421h-208v52h57v166h54v-103q44 61 103 61q42 0 66 -27q21 -24 21 -63q0 -86 -93 -86zM248 473h90q39 0 39 34q0 37 -40 37q-50 0 -89 -71zM584 22q-15 -109 -94 -166q-66 -47 -163 -47q-127 0 -197 76q-63 67 -63 176q0 89 48 163l79 -31q-33 -63 -33 -124
q0 -76 47 -122q45 -42 119 -42t121 46q46 46 46 124v351h99v-205q0 -125 105 -125h23v-96h-32q-60 0 -104 29q0 -5 -1 -7z" />
    <glyph glyph-name="uniFBA2" unicode="&#x6bb;" horiz-adv-x="301" arabic-form="initial" 
d="M222 535h-208v51h57v167h54v-104q43 62 103 62q42 0 66 -28q21 -24 21 -63q0 -85 -93 -85zM127 586h91q39 0 39 34q0 37 -40 37q-51 0 -90 -71zM22 0h-32v96h23q105 0 105 125v205h99v-223q0 -108 -60 -160q-50 -43 -135 -43z" />
    <glyph glyph-name="uniFBA3" unicode="&#x6bb;" horiz-adv-x="336" arabic-form="medial" 
d="M226 535h-208v51h57v167h54v-104q43 62 103 62q42 0 66 -28q21 -24 21 -63q0 -85 -93 -85zM131 586h91q39 0 39 34q0 37 -40 37q-51 0 -90 -71zM22 0h-32v96h23q105 0 105 125v205h99v-205q0 -125 105 -125h24v-96h-32q-98 0 -146 63q-48 -63 -146 -63z" />
    <glyph glyph-name="uniFBA4" unicode="&#x6c0;" horiz-adv-x="510" arabic-form="isolated" 
d="M340 526h-182v49h39q-10 16 -10 35q0 31 21.5 51t54.5 20q35 0 59 -25l-17 -34q-16 12 -36 12q-31 0 -31 -28q0 -14 12 -31h90v-49zM266 -12h-22q-87 0 -134 69q-42 60 -42 160q0 110 58 171q50 52 129 52q92 0 143 -68q44 -59 44 -155q0 -114 -54 -176q-47 -53 -122 -53
zM160 216q0 -67 26 -102q23 -29 61 -29h16q44 0 67 38q20 34 20 93q0 67 -28 100q-24 30 -67 30q-49 0 -73 -38q-22 -34 -22 -92z" />
    <glyph glyph-name="uniFBA5" unicode="&#x6c0;" horiz-adv-x="540" arabic-form="final" 
d="M329 566h-182v48h38q-10 17 -10 36q0 31 21.5 51t54.5 20q36 0 59 -25l-17 -34q-18 12 -36 12q-31 0 -31 -29q0 -14 13 -31h90v-48zM550 0h-31q-110 0 -158 76q-51 -51 -125 -51q-81 0 -131 60q-47 57 -47 147q0 104 66 164q57 51 146 51h59v45h93v-271q0 -125 105 -125
h23v-96zM329 358h-56q-62 0 -93 -37q-26 -31 -26 -84q0 -59 27 -91q24 -29 64 -29q45 0 88 38q-4 20 -4 48v155z" />
    <glyph glyph-name="uniFBA6" unicode="&#x6c1;" horiz-adv-x="510" arabic-form="isolated" 
d="M266 -12h-22q-87 0 -134 69q-42 60 -42 160q0 110 58 171q50 52 129 52q92 0 143 -68q44 -59 44 -155q0 -114 -54 -176q-47 -53 -122 -53zM160 216q0 -67 26 -102q23 -29 61 -29h16q44 0 67 38q20 34 20 93q0 67 -28 100q-24 30 -67 30q-49 0 -73 -38q-22 -34 -22 -92z
" />
    <glyph glyph-name="uniFBA7" unicode="&#x6c1;" horiz-adv-x="647" arabic-form="final" 
d="M633 0q-88 0 -141 57q-21 23 -57 85q-23 39 -38 54q-24 23 -54 23q-67 0 -145 -86q-38 -43 -105 -142l-73 47q68 129 157 206q89 76 174 76q62 0 103 -39q24 -22 60 -84q34 -58 60 -78q30 -23 71 -23h12v-96h-24z" />
    <glyph glyph-name="uniFBA8" unicode="&#x6c1;" horiz-adv-x="301" arabic-form="initial" 
d="M22 0h-32v96h23q105 0 105 125v205h99v-223q0 -108 -60 -160q-50 -43 -135 -43zM66 -296l-89 32l70 207l77 -12z" />
    <glyph glyph-name="uniFBA9" unicode="&#x6c1;" horiz-adv-x="615" arabic-form="medial" 
d="M625 0h-13q-59 0 -82 -11q-26 -13 -34.5 -48t-8.5 -125v-126h-57q-146 0 -222 95q-61 77 -61 198q0 34 5 70q-59 -53 -145 -53h-17v96h14q56 0 105.5 38.5t100.5 120.5l77 -34q-44 -121 -44 -225q0 -99 41 -153q39 -50 107 -50v59q0 86 14 132q17 56 62 83q49 29 140 29
h18v-96z" />
    <glyph glyph-name="uniFBAA" unicode="&#x6be;" horiz-adv-x="618" arabic-form="isolated" 
d="M138 0h-148v96h75h42q-38 47 -38 108q0 63 41 105q40 40 104 40q71 0 112 -51q32 -40 32 -97q0 -59 -37 -105q7 0 23 1h21q39 2 60.5 22.5t21.5 56.5q0 37 -16 75.5t-45 68.5q-76 80 -227 91l20 87q181 -12 287 -133q80 -91 80 -193q0 -87 -47 -131q-44 -41 -126 -41h-80
q-42 0 -79 14q-36 -14 -76 -14zM214 103q30 15 46.5 42t16.5 60q0 34 -17 53t-46 19q-30 0 -47 -19t-17 -52q0 -34 17 -61t47 -42z" />
    <glyph glyph-name="uniFBAB" unicode="&#x6be;" horiz-adv-x="662" arabic-form="final" 
d="M138 0h-148v96h77h40q-38 47 -38 108q0 63 41 105q40 40 104 40q71 0 112 -51q32 -40 32 -97q0 -59 -37 -105q8 0 23 1h20q83 3 83 79q0 37 -16 75.5t-45 68.5q-76 80 -227 91l20 87q181 -12 287 -128q79 -87 79 -186q0 -43 33 -68q28 -20 70 -20h24v-96h-32
q-86 0 -135 49q-44 -49 -132 -49h-80q-42 0 -79 14q-36 -14 -76 -14zM214 103q30 15 46.5 42t16.5 60q0 34 -17 53t-46 19q-30 0 -47 -19t-17 -52q0 -34 17 -61t47 -42z" />
    <glyph glyph-name="uniFBAC" unicode="&#x6be;" horiz-adv-x="618" arabic-form="initial" 
d="M138 0h-148v96h75h42q-38 47 -38 108q0 63 41 105q40 40 104 40q71 0 112 -51q32 -40 32 -97q0 -59 -37 -105q7 0 23 1h21q39 2 60.5 22.5t21.5 56.5q0 37 -16 75.5t-45 68.5q-76 80 -227 91l20 87q181 -12 287 -133q80 -91 80 -193q0 -87 -47 -131q-44 -41 -126 -41h-80
q-42 0 -79 14q-36 -14 -76 -14zM214 103q30 15 46.5 42t16.5 60q0 34 -17 53t-46 19q-30 0 -47 -19t-17 -52q0 -34 17 -61t47 -42z" />
    <glyph glyph-name="uniFBAD" unicode="&#x6be;" horiz-adv-x="662" arabic-form="medial" 
d="M138 0h-148v96h77h40q-38 47 -38 108q0 63 41 105q40 40 104 40q71 0 112 -51q32 -40 32 -97q0 -59 -37 -105q8 0 23 1h20q83 3 83 79q0 37 -16 75.5t-45 68.5q-76 80 -227 91l20 87q181 -12 287 -128q79 -87 79 -186q0 -43 33 -68q28 -20 70 -20h24v-96h-32
q-86 0 -135 49q-44 -49 -132 -49h-80q-42 0 -79 14q-36 -14 -76 -14zM214 103q30 15 46.5 42t16.5 60q0 34 -17 53t-46 19q-30 0 -47 -19t-17 -52q0 -34 17 -61t47 -42z" />
    <glyph glyph-name="uniFBAE" unicode="&#x6d2;" horiz-adv-x="887" arabic-form="isolated" 
d="M783 0h-550q-106 0 -151 46q-40 40 -40 123q0 92 58 137q50 38 138 38h71v23q0 96 54 141q44 36 122 36q62 0 112 -37l-33 -80q-34 26 -76 26q-49 0 -70 -36q-18 -29 -18 -88v-76h-159q-52 0 -75.5 -19.5t-23.5 -62.5q0 -41 22 -58t77 -17h573z" />
    <glyph glyph-name="uniFBAF" unicode="&#x6d2;" horiz-adv-x="770" arabic-form="final" 
d="M780 0h-201q-190 0 -299 -28q-105 -26 -105 -73q0 -22 17.5 -30.5t65.5 -8.5h359l-28 -96h-329q-102 0 -147 32q-40 29 -40 85q0 122 154 173q124 42 363 42h190v-96z" />
    <glyph glyph-name="uniFBB0" unicode="&#x6d3;" horiz-adv-x="887" arabic-form="isolated" 
d="M270 499h-182v49h38q-10 20 -10 35q0 31 21.5 51t54.5 20q37 0 59 -24l-17 -35q-17 13 -35 13q-31 0 -31 -29q0 -16 12 -31h90v-49zM783 0h-550q-106 0 -151 46q-40 40 -40 123q0 92 58 137q50 38 138 38h71v23q0 96 54 141q44 36 122 36q62 0 112 -37l-33 -80
q-34 26 -76 26q-49 0 -70 -36q-18 -29 -18 -88v-76h-159q-52 0 -75.5 -19.5t-23.5 -62.5q0 -41 22 -58t77 -17h573z" />
    <glyph glyph-name="uniFBB1" unicode="&#x6d3;" horiz-adv-x="770" arabic-form="final" 
d="M549 206h-182v49h38q-9 17 -9 35q0 31 21.5 51t54.5 20q35 0 59 -25l-18 -34q-15 12 -35 12q-31 0 -31 -28q0 -14 12 -31h90v-49zM780 0h-201q-190 0 -299 -28q-105 -26 -105 -73q0 -22 17.5 -30.5t65.5 -8.5h359l-28 -96h-329q-102 0 -147 32q-40 29 -40 85
q0 122 154 173q124 42 363 42h190v-96z" />
    <glyph glyph-name="uniFBD3" unicode="&#x6ad;" horiz-adv-x="880" arabic-form="isolated" 
d="M798 918q0 -21 -15.5 -36.5t-37.5 -15.5q-21 0 -37 15.5t-16 36.5t16 36.5t37 15.5q22 0 37.5 -15.5t15.5 -36.5zM737 804q0 -23 -17 -39.5t-41 -16.5t-41 16.5t-17 39.5t17.5 40t40.5 17t40.5 -17t17.5 -40zM869 804q0 -23 -17 -39.5t-41 -16.5t-41 16.5t-17 39.5
t17.5 40t40.5 17t40.5 -17t17.5 -40zM596 0h-286q-121 0 -185 76q-48 57 -48 141q0 66 36 118q34 50 92 74l44 -67q-38 -18 -59.5 -50t-21.5 -70q0 -55 41 -92q39 -34 98 -34h270q67 0 96 36q24 30 24 89v445h99v-463q0 -203 -200 -203zM466 355h-102l1 45h97q34 0 34 29
q0 18 -13 28.5t-35 10.5q-27 0 -52 -13v43l86 95l31 -25l-52 -60q39 -2 60 -23t21 -57q0 -34 -20.5 -53.5t-55.5 -19.5z" />
    <glyph glyph-name="uniFBD4" unicode="&#x6ad;" horiz-adv-x="915" arabic-form="final" 
d="M798 918q0 -21 -15.5 -36.5t-37.5 -15.5q-21 0 -37 15.5t-16 36.5t16 36.5t37 15.5q22 0 37.5 -15.5t15.5 -36.5zM737 804q0 -23 -17 -39.5t-41 -16.5t-41 16.5t-17 39.5t17.5 40t40.5 17t40.5 -17t17.5 -40zM869 804q0 -23 -17 -39.5t-41 -16.5t-41 16.5t-17 39.5
t17.5 40t40.5 17t40.5 -17t17.5 -40zM596 0h-283q-125 0 -188 76q-48 57 -48 141q0 66 36 118q34 50 92 74l44 -67q-38 -18 -59.5 -50t-21.5 -70q0 -55 41 -92q39 -34 98 -34h270q67 0 96 36q24 30 24 89v445h99v-445q0 -125 105 -125h24v-96h-32q-97 0 -145 63
q-49 -63 -152 -63zM466 355h-102l1 45h97q34 0 34 29q0 18 -13 28.5t-35 10.5q-27 0 -52 -13v43l86 95l31 -25l-52 -60q39 -2 60 -23t21 -57q0 -34 -20.5 -53.5t-55.5 -19.5z" />
    <glyph glyph-name="uniFBD5" unicode="&#x6ad;" horiz-adv-x="553" arabic-form="initial" 
d="M154 784q0 -21 -15.5 -36.5t-37.5 -15.5q-21 0 -36.5 15.5t-15.5 36.5t15.5 36.5t36.5 15.5q22 0 37.5 -15t15.5 -37zM93 671q0 -23 -17.5 -40t-40.5 -17t-40.5 17t-17.5 40t17.5 40t40.5 17t40.5 -17t17.5 -40zM225 671q0 -23 -17.5 -40t-40.5 -17t-40.5 17t-17.5 40
t17.5 40t40.5 17t40.5 -17t17.5 -40zM302 0h-312v96h302q114 0 114 106v2q0 50 -26 72q-25 21 -78 21h-257v95l227 235l56 -55l-171 -178h145q112 0 161 -56q43 -48 43 -141v-1q0 -103 -60 -153q-51 -43 -144 -43z" />
    <glyph glyph-name="uniFBD6" unicode="&#x6ad;" horiz-adv-x="623" arabic-form="medial" 
d="M154 784q0 -21 -15.5 -36.5t-37.5 -15.5q-21 0 -36.5 15.5t-15.5 36.5t15.5 36.5t36.5 15.5q22 0 37.5 -15t15.5 -37zM93 671q0 -23 -17.5 -40t-40.5 -17t-40.5 17t-17.5 40t17.5 40t40.5 17t40.5 -17t17.5 -40zM225 671q0 -23 -17.5 -40t-40.5 -17t-40.5 17t-17.5 40
t17.5 40t40.5 17t40.5 -17t17.5 -40zM302 0h-312v96h302q114 0 114 105v2q0 51 -26 73q-25 21 -78 21h-257v95l227 235l56 -55l-171 -178h147q106 0 157 -53q45 -46 45 -129v-4q0 -58 31 -87q27 -25 73 -25h23v-96h-32q-95 0 -144 61q-55 -61 -155 -61z" />
    <glyph glyph-name="uniFBD7" unicode="&#x6c7;" horiz-adv-x="500" arabic-form="isolated" 
d="M285 547l-140 -25l-9 50l108 19q-19 22 -19 51q0 30 19.5 50t47.5 20q30 0 49 -20.5t19 -52.5q0 -34 -21 -60t-54 -32zM295 603q20 10 20 36q0 27 -22 27q-21 0 -21 -26q0 -25 23 -37zM330 30q-35 -18 -75 -18q-100 0 -151 66q-43 55 -43 146q0 102 57 161q51 53 133 53
q86 0 134 -54q41 -46 41 -119v-248q0 -108 -62 -164q-50 -45 -129 -45q-71 0 -140 39l25 78q54 -27 98 -27q54 0 83 33q27 31 28 87q0 2 1 6v6zM330 119v142q0 47 -19.5 68.5t-61.5 21.5q-49 0 -74 -38q-21 -33 -21 -86q0 -66 36 -101q29 -28 73 -28q34 0 67 21z" />
    <glyph glyph-name="uniFBD8" unicode="&#x6c7;" horiz-adv-x="518" arabic-form="final" 
d="M285 547l-140 -25l-9 50l108 19q-19 22 -19 51q0 30 19.5 50t47.5 20q30 0 49 -20.5t19 -52.5q0 -34 -21 -60t-54 -32zM295 603q20 10 20 36q0 27 -22 27q-21 0 -21 -26q0 -25 23 -37zM425 0q-4 -99 -65 -150q-50 -42 -125 -42q-71 0 -140 39l25 78q54 -27 98 -27
q102 0 111 107q-40 0 -60 1q-106 2 -161 68q-47 57 -47 150q0 102 57 161q51 53 133 53q86 0 134 -54q41 -46 41 -119v-169h102v-96h-103zM330 96v165q0 47 -19.5 68.5t-61.5 21.5q-49 0 -74 -38q-21 -33 -21 -86q0 -67 37 -102q31 -29 79 -29h60z" />
    <glyph glyph-name="uniFBD9" unicode="&#x6c6;" horiz-adv-x="500" arabic-form="isolated" 
d="M192 683l57 -108l53 108h78l-96 -172h-69l-100 172h77zM330 30q-35 -18 -75 -18q-100 0 -151 66q-43 55 -43 146q0 102 57 161q51 53 133 53q86 0 134 -54q41 -46 41 -119v-248q0 -108 -62 -164q-50 -45 -129 -45q-71 0 -140 39l25 78q54 -27 98 -27q54 0 83 33
q27 31 28 87q0 2 1 6v6zM330 119v142q0 47 -19.5 68.5t-61.5 21.5q-49 0 -74 -38q-21 -33 -21 -86q0 -66 36 -101q29 -28 73 -28q34 0 67 21z" />
    <glyph glyph-name="uniFBDA" unicode="&#x6c6;" horiz-adv-x="518" arabic-form="final" 
d="M192 683l57 -108l53 108h78l-96 -172h-69l-100 172h77zM425 0q-4 -99 -65 -150q-50 -42 -125 -42q-71 0 -140 39l25 78q54 -27 98 -27q102 0 111 107q-40 0 -60 1q-106 2 -161 68q-47 57 -47 150q0 102 57 161q51 53 133 53q86 0 134 -54q41 -46 41 -119v-169h102v-96
h-103zM330 96v165q0 47 -19.5 68.5t-61.5 21.5q-49 0 -74 -38q-21 -33 -21 -86q0 -67 37 -102q31 -29 79 -29h60z" />
    <glyph glyph-name="uniFBDB" unicode="&#x6c8;" horiz-adv-x="500" arabic-form="isolated" 
d="M277 522h-58v147h58v-147zM330 30q-35 -18 -75 -18q-100 0 -151 66q-43 55 -43 146q0 102 57 161q51 53 133 53q86 0 134 -54q41 -46 41 -119v-248q0 -108 -62 -164q-50 -45 -129 -45q-71 0 -140 39l25 78q54 -27 98 -27q54 0 83 33q27 31 28 87q0 2 1 6v6zM330 119v142
q0 47 -19.5 68.5t-61.5 21.5q-49 0 -74 -38q-21 -33 -21 -86q0 -66 36 -101q29 -28 73 -28q34 0 67 21z" />
    <glyph glyph-name="uniFBDC" unicode="&#x6c8;" horiz-adv-x="518" arabic-form="final" 
d="M277 522h-58v147h58v-147zM425 0q-4 -99 -65 -150q-50 -42 -125 -42q-71 0 -140 39l25 78q54 -27 98 -27q102 0 111 107q-40 0 -60 1q-106 2 -161 68q-47 57 -47 150q0 102 57 161q51 53 133 53q86 0 134 -54q41 -46 41 -119v-169h102v-96h-103zM330 96v165
q0 47 -19.5 68.5t-61.5 21.5q-49 0 -74 -38q-21 -33 -21 -86q0 -67 37 -102q31 -29 79 -29h60z" />
    <glyph glyph-name="uniFBDD" unicode="&#x677;" horiz-adv-x="500" arabic-form="isolated" 
d="M208 607l-140 -25l-8 50l108 19q-19 22 -19 51q0 30 19 50.5t47 20.5q31 0 50 -20.5t19 -53.5q0 -34 -21.5 -60t-54.5 -32zM218 663q21 11 21 36q0 28 -22 28q-21 0 -21 -27q0 -26 22 -37zM467 524h-182v49h39q-10 17 -10 35q0 31 21.5 51t54.5 20q37 0 59 -24l-17 -35
q-17 13 -36 13q-31 0 -31 -29q0 -15 13 -31h89v-49zM330 30q-35 -18 -75 -18q-100 0 -151 66q-43 55 -43 146q0 102 57 161q51 53 133 53q86 0 134 -54q41 -46 41 -119v-248q0 -108 -62 -164q-50 -45 -129 -45q-71 0 -140 39l25 78q54 -27 98 -27q54 0 83 33q27 31 28 87
q0 2 1 6v6zM330 119v142q0 47 -19.5 68.5t-61.5 21.5q-49 0 -74 -38q-21 -33 -21 -86q0 -66 36 -101q29 -28 73 -28q34 0 67 21z" />
    <glyph glyph-name="uniFBDE" unicode="&#x6cb;" horiz-adv-x="500" arabic-form="isolated" 
d="M301 679q0 -22 -15.5 -37t-37.5 -15q-21 0 -36.5 15.5t-15.5 36.5t15.5 36.5t36.5 15.5q22 0 37.5 -15.5t15.5 -36.5zM240 565q0 -23 -17.5 -40t-40.5 -17t-40.5 17t-17.5 40t17.5 40t40.5 17t40.5 -17t17.5 -40zM372 565q0 -23 -17.5 -40t-40.5 -17t-40.5 17t-17.5 40
t17.5 40t40.5 17t40.5 -17t17.5 -40zM330 30q-35 -18 -75 -18q-100 0 -151 66q-43 55 -43 146q0 102 57 161q51 53 133 53q86 0 134 -54q41 -46 41 -119v-248q0 -108 -62 -164q-50 -45 -129 -45q-71 0 -140 39l25 78q54 -27 98 -27q54 0 83 33q27 31 28 87q0 2 1 6v6z
M330 119v142q0 47 -19.5 68.5t-61.5 21.5q-49 0 -74 -38q-21 -33 -21 -86q0 -66 36 -101q29 -28 73 -28q34 0 67 21z" />
    <glyph glyph-name="uniFBDF" unicode="&#x6cb;" horiz-adv-x="518" arabic-form="final" 
d="M301 679q0 -22 -15.5 -37t-37.5 -15q-21 0 -36.5 15.5t-15.5 36.5t15.5 36.5t36.5 15.5q22 0 37.5 -15.5t15.5 -36.5zM240 565q0 -23 -17.5 -40t-40.5 -17t-40.5 17t-17.5 40t17.5 40t40.5 17t40.5 -17t17.5 -40zM372 565q0 -23 -17.5 -40t-40.5 -17t-40.5 17t-17.5 40
t17.5 40t40.5 17t40.5 -17t17.5 -40zM425 0q-4 -99 -65 -150q-50 -42 -125 -42q-71 0 -140 39l25 78q54 -27 98 -27q102 0 111 107q-40 0 -60 1q-106 2 -161 68q-47 57 -47 150q0 102 57 161q51 53 133 53q86 0 134 -54q41 -46 41 -119v-169h102v-96h-103zM330 96v165
q0 47 -19.5 68.5t-61.5 21.5q-49 0 -74 -38q-21 -33 -21 -86q0 -67 37 -102q31 -29 79 -29h60z" />
    <glyph glyph-name="uniFBE0" unicode="&#x6c5;" horiz-adv-x="500" arabic-form="isolated" 
d="M330 30q-35 -18 -75 -18q-100 0 -151 66q-43 55 -43 146q0 102 57 161q51 53 133 53q86 0 134 -54q41 -46 41 -119v-248q0 -108 -62 -164q-50 -45 -129 -45q-71 0 -140 39l25 78q54 -27 98 -27q67 0 95 50h-123v29h134q5 20 5 41q0 2 1 6v6zM330 119v142q0 47 -19.5 68.5
t-61.5 21.5q-49 0 -74 -38q-21 -33 -21 -86q0 -66 36 -101q29 -28 73 -28q34 0 67 21z" />
    <glyph glyph-name="uniFBE1" unicode="&#x6c5;" horiz-adv-x="518" arabic-form="final" 
d="M426 265v-169h102v-96h-103q-4 -99 -65 -150q-50 -42 -125 -42q-71 0 -140 39l25 78q54 -27 98 -27q69 0 95 50h-123v29h135q2 10 4 28q-40 0 -60 1q-106 2 -161 68q-47 57 -47 150q0 102 57 161q51 53 133 53q86 0 134 -54q41 -46 41 -119zM330 96v165q0 47 -19.5 68.5
t-61.5 21.5q-49 0 -74 -38q-21 -33 -21 -86q0 -67 37 -102q31 -29 79 -29h60z" />
    <glyph glyph-name="uniFBE2" unicode="&#x6c9;" horiz-adv-x="500" arabic-form="isolated" 
d="M303 516l-56 108l-54 -108h-78l97 172h69l99 -172h-77zM330 30q-35 -18 -75 -18q-100 0 -151 66q-43 55 -43 146q0 102 57 161q51 53 133 53q86 0 134 -54q41 -46 41 -119v-248q0 -108 -62 -164q-50 -45 -129 -45q-71 0 -140 39l25 78q54 -27 98 -27q54 0 83 33
q27 31 28 87q0 2 1 6v6zM330 119v142q0 47 -19.5 68.5t-61.5 21.5q-49 0 -74 -38q-21 -33 -21 -86q0 -66 36 -101q29 -28 73 -28q34 0 67 21z" />
    <glyph glyph-name="uniFBE3" unicode="&#x6c9;" horiz-adv-x="518" arabic-form="final" 
d="M303 516l-56 108l-54 -108h-78l97 172h69l99 -172h-77zM425 0q-4 -99 -65 -150q-50 -42 -125 -42q-71 0 -140 39l25 78q54 -27 98 -27q102 0 111 107q-40 0 -60 1q-106 2 -161 68q-47 57 -47 150q0 102 57 161q51 53 133 53q86 0 134 -54q41 -46 41 -119v-169h102v-96
h-103zM330 96v165q0 47 -19.5 68.5t-61.5 21.5q-49 0 -74 -38q-21 -33 -21 -86q0 -67 37 -102q31 -29 79 -29h60z" />
    <glyph glyph-name="uniFBE4" unicode="&#x6d0;" horiz-adv-x="715" arabic-form="isolated" 
d="M601 344h-108q-42 0 -65 -18t-23 -51q0 -39 23 -61t92 -49t96 -51q45 -40 45 -108q0 -94 -87 -151q-81 -53 -215 -53q-151 0 -229 79q-66 68 -66 179q0 91 49 164l79 -31q-33 -63 -33 -124q0 -80 55 -127q53 -45 145 -45t153 37q50 31 50 70q0 35 -44 60q-10 5 -70 30
q-65 28 -95 59q-44 47 -44 121q0 80 55 125q46 37 113 37h124v-92zM415 -321q0 -22 -16 -38t-38 -16q-23 0 -39 16t-16 38t16 37.5t39 15.5q22 0 38 -15.5t16 -37.5zM415 -441q0 -22 -16 -38t-38 -16q-23 0 -39 16t-16 38t16 37.5t39 15.5q22 0 38 -15.5t16 -37.5z" />
    <glyph glyph-name="uniFBE5" unicode="&#x6d0;" horiz-adv-x="687" arabic-form="final" 
d="M668 0q-4 -99 -95 -153q-82 -48 -214 -48q-150 0 -229 81q-66 68 -66 180q0 91 49 164l80 -31q-34 -64 -34 -125q0 -82 58 -132q55 -47 150 -47q87 0 144 31q56 30 60 80h-94v96h220v-96h-29zM415 -317q0 -22 -16 -38t-38 -16q-23 0 -39 16t-16 38t16 38t39 16
q22 0 38 -16t16 -38zM415 -437q0 -22 -16 -37.5t-38 -15.5q-23 0 -39 15.5t-16 37.5t16 38t39 16q22 0 38 -16t16 -38z" />
    <glyph glyph-name="uniFBE6" unicode="&#x6d0;" horiz-adv-x="301" arabic-form="initial" 
d="M-10 0v96h23q105 0 105 125v205h99v-223q0 -108 -60 -160q-50 -43 -135 -43h-32zM111 -302q-22 0 -38 15.5t-16 37.5q0 23 15.5 38.5t38.5 15.5t38.5 -15.5t15.5 -38.5q0 -22 -16 -37.5t-38 -15.5zM111 -183q-23 0 -38.5 15.5t-15.5 38.5t15.5 38.5t38.5 15.5t38.5 -15.5
t15.5 -38.5t-15.5 -38.5t-38.5 -15.5z" />
    <glyph glyph-name="uniFBE7" unicode="&#x6d0;" horiz-adv-x="336" arabic-form="medial" 
d="M-10 0v96h23q105 0 105 125v205h99v-205q0 -125 105 -125h24v-96h-32q-98 0 -146 63q-48 -63 -146 -63h-32zM161 -302q-22 0 -38 15.5t-16 37.5q0 23 15.5 38.5t38.5 15.5t38.5 -15.5t15.5 -38.5q0 -22 -16 -37.5t-38 -15.5zM161 -183q-23 0 -38.5 15.5t-15.5 38.5
t15.5 38.5t38.5 15.5t38.5 -15.5t15.5 -38.5t-15.5 -38.5t-38.5 -15.5z" />
    <glyph glyph-name="uniFBE8" unicode="&#x649;" horiz-adv-x="301" arabic-form="initial" 
d="M22 0h-32v96h23q105 0 105 125v205h99v-223q0 -108 -60 -160q-50 -43 -135 -43z" />
    <glyph glyph-name="uniFBE9" unicode="&#x649;" horiz-adv-x="336" arabic-form="medial" 
d="M22 0h-32v96h23q105 0 105 125v205h99v-205q0 -125 105 -125h24v-96h-32q-98 0 -146 63q-48 -63 -146 -63z" />
    <glyph glyph-name="uniFBFC" unicode="&#x6cc;" horiz-adv-x="715" arabic-form="isolated" 
d="M601 344h-108q-42 0 -65 -18t-23 -51q0 -39 23 -61t92 -49t96 -51q45 -40 45 -108q0 -94 -87 -151q-81 -53 -215 -53q-151 0 -229 79q-66 68 -66 179q0 91 49 164l79 -31q-33 -63 -33 -124q0 -80 55 -127q53 -45 145 -45t153 37q50 31 50 70q0 35 -44 60q-10 5 -70 30
q-65 28 -95 59q-44 47 -44 121q0 80 55 125q46 37 113 37h124v-92z" />
    <glyph glyph-name="uniFBFD" unicode="&#x6cc;" horiz-adv-x="687" arabic-form="final" 
d="M668 0q-4 -99 -95 -153q-82 -48 -214 -48q-150 0 -229 81q-66 68 -66 180q0 91 49 164l80 -31q-34 -64 -34 -125q0 -82 58 -132q55 -47 150 -47q87 0 144 31q56 30 60 80h-94v96h220v-96h-29z" />
    <glyph glyph-name="uniFBFE" unicode="&#x6cc;" horiz-adv-x="301" arabic-form="initial" 
d="M-10 0v96h23q105 0 105 125v205h99v-223q0 -108 -60 -160q-50 -43 -135 -43h-32zM38 -189q-23 0 -40.5 17t-17.5 40t17.5 40t40.5 17t40.5 -17t17.5 -40t-17.5 -40t-40.5 -17zM170 -189q-23 0 -40.5 17t-17.5 40t17.5 40t40.5 17q24 0 41 -17t17 -40t-17 -40t-41 -17z
" />
    <glyph glyph-name="uniFBFF" unicode="&#x6cc;" horiz-adv-x="336" arabic-form="medial" 
d="M-10 0v96h23q105 0 105 125v205h99v-205q0 -125 105 -125h24v-96h-32q-98 0 -146 63q-48 -63 -146 -63h-32zM82 -189q-23 0 -40.5 17t-17.5 40t17.5 40t40.5 17t40.5 -17t17.5 -40t-17.5 -40t-40.5 -17zM214 -189q-23 0 -40.5 17t-17.5 40t17.5 40t40.5 17q24 0 41 -17
t17 -40t-17 -40t-41 -17z" />
    <glyph glyph-name="uniFCF3" unicode="&#xfcf3;" horiz-adv-x="128" arabic-form="medial" 
d="M99 722l-140 -25l-9 49l108 20q-19 22 -19 50q0 30 19.5 50.5t47.5 20.5q30 0 49 -20.5t19 -53.5q0 -34 -21 -60t-54 -31zM109 777q20 10 20 37t-22 27q-21 0 -21 -26t23 -38zM64 541q-19 -16 -46 -16q-29 0 -48 17t-19 43v79h48v-71q0 -20 20 -20q21 0 21 20v52h48v-52
q0 -20 20 -20q21 0 21 20v71h47v-79q0 -26 -18.5 -43t-47.5 -17q-30 0 -46 16zM138 0h-148v96h148v-96z" />
    <glyph glyph-name="uniFCF4" unicode="&#xfcf4;" horiz-adv-x="128" arabic-form="medial" 
d="M61 671q-20 -16 -47 -16q-29 0 -47.5 17t-18.5 43v79h48v-72q0 -20 19 -20q21 0 21 20v53h48v-53q0 -20 20 -20q21 0 21 20v72h48v-79q0 -26 -19 -43t-48 -17q-30 0 -45 16zM169 557l-194 -35l-12 61l195 35zM138 0h-148v96h148v-96z" />
    <glyph glyph-name="uniFD3C" unicode="&#xfd3c;" horiz-adv-x="305" arabic-form="final" 
d="M228 804l-188 -33l-9 53l188 33zM236 712l-188 -34l-9 53l188 34zM315 0h-40q-99 0 -148 53q-43 47 -43 133v425h99v-397q0 -66 22 -91q24 -27 84 -27h26v-96z" />
    <glyph glyph-name="uniFD3D" unicode="&#xfd3d;" horiz-adv-x="268" arabic-form="isolated" 
d="M228 804l-188 -33l-9 53l188 33zM236 712l-188 -34l-9 53l188 34zM184 0h-100v611h100v-611z" />
    <glyph glyph-name="uniFE71" unicode="&#xfe71;" horiz-adv-x="128" arabic-form="medial" 
d="M158 649l-188 -34l-9 53l188 34zM166 557l-188 -35l-9 53l188 35zM138 0h-148v96h148v-96z" />
    <glyph glyph-name="uniFE72" unicode="&#xfe72;" horiz-adv-x="297" arabic-form="isolated" 
d="M163 738q-22 20 -22 48q0 32 19.5 52.5t48.5 20.5q30 0 49.5 -20.5t19.5 -52.5q0 -50 -36 -78q-29 -22 -70 -22q-53 0 -87 35l-22 -33l-44 31l41 65h28q28 -46 75 -46zM212 747q9 4 15.5 14.5t6.5 23.5t-6.5 21t-17.5 8q-22 0 -22 -28q0 -29 24 -39z" />
    <glyph glyph-name="uniFE74" unicode="&#xfe74;" horiz-adv-x="325" arabic-form="isolated" 
d="M167 -145l-188 -34l-10 53l188 34zM175 -237l-188 -34l-10 52l188 35z" />
    <glyph glyph-name="uniFE76" unicode="&#xfe76;" horiz-adv-x="244" arabic-form="isolated" 
d="M225 720l-195 -34l-11 60l195 35z" />
    <glyph glyph-name="uniFE77" unicode="&#xfe77;" horiz-adv-x="128" arabic-form="medial" 
d="M169 557l-194 -35l-12 61l195 35zM138 0h-148v96h148v-96z" />
    <glyph glyph-name="uniFE78" unicode="&#xfe78;" horiz-adv-x="262" arabic-form="isolated" 
d="M168 711l-140 -25l-9 49l108 20q-19 22 -19 50q0 30 19 50.5t48 20.5q30 0 49 -20.5t19 -52.5q0 -35 -21 -61t-54 -31zM178 767q20 8 20 36q0 27 -22 27q-21 0 -21 -26q0 -27 23 -37z" />
    <glyph glyph-name="uniFE79" unicode="&#xfe79;" horiz-adv-x="128" arabic-form="medial" 
d="M100 547l-140 -25l-8 50l108 19q-19 22 -19 51t19 49.5t47 20.5q31 0 50 -20t19 -53q0 -35 -21 -60.5t-55 -31.5zM110 603q21 10 21 36q0 27 -22 27q-21 0 -21 -26q0 -25 22 -37zM138 0h-148v96h148v-96z" />
    <glyph glyph-name="uniFE7A" unicode="&#xfe7a;" horiz-adv-x="244" arabic-form="isolated" 
d="M225 -156l-195 -35l-11 64l195 35z" />
    <glyph glyph-name="uniFE7B" unicode="&#xfe7b;" horiz-adv-x="128" arabic-form="medial" 
d="M138 0h-148v96h148v-96zM169 -156l-194 -35l-12 64l195 35z" />
    <glyph glyph-name="uniFE7C" unicode="&#xfe7c;" horiz-adv-x="263" arabic-form="isolated" 
d="M132 705q-19 -16 -47 -16q-29 0 -47.5 17t-18.5 43v79h48v-71q0 -21 20 -21q21 0 21 21v52h48v-52q0 -21 20 -21q21 0 21 21v71h47v-79q0 -26 -18.5 -43t-47.5 -17q-30 0 -46 16z" />
    <glyph glyph-name="uniFE7D" unicode="&#xfe7d;" horiz-adv-x="128" arabic-form="medial" 
d="M64 541q-19 -16 -46 -16q-29 0 -48 17t-19 43v79h48v-71q0 -20 20 -20q21 0 21 20v52h48v-52q0 -20 20 -20q21 0 21 20v71h47v-79q0 -26 -18.5 -43t-47.5 -17q-30 0 -46 16zM138 0h-148v96h148v-96z" />
    <glyph glyph-name="uniFE7E" unicode="&#xfe7e;" horiz-adv-x="179" arabic-form="isolated" 
d="M90 843q30 -7 50 -32.5t20 -56.5q-1 -32 -19.5 -50t-50.5 -18q-33 0 -52 17.5t-19 48.5q0 32 20 57.5t51 33.5zM90 800q-11 -3 -18 -15t-7 -26q0 -29 24 -29t24 28q0 15 -6.5 27t-16.5 15z" />
    <glyph glyph-name="uniFE7F" unicode="&#xfe7f;" horiz-adv-x="128" arabic-form="medial" 
d="M64 680q31 -8 50.5 -33t19.5 -57q0 -31 -19 -49.5t-51 -18.5q-33 0 -52 17.5t-19 48.5q0 32 20 57.5t51 34.5zM64 637q-11 -4 -18 -16t-7 -26q0 -29 24 -29q25 0 25 29q0 14 -7 26t-17 16zM138 0h-148v96h148v-96z" />
    <glyph glyph-name="uniFE80" unicode="&#x621;" horiz-adv-x="516" arabic-form="isolated" 
d="M439 1q-44 12 -94 12q-76 0 -147 -25q-61 -22 -100 -57l-64 70q42 36 88 58q-47 66 -47 152q0 89 56 147q52 53 130 53q96 0 159 -84l-46 -53q-49 48 -104 48q-50 0 -76 -37q-21 -30 -21 -75q0 -64 40 -119q59 15 125 15q69 0 133 -16z" />
    <glyph glyph-name="uniFE81" unicode="&#x622;" horiz-adv-x="292" arabic-form="isolated" 
d="M259 738q-10 -29 -29.5 -45t-43.5 -16q-25 0 -56 18q-17 10 -28 10q-22 0 -40 -24l-31 26q25 56 70 56q18 0 45 -17q21 -14 40 -14q20 0 35 29zM194 0h-100v611h100v-611z" />
    <glyph glyph-name="uniFE82" unicode="&#x622;" horiz-adv-x="311" arabic-form="final" 
d="M256 738q-10 -29 -29.5 -45t-43.5 -16q-25 0 -56 18q-17 10 -28 10q-22 0 -40 -24l-31 26q25 56 70 56q18 0 45 -17q21 -14 40 -14q20 0 35 29zM321 0h-39q-100 0 -148 53q-44 47 -44 133v425h100v-397q0 -67 22 -91q23 -27 83 -27h26v-96z" />
    <glyph glyph-name="uniFE83" unicode="&#x623;" horiz-adv-x="268" arabic-form="isolated" 
d="M225 681h-182v48h38q-10 20 -10 36q0 31 21.5 51t54.5 20q36 0 59 -25l-17 -34q-16 12 -35 12q-31 0 -31 -29q0 -15 12 -31h90v-48zM184 0h-100v613h100v-613z" />
    <glyph glyph-name="uniFE84" unicode="&#x623;" horiz-adv-x="305" arabic-form="final" 
d="M225 681h-182v48h38q-10 20 -10 36q0 31 21.5 51t54.5 20q36 0 59 -25l-17 -34q-16 12 -35 12q-31 0 -31 -29q0 -15 12 -31h90v-48zM315 0h-40q-99 0 -148 53q-43 47 -43 133v427h99v-399q0 -66 22 -91q24 -27 84 -27h26v-96z" />
    <glyph glyph-name="uniFE85" unicode="&#x624;" horiz-adv-x="500" arabic-form="isolated" 
d="M339 526h-182v49h38q-10 18 -10 35q0 31 21.5 51t54.5 20q36 0 60 -25l-18 -34q-16 12 -35 12q-31 0 -31 -28q0 -16 12 -31h90v-49zM330 30q-35 -18 -75 -18q-100 0 -151 66q-43 55 -43 146q0 102 57 161q51 53 133 53q86 0 134 -54q41 -46 41 -119v-248q0 -108 -62 -164
q-50 -45 -129 -45q-71 0 -140 39l25 78q54 -27 98 -27q54 0 83 33q27 31 28 87q0 2 1 6v6zM330 119v142q0 47 -19.5 68.5t-61.5 21.5q-49 0 -74 -38q-21 -33 -21 -86q0 -66 36 -101q29 -28 73 -28q34 0 67 21z" />
    <glyph glyph-name="uniFE86" unicode="&#x624;" horiz-adv-x="518" arabic-form="final" 
d="M339 526h-182v49h38q-10 18 -10 35q0 31 21.5 51t54.5 20q36 0 60 -25l-18 -34q-16 12 -35 12q-31 0 -31 -28q0 -16 12 -31h90v-49zM425 0q-4 -99 -65 -150q-50 -42 -125 -42q-71 0 -140 39l25 78q54 -27 98 -27q102 0 111 107q-40 0 -60 1q-106 2 -161 68
q-47 57 -47 150q0 102 57 161q51 53 133 53q86 0 134 -54q41 -46 41 -119v-169h102v-96h-103zM330 96v165q0 47 -19.5 68.5t-61.5 21.5q-49 0 -74 -38q-21 -33 -21 -86q0 -67 37 -102q31 -29 79 -29h60z" />
    <glyph glyph-name="uniFE87" unicode="&#x625;" horiz-adv-x="280" arabic-form="isolated" 
d="M190 0h-100v666h100v-666zM232 -248h-182v48h39q-10 17 -10 36q0 31 21.5 51t54.5 20q36 0 59 -25l-17 -34q-18 12 -36 12q-31 0 -31 -29q0 -15 12 -31h90v-48z" />
    <glyph glyph-name="uniFE88" unicode="&#x625;" horiz-adv-x="305" arabic-form="final" 
d="M315 0h-40q-99 0 -148 53q-43 47 -43 133v480h99v-452q0 -66 22 -91q24 -27 84 -27h26v-96zM264 -248h-182v48h38q-10 20 -10 36q0 31 21.5 51t54.5 20q35 0 60 -25l-18 -34q-18 12 -35 12q-31 0 -31 -29q0 -16 12 -31h90v-48z" />
    <glyph glyph-name="uniFE89" unicode="&#x626;" horiz-adv-x="715" arabic-form="isolated" 
d="M232 344h-182v49h38q-10 16 -10 35q0 31 21.5 51t54.5 20q37 0 59 -25l-17 -34q-16 12 -36 12q-30 0 -30 -28q0 -16 12 -31h90v-49zM601 344h-108q-42 0 -65 -18t-23 -51q0 -39 23 -61t92 -49t96 -51q45 -40 45 -108q0 -94 -87 -151q-81 -53 -215 -53q-151 0 -229 79
q-66 68 -66 179q0 91 49 164l79 -31q-33 -63 -33 -124q0 -80 55 -127q53 -45 145 -45t153 37q50 31 50 70q0 35 -44 60q-10 5 -70 30q-65 28 -95 59q-44 47 -44 121q0 80 55 125q46 37 113 37h124v-92z" />
    <glyph glyph-name="uniFE8A" unicode="&#x626;" horiz-adv-x="687" arabic-form="final" 
d="M274 323h-182v49h39q-10 17 -10 35q0 31 21.5 51t54.5 20q37 0 59 -25l-17 -34q-16 12 -36 12q-31 0 -31 -28q0 -15 13 -31h89v-49zM668 0q-4 -99 -95 -153q-82 -48 -214 -48q-150 0 -229 81q-66 68 -66 180q0 91 49 164l80 -31q-34 -64 -34 -125q0 -82 58 -132
q55 -47 150 -47q87 0 144 31q56 30 60 80h-94v96h220v-96h-29z" />
    <glyph glyph-name="uniFE8B" unicode="&#x626;" horiz-adv-x="301" arabic-form="initial" 
d="M255 525h-182v48h39q-10 17 -10 36q0 31 21.5 51t54.5 20q36 0 59 -25l-17 -34q-18 12 -36 12q-31 0 -31 -29q0 -14 13 -31h89v-48zM22 0h-32v96h23q105 0 105 125v205h99v-223q0 -108 -60 -160q-50 -43 -135 -43z" />
    <glyph glyph-name="uniFE8C" unicode="&#x626;" horiz-adv-x="336" arabic-form="medial" 
d="M259 525h-182v48h39q-10 17 -10 36q0 31 21.5 51t54.5 20q34 0 59 -25l-17 -34q-18 12 -36 12q-31 0 -31 -29q0 -13 12 -31h90v-48zM22 0h-32v96h23q105 0 105 125v205h99v-205q0 -125 105 -125h24v-96h-32q-98 0 -146 63q-48 -63 -146 -63z" />
    <glyph glyph-name="uniFE8D" unicode="&#x627;" horiz-adv-x="268" arabic-form="isolated" 
d="M184 0h-100v666h100v-666z" />
    <glyph glyph-name="uniFE8E" unicode="&#x627;" horiz-adv-x="305" arabic-form="final" 
d="M315 0h-40q-99 0 -148 53q-43 47 -43 133v480h99v-452q0 -66 22 -91q24 -27 84 -27h26v-96z" />
    <glyph glyph-name="uniFE8F" unicode="&#x628;" horiz-adv-x="880" arabic-form="isolated" 
d="M596 0h-286q-121 0 -185 76q-48 57 -48 141q0 66 36 118q34 50 92 74l44 -67q-38 -18 -59.5 -50t-21.5 -70q0 -55 41 -92q39 -34 98 -34h270q67 0 96 36q24 30 24 89v205h99v-223q0 -203 -200 -203zM495 -132q0 -23 -17.5 -40t-40.5 -17t-40.5 17t-17.5 40t17.5 40
t40.5 17t40.5 -17t17.5 -40z" />
    <glyph glyph-name="uniFE90" unicode="&#x628;" horiz-adv-x="915" arabic-form="final" 
d="M596 0h-286q-121 0 -185 76q-48 57 -48 141q0 66 36 118q34 50 92 74l44 -67q-38 -18 -59.5 -50t-21.5 -70q0 -55 41 -92q39 -34 98 -34h270q67 0 96 36q24 30 24 89v205h99v-205q0 -125 105 -125h24v-96h-32q-97 0 -145 63q-49 -63 -152 -63zM492 -132q0 -23 -17 -40
t-41 -17q-23 0 -40.5 17t-17.5 40t17.5 40t40.5 17q24 0 41 -17t17 -40z" />
    <glyph glyph-name="uniFE91" unicode="&#x628;" horiz-adv-x="301" arabic-form="initial" 
d="M-10 0v96h23q105 0 105 125v205h99v-223q0 -108 -60 -160q-50 -43 -135 -43h-32zM105 -189q-23 0 -40.5 17t-17.5 40t17.5 40t40.5 17t40.5 -17t17.5 -40t-17.5 -40t-40.5 -17z" />
    <glyph glyph-name="uniFE92" unicode="&#x628;" horiz-adv-x="336" arabic-form="medial" 
d="M-10 0v96h23q105 0 105 125v205h99v-205q0 -125 105 -125h24v-96h-32q-98 0 -146 63q-48 -63 -146 -63h-32zM167 -189q-23 0 -40.5 17t-17.5 40t17.5 40t40.5 17t40.5 -17t17.5 -40t-17.5 -40t-40.5 -17z" />
    <glyph glyph-name="uniFE93" unicode="&#x629;" horiz-adv-x="510" arabic-form="isolated" 
d="M241 565q0 -23 -17.5 -40t-40.5 -17t-40.5 17t-17.5 40t17.5 40t40.5 17t40.5 -17t17.5 -40zM374 565q0 -24 -17.5 -40.5t-41.5 -16.5q-23 0 -40 17t-17 40t17 40t40 17q24 0 41.5 -16.5t17.5 -40.5zM266 -12h-22q-87 0 -134 69q-42 60 -42 160q0 110 58 171
q50 52 129 52q92 0 143 -68q44 -59 44 -155q0 -114 -54 -176q-47 -53 -122 -53zM160 216q0 -67 26 -102q23 -29 61 -29h16q44 0 67 38q20 34 20 93q0 67 -28 100q-24 30 -67 30q-49 0 -73 -38q-22 -34 -22 -92z" />
    <glyph glyph-name="uniFE94" unicode="&#x629;" horiz-adv-x="540" arabic-form="final" 
d="M230 605q0 -23 -17.5 -40t-41.5 -17q-23 0 -40 17t-17 40t17 40t40 17q24 0 41.5 -17t17.5 -40zM362 605q0 -23 -17 -40t-41 -17q-23 0 -40.5 17t-17.5 40t17.5 40t40.5 17q24 0 41 -17t17 -40zM550 0h-31q-110 0 -158 76q-51 -51 -125 -51q-81 0 -131 60q-47 57 -47 147
q0 104 66 164q57 51 146 51h59v45h93v-271q0 -125 105 -125h23v-96zM329 358h-56q-62 0 -93 -37q-26 -31 -26 -84q0 -59 27 -91q24 -29 64 -29q45 0 88 38q-4 20 -4 48v155z" />
    <glyph glyph-name="uniFE95" unicode="&#x62a;" horiz-adv-x="880" arabic-form="isolated" 
d="M447 477q0 -23 -17.5 -40t-40.5 -17t-40.5 17t-17.5 40t17.5 40t40.5 17t40.5 -17t17.5 -40zM580 477q0 -23 -17 -40t-41 -17q-23 0 -40.5 17t-17.5 40t17.5 40t40.5 17q24 0 41 -16.5t17 -40.5zM596 0h-286q-121 0 -185 76q-48 57 -48 141q0 66 36 118q34 50 92 74
l44 -67q-38 -18 -59.5 -50t-21.5 -70q0 -55 41 -92q39 -34 98 -34h270q67 0 96 36q24 30 24 89v205h99v-223q0 -203 -200 -203z" />
    <glyph glyph-name="uniFE96" unicode="&#x62a;" horiz-adv-x="915" arabic-form="final" 
d="M447 477q0 -23 -17.5 -40t-40.5 -17t-40.5 17t-17.5 40t17.5 40t40.5 17t40.5 -17t17.5 -40zM580 477q0 -23 -17 -40t-41 -17q-23 0 -40.5 17t-17.5 40t17.5 40t40.5 17q24 0 41 -16.5t17 -40.5zM596 0h-286q-121 0 -185 76q-48 57 -48 141q0 66 36 118q34 50 92 74
l44 -67q-38 -18 -59.5 -50t-21.5 -70q0 -55 41 -92q39 -34 98 -34h270q67 0 96 36q24 30 24 89v205h99v-205q0 -125 105 -125h24v-96h-32q-97 0 -145 63q-49 -63 -152 -63z" />
    <glyph glyph-name="uniFE97" unicode="&#x62a;" horiz-adv-x="301" arabic-form="initial" 
d="M156 564q0 -23 -17 -40t-41 -17q-23 0 -40.5 17t-17.5 40t17.5 40t40.5 17q24 0 41 -17t17 -40zM289 564q0 -23 -17 -40t-41 -17q-23 0 -40.5 17t-17.5 40t17.5 40t40.5 17q24 0 41 -17t17 -40zM22 0h-32v96h23q105 0 105 125v205h99v-223q0 -108 -60 -160
q-50 -43 -135 -43z" />
    <glyph glyph-name="uniFE98" unicode="&#x62a;" horiz-adv-x="336" arabic-form="medial" 
d="M160 564q0 -23 -17.5 -40t-40.5 -17t-40.5 17t-17.5 40t17.5 40t40.5 17t40.5 -17t17.5 -40zM293 564q0 -23 -17 -40t-41 -17q-23 0 -40.5 17t-17.5 40t17.5 40t40.5 17q24 0 41 -17t17 -40zM22 0h-32v96h23q105 0 105 125v205h99v-205q0 -125 105 -125h24v-96h-32
q-98 0 -146 63q-48 -63 -146 -63z" />
    <glyph glyph-name="uniFE99" unicode="&#x62b;" horiz-adv-x="880" arabic-form="isolated" 
d="M509 591q0 -21 -16 -36.5t-37 -15.5q-22 0 -37.5 15.5t-15.5 36.5t15.5 36.5t37.5 15.5q21 0 37 -15.5t16 -36.5zM447 477q0 -23 -17.5 -40t-40.5 -17t-40.5 17t-17.5 40t17.5 40t40.5 17t40.5 -17t17.5 -40zM580 477q0 -23 -17.5 -40t-40.5 -17t-40.5 17t-17.5 40
t17.5 40t40.5 17t40.5 -17t17.5 -40zM596 0h-286q-121 0 -185 76q-48 57 -48 141q0 66 36 118q34 50 92 74l44 -67q-38 -18 -59.5 -50t-21.5 -70q0 -55 41 -92q39 -34 98 -34h270q67 0 96 36q24 30 24 89v205h99v-223q0 -203 -200 -203z" />
    <glyph glyph-name="uniFE9A" unicode="&#x62b;" horiz-adv-x="915" arabic-form="final" 
d="M509 591q0 -21 -16 -36.5t-37 -15.5q-22 0 -37.5 15.5t-15.5 36.5t15.5 36.5t37.5 15.5q21 0 37 -15.5t16 -36.5zM447 477q0 -23 -17.5 -40t-40.5 -17t-40.5 17t-17.5 40t17.5 40t40.5 17t40.5 -17t17.5 -40zM580 477q0 -23 -17.5 -40t-40.5 -17t-40.5 17t-17.5 40
t17.5 40t40.5 17t40.5 -17t17.5 -40zM596 0h-286q-121 0 -185 76q-48 57 -48 141q0 66 36 118q34 50 92 74l44 -67q-38 -18 -59.5 -50t-21.5 -70q0 -55 41 -92q39 -34 98 -34h270q67 0 96 36q24 30 24 89v205h99v-205q0 -125 105 -125h24v-96h-32q-97 0 -145 63
q-49 -63 -152 -63z" />
    <glyph glyph-name="uniFE9B" unicode="&#x62b;" horiz-adv-x="301" arabic-form="initial" 
d="M218 677q0 -21 -16 -36.5t-37 -15.5q-22 0 -37.5 15.5t-15.5 36.5q0 22 15.5 37t37.5 15t37.5 -15.5t15.5 -36.5zM156 564q0 -23 -17 -40t-41 -17q-23 0 -40.5 17t-17.5 40t17.5 40t40.5 17q24 0 41 -17t17 -40zM289 564q0 -23 -17.5 -40t-40.5 -17t-40.5 17t-17.5 40
t17.5 40t40.5 17t40.5 -17t17.5 -40zM22 0h-32v96h23q105 0 105 125v205h99v-223q0 -108 -60 -160q-50 -43 -135 -43z" />
    <glyph glyph-name="uniFE9C" unicode="&#x62b;" horiz-adv-x="336" arabic-form="medial" 
d="M222 677q0 -21 -16 -36.5t-37 -15.5q-22 0 -37.5 15.5t-15.5 36.5q0 22 15.5 37t37.5 15t37.5 -15.5t15.5 -36.5zM160 564q0 -23 -17.5 -40t-40.5 -17t-40.5 17t-17.5 40t17.5 40t40.5 17t40.5 -17t17.5 -40zM293 564q0 -23 -17.5 -40t-40.5 -17t-40.5 17t-17.5 40
t17.5 40t40.5 17t40.5 -17t17.5 -40zM22 0h-32v96h23q105 0 105 125v205h99v-205q0 -125 105 -125h24v-96h-32q-98 0 -146 63q-48 -63 -146 -63z" />
    <glyph glyph-name="uniFE9D" unicode="&#x62c;" horiz-adv-x="591" arabic-form="isolated" 
d="M510 -306q-86 -61 -192 -61q-117 0 -189 76q-68 71 -68 186q0 149 118 237q102 76 275 91q-77 109 -167 109q-71 0 -141 -66l-53 60q84 99 200 99q87 0 161 -61q67 -56 107 -151v-70q-203 -6 -309 -77q-94 -64 -94 -171q0 -84 59 -130q47 -38 114 -38q74 0 138 40z
M381 -104q0 -21 -15.5 -36.5t-37.5 -15.5t-38 15.5t-16 36.5q0 22 16 37.5t38 15.5t37.5 -15.5t15.5 -37.5z" />
    <glyph glyph-name="uniFE9E" unicode="&#x62c;" horiz-adv-x="686" arabic-form="final" 
d="M510 -306q-86 -61 -192 -61q-117 0 -189 76q-68 71 -68 186q0 149 118 237q102 76 275 91q-77 109 -167 109q-71 0 -141 -66l-53 60q84 99 200 99q87 0 161 -61q67 -56 107 -151v-39q-46 -8 -68 -14q23 -34 63 -49t111 -15h29v-96h-33q-110 0 -172 33q-54 30 -83 93
q-128 -25 -193 -90q-57 -58 -57 -141q0 -84 59 -130q47 -38 114 -38q74 0 138 40zM381 -104q0 -21 -15.5 -36.5t-37.5 -15.5t-38 15.5t-16 36.5q0 22 16 37.5t38 15.5t37.5 -15.5t15.5 -37.5z" />
    <glyph glyph-name="uniFE9F" unicode="&#x62c;" horiz-adv-x="560" arabic-form="initial" 
d="M128 0h-138v96h132q110 0 179 32q56 26 114 87q-80 117 -173 117q-71 0 -141 -66l-53 60q84 99 201 99q86 0 160 -61q67 -56 107 -151v-26q-83 -110 -175 -150q-84 -37 -213 -37zM308 -132q0 -23 -17.5 -40t-40.5 -17t-40.5 17t-17.5 40t17.5 40t40.5 17t40.5 -17
t17.5 -40z" />
    <glyph glyph-name="uniFEA0" unicode="&#x62c;" horiz-adv-x="671" arabic-form="medial" 
d="M128 0h-138v96h132q110 0 179 32q56 26 114 87q-80 117 -173 117q-71 0 -141 -66l-53 60q84 99 201 99q86 0 160 -61q67 -56 107 -151v-22q-4 -6 -14 -19l-15 -21q22 -29 61 -42t104 -13h29v-96h-33q-93 0 -150 23q-52 21 -83 63q-57 -45 -125.5 -65.5t-161.5 -20.5z
M337 -132q0 -23 -17.5 -40t-41.5 -17q-23 0 -40 17t-17 40t17 40t40 17q24 0 41.5 -17t17.5 -40z" />
    <glyph glyph-name="uniFEA1" unicode="&#x62d;" horiz-adv-x="591" arabic-form="isolated" 
d="M510 -306q-86 -61 -192 -61q-117 0 -189 76q-68 71 -68 186q0 149 118 237q102 76 275 91q-77 109 -167 109q-71 0 -141 -66l-53 60q84 99 200 99q87 0 161 -61q67 -56 107 -151v-70q-203 -6 -309 -77q-94 -64 -94 -171q0 -84 59 -130q47 -38 114 -38q74 0 138 40z" />
    <glyph glyph-name="uniFEA2" unicode="&#x62d;" horiz-adv-x="686" arabic-form="final" 
d="M510 -306q-86 -61 -192 -61q-117 0 -189 76q-68 71 -68 186q0 149 118 237q102 76 275 91q-77 109 -167 109q-71 0 -141 -66l-53 60q84 99 200 99q87 0 161 -61q67 -56 107 -151v-41q-37 -5 -68 -12q23 -34 63.5 -49t110.5 -15h29v-96h-33q-110 0 -172 33q-54 30 -83 93
q-128 -25 -193 -90q-57 -58 -57 -141q0 -84 59 -130q47 -38 114 -38q74 0 138 40z" />
    <glyph glyph-name="uniFEA3" unicode="&#x62d;" horiz-adv-x="560" arabic-form="initial" 
d="M128 0h-138v96h132q110 0 179 32q56 26 114 87q-80 117 -173 117q-71 0 -141 -66l-53 60q84 99 201 99q86 0 160 -61q67 -56 107 -151v-26q-83 -110 -175 -150q-84 -37 -213 -37z" />
    <glyph glyph-name="uniFEA4" unicode="&#x62d;" horiz-adv-x="671" arabic-form="medial" 
d="M128 0h-138v96h132q110 0 179 32q56 26 114 87q-80 117 -173 117q-71 0 -141 -66l-53 60q84 99 201 99q86 0 160 -61q67 -56 107 -151v-22q-4 -6 -14 -19l-15 -21q22 -29 61 -42t104 -13h29v-96h-33q-93 0 -150 23q-52 21 -83 63q-57 -45 -125.5 -65.5t-161.5 -20.5z" />
    <glyph glyph-name="uniFEA5" unicode="&#x62e;" horiz-adv-x="591" arabic-form="isolated" 
d="M350 562q0 -23 -17 -40t-41 -17q-23 0 -40.5 17t-17.5 40t17.5 40t40.5 17q24 0 41 -17t17 -40zM510 -306q-86 -61 -192 -61q-117 0 -189 76q-68 71 -68 186q0 149 118 237q102 76 275 91q-77 109 -167 109q-71 0 -141 -66l-53 60q84 99 200 99q87 0 161 -61
q67 -56 107 -151v-70q-203 -6 -309 -77q-94 -64 -94 -171q0 -84 59 -130q47 -38 114 -38q74 0 138 40z" />
    <glyph glyph-name="uniFEA6" unicode="&#x62e;" horiz-adv-x="686" arabic-form="final" 
d="M351 562q0 -23 -17.5 -40t-40.5 -17t-40.5 17t-17.5 40t17.5 40t40.5 17t40.5 -17t17.5 -40zM510 -306q-86 -61 -192 -61q-117 0 -189 76q-68 71 -68 186q0 149 118 237q102 76 275 91q-77 109 -167 109q-71 0 -141 -66l-53 60q84 99 200 99q87 0 161 -61
q67 -56 107 -151v-41q-37 -5 -68 -12q23 -34 63.5 -49t110.5 -15h29v-96h-33q-110 0 -172 33q-54 30 -83 93q-128 -25 -193 -90q-57 -58 -57 -141q0 -84 59 -130q47 -38 114 -38q74 0 138 40z" />
    <glyph glyph-name="uniFEA7" unicode="&#x62e;" horiz-adv-x="560" arabic-form="initial" 
d="M309 562q0 -23 -17.5 -40t-40.5 -17t-40.5 17t-17.5 40t17.5 40t40.5 17t40.5 -17t17.5 -40zM128 0h-138v96h132q110 0 179 32q56 26 114 87q-80 117 -173 117q-71 0 -141 -66l-53 60q84 99 201 99q86 0 160 -61q67 -56 107 -151v-26q-83 -110 -175 -150
q-84 -37 -213 -37z" />
    <glyph glyph-name="uniFEA8" unicode="&#x62e;" horiz-adv-x="671" arabic-form="medial" 
d="M311 562q0 -23 -17.5 -40t-40.5 -17t-40.5 17t-17.5 40t17.5 40t40.5 17t40.5 -17t17.5 -40zM128 0h-138v96h132q110 0 179 32q56 26 114 87q-80 117 -173 117q-71 0 -141 -66l-53 60q84 99 201 99q86 0 160 -61q67 -56 107 -151v-22q-4 -6 -14 -19l-15 -21
q22 -29 61 -42t104 -13h29v-96h-33q-93 0 -150 23q-52 21 -83 63q-57 -45 -125.5 -65.5t-161.5 -20.5z" />
    <glyph glyph-name="uniFEA9" unicode="&#x62f;" horiz-adv-x="466" arabic-form="isolated" 
d="M223 0h-203v96h180q92 0 92 78q0 47 -32 97t-87 89l58 77q80 -57 122 -131q38 -65 38 -133q0 -173 -168 -173z" />
    <glyph glyph-name="uniFEAA" unicode="&#x62f;" horiz-adv-x="506" arabic-form="final" 
d="M223 0h-203v96h180q92 0 92 78q0 47 -32 97t-87 89l58 77q77 -54 119 -124q37 -62 40 -127q2 -47 34 -70q27 -20 69 -20h23v-96h-32q-83 0 -132 49q-42 -49 -129 -49z" />
    <glyph glyph-name="uniFEAB" unicode="&#x630;" horiz-adv-x="466" arabic-form="isolated" 
d="M262 559q0 -23 -17.5 -40t-40.5 -17t-40.5 17t-17.5 40t17.5 40t40.5 17t40.5 -17t17.5 -40zM223 0h-203v96h180q92 0 92 78q0 47 -32 97t-87 89l58 77q80 -57 122 -131q38 -65 38 -133q0 -173 -168 -173z" />
    <glyph glyph-name="uniFEAC" unicode="&#x630;" horiz-adv-x="506" arabic-form="final" 
d="M259 559q0 -23 -17 -40t-41 -17q-23 0 -40 17t-17 40t17 40t40 17q24 0 41 -17t17 -40zM223 0h-203v96h180q92 0 92 78q0 47 -32 97t-87 89l58 77q77 -54 119 -124q37 -62 40 -127q2 -47 34 -70q27 -20 69 -20h23v-96h-32q-83 0 -132 49q-42 -49 -129 -49z" />
    <glyph glyph-name="uniFEAD" unicode="&#x631;" horiz-adv-x="349" arabic-form="isolated" 
d="M265 426v-409q0 -108 -59 -163q-48 -45 -124 -45q-65 0 -134 35l26 78q48 -24 87 -24q52 0 79 36q26 33 26 91v401h99z" />
    <glyph glyph-name="uniFEAE" unicode="&#x631;" horiz-adv-x="383" arabic-form="final" 
d="M262 26v-14q-2 -104 -58 -158q-47 -45 -122 -45q-65 0 -134 35l26 78q48 -24 87 -24q52 0 79 36q26 33 26 91v401h99v-205q0 -125 104 -125h24v-96h-32q-58 0 -99 26z" />
    <glyph glyph-name="uniFEAF" unicode="&#x632;" horiz-adv-x="349" arabic-form="isolated" 
d="M274 562q0 -23 -17.5 -40t-41.5 -17q-23 0 -40 17t-17 40t17 40t40 17q24 0 41.5 -17t17.5 -40zM265 426v-409q0 -108 -59 -163q-48 -45 -124 -45q-65 0 -134 35l26 78q48 -24 87 -24q52 0 79 36q26 33 26 91v401h99z" />
    <glyph glyph-name="uniFEB0" unicode="&#x632;" horiz-adv-x="383" arabic-form="final" 
d="M269 562q0 -23 -17.5 -40t-40.5 -17t-40.5 17t-17.5 40t17.5 40t40.5 17t40.5 -17t17.5 -40zM262 26v-14q-2 -104 -58 -158q-47 -45 -122 -45q-65 0 -134 35l26 78q48 -24 87 -24q52 0 79 36q26 33 26 91v401h99v-205q0 -125 104 -125h24v-96h-32q-58 0 -99 26z" />
    <glyph glyph-name="uniFEB1" unicode="&#x633;" horiz-adv-x="1272" arabic-form="isolated" 
d="M581 2q-21 -99 -98 -150q-64 -43 -156 -43q-127 0 -197 76q-63 67 -63 176q0 89 48 163l79 -31q-33 -63 -33 -124q0 -76 47 -122q45 -42 119 -42t121 46q46 46 46 124v287h99v-144q0 -122 98 -122q51 0 76 35q23 31 23 87v144h99v-144q0 -122 99 -122q100 0 100 122v208
h100v-223q0 -108 -60 -160q-50 -43 -138 -43q-104 0 -151 62q-47 -62 -146 -62q-69 0 -109 26z" />
    <glyph glyph-name="uniFEB2" unicode="&#x633;" horiz-adv-x="1332" arabic-form="final" 
d="M585 26l-3 -16q-18 -103 -96 -157q-65 -44 -159 -44q-126 0 -197 76q-63 67 -63 176q0 90 49 163l78 -31q-32 -64 -32 -124q0 -76 47 -122q45 -42 118 -42q74 0 121 46q46 46 46 124v287h99v-144q0 -122 98 -122q99 0 99 122v144h99v-144q0 -122 100 -122t100 122v144h99
v-141q0 -125 105 -125h49v-96h-58q-98 0 -146 63q-47 -63 -148 -63q-103 0 -150 62q-47 -62 -147 -62q-68 0 -108 26z" />
    <glyph glyph-name="uniFEB3" unicode="&#x633;" horiz-adv-x="922" arabic-form="initial" 
d="M48 0h-58v96h49q105 0 105 125v141h99v-144q0 -122 98 -122q99 0 99 122v144h99v-144q0 -122 100 -122t100 122v208h99v-223q0 -109 -60 -160q-50 -43 -139 -43q-103 0 -149 62q-47 -62 -150 -62q-101 0 -146 63q-48 -63 -146 -63z" />
    <glyph glyph-name="uniFEB4" unicode="&#x633;" horiz-adv-x="982" arabic-form="medial" 
d="M48 0h-58v96h49q105 0 105 125v141h99v-144q0 -64 29 -95q24 -27 67 -27q101 0 101 122v144h99v-144q0 -122 100 -122t100 122v144h99v-141q0 -125 105 -125h49v-96h-58q-97 0 -145 63q-48 -63 -150 -63q-103 0 -149 62q-47 -62 -151 -62q-98 0 -145 63q-48 -63 -146 -63
z" />
    <glyph glyph-name="uniFEB5" unicode="&#x634;" horiz-adv-x="1272" arabic-form="isolated" 
d="M891 638q0 -21 -15.5 -36.5t-37.5 -15.5t-37.5 15.5t-15.5 36.5t15.5 36.5t37.5 15.5t37.5 -15.5t15.5 -36.5zM829 524q0 -23 -17 -39.5t-41 -16.5q-23 0 -40 16.5t-17 39.5t17 40t40 17q24 0 41 -17t17 -40zM962 524q0 -23 -17 -39.5t-41 -16.5t-41 16.5t-17 39.5
t17.5 40t40.5 17t40.5 -17t17.5 -40zM581 2q-21 -99 -98 -150q-64 -43 -156 -43q-127 0 -197 76q-63 67 -63 176q0 89 48 163l79 -31q-33 -63 -33 -124q0 -76 47 -122q45 -42 119 -42t121 46q46 46 46 124v287h99v-144q0 -122 98 -122q51 0 76 35q23 31 23 87v144h99v-144
q0 -122 99 -122q100 0 100 122v208h100v-223q0 -108 -60 -160q-50 -43 -138 -43q-104 0 -151 62q-47 -62 -146 -62q-69 0 -109 26z" />
    <glyph glyph-name="uniFEB6" unicode="&#x634;" horiz-adv-x="1332" arabic-form="final" 
d="M891 638q0 -21 -15.5 -36.5t-37.5 -15.5t-37.5 15.5t-15.5 36.5t15.5 36.5t37.5 15.5t37.5 -15.5t15.5 -36.5zM829 524q0 -23 -17 -39.5t-41 -16.5q-23 0 -40 16.5t-17 39.5t17 40t40 17q24 0 41 -17t17 -40zM962 524q0 -23 -17 -39.5t-41 -16.5t-41 16.5t-17 39.5
t17.5 40t40.5 17t40.5 -17t17.5 -40zM585 26l-3 -16q-18 -103 -96 -157q-65 -44 -159 -44q-126 0 -197 76q-63 67 -63 176q0 90 49 163l78 -31q-32 -64 -32 -124q0 -76 47 -122q45 -42 118 -42q74 0 121 46q46 46 46 124v287h99v-144q0 -122 98 -122q99 0 99 122v144h99
v-144q0 -122 100 -122t100 122v144h99v-141q0 -125 105 -125h49v-96h-58q-98 0 -146 63q-47 -63 -148 -63q-103 0 -150 62q-47 -62 -147 -62q-68 0 -108 26z" />
    <glyph glyph-name="uniFEB7" unicode="&#x634;" horiz-adv-x="922" arabic-form="initial" 
d="M539 638q0 -21 -15.5 -36.5t-37.5 -15.5q-21 0 -37 15.5t-16 36.5t16 36.5t37 15.5q22 0 37.5 -15.5t15.5 -36.5zM477 524q0 -23 -17 -39.5t-41 -16.5q-23 0 -40 16.5t-17 39.5t17 40t40 17q24 0 41 -17t17 -40zM610 524q0 -23 -17 -39.5t-41 -16.5t-41 16.5t-17 39.5
t17.5 40t40.5 17t40.5 -17t17.5 -40zM48 0h-58v96h49q105 0 105 125v141h99v-144q0 -122 98 -122q99 0 99 122v144h99v-144q0 -122 100 -122t100 122v208h99v-223q0 -109 -60 -160q-50 -43 -139 -43q-103 0 -149 62q-47 -62 -150 -62q-101 0 -146 63q-48 -63 -146 -63z" />
    <glyph glyph-name="uniFEB8" unicode="&#x634;" horiz-adv-x="982" arabic-form="medial" 
d="M543 638q0 -21 -16 -36.5t-37 -15.5q-22 0 -37.5 15.5t-15.5 36.5t15.5 36.5t37.5 15.5q21 0 37 -15.5t16 -36.5zM481 524q0 -23 -17 -39.5t-41 -16.5t-41 16.5t-17 39.5t17.5 40t40.5 17t40.5 -17t17.5 -40zM614 524q0 -23 -17 -39.5t-41 -16.5t-41 16.5t-17 39.5
t17.5 40t40.5 17t40.5 -17t17.5 -40zM48 0h-58v96h49q105 0 105 125v141h99v-144q0 -64 29 -95q24 -27 67 -27q101 0 101 122v144h99v-144q0 -122 100 -122t100 122v144h99v-141q0 -125 105 -125h49v-96h-58q-97 0 -145 63q-48 -63 -150 -63q-103 0 -149 62
q-47 -62 -151 -62q-98 0 -145 63q-48 -63 -146 -63z" />
    <glyph glyph-name="uniFEB9" unicode="&#x635;" horiz-adv-x="1380" arabic-form="isolated" 
d="M585 29q0 -2 -1 -9q-1 -5 -1 -7q-17 -105 -95 -159q-66 -45 -161 -45q-126 0 -197 76q-63 67 -63 176q0 90 49 163l78 -31q-32 -64 -32 -124q0 -76 47 -122q45 -42 118 -42q74 0 121 46q46 46 46 124v255h99v-109q0 -119 96 -124q71 177 191 269q96 73 201 73
q111 0 172 -70q54 -61 54 -158q0 -116 -59 -166q-53 -45 -158 -45h-400q-62 2 -105 29zM785 96h297q74 0 102 32q24 27 24 86q0 68 -36 101q-32 29 -88 29q-88 0 -174 -75q-75 -66 -125 -173z" />
    <glyph glyph-name="uniFEBA" unicode="&#x635;" horiz-adv-x="1417" arabic-form="final" 
d="M584 18q-17 -107 -95 -162q-66 -47 -162 -47q-126 0 -197 76q-63 67 -63 176q0 90 49 163l78 -31q-32 -64 -32 -124q0 -76 47 -122q45 -42 118 -42q74 0 121 47q46 46 46 125v253h99v-109q0 -119 95 -124q71 177 192 269q96 73 201 73q110 0 172 -69q54 -60 54 -156
q0 -118 104 -118h16v-96h-25q-91 0 -141 59q-52 -59 -172 -59h-399q-63 2 -105 29v-5q-1 -4 -1 -6zM785 96h296q75 0 103 32q24 27 24 86q0 68 -36 101q-32 29 -88 29q-88 0 -174 -75q-75 -66 -125 -173z" />
    <glyph glyph-name="uniFEBB" unicode="&#x635;" horiz-adv-x="997" arabic-form="initial" 
d="M15 0h-25v96h16q105 0 105 125v109h99v-109q0 -119 96 -124q71 178 191 269q97 73 202 73q110 0 171 -70q54 -62 54 -160q0 -114 -59 -164q-53 -45 -158 -45h-402q-96 2 -144 63q-48 -63 -146 -63zM402 96h297q75 0 102 31q24 27 24 86q0 131 -124 131q-88 0 -173 -75
q-75 -66 -126 -173z" />
    <glyph glyph-name="uniFEBC" unicode="&#x635;" horiz-adv-x="1035" arabic-form="medial" 
d="M15 0h-25v96h16q105 0 105 125v109h99v-109q0 -119 96 -124q71 178 191 269q97 73 202 73q110 0 171 -70q54 -61 54 -162q0 -57 32 -86q27 -25 72 -25h17v-96h-25q-91 0 -141 59q-52 -59 -172 -59h-402q-96 2 -144 63q-48 -63 -146 -63zM402 96h297q74 0 102 32
q24 27 24 86q0 130 -124 130q-88 0 -173 -75q-75 -66 -126 -173z" />
    <glyph glyph-name="uniFEBD" unicode="&#x636;" horiz-adv-x="1380" arabic-form="isolated" 
d="M1110 579q0 -23 -17.5 -40t-40.5 -17t-40.5 17t-17.5 40t17.5 40t40.5 17t40.5 -17t17.5 -40zM585 29q0 -2 -1 -9q-1 -5 -1 -7q-17 -105 -95 -159q-66 -45 -161 -45q-126 0 -197 76q-63 67 -63 176q0 90 49 163l78 -31q-32 -64 -32 -124q0 -76 47 -122q45 -42 118 -42
q74 0 121 46q46 46 46 124v255h99v-109q0 -119 96 -124q71 177 191 269q96 73 201 73q111 0 172 -70q54 -61 54 -158q0 -116 -59 -166q-53 -45 -158 -45h-400q-62 2 -105 29zM785 96h297q74 0 102 32q24 27 24 86q0 68 -36 101q-32 29 -88 29q-88 0 -174 -75
q-75 -66 -125 -173z" />
    <glyph glyph-name="uniFEBE" unicode="&#x636;" horiz-adv-x="1417" arabic-form="final" 
d="M1116 579q0 -23 -17.5 -40t-40.5 -17t-40.5 17t-17.5 40t17.5 40t40.5 17t40.5 -17t17.5 -40zM584 18q-17 -107 -95 -162q-66 -47 -162 -47q-126 0 -197 76q-63 67 -63 176q0 90 49 163l78 -31q-32 -64 -32 -124q0 -76 47 -122q45 -42 118 -42q74 0 121 47q46 46 46 125
v253h99v-109q0 -119 95 -124q71 177 192 269q96 73 201 73q110 0 172 -69q54 -60 54 -156q0 -118 104 -118h16v-96h-25q-91 0 -141 59q-52 -59 -172 -59h-399q-63 2 -105 29v-5q-1 -4 -1 -6zM785 96h296q75 0 103 32q24 27 24 86q0 68 -36 101q-32 29 -88 29q-88 0 -174 -75
q-75 -66 -125 -173z" />
    <glyph glyph-name="uniFEBF" unicode="&#x636;" horiz-adv-x="997" arabic-form="initial" 
d="M741 579q0 -23 -17 -40t-41 -17q-23 0 -40 17t-17 40t17 40t40 17q24 0 41 -17t17 -40zM15 0h-25v96h16q105 0 105 125v109h99v-109q0 -119 96 -124q71 178 191 269q97 73 202 73q110 0 171 -70q54 -62 54 -160q0 -114 -59 -164q-53 -45 -158 -45h-402q-96 2 -144 63
q-48 -63 -146 -63zM402 96h297q75 0 102 31q24 27 24 86q0 131 -124 131q-88 0 -173 -75q-75 -66 -126 -173z" />
    <glyph glyph-name="uniFEC0" unicode="&#x636;" horiz-adv-x="1035" arabic-form="medial" 
d="M741 579q0 -23 -17 -40t-41 -17q-23 0 -40 17t-17 40t17 40t40 17q24 0 41 -17t17 -40zM15 0h-25v96h16q105 0 105 125v109h99v-109q0 -119 96 -124q71 178 191 269q97 73 202 73q110 0 171 -70q54 -61 54 -162q0 -57 32 -86q27 -25 72 -25h17v-96h-25q-91 0 -141 59
q-52 -59 -172 -59h-402q-96 2 -144 63q-48 -63 -146 -63zM402 96h297q74 0 102 32q24 27 24 86q0 130 -124 130q-88 0 -173 -75q-75 -66 -126 -173z" />
    <glyph glyph-name="uniFEC1" unicode="&#x637;" horiz-adv-x="863" arabic-form="isolated" 
d="M573 0h-547v96h143v570h98v-419q68 103 156 152q72 40 150 40q104 0 164 -70q53 -62 53 -158q0 -116 -59 -166q-53 -45 -158 -45zM272 96h293q74 0 103 32q23 27 23 85q0 131 -123 131q-88 0 -172 -75q-73 -66 -124 -173z" />
    <glyph glyph-name="uniFEC2" unicode="&#x637;" horiz-adv-x="903" arabic-form="final" 
d="M568 0h-542v96h139v570h97v-419q68 103 157 152q72 40 149 40q105 0 165 -69q53 -60 53 -156q0 -118 104 -118h23v-96h-32q-92 0 -142 59q-50 -59 -171 -59zM267 96h293q74 0 103 32q23 27 23 85q0 131 -123 131q-88 0 -172 -75q-73 -66 -124 -173z" />
    <glyph glyph-name="uniFEC3" unicode="&#x637;" horiz-adv-x="843" arabic-form="initial" 
d="M553 0h-563v96h159v570h98v-419q68 103 156 152q72 40 150 40q104 0 164 -69q53 -62 53 -161q0 -114 -60 -164q-53 -45 -157 -45zM251 96h294q74 0 102 32q24 27 24 86q0 68 -36 101q-32 29 -88 29q-87 0 -171 -75q-74 -66 -125 -173z" />
    <glyph glyph-name="uniFEC4" unicode="&#x637;" horiz-adv-x="887" arabic-form="medial" 
d="M553 0h-563v96h159v570h98v-419q68 103 156 152q72 40 150 40q104 0 164 -69q53 -60 53 -156q0 -118 104 -118h23v-96h-32q-91 0 -141 59q-50 -59 -171 -59zM251 96h293q75 0 103 31q24 27 24 86q0 69 -36 102q-32 29 -88 29q-87 0 -171 -75q-74 -66 -125 -173z" />
    <glyph glyph-name="uniFEC5" unicode="&#x638;" horiz-adv-x="863" arabic-form="isolated" 
d="M573 0h-547v96h143v570h98v-419q68 103 156 152q72 40 150 40q104 0 164 -70q53 -62 53 -158q0 -116 -59 -166q-53 -45 -158 -45zM623 597q0 -23 -17.5 -40t-40.5 -17t-40.5 17t-17.5 40t17.5 40t40.5 17t40.5 -17t17.5 -40zM272 96h293q74 0 103 32q23 27 23 85
q0 131 -123 131q-88 0 -172 -75q-73 -66 -124 -173z" />
    <glyph glyph-name="uniFEC6" unicode="&#x638;" horiz-adv-x="903" arabic-form="final" 
d="M568 0h-542v96h139v570h97v-419q68 103 157 152q72 40 149 40q105 0 165 -69q53 -60 53 -156q0 -118 104 -118h23v-96h-32q-92 0 -142 59q-50 -59 -171 -59zM623 597q0 -23 -17.5 -40t-40.5 -17t-40.5 17t-17.5 40t17.5 40t40.5 17t40.5 -17t17.5 -40zM267 96h293
q74 0 103 32q23 27 23 85q0 131 -123 131q-88 0 -172 -75q-73 -66 -124 -173z" />
    <glyph glyph-name="uniFEC7" unicode="&#x638;" horiz-adv-x="843" arabic-form="initial" 
d="M553 0h-563v96h159v570h98v-419q68 103 156 152q72 40 150 40q104 0 164 -69q53 -62 53 -161q0 -114 -60 -164q-53 -45 -157 -45zM596 597q0 -23 -17.5 -40t-40.5 -17t-40.5 17t-17.5 40t17.5 40t40.5 17t40.5 -17t17.5 -40zM251 96h294q74 0 102 32q24 27 24 86
q0 68 -36 101q-32 29 -88 29q-87 0 -171 -75q-74 -66 -125 -173z" />
    <glyph glyph-name="uniFEC8" unicode="&#x638;" horiz-adv-x="887" arabic-form="medial" 
d="M553 0h-563v96h159v570h98v-419q68 103 156 152q72 40 150 40q104 0 164 -69q53 -60 53 -156q0 -118 104 -118h23v-96h-32q-91 0 -141 59q-50 -59 -171 -59zM596 597q0 -23 -17.5 -40t-40.5 -17t-40.5 17t-17.5 40t17.5 40t40.5 17t40.5 -17t17.5 -40zM251 96h293
q75 0 103 31q24 27 24 86q0 69 -36 102q-32 29 -88 29q-87 0 -171 -75q-74 -66 -125 -173z" />
    <glyph glyph-name="uniFEC9" unicode="&#x639;" horiz-adv-x="585" arabic-form="isolated" 
d="M525 -306q-89 -62 -197 -62q-121 0 -194 69q-67 63 -67 163q0 66 32 120q29 51 80 80q-84 52 -84 161q0 98 63 157q55 52 138 52h172v-94h-155q-60 0 -92 -40q-26 -32 -26 -78q0 -49 36 -81q35 -31 92 -31h187v-95h-179q-84 0 -128 -47q-35 -38 -35 -94q0 -70 57 -111
q47 -35 116 -35q81 0 142 39z" />
    <glyph glyph-name="uniFECA" unicode="&#x639;" horiz-adv-x="669" arabic-form="final" 
d="M532 -306q-88 -62 -196 -62q-123 0 -195 65q-66 60 -66 160q0 84 46 138q28 33 111 86q12 8 19 12q-4 5 -36 42q-45 52 -72 76q-41 35 -74 41v45q49 79 124 118q60 31 127 31q76 0 145 -42q64 -40 107 -108v-44q-41 -6 -85 -49q-17 -17 -63 -72q-12 -14 -20 -24
q39 -11 65 -11h210v-96h-244q-60 0 -113 36q-12 -11 -61 -44q-41 -28 -59 -50q-27 -34 -27 -77q0 -68 57 -106q47 -31 117 -31q81 0 142 39zM176 292q36 -24 99 -95q29 -32 46 -48q10 11 33 36q66 77 112 106q-64 67 -150 67q-79 0 -140 -66z" />
    <glyph glyph-name="uniFECB" unicode="&#x639;" horiz-adv-x="585" arabic-form="initial" 
d="M535 0h-545v96h136q-41 55 -41 129q0 98 64 157q55 52 137 52h173v-94h-155q-60 0 -93 -40q-26 -32 -26 -78q0 -55 37 -91q35 -35 91 -35h222v-96z" />
    <glyph glyph-name="uniFECC" unicode="&#x639;" horiz-adv-x="697" arabic-form="medial" 
d="M233 0h-243v96h215q29 0 62 12q-60 73 -97.5 104.5t-72.5 39.5v45q49 79 124 118q60 31 127 31q76 0 145 -42q64 -40 107 -108v-44q-32 -5 -60 -28t-86 -92q-13 -15 -22 -25q33 -11 57 -11h218v-96h-244q-60 0 -113 36q-55 -36 -117 -36zM204 292q35 -24 98 -95
q29 -32 46 -48q18 16 56 59q54 61 89 83q-61 67 -149 67q-79 0 -140 -66z" />
    <glyph glyph-name="uniFECD" unicode="&#x63a;" horiz-adv-x="585" arabic-form="isolated" 
d="M379 562q0 -23 -17.5 -40t-40.5 -17t-40.5 17t-17.5 40t17.5 40t40.5 17t40.5 -17t17.5 -40zM525 -306q-89 -62 -197 -62q-121 0 -194 69q-67 63 -67 163q0 66 32 120q29 51 80 80q-84 52 -84 161q0 98 63 157q55 52 138 52h172v-94h-155q-60 0 -92 -40q-26 -32 -26 -78
q0 -49 36 -81q35 -31 92 -31h187v-95h-179q-84 0 -128 -47q-35 -38 -35 -94q0 -70 57 -111q47 -35 116 -35q81 0 142 39z" />
    <glyph glyph-name="uniFECE" unicode="&#x63a;" horiz-adv-x="669" arabic-form="final" 
d="M371 564q0 -23 -17.5 -40t-41.5 -17q-23 0 -40 17t-17 40t17 39.5t40 16.5q24 0 41.5 -16.5t17.5 -39.5zM532 -306q-88 -62 -196 -62q-123 0 -195 65q-66 60 -66 160q0 84 46 138q28 33 111 86q12 8 19 12q-4 5 -36 42q-45 52 -72 76q-41 35 -74 41v45q49 79 124 118
q60 31 127 31q76 0 145 -42q64 -40 107 -108v-44q-41 -6 -85 -49q-17 -17 -63 -72q-12 -14 -20 -24q39 -11 65 -11h210v-96h-244q-60 0 -113 36q-12 -11 -61 -44q-41 -28 -59 -50q-27 -34 -27 -77q0 -68 57 -106q47 -31 117 -31q81 0 142 39zM176 292q36 -24 99 -95
q29 -32 46 -48q10 11 33 36q66 77 112 106q-64 67 -150 67q-79 0 -140 -66z" />
    <glyph glyph-name="uniFECF" unicode="&#x63a;" horiz-adv-x="585" arabic-form="initial" 
d="M370 562q0 -23 -17.5 -40t-40.5 -17t-40.5 17t-17.5 40t17.5 40t40.5 17t40.5 -17t17.5 -40zM535 0h-545v96h136q-41 55 -41 129q0 98 64 157q55 52 137 52h173v-94h-155q-60 0 -93 -40q-26 -32 -26 -78q0 -55 37 -91q35 -35 91 -35h222v-96z" />
    <glyph glyph-name="uniFED0" unicode="&#x63a;" horiz-adv-x="697" arabic-form="medial" 
d="M407 564q0 -23 -17.5 -40t-40.5 -17t-40.5 17t-17.5 40t17 39.5t41 16.5t41 -16.5t17 -39.5zM233 0h-243v96h215q29 0 62 12q-60 73 -97.5 104.5t-72.5 39.5v45q49 79 124 118q60 31 127 31q76 0 145 -42q64 -40 107 -108v-44q-32 -5 -60 -28t-86 -92q-13 -15 -22 -25
q33 -11 57 -11h218v-96h-244q-60 0 -113 36q-55 -36 -117 -36zM204 292q35 -24 98 -95q29 -32 46 -48q18 16 56 59q54 61 89 83q-61 67 -149 67q-79 0 -140 -66z" />
    <glyph glyph-name="uniFED1" unicode="&#x641;" horiz-adv-x="937" arabic-form="isolated" 
d="M738 562q0 -23 -17.5 -40t-40.5 -17t-40.5 17t-17.5 40t17 39.5t41 16.5t41 -16.5t17 -39.5zM690 0h-380q-121 0 -185 76q-48 57 -48 141q0 66 36 118q34 50 92 74l44 -67q-38 -18 -59.5 -50t-21.5 -70q0 -55 41 -92q39 -34 98 -34h230q-36 55 -36 131q0 104 57 163
q50 51 131 51q85 0 133 -54q41 -46 41 -119v-88q0 -85 -50 -134q-46 -46 -123 -46zM595 225q0 -68 33 -102q26 -27 63 -27q76 0 76 88v77q0 90 -78 90q-48 0 -73 -39q-21 -32 -21 -87z" />
    <glyph glyph-name="uniFED2" unicode="&#x641;" horiz-adv-x="965" arabic-form="final" 
d="M753 562q0 -23 -17 -40t-41 -17q-23 0 -40 17t-17 40t17 40t40 17q24 0 41 -17t17 -40zM622 0h-312q-121 0 -185 76q-48 57 -48 141q0 66 36 118q34 50 92 74l44 -67q-38 -18 -59.5 -50t-21.5 -70q0 -55 41 -92q39 -34 98 -34h254q-60 66 -60 150q0 92 56 147
q51 52 135 52q96 0 148 -65q43 -54 43 -134q0 -85 -60 -150h152v-96h-213q-41 0 -70 7q-29 -7 -70 -7zM692 96q48 23 75 70q22 39 22 82q0 51 -28 81q-26 27 -69 27q-49 0 -75 -34q-21 -28 -21 -73q0 -49 29 -92q26 -41 67 -61z" />
    <glyph glyph-name="uniFED3" unicode="&#x641;" horiz-adv-x="536" arabic-form="initial" 
d="M347 562q0 -23 -17.5 -40t-40.5 -17t-40.5 17t-17.5 40t17.5 40t40.5 17t40.5 -17t17.5 -40zM289 0h-299v96h145q-35 53 -35 131q0 104 57 163q50 51 130 51q86 0 133 -54q41 -46 41 -119v-88q0 -84 -50 -134q-46 -45 -122 -46zM193 225q0 -67 34 -102q25 -27 62 -27
q77 0 77 88v77q0 90 -79 90q-48 0 -73 -39q-21 -32 -21 -87z" />
    <glyph glyph-name="uniFED4" unicode="&#x641;" horiz-adv-x="545" arabic-form="medial" 
d="M331 562q0 -23 -17.5 -40t-40.5 -17t-40.5 17t-17.5 40t17.5 40t40.5 17t40.5 -17t17.5 -40zM203 0h-213v96h152q-60 65 -60 150q0 92 56 147q51 52 135 52q96 0 148 -65q43 -54 43 -134q0 -86 -61 -150h152v-96h-213q-40 0 -69 7q-29 -7 -70 -7zM273 96q48 23 75 70
q22 39 22 82q0 51 -29 81q-26 27 -68 27q-49 0 -75 -34q-22 -29 -22 -73q0 -48 29 -92q27 -41 68 -61z" />
    <glyph glyph-name="uniFED5" unicode="&#x642;" horiz-adv-x="729" arabic-form="isolated" 
d="M465 566q0 -23 -17 -40t-41 -17q-23 0 -40 17t-17 40t17 40t40 17q24 0 41 -17t17 -40zM598 566q0 -24 -17 -40.5t-41 -16.5q-23 0 -40.5 17t-17.5 40t17.5 40t40.5 17q24 0 41 -17t17 -40zM550 29q-33 -17 -70 -17q-98 0 -149 66q-44 56 -44 146q0 102 57 161
q51 53 134 53q85 0 133 -54q41 -46 41 -119v-192q0 -136 -90 -210q-79 -64 -207 -64q-145 0 -222 81q-66 69 -66 180q0 91 49 164l78 -31q-32 -64 -32 -125q0 -81 52 -129q52 -47 141 -47q76 0 127 35q46 31 63 84q4 12 5 18zM556 119v142q0 47 -19.5 68.5t-61.5 21.5
q-49 0 -74 -38q-21 -33 -21 -86q0 -66 36 -101q29 -28 73 -28q34 0 67 21z" />
    <glyph glyph-name="uniFED6" unicode="&#x642;" horiz-adv-x="744" arabic-form="final" 
d="M465 565q0 -23 -17 -40t-41 -17q-23 0 -40 17t-17 40t17 40t40 17q24 0 41 -17t17 -40zM598 565q0 -23 -17 -40t-41 -17q-23 0 -40.5 17t-17.5 40t17.5 40t40.5 17q24 0 41 -17t17 -40zM644 0q-23 -102 -107 -155q-74 -46 -182 -46q-145 0 -222 81q-66 69 -66 180
q0 91 49 164l78 -31q-32 -64 -32 -125q0 -81 52 -129q52 -47 141 -47q75 0 126 33q45 30 63 81q-38 0 -57 1q-105 3 -157 73q-43 56 -43 144q0 102 57 161q51 53 134 53q85 0 133 -54q41 -46 41 -119v-169h102v-96h-110zM556 96v165q0 47 -19.5 68.5t-61.5 21.5
q-49 0 -74 -38q-21 -33 -21 -86q0 -67 37 -102q31 -29 79 -29h60z" />
    <glyph glyph-name="uniFED7" unicode="&#x642;" horiz-adv-x="536" arabic-form="initial" 
d="M280 565q0 -23 -17.5 -40t-40.5 -17t-40.5 17t-17.5 40t17.5 40t40.5 17t40.5 -17t17.5 -40zM413 565q0 -24 -17.5 -40.5t-41.5 -16.5q-23 0 -40 17t-17 40t17 40t40 17q24 0 41.5 -16.5t17.5 -40.5zM289 0h-299v96h145q-35 53 -35 131q0 104 57 163q50 51 130 51
q86 0 133 -54q41 -46 41 -119v-88q0 -84 -50 -134q-46 -45 -122 -46zM193 225q0 -67 34 -102q25 -27 62 -27q77 0 77 88v77q0 90 -79 90q-48 0 -73 -39q-21 -32 -21 -87z" />
    <glyph glyph-name="uniFED8" unicode="&#x642;" horiz-adv-x="545" arabic-form="medial" 
d="M264 565q0 -23 -17.5 -40t-40.5 -17t-40.5 17t-17.5 40t17.5 40t40.5 17t40.5 -17t17.5 -40zM396 565q0 -24 -17 -40.5t-41 -16.5q-23 0 -40.5 17t-17.5 40t17.5 40t40.5 17q24 0 41 -16.5t17 -40.5zM203 0h-213v96h152q-60 65 -60 150q0 92 56 147q51 52 135 52
q96 0 148 -65q43 -54 43 -134q0 -86 -61 -150h152v-96h-213q-40 0 -69 7q-29 -7 -70 -7zM273 96q48 23 75 70q22 39 22 82q0 51 -29 81q-26 27 -68 27q-49 0 -75 -34q-22 -29 -22 -73q0 -48 29 -92q27 -41 68 -61z" />
    <glyph glyph-name="uniFED9" unicode="&#x643;" horiz-adv-x="880" arabic-form="isolated" 
d="M596 0h-286q-121 0 -185 76q-48 57 -48 141q0 66 36 118q34 50 92 74l44 -67q-38 -18 -59.5 -50t-21.5 -70q0 -55 41 -92q39 -34 98 -34h270q67 0 96 36q24 30 24 89v445h99v-463q0 -203 -200 -203zM466 355h-102l1 45h97q34 0 34 29q0 18 -13 28.5t-35 10.5
q-27 0 -52 -13v43l86 95l31 -25l-52 -60q39 -2 60 -23t21 -57q0 -34 -20.5 -53.5t-55.5 -19.5z" />
    <glyph glyph-name="uniFEDA" unicode="&#x643;" horiz-adv-x="915" arabic-form="final" 
d="M596 0h-283q-125 0 -188 76q-48 57 -48 141q0 66 36 118q34 50 92 74l44 -67q-38 -18 -59.5 -50t-21.5 -70q0 -55 41 -92q39 -34 98 -34h270q67 0 96 36q24 30 24 89v445h99v-445q0 -125 105 -125h24v-96h-32q-97 0 -145 63q-49 -63 -152 -63zM466 355h-102l1 45h97
q34 0 34 29q0 18 -13 28.5t-35 10.5q-27 0 -52 -13v43l86 95l31 -25l-52 -60q39 -2 60 -23t21 -57q0 -34 -20.5 -53.5t-55.5 -19.5z" />
    <glyph glyph-name="uniFEDB" unicode="&#x643;" horiz-adv-x="553" arabic-form="initial" 
d="M302 0h-312v96h302q114 0 114 106v2q0 50 -26 72q-25 21 -78 21h-257v95l227 235l56 -55l-171 -178h145q112 0 161 -56q43 -48 43 -141v-1q0 -103 -60 -153q-51 -43 -144 -43z" />
    <glyph glyph-name="uniFEDC" unicode="&#x643;" horiz-adv-x="623" arabic-form="medial" 
d="M302 0h-312v96h302q114 0 114 105v2q0 51 -26 73q-25 21 -78 21h-257v95l227 235l56 -55l-171 -178h147q106 0 157 -53q45 -46 45 -129v-4q0 -58 31 -87q27 -25 73 -25h23v-96h-32q-95 0 -144 61q-55 -61 -155 -61z" />
    <glyph glyph-name="uniFEDD" unicode="&#x644;" horiz-adv-x="677" arabic-form="isolated" 
d="M593 666v-592q0 -134 -83 -205q-70 -60 -183 -60q-126 0 -197 76q-63 67 -63 176q0 90 49 163l78 -31q-32 -64 -32 -124q0 -76 47 -122q45 -42 118 -42q74 0 121 46q46 46 46 124v591h99z" />
    <glyph glyph-name="uniFEDE" unicode="&#x644;" horiz-adv-x="708" arabic-form="final" 
d="M585 29q0 -4 -2 -14q-17 -105 -95 -160q-66 -46 -161 -46q-126 0 -197 76q-63 67 -63 176q0 90 49 163l78 -31q-32 -64 -32 -124q0 -76 47 -122q45 -42 118 -42q74 0 121 46q46 46 46 124v591h99v-445q0 -125 105 -125h20v-96h-29q-60 0 -104 29z" />
    <glyph glyph-name="uniFEDF" unicode="&#x644;" horiz-adv-x="298" arabic-form="initial" 
d="M19 0h-29v96h20q105 0 105 125v445h99v-463q0 -108 -60 -160q-50 -43 -135 -43z" />
    <glyph glyph-name="uniFEE0" unicode="&#x644;" horiz-adv-x="330" arabic-form="medial" 
d="M19 0h-29v96h20q105 0 105 125v445h99v-445q0 -125 105 -125h21v-96h-29q-98 0 -146 63q-48 -63 -146 -63z" />
    <glyph glyph-name="uniFEE1" unicode="&#x645;" horiz-adv-x="567" arabic-form="isolated" 
d="M119 -315h-99v226q0 142 118 174q14 5 31 7q-38 53 -38 135q0 104 57 163q50 51 130 51q86 0 134 -54q41 -46 41 -119v-91q0 -82 -48 -130q-44 -44 -118 -47h-102q-60 0 -83 -25.5t-23 -92.5v-197zM224 225q0 -68 33 -102q25 -27 62 -27q78 0 78 86v79q0 47 -19 68.5
t-60 21.5q-48 0 -73 -39q-21 -32 -21 -87z" />
    <glyph glyph-name="uniFEE2" unicode="&#x645;" horiz-adv-x="627" arabic-form="final" 
d="M119 -315h-99v226q0 141 116 174q20 6 33 7q-38 53 -38 135q0 104 57 163q50 51 130 51q86 0 134 -54q41 -47 41 -121v-49q0 -121 104 -121h40v-96h-48q-91 0 -140 56q-44 -51 -122 -56h-102q-60 0 -83 -25.5t-23 -92.5v-197zM224 225q0 -68 33 -102q25 -27 62 -27
q78 0 78 86v79q0 47 -19 68.5t-60 21.5q-48 0 -73 -39q-21 -32 -21 -87z" />
    <glyph glyph-name="uniFEE3" unicode="&#x645;" horiz-adv-x="551" arabic-form="initial" 
d="M-10 96h36q49 0 73 33q22 29 22 78v58q0 86 53 134q46 42 121 42q94 0 146 -68q44 -58 44 -149q0 -118 -62 -180q-50 -51 -126 -51q-87 0 -134 53q-45 -46 -115 -46h-58v96zM217 182q0 -93 78 -93q43 0 69 36t26 100q0 63 -27 96q-25 30 -67 30q-41 0 -60 -21.5
t-19 -68.5v-79z" />
    <glyph glyph-name="uniFEE4" unicode="&#x645;" horiz-adv-x="624" arabic-form="medial" 
d="M455 52q-50 -66 -143 -66q-95 0 -143 66q-43 -52 -121 -52h-58v96h36q95 0 95 121q0 57 16 101q23 62 72 94q44 29 103 29q67 0 115 -37q39 -31 60 -85q16 -44 16 -102q0 -121 95 -121h36v-96h-58q-75 0 -121 52zM217 219q0 -75 34 -111q25 -27 62 -27q42 0 68 36t26 102
q0 67 -29 101q-24 30 -66 30q-48 0 -73 -39q-22 -34 -22 -92z" />
    <glyph glyph-name="uniFEE5" unicode="&#x646;" horiz-adv-x="677" arabic-form="isolated" 
d="M370 450q0 -23 -17.5 -40t-40.5 -17t-40.5 17t-17.5 40t17.5 40t40.5 17t40.5 -17t17.5 -40zM593 426v-352q0 -134 -83 -205q-70 -60 -183 -60q-126 0 -197 76q-63 67 -63 176q0 90 49 163l78 -31q-32 -64 -32 -124q0 -76 47 -122q45 -42 118 -42q74 0 121 46
q46 46 46 124v351h99z" />
    <glyph glyph-name="uniFEE6" unicode="&#x646;" horiz-adv-x="711" arabic-form="final" 
d="M370 450q0 -23 -17.5 -40t-40.5 -17t-40.5 17t-17.5 40t17.5 40t40.5 17t40.5 -17t17.5 -40zM584 22q-15 -109 -94 -166q-66 -47 -163 -47q-127 0 -197 76q-63 67 -63 176q0 89 48 163l79 -31q-33 -63 -33 -124q0 -76 47 -122q45 -42 119 -42t121 46q46 46 46 124v351h99
v-205q0 -125 105 -125h23v-96h-32q-60 0 -104 29q0 -5 -1 -7z" />
    <glyph glyph-name="uniFEE7" unicode="&#x646;" horiz-adv-x="301" arabic-form="initial" 
d="M223 561q0 -23 -17 -40t-41 -17q-23 0 -40 17t-17 40t17 40t40 17q24 0 41 -17t17 -40zM22 0h-32v96h23q105 0 105 125v205h99v-223q0 -108 -60 -160q-50 -43 -135 -43z" />
    <glyph glyph-name="uniFEE8" unicode="&#x646;" horiz-adv-x="336" arabic-form="medial" 
d="M227 561q0 -23 -17 -40t-41 -17q-23 0 -40.5 17t-17.5 40t17.5 40t40.5 17q24 0 41 -17t17 -40zM22 0h-32v96h23q105 0 105 125v205h99v-205q0 -125 105 -125h24v-96h-32q-98 0 -146 63q-48 -63 -146 -63z" />
    <glyph glyph-name="uniFEE9" unicode="&#x647;" horiz-adv-x="510" arabic-form="isolated" 
d="M266 -12h-22q-87 0 -134 69q-42 60 -42 160q0 110 58 171q50 52 129 52q92 0 143 -68q44 -59 44 -155q0 -114 -54 -176q-47 -53 -122 -53zM160 216q0 -67 26 -102q23 -29 61 -29h16q44 0 67 38q20 34 20 93q0 67 -28 100q-24 30 -67 30q-49 0 -73 -38q-22 -34 -22 -92z
" />
    <glyph glyph-name="uniFEEA" unicode="&#x647;" horiz-adv-x="540" arabic-form="final" 
d="M550 0h-31q-110 0 -158 76q-51 -51 -125 -51q-81 0 -131 60q-47 57 -47 147q0 104 66 164q57 51 146 51h59v45h93v-271q0 -125 105 -125h23v-96zM329 358h-56q-62 0 -93 -37q-26 -31 -26 -84q0 -59 27 -91q24 -29 64 -29q45 0 88 38q-4 20 -4 48v155z" />
    <glyph glyph-name="uniFEEB" unicode="&#x647;" horiz-adv-x="618" arabic-form="initial" 
d="M138 0h-148v96h75h42q-38 47 -38 108q0 63 41 105q40 40 104 40q71 0 112 -51q32 -40 32 -97q0 -59 -37 -105q7 0 23 1h21q39 2 60.5 22.5t21.5 56.5q0 37 -16 75.5t-45 68.5q-76 80 -227 91l20 87q181 -12 287 -133q80 -91 80 -193q0 -87 -47 -131q-44 -41 -126 -41h-80
q-42 0 -79 14q-36 -14 -76 -14zM214 103q30 15 46.5 42t16.5 60q0 34 -17 53t-46 19q-30 0 -47 -19t-17 -52q0 -34 17 -61t47 -42z" />
    <glyph glyph-name="uniFEEC" unicode="&#x647;" horiz-adv-x="662" arabic-form="medial" 
d="M138 0h-148v96h77h40q-38 47 -38 108q0 63 41 105q40 40 104 40q71 0 112 -51q32 -40 32 -97q0 -59 -37 -105q8 0 23 1h20q83 3 83 79q0 37 -16 75.5t-45 68.5q-76 80 -227 91l20 87q181 -12 287 -128q79 -87 79 -186q0 -43 33 -68q28 -20 70 -20h24v-96h-32
q-86 0 -135 49q-44 -49 -132 -49h-80q-42 0 -79 14q-36 -14 -76 -14zM214 103q30 15 46.5 42t16.5 60q0 34 -17 53t-46 19q-30 0 -47 -19t-17 -52q0 -34 17 -61t47 -42z" />
    <glyph glyph-name="uniFEED" unicode="&#x648;" horiz-adv-x="500" arabic-form="isolated" 
d="M330 30q-35 -18 -75 -18q-100 0 -151 66q-43 55 -43 146q0 102 57 161q51 53 133 53q86 0 134 -54q41 -46 41 -119v-248q0 -108 -62 -164q-50 -45 -129 -45q-71 0 -140 39l25 78q54 -27 98 -27q54 0 83 33q27 31 28 87q0 2 1 6v6zM330 119v142q0 47 -19.5 68.5
t-61.5 21.5q-49 0 -74 -38q-21 -33 -21 -86q0 -66 36 -101q29 -28 73 -28q34 0 67 21z" />
    <glyph glyph-name="uniFEEE" unicode="&#x648;" horiz-adv-x="518" arabic-form="final" 
d="M425 0q-4 -99 -65 -150q-50 -42 -125 -42q-71 0 -140 39l25 78q54 -27 98 -27q102 0 111 107q-40 0 -60 1q-106 2 -161 68q-47 57 -47 150q0 102 57 161q51 53 133 53q86 0 134 -54q41 -46 41 -119v-169h102v-96h-103zM330 96v165q0 47 -19.5 68.5t-61.5 21.5
q-49 0 -74 -38q-21 -33 -21 -86q0 -67 37 -102q31 -29 79 -29h60z" />
    <glyph glyph-name="uniFEEF" unicode="&#x649;" horiz-adv-x="715" arabic-form="isolated" 
d="M601 344h-108q-42 0 -65 -18t-23 -51q0 -39 23 -61t92 -49t96 -51q45 -40 45 -108q0 -94 -87 -151q-81 -53 -215 -53q-151 0 -229 79q-66 68 -66 179q0 91 49 164l79 -31q-33 -63 -33 -124q0 -80 55 -127q53 -45 145 -45t153 37q50 31 50 70q0 35 -44 60q-10 5 -70 30
q-65 28 -95 59q-44 47 -44 121q0 80 55 125q46 37 113 37h124v-92z" />
    <glyph glyph-name="uniFEF0" unicode="&#x649;" horiz-adv-x="687" arabic-form="final" 
d="M668 0q-4 -99 -95 -153q-82 -48 -214 -48q-150 0 -229 81q-66 68 -66 180q0 91 49 164l80 -31q-34 -64 -34 -125q0 -82 58 -132q55 -47 150 -47q87 0 144 31q56 30 60 80h-94v96h220v-96h-29z" />
    <glyph glyph-name="uniFEF1" unicode="&#x64a;" horiz-adv-x="715" arabic-form="isolated" 
d="M601 344h-108q-42 0 -65 -18t-23 -51q0 -39 23 -61t92 -49t96 -51q45 -40 45 -108q0 -94 -87 -151q-81 -53 -215 -53q-151 0 -229 79q-66 68 -66 179q0 91 49 164l79 -31q-33 -63 -33 -124q0 -80 55 -127q53 -45 145 -45t153 37q50 31 50 70q0 35 -44 60q-10 5 -70 30
q-65 28 -95 59q-44 47 -44 121q0 80 55 125q46 37 113 37h124v-92zM353 -325q0 -23 -17.5 -40t-40.5 -17t-40.5 17t-17.5 40t17.5 40t40.5 17t40.5 -17t17.5 -40zM485 -325q0 -23 -17 -40t-41 -17q-23 0 -40.5 17t-17.5 40t17.5 40t40.5 17q24 0 41 -16.5t17 -40.5z" />
    <glyph glyph-name="uniFEF2" unicode="&#x64a;" horiz-adv-x="687" arabic-form="final" 
d="M668 0q-4 -99 -95 -153q-82 -48 -214 -48q-150 0 -229 81q-66 68 -66 180q0 91 49 164l80 -31q-34 -64 -34 -125q0 -82 58 -132q55 -47 150 -47q87 0 144 31q56 30 60 80h-94v96h220v-96h-29zM353 -320q0 -23 -17.5 -40t-40.5 -17t-40.5 17t-17.5 40t17.5 40t40.5 17
t40.5 -17t17.5 -40zM485 -320q0 -23 -17 -40t-41 -17q-23 0 -40.5 17t-17.5 40t17.5 40t40.5 17q24 0 41 -17t17 -40z" />
    <glyph glyph-name="uniFEF3" unicode="&#x64a;" horiz-adv-x="301" arabic-form="initial" 
d="M-10 0v96h23q105 0 105 125v205h99v-223q0 -108 -60 -160q-50 -43 -135 -43h-32zM38 -189q-23 0 -40.5 17t-17.5 40t17.5 40t40.5 17t40.5 -17t17.5 -40t-17.5 -40t-40.5 -17zM170 -189q-23 0 -40.5 17t-17.5 40t17.5 40t40.5 17q24 0 41 -17t17 -40t-17 -40t-41 -17z
" />
    <glyph glyph-name="uniFEF4" unicode="&#x64a;" horiz-adv-x="336" arabic-form="medial" 
d="M-10 0v96h23q105 0 105 125v205h99v-205q0 -125 105 -125h24v-96h-32q-98 0 -146 63q-48 -63 -146 -63h-32zM82 -189q-23 0 -40.5 17t-17.5 40t17.5 40t40.5 17t40.5 -17t17.5 -40t-17.5 -40t-40.5 -17zM214 -189q-23 0 -40.5 17t-17.5 40t17.5 40t40.5 17q24 0 41 -17
t17 -40t-17 -40t-41 -17z" />
    <glyph glyph-name=".notdef" horiz-adv-x="364" 
d="M33 0v666h265v-666h-265zM66 33h199v600h-199v-600z" />
    <glyph glyph-name="glyph1" 
 />
    <glyph glyph-name="glyph2" horiz-adv-x="237" 
 />
    <glyph glyph-name="space" unicode=" " horiz-adv-x="237" 
 />
    <glyph glyph-name="exclam" unicode="!" horiz-adv-x="295" 
d="M83 51q0 27 18.5 45t45.5 18t45.5 -18t18.5 -45q0 -26 -18.5 -44.5t-45.5 -18.5t-45.5 18.5t-18.5 44.5zM100 164l-9 503h112l-9 -503h-94z" />
    <glyph glyph-name="quotedbl" unicode="&#x22;" horiz-adv-x="323" 
d="M127 397h-77l-13 283h103zM274 397h-78l-12 283h103z" />
    <glyph glyph-name="numbersign" unicode="#" horiz-adv-x="588" 
d="M116 188h-73l16 78h73l27 133h-73l16 78h73l41 203l82 -19l-37 -184h125l41 203l83 -18l-38 -185h73l-16 -78h-73l-27 -133h73l-16 -78h-73l-41 -203l-83 19l38 184h-125l-41 -203l-83 19zM343 266l27 133h-125l-27 -133h125z" />
    <glyph glyph-name="dollar" unicode="$" horiz-adv-x="577" 
d="M243 -11q-70 11 -119 60q-24 23 -38.5 52.5t-25.5 76.5l101 27q12 -49 22 -65q32 -56 98 -56q51 0 85 36q29 32 29 75q0 32 -23 54.5t-79 44.5l-61 23q-144 56 -144 175q0 72 48 123q41 44 107 59v93h102v-92q47 -11 79.5 -37t65.5 -79l-84 -53q-29 44 -53.5 61t-60.5 17
q-46 0 -75 -30q-26 -26 -26 -63q0 -54 85 -86l63 -25q88 -34 127 -83q34 -42 34 -101q0 -75 -47 -132q-42 -49 -108 -69v-98h-102v92z" />
    <glyph glyph-name="percent" unicode="%" horiz-adv-x="898" 
d="M537 197q0 206 156 206q161 0 161 -206q0 -205 -160 -205q-157 0 -157 205zM612 202q0 -143 83 -143q84 0 84 138t-83 138q-84 0 -84 -133zM612 680l56 -32l-383 -662l-56 32zM43 469q0 206 157 206q161 0 161 -206q0 -205 -160 -205q-158 0 -158 205zM118 474
q0 -143 83 -143q84 0 84 138t-83 138q-84 0 -84 -133z" />
    <glyph glyph-name="ampersand" unicode="&#x26;" horiz-adv-x="654" 
d="M327 370l136 -162q15 27 40 96l93 -26q-4 -11 -11 -32q-22 -69 -53 -119l107 -127h-123l-45 54q-81 -68 -182 -68q-103 0 -169 63q-57 55 -57 132q0 55 31 100t106 99l-1 2q-69 80 -69 146q0 70 50 114q44 38 106 38q69 0 114 -47q39 -41 39 -99q0 -45 -24.5 -81
t-87.5 -83zM273 434q47 39 61.5 58.5t14.5 44.5q0 27 -18 44.5t-46 17.5t-46.5 -19t-18.5 -48q0 -19 11 -39.5t42 -58.5zM408 129l-154 186q-50 -40 -70.5 -69t-20.5 -61q0 -49 41 -80q35 -27 85 -27q67 0 119 51z" />
    <glyph glyph-name="quotesingle" unicode="'" horiz-adv-x="177" 
d="M127 397h-77l-13 283h103z" />
    <glyph glyph-name="parenleft" unicode="(" horiz-adv-x="311" 
d="M166 742l89 -42q-77 -195 -77 -424q0 -230 77 -424l-89 -42q-17 36 -23 52q-29 71 -47.5 189t-18.5 228q0 140 26 268q23 111 63 195z" />
    <glyph glyph-name="parenright" unicode=")" horiz-adv-x="311" 
d="M146 -190l-89 42q77 196 77 424q0 227 -77 424l89 42q42 -90 65.5 -211t23.5 -252q0 -110 -18.5 -228t-47.5 -189q-6 -16 -23 -52z" />
    <glyph glyph-name="asterisk" unicode="*" horiz-adv-x="484" 
d="M89 666l111 -41l-5 118h94l-5 -118l111 41l29 -89l-114 -32l73 -93l-75 -55l-66 99l-66 -99l-75 55l73 93l-114 32z" />
    <glyph glyph-name="plus" unicode="+" horiz-adv-x="556" 
d="M232 357v200h91v-200h199v-45v-44h-199v-200h-91v200h-199v44v45h199z" />
    <glyph glyph-name="comma" unicode="," horiz-adv-x="248" 
d="M109 115l91 -34l-111 -250l-72 29z" />
    <glyph glyph-name="hyphen" unicode="-" horiz-adv-x="270" 
d="M26 358h218v-92h-218v92z" />
    <glyph glyph-name="period" unicode="." horiz-adv-x="243" 
d="M57 51q0 27 18.5 45t45.5 18t45.5 -18t18.5 -45q0 -26 -18.5 -44.5t-45.5 -18.5t-45.5 18.5t-18.5 44.5z" />
    <glyph glyph-name="slash" unicode="/" horiz-adv-x="552" 
d="M425 682l78 -47l-377 -650l-78 47z" />
    <glyph glyph-name="zero" unicode="0" horiz-adv-x="576" 
d="M33 333q0 347 255 347q254 0 254 -347t-254 -347q-255 0 -255 347zM139 342q0 -140 41 -204q37 -55 108 -55q149 0 149 254q0 79 -19 139q-16 53 -42 76q-36 32 -88 32q-61 0 -98 -41q-22 -26 -36.5 -82t-14.5 -119z" />
    <glyph glyph-name="one" unicode="1" horiz-adv-x="316" 
d="M243 0h-103v544l-91 -52l-49 84l158 91h85v-667z" />
    <glyph glyph-name="two" unicode="2" horiz-adv-x="489" 
d="M43 0v85l240 267q70 78 70 142q0 44 -32 68q-27 21 -70 21q-58 0 -84 -32q-19 -23 -34 -74l-95 26q41 177 215 177q97 0 153 -59q49 -51 49 -130q0 -95 -70 -172l-199 -223h283v-96h-426z" />
    <glyph glyph-name="three" unicode="3" horiz-adv-x="481" 
d="M9 169l101 27q15 -62 41.5 -87t74.5 -25q56 0 89 35q29 31 29 77q0 55 -35 82q-31 23 -86 23h-44v95h44q55 0 84 28q24 24 24 66q0 45 -31 71q-27 23 -69 23q-37 0 -61.5 -16t-51.5 -57l-86 47q40 68 91 97q45 25 107 25q95 0 153 -60q50 -52 50 -128q0 -82 -63 -137
q41 -33 59.5 -70.5t18.5 -88.5q0 -98 -71 -158q-62 -52 -152 -52q-100 0 -161 67q-21 23 -32.5 46t-21.5 65z" />
    <glyph glyph-name="four" unicode="4" horiz-adv-x="519" 
d="M390 632l-248 -396h167v159h103v-159h79v-94h-79v-142h-103v142h-286v92l283 450z" />
    <glyph glyph-name="five" unicode="5" horiz-adv-x="530" 
d="M457 571h-226l-27 -128q18 7 52 7q106 0 174 -74q59 -64 59 -154q0 -107 -78 -176q-67 -60 -161 -60q-70 0 -121 31.5t-96 102.5l83 57q23 -40 37 -55q37 -39 97 -39q63 0 102 44q34 38 34 92q0 62 -43 102q-38 34 -91 34q-57 0 -96 -42l-80 16l69 338h312v-96z" />
    <glyph glyph-name="six" unicode="6" horiz-adv-x="545" 
d="M392 624l-133 -187q8 3 19 3q102 0 169 -72q58 -62 58 -148q0 -105 -77 -174q-66 -60 -156 -60q-105 0 -175 77q-60 66 -60 156q0 80 52 154l223 311zM402 217q0 59 -42 96q-37 32 -89 32q-60 0 -98 -42q-33 -36 -33 -88q0 -60 42 -99q37 -33 88 -33q60 0 98 43
q34 38 34 91z" />
    <glyph glyph-name="seven" unicode="7" horiz-adv-x="453" 
d="M35 30l293 541h-318v96h440v-77l-325 -607z" />
    <glyph glyph-name="eight" unicode="8" horiz-adv-x="513" 
d="M120 355q-66 60 -66 136q0 87 65 142q57 47 137 47q92 0 151 -61q51 -53 51 -128q0 -76 -66 -136q87 -66 87 -162q0 -95 -72 -155q-62 -52 -151 -52q-103 0 -167 67q-56 57 -56 140q0 96 87 162zM256 304q-57 0 -91 -35q-29 -30 -29 -76q0 -53 38 -85q33 -28 82 -28
q57 0 91 36q29 31 29 77q0 53 -37 84q-33 27 -83 27zM362 491q0 46 -34 74q-29 24 -72 24q-49 0 -79 -31q-27 -28 -27 -67q0 -46 34 -74q29 -24 72 -24q49 0 80 31q26 27 26 67z" />
    <glyph glyph-name="nine" unicode="9" horiz-adv-x="548" 
d="M153 42l135 188q-10 -2 -22 -2q-101 0 -168 72q-57 62 -57 147q0 104 77 173q66 60 156 60q105 0 174 -76q61 -66 61 -156q0 -81 -53 -154l-222 -311zM144 450q0 -59 42 -96q36 -32 88 -32q61 0 99 42q33 36 33 87q0 61 -43 100q-36 33 -88 33q-59 0 -98 -44
q-33 -37 -33 -90z" />
    <glyph glyph-name="colon" unicode=":" horiz-adv-x="243" 
d="M57 51q0 27 18.5 45t45.5 18t45.5 -18t18.5 -45q0 -26 -18.5 -44.5t-45.5 -18.5t-45.5 18.5t-18.5 44.5zM57 366q0 26 18.5 44.5t45.5 18.5t45.5 -18.5t18.5 -44.5q0 -27 -18.5 -45.5t-45.5 -18.5t-45.5 18.5t-18.5 45.5z" />
    <glyph glyph-name="semicolon" unicode=";" horiz-adv-x="245" 
d="M109 115l91 -34l-111 -250l-72 29zM76 365q0 27 18.5 45.5t45.5 18.5q26 0 45 -18.5t19 -44.5q0 -27 -19 -45.5t-45 -18.5q-27 0 -45.5 18.5t-18.5 44.5z" />
    <glyph glyph-name="less" unicode="&#x3c;" horiz-adv-x="569" 
d="M515 594v-105l-334 -152l334 -153v-104l-460 216v82z" />
    <glyph glyph-name="equal" unicode="=" horiz-adv-x="556" 
d="M494 432v-89h-431v89h431zM494 282v-89h-431v89h431z" />
    <glyph glyph-name="greater" unicode="&#x3e;" horiz-adv-x="569" 
d="M55 80v104l334 153l-334 153v104l460 -217v-81z" />
    <glyph glyph-name="question" unicode="?" horiz-adv-x="431" 
d="M159 164v69q0 47 12 72.5t49 56.5l42 36q56 48 56 100q0 42 -29 65q-25 20 -66 20q-40 0 -64.5 -17t-55.5 -65l-76 62q64 117 192 117q98 0 154 -56q48 -49 48 -126q0 -47 -18.5 -83.5t-65.5 -80.5l-47 -44q-22 -20 -25.5 -28.5t-3.5 -36.5v-61h-102zM146 51q0 27 19 45
t45 18q27 0 45.5 -18t18.5 -45q0 -26 -18.5 -44.5t-45.5 -18.5q-26 0 -45 18.5t-19 44.5z" />
    <glyph glyph-name="at" unicode="@" horiz-adv-x="898" 
d="M634 528l-43 -334h10q76 0 115 54q33 46 33 127t-35 145q-31 55 -82 84q-61 35 -148 35q-163 0 -255 -98q-81 -84 -81 -217q0 -129 81 -210q86 -86 253 -86q99 0 222 39l26 -72q-119 -42 -249 -42q-147 0 -243 56q-85 48 -129 139q-39 80 -39 175q0 92 36 172
q31 70 85 119q56 51 138 77q72 23 152 23q168 0 264 -104q83 -91 83 -232q0 -85 -34 -147q-30 -54 -82 -83q-51 -29 -137 -29h-134q-88 0 -139 57q-44 50 -44 127q0 49 19 93.5t51 74.5q62 57 177 57h129zM511 194l33 258h-48q-78 0 -120 -44q-37 -38 -37 -102q0 -56 33 -86
q29 -26 77 -26h62z" />
    <glyph glyph-name="A" unicode="A" horiz-adv-x="631" 
d="M172 172l-63 -172h-109l251 667h128l252 -667h-110l-63 172h-286zM207 268h215l-107 291z" />
    <glyph glyph-name="B" unicode="B" horiz-adv-x="526" 
d="M73 0v667h149q97 0 148 -30q40 -23 64 -65t24 -89q0 -73 -62 -129q47 -24 72 -71q22 -41 22 -91q0 -52 -25.5 -94.5t-73.5 -69.5q-51 -28 -137 -28h-181zM175 386h58q56 0 81 13q45 26 45 81q0 42 -28 69q-25 24 -98 24h-58v-187zM175 95h74q60 0 90 17q49 27 49 83
q0 26 -12.5 48.5t-33.5 34.5q-32 18 -102 18h-65v-201z" />
    <glyph glyph-name="C" unicode="C" horiz-adv-x="670" 
d="M567 492q-47 50 -88 70.5t-95 20.5q-111 0 -182 -82q-62 -70 -62 -168q0 -112 80 -185q68 -64 163 -64q80 0 144 52q14 11 43 41l73 -71q-64 -64 -124 -92t-134 -28q-96 0 -177 47q-79 46 -126 124q-47 81 -47 176t47 176q46 78 125 124q82 47 177 47q74 0 134.5 -28
t121.5 -90z" />
    <glyph glyph-name="D" unicode="D" horiz-adv-x="619" 
d="M73 667h148q178 0 276 -102q86 -89 86 -231q0 -164 -111 -255q-96 -79 -251 -79h-148v667zM177 570v-474h47q126 0 195 73q60 62 60 165q0 117 -78 181q-67 55 -177 55h-47z" />
    <glyph glyph-name="E" unicode="E" horiz-adv-x="481" 
d="M435 571h-258v-185h230v-96h-230v-194h268v-96h-372v667h362v-96z" />
    <glyph glyph-name="F" unicode="F" horiz-adv-x="443" 
d="M413 571h-236v-185h215v-96h-215v-290h-104v667h340v-96z" />
    <glyph glyph-name="G" unicode="G" horiz-adv-x="727" 
d="M392 359h297v-50q0 -156 -94 -245q-82 -78 -209 -78q-96 0 -178 47q-79 46 -125 124q-48 81 -48 176t47 176q46 78 125 124q81 47 176 47q120 0 210 -73q14 -12 47 -44l-73 -70q-48 50 -89 70t-94 20q-111 0 -182 -82q-62 -70 -62 -168q0 -112 80 -186q69 -63 165 -63
q101 0 157 71q17 23 25.5 46t14.5 62h-190v96z" />
    <glyph glyph-name="H" unicode="H" horiz-adv-x="650" 
d="M73 667h104v-281h296v281h104v-667h-104v290h-296v-290h-104v667z" />
    <glyph glyph-name="I" unicode="I" horiz-adv-x="250" 
d="M177 667v-667h-104v667h104z" />
    <glyph glyph-name="J" unicode="J" horiz-adv-x="416" 
d="M343 667v-462q0 -51 -6 -80.5t-22 -58.5q-22 -37 -61 -58.5t-86 -21.5t-86 19t-85 64l65 75q31 -33 55 -46.5t50 -13.5q72 0 72 121v462h104z" />
    <glyph glyph-name="K" unicode="K" horiz-adv-x="584" 
d="M323 386l258 -386h-122l-206 310l-76 -83v-227h-104v667h104v-301l276 301h128z" />
    <glyph glyph-name="L" unicode="L" horiz-adv-x="432" 
d="M177 667v-571h249v-96h-353v667h104z" />
    <glyph glyph-name="M" unicode="M" horiz-adv-x="804" 
d="M73 0v667h101l228 -406l228 406h101v-667h-104v471l-184 -328h-82l-184 328v-471h-104z" />
    <glyph glyph-name="N" unicode="N" horiz-adv-x="708" 
d="M73 0v667h91l367 -491v491h104v-667h-92l-366 491v-491h-104z" />
    <glyph glyph-name="O" unicode="O" horiz-adv-x="762" 
d="M35 333q0 93 47 175q47 78 125 125q81 47 174 47t174 -47q78 -47 124 -125q48 -82 48 -175t-48 -174q-46 -79 -124 -125q-81 -48 -174 -48t-174 48q-78 46 -124 125q-48 81 -48 174zM140 333q0 -110 80 -185q69 -64 161 -64q106 0 178 82q62 72 62 167q0 111 -79 185
q-68 65 -161 65q-107 0 -179 -83q-62 -71 -62 -167z" />
    <glyph glyph-name="P" unicode="P" horiz-adv-x="472" 
d="M73 667h148q91 0 141 -29q48 -27 73 -78q23 -45 23 -97q0 -61 -29 -110q-26 -43 -67 -67q-50 -28 -141 -28h-44v-258h-104v667zM177 352h52q73 0 101 32q26 31 26 79q0 67 -47 94q-28 15 -80 15h-52v-220z" />
    <glyph glyph-name="Q" unicode="Q" horiz-adv-x="760" 
d="M623 87l62 -61l-71 -70l-72 71q-78 -41 -162 -41q-93 0 -173 48q-78 46 -124 125q-48 81 -48 174t48 175q46 78 124 125q81 47 174 47t174 -47q78 -47 124 -126q48 -81 48 -174q0 -143 -104 -246zM466 102l-47 46l71 71l61 -61q70 74 70 174q0 112 -79 186
q-68 65 -161 65q-108 0 -179 -83q-62 -71 -62 -167q0 -110 80 -184q68 -65 159 -65q42 0 87 18z" />
    <glyph glyph-name="R" unicode="R" horiz-adv-x="547" 
d="M369 285l159 -285h-116l-144 260q-27 -2 -47 -2h-44v-258h-104v667h148q100 0 154 -31q49 -28 76 -80q23 -44 23 -96q0 -61 -31 -109q-28 -42 -74 -66zM177 352h52q63 0 95 18q48 27 48 91q0 65 -49 93q-32 18 -94 18h-52v-220z" />
    <glyph glyph-name="S" unicode="S" horiz-adv-x="515" 
d="M463 559l-84 -53q-29 44 -53.5 61t-60.5 17q-46 0 -75 -30q-26 -26 -26 -63q0 -54 85 -86l63 -25q88 -34 127 -82q34 -43 34 -102q0 -95 -72 -156q-62 -54 -149 -54q-51 0 -96 20.5t-74 57.5q-33 42 -49 114l101 27q2 -9 4 -16q27 -105 116 -105q51 0 85 36q29 32 29 75
q0 33 -23 55t-79 44l-61 23q-144 56 -144 175q0 86 67 141q57 47 140 47q64 0 110 -28.5t85 -92.5z" />
    <glyph glyph-name="T" unicode="T" horiz-adv-x="436" 
d="M436 571h-166v-571h-104v571h-166v96h436v-96z" />
    <glyph glyph-name="U" unicode="U" horiz-adv-x="638" 
d="M73 667h104v-411q0 -79 17 -109q16 -28 51 -45.5t74 -17.5q38 0 73 17.5t51 45.5q18 30 18 109v411h103v-430q0 -84 -29 -134q-33 -57 -97 -89q-56 -28 -119 -28q-73 0 -135 36q-53 31 -82 81t-29 134v430z" />
    <glyph glyph-name="V" unicode="V" horiz-adv-x="565" 
d="M0 667h109l173 -526l174 526h109l-222 -667h-121z" />
    <glyph glyph-name="W" unicode="W" horiz-adv-x="878" 
d="M108 667l141 -493l146 493h88l146 -493l141 493h108l-200 -667h-50h-48l-141 473l-141 -473h-48h-50l-200 667h108z" />
    <glyph glyph-name="X" unicode="X" horiz-adv-x="555" 
d="M536 667l-200 -318l219 -349h-118l-160 257l-161 -257h-116l219 347l-200 320h117l142 -229l143 229h115z" />
    <glyph glyph-name="Y" unicode="Y" horiz-adv-x="529" 
d="M535 667l-219 -390v-277h-104v277l-219 390h115l156 -286l156 286h115z" />
    <glyph glyph-name="Z" unicode="Z" horiz-adv-x="511" 
d="M485 583l-337 -487h345v-96h-476v84l343 487h-314v96h439v-84z" />
    <glyph glyph-name="bracketleft" unicode="[" horiz-adv-x="305" 
d="M178 638v-724h89v-93h-190v910h190v-93h-89z" />
    <glyph glyph-name="backslash" unicode="\" horiz-adv-x="552" 
d="M126 682l377 -650l-78 -47l-377 650z" />
    <glyph glyph-name="bracketright" unicode="]" horiz-adv-x="305" 
d="M127 638h-89v93h190v-910h-190v93h89v724z" />
    <glyph glyph-name="asciicircum" unicode="^" horiz-adv-x="545" 
d="M528 347h-121l-135 229l-134 -229h-120l196 339h118z" />
    <glyph glyph-name="underscore" unicode="_" horiz-adv-x="513" 
d="M-7 -53h527v-90h-527v90z" />
    <glyph glyph-name="grave" unicode="`" horiz-adv-x="476" 
d="M91 644l95 51l115 -158l-66 -38z" />
    <glyph glyph-name="a" unicode="a" horiz-adv-x="545" 
d="M489 0h-100v38q-67 -52 -136 -52q-99 0 -167 79q-58 68 -58 157q0 103 75 174q64 61 150 61q68 0 136 -52v38h100v-443zM261 367q-63 0 -100 -46q-32 -39 -32 -99q0 -69 41 -110q36 -35 91 -35q61 0 98 45q32 40 32 100q0 69 -41 109q-35 36 -89 36z" />
    <glyph glyph-name="b" unicode="b" horiz-adv-x="545" 
d="M56 0v667h100v-262q68 52 136 52q99 0 167 -78q58 -68 58 -157q0 -103 -75 -174q-64 -62 -150 -62q-69 0 -136 52v-38h-100zM416 222q0 68 -41 109q-36 36 -90 36q-62 0 -98 -46q-32 -39 -32 -99q0 -69 41 -110q35 -35 88 -35q63 0 100 46q32 39 32 99z" />
    <glyph glyph-name="c" unicode="c" horiz-adv-x="462" 
d="M378 306q-33 35 -57 48t-58 13q-64 0 -102 -46q-32 -39 -32 -99q0 -70 42 -110q36 -35 92 -35q35 0 61.5 14t56.5 50l66 -65q-44 -48 -87 -69t-97 -21q-107 0 -176 77q-59 66 -59 159q0 107 76 176q66 59 158 59q54 0 96.5 -20t85.5 -66z" />
    <glyph glyph-name="d" unicode="d" horiz-adv-x="545" 
d="M489 0h-100v38q-67 -52 -136 -52q-99 0 -167 79q-58 68 -58 157q0 103 75 174q64 61 150 61q68 0 136 -52v262h100v-667zM261 367q-63 0 -100 -46q-32 -39 -32 -99q0 -69 41 -110q36 -35 91 -35q61 0 97 46q32 39 32 99q0 69 -41 109q-35 36 -88 36z" />
    <glyph glyph-name="e" unicode="e" horiz-adv-x="494" 
d="M466 183h-335q11 -54 47 -82q32 -24 77 -24q77 0 117 65l4 6l86 -36q-75 -126 -207 -126q-104 0 -170 76q-57 66 -57 160q0 106 72 175q63 60 149 60q101 0 163 -78q54 -68 54 -167v-29zM367 260q-27 108 -117 108q-49 0 -81 -32q-29 -28 -38 -76h236z" />
    <glyph glyph-name="f" unicode="f" horiz-adv-x="259" 
d="M245 353h-77v-353h-100v353h-43v90h43v84q0 76 35 114q30 33 83 33q26 0 58 -7v-90q-25 7 -39 7q-37 0 -37 -57v-84h77v-90z" />
    <glyph glyph-name="g" unicode="g" horiz-adv-x="545" 
d="M489 443v-452q0 -114 -74 -180q-64 -58 -163 -58q-102 0 -172 64q-12 12 -41 45l65 65q9 -10 12 -14q35 -40 63 -55t71 -15q71 0 107 45q32 38 32 103v47q-59 -52 -132 -52q-102 0 -170 78q-59 67 -59 158q0 105 75 175q66 60 154 60q71 0 132 -52v38h100zM261 367
q-63 0 -100 -46q-32 -39 -32 -99q0 -69 41 -110q36 -35 90 -35q62 0 98 45q32 40 32 100q0 69 -41 109q-35 36 -88 36z" />
    <glyph glyph-name="h" unicode="h" horiz-adv-x="509" 
d="M56 667h100v-256q48 46 112 46q53 0 98 -26q39 -24 60 -61q27 -46 27 -131v-239h-100v231q0 66 -16 95q-21 39 -78 39q-28 0 -51.5 -12t-35.5 -31q-16 -30 -16 -100v-222h-100v667z" />
    <glyph glyph-name="i" unicode="i" horiz-adv-x="213" 
d="M156 443v-443h-99v443h99zM42 593q0 26 19 44.5t46 18.5q26 0 45 -18.5t19 -44.5q0 -27 -19 -45.5t-46 -18.5q-26 0 -45 18.5t-19 45.5z" />
    <glyph glyph-name="j" unicode="j" horiz-adv-x="223" 
d="M52 593q0 26 18.5 44.5t45.5 18.5t46 -18.5t19 -44.5q0 -27 -19 -45.5t-46 -18.5t-45.5 18.5t-18.5 45.5zM-10 -139q32 -9 47 -9q29 0 29 54v537h100v-537q0 -76 -34 -114q-30 -34 -82 -34q-27 0 -60 10v93z" />
    <glyph glyph-name="k" unicode="k" horiz-adv-x="476" 
d="M277 259l204 -259h-123l-149 192l-53 -52v-140h-100v667h100v-400l178 176h131z" />
    <glyph glyph-name="l" unicode="l" horiz-adv-x="214" 
d="M157 0h-100v667h100v-667z" />
    <glyph glyph-name="m" unicode="m" horiz-adv-x="773" 
d="M388 397q55 60 138 60q57 0 102 -27q40 -23 62 -63q26 -46 26 -128v-239h-100v231q0 67 -16 98q-19 36 -69 36q-25 0 -46.5 -11t-31.5 -30q-16 -30 -16 -103v-221h-100v231q0 67 -16 98q-19 36 -70 36q-25 0 -46.5 -11t-31.5 -30q-17 -30 -17 -103v-221h-100v443h100v-32
q44 46 106 46q73 0 126 -60z" />
    <glyph glyph-name="n" unicode="n" horiz-adv-x="509" 
d="M56 443h100v-32q48 46 112 46q53 0 98 -27q39 -23 60 -60q27 -46 27 -131v-239h-100v231q0 66 -16 95q-21 39 -78 39q-28 0 -51.5 -12t-35.5 -31q-16 -30 -16 -100v-222h-100v443z" />
    <glyph glyph-name="o" unicode="o" horiz-adv-x="522" 
d="M261 457q106 0 174 -77q59 -66 59 -158q0 -107 -76 -176q-65 -60 -157 -60q-105 0 -174 77q-59 67 -59 159q0 106 76 175q66 60 157 60zM261 367q-63 0 -100 -46q-32 -39 -32 -99q0 -69 41 -110q37 -35 91 -35q63 0 100 45q33 40 33 100q0 69 -42 109q-36 36 -91 36z" />
    <glyph glyph-name="p" unicode="p" horiz-adv-x="545" 
d="M56 443h100v-38q67 52 136 52q99 0 167 -78q58 -68 58 -158q0 -103 -75 -174q-64 -61 -150 -61q-68 0 -136 52v-271h-100v676zM284 77q63 0 100 45q32 40 32 99q0 69 -41 110q-36 36 -91 36q-61 0 -97 -46q-32 -40 -32 -100q0 -68 41 -109q35 -35 88 -35z" />
    <glyph glyph-name="q" unicode="q" horiz-adv-x="545" 
d="M489 443v-676h-100v271q-68 -52 -136 -52q-99 0 -167 79q-58 67 -58 156q0 104 75 175q64 61 150 61q69 0 136 -52v38h100zM261 77q61 0 97 45q32 40 32 99q0 69 -41 110q-35 36 -88 36q-63 0 -100 -46q-32 -40 -32 -100q0 -68 41 -109q37 -35 91 -35z" />
    <glyph glyph-name="r" unicode="r" horiz-adv-x="302" 
d="M56 443h100v-35q28 23 47 30t48 7q16 0 37 -2v-89q-25 1 -35 1q-60 0 -81 -39q-16 -32 -16 -102v-214h-100v443z" />
    <glyph glyph-name="s" unicode="s" horiz-adv-x="380" 
d="M105 149q21 -41 39.5 -57t46.5 -16q27 0 44 15.5t17 39.5q0 18 -12.5 28t-51.5 25l-45 18q-97 37 -97 119q0 62 49 102q42 34 102 34q97 0 148 -97l-78 -39q-18 27 -34 37.5t-37 10.5q-25 0 -40 -12.5t-15 -32.5q0 -18 11.5 -27t51.5 -25l42 -16q55 -21 80.5 -50
t25.5 -71q0 -68 -53 -111q-45 -38 -109 -38q-118 0 -167 130z" />
    <glyph glyph-name="t" unicode="t" horiz-adv-x="260" 
d="M232 443v-90h-70v-213q0 -54 30 -54q15 0 47 9v-93q-33 -10 -61 -10q-59 0 -89 44q-26 38 -26 104v213h-48v90h48v99l99 39v-138h70z" />
    <glyph glyph-name="u" unicode="u" horiz-adv-x="509" 
d="M453 0h-100v32q-48 -46 -113 -46q-52 0 -97 27q-39 23 -60 60q-27 46 -27 131v239h100v-231q0 -65 16 -95q21 -39 78 -39q28 0 51.5 12t34.5 31q17 31 17 101v221h100v-443z" />
    <glyph glyph-name="v" unicode="v" horiz-adv-x="460" 
d="M-6 443h108l128 -305l129 305h107l-190 -443h-91z" />
    <glyph glyph-name="w" unicode="w" horiz-adv-x="664" 
d="M101 443l96 -282l95 282h80l96 -282l96 282h106l-163 -443h-80l-95 279l-95 -279h-80l-163 443h107z" />
    <glyph glyph-name="x" unicode="x" horiz-adv-x="466" 
d="M455 443l-163 -213l175 -230h-118l-116 154l-117 -154h-118l176 229l-163 214h118l104 -138l105 138h117z" />
    <glyph glyph-name="y" unicode="y" horiz-adv-x="463" 
d="M64 -233l112 254l-182 422h108l127 -301l132 301h108l-300 -676h-105z" />
    <glyph glyph-name="z" unicode="z" horiz-adv-x="414" 
d="M395 367l-242 -277h251v-90h-382v76l243 278h-229v89h359v-76z" />
    <glyph glyph-name="braceleft" unicode="{" horiz-adv-x="310" 
d="M271 -88v-90q-31 -1 -41 -1q-76 0 -108 41q-29 36 -29 110v190q0 39 -10.5 53.5t-44.5 23.5v80q34 9 44.5 23t10.5 49v189q0 84 38 120q32 31 98 31q10 0 42 -1v-90h-11q-9 1 -17 1q-33 0 -41 -9t-8 -44v-201q0 -42 -10 -66.5t-35 -44.5q25 -20 35 -45.5t10 -68.5v-198
q0 -35 9.5 -44t46.5 -9z" />
    <glyph glyph-name="bar" unicode="|" horiz-adv-x="514" 
d="M208 728h99v-904h-99v904z" />
    <glyph glyph-name="braceright" unicode="}" horiz-adv-x="310" 
d="M38 -88l21 -1q37 0 46.5 9t9.5 44v198q0 43 10 68.5t35 45.5q-25 20 -35 44.5t-10 66.5v201q0 34 -9 43.5t-43 9.5h-8q-2 -1 -9 -1h-8v90q32 1 41 1q76 0 108 -41q29 -37 29 -110v-189q0 -35 10.5 -49t44.5 -23v-80q-35 -9 -45 -23.5t-10 -53.5v-190q0 -84 -38 -120
q-33 -31 -99 -31q-10 0 -41 1v90z" />
    <glyph glyph-name="asciitilde" unicode="~" horiz-adv-x="687" 
d="M151 564l-65 42q34 68 64 98q15 15 39.5 24.5t49.5 9.5q45 0 118 -35q63 -30 92 -30q25 0 42.5 14.5t42.5 57.5l66 -39q-30 -61 -60 -90q-18 -17 -45.5 -28.5t-50.5 -11.5q-28 0 -52.5 8t-97.5 40q-37 17 -62 17q-22 0 -40 -17t-41 -60z" />
    <glyph glyph-name="nonbreakingspace" unicode="&#xa0;" horiz-adv-x="237" 
 />
    <glyph glyph-name="exclamdown" unicode="&#xa1;" horiz-adv-x="295" 
d="M83 432q0 26 18.5 44.5t45.5 18.5t45.5 -18.5t18.5 -44.5q0 -27 -18.5 -45.5t-45.5 -18.5t-45.5 18.5t-18.5 45.5zM100 319h94l9 -503h-112z" />
    <glyph glyph-name="cent" unicode="&#xa2;" horiz-adv-x="554" 
d="M240 104q-86 21 -135 91q-43 61 -43 138q0 90 55 155q48 56 123 74v105h102v-103q40 -9 71 -27t65 -55l-66 -65q-33 35 -57 48t-58 13q-64 0 -102 -45q-32 -39 -32 -100q0 -69 42 -110q36 -35 92 -35q35 0 61.5 14.5t56.5 50.5l66 -65q-63 -70 -139 -86v-102h-102v104z
" />
    <glyph glyph-name="sterling" unicode="&#xa3;" horiz-adv-x="563" 
d="M225 381h201v-93h-181q10 -51 10 -93q0 -28 -8.5 -50t-29.5 -49h303v-96h-452v90l12 9q40 32 55 54.5t15 52.5q0 34 -11 82h-71v93h51q-7 44 -7 82q0 110 64 166q60 51 143 51q121 0 187 -121l-83 -52q-25 42 -49.5 59.5t-58.5 17.5q-50 0 -77 -36q-24 -30 -24 -80
q0 -35 11 -87z" />
    <glyph glyph-name="currency" unicode="&#xa4;" horiz-adv-x="724" 
d="M228 526q62 43 134 43t135 -43l86 88l56 -55l-88 -89q42 -64 42 -136q0 -75 -41 -136l87 -89l-55 -56l-87 88q-63 -43 -135 -43q-70 0 -135 43l-87 -88l-55 56l88 89q-41 61 -41 136q0 70 41 136l-88 89l56 55zM362 483q-65 0 -104 -47q-33 -41 -33 -102q0 -71 43 -113
q38 -37 94 -37q65 0 104 47q34 41 34 103q0 70 -44 112q-37 37 -94 37z" />
    <glyph glyph-name="yen" unicode="&#xa5;" horiz-adv-x="556" 
d="M69 224v87h138l-24 43h-114v87h65l-127 226h115l156 -286l156 286h115l-127 -226h65v-87h-113l-25 -43h138v-87h-157v-224h-104v224h-157z" />
    <glyph glyph-name="brokenbar" unicode="&#xa6;" horiz-adv-x="514" 
d="M307 348h-99v380h99v-380zM307 210v-386h-99v386h99z" />
    <glyph glyph-name="section" unicode="&#xa7;" horiz-adv-x="560" 
d="M445 54q40 -46 40 -110q0 -91 -66 -145q-57 -46 -145 -46q-110 0 -180 80q-20 23 -47 72l85 54q31 -54 56 -77q35 -32 90 -32q48 0 77 30q25 25 25 64q0 32 -23.5 55t-81.5 45l-61 24q-145 56 -145 177q0 73 55 131q-44 47 -44 114q0 87 67 142q59 48 141 48
q64 0 109.5 -28.5t85.5 -93.5l-85 -54q-29 46 -53 63t-60 17q-47 0 -76 -31q-26 -27 -26 -64q0 -54 87 -87l64 -25q89 -34 128 -84q35 -43 35 -103q0 -80 -52 -136zM359 115q31 36 31 74q0 34 -23 56t-81 44l-69 27q-3 2 -7 3q-38 -34 -38 -74q0 -56 85 -89l64 -24
q15 -6 38 -17z" />
    <glyph glyph-name="dieresis" unicode="&#xa8;" horiz-adv-x="476" 
d="M266 593q0 26 18.5 44.5t45.5 18.5t45.5 -18.5t18.5 -44.5t-18.5 -45t-45.5 -19t-45.5 18.5t-18.5 45.5zM82 593q0 26 18.5 44.5t45.5 18.5t45.5 -18.5t18.5 -44.5q0 -27 -18.5 -45.5t-45.5 -18.5t-45.5 18.5t-18.5 45.5z" />
    <glyph glyph-name="copyright" unicode="&#xa9;" horiz-adv-x="843" 
d="M559 425q-36 38 -60 50.5t-60 12.5q-68 0 -112 -50q-38 -44 -38 -105q0 -69 49 -115q42 -39 101 -39q35 0 59.5 12.5t62.5 51.5l59 -58l-12 -11q-41 -40 -80.5 -57.5t-87.5 -17.5q-106 0 -176 77q-61 66 -61 157q0 105 78 175q67 60 158 60q83 0 142 -51q10 -9 37 -34z
M421 712q103 0 191 -52q86 -50 136 -136q52 -88 52 -191t-52 -191q-50 -85 -136 -135q-88 -52 -191 -52q-102 0 -191 52q-85 50 -135 135q-52 89 -52 191q0 103 52 191q50 86 135 136q89 52 191 52zM421 641q-83 0 -155 -42q-69 -41 -110 -111q-42 -71 -42 -155
q0 -83 42 -155q41 -69 110 -110q72 -42 155 -42q84 0 155 42q70 41 111 110q42 72 42 155q0 84 -42 155q-41 70 -111 111q-71 42 -155 42z" />
    <glyph glyph-name="ordfeminine" unicode="&#xaa;" horiz-adv-x="352" 
d="M316 406h-72v19q-34 -28 -74 -28q-64 0 -106 46q-37 40 -37 94q0 63 47 106q41 37 96 37q40 0 74 -27v19h72v-266zM173 616q-32 0 -53 -22t-21 -56q0 -35 20.5 -56t53.5 -21q32 0 52 21.5t20 56.5t-20 56t-52 21z" />
    <glyph glyph-name="guillemotleft" unicode="&#xab;" horiz-adv-x="467" 
d="M423 73l-67 -53l-164 202l164 205l66 -52l-120 -153zM260 73l-66 -53l-164 202l164 205l66 -52l-120 -153z" />
    <glyph glyph-name="logicalnot" unicode="&#xac;" horiz-adv-x="680" 
d="M620 68h-97v198h-463v91h560v-289z" />
    <glyph glyph-name="uni00AD" unicode="&#xad;" horiz-adv-x="270" 
d="M26 358h218v-92h-218v92z" />
    <glyph glyph-name="registered" unicode="&#xae;" horiz-adv-x="843" 
d="M505 297l107 -189h-93l-96 169h-51v-169h-84v450h117q66 0 101 -20q32 -18 50 -50.5t18 -70.5q0 -40 -18.5 -71.5t-50.5 -48.5zM372 480v-126h38q81 0 81 63t-81 63h-38zM421 712q103 0 191 -52q86 -50 136 -135q52 -89 52 -192t-52 -191q-50 -85 -136 -135
q-88 -52 -191 -52t-191 52q-85 50 -135 135q-52 89 -52 192q0 102 52 190q50 86 135 136q88 52 191 52zM421 641q-83 0 -155 -42q-69 -41 -110 -110q-42 -72 -42 -156q0 -83 42 -155q41 -69 110 -110q72 -42 155 -42q84 0 155 42q70 41 111 110q42 72 42 155q0 84 -42 155
q-41 70 -111 111q-71 42 -155 42z" />
    <glyph glyph-name="macron" unicode="&#xaf;" horiz-adv-x="476" 
d="M88 635h299v-89h-299v89z" />
    <glyph glyph-name="degree" unicode="&#xb0;" horiz-adv-x="336" 
d="M202 742q63 0 105 -47q36 -40 36 -94q0 -64 -47 -106q-40 -36 -94 -36q-63 0 -106 46q-36 41 -36 95q0 63 47 105q40 37 95 37zM202 667q-28 0 -47.5 -19.5t-19.5 -46.5q0 -28 19.5 -48t47.5 -20q27 0 46.5 20t19.5 47q0 28 -19.5 47.5t-46.5 19.5z" />
    <glyph glyph-name="plusminus" unicode="&#xb1;" horiz-adv-x="556" 
d="M232 418v200h91v-200h199v-89h-199v-200h-91v200h-199v89h199zM522 89v-89h-489v89h489z" />
    <glyph glyph-name="twosuperior" unicode="&#xb2;" horiz-adv-x="387" 
d="M62 406v57l146 155q40 43 40 78q0 21 -15 33t-40 12q-29 0 -42 -12.5t-25 -49.5l-68 18q26 112 136 112q61 0 96 -36q31 -31 31 -79q0 -57 -43 -103l-110 -118h162v-67h-268z" />
    <glyph glyph-name="threesuperior" unicode="&#xb3;" horiz-adv-x="387" 
d="M153 579v66h33q59 0 59 48q0 22 -15 35.5t-40 13.5q-21 0 -34.5 -9.5t-30.5 -34.5l-63 32q26 42 56 60.5t72 18.5q59 0 96 -37q32 -31 32 -77q0 -47 -35 -79q44 -36 44 -91q0 -59 -45 -96q-39 -31 -95 -31q-108 0 -136 111l-1 4l72 19q10 -38 24 -52t42 -14q29 0 46.5 16
t17.5 43q0 54 -66 54h-33z" />
    <glyph glyph-name="acute" unicode="&#xb4;" horiz-adv-x="476" 
d="M385 644l-144 -145l-66 38l115 158z" />
    <glyph glyph-name="mu" unicode="&#xb5;" horiz-adv-x="509" 
d="M453 0h-100v30q-46 -44 -102 -44q-54 0 -95 44v-263h-100v676h100v-233q0 -63 16 -93q21 -39 78 -39q28 0 51.5 12t34.5 31q17 31 17 101v221h100v-443z" />
    <glyph glyph-name="paragraph" unicode="&#xb6;" horiz-adv-x="643" 
d="M284 207h-4q-97 0 -163 76q-57 66 -57 154q0 104 74 171q63 59 152 59h314v-86h-64v-814h-90v814h-72v-814h-90v440z" />
    <glyph glyph-name="glyph195" unicode="&#xb7;" horiz-adv-x="240" 
d="M58 312q0 25 18.5 42.5t43.5 17.5q26 0 44.5 -17.5t18.5 -42.5q0 -26 -18.5 -43.5t-44.5 -17.5q-25 0 -43.5 18t-18.5 43z" />
    <glyph glyph-name="cedilla" unicode="&#xb8;" horiz-adv-x="476" 
d="M248 -30l91 -40l-118 -150l-71 36z" />
    <glyph glyph-name="onesuperior" unicode="&#xb9;" horiz-adv-x="387" 
d="M246 406h-74v308l-50 -27l-36 58l102 56h58v-395z" />
    <glyph glyph-name="ordmasculine" unicode="&#xba;" horiz-adv-x="346" 
d="M173 680q66 0 109 -46q37 -40 37 -95q0 -64 -47 -106q-42 -36 -99 -36q-66 0 -109 47q-37 40 -37 95q0 64 48 105q41 36 98 36zM173 616q-33 0 -53.5 -21.5t-20.5 -55.5t20.5 -55.5t53.5 -21.5t53.5 21.5t20.5 55.5t-20.5 55.5t-53.5 21.5z" />
    <glyph glyph-name="guillemotright" unicode="&#xbb;" horiz-adv-x="467" 
d="M206 73l121 149l-120 153l66 52l164 -205l-164 -202zM44 73l120 149l-120 153l67 52l163 -205l-163 -202z" />
    <glyph glyph-name="onequarter" unicode="&#xbc;" horiz-adv-x="833" 
d="M539 680l56 -32l-382 -662l-57 32zM441 142l174 265l61 -36l-146 -223h82v91h74v-91h48v-67h-48v-81h-74v81h-171v61zM213 272h-74v308l-50 -28l-36 59l102 56h58v-395z" />
    <glyph glyph-name="onehalf" unicode="&#xbd;" horiz-adv-x="833" 
d="M539 680l56 -32l-382 -662l-57 32zM213 272h-74v308l-50 -28l-36 59l102 56h58v-395zM493 0v57l145 155q41 43 41 78q0 21 -15 33t-41 12q-28 0 -41 -12.5t-25 -49.5l-68 18q25 112 135 112q61 0 97 -36q31 -31 31 -79q0 -57 -43 -103l-111 -118h163v-67h-268z" />
    <glyph glyph-name="threequarters" unicode="&#xbe;" horiz-adv-x="833" 
d="M600 680l56 -32l-383 -662l-56 32zM148 445v66h33q59 0 59 48q0 22 -15 35t-40 13q-21 0 -34.5 -9t-30.5 -35l-63 33q26 42 56 60.5t72 18.5q59 0 96 -37q32 -31 32 -78q0 -46 -35 -78q44 -36 44 -92q0 -59 -45 -95q-39 -31 -95 -31q-108 0 -136 111l-1 4l72 18
q10 -37 24 -51t42 -14q29 0 46.5 16t17.5 43q0 54 -66 54h-33zM480 142l174 265l61 -36l-147 -223h83v91h74v-91h47v-67h-47v-81h-74v81h-171v61z" />
    <glyph glyph-name="questiondown" unicode="&#xbf;" horiz-adv-x="431" 
d="M289 319v-69q0 -47 -12 -73t-49 -57l-42 -35q-56 -48 -56 -100q0 -42 29 -65q25 -20 66 -20q40 0 64.5 16.5t55.5 64.5l76 -61q-64 -118 -192 -118q-98 0 -154 57q-48 49 -48 125q0 48 19 84.5t65 80.5l47 44q22 20 25.5 28t3.5 37v61h102zM302 431q0 -26 -19 -44.5
t-45 -18.5q-27 0 -45.5 18.5t-18.5 45.5q0 26 18.5 44.5t45.5 18.5q26 0 45 -18.5t19 -45.5z" />
    <glyph glyph-name="Agrave" unicode="&#xc0;" horiz-adv-x="631" 
d="M172 172l-63 -172h-109l251 667h128l252 -667h-110l-63 172h-286zM207 268h215l-107 291zM168 844l95 51l115 -158l-66 -38z" />
    <glyph glyph-name="Aacute" unicode="&#xc1;" horiz-adv-x="631" 
d="M172 172l-63 -172h-109l251 667h128l252 -667h-110l-63 172h-286zM207 268h215l-107 291zM460 844l-144 -145l-66 38l115 158z" />
    <glyph glyph-name="Acircumflex" unicode="&#xc2;" horiz-adv-x="631" 
d="M172 172l-63 -172h-109l251 667h128l252 -667h-110l-63 172h-286zM207 268h215l-107 291zM315 787l-89 -88l-75 38l130 143h68l131 -143l-75 -38z" />
    <glyph glyph-name="Atilde" unicode="&#xc3;" horiz-adv-x="631" 
d="M172 172l-63 -172h-109l251 667h128l252 -667h-110l-63 172h-286zM207 268h215l-107 291zM383 857l82 -20q-8 -108 -91 -108q-38 0 -74 21q-24 13 -37 13q-10 0 -14 -25q-1 -3 -3 -13l-81 19q11 108 94 108q33 0 75 -22q21 -12 35 -12q11 0 13 30q0 2 1 8v1z" />
    <glyph glyph-name="Adieresis" unicode="&#xc4;" horiz-adv-x="631" 
d="M172 172l-63 -172h-109l251 667h128l252 -667h-110l-63 172h-286zM207 268h215l-107 291zM343 791q0 26 19 44.5t45 18.5q27 0 45.5 -18.5t18.5 -44.5q0 -27 -18.5 -45.5t-45.5 -18.5q-26 0 -45 18.5t-19 45.5zM159 791q0 26 19 44.5t45 18.5q27 0 46 -18.5t19 -44.5
q0 -27 -19 -45.5t-46 -18.5q-26 0 -45 18.5t-19 45.5z" />
    <glyph glyph-name="Aring" unicode="&#xc5;" horiz-adv-x="631" 
d="M172 172l-63 -172h-109l251 667h128l252 -667h-110l-63 172h-286zM207 268h215l-107 291zM213 791q0 44 34 74q29 26 68 26q46 0 76 -33q27 -28 27 -67q0 -45 -34 -75q-29 -26 -69 -26q-45 0 -76 33q-26 29 -26 68zM264 791q0 -22 15 -37t36 -15q22 0 37 15t15 37
q0 21 -15 36t-37 15q-21 0 -36 -15t-15 -36z" />
    <glyph glyph-name="AE" unicode="&#xc6;" horiz-adv-x="839" 
d="M432 172h-228l-88 -172h-116l347 667h447v-96h-258v-185h230v-96h-230v-194h268v-96h-372v172zM432 268v303h-24l-155 -303h179z" />
    <glyph glyph-name="Ccedilla" unicode="&#xc7;" horiz-adv-x="670" 
d="M567 492q-47 50 -88 70.5t-95 20.5q-111 0 -182 -82q-62 -70 -62 -168q0 -112 80 -185q68 -64 163 -64q80 0 144 52q14 11 43 41l73 -71q-64 -64 -124 -92t-134 -28q-96 0 -177 47q-79 46 -126 124q-47 81 -47 176t47 176q46 78 125 124q82 47 177 47q74 0 134.5 -28
t121.5 -90zM345 -30l92 -40l-118 -150l-71 36z" />
    <glyph glyph-name="Egrave" unicode="&#xc8;" horiz-adv-x="481" 
d="M435 571h-258v-185h230v-96h-230v-194h268v-96h-372v667h362v-96zM120 844l95 51l115 -158l-66 -38z" />
    <glyph glyph-name="Eacute" unicode="&#xc9;" horiz-adv-x="481" 
d="M435 571h-258v-185h230v-96h-230v-194h268v-96h-372v667h362v-96zM399 844l-144 -145l-66 38l115 158z" />
    <glyph glyph-name="Ecircumflex" unicode="&#xca;" horiz-adv-x="481" 
d="M435 571h-258v-185h230v-96h-230v-194h268v-96h-372v667h362v-96zM259 787l-89 -88l-75 38l130 143h69l130 -143l-75 -38z" />
    <glyph glyph-name="Edieresis" unicode="&#xcb;" horiz-adv-x="481" 
d="M435 571h-258v-185h230v-96h-230v-194h268v-96h-372v667h362v-96zM286 791q0 26 19 44.5t45 18.5q27 0 46 -18.5t19 -44.5q0 -27 -19 -45.5t-46 -18.5q-26 0 -45 18.5t-19 45.5zM102 791q0 26 19 44.5t45 18.5q27 0 46 -18.5t19 -44.5q0 -27 -19 -45.5t-46 -18.5
q-26 0 -45 18.5t-19 45.5z" />
    <glyph glyph-name="Igrave" unicode="&#xcc;" horiz-adv-x="250" 
d="M177 667v-667h-104v667h104zM-24 844l95 51l115 -158l-66 -38z" />
    <glyph glyph-name="Iacute" unicode="&#xcd;" horiz-adv-x="250" 
d="M177 667v-667h-104v667h104zM274 844l-144 -145l-66 38l115 158z" />
    <glyph glyph-name="Icircumflex" unicode="&#xce;" horiz-adv-x="250" 
d="M177 667v-667h-104v667h104zM125 787l-89 -88l-75 38l130 143h68l131 -143l-75 -38z" />
    <glyph glyph-name="Idieresis" unicode="&#xcf;" horiz-adv-x="250" 
d="M178 667v-667h-104v667h104zM134 791q0 26 18.5 44.5t45.5 18.5t45.5 -18.5t18.5 -44.5q0 -27 -18.5 -45.5t-45.5 -18.5q-26 0 -45 18.5t-19 45.5zM-11 791q0 26 18.5 44.5t45.5 18.5t45.5 -18.5t18.5 -44.5q0 -27 -18.5 -45.5t-45.5 -18.5q-26 0 -45 18.5t-19 45.5z" />
    <glyph glyph-name="Eth" unicode="&#xd0;" horiz-adv-x="631" 
d="M22 313v93h64v261h148q178 0 277 -102q85 -89 85 -231q0 -164 -110 -255q-97 -79 -252 -79h-148v313h-64zM190 406h149v-93h-149v-217h47q126 0 195 73q60 63 60 165q0 117 -78 181q-67 55 -177 55h-47v-164z" />
    <glyph glyph-name="Ntilde" unicode="&#xd1;" horiz-adv-x="708" 
d="M73 0v667h91l367 -491v491h104v-667h-92l-366 491v-491h-104zM424 857l83 -20q-9 -108 -92 -108q-37 0 -74 21q-24 13 -36 13q-11 0 -15 -25q-1 -3 -2 -13l-81 19q10 108 93 108q33 0 75 -22q21 -12 35 -12q11 0 13 30q0 2 1 8v1z" />
    <glyph glyph-name="Ograve" unicode="&#xd2;" horiz-adv-x="762" 
d="M35 333q0 93 47 175q47 78 125 125q81 47 174 47t174 -47q78 -47 124 -125q48 -82 48 -175t-48 -174q-46 -79 -124 -125q-81 -48 -174 -48t-174 48q-78 46 -124 125q-48 81 -48 174zM140 333q0 -110 80 -185q69 -64 161 -64q106 0 178 82q62 72 62 167q0 111 -79 185
q-68 65 -161 65q-107 0 -179 -83q-62 -71 -62 -167zM234 844l96 51l115 -158l-66 -38z" />
    <glyph glyph-name="Oacute" unicode="&#xd3;" horiz-adv-x="762" 
d="M35 333q0 93 47 175q47 78 125 125q81 47 174 47t174 -47q78 -47 124 -125q48 -82 48 -175t-48 -174q-46 -79 -124 -125q-81 -48 -174 -48t-174 48q-78 46 -124 125q-48 81 -48 174zM140 333q0 -110 80 -185q69 -64 161 -64q106 0 178 82q62 72 62 167q0 111 -79 185
q-68 65 -161 65q-107 0 -179 -83q-62 -71 -62 -167zM527 844l-144 -145l-66 38l115 158z" />
    <glyph glyph-name="Ocircumflex" unicode="&#xd4;" horiz-adv-x="762" 
d="M35 333q0 93 47 175q47 78 125 125q81 47 174 47t174 -47q78 -47 124 -125q48 -82 48 -175t-48 -174q-46 -79 -124 -125q-81 -48 -174 -48t-174 48q-78 46 -124 125q-48 81 -48 174zM140 333q0 -110 80 -185q69 -64 161 -64q106 0 178 82q62 72 62 167q0 111 -79 185
q-68 65 -161 65q-107 0 -179 -83q-62 -71 -62 -167zM381 787l-90 -88l-74 38l130 143h68l130 -143l-74 -38z" />
    <glyph glyph-name="Otilde" unicode="&#xd5;" horiz-adv-x="762" 
d="M35 333q0 93 47 175q47 78 125 125q81 47 174 47t174 -47q78 -47 124 -125q48 -82 48 -175t-48 -174q-46 -79 -124 -125q-81 -48 -174 -48t-174 48q-78 46 -124 125q-48 81 -48 174zM140 333q0 -110 80 -185q69 -64 161 -64q106 0 178 82q62 72 62 167q0 111 -79 185
q-68 65 -161 65q-107 0 -179 -83q-62 -71 -62 -167zM448 857l83 -20q-8 -108 -92 -108q-37 0 -73 21q-24 13 -37 13q-11 0 -15 -25q0 -2 -1 -9l-1 -4l-81 19q11 108 93 108q33 0 75 -22q22 -12 35 -12q11 0 14 30v8v1z" />
    <glyph glyph-name="Odieresis" unicode="&#xd6;" horiz-adv-x="762" 
d="M35 333q0 93 47 175q47 78 125 125q81 47 174 47t174 -47q78 -47 124 -125q48 -82 48 -175t-48 -174q-46 -79 -124 -125q-81 -48 -174 -48t-174 48q-78 46 -124 125q-48 81 -48 174zM140 333q0 -110 80 -185q69 -64 161 -64q106 0 178 82q62 72 62 167q0 111 -79 185
q-68 65 -161 65q-107 0 -179 -83q-62 -71 -62 -167zM409 791q0 26 18.5 44.5t45.5 18.5t45.5 -18.5t18.5 -44.5q0 -27 -19 -45.5t-45 -18.5q-27 0 -45.5 18.5t-18.5 45.5zM225 791q0 26 18.5 44.5t45.5 18.5t45.5 -18.5t18.5 -44.5q0 -27 -18.5 -45.5t-45.5 -18.5
t-45.5 18.5t-18.5 45.5z" />
    <glyph glyph-name="multiply" unicode="&#xd7;" horiz-adv-x="556" 
d="M214 312l-141 141l64 64l141 -141l141 141l63 -64l-141 -141l141 -141l-63 -64l-141 141l-141 -141l-64 64z" />
    <glyph glyph-name="Oslash" unicode="&#xd8;" horiz-adv-x="770" 
d="M114 119q-75 94 -75 213q0 94 48 175q46 79 124 126q81 47 174 47q120 0 215 -76l66 65l56 -55l-66 -66q75 -94 75 -215q0 -93 -48 -174q-46 -79 -124 -125q-81 -48 -174 -48q-119 0 -215 77l-66 -65l-57 55zM187 192l342 341q-66 50 -142 50q-110 0 -181 -83
q-62 -71 -62 -170q0 -72 43 -138zM583 475l-342 -341q67 -50 143 -50q108 0 179 83q62 71 62 168q0 74 -42 140z" />
    <glyph glyph-name="Ugrave" unicode="&#xd9;" horiz-adv-x="638" 
d="M73 667h104v-411q0 -79 17 -109q16 -28 51 -45.5t74 -17.5q38 0 73 17.5t51 45.5q18 30 18 109v411h103v-430q0 -84 -29 -134q-33 -57 -97 -89q-56 -28 -119 -28q-73 0 -135 36q-53 31 -82 81t-29 134v430zM179 844l95 51l115 -158l-66 -38z" />
    <glyph glyph-name="Uacute" unicode="&#xda;" horiz-adv-x="638" 
d="M73 667h104v-411q0 -79 17 -109q16 -28 51 -45.5t74 -17.5q38 0 73 17.5t51 45.5q18 30 18 109v411h103v-430q0 -84 -29 -134q-33 -57 -97 -89q-56 -28 -119 -28q-73 0 -135 36q-53 31 -82 81t-29 134v430zM458 844l-144 -145l-66 38l115 158z" />
    <glyph glyph-name="Ucircumflex" unicode="&#xdb;" horiz-adv-x="638" 
d="M73 667h104v-411q0 -79 17 -109q16 -28 51 -45.5t74 -17.5q38 0 73 17.5t51 45.5q18 30 18 109v411h103v-430q0 -84 -29 -134q-33 -57 -97 -89q-56 -28 -119 -28q-73 0 -135 36q-53 31 -82 81t-29 134v430zM319 787l-90 -88l-75 38l131 143h68l130 -143l-75 -38z" />
    <glyph glyph-name="Udieresis" unicode="&#xdc;" horiz-adv-x="638" 
d="M73 667h104v-411q0 -79 17 -109q16 -28 51 -45.5t74 -17.5q38 0 73 17.5t51 45.5q18 30 18 109v411h103v-430q0 -84 -29 -134q-33 -57 -97 -89q-56 -28 -119 -28q-73 0 -135 36q-53 31 -82 81t-29 134v430zM346 791q0 26 19 44.5t46 18.5q26 0 45 -18.5t19 -44.5
q0 -27 -19 -45.5t-45 -18.5q-27 0 -46 18.5t-19 45.5zM163 791q0 26 18.5 44.5t45.5 18.5q26 0 45 -18.5t19 -44.5q0 -27 -19 -45.5t-45 -18.5q-27 0 -45.5 18.5t-18.5 45.5z" />
    <glyph glyph-name="Yacute" unicode="&#xdd;" horiz-adv-x="529" 
d="M535 667l-219 -390v-277h-104v277l-219 390h115l156 -286l156 286h115zM404 844l-145 -145l-66 38l116 158z" />
    <glyph glyph-name="Thorn" unicode="&#xde;" horiz-adv-x="472" 
d="M177 573h44q91 0 141 -29q48 -27 73 -78q23 -45 23 -97q0 -61 -29 -110q-26 -43 -67 -67q-50 -28 -141 -28h-44v-164h-104v667h104v-94zM177 258h52q73 0 101 32q26 31 26 79q0 67 -47 94q-27 15 -80 15h-52v-220z" />
    <glyph glyph-name="germandbls" unicode="&#xdf;" horiz-adv-x="523" 
d="M56 0v492q0 87 59 141q52 47 127 47q91 0 145 -58q47 -51 47 -128q0 -76 -48 -124q31 -19 46 -33q24 -24 38 -61t14 -76q0 -96 -70 -151q-61 -49 -154 -49h-60v94h62q58 0 92 35q30 29 30 75t-33 78q-28 27 -91 27h-15v91h15q77 0 77 91q0 49 -28 76q-24 24 -63 24
q-44 0 -69 -30q-21 -27 -21 -69v-492h-100z" />
    <glyph glyph-name="agrave" unicode="&#xe0;" horiz-adv-x="545" 
d="M489 0h-100v38q-67 -52 -136 -52q-99 0 -167 79q-58 68 -58 157q0 103 75 174q64 61 150 61q68 0 136 -52v38h100v-443zM261 367q-63 0 -100 -46q-32 -39 -32 -99q0 -69 41 -110q36 -35 91 -35q61 0 98 45q32 40 32 100q0 69 -41 109q-35 36 -89 36zM112 644l95 51
l115 -158l-66 -38z" />
    <glyph glyph-name="aacute" unicode="&#xe1;" horiz-adv-x="545" 
d="M489 0h-100v38q-67 -52 -136 -52q-99 0 -167 79q-58 68 -58 157q0 103 75 174q64 61 150 61q68 0 136 -52v38h100v-443zM261 367q-63 0 -100 -46q-32 -39 -32 -99q0 -69 41 -110q36 -35 91 -35q61 0 98 45q32 40 32 100q0 69 -41 109q-35 36 -89 36zM411 644l-144 -145
l-66 38l115 158z" />
    <glyph glyph-name="acircumflex" unicode="&#xe2;" horiz-adv-x="545" 
d="M489 0h-100v38q-67 -52 -136 -52q-99 0 -167 79q-58 68 -58 157q0 103 75 174q64 61 150 61q68 0 136 -52v38h100v-443zM261 367q-63 0 -100 -46q-32 -39 -32 -99q0 -69 41 -110q36 -35 91 -35q61 0 98 45q32 40 32 100q0 69 -41 109q-35 36 -89 36zM259 587l-90 -88
l-75 38l131 143h68l130 -143l-75 -38z" />
    <glyph glyph-name="atilde" unicode="&#xe3;" horiz-adv-x="545" 
d="M489 0h-100v38q-67 -52 -136 -52q-99 0 -167 79q-58 68 -58 157q0 103 75 174q64 61 150 61q68 0 136 -52v38h100v-443zM261 367q-63 0 -100 -46q-32 -39 -32 -99q0 -69 41 -110q36 -35 91 -35q61 0 98 45q32 40 32 100q0 69 -41 109q-35 36 -89 36zM326 657l82 -20
q-8 -108 -91 -108q-37 0 -74 21q-24 13 -36 13q-11 0 -15 -25q-1 -3 -3 -13l-81 19q11 108 94 108q33 0 75 -22q21 -12 35 -12q11 0 13 30q0 2 1 8v1z" />
    <glyph glyph-name="adieresis" unicode="&#xe4;" horiz-adv-x="545" 
d="M489 0h-100v38q-67 -52 -136 -52q-99 0 -167 79q-58 68 -58 157q0 103 75 174q64 61 150 61q68 0 136 -52v38h100v-443zM261 367q-63 0 -100 -46q-32 -39 -32 -99q0 -69 41 -110q36 -35 91 -35q61 0 98 45q32 40 32 100q0 69 -41 109q-35 36 -89 36zM294 593
q0 26 19 44.5t46 18.5q26 0 45 -18.5t19 -44.5t-19 -45t-45 -19q-27 0 -46 18.5t-19 45.5zM111 593q0 26 18.5 44.5t45.5 18.5t45.5 -18.5t18.5 -44.5q0 -27 -18.5 -45.5t-45.5 -18.5t-45.5 18.5t-18.5 45.5z" />
    <glyph glyph-name="aring" unicode="&#xe5;" horiz-adv-x="545" 
d="M489 0h-100v38q-67 -52 -136 -52q-99 0 -167 79q-58 68 -58 157q0 103 75 174q64 61 150 61q68 0 136 -52v38h100v-443zM261 367q-63 0 -100 -46q-32 -39 -32 -99q0 -69 41 -110q36 -35 91 -35q61 0 98 45q32 40 32 100q0 69 -41 109q-35 36 -89 36zM168 591q0 44 33 74
q30 26 69 26q46 0 76 -33q27 -28 27 -67q0 -45 -34 -75q-29 -26 -69 -26q-45 0 -76 33q-26 29 -26 68zM218 591q0 -22 15.5 -37t36.5 -15q22 0 37 15t15 37q0 21 -15 36t-37 15q-21 0 -36.5 -15t-15.5 -36z" />
    <glyph glyph-name="ae" unicode="&#xe6;" horiz-adv-x="817" 
d="M785 112q-74 -126 -208 -126q-96 0 -162 70q-50 -70 -176 -70q-104 0 -161 48q-50 41 -50 107q0 74 59 114q51 35 137 35h121q-17 79 -113 79q-72 0 -138 -51l-51 65q50 40 95.5 57t103.5 17q63 0 109 -22q41 -19 60 -51q67 73 160 73q104 0 165 -78q53 -68 53 -170v-26
h-335q11 -54 47 -82q32 -24 78 -24q76 0 116 65q3 3 4 6zM348 213h-111q-109 0 -109 -70q0 -68 111 -68q109 0 109 73v65zM690 260q-14 56 -47 84q-29 24 -70 24q-49 0 -81 -32q-29 -29 -38 -76h236z" />
    <glyph glyph-name="ccedilla" unicode="&#xe7;" horiz-adv-x="462" 
d="M378 306q-33 35 -57 48t-58 13q-64 0 -102 -46q-32 -39 -32 -99q0 -70 42 -110q36 -35 92 -35q35 0 61.5 14t56.5 50l66 -65q-44 -48 -87 -69t-97 -21q-107 0 -176 77q-59 66 -59 159q0 107 76 176q66 59 158 59q54 0 96.5 -20t85.5 -66zM225 -30l92 -40l-118 -150
l-71 36z" />
    <glyph glyph-name="egrave" unicode="&#xe8;" horiz-adv-x="494" 
d="M466 183h-335q11 -54 47 -82q32 -24 77 -24q77 0 117 65l4 6l86 -36q-75 -126 -207 -126q-104 0 -170 76q-57 66 -57 160q0 106 72 175q63 60 149 60q101 0 163 -78q54 -68 54 -167v-29zM367 260q-27 108 -117 108q-49 0 -81 -32q-29 -28 -38 -76h236zM106 644l95 51
l115 -158l-66 -38z" />
    <glyph glyph-name="eacute" unicode="&#xe9;" horiz-adv-x="494" 
d="M466 183h-335q11 -54 47 -82q32 -24 77 -24q77 0 117 65l4 6l86 -36q-75 -126 -207 -126q-104 0 -170 76q-57 66 -57 160q0 106 72 175q63 60 149 60q101 0 163 -78q54 -68 54 -167v-29zM367 260q-27 108 -117 108q-49 0 -81 -32q-29 -28 -38 -76h236zM389 644l-145 -145
l-66 38l115 158z" />
    <glyph glyph-name="ecircumflex" unicode="&#xea;" horiz-adv-x="494" 
d="M466 183h-335q11 -54 47 -82q32 -24 77 -24q77 0 117 65l4 6l86 -36q-75 -126 -207 -126q-104 0 -170 76q-57 66 -57 160q0 106 72 175q63 60 149 60q101 0 163 -78q54 -68 54 -167v-29zM367 260q-27 108 -117 108q-49 0 -81 -32q-29 -28 -38 -76h236zM247 587l-90 -88
l-75 38l131 143h68l130 -143l-74 -38z" />
    <glyph glyph-name="edieresis" unicode="&#xeb;" horiz-adv-x="494" 
d="M466 183h-335q11 -54 47 -82q32 -24 77 -24q77 0 117 65l4 6l86 -36q-75 -126 -207 -126q-104 0 -170 76q-57 66 -57 160q0 106 72 175q63 60 149 60q101 0 163 -78q54 -68 54 -167v-29zM367 260q-27 108 -117 108q-49 0 -81 -32q-29 -28 -38 -76h236zM275 593
q0 26 18.5 44.5t45.5 18.5t45.5 -18.5t18.5 -44.5q0 -27 -18.5 -45.5t-45.5 -18.5t-45.5 18.5t-18.5 45.5zM91 593q0 26 18.5 44.5t45.5 18.5t45.5 -18.5t18.5 -44.5q0 -27 -18.5 -45.5t-45.5 -18.5q-26 0 -45 18.5t-19 45.5z" />
    <glyph glyph-name="igrave" unicode="&#xec;" horiz-adv-x="213" 
d="M156 443v-443h-100v443h100zM-46 644l95 51l115 -158l-66 -38z" />
    <glyph glyph-name="iacute" unicode="&#xed;" horiz-adv-x="213" 
d="M157 443v-443h-100v443h100zM259 644l-144 -145l-66 38l115 158z" />
    <glyph glyph-name="icircumflex" unicode="&#xee;" horiz-adv-x="213" 
d="M156 443v-443h-100v443h100zM106 587l-89 -88l-75 38l130 143h68l131 -143l-75 -38z" />
    <glyph glyph-name="idieresis" unicode="&#xef;" horiz-adv-x="213" 
d="M157 443v-443h-100v443h100zM115 593q0 26 18.5 44.5t45.5 18.5t45.5 -18.5t18.5 -44.5t-18.5 -45t-45.5 -19q-26 0 -45 18.5t-19 45.5zM-30 593q0 26 18.5 44.5t45.5 18.5t45.5 -18.5t18.5 -44.5q0 -27 -18.5 -45.5t-45.5 -18.5t-45.5 18.5t-18.5 45.5z" />
    <glyph glyph-name="eth" unicode="&#xf0;" horiz-adv-x="527" 
d="M338 585q82 -59 124 -152q36 -81 36 -179q0 -94 -35 -155q-33 -56 -91 -86q-50 -27 -109 -27q-105 0 -174 77q-59 66 -59 159q0 104 74 173q64 60 151 60q41 0 84 -15q-56 62 -101 91l-96 -52l-39 46l67 36l-10 3q-26 7 -72 14l13 89q103 -13 178 -48l76 41l38 -46z
M396 222q0 69 -42 109q-36 36 -91 36q-63 0 -100 -46q-32 -39 -32 -99q0 -69 41 -110q37 -35 91 -35q63 0 100 45q33 40 33 100z" />
    <glyph glyph-name="ntilde" unicode="&#xf1;" horiz-adv-x="509" 
d="M56 443h100v-32q48 46 112 46q53 0 98 -27q39 -23 60 -60q27 -46 27 -131v-239h-100v231q0 66 -16 95q-21 39 -78 39q-28 0 -51.5 -12t-35.5 -31q-16 -30 -16 -100v-222h-100v443zM323 657l83 -20q-8 -108 -92 -108q-37 0 -73 21q-24 13 -37 13q-11 0 -15 -25q0 -2 -1 -9
l-1 -4l-81 19q11 108 93 108q33 0 75 -22q22 -12 35 -12q11 0 14 30v8v1z" />
    <glyph glyph-name="ograve" unicode="&#xf2;" horiz-adv-x="522" 
d="M261 457q106 0 174 -77q59 -66 59 -158q0 -107 -76 -176q-65 -60 -157 -60q-105 0 -174 77q-59 67 -59 159q0 106 76 175q66 60 157 60zM261 367q-63 0 -100 -46q-32 -39 -32 -99q0 -69 41 -110q37 -35 91 -35q63 0 100 45q33 40 33 100q0 69 -42 109q-36 36 -91 36z
M115 644l95 51l115 -158l-66 -38z" />
    <glyph glyph-name="oacute" unicode="&#xf3;" horiz-adv-x="522" 
d="M261 457q106 0 174 -77q59 -66 59 -158q0 -107 -76 -176q-65 -60 -157 -60q-105 0 -174 77q-59 67 -59 159q0 106 76 175q66 60 157 60zM261 367q-63 0 -100 -46q-32 -39 -32 -99q0 -69 41 -110q37 -35 91 -35q63 0 100 45q33 40 33 100q0 69 -42 109q-36 36 -91 36z
M408 644l-145 -145l-66 38l116 158z" />
    <glyph glyph-name="ocircumflex" unicode="&#xf4;" horiz-adv-x="522" 
d="M261 457q106 0 174 -77q59 -66 59 -158q0 -107 -76 -176q-65 -60 -157 -60q-105 0 -174 77q-59 67 -59 159q0 106 76 175q66 60 157 60zM261 367q-63 0 -100 -46q-32 -39 -32 -99q0 -69 41 -110q37 -35 91 -35q63 0 100 46q33 39 33 99q0 69 -42 109q-36 36 -91 36z
M261 587l-89 -88l-75 38l130 143h68l131 -143l-75 -38z" />
    <glyph glyph-name="otilde" unicode="&#xf5;" horiz-adv-x="522" 
d="M261 457q106 0 174 -77q59 -66 59 -158q0 -107 -76 -176q-65 -60 -157 -60q-105 0 -174 77q-59 67 -59 159q0 106 76 175q66 60 157 60zM261 367q-63 0 -100 -46q-32 -39 -32 -99q0 -69 41 -110q37 -35 91 -35q63 0 100 45q33 40 33 100q0 69 -42 109q-36 36 -91 36z
M328 657l83 -20q-8 -108 -92 -108q-37 0 -73 21q-24 13 -37 13q-11 0 -15 -25q0 -3 -2 -13l-81 19q11 108 93 108q33 0 75 -22q22 -12 35 -12q12 0 14 30v8v1z" />
    <glyph glyph-name="odieresis" unicode="&#xf6;" horiz-adv-x="522" 
d="M261 457q106 0 174 -77q59 -66 59 -158q0 -107 -76 -176q-65 -60 -157 -60q-105 0 -174 77q-59 67 -59 159q0 106 76 175q66 60 157 60zM261 367q-63 0 -100 -46q-32 -39 -32 -99q0 -69 41 -110q37 -35 91 -35q63 0 100 45q33 40 33 100q0 69 -42 109q-36 36 -91 36z
M288 593q0 26 18.5 44.5t45.5 18.5t45.5 -18.5t18.5 -44.5q0 -27 -18.5 -45.5t-45.5 -18.5t-45.5 18.5t-18.5 45.5zM104 593q0 26 18.5 44.5t45.5 18.5t45.5 -18.5t18.5 -44.5q0 -27 -18.5 -45.5t-45.5 -18.5q-26 0 -45 18.5t-19 45.5z" />
    <glyph glyph-name="divide" unicode="&#xf7;" horiz-adv-x="556" 
d="M505 357v-90h-455v90h455zM278 553q27 0 46.5 -19.5t19.5 -46.5q0 -28 -19.5 -47.5t-46.5 -19.5q-28 0 -47.5 19.5t-19.5 47.5q0 27 19.5 46.5t47.5 19.5zM278 204q27 0 46.5 -19.5t19.5 -47.5q0 -27 -19.5 -46.5t-46.5 -19.5q-28 0 -47.5 19.5t-19.5 46.5
q0 28 19.5 47.5t47.5 19.5z" />
    <glyph glyph-name="oslash" unicode="&#xf8;" horiz-adv-x="536" 
d="M35 46l41 40q-41 63 -41 135q0 107 76 176q66 60 158 60q81 0 143 -49l39 38l50 -49l-41 -40q41 -60 41 -135q0 -107 -76 -176q-66 -60 -158 -60q-78 0 -143 49l-39 -37zM192 100q32 -23 76 -23q63 0 100 46q33 39 33 100q0 37 -13 65zM345 344q-33 23 -76 23
q-64 0 -101 -46q-32 -39 -32 -99q0 -35 12 -67z" />
    <glyph glyph-name="ugrave" unicode="&#xf9;" horiz-adv-x="509" 
d="M453 0h-100v32q-48 -46 -113 -46q-52 0 -97 27q-39 23 -60 60q-27 46 -27 131v239h100v-231q0 -65 16 -95q21 -39 78 -39q28 0 51.5 12t34.5 31q17 31 17 101v221h100v-443zM110 644l95 51l115 -158l-66 -38z" />
    <glyph glyph-name="uacute" unicode="&#xfa;" horiz-adv-x="509" 
d="M453 0h-100v32q-48 -46 -113 -46q-52 0 -97 27q-39 23 -60 60q-27 46 -27 131v239h100v-231q0 -65 16 -95q21 -39 78 -39q28 0 51.5 12t34.5 31q17 31 17 101v221h100v-443zM396 644l-144 -145l-66 38l115 158z" />
    <glyph glyph-name="ucircumflex" unicode="&#xfb;" horiz-adv-x="509" 
d="M453 0h-100v32q-48 -46 -113 -46q-52 0 -97 27q-39 23 -60 60q-27 46 -27 131v239h100v-231q0 -65 16 -95q21 -39 78 -39q28 0 51.5 12t34.5 31q17 31 17 101v221h100v-443zM254 587l-89 -88l-75 38l130 143h68l131 -143l-75 -38z" />
    <glyph glyph-name="udieresis" unicode="&#xfc;" horiz-adv-x="509" 
d="M453 0h-100v32q-48 -46 -113 -46q-52 0 -97 27q-39 23 -60 60q-27 46 -27 131v239h100v-231q0 -65 16 -95q21 -39 78 -39q28 0 51.5 12t34.5 31q17 31 17 101v221h100v-443zM282 593q0 26 19 44.5t45 18.5q27 0 45.5 -18.5t18.5 -44.5t-18.5 -45t-45.5 -19
q-26 0 -45 18.5t-19 45.5zM98 593q0 26 19 44.5t45 18.5q27 0 46 -18.5t19 -44.5q0 -27 -19 -45.5t-46 -18.5q-26 0 -45 18.5t-19 45.5z" />
    <glyph glyph-name="yacute" unicode="&#xfd;" horiz-adv-x="463" 
d="M375 644l-144 -145l-66 38l115 158zM64 -233l112 254l-182 422h108l127 -301l132 301h108l-300 -676h-105z" />
    <glyph glyph-name="thorn" unicode="&#xfe;" horiz-adv-x="546" 
d="M57 667h100v-262q67 52 136 52q99 0 167 -78q58 -68 58 -158q0 -103 -75 -174q-64 -61 -150 -61q-68 0 -136 52v-271h-100v900zM285 77q63 0 100 45q32 40 32 99q0 69 -41 110q-36 36 -91 36q-61 0 -97 -46q-32 -40 -32 -100q0 -68 41 -109q35 -35 88 -35z" />
    <glyph glyph-name="ydieresis" unicode="&#xff;" horiz-adv-x="463" 
d="M259 593q0 26 19 44.5t45 18.5q27 0 45.5 -18.5t18.5 -44.5t-18.5 -45t-45.5 -19q-26 0 -45 18.5t-19 45.5zM75 593q0 26 19 44.5t45 18.5q27 0 46 -18.5t19 -44.5q0 -27 -19 -45.5t-46 -18.5q-26 0 -45 18.5t-19 45.5zM64 -233l112 254l-182 422h108l127 -301l132 301
h108l-300 -676h-105z" />
    <glyph glyph-name="Amacron" unicode="&#x100;" horiz-adv-x="631" 
d="M172 172l-63 -172h-109l251 667h128l252 -667h-110l-63 172h-286zM207 268h215l-107 291zM166 835h299v-89h-299v89z" />
    <glyph glyph-name="amacron" unicode="&#x101;" horiz-adv-x="545" 
d="M489 0h-100v38q-67 -52 -136 -52q-99 0 -167 79q-58 68 -58 157q0 103 75 174q64 61 150 61q68 0 136 -52v38h100v-443zM261 367q-63 0 -100 -46q-32 -39 -32 -99q0 -69 41 -110q36 -35 91 -35q61 0 98 45q32 40 32 100q0 69 -41 109q-35 36 -89 36zM121 635h299v-89
h-299v89z" />
    <glyph glyph-name="Abreve" unicode="&#x102;" horiz-adv-x="631" 
d="M172 172l-63 -172h-109l251 667h128l252 -667h-110l-63 172h-286zM207 268h215l-107 291zM170 859l86 7q2 -36 7 -46q15 -33 50 -33q36 0 52 35q5 10 9 43l87 -7q-6 -50 -18 -75q-42 -81 -129 -81q-50 0 -89 29q-33 25 -47 65q-7 19 -8 63z" />
    <glyph glyph-name="abreve" unicode="&#x103;" horiz-adv-x="545" 
d="M489 0h-100v38q-67 -52 -136 -52q-99 0 -167 79q-58 68 -58 157q0 103 75 174q64 61 150 61q68 0 136 -52v38h100v-443zM261 367q-63 0 -100 -46q-32 -39 -32 -99q0 -69 41 -110q36 -35 91 -35q61 0 98 45q32 40 32 100q0 69 -41 109q-35 36 -89 36zM115 659l86 7
q2 -36 7 -46q16 -33 50 -33q36 0 53 35q4 10 9 44l86 -7q-6 -51 -18 -76q-42 -81 -129 -81q-50 0 -88 29q-34 25 -48 65q-7 19 -8 63z" />
    <glyph glyph-name="Aogonek" unicode="&#x104;" horiz-adv-x="631" 
d="M251 667h128l252 -667q-2 -2 -4 -5l-1 -1q-31 -39 -31 -59q0 -15 17 -15t47 11l29 -74q-49 -19 -84 -19q-46 0 -75 30q-25 25 -25 61q0 33 27 71h-10l-63 172h-286l-63 -172h-109zM207 268h215l-107 291z" />
    <glyph glyph-name="aogonek" unicode="&#x105;" horiz-adv-x="545" 
d="M389 0v38q-67 -52 -136 -52q-99 0 -167 79q-58 68 -58 157q0 103 75 174q64 61 150 61q68 0 136 -52v38h100v-443v-1q-2 -2 -6 -7q-30 -37 -30 -58q0 -14 18 -14q17 0 46 11l30 -74q-50 -19 -85 -19q-45 0 -75 30q-25 25 -25 61q0 33 27 71zM261 367q-63 0 -100 -46
q-32 -39 -32 -99q0 -69 41 -110q36 -35 91 -35q61 0 98 46q32 39 32 99q0 69 -41 109q-35 36 -89 36z" />
    <glyph glyph-name="Cacute" unicode="&#x106;" horiz-adv-x="670" 
d="M567 492q-47 50 -88 70.5t-95 20.5q-111 0 -182 -82q-62 -70 -62 -168q0 -112 80 -185q68 -64 163 -64q80 0 144 52q14 11 43 41l73 -71q-64 -64 -124 -92t-134 -28q-96 0 -177 47q-79 46 -126 124q-47 81 -47 176t47 176q46 78 125 124q82 47 177 47q74 0 134.5 -28
t121.5 -90zM536 844l-144 -145l-66 38l115 158z" />
    <glyph glyph-name="cacute" unicode="&#x107;" horiz-adv-x="462" 
d="M378 306q-33 35 -57 48t-58 13q-64 0 -102 -46q-32 -39 -32 -99q0 -70 42 -110q36 -35 92 -35q35 0 61.5 14t56.5 50l66 -65q-44 -48 -87 -69t-97 -21q-107 0 -176 77q-59 66 -59 159q0 107 76 176q66 59 158 59q54 0 96.5 -20t85.5 -66zM396 644l-145 -145l-66 38
l115 158z" />
    <glyph glyph-name="Ccircumflex" unicode="&#x108;" horiz-adv-x="670" 
d="M567 492q-47 50 -88 70.5t-95 20.5q-111 0 -182 -82q-62 -70 -62 -168q0 -112 80 -185q68 -64 163 -64q80 0 144 52q14 11 43 41l73 -71q-64 -64 -124 -92t-134 -28q-96 0 -177 47q-79 46 -126 124q-47 81 -47 176t47 176q46 78 125 124q82 47 177 47q74 0 134.5 -28
t121.5 -90zM373 787l-90 -88l-75 38l131 143h68l130 -143l-75 -38z" />
    <glyph glyph-name="ccircumflex" unicode="&#x109;" horiz-adv-x="462" 
d="M378 306q-33 35 -57 48t-58 13q-64 0 -102 -46q-32 -39 -32 -99q0 -70 42 -110q36 -35 92 -35q35 0 61.5 14t56.5 50l66 -65q-44 -48 -87 -69t-97 -21q-107 0 -176 77q-59 66 -59 159q0 107 76 176q66 59 158 59q54 0 96.5 -20t85.5 -66zM251 587l-90 -88l-74 38l130 143
h68l131 -143l-75 -38z" />
    <glyph glyph-name="Cdotaccent" unicode="&#x10a;" horiz-adv-x="670" 
d="M567 492q-47 50 -88 70.5t-95 20.5q-111 0 -182 -82q-62 -70 -62 -168q0 -112 80 -185q68 -64 163 -64q80 0 144 52q14 11 43 41l73 -71q-64 -64 -124 -92t-134 -28q-96 0 -177 47q-79 46 -126 124q-47 81 -47 176t47 176q46 78 125 124q82 47 177 47q74 0 134.5 -28
t121.5 -90zM317 791q0 26 18.5 44.5t45.5 18.5t45.5 -18.5t18.5 -44.5q0 -27 -18.5 -45.5t-45.5 -18.5t-45.5 18.5t-18.5 45.5z" />
    <glyph glyph-name="cdotaccent" unicode="&#x10b;" horiz-adv-x="462" 
d="M378 306q-33 35 -57 48t-58 13q-64 0 -102 -46q-32 -39 -32 -99q0 -70 42 -110q36 -35 92 -35q35 0 61.5 14t56.5 50l66 -65q-44 -48 -87 -69t-97 -21q-107 0 -176 77q-59 66 -59 159q0 107 76 176q66 59 158 59q54 0 96.5 -20t85.5 -66zM190 593q0 26 19 44.5t46 18.5
q26 0 45 -18.5t19 -44.5q0 -27 -19 -45.5t-46 -18.5q-26 0 -45 18.5t-19 45.5z" />
    <glyph glyph-name="Ccaron" unicode="&#x10c;" horiz-adv-x="670" 
d="M567 492q-47 50 -88 70.5t-95 20.5q-111 0 -182 -82q-62 -70 -62 -168q0 -112 80 -185q68 -64 163 -64q80 0 144 52q14 11 43 41l73 -71q-64 -64 -124 -92t-134 -28q-96 0 -177 47q-79 46 -126 124q-47 81 -47 176t47 176q46 78 125 124q82 47 177 47q74 0 134.5 -28
t121.5 -90zM373 800l89 88l75 -37l-130 -143h-68l-131 143l75 37z" />
    <glyph glyph-name="ccaron" unicode="&#x10d;" horiz-adv-x="462" 
d="M378 306q-33 35 -57 48t-58 13q-64 0 -102 -46q-32 -39 -32 -99q0 -70 42 -110q36 -35 92 -35q35 0 61.5 14t56.5 50l66 -65q-44 -48 -87 -69t-97 -21q-107 0 -176 77q-59 66 -59 159q0 107 76 176q66 59 158 59q54 0 96.5 -20t85.5 -66zM251 600l90 88l75 -37l-131 -143
h-68l-130 143l74 37z" />
    <glyph glyph-name="Dcaron" unicode="&#x10e;" horiz-adv-x="619" 
d="M73 667h148q178 0 276 -102q86 -89 86 -231q0 -164 -111 -255q-96 -79 -251 -79h-148v667zM177 570v-474h47q126 0 195 73q60 62 60 165q0 117 -78 181q-67 55 -177 55h-47zM291 800l89 88l75 -37l-130 -143h-68l-131 143l75 37z" />
    <glyph glyph-name="dcaron" unicode="&#x10f;" horiz-adv-x="664" 
d="M489 0h-100v38q-67 -52 -136 -52q-99 0 -167 79q-58 68 -58 157q0 103 75 174q64 61 150 61q68 0 136 -52v262h100v-667zM261 367q-63 0 -100 -46q-32 -39 -32 -99q0 -69 41 -110q36 -35 91 -35q61 0 97 46q32 39 32 99q0 69 -41 109q-35 36 -88 36zM527 512l54 182
l95 -28l-76 -177z" />
    <glyph glyph-name="Dcroat" unicode="&#x110;" horiz-adv-x="631" 
d="M22 313v93h64v261h148q178 0 277 -102q85 -89 85 -231q0 -164 -110 -255q-97 -79 -252 -79h-148v313h-64zM190 406h149v-93h-149v-217h47q126 0 195 73q60 63 60 165q0 117 -78 181q-67 55 -177 55h-47v-164z" />
    <glyph glyph-name="dcroat" unicode="&#x111;" horiz-adv-x="546" 
d="M389 598v69h100v-69h58v-90h-58v-508h-100v38q-67 -52 -136 -52q-99 0 -167 79q-58 68 -58 157q0 103 75 174q64 61 150 61q68 0 136 -52v103h-114v90h114zM261 367q-63 0 -100 -46q-32 -39 -32 -99q0 -69 41 -110q36 -35 91 -35q61 0 97 46q32 39 32 99q0 69 -41 109
q-35 36 -88 36z" />
    <glyph glyph-name="Emacron" unicode="&#x112;" horiz-adv-x="481" 
d="M435 571h-258v-185h230v-96h-230v-194h268v-96h-372v667h362v-96zM110 835h299v-89h-299v89z" />
    <glyph glyph-name="emacron" unicode="&#x113;" horiz-adv-x="494" 
d="M466 183h-335q11 -54 47 -82q32 -24 77 -24q77 0 117 65l4 6l86 -36q-75 -126 -207 -126q-104 0 -170 76q-57 66 -57 160q0 106 72 175q63 60 149 60q101 0 163 -78q54 -68 54 -167v-29zM367 260q-27 108 -117 108q-49 0 -81 -32q-29 -28 -38 -76h236zM97 635h299v-89
h-299v89z" />
    <glyph glyph-name="Ebreve" unicode="&#x114;" horiz-adv-x="481" 
d="M435 571h-258v-185h230v-96h-230v-194h268v-96h-372v667h362v-96zM114 859l86 7q2 -36 7 -46q15 -33 50 -33q36 0 52 35q5 10 9 43l86 -7q-5 -50 -18 -75q-41 -81 -129 -81q-50 0 -88 29q-33 25 -47 65q-7 19 -8 63z" />
    <glyph glyph-name="ebreve" unicode="&#x115;" horiz-adv-x="494" 
d="M466 183h-335q11 -54 47 -82q32 -24 77 -24q77 0 117 65l4 6l86 -36q-75 -126 -207 -126q-104 0 -170 76q-57 66 -57 160q0 106 72 175q63 60 149 60q101 0 163 -78q54 -68 54 -167v-29zM367 260q-27 108 -117 108q-49 0 -81 -32q-29 -28 -38 -76h236zM103 659l86 7v-5
q1 -7 1 -9q3 -65 56 -65q36 0 52 35q5 9 9 44l87 -8q-6 -51 -19 -75q-41 -81 -128 -81q-50 0 -89 29q-33 25 -47 65q-7 20 -8 63z" />
    <glyph glyph-name="Edotaccent" unicode="&#x116;" horiz-adv-x="481" 
d="M435 571h-258v-185h230v-96h-230v-194h268v-96h-372v667h362v-96zM195 791q0 26 18.5 44.5t45.5 18.5t45.5 -18.5t18.5 -44.5q0 -27 -18.5 -45.5t-45.5 -18.5t-45.5 18.5t-18.5 45.5z" />
    <glyph glyph-name="edotaccent" unicode="&#x117;" horiz-adv-x="494" 
d="M466 183h-335q11 -54 47 -82q32 -24 77 -24q77 0 117 65l4 6l86 -36q-75 -126 -207 -126q-104 0 -170 76q-57 66 -57 160q0 106 72 175q63 60 149 60q101 0 163 -78q54 -68 54 -167v-29zM367 260q-27 108 -117 108q-49 0 -81 -32q-29 -28 -38 -76h236zM182 593
q0 26 19 44.5t45 18.5q27 0 46 -18.5t19 -44.5q0 -27 -19 -45.5t-46 -18.5q-26 0 -45 18.5t-19 45.5z" />
    <glyph glyph-name="Eogonek" unicode="&#x118;" horiz-adv-x="481" 
d="M445 96v-96v-1q-2 -2 -6 -7q-30 -37 -30 -58q0 -14 18 -14q17 0 46 11l30 -74q-50 -19 -85 -19q-45 0 -75 30q-25 25 -25 61q0 33 27 71h-272v667h362v-96h-258v-185h230v-96h-230v-194h268z" />
    <glyph glyph-name="eogonek" unicode="&#x119;" horiz-adv-x="494" 
d="M462 112q-64 -107 -169 -122q-28 -36 -28 -55q0 -15 18 -15q17 0 47 11l29 -74q-50 -19 -84 -19q-46 0 -75 30q-26 25 -26 61q0 31 23 65q-80 19 -128 89q-41 62 -41 139q0 106 72 175q63 60 149 60q101 0 163 -78q54 -68 54 -167v-29h-335q11 -54 47 -82q32 -24 77 -24
q77 0 117 65q1 1 4 6zM367 260q-27 108 -117 108q-49 0 -81 -32q-29 -28 -38 -76h236z" />
    <glyph glyph-name="Ecaron" unicode="&#x11a;" horiz-adv-x="481" 
d="M435 571h-258v-185h230v-96h-230v-194h268v-96h-372v667h362v-96zM259 800l90 88l75 -37l-130 -143h-69l-130 143l75 37z" />
    <glyph glyph-name="ecaron" unicode="&#x11b;" horiz-adv-x="494" 
d="M466 183h-335q11 -54 47 -82q32 -24 77 -24q77 0 117 65l4 6l86 -36q-75 -126 -207 -126q-104 0 -170 76q-57 66 -57 160q0 106 72 175q63 60 149 60q101 0 163 -78q54 -68 54 -167v-29zM367 260q-27 108 -117 108q-49 0 -81 -32q-29 -28 -38 -76h236zM247 600l90 88
l74 -37l-130 -143h-68l-131 143l75 37z" />
    <glyph glyph-name="Gcircumflex" unicode="&#x11c;" horiz-adv-x="727" 
d="M392 359h297v-50q0 -156 -94 -245q-82 -78 -209 -78q-96 0 -178 47q-79 46 -125 124q-48 81 -48 176t47 176q46 78 125 124q81 47 176 47q120 0 210 -73q14 -12 47 -44l-73 -70q-48 50 -89 70t-94 20q-111 0 -182 -82q-62 -70 -62 -168q0 -112 80 -186q69 -63 165 -63
q101 0 157 71q17 23 25.5 46t14.5 62h-190v96zM369 787l-90 -88l-75 38l131 143h68l130 -143l-75 -38z" />
    <glyph glyph-name="gcircumflex" unicode="&#x11d;" horiz-adv-x="545" 
d="M489 443v-452q0 -114 -74 -180q-64 -58 -163 -58q-102 0 -172 64q-12 12 -41 45l65 65q9 -10 12 -14q35 -40 63 -55t71 -15q71 0 107 45q32 38 32 103v47q-59 -52 -132 -52q-102 0 -170 78q-59 67 -59 158q0 105 75 175q66 60 154 60q71 0 132 -52v38h100zM261 367
q-63 0 -100 -46q-32 -39 -32 -99q0 -69 41 -110q36 -35 90 -35q62 0 98 45q32 40 32 100q0 69 -41 109q-35 36 -88 36zM259 587l-90 -88l-75 38l131 143h68l130 -143l-75 -38z" />
    <glyph glyph-name="Gbreve" unicode="&#x11e;" horiz-adv-x="727" 
d="M392 359h297v-50q0 -156 -94 -245q-82 -78 -209 -78q-96 0 -178 47q-79 46 -125 124q-48 81 -48 176t47 176q46 78 125 124q81 47 176 47q120 0 210 -73q14 -12 47 -44l-73 -70q-48 50 -89 70t-94 20q-111 0 -182 -82q-62 -70 -62 -168q0 -112 80 -186q69 -63 165 -63
q101 0 157 71q17 23 25.5 46t14.5 62h-190v96zM242 859l86 7v-4q1 -8 1 -10q3 -65 56 -65q36 0 52 35q5 10 9 43l87 -7q-6 -51 -18 -75q-42 -81 -129 -81q-50 0 -89 29q-33 25 -47 65q-7 20 -8 63z" />
    <glyph glyph-name="gbreve" unicode="&#x11f;" horiz-adv-x="545" 
d="M489 443v-452q0 -114 -74 -180q-64 -58 -163 -58q-102 0 -172 64q-12 12 -41 45l65 65q9 -10 12 -14q35 -40 63 -55t71 -15q71 0 107 45q32 38 32 103v47q-59 -52 -132 -52q-102 0 -170 78q-59 67 -59 158q0 105 75 175q66 60 154 60q71 0 132 -52v38h100zM261 367
q-63 0 -100 -46q-32 -39 -32 -99q0 -69 41 -110q36 -35 90 -35q62 0 98 45q32 40 32 100q0 69 -41 109q-35 36 -88 36zM115 659l87 7v-4v-10q3 -65 57 -65q35 0 52 35q4 10 9 44l86 -8q-6 -51 -18 -75q-41 -81 -129 -81q-50 0 -88 29q-33 25 -48 65q-7 19 -8 63z" />
    <glyph glyph-name="Gdotaccent" unicode="&#x120;" horiz-adv-x="727" 
d="M392 359h297v-50q0 -156 -94 -245q-82 -78 -209 -78q-96 0 -178 47q-79 46 -125 124q-48 81 -48 176t47 176q46 78 125 124q81 47 176 47q120 0 210 -73q14 -12 47 -44l-73 -70q-48 50 -89 70t-94 20q-111 0 -182 -82q-62 -70 -62 -168q0 -112 80 -186q69 -63 165 -63
q101 0 157 71q17 23 25.5 46t14.5 62h-190v96zM321 791q0 26 19 44.5t45 18.5q27 0 46 -18.5t19 -44.5q0 -27 -19 -45.5t-46 -18.5q-26 0 -45 18.5t-19 45.5z" />
    <glyph glyph-name="gdotaccent" unicode="&#x121;" horiz-adv-x="545" 
d="M489 443v-452q0 -114 -74 -180q-64 -58 -163 -58q-102 0 -172 64q-12 12 -41 45l65 65q9 -10 12 -14q35 -40 63 -55t71 -15q71 0 107 45q32 38 32 103v47q-59 -52 -132 -52q-102 0 -170 78q-59 67 -59 158q0 105 75 175q66 60 154 60q71 0 132 -52v38h100zM261 367
q-63 0 -100 -46q-32 -39 -32 -99q0 -69 41 -110q36 -35 90 -35q62 0 98 45q32 40 32 100q0 69 -41 109q-35 36 -88 36zM195 593q0 26 18.5 44.5t45.5 18.5q26 0 45 -18.5t19 -44.5q0 -27 -19 -45.5t-45 -18.5q-27 0 -45.5 18.5t-18.5 45.5z" />
    <glyph glyph-name="Gcommaaccent" unicode="&#x122;" horiz-adv-x="727" 
d="M392 359h297v-50q0 -156 -94 -245q-82 -78 -209 -78q-96 0 -178 47q-79 46 -125 124q-48 81 -48 176t47 176q46 78 125 124q81 47 176 47q120 0 210 -73q14 -12 47 -44l-73 -70q-48 50 -89 70t-94 20q-111 0 -182 -82q-62 -70 -62 -168q0 -112 80 -186q69 -63 165 -63
q101 0 157 71q17 23 25.5 46t14.5 62h-190v96zM288 -213l54 182l96 -28l-76 -177z" />
    <glyph glyph-name="gcommaaccent" unicode="&#x123;" horiz-adv-x="545" 
d="M489 443v-452q0 -114 -74 -180q-64 -58 -163 -58q-102 0 -172 64q-12 12 -41 45l65 65q9 -10 12 -14q35 -40 63 -55t71 -15q71 0 107 45q32 38 32 103v47q-59 -52 -132 -52q-102 0 -170 78q-59 67 -59 158q0 105 75 175q66 60 154 60q71 0 132 -52v38h100zM261 367
q-63 0 -100 -46q-32 -39 -32 -99q0 -69 41 -110q36 -35 90 -35q62 0 98 45q32 40 32 100q0 69 -41 109q-35 36 -88 36zM359 671l-54 -182l-96 29l76 176z" />
    <glyph glyph-name="Hcircumflex" unicode="&#x124;" horiz-adv-x="650" 
d="M73 667h104v-281h296v281h104v-667h-104v290h-296v-290h-104v667zM325 787l-90 -88l-74 38l130 143h68l130 -143l-74 -38z" />
    <glyph glyph-name="hcircumflex" unicode="&#x125;" horiz-adv-x="509" 
d="M56 667h100v-256q48 46 112 46q53 0 98 -26q39 -24 60 -61q27 -46 27 -131v-239h-100v231q0 66 -16 95q-21 39 -78 39q-28 0 -51.5 -12t-35.5 -31q-16 -30 -16 -100v-222h-100v667zM258 787l-90 -88l-75 38l131 143h68l130 -143l-75 -38z" />
    <glyph glyph-name="Hbar" unicode="&#x126;" horiz-adv-x="649" 
d="M577 508v-508h-104v290h-296v-290h-104v508h-58v90h58v69h104v-69h296v69h104v-69h57v-90h-57zM473 508h-296v-122h296v122z" />
    <glyph glyph-name="hbar" unicode="&#x127;" horiz-adv-x="508" 
d="M154 508v-97q49 46 112 46q53 0 98 -26q39 -23 60 -61q27 -46 27 -131v-239h-100v231q0 65 -16 95q-21 39 -78 39q-28 0 -51.5 -12t-34.5 -31q-17 -30 -17 -100v-222h-100v508h-58v90h58v69h100v-69h117v-90h-117z" />
    <glyph glyph-name="Itilde" unicode="&#x128;" horiz-adv-x="250" 
d="M177 667v-667h-104v667h104zM192 857l83 -20q-8 -108 -92 -108q-37 0 -73 21q-24 13 -37 13q-11 0 -15 -25q0 -2 -1 -9l-1 -4l-81 19q11 108 93 108q33 0 75 -22q22 -12 35 -12q12 0 14 30v8v1z" />
    <glyph glyph-name="itilde" unicode="&#x129;" horiz-adv-x="213" 
d="M157 443v-443h-100v443h100zM174 657l83 -20q-8 -108 -92 -108q-37 0 -73 21q-24 13 -37 13q-11 0 -15 -25q0 -2 -1 -9l-1 -4l-81 19q11 108 93 108q33 0 75 -22q22 -12 35 -12q12 0 14 30v8v1z" />
    <glyph glyph-name="Imacron" unicode="&#x12a;" horiz-adv-x="250" 
d="M177 667v-667h-103v667h103zM-24 835h299v-89h-299v89z" />
    <glyph glyph-name="imacron" unicode="&#x12b;" horiz-adv-x="213" 
d="M156 443v-443h-99v443h99zM-43 635h299v-89h-299v89z" />
    <glyph glyph-name="Ibreve" unicode="&#x12c;" horiz-adv-x="250" 
d="M177 667v-667h-103v667h103zM-20 859l86 7q2 -36 7 -46q15 -33 50 -33q36 0 53 35q4 10 8 43l87 -7q-6 -50 -18 -75q-42 -81 -129 -81q-50 0 -89 29q-33 25 -47 65q-7 19 -8 63z" />
    <glyph glyph-name="ibreve" unicode="&#x12d;" horiz-adv-x="213" 
d="M156 443v-443h-100v443h100zM-39 659l86 7q2 -36 7 -46q16 -33 50 -33q36 0 53 35q4 10 8 44l87 -8q-6 -50 -18 -75q-42 -81 -129 -81q-50 0 -88 29q-34 25 -48 65q-7 19 -8 63z" />
    <glyph glyph-name="Iogonek" unicode="&#x12e;" horiz-adv-x="250" 
d="M73 667h104v-667q-2 -3 -5 -6q-31 -39 -31 -59q0 -15 18 -15q17 0 46 11l30 -74q-50 -19 -85 -19q-45 0 -75 30q-25 25 -25 61q0 32 27 71h-4v667z" />
    <glyph glyph-name="iogonek" unicode="&#x12f;" horiz-adv-x="213" 
d="M157 0v-1q-2 -2 -6 -7q-30 -37 -30 -58q0 -14 18 -14q17 0 46 11l30 -74q-50 -19 -84 -19q-46 0 -76 30q-25 25 -25 61q0 32 27 71v443h100v-443zM43 593q0 26 18.5 44.5t45.5 18.5t46 -18.5t19 -44.5q0 -27 -19 -45.5t-46 -18.5t-45.5 18.5t-18.5 45.5z" />
    <glyph glyph-name="Idotaccent" unicode="&#x130;" horiz-adv-x="250" 
d="M177 667v-667h-104v667h104zM61 791q0 26 18.5 44.5t45.5 18.5t45.5 -18.5t18.5 -44.5q0 -27 -18.5 -45.5t-45.5 -18.5q-26 0 -45 18.5t-19 45.5z" />
    <glyph glyph-name="dotlessi" unicode="&#x131;" horiz-adv-x="213" 
d="M157 443v-443h-100v443h100z" />
    <glyph glyph-name="IJ" unicode="&#x132;" horiz-adv-x="658" 
d="M177 667v-667h-104v667h104zM584 667v-462q0 -51 -6 -80.5t-22 -58.5q-21 -37 -60 -58.5t-87 -21.5q-46 0 -85.5 19t-85.5 64l65 75q31 -33 55 -46.5t50 -13.5q72 0 72 121v462h104z" />
    <glyph glyph-name="ij" unicode="&#x133;" horiz-adv-x="433" 
d="M156 443v-443h-99v443h99zM42 593q0 26 19 44.5t46 18.5q26 0 45 -18.5t19 -44.5q0 -27 -19 -45.5t-46 -18.5q-26 0 -45 18.5t-19 45.5zM261 593q0 26 19 44.5t46 18.5t45.5 -18.5t18.5 -44.5q0 -27 -18.5 -45.5t-45.5 -18.5t-46 18.5t-19 45.5zM200 -139q31 -9 46 -9
q30 0 30 54v537h100v-537q0 -76 -34 -114q-30 -34 -82 -34q-27 0 -60 10v93z" />
    <glyph glyph-name="Jcircumflex" unicode="&#x134;" horiz-adv-x="416" 
d="M343 667v-462q0 -51 -6 -80.5t-22 -58.5q-22 -37 -61 -58.5t-86 -21.5t-86 19t-85 64l65 75q31 -33 55 -46.5t50 -13.5q72 0 72 121v462h104zM254 787l-89 -88l-75 38l130 143h68l131 -143l-75 -38z" />
    <glyph glyph-name="jcircumflex" unicode="&#x135;" horiz-adv-x="223" 
d="M-10 -139q31 -9 46 -9q30 0 30 54v537h100v-537q0 -76 -35 -114q-29 -34 -81 -34q-27 0 -60 10v93zM103 587l-89 -88l-75 38l130 143h68l131 -143l-75 -38z" />
    <glyph glyph-name="Kcommaaccent" unicode="&#x136;" horiz-adv-x="584" 
d="M231 -213l54 182l96 -28l-76 -177zM323 386l258 -386h-122l-206 310l-76 -83v-227h-104v667h104v-301l276 301h128z" />
    <glyph glyph-name="kcommaaccent" unicode="&#x137;" horiz-adv-x="476" 
d="M277 259l204 -259h-123l-149 192l-53 -52v-140h-100v667h100v-400l178 176h131zM161 -213l54 182l96 -28l-76 -177z" />
    <glyph glyph-name="kgreenlandic" unicode="&#x138;" horiz-adv-x="476" 
d="M277 259l204 -259h-123l-149 192l-53 -52v-140h-100v443h100v-176l178 176h131z" />
    <glyph glyph-name="Lacute" unicode="&#x139;" horiz-adv-x="426" 
d="M177 667v-572h249v-95h-353v667h104zM275 844l-144 -145l-66 38l115 158z" />
    <glyph glyph-name="lacute" unicode="&#x13a;" horiz-adv-x="214" 
d="M157 0h-100v667h100v-667zM259 855l-144 -144l-66 37l115 159z" />
    <glyph glyph-name="Lcommaaccent" unicode="&#x13b;" horiz-adv-x="432" 
d="M177 667v-572h249v-95h-353v667h104zM182 -213l54 182l95 -28l-76 -177z" />
    <glyph glyph-name="lcommaaccent" unicode="&#x13c;" horiz-adv-x="214" 
d="M157 0h-100v667h100v-667zM16 -213l54 182l95 -28l-76 -177z" />
    <glyph glyph-name="Lcaron" unicode="&#x13d;" horiz-adv-x="432" 
d="M177 667v-572h249v-95h-353v667h104zM250 504l54 183l95 -29l-76 -177z" />
    <glyph glyph-name="lcaron" unicode="&#x13e;" horiz-adv-x="332" 
d="M157 0h-100v667h100v-667zM195 512l54 182l95 -28l-76 -177z" />
    <glyph glyph-name="Ldot" unicode="&#x13f;" horiz-adv-x="432" 
d="M267 333q0 27 18.5 45.5t45.5 18.5t45.5 -18.5t18.5 -45.5q0 -26 -18.5 -44.5t-45.5 -18.5q-26 0 -45 18.5t-19 44.5zM177 667v-572h249v-95h-353v667h104z" />
    <glyph glyph-name="ldot" unicode="&#x140;" horiz-adv-x="355" 
d="M157 0h-100v667h100v-667zM220 333q0 27 19 45.5t45 18.5q27 0 45.5 -18.5t18.5 -45.5q0 -26 -18.5 -44.5t-45.5 -18.5q-26 0 -45 18.5t-19 44.5z" />
    <glyph glyph-name="Lslash" unicode="&#x141;" horiz-adv-x="444" 
d="M86 362v305h104v-241l110 73v-107l-110 -75v-222h249v-95h-353v255l-64 -43v108z" />
    <glyph glyph-name="lslash" unicode="&#x142;" horiz-adv-x="260" 
d="M80 0v264l-62 -42v109l62 42v294h100v-228l62 42v-109l-62 -42v-330h-100z" />
    <glyph glyph-name="Nacute" unicode="&#x143;" horiz-adv-x="708" 
d="M73 0v667h91l367 -491v491h104v-667h-92l-366 491v-491h-104zM510 844l-144 -145l-66 38l115 158z" />
    <glyph glyph-name="nacute" unicode="&#x144;" horiz-adv-x="509" 
d="M56 443h100v-32q48 46 112 46q53 0 98 -27q39 -23 60 -60q27 -46 27 -131v-239h-100v231q0 66 -16 95q-21 39 -78 39q-28 0 -51.5 -12t-35.5 -31q-16 -30 -16 -100v-222h-100v443zM412 644l-144 -145l-66 38l115 158z" />
    <glyph glyph-name="Ncommaaccent" unicode="&#x145;" horiz-adv-x="708" 
d="M73 0v667h91l367 -491v491h104v-667h-92l-366 491v-491h-104zM280 -213l54 182l95 -28l-76 -177z" />
    <glyph glyph-name="ncommaaccent" unicode="&#x146;" horiz-adv-x="509" 
d="M56 443h100v-32q48 46 112 46q53 0 98 -27q39 -23 60 -60q27 -46 27 -131v-239h-100v231q0 66 -16 95q-21 39 -78 39q-28 0 -51.5 -12t-35.5 -31q-16 -30 -16 -100v-222h-100v443zM181 -213l54 182l95 -28l-76 -177z" />
    <glyph glyph-name="Ncaron" unicode="&#x147;" horiz-adv-x="708" 
d="M73 0v667h91l367 -491v491h104v-667h-92l-366 491v-491h-104zM370 800l90 88l75 -37l-130 -143h-69l-130 143l75 37z" />
    <glyph glyph-name="ncaron" unicode="&#x148;" horiz-adv-x="509" 
d="M56 443h100v-32q48 46 112 46q53 0 98 -27q39 -23 60 -60q27 -46 27 -131v-239h-100v231q0 66 -16 95q-21 39 -78 39q-28 0 -51.5 -12t-35.5 -31q-16 -30 -16 -100v-222h-100v443zM259 600l90 88l75 -37l-131 -143h-68l-130 143l75 37z" />
    <glyph glyph-name="napostrophe" unicode="&#x149;" horiz-adv-x="599" 
d="M146 443h100v-32q49 46 112 46q53 0 98 -26q39 -24 60 -61q27 -46 27 -131v-239h-100v231q0 65 -16 95q-21 39 -78 39q-28 0 -51.5 -12t-35.5 -31q-16 -30 -16 -100v-222h-100v443zM84 672l91 -32l-111 -250l-71 28z" />
    <glyph glyph-name="Eng" unicode="&#x14a;" horiz-adv-x="708" 
d="M635 667v-670q0 -76 -35 -115q-29 -33 -81 -33q-28 0 -60 9v94q31 -9 46 -9q30 0 30 53v15l-358 480v-491h-104v667h91l367 -491v491h104z" />
    <glyph glyph-name="eng" unicode="&#x14b;" horiz-adv-x="509" 
d="M56 0v443h100v-32q48 46 112 46q53 0 98 -27q39 -23 60 -60q27 -46 27 -131v-251q0 -69 -36 -107q-30 -32 -80 -32q-27 0 -60 9v94q31 -9 46 -9q30 0 30 52v236q0 66 -16 95q-21 39 -78 39q-28 0 -51.5 -12t-35.5 -31q-16 -30 -16 -100v-222h-100z" />
    <glyph glyph-name="Omacron" unicode="&#x14c;" horiz-adv-x="762" 
d="M35 333q0 93 47 175q47 78 125 125q81 47 174 47t174 -47q78 -47 124 -125q48 -82 48 -175t-48 -174q-46 -79 -124 -125q-81 -48 -174 -48t-174 48q-78 46 -124 125q-48 81 -48 174zM140 333q0 -110 80 -185q69 -64 161 -64q106 0 178 82q62 72 62 167q0 111 -79 185
q-68 65 -161 65q-107 0 -179 -83q-62 -71 -62 -167zM231 835h299v-89h-299v89z" />
    <glyph glyph-name="omacron" unicode="&#x14d;" horiz-adv-x="522" 
d="M261 457q106 0 174 -77q59 -66 59 -158q0 -107 -76 -176q-65 -60 -157 -60q-105 0 -174 77q-59 67 -59 159q0 106 76 175q66 60 157 60zM261 367q-63 0 -100 -46q-32 -39 -32 -99q0 -69 41 -110q37 -35 91 -35q63 0 100 45q33 40 33 100q0 69 -42 109q-36 36 -91 36z
M112 635h299v-89h-299v89z" />
    <glyph glyph-name="Obreve" unicode="&#x14e;" horiz-adv-x="762" 
d="M35 333q0 93 47 175q47 78 125 125q81 47 174 47t174 -47q78 -47 124 -125q48 -82 48 -175t-48 -174q-46 -79 -124 -125q-81 -48 -174 -48t-174 48q-78 46 -124 125q-48 81 -48 174zM140 333q0 -110 80 -185q69 -64 161 -64q106 0 178 82q62 72 62 167q0 111 -79 185
q-68 65 -161 65q-107 0 -179 -83q-62 -71 -62 -167zM236 859l86 7v-7q1 -5 1 -7q3 -65 56 -65q36 0 52 35q4 9 9 43l86 -7q-6 -51 -18 -75q-41 -81 -129 -81q-50 0 -88 29q-33 25 -48 65q-7 19 -7 63z" />
    <glyph glyph-name="obreve" unicode="&#x14f;" horiz-adv-x="522" 
d="M261 457q106 0 174 -77q59 -66 59 -158q0 -107 -76 -176q-65 -60 -157 -60q-105 0 -174 77q-59 67 -59 159q0 106 76 175q66 60 157 60zM261 367q-63 0 -100 -46q-32 -39 -32 -99q0 -69 41 -110q37 -35 91 -35q63 0 100 45q33 40 33 100q0 69 -42 109q-36 36 -91 36z
M116 659l86 7v-4q1 -8 1 -10q3 -65 56 -65q36 0 52 35q5 10 9 44l87 -8q-6 -51 -18 -75q-42 -81 -129 -81q-50 0 -89 29q-33 25 -47 65q-7 19 -8 63z" />
    <glyph glyph-name="Ohungarumlaut" unicode="&#x150;" horiz-adv-x="762" 
d="M35 333q0 93 47 175q47 78 125 125q81 47 174 47t174 -47q78 -47 124 -125q48 -82 48 -175t-48 -174q-46 -79 -124 -125q-81 -48 -174 -48t-174 48q-78 46 -124 125q-48 81 -48 174zM140 333q0 -110 80 -185q69 -64 161 -64q106 0 178 82q62 72 62 167q0 111 -79 185
q-68 65 -161 65q-107 0 -179 -83q-62 -71 -62 -167zM455 846l-146 -147l-57 38l115 158zM598 844l-144 -145l-58 36l117 160z" />
    <glyph glyph-name="ohungarumlaut" unicode="&#x151;" horiz-adv-x="524" 
d="M261 457q106 0 174 -77q59 -66 59 -158q0 -107 -76 -176q-65 -60 -157 -60q-105 0 -174 77q-59 67 -59 159q0 106 76 175q66 60 157 60zM261 367q-63 0 -100 -46q-32 -39 -32 -99q0 -69 41 -110q37 -35 91 -35q63 0 100 45q33 40 33 100q0 69 -42 109q-36 36 -91 36z
M345 646l-146 -147l-56 38l115 158zM489 644l-144 -145l-59 36l117 160z" />
    <glyph glyph-name="OE" unicode="&#x152;" horiz-adv-x="1029" 
d="M621 580v87h363v-96h-259v-185h230v-96h-230v-194h268v-96h-372v87q-103 -101 -238 -101q-94 0 -175 48q-79 46 -125 124q-48 81 -48 175t48 175q46 79 125 125q81 47 175 47q135 0 238 -100zM140 333q0 -110 80 -185q69 -64 161 -64q106 0 178 82q62 72 62 167
q0 111 -79 185q-68 65 -161 65q-107 0 -179 -83q-62 -71 -62 -167z" />
    <glyph glyph-name="oe" unicode="&#x153;" horiz-adv-x="860" 
d="M828 112q-76 -126 -208 -126q-112 0 -177 87q-69 -87 -181 -87q-106 0 -175 77q-59 66 -59 159q0 107 76 175q66 60 158 60q112 0 181 -87q69 87 171 87t164 -78q54 -68 54 -167q0 -7 -1 -29h-335q12 -54 48 -82q32 -25 77 -25q77 0 117 65q1 3 4 7zM261 367
q-63 0 -100 -46q-32 -39 -32 -99q0 -69 41 -110q37 -35 91 -35q63 0 100 45q33 40 33 100q0 69 -42 109q-36 36 -91 36zM732 260q-26 108 -117 108q-48 0 -81 -32q-28 -29 -38 -76h236z" />
    <glyph glyph-name="Racute" unicode="&#x154;" horiz-adv-x="547" 
d="M400 844l-144 -145l-66 38l115 158zM369 285l159 -285h-116l-144 260q-27 -2 -47 -2h-44v-258h-104v667h148q100 0 154 -31q49 -28 76 -80q23 -44 23 -96q0 -61 -31 -109q-28 -42 -74 -66zM177 352h52q63 0 95 18q48 27 48 91q0 65 -49 93q-32 18 -94 18h-52v-220z" />
    <glyph glyph-name="racute" unicode="&#x155;" horiz-adv-x="302" 
d="M56 443h100v-35q28 23 47 30t48 7q16 0 37 -2v-89q-25 1 -35 1q-60 0 -81 -39q-16 -32 -16 -102v-214h-100v443zM292 644l-145 -145l-66 38l115 158z" />
    <glyph glyph-name="Rcommaaccent" unicode="&#x156;" horiz-adv-x="547" 
d="M203 -213l54 182l95 -28l-76 -177zM369 285l159 -285h-116l-144 260q-27 -2 -47 -2h-44v-258h-104v667h148q100 0 154 -31q49 -28 76 -80q23 -44 23 -96q0 -61 -31 -109q-28 -42 -74 -66zM177 352h52q63 0 95 18q48 27 48 91q0 65 -49 93q-32 18 -94 18h-52v-220z" />
    <glyph glyph-name="rcommaaccent" unicode="&#x157;" horiz-adv-x="303" 
d="M56 443h100v-35q29 23 47.5 30t48.5 7q15 0 36 -2v-89q-24 1 -35 1q-59 0 -80 -39q-17 -32 -17 -102v-214h-100v443zM12 -213l54 182l95 -28l-76 -177z" />
    <glyph glyph-name="Rcaron" unicode="&#x158;" horiz-adv-x="547" 
d="M259 800l89 88l75 -37l-130 -143h-68l-131 143l75 37zM369 285l159 -285h-116l-144 260q-27 -2 -47 -2h-44v-258h-104v667h148q100 0 154 -31q49 -28 76 -80q23 -44 23 -96q0 -61 -31 -109q-28 -42 -74 -66zM177 352h52q63 0 95 18q48 27 48 91q0 65 -49 93
q-32 18 -94 18h-52v-220z" />
    <glyph glyph-name="rcaron" unicode="&#x159;" horiz-adv-x="300" 
d="M56 443h100v-35q29 23 47.5 30t48.5 7q15 0 36 -2v-89q-24 1 -35 1q-59 0 -80 -39q-17 -32 -17 -102v-214h-100v443zM172 600l90 88l75 -37l-131 -143h-68l-130 143l75 37z" />
    <glyph glyph-name="Sacute" unicode="&#x15a;" horiz-adv-x="515" 
d="M463 559l-84 -53q-29 44 -53.5 61t-60.5 17q-46 0 -75 -30q-26 -26 -26 -63q0 -54 85 -86l63 -25q88 -34 127 -82q34 -43 34 -102q0 -95 -72 -156q-62 -54 -149 -54q-51 0 -96 20.5t-74 57.5q-33 42 -49 114l101 27q2 -9 4 -16q27 -105 116 -105q51 0 85 36q29 32 29 75
q0 33 -23 55t-79 44l-61 23q-144 56 -144 175q0 86 67 141q57 47 140 47q64 0 110 -28.5t85 -92.5zM414 844l-144 -145l-66 38l115 158z" />
    <glyph glyph-name="sacute" unicode="&#x15b;" horiz-adv-x="380" 
d="M105 149q21 -41 39.5 -57t46.5 -16q27 0 44 15.5t17 39.5q0 18 -12.5 28t-51.5 25l-45 18q-97 37 -97 119q0 62 49 102q42 34 102 34q97 0 148 -97l-78 -39q-18 27 -34 37.5t-37 10.5q-25 0 -40 -12.5t-15 -32.5q0 -18 11.5 -27t51.5 -25l42 -16q55 -21 80.5 -50
t25.5 -71q0 -68 -53 -111q-45 -38 -109 -38q-118 0 -167 130zM336 644l-144 -145l-66 38l115 158z" />
    <glyph glyph-name="Scircumflex" unicode="&#x15c;" horiz-adv-x="515" 
d="M463 559l-84 -53q-29 44 -53.5 61t-60.5 17q-46 0 -75 -30q-26 -26 -26 -63q0 -54 85 -86l63 -25q88 -34 127 -82q34 -43 34 -102q0 -95 -72 -156q-62 -54 -149 -54q-51 0 -96 20.5t-74 57.5q-33 42 -49 114l101 27q2 -9 4 -16q27 -105 116 -105q51 0 85 36q29 32 29 75
q0 33 -23 55t-79 44l-61 23q-144 56 -144 175q0 86 67 141q57 47 140 47q64 0 110 -28.5t85 -92.5zM254 787l-89 -88l-75 38l130 143h68l131 -143l-75 -38z" />
    <glyph glyph-name="scircumflex" unicode="&#x15d;" horiz-adv-x="386" 
d="M105 149q21 -41 39.5 -57t46.5 -16q27 0 44 15.5t17 39.5q0 18 -12.5 28t-51.5 25l-45 18q-97 37 -97 119q0 62 49 102q42 34 102 34q97 0 148 -97l-78 -39q-18 27 -34 37.5t-37 10.5q-25 0 -40 -12.5t-15 -32.5q0 -18 11.5 -27t51.5 -25l42 -16q55 -21 80.5 -50
t25.5 -71q0 -68 -53 -111q-45 -38 -109 -38q-118 0 -167 130zM190 587l-90 -88l-74 38l130 143h68l130 -143l-74 -38z" />
    <glyph glyph-name="Scedilla" unicode="&#x15e;" horiz-adv-x="515" 
d="M463 559l-84 -53q-29 44 -53.5 61t-60.5 17q-46 0 -75 -30q-26 -26 -26 -63q0 -54 85 -86l63 -25q88 -34 127 -82q34 -43 34 -102q0 -95 -72 -156q-62 -54 -149 -54q-51 0 -96 20.5t-74 57.5q-33 42 -49 114l101 27q2 -9 4 -16q27 -105 116 -105q51 0 85 36q29 32 29 75
q0 33 -23 55t-79 44l-61 23q-144 56 -144 175q0 86 67 141q57 47 140 47q64 0 110 -28.5t85 -92.5zM258 -30l92 -40l-118 -150l-71 36z" />
    </font>
</defs>
</svg>
