<?xml version="1.0" standalone="no"?>
<!DOCTYPE svg PUBLIC "-//W3C//DTD SVG 1.1//EN" "http://www.w3.org/Graphics/SVG/1.1/DTD/svg11.dtd" >
<svg xmlns="http://www.w3.org/2000/svg" xmlns:xlink="http://www.w3.org/1999/xlink" version="1.1">
<metadata>
Created by FontForge 20170731 at Wed Dec 20 17:38:26 2017
 By Aleksey,,,
(URW)++,Copyright 2017 by (URW)++ Design &#38; Development
</metadata>
<defs>
<font id="URWGeometricArabic-ExtraLight" horiz-adv-x="0" >
  <font-face 
    font-family="URWGeometricArabic-ExtraLight"
    font-weight="400"
    font-stretch="normal"
    units-per-em="1000"
    panose-1="0 0 0 0 0 0 0 0 0 0"
    ascent="734"
    descent="-266"
    x-height="443"
    cap-height="667"
    bbox="-384 -431 1427 1043"
    underline-thickness="36"
    underline-position="-188"
    unicode-range="U+0020-FEFC"
  />
<missing-glyph horiz-adv-x="364" 
d="M33 0v666h265v-666h-265zM66 33h199v600h-199v-600z" />
    <glyph glyph-name="uni064D0651" unicode="&#x64b;&#x651;" 
d="M-176 922l-144 -26l-5 29l144 26zM-175 855l-143 -26l-5 28l143 27zM-250 706q-17 -17 -38 -17q-20 0 -34 13.5t-14 33.5v56h27v-53q0 -22 22 -22q24 0 24 21v38h27v-38q0 -21 23 -21q22 0 22 22v53h27v-56q0 -20 -13.5 -33.5t-34.5 -13.5q-23 0 -38 17z" />
    <glyph glyph-name="fi" unicode="fi" horiz-adv-x="414" 
d="M86 443v94q0 135 93 135q15 0 34 -5v-39q-16 4 -27 4q-30 0 -44 -22.5t-14 -72.5v-94h86v-38h-86v-405h-42v405h-48v38h48zM344 443v-443h-41v443h41zM323 623q14 0 24 -10t10 -24t-10 -24t-24 -10q-13 0 -23 10t-10 24t9.5 24t23.5 10z" />
    <glyph glyph-name="fl" unicode="fl" horiz-adv-x="416" 
d="M86 443v94q0 135 93 135q15 0 34 -5v-39q-16 4 -27 4q-30 0 -44 -22.5t-14 -72.5v-94h86v-38h-86v-405h-42v405h-48v38h48zM345 0h-42v667h42v-667z" />
    <glyph glyph-name="uniFC5E" unicode="&#x64c;&#x651;" arabic-form="isolated" 
d="M-232 851q-23 18 -23 47q0 23 14 38t36 15t36 -14.5t14 -37.5q0 -32 -22 -53t-56 -21q-46 0 -68 35l-19 -33l-22 14l31 48h20q19 -41 59 -38zM-203 858q23 10 23 39q0 13 -7 21.5t-18 8.5q-23 0 -23 -29q0 -26 25 -40zM-250 706q-17 -17 -38 -17q-20 0 -34 13.5t-14 33.5
v56h27v-53q0 -22 22 -22q24 0 24 21v38h27v-38q0 -21 23 -21q22 0 22 22v53h27v-56q0 -20 -13.5 -33.5t-34.5 -13.5q-23 0 -38 17z" />
    <glyph glyph-name="uniFC5F" unicode="&#x64d;&#x651;" arabic-form="isolated" 
d="M-248 854q-19 -17 -38 -17q-20 0 -34 13.5t-14 33.5v56h26v-53q0 -22 23 -22t23 21v38h27v-38q0 -21 24 -21q22 0 22 22v53h26v-56q0 -20 -13.5 -33.5t-34.5 -13.5q-22 0 -37 17zM-176 780l-143 -26l-5 28l143 26zM-174 712l-144 -26l-5 29l144 26z" />
    <glyph glyph-name="uniFC60" unicode="&#x64e;&#x651;" arabic-form="isolated" 
d="M-174 856l-146 -27l-6 31l147 27zM-250 706q-17 -17 -38 -17q-20 0 -34 13.5t-14 33.5v56h27v-53q0 -22 22 -22q24 0 24 21v38h27v-38q0 -21 23 -21q22 0 22 22v53h27v-56q0 -20 -13.5 -33.5t-34.5 -13.5q-23 0 -38 17z" />
    <glyph glyph-name="uniFC61" unicode="&#x64f;&#x651;" arabic-form="isolated" 
d="M-221 841l-111 -20l-4 26l98 18q-23 18 -23 48q0 22 14 37t34 15q23 0 37 -14.5t14 -38.5q0 -27 -16.5 -47t-42.5 -24zM-210 873q22 8 22 37q0 31 -24 31q-10 0 -16 -8.5t-6 -21.5q0 -26 24 -38zM-250 706q-17 -17 -38 -17q-20 0 -34 13.5t-14 33.5v56h27v-53
q0 -22 22 -22q24 0 24 21v38h27v-38q0 -21 23 -21q22 0 22 22v53h27v-56q0 -20 -13.5 -33.5t-34.5 -13.5q-23 0 -38 17z" />
    <glyph glyph-name="uniFC62" unicode="&#x650;&#x651;" arabic-form="isolated" 
d="M-250 796q-17 -17 -38 -17q-20 0 -34 13.5t-14 33.5v56h27v-53q0 -22 22 -22q24 0 24 21v38h27v-38q0 -21 23 -21q22 0 22 22v53h27v-56q0 -20 -13.5 -33.5t-34.5 -13.5q-23 0 -38 17zM-173 712l-147 -26l-5 31l147 26z" />
    <glyph glyph-name="uniFC63" unicode="&#x651;&#x670;" arabic-form="isolated" 
d="M-237 821h-30v109h30v-109zM-250 706q-17 -17 -38 -17q-20 0 -34 13.5t-14 33.5v56h27v-53q0 -22 22 -22q24 0 24 21v38h27v-38q0 -21 23 -21q22 0 22 22v53h27v-56q0 -20 -13.5 -33.5t-34.5 -13.5q-23 0 -38 17z" />
    <glyph glyph-name="uniFDF2" unicode="&#x627;&#xfedf;&#xfee0;&#x6c1;" horiz-adv-x="1284" arabic-form="isolated" 
d="M693 790h-23v93h23v-93zM682 682q-14 -17 -37 -17q-20 0 -33 13t-13 33v51h23v-49q0 -25 24 -25t24 22v37h23v-37q0 -22 25 -22q24 0 24 25v49h22v-51q0 -20 -12.5 -33t-32.5 -13q-25 0 -37 17zM1194 0h-43v666h43v-666zM683 76q-40 -76 -148 -76q-121 0 -156 96
q-56 -68 -142 -68q-78 0 -124 59q-43 55 -43 143q0 102 65 158q57 49 147 49h83v52h43v-317q0 -69 37 -103q33 -29 90 -29q67 0 99 42q27 34 27 93v398h43v-398q0 -68 35 -103q32 -32 91 -32q126 0 126 132v401h43v-401q0 -90 -52 -135q-44 -37 -119 -37q-108 0 -145 76z
M365 396h-84q-86 0 -130 -49q-38 -43 -38 -116q0 -82 40 -126q33 -36 84 -36q76 0 131 67q-3 18 -3 37v223z" />
    <glyph glyph-name="uniFEF5" unicode="&#xfedf;&#xfe82;" horiz-adv-x="564" arabic-form="isolated" 
d="M314 0h-289v40h165v473h43v-473h72q73 0 103 41q23 32 23 91v494h43v-506q0 -81 -47 -123q-42 -37 -113 -37zM294 627q-18 -46 -53 -46q-22 0 -49 20q-15 11 -26 11q-18 0 -31 -27l-20 13q20 45 51 45q18 0 40 -18q18 -14 35 -14q14 0 30 25z" />
    <glyph glyph-name="uniFEF6" unicode="&#xfee0;&#xfe82;" horiz-adv-x="605" arabic-form="final" 
d="M316 0h-291v40h165v473h43v-473h72q73 0 103 41q23 32 23 91v494h43v-494q0 -68 31 -100t95 -32h15v-40h-26q-98 0 -136 72q-39 -72 -137 -72zM294 627q-18 -46 -53 -46q-22 0 -49 20q-15 11 -26 11q-18 0 -31 -27l-20 13q20 45 51 45q18 0 40 -18q18 -14 35 -14
q14 0 30 25z" />
    <glyph glyph-name="uniFEF7" unicode="&#xfedf;&#xfe84;" horiz-adv-x="564" arabic-form="isolated" 
d="M281 611h-147v25h35q-10 16 -10 34q0 26 18 43t46 17t45 -15l-10 -20q-17 11 -34 11t-28 -10t-11 -26t15 -34h81v-25zM314 0h-289v40h165v473h43v-473h72q73 0 103 41q23 32 23 91v494h43v-506q0 -81 -47 -123q-42 -37 -113 -37z" />
    <glyph glyph-name="uniFEF8" unicode="&#xfee0;&#xfe84;" horiz-adv-x="605" arabic-form="final" 
d="M281 611h-147v25h35q-10 16 -10 34q0 26 18 43t46 17t45 -15l-10 -20q-17 11 -34 11t-28 -10t-11 -26t15 -34h81v-25zM316 0h-291v40h165v473h43v-473h72q73 0 103 41q23 32 23 91v494h43v-494q0 -68 31 -100t95 -32h15v-40h-26q-98 0 -136 72q-39 -72 -137 -72z" />
    <glyph glyph-name="uniFEF9" unicode="&#xfedf;&#xfe88;" horiz-adv-x="563" arabic-form="isolated" 
d="M314 0h-289v40h165v473h43v-473h72q73 0 103 41q23 32 23 91v494h43v-506q0 -81 -47 -123q-42 -37 -113 -37zM278 -221h-147v25h35q-10 16 -10 34q0 26 18.5 43t46.5 17q26 0 45 -15l-11 -20q-16 10 -34 10q-17 0 -27.5 -9.5t-10.5 -25.5q0 -19 14 -34h81v-25z" />
    <glyph glyph-name="uniFEFA" unicode="&#xfee0;&#xfe88;" horiz-adv-x="605" arabic-form="final" 
d="M316 0h-291v40h165v473h43v-473h72q73 0 103 41q23 32 23 91v494h43v-494q0 -68 31 -100t95 -32h15v-40h-26q-98 0 -136 72q-39 -72 -137 -72zM278 -221h-147v25h35q-10 16 -10 34q0 26 18.5 43t46.5 17q26 0 45 -15l-11 -20q-16 10 -34 10q-17 0 -27.5 -9.5t-10.5 -25.5
q0 -19 14 -34h81v-25z" />
    <glyph glyph-name="uniFEFB" unicode="&#xfedf;&#xfe8e;" horiz-adv-x="564" arabic-form="isolated" 
d="M314 0h-289v40h165v473h43v-473h72q73 0 103 41q23 32 23 91v494h43v-506q0 -81 -47 -123q-42 -37 -113 -37z" />
    <glyph glyph-name="uniFEFC" unicode="&#xfee0;&#xfe8e;" horiz-adv-x="605" arabic-form="final" 
d="M316 0h-291v40h165v473h43v-473h72q73 0 103 41q23 32 23 91v494h43v-494q0 -68 31 -100t95 -32h15v-40h-26q-98 0 -136 72q-39 -72 -137 -72z" />
    <glyph glyph-name="uniFB50" unicode="&#x671;" horiz-adv-x="223" arabic-form="isolated" 
d="M40 731q37 106 116 106q68 0 68 -61q0 -41 -44 -61q-36 -17 -92 -17q-19 0 -28 1q-2 -8 -7 -29q-3 -10 -4 -16l-29 5q3 16 11 44q-16 3 -49 12l-4 1l5 28q27 -8 57 -13zM70 728q6 -1 18 -1q50 0 78 13q26 13 26 33q0 34 -40 34q-51 0 -82 -79zM133 0h-43v616h43v-616z
" />
    <glyph glyph-name="uniFB51" unicode="&#x671;" horiz-adv-x="264" arabic-form="final" 
d="M40 731q37 106 116 106q68 0 68 -61q0 -41 -44 -61q-36 -17 -92 -17q-19 0 -28 1q-2 -8 -7 -29q-3 -10 -4 -16l-29 5q3 16 11 44q-16 3 -49 12l-4 1l5 28q27 -8 57 -13zM70 728q6 -1 18 -1q50 0 78 13q26 13 26 33q0 34 -40 34q-51 0 -82 -79zM133 616v-444
q0 -68 31 -100t95 -32h15v-40h-24q-81 0 -124 48q-36 42 -36 112v456h43z" />
    <glyph glyph-name="uniFB52" unicode="&#x67b;" horiz-adv-x="856" arabic-form="isolated" 
d="M599 0h-309q-106 0 -165 71q-45 56 -45 133q0 61 32 111q30 47 82 72l20 -31q-44 -22 -68 -63t-24 -91q0 -70 48 -117q45 -45 117 -45h302q134 0 134 135v243h43v-246q0 -90 -51 -135q-43 -37 -116 -37zM460 -119q0 -14 -9.5 -23.5t-23.5 -9.5t-23.5 9.5t-9.5 23.5
t9.5 23.5t23.5 9.5t23.5 -9.5t9.5 -23.5zM460 -206q0 -14 -9.5 -23.5t-23.5 -9.5t-23.5 9.5t-9.5 23.5t9.5 23.5t23.5 9.5t23.5 -9.5t9.5 -23.5z" />
    <glyph glyph-name="uniFB53" unicode="&#x67b;" horiz-adv-x="895" arabic-form="final" 
d="M595 0h-305q-106 0 -165 71q-45 56 -45 133q0 61 32 111q30 47 82 72l20 -31q-44 -22 -68 -63t-24 -91q0 -70 48 -117q45 -45 117 -45h302q134 0 134 135v243h43v-243q0 -68 35 -103q32 -32 91 -32h13v-40h-21q-100 0 -139 76q-41 -76 -150 -76zM460 -119
q0 -14 -9.5 -23.5t-23.5 -9.5t-23.5 9.5t-9.5 23.5t9.5 23.5t23.5 9.5t23.5 -9.5t9.5 -23.5zM460 -206q0 -14 -9.5 -23.5t-23.5 -9.5t-23.5 9.5t-9.5 23.5t9.5 23.5t23.5 9.5t23.5 -9.5t9.5 -23.5z" />
    <glyph glyph-name="uniFB54" unicode="&#x67b;" horiz-adv-x="261" arabic-form="initial" 
d="M-10 0v40h13q68 0 100 42q26 34 26 93v243h43v-246q0 -90 -50 -135q-42 -37 -110 -37h-22zM87 -239q-13 0 -22.5 10t-9.5 23t9.5 23t22.5 10q14 0 23.5 -9.5t9.5 -23.5t-9.5 -23.5t-23.5 -9.5zM87 -152q-13 0 -22.5 10t-9.5 23t9.5 23t22.5 10q14 0 23.5 -9.5t9.5 -23.5
t-9.5 -23.5t-23.5 -9.5z" />
    <glyph glyph-name="uniFB55" unicode="&#x67b;" horiz-adv-x="301" arabic-form="medial" 
d="M-10 0v40h13q68 0 100 42q26 34 26 93v243h43v-243q0 -68 35 -103q32 -32 91 -32h13v-40h-20q-101 0 -140 76q-40 -76 -139 -76h-22zM148 -239q-14 0 -23.5 9.5t-9.5 23.5t9.5 23.5t23.5 9.5t23.5 -9.5t9.5 -23.5t-9.5 -23.5t-23.5 -9.5zM148 -152q-14 0 -23.5 9.5
t-9.5 23.5t9.5 23.5t23.5 9.5t23.5 -9.5t9.5 -23.5t-9.5 -23.5t-23.5 -9.5z" />
    <glyph glyph-name="uniFB56" unicode="&#x67e;" horiz-adv-x="856" arabic-form="isolated" 
d="M599 0h-309q-106 0 -165 71q-45 56 -45 133q0 61 32 111q30 47 82 72l20 -31q-44 -22 -68 -63t-24 -91q0 -70 48 -117q45 -45 117 -45h302q134 0 134 135v243h43v-246q0 -90 -51 -135q-43 -37 -116 -37zM415 -119q0 -14 -9.5 -23.5t-23.5 -9.5q-13 0 -23 10t-10 23t10 23
t23 10t23 -10t10 -23zM504 -119q0 -14 -9.5 -23.5t-23.5 -9.5t-23.5 9.5t-9.5 23.5q0 13 10 23t23 10t23 -10t10 -23zM458 -199q0 -13 -9.5 -22t-22.5 -9t-22 9t-9 22t9 22.5t22 9.5t22.5 -9.5t9.5 -22.5z" />
    <glyph glyph-name="uniFB57" unicode="&#x67e;" horiz-adv-x="895" arabic-form="final" 
d="M595 0h-305q-106 0 -165 71q-45 56 -45 133q0 61 32 111q30 47 82 72l20 -31q-44 -22 -68 -63t-24 -91q0 -70 48 -117q45 -45 117 -45h302q134 0 134 135v243h43v-243q0 -68 35 -103q32 -32 91 -32h13v-40h-21q-100 0 -139 76q-41 -76 -150 -76zM415 -119
q0 -14 -9.5 -23.5t-23.5 -9.5q-13 0 -23 10t-10 23t10 23t23 10t23 -10t10 -23zM504 -119q0 -14 -9.5 -23.5t-23.5 -9.5t-23.5 9.5t-9.5 23.5q0 13 10 23t23 10t23 -10t10 -23zM458 -199q0 -13 -9.5 -22t-22.5 -9t-22 9t-9 22t9 22.5t22 9.5t22.5 -9.5t9.5 -22.5z" />
    <glyph glyph-name="uniFB58" unicode="&#x67e;" horiz-adv-x="261" arabic-form="initial" 
d="M-10 0v40h13q68 0 100 42q26 34 26 93v243h43v-246q0 -90 -50 -135q-42 -37 -110 -37h-22zM79 -230q-13 0 -22.5 9t-9.5 22t9.5 22.5t22.5 9.5t22 -9.5t9 -22.5t-9 -22t-22 -9zM35 -152q-14 0 -23.5 9.5t-9.5 23.5q0 13 10 23t23 10t23 -10t10 -23t-10 -23t-23 -10z
M123 -152q-13 0 -23 10t-10 23t10 23t23 10t23 -10t10 -23q0 -14 -9.5 -23.5t-23.5 -9.5z" />
    <glyph glyph-name="uniFB59" unicode="&#x67e;" horiz-adv-x="301" arabic-form="medial" 
d="M12 0h-22v40h13q68 0 100 42q26 34 26 93v243h43v-243q0 -68 35 -103q32 -32 91 -32h13v-40h-20q-101 0 -140 76q-40 -76 -139 -76zM139 -119q0 -14 -9.5 -23.5t-23.5 -9.5q-13 0 -23 10t-10 23t10 23t23 10t23 -10t10 -23zM228 -119q0 -14 -9.5 -23.5t-23.5 -9.5
t-23.5 9.5t-9.5 23.5q0 13 10 23t23 10t23 -10t10 -23zM182 -199q0 -13 -9.5 -22t-22.5 -9t-22 9t-9 22t9 22.5t22 9.5t22.5 -9.5t9.5 -22.5z" />
    <glyph glyph-name="uniFB5A" unicode="&#x680;" horiz-adv-x="856" arabic-form="isolated" 
d="M599 0h-309q-106 0 -165 71q-45 56 -45 133q0 61 32 111q30 47 82 72l20 -31q-44 -22 -68 -63t-24 -91q0 -70 48 -117q45 -45 117 -45h302q134 0 134 135v243h43v-246q0 -90 -51 -135q-43 -37 -116 -37zM416 -119q0 -14 -9.5 -23.5t-23.5 -9.5t-23.5 9.5t-9.5 23.5
t9.5 23.5t23.5 9.5t23.5 -9.5t9.5 -23.5zM503 -119q0 -14 -9.5 -23.5t-23.5 -9.5q-13 0 -22.5 10t-9.5 23t9.5 23t22.5 10q14 0 23.5 -9.5t9.5 -23.5zM416 -207q0 -14 -9.5 -23.5t-23.5 -9.5t-23.5 9.5t-9.5 23.5t9.5 23.5t23.5 9.5t23.5 -9.5t9.5 -23.5zM503 -207
q0 -14 -9.5 -23.5t-23.5 -9.5q-13 0 -22.5 10t-9.5 23t9.5 23t22.5 10q14 0 23.5 -9.5t9.5 -23.5z" />
    <glyph glyph-name="uniFB5B" unicode="&#x680;" horiz-adv-x="895" arabic-form="final" 
d="M595 0h-305q-106 0 -165 71q-45 56 -45 133q0 61 32 111q30 47 82 72l20 -31q-44 -22 -68 -63t-24 -91q0 -70 48 -117q45 -45 117 -45h302q134 0 134 135v243h43v-243q0 -68 35 -103q32 -32 91 -32h13v-40h-21q-100 0 -139 76q-41 -76 -150 -76zM416 -119
q0 -14 -9.5 -23.5t-23.5 -9.5t-23.5 9.5t-9.5 23.5t9.5 23.5t23.5 9.5t23.5 -9.5t9.5 -23.5zM503 -119q0 -14 -9.5 -23.5t-23.5 -9.5q-13 0 -22.5 10t-9.5 23t9.5 23t22.5 10q14 0 23.5 -9.5t9.5 -23.5zM416 -207q0 -14 -9.5 -23.5t-23.5 -9.5t-23.5 9.5t-9.5 23.5t9.5 23.5
t23.5 9.5t23.5 -9.5t9.5 -23.5zM503 -207q0 -14 -9.5 -23.5t-23.5 -9.5q-13 0 -22.5 10t-9.5 23t9.5 23t22.5 10q14 0 23.5 -9.5t9.5 -23.5z" />
    <glyph glyph-name="uniFB5C" unicode="&#x680;" horiz-adv-x="261" arabic-form="initial" 
d="M-10 0v40h13q68 0 100 42q26 34 26 93v243h43v-246q0 -90 -50 -135q-42 -37 -110 -37h-22zM39 -240q-13 0 -22.5 10t-9.5 23t9.5 23t22.5 10q14 0 23.5 -9.5t9.5 -23.5t-9.5 -23.5t-23.5 -9.5zM127 -240q-14 0 -23.5 9.5t-9.5 23.5t9.5 23.5t23.5 9.5q13 0 22.5 -10
t9.5 -23t-9.5 -23t-22.5 -10zM39 -152q-13 0 -22.5 10t-9.5 23t9.5 23t22.5 10q14 0 23.5 -9.5t9.5 -23.5t-9.5 -23.5t-23.5 -9.5zM127 -152q-14 0 -23.5 9.5t-9.5 23.5t9.5 23.5t23.5 9.5q13 0 22.5 -10t9.5 -23t-9.5 -23t-22.5 -10z" />
    <glyph glyph-name="uniFB5D" unicode="&#x680;" horiz-adv-x="301" arabic-form="medial" 
d="M-10 0v40h13q68 0 100 42q26 34 26 93v243h43v-243q0 -68 35 -103q32 -32 91 -32h13v-40h-20q-101 0 -140 76q-40 -76 -139 -76h-22zM100 -240q-14 0 -23.5 9.5t-9.5 23.5t9.5 23.5t23.5 9.5q13 0 22.5 -10t9.5 -23t-9.5 -23t-22.5 -10zM187 -240q-14 0 -23.5 9.5
t-9.5 23.5t9.5 23.5t23.5 9.5t23.5 -9.5t9.5 -23.5t-9.5 -23.5t-23.5 -9.5zM100 -152q-14 0 -23.5 9.5t-9.5 23.5t9.5 23.5t23.5 9.5q13 0 22.5 -10t9.5 -23t-9.5 -23t-22.5 -10zM187 -152q-14 0 -23.5 9.5t-9.5 23.5t9.5 23.5t23.5 9.5t23.5 -9.5t9.5 -23.5t-9.5 -23.5
t-23.5 -9.5z" />
    <glyph glyph-name="uniFB5E" unicode="&#x67a;" horiz-adv-x="856" arabic-form="isolated" 
d="M474 575q0 -14 -9.5 -23.5t-23.5 -9.5t-23.5 9.5t-9.5 23.5q0 13 10 22.5t23 9.5t23 -9.5t10 -22.5zM474 485q0 -14 -9.5 -23.5t-23.5 -9.5t-23.5 9.5t-9.5 23.5q0 13 10 22.5t23 9.5t23 -9.5t10 -22.5zM599 0h-309q-106 0 -165 71q-45 56 -45 133q0 61 32 111
q30 47 82 72l20 -31q-44 -22 -68 -63t-24 -91q0 -70 48 -117q45 -45 117 -45h302q134 0 134 135v243h43v-246q0 -90 -51 -135q-43 -37 -116 -37z" />
    <glyph glyph-name="uniFB5F" unicode="&#x67a;" horiz-adv-x="895" arabic-form="final" 
d="M481 542q0 -13 -10 -22.5t-23 -9.5t-22.5 9.5t-9.5 22.5t9.5 23t22.5 10q14 0 23.5 -9.5t9.5 -23.5zM481 452q0 -13 -10 -22.5t-23 -9.5t-22.5 9.5t-9.5 22.5t9.5 23t22.5 10q14 0 23.5 -9.5t9.5 -23.5zM595 0h-305q-106 0 -165 71q-45 56 -45 133q0 61 32 111
q30 47 82 72l20 -31q-44 -22 -68 -63t-24 -91q0 -70 48 -117q45 -45 117 -45h302q134 0 134 135v243h43v-243q0 -68 35 -103q32 -32 91 -32h13v-40h-21q-100 0 -139 76q-41 -76 -150 -76z" />
    <glyph glyph-name="uniFB60" unicode="&#x67a;" horiz-adv-x="261" arabic-form="initial" 
d="M181 632q0 -13 -10 -22.5t-23 -9.5t-23 9.5t-10 22.5q0 14 9.5 23.5t23.5 9.5t23.5 -9.5t9.5 -23.5zM181 542q0 -13 -10 -22.5t-23 -9.5t-23 9.5t-10 22.5q0 14 9.5 23.5t23.5 9.5t23.5 -9.5t9.5 -23.5zM12 0h-22v40h13q68 0 100 42q26 34 26 93v243h43v-246
q0 -90 -50 -135q-42 -37 -110 -37z" />
    <glyph glyph-name="uniFB61" unicode="&#x67a;" horiz-adv-x="301" arabic-form="medial" 
d="M184 632q0 -13 -10 -22.5t-23 -9.5t-23 9.5t-10 22.5q0 14 9.5 23.5t23.5 9.5t23.5 -9.5t9.5 -23.5zM184 542q0 -13 -10 -22.5t-23 -9.5t-23 9.5t-10 22.5q0 14 9.5 23.5t23.5 9.5t23.5 -9.5t9.5 -23.5zM12 0h-22v40h13q68 0 100 42q26 34 26 93v243h43v-243
q0 -68 35 -103q32 -32 91 -32h13v-40h-20q-101 0 -140 76q-40 -76 -139 -76z" />
    <glyph glyph-name="uniFB62" unicode="&#x67f;" horiz-adv-x="856" arabic-form="isolated" 
d="M428 574q0 -13 -9.5 -22.5t-22.5 -9.5t-23 9.5t-10 22.5q0 14 9.5 23.5t23.5 9.5q13 0 22.5 -10t9.5 -23zM516 574q0 -13 -10 -22.5t-23 -9.5t-23 9.5t-10 22.5q0 14 9.5 23.5t23.5 9.5t23.5 -9.5t9.5 -23.5zM428 484q0 -13 -9.5 -22.5t-22.5 -9.5t-23 9.5t-10 22.5
q0 14 9.5 23.5t23.5 9.5q13 0 22.5 -10t9.5 -23zM516 484q0 -13 -10 -22.5t-23 -9.5t-23 9.5t-10 22.5q0 14 9.5 23.5t23.5 9.5t23.5 -9.5t9.5 -23.5zM599 0h-309q-106 0 -165 71q-45 56 -45 133q0 61 32 111q30 47 82 72l20 -31q-44 -22 -68 -63t-24 -91q0 -70 48 -117
q45 -45 117 -45h302q134 0 134 135v243h43v-246q0 -90 -51 -135q-43 -37 -116 -37z" />
    <glyph glyph-name="uniFB63" unicode="&#x67f;" horiz-adv-x="895" arabic-form="final" 
d="M437 538q0 -14 -9.5 -23.5t-23.5 -9.5q-13 0 -22.5 10t-9.5 23t9.5 23t22.5 10q14 0 23.5 -9.5t9.5 -23.5zM524 538q0 -13 -9.5 -23t-22.5 -10q-14 0 -23.5 9.5t-9.5 23.5t9.5 23.5t23.5 9.5q13 0 22.5 -10t9.5 -23zM437 448q0 -14 -9.5 -23.5t-23.5 -9.5q-13 0 -22.5 10
t-9.5 23t9.5 23t22.5 10q14 0 23.5 -9.5t9.5 -23.5zM524 448q0 -13 -9.5 -23t-22.5 -10q-14 0 -23.5 9.5t-9.5 23.5t9.5 23.5t23.5 9.5q13 0 22.5 -10t9.5 -23zM595 0h-305q-106 0 -165 71q-45 56 -45 133q0 61 32 111q30 47 82 72l20 -31q-44 -22 -68 -63t-24 -91
q0 -70 48 -117q45 -45 117 -45h302q134 0 134 135v243h43v-243q0 -68 35 -103q32 -32 91 -32h13v-40h-21q-100 0 -139 76q-41 -76 -150 -76z" />
    <glyph glyph-name="uniFB64" unicode="&#x67f;" horiz-adv-x="261" arabic-form="initial" 
d="M137 628q0 -14 -9.5 -23.5t-23.5 -9.5t-23.5 9.5t-9.5 23.5t9.5 23.5t23.5 9.5t23.5 -9.5t9.5 -23.5zM224 628q0 -14 -9.5 -23.5t-23.5 -9.5q-13 0 -22.5 10t-9.5 23t9.5 23t22.5 10q14 0 23.5 -9.5t9.5 -23.5zM137 538q0 -14 -9.5 -23.5t-23.5 -9.5t-23.5 9.5t-9.5 23.5
t9.5 23.5t23.5 9.5t23.5 -9.5t9.5 -23.5zM224 538q0 -14 -9.5 -23.5t-23.5 -9.5q-13 0 -22.5 10t-9.5 23t9.5 23t22.5 10q14 0 23.5 -9.5t9.5 -23.5zM12 0h-22v40h13q68 0 100 42q26 34 26 93v243h43v-246q0 -90 -50 -135q-42 -37 -110 -37z" />
    <glyph glyph-name="uniFB65" unicode="&#x67f;" horiz-adv-x="301" arabic-form="medial" 
d="M140 628q0 -14 -9.5 -23.5t-23.5 -9.5t-23.5 9.5t-9.5 23.5t9.5 23.5t23.5 9.5t23.5 -9.5t9.5 -23.5zM227 628q0 -14 -9.5 -23.5t-23.5 -9.5q-13 0 -22.5 10t-9.5 23t9.5 23t22.5 10q14 0 23.5 -9.5t9.5 -23.5zM140 538q0 -14 -9.5 -23.5t-23.5 -9.5t-23.5 9.5t-9.5 23.5
t9.5 23.5t23.5 9.5t23.5 -9.5t9.5 -23.5zM227 538q0 -14 -9.5 -23.5t-23.5 -9.5q-13 0 -22.5 10t-9.5 23t9.5 23t22.5 10q14 0 23.5 -9.5t9.5 -23.5zM12 0h-22v40h13q68 0 100 42q26 34 26 93v243h43v-243q0 -68 35 -103q32 -32 91 -32h13v-40h-20q-101 0 -140 76
q-40 -76 -139 -76z" />
    <glyph glyph-name="uniFB66" unicode="&#x679;" horiz-adv-x="856" arabic-form="isolated" 
d="M498 435h-170v30h43v141h32v-100q19 29 44.5 46t52.5 17q31 0 49.5 -18t18.5 -49q0 -67 -70 -67zM404 465h91q22 0 31.5 8.5t9.5 28.5q0 36 -39 36q-51 0 -93 -73zM599 0h-309q-106 0 -165 71q-45 56 -45 133q0 61 32 111q30 47 82 72l20 -31q-44 -22 -68 -63t-24 -91
q0 -70 48 -117q45 -45 117 -45h302q134 0 134 135v243h43v-246q0 -90 -51 -135q-43 -37 -116 -37z" />
    <glyph glyph-name="uniFB67" unicode="&#x679;" horiz-adv-x="895" arabic-form="final" 
d="M498 435h-170v30h43v141h32v-100q19 29 44.5 46t52.5 17q31 0 49.5 -18t18.5 -49q0 -67 -70 -67zM404 465h91q22 0 31.5 8.5t9.5 28.5q0 36 -39 36q-51 0 -93 -73zM595 0h-305q-106 0 -165 71q-45 56 -45 133q0 61 32 111q30 47 82 72l20 -31q-44 -22 -68 -63t-24 -91
q0 -70 48 -117q45 -45 117 -45h302q134 0 134 135v243h43v-243q0 -68 35 -103q32 -32 91 -32h13v-40h-21q-100 0 -139 76q-41 -76 -150 -76z" />
    <glyph glyph-name="uniFB68" unicode="&#x679;" horiz-adv-x="261" arabic-form="initial" 
d="M198 525h-171v30h44v141h32v-100q40 63 96 63q32 0 50.5 -18t18.5 -49q0 -67 -70 -67zM104 555h91q22 0 31.5 8.5t9.5 28.5q0 36 -40 36q-50 0 -92 -73zM12 0h-22v40h13q68 0 100 42q26 34 26 93v243h43v-246q0 -90 -50 -135q-42 -37 -110 -37z" />
    <glyph glyph-name="uniFB69" unicode="&#x679;" horiz-adv-x="301" arabic-form="medial" 
d="M201 525h-171v30h44v141h32v-100q40 63 96 63q32 0 50.5 -18t18.5 -49q0 -67 -70 -67zM107 555h91q22 0 31.5 8.5t9.5 28.5q0 36 -40 36q-50 0 -92 -73zM12 0h-22v40h13q68 0 100 42q26 34 26 93v243h43v-243q0 -68 35 -103q32 -32 91 -32h13v-40h-20q-101 0 -140 76
q-40 -76 -139 -76z" />
    <glyph glyph-name="uniFB6A" unicode="&#x6a4;" horiz-adv-x="909" arabic-form="isolated" 
d="M693 617q0 -13 -9.5 -22t-22.5 -9t-22.5 9t-9.5 22t9.5 22.5t22.5 9.5t22.5 -9.5t9.5 -22.5zM650 538q0 -14 -9.5 -23.5t-23.5 -9.5t-23.5 9.5t-9.5 23.5t9.5 23.5t23.5 9.5t23.5 -9.5t9.5 -23.5zM739 538q0 -13 -10 -23t-23 -10q-14 0 -23.5 9.5t-9.5 23.5t9.5 23.5
t23.5 9.5q13 0 23 -10t10 -23zM669 0h-379q-106 0 -165 71q-45 56 -45 133q0 61 32 111q30 47 82 72l20 -31q-44 -22 -68 -63t-24 -91q0 -70 48 -117q45 -45 117 -45h265q-61 61 -61 174q0 106 53 163q47 51 125 51q79 0 122 -50q38 -44 38 -116v-97q0 -80 -47 -125
q-43 -40 -113 -40zM534 213q0 -82 40 -130q36 -43 89 -43q123 0 123 131v82q0 69 -34 103q-30 31 -83 31q-70 0 -106 -55q-29 -45 -29 -119z" />
    <glyph glyph-name="uniFB6B" unicode="&#x6a4;" horiz-adv-x="942" arabic-form="final" 
d="M702 617q0 -13 -9.5 -22t-22.5 -9t-22.5 9t-9.5 22t9.5 22.5t22.5 9.5t22.5 -9.5t9.5 -22.5zM659 538q0 -14 -9.5 -23.5t-23.5 -9.5t-23.5 9.5t-9.5 23.5t9.5 23.5t23.5 9.5t23.5 -9.5t9.5 -23.5zM748 538q0 -13 -10 -23t-23 -10q-14 0 -23.5 9.5t-9.5 23.5t9.5 23.5
t23.5 9.5q13 0 23 -10t10 -23zM616 0h-326q-106 0 -165 71q-45 56 -45 133q0 61 32 111q30 47 82 72l20 -31q-44 -22 -68 -63t-24 -91q0 -70 48 -117q45 -45 117 -45h317q-56 34 -86 92q-25 48 -25 101q0 93 52 147q47 49 125 49q89 0 137 -63q39 -52 39 -133
q0 -61 -32 -114q-30 -50 -79 -79h217v-40h-229q-24 0 -53 6q-30 -6 -54 -6zM670 45q134 55 134 187q0 72 -38 116q-36 41 -96 41q-69 0 -105 -52q-29 -42 -29 -104t41 -116q36 -48 93 -72z" />
    <glyph glyph-name="uniFB6C" unicode="&#x6a4;" horiz-adv-x="526" arabic-form="initial" 
d="M319 617q0 -13 -9.5 -22t-22.5 -9t-22 9t-9 22t9 22.5t22 9.5t22.5 -9.5t9.5 -22.5zM276 538q0 -14 -9.5 -23.5t-23.5 -9.5q-13 0 -23 10t-10 23t10 23t23 10q14 0 23.5 -9.5t9.5 -23.5zM365 538q0 -14 -9.5 -23.5t-23.5 -9.5t-23.5 9.5t-9.5 23.5t9.5 23.5t23.5 9.5
t23.5 -9.5t9.5 -23.5zM285 0h-295v40h178q-60 60 -60 174q0 106 53 163q47 51 125 51q79 0 122 -50q38 -44 38 -116v-97q-1 -79 -48 -124q-43 -40 -113 -41zM151 213q0 -82 40 -130q35 -43 88 -43q124 0 124 131v82q0 69 -34 103q-30 31 -83 31q-70 0 -106 -55
q-29 -45 -29 -119z" />
    <glyph glyph-name="uniFB6D" unicode="&#x6a4;" horiz-adv-x="544" arabic-form="medial" 
d="M303 617q0 -13 -9.5 -22t-22.5 -9t-22 9t-9 22t9 22.5t22 9.5t22.5 -9.5t9.5 -22.5zM260 538q0 -14 -9.5 -23.5t-23.5 -9.5q-13 0 -23 10t-10 23t10 23t23 10q14 0 23.5 -9.5t9.5 -23.5zM349 538q0 -14 -9.5 -23.5t-23.5 -9.5t-23.5 9.5t-9.5 23.5t9.5 23.5t23.5 9.5
t23.5 -9.5t9.5 -23.5zM219 0h-229v40h216q-56 34 -86 92q-25 48 -25 101q0 93 52 147q47 49 125 49q89 0 137 -63q40 -52 40 -133q0 -60 -33 -114q-29 -50 -78 -79h216v-40h-229q-25 0 -53 6q-28 -6 -53 -6zM272 45q134 55 134 187q0 72 -38 116q-36 41 -96 41
q-68 0 -105 -52q-29 -42 -29 -104t41 -116q36 -48 93 -72z" />
    <glyph glyph-name="uniFB6E" unicode="&#x6a6;" horiz-adv-x="909" arabic-form="isolated" 
d="M650 628q0 -13 -9.5 -23t-22.5 -10q-14 0 -23.5 9.5t-9.5 23.5t9.5 23.5t23.5 9.5q13 0 22.5 -10t9.5 -23zM738 628q0 -14 -9.5 -23.5t-23.5 -9.5t-23.5 9.5t-9.5 23.5t9.5 23.5t23.5 9.5t23.5 -9.5t9.5 -23.5zM650 538q0 -13 -9.5 -23t-22.5 -10q-14 0 -23.5 9.5
t-9.5 23.5t9.5 23.5t23.5 9.5q13 0 22.5 -10t9.5 -23zM738 538q0 -14 -9.5 -23.5t-23.5 -9.5t-23.5 9.5t-9.5 23.5t9.5 23.5t23.5 9.5t23.5 -9.5t9.5 -23.5zM669 0h-379q-106 0 -165 71q-45 56 -45 133q0 61 32 111q30 47 82 72l20 -31q-44 -22 -68 -63t-24 -91
q0 -70 48 -117q45 -45 117 -45h265q-61 61 -61 174q0 106 53 163q47 51 125 51q79 0 122 -50q38 -44 38 -116v-97q0 -80 -47 -125q-43 -40 -113 -40zM534 213q0 -82 40 -130q36 -43 89 -43q123 0 123 131v82q0 69 -34 103q-30 31 -83 31q-70 0 -106 -55q-29 -45 -29 -119z
" />
    <glyph glyph-name="uniFB6F" unicode="&#x6a6;" horiz-adv-x="942" arabic-form="final" 
d="M659 628q0 -13 -9.5 -23t-22.5 -10q-14 0 -23.5 9.5t-9.5 23.5t9.5 23.5t23.5 9.5q13 0 22.5 -10t9.5 -23zM747 628q0 -14 -9.5 -23.5t-23.5 -9.5t-23.5 9.5t-9.5 23.5t9.5 23.5t23.5 9.5t23.5 -9.5t9.5 -23.5zM659 538q0 -13 -9.5 -23t-22.5 -10q-14 0 -23.5 9.5
t-9.5 23.5t9.5 23.5t23.5 9.5q13 0 22.5 -10t9.5 -23zM747 538q0 -14 -9.5 -23.5t-23.5 -9.5t-23.5 9.5t-9.5 23.5t9.5 23.5t23.5 9.5t23.5 -9.5t9.5 -23.5zM616 0h-326q-106 0 -165 71q-45 56 -45 133q0 61 32 111q30 47 82 72l20 -31q-44 -22 -68 -63t-24 -91
q0 -70 48 -117q45 -45 117 -45h317q-56 34 -86 92q-25 48 -25 101q0 93 52 147q47 49 125 49q89 0 137 -63q39 -52 39 -133q0 -61 -32 -114q-30 -50 -79 -79h217v-40h-229q-24 0 -53 6q-30 -6 -54 -6zM670 45q134 55 134 187q0 72 -38 116q-36 41 -96 41q-69 0 -105 -52
q-29 -42 -29 -104t41 -116q36 -48 93 -72z" />
    <glyph glyph-name="uniFB70" unicode="&#x6a6;" horiz-adv-x="526" arabic-form="initial" 
d="M277 628q0 -14 -9.5 -23.5t-23.5 -9.5t-23.5 9.5t-9.5 23.5t9.5 23.5t23.5 9.5t23.5 -9.5t9.5 -23.5zM364 628q0 -14 -9.5 -23.5t-23.5 -9.5q-13 0 -22.5 10t-9.5 23t9.5 23t22.5 10q14 0 23.5 -9.5t9.5 -23.5zM277 538q0 -14 -9.5 -23.5t-23.5 -9.5t-23.5 9.5t-9.5 23.5
t9.5 23.5t23.5 9.5t23.5 -9.5t9.5 -23.5zM364 538q0 -14 -9.5 -23.5t-23.5 -9.5q-13 0 -22.5 10t-9.5 23t9.5 23t22.5 10q14 0 23.5 -9.5t9.5 -23.5zM285 0h-295v40h178q-60 60 -60 174q0 106 53 163q47 51 125 51q79 0 122 -50q38 -44 38 -116v-97q-1 -79 -48 -124
q-43 -40 -113 -41zM151 213q0 -82 40 -130q35 -43 88 -43q124 0 124 131v82q0 69 -34 103q-30 31 -83 31q-70 0 -106 -55q-29 -45 -29 -119z" />
    <glyph glyph-name="uniFB71" unicode="&#x6a6;" horiz-adv-x="544" arabic-form="medial" 
d="M261 628q0 -14 -9.5 -23.5t-23.5 -9.5t-23.5 9.5t-9.5 23.5t9.5 23.5t23.5 9.5t23.5 -9.5t9.5 -23.5zM348 628q0 -14 -9.5 -23.5t-23.5 -9.5q-13 0 -22.5 10t-9.5 23t9.5 23t22.5 10q14 0 23.5 -9.5t9.5 -23.5zM261 538q0 -14 -9.5 -23.5t-23.5 -9.5t-23.5 9.5t-9.5 23.5
t9.5 23.5t23.5 9.5t23.5 -9.5t9.5 -23.5zM348 538q0 -14 -9.5 -23.5t-23.5 -9.5q-13 0 -22.5 10t-9.5 23t9.5 23t22.5 10q14 0 23.5 -9.5t9.5 -23.5zM219 0h-229v40h216q-56 34 -86 92q-25 48 -25 101q0 93 52 147q47 49 125 49q89 0 137 -63q40 -52 40 -133q0 -60 -33 -114
q-29 -50 -78 -79h216v-40h-229q-25 0 -53 6q-28 -6 -53 -6zM272 45q134 55 134 187q0 72 -38 116q-36 41 -96 41q-68 0 -105 -52q-29 -42 -29 -104t41 -116q36 -48 93 -72z" />
    <glyph glyph-name="uniFB72" unicode="&#x684;" horiz-adv-x="569" arabic-form="isolated" 
d="M486 -314q-81 -52 -181 -52q-110 0 -176 76q-59 67 -59 168q0 156 135 244q111 73 291 84q-43 82 -103 124q-52 36 -109 36q-78 0 -153 -68l-25 28q79 80 177 80q85 0 157 -61q64 -55 99 -143v-30q-201 -10 -315 -89q-111 -77 -111 -206q0 -98 64 -155q53 -48 132 -48
q84 0 158 45zM346 -67q0 -13 -9.5 -23t-22.5 -10q-14 0 -23.5 9.5t-9.5 23.5t9.5 23.5t23.5 9.5q13 0 22.5 -10t9.5 -23zM346 -154q0 -13 -9.5 -23t-22.5 -10q-14 0 -23.5 9.5t-9.5 23.5t9.5 23.5t23.5 9.5q13 0 22.5 -10t9.5 -23z" />
    <glyph glyph-name="uniFB73" unicode="&#x684;" horiz-adv-x="677" arabic-form="final" 
d="M486 -314q-81 -52 -181 -52q-110 0 -176 76q-59 67 -59 168q0 156 135 244q111 73 291 84q-43 82 -103 124q-52 36 -109 36q-78 0 -153 -68l-25 28q79 80 177 80q85 0 157 -61q64 -55 99 -143v-30q-59 -3 -103 -10q20 -65 74.5 -93.5t157.5 -28.5h19v-40h-24
q-116 0 -178 38q-61 37 -87 116q-140 -31 -214 -104q-71 -70 -71 -173q0 -98 64 -155q53 -48 132 -48q84 0 158 45zM345 -69q0 -13 -10 -22.5t-23 -9.5t-22.5 9.5t-9.5 22.5t9.5 23t22.5 10q14 0 23.5 -9.5t9.5 -23.5zM345 -156q0 -13 -10 -22.5t-23 -9.5t-22.5 9.5
t-9.5 22.5t9.5 23t22.5 10q14 0 23.5 -9.5t9.5 -23.5z" />
    <glyph glyph-name="uniFB74" unicode="&#x684;" horiz-adv-x="544" arabic-form="initial" 
d="M106 0h-116v40h113q129 0 197.5 31.5t153.5 129.5q-43 84 -104 127q-53 38 -111 38q-78 0 -153 -68l-25 28q79 80 177 80q85 0 157 -61q64 -55 99 -143v-12q-48 -62 -83.5 -95t-76.5 -53q-84 -42 -228 -42zM275 -119q0 -14 -9.5 -23.5t-23.5 -9.5q-13 0 -22.5 10t-9.5 23
t9.5 23t22.5 10q14 0 23.5 -9.5t9.5 -23.5zM275 -206q0 -14 -9.5 -23.5t-23.5 -9.5q-13 0 -22.5 10t-9.5 23t9.5 23t22.5 10q14 0 23.5 -9.5t9.5 -23.5z" />
    <glyph glyph-name="uniFB75" unicode="&#x684;" horiz-adv-x="670" arabic-form="medial" 
d="M106 0h-116v40h113q129 0 197.5 31.5t153.5 129.5q-43 84 -104 127q-53 38 -111 38q-78 0 -153 -68l-25 28q79 80 177 80q85 0 157 -61q64 -55 99 -143v-12l-7 -9q-29 -37 -44 -53q24 -47 75.5 -67.5t143.5 -20.5h18v-40h-23q-96 0 -154 25q-56 24 -87 75
q-57 -54 -128.5 -77t-181.5 -23zM302 -119q0 -14 -9.5 -23.5t-23.5 -9.5q-13 0 -22.5 10t-9.5 23t9.5 23t22.5 10q14 0 23.5 -9.5t9.5 -23.5zM302 -206q0 -14 -9.5 -23.5t-23.5 -9.5q-13 0 -22.5 10t-9.5 23t9.5 23t22.5 10q14 0 23.5 -9.5t9.5 -23.5z" />
    <glyph glyph-name="uniFB76" unicode="&#x683;" horiz-adv-x="569" arabic-form="isolated" 
d="M486 -314q-81 -52 -181 -52q-110 0 -176 76q-59 67 -59 168q0 156 135 244q111 73 291 84q-43 82 -103 124q-52 36 -109 36q-78 0 -153 -68l-25 28q79 80 177 80q85 0 157 -61q64 -55 99 -143v-30q-201 -10 -315 -89q-111 -77 -111 -206q0 -98 64 -155q53 -48 132 -48
q84 0 158 45zM318 -130q0 -13 -10 -23t-23 -10t-23 10t-10 23q0 14 9.5 23.5t23.5 9.5q13 0 23 -10t10 -23zM406 -130q0 -13 -10 -23t-23 -10t-23 10t-10 23t10 23t23 10q14 0 23.5 -9.5t9.5 -23.5z" />
    <glyph glyph-name="uniFB77" unicode="&#x683;" horiz-adv-x="677" arabic-form="final" 
d="M486 -314q-81 -52 -181 -52q-110 0 -176 76q-59 67 -59 168q0 156 135 244q111 73 291 84q-43 82 -103 124q-52 36 -109 36q-78 0 -153 -68l-25 28q79 80 177 80q85 0 157 -61q64 -55 99 -143v-30q-59 -3 -103 -10q20 -65 74.5 -93.5t157.5 -28.5h19v-40h-24
q-116 0 -178 38q-61 37 -87 116q-140 -31 -214 -104q-71 -70 -71 -173q0 -98 64 -155q53 -48 132 -48q84 0 158 45zM318 -130q0 -13 -10 -23t-23 -10t-23 10t-10 23q0 14 9.5 23.5t23.5 9.5q13 0 23 -10t10 -23zM406 -130q0 -13 -10 -23t-23 -10t-23 10t-10 23t10 23t23 10
q14 0 23.5 -9.5t9.5 -23.5z" />
    <glyph glyph-name="uniFB78" unicode="&#x683;" horiz-adv-x="544" arabic-form="initial" 
d="M106 0h-116v40h113q129 0 197.5 31.5t153.5 129.5q-43 84 -104 127q-53 38 -111 38q-78 0 -153 -68l-25 28q79 80 177 80q85 0 157 -61q64 -55 99 -143v-12q-48 -62 -83.5 -95t-76.5 -53q-84 -42 -228 -42zM230 -119q0 -13 -10 -23t-23 -10q-14 0 -23.5 9.5t-9.5 23.5
q0 13 10 23t23 10t23 -10t10 -23zM318 -119q0 -14 -9.5 -23.5t-23.5 -9.5q-13 0 -23 10t-10 23t10 23t23 10t23 -10t10 -23z" />
    <glyph glyph-name="uniFB79" unicode="&#x683;" horiz-adv-x="670" arabic-form="medial" 
d="M106 0h-116v40h113q129 0 197.5 31.5t153.5 129.5q-43 84 -104 127q-53 38 -111 38q-78 0 -153 -68l-25 28q79 80 177 80q85 0 157 -61q64 -55 99 -143v-12l-7 -9q-29 -37 -44 -53q24 -47 75.5 -67.5t143.5 -20.5h18v-40h-23q-96 0 -154 25q-56 24 -87 75
q-57 -54 -128.5 -77t-181.5 -23zM241 -119q0 -14 -9.5 -23.5t-23.5 -9.5q-13 0 -23 10t-10 23t10 23t23 10t23 -10t10 -23zM330 -119q0 -14 -9.5 -23.5t-23.5 -9.5t-23.5 9.5t-9.5 23.5q0 13 10 23t23 10t23 -10t10 -23z" />
    <glyph glyph-name="uniFB7A" unicode="&#x686;" horiz-adv-x="569" arabic-form="isolated" 
d="M467 -281l19 -33q-81 -52 -181 -52q-110 0 -176 76q-59 67 -59 168q0 156 135 244q111 73 291 84q-43 82 -103 124q-52 36 -109 36q-78 0 -153 -68l-25 28q79 80 177 80q85 0 157 -61q64 -55 99 -143v-30q-201 -10 -315 -89q-111 -77 -111 -206q0 -98 64 -155
q53 -48 132 -48q84 0 158 45zM324 -67q0 -13 -9.5 -22t-22.5 -9t-22 9t-9 22t9 22.5t22 9.5t22.5 -9.5t9.5 -22.5zM413 -67q0 -13 -9 -22t-22 -9t-22.5 9t-9.5 22t9.5 22.5t22.5 9.5t22 -9.5t9 -22.5zM370 -144q0 -13 -10 -23t-23 -10q-14 0 -23.5 9.5t-9.5 23.5t9.5 23.5
t23.5 9.5q13 0 23 -10t10 -23z" />
    <glyph glyph-name="uniFB7B" unicode="&#x686;" horiz-adv-x="677" arabic-form="final" 
d="M486 -314q-81 -52 -181 -52q-110 0 -176 76q-59 67 -59 168q0 156 135 244q111 73 291 84q-43 82 -103 124q-52 36 -109 36q-78 0 -153 -68l-25 28q79 80 177 80q85 0 157 -61q64 -55 99 -143v-30q-59 -3 -103 -10q20 -65 74.5 -93.5t157.5 -28.5h19v-40h-24
q-116 0 -178 38q-61 37 -87 116q-140 -31 -214 -104q-71 -70 -71 -173q0 -98 64 -155q53 -48 132 -48q84 0 158 45zM319 -78q0 -13 -9 -22t-22 -9t-22 9t-9 22q0 12 9.5 21.5t21.5 9.5t21.5 -9.5t9.5 -21.5zM407 -78q0 -13 -9 -22t-22 -9t-22 9t-9 22q0 12 9.5 21.5
t21.5 9.5t21.5 -9.5t9.5 -21.5zM364 -154q0 -13 -9.5 -23t-22.5 -10q-14 0 -23.5 9.5t-9.5 23.5q0 13 10 22.5t23 9.5t22.5 -9.5t9.5 -22.5z" />
    <glyph glyph-name="uniFB7C" unicode="&#x686;" horiz-adv-x="544" arabic-form="initial" 
d="M106 0h-116v40h113q129 0 197.5 31.5t153.5 129.5q-43 84 -104 127q-53 38 -111 38q-78 0 -153 -68l-25 28q79 80 177 80q85 0 157 -61q64 -55 99 -143v-12q-48 -62 -83.5 -95t-76.5 -53q-84 -42 -228 -42zM231 -119q0 -13 -10 -23t-23 -10q-14 0 -23.5 9.5t-9.5 23.5
q0 13 10 23t23 10t23 -10t10 -23zM319 -119q0 -14 -9.5 -23.5t-23.5 -9.5q-13 0 -23 10t-10 23t10 23t23 10t23 -10t10 -23zM273 -199q0 -13 -9 -22t-22 -9t-22.5 9t-9.5 22t9.5 22.5t22.5 9.5t22 -9.5t9 -22.5z" />
    <glyph glyph-name="uniFB7D" unicode="&#x686;" horiz-adv-x="670" arabic-form="medial" 
d="M106 0h-116v40h113q129 0 197.5 31.5t153.5 129.5q-43 84 -104 127q-53 38 -111 38q-78 0 -153 -68l-25 28q79 80 177 80q85 0 157 -61q64 -55 99 -143v-12l-7 -9q-29 -37 -44 -53q24 -47 75.5 -67.5t143.5 -20.5h18v-40h-23q-96 0 -154 25q-56 24 -87 75
q-57 -54 -128.5 -77t-181.5 -23zM258 -119q0 -13 -10 -23t-23 -10q-14 0 -23.5 9.5t-9.5 23.5q0 13 10 23t23 10t23 -10t10 -23zM346 -119q0 -14 -9.5 -23.5t-23.5 -9.5q-13 0 -23 10t-10 23t10 23t23 10t23 -10t10 -23zM300 -199q0 -13 -9 -22t-22 -9t-22.5 9t-9.5 22
t9.5 22.5t22.5 9.5t22 -9.5t9 -22.5z" />
    <glyph glyph-name="uniFB7E" unicode="&#x687;" horiz-adv-x="569" arabic-form="isolated" 
d="M486 -314q-81 -52 -181 -52q-110 0 -176 76q-59 67 -59 168q0 156 135 244q111 73 291 84q-43 82 -103 124q-52 36 -109 36q-78 0 -153 -68l-25 28q79 80 177 80q85 0 157 -61q64 -55 99 -143v-30q-201 -10 -315 -89q-111 -77 -111 -206q0 -98 64 -155q53 -48 132 -48
q84 0 158 45zM326 -56q0 -13 -9.5 -22.5t-22.5 -9.5t-22 9.5t-9 22.5t9 22t22 9t22.5 -9t9.5 -22zM410 -56q0 -13 -9.5 -22.5t-22.5 -9.5t-22 9.5t-9 22.5t9 22t22 9t22.5 -9t9.5 -22zM326 -141q0 -13 -9.5 -22t-22.5 -9t-22 9t-9 22t9 22t22 9t22.5 -9t9.5 -22zM410 -141
q0 -13 -9.5 -22t-22.5 -9t-22 9t-9 22t9 22t22 9t22.5 -9t9.5 -22z" />
    <glyph glyph-name="uniFB7F" unicode="&#x687;" horiz-adv-x="677" arabic-form="final" 
d="M486 -314q-81 -52 -181 -52q-110 0 -176 76q-59 67 -59 168q0 156 135 244q111 73 291 84q-43 82 -103 124q-52 36 -109 36q-78 0 -153 -68l-25 28q79 80 177 80q85 0 157 -61q64 -55 99 -143v-30q-59 -3 -103 -10q20 -65 74.5 -93.5t157.5 -28.5h19v-40h-24
q-116 0 -178 38q-61 37 -87 116q-140 -31 -214 -104q-71 -70 -71 -173q0 -98 64 -155q53 -48 132 -48q84 0 158 45zM319 -68q0 -13 -9 -22t-22 -9t-22.5 9t-9.5 22t9.5 22.5t22.5 9.5t22 -9.5t9 -22.5zM403 -68q0 -13 -9 -22t-22 -9t-22.5 9t-9.5 22t9.5 22.5t22.5 9.5
t22 -9.5t9 -22.5zM319 -152q0 -13 -9 -22.5t-22 -9.5t-22.5 9.5t-9.5 22.5t9.5 22t22.5 9t22 -9t9 -22zM403 -152q0 -13 -9 -22.5t-22 -9.5t-22.5 9.5t-9.5 22.5t9.5 22t22.5 9t22 -9t9 -22z" />
    <glyph glyph-name="uniFB80" unicode="&#x687;" horiz-adv-x="544" arabic-form="initial" 
d="M106 0h-116v40h113q129 0 197.5 31.5t153.5 129.5q-43 84 -104 127q-53 38 -111 38q-78 0 -153 -68l-25 28q79 80 177 80q85 0 157 -61q64 -55 99 -143v-12q-48 -62 -83.5 -95t-76.5 -53q-84 -42 -228 -42zM231 -119q0 -14 -9.5 -23.5t-23.5 -9.5q-13 0 -22.5 10t-9.5 23
t9.5 23t22.5 10q14 0 23.5 -9.5t9.5 -23.5zM318 -119q0 -13 -9.5 -23t-22.5 -10q-14 0 -23.5 9.5t-9.5 23.5t9.5 23.5t23.5 9.5q13 0 22.5 -10t9.5 -23zM231 -207q0 -14 -9.5 -23.5t-23.5 -9.5q-13 0 -22.5 10t-9.5 23t9.5 23t22.5 10q14 0 23.5 -9.5t9.5 -23.5zM318 -207
q0 -13 -9.5 -23t-22.5 -10q-14 0 -23.5 9.5t-9.5 23.5t9.5 23.5t23.5 9.5q13 0 22.5 -10t9.5 -23z" />
    <glyph glyph-name="uniFB81" unicode="&#x687;" horiz-adv-x="670" arabic-form="medial" 
d="M106 0h-116v40h113q129 0 197.5 31.5t153.5 129.5q-43 84 -104 127q-53 38 -111 38q-78 0 -153 -68l-25 28q79 80 177 80q85 0 157 -61q64 -55 99 -143v-12l-7 -9q-29 -37 -44 -53q24 -47 75.5 -67.5t143.5 -20.5h18v-40h-23q-96 0 -154 25q-56 24 -87 75
q-57 -54 -128.5 -77t-181.5 -23zM258 -119q0 -14 -9.5 -23.5t-23.5 -9.5q-13 0 -22.5 10t-9.5 23t9.5 23t22.5 10q14 0 23.5 -9.5t9.5 -23.5zM345 -119q0 -13 -9.5 -23t-22.5 -10q-14 0 -23.5 9.5t-9.5 23.5t9.5 23.5t23.5 9.5q13 0 22.5 -10t9.5 -23zM258 -207
q0 -14 -9.5 -23.5t-23.5 -9.5q-13 0 -22.5 10t-9.5 23t9.5 23t22.5 10q14 0 23.5 -9.5t9.5 -23.5zM345 -207q0 -13 -9.5 -23t-22.5 -10q-14 0 -23.5 9.5t-9.5 23.5t9.5 23.5t23.5 9.5q13 0 22.5 -10t9.5 -23z" />
    <glyph glyph-name="uniFB82" unicode="&#x68d;" horiz-adv-x="449" arabic-form="isolated" 
d="M230 0h-210v40h198q59 0 86 25q27 26 27 82q0 69 -39 134q-35 60 -97 107l25 35q78 -59 119 -137q35 -68 35 -139q0 -147 -144 -147zM203 -119q0 -14 -9.5 -23.5t-23.5 -9.5t-23.5 9.5t-9.5 23.5q0 13 10 23t23 10t23 -10t10 -23zM292 -119q0 -13 -10 -23t-23 -10
q-14 0 -23.5 9.5t-9.5 23.5q0 13 10 23t23 10t23 -10t10 -23z" />
    <glyph glyph-name="uniFB83" unicode="&#x68d;" horiz-adv-x="501" arabic-form="final" 
d="M230 0h-210v40h198q59 0 86 25q27 26 27 82q0 69 -39 134q-35 60 -97 107l25 35q78 -59 119 -136q35 -66 35 -135q0 -56 39 -86q32 -26 83 -26h15v-40h-21q-93 0 -133 65q-32 -65 -127 -65zM227 -119q0 -14 -9.5 -23.5t-23.5 -9.5q-13 0 -23 10t-10 23t10 23t23 10
t23 -10t10 -23zM316 -119q0 -14 -9.5 -23.5t-23.5 -9.5t-23.5 9.5t-9.5 23.5q0 13 10 23t23 10t23 -10t10 -23z" />
    <glyph glyph-name="uniFB84" unicode="&#x68c;" horiz-adv-x="449" arabic-form="isolated" 
d="M181 538q0 -14 -9.5 -23.5t-23.5 -9.5q-13 0 -23 10t-10 23t10 23t23 10q14 0 23.5 -9.5t9.5 -23.5zM270 538q0 -14 -9.5 -23.5t-23.5 -9.5t-23.5 9.5t-9.5 23.5t9.5 23.5t23.5 9.5t23.5 -9.5t9.5 -23.5zM230 0h-210v40h198q59 0 86 25q27 26 27 82q0 69 -39 134
q-35 60 -97 107l25 35q78 -59 119 -137q35 -68 35 -139q0 -147 -144 -147z" />
    <glyph glyph-name="uniFB85" unicode="&#x68c;" horiz-adv-x="501" arabic-form="final" 
d="M183 538q0 -14 -9.5 -23.5t-23.5 -9.5q-13 0 -23 10t-10 23t10 23t23 10q14 0 23.5 -9.5t9.5 -23.5zM272 538q0 -14 -9.5 -23.5t-23.5 -9.5t-23.5 9.5t-9.5 23.5t9.5 23.5t23.5 9.5t23.5 -9.5t9.5 -23.5zM230 0h-210v40h198q59 0 86 25q27 26 27 82q0 69 -39 134
q-35 60 -97 107l25 35q78 -59 119 -136q35 -66 35 -135q0 -56 39 -86q32 -26 83 -26h15v-40h-21q-93 0 -133 65q-32 -65 -127 -65z" />
    <glyph glyph-name="uniFB86" unicode="&#x68e;" horiz-adv-x="449" arabic-form="isolated" 
d="M224 617q0 -13 -9.5 -22t-22.5 -9t-22 9t-9 22t9 22.5t22 9.5t22.5 -9.5t9.5 -22.5zM181 538q0 -14 -9.5 -23.5t-23.5 -9.5q-13 0 -23 10t-10 23t10 23t23 10q14 0 23.5 -9.5t9.5 -23.5zM270 538q0 -14 -9.5 -23.5t-23.5 -9.5t-23.5 9.5t-9.5 23.5t9.5 23.5t23.5 9.5
t23.5 -9.5t9.5 -23.5zM230 0h-210v40h198q59 0 86 25q27 26 27 82q0 69 -39 134q-35 60 -97 107l25 35q78 -59 119 -137q35 -68 35 -139q0 -147 -144 -147z" />
    <glyph glyph-name="uniFB87" unicode="&#x68e;" horiz-adv-x="501" arabic-form="final" 
d="M226 617q0 -13 -9.5 -22t-22.5 -9t-22 9t-9 22t9 22.5t22 9.5t22.5 -9.5t9.5 -22.5zM183 538q0 -14 -9.5 -23.5t-23.5 -9.5q-13 0 -23 10t-10 23t10 23t23 10q14 0 23.5 -9.5t9.5 -23.5zM272 538q0 -14 -9.5 -23.5t-23.5 -9.5t-23.5 9.5t-9.5 23.5t9.5 23.5t23.5 9.5
t23.5 -9.5t9.5 -23.5zM230 0h-210v40h198q59 0 86 25q27 26 27 82q0 69 -39 134q-35 60 -97 107l25 35q78 -59 119 -136q35 -66 35 -135q0 -56 39 -86q32 -26 83 -26h15v-40h-21q-93 0 -133 65q-32 -65 -127 -65z" />
    <glyph glyph-name="uniFB88" unicode="&#x688;" horiz-adv-x="449" arabic-form="isolated" 
d="M243 525h-171v30h44v141h32v-100q40 63 96 63q32 0 50.5 -18t18.5 -49q0 -67 -70 -67zM149 555h91q22 0 31.5 8.5t9.5 28.5q0 36 -40 36q-50 0 -92 -73zM230 0h-210v40h198q59 0 86 25q27 26 27 82q0 69 -39 134q-35 60 -97 107l25 35q78 -59 119 -137q35 -68 35 -139
q0 -147 -144 -147z" />
    <glyph glyph-name="uniFB89" unicode="&#x688;" horiz-adv-x="501" arabic-form="final" 
d="M245 525h-171v30h44v141h32v-100q40 63 96 63q32 0 50.5 -18t18.5 -49q0 -67 -70 -67zM151 555h91q22 0 31.5 8.5t9.5 28.5q0 36 -40 36q-50 0 -92 -73zM230 0h-210v40h198q59 0 86 25q27 26 27 82q0 69 -39 134q-35 60 -97 107l25 35q78 -59 119 -136q35 -66 35 -135
q0 -56 39 -86q32 -26 83 -26h15v-40h-21q-93 0 -133 65q-32 -65 -127 -65z" />
    <glyph glyph-name="uniFB8A" unicode="&#x698;" horiz-adv-x="325" arabic-form="isolated" 
d="M244 617q0 -13 -9.5 -22t-22.5 -9t-22 9t-9 22t9 22.5t22 9.5t22.5 -9.5t9.5 -22.5zM201 538q0 -14 -9.5 -23.5t-23.5 -9.5q-13 0 -23 10t-10 23t10 23t23 10q14 0 23.5 -9.5t9.5 -23.5zM290 538q0 -14 -9.5 -23.5t-23.5 -9.5t-23.5 9.5t-9.5 23.5t9.5 23.5t23.5 9.5
t23.5 -9.5t9.5 -23.5zM235 418v-408q0 -102 -55 -155q-45 -44 -116 -44q-57 0 -114 27l12 38q51 -25 97 -25q65 0 101 46q32 41 32 111v410h43z" />
    <glyph glyph-name="uniFB8B" unicode="&#x698;" horiz-adv-x="364" arabic-form="final" 
d="M243 617q0 -13 -9.5 -22t-22.5 -9t-22.5 9t-9.5 22t9.5 22.5t22.5 9.5t22.5 -9.5t9.5 -22.5zM200 538q0 -14 -9.5 -23.5t-23.5 -9.5t-23.5 9.5t-9.5 23.5t9.5 23.5t23.5 9.5t23.5 -9.5t9.5 -23.5zM289 538q0 -13 -10 -23t-23 -10q-14 0 -23.5 9.5t-9.5 23.5t9.5 23.5
t23.5 9.5q13 0 23 -10t10 -23zM235 47v-40q-1 -100 -54 -152q-45 -44 -117 -44q-57 0 -114 27l12 38q51 -25 97 -25q65 0 101 46q32 41 32 111v410h43v-243q0 -68 35 -103q32 -32 91 -32h13v-40h-22q-76 0 -117 47z" />
    <glyph glyph-name="uniFB8C" unicode="&#x691;" horiz-adv-x="325" arabic-form="isolated" 
d="M263 525h-171v30h44v141h32v-100q40 63 96 63q32 0 50.5 -18t18.5 -49q0 -67 -70 -67zM169 555h91q22 0 31.5 8.5t9.5 28.5q0 36 -40 36q-50 0 -92 -73zM235 418v-408q0 -102 -55 -155q-45 -44 -116 -44q-57 0 -114 27l12 38q51 -25 97 -25q65 0 101 46q32 41 32 111v410
h43z" />
    <glyph glyph-name="uniFB8D" unicode="&#x691;" horiz-adv-x="364" arabic-form="final" 
d="M262 525h-171v30h44v141h31v-100q41 63 97 63q31 0 49.5 -18t18.5 -49q0 -67 -69 -67zM168 555h91q40 0 40 37q0 36 -39 36q-24 0 -48.5 -19.5t-43.5 -53.5zM235 47v-40q-1 -100 -54 -152q-45 -44 -117 -44q-57 0 -114 27l12 38q51 -25 97 -25q65 0 101 46q32 41 32 111
v410h43v-243q0 -68 35 -103q32 -32 91 -32h13v-40h-22q-76 0 -117 47z" />
    <glyph glyph-name="uniFB8E" unicode="&#x6a9;" horiz-adv-x="885" arabic-form="isolated" 
d="M498 374h169q87 0 130 -51q38 -45 38 -125v-17q0 -95 -51 -142q-42 -39 -117 -39h-380q-106 0 -162 62q-45 50 -45 127q0 63 32 114q30 48 81 73l21 -32q-43 -22 -67 -63t-24 -92q0 -71 47 -112q44 -37 116 -37h374q74 0 106 43q26 35 26 106v11q0 72 -34 104
q-31 29 -93 29h-216v42l218 226l25 -24z" />
    <glyph glyph-name="uniFB8F" unicode="&#x6a9;" horiz-adv-x="957" arabic-form="final" 
d="M667 0h-380q-106 0 -162 62q-45 50 -45 127q0 63 32 114q30 48 81 73l21 -32q-43 -22 -67 -63t-24 -92q0 -71 47 -112q44 -37 116 -37h374q74 0 106 43q26 35 26 106v11q0 72 -34 104q-31 29 -93 29h-216v42l218 226l25 -24l-194 -203h169q87 0 130 -51q38 -45 38 -125
v-24q0 -134 117 -134h15v-40h-22q-98 0 -133 78q-39 -78 -145 -78z" />
    <glyph glyph-name="uniFB90" unicode="&#x6a9;" horiz-adv-x="544" arabic-form="initial" 
d="M326 0h-336v40h329q75 0 106 43q26 35 26 106v11q0 72 -34 104q-31 29 -93 29h-269v42l218 226l25 -24l-194 -203h223q86 0 129 -51q38 -45 38 -125v-17q0 -95 -50 -142q-43 -39 -118 -39z" />
    <glyph glyph-name="uniFB91" unicode="&#x6a9;" horiz-adv-x="617" arabic-form="medial" 
d="M326 0h-336v40h329q132 0 132 142v25q0 126 -127 126h-269v42l218 226l25 -24l-194 -203h223q84 0 129 -49q38 -41 38 -111v-39q0 -70 36 -105q31 -30 84 -30h13v-40h-22q-45 0 -80 20.5t-53 56.5q-39 -77 -146 -77z" />
    <glyph glyph-name="uniFB92" unicode="&#x6af;" horiz-adv-x="885" arabic-form="isolated" 
d="M440 425l-21 24l185 197l21 -23zM498 374h169q87 0 130 -51q38 -45 38 -125v-17q0 -95 -51 -142q-42 -39 -117 -39h-380q-106 0 -162 62q-45 50 -45 127q0 63 32 114q30 48 81 73l21 -32q-43 -22 -67 -63t-24 -92q0 -71 47 -112q44 -37 116 -37h374q74 0 106 43
q26 35 26 106v11q0 72 -34 104q-31 29 -93 29h-216v42l218 226l25 -24z" />
    <glyph glyph-name="uniFB93" unicode="&#x6af;" horiz-adv-x="957" arabic-form="final" 
d="M440 425l-21 24l185 197l21 -23zM667 0h-380q-106 0 -162 62q-45 50 -45 127q0 63 32 114q30 48 81 73l21 -32q-43 -22 -67 -63t-24 -92q0 -71 47 -112q44 -37 116 -37h374q74 0 106 43q26 35 26 106v11q0 72 -34 104q-31 29 -93 29h-216v42l218 226l25 -24l-194 -203
h169q87 0 130 -51q38 -45 38 -125v-24q0 -134 117 -134h15v-40h-22q-98 0 -133 78q-39 -78 -145 -78z" />
    <glyph glyph-name="uniFB94" unicode="&#x6af;" horiz-adv-x="544" arabic-form="initial" 
d="M46 425l-21 24l185 197l21 -23zM326 0h-336v40h329q75 0 106 43q26 35 26 106v11q0 72 -34 104q-31 29 -93 29h-269v42l218 226l25 -24l-194 -203h223q86 0 129 -51q38 -45 38 -125v-17q0 -95 -50 -142q-43 -39 -118 -39z" />
    <glyph glyph-name="uniFB95" unicode="&#x6af;" horiz-adv-x="617" arabic-form="medial" 
d="M46 425l-21 24l185 197l21 -23zM326 0h-336v40h329q132 0 132 142v25q0 126 -127 126h-269v42l218 226l25 -24l-194 -203h223q84 0 129 -49q38 -41 38 -111v-39q0 -70 36 -105q31 -30 84 -30h13v-40h-22q-45 0 -80 20.5t-53 56.5q-39 -77 -146 -77z" />
    <glyph glyph-name="uniFB96" unicode="&#x6b3;" horiz-adv-x="885" arabic-form="isolated" 
d="M440 425l-21 24l185 197l21 -23zM498 374h169q87 0 130 -51q38 -45 38 -125v-17q0 -95 -51 -142q-42 -39 -117 -39h-380q-106 0 -162 62q-45 50 -45 127q0 63 32 114q30 48 81 73l21 -32q-43 -22 -67 -63t-24 -92q0 -71 47 -112q44 -37 116 -37h374q74 0 106 43
q26 35 26 106v11q0 72 -34 104q-31 29 -93 29h-216v42l218 226l25 -24zM499 -119q0 -14 -9.5 -23.5t-23.5 -9.5q-13 0 -22.5 10t-9.5 23t9.5 23t22.5 10q14 0 23.5 -9.5t9.5 -23.5zM499 -206q0 -14 -9.5 -23.5t-23.5 -9.5q-13 0 -22.5 10t-9.5 23t9.5 23t22.5 10
q14 0 23.5 -9.5t9.5 -23.5z" />
    <glyph glyph-name="uniFB97" unicode="&#x6b3;" horiz-adv-x="957" arabic-form="final" 
d="M440 425l-21 24l185 197l21 -23zM667 0h-380q-106 0 -162 62q-45 50 -45 127q0 63 32 114q30 48 81 73l21 -32q-43 -22 -67 -63t-24 -92q0 -71 47 -112q44 -37 116 -37h374q74 0 106 43q26 35 26 106v11q0 72 -34 104q-31 29 -93 29h-216v42l218 226l25 -24l-194 -203
h169q87 0 130 -51q38 -45 38 -125v-24q0 -134 117 -134h15v-40h-22q-98 0 -133 78q-39 -78 -145 -78zM499 -119q0 -14 -9.5 -23.5t-23.5 -9.5q-13 0 -22.5 10t-9.5 23t9.5 23t22.5 10q14 0 23.5 -9.5t9.5 -23.5zM499 -206q0 -14 -9.5 -23.5t-23.5 -9.5q-13 0 -22.5 10
t-9.5 23t9.5 23t22.5 10q14 0 23.5 -9.5t9.5 -23.5z" />
    <glyph glyph-name="uniFB98" unicode="&#x6b3;" horiz-adv-x="544" arabic-form="initial" 
d="M46 425l-21 24l185 197l21 -23zM326 0h-336v40h329q75 0 106 43q26 35 26 106v11q0 72 -34 104q-31 29 -93 29h-269v42l218 226l25 -24l-194 -203h223q86 0 129 -51q38 -45 38 -125v-17q0 -95 -50 -142q-43 -39 -118 -39zM223 -119q0 -14 -9.5 -23.5t-23.5 -9.5
t-23.5 9.5t-9.5 23.5t9.5 23.5t23.5 9.5t23.5 -9.5t9.5 -23.5zM223 -206q0 -14 -9.5 -23.5t-23.5 -9.5t-23.5 9.5t-9.5 23.5t9.5 23.5t23.5 9.5t23.5 -9.5t9.5 -23.5z" />
    <glyph glyph-name="uniFB99" unicode="&#x6b3;" horiz-adv-x="617" arabic-form="medial" 
d="M46 425l-21 24l185 197l21 -23zM326 0h-336v40h329q132 0 132 142v25q0 126 -127 126h-269v42l218 226l25 -24l-194 -203h223q84 0 129 -49q38 -41 38 -111v-39q0 -70 36 -105q31 -30 84 -30h13v-40h-22q-45 0 -80 20.5t-53 56.5q-39 -77 -146 -77zM243 -119
q0 -14 -9.5 -23.5t-23.5 -9.5t-23.5 9.5t-9.5 23.5t9.5 23.5t23.5 9.5t23.5 -9.5t9.5 -23.5zM243 -206q0 -14 -9.5 -23.5t-23.5 -9.5t-23.5 9.5t-9.5 23.5t9.5 23.5t23.5 9.5t23.5 -9.5t9.5 -23.5z" />
    <glyph glyph-name="uniFB9A" unicode="&#x6b1;" horiz-adv-x="885" arabic-form="isolated" 
d="M411 639q0 -14 -9.5 -23.5t-23.5 -9.5t-23.5 9.5t-9.5 23.5t9.5 23.5t23.5 9.5t23.5 -9.5t9.5 -23.5zM500 639q0 -13 -10 -23t-23 -10q-14 0 -23.5 9.5t-9.5 23.5t9.5 23.5t23.5 9.5q13 0 23 -10t10 -23zM440 425l-21 24l185 197l21 -23zM498 374h169q87 0 130 -51
q38 -45 38 -125v-17q0 -95 -51 -142q-42 -39 -117 -39h-380q-106 0 -162 62q-45 50 -45 127q0 63 32 114q30 48 81 73l21 -32q-43 -22 -67 -63t-24 -92q0 -71 47 -112q44 -37 116 -37h374q74 0 106 43q26 35 26 106v11q0 72 -34 104q-31 29 -93 29h-216v42l218 226l25 -24z
" />
    <glyph glyph-name="uniFB9B" unicode="&#x6b1;" horiz-adv-x="957" arabic-form="final" 
d="M411 639q0 -14 -9.5 -23.5t-23.5 -9.5t-23.5 9.5t-9.5 23.5t9.5 23.5t23.5 9.5t23.5 -9.5t9.5 -23.5zM500 639q0 -13 -10 -23t-23 -10q-14 0 -23.5 9.5t-9.5 23.5t9.5 23.5t23.5 9.5q13 0 23 -10t10 -23zM440 425l-21 24l185 197l21 -23zM667 0h-380q-106 0 -162 62
q-45 50 -45 127q0 63 32 114q30 48 81 73l21 -32q-43 -22 -67 -63t-24 -92q0 -71 47 -112q44 -37 116 -37h374q74 0 106 43q26 35 26 106v11q0 72 -34 104q-31 29 -93 29h-216v42l218 226l25 -24l-194 -203h169q87 0 130 -51q38 -45 38 -125v-24q0 -134 117 -134h15v-40h-22
q-98 0 -133 78q-39 -78 -145 -78z" />
    <glyph glyph-name="uniFB9C" unicode="&#x6b1;" horiz-adv-x="544" arabic-form="initial" 
d="M9 662q0 -13 -10 -23t-23 -10t-23 10t-10 23q0 14 9.5 23.5t23.5 9.5t23.5 -9.5t9.5 -23.5zM98 662q0 -13 -10 -23t-23 -10t-23 10t-10 23q0 14 9.5 23.5t23.5 9.5q13 0 23 -10t10 -23zM46 425l-21 24l185 197l21 -23zM326 0h-336v40h329q75 0 106 43q26 35 26 106v11
q0 72 -34 104q-31 29 -93 29h-269v42l218 226l25 -24l-194 -203h223q86 0 129 -51q38 -45 38 -125v-17q0 -95 -50 -142q-43 -39 -118 -39z" />
    <glyph glyph-name="uniFB9D" unicode="&#x6b1;" horiz-adv-x="617" arabic-form="medial" 
d="M9 662q0 -13 -10 -23t-23 -10t-23 10t-10 23q0 14 9.5 23.5t23.5 9.5t23.5 -9.5t9.5 -23.5zM98 662q0 -13 -10 -23t-23 -10t-23 10t-10 23q0 14 9.5 23.5t23.5 9.5q13 0 23 -10t10 -23zM46 425l-21 24l185 197l21 -23zM326 0h-336v40h329q132 0 132 142v25
q0 126 -127 126h-269v42l218 226l25 -24l-194 -203h223q84 0 129 -49q38 -41 38 -111v-39q0 -70 36 -105q31 -30 84 -30h13v-40h-22q-45 0 -80 20.5t-53 56.5q-39 -77 -146 -77z" />
    <glyph glyph-name="uniFB9E" unicode="&#x6ba;" horiz-adv-x="657" arabic-form="isolated" 
d="M567 418v-371q0 -119 -77 -183q-67 -55 -176 -55q-123 0 -190 82q-54 66 -54 166q0 90 47 156l34 -16q-39 -69 -39 -143q0 -92 60 -151q56 -54 142 -54q104 0 160 60q50 53 50 139v370h43z" />
    <glyph glyph-name="uniFB9F" unicode="&#x6ba;" horiz-adv-x="696" arabic-form="final" 
d="M566 33q-5 -112 -81 -172q-65 -52 -171 -52q-123 0 -190 82q-54 66 -54 166q0 90 47 156l34 -16q-39 -66 -39 -143q0 -92 60 -151q56 -54 142 -54q104 0 160 60q50 53 50 139v370h43v-243q0 -68 35 -103q32 -32 91 -32h13v-40h-22q-77 0 -118 48v-15z" />
    <glyph glyph-name="uniFBA0" unicode="&#x6bb;" horiz-adv-x="657" arabic-form="isolated" 
d="M344 406h-170v30h43v141h32v-101q40 64 97 64q31 0 49.5 -18t18.5 -49q0 -67 -70 -67zM250 436h91q22 0 31.5 8.5t9.5 28.5q0 35 -39 35q-51 0 -93 -72zM567 418v-371q0 -119 -77 -183q-67 -55 -176 -55q-123 0 -190 82q-54 66 -54 166q0 90 47 156l34 -16
q-39 -69 -39 -143q0 -92 60 -151q56 -54 142 -54q104 0 160 60q50 53 50 139v370h43z" />
    <glyph glyph-name="uniFBA1" unicode="&#x6bb;" horiz-adv-x="696" arabic-form="final" 
d="M344 406h-170v30h43v141h32v-101q40 64 97 64q31 0 49.5 -18t18.5 -49q0 -67 -70 -67zM250 436h91q22 0 31.5 8.5t9.5 28.5q0 35 -39 35q-51 0 -93 -72zM566 33q-5 -112 -81 -172q-65 -52 -171 -52q-123 0 -190 82q-54 66 -54 166q0 90 47 156l34 -16q-39 -66 -39 -143
q0 -92 60 -151q56 -54 142 -54q104 0 160 60q50 53 50 139v370h43v-243q0 -68 35 -103q32 -32 91 -32h13v-40h-22q-77 0 -118 48v-15z" />
    <glyph glyph-name="uniFBA2" unicode="&#x6bb;" horiz-adv-x="261" arabic-form="initial" 
d="M198 525h-171v30h44v141h32v-100q40 63 96 63q32 0 50.5 -18t18.5 -49q0 -67 -70 -67zM104 555h91q22 0 31.5 8.5t9.5 28.5q0 36 -40 36q-50 0 -92 -73zM12 0h-22v40h13q68 0 100 42q26 34 26 93v243h43v-246q0 -90 -50 -135q-42 -37 -110 -37z" />
    <glyph glyph-name="uniFBA3" unicode="&#x6bb;" horiz-adv-x="301" arabic-form="medial" 
d="M201 525h-171v30h44v141h32v-100q40 63 96 63q32 0 50.5 -18t18.5 -49q0 -67 -70 -67zM107 555h91q22 0 31.5 8.5t9.5 28.5q0 36 -40 36q-50 0 -92 -73zM12 0h-22v40h13q68 0 100 42q26 34 26 93v243h43v-243q0 -68 35 -103q32 -32 91 -32h13v-40h-20q-101 0 -140 76
q-40 -76 -139 -76z" />
    <glyph glyph-name="uniFBA4" unicode="&#x6c0;" horiz-adv-x="492" arabic-form="isolated" 
d="M320 518h-152v28h36q-10 17 -10 34q0 27 19 44.5t47 17.5q27 0 47 -16l-11 -23q-16 11 -35 11q-17 0 -27 -9.5t-10 -24.5q0 -17 14 -34h82v-28zM260 -7h-28q-80 0 -125 67q-39 58 -39 152q0 107 53 165q47 51 125 51q89 0 137 -66q41 -57 41 -150q0 -108 -51 -167
q-44 -52 -113 -52zM111 211q0 -87 36 -134q33 -43 89 -43h20q64 0 97 55q28 46 28 122q0 87 -38 133q-35 43 -97 43q-71 0 -106 -55q-29 -45 -29 -121z" />
    <glyph glyph-name="uniFBA5" unicode="&#x6c0;" horiz-adv-x="538" arabic-form="final" 
d="M316 556h-152v28h36q-10 16 -10 34q0 26 19 43.5t47 17.5q29 0 47 -16l-11 -22q-17 10 -35 10q-17 0 -27 -9t-10 -25q0 -18 14 -33h82v-28zM548 0h-20q-59 0 -99 29q-34 25 -50 67q-56 -68 -142 -68q-78 0 -124 59q-43 55 -43 143q0 102 65 158q57 49 147 49h83v52h43
v-314q0 -70 37 -105q33 -30 90 -30h13v-40zM365 396h-84q-86 0 -130 -49q-38 -43 -38 -116q0 -82 40 -126q33 -36 84 -36q76 0 131 67q-3 18 -3 37v223z" />
    <glyph glyph-name="uniFBA6" unicode="&#x6c1;" horiz-adv-x="492" arabic-form="isolated" 
d="M260 -7h-28q-80 0 -125 67q-39 58 -39 152q0 107 53 165q47 51 125 51q89 0 137 -66q41 -57 41 -150q0 -108 -51 -167q-44 -52 -113 -52zM111 211q0 -87 36 -134q33 -43 89 -43h20q64 0 97 55q28 46 28 122q0 87 -38 133q-35 43 -97 43q-71 0 -106 -55q-29 -45 -29 -121z
" />
    <glyph glyph-name="uniFBA7" unicode="&#x6c1;" horiz-adv-x="636" arabic-form="final" 
d="M614 0q-78 0 -126 61q-16 21 -53 92q-21 41 -38 58q-24 25 -56 25q-81 0 -169 -88q-57 -57 -109 -144l-35 22q63 115 151 185q84 67 163 67q55 0 91 -42q19 -21 54 -89q31 -60 59 -82q30 -25 73 -25h27v-40h-32z" />
    <glyph glyph-name="uniFBA8" unicode="&#x6c1;" horiz-adv-x="261" arabic-form="initial" 
d="M12 0h-22v40h13q68 0 100 42q26 34 26 93v243h43v-246q0 -90 -50 -135q-42 -37 -110 -37zM43 -254l-41 15l56 179l30 -8z" />
    <glyph glyph-name="uniFBA9" unicode="&#x6c1;" horiz-adv-x="550" arabic-form="medial" 
d="M560 0h-13q-73 0 -96 -44.5t-23 -184.5v-71h-37q-121 0 -181 91q-48 72 -48 183q0 68 19 139q-75 -113 -174 -113h-17v40h14q65 0 125 68q30 35 79 116l38 -17q-41 -121 -41 -228q0 -114 48 -176q47 -59 132 -59v35q0 148 31 201q35 60 126 60h18v-40z" />
    <glyph glyph-name="uniFBAA" unicode="&#x6be;" horiz-adv-x="590" arabic-form="isolated" 
d="M146 0h-156v40h130q12 0 34 2q-39 25 -62 67t-23 89q0 64 40 106q38 41 101 41q69 0 108 -51q31 -40 31 -97q0 -48 -23 -89.5t-62 -65.5q19 -2 94 -2q66 0 96 36q23 27 23 72q0 56 -29 112q-34 64 -98 106q-75 49 -183 61l8 37q170 -17 268 -127q77 -86 77 -189
q0 -70 -40 -109t-112 -39h-94q-35 0 -65 10q-30 -10 -63 -10zM210 52q49 20 75 66q21 38 21 81q0 50 -28 80q-25 27 -68 27q-50 0 -77 -34q-21 -28 -21 -71q0 -50 28 -92q27 -39 70 -57z" />
    <glyph glyph-name="uniFBAB" unicode="&#x6be;" horiz-adv-x="648" arabic-form="final" 
d="M146 0h-156v40h131q11 0 33 2q-39 25 -62 67t-23 89q0 64 40 106q38 41 101 41q69 0 108 -51q31 -40 31 -97q0 -48 -23 -89.5t-62 -65.5q23 -2 94 -2q66 0 96 36q23 27 23 72q0 56 -29 112q-34 64 -98 106q-75 49 -183 61l8 37q170 -17 268 -124q77 -84 77 -184
q0 -57 36 -88q33 -28 89 -28h13v-40h-21q-96 0 -135 70q-36 -70 -134 -70h-94q-35 0 -65 10q-30 -10 -63 -10zM210 52q49 20 75 66q21 38 21 81q0 50 -28 80q-25 27 -68 27q-50 0 -77 -34q-21 -28 -21 -71q0 -50 28 -92q27 -39 70 -57z" />
    <glyph glyph-name="uniFBAC" unicode="&#x6be;" horiz-adv-x="590" arabic-form="initial" 
d="M146 0h-156v40h130q12 0 34 2q-39 25 -62 67t-23 89q0 64 40 106q38 41 101 41q69 0 108 -51q31 -40 31 -97q0 -48 -23 -89.5t-62 -65.5q19 -2 94 -2q66 0 96 36q23 27 23 72q0 56 -29 112q-34 64 -98 106q-75 49 -183 61l8 37q170 -17 268 -127q77 -86 77 -189
q0 -70 -40 -109t-112 -39h-94q-35 0 -65 10q-30 -10 -63 -10zM210 52q49 20 75 66q21 38 21 81q0 50 -28 80q-25 27 -68 27q-50 0 -77 -34q-21 -28 -21 -71q0 -50 28 -92q27 -39 70 -57z" />
    <glyph glyph-name="uniFBAD" unicode="&#x6be;" horiz-adv-x="648" arabic-form="medial" 
d="M146 0h-156v40h131q11 0 33 2q-39 25 -62 67t-23 89q0 64 40 106q38 41 101 41q69 0 108 -51q31 -40 31 -97q0 -48 -23 -89.5t-62 -65.5q23 -2 94 -2q66 0 96 36q23 27 23 72q0 56 -29 112q-34 64 -98 106q-75 49 -183 61l8 37q170 -17 268 -124q77 -84 77 -184
q0 -57 36 -88q33 -28 89 -28h13v-40h-21q-96 0 -135 70q-36 -70 -134 -70h-94q-35 0 -65 10q-30 -10 -63 -10zM210 52q49 20 75 66q21 38 21 81q0 50 -28 80q-25 27 -68 27q-50 0 -77 -34q-21 -28 -21 -71q0 -50 28 -92q27 -39 70 -57z" />
    <glyph glyph-name="uniFBAE" unicode="&#x6d2;" horiz-adv-x="827" arabic-form="isolated" 
d="M748 0h-555q-156 0 -156 146q0 80 45 122q44 41 124 41h103v26q0 90 46 134q39 36 105 36q33 0 55 -7.5t52 -28.5l-21 -34q-35 29 -85 29q-110 0 -110 -142v-54h-145q-125 0 -125 -121q0 -59 32 -85q28 -22 84 -22h568z" />
    <glyph glyph-name="uniFBAF" unicode="&#x6d2;" horiz-adv-x="765" arabic-form="final" 
d="M775 0h-190q-221 0 -348 -38q-117 -34 -117 -92q0 -66 129 -66h369l-15 -40h-349q-100 0 -141 28q-36 24 -36 73q0 175 507 175h191v-40z" />
    <glyph glyph-name="uniFBB0" unicode="&#x6d3;" horiz-adv-x="827" arabic-form="isolated" 
d="M243 477h-152v28h36q-10 17 -10 34q0 27 19 44.5t47 17.5q27 0 47 -16l-11 -23q-16 11 -35 11q-17 0 -27 -9.5t-10 -24.5q0 -17 14 -34h82v-28zM748 0h-555q-156 0 -156 146q0 80 45 122q44 41 124 41h103v26q0 90 46 134q39 36 105 36q33 0 55 -7.5t52 -28.5l-21 -34
q-35 29 -85 29q-110 0 -110 -142v-54h-145q-125 0 -125 -121q0 -59 32 -85q28 -22 84 -22h568z" />
    <glyph glyph-name="uniFBB1" unicode="&#x6d3;" horiz-adv-x="765" arabic-form="final" 
d="M539 160h-151v28h35q-9 18 -9 34q0 27 18.5 44.5t46.5 17.5t47 -16l-11 -23q-16 11 -34 11q-17 0 -27 -9t-10 -25q0 -17 14 -34h81v-28zM775 0h-190q-221 0 -348 -38q-117 -34 -117 -92q0 -66 129 -66h369l-15 -40h-349q-100 0 -141 28q-36 24 -36 73q0 175 507 175h191
v-40z" />
    <glyph glyph-name="uniFBD3" unicode="&#x6ad;" horiz-adv-x="856" arabic-form="isolated" 
d="M774 863q0 -13 -9.5 -22.5t-22.5 -9.5t-22 9.5t-9 22.5t9 22t22 9t22.5 -9t9.5 -22zM731 783q0 -13 -10 -23t-23 -10t-23 10t-10 23t10 23t23 10q14 0 23.5 -9.5t9.5 -23.5zM820 783q0 -13 -10 -23t-23 -10t-23 10t-10 23q0 14 9.5 23.5t23.5 9.5t23.5 -9.5t9.5 -23.5z
M599 0h-309q-106 0 -165 71q-45 56 -45 133q0 61 32 111q30 47 82 72l20 -31q-44 -22 -68 -63t-24 -91q0 -70 48 -117q45 -45 117 -45h302q134 0 134 135v491h43v-494q0 -90 -51 -135q-43 -37 -116 -37zM465 362h-95v25h89q43 0 43 36q0 46 -56 46q-23 0 -49 -8v26l80 89
l16 -12l-60 -69q7 1 15 1q36 0 58 -19.5t22 -52.5q0 -28 -17 -45t-46 -17z" />
    <glyph glyph-name="uniFBD4" unicode="&#x6ad;" horiz-adv-x="895" arabic-form="final" 
d="M774 863q0 -13 -9.5 -22.5t-22.5 -9.5t-22 9.5t-9 22.5t9 22t22 9t22.5 -9t9.5 -22zM731 783q0 -13 -10 -23t-23 -10t-23 10t-10 23t10 23t23 10q14 0 23.5 -9.5t9.5 -23.5zM820 783q0 -13 -10 -23t-23 -10t-23 10t-10 23q0 14 9.5 23.5t23.5 9.5t23.5 -9.5t9.5 -23.5z
M595 0h-305q-106 0 -165 71q-45 56 -45 133q0 61 32 111q30 47 82 72l20 -31q-44 -22 -68 -63t-24 -91q0 -70 48 -117q45 -45 117 -45h302q134 0 134 135v491h43v-491q0 -68 35 -103q32 -32 91 -32h13v-40h-21q-100 0 -139 76q-41 -76 -150 -76zM465 362h-95v25h89
q43 0 43 36q0 46 -56 46q-23 0 -49 -8v26l80 89l16 -12l-60 -69q7 1 15 1q36 0 58 -19.5t22 -52.5q0 -28 -17 -45t-46 -17z" />
    <glyph glyph-name="uniFBD5" unicode="&#x6ad;" horiz-adv-x="544" arabic-form="initial" 
d="M151 706q0 -13 -9.5 -22.5t-22.5 -9.5t-22.5 9.5t-9.5 22.5t9.5 22t22.5 9t22.5 -9t9.5 -22zM108 626q0 -13 -10 -23t-23 -10t-23 10t-10 23q0 14 9.5 23.5t23.5 9.5t23.5 -9.5t9.5 -23.5zM197 626q0 -13 -10 -23t-23 -10t-23 10t-10 23q0 14 9.5 23.5t23.5 9.5
q13 0 23 -10t10 -23zM326 0h-336v40h329q75 0 106 43q26 35 26 106v11q0 72 -34 104q-31 29 -93 29h-269v42l218 226l25 -24l-194 -203h223q86 0 129 -51q38 -45 38 -125v-17q0 -95 -50 -142q-43 -39 -118 -39z" />
    <glyph glyph-name="uniFBD6" unicode="&#x6ad;" horiz-adv-x="617" arabic-form="medial" 
d="M151 706q0 -13 -9.5 -22.5t-22.5 -9.5t-22.5 9.5t-9.5 22.5t9.5 22t22.5 9t22.5 -9t9.5 -22zM108 626q0 -13 -10 -23t-23 -10t-23 10t-10 23q0 14 9.5 23.5t23.5 9.5t23.5 -9.5t9.5 -23.5zM197 626q0 -13 -10 -23t-23 -10t-23 10t-10 23q0 14 9.5 23.5t23.5 9.5
q13 0 23 -10t10 -23zM326 0h-336v40h329q132 0 132 142v25q0 126 -127 126h-269v42l218 226l25 -24l-194 -203h223q84 0 129 -49q38 -41 38 -111v-39q0 -70 36 -105q31 -30 84 -30h13v-40h-22q-45 0 -80 20.5t-53 56.5q-39 -77 -146 -77z" />
    <glyph glyph-name="uniFBD7" unicode="&#x6c7;" horiz-adv-x="488" arabic-form="isolated" 
d="M273 535l-111 -19l-4 25l98 18q-23 18 -23 49q0 21 14 36t34 15q23 0 37 -14.5t14 -38.5q0 -27 -16.5 -47t-42.5 -24zM284 567q22 8 22 38q0 14 -6.5 22.5t-17.5 8.5q-9 0 -15.5 -8.5t-6.5 -21.5q0 -27 24 -39zM365 49q-46 -43 -123 -43q-84 0 -131 64q-41 57 -41 148
q0 103 53 160q47 50 125 50q80 0 123 -50q37 -44 37 -116v-252q0 -103 -56 -156q-45 -43 -119 -43q-61 0 -126 31l12 38q61 -29 111 -29q66 0 102 45q33 40 33 112v41zM365 98v155q0 134 -117 134q-69 0 -105 -54q-30 -45 -30 -116q0 -87 42 -133q35 -38 93 -38q77 0 117 52
z" />
    <glyph glyph-name="uniFBD8" unicode="&#x6c7;" horiz-adv-x="514" arabic-form="final" 
d="M273 535l-111 -19l-4 25l98 18q-23 18 -23 49q0 21 14 36t34 15q23 0 37 -14.5t14 -38.5q0 -27 -16.5 -47t-42.5 -24zM284 567q22 8 22 38q0 14 -6.5 22.5t-17.5 8.5q-9 0 -15.5 -8.5t-6.5 -21.5q0 -27 24 -39zM408 0q-2 -98 -57 -148q-46 -41 -118 -41q-61 0 -126 31
l12 38q61 -29 111 -29q64 0 100 42q34 39 35 107h-94q-106 0 -158 68q-43 56 -43 150q0 103 53 160q47 50 125 50q80 0 123 -50q37 -44 37 -116v-222h116v-40h-116zM365 40v213q0 134 -117 134q-69 0 -105 -54q-30 -45 -30 -116q0 -94 47 -139q41 -38 113 -38h92z" />
    <glyph glyph-name="uniFBD9" unicode="&#x6c6;" horiz-adv-x="488" arabic-form="isolated" 
d="M188 642l57 -93l55 93h43l-77 -126h-41l-80 126h43zM365 49q-46 -43 -123 -43q-84 0 -131 64q-41 57 -41 148q0 103 53 160q47 50 125 50q80 0 123 -50q37 -44 37 -116v-252q0 -103 -56 -156q-45 -43 -119 -43q-61 0 -126 31l12 38q61 -29 111 -29q66 0 102 45
q33 40 33 112v41zM365 98v155q0 134 -117 134q-69 0 -105 -54q-30 -45 -30 -116q0 -87 42 -133q35 -38 93 -38q77 0 117 52z" />
    <glyph glyph-name="uniFBDA" unicode="&#x6c6;" horiz-adv-x="514" arabic-form="final" 
d="M188 642l57 -93l55 93h43l-77 -126h-41l-80 126h43zM408 0q-2 -98 -57 -148q-46 -41 -118 -41q-61 0 -126 31l12 38q61 -29 111 -29q64 0 100 42q34 39 35 107h-94q-106 0 -158 68q-43 56 -43 150q0 103 53 160q47 50 125 50q80 0 123 -50q37 -44 37 -116v-222h116v-40
h-116zM365 40v213q0 134 -117 134q-69 0 -105 -54q-30 -45 -30 -116q0 -94 47 -139q41 -38 113 -38h92z" />
    <glyph glyph-name="uniFBDB" unicode="&#x6c8;" horiz-adv-x="488" arabic-form="isolated" 
d="M258 516h-30v109h30v-109zM365 49q-46 -43 -123 -43q-84 0 -131 64q-41 57 -41 148q0 103 53 160q47 50 125 50q80 0 123 -50q37 -44 37 -116v-252q0 -103 -56 -156q-45 -43 -119 -43q-61 0 -126 31l12 38q61 -29 111 -29q66 0 102 45q33 40 33 112v41zM365 98v155
q0 134 -117 134q-69 0 -105 -54q-30 -45 -30 -116q0 -87 42 -133q35 -38 93 -38q77 0 117 52z" />
    <glyph glyph-name="uniFBDC" unicode="&#x6c8;" horiz-adv-x="514" arabic-form="final" 
d="M258 516h-30v109h30v-109zM408 0q-2 -98 -57 -148q-46 -41 -118 -41q-61 0 -126 31l12 38q61 -29 111 -29q64 0 100 42q34 39 35 107h-94q-106 0 -158 68q-43 56 -43 150q0 103 53 160q47 50 125 50q80 0 123 -50q37 -44 37 -116v-222h116v-40h-116zM365 40v213
q0 134 -117 134q-69 0 -105 -54q-30 -45 -30 -116q0 -94 47 -139q41 -38 113 -38h92z" />
    <glyph glyph-name="uniFBDD" unicode="&#x677;" horiz-adv-x="488" arabic-form="isolated" 
d="M207 592l-112 -20l-3 26l97 18q-22 18 -22 48q0 22 13.5 37t34.5 15q22 0 36 -14.5t14 -38.5q0 -27 -16.5 -47t-41.5 -24zM217 624q22 8 22 37q0 31 -24 31q-10 0 -16 -8.5t-6 -21.5q0 -26 24 -38zM434 518h-152v28h36q-10 17 -10 34q0 26 18.5 44t46.5 18t48 -16
l-12 -23q-15 11 -34 11q-17 0 -27 -9t-10 -25q0 -17 14 -34h82v-28zM365 49q-46 -43 -123 -43q-84 0 -131 64q-41 57 -41 148q0 103 53 160q47 50 125 50q80 0 123 -50q37 -44 37 -116v-252q0 -103 -56 -156q-45 -43 -119 -43q-61 0 -126 31l12 38q61 -29 111 -29
q66 0 102 45q33 40 33 112v41zM365 98v155q0 134 -117 134q-69 0 -105 -54q-30 -45 -30 -116q0 -87 42 -133q35 -38 93 -38q77 0 117 52z" />
    <glyph glyph-name="uniFBDE" unicode="&#x6cb;" horiz-adv-x="488" arabic-form="isolated" 
d="M276 617q0 -13 -9.5 -22t-22.5 -9t-22.5 9t-9.5 22t9.5 22.5t22.5 9.5t22.5 -9.5t9.5 -22.5zM233 538q0 -14 -9.5 -23.5t-23.5 -9.5t-23.5 9.5t-9.5 23.5t9.5 23.5t23.5 9.5t23.5 -9.5t9.5 -23.5zM322 538q0 -13 -10 -23t-23 -10q-14 0 -23.5 9.5t-9.5 23.5t9.5 23.5
t23.5 9.5q13 0 23 -10t10 -23zM365 49q-46 -43 -123 -43q-84 0 -131 64q-41 57 -41 148q0 103 53 160q47 50 125 50q80 0 123 -50q37 -44 37 -116v-252q0 -103 -56 -156q-45 -43 -119 -43q-61 0 -126 31l12 38q61 -29 111 -29q66 0 102 45q33 40 33 112v41zM365 98v155
q0 134 -117 134q-69 0 -105 -54q-30 -45 -30 -116q0 -87 42 -133q35 -38 93 -38q77 0 117 52z" />
    <glyph glyph-name="uniFBDF" unicode="&#x6cb;" horiz-adv-x="514" arabic-form="final" 
d="M276 617q0 -13 -9.5 -22t-22.5 -9t-22.5 9t-9.5 22t9.5 22.5t22.5 9.5t22.5 -9.5t9.5 -22.5zM233 538q0 -14 -9.5 -23.5t-23.5 -9.5t-23.5 9.5t-9.5 23.5t9.5 23.5t23.5 9.5t23.5 -9.5t9.5 -23.5zM322 538q0 -13 -10 -23t-23 -10q-14 0 -23.5 9.5t-9.5 23.5t9.5 23.5
t23.5 9.5q13 0 23 -10t10 -23zM408 0q-2 -98 -57 -148q-46 -41 -118 -41q-61 0 -126 31l12 38q61 -29 111 -29q64 0 100 42q34 39 35 107h-94q-106 0 -158 68q-43 56 -43 150q0 103 53 160q47 50 125 50q80 0 123 -50q37 -44 37 -116v-222h116v-40h-116zM365 40v213
q0 134 -117 134q-69 0 -105 -54q-30 -45 -30 -116q0 -94 47 -139q41 -38 113 -38h92z" />
    <glyph glyph-name="uniFBE0" unicode="&#x6c5;" horiz-adv-x="488" arabic-form="isolated" 
d="M365 49q-46 -43 -123 -43q-84 0 -131 64q-41 57 -41 148q0 103 53 160q47 50 125 50q80 0 123 -50q37 -44 37 -116v-252q0 -103 -56 -156q-45 -43 -119 -43q-61 0 -126 31l12 38q61 -29 111 -29q91 0 122 79h-150v25h158q5 27 5 53v41zM365 98v155q0 134 -117 134
q-69 0 -105 -54q-30 -45 -30 -116q0 -87 42 -133q35 -38 93 -38q77 0 117 52z" />
    <glyph glyph-name="uniFBE1" unicode="&#x6c5;" horiz-adv-x="514" arabic-form="final" 
d="M408 262v-222h116v-40h-116q-2 -98 -57 -148q-46 -41 -118 -41q-61 0 -126 31l12 38q61 -29 111 -29q91 0 122 79h-150v25h158q5 23 5 45h-94q-106 0 -158 68q-43 56 -43 150q0 103 53 160q47 50 125 50q80 0 123 -50q37 -44 37 -116zM365 40v213q0 134 -117 134
q-69 0 -105 -54q-30 -45 -30 -116q0 -94 47 -139q41 -38 113 -38h92z" />
    <glyph glyph-name="uniFBE2" unicode="&#x6c9;" horiz-adv-x="488" arabic-form="isolated" 
d="M300 512l-56 92l-55 -92h-43l77 126h40l80 -126h-43zM365 49q-46 -43 -123 -43q-84 0 -131 64q-41 57 -41 148q0 103 53 160q47 50 125 50q80 0 123 -50q37 -44 37 -116v-252q0 -103 -56 -156q-45 -43 -119 -43q-61 0 -126 31l12 38q61 -29 111 -29q66 0 102 45
q33 40 33 112v41zM365 98v155q0 134 -117 134q-69 0 -105 -54q-30 -45 -30 -116q0 -87 42 -133q35 -38 93 -38q77 0 117 52z" />
    <glyph glyph-name="uniFBE3" unicode="&#x6c9;" horiz-adv-x="514" arabic-form="final" 
d="M300 512l-56 92l-55 -92h-43l77 126h40l80 -126h-43zM408 0q-2 -98 -57 -148q-46 -41 -118 -41q-61 0 -126 31l12 38q61 -29 111 -29q64 0 100 42q34 39 35 107h-94q-106 0 -158 68q-43 56 -43 150q0 103 53 160q47 50 125 50q80 0 123 -50q37 -44 37 -116v-222h116v-40
h-116zM365 40v213q0 134 -117 134q-69 0 -105 -54q-30 -45 -30 -116q0 -94 47 -139q41 -38 113 -38h92z" />
    <glyph glyph-name="uniFBE4" unicode="&#x6d0;" horiz-adv-x="691" arabic-form="isolated" 
d="M574 379h-100q-55 0 -86 -25q-32 -27 -32 -78q0 -63 48 -98q24 -18 103 -47q70 -26 95 -55q29 -31 29 -80q0 -82 -81 -137q-79 -53 -203 -53q-144 0 -218 83q-59 67 -59 168q0 90 47 156l34 -16q-39 -69 -39 -143q0 -94 67 -152q64 -55 168 -55q121 0 190 53q53 41 53 95
q0 45 -49 73q-18 10 -76 32q-72 28 -103 56q-49 44 -49 118q0 72 52 113q43 33 104 32h105v-40zM375 -311q0 -13 -9.5 -23t-22.5 -10q-14 0 -23.5 9.5t-9.5 23.5t9.5 23.5t23.5 9.5q13 0 22.5 -10t9.5 -23zM375 -398q0 -13 -9.5 -23t-22.5 -10q-14 0 -23.5 9.5t-9.5 23.5
t9.5 23.5t23.5 9.5q13 0 22.5 -10t9.5 -23z" />
    <glyph glyph-name="uniFBE5" unicode="&#x6d0;" horiz-adv-x="632" arabic-form="final" 
d="M631 0q0 -88 -83 -143q-77 -51 -201 -51q-144 0 -218 83q-59 67 -59 168q0 90 47 156l34 -16q-39 -69 -39 -143q0 -94 67 -152q64 -55 168 -55q118 0 186 51q56 42 57 102h-99v40h151v-40h-11zM375 -310q0 -13 -9.5 -23t-22.5 -10q-14 0 -23.5 9.5t-9.5 23.5t9.5 23.5
t23.5 9.5q13 0 22.5 -10t9.5 -23zM375 -397q0 -13 -9.5 -23t-22.5 -10q-14 0 -23.5 9.5t-9.5 23.5t9.5 23.5t23.5 9.5q13 0 22.5 -10t9.5 -23z" />
    <glyph glyph-name="uniFBE6" unicode="&#x6d0;" horiz-adv-x="261" arabic-form="initial" 
d="M-10 0v40h13q68 0 100 42q26 34 26 93v243h43v-246q0 -90 -50 -135q-42 -37 -110 -37h-22zM87 -239q-13 0 -22.5 10t-9.5 23t9.5 23t22.5 10q14 0 23.5 -9.5t9.5 -23.5t-9.5 -23.5t-23.5 -9.5zM87 -152q-13 0 -22.5 10t-9.5 23t9.5 23t22.5 10q14 0 23.5 -9.5t9.5 -23.5
t-9.5 -23.5t-23.5 -9.5z" />
    <glyph glyph-name="uniFBE7" unicode="&#x6d0;" horiz-adv-x="301" arabic-form="medial" 
d="M-10 0v40h13q68 0 100 42q26 34 26 93v243h43v-243q0 -68 35 -103q32 -32 91 -32h13v-40h-20q-101 0 -140 76q-40 -76 -139 -76h-22zM148 -239q-14 0 -23.5 9.5t-9.5 23.5t9.5 23.5t23.5 9.5t23.5 -9.5t9.5 -23.5t-9.5 -23.5t-23.5 -9.5zM148 -152q-14 0 -23.5 9.5
t-9.5 23.5t9.5 23.5t23.5 9.5t23.5 -9.5t9.5 -23.5t-9.5 -23.5t-23.5 -9.5z" />
    <glyph glyph-name="uniFBE8" unicode="&#x649;" horiz-adv-x="261" arabic-form="initial" 
d="M12 0h-22v40h13q68 0 100 42q26 34 26 93v243h43v-246q0 -90 -50 -135q-42 -37 -110 -37z" />
    <glyph glyph-name="uniFBE9" unicode="&#x649;" horiz-adv-x="301" arabic-form="medial" 
d="M12 0h-22v40h13q68 0 100 42q26 34 26 93v243h43v-243q0 -68 35 -103q32 -32 91 -32h13v-40h-20q-101 0 -140 76q-40 -76 -139 -76z" />
    <glyph glyph-name="uniFBFC" unicode="&#x6cc;" horiz-adv-x="691" arabic-form="isolated" 
d="M574 379h-100q-55 0 -86 -25q-32 -27 -32 -78q0 -63 48 -98q24 -18 103 -47q70 -26 95 -55q29 -31 29 -80q0 -82 -81 -137q-79 -53 -203 -53q-144 0 -218 83q-59 67 -59 168q0 90 47 156l34 -16q-39 -69 -39 -143q0 -94 67 -152q64 -55 168 -55q121 0 190 53q53 41 53 95
q0 45 -49 73q-18 10 -76 32q-72 28 -103 56q-49 44 -49 118q0 72 52 113q43 33 104 32h105v-40z" />
    <glyph glyph-name="uniFBFD" unicode="&#x6cc;" horiz-adv-x="632" arabic-form="final" 
d="M631 0q0 -88 -83 -143q-77 -51 -201 -51q-144 0 -218 83q-59 67 -59 168q0 90 47 156l34 -16q-39 -69 -39 -143q0 -94 67 -152q64 -55 168 -55q118 0 186 51q56 42 57 102h-99v40h151v-40h-11z" />
    <glyph glyph-name="uniFBFE" unicode="&#x6cc;" horiz-adv-x="261" arabic-form="initial" 
d="M-10 0v40h13q68 0 100 42q26 34 26 93v243h43v-246q0 -90 -50 -135q-42 -37 -110 -37h-22zM33 -152q-13 0 -23 10t-10 23t10 23t23 10t23 -10t10 -23q0 -14 -9.5 -23.5t-23.5 -9.5zM122 -152q-14 0 -23.5 9.5t-9.5 23.5q0 13 10 23t23 10t23 -10t10 -23q0 -14 -9.5 -23.5
t-23.5 -9.5z" />
    <glyph glyph-name="uniFBFF" unicode="&#x6cc;" horiz-adv-x="301" arabic-form="medial" 
d="M-10 0v40h13q68 0 100 42q26 34 26 93v243h43v-243q0 -68 35 -103q32 -32 91 -32h13v-40h-20q-101 0 -140 76q-40 -76 -139 -76h-22zM103 -152q-14 0 -23.5 9.5t-9.5 23.5q0 13 10 23t23 10t23 -10t10 -23t-10 -23t-23 -10zM191 -152q-13 0 -23 10t-10 23t10 23t23 10
t23 -10t10 -23q0 -14 -9.5 -23.5t-23.5 -9.5z" />
    <glyph glyph-name="uniFCF3" unicode="&#xfcf3;" horiz-adv-x="116" arabic-form="medial" 
d="M87 670l-111 -19l-4 25l98 18q-23 20 -23 49q0 22 14 37t34 15q23 0 37 -15t14 -38q0 -27 -16.5 -47t-42.5 -25zM98 703q22 8 22 37q0 14 -6.5 22.5t-17.5 8.5q-10 0 -16 -8.5t-6 -21.5q0 -27 24 -38zM58 536q-15 -17 -38 -17q-21 0 -34.5 13.5t-13.5 33.5v55h27v-52
q0 -22 22 -22q24 0 24 21v37h27v-37q0 -21 23 -21q22 0 22 22v52h27v-55q0 -20 -13.5 -33.5t-34.5 -13.5q-24 0 -38 17zM126 0h-136v40h136v-40z" />
    <glyph glyph-name="uniFCF4" unicode="&#xfcf4;" horiz-adv-x="116" arabic-form="medial" 
d="M58 626q-15 -17 -38 -17q-21 0 -34.5 13.5t-13.5 33.5v55h27v-52q0 -22 22 -22q24 0 24 21v37h27v-37q0 -21 23 -21q22 0 22 22v52h27v-55q0 -20 -13.5 -33.5t-34.5 -13.5q-24 0 -38 17zM135 542l-147 -26l-5 30l147 27zM126 0h-136v40h136v-40z" />
    <glyph glyph-name="uniFD3C" unicode="&#xfd3c;" horiz-adv-x="264" arabic-form="final" 
d="M184 777l-144 -26l-4 26l143 26zM187 713l-143 -26l-5 25l144 27zM274 0h-24q-81 0 -124 48q-36 42 -36 112v454h43v-442q0 -68 31 -100t95 -32h15v-40z" />
    <glyph glyph-name="uniFD3D" unicode="&#xfd3d;" horiz-adv-x="223" arabic-form="isolated" 
d="M184 777l-144 -26l-4 26l143 26zM187 713l-143 -26l-5 25l144 27zM133 0h-43v614h43v-614z" />
    <glyph glyph-name="uniFE71" unicode="&#xfe71;" horiz-adv-x="116" arabic-form="medial" 
d="M129 613l5 -29l-5 -1l3 -16l-143 -26l-5 29l4 1l-3 15zM126 0h-136v40h136v-40z" />
    <glyph glyph-name="uniFE72" unicode="&#xfe72;" horiz-adv-x="225" arabic-form="isolated" 
d="M129 712q-23 18 -23 48q0 22 14 37t35 15q23 0 37 -14.5t14 -37.5q0 -32 -22 -53t-57 -21q-46 0 -67 35l-19 -33l-22 14l30 49h21q17 -40 59 -39zM158 720q22 8 22 38q0 14 -6.5 22.5t-17.5 8.5q-10 0 -16.5 -8.5t-6.5 -21.5q0 -26 25 -39z" />
    <glyph glyph-name="uniFE74" unicode="&#xfe74;" horiz-adv-x="188" arabic-form="isolated" 
d="M168 -127l-144 -26l-5 28l144 26zM169 -195l-143 -26l-5 29l143 26z" />
    <glyph glyph-name="uniFE76" unicode="&#xfe76;" horiz-adv-x="190" arabic-form="isolated" 
d="M171 712l-146 -26l-6 31l147 26z" />
    <glyph glyph-name="uniFE77" unicode="&#xfe77;" horiz-adv-x="116" arabic-form="medial" 
d="M135 542l-147 -26l-5 30l147 27zM126 0h-136v40h136v-40z" />
    <glyph glyph-name="uniFE78" unicode="&#xfe78;" horiz-adv-x="211" arabic-form="isolated" 
d="M134 705l-112 -19l-3 25l98 18q-23 20 -23 49q0 22 13.5 37t34.5 15q22 0 36 -15t14 -38q0 -27 -16 -47t-42 -25zM144 738q23 8 23 37q0 13 -7 22t-18 9q-9 0 -15 -8.5t-6 -21.5q0 -27 23 -38z" />
    <glyph glyph-name="uniFE79" unicode="&#xfe79;" horiz-adv-x="116" arabic-form="medial" 
d="M87 535l-112 -19l-3 25l97 18q-22 18 -22 49q0 22 14 36.5t34 14.5q22 0 36 -14.5t14 -38.5q0 -27 -16.5 -47t-41.5 -24zM97 567q22 8 22 38q0 14 -6.5 22.5t-17.5 8.5q-9 0 -15.5 -8.5t-6.5 -21.5q0 -27 24 -39zM126 0h-136v40h136v-40z" />
    <glyph glyph-name="uniFE7A" unicode="&#xfe7a;" horiz-adv-x="190" arabic-form="isolated" 
d="M171 -131l-146 -27l-6 33l147 26z" />
    <glyph glyph-name="uniFE7B" unicode="&#xfe7b;" horiz-adv-x="116" arabic-form="medial" 
d="M126 0h-136v40h136v-40zM135 -131l-147 -27l-5 33l147 26z" />
    <glyph glyph-name="uniFE7C" unicode="&#xfe7c;" horiz-adv-x="209" arabic-form="isolated" 
d="M105 706q-19 -17 -38 -17q-20 0 -34 13.5t-14 33.5v56h26v-53q0 -22 23 -22t23 21v38h27v-38q0 -21 24 -21q22 0 22 22v53h26v-56q0 -20 -13.5 -33.5t-34.5 -13.5q-22 0 -37 17z" />
    <glyph glyph-name="uniFE7D" unicode="&#xfe7d;" horiz-adv-x="116" arabic-form="medial" 
d="M58 536q-15 -17 -38 -17q-21 0 -34.5 13.5t-13.5 33.5v55h27v-52q0 -22 22 -22q24 0 24 21v37h27v-37q0 -21 23 -21q22 0 22 22v52h27v-55q0 -20 -13.5 -33.5t-34.5 -13.5q-24 0 -38 17zM126 0h-136v40h136v-40z" />
    <glyph glyph-name="uniFE7E" unicode="&#xfe7e;" horiz-adv-x="143" arabic-form="isolated" 
d="M72 807q23 -7 37.5 -25.5t14.5 -42.5t-14 -38.5t-38 -14.5q-25 0 -39 13.5t-14 37.5q0 23 15 42.5t38 27.5zM72 782q-11 -4 -18.5 -15t-7.5 -25q0 -30 25 -30q26 0 26 29q0 14 -7 26t-18 15z" />
    <glyph glyph-name="uniFE7F" unicode="&#xfe7f;" horiz-adv-x="116" arabic-form="medial" 
d="M58 636q23 -6 37.5 -25t14.5 -43t-14 -38t-38 -14q-25 0 -39 13.5t-14 36.5q0 24 15 43.5t38 26.5zM58 611q-11 -3 -18.5 -14.5t-7.5 -25.5q0 -30 25 -30q26 0 26 29q0 15 -7 26.5t-18 14.5zM126 0h-136v40h136v-40z" />
    <glyph glyph-name="uniFE80" unicode="&#x621;" horiz-adv-x="462" arabic-form="isolated" 
d="M403 5q-42 10 -90 10q-77 0 -148 -25q-62 -22 -101 -58l-30 33q41 35 91 56q-65 72 -65 180q0 88 54 141q46 47 115 47q81 0 140 -75l-22 -25q-52 59 -119 59q-63 0 -97 -51q-28 -41 -28 -99q0 -44 17.5 -87t47.5 -74q64 19 135 19q57 0 114 -12z" />
    <glyph glyph-name="uniFE81" unicode="&#x622;" horiz-adv-x="218" arabic-form="isolated" 
d="M202 732q-18 -46 -54 -46q-22 0 -49 20q-15 11 -26 11q-17 0 -31 -27l-20 13q19 44 51 44q19 0 41 -17q17 -14 34 -14q16 0 30 25zM133 0h-43v614h43v-614z" />
    <glyph glyph-name="uniFE82" unicode="&#x622;" horiz-adv-x="264" arabic-form="final" 
d="M202 732q-18 -46 -54 -46q-22 0 -49 20q-15 11 -26 11q-17 0 -31 -27l-20 13q19 44 51 44q19 0 41 -17q17 -14 34 -14q16 0 30 25zM274 0h-24q-81 0 -124 48q-36 42 -36 112v454h43v-442q0 -68 31 -100t95 -32h15v-40z" />
    <glyph glyph-name="uniFE83" unicode="&#x623;" horiz-adv-x="223" arabic-form="isolated" 
d="M188 684h-152v28h36q-10 17 -10 34q0 26 18.5 43.5t46.5 17.5q29 0 48 -15l-12 -23q-17 11 -34 11t-27 -9t-10 -25q0 -17 14 -34h82v-28zM133 0h-43v616h43v-616z" />
    <glyph glyph-name="uniFE84" unicode="&#x623;" horiz-adv-x="264" arabic-form="final" 
d="M188 684h-152v28h36q-10 17 -10 34q0 26 18.5 43.5t46.5 17.5q29 0 48 -15l-12 -23q-17 11 -34 11t-27 -9t-10 -25q0 -17 14 -34h82v-28zM274 0h-24q-81 0 -124 48q-36 42 -36 112v456h43v-444q0 -68 31 -100t95 -32h15v-40z" />
    <glyph glyph-name="uniFE85" unicode="&#x624;" horiz-adv-x="488" arabic-form="isolated" 
d="M320 518h-151v28h35q-9 18 -9 34q0 27 18.5 44.5t46.5 17.5t47 -16l-11 -23q-16 11 -34 11q-17 0 -27 -9t-10 -25q0 -17 14 -34h81v-28zM365 49q-46 -43 -123 -43q-84 0 -131 64q-41 57 -41 148q0 103 53 160q47 50 125 50q80 0 123 -50q37 -44 37 -116v-252
q0 -103 -56 -156q-45 -43 -119 -43q-61 0 -126 31l12 38q61 -29 111 -29q66 0 102 45q33 40 33 112v41zM365 98v155q0 134 -117 134q-69 0 -105 -54q-30 -45 -30 -116q0 -87 42 -133q35 -38 93 -38q77 0 117 52z" />
    <glyph glyph-name="uniFE86" unicode="&#x624;" horiz-adv-x="514" arabic-form="final" 
d="M320 518h-151v28h35q-9 18 -9 34q0 27 18.5 44.5t46.5 17.5t47 -16l-11 -23q-16 11 -34 11q-17 0 -27 -9t-10 -25q0 -17 14 -34h81v-28zM408 0q-2 -98 -57 -148q-46 -41 -118 -41q-61 0 -126 31l12 38q61 -29 111 -29q64 0 100 42q34 39 35 107h-94q-106 0 -158 68
q-43 56 -43 150q0 103 53 160q47 50 125 50q80 0 123 -50q37 -44 37 -116v-222h116v-40h-116zM365 40v213q0 134 -117 134q-69 0 -105 -54q-30 -45 -30 -116q0 -94 47 -139q41 -38 113 -38h92z" />
    <glyph glyph-name="uniFE87" unicode="&#x625;" horiz-adv-x="222" arabic-form="isolated" 
d="M132 0h-43v666h43v-666zM185 -219h-152v28h36q-10 17 -10 34q0 26 19 43.5t47 17.5t47 -15l-11 -23q-19 11 -35 11q-17 0 -27 -9.5t-10 -24.5q0 -17 14 -34h82v-28z" />
    <glyph glyph-name="uniFE88" unicode="&#x625;" horiz-adv-x="264" arabic-form="final" 
d="M274 0h-24q-81 0 -124 48q-36 42 -36 112v506h43v-494q0 -68 31 -100t95 -32h15v-40zM241 -219h-152v28h36q-10 17 -10 34q0 26 18.5 43.5t46.5 17.5q29 0 48 -15l-12 -23q-17 11 -34 11t-27 -9t-10 -25q0 -17 14 -34h82v-28z" />
    <glyph glyph-name="uniFE89" unicode="&#x626;" horiz-adv-x="691" arabic-form="isolated" 
d="M229 333h-152v28h36q-10 17 -10 34q0 26 18.5 44t46.5 18t48 -16l-12 -23q-15 11 -34 11q-17 0 -27 -9t-10 -25q0 -17 14 -34h82v-28zM574 379h-100q-55 0 -86 -25q-32 -27 -32 -78q0 -63 48 -98q24 -18 103 -47q70 -26 95 -55q29 -31 29 -80q0 -82 -81 -137
q-79 -53 -203 -53q-144 0 -218 83q-59 67 -59 168q0 90 47 156l34 -16q-39 -69 -39 -143q0 -94 67 -152q64 -55 168 -55q121 0 190 53q53 41 53 95q0 45 -49 73q-18 10 -76 32q-72 28 -103 56q-49 44 -49 118q0 72 52 113q43 33 104 32h105v-40z" />
    <glyph glyph-name="uniFE8A" unicode="&#x626;" horiz-adv-x="632" arabic-form="final" 
d="M252 327h-151v28h35q-9 17 -9 34q0 27 18.5 44t46.5 17q30 0 47 -16l-11 -22q-17 10 -34 10q-37 0 -37 -34q0 -18 14 -33h81v-28zM631 0q0 -88 -83 -143q-77 -51 -201 -51q-144 0 -218 83q-59 67 -59 168q0 90 47 156l34 -16q-39 -69 -39 -143q0 -94 67 -152
q64 -55 168 -55q118 0 186 51q56 42 57 102h-99v40h151v-40h-11z" />
    <glyph glyph-name="uniFE8B" unicode="&#x626;" horiz-adv-x="261" arabic-form="initial" 
d="M224 518h-152v28h36q-10 17 -10 34q0 26 18.5 44t46.5 18t48 -16l-12 -23q-15 11 -34 11q-17 0 -27 -9t-10 -25q0 -17 14 -34h82v-28zM12 0h-22v40h13q68 0 100 42q26 34 26 93v243h43v-246q0 -90 -50 -135q-42 -37 -110 -37z" />
    <glyph glyph-name="uniFE8C" unicode="&#x626;" horiz-adv-x="301" arabic-form="medial" 
d="M227 518h-152v28h36q-10 17 -10 34q0 26 18.5 44t46.5 18t48 -16l-12 -23q-15 11 -34 11q-17 0 -27 -9t-10 -25q0 -17 14 -34h82v-28zM12 0h-22v40h13q68 0 100 42q26 34 26 93v243h43v-243q0 -68 35 -103q32 -32 91 -32h13v-40h-20q-101 0 -140 76q-40 -76 -139 -76z
" />
    <glyph glyph-name="uniFE8D" unicode="&#x627;" horiz-adv-x="223" arabic-form="isolated" 
d="M133 0h-43v666h43v-666z" />
    <glyph glyph-name="uniFE8E" unicode="&#x627;" horiz-adv-x="264" arabic-form="final" 
d="M274 0h-24q-81 0 -124 48q-36 42 -36 112v506h43v-494q0 -68 31 -100t95 -32h15v-40z" />
    <glyph glyph-name="uniFE8F" unicode="&#x628;" horiz-adv-x="856" arabic-form="isolated" 
d="M599 0h-309q-106 0 -165 71q-45 56 -45 133q0 61 32 111q30 47 82 72l20 -31q-44 -22 -68 -63t-24 -91q0 -70 48 -117q45 -45 117 -45h302q134 0 134 135v243h43v-246q0 -90 -51 -135q-43 -37 -116 -37zM460 -119q0 -14 -9.5 -23.5t-23.5 -9.5t-23.5 9.5t-9.5 23.5
q0 13 10 23t23 10t23 -10t10 -23z" />
    <glyph glyph-name="uniFE90" unicode="&#x628;" horiz-adv-x="895" arabic-form="final" 
d="M595 0h-305q-106 0 -165 71q-45 56 -45 133q0 61 32 111q30 47 82 72l20 -31q-44 -22 -68 -63t-24 -91q0 -70 48 -117q45 -45 117 -45h302q134 0 134 135v243h43v-243q0 -68 35 -103q32 -32 91 -32h13v-40h-21q-100 0 -139 76q-41 -76 -150 -76zM460 -119
q0 -14 -9.5 -23.5t-23.5 -9.5t-23.5 9.5t-9.5 23.5q0 13 10 23t23 10t23 -10t10 -23z" />
    <glyph glyph-name="uniFE91" unicode="&#x628;" horiz-adv-x="261" arabic-form="initial" 
d="M-10 0v40h13q68 0 100 42q26 34 26 93v243h43v-246q0 -90 -50 -135q-42 -37 -110 -37h-22zM87 -152q-13 0 -23 10t-10 23t10 23t23 10t23 -10t10 -23q0 -14 -9.5 -23.5t-23.5 -9.5z" />
    <glyph glyph-name="uniFE92" unicode="&#x628;" horiz-adv-x="301" arabic-form="medial" 
d="M-10 0v40h13q68 0 100 42q26 34 26 93v243h43v-243q0 -68 35 -103q32 -32 91 -32h13v-40h-20q-101 0 -140 76q-40 -76 -139 -76h-22zM151 -152q-14 0 -23.5 9.5t-9.5 23.5q0 13 10 23t23 10t23 -10t10 -23q0 -14 -9.5 -23.5t-23.5 -9.5z" />
    <glyph glyph-name="uniFE93" unicode="&#x629;" horiz-adv-x="492" arabic-form="isolated" 
d="M233 538q0 -13 -10 -23t-23 -10q-14 0 -23.5 9.5t-9.5 23.5t9.5 23.5t23.5 9.5q13 0 23 -10t10 -23zM321 538q0 -14 -9.5 -23.5t-23.5 -9.5q-13 0 -23 10t-10 23t10 23t23 10q14 0 23.5 -9.5t9.5 -23.5zM260 -7h-28q-80 0 -125 67q-39 58 -39 152q0 107 53 165
q47 51 125 51q89 0 137 -66q41 -57 41 -150q0 -108 -51 -167q-44 -52 -113 -52zM111 211q0 -87 36 -134q33 -43 89 -43h20q64 0 97 55q28 46 28 122q0 87 -38 133q-35 43 -97 43q-71 0 -106 -55q-29 -45 -29 -121z" />
    <glyph glyph-name="uniFE94" unicode="&#x629;" horiz-adv-x="538" arabic-form="final" 
d="M229 575q0 -13 -10 -23t-23 -10t-23 10t-10 23q0 14 9.5 23.5t23.5 9.5q13 0 23 -10t10 -23zM317 575q0 -13 -10 -23t-23 -10t-23 10t-10 23t10 23t23 10q14 0 23.5 -9.5t9.5 -23.5zM548 0h-20q-59 0 -99 29q-34 25 -50 67q-56 -68 -142 -68q-78 0 -124 59
q-43 55 -43 143q0 102 65 158q57 49 147 49h83v52h43v-314q0 -70 37 -105q33 -30 90 -30h13v-40zM365 396h-84q-86 0 -130 -49q-38 -43 -38 -116q0 -82 40 -126q33 -36 84 -36q76 0 131 67q-3 18 -3 37v223z" />
    <glyph glyph-name="uniFE95" unicode="&#x62a;" horiz-adv-x="856" arabic-form="isolated" 
d="M437 448q0 -13 -10 -23t-23 -10q-14 0 -23.5 9.5t-9.5 23.5t9.5 23.5t23.5 9.5q13 0 23 -10t10 -23zM525 448q0 -14 -9.5 -23.5t-23.5 -9.5q-13 0 -23 10t-10 23t10 23t23 10q14 0 23.5 -9.5t9.5 -23.5zM599 0h-309q-106 0 -165 71q-45 56 -45 133q0 61 32 111
q30 47 82 72l20 -31q-44 -22 -68 -63t-24 -91q0 -70 48 -117q45 -45 117 -45h302q134 0 134 135v243h43v-246q0 -90 -51 -135q-43 -37 -116 -37z" />
    <glyph glyph-name="uniFE96" unicode="&#x62a;" horiz-adv-x="895" arabic-form="final" 
d="M437 448q0 -13 -10 -23t-23 -10q-14 0 -23.5 9.5t-9.5 23.5t9.5 23.5t23.5 9.5q13 0 23 -10t10 -23zM525 448q0 -14 -9.5 -23.5t-23.5 -9.5q-13 0 -23 10t-10 23t10 23t23 10q14 0 23.5 -9.5t9.5 -23.5zM595 0h-305q-106 0 -165 71q-45 56 -45 133q0 61 32 111
q30 47 82 72l20 -31q-44 -22 -68 -63t-24 -91q0 -70 48 -117q45 -45 117 -45h302q134 0 134 135v243h43v-243q0 -68 35 -103q32 -32 91 -32h13v-40h-21q-100 0 -139 76q-41 -76 -150 -76z" />
    <glyph glyph-name="uniFE97" unicode="&#x62a;" horiz-adv-x="261" arabic-form="initial" 
d="M136 538q0 -14 -9.5 -23.5t-23.5 -9.5q-13 0 -23 10t-10 23t10 23t23 10q14 0 23.5 -9.5t9.5 -23.5zM225 538q0 -14 -9.5 -23.5t-23.5 -9.5t-23.5 9.5t-9.5 23.5t9.5 23.5t23.5 9.5t23.5 -9.5t9.5 -23.5zM12 0h-22v40h13q68 0 100 42q26 34 26 93v243h43v-246
q0 -90 -50 -135q-42 -37 -110 -37z" />
    <glyph glyph-name="uniFE98" unicode="&#x62a;" horiz-adv-x="301" arabic-form="medial" 
d="M139 538q0 -14 -9.5 -23.5t-23.5 -9.5q-13 0 -23 10t-10 23t10 23t23 10q14 0 23.5 -9.5t9.5 -23.5zM228 538q0 -14 -9.5 -23.5t-23.5 -9.5t-23.5 9.5t-9.5 23.5t9.5 23.5t23.5 9.5t23.5 -9.5t9.5 -23.5zM12 0h-22v40h13q68 0 100 42q26 34 26 93v243h43v-243
q0 -68 35 -103q32 -32 91 -32h13v-40h-20q-101 0 -140 76q-40 -76 -139 -76z" />
    <glyph glyph-name="uniFE99" unicode="&#x62b;" horiz-adv-x="856" arabic-form="isolated" 
d="M479 527q0 -13 -9 -22t-22 -9t-22.5 9t-9.5 22t9.5 22.5t22.5 9.5t22 -9.5t9 -22.5zM437 448q0 -13 -10 -23t-23 -10q-14 0 -23.5 9.5t-9.5 23.5t9.5 23.5t23.5 9.5q13 0 23 -10t10 -23zM525 448q0 -14 -9.5 -23.5t-23.5 -9.5q-13 0 -23 10t-10 23t10 23t23 10
q14 0 23.5 -9.5t9.5 -23.5zM599 0h-309q-106 0 -165 71q-45 56 -45 133q0 61 32 111q30 47 82 72l20 -31q-44 -22 -68 -63t-24 -91q0 -70 48 -117q45 -45 117 -45h302q134 0 134 135v243h43v-246q0 -90 -51 -135q-43 -37 -116 -37z" />
    <glyph glyph-name="uniFE9A" unicode="&#x62b;" horiz-adv-x="895" arabic-form="final" 
d="M479 527q0 -13 -9 -22t-22 -9t-22.5 9t-9.5 22t9.5 22.5t22.5 9.5t22 -9.5t9 -22.5zM437 448q0 -13 -10 -23t-23 -10q-14 0 -23.5 9.5t-9.5 23.5t9.5 23.5t23.5 9.5q13 0 23 -10t10 -23zM525 448q0 -14 -9.5 -23.5t-23.5 -9.5q-13 0 -23 10t-10 23t10 23t23 10
q14 0 23.5 -9.5t9.5 -23.5zM595 0h-305q-106 0 -165 71q-45 56 -45 133q0 61 32 111q30 47 82 72l20 -31q-44 -22 -68 -63t-24 -91q0 -70 48 -117q45 -45 117 -45h302q134 0 134 135v243h43v-243q0 -68 35 -103q32 -32 91 -32h13v-40h-21q-100 0 -139 76q-41 -76 -150 -76z
" />
    <glyph glyph-name="uniFE9B" unicode="&#x62b;" horiz-adv-x="261" arabic-form="initial" 
d="M179 617q0 -13 -9.5 -22t-22.5 -9t-22 9t-9 22t9 22.5t22 9.5t22.5 -9.5t9.5 -22.5zM136 538q0 -14 -9.5 -23.5t-23.5 -9.5q-13 0 -23 10t-10 23t10 23t23 10q14 0 23.5 -9.5t9.5 -23.5zM225 538q0 -14 -9.5 -23.5t-23.5 -9.5t-23.5 9.5t-9.5 23.5t9.5 23.5t23.5 9.5
t23.5 -9.5t9.5 -23.5zM12 0h-22v40h13q68 0 100 42q26 34 26 93v243h43v-246q0 -90 -50 -135q-42 -37 -110 -37z" />
    <glyph glyph-name="uniFE9C" unicode="&#x62b;" horiz-adv-x="301" arabic-form="medial" 
d="M182 617q0 -13 -9.5 -22t-22.5 -9t-22 9t-9 22t9 22.5t22 9.5t22.5 -9.5t9.5 -22.5zM139 538q0 -14 -9.5 -23.5t-23.5 -9.5q-13 0 -23 10t-10 23t10 23t23 10q14 0 23.5 -9.5t9.5 -23.5zM228 538q0 -14 -9.5 -23.5t-23.5 -9.5t-23.5 9.5t-9.5 23.5t9.5 23.5t23.5 9.5
t23.5 -9.5t9.5 -23.5zM12 0h-22v40h13q68 0 100 42q26 34 26 93v243h43v-243q0 -68 35 -103q32 -32 91 -32h13v-40h-20q-101 0 -140 76q-40 -76 -139 -76z" />
    <glyph glyph-name="uniFE9D" unicode="&#x62c;" horiz-adv-x="569" arabic-form="isolated" 
d="M486 -314q-81 -52 -181 -52q-110 0 -176 76q-59 67 -59 168q0 156 135 244q111 73 291 84q-43 82 -103 124q-52 36 -109 36q-78 0 -153 -68l-25 28q79 80 177 80q85 0 157 -61q64 -55 99 -143v-30q-201 -10 -315 -89q-111 -77 -111 -206q0 -98 64 -155q53 -48 132 -48
q84 0 158 45zM340 -130q0 -14 -9.5 -23.5t-23.5 -9.5q-13 0 -23 10t-10 23t10 23t23 10q14 0 23.5 -9.5t9.5 -23.5z" />
    <glyph glyph-name="uniFE9E" unicode="&#x62c;" horiz-adv-x="677" arabic-form="final" 
d="M486 -314q-81 -52 -181 -52q-110 0 -176 76q-59 67 -59 168q0 156 135 244q111 73 291 84q-43 82 -103 124q-52 36 -109 36q-78 0 -153 -68l-25 28q79 80 177 80q85 0 157 -61q64 -55 99 -143v-30q-59 -3 -103 -10q20 -65 74 -93.5t158 -28.5h19v-40h-24q-116 0 -178 38
q-61 37 -87 116q-140 -31 -214 -104q-71 -70 -71 -173q0 -98 64 -155q53 -48 132 -48q84 0 158 45zM340 -130q0 -14 -9.5 -23.5t-23.5 -9.5q-13 0 -23 10t-10 23t10 23t23 10q14 0 23.5 -9.5t9.5 -23.5z" />
    <glyph glyph-name="uniFE9F" unicode="&#x62c;" horiz-adv-x="544" arabic-form="initial" 
d="M106 0h-116v40h113q129 0 197.5 31.5t153.5 129.5q-43 84 -104 127q-53 38 -111 38q-78 0 -153 -68l-25 28q79 80 177 80q85 0 157 -61q64 -55 99 -143v-12q-48 -62 -83.5 -95t-76.5 -53q-84 -42 -228 -42zM275 -119q0 -14 -9.5 -23.5t-23.5 -9.5q-13 0 -23 10t-10 23
t10 23t23 10t23 -10t10 -23z" />
    <glyph glyph-name="uniFEA0" unicode="&#x62c;" horiz-adv-x="670" arabic-form="medial" 
d="M106 0h-116v40h113q129 0 197.5 31.5t153.5 129.5q-43 84 -104 127q-53 38 -111 38q-78 0 -153 -68l-25 28q79 80 177 80q85 0 157 -61q64 -55 99 -143v-12l-7 -9q-29 -37 -44 -53q24 -47 75.5 -67.5t143.5 -20.5h18v-40h-23q-96 0 -154 25q-56 24 -87 75
q-57 -54 -128.5 -77t-181.5 -23zM302 -119q0 -14 -9.5 -23.5t-23.5 -9.5q-13 0 -23 10t-10 23t10 23t23 10t23 -10t10 -23z" />
    <glyph glyph-name="uniFEA1" unicode="&#x62d;" horiz-adv-x="569" arabic-form="isolated" 
d="M486 -314q-81 -52 -181 -52q-110 0 -176 76q-59 67 -59 168q0 156 135 244q111 73 291 84q-43 82 -103 124q-52 36 -109 36q-78 0 -153 -68l-25 28q79 80 177 80q85 0 157 -61q64 -55 99 -143v-30q-201 -10 -315 -89q-111 -77 -111 -206q0 -98 64 -155q53 -48 132 -48
q84 0 158 45z" />
    <glyph glyph-name="uniFEA2" unicode="&#x62d;" horiz-adv-x="677" arabic-form="final" 
d="M486 -314q-81 -52 -181 -52q-110 0 -176 76q-59 67 -59 168q0 156 135 244q111 73 291 84q-43 82 -103 124q-52 36 -109 36q-78 0 -153 -68l-25 28q79 80 177 80q85 0 157 -61q64 -55 99 -143v-30q-59 -3 -103 -10q20 -65 74.5 -93.5t157.5 -28.5h19v-40h-24
q-116 0 -178 38q-61 37 -87 116q-140 -31 -214 -104q-71 -70 -71 -173q0 -98 64 -155q53 -48 132 -48q84 0 158 45z" />
    <glyph glyph-name="uniFEA3" unicode="&#x62d;" horiz-adv-x="544" arabic-form="initial" 
d="M106 0h-116v40h113q129 0 197.5 31.5t153.5 129.5q-43 84 -104 127q-53 38 -111 38q-78 0 -153 -68l-25 28q79 80 177 80q85 0 157 -61q64 -55 99 -143v-12q-48 -62 -83.5 -95t-76.5 -53q-84 -42 -228 -42z" />
    <glyph glyph-name="uniFEA4" unicode="&#x62d;" horiz-adv-x="670" arabic-form="medial" 
d="M106 0h-116v40h113q129 0 197.5 31.5t153.5 129.5q-43 84 -104 127q-53 38 -111 38q-78 0 -153 -68l-25 28q79 80 177 80q85 0 157 -61q64 -55 99 -143v-12l-7 -9q-29 -37 -44 -53q24 -47 75.5 -67.5t143.5 -20.5h18v-40h-23q-96 0 -154 25q-56 24 -87 75
q-57 -54 -128.5 -77t-181.5 -23z" />
    <glyph glyph-name="uniFEA5" unicode="&#x62e;" horiz-adv-x="569" arabic-form="isolated" 
d="M317 537q0 -14 -9.5 -23.5t-23.5 -9.5q-13 0 -23 10t-10 23t10 23t23 10t23 -10t10 -23zM486 -314q-81 -52 -181 -52q-110 0 -176 76q-59 67 -59 168q0 156 135 244q111 73 291 84q-43 82 -103 124q-52 36 -109 36q-78 0 -153 -68l-25 28q79 80 177 80q85 0 157 -61
q64 -55 99 -143v-30q-201 -10 -315 -89q-111 -77 -111 -206q0 -98 64 -155q53 -48 132 -48q84 0 158 45z" />
    <glyph glyph-name="uniFEA6" unicode="&#x62e;" horiz-adv-x="677" arabic-form="final" 
d="M318 537q0 -13 -10 -23t-23 -10q-14 0 -23.5 9.5t-9.5 23.5q0 13 10 23t23 10t23 -10t10 -23zM486 -314q-81 -52 -181 -52q-110 0 -176 76q-59 67 -59 168q0 156 135 244q111 73 291 84q-43 82 -103 124q-52 36 -109 36q-78 0 -153 -68l-25 28q79 80 177 80q85 0 157 -61
q64 -55 99 -143v-30q-59 -3 -103 -10q20 -65 74.5 -93.5t157.5 -28.5h19v-40h-24q-116 0 -178 38q-61 37 -87 116q-140 -31 -214 -104q-71 -70 -71 -173q0 -98 64 -155q53 -48 132 -48q84 0 158 45z" />
    <glyph glyph-name="uniFEA7" unicode="&#x62e;" horiz-adv-x="544" arabic-form="initial" 
d="M282 537q0 -14 -9.5 -23.5t-23.5 -9.5t-23.5 9.5t-9.5 23.5q0 13 10 23t23 10t23 -10t10 -23zM106 0h-116v40h113q129 0 197.5 31.5t153.5 129.5q-43 84 -104 127q-53 38 -111 38q-78 0 -153 -68l-25 28q79 80 177 80q85 0 157 -61q64 -55 99 -143v-12q-48 -62 -83.5 -95
t-76.5 -53q-84 -42 -228 -42z" />
    <glyph glyph-name="uniFEA8" unicode="&#x62e;" horiz-adv-x="670" arabic-form="medial" 
d="M277 537q0 -14 -9.5 -23.5t-23.5 -9.5t-23.5 9.5t-9.5 23.5q0 13 10 23t23 10t23 -10t10 -23zM106 0h-116v40h113q129 0 197.5 31.5t153.5 129.5q-43 84 -104 127q-53 38 -111 38q-78 0 -153 -68l-25 28q79 80 177 80q85 0 157 -61q64 -55 99 -143v-12l-7 -9
q-29 -37 -44 -53q24 -47 75.5 -67.5t143.5 -20.5h18v-40h-23q-96 0 -154 25q-56 24 -87 75q-57 -54 -128.5 -77t-181.5 -23z" />
    <glyph glyph-name="uniFEA9" unicode="&#x62f;" horiz-adv-x="449" arabic-form="isolated" 
d="M230 0h-210v40h198q59 0 86 25q27 26 27 82q0 69 -39 134q-35 60 -97 107l25 35q78 -59 119 -137q35 -68 35 -139q0 -147 -144 -147z" />
    <glyph glyph-name="uniFEAA" unicode="&#x62f;" horiz-adv-x="501" arabic-form="final" 
d="M230 0h-210v40h198q59 0 86 25q27 26 27 82q0 69 -39 134q-35 60 -97 107l25 35q78 -59 119 -136q35 -66 35 -135q0 -56 39 -86q32 -26 83 -26h15v-40h-21q-93 0 -133 65q-32 -65 -127 -65z" />
    <glyph glyph-name="uniFEAB" unicode="&#x630;" horiz-adv-x="449" arabic-form="isolated" 
d="M226 537q0 -14 -9.5 -23.5t-23.5 -9.5t-23.5 9.5t-9.5 23.5q0 13 10 23t23 10t23 -10t10 -23zM230 0h-210v40h198q59 0 86 25q27 26 27 82q0 69 -39 134q-35 60 -97 107l25 35q78 -59 119 -137q35 -68 35 -139q0 -147 -144 -147z" />
    <glyph glyph-name="uniFEAC" unicode="&#x630;" horiz-adv-x="501" arabic-form="final" 
d="M228 537q0 -14 -9.5 -23.5t-23.5 -9.5t-23.5 9.5t-9.5 23.5q0 13 10 23t23 10t23 -10t10 -23zM230 0h-210v40h198q59 0 86 25q27 26 27 82q0 69 -39 134q-35 60 -97 107l25 35q78 -59 119 -136q35 -66 35 -135q0 -56 39 -86q32 -26 83 -26h15v-40h-21q-93 0 -133 65
q-32 -65 -127 -65z" />
    <glyph glyph-name="uniFEAD" unicode="&#x631;" horiz-adv-x="325" arabic-form="isolated" 
d="M235 418v-408q0 -102 -55 -155q-45 -44 -116 -44q-57 0 -114 27l12 38q51 -25 97 -25q65 0 101 46q32 41 32 111v410h43z" />
    <glyph glyph-name="uniFEAE" unicode="&#x631;" horiz-adv-x="364" arabic-form="final" 
d="M235 47v-40q-1 -100 -54 -152q-45 -44 -117 -44q-57 0 -114 27l12 38q51 -25 97 -25q65 0 101 46q32 41 32 111v410h43v-243q0 -68 35 -103q32 -32 91 -32h13v-40h-22q-76 0 -117 47z" />
    <glyph glyph-name="uniFEAF" unicode="&#x632;" horiz-adv-x="325" arabic-form="isolated" 
d="M246 537q0 -14 -9.5 -23.5t-23.5 -9.5t-23.5 9.5t-9.5 23.5q0 13 10 23t23 10t23 -10t10 -23zM235 418v-408q0 -102 -55 -155q-45 -44 -116 -44q-57 0 -114 27l12 38q51 -25 97 -25q65 0 101 46q32 41 32 111v410h43z" />
    <glyph glyph-name="uniFEB0" unicode="&#x632;" horiz-adv-x="364" arabic-form="final" 
d="M245 537q0 -13 -10 -23t-23 -10q-14 0 -23.5 9.5t-9.5 23.5q0 13 10 23t23 10t23 -10t10 -23zM235 47v-40q-1 -100 -54 -152q-45 -44 -117 -44q-57 0 -114 27l12 38q51 -25 97 -25q65 0 101 46q32 41 32 111v410h43v-243q0 -68 35 -103q32 -32 91 -32h13v-40h-22
q-76 0 -117 47z" />
    <glyph glyph-name="uniFEB1" unicode="&#x633;" horiz-adv-x="1254" arabic-form="isolated" 
d="M565 27q-6 -109 -81 -167q-66 -51 -170 -51q-123 0 -190 82q-54 66 -54 166q0 90 47 156l34 -16q-39 -69 -39 -143q0 -92 60 -151q56 -54 142 -54q104 0 160 60q50 53 50 139v305h43v-178q0 -68 35 -103q32 -32 92 -32q69 0 101 42q27 34 27 93v178h43v-178
q0 -68 35 -103q33 -32 93 -32q69 0 101 42q27 34 27 93v243h43v-246q0 -172 -171 -172q-110 0 -149 76q-39 -76 -149 -76q-90 0 -129 48q0 -3 -1 -11v-10z" />
    <glyph glyph-name="uniFEB2" unicode="&#x633;" horiz-adv-x="1312" arabic-form="final" 
d="M566 32q-6 -111 -81 -171q-66 -52 -171 -52q-123 0 -190 82q-54 66 -54 166q0 90 47 156l34 -16q-39 -69 -39 -143q0 -92 60 -151q56 -54 142 -54q104 0 160 60q50 53 50 139v305h43v-178q0 -68 35 -103q32 -32 92 -32q69 0 101 42q27 34 27 93v178h43v-178
q0 -68 35 -103q33 -32 93 -32q69 0 101 42q27 34 27 93v178h43v-178q0 -68 35 -103q32 -32 91 -32h32v-40h-39q-101 0 -140 76q-40 -76 -149 -76q-111 0 -150 76q-39 -76 -149 -76q-90 0 -129 48v-16z" />
    <glyph glyph-name="uniFEB3" unicode="&#x633;" horiz-adv-x="878" arabic-form="initial" 
d="M29 0h-39v40h32q68 0 100 42q26 34 26 93v178h43v-178q0 -68 35 -103q32 -32 92 -32q129 0 129 135v178h43v-178q0 -135 128 -135q68 0 101 42q26 34 26 93v243h43v-246q0 -172 -170 -172q-111 0 -149 76q-40 -76 -152 -76q-110 0 -147 76q-40 -76 -141 -76z" />
    <glyph glyph-name="uniFEB4" unicode="&#x633;" horiz-adv-x="936" arabic-form="medial" 
d="M29 0h-39v40h32q68 0 100 42q26 34 26 93v178h43v-178q0 -68 35 -103q32 -32 92 -32q129 0 129 135v178h43v-178q0 -68 35 -103q32 -32 93 -32q127 0 127 135v178h43v-178q0 -68 35 -103q32 -32 91 -32h32v-40h-38q-102 0 -141 76q-39 -76 -151 -76q-110 0 -147 76
q-40 -76 -152 -76q-110 0 -147 76q-40 -76 -141 -76z" />
    <glyph glyph-name="uniFEB5" unicode="&#x634;" horiz-adv-x="1254" arabic-form="isolated" 
d="M873 581q0 -13 -9.5 -22.5t-22.5 -9.5t-22 9.5t-9 22.5t9 22.5t22 9.5t22.5 -9.5t9.5 -22.5zM830 502q0 -14 -9.5 -23.5t-23.5 -9.5q-13 0 -23 10t-10 23t10 23t23 10t23 -10t10 -23zM919 502q0 -14 -9.5 -23.5t-23.5 -9.5t-23.5 9.5t-9.5 23.5q0 13 10 23t23 10t23 -10
t10 -23zM565 27q-6 -109 -81 -167q-66 -51 -170 -51q-123 0 -190 82q-54 66 -54 166q0 90 47 156l34 -16q-39 -69 -39 -143q0 -92 60 -151q56 -54 142 -54q104 0 160 60q50 53 50 139v305h43v-178q0 -68 35 -103q32 -32 92 -32q69 0 101 42q27 34 27 93v178h43v-178
q0 -68 35 -103q33 -32 93 -32q69 0 101 42q27 34 27 93v243h43v-246q0 -172 -171 -172q-110 0 -149 76q-39 -76 -149 -76q-90 0 -129 48q0 -3 -1 -11v-10z" />
    <glyph glyph-name="uniFEB6" unicode="&#x634;" horiz-adv-x="1312" arabic-form="final" 
d="M873 581q0 -13 -9.5 -22.5t-22.5 -9.5t-22 9.5t-9 22.5t9 22.5t22 9.5t22.5 -9.5t9.5 -22.5zM830 502q0 -14 -9.5 -23.5t-23.5 -9.5q-13 0 -23 10t-10 23t10 23t23 10t23 -10t10 -23zM919 502q0 -14 -9.5 -23.5t-23.5 -9.5t-23.5 9.5t-9.5 23.5q0 13 10 23t23 10t23 -10
t10 -23zM566 32q-6 -111 -81 -171q-66 -52 -171 -52q-123 0 -190 82q-54 66 -54 166q0 90 47 156l34 -16q-39 -69 -39 -143q0 -92 60 -151q56 -54 142 -54q104 0 160 60q50 53 50 139v305h43v-178q0 -68 35 -103q32 -32 92 -32q69 0 101 42q27 34 27 93v178h43v-178
q0 -68 35 -103q33 -32 93 -32q69 0 101 42q27 34 27 93v178h43v-178q0 -68 35 -103q32 -32 91 -32h32v-40h-39q-101 0 -140 76q-40 -76 -149 -76q-111 0 -150 76q-39 -76 -149 -76q-90 0 -129 48v-16z" />
    <glyph glyph-name="uniFEB7" unicode="&#x634;" horiz-adv-x="878" arabic-form="initial" 
d="M499 581q0 -13 -9 -22.5t-22 -9.5t-22.5 9.5t-9.5 22.5t9.5 22.5t22.5 9.5t22 -9.5t9 -22.5zM457 502q0 -13 -10 -23t-23 -10q-14 0 -23.5 9.5t-9.5 23.5q0 13 10 23t23 10t23 -10t10 -23zM545 502q0 -14 -9.5 -23.5t-23.5 -9.5q-13 0 -23 10t-10 23t10 23t23 10t23 -10
t10 -23zM29 0h-39v40h32q68 0 100 42q26 34 26 93v178h43v-178q0 -68 35 -103q32 -32 92 -32q129 0 129 135v178h43v-178q0 -135 128 -135q68 0 101 42q26 34 26 93v243h43v-246q0 -172 -170 -172q-111 0 -149 76q-40 -76 -152 -76q-110 0 -147 76q-40 -76 -141 -76z" />
    <glyph glyph-name="uniFEB8" unicode="&#x634;" horiz-adv-x="936" arabic-form="medial" 
d="M500 581q0 -13 -9.5 -22.5t-22.5 -9.5t-22.5 9.5t-9.5 22.5t9.5 22.5t22.5 9.5t22.5 -9.5t9.5 -22.5zM457 502q0 -14 -9.5 -23.5t-23.5 -9.5t-23.5 9.5t-9.5 23.5q0 13 10 23t23 10t23 -10t10 -23zM546 502q0 -13 -10 -23t-23 -10q-14 0 -23.5 9.5t-9.5 23.5q0 13 10 23
t23 10t23 -10t10 -23zM29 0h-39v40h32q68 0 100 42q26 34 26 93v178h43v-178q0 -68 35 -103q32 -32 92 -32q129 0 129 135v178h43v-178q0 -68 35 -103q32 -32 93 -32q127 0 127 135v178h43v-178q0 -68 35 -103q32 -32 91 -32h32v-40h-38q-102 0 -141 76q-39 -76 -151 -76
q-110 0 -147 76q-40 -76 -152 -76q-110 0 -147 76q-40 -76 -141 -76z" />
    <glyph glyph-name="uniFEB9" unicode="&#x635;" horiz-adv-x="1372" arabic-form="isolated" 
d="M565 30q-5 -111 -80 -170q-66 -51 -171 -51q-123 0 -190 82q-54 66 -54 166q0 90 47 156l34 -16q-39 -69 -39 -143q0 -92 60 -151q56 -54 142 -54q104 0 160 60q50 53 50 139v282h43v-155q0 -64 31 -99q28 -32 79 -35q80 214 210 314q94 73 196 73q103 0 159 -65
q50 -58 50 -156q0 -116 -55 -164q-48 -43 -150 -43h-405q-76 0 -116 48q0 -12 -1 -18zM720 40h362q99 0 135 43q32 37 32 124q0 95 -51 142q-42 39 -113 39q-100 0 -199 -90q-102 -93 -166 -258z" />
    <glyph glyph-name="uniFEBA" unicode="&#x635;" horiz-adv-x="1417" arabic-form="final" 
d="M566 32q-5 -111 -81 -171q-65 -52 -171 -52q-123 0 -190 82q-54 66 -54 166q0 90 47 156l34 -16q-39 -69 -39 -143q0 -92 60 -151q56 -54 142 -54q104 0 160 60q50 53 50 139v282h43v-155q0 -64 31 -99q28 -32 79 -35q80 214 210 314q94 73 196 73q103 0 159 -64
q50 -58 50 -155q0 -98 33 -135q28 -34 92 -34h10v-40h-19q-103 0 -141 82q-42 -82 -180 -82h-405q-76 0 -116 48v-16zM720 40h362q99 0 135 43q32 37 32 124q0 95 -51 142q-42 39 -113 39q-100 0 -199 -90q-102 -93 -166 -258z" />
    <glyph glyph-name="uniFEBB" unicode="&#x635;" horiz-adv-x="974" arabic-form="initial" 
d="M8 0h-18v40h10q67 0 99 42q27 34 27 93v155h43v-155q0 -64 31 -99q28 -32 79 -35q80 214 210 314q94 73 196 73q104 0 160 -66q49 -58 49 -156q0 -115 -55 -163q-49 -43 -150 -43h-405q-98 0 -136 76q-40 -76 -140 -76zM322 40h362q99 0 135 43q32 37 32 124
q0 95 -51 142q-42 39 -113 39q-100 0 -199 -90q-102 -93 -166 -258z" />
    <glyph glyph-name="uniFEBC" unicode="&#x635;" horiz-adv-x="1019" arabic-form="medial" 
d="M8 0h-18v40h10q67 0 99 42q27 34 27 93v155h43v-155q0 -64 31 -99q28 -32 79 -35q80 214 210 314q94 73 196 73q105 0 160 -65q49 -59 49 -163q0 -88 31 -125q30 -35 94 -35h10v-40h-19q-104 0 -140 82q-44 -82 -181 -82h-405q-98 0 -136 76q-40 -76 -140 -76zM322 40
h362q99 0 135 43q32 37 32 124q0 95 -51 142q-42 39 -113 39q-100 0 -199 -90q-102 -93 -166 -258z" />
    <glyph glyph-name="uniFEBD" unicode="&#x636;" horiz-adv-x="1372" arabic-form="isolated" 
d="M1089 550q0 -14 -9.5 -23.5t-23.5 -9.5t-23.5 9.5t-9.5 23.5t9.5 23.5t23.5 9.5t23.5 -9.5t9.5 -23.5zM565 30q-5 -111 -80 -170q-66 -51 -171 -51q-123 0 -190 82q-54 66 -54 166q0 90 47 156l34 -16q-39 -69 -39 -143q0 -92 60 -151q56 -54 142 -54q104 0 160 60
q50 53 50 139v282h43v-155q0 -64 31 -99q28 -32 79 -35q80 214 210 314q94 73 196 73q103 0 159 -65q50 -58 50 -156q0 -116 -55 -164q-48 -43 -150 -43h-405q-76 0 -116 48q0 -12 -1 -18zM720 40h362q99 0 135 43q32 37 32 124q0 95 -51 142q-42 39 -113 39
q-100 0 -199 -90q-102 -93 -166 -258z" />
    <glyph glyph-name="uniFEBE" unicode="&#x636;" horiz-adv-x="1417" arabic-form="final" 
d="M1089 550q0 -14 -9.5 -23.5t-23.5 -9.5t-23.5 9.5t-9.5 23.5t9.5 23.5t23.5 9.5t23.5 -9.5t9.5 -23.5zM566 32q-5 -111 -81 -171q-65 -52 -171 -52q-123 0 -190 82q-54 66 -54 166q0 90 47 156l34 -16q-39 -69 -39 -143q0 -92 60 -151q56 -54 142 -54q104 0 160 60
q50 53 50 139v282h43v-155q0 -64 31 -99q28 -32 79 -35q80 214 210 314q94 73 196 73q103 0 159 -64q50 -58 50 -155q0 -98 33 -135q28 -34 92 -34h10v-40h-19q-103 0 -141 82q-42 -82 -180 -82h-405q-76 0 -116 48v-16zM720 40h362q99 0 135 43q32 37 32 124q0 95 -51 142
q-42 39 -113 39q-100 0 -199 -90q-102 -93 -166 -258z" />
    <glyph glyph-name="uniFEBF" unicode="&#x636;" horiz-adv-x="974" arabic-form="initial" 
d="M716 550q0 -14 -9.5 -23.5t-23.5 -9.5q-13 0 -23 10t-10 23t10 23t23 10q14 0 23.5 -9.5t9.5 -23.5zM8 0h-18v40h10q67 0 99 42q27 34 27 93v155h43v-155q0 -64 31 -99q28 -32 79 -35q80 214 210 314q94 73 196 73q104 0 160 -66q49 -58 49 -156q0 -115 -55 -163
q-49 -43 -150 -43h-405q-98 0 -136 76q-40 -76 -140 -76zM322 40h362q99 0 135 43q32 37 32 124q0 95 -51 142q-42 39 -113 39q-100 0 -199 -90q-102 -93 -166 -258z" />
    <glyph glyph-name="uniFEC0" unicode="&#x636;" horiz-adv-x="1019" arabic-form="medial" 
d="M716 550q0 -14 -9.5 -23.5t-23.5 -9.5q-13 0 -23 10t-10 23t10 23t23 10q14 0 23.5 -9.5t9.5 -23.5zM8 0h-18v40h10q67 0 99 42q27 34 27 93v155h43v-155q0 -64 31 -99q28 -32 79 -35q80 214 210 314q94 73 196 73q105 0 160 -65q49 -59 49 -163q0 -88 31 -125
q30 -35 94 -35h10v-40h-19q-104 0 -140 82q-44 -82 -181 -82h-405q-98 0 -136 76q-40 -76 -140 -76zM322 40h362q99 0 135 43q32 37 32 124q0 95 -51 142q-42 39 -113 39q-100 0 -199 -90q-102 -93 -166 -258z" />
    <glyph glyph-name="uniFEC1" unicode="&#x637;" horiz-adv-x="844" arabic-form="isolated" 
d="M558 0h-538v40h127v626h43v-533q79 163 193 239q84 56 172 56q104 0 160 -66q49 -58 49 -157q0 -115 -55 -163q-49 -42 -151 -42zM191 40h362q100 0 136 43q32 37 32 124q0 94 -51 142q-43 39 -114 39q-100 0 -199 -90q-102 -93 -166 -258z" />
    <glyph glyph-name="uniFEC2" unicode="&#x637;" horiz-adv-x="889" arabic-form="final" 
d="M556 0h-536v40h125v626h43v-533q79 162 192 239q84 56 172 56q103 0 159 -64q50 -57 50 -157q0 -96 33 -134q28 -33 92 -33h13v-40h-22q-100 0 -141 81q-42 -81 -180 -81zM189 40h362q99 0 135 43q32 37 32 124q0 95 -51 142q-42 39 -113 39q-100 0 -199 -90
q-102 -93 -166 -258z" />
    <glyph glyph-name="uniFEC3" unicode="&#x637;" horiz-adv-x="853" arabic-form="initial" 
d="M568 0h-578v40h167v626h43v-533q79 162 192 239q84 56 172 56q105 0 160 -66q49 -58 49 -157q0 -115 -55 -163q-49 -42 -150 -42zM201 40h362q99 0 135 43q32 37 32 124q0 95 -51 142q-42 39 -113 39q-100 0 -199 -90q-102 -93 -166 -258z" />
    <glyph glyph-name="uniFEC4" unicode="&#x637;" horiz-adv-x="901" arabic-form="medial" 
d="M568 0h-578v40h167v626h43v-533q79 162 192 239q84 56 172 56q105 0 160 -66q49 -59 49 -159q0 -90 31 -128q29 -35 94 -35h13v-40h-22q-100 0 -141 81q-42 -81 -180 -81zM201 40h362q99 0 135 43q32 37 32 124q0 95 -51 142q-42 39 -113 39q-100 0 -199 -90
q-102 -93 -166 -258z" />
    <glyph glyph-name="uniFEC5" unicode="&#x638;" horiz-adv-x="844" arabic-form="isolated" 
d="M558 0h-538v40h127v626h43v-533q79 163 193 239q84 56 172 56q104 0 160 -66q49 -58 49 -157q0 -115 -55 -163q-49 -42 -151 -42zM569 578q0 -14 -9.5 -23.5t-23.5 -9.5q-13 0 -23 10t-10 23t10 23t23 10q14 0 23.5 -9.5t9.5 -23.5zM191 40h362q100 0 136 43
q32 37 32 124q0 94 -51 142q-43 39 -114 39q-100 0 -199 -90q-102 -93 -166 -258z" />
    <glyph glyph-name="uniFEC6" unicode="&#x638;" horiz-adv-x="889" arabic-form="final" 
d="M556 0h-536v40h125v626h43v-533q79 162 192 239q84 56 172 56q103 0 159 -64q50 -57 50 -157q0 -96 33 -134q28 -33 92 -33h13v-40h-22q-100 0 -141 81q-42 -81 -180 -81zM569 578q0 -14 -9.5 -23.5t-23.5 -9.5q-13 0 -23 10t-10 23t10 23t23 10q14 0 23.5 -9.5
t9.5 -23.5zM189 40h362q99 0 135 43q32 37 32 124q0 95 -51 142q-42 39 -113 39q-100 0 -199 -90q-102 -93 -166 -258z" />
    <glyph glyph-name="uniFEC7" unicode="&#x638;" horiz-adv-x="853" arabic-form="initial" 
d="M568 0h-578v40h167v626h43v-533q79 162 192 239q84 56 172 56q105 0 160 -66q49 -58 49 -157q0 -115 -55 -163q-49 -42 -150 -42zM567 578q0 -13 -10 -23t-23 -10q-14 0 -23.5 9.5t-9.5 23.5t9.5 23.5t23.5 9.5q13 0 23 -10t10 -23zM201 40h362q99 0 135 43q32 37 32 124
q0 95 -51 142q-42 39 -113 39q-100 0 -199 -90q-102 -93 -166 -258z" />
    <glyph glyph-name="uniFEC8" unicode="&#x638;" horiz-adv-x="901" arabic-form="medial" 
d="M568 0h-578v40h167v626h43v-533q79 162 192 239q84 56 172 56q105 0 160 -66q49 -59 49 -159q0 -90 31 -128q29 -35 94 -35h13v-40h-22q-100 0 -141 81q-42 -81 -180 -81zM567 578q0 -13 -10 -23t-23 -10q-14 0 -23.5 9.5t-9.5 23.5t9.5 23.5t23.5 9.5q13 0 23 -10
t10 -23zM201 40h362q99 0 135 43q32 37 32 124q0 95 -51 142q-42 39 -113 39q-100 0 -199 -90q-102 -93 -166 -258z" />
    <glyph glyph-name="uniFEC9" unicode="&#x639;" horiz-adv-x="550" arabic-form="isolated" 
d="M489 -314q-82 -52 -184 -52q-109 0 -176 72q-59 63 -59 156q0 69 36 121q33 48 92 72q-54 26 -80 80q-21 42 -21 96q0 85 56 139q52 49 133 49h155v-41h-146q-79 0 -121 -49q-33 -39 -33 -96q0 -70 46 -114t121 -44h178v-40h-187q-95 0 -145 -59q-39 -46 -39 -112
q0 -89 63 -143q54 -46 132 -46q87 0 160 44z" />
    <glyph glyph-name="uniFECA" unicode="&#x639;" horiz-adv-x="657" arabic-form="final" 
d="M492 -314q-82 -52 -184 -52q-107 0 -170 67q-54 56 -54 138q0 84 59 142q30 28 103 70q23 13 34 20q-25 23 -73 75q-45 50 -68 70q-37 32 -69 38v34q92 147 242 147q75 0 139 -40q60 -37 105 -107v-34q-39 -7 -85 -50q-16 -16 -67 -74q-34 -38 -57 -59q48 -31 91 -31h229
v-40h-235q-60 0 -119 44q-11 -8 -65 -40q-63 -38 -88 -70q-31 -40 -31 -93q0 -78 58 -125q50 -41 126 -41q87 0 160 44zM115 281q27 -11 52 -33t79 -83q41 -46 67 -68q21 19 77 82q74 83 121 102q-37 55 -92 84q-51 27 -111 27t-106 -26.5t-87 -84.5z" />
    <glyph glyph-name="uniFECB" unicode="&#x639;" horiz-adv-x="563" arabic-form="initial" 
d="M513 0h-523v40h186q-43 31 -63 86q-16 42 -16 91q0 95 56 151q51 51 133 51h154v-41h-146q-79 0 -120 -51q-33 -42 -33 -107q0 -83 46 -132q45 -48 121 -48h205v-40z" />
    <glyph glyph-name="uniFECC" unicode="&#x639;" horiz-adv-x="689" arabic-form="medial" 
d="M225 0h-235v40h228q46 0 92 33q-18 18 -71 75q-49 54 -79 77t-58 29v34q92 147 242 147q149 0 243 -147v-34q-31 -6 -59 -28.5t-92 -93.5q-34 -39 -57 -60q47 -32 91 -32h229v-40h-236q-61 0 -118 44q-57 -44 -120 -44zM146 281q27 -11 52.5 -33t79.5 -82q41 -46 66 -68
q25 22 80 82q75 83 119 101q-38 56 -93 84q-51 27 -110 27t-105.5 -26.5t-88.5 -84.5z" />
    <glyph glyph-name="uniFECD" unicode="&#x63a;" horiz-adv-x="550" arabic-form="isolated" 
d="M337 537q0 -14 -9.5 -23.5t-23.5 -9.5t-23.5 9.5t-9.5 23.5q0 13 10 23t23 10t23 -10t10 -23zM489 -314q-82 -52 -184 -52q-109 0 -176 72q-59 63 -59 156q0 69 36 121q33 48 92 72q-54 26 -80 80q-21 42 -21 96q0 85 56 139q52 49 133 49h155v-41h-146q-79 0 -121 -49
q-33 -39 -33 -96q0 -70 46 -114t121 -44h178v-40h-187q-95 0 -145 -59q-39 -46 -39 -112q0 -89 63 -143q54 -46 132 -46q87 0 160 44z" />
    <glyph glyph-name="uniFECE" unicode="&#x63a;" horiz-adv-x="657" arabic-form="final" 
d="M342 537q0 -13 -10 -23t-23 -10t-23 10t-10 23q0 14 9.5 23.5t23.5 9.5q13 0 23 -10t10 -23zM492 -314q-82 -52 -184 -52q-107 0 -170 67q-54 56 -54 138q0 84 59 142q30 28 103 70q23 13 34 20q-25 23 -73 75q-45 50 -68 70q-37 32 -69 38v34q92 147 242 147
q75 0 139 -40q60 -37 105 -107v-34q-39 -7 -85 -50q-16 -16 -67 -74q-34 -38 -57 -59q48 -31 91 -31h229v-40h-235q-60 0 -119 44q-11 -8 -65 -40q-63 -38 -88 -70q-31 -40 -31 -93q0 -78 58 -125q50 -41 126 -41q87 0 160 44zM115 281q27 -11 52 -33t79 -83q41 -46 67 -68
q21 19 77 82q74 83 121 102q-37 55 -92 84q-51 27 -111 27t-106 -26.5t-87 -84.5z" />
    <glyph glyph-name="uniFECF" unicode="&#x63a;" horiz-adv-x="563" arabic-form="initial" 
d="M336 537q0 -13 -10 -23t-23 -10q-14 0 -23.5 9.5t-9.5 23.5q0 13 10 23t23 10t23 -10t10 -23zM513 0h-523v40h186q-43 31 -63 86q-16 42 -16 91q0 95 56 151q51 51 133 51h154v-41h-146q-79 0 -120 -51q-33 -42 -33 -107q0 -83 46 -132q45 -48 121 -48h205v-40z" />
    <glyph glyph-name="uniFED0" unicode="&#x63a;" horiz-adv-x="689" arabic-form="medial" 
d="M375 537q0 -13 -10 -23t-23 -10t-23 10t-10 23t10 23t23 10q14 0 23.5 -9.5t9.5 -23.5zM225 0h-235v40h228q46 0 92 33q-18 18 -71 75q-49 54 -79 77t-58 29v34q92 147 242 147q149 0 243 -147v-34q-31 -6 -59 -28.5t-92 -93.5q-34 -39 -57 -60q47 -32 91 -32h229v-40
h-236q-61 0 -118 44q-57 -44 -120 -44zM146 281q27 -11 52.5 -33t79.5 -82q41 -46 66 -68q25 22 80 82q75 83 119 101q-38 56 -93 84q-51 27 -110 27t-105.5 -26.5t-88.5 -84.5z" />
    <glyph glyph-name="uniFED1" unicode="&#x641;" horiz-adv-x="909" arabic-form="isolated" 
d="M695 537q0 -13 -10 -23t-23 -10q-14 0 -23.5 9.5t-9.5 23.5q0 13 10 23t23 10t23 -10t10 -23zM669 0h-379q-106 0 -165 71q-45 56 -45 133q0 61 32 111q30 47 82 72l20 -31q-44 -22 -68 -63t-24 -91q0 -70 48 -117q45 -45 117 -45h265q-61 61 -61 174q0 106 53 163
q47 51 125 51q79 0 122 -50q38 -44 38 -116v-97q0 -80 -47 -125q-43 -40 -113 -40zM534 213q0 -82 40 -130q36 -43 89 -43q123 0 123 131v82q0 69 -34 103q-30 31 -83 31q-70 0 -106 -55q-29 -45 -29 -119z" />
    <glyph glyph-name="uniFED2" unicode="&#x641;" horiz-adv-x="942" arabic-form="final" 
d="M704 537q0 -13 -10 -23t-23 -10q-14 0 -23.5 9.5t-9.5 23.5q0 13 10 23t23 10t23 -10t10 -23zM616 0h-326q-106 0 -165 71q-45 56 -45 133q0 61 32 111q30 47 82 72l20 -31q-44 -22 -68 -63t-24 -91q0 -70 48 -117q45 -45 117 -45h317q-56 34 -86 92q-25 48 -25 101
q0 93 52 147q47 49 125 49q89 0 137 -63q39 -52 39 -133q0 -61 -32 -114q-30 -50 -79 -79h217v-40h-229q-24 0 -53 6q-30 -6 -54 -6zM670 45q134 55 134 187q0 72 -38 116q-36 41 -96 41q-69 0 -105 -52q-29 -42 -29 -104t41 -116q36 -48 93 -72z" />
    <glyph glyph-name="uniFED3" unicode="&#x641;" horiz-adv-x="526" arabic-form="initial" 
d="M321 537q0 -14 -9.5 -23.5t-23.5 -9.5t-23.5 9.5t-9.5 23.5q0 13 10 23t23 10t23 -10t10 -23zM285 0h-295v40h178q-60 60 -60 174q0 106 53 163q47 51 125 51q79 0 122 -50q38 -44 38 -116v-97q-1 -79 -48 -124q-43 -40 -113 -41zM151 213q0 -82 40 -130q35 -43 88 -43
q124 0 124 131v82q0 69 -34 103q-30 31 -83 31q-70 0 -106 -55q-29 -45 -29 -119z" />
    <glyph glyph-name="uniFED4" unicode="&#x641;" horiz-adv-x="544" arabic-form="medial" 
d="M305 537q0 -14 -9.5 -23.5t-23.5 -9.5t-23.5 9.5t-9.5 23.5q0 13 10 23t23 10t23 -10t10 -23zM219 0h-229v40h216q-56 34 -86 92q-25 48 -25 101q0 93 52 147q47 49 125 49q89 0 137 -63q40 -52 40 -133q0 -60 -33 -114q-29 -50 -78 -79h216v-40h-229q-25 0 -53 6
q-28 -6 -53 -6zM272 45q134 55 134 187q0 72 -38 116q-36 41 -96 41q-68 0 -105 -52q-29 -42 -29 -104t41 -116q36 -48 93 -72z" />
    <glyph glyph-name="uniFED5" unicode="&#x642;" horiz-adv-x="695" arabic-form="isolated" 
d="M442 538q0 -13 -10 -23t-23 -10t-23 10t-10 23t10 23t23 10q14 0 23.5 -9.5t9.5 -23.5zM531 538q0 -13 -10 -23t-23 -10t-23 10t-10 23q0 14 9.5 23.5t23.5 9.5t23.5 -9.5t9.5 -23.5zM572 49q-47 -43 -123 -43q-84 0 -131 64q-41 57 -41 148q0 103 53 160q47 50 125 50
q80 0 123 -50q37 -44 37 -116v-222q0 -120 -81 -184q-71 -56 -191 -56q-141 0 -214 84q-59 68 -59 173q0 90 47 156l34 -16q-39 -69 -39 -143q0 -99 66 -158q62 -56 165 -56q112 0 171 57q51 49 56 133q0 3 1 10q1 6 1 9zM572 98v155q0 134 -117 134q-69 0 -105 -54
q-30 -45 -30 -116q0 -84 42 -131q36 -40 93 -40q77 0 117 52z" />
    <glyph glyph-name="uniFED6" unicode="&#x642;" horiz-adv-x="721" arabic-form="final" 
d="M442 538q0 -14 -9.5 -23.5t-23.5 -9.5q-13 0 -23 10t-10 23t10 23t23 10q14 0 23.5 -9.5t9.5 -23.5zM531 538q0 -14 -9.5 -23.5t-23.5 -9.5t-23.5 9.5t-9.5 23.5t9.5 23.5t23.5 9.5t23.5 -9.5t9.5 -23.5zM613 0q-12 -100 -91 -153q-70 -47 -179 -47q-141 0 -214 84
q-59 68 -59 173q0 90 47 156l34 -16q-39 -69 -39 -143q0 -99 66 -158q62 -56 165 -56t164 50q51 42 62 110h-91q-106 0 -158 68q-43 56 -43 150q0 103 53 160q47 50 125 50q80 0 123 -50q37 -44 37 -116v-222h116v-40h-118zM572 40v213q0 134 -117 134q-69 0 -105 -54
q-30 -45 -30 -116q0 -87 46 -134q42 -43 114 -43h92z" />
    <glyph glyph-name="uniFED7" unicode="&#x642;" horiz-adv-x="526" arabic-form="initial" 
d="M276 538q0 -14 -9.5 -23.5t-23.5 -9.5q-13 0 -23 10t-10 23t10 23t23 10q14 0 23.5 -9.5t9.5 -23.5zM365 538q0 -14 -9.5 -23.5t-23.5 -9.5t-23.5 9.5t-9.5 23.5t9.5 23.5t23.5 9.5t23.5 -9.5t9.5 -23.5zM285 0h-295v40h178q-60 60 -60 174q0 106 53 163q47 51 125 51
q79 0 122 -50q38 -44 38 -116v-97q-1 -79 -48 -124q-43 -40 -113 -41zM151 213q0 -82 40 -130q35 -43 88 -43q124 0 124 131v82q0 69 -34 103q-30 31 -83 31q-70 0 -106 -55q-29 -45 -29 -119z" />
    <glyph glyph-name="uniFED8" unicode="&#x642;" horiz-adv-x="544" arabic-form="medial" 
d="M260 538q0 -14 -9.5 -23.5t-23.5 -9.5q-13 0 -23 10t-10 23t10 23t23 10q14 0 23.5 -9.5t9.5 -23.5zM349 538q0 -14 -9.5 -23.5t-23.5 -9.5t-23.5 9.5t-9.5 23.5t9.5 23.5t23.5 9.5t23.5 -9.5t9.5 -23.5zM219 0h-229v40h216q-56 34 -86 92q-25 48 -25 101q0 93 52 147
q47 49 125 49q89 0 137 -63q40 -52 40 -133q0 -60 -33 -114q-29 -50 -78 -79h216v-40h-229q-25 0 -53 6q-28 -6 -53 -6zM272 45q134 55 134 187q0 72 -38 116q-36 41 -96 41q-68 0 -105 -52q-29 -42 -29 -104t41 -116q36 -48 93 -72z" />
    <glyph glyph-name="uniFED9" unicode="&#x643;" horiz-adv-x="856" arabic-form="isolated" 
d="M599 0h-309q-106 0 -165 71q-45 56 -45 133q0 61 32 111q30 47 82 72l20 -31q-44 -22 -68 -63t-24 -91q0 -70 48 -117q45 -45 117 -45h302q134 0 134 135v491h43v-494q0 -90 -51 -135q-43 -37 -116 -37zM465 362h-95v25h89q43 0 43 36q0 46 -56 46q-23 0 -49 -8v26l80 89
l16 -12l-60 -69q7 1 15 1q36 0 58 -19.5t22 -52.5q0 -28 -17 -45t-46 -17z" />
    <glyph glyph-name="uniFEDA" unicode="&#x643;" horiz-adv-x="895" arabic-form="final" 
d="M595 0h-305q-106 0 -165 71q-45 56 -45 133q0 61 32 111q30 47 82 72l20 -31q-44 -22 -68 -63t-24 -91q0 -70 48 -117q45 -45 117 -45h302q134 0 134 135v491h43v-491q0 -68 35 -103q32 -32 91 -32h13v-40h-21q-100 0 -139 76q-41 -76 -150 -76zM465 362h-95v25h89
q43 0 43 36q0 46 -56 46q-23 0 -49 -8v26l80 89l16 -12l-60 -69q7 1 15 1q36 0 58 -19.5t22 -52.5q0 -28 -17 -45t-46 -17z" />
    <glyph glyph-name="uniFEDB" unicode="&#x643;" horiz-adv-x="544" arabic-form="initial" 
d="M326 0h-336v40h329q75 0 106 43q26 35 26 106v11q0 72 -34 104q-31 29 -93 29h-269v42l218 226l25 -24l-194 -203h223q86 0 129 -51q38 -45 38 -125v-17q0 -95 -50 -142q-43 -39 -118 -39z" />
    <glyph glyph-name="uniFEDC" unicode="&#x643;" horiz-adv-x="617" arabic-form="medial" 
d="M326 0h-336v40h329q132 0 132 142v25q0 126 -127 126h-269v42l218 226l25 -24l-194 -203h223q84 0 129 -49q38 -41 38 -111v-39q0 -70 36 -105q31 -30 84 -30h13v-40h-22q-45 0 -80 20.5t-53 56.5q-39 -77 -146 -77z" />
    <glyph glyph-name="uniFEDD" unicode="&#x644;" horiz-adv-x="657" arabic-form="isolated" 
d="M567 666v-619q0 -118 -78 -182q-67 -55 -171 -55q-123 0 -192 81q-56 67 -56 166q0 90 47 156l34 -16q-39 -69 -39 -143q0 -91 62 -150q57 -54 144 -54q100 0 156 61q50 54 50 143v612h43z" />
    <glyph glyph-name="uniFEDE" unicode="&#x644;" horiz-adv-x="696" arabic-form="final" 
d="M565 31q-5 -110 -81 -170q-65 -51 -166 -51q-123 0 -192 81q-56 67 -56 166q0 90 47 156l34 -16q-39 -69 -39 -143q0 -91 62 -150q57 -54 144 -54q100 0 156 61q50 54 50 143v612h43v-491q0 -68 35 -103q32 -32 91 -32h13v-40h-22q-77 0 -118 48q0 -11 -1 -17z" />
    <glyph glyph-name="uniFEDF" unicode="&#x644;" horiz-adv-x="262" arabic-form="initial" 
d="M12 0h-22v40h13q68 0 100 42q26 34 26 93v491h43v-494q0 -90 -50 -135q-42 -37 -110 -37z" />
    <glyph glyph-name="uniFEE0" unicode="&#x644;" horiz-adv-x="301" arabic-form="medial" 
d="M12 0h-22v40h13q68 0 100 42q26 34 26 93v491h43v-491q0 -68 35 -103q32 -32 91 -32h13v-40h-22q-99 0 -138 76q-40 -76 -139 -76z" />
    <glyph glyph-name="uniFEE1" unicode="&#x645;" horiz-adv-x="543" arabic-form="isolated" 
d="M63 -315h-43v189q0 78 42 122q39 40 104 43q10 1 29 1q-70 52 -70 174q0 106 53 163q47 51 125 51q79 0 122 -50q38 -44 38 -116v-91q0 -79 -43 -125q-41 -43 -111 -46h-120q-126 0 -126 -134v-181zM168 213q0 -86 39 -132q34 -41 89 -41q124 0 124 131v82
q0 134 -117 134q-71 0 -106 -54q-29 -45 -29 -120z" />
    <glyph glyph-name="uniFEE2" unicode="&#x645;" horiz-adv-x="600" arabic-form="final" 
d="M63 -315h-43v189q0 78 42 122q39 40 104 43q9 1 30 1q-71 52 -71 174q0 106 53 163q47 51 125 51q79 0 122 -50q38 -44 38 -116v-87q0 -70 37 -105q32 -30 89 -30h21v-40h-29q-100 0 -138 81q-38 -77 -134 -81h-120q-126 0 -126 -134v-181zM168 213q0 -86 39 -132
q34 -41 89 -41q124 0 124 131v82q0 134 -117 134q-71 0 -106 -54q-29 -45 -29 -120z" />
    <glyph glyph-name="uniFEE3" unicode="&#x645;" horiz-adv-x="551" arabic-form="initial" 
d="M-10 40h21q65 0 98 40q28 34 28 95v87q0 83 49 127q42 39 112 39q89 0 137 -66q41 -56 41 -148q0 -112 -55 -171q-47 -50 -121 -50q-104 0 -143 86q-40 -79 -138 -79h-29v40zM180 171q0 -137 124 -137q64 0 98 54q31 48 31 125q0 85 -38 131q-36 43 -97 43
q-118 0 -118 -134v-82z" />
    <glyph glyph-name="uniFEE4" unicode="&#x645;" horiz-adv-x="643" arabic-form="medial" 
d="M477 84q-43 -101 -156 -101q-112 0 -155 101q-19 -40 -55 -62t-85 -22h-36v40h27q127 0 127 140q0 29 5 59q7 95 58 145q44 43 114 43q81 0 127 -56q40 -49 46 -132q5 -24 5 -59q0 -140 126 -140h28v-40h-36q-100 0 -140 84zM187 204q0 -91 40 -139q35 -41 95 -41
q63 0 101 54q33 48 33 126q0 91 -38 139q-34 44 -97 44q-70 0 -105 -57q-29 -47 -29 -126z" />
    <glyph glyph-name="uniFEE5" unicode="&#x646;" horiz-adv-x="657" arabic-form="isolated" 
d="M345 417q0 -13 -10 -23t-23 -10t-23 10t-10 23t10 23t23 10q14 0 23.5 -9.5t9.5 -23.5zM567 418v-371q0 -119 -77 -183q-67 -55 -176 -55q-123 0 -190 82q-54 66 -54 166q0 90 47 156l34 -16q-39 -69 -39 -143q0 -92 60 -151q56 -54 142 -54q104 0 160 60q50 53 50 139
v370h43z" />
    <glyph glyph-name="uniFEE6" unicode="&#x646;" horiz-adv-x="696" arabic-form="final" 
d="M345 417q0 -13 -10 -23t-23 -10t-23 10t-10 23t10 23t23 10q14 0 23.5 -9.5t9.5 -23.5zM566 33q-5 -112 -81 -172q-65 -52 -171 -52q-123 0 -190 82q-54 66 -54 166q0 90 47 156l34 -16q-39 -66 -39 -143q0 -92 60 -151q56 -54 142 -54q104 0 160 60q50 53 50 139v370h43
v-243q0 -68 35 -103q32 -32 91 -32h13v-40h-22q-77 0 -118 48v-15z" />
    <glyph glyph-name="uniFEE7" unicode="&#x646;" horiz-adv-x="261" arabic-form="initial" 
d="M181 537q0 -14 -9.5 -23.5t-23.5 -9.5t-23.5 9.5t-9.5 23.5q0 13 10 23t23 10t23 -10t10 -23zM12 0h-22v40h13q68 0 100 42q26 34 26 93v243h43v-246q0 -90 -50 -135q-42 -37 -110 -37z" />
    <glyph glyph-name="uniFEE8" unicode="&#x646;" horiz-adv-x="301" arabic-form="medial" 
d="M184 537q0 -14 -9.5 -23.5t-23.5 -9.5t-23.5 9.5t-9.5 23.5q0 13 10 23t23 10t23 -10t10 -23zM12 0h-22v40h13q68 0 100 42q26 34 26 93v243h43v-243q0 -68 35 -103q32 -32 91 -32h13v-40h-20q-101 0 -140 76q-40 -76 -139 -76z" />
    <glyph glyph-name="uniFEE9" unicode="&#x647;" horiz-adv-x="492" arabic-form="isolated" 
d="M260 -7h-28q-80 0 -125 67q-39 58 -39 152q0 107 53 165q47 51 125 51q89 0 137 -66q41 -57 41 -150q0 -108 -51 -167q-44 -52 -113 -52zM111 211q0 -87 36 -134q33 -43 89 -43h20q64 0 97 55q28 46 28 122q0 87 -38 133q-35 43 -97 43q-71 0 -106 -55q-29 -45 -29 -121z
" />
    <glyph glyph-name="uniFEEA" unicode="&#x647;" horiz-adv-x="538" arabic-form="final" 
d="M548 0h-20q-59 0 -99 29q-34 25 -50 67q-56 -68 -142 -68q-78 0 -124 59q-43 55 -43 143q0 102 65 158q57 49 147 49h83v52h43v-314q0 -70 37 -105q33 -30 90 -30h13v-40zM365 396h-84q-86 0 -130 -49q-38 -43 -38 -116q0 -82 40 -126q33 -36 84 -36q76 0 131 67
q-3 18 -3 37v223z" />
    <glyph glyph-name="uniFEEB" unicode="&#x647;" horiz-adv-x="590" arabic-form="initial" 
d="M146 0h-156v40h130q12 0 34 2q-39 25 -62 67t-23 89q0 64 40 106q38 41 101 41q69 0 108 -51q31 -40 31 -97q0 -48 -23 -89.5t-62 -65.5q19 -2 94 -2q66 0 96 36q23 27 23 72q0 56 -29 112q-34 64 -98 106q-75 49 -183 61l8 37q170 -17 268 -127q77 -86 77 -189
q0 -70 -40 -109t-112 -39h-94q-35 0 -65 10q-30 -10 -63 -10zM210 52q49 20 75 66q21 38 21 81q0 50 -28 80q-25 27 -68 27q-50 0 -77 -34q-21 -28 -21 -71q0 -50 28 -92q27 -39 70 -57z" />
    <glyph glyph-name="uniFEEC" unicode="&#x647;" horiz-adv-x="648" arabic-form="medial" 
d="M146 0h-156v40h131q11 0 33 2q-39 25 -62 67t-23 89q0 64 40 106q38 41 101 41q69 0 108 -51q31 -40 31 -97q0 -48 -23 -89.5t-62 -65.5q23 -2 94 -2q66 0 96 36q23 27 23 72q0 56 -29 112q-34 64 -98 106q-75 49 -183 61l8 37q170 -17 268 -124q77 -84 77 -184
q0 -57 36 -88q33 -28 89 -28h13v-40h-21q-96 0 -135 70q-36 -70 -134 -70h-94q-35 0 -65 10q-30 -10 -63 -10zM210 52q49 20 75 66q21 38 21 81q0 50 -28 80q-25 27 -68 27q-50 0 -77 -34q-21 -28 -21 -71q0 -50 28 -92q27 -39 70 -57z" />
    <glyph glyph-name="uniFEED" unicode="&#x648;" horiz-adv-x="488" arabic-form="isolated" 
d="M365 49q-46 -43 -123 -43q-84 0 -131 64q-41 57 -41 148q0 103 53 160q47 50 125 50q80 0 123 -50q37 -44 37 -116v-252q0 -103 -56 -156q-45 -43 -119 -43q-61 0 -126 31l12 38q61 -29 111 -29q66 0 102 45q33 40 33 112v41zM365 98v155q0 134 -117 134q-69 0 -105 -54
q-30 -45 -30 -116q0 -87 42 -133q35 -38 93 -38q77 0 117 52z" />
    <glyph glyph-name="uniFEEE" unicode="&#x648;" horiz-adv-x="514" arabic-form="final" 
d="M408 0q-2 -98 -57 -148q-46 -41 -118 -41q-61 0 -126 31l12 38q61 -29 111 -29q64 0 100 42q34 39 35 107h-94q-106 0 -158 68q-43 56 -43 150q0 103 53 160q47 50 125 50q80 0 123 -50q37 -44 37 -116v-222h116v-40h-116zM365 40v213q0 134 -117 134q-69 0 -105 -54
q-30 -45 -30 -116q0 -94 47 -139q41 -38 113 -38h92z" />
    <glyph glyph-name="uniFEEF" unicode="&#x649;" horiz-adv-x="691" arabic-form="isolated" 
d="M574 379h-100q-55 0 -86 -25q-32 -27 -32 -78q0 -63 48 -98q24 -18 103 -47q70 -26 95 -55q29 -31 29 -80q0 -82 -81 -137q-79 -53 -203 -53q-144 0 -218 83q-59 67 -59 168q0 90 47 156l34 -16q-39 -69 -39 -143q0 -94 67 -152q64 -55 168 -55q121 0 190 53q53 41 53 95
q0 45 -49 73q-18 10 -76 32q-72 28 -103 56q-49 44 -49 118q0 72 52 113q43 33 104 32h105v-40z" />
    <glyph glyph-name="uniFEF0" unicode="&#x649;" horiz-adv-x="632" arabic-form="final" 
d="M631 0q0 -88 -83 -143q-77 -51 -201 -51q-144 0 -218 83q-59 67 -59 168q0 90 47 156l34 -16q-39 -69 -39 -143q0 -94 67 -152q64 -55 168 -55q118 0 186 51q56 42 57 102h-99v40h151v-40h-11z" />
    <glyph glyph-name="uniFEF1" unicode="&#x64a;" horiz-adv-x="691" arabic-form="isolated" 
d="M574 379h-100q-55 0 -86 -25q-32 -27 -32 -78q0 -63 48 -98q24 -18 103 -47q70 -26 95 -55q29 -31 29 -80q0 -82 -81 -137q-79 -53 -203 -53q-144 0 -218 83q-59 67 -59 168q0 90 47 156l34 -16q-39 -69 -39 -143q0 -94 67 -152q64 -55 168 -55q121 0 190 53q53 41 53 95
q0 45 -49 73q-18 10 -76 32q-72 28 -103 56q-49 44 -49 118q0 72 52 113q43 33 104 32h105v-40zM331 -311q0 -14 -9.5 -23.5t-23.5 -9.5t-23.5 9.5t-9.5 23.5q0 13 10 23t23 10t23 -10t10 -23zM420 -311q0 -13 -10 -23t-23 -10q-14 0 -23.5 9.5t-9.5 23.5q0 13 10 23t23 10
t23 -10t10 -23z" />
    <glyph glyph-name="uniFEF2" unicode="&#x64a;" horiz-adv-x="632" arabic-form="final" 
d="M631 0q0 -88 -83 -143q-77 -51 -201 -51q-144 0 -218 83q-59 67 -59 168q0 90 47 156l34 -16q-39 -69 -39 -143q0 -94 67 -152q64 -55 168 -55q118 0 186 51q56 42 57 102h-99v40h151v-40h-11zM331 -310q0 -14 -9.5 -23.5t-23.5 -9.5t-23.5 9.5t-9.5 23.5q0 13 10 23
t23 10t23 -10t10 -23zM420 -310q0 -13 -10 -23t-23 -10q-14 0 -23.5 9.5t-9.5 23.5q0 13 10 23t23 10t23 -10t10 -23z" />
    <glyph glyph-name="uniFEF3" unicode="&#x64a;" horiz-adv-x="261" arabic-form="initial" 
d="M-10 0v40h13q68 0 100 42q26 34 26 93v243h43v-246q0 -90 -50 -135q-42 -37 -110 -37h-22zM33 -152q-13 0 -23 10t-10 23t10 23t23 10t23 -10t10 -23q0 -14 -9.5 -23.5t-23.5 -9.5zM122 -152q-14 0 -23.5 9.5t-9.5 23.5q0 13 10 23t23 10t23 -10t10 -23q0 -14 -9.5 -23.5
t-23.5 -9.5z" />
    <glyph glyph-name="uniFEF4" unicode="&#x64a;" horiz-adv-x="301" arabic-form="medial" 
d="M-10 0v40h13q68 0 100 42q26 34 26 93v243h43v-243q0 -68 35 -103q32 -32 91 -32h13v-40h-20q-101 0 -140 76q-40 -76 -139 -76h-22zM103 -152q-14 0 -23.5 9.5t-9.5 23.5q0 13 10 23t23 10t23 -10t10 -23t-10 -23t-23 -10zM191 -152q-13 0 -23 10t-10 23t10 23t23 10
t23 -10t10 -23q0 -14 -9.5 -23.5t-23.5 -9.5z" />
    <glyph glyph-name=".notdef" horiz-adv-x="364" 
d="M33 0v666h265v-666h-265zM66 33h199v600h-199v-600z" />
    <glyph glyph-name="glyph1" 
 />
    <glyph glyph-name="glyph2" horiz-adv-x="263" 
 />
    <glyph glyph-name="space" unicode=" " horiz-adv-x="263" 
 />
    <glyph glyph-name="exclam" unicode="!" horiz-adv-x="260" 
d="M111 158l-5 509h49l-6 -509h-38zM130 59q14 0 23.5 -10t9.5 -24q0 -13 -9.5 -23t-23.5 -10q-13 0 -23 10t-10 23q0 14 10 24t23 10z" />
    <glyph glyph-name="quotedbl" unicode="&#x22;" horiz-adv-x="290" 
d="M87 437h-30l-7 230h44zM232 437h-29l-8 230h45z" />
    <glyph glyph-name="numbersign" unicode="#" horiz-adv-x="586" 
d="M143 235l39 196h-78l7 33h78l42 208l34 -8l-40 -200h191l41 208l35 -8l-40 -200h78l-7 -33h-78l-40 -196h79l-7 -33h-78l-42 -207l-34 8l40 199h-191l-42 -207l-34 8l40 199h-79l7 33h79zM179 235h190l40 196h-191z" />
    <glyph glyph-name="dollar" unicode="$" horiz-adv-x="558" 
d="M263 675v92h43v-92q83 -10 138 -86l-35 -23q-53 70 -129 70q-64 0 -105 -43q-36 -37 -36 -88q0 -81 111 -125l67 -26q83 -32 119 -77q31 -39 31 -93q0 -76 -51 -131q-44 -47 -110 -59v-97h-43v94q-74 0 -126 44q-45 40 -64 105l42 12q19 -62 62 -93q38 -28 90 -28
q70 0 116 50q40 43 40 102q0 47 -29.5 78t-100.5 59l-65 26q-132 52 -132 159q0 74 51 122q45 41 116 48z" />
    <glyph glyph-name="percent" unicode="%" horiz-adv-x="904" 
d="M551 198q0 203 146 203q82 0 118 -56q33 -50 33 -147q0 -203 -150 -203q-147 0 -147 203zM589 198q0 -168 110 -168t110 167q0 169 -110 169t-110 -168zM631 671l25 -14l-382 -662l-26 15zM57 469q0 204 146 204q82 0 119 -57q32 -50 32 -147q0 -203 -148 -203
q-149 0 -149 203zM95 469q0 -168 110 -168q111 0 111 167q0 169 -111 169q-110 0 -110 -168z" />
    <glyph glyph-name="ampersand" unicode="&#x26;" horiz-adv-x="623" 
d="M232 381l-14 17q-69 84 -69 149q0 59 43 97q37 32 90 32q60 0 98 -40q32 -34 32 -84q0 -42 -26 -80.5t-88 -86.5l-13 -10l194 -235q29 46 55 120l39 -11q-29 -87 -66 -142l88 -107h-52l-61 75q-77 -85 -195 -85q-97 0 -158 57q-52 50 -52 121q0 53 31.5 99.5t104.5 99.5
q2 1 5 3l1 1zM261 403l10 8q57 43 80.5 75.5t23.5 68.5q0 40 -30 65q-26 22 -64 22q-43 0 -70 -30q-24 -25 -24 -61q0 -57 66 -137zM455 107l-200 245l-7 -5q-73 -55 -101 -93t-28 -82q0 -66 55 -107q47 -35 115 -35q99 0 166 77z" />
    <glyph glyph-name="quotesingle" unicode="'" horiz-adv-x="144" 
d="M87 437h-30l-7 230h44z" />
    <glyph glyph-name="parenleft" unicode="(" horiz-adv-x="277" 
d="M207 -156l-38 -17q-35 76 -57 201t-22 248q0 132 25 264q22 114 54 185l38 -17q-75 -192 -75 -432t75 -432z" />
    <glyph glyph-name="parenright" unicode=")" horiz-adv-x="277" 
d="M70 -156q74 192 74 432t-74 432l37 17q36 -77 58 -201t22 -248q0 -132 -25 -264q-22 -114 -55 -185z" />
    <glyph glyph-name="asterisk" unicode="*" horiz-adv-x="446" 
d="M86 633l122 -45l-6 130h41l-5 -130l122 45l13 -39l-125 -35l80 -102l-33 -24l-72 108l-72 -108l-33 24l80 102l-125 35z" />
    <glyph glyph-name="plus" unicode="+" horiz-adv-x="556" 
d="M259 330v200h38v-200h198v-25v-11h-198v-200h-38v200h-199v26v10h199z" />
    <glyph glyph-name="comma" unicode="," horiz-adv-x="209" 
d="M30 -133l75 212l42 -15l-90 -208z" />
    <glyph glyph-name="hyphen" unicode="-" horiz-adv-x="242" 
d="M35 331h173v-38h-173v38z" />
    <glyph glyph-name="period" unicode="." horiz-adv-x="208" 
d="M104 59q14 0 23.5 -10t9.5 -24q0 -13 -9.5 -23t-23.5 -10q-13 0 -23 10t-10 23q0 14 10 24t23 10z" />
    <glyph glyph-name="slash" unicode="/" horiz-adv-x="533" 
d="M439 672l33 -20l-378 -657l-32 19z" />
    <glyph glyph-name="zero" unicode="0" horiz-adv-x="568" 
d="M47 333q0 186 67 270q58 73 171 73q128 0 186 -96q51 -84 51 -247q0 -186 -67 -270q-58 -73 -172 -73q-236 0 -236 343zM91 325q0 -152 57 -228q49 -66 136 -66q102 0 151 87q43 76 43 215q0 159 -56 236q-49 67 -137 67q-194 0 -194 -311z" />
    <glyph glyph-name="one" unicode="1" horiz-adv-x="282" 
d="M195 0h-44v622l-118 -69l-20 36l134 78h48v-667z" />
    <glyph glyph-name="two" unicode="2" horiz-adv-x="480" 
d="M51 0v46l249 276q87 96 87 174q0 65 -47 105q-41 35 -100 35q-111 0 -149 -117l-40 11q22 75 77 113q48 33 115 33q88 0 140 -57q46 -49 46 -123q0 -91 -92 -193l-237 -263h346v-40h-395z" />
    <glyph glyph-name="three" unicode="3" horiz-adv-x="462" 
d="M197 369h31q58 0 97 44q33 38 33 90q0 63 -44 101q-38 32 -96 32q-78 0 -129 -66l-35 20q61 86 165 86q85 0 136 -54q45 -47 45 -117q0 -100 -84 -152q99 -55 99 -168q0 -93 -62 -147q-54 -48 -137 -48q-75 0 -127 41q-46 35 -65 95l-1 5l42 11q18 -48 40 -71
q40 -40 111 -40q75 0 119 47q37 41 37 105q0 71 -45 112q-39 35 -100 35h-30v39z" />
    <glyph glyph-name="four" unicode="4" horiz-adv-x="516" 
d="M355 650l-273 -456h264v184h43v-184h86v-40h-86v-154h-43v154h-309v46l283 472z" />
    <glyph glyph-name="five" unicode="5" horiz-adv-x="510" 
d="M184 626l-43 -220q3 1 15 7q37 16 83 16q100 0 163 -70q55 -60 55 -147q0 -102 -70 -166q-61 -56 -147 -56q-124 0 -193 103l34 24q54 -86 157 -86q83 0 133 56q42 49 42 122q0 82 -57 135q-50 46 -120 46q-67 0 -114 -44l-36 8l62 313h274v-41h-238z" />
    <glyph glyph-name="six" unicode="6" horiz-adv-x="539" 
d="M320 671l33 -25l-172 -246q41 20 88 20q100 0 162 -67q54 -58 54 -141q0 -99 -71 -165q-61 -57 -145 -57q-98 0 -162 73q-56 63 -56 149q0 76 50 147zM442 209q0 79 -56 129q-49 43 -118 43q-79 0 -130 -56q-44 -49 -44 -117q0 -80 57 -132q49 -45 117 -45q78 0 130 58
q44 51 44 120z" />
    <glyph glyph-name="seven" unicode="7" horiz-adv-x="446" 
d="M383 626h-360v41h406v-42l-330 -630l-38 21z" />
    <glyph glyph-name="eight" unicode="8" horiz-adv-x="501" 
d="M156 355q-86 53 -86 150q0 78 58 128q51 43 123 43q83 0 136 -55q45 -48 45 -116q0 -97 -86 -150q109 -61 109 -174q0 -89 -65 -143q-57 -48 -139 -48q-95 0 -153 61q-51 53 -51 130q0 113 109 174zM251 330q-76 0 -121 -47q-40 -41 -40 -102q0 -70 51 -113
q45 -37 110 -37q75 0 121 48q40 41 40 102q0 70 -51 112q-45 37 -110 37zM110 504q0 -62 45 -101q40 -33 96 -33q65 0 105 43q36 37 36 91q0 61 -45 100q-40 33 -96 33q-65 0 -106 -43q-35 -37 -35 -90z" />
    <glyph glyph-name="nine" unicode="9" horiz-adv-x="541" 
d="M219 -5l-33 25l173 247q-41 -17 -87 -17q-102 0 -164 65q-54 57 -54 140q0 99 71 165q62 56 146 56q98 0 162 -71q55 -63 55 -149q0 -78 -50 -149zM97 458q0 -79 55 -128q48 -42 118 -42q80 0 131 56q44 48 44 116q0 79 -56 131q-50 45 -117 45q-79 0 -131 -58
q-44 -51 -44 -120z" />
    <glyph glyph-name="colon" unicode=":" horiz-adv-x="208" 
d="M104 59q14 0 23.5 -10t9.5 -24q0 -13 -9.5 -23t-23.5 -10q-13 0 -23 10t-10 23q0 14 10 24t23 10zM104 425q14 0 23.5 -10t9.5 -23q0 -14 -9.5 -24t-23.5 -10q-13 0 -23 10t-10 24q0 13 10 23t23 10z" />
    <glyph glyph-name="semicolon" unicode=";" horiz-adv-x="210" 
d="M30 -133l75 212l42 -15l-90 -208zM122 397q13 0 23 -9.5t10 -23.5t-10 -23.5t-23 -9.5q-14 0 -23.5 9.5t-9.5 23.5t9.5 23.5t23.5 9.5z" />
    <glyph glyph-name="less" unicode="&#x3c;" horiz-adv-x="543" 
d="M475 552v-45l-372 -170l372 -170v-45l-407 191v48z" />
    <glyph glyph-name="equal" unicode="=" horiz-adv-x="556" 
d="M468 265v-37h-379v37h379zM468 396v-36h-379v36h379z" />
    <glyph glyph-name="greater" unicode="&#x3e;" horiz-adv-x="543" 
d="M68 122v45l372 170l-372 170v45l407 -191v-49z" />
    <glyph glyph-name="question" unicode="?" horiz-adv-x="411" 
d="M173 158v59q0 44 10 66t43 51l46 39q73 63 73 136q0 61 -43 97q-37 30 -95 30q-45 0 -76.5 -17t-59.5 -56l-31 26q57 87 165 87q90 0 140 -51q43 -44 43 -116q0 -86 -78 -155l-55 -49q-26 -24 -33 -40.5t-7 -56.5v-50h-42zM194 59q13 0 23 -10t10 -24q0 -13 -10 -23
t-23 -10q-14 0 -24 10t-10 23q0 14 10 24t24 10z" />
    <glyph glyph-name="at" unicode="@" horiz-adv-x="912" 
d="M622 514l-44 -349h36q90 0 136 63q41 56 41 149q0 92 -40 164q-36 63 -95 97q-67 39 -163 39q-179 0 -282 -110q-89 -95 -89 -243q0 -145 90 -237q96 -96 279 -96q104 0 216 34l12 -33q-111 -35 -225 -35t-200 34q-75 30 -121 82q-42 48 -64.5 113t-22.5 136q0 92 35 172
q31 69 85 118q54 50 135 76q70 22 149 22q164 0 256 -102q81 -88 81 -228q0 -83 -32 -143q-28 -52 -76 -79q-47 -27 -132 -27h-139q-80 0 -126 54q-41 46 -41 118q0 46 17.5 88t48.5 71q57 52 168 52h107zM542 165l40 316h-77q-92 0 -142 -54q-44 -47 -44 -123
q0 -69 42 -106q36 -33 95 -33h86z" />
    <glyph glyph-name="A" unicode="A" horiz-adv-x="609" 
d="M58 0h-45l266 667h51l265 -667h-45l-78 197h-336zM152 238h304l-152 386z" />
    <glyph glyph-name="B" unicode="B" horiz-adv-x="518" 
d="M87 0v667h127q95 0 142 -28q36 -21 57.5 -59.5t21.5 -82.5q0 -50 -25 -89t-72 -60q67 -20 102 -69q30 -42 30 -101q0 -102 -92 -152q-46 -26 -129 -26h-162zM130 361h96q69 0 103 19q31 17 48 47.5t17 67.5q0 36 -16 65.5t-43 44.5q-37 22 -109 22h-96v-266zM130 41h113
q75 0 115 22q32 18 50.5 49.5t18.5 68.5t-17.5 68.5t-47.5 48.5q-43 25 -129 25h-103v-282z" />
    <glyph glyph-name="C" unicode="C" horiz-adv-x="656" 
d="M612 581l-30 -30q-83 84 -196 84q-81 0 -149 -40q-66 -40 -105 -108q-39 -71 -39 -154t40 -153q38 -68 105 -108q68 -41 149 -41q58 0 105.5 21t93.5 66l30 -30q-52 -51 -106.5 -74.5t-121.5 -23.5q-93 0 -172 47q-76 45 -121 122q-46 80 -46 174t46 174q44 77 121 123
q78 46 171 46q126 0 225 -95z" />
    <glyph glyph-name="D" unicode="D" horiz-adv-x="619" 
d="M87 667h125q178 0 274 -101q84 -88 84 -232q0 -166 -108 -256q-95 -78 -250 -78h-125v667zM131 626v-585h85q152 0 237 90q73 78 73 203q0 143 -95 222q-83 70 -215 70h-85z" />
    <glyph glyph-name="E" unicode="E" horiz-adv-x="469" 
d="M411 626h-280v-267h248v-41h-248v-277h290v-41h-334v667h324v-41z" />
    <glyph glyph-name="F" unicode="F" horiz-adv-x="429" 
d="M386 626h-255v-267h233v-41h-233v-318h-44v667h299v-41z" />
    <glyph glyph-name="G" unicode="G" horiz-adv-x="728" 
d="M634 289h-204v40h248v-22q0 -154 -89 -241q-77 -76 -199 -76q-94 0 -173 47q-77 45 -122 122q-46 80 -46 174t46 174q44 77 121 123q78 46 171 46q127 0 225 -95l-30 -30q-82 84 -196 84q-81 0 -149 -40q-66 -40 -105 -108q-39 -70 -39 -154q0 -83 40 -153
q39 -68 105 -108q69 -41 150 -41q70 0 126 32q49 27 79 74q21 32 30.5 66.5t10.5 85.5z" />
    <glyph glyph-name="H" unicode="H" horiz-adv-x="650" 
d="M131 359h389v308h43v-667h-43v318h-389v-318h-44v667h44v-308z" />
    <glyph glyph-name="I" unicode="I" horiz-adv-x="217" 
d="M131 667v-667h-44v667h44z" />
    <glyph glyph-name="J" unicode="J" horiz-adv-x="389" 
d="M302 667v-471q0 -88 -29 -138q-18 -32 -51.5 -50t-74.5 -18q-37 0 -68 13.5t-69 46.5l26 31q32 -27 56 -38.5t53 -11.5q113 0 113 165v471h44z" />
    <glyph glyph-name="K" unicode="K" horiz-adv-x="552" 
d="M280 395l259 -395h-51l-237 363l-120 -133v-230h-44v667h44v-381l342 381h52z" />
    <glyph glyph-name="L" unicode="L" horiz-adv-x="419" 
d="M87 667h44v-626h269v-41h-313v667z" />
    <glyph glyph-name="M" unicode="M" horiz-adv-x="816" 
d="M386 161l-255 444v-605h-44v667h54l268 -464l267 464h54v-667h-44v605l-255 -444h-45z" />
    <glyph glyph-name="N" unicode="N" horiz-adv-x="712" 
d="M131 606v-606h-44v667h49l446 -606v606h44v-667h-49z" />
    <glyph glyph-name="O" unicode="O" horiz-adv-x="766" 
d="M49 333q0 92 46 173q45 77 120 123q78 47 168 47t168 -47q76 -46 121 -124q46 -80 46 -172t-46 -172q-45 -78 -121 -123q-78 -48 -168 -48q-89 0 -167 48q-76 45 -121 123q-46 80 -46 172zM93 333q0 -82 40 -152q38 -68 104 -108q68 -42 146 -42q79 0 147 42
q65 40 104 108q39 70 39 152t-39 153q-38 68 -104 108q-67 41 -146 41q-80 0 -147 -41q-66 -40 -104 -108q-40 -71 -40 -153z" />
    <glyph glyph-name="P" unicode="P" horiz-adv-x="461" 
d="M87 667h125q90 0 135 -26q41 -24 64.5 -68t23.5 -97q0 -58 -27 -105q-23 -40 -62 -63q-44 -26 -134 -26h-81v-282h-44v667zM131 323h91q64 0 101 21q32 18 50.5 53t18.5 79q0 43 -18 77.5t-50 51.5q-37 21 -102 21h-91v-303z" />
    <glyph glyph-name="Q" unicode="Q" horiz-adv-x="764" 
d="M593 68l67 -69l-28 -28l-71 73q-81 -54 -178 -54q-90 0 -168 48q-75 45 -120 123q-46 80 -46 172t46 172q45 78 120 124q79 47 168 47q90 0 168 -47q76 -46 121 -124q46 -80 46 -172q0 -82 -37 -155q-32 -64 -88 -110zM531 75l-57 58l28 28l62 -63q56 46 85 112
q24 58 24 122q0 83 -39 154q-38 68 -104 108q-67 41 -146 41q-80 0 -147 -41q-66 -40 -104 -108q-40 -71 -40 -153t40 -152q39 -68 104 -108q68 -42 147 -42q76 0 147 44z" />
    <glyph glyph-name="R" unicode="R" horiz-adv-x="519" 
d="M87 667h125q99 0 149 -29q45 -25 70 -74q21 -43 21 -92q0 -68 -39 -117q-34 -43 -88 -59l163 -296h-49l-156 287q-35 -5 -71 -5h-81v-282h-44v667zM131 322h91q76 0 119 24q32 19 50 52t18 74q0 43 -19 77.5t-52 53.5q-41 23 -116 23h-91v-304z" />
    <glyph glyph-name="S" unicode="S" horiz-adv-x="496" 
d="M418 589l-35 -23q-53 70 -129 70q-64 0 -105 -43q-36 -37 -36 -88q0 -81 111 -125l67 -26q83 -32 119 -77q31 -39 31 -93q0 -88 -65 -145q-57 -49 -137 -49q-76 0 -128 45q-44 38 -64 105l42 12q19 -62 62 -93q38 -28 90 -28q70 0 116 50q40 43 40 102q0 47 -29.5 78
t-100.5 59l-65 26q-132 52 -132 159q0 79 60 129q51 42 126 42q101 0 162 -87z" />
    <glyph glyph-name="T" unicode="T" horiz-adv-x="430" 
d="M237 626v-626h-44v626h-180v41h403v-41h-179z" />
    <glyph glyph-name="U" unicode="U" horiz-adv-x="634" 
d="M131 667v-415q0 -54 5 -83t18 -52q22 -38 67.5 -62t96.5 -24q54 0 101 27q41 23 62 59q13 23 18 52t5 83v415h44v-436q0 -84 -27 -131q-32 -54 -92 -84q-52 -26 -111 -26q-68 0 -126 34q-50 29 -78 76q-27 47 -27 131v436h44z" />
    <glyph glyph-name="V" unicode="V" horiz-adv-x="541" 
d="M271 48l211 619h45l-229 -667h-55l-230 667h46z" />
    <glyph glyph-name="W" unicode="W" horiz-adv-x="875" 
d="M437 606l-171 -606h-13h-38l-202 667h45l183 -612l172 612h48l172 -612l183 612h45l-202 -667h-13h-38z" />
    <glyph glyph-name="X" unicode="X" horiz-adv-x="507" 
d="M81 667l173 -281l172 281h46l-195 -317l216 -350h-49l-191 313l-192 -313h-48l216 349l-195 318h47z" />
    <glyph glyph-name="Y" unicode="Y" horiz-adv-x="483" 
d="M220 280l-213 387h48l187 -346l188 346h47l-213 -387v-280h-44v280z" />
    <glyph glyph-name="Z" unicode="Z" horiz-adv-x="507" 
d="M76 41h400v-41h-446v46l395 580h-364v41h407v-47z" />
    <glyph glyph-name="bracketleft" unicode="[" horiz-adv-x="282" 
d="M231 -131v-39h-141v892h141v-39h-99v-814h99z" />
    <glyph glyph-name="backslash" unicode="\" horiz-adv-x="533" 
d="M94 672l378 -658l-33 -19l-377 657z" />
    <glyph glyph-name="bracketright" unicode="]" horiz-adv-x="282" 
d="M52 -131h98v814h-98v39h141v-892h-141v39z" />
    <glyph glyph-name="asciicircum" unicode="^" horiz-adv-x="467" 
d="M31 390l170 279h65l170 -279h-51l-152 245l-152 -245h-50z" />
    <glyph glyph-name="underscore" unicode="_" horiz-adv-x="483" 
d="M7 -80h470v-36h-470v36z" />
    <glyph glyph-name="grave" unicode="`" horiz-adv-x="476" 
d="M261 545l-24 -14l-106 107l45 24z" />
    <glyph glyph-name="a" unicode="a" horiz-adv-x="552" 
d="M482 0h-42v87q-37 -51 -79 -74t-98 -23q-100 0 -165 76q-57 66 -57 156q0 104 73 172q63 59 149 59q56 0 97.5 -23t79.5 -74v87h42v-443zM264 414q-84 0 -135 -61q-45 -53 -45 -131q0 -90 57 -145q50 -48 123 -48q84 0 134 61q44 53 44 132q0 90 -56 145q-49 47 -122 47z
" />
    <glyph glyph-name="b" unicode="b" horiz-adv-x="552" 
d="M70 0v667h42v-311q68 97 176 97q101 0 166 -76q57 -65 57 -155q0 -104 -73 -173q-63 -59 -149 -59q-110 0 -177 97v-87h-42zM288 414q-84 0 -134 -61q-44 -52 -44 -131q0 -91 57 -145q49 -48 121 -48q84 0 135 62q45 53 45 131q0 90 -57 145q-50 47 -123 47z" />
    <glyph glyph-name="c" unicode="c" horiz-adv-x="453" 
d="M421 388l-28 -28q-55 54 -127 54q-86 0 -137 -61q-45 -52 -45 -131q0 -91 58 -146q50 -47 125 -47q77 0 129 58l29 -29q-67 -68 -158 -68q-103 0 -169 75q-57 65 -57 157q0 106 73 173q63 58 153 58q45 0 80 -15t74 -50z" />
    <glyph glyph-name="d" unicode="d" horiz-adv-x="552" 
d="M482 0h-42v87q-67 -97 -177 -97q-100 0 -165 76q-57 66 -57 156q0 104 73 172q63 59 150 59q108 0 176 -97v311h42v-667zM264 414q-84 0 -136 -61q-44 -53 -44 -131q0 -90 57 -145q50 -48 123 -48q83 0 134 61q44 54 44 132q0 90 -57 145q-48 47 -121 47z" />
    <glyph glyph-name="e" unicode="e" horiz-adv-x="499" 
d="M84 204q6 -83 59 -132q47 -43 114 -43q94 0 148 80l38 -16q-69 -103 -185 -103q-100 0 -163 75q-54 65 -54 157q0 104 69 172q59 59 141 59q96 0 155 -76q52 -66 52 -162q0 -2 -1 -11h-373zM84 240h332q-11 89 -59 134q-42 40 -105 40q-74 0 -122 -55q-41 -48 -46 -119z
" />
    <glyph glyph-name="f" unicode="f" horiz-adv-x="241" 
d="M86 443v94q0 135 93 135q15 0 34 -5v-39q-16 4 -27 4q-30 0 -44 -22.5t-14 -72.5v-94h86v-38h-86v-405h-42v405h-48v38h48z" />
    <glyph glyph-name="g" unicode="g" horiz-adv-x="552" 
d="M482 443v-451q0 -114 -71 -179q-61 -56 -157 -56q-113 0 -191 88l28 28q36 -41 73.5 -59t87.5 -18q93 0 144 59q44 52 44 137v14v81q-67 -97 -176 -97q-101 0 -166 76q-57 65 -57 156q0 104 73 172q63 59 150 59q108 0 176 -97v87h42zM264 414q-84 0 -135 -61
q-45 -53 -45 -131q0 -90 57 -145q50 -48 123 -48q83 0 134 61q44 54 44 132q0 90 -56 145q-49 47 -122 47z" />
    <glyph glyph-name="h" unicode="h" horiz-adv-x="510" 
d="M112 371q51 82 154 82q80 0 130 -53q24 -26 34.5 -63t10.5 -96v-241h-42v232q0 80 -22 120q-15 29 -46.5 45t-70.5 16q-41 0 -75 -18t-51 -47q-22 -41 -22 -126v-222h-42v667h42v-296z" />
    <glyph glyph-name="i" unicode="i" horiz-adv-x="182" 
d="M111 443v-443h-41v443h41zM91 623q14 0 23.5 -10t9.5 -24t-9.5 -24t-23.5 -10t-24 10t-10 24t10 24t24 10z" />
    <glyph glyph-name="j" unicode="j" horiz-adv-x="191" 
d="M-5 -233v38q15 -4 26 -4q31 0 45 22.5t14 73.5v546h41v-546q0 -136 -92 -136q-15 0 -34 6zM100 623q14 0 24 -10t10 -24t-10 -24t-24 -10q-13 0 -23 10t-10 24t10 24t23 10z" />
    <glyph glyph-name="k" unicode="k" horiz-adv-x="451" 
d="M413 443l-175 -176l205 -267h-51l-182 240l-98 -99v-141h-42v667h42v-474l248 250h53z" />
    <glyph glyph-name="l" unicode="l" horiz-adv-x="183" 
d="M113 0h-42v667h42v-667z" />
    <glyph glyph-name="m" unicode="m" horiz-adv-x="787" 
d="M112 443v-72q44 82 140 82q100 0 144 -94q51 94 153 94q99 0 143 -77q25 -46 25 -135v-241h-41v232q0 83 -22 124q-14 27 -41.5 42t-61.5 15q-36 0 -66.5 -16.5t-46.5 -44.5q-23 -42 -23 -130v-222h-41v232q0 83 -22 124q-14 27 -42 42t-62 15q-37 0 -67 -16.5t-47 -46.5
q-22 -39 -22 -128v-222h-42v443h42z" />
    <glyph glyph-name="n" unicode="n" horiz-adv-x="510" 
d="M112 443v-72q51 82 154 82q80 0 130 -53q24 -26 34.5 -63t10.5 -96v-241h-42v232q0 80 -22 120q-15 29 -46.5 45t-70.5 16q-41 0 -75 -18t-51 -47q-22 -41 -22 -126v-222h-42v443h42z" />
    <glyph glyph-name="o" unicode="o" horiz-adv-x="530" 
d="M265 453q102 0 167 -75q57 -65 57 -156q0 -105 -73 -173q-63 -59 -151 -59q-102 0 -167 76q-57 65 -57 157q0 104 73 171q63 59 151 59zM265 414q-85 0 -136 -61q-45 -53 -45 -131q0 -90 58 -145q49 -48 123 -48q85 0 136 62q45 53 45 131q0 90 -58 145q-49 47 -123 47z
" />
    <glyph glyph-name="p" unicode="p" horiz-adv-x="552" 
d="M70 -233v676h42v-87q67 97 177 97q100 0 165 -76q57 -65 57 -155q0 -105 -73 -173q-63 -59 -150 -59q-108 0 -176 97v-320h-42zM288 414q-84 0 -134 -61q-44 -53 -44 -131q0 -91 57 -145q48 -48 121 -48q84 0 135 61q45 53 45 132q0 90 -57 145q-50 47 -123 47z" />
    <glyph glyph-name="q" unicode="q" horiz-adv-x="552" 
d="M482 -233h-42v320q-68 -97 -176 -97q-101 0 -166 76q-57 65 -57 156q0 104 73 172q63 59 149 59q110 0 177 -97v87h42v-676zM264 414q-84 0 -135 -61q-45 -53 -45 -131q0 -90 57 -145q50 -48 123 -48q83 0 134 61q44 53 44 132q0 90 -57 145q-48 47 -121 47z" />
    <glyph glyph-name="r" unicode="r" horiz-adv-x="285" 
d="M70 443h42v-72q45 72 139 72h7v-38q-7 1 -10 1q-37 0 -67.5 -16.5t-46.5 -44.5q-22 -41 -22 -129v-216h-42v443z" />
    <glyph glyph-name="s" unicode="s" horiz-adv-x="365" 
d="M305 388l-35 -19q-35 47 -86 47q-42 0 -69 -26q-22 -21 -22 -53q0 -33 22 -53q13 -12 67 -34l46 -18q50 -20 72.5 -45.5t22.5 -62.5q0 -61 -47 -100q-40 -34 -98 -34q-95 0 -142 98l37 16q23 -42 47 -58.5t61 -16.5q46 0 75 29q25 25 25 62q0 32 -23 52q-15 14 -69 36
l-51 19q-85 34 -85 106q0 55 43 90q37 30 90 30q74 0 119 -65z" />
    <glyph glyph-name="t" unicode="t" horiz-adv-x="238" 
d="M81 405h-53v38h53v113l42 16v-129h78v-38h-78v-275q0 -50 14 -73t44 -23q11 0 27 4v-38q-19 -6 -34 -6q-93 0 -93 136v275z" />
    <glyph glyph-name="u" unicode="u" horiz-adv-x="510" 
d="M399 0v72q-51 -82 -154 -82q-81 0 -130 53q-24 26 -34.5 63t-10.5 96v241h42v-232q0 -80 21 -120q16 -28 47 -44.5t71 -16.5t74.5 18t50.5 48q23 41 23 126v221h42v-443h-42z" />
    <glyph glyph-name="v" unicode="v" horiz-adv-x="444" 
d="M391 443h45l-191 -443h-46l-192 443h46l169 -397z" />
    <glyph glyph-name="w" unicode="w" horiz-adv-x="676" 
d="M172 0l-165 443h45l142 -392l122 392h44l122 -392l142 392h45l-165 -443h-44l-122 387l-122 -387h-44z" />
    <glyph glyph-name="x" unicode="x" horiz-adv-x="417" 
d="M233 231l172 -231h-49l-148 200l-147 -200h-49l172 231l-158 212h49l134 -181l134 181h48z" />
    <glyph glyph-name="y" unicode="y" horiz-adv-x="428" 
d="M189 11l-182 432h46l158 -381l164 381h45l-293 -676h-43z" />
    <glyph glyph-name="z" unicode="z" horiz-adv-x="419" 
d="M385 404l-302 -366h312v-38h-360v39l302 366h-286v38h334v-35v-4z" />
    <glyph glyph-name="braceleft" unicode="{" horiz-adv-x="291" 
d="M52 294q34 15 47.5 39t13.5 71v185q0 77 29 107q26 27 83 27h14v-37h-6q-45 0 -61.5 -19t-16.5 -71v-193q0 -50 -14.5 -80t-47.5 -47q62 -32 62 -128v-192q0 -53 17 -71t67 -18v-38h-10q-68 0 -94 35q-22 30 -22 99v185q0 48 -13.5 72.5t-47.5 38.5v35z" />
    <glyph glyph-name="bar" unicode="|" horiz-adv-x="484" 
d="M221 728h42v-904h-42v904z" />
    <glyph glyph-name="braceright" unicode="}" horiz-adv-x="291" 
d="M239 294v-35q-34 -14 -47 -38.5t-13 -72.5v-185q0 -78 -30 -108q-27 -26 -87 -26h-10v38q53 0 70 21q14 18 14 68v192q0 96 62 128q-32 17 -47 47t-15 80v193q0 52 -16.5 71t-61.5 19h-6v37h14q65 0 90 -35q23 -31 23 -99v-185q0 -47 13.5 -71t46.5 -39z" />
    <glyph glyph-name="asciitilde" unicode="~" horiz-adv-x="645" 
d="M121 601l-21 14q28 54 54.5 75.5t64.5 21.5t107 -33q69 -32 103 -32q29 0 50 13.5t45 48.5l22 -13q-49 -94 -123 -94q-24 0 -43.5 6.5t-94.5 39.5q-43 20 -74 20q-48 0 -90 -67z" />
    <glyph glyph-name="nonbreakingspace" unicode="&#xa0;" horiz-adv-x="263" 
 />
    <glyph glyph-name="exclamdown" unicode="&#xa1;" horiz-adv-x="260" 
d="M111 325h38l6 -509h-49zM130 424q-13 0 -23 10t-10 23q0 14 10 24t23 10q14 0 23.5 -10t9.5 -24q0 -13 -9.5 -23t-23.5 -10z" />
    <glyph glyph-name="cent" unicode="&#xa2;" horiz-adv-x="545" 
d="M272 104q-93 11 -149 83q-48 62 -48 146q0 97 62 163q54 57 135 66v105h42v-103q42 -2 73 -16.5t68 -47.5l-28 -29q-55 54 -127 54q-86 0 -137 -60q-45 -53 -45 -132q0 -91 58 -145q50 -47 125 -47q78 0 129 58l29 -29q-33 -34 -66 -49.5t-79 -18.5v-102h-42v104z" />
    <glyph glyph-name="sterling" unicode="&#xa3;" horiz-adv-x="555" 
d="M196 313l4 -19q14 -73 14 -106q0 -43 -18 -76.5t-61 -71.5h363v-40h-416v47q49 40 69.5 71t20.5 67q0 41 -16 110v1q-1 2 -1 3l-3 14h-70v39h62l-5 25q-10 47 -10 94q0 109 59 159q55 46 129 46q97 0 155 -87l-35 -23q-49 70 -123 70q-71 0 -110 -50q-33 -43 -33 -115
q0 -38 13 -101l4 -18h210v-39h-202z" />
    <glyph glyph-name="currency" unicode="&#xa4;" horiz-adv-x="723" 
d="M191 485l-93 95l23 22l91 -94q64 57 149 57t148 -57l92 94l23 -22l-93 -95q54 -63 54 -152q0 -84 -53 -151l92 -95l-22 -22l-92 94q-64 -57 -149 -57t-149 57l-92 -94l-22 22l92 95q-53 64 -53 151q0 89 54 152zM361 526q-85 0 -136 -61q-45 -53 -45 -131q0 -91 58 -146
q49 -47 123 -47q85 0 136 61q45 53 45 132q0 90 -58 144q-49 48 -123 48z" />
    <glyph glyph-name="yen" unicode="&#xa5;" horiz-adv-x="556" 
d="M256 244h-169v39h165v4l-53 96h-112v39h91l-135 245h48l187 -346l188 346h47l-135 -245h91v-39h-112l-53 -96v-4h165v-39h-169v-244h-44v244z" />
    <glyph glyph-name="brokenbar" unicode="&#xa6;" horiz-adv-x="484" 
d="M263 348h-42v380h42v-380zM263 210v-386h-42v386h42z" />
    <glyph glyph-name="section" unicode="&#xa7;" horiz-adv-x="527" 
d="M385 43q54 -45 54 -117q0 -81 -58 -128q-49 -41 -127 -41q-64 0 -111 28t-83 89l36 24q61 -100 160 -100q65 0 105 41q34 36 34 88q0 45 -30 76.5t-99 58.5l-64 26q-131 51 -131 158q0 42 16 72t58 69q-62 45 -62 120q0 78 59 127q52 42 125 42q98 0 157 -86l-35 -23
q-50 69 -125 69q-62 0 -102 -42q-35 -36 -35 -87q0 -81 108 -123l67 -26q82 -32 118 -76q31 -39 31 -93q0 -72 -55 -134q-3 -3 -11 -12zM183 363q-69 -50 -69 -116q0 -82 110 -124l66 -27q32 -12 60 -29q32 35 44.5 61t12.5 60q0 46 -29.5 77t-99.5 59l-64 25q-14 6 -31 14z
" />
    <glyph glyph-name="dieresis" unicode="&#xa8;" horiz-adv-x="476" 
d="M146 622q14 0 24 -9.5t10 -23.5t-10 -24t-24 -10q-13 0 -23 10t-10 24q0 13 10 23t23 10zM330 622q14 0 23.5 -9.5t9.5 -23.5t-9.5 -24t-23.5 -10q-13 0 -23 10t-10 24q0 13 10 23t23 10z" />
    <glyph glyph-name="copyright" unicode="&#xa9;" horiz-adv-x="870" 
d="M611 496l-26 -26q-56 57 -130 57q-85 0 -140 -63q-47 -55 -47 -131q0 -87 61 -144q53 -49 127 -49q70 0 131 58l27 -26q-71 -69 -157 -69q-103 0 -170 75q-58 66 -58 155q0 103 74 172q65 59 153 59q84 0 155 -68zM435 712q103 0 191 -52q86 -50 136 -136q52 -88 52 -191
t-52 -191q-50 -85 -136 -135q-88 -52 -191 -52t-191 51q-85 50 -135 136q-52 87 -52 190t52 191q50 86 136 137q88 52 190 52zM436 678q-94 0 -174 -47q-78 -46 -124 -124q-47 -81 -47 -175q0 -93 47 -173q45 -78 123 -123q81 -47 174 -47q94 0 174 47q78 46 124 123
q47 81 47 174q0 94 -47 174q-46 78 -124 124q-80 47 -173 47z" />
    <glyph glyph-name="ordfeminine" unicode="&#xaa;" horiz-adv-x="363" 
d="M313 407h-34v44q-41 -50 -102 -50t-102 45q-35 39 -35 93q0 62 45 102q39 35 92 35q62 0 102 -49v44h34v-264zM178 646q-49 0 -78 -34q-26 -29 -26 -73q0 -50 33 -80q29 -27 71 -27q48 0 78 34q25 29 25 73q0 50 -33 80q-28 27 -70 27z" />
    <glyph glyph-name="guillemotleft" unicode="&#xab;" horiz-adv-x="410" 
d="M352 77l-26 -21l-135 166l135 169l26 -21l-117 -148zM204 77l-27 -21l-134 166l135 169l26 -21l-117 -148z" />
    <glyph glyph-name="logicalnot" unicode="&#xac;" horiz-adv-x="654" 
d="M581 94h-41v198h-467v38h508v-236z" />
    <glyph glyph-name="uni00AD" unicode="&#xad;" horiz-adv-x="242" 
d="M35 331h173v-38h-173v38z" />
    <glyph glyph-name="registered" unicode="&#xae;" horiz-adv-x="870" 
d="M492 303l110 -195h-45l-105 189q-24 -3 -55 -3h-43v-186h-39v450h101q65 0 98 -19q29 -16 45.5 -46.5t16.5 -67.5q0 -43 -22.5 -76t-61.5 -46zM354 330h68q116 0 116 95q0 97 -116 97h-68v-192zM435 712q103 0 191 -52q86 -50 136 -136q52 -88 52 -191t-52 -191
q-50 -85 -136 -135q-88 -52 -191 -52t-191 51q-85 50 -135 136q-52 87 -52 190t52 191q50 86 136 137q88 52 190 52zM436 678q-94 0 -174 -47q-78 -46 -124 -124q-47 -81 -47 -175q0 -93 47 -173q45 -78 123 -123q81 -47 174 -47q94 0 174 47q78 46 124 123q47 81 47 174
q0 94 -47 174q-46 78 -124 124q-80 47 -173 47z" />
    <glyph glyph-name="macron" unicode="&#xaf;" horiz-adv-x="476" 
d="M114 610h248v-38h-248v38z" />
    <glyph glyph-name="degree" unicode="&#xb0;" horiz-adv-x="355" 
d="M210 738q62 0 103 -45q35 -39 35 -93q0 -61 -45 -102q-39 -35 -92 -35q-62 0 -103 45q-35 39 -35 93q0 60 45 101q40 36 92 36zM211 496q46 0 76 35q27 29 27 69q0 46 -34 77q-30 27 -70 27q-46 0 -76 -34q-27 -30 -27 -70q0 -46 34 -77q30 -27 70 -27z" />
    <glyph glyph-name="plusminus" unicode="&#xb1;" horiz-adv-x="556" 
d="M497 37v-37h-437v37h437zM259 378v200h39v-200h199v-36h-199v-200h-39v200h-199v36h199z" />
    <glyph glyph-name="twosuperior" unicode="&#xb2;" horiz-adv-x="387" 
d="M70 406v35l151 161q51 53 51 96q0 32 -23.5 53t-58.5 21q-34 0 -54 -16t-32 -53l-35 10q26 94 123 94q55 0 88 -35q29 -30 29 -75q0 -54 -57 -115l-132 -141h199v-35h-249z" />
    <glyph glyph-name="threesuperior" unicode="&#xb3;" horiz-adv-x="387" 
d="M64 492l37 10q13 -36 32.5 -51t53.5 -15q43 0 67 25q21 22 21 56q0 36 -22 57.5t-59 21.5h-24v35h25q30 0 50.5 20t20.5 50q0 32 -21.5 51.5t-56.5 19.5q-44 0 -75 -40l-32 18q2 3 7 9q36 48 101 48q54 0 86 -33q29 -29 29 -71q0 -56 -45 -87q54 -33 54 -97
q0 -56 -39 -89q-34 -29 -86 -29q-46 0 -78 22.5t-45 63.5z" />
    <glyph glyph-name="acute" unicode="&#xb4;" horiz-adv-x="476" 
d="M215 545l85 117l45 -24l-106 -107z" />
    <glyph glyph-name="mu" unicode="&#xb5;" horiz-adv-x="510" 
d="M112 59v-292h-42v676h42v-232q0 -80 21 -120q16 -28 47 -44.5t71 -16.5t74.5 18t50.5 48q23 41 23 126v221h42v-443h-42v70q-52 -80 -150 -80q-93 0 -137 69z" />
    <glyph glyph-name="paragraph" unicode="&#xb6;" horiz-adv-x="641" 
d="M309 231h-27q-95 0 -156 71q-53 62 -53 147q0 99 68 163q59 55 141 55h302v-37h-66v-863h-38v863h-133v-863h-38v464z" />
    <glyph glyph-name="glyph195" unicode="&#xb7;" horiz-adv-x="207" 
d="M71 311q0 13 9.5 22.5t23.5 9.5q13 0 22.5 -9.5t9.5 -22.5t-9.5 -23t-22.5 -10q-14 0 -23.5 10t-9.5 23z" />
    <glyph glyph-name="cedilla" unicode="&#xb8;" horiz-adv-x="476" 
d="M300 -80l-84 -107l-27 13l70 111z" />
    <glyph glyph-name="onesuperior" unicode="&#xb9;" horiz-adv-x="387" 
d="M228 406h-39v354l-67 -38l-18 31l87 48h37v-395z" />
    <glyph glyph-name="ordmasculine" unicode="&#xba;" horiz-adv-x="358" 
d="M179 676q63 0 104 -44q35 -39 35 -93q0 -62 -45 -103q-40 -35 -94 -35q-63 0 -104 45q-35 39 -35 93q0 62 45 102q39 35 94 35zM179 646q-49 0 -79 -34q-26 -29 -26 -73q0 -50 33 -81q29 -26 72 -26q49 0 79 34q26 29 26 73q0 50 -34 80q-28 27 -71 27z" />
    <glyph glyph-name="guillemotright" unicode="&#xbb;" horiz-adv-x="410" 
d="M205 77l117 145l-117 148l26 21l135 -169l-134 -166zM57 77l117 145l-117 148l26 21l135 -169l-135 -166z" />
    <glyph glyph-name="onequarter" unicode="&#xbc;" horiz-adv-x="833" 
d="M550 671l25 -14l-382 -662l-26 15zM651 382l-162 -258h142v105h38v-105h51v-35h-51v-89h-38v89h-185v34l173 278zM191 271h-39v354l-67 -38l-18 31l87 49h37v-396z" />
    <glyph glyph-name="onehalf" unicode="&#xbd;" horiz-adv-x="833" 
d="M550 671l25 -14l-382 -662l-26 15zM498 0v35l151 161q50 53 50 96q0 32 -23 53t-59 21q-33 0 -53.5 -16t-32.5 -53l-35 10q27 94 123 94q55 0 88 -35q30 -30 30 -75q0 -54 -57 -115l-133 -141h200v-35h-249zM191 271h-39v354l-67 -38l-18 31l87 49h37v-396z" />
    <glyph glyph-name="threequarters" unicode="&#xbe;" horiz-adv-x="833" 
d="M612 671l25 -14l-382 -662l-26 15zM691 382l-162 -258h142v105h38v-105h51v-35h-51v-89h-38v89h-185v34l173 278zM59 357l37 10q13 -36 32.5 -50.5t53.5 -14.5q43 0 67 25q21 21 21 56t-22 57t-59 22h-24v34h25q30 0 50.5 20.5t20.5 50.5q0 31 -21.5 50.5t-56.5 19.5
q-44 0 -75 -40l-32 18q2 3 7 9q36 49 101 49q54 0 86 -34q29 -28 29 -71q0 -55 -45 -87q54 -33 54 -97q0 -56 -39 -89q-34 -29 -86 -29q-46 0 -78 22.5t-45 63.5z" />
    <glyph glyph-name="questiondown" unicode="&#xbf;" horiz-adv-x="411" 
d="M255 325v-59q0 -44 -10 -66t-44 -51l-45 -39q-73 -63 -73 -136q0 -61 43 -97q37 -31 95 -31q45 0 76.5 17t59.5 57l31 -26q-58 -88 -166 -88q-90 0 -139 52q-43 44 -43 116q0 85 78 155l54 49q27 24 34 40.5t7 56.5v50h42zM234 424q-14 0 -23.5 9.5t-9.5 23.5t10 24
t23 10q14 0 23.5 -10t9.5 -24q0 -13 -9.5 -23t-23.5 -10z" />
    <glyph glyph-name="Agrave" unicode="&#xc0;" horiz-adv-x="609" 
d="M329 745l-24 -14l-106 107l45 24zM58 0h-45l266 667h51l265 -667h-45l-78 197h-336zM152 238h304l-152 386z" />
    <glyph glyph-name="Aacute" unicode="&#xc1;" horiz-adv-x="609" 
d="M277 745l85 117l45 -24l-106 -107zM58 0h-45l266 667h51l265 -667h-45l-78 197h-336zM152 238h304l-152 386z" />
    <glyph glyph-name="Acircumflex" unicode="&#xc2;" horiz-adv-x="609" 
d="M210 731l-28 14l100 109h45l100 -109l-28 -14l-95 88zM58 0h-45l266 667h51l265 -667h-45l-78 197h-336zM152 238h304l-152 386z" />
    <glyph glyph-name="Atilde" unicode="&#xc3;" horiz-adv-x="609" 
d="M183 764q13 62 64 62q22 0 65 -20q29 -14 50 -14q24 0 32 33l32 -8q-10 -62 -64 -62q-26 0 -63 18q-32 16 -51 16q-23 0 -33 -33zM58 0h-45l266 667h51l265 -667h-45l-78 197h-336zM152 238h304l-152 386z" />
    <glyph glyph-name="Adieresis" unicode="&#xc4;" horiz-adv-x="609" 
d="M58 0h-45l266 667h51l265 -667h-45l-78 197h-336zM152 238h304l-152 386zM396 824q14 0 23.5 -9.5t9.5 -23.5t-9.5 -24t-23.5 -10q-13 0 -23 10t-10 24q0 13 10 23t23 10zM212 824q14 0 24 -9.5t10 -23.5t-10 -24t-24 -10q-13 0 -23 10t-10 24q0 13 10 23t23 10z" />
    <glyph glyph-name="Aring" unicode="&#xc5;" horiz-adv-x="609" 
d="M58 0h-45l266 667h51l265 -667h-45l-78 197h-336zM152 238h304l-152 386zM227 791q0 33 26 55q22 19 51 19q34 0 57 -24q20 -21 20 -50q0 -34 -25 -56q-22 -19 -52 -19q-34 0 -57 25q-20 21 -20 50zM253 791q0 -22 15 -37t36 -15q22 0 37 15t15 37q0 21 -15 36t-37 15
q-21 0 -36 -15t-15 -36z" />
    <glyph glyph-name="AE" unicode="&#xc6;" horiz-adv-x="841" 
d="M458 197h-298l-99 -197h-48l340 667h429v-41h-280v-267h249v-41h-249v-277h290v-41h-334v197zM458 238v388h-81l-196 -388h277z" />
    <glyph glyph-name="Ccedilla" unicode="&#xc7;" horiz-adv-x="656" 
d="M389 -80l-84 -107l-27 13l71 111zM612 581l-30 -30q-83 84 -196 84q-81 0 -149 -40q-66 -40 -105 -108q-39 -71 -39 -154t40 -153q38 -68 105 -108q68 -41 149 -41q58 0 105.5 21t93.5 66l30 -30q-52 -51 -106.5 -74.5t-121.5 -23.5q-93 0 -172 47q-76 45 -121 122
q-46 80 -46 174t46 174q44 77 121 123q78 46 171 46q126 0 225 -95z" />
    <glyph glyph-name="Egrave" unicode="&#xc8;" horiz-adv-x="469" 
d="M287 745l-24 -14l-106 107l45 24zM411 626h-280v-267h248v-41h-248v-277h290v-41h-334v667h324v-41z" />
    <glyph glyph-name="Eacute" unicode="&#xc9;" horiz-adv-x="469" 
d="M221 745l85 117l45 -24l-106 -107zM411 626h-280v-267h248v-41h-248v-277h290v-41h-334v667h324v-41z" />
    <glyph glyph-name="Ecircumflex" unicode="&#xca;" horiz-adv-x="469" 
d="M160 731l-28 14l99 109h46l99 -109l-28 -14l-94 88zM411 626h-280v-267h248v-41h-248v-277h290v-41h-334v667h324v-41z" />
    <glyph glyph-name="Edieresis" unicode="&#xcb;" horiz-adv-x="469" 
d="M411 626h-280v-267h248v-41h-248v-277h290v-41h-334v667h324v-41zM345 824q14 0 24 -9.5t10 -23.5t-10 -24t-24 -10q-13 0 -23 10t-10 24q0 13 10 23t23 10zM161 824q14 0 24 -9.5t10 -23.5t-10 -24t-24 -10q-13 0 -23 10t-10 24q0 13 10 23t23 10z" />
    <glyph glyph-name="Igrave" unicode="&#xcc;" horiz-adv-x="217" 
d="M132 745l-24 -14l-106 107l45 24zM130 667v-667h-44v667h44z" />
    <glyph glyph-name="Iacute" unicode="&#xcd;" horiz-adv-x="217" 
d="M85 745l85 117l45 -24l-106 -107zM130 667v-667h-43v667h43z" />
    <glyph glyph-name="Icircumflex" unicode="&#xce;" horiz-adv-x="217" 
d="M14 731l-28 14l100 109h45l100 -109l-28 -14l-95 88zM130 667v-667h-44v667h44z" />
    <glyph glyph-name="Idieresis" unicode="&#xcf;" horiz-adv-x="217" 
d="M130 667v-667h-44v667h44zM175 824q14 0 23.5 -9.5t9.5 -23.5t-9.5 -24t-23.5 -10q-13 0 -23 10t-10 24q0 13 10 23t23 10zM41 824q14 0 24 -9.5t10 -23.5t-10 -24t-24 -10q-13 0 -23 10t-10 24q0 13 10 23t23 10z" />
    <glyph glyph-name="Eth" unicode="&#xd0;" horiz-adv-x="625" 
d="M93 341h-58v39h58v287h125q177 0 274 -101q84 -88 84 -232q0 -166 -109 -256q-94 -78 -249 -78h-125v341zM303 341h-167v-300h85q152 0 237 90q74 78 74 203q0 143 -95 222q-83 70 -216 70h-85v-246h167v-39z" />
    <glyph glyph-name="Ntilde" unicode="&#xd1;" horiz-adv-x="712" 
d="M243 764q14 62 65 62q22 0 64 -20q30 -14 50 -14q25 0 32 33l33 -8q-11 -62 -65 -62q-25 0 -62 18q-33 16 -51 16q-23 0 -34 -33zM131 606v-606h-44v667h49l446 -606v606h44v-667h-49z" />
    <glyph glyph-name="Ograve" unicode="&#xd2;" horiz-adv-x="766" 
d="M410 745l-24 -14l-106 107l45 24zM49 333q0 92 46 173q45 77 120 123q78 47 168 47t168 -47q76 -46 121 -124q46 -80 46 -172t-46 -172q-45 -78 -121 -123q-78 -48 -168 -48q-89 0 -167 48q-76 45 -121 123q-46 80 -46 172zM93 333q0 -82 40 -152q39 -68 104 -108
q68 -42 146 -42q79 0 147 42q65 40 104 108q39 70 39 152t-39 153q-38 68 -104 108q-67 41 -146 41q-80 0 -147 -41q-66 -40 -104 -108q-40 -71 -40 -153z" />
    <glyph glyph-name="Oacute" unicode="&#xd3;" horiz-adv-x="766" 
d="M358 745l84 117l45 -24l-106 -107zM49 333q0 92 46 173q45 77 120 123q78 47 168 47t168 -47q76 -46 121 -124q46 -80 46 -172t-46 -172q-45 -78 -121 -123q-78 -48 -168 -48q-89 0 -167 48q-76 45 -121 123q-46 80 -46 172zM93 333q0 -82 40 -152q39 -68 104 -108
q68 -42 146 -42q79 0 147 42q65 40 104 108q39 70 39 152t-39 153q-38 68 -104 108q-67 41 -146 41q-80 0 -147 -41q-66 -40 -104 -108q-40 -71 -40 -153z" />
    <glyph glyph-name="Ocircumflex" unicode="&#xd4;" horiz-adv-x="766" 
d="M289 731l-28 14l100 109h45l100 -109l-28 -14l-94 88zM49 333q0 92 46 173q45 77 120 123q78 47 168 47t168 -47q76 -46 121 -124q46 -80 46 -172t-46 -172q-45 -78 -121 -123q-78 -48 -168 -48q-89 0 -167 48q-76 45 -121 123q-46 80 -46 172zM93 333q0 -82 40 -152
q39 -68 104 -108q68 -42 146 -42q79 0 147 42q65 40 104 108q39 70 39 152t-39 153q-38 68 -104 108q-67 41 -146 41q-80 0 -147 -41q-66 -40 -104 -108q-40 -71 -40 -153z" />
    <glyph glyph-name="Otilde" unicode="&#xd5;" horiz-adv-x="766" 
d="M262 764q14 62 65 62q22 0 64 -20q30 -14 50 -14q24 0 32 33l32 -8q-10 -62 -64 -62q-26 0 -62 18q-33 16 -51 16q-24 0 -34 -33zM49 333q0 92 46 173q45 77 120 123q78 47 168 47t168 -47q76 -46 121 -124q46 -80 46 -172t-46 -172q-45 -78 -121 -123q-78 -48 -168 -48
q-89 0 -167 48q-76 45 -121 123q-46 80 -46 172zM93 333q0 -82 40 -152q39 -68 104 -108q68 -42 146 -42q79 0 147 42q65 40 104 108q39 70 39 152t-39 153q-38 68 -104 108q-67 41 -146 41q-80 0 -147 -41q-66 -40 -104 -108q-40 -71 -40 -153z" />
    <glyph glyph-name="Odieresis" unicode="&#xd6;" horiz-adv-x="766" 
d="M49 333q0 92 46 173q45 77 120 123q78 47 168 47t168 -47q76 -46 121 -124q46 -80 46 -172t-46 -172q-45 -78 -121 -123q-78 -48 -168 -48q-89 0 -167 48q-76 45 -121 123q-46 80 -46 172zM93 333q0 -82 40 -152q39 -68 104 -108q68 -42 146 -42q79 0 147 42
q65 40 104 108q39 70 39 152t-39 153q-38 68 -104 108q-67 41 -146 41q-80 0 -147 -41q-66 -40 -104 -108q-40 -71 -40 -153zM475 824q14 0 24 -9.5t10 -23.5t-10 -24t-23 -10q-14 0 -24 10t-10 24q0 13 10 23t23 10zM292 824q13 0 23 -9.5t10 -23.5t-10 -24t-23 -10
q-14 0 -24 10t-10 24q0 13 10 23t24 10z" />
    <glyph glyph-name="multiply" unicode="&#xd7;" horiz-adv-x="556" 
d="M110 171l141 141l-141 141l27 27l141 -141l140 141l27 -27l-141 -141l141 -141l-27 -27l-140 141l-141 -141z" />
    <glyph glyph-name="Oslash" unicode="&#xd8;" horiz-adv-x="773" 
d="M610 587l79 81l23 -23l-79 -82q88 -98 88 -230q0 -92 -46 -172q-45 -78 -121 -123q-78 -48 -168 -48q-126 0 -223 90l-79 -81l-24 23l80 81q-88 98 -88 230q0 92 46 173q45 77 121 123q78 47 168 47q123 0 223 -89zM581 557q-84 78 -194 78q-80 0 -147 -41
q-66 -40 -105 -109q-39 -70 -39 -154q0 -111 73 -197zM604 533l-412 -423q85 -79 194 -79q79 0 147 42q65 40 104 108q40 71 40 153q0 113 -73 199z" />
    <glyph glyph-name="Ugrave" unicode="&#xd9;" horiz-adv-x="634" 
d="M350 745l-23 -14l-106 107l44 24zM131 667v-415q0 -54 5 -83t18 -52q22 -38 67.5 -62t96.5 -24q54 0 101 27q41 23 62 59q13 23 18 52t5 83v415h44v-436q0 -84 -27 -131q-32 -54 -92 -84q-52 -26 -111 -26q-68 0 -126 34q-50 29 -78 76q-27 47 -27 131v436h44z" />
    <glyph glyph-name="Uacute" unicode="&#xda;" horiz-adv-x="634" 
d="M285 745l85 117l45 -24l-106 -107zM131 667v-415q0 -54 5 -83t18 -52q22 -38 67.5 -62t96.5 -24q54 0 101 27q41 23 62 59q13 23 18 52t5 83v415h44v-436q0 -84 -27 -131q-32 -54 -92 -84q-52 -26 -111 -26q-68 0 -126 34q-50 29 -78 76q-27 47 -27 131v436h44z" />
    <glyph glyph-name="Ucircumflex" unicode="&#xdb;" horiz-adv-x="634" 
d="M223 731l-28 14l100 109h45l100 -109l-28 -14l-94 88zM131 667v-415q0 -54 5 -83t18 -52q22 -38 67.5 -62t96.5 -24q54 0 101 27q41 23 62 59q13 23 18 52t5 83v415h44v-436q0 -84 -27 -131q-32 -54 -92 -84q-52 -26 -111 -26q-68 0 -126 34q-50 29 -78 76
q-27 47 -27 131v436h44z" />
    <glyph glyph-name="Udieresis" unicode="&#xdc;" horiz-adv-x="634" 
d="M131 667v-415q0 -54 5 -83t18 -52q22 -38 67.5 -62t96.5 -24q54 0 101 27q41 23 62 59q13 23 18 52t5 83v415h44v-436q0 -84 -27 -131q-32 -54 -92 -84q-52 -26 -111 -26q-68 0 -126 34q-50 29 -78 76q-27 47 -27 131v436h44zM410 824q13 0 23 -9.5t10 -23.5t-10 -24
t-23 -10q-14 0 -24 10t-10 24q0 13 10 23t24 10zM226 824q13 0 23 -9.5t10 -23.5t-10 -24t-23 -10q-14 0 -24 10t-10 24q0 13 10 23t24 10z" />
    <glyph glyph-name="Yacute" unicode="&#xdd;" horiz-adv-x="483" 
d="M209 745l85 117l45 -24l-106 -107zM220 280l-213 387h48l187 -346l188 346h47l-213 -387v-280h-44v280z" />
    <glyph glyph-name="Thorn" unicode="&#xde;" horiz-adv-x="461" 
d="M87 667h44v-107h81q90 0 135 -26q41 -24 64.5 -67.5t23.5 -97.5q0 -58 -27 -105q-23 -40 -62 -62q-44 -26 -134 -26h-81v-176h-44v667zM131 520v-304h91q64 0 101 21q32 18 50.5 53t18.5 79q0 43 -18 77.5t-50 52.5q-37 21 -102 21h-91z" />
    <glyph glyph-name="germandbls" unicode="&#xdf;" horiz-adv-x="512" 
d="M70 0v504q0 80 53 130q45 42 112 42q83 0 131 -53q41 -46 41 -117q0 -54 -23 -95q-19 -36 -50 -50q65 -21 98 -71q28 -43 28 -103q0 -91 -63 -142q-56 -45 -143 -45h-42v39h45q78 0 122 46q39 40 39 103q0 70 -48 112q-40 36 -103 36h-1v37h1q45 0 74 41q25 36 25 86
q0 68 -39 106q-34 33 -87 33q-61 0 -97 -43q-31 -36 -31 -92v-504h-42z" />
    <glyph glyph-name="agrave" unicode="&#xe0;" horiz-adv-x="552" 
d="M288 545l-24 -14l-106 107l45 24zM482 0h-42v87q-37 -51 -79 -74t-98 -23q-100 0 -165 76q-57 66 -57 156q0 104 73 172q63 59 149 59q56 0 97.5 -23t79.5 -74v87h42v-443zM264 414q-84 0 -135 -61q-45 -53 -45 -131q0 -90 57 -145q50 -48 123 -48q84 0 134 61
q44 53 44 132q0 90 -56 145q-49 47 -122 47z" />
    <glyph glyph-name="aacute" unicode="&#xe1;" horiz-adv-x="552" 
d="M242 545l85 117l45 -24l-106 -107zM482 0h-42v87q-37 -51 -79 -74t-98 -23q-100 0 -165 76q-57 66 -57 156q0 104 73 172q63 59 149 59q56 0 97.5 -23t79.5 -74v87h42v-443zM264 414q-84 0 -135 -61q-45 -53 -45 -131q0 -90 57 -145q50 -48 123 -48q84 0 134 61
q44 53 44 132q0 90 -56 145q-49 47 -122 47z" />
    <glyph glyph-name="acircumflex" unicode="&#xe2;" horiz-adv-x="552" 
d="M167 531l-28 14l100 109h45l100 -109l-28 -14l-94 88zM482 0h-42v87q-37 -51 -79 -74t-98 -23q-100 0 -165 76q-57 66 -57 156q0 104 73 172q63 59 149 59q56 0 97.5 -23t79.5 -74v87h42v-443zM264 414q-84 0 -135 -61q-45 -53 -45 -131q0 -90 57 -145q50 -48 123 -48
q84 0 134 61q44 53 44 132q0 90 -56 145q-49 47 -122 47z" />
    <glyph glyph-name="atilde" unicode="&#xe3;" horiz-adv-x="552" 
d="M140 564q14 62 65 62q22 0 64 -20q30 -14 50 -14q25 0 32 33l33 -8q-11 -62 -65 -62q-25 0 -62 18q-33 16 -51 16q-23 0 -34 -33zM482 0h-42v87q-37 -51 -79 -74t-98 -23q-100 0 -165 76q-57 66 -57 156q0 104 73 172q63 59 149 59q56 0 97.5 -23t79.5 -74v87h42v-443z
M264 414q-84 0 -135 -61q-45 -53 -45 -131q0 -90 57 -145q50 -48 123 -48q84 0 134 61q44 53 44 132q0 90 -56 145q-49 47 -122 47z" />
    <glyph glyph-name="adieresis" unicode="&#xe4;" horiz-adv-x="552" 
d="M482 0h-42v87q-37 -51 -79 -74t-98 -23q-100 0 -165 76q-57 66 -57 156q0 104 73 172q63 59 149 59q56 0 97.5 -23t79.5 -74v87h42v-443zM264 414q-84 0 -135 -61q-45 -53 -45 -131q0 -90 57 -145q50 -48 123 -48q84 0 134 61q44 53 44 132q0 90 -56 145q-49 47 -122 47z
M178 622q14 0 23.5 -9.5t9.5 -23.5t-9.5 -24t-23.5 -10q-13 0 -23 10t-10 24q0 13 9.5 23t23.5 10zM362 622q14 0 23.5 -9.5t9.5 -23.5t-9.5 -24t-23.5 -10t-23.5 10t-9.5 24q0 13 9.5 23t23.5 10z" />
    <glyph glyph-name="aring" unicode="&#xe5;" horiz-adv-x="552" 
d="M197 591q0 33 25 55q22 20 51 20q35 0 57 -25q20 -21 20 -50q0 -34 -25 -56q-22 -19 -52 -19q-34 0 -57 25q-19 21 -19 50zM222 591q0 -22 15 -37t36 -15q22 0 37 15t15 37q0 21 -15 36t-37 15q-21 0 -36 -15t-15 -36zM482 0h-42v87q-37 -51 -79 -74t-98 -23
q-100 0 -165 76q-57 66 -57 156q0 104 73 172q63 59 149 59q56 0 97.5 -23t79.5 -74v87h42v-443zM264 414q-84 0 -135 -61q-45 -53 -45 -131q0 -90 57 -145q50 -48 123 -48q84 0 134 61q44 53 44 132q0 90 -56 145q-49 47 -122 47z" />
    <glyph glyph-name="ae" unicode="&#xe6;" horiz-adv-x="842" 
d="M786 93q-72 -103 -185 -103q-64 0 -115 33q-44 28 -69 76q-34 -109 -183 -109q-97 0 -148 44q-45 37 -45 100q0 72 53 110q46 32 124 32h166q-4 54 -24 84q-38 54 -134 54q-40 0 -72 -10.5t-68 -36.5l-20 28q44 31 83.5 44.5t86.5 13.5q88 0 139 -47q24 -23 38 -68
q28 57 81 88q46 27 100 27q96 0 155 -76q52 -66 52 -162v-11h-374q4 -37 12 -60.5t25 -46.5q50 -68 136 -68q93 0 148 80zM385 240h-152q-77 0 -116 -31q-34 -28 -34 -76q0 -53 45 -80q39 -24 106 -24q77 0 116 32q35 29 35 77v102zM427 240h332q-11 89 -59 134
q-42 40 -105 40q-82 0 -131 -67q-30 -40 -37 -107z" />
    <glyph glyph-name="ccedilla" unicode="&#xe7;" horiz-adv-x="453" 
d="M275 -80l-84 -107l-27 13l70 111zM421 388l-28 -28q-55 54 -127 54q-86 0 -137 -61q-45 -52 -45 -131q0 -91 58 -146q50 -47 125 -47q77 0 129 58l29 -29q-67 -68 -158 -68q-103 0 -169 75q-57 65 -57 157q0 106 73 173q63 58 153 58q45 0 80 -15t74 -50z" />
    <glyph glyph-name="egrave" unicode="&#xe8;" horiz-adv-x="499" 
d="M281 545l-24 -14l-106 107l45 24zM84 204q6 -83 59 -132q47 -43 114 -43q94 0 148 80l38 -16q-69 -103 -185 -103q-100 0 -163 75q-54 65 -54 157q0 104 69 172q59 59 141 59q96 0 155 -76q52 -66 52 -162q0 -2 -1 -11h-373zM84 240h332q-11 89 -59 134q-42 40 -105 40
q-74 0 -122 -55q-41 -48 -46 -119z" />
    <glyph glyph-name="eacute" unicode="&#xe9;" horiz-adv-x="499" 
d="M219 545l85 117l45 -24l-106 -107zM84 204q6 -83 59 -132q47 -43 114 -43q94 0 148 80l38 -16q-69 -103 -185 -103q-100 0 -163 75q-54 65 -54 157q0 104 69 172q59 59 141 59q96 0 155 -76q52 -66 52 -162q0 -2 -1 -11h-373zM84 240h332q-11 89 -59 134q-42 40 -105 40
q-74 0 -122 -55q-41 -48 -46 -119z" />
    <glyph glyph-name="ecircumflex" unicode="&#xea;" horiz-adv-x="499" 
d="M155 531l-28 14l100 109h45l100 -109l-28 -14l-95 88zM84 204q6 -83 59 -132q47 -43 114 -43q94 0 148 80l38 -16q-69 -103 -185 -103q-100 0 -163 75q-54 65 -54 157q0 104 69 172q59 59 141 59q96 0 155 -76q52 -66 52 -162q0 -2 -1 -11h-373zM84 240h332
q-11 89 -59 134q-42 40 -105 40q-74 0 -122 -55q-41 -48 -46 -119z" />
    <glyph glyph-name="edieresis" unicode="&#xeb;" horiz-adv-x="499" 
d="M84 204q6 -83 59 -132q47 -43 114 -43q94 0 148 80l38 -16q-69 -103 -185 -103q-100 0 -163 75q-54 65 -54 157q0 104 69 172q59 59 141 59q96 0 155 -76q52 -66 52 -162q0 -2 -1 -11h-373zM84 240h332q-11 89 -59 134q-42 40 -105 40q-74 0 -122 -55q-41 -48 -46 -119z
M157 622q14 0 24 -9.5t10 -23.5t-10 -24t-24 -10q-13 0 -23 10t-10 24q0 13 10 23t23 10zM341 622q14 0 24 -9.5t10 -23.5t-10 -24t-24 -10q-13 0 -23 10t-10 24q0 13 10 23t23 10z" />
    <glyph glyph-name="igrave" unicode="&#xec;" horiz-adv-x="182" 
d="M111 545l-24 -14l-106 107l45 24zM111 443v-443h-41v443h41z" />
    <glyph glyph-name="iacute" unicode="&#xed;" horiz-adv-x="182" 
d="M71 545l85 117l44 -24l-106 -107zM112 443v-443h-42v443h42z" />
    <glyph glyph-name="icircumflex" unicode="&#xee;" horiz-adv-x="182" 
d="M-4 531l-28 14l100 109h45l100 -109l-28 -14l-95 88zM111 443v-443h-41v443h41z" />
    <glyph glyph-name="idieresis" unicode="&#xef;" horiz-adv-x="182" 
d="M111 443v-443h-41v443h41zM23 622q14 0 24 -9.5t10 -23.5t-10 -24t-24 -10q-13 0 -23 10t-10 24q0 13 10 23t23 10zM157 622q14 0 23.5 -9.5t9.5 -23.5t-9.5 -24t-23.5 -10q-13 0 -23 10t-10 24q0 13 10 23t23 10z" />
    <glyph glyph-name="eth" unicode="&#xf0;" horiz-adv-x="533" 
d="M305 602q97 -61 145 -158q41 -85 41 -191q0 -127 -70 -200q-60 -63 -155 -63q-101 0 -167 76q-57 65 -57 156q0 104 72 172q63 59 150 59q94 0 158 -73q-26 77 -60 120t-98 81l-84 -45l-22 23l73 38q-47 21 -113 32l6 35q56 -10 84 -18t66 -27l76 39l20 -22zM447 222
q0 90 -58 145q-49 47 -123 47q-85 0 -136 -61q-45 -53 -45 -131q0 -90 58 -145q50 -47 123 -47q84 0 136 61q45 53 45 131z" />
    <glyph glyph-name="ntilde" unicode="&#xf1;" horiz-adv-x="510" 
d="M139 564q13 62 64 62q22 0 65 -20q29 -14 50 -14q24 0 32 33l32 -8q-11 -62 -64 -62q-26 0 -63 18q-32 16 -51 16q-23 0 -33 -33zM112 443v-72q51 82 154 82q80 0 130 -53q24 -26 34.5 -63t10.5 -96v-241h-42v232q0 80 -22 120q-15 29 -46.5 45t-70.5 16q-41 0 -75 -18
t-51 -47q-22 -41 -22 -126v-222h-42v443h42z" />
    <glyph glyph-name="ograve" unicode="&#xf2;" horiz-adv-x="530" 
d="M291 545l-24 -14l-106 107l45 24zM265 453q102 0 167 -75q57 -65 57 -156q0 -105 -73 -173q-63 -59 -151 -59q-102 0 -167 76q-57 65 -57 157q0 104 73 171q63 59 151 59zM265 414q-85 0 -136 -61q-45 -53 -45 -131q0 -90 58 -145q49 -48 123 -48q85 0 136 62
q45 53 45 131q0 90 -58 145q-49 47 -123 47z" />
    <glyph glyph-name="oacute" unicode="&#xf3;" horiz-adv-x="530" 
d="M239 545l85 117l45 -24l-106 -107zM265 453q102 0 167 -75q57 -65 57 -156q0 -105 -73 -173q-63 -59 -151 -59q-102 0 -167 76q-57 65 -57 157q0 104 73 171q63 59 151 59zM265 414q-85 0 -136 -61q-45 -53 -45 -131q0 -90 58 -145q49 -48 123 -48q85 0 136 62
q45 53 45 131q0 90 -58 145q-49 47 -123 47z" />
    <glyph glyph-name="ocircumflex" unicode="&#xf4;" horiz-adv-x="530" 
d="M359 531l-94 88l-94 -88l-28 14l99 109h46l99 -109zM265 453q102 0 167 -75q57 -65 57 -156q0 -105 -73 -173q-63 -59 -151 -59q-102 0 -167 76q-57 65 -57 157q0 104 73 171q63 59 151 59zM265 414q-85 0 -136 -61q-45 -53 -45 -131q0 -90 57 -145q50 -48 124 -48
q85 0 136 61q45 54 45 132q0 90 -58 145q-49 47 -123 47z" />
    <glyph glyph-name="otilde" unicode="&#xf5;" horiz-adv-x="530" 
d="M143 564q14 62 65 62q22 0 64 -20q30 -14 50 -14q25 0 33 33l32 -8q-11 -62 -65 -62q-25 0 -62 18q-33 16 -51 16q-23 0 -34 -33zM265 453q102 0 167 -75q57 -65 57 -156q0 -105 -73 -173q-63 -59 -151 -59q-102 0 -167 76q-57 65 -57 157q0 104 73 171q63 59 151 59z
M265 414q-85 0 -136 -61q-45 -53 -45 -131q0 -90 58 -145q49 -48 123 -48q85 0 136 62q45 53 45 131q0 90 -58 145q-49 47 -123 47z" />
    <glyph glyph-name="odieresis" unicode="&#xf6;" horiz-adv-x="530" 
d="M265 453q102 0 167 -75q57 -65 57 -156q0 -105 -73 -173q-63 -59 -151 -59q-102 0 -167 76q-57 65 -57 157q0 104 73 171q63 59 151 59zM265 414q-85 0 -136 -61q-45 -53 -45 -131q0 -90 58 -145q49 -48 123 -48q85 0 136 62q45 53 45 131q0 90 -58 145q-49 47 -123 47z
M357 622q14 0 23.5 -9.5t9.5 -23.5t-10 -24t-23 -10q-14 0 -24 10t-10 24q0 13 10 23t24 10zM173 622q14 0 23.5 -9.5t9.5 -23.5t-9.5 -24t-23.5 -10t-23.5 10t-9.5 24q0 13 9.5 23t23.5 10z" />
    <glyph glyph-name="divide" unicode="&#xf7;" horiz-adv-x="556" 
d="M480 330v-36h-403v36h403zM242 139q0 16 10.5 27t26.5 11q15 0 26 -11t11 -27q0 -15 -11 -26t-27 -11q-15 0 -25.5 11t-10.5 26zM242 485q0 15 10.5 26t26.5 11q15 0 26 -11t11 -26q0 -16 -11 -27t-26 -11q-16 0 -26.5 11t-10.5 27z" />
    <glyph glyph-name="oslash" unicode="&#xf8;" horiz-adv-x="544" 
d="M444 372q52 -65 52 -149q0 -106 -73 -174q-63 -59 -152 -59q-86 0 -150 60l-51 -51l-22 21l52 52q-52 63 -52 150q0 105 73 172q63 59 152 59q86 0 150 -59l51 50l22 -21zM416 344l-268 -267q51 -48 123 -48q86 0 137 61q45 53 45 133q0 72 -37 121zM128 100l268 267
q-51 47 -123 47q-87 0 -138 -61q-44 -53 -44 -134q0 -66 37 -119z" />
    <glyph glyph-name="ugrave" unicode="&#xf9;" horiz-adv-x="510" 
d="M283 545l-24 -14l-106 107l45 24zM399 0v72q-51 -82 -154 -82q-81 0 -130 53q-24 26 -34.5 63t-10.5 96v241h42v-232q0 -80 21 -120q16 -28 47 -44.5t71 -16.5t74.5 18t50.5 48q23 41 23 126v221h42v-443h-42z" />
    <glyph glyph-name="uacute" unicode="&#xfa;" horiz-adv-x="510" 
d="M224 545l85 117l45 -24l-106 -107zM399 0v72q-51 -82 -154 -82q-81 0 -130 53q-24 26 -34.5 63t-10.5 96v241h42v-232q0 -80 21 -120q16 -28 47 -44.5t71 -16.5t74.5 18t50.5 48q23 41 23 126v221h42v-443h-42z" />
    <glyph glyph-name="ucircumflex" unicode="&#xfb;" horiz-adv-x="510" 
d="M161 531l-28 14l100 109h45l100 -109l-28 -14l-95 88zM399 0v72q-51 -82 -154 -82q-81 0 -130 53q-24 26 -34.5 63t-10.5 96v241h42v-232q0 -80 21 -120q16 -28 47 -44.5t71 -16.5t74.5 18t50.5 48q23 41 23 126v221h42v-443h-42z" />
    <glyph glyph-name="udieresis" unicode="&#xfc;" horiz-adv-x="510" 
d="M399 0v72q-51 -82 -154 -82q-81 0 -130 53q-24 26 -34.5 63t-10.5 96v241h42v-232q0 -80 21 -120q16 -28 47 -44.5t71 -16.5t74.5 18t50.5 48q23 41 23 126v221h42v-443h-42zM163 622q14 0 24 -9.5t10 -23.5t-10 -24t-24 -10q-13 0 -23 10t-10 24q0 13 10 23t23 10z
M347 622q14 0 24 -9.5t10 -23.5t-10 -24t-24 -10q-13 0 -23 10t-10 24q0 13 10 23t23 10z" />
    <glyph glyph-name="yacute" unicode="&#xfd;" horiz-adv-x="428" 
d="M185 545l85 117l45 -24l-106 -107zM189 11l-182 432h46l158 -381l164 381h45l-293 -676h-43z" />
    <glyph glyph-name="thorn" unicode="&#xfe;" horiz-adv-x="553" 
d="M71 -233v900h42v-311q67 97 177 97q100 0 165 -76q57 -65 57 -155q0 -105 -73 -173q-63 -59 -150 -59q-108 0 -176 97v-320h-42zM289 414q-84 0 -134 -61q-44 -53 -44 -131q0 -91 57 -145q48 -48 121 -48q84 0 135 61q45 53 45 132q0 90 -57 145q-50 47 -123 47z" />
    <glyph glyph-name="ydieresis" unicode="&#xff;" horiz-adv-x="428" 
d="M189 11l-182 432h46l158 -381l164 381h45l-293 -676h-43zM122 622q13 0 23 -9.5t10 -23.5t-10 -24t-23 -10q-14 0 -24 10t-10 24q0 13 10 23t24 10zM306 622q13 0 23 -9.5t10 -23.5t-10 -24t-23 -10q-14 0 -24 10t-10 24q0 13 10 23t24 10z" />
    <glyph glyph-name="Amacron" unicode="&#x100;" horiz-adv-x="609" 
d="M180 810h248v-38h-248v38zM58 0h-45l266 667h51l265 -667h-45l-78 197h-336zM152 238h304l-152 386z" />
    <glyph glyph-name="amacron" unicode="&#x101;" horiz-adv-x="552" 
d="M150 610h247v-38h-247v38zM482 0h-42v87q-37 -51 -79 -74t-98 -23q-100 0 -165 76q-57 66 -57 156q0 104 73 172q63 59 149 59q56 0 97.5 -23t79.5 -74v87h42v-443zM264 414q-84 0 -135 -61q-45 -53 -45 -131q0 -90 57 -145q50 -48 123 -48q84 0 134 61q44 53 44 132
q0 90 -56 145q-49 47 -122 47z" />
    <glyph glyph-name="Abreve" unicode="&#x102;" horiz-adv-x="609" 
d="M186 835l36 3q4 -34 26 -54t55 -20q32 0 54 19.5t28 54.5l36 -3q-10 -54 -44 -82q-31 -25 -74 -25q-52 0 -84 33q-28 28 -33 74zM58 0h-45l266 667h51l265 -667h-45l-78 197h-336zM152 238h304l-152 386z" />
    <glyph glyph-name="abreve" unicode="&#x103;" horiz-adv-x="552" 
d="M145 635l36 3q4 -33 26 -53.5t55 -20.5q32 0 54 19.5t28 54.5l36 -3q-10 -54 -44 -82q-31 -25 -74 -25q-52 0 -84 33q-28 28 -33 74zM482 0h-42v87q-37 -51 -79 -74t-98 -23q-100 0 -165 76q-57 66 -57 156q0 104 73 172q63 59 149 59q56 0 97.5 -23t79.5 -74v87h42v-443
zM264 414q-84 0 -135 -61q-45 -53 -45 -131q0 -90 57 -145q50 -48 123 -48q84 0 134 61q44 53 44 132q0 90 -56 145q-49 47 -122 47z" />
    <glyph glyph-name="Aogonek" unicode="&#x104;" horiz-adv-x="609" 
d="M554 0h-4l-78 197h-336l-78 -197h-45l266 667h51l265 -667q-34 -39 -34 -68q0 -35 44 -35q13 0 29 6l12 -30q-27 -10 -48 -10q-32 0 -53.5 19t-21.5 47q0 33 31 71zM152 238h304l-152 386z" />
    <glyph glyph-name="aogonek" unicode="&#x105;" horiz-adv-x="552" 
d="M482 443v-443q-34 -41 -34 -68q0 -35 43 -35q13 0 30 6l12 -30q-27 -10 -49 -10q-32 0 -53.5 19t-21.5 47q0 33 31 71v87q-37 -51 -79 -74t-98 -23q-100 0 -165 76q-57 66 -57 156q0 104 73 172q63 59 149 59q56 0 97.5 -23t79.5 -74v87h42zM264 414q-84 0 -135 -61
q-45 -53 -45 -131q0 -90 57 -145q50 -48 123 -48q84 0 134 61q44 53 44 132q0 90 -56 145q-49 47 -122 47z" />
    <glyph glyph-name="Cacute" unicode="&#x106;" horiz-adv-x="656" 
d="M357 745l85 117l45 -24l-106 -107zM612 581l-30 -30q-83 84 -196 84q-81 0 -149 -40q-66 -40 -105 -108q-39 -71 -39 -154t40 -153q38 -68 105 -108q68 -41 149 -41q58 0 105.5 21t93.5 66l30 -30q-52 -51 -106.5 -74.5t-121.5 -23.5q-93 0 -172 47q-76 45 -121 122
q-46 80 -46 174t46 174q44 77 121 123q78 46 171 46q126 0 225 -95z" />
    <glyph glyph-name="cacute" unicode="&#x107;" horiz-adv-x="453" 
d="M223 545l84 117l45 -24l-106 -107zM421 388l-28 -28q-55 54 -127 54q-86 0 -137 -61q-45 -52 -45 -131q0 -91 58 -146q50 -47 125 -47q77 0 129 58l29 -29q-67 -68 -158 -68q-103 0 -169 75q-57 65 -57 157q0 106 73 173q63 58 153 58q45 0 80 -15t74 -50z" />
    <glyph glyph-name="Ccircumflex" unicode="&#x108;" horiz-adv-x="656" 
d="M272 731l-28 14l100 109h45l100 -109l-28 -14l-95 88zM612 581l-30 -30q-83 84 -196 84q-81 0 -149 -40q-66 -40 -105 -108q-39 -71 -39 -154t40 -153q38 -68 105 -108q68 -41 149 -41q58 0 105.5 21t93.5 66l30 -30q-52 -51 -106.5 -74.5t-121.5 -23.5q-93 0 -172 47
q-76 45 -121 122q-46 80 -46 174t46 174q44 77 121 123q78 46 171 46q126 0 225 -95z" />
    <glyph glyph-name="ccircumflex" unicode="&#x109;" horiz-adv-x="453" 
d="M156 531l-28 14l100 109h45l100 -109l-28 -14l-94 88zM421 388l-28 -28q-55 54 -127 54q-86 0 -137 -61q-45 -52 -45 -131q0 -91 58 -146q50 -47 125 -47q77 0 129 58l29 -29q-67 -68 -158 -68q-103 0 -169 75q-57 65 -57 157q0 106 73 173q63 58 153 58q45 0 80 -15
t74 -50z" />
    <glyph glyph-name="Cdotaccent" unicode="&#x10a;" horiz-adv-x="656" 
d="M612 581l-30 -30q-83 84 -196 84q-81 0 -149 -40q-66 -40 -105 -108q-39 -71 -39 -154t40 -153q38 -68 105 -108q68 -41 149 -41q58 0 105.5 21t93.5 66l30 -30q-52 -51 -106.5 -74.5t-121.5 -23.5q-93 0 -172 47q-76 45 -121 122q-46 80 -46 174t46 174q44 77 121 123
q78 46 171 46q126 0 225 -95zM375 824q14 0 23.5 -9.5t9.5 -23.5t-10 -24t-23 -10q-14 0 -24 10t-10 24q0 13 10 23t24 10z" />
    <glyph glyph-name="cdotaccent" unicode="&#x10b;" horiz-adv-x="453" 
d="M421 388l-28 -28q-55 54 -127 54q-86 0 -137 -61q-45 -52 -45 -131q0 -91 58 -146q50 -47 125 -47q77 0 129 58l29 -29q-67 -68 -158 -68q-103 0 -169 75q-57 65 -57 157q0 106 73 173q63 58 153 58q45 0 80 -15t74 -50zM254 622q14 0 23.5 -9.5t9.5 -23.5t-9.5 -24
t-23.5 -10t-23.5 10t-9.5 24q0 13 9.5 23t23.5 10z" />
    <glyph glyph-name="Ccaron" unicode="&#x10c;" horiz-adv-x="656" 
d="M272 857l94 -89l95 89l28 -14l-100 -109h-45l-100 109zM612 581l-30 -30q-83 84 -196 84q-81 0 -149 -40q-66 -40 -105 -108q-39 -71 -39 -154t40 -153q38 -68 105 -108q68 -41 149 -41q58 0 105.5 21t93.5 66l30 -30q-52 -51 -106.5 -74.5t-121.5 -23.5q-93 0 -172 47
q-76 45 -121 122q-46 80 -46 174t46 174q44 77 121 123q78 46 171 46q126 0 225 -95z" />
    <glyph glyph-name="ccaron" unicode="&#x10d;" horiz-adv-x="453" 
d="M156 657l95 -89l94 89l28 -14l-100 -109h-45l-100 109zM421 388l-28 -28q-55 54 -127 54q-86 0 -137 -61q-45 -52 -45 -131q0 -91 58 -146q50 -47 125 -47q77 0 129 58l29 -29q-67 -68 -158 -68q-103 0 -169 75q-57 65 -57 157q0 106 73 173q63 58 153 58q45 0 80 -15
t74 -50z" />
    <glyph glyph-name="Dcaron" unicode="&#x10e;" horiz-adv-x="619" 
d="M196 857l94 -89l95 89l28 -14l-100 -109h-45l-100 109zM87 667h125q178 0 274 -101q84 -88 84 -232q0 -166 -108 -256q-95 -78 -250 -78h-125v667zM131 626v-585h85q152 0 237 90q73 78 73 203q0 143 -95 222q-83 70 -215 70h-85z" />
    <glyph glyph-name="dcaron" unicode="&#x10f;" horiz-adv-x="632" 
d="M588 678l43 -13l-56 -128l-26 8zM482 0h-42v87q-67 -97 -177 -97q-100 0 -165 76q-57 66 -57 156q0 104 73 172q63 59 150 59q108 0 176 -97v311h42v-667zM264 414q-84 0 -136 -61q-44 -53 -44 -131q0 -90 57 -145q50 -48 123 -48q83 0 134 61q44 54 44 132q0 90 -57 145
q-48 47 -121 47z" />
    <glyph glyph-name="Dcroat" unicode="&#x110;" horiz-adv-x="625" 
d="M93 341h-58v39h58v287h125q177 0 274 -101q84 -88 84 -232q0 -166 -109 -256q-94 -78 -249 -78h-125v341zM303 341h-167v-300h85q152 0 237 90q74 78 74 203q0 143 -95 222q-83 70 -216 70h-85v-246h167v-39z" />
    <glyph glyph-name="dcroat" unicode="&#x111;" horiz-adv-x="553" 
d="M482 0h-42v87q-67 -97 -177 -97q-100 0 -165 76q-57 66 -57 156q0 104 73 172q63 59 150 59q108 0 176 -97v178h-123v38h123v95h42v-95h62v-38h-62v-534zM264 414q-84 0 -136 -61q-44 -53 -44 -131q0 -90 57 -145q50 -48 123 -48q83 0 134 61q44 54 44 132q0 90 -57 145
q-48 47 -121 47z" />
    <glyph glyph-name="Emacron" unicode="&#x112;" horiz-adv-x="469" 
d="M130 810h248v-38h-248v38zM411 626h-280v-267h248v-41h-248v-277h290v-41h-334v667h324v-41z" />
    <glyph glyph-name="emacron" unicode="&#x113;" horiz-adv-x="499" 
d="M126 610h247v-38h-247v38zM84 204q6 -83 59 -132q47 -43 114 -43q94 0 148 80l38 -16q-69 -103 -185 -103q-100 0 -163 75q-54 65 -54 157q0 104 69 172q59 59 141 59q96 0 155 -76q52 -66 52 -162q0 -2 -1 -11h-373zM84 240h332q-11 89 -59 134q-42 40 -105 40
q-74 0 -122 -55q-41 -48 -46 -119z" />
    <glyph glyph-name="Ebreve" unicode="&#x114;" horiz-adv-x="469" 
d="M136 835l36 3q3 -33 25.5 -53.5t54.5 -20.5q33 0 55 19.5t28 54.5l36 -3q-10 -54 -45 -82q-30 -25 -73 -25q-52 0 -84 33q-28 28 -33 74zM411 626h-280v-267h248v-41h-248v-277h290v-41h-334v667h324v-41z" />
    <glyph glyph-name="ebreve" unicode="&#x115;" horiz-adv-x="499" 
d="M135 635l36 3q3 -33 25.5 -53.5t54.5 -20.5q33 0 55 19.5t28 54.5l36 -3q-10 -54 -45 -82q-30 -25 -73 -25q-52 0 -84 33q-28 28 -33 74zM84 204q6 -83 59 -132q47 -43 114 -43q94 0 148 80l38 -16q-69 -103 -185 -103q-100 0 -163 75q-54 65 -54 157q0 104 69 172
q59 59 141 59q96 0 155 -76q52 -66 52 -162q0 -2 -1 -11h-373zM84 240h332q-11 89 -59 134q-42 40 -105 40q-74 0 -122 -55q-41 -48 -46 -119z" />
    <glyph glyph-name="Edotaccent" unicode="&#x116;" horiz-adv-x="469" 
d="M411 626h-280v-267h248v-41h-248v-277h290v-41h-334v667h324v-41zM254 824q14 0 23.5 -9.5t9.5 -23.5t-9.5 -24t-23.5 -10t-23.5 10t-9.5 24q0 13 9.5 23t23.5 10z" />
    <glyph glyph-name="edotaccent" unicode="&#x117;" horiz-adv-x="499" 
d="M84 204q6 -83 59 -132q47 -43 114 -43q94 0 148 80l38 -16q-69 -103 -185 -103q-100 0 -163 75q-54 65 -54 157q0 104 69 172q59 59 141 59q96 0 155 -76q52 -66 52 -162q0 -2 -1 -11h-373zM84 240h332q-11 89 -59 134q-42 40 -105 40q-74 0 -122 -55q-41 -48 -46 -119z
M249 622q14 0 24 -9.5t10 -23.5t-10 -24t-24 -10q-13 0 -23 10t-10 24q0 13 10 23t23 10z" />
    <glyph glyph-name="Eogonek" unicode="&#x118;" horiz-adv-x="469" 
d="M421 0q-34 -41 -34 -68q0 -35 43 -35q13 0 30 6l12 -30q-27 -10 -49 -10q-32 0 -53.5 19t-21.5 47q0 33 31 71h-292v667h324v-41h-280v-267h248v-41h-248v-277h290v-41z" />
    <glyph glyph-name="eogonek" unicode="&#x119;" horiz-adv-x="499" 
d="M272 -9q-27 -34 -27 -58q0 -36 44 -36q13 0 29 6l12 -30q-27 -10 -48 -10q-32 0 -53.5 19t-21.5 46q0 32 24 64q-88 9 -142 82q-48 63 -48 148q0 104 69 172q59 59 141 59q96 0 155 -76q52 -66 52 -162q0 -2 -1 -11h-373q6 -83 59 -132q47 -43 114 -43q94 0 148 80
l38 -16q-64 -93 -171 -102zM84 240h332q-11 89 -59 134q-42 40 -105 40q-74 0 -122 -55q-41 -48 -46 -119z" />
    <glyph glyph-name="Ecaron" unicode="&#x11a;" horiz-adv-x="469" 
d="M160 857l94 -89l94 89l28 -14l-99 -109h-46l-99 109zM411 626h-280v-267h248v-41h-248v-277h290v-41h-334v667h324v-41z" />
    <glyph glyph-name="ecaron" unicode="&#x11b;" horiz-adv-x="499" 
d="M155 657l94 -89l95 89l28 -14l-100 -109h-45l-100 109zM84 204q6 -83 59 -132q47 -43 114 -43q94 0 148 80l38 -16q-69 -103 -185 -103q-100 0 -163 75q-54 65 -54 157q0 104 69 172q59 59 141 59q96 0 155 -76q52 -66 52 -162q0 -2 -1 -11h-373zM84 240h332
q-11 89 -59 134q-42 40 -105 40q-74 0 -122 -55q-41 -48 -46 -119z" />
    <glyph glyph-name="Gcircumflex" unicode="&#x11c;" horiz-adv-x="728" 
d="M276 731l-28 14l100 109h45l99 -109l-28 -14l-94 88zM634 289h-204v40h248v-22q0 -154 -89 -241q-77 -76 -199 -76q-94 0 -173 47q-77 45 -122 122q-46 80 -46 174t46 174q44 77 121 123q78 46 171 46q127 0 225 -95l-30 -30q-82 84 -196 84q-81 0 -149 -40
q-66 -40 -105 -108q-39 -70 -39 -154q0 -83 40 -153q39 -68 105 -108q69 -41 150 -41q70 0 126 32q49 27 79 74q21 32 30.5 66.5t10.5 85.5z" />
    <glyph glyph-name="gcircumflex" unicode="&#x11d;" horiz-adv-x="552" 
d="M356 531l-95 88l-94 -88l-28 14l100 109h45l100 -109zM482 443v-451q0 -114 -71 -179q-61 -56 -157 -56q-113 0 -191 88l28 28q36 -41 73.5 -59t87.5 -18q93 0 144 59q44 52 44 137v14v81q-67 -97 -176 -97q-101 0 -166 76q-57 65 -57 156q0 104 73 172q63 59 150 59
q108 0 176 -97v87h42zM264 414q-84 0 -135 -61q-45 -53 -45 -131q0 -90 57 -145q50 -48 123 -48q83 0 134 61q44 54 44 132q0 90 -56 145q-49 47 -122 47z" />
    <glyph glyph-name="Gbreve" unicode="&#x11e;" horiz-adv-x="728" 
d="M270 835l36 3q4 -34 26 -54t55 -20q32 0 54 19.5t28 54.5l36 -3q-10 -54 -44 -82q-31 -25 -74 -25q-52 0 -84 33q-28 28 -33 74zM634 289h-204v40h248v-22q0 -154 -89 -241q-77 -76 -199 -76q-94 0 -173 47q-77 45 -122 122q-46 80 -46 174t46 174q44 77 121 123
q78 46 171 46q127 0 225 -95l-30 -30q-82 84 -196 84q-81 0 -149 -40q-66 -40 -105 -108q-39 -70 -39 -154q0 -83 40 -153q39 -68 105 -108q69 -41 150 -41q70 0 126 32q49 27 79 74q21 32 30.5 66.5t10.5 85.5z" />
    <glyph glyph-name="gbreve" unicode="&#x11f;" horiz-adv-x="552" 
d="M145 635l36 3q3 -34 25.5 -54t54.5 -20q33 0 55 19.5t28 54.5l36 -3q-10 -54 -45 -82q-30 -25 -73 -25q-52 0 -84 33q-28 28 -33 74zM482 443v-451q0 -114 -71 -179q-61 -56 -157 -56q-113 0 -191 88l28 28q36 -41 73.5 -59t87.5 -18q93 0 144 59q44 52 44 137v14v81
q-67 -97 -176 -97q-101 0 -166 76q-57 65 -57 156q0 104 73 172q63 59 150 59q108 0 176 -97v87h42zM264 414q-84 0 -135 -61q-45 -53 -45 -131q0 -90 57 -145q50 -48 123 -48q83 0 134 61q44 54 44 132q0 90 -56 145q-49 47 -122 47z" />
    <glyph glyph-name="Gdotaccent" unicode="&#x120;" horiz-adv-x="728" 
d="M634 289h-204v40h248v-22q0 -154 -89 -241q-77 -76 -199 -76q-94 0 -173 47q-77 45 -122 122q-46 80 -46 174t46 174q44 77 121 123q78 46 171 46q127 0 225 -95l-30 -30q-82 84 -196 84q-81 0 -149 -40q-66 -40 -105 -108q-39 -70 -39 -154q0 -83 40 -153
q39 -68 105 -108q69 -41 150 -41q70 0 126 32q49 27 79 74q21 32 30.5 66.5t10.5 85.5zM387 824q14 0 23.5 -9.5t9.5 -23.5t-9.5 -24t-23.5 -10t-23.5 10t-9.5 24q0 13 9.5 23t23.5 10z" />
    <glyph glyph-name="gdotaccent" unicode="&#x121;" horiz-adv-x="552" 
d="M482 443v-451q0 -114 -71 -179q-61 -56 -157 -56q-113 0 -191 88l28 28q36 -41 73.5 -59t87.5 -18q93 0 144 59q44 52 44 137v14v81q-67 -97 -176 -97q-101 0 -166 76q-57 65 -57 156q0 104 73 172q63 59 150 59q108 0 176 -97v87h42zM264 414q-84 0 -135 -61
q-45 -53 -45 -131q0 -90 57 -145q50 -48 123 -48q83 0 134 61q44 54 44 132q0 90 -56 145q-49 47 -122 47zM262 622q13 0 23 -9.5t10 -23.5t-10 -24t-23 -10q-14 0 -24 10t-10 24q0 13 10 23t24 10z" />
    <glyph glyph-name="Gcommaaccent" unicode="&#x122;" horiz-adv-x="728" 
d="M361 -63l43 -13l-55 -128l-27 8zM634 289h-204v40h248v-22q0 -154 -89 -241q-77 -76 -199 -76q-94 0 -173 47q-77 45 -122 122q-46 80 -46 174t46 174q44 77 121 123q78 46 171 46q127 0 225 -95l-30 -30q-82 84 -196 84q-81 0 -149 -40q-66 -40 -105 -108
q-39 -70 -39 -154q0 -83 40 -153q39 -68 105 -108q69 -41 150 -41q70 0 126 32q49 27 79 74q21 32 30.5 66.5t10.5 85.5z" />
    <glyph glyph-name="gcommaaccent" unicode="&#x123;" horiz-adv-x="552" 
d="M290 521l-42 13l55 129l27 -9zM482 443v-451q0 -114 -71 -179q-61 -56 -157 -56q-113 0 -191 88l28 28q36 -41 73.5 -59t87.5 -18q93 0 144 59q44 52 44 137v14v81q-67 -97 -176 -97q-101 0 -166 76q-57 65 -57 156q0 104 73 172q63 59 150 59q108 0 176 -97v87h42z
M264 414q-84 0 -135 -61q-45 -53 -45 -131q0 -90 57 -145q50 -48 123 -48q83 0 134 61q44 54 44 132q0 90 -56 145q-49 47 -122 47z" />
    <glyph glyph-name="Hcircumflex" unicode="&#x124;" horiz-adv-x="650" 
d="M231 731l-28 14l100 109h45l100 -109l-28 -14l-95 88zM131 359h389v308h43v-667h-43v318h-389v-318h-44v667h44v-308z" />
    <glyph glyph-name="hcircumflex" unicode="&#x125;" horiz-adv-x="510" 
d="M164 731l-28 14l100 109h45l100 -109l-28 -14l-95 88zM112 371q51 82 154 82q80 0 130 -53q24 -26 34.5 -63t10.5 -96v-241h-42v232q0 80 -22 120q-15 29 -46.5 45t-70.5 16q-41 0 -75 -18t-51 -47q-22 -41 -22 -126v-222h-42v667h42v-296z" />
    <glyph glyph-name="Hbar" unicode="&#x126;" horiz-adv-x="658" 
d="M629 572v-38h-62v-534h-44v318h-389v-318h-44v534h-62v38h62v95h44v-95h389v95h44v-95h62zM523 534h-389v-175h389v175z" />
    <glyph glyph-name="hbar" unicode="&#x127;" horiz-adv-x="511" 
d="M70 572v95h42v-95h124v-38h-124v-163q51 82 154 82q81 0 130 -53q45 -49 45 -159v-241h-41v232q0 80 -22 120q-16 29 -47 45t-70 16q-41 0 -75.5 -18t-50.5 -47q-23 -41 -23 -126v-222h-42v534h-62v38h62z" />
    <glyph glyph-name="Itilde" unicode="&#x128;" horiz-adv-x="217" 
d="M-13 764q14 62 65 62q22 0 64 -20q30 -14 50 -14q24 0 32 33l32 -8q-10 -62 -64 -62q-26 0 -62 18q-33 16 -52 16q-23 0 -33 -33zM130 667v-667h-43v667h43z" />
    <glyph glyph-name="itilde" unicode="&#x129;" horiz-adv-x="182" 
d="M-31 564q14 62 65 62q22 0 64 -20q30 -14 50 -14q24 0 32 33l32 -8q-10 -62 -64 -62q-26 0 -62 18q-33 16 -52 16q-23 0 -33 -33zM111 443v-443h-41v443h41z" />
    <glyph glyph-name="Imacron" unicode="&#x12a;" horiz-adv-x="217" 
d="M-15 810h248v-38h-248v38zM131 667v-667h-44v667h44z" />
    <glyph glyph-name="imacron" unicode="&#x12b;" horiz-adv-x="182" 
d="M-33 610h248v-38h-248v38zM112 443v-443h-42v443h42z" />
    <glyph glyph-name="Ibreve" unicode="&#x12c;" horiz-adv-x="217" 
d="M131 667v-667h-44v667h44zM-9 835l36 3q4 -34 26 -54t55 -20q32 0 54 19.5t29 54.5l35 -3q-10 -54 -44 -82q-31 -25 -74 -25q-52 0 -84 33q-28 28 -33 74z" />
    <glyph glyph-name="ibreve" unicode="&#x12d;" horiz-adv-x="182" 
d="M111 443v-443h-41v443h41zM-27 635l36 3q4 -34 26 -54t55 -20q32 0 54 19.5t29 54.5l35 -3q-10 -54 -44 -82q-31 -25 -74 -25q-52 0 -84 33q-28 28 -33 74z" />
    <glyph glyph-name="Iogonek" unicode="&#x12e;" horiz-adv-x="217" 
d="M181 -127q-27 -10 -48 -10q-32 0 -53.5 19t-21.5 47q0 33 31 71h-2v667h44v-667q-34 -41 -34 -68q0 -35 43 -35q13 0 29 6z" />
    <glyph glyph-name="iogonek" unicode="&#x12f;" horiz-adv-x="182" 
d="M162 -127q-27 -10 -48 -10q-32 0 -53.5 19t-21.5 47q0 34 31 71v443h42v-443q-34 -41 -34 -68q0 -35 43 -35q13 0 29 6zM91 623q14 0 24 -10t10 -24t-10 -24t-24 -10t-24 10t-10 24t10 24t24 10z" />
    <glyph glyph-name="Idotaccent" unicode="&#x130;" horiz-adv-x="217" 
d="M130 667v-667h-44v667h44zM108 824q14 0 24 -9.5t10 -23.5t-10 -24t-24 -10q-13 0 -23 10t-10 24q0 13 10 23t23 10z" />
    <glyph glyph-name="dotlessi" unicode="&#x131;" horiz-adv-x="181" 
d="M112 443v-443h-42v443h42z" />
    <glyph glyph-name="IJ" unicode="&#x132;" horiz-adv-x="597" 
d="M131 667v-667h-44v667h44zM511 667v-471q0 -88 -28 -138q-18 -32 -52 -50t-75 -18q-37 0 -68 13.5t-69 46.5l26 31q32 -27 56.5 -38.5t52.5 -11.5q113 0 113 165v471h44z" />
    <glyph glyph-name="ij" unicode="&#x133;" horiz-adv-x="369" 
d="M111 443v-443h-41v443h41zM91 623q14 0 23.5 -10t9.5 -24t-9.5 -24t-23.5 -10t-24 10t-10 24t10 24t24 10zM173 -233v38q15 -4 26 -4q31 0 44.5 22.5t13.5 73.5v546h42v-546q0 -136 -92 -136q-16 0 -34 6zM278 623q14 0 24 -10t10 -24t-10 -24t-24 -10t-23.5 10t-9.5 24
t9.5 24t23.5 10z" />
    <glyph glyph-name="Jcircumflex" unicode="&#x134;" horiz-adv-x="389" 
d="M146 731l-28 14l100 109h45l100 -109l-28 -14l-95 88zM302 667v-471q0 -88 -29 -138q-18 -32 -51.5 -50t-74.5 -18q-37 0 -68 13.5t-69 46.5l26 31q32 -27 56 -38.5t53 -11.5q113 0 113 165v471h44z" />
    <glyph glyph-name="jcircumflex" unicode="&#x135;" horiz-adv-x="191" 
d="M-11 531l-28 14l100 109h45l100 -109l-28 -14l-95 88zM-5 -233v38q15 -4 26 -4q30 0 44 22.5t14 73.5v546h42v-546q0 -136 -92 -136q-16 0 -34 6z" />
    <glyph glyph-name="Kcommaaccent" unicode="&#x136;" horiz-adv-x="552" 
d="M289 -63l42 -13l-55 -128l-27 8zM280 395l259 -395h-51l-237 363l-120 -133v-230h-44v667h44v-381l342 381h52z" />
    <glyph glyph-name="kcommaaccent" unicode="&#x137;" horiz-adv-x="451" 
d="M221 -63l43 -13l-56 -128l-26 8zM413 443l-175 -176l205 -267h-51l-182 240l-98 -99v-141h-42v667h42v-474l248 250h53z" />
    <glyph glyph-name="kgreenlandic" unicode="&#x138;" horiz-adv-x="451" 
d="M413 443l-175 -176l205 -267h-51l-182 240l-98 -99v-141h-42v443h42v-250l248 250h53z" />
    <glyph glyph-name="Lacute" unicode="&#x139;" horiz-adv-x="415" 
d="M91 745l85 117l45 -24l-106 -107zM87 667h44v-626h269v-41h-313v667z" />
    <glyph glyph-name="lacute" unicode="&#x13a;" horiz-adv-x="183" 
d="M72 756l85 117l44 -24l-106 -106zM113 0h-42v667h42v-667z" />
    <glyph glyph-name="Lcommaaccent" unicode="&#x13b;" horiz-adv-x="419" 
d="M241 -63l43 -13l-55 -128l-27 8zM87 667h44v-626h269v-41h-313v667z" />
    <glyph glyph-name="lcommaaccent" unicode="&#x13c;" horiz-adv-x="183" 
d="M71 -63l43 -13l-55 -128l-27 8zM112 0h-42v667h42v-667z" />
    <glyph glyph-name="Lcaron" unicode="&#x13d;" horiz-adv-x="419" 
d="M297 678l43 -13l-56 -128l-27 8zM87 667h44v-626h269v-41h-313v667z" />
    <glyph glyph-name="lcaron" unicode="&#x13e;" horiz-adv-x="262" 
d="M219 678l42 -13l-55 -128l-27 8zM113 0h-42v667h42v-667z" />
    <glyph glyph-name="Ldot" unicode="&#x13f;" horiz-adv-x="419" 
d="M87 667h44v-626h269v-41h-313v667zM309 367q14 0 23.5 -10t9.5 -24q0 -13 -9.5 -23t-23.5 -10t-23.5 10t-9.5 23q0 14 9.5 24t23.5 10z" />
    <glyph glyph-name="ldot" unicode="&#x140;" horiz-adv-x="296" 
d="M113 667v-667h-42v667h42zM239 367q13 0 23 -10t10 -24q0 -13 -10 -23t-23 -10q-14 0 -24 10t-10 23q0 14 10 24t24 10z" />
    <glyph glyph-name="Lslash" unicode="&#x141;" horiz-adv-x="437" 
d="M104 309l-69 -46v43l69 46v315h44v-292l117 78v-43l-117 -78v-291h270v-41h-314v309z" />
    <glyph glyph-name="lslash" unicode="&#x142;" horiz-adv-x="238" 
d="M207 387l-67 -45v-342h-41v314l-67 -45v44l67 45v309h41v-281l67 45v-44z" />
    <glyph glyph-name="Nacute" unicode="&#x143;" horiz-adv-x="712" 
d="M340 745l85 117l45 -24l-106 -107zM131 606v-606h-44v667h49l446 -606v606h44v-667h-49z" />
    <glyph glyph-name="nacute" unicode="&#x144;" horiz-adv-x="510" 
d="M241 545l85 117l45 -24l-106 -107zM112 443v-72q51 82 154 82q80 0 130 -53q24 -26 34.5 -63t10.5 -96v-241h-42v232q0 80 -22 120q-15 29 -46.5 45t-70.5 16q-41 0 -75 -18t-51 -47q-22 -41 -22 -126v-222h-42v443h42z" />
    <glyph glyph-name="Ncommaaccent" unicode="&#x145;" horiz-adv-x="712" 
d="M354 -63l43 -13l-56 -128l-26 8zM131 606v-606h-44v667h49l446 -606v606h44v-667h-49z" />
    <glyph glyph-name="ncommaaccent" unicode="&#x146;" horiz-adv-x="510" 
d="M253 -63l43 -13l-56 -128l-27 8zM112 443v-72q51 82 154 82q80 0 130 -53q24 -26 34.5 -63t10.5 -96v-241h-42v232q0 80 -22 120q-15 29 -46.5 45t-70.5 16q-41 0 -75 -18t-51 -47q-22 -41 -22 -126v-222h-42v443h42z" />
    <glyph glyph-name="Ncaron" unicode="&#x147;" horiz-adv-x="712" 
d="M279 857l94 -89l94 89l28 -14l-99 -109h-45l-100 109zM131 606v-606h-44v667h49l446 -606v606h44v-667h-49z" />
    <glyph glyph-name="ncaron" unicode="&#x148;" horiz-adv-x="510" 
d="M166 657l94 -89l95 89l28 -14l-100 -109h-45l-100 109zM112 443v-72q51 82 154 82q80 0 130 -53q24 -26 34.5 -63t10.5 -96v-241h-42v232q0 80 -22 120q-15 29 -46.5 45t-70.5 16q-41 0 -75 -18t-51 -47q-22 -41 -22 -126v-222h-42v443h42z" />
    <glyph glyph-name="napostrophe" unicode="&#x149;" horiz-adv-x="580" 
d="M7 440l74 207l40 -15l-89 -201zM182 443v-72q51 82 154 82q81 0 130 -53q24 -26 34.5 -63t10.5 -96v-241h-42v232q0 80 -21 120q-16 29 -47 45t-71 16t-74.5 -18t-50.5 -47q-23 -41 -23 -126v-222h-42v443h42z" />
    <glyph glyph-name="Eng" unicode="&#x14a;" horiz-adv-x="712" 
d="M626 667v-679q0 -70 -27 -105q-23 -30 -65 -30q-15 0 -34 5v38q14 -3 25 -3q31 0 45 22.5t14 72.5v13h-7l-446 605v-606h-44v667h49l446 -606v606h44z" />
    <glyph glyph-name="eng" unicode="&#x14b;" horiz-adv-x="510" 
d="M112 0h-42v443h42v-72q51 82 154 82q80 0 130 -53q24 -26 34.5 -63t10.5 -96v-253q0 -70 -27 -105q-23 -30 -65 -30q-15 0 -35 5v38q15 -3 26 -3q31 0 45 22.5t14 72.5v244q0 80 -22 120q-15 29 -46.5 45t-70.5 16q-41 0 -75 -18t-51 -47q-22 -41 -22 -126v-222z" />
    <glyph glyph-name="Omacron" unicode="&#x14c;" horiz-adv-x="766" 
d="M260 810h247v-38h-247v38zM49 333q0 92 46 173q45 77 120 123q78 47 168 47t168 -47q76 -46 121 -124q46 -80 46 -172t-46 -172q-45 -78 -121 -123q-78 -48 -168 -48q-89 0 -167 48q-76 45 -121 123q-46 80 -46 172zM93 333q0 -82 40 -152q38 -68 104 -108
q68 -42 146 -42q79 0 147 42q65 40 104 108q39 70 39 152t-39 153q-38 68 -104 108q-67 41 -146 41q-80 0 -147 -41q-66 -40 -104 -108q-40 -71 -40 -153z" />
    <glyph glyph-name="omacron" unicode="&#x14d;" horiz-adv-x="530" 
d="M141 610h248v-38h-248v38zM265 453q102 0 167 -75q57 -65 57 -156q0 -105 -73 -173q-63 -59 -151 -59q-102 0 -167 76q-57 65 -57 157q0 104 73 171q63 59 151 59zM265 414q-85 0 -136 -61q-45 -53 -45 -131q0 -90 58 -145q49 -48 123 -48q85 0 136 62q45 53 45 131
q0 90 -58 145q-49 47 -123 47z" />
    <glyph glyph-name="Obreve" unicode="&#x14e;" horiz-adv-x="766" 
d="M265 835l36 3q4 -34 26 -54t55 -20q32 0 54 19.5t29 54.5l36 -3q-10 -54 -45 -82q-30 -25 -73 -25q-52 0 -85 33q-28 28 -33 74zM49 333q0 92 46 173q45 77 120 123q78 47 168 47t168 -47q76 -46 121 -124q46 -80 46 -172t-46 -172q-45 -78 -121 -123q-78 -48 -168 -48
q-89 0 -167 48q-76 45 -121 123q-46 80 -46 172zM93 333q0 -82 40 -152q38 -68 104 -108q68 -42 146 -42q79 0 147 42q65 40 104 108q39 70 39 152t-39 153q-38 68 -104 108q-67 41 -146 41q-80 0 -147 -41q-66 -40 -104 -108q-40 -71 -40 -153z" />
    <glyph glyph-name="obreve" unicode="&#x14f;" horiz-adv-x="530" 
d="M147 635l36 3q3 -33 25.5 -53.5t54.5 -20.5q33 0 55 19.5t28 54.5l36 -3q-10 -54 -45 -82q-30 -25 -73 -25q-52 0 -84 33q-28 28 -33 74zM265 453q102 0 167 -75q57 -65 57 -156q0 -105 -73 -173q-63 -59 -151 -59q-102 0 -167 76q-57 65 -57 157q0 104 73 171
q63 59 151 59zM265 414q-85 0 -136 -61q-45 -53 -45 -131q0 -90 58 -145q49 -48 123 -48q85 0 136 62q45 53 45 131q0 90 -58 145q-49 47 -123 47z" />
    <glyph glyph-name="Ohungarumlaut" unicode="&#x150;" horiz-adv-x="766" 
d="M517 861l42 -23l-106 -107l-21 13zM377 861l42 -23l-106 -107l-21 13zM49 333q0 92 46 173q45 77 120 123q78 47 168 47t168 -47q76 -46 121 -124q46 -80 46 -172t-46 -172q-45 -78 -121 -123q-78 -48 -168 -48q-89 0 -167 48q-76 45 -121 123q-46 80 -46 172zM93 333
q0 -82 40 -152q39 -68 104 -108q68 -42 146 -42q79 0 147 42q65 40 104 108q39 70 39 152t-39 153q-38 68 -104 108q-67 41 -146 41q-80 0 -147 -41q-66 -40 -104 -108q-40 -71 -40 -153z" />
    <glyph glyph-name="ohungarumlaut" unicode="&#x151;" horiz-adv-x="530" 
d="M269 661l41 -23l-105 -107l-22 13zM409 661l41 -23l-105 -107l-22 13zM265 453q102 0 167 -75q57 -65 57 -156q0 -105 -73 -173q-63 -59 -151 -59q-102 0 -167 76q-57 65 -57 157q0 104 73 171q63 59 151 59zM265 414q-85 0 -136 -61q-45 -53 -45 -131q0 -90 58 -145
q49 -48 123 -48q85 0 136 62q45 53 45 131q0 90 -58 145q-49 47 -123 47z" />
    <glyph glyph-name="OE" unicode="&#x152;" horiz-adv-x="1056" 
d="M674 0v170q-46 -88 -132 -137q-75 -43 -159 -43q-89 0 -168 48q-75 45 -120 123q-46 80 -46 172t46 172q45 78 120 124q79 47 169 47q96 0 177 -54q71 -47 113 -126v171h323v-41h-280v-267h249v-41h-249v-277h291v-41h-334zM93 333q0 -82 40 -152q39 -68 104 -108
q68 -42 146 -42q79 0 147 42q65 40 104 108q40 70 40 152t-40 153q-38 68 -104 108q-67 41 -146 41q-80 0 -147 -41q-66 -40 -104 -108q-40 -71 -40 -153z" />
    <glyph glyph-name="oe" unicode="&#x153;" horiz-adv-x="904" 
d="M467 321q29 66 83 101q48 31 106 31q96 0 155 -76q51 -66 51 -162v-11h-373q5 -84 59 -132q47 -43 114 -43q94 0 148 80l38 -16q-70 -103 -186 -103q-70 0 -124 40q-47 35 -71 93q-31 -67 -89 -102q-51 -31 -113 -31q-101 0 -167 76q-57 65 -57 156q0 105 73 172
q63 59 151 59q71 0 127 -40q49 -35 75 -92zM265 414q-85 0 -136 -61q-45 -53 -45 -131q0 -90 58 -145q49 -48 123 -48q85 0 136 62q45 53 45 131q0 90 -58 145q-49 47 -123 47zM489 240h332q-9 68 -38 110q-21 30 -55 47t-72 17q-73 0 -121 -55q-41 -48 -46 -119z" />
    <glyph glyph-name="Racute" unicode="&#x154;" horiz-adv-x="519" 
d="M224 745l84 117l45 -24l-106 -107zM87 667h125q99 0 149 -29q45 -25 70 -74q21 -43 21 -92q0 -68 -39 -117q-34 -43 -88 -59l163 -296h-49l-156 287q-35 -5 -71 -5h-81v-282h-44v667zM131 322h91q76 0 119 24q32 19 50 52t18 74q0 43 -19 77.5t-52 53.5q-41 23 -116 23
h-91v-304z" />
    <glyph glyph-name="racute" unicode="&#x155;" horiz-adv-x="285" 
d="M111 545l85 117l45 -24l-106 -107zM70 443h42v-72q45 72 139 72h7v-38q-7 1 -10 1q-37 0 -67.5 -16.5t-46.5 -44.5q-22 -41 -22 -129v-216h-42v443z" />
    <glyph glyph-name="Rcommaaccent" unicode="&#x156;" horiz-adv-x="519" 
d="M271 -63l42 -13l-55 -128l-27 8zM87 667h125q99 0 149 -29q45 -25 70 -74q21 -43 21 -92q0 -68 -39 -117q-34 -43 -88 -59l163 -296h-49l-156 287q-35 -5 -71 -5h-81v-282h-44v667zM131 322h91q76 0 119 24q32 19 50 52t18 74q0 43 -19 77.5t-52 53.5q-41 23 -116 23h-91
v-304z" />
    <glyph glyph-name="rcommaaccent" unicode="&#x157;" horiz-adv-x="285" 
d="M74 -63l43 -13l-55 -128l-27 8zM69 443h42v-72q44 72 139 72h8v-38q-8 1 -11 1q-37 0 -67.5 -16.5t-46.5 -44.5q-12 -23 -17 -51t-5 -78v-216h-42v443z" />
    <glyph glyph-name="Rcaron" unicode="&#x158;" horiz-adv-x="519" 
d="M160 857l95 -89l94 89l28 -14l-100 -109h-45l-100 109zM87 667h125q99 0 149 -29q45 -25 70 -74q21 -43 21 -92q0 -68 -39 -117q-34 -43 -88 -59l163 -296h-49l-156 287q-35 -5 -71 -5h-81v-282h-44v667zM131 322h91q76 0 119 24q32 19 50 52t18 74q0 43 -19 77.5
t-52 53.5q-41 23 -116 23h-91v-304z" />
    </font>
</defs>
</svg>
