<?xml version="1.0" standalone="no"?>
<!DOCTYPE svg PUBLIC "-//W3C//DTD SVG 1.1//EN" "http://www.w3.org/Graphics/SVG/1.1/DTD/svg11.dtd" >
<svg xmlns="http://www.w3.org/2000/svg" xmlns:xlink="http://www.w3.org/1999/xlink" version="1.1">
<metadata>
Created by FontForge 20170731 at Wed Dec 20 17:38:26 2017
 By Aleksey,,,
(URW)++,Copyright 2017 by (URW)++ Design &#38; Development
</metadata>
<defs>
<font id="URWGeometricArabic-ExtraBold" horiz-adv-x="0" >
  <font-face 
    font-family="URWGeometricArabic-ExtraBold"
    font-weight="400"
    font-stretch="normal"
    units-per-em="1000"
    panose-1="0 0 0 0 0 0 0 0 0 0"
    ascent="731"
    descent="-269"
    x-height="443"
    cap-height="667"
    bbox="-432 -524 1445 1120"
    underline-thickness="118"
    underline-position="-395"
    unicode-range="U+0020-FEFC"
  />
<missing-glyph horiz-adv-x="364" 
d="M33 0v666h265v-666h-265zM66 33h199v600h-199v-600z" />
    <glyph glyph-name="uni064D0651" unicode="&#x64b;&#x651;" 
d="M-144 1043l-219 -40l-13 68l220 40zM-133 934l-220 -40l-12 68l220 40zM-250 707q-24 -15 -54 -15q-36 0 -58.5 20t-22.5 52v96h63v-87q0 -19 19 -19q21 0 21 19v66h63v-66q0 -19 20 -19t20 19v87h63v-96q0 -36 -29 -56q-22 -16 -53 -16q-33 0 -52 15z" />
    <glyph glyph-name="fi" unicode="fi" horiz-adv-x="490" 
d="M188 329v-329h-128v329h-41v114h41v78q0 79 38 119q34 36 92 36q32 0 70 -9v-115q-26 9 -43 9q-29 0 -29 -42v-76h74v-114h-74zM298 595q0 34 26 56q22 20 52 20q35 0 58 -25q20 -22 20 -51q0 -34 -26 -57q-22 -19 -52 -19q-35 0 -58 25q-20 21 -20 51zM440 443v-443
h-128v443h128z" />
    <glyph glyph-name="fl" unicode="fl" horiz-adv-x="500" 
d="M188 329v-329h-128v329h-41v114h41v78q0 79 38 119q34 36 92 36q32 0 70 -9v-115q-26 9 -43 9q-29 0 -29 -42v-76h74v-114h-74zM449 0h-128v667h128v-667z" />
    <glyph glyph-name="uniFC5E" unicode="&#x64c;&#x651;" arabic-form="isolated" 
d="M-242 963q-21 23 -21 49q0 40 26 66q22 23 56 23q41 0 65 -32q18 -25 18 -58q0 -58 -43 -91q-35 -27 -84 -27q-60 0 -104 35l-23 -33l-59 44l49 77h32q35 -53 88 -53zM-178 970q24 10 24 41q0 14 -7.5 22.5t-18.5 8.5q-24 0 -24 -29q0 -14 7.5 -26.5t18.5 -16.5z
M-250 707q-24 -15 -54 -15q-36 0 -58.5 20t-22.5 52v96h63v-87q0 -19 19 -19q21 0 21 19v66h63v-66q0 -19 20 -19t20 19v87h63v-96q0 -36 -29 -56q-22 -16 -53 -16q-32 0 -52 15z" />
    <glyph glyph-name="uniFC5F" unicode="&#x64d;&#x651;" arabic-form="isolated" 
d="M-256 947q-24 -15 -54 -15q-36 0 -58.5 20t-22.5 52v96h63v-87q0 -19 19 -19q21 0 21 19v66h63v-66q0 -19 20 -19t20 19v87h63v-96q0 -36 -29 -56q-22 -16 -53 -16q-33 0 -52 15zM-140 835l-220 -40l-12 69l220 39zM-130 726l-219 -40l-12 68l220 40z" />
    <glyph glyph-name="uniFC60" unicode="&#x64e;&#x651;" arabic-form="isolated" 
d="M-140 937l-223 -40l-14 77l223 40zM-250 707q-24 -15 -54 -15q-36 0 -58.5 20t-22.5 52v96h63v-87q0 -19 19 -19q21 0 21 19v66h63v-66q0 -19 20 -19t20 19v87h63v-96q0 -36 -29 -56q-22 -16 -53 -16q-33 0 -52 15z" />
    <glyph glyph-name="uniFC61" unicode="&#x64f;&#x651;" arabic-form="isolated" 
d="M-209 923l-165 -29l-12 65l118 21q-18 23 -18 53q0 37 25 63q23 24 56 24q41 0 64 -31q19 -25 19 -60q0 -44 -29 -75q-24 -24 -58 -31zM-202 993q22 9 22 38q0 27 -23 27q-22 0 -22 -26q0 -30 23 -39zM-250 707q-24 -15 -54 -15q-36 0 -58.5 20t-22.5 52v96h63v-87
q0 -19 19 -19q21 0 21 19v66h63v-66q0 -19 20 -19t20 19v87h63v-96q0 -36 -29 -56q-22 -16 -53 -16q-33 0 -52 15z" />
    <glyph glyph-name="uniFC62" unicode="&#x650;&#x651;" arabic-form="isolated" 
d="M-255 853q-24 -15 -54 -15q-36 0 -58.5 20t-22.5 51v96h63v-86q0 -19 19 -19q21 0 21 19v66h63v-66q0 -19 20 -19t20 19v86h63v-96q0 -36 -29 -55q-22 -16 -53 -16q-33 0 -52 15zM-130 726l-224 -40l-13 77l223 40z" />
    <glyph glyph-name="uniFC63" unicode="&#x651;&#x670;" arabic-form="isolated" 
d="M-216 890h-73v171h73v-171zM-250 707q-24 -15 -54 -15q-36 0 -58.5 20t-22.5 52v96h63v-87q0 -19 19 -19q21 0 21 19v66h63v-66q0 -19 20 -19t20 19v87h63v-96q0 -36 -29 -56q-22 -16 -53 -16q-33 0 -52 15z" />
    <glyph glyph-name="uniFDF2" unicode="&#x627;&#xfedf;&#xfee0;&#x6c1;" horiz-adv-x="1453" arabic-form="isolated" 
d="M736 864h-69v160h69v-160zM703 676q-23 -16 -54 -16q-36 0 -59 21q-22 19 -22 50v94h63v-84q0 -19 20 -19q19 0 19 19v64h64v-64q0 -19 20 -19t20 19v84h63v-94q0 -35 -29 -55q-23 -16 -53 -16q-35 0 -52 16zM1375 0h-128v666h128v-666zM703 64q-54 -64 -172 -64
q-131 0 -184 77q-47 -46 -118 -46q-81 0 -133 58q-50 56 -50 146q0 101 65 161q57 54 146 54h54v45h116v-252q0 -68 27 -95q24 -24 78 -24q61 0 85 34q21 28 21 88v331h128v-331q0 -68 27 -96q25 -26 79 -26q62 0 85 32q21 27 21 87v334h128v-359q0 -118 -66 -171
q-57 -47 -168 -47q-117 0 -169 64zM311 345h-51q-49 0 -73 -31q-20 -27 -20 -71q0 -54 26 -85q22 -27 54 -27q36 0 68 29q-4 24 -4 58v127z" />
    <glyph glyph-name="uniFEF5" unicode="&#xfedf;&#xfe82;" horiz-adv-x="676" arabic-form="isolated" 
d="M380 646q-12 -30 -35 -48t-50 -18q-30 0 -66 20q-20 11 -32 11q-23 0 -47 -28l-40 33q28 69 84 69q20 0 53 -19q26 -16 48 -16t41 31zM376 0h-342v124h145v403h129v-403h56q68 0 90 33q17 25 17 85v424h128v-458q0 -208 -223 -208z" />
    <glyph glyph-name="uniFEF6" unicode="&#xfee0;&#xfe82;" horiz-adv-x="726" arabic-form="final" 
d="M380 646q-12 -30 -35 -48t-50 -18q-30 0 -66 20q-20 11 -32 11q-23 0 -47 -28l-40 33q28 69 84 69q20 0 53 -19q26 -16 48 -16t41 31zM376 0h-342v124h145v403h129v-403h56q68 0 90 33q17 25 17 85v424h128v-424q0 -68 23 -93t83 -25h31v-124h-43q-108 0 -158 59
q-52 -59 -159 -59z" />
    <glyph glyph-name="uniFEF7" unicode="&#xfedf;&#xfe84;" horiz-adv-x="677" arabic-form="isolated" 
d="M341 602h-197v58h44q-10 17 -10 38q0 34 25 56q22 20 54 20q37 0 63 -29l-20 -39q-16 12 -36 12q-14 0 -23 -7.5t-9 -19.5q0 -15 13 -31h96v-58zM376 0h-342v124h145v403h129v-403h56q68 0 90 33q17 25 17 85v424h128v-458q0 -208 -223 -208z" />
    <glyph glyph-name="uniFEF8" unicode="&#xfee0;&#xfe84;" horiz-adv-x="726" arabic-form="final" 
d="M341 602h-197v58h44q-10 17 -10 38q0 34 25 56q22 20 54 20q37 0 63 -29l-20 -39q-16 12 -36 12q-14 0 -23 -7.5t-9 -19.5q0 -15 13 -31h96v-58zM376 0h-342v124h145v403h129v-403h56q68 0 90 33q17 25 17 85v424h128v-424q0 -68 23 -93t83 -25h31v-124h-43
q-108 0 -158 59q-52 -59 -159 -59z" />
    <glyph glyph-name="uniFEF9" unicode="&#xfedf;&#xfe88;" horiz-adv-x="677" arabic-form="isolated" 
d="M376 0h-342v124h145v403h129v-403h56q68 0 90 33q17 25 17 85v424h128v-458q0 -208 -223 -208zM341 -261h-198v57h44q-10 20 -10 38q0 35 25 57q22 19 54 19q36 0 64 -28l-21 -40q-17 13 -35 13q-33 0 -33 -28q0 -14 13 -31h97v-57z" />
    <glyph glyph-name="uniFEFA" unicode="&#xfee0;&#xfe88;" horiz-adv-x="726" arabic-form="final" 
d="M376 0h-342v124h145v403h129v-403h56q68 0 90 33q17 25 17 85v424h128v-424q0 -68 23 -93t83 -25h31v-124h-43q-108 0 -158 59q-52 -59 -159 -59zM341 -261h-198v57h44q-10 20 -10 38q0 35 25 57q22 19 54 19q36 0 64 -28l-21 -40q-17 13 -35 13q-33 0 -33 -28
q0 -14 13 -31h97v-57z" />
    <glyph glyph-name="uniFEFB" unicode="&#xfedf;&#xfe8e;" horiz-adv-x="677" arabic-form="isolated" 
d="M376 0h-342v124h145v403h129v-403h56q68 0 90 33q17 25 17 85v424h128v-458q0 -208 -223 -208z" />
    <glyph glyph-name="uniFEFC" unicode="&#xfee0;&#xfe8e;" horiz-adv-x="726" arabic-form="final" 
d="M376 0h-342v124h145v403h129v-403h56q68 0 90 33q17 25 17 85v424h128v-424q0 -68 23 -93t83 -25h31v-124h-43q-108 0 -158 59q-52 -59 -159 -59z" />
    <glyph glyph-name="uniFB50" unicode="&#x671;" horiz-adv-x="285" arabic-form="isolated" 
d="M36 765q47 138 153 138q54 0 82 -29q22 -23 22 -59q0 -60 -58 -91q-45 -24 -117 -24q-21 0 -33 1q-4 -19 -9 -47l-64 8l9 46q-36 6 -60 14l11 55q20 -5 60 -11zM102 761h14q104 0 104 50q0 31 -36 31q-51 0 -82 -81zM207 0h-129v610h129v-610z" />
    <glyph glyph-name="uniFB51" unicode="&#x671;" horiz-adv-x="334" arabic-form="final" 
d="M36 765q47 138 153 138q54 0 82 -29q22 -23 22 -59q0 -60 -58 -91q-45 -24 -117 -24q-21 0 -33 1q-4 -19 -9 -47l-64 8l9 46q-36 6 -60 14l11 55q20 -5 60 -11zM102 761h14q104 0 104 50q0 31 -36 31q-51 0 -82 -81zM206 610v-368q0 -68 23 -93t83 -25h32v-124h-44
q-222 0 -222 208v402h128z" />
    <glyph glyph-name="uniFB52" unicode="&#x67b;" horiz-adv-x="886" arabic-form="isolated" 
d="M589 0h-282q-118 0 -183 79q-50 61 -50 146q0 67 36 121q35 51 93 75l52 -80q-31 -16 -48.5 -44t-17.5 -61q0 -49 35 -81q34 -31 87 -31h259q64 0 89 34q21 28 21 88v187h128v-215q0 -118 -61 -171q-53 -47 -158 -47zM503 -135q0 -26 -18 -43.5t-44 -17.5t-44.5 18
t-18.5 43q0 26 18.5 44t44.5 18t44 -18t18 -44zM503 -272q0 -26 -18 -43.5t-44 -17.5t-44.5 18t-18.5 43q0 26 18.5 44t44.5 18t44 -18t18 -44z" />
    <glyph glyph-name="uniFB53" unicode="&#x67b;" horiz-adv-x="934" arabic-form="final" 
d="M589 0h-282q-118 0 -183 79q-50 61 -50 146q0 67 36 121q35 51 93 75l52 -80q-31 -16 -48.5 -44t-17.5 -61q0 -49 35 -81q34 -31 87 -31h259q64 0 89 34q21 28 21 88v187h128v-187q0 -68 27 -96q25 -26 79 -26h30v-124h-39q-107 0 -159 62q-51 -62 -157 -62zM498 -135
q0 -26 -18 -43.5t-44 -17.5t-44 17.5t-18 43.5t18 44t44 18t44 -18t18 -44zM498 -272q0 -26 -18 -43.5t-44 -17.5t-44 17.5t-18 43.5t18 44t44 18t44 -18t18 -44z" />
    <glyph glyph-name="uniFB54" unicode="&#x67b;" horiz-adv-x="332" arabic-form="initial" 
d="M-10 0v124h30q61 0 85 34q21 28 21 88v187h128v-215q0 -218 -225 -218h-39zM126 -333q-26 0 -44 18t-18 43q0 26 18 44t44 18t44.5 -18t18.5 -44q0 -25 -18.5 -43t-44.5 -18zM126 -196q-26 0 -44 18t-18 43q0 26 18 44t44 18t44.5 -18t18.5 -44q0 -25 -18.5 -43
t-44.5 -18z" />
    <glyph glyph-name="uniFB55" unicode="&#x67b;" horiz-adv-x="379" arabic-form="medial" 
d="M-10 0v124h30q61 0 85 34q21 28 21 88v187h128v-187q0 -68 27 -96q25 -26 79 -26h29v-124h-39q-108 0 -160 64q-54 -64 -161 -64h-39zM184 -333q-26 0 -44 18t-18 43q0 26 18 44t44 18t44.5 -18t18.5 -44q0 -25 -18.5 -43t-44.5 -18zM184 -196q-26 0 -44 18t-18 43
q0 26 18 44t44 18t44.5 -18t18.5 -44q0 -25 -18.5 -43t-44.5 -18z" />
    <glyph glyph-name="uniFB56" unicode="&#x67e;" horiz-adv-x="886" arabic-form="isolated" 
d="M589 0h-282q-118 0 -183 79q-50 61 -50 146q0 67 36 121q35 51 93 75l52 -80q-31 -16 -48.5 -44t-17.5 -61q0 -49 35 -81q34 -31 87 -31h259q64 0 89 34q21 28 21 88v187h128v-215q0 -118 -61 -171q-53 -47 -158 -47zM433 -140q0 -28 -20.5 -48t-48.5 -20q-29 0 -49 20
t-20 48t20 47.5t49 19.5q28 0 48.5 -20t20.5 -47zM586 -140q0 -28 -20 -48t-49 -20q-28 0 -48.5 20t-20.5 48q0 27 20.5 47t48.5 20q29 0 49 -19.5t20 -47.5zM504 -270q0 -25 -18.5 -43t-44.5 -18t-44.5 18t-18.5 43t18.5 43t44.5 18t44.5 -18t18.5 -43z" />
    <glyph glyph-name="uniFB57" unicode="&#x67e;" horiz-adv-x="934" arabic-form="final" 
d="M589 0h-282q-118 0 -183 79q-50 61 -50 146q0 67 36 121q35 51 93 75l52 -80q-31 -16 -48.5 -44t-17.5 -61q0 -49 35 -81q34 -31 87 -31h259q64 0 89 34q21 28 21 88v187h128v-187q0 -68 27 -96q25 -26 79 -26h30v-124h-39q-107 0 -159 62q-51 -62 -157 -62zM428 -140
q0 -28 -20 -48t-49 -20q-28 0 -48.5 20t-20.5 48q0 27 20.5 47t48.5 20q29 0 49 -19.5t20 -47.5zM582 -140q0 -28 -20.5 -48t-49.5 -20q-28 0 -48.5 20t-20.5 48q0 27 20.5 47t48.5 20q29 0 49.5 -19.5t20.5 -47.5zM499 -270q0 -25 -18.5 -43t-44.5 -18t-44 18t-18 43t18 43
t44 18t44.5 -18t18.5 -43z" />
    <glyph glyph-name="uniFB58" unicode="&#x67e;" horiz-adv-x="332" arabic-form="initial" 
d="M-10 0v124h30q61 0 85 34q21 28 21 88v187h128v-215q0 -218 -225 -218h-39zM114 -331q-26 0 -44.5 18t-18.5 43t18.5 43t44.5 18t44.5 -18t18.5 -43t-18.5 -43t-44.5 -18zM36 -208q-28 0 -48 20t-20 48t20 47.5t48 19.5q29 0 49.5 -19.5t20.5 -47.5t-20.5 -48t-49.5 -20z
M190 -208q-28 0 -48.5 20t-20.5 48q0 27 20.5 47t48.5 20q29 0 49 -19.5t20 -47.5t-20 -48t-49 -20z" />
    <glyph glyph-name="uniFB59" unicode="&#x67e;" horiz-adv-x="379" arabic-form="medial" 
d="M29 0h-39v124h30q61 0 85 34q21 28 21 88v187h128v-187q0 -68 27 -96q25 -26 79 -26h29v-124h-39q-108 0 -160 64q-54 -64 -161 -64zM180 -140q0 -28 -20.5 -48t-49.5 -20q-28 0 -48 20t-20 48t20 47.5t48 19.5q29 0 49.5 -19.5t20.5 -47.5zM333 -140q0 -28 -20 -48
t-49 -20q-28 0 -48.5 20t-20.5 48q0 27 20.5 47t48.5 20q29 0 49 -19.5t20 -47.5zM251 -270q0 -25 -18.5 -43t-44.5 -18t-44.5 18t-18.5 43t18.5 43t44.5 18t44.5 -18t18.5 -43z" />
    <glyph glyph-name="uniFB5A" unicode="&#x680;" horiz-adv-x="886" arabic-form="isolated" 
d="M589 0h-282q-118 0 -183 79q-50 61 -50 146q0 67 36 121q35 51 93 75l52 -80q-31 -16 -48.5 -44t-17.5 -61q0 -49 35 -81q34 -31 87 -31h259q64 0 89 34q21 28 21 88v187h128v-215q0 -118 -61 -171q-53 -47 -158 -47zM434 -135q0 -25 -18.5 -43t-44.5 -18t-44 17.5
t-18 43.5t18 44t44 18t44.5 -18t18.5 -44zM573 -135q0 -25 -18.5 -43t-44.5 -18t-44 18t-18 43q0 26 18 44t44 18t44.5 -18t18.5 -44zM434 -272q0 -25 -18.5 -43t-44.5 -18t-44 18t-18 43t18 43t44 18t44.5 -18t18.5 -43zM573 -272q0 -25 -18.5 -43t-44.5 -18t-44 18t-18 43
t18 43t44 18t44.5 -18t18.5 -43z" />
    <glyph glyph-name="uniFB5B" unicode="&#x680;" horiz-adv-x="934" arabic-form="final" 
d="M589 0h-282q-118 0 -183 79q-50 61 -50 146q0 67 36 121q35 51 93 75l52 -80q-31 -16 -48.5 -44t-17.5 -61q0 -49 35 -81q34 -31 87 -31h259q64 0 89 34q21 28 21 88v187h128v-187q0 -68 27 -96q25 -26 79 -26h30v-124h-39q-107 0 -159 62q-51 -62 -157 -62zM429 -135
q0 -25 -18.5 -43t-44.5 -18t-44 17.5t-18 43.5t18 44t44 18t44.5 -18t18.5 -44zM568 -135q0 -26 -18 -43.5t-45 -17.5q-26 0 -44 18t-18 43q0 26 18 44t44 18q27 0 45 -18t18 -44zM429 -272q0 -25 -18.5 -43t-44.5 -18t-44 18t-18 43t18 43t44 18t44.5 -18t18.5 -43z
M568 -272q0 -26 -18 -43.5t-45 -17.5q-26 0 -44 18t-18 43t18 43t44 18q27 0 45 -17.5t18 -43.5z" />
    <glyph glyph-name="uniFB5C" unicode="&#x680;" horiz-adv-x="332" arabic-form="initial" 
d="M-10 0v124h30q61 0 85 34q21 28 21 88v187h128v-215q0 -218 -225 -218h-39zM54 -333q-26 0 -44.5 18t-18.5 43t18.5 43t44.5 18t44 -18t18 -43t-18 -43t-44 -18zM193 -333q-26 0 -44 18t-18 43t18 43t44 18t44.5 -18t18.5 -43t-18.5 -43t-44.5 -18zM54 -196
q-26 0 -44.5 18t-18.5 43q0 26 18.5 44t44.5 18t44 -18t18 -44q0 -25 -18 -43t-44 -18zM193 -196q-26 0 -44 18t-18 43q0 26 18 44t44 18t44.5 -18t18.5 -44q0 -25 -18.5 -43t-44.5 -18z" />
    <glyph glyph-name="uniFB5D" unicode="&#x680;" horiz-adv-x="379" arabic-form="medial" 
d="M-10 0v124h30q61 0 85 34q21 28 21 88v187h128v-187q0 -68 27 -96q25 -26 79 -26h29v-124h-39q-108 0 -160 64q-54 -64 -161 -64h-39zM95 -333q-26 0 -44.5 18t-18.5 43t18.5 43t44.5 18t44 -18t18 -43t-18 -43t-44 -18zM234 -333q-26 0 -44 18t-18 43t18 43t44 18
t44.5 -18t18.5 -43t-18.5 -43t-44.5 -18zM95 -196q-26 0 -44.5 18t-18.5 43q0 26 18.5 44t44.5 18t44 -18t18 -44q0 -25 -18 -43t-44 -18zM234 -196q-26 0 -44 18t-18 43q0 26 18 44t44 18t44.5 -18t18.5 -44q0 -25 -18.5 -43t-44.5 -18z" />
    <glyph glyph-name="uniFB5E" unicode="&#x67a;" horiz-adv-x="886" arabic-form="isolated" 
d="M512 637q0 -25 -18.5 -43t-44.5 -18t-44 17.5t-18 43.5t18 44t44 18t44.5 -18t18.5 -44zM512 497q0 -26 -18.5 -44t-44.5 -18t-44 18t-18 44t18 43.5t44 17.5t44.5 -18t18.5 -43zM589 0h-282q-118 0 -183 79q-50 61 -50 146q0 67 36 121q35 51 93 75l52 -80
q-31 -16 -48.5 -44t-17.5 -61q0 -49 35 -81q34 -31 87 -31h259q64 0 89 34q21 28 21 88v187h128v-215q0 -118 -61 -171q-53 -47 -158 -47z" />
    <glyph glyph-name="uniFB5F" unicode="&#x67a;" horiz-adv-x="934" arabic-form="final" 
d="M515 637q0 -26 -18.5 -44t-44.5 -18t-44 18t-18 44q0 25 18 43t44 18t44.5 -18t18.5 -43zM515 496q0 -25 -18.5 -43t-44.5 -18t-44 18t-18 43q0 26 18 44t44 18t44.5 -18t18.5 -44zM589 0h-282q-118 0 -183 79q-50 61 -50 146q0 67 36 121q35 51 93 75l52 -80
q-31 -16 -48.5 -44t-17.5 -61q0 -49 35 -81q34 -31 87 -31h259q64 0 89 34q21 28 21 88v187h128v-187q0 -68 27 -96q25 -26 79 -26h30v-124h-39q-107 0 -159 62q-51 -62 -157 -62z" />
    <glyph glyph-name="uniFB60" unicode="&#x67a;" horiz-adv-x="332" arabic-form="initial" 
d="M248 720q0 -26 -18 -44t-44 -18t-44 18t-18 44t18 43.5t44 17.5t44 -17.5t18 -43.5zM248 579q0 -26 -18 -44t-44 -18t-44 18t-18 44t18 43.5t44 17.5t44 -17.5t18 -43.5zM29 0h-39v124h30q61 0 85 34q21 28 21 88v187h128v-215q0 -218 -225 -218z" />
    <glyph glyph-name="uniFB61" unicode="&#x67a;" horiz-adv-x="379" arabic-form="medial" 
d="M253 720q0 -26 -18 -44t-44 -18t-44.5 18t-18.5 44q0 25 18.5 43t44.5 18t44 -17.5t18 -43.5zM253 579q0 -26 -18 -44t-44 -18t-44.5 18t-18.5 44q0 25 18.5 43t44.5 18t44 -17.5t18 -43.5zM29 0h-39v124h30q61 0 85 34q21 28 21 88v187h128v-187q0 -68 27 -96
q25 -26 79 -26h29v-124h-39q-108 0 -160 64q-54 -64 -161 -64z" />
    <glyph glyph-name="uniFB62" unicode="&#x67f;" horiz-adv-x="886" arabic-form="isolated" 
d="M440 637q0 -26 -18 -44t-44 -18t-44.5 18t-18.5 44q0 25 18.5 43t44.5 18t44 -17.5t18 -43.5zM580 637q0 -26 -18.5 -44t-44.5 -18t-44 18t-18 44q0 25 18 43t44 18t44.5 -18t18.5 -43zM440 497q0 -26 -18 -44t-44 -18t-44.5 18t-18.5 44q0 25 18.5 43t44.5 18t44 -18
t18 -43zM580 497q0 -26 -18.5 -44t-44.5 -18t-44 18t-18 44q0 25 18 43t44 18t44.5 -18t18.5 -43zM589 0h-282q-118 0 -183 79q-50 61 -50 146q0 67 36 121q35 51 93 75l52 -80q-31 -16 -48.5 -44t-17.5 -61q0 -49 35 -81q34 -31 87 -31h259q64 0 89 34q21 28 21 88v187h128
v-215q0 -118 -61 -171q-53 -47 -158 -47z" />
    <glyph glyph-name="uniFB63" unicode="&#x67f;" horiz-adv-x="934" arabic-form="final" 
d="M445 631q0 -26 -18.5 -44t-44.5 -18t-44 18t-18 44q0 25 18 43t44 18t44.5 -18t18.5 -43zM585 631q0 -26 -18.5 -44t-44.5 -18t-44 18t-18 44t18 43.5t44 17.5t44.5 -18t18.5 -43zM445 491q0 -26 -18.5 -44t-44.5 -18t-44 18t-18 44q0 25 18 43t44 18t44.5 -18t18.5 -43z
M585 491q0 -26 -18.5 -44t-44.5 -18t-44 18t-18 44t18 43.5t44 17.5t44.5 -18t18.5 -43zM589 0h-282q-118 0 -183 79q-50 61 -50 146q0 67 36 121q35 51 93 75l52 -80q-31 -16 -48.5 -44t-17.5 -61q0 -49 35 -81q34 -31 87 -31h259q64 0 89 34q21 28 21 88v187h128v-187
q0 -68 27 -96q25 -26 79 -26h30v-124h-39q-107 0 -159 62q-51 -62 -157 -62z" />
    <glyph glyph-name="uniFB64" unicode="&#x67f;" horiz-adv-x="332" arabic-form="initial" 
d="M179 713q0 -25 -18.5 -43t-44.5 -18t-44 17.5t-18 43.5t18 44t44 18t44.5 -18t18.5 -44zM318 713q0 -26 -18 -43.5t-45 -17.5q-26 0 -44 18t-18 43q0 26 18 44t44 18t44.5 -18t18.5 -44zM179 573q0 -25 -18.5 -43t-44.5 -18t-44 18t-18 43q0 26 18 44t44 18t44.5 -18
t18.5 -44zM318 573q0 -26 -18 -43.5t-45 -17.5q-26 0 -44 18t-18 43q0 26 18 44t44 18q27 0 45 -18t18 -44zM29 0h-39v124h30q61 0 85 34q21 28 21 88v187h128v-215q0 -218 -225 -218z" />
    <glyph glyph-name="uniFB65" unicode="&#x67f;" horiz-adv-x="379" arabic-form="medial" 
d="M183 713q0 -26 -18 -43.5t-44 -17.5t-44 17.5t-18 43.5t18 44t44 18t44 -18t18 -44zM323 713q0 -25 -18.5 -43t-44.5 -18t-44 18t-18 43q0 26 18 44t44 18t44.5 -18t18.5 -44zM183 573q0 -25 -18 -43t-44 -18t-44 18t-18 43q0 26 18 44t44 18t44 -18t18 -44zM323 573
q0 -25 -18.5 -43t-44.5 -18t-44 18t-18 43q0 26 18 44t44 18t44.5 -18t18.5 -44zM29 0h-39v124h30q61 0 85 34q21 28 21 88v187h128v-187q0 -68 27 -96q25 -26 79 -26h29v-124h-39q-108 0 -160 64q-54 -64 -161 -64z" />
    <glyph glyph-name="uniFB66" unicode="&#x679;" horiz-adv-x="886" arabic-form="isolated" 
d="M510 460h-223v61h64v183h64v-109q42 58 104 58q49 0 75 -30q24 -26 24 -70q0 -93 -108 -93zM418 521l90 1q41 0 41 31q0 17 -12 27.5t-31 10.5q-25 0 -48.5 -19t-39.5 -51zM589 0h-282q-118 0 -183 79q-50 61 -50 146q0 67 36 121q35 51 93 75l52 -80q-31 -16 -48.5 -44
t-17.5 -61q0 -49 35 -81q34 -31 87 -31h259q64 0 89 34q21 28 21 88v187h128v-215q0 -118 -61 -171q-53 -47 -158 -47z" />
    <glyph glyph-name="uniFB67" unicode="&#x679;" horiz-adv-x="934" arabic-form="final" 
d="M510 460h-223v61h64v183h64v-109q42 58 104 58q49 0 75 -30q24 -26 24 -70q0 -93 -108 -93zM418 521l90 1q41 0 41 31q0 17 -12 27.5t-31 10.5q-25 0 -48.5 -19t-39.5 -51zM589 0h-282q-118 0 -183 79q-50 61 -50 146q0 67 36 121q35 51 93 75l52 -80q-31 -16 -48.5 -44
t-17.5 -61q0 -49 35 -81q34 -31 87 -31h259q64 0 89 34q21 28 21 88v187h128v-187q0 -68 27 -96q25 -26 79 -26h30v-124h-39q-107 0 -159 62q-51 -62 -157 -62z" />
    <glyph glyph-name="uniFB68" unicode="&#x679;" horiz-adv-x="332" arabic-form="initial" 
d="M244 543h-224v61h65v183h64v-109q42 58 104 58q48 0 74 -30q24 -27 24 -70q0 -93 -107 -93zM151 604h90q41 0 41 32q0 17 -11.5 27.5t-30.5 10.5q-25 0 -48.5 -18.5t-40.5 -51.5zM29 0h-39v124h30q61 0 85 34q21 28 21 88v187h128v-215q0 -218 -225 -218z" />
    <glyph glyph-name="uniFB69" unicode="&#x679;" horiz-adv-x="379" arabic-form="medial" 
d="M249 543h-224v61h65v183h64v-109q42 58 103 58q48 0 75 -30q24 -27 24 -70q0 -93 -107 -93zM156 604h90q41 0 41 32q0 17 -11.5 27.5t-30.5 10.5q-25 0 -48.5 -18.5t-40.5 -51.5zM29 0h-39v124h30q61 0 85 34q21 28 21 88v187h128v-187q0 -68 27 -96q25 -26 79 -26h29
v-124h-39q-108 0 -160 64q-54 -64 -161 -64z" />
    <glyph glyph-name="uniFB6A" unicode="&#x6a4;" horiz-adv-x="952" arabic-form="isolated" 
d="M755 713q0 -26 -18.5 -44t-44.5 -18t-44.5 18.5t-18.5 43.5t18.5 43t44.5 18t44.5 -18t18.5 -43zM684 583q0 -27 -20.5 -47t-48.5 -20q-29 0 -49 19.5t-20 47.5t20 47.5t49 19.5q28 0 48.5 -20t20.5 -47zM838 583q0 -28 -20.5 -47.5t-49.5 -19.5q-28 0 -48.5 20t-20.5 47
t20.5 47t48.5 20q29 0 49.5 -19.5t20.5 -47.5zM702 0h-395q-118 0 -183 79q-50 61 -50 146q0 67 36 121q35 51 93 75l52 -80q-31 -16 -48.5 -44t-17.5 -61q0 -49 35 -81q34 -31 87 -31h227q-28 50 -28 112q0 104 59 164q52 52 133 52q89 0 140 -56q43 -48 43 -122v-87
q0 -86 -51 -138q-49 -49 -132 -49zM626 233q0 -57 25 -86q21 -23 53 -23q60 0 60 64v81q0 71 -62 71q-36 0 -56 -28.5t-20 -78.5z" />
    <glyph glyph-name="uniFB6B" unicode="&#x6a4;" horiz-adv-x="981" arabic-form="final" 
d="M773 714q0 -25 -18.5 -43t-44.5 -18t-44.5 18t-18.5 43t18.5 43t44.5 18t44.5 -18t18.5 -43zM702 584q0 -27 -20.5 -47t-48.5 -20q-29 0 -49 19.5t-20 47.5t20 47.5t49 19.5q28 0 48.5 -20t20.5 -47zM855 584q0 -28 -20 -47.5t-49 -19.5q-28 0 -48.5 20t-20.5 47t20.5 47
t48.5 20q29 0 49 -19.5t20 -47.5zM628 0h-321q-118 0 -183 79q-50 61 -50 146q0 67 36 121q35 51 93 75l52 -80q-31 -16 -48.5 -44t-17.5 -61q0 -49 35 -81q34 -31 87 -31h241q-43 59 -43 125q0 95 58 152q54 53 140 53q99 0 153 -67q45 -55 45 -138q0 -68 -43 -125h129
v-124h-204q-45 0 -80 8q-34 -8 -79 -8zM707 122q36 20 58 55.5t22 75.5q0 45 -24 69q-21 22 -56 22q-37 0 -58 -24t-21 -67q0 -39 21.5 -75t57.5 -56z" />
    <glyph glyph-name="uniFB6C" unicode="&#x6a4;" horiz-adv-x="537" arabic-form="initial" 
d="M350 714q0 -25 -18.5 -43t-44.5 -18t-44.5 18t-18.5 43t18.5 43t44.5 18t44.5 -18t18.5 -43zM279 584q0 -27 -20.5 -47t-48.5 -20t-48.5 20t-20.5 47t20.5 47t48.5 20t48.5 -20t20.5 -47zM433 584q0 -28 -20.5 -47.5t-49.5 -19.5q-28 0 -48.5 20t-20.5 47t20.5 47
t48.5 20q29 0 49.5 -19.5t20.5 -47.5zM287 0h-297v124h133q-28 47 -28 112q0 104 59 164q52 52 133 52q89 0 139 -56q43 -48 43 -122v-87q0 -86 -51 -137q-49 -49 -131 -50zM211 233q0 -57 25 -86q20 -23 52 -23q60 0 60 64v81q0 71 -61 71q-36 0 -56 -28.5t-20 -78.5z" />
    <glyph glyph-name="uniFB6D" unicode="&#x6a4;" horiz-adv-x="546" arabic-form="medial" 
d="M336 714q0 -25 -18.5 -43t-44.5 -18t-44.5 18t-18.5 43t18.5 43t44.5 18t44.5 -18t18.5 -43zM265 584q0 -28 -20.5 -47.5t-49.5 -19.5q-28 0 -48.5 20t-20.5 47t20.5 47t48.5 20q29 0 49.5 -19.5t20.5 -47.5zM418 584q0 -27 -20.5 -47t-48.5 -20t-48.5 20t-20.5 47
t20.5 47t48.5 20t48.5 -20t20.5 -47zM194 0h-204v124h128q-43 59 -43 125q0 95 58 152q54 53 140 53q99 0 153 -67q45 -55 45 -138q0 -68 -43 -125h128v-124h-203q-45 0 -80 8q-35 -8 -79 -8zM273 122q36 20 58 55.5t22 75.5q0 44 -24 69q-22 22 -56 22q-37 0 -58 -24
t-21 -67q0 -40 21.5 -76t57.5 -55z" />
    <glyph glyph-name="uniFB6E" unicode="&#x6a6;" horiz-adv-x="952" arabic-form="isolated" 
d="M685 715q0 -26 -18.5 -44t-44.5 -18t-44 18t-18 44t18 43.5t44 17.5t44.5 -18t18.5 -43zM824 715q0 -26 -18.5 -44t-44.5 -18t-44 18t-18 44q0 25 18 43t44 18t44.5 -18t18.5 -43zM685 575q0 -26 -18.5 -44t-44.5 -18t-44 18t-18 44q0 25 18 43t44 18t44.5 -18t18.5 -43z
M824 575q0 -26 -18.5 -44t-44.5 -18t-44 18t-18 44q0 25 18 43t44 18t44.5 -18t18.5 -43zM702 0h-395q-118 0 -183 79q-50 61 -50 146q0 67 36 121q35 51 93 75l52 -80q-31 -16 -48.5 -44t-17.5 -61q0 -49 35 -81q34 -31 87 -31h227q-28 50 -28 112q0 104 59 164
q52 52 133 52q89 0 140 -56q43 -48 43 -122v-87q0 -86 -51 -138q-49 -49 -132 -49zM626 233q0 -57 25 -86q21 -23 53 -23q60 0 60 64v81q0 71 -62 71q-36 0 -56 -28.5t-20 -78.5z" />
    <glyph glyph-name="uniFB6F" unicode="&#x6a6;" horiz-adv-x="981" arabic-form="final" 
d="M702 716q0 -26 -18 -43.5t-44 -17.5t-44 17.5t-18 43.5t18 43.5t44 17.5t44 -17.5t18 -43.5zM842 716q0 -25 -18.5 -43t-44.5 -18t-44 18t-18 43t18 43t44 18t44.5 -18t18.5 -43zM702 576q0 -25 -18 -43t-44 -18t-44 18t-18 43t18 43t44 18t44 -18t18 -43zM842 576
q0 -25 -18.5 -43t-44.5 -18t-44 18t-18 43t18 43t44 18t44.5 -18t18.5 -43zM628 0h-321q-118 0 -183 79q-50 61 -50 146q0 67 36 121q35 51 93 75l52 -80q-31 -16 -48.5 -44t-17.5 -61q0 -49 35 -81q34 -31 87 -31h241q-43 59 -43 125q0 95 58 152q54 53 140 53
q99 0 153 -67q45 -55 45 -138q0 -68 -43 -125h129v-124h-204q-45 0 -80 8q-34 -8 -79 -8zM707 122q36 20 58 55.5t22 75.5q0 45 -24 69q-21 22 -56 22q-37 0 -58 -24t-21 -67q0 -39 21.5 -75t57.5 -56z" />
    <glyph glyph-name="uniFB70" unicode="&#x6a6;" horiz-adv-x="537" arabic-form="initial" 
d="M280 716q0 -25 -18.5 -43t-44.5 -18t-44 17.5t-18 43.5t18 43.5t44 17.5t44.5 -18t18.5 -43zM419 716q0 -26 -18 -43.5t-45 -17.5q-26 0 -44 18t-18 43t18 43t44 18q27 0 45 -17.5t18 -43.5zM280 576q0 -25 -18.5 -43t-44.5 -18t-44 18t-18 43t18 43t44 18t44.5 -18
t18.5 -43zM419 576q0 -26 -18 -43.5t-45 -17.5q-26 0 -44 18t-18 43t18 43t44 18q27 0 45 -17.5t18 -43.5zM287 0h-297v124h133q-28 47 -28 112q0 104 59 164q52 52 133 52q89 0 139 -56q43 -48 43 -122v-87q0 -86 -51 -137q-49 -49 -131 -50zM211 233q0 -57 25 -86
q20 -23 52 -23q60 0 60 64v81q0 71 -61 71q-36 0 -56 -28.5t-20 -78.5z" />
    <glyph glyph-name="uniFB71" unicode="&#x6a6;" horiz-adv-x="546" arabic-form="medial" 
d="M265 716q0 -26 -18 -43.5t-44 -17.5t-44.5 18t-18.5 43t18.5 43t44.5 18t44 -17.5t18 -43.5zM405 716q0 -25 -18.5 -43t-44.5 -18t-44 18t-18 43t18 43t44 18t44.5 -18t18.5 -43zM265 576q0 -25 -18 -43t-44 -18t-44.5 18t-18.5 43t18.5 43t44.5 18t44 -18t18 -43z
M405 576q0 -25 -18.5 -43t-44.5 -18t-44 18t-18 43t18 43t44 18t44.5 -18t18.5 -43zM194 0h-204v124h128q-43 59 -43 125q0 95 58 152q54 53 140 53q99 0 153 -67q45 -55 45 -138q0 -68 -43 -125h128v-124h-203q-45 0 -80 8q-35 -8 -79 -8zM273 122q36 20 58 55.5t22 75.5
q0 44 -24 69q-22 22 -56 22q-37 0 -58 -24t-21 -67q0 -40 21.5 -76t57.5 -55z" />
    <glyph glyph-name="uniFB72" unicode="&#x684;" horiz-adv-x="597" arabic-form="isolated" 
d="M434 -337q-61 -29 -118 -29q-120 0 -194 76q-70 72 -70 191q0 148 117 237q102 77 266 86q-69 99 -152 99q-69 0 -139 -63l-63 72q88 111 215 111q87 0 161 -62q70 -59 110 -160v-99q-392 3 -392 -220q0 -71 51 -114q43 -37 106 -37q37 0 68 18zM425 -22q0 -21 -15 -36
t-37 -15t-37 14.5t-15 34.5q0 22 15.5 37.5t36.5 15.5q22 0 37 -14.5t15 -36.5zM371 -84q22 0 38 -14.5t16 -35.5q0 -22 -15 -37t-37 -15t-37 14.5t-15 35.5q0 22 15 37t35 15z" />
    <glyph glyph-name="uniFB73" unicode="&#x684;" horiz-adv-x="701" arabic-form="final" 
d="M434 -338q-56 -28 -118 -28q-120 0 -194 76q-70 73 -70 196q0 145 117 232q103 77 266 86q-69 99 -152 99q-69 0 -139 -63l-63 72q88 111 215 111q87 0 161 -62q70 -59 110 -160v-38l-37 -15q44 -44 149 -44h32v-124h-34q-110 0 -170 29q-55 26 -84 83q-123 -13 -189 -72
q-59 -53 -59 -133q0 -82 51 -128q42 -38 107 -38q39 0 75 18zM415 -30q0 -22 -14.5 -36.5t-36.5 -14.5t-37 14t-15 35q0 22 15.5 37.5t36.5 15.5t36 -15t15 -36zM415 -143q0 -22 -14.5 -37t-36.5 -15t-37 14.5t-15 35.5q0 22 15.5 37.5t36.5 15.5q22 -1 36.5 -15.5
t14.5 -35.5z" />
    <glyph glyph-name="uniFB74" unicode="&#x684;" horiz-adv-x="562" arabic-form="initial" 
d="M128 0h-138v124h135q89 0 150.5 22.5t118.5 76.5q-70 100 -154 100q-68 0 -139 -63l-62 72q88 111 214 111q87 0 161 -62q71 -59 111 -160v-35q-83 -113 -192 -155q-82 -31 -205 -31zM314 -135q0 -25 -18.5 -43t-44.5 -18t-44 18t-18 43q0 26 18 44t44 18t44.5 -18
t18.5 -44zM314 -272q0 -25 -18.5 -43t-44.5 -18t-44 18t-18 43q0 26 18 44t44 18t44.5 -18t18.5 -44z" />
    <glyph glyph-name="uniFB75" unicode="&#x684;" horiz-adv-x="670" arabic-form="medial" 
d="M128 0h-138v124h135q89 0 150.5 22.5t118.5 76.5q-70 100 -154 100q-68 0 -139 -63l-62 72q88 111 214 111q87 0 161 -62q71 -59 111 -160v-27l-16 -30q41 -40 140 -40h31v-124h-34q-95 0 -152 21q-53 19 -84 60q-113 -81 -282 -81zM344 -135q0 -25 -18.5 -43t-44.5 -18
t-44 18t-18 43q0 26 18 44t44 18t44.5 -18t18.5 -44zM344 -272q0 -25 -18.5 -43t-44.5 -18t-44 18t-18 43q0 26 18 44t44 18t44.5 -18t18.5 -44z" />
    <glyph glyph-name="uniFB76" unicode="&#x683;" horiz-adv-x="597" arabic-form="isolated" 
d="M500 -320q-81 -46 -184 -46q-120 0 -194 76q-70 73 -70 196q0 145 117 232q103 77 266 86q-69 99 -152 99q-69 0 -139 -63l-63 72q88 111 215 111q87 0 161 -62q70 -59 110 -160v-99q-193 1 -295 -57q-97 -56 -97 -158q0 -77 55 -120q44 -34 109 -34q64 0 125 26z
M393 -91q0 -24 -17.5 -41t-42.5 -17t-43 17t-18 41t18 41.5t43 17.5t42.5 -17t17.5 -42zM534 -91q0 -24 -17.5 -41t-42.5 -17t-43 17.5t-18 40.5q0 24 18 41.5t43 17.5t42.5 -17t17.5 -42z" />
    <glyph glyph-name="uniFB77" unicode="&#x683;" horiz-adv-x="701" arabic-form="final" 
d="M500 -320q-81 -46 -184 -46q-120 0 -194 76q-70 73 -70 196q0 145 117 232q103 77 266 86q-69 99 -152 99q-69 0 -139 -63l-63 72q88 111 215 111q87 0 161 -62q70 -59 110 -160v-38l-37 -15q44 -44 149 -44h32v-124h-34q-110 0 -170 29q-55 26 -84 83q-125 -18 -189 -74
q-59 -52 -59 -131q0 -77 54 -120q44 -34 107 -34q67 0 128 26zM382 -91q0 -23 -17 -39t-41 -16q-23 0 -40 16.5t-17 38.5q0 23 17 39.5t40 16.5q24 0 41 -16.5t17 -39.5zM515 -91q0 -22 -17 -38.5t-40 -16.5t-40 16.5t-17 38.5q0 23 17 39.5t40 16.5t40 -16.5t17 -39.5z" />
    <glyph glyph-name="uniFB78" unicode="&#x683;" horiz-adv-x="562" arabic-form="initial" 
d="M128 0h-138v124h135q89 0 150.5 22.5t118.5 76.5q-70 100 -154 100q-68 0 -139 -63l-62 72q88 111 214 111q87 0 161 -62q71 -59 111 -160v-35q-83 -113 -192 -155q-82 -31 -205 -31zM253 -140q0 -28 -20.5 -48t-49.5 -20q-28 0 -48.5 20t-20.5 48q0 27 20.5 47t48.5 20
q29 0 49.5 -19.5t20.5 -47.5zM406 -140q0 -29 -20 -48.5t-49 -19.5q-28 0 -48.5 20t-20.5 48q0 27 20.5 47t48.5 20q29 0 49 -19.5t20 -47.5z" />
    <glyph glyph-name="uniFB79" unicode="&#x683;" horiz-adv-x="670" arabic-form="medial" 
d="M128 0h-138v124h135q89 0 150.5 22.5t118.5 76.5q-70 100 -154 100q-68 0 -139 -63l-62 72q88 111 214 111q87 0 161 -62q71 -59 111 -160v-27l-16 -30q41 -40 140 -40h31v-124h-34q-95 0 -152 21q-53 19 -84 60q-113 -81 -282 -81zM258 -140q0 -28 -20 -48t-49 -20
q-28 0 -48.5 20t-20.5 48q0 27 20.5 47t48.5 20q29 0 49 -19.5t20 -47.5zM412 -140q0 -29 -20 -48.5t-50 -19.5q-28 0 -48.5 20t-20.5 48q0 27 20.5 47t48.5 20q30 0 50 -19.5t20 -47.5z" />
    <glyph glyph-name="uniFB7A" unicode="&#x686;" horiz-adv-x="597" arabic-form="isolated" 
d="M400 -231l34 -106q-61 -29 -118 -29q-120 0 -194 76q-70 72 -70 191q0 148 117 237q102 77 266 86q-69 99 -152 99q-69 0 -139 -63l-63 72q88 111 215 111q87 0 161 -62q70 -59 110 -160v-99q-392 3 -392 -220q0 -71 51 -114q43 -37 106 -37q37 0 68 18zM401 -38
q0 -22 -16.5 -38t-39.5 -16t-39 16t-16 38q0 23 16 39t39 16t39.5 -16t16.5 -39zM536 -38q0 -22 -16.5 -38t-39.5 -16t-39 16t-16 38q0 23 16 39t39 16t39.5 -16.5t16.5 -38.5zM468 -148q0 -22 -16.5 -38t-39.5 -16t-39.5 16t-16.5 38q0 23 16.5 39t39.5 16t39.5 -16
t16.5 -39z" />
    <glyph glyph-name="uniFB7B" unicode="&#x686;" horiz-adv-x="701" arabic-form="final" 
d="M434 -339q-56 -28 -118 -28q-120 0 -194 77q-70 73 -70 196q0 145 117 232q103 77 266 86q-69 99 -152 99q-68 0 -139 -63l-62 72q85 111 214 111q87 0 161 -62q70 -59 110 -159v-39l-37 -15q43 -44 149 -44h32v-124h-34q-109 0 -169 29q-55 26 -85 83q-123 -13 -189 -72
q-59 -53 -59 -134q0 -76 54 -119q42 -35 102 -35q36 0 69 17zM387 -46q0 -22 -15.5 -37.5t-38.5 -15.5q-22 0 -38 15.5t-16 37.5q0 20 16 35.5t38 15.5t38 -15t16 -36zM452 -151q0 -22 -15.5 -37.5t-38.5 -15.5q-22 0 -38 16t-16 37t16 36t38 15t38 -14.5t16 -36.5zM517 -46
q0 -22 -15.5 -37.5t-38.5 -15.5q-22 0 -38 15.5t-16 37.5q0 20 16 35.5t38 15.5t38 -15t16 -36z" />
    <glyph glyph-name="uniFB7C" unicode="&#x686;" horiz-adv-x="562" arabic-form="initial" 
d="M128 0h-138v124h135q89 0 150.5 22.5t118.5 76.5q-70 100 -154 100q-68 0 -139 -63l-62 72q88 111 214 111q87 0 161 -62q71 -59 111 -160v-35q-83 -113 -192 -155q-82 -31 -205 -31zM244 -140q0 -28 -20.5 -48t-49.5 -20q-28 0 -48.5 20t-20.5 48q0 27 20.5 47t48.5 20
q29 0 49.5 -19.5t20.5 -47.5zM397 -140q0 -28 -20.5 -48t-48.5 -20q-29 0 -49 20t-20 48t20 47.5t49 19.5q28 0 48.5 -20t20.5 -47zM315 -270q0 -25 -18.5 -43t-45.5 -18q-26 0 -44 18t-18 43t18 43t44 18q27 0 45.5 -18t18.5 -43z" />
    <glyph glyph-name="uniFB7D" unicode="&#x686;" horiz-adv-x="670" arabic-form="medial" 
d="M128 0h-138v124h135q89 0 150.5 22.5t118.5 76.5q-70 100 -154 100q-68 0 -139 -63l-62 72q88 111 214 111q87 0 161 -62q71 -59 111 -160v-27l-16 -30q41 -40 140 -40h31v-124h-34q-95 0 -152 21q-53 19 -84 60q-113 -81 -282 -81zM274 -140q0 -28 -20.5 -48t-49.5 -20
q-28 0 -48.5 20t-20.5 48q0 27 20.5 47t48.5 20q29 0 49.5 -19.5t20.5 -47.5zM427 -140q0 -28 -20.5 -48t-48.5 -20q-29 0 -49 20t-20 48t20 47.5t49 19.5q28 0 48.5 -20t20.5 -47zM345 -270q0 -25 -18.5 -43t-45.5 -18q-25 0 -43.5 18t-18.5 43t18.5 43t43.5 18
q27 0 45.5 -18t18.5 -43z" />
    <glyph glyph-name="uniFB7E" unicode="&#x687;" horiz-adv-x="597" arabic-form="isolated" 
d="M434 -337q-61 -29 -118 -29q-120 0 -194 76q-70 72 -70 191q0 148 117 237q102 77 266 86q-69 99 -152 99q-69 0 -139 -63l-63 72q88 111 215 111q87 0 161 -62q70 -59 110 -160v-99q-392 3 -392 -220q0 -71 51 -114q43 -37 106 -37q37 0 68 18zM408 -23q0 -20 -14.5 -34
t-35.5 -14t-35.5 14t-14.5 34q0 21 14.5 35.5t35.5 14.5t35.5 -14.5t14.5 -35.5zM520 -23q0 -20 -14.5 -34t-35.5 -14t-35.5 14t-14.5 34q0 21 14.5 35.5t35.5 14.5t35.5 -14.5t14.5 -35.5zM409 -131q0 -20 -14.5 -34.5t-35.5 -14.5t-35.5 14.5t-14.5 34.5t15 34.5t35 14.5
t35 -14.5t15 -34.5zM521 -131q0 -21 -14.5 -35t-35.5 -14t-35.5 14t-14.5 35q0 20 14.5 34.5t35.5 14.5t35.5 -14.5t14.5 -34.5z" />
    <glyph glyph-name="uniFB7F" unicode="&#x687;" horiz-adv-x="701" arabic-form="final" 
d="M434 -338q-56 -28 -118 -28q-120 0 -194 76q-70 73 -70 196q0 145 117 232q103 77 266 86q-69 99 -152 99q-69 0 -139 -63l-63 72q88 111 215 111q87 0 161 -62q70 -59 110 -160v-38l-37 -15q44 -44 149 -44h32v-124h-34q-110 0 -170 29q-55 26 -84 83q-123 -13 -189 -72
q-59 -53 -59 -133q0 -82 51 -128q42 -38 107 -38q39 0 75 18zM370 -47q0 -19 -13 -32t-33 -13q-19 0 -32 13t-13 32q0 18 13.5 31.5t31.5 13.5q19 0 32.5 -13t13.5 -32zM473 -47q0 -19 -13 -32t-33 -13q-19 0 -32 13t-13 32t13 32t32 13t32.5 -13t13.5 -32zM371 -147
q0 -19 -13.5 -32t-32.5 -13q-18 0 -31.5 13.5t-13.5 31.5q0 19 13 32t32 13t32.5 -13t13.5 -32zM474 -147q0 -19 -13.5 -32t-32.5 -13t-32 13t-13 32q0 20 12.5 32.5t32.5 12.5q19 0 32.5 -13t13.5 -32z" />
    <glyph glyph-name="uniFB80" unicode="&#x687;" horiz-adv-x="562" arabic-form="initial" 
d="M128 0h-138v124h135q89 0 150.5 22.5t118.5 76.5q-70 100 -154 100q-68 0 -139 -63l-62 72q88 111 214 111q87 0 161 -62q71 -59 111 -160v-35q-83 -113 -192 -155q-82 -31 -205 -31zM244 -135q0 -25 -18 -43t-44 -18t-44.5 18t-18.5 43q0 26 18.5 44t44.5 18t44 -18
t18 -44zM384 -135q0 -25 -18.5 -43t-44.5 -18t-44 18t-18 43q0 26 18 44t44 18t44.5 -18t18.5 -44zM244 -272q0 -25 -18 -43t-44 -18t-44.5 18t-18.5 43t18.5 43t44.5 18t44 -18t18 -43zM384 -272q0 -25 -18.5 -43t-44.5 -18t-44 18t-18 43t18 43t44 18t44.5 -18t18.5 -43z
" />
    <glyph glyph-name="uniFB81" unicode="&#x687;" horiz-adv-x="670" arabic-form="medial" 
d="M128 0h-138v124h135q89 0 150.5 22.5t118.5 76.5q-70 100 -154 100q-68 0 -139 -63l-62 72q88 111 214 111q87 0 161 -62q71 -59 111 -160v-27l-16 -30q41 -40 140 -40h31v-124h-34q-95 0 -152 21q-53 19 -84 60q-113 -81 -282 -81zM274 -135q0 -25 -18 -43t-44 -18
t-44.5 18t-18.5 43q0 26 18.5 44t44.5 18t44 -18t18 -44zM414 -135q0 -25 -18.5 -43t-44.5 -18t-44 18t-18 43q0 26 18 44t44 18t44.5 -18t18.5 -44zM274 -272q0 -25 -18 -43t-44 -18t-44.5 18t-18.5 43t18.5 43t44.5 18t44 -18t18 -43zM414 -272q0 -25 -18.5 -43t-44.5 -18
t-44 18t-18 43t18 43t44 18t44.5 -18t18.5 -43z" />
    <glyph glyph-name="uniFB82" unicode="&#x68d;" horiz-adv-x="476" arabic-form="isolated" 
d="M225 0h-205v124h180q73 0 73 62q0 39 -30 83.5t-79 77.5l73 99q82 -55 125 -128q39 -66 39 -136q0 -88 -43 -134q-45 -48 -133 -48zM216 -140q0 -28 -20 -48t-49 -20q-28 0 -48.5 20t-20.5 48q0 27 20.5 47t48.5 20q29 0 49 -19.5t20 -47.5zM370 -140q0 -29 -20 -48.5
t-50 -19.5q-28 0 -48.5 20t-20.5 48q0 27 20.5 47t48.5 20q30 0 50 -19.5t20 -47.5z" />
    <glyph glyph-name="uniFB83" unicode="&#x68d;" horiz-adv-x="522" arabic-form="final" 
d="M225 0h-205v124h180q73 0 73 62q0 39 -30 83.5t-79 77.5l73 99q76 -51 118 -118q38 -60 44 -124q7 -80 103 -80h30v-124h-39q-87 0 -140 44q-44 -44 -128 -44zM238 -140q0 -28 -20.5 -48t-48.5 -20q-29 0 -49 20t-20 48t20 47.5t49 19.5q28 0 48.5 -20t20.5 -47z
M391 -140q0 -29 -20 -48.5t-49 -19.5q-28 0 -48.5 20t-20.5 48q0 27 20.5 47t48.5 20q29 0 49 -19.5t20 -47.5z" />
    <glyph glyph-name="uniFB84" unicode="&#x68c;" horiz-adv-x="476" arabic-form="isolated" 
d="M197 578q0 -28 -20 -47.5t-49 -19.5t-49 19.5t-20 47.5q0 27 20.5 47t48.5 20q29 0 49 -19.5t20 -47.5zM351 578q0 -29 -20 -48t-50 -19q-29 0 -49 19.5t-20 47.5q0 27 20.5 47t48.5 20q30 0 50 -19.5t20 -47.5zM225 0h-205v124h180q73 0 73 62q0 39 -30 83.5t-79 77.5
l73 99q82 -55 125 -128q39 -66 39 -136q0 -88 -43 -134q-45 -48 -133 -48z" />
    <glyph glyph-name="uniFB85" unicode="&#x68c;" horiz-adv-x="522" arabic-form="final" 
d="M199 578q0 -28 -20.5 -47.5t-49.5 -19.5t-49 19.5t-20 47.5q0 27 20.5 47t48.5 20q29 0 49.5 -19.5t20.5 -47.5zM352 578q0 -29 -20 -48t-49 -19t-49 19.5t-20 47.5t20 47.5t49 19.5t49 -19.5t20 -47.5zM225 0h-205v124h180q73 0 73 62q0 39 -30 83.5t-79 77.5l73 99
q76 -51 118 -118q38 -60 44 -124q7 -80 103 -80h30v-124h-39q-87 0 -140 44q-44 -44 -128 -44z" />
    <glyph glyph-name="uniFB86" unicode="&#x68e;" horiz-adv-x="476" arabic-form="isolated" 
d="M268 707q0 -25 -18.5 -43t-44.5 -18t-44 18t-18 43q0 26 18 44t44 18t44.5 -18t18.5 -44zM197 578q0 -28 -20 -47.5t-49 -19.5t-49 19.5t-20 47.5q0 27 20.5 47t48.5 20q29 0 49 -19.5t20 -47.5zM351 578q0 -28 -20.5 -47.5t-49.5 -19.5t-49 19.5t-20 47.5q0 27 20.5 47
t48.5 20q29 0 49.5 -19.5t20.5 -47.5zM225 0h-205v124h180q73 0 73 62q0 39 -30 83.5t-79 77.5l73 99q82 -55 125 -128q39 -66 39 -136q0 -88 -43 -134q-45 -48 -133 -48z" />
    <glyph glyph-name="uniFB87" unicode="&#x68e;" horiz-adv-x="522" arabic-form="final" 
d="M270 707q0 -25 -18.5 -43t-44.5 -18t-44.5 18t-18.5 43t18.5 43.5t44.5 18.5t44.5 -18.5t18.5 -43.5zM199 578q0 -28 -20.5 -47.5t-49.5 -19.5t-49 19.5t-20 47.5q0 27 20.5 47t48.5 20q29 0 49.5 -19.5t20.5 -47.5zM352 578q0 -28 -20 -47.5t-49 -19.5t-49 19.5
t-20 47.5t20 47.5t49 19.5q28 0 48.5 -20t20.5 -47zM225 0h-205v124h180q73 0 73 62q0 39 -30 83.5t-79 77.5l73 99q76 -51 118 -118q38 -60 44 -124q7 -80 103 -80h30v-124h-39q-87 0 -140 44q-44 -44 -128 -44z" />
    <glyph glyph-name="uniFB88" unicode="&#x688;" horiz-adv-x="476" arabic-form="isolated" 
d="M263 539h-224v60h65v184h64v-110q41 59 104 59q48 0 75 -30q24 -27 24 -70q0 -93 -108 -93zM171 599l90 1q41 0 41 32q0 17 -12 27.5t-31 10.5q-24 0 -48 -19.5t-40 -51.5zM225 0h-205v124h180q73 0 73 62q0 39 -30 83.5t-79 77.5l73 99q82 -55 125 -128q39 -66 39 -136
q0 -88 -43 -134q-45 -48 -133 -48z" />
    <glyph glyph-name="uniFB89" unicode="&#x688;" horiz-adv-x="522" arabic-form="final" 
d="M264 539h-223v60h65v184h63v-110q41 59 104 59q48 0 75 -30q24 -27 24 -70q0 -93 -108 -93zM172 599l90 1q41 0 41 32q0 17 -11.5 27.5t-30.5 10.5q-25 0 -49 -19t-40 -52zM225 0h-205v124h180q73 0 73 62q0 39 -30 83.5t-79 77.5l73 99q76 -51 118 -118q38 -60 44 -124
q7 -80 103 -80h30v-124h-39q-87 0 -140 44q-44 -44 -128 -44z" />
    <glyph glyph-name="uniFB8A" unicode="&#x698;" horiz-adv-x="353" arabic-form="isolated" 
d="M274 714q0 -25 -18.5 -43t-45.5 -18q-25 0 -43.5 18t-18.5 43t18.5 43t43.5 18q27 0 45.5 -18t18.5 -43zM203 584q0 -28 -20.5 -47.5t-49.5 -19.5q-28 0 -48.5 20t-20.5 47t20.5 47t48.5 20q29 0 49.5 -19.5t20.5 -47.5zM356 584q0 -27 -20.5 -47t-48.5 -20
q-29 0 -49 19.5t-20 47.5t20 47.5t49 19.5q28 0 48.5 -20t20.5 -47zM275 433v-422q0 -104 -59 -158q-48 -44 -124 -44q-77 0 -145 39l30 93q44 -22 81 -22q45 0 68 31q22 29 22 81v402h127z" />
    <glyph glyph-name="uniFB8B" unicode="&#x698;" horiz-adv-x="401" arabic-form="final" 
d="M268 714q0 -25 -18.5 -43t-44.5 -18t-44.5 18t-18.5 43t18.5 43t44.5 18t44.5 -18t18.5 -43zM197 584q0 -28 -20.5 -47.5t-49.5 -19.5q-28 0 -48.5 20t-20.5 47t20.5 47t48.5 20q29 0 49.5 -19.5t20.5 -47.5zM350 584q0 -28 -20 -47.5t-49 -19.5q-28 0 -48.5 20t-20.5 47
t20.5 47t48.5 20q29 0 49 -19.5t20 -47.5zM269 25v-17q-1 -102 -58 -155q-47 -44 -119 -44q-77 0 -145 39l30 93q44 -22 81 -22q45 0 68 31q22 29 22 81v402h127v-187q0 -68 27 -96q25 -26 79 -26h30v-124h-39q-60 0 -103 25z" />
    <glyph glyph-name="uniFB8C" unicode="&#x691;" horiz-adv-x="353" arabic-form="isolated" 
d="M268 545h-223v61h64v184h64v-110q42 58 104 58q49 0 75 -30q24 -26 24 -70q0 -93 -108 -93zM176 606l90 1q41 0 41 31q0 17 -11.5 27.5t-30.5 10.5q-25 0 -49 -19t-40 -51zM275 433v-422q0 -104 -59 -158q-48 -44 -124 -44q-77 0 -145 39l30 93q44 -22 81 -22q45 0 68 31
q22 29 22 81v402h127z" />
    <glyph glyph-name="uniFB8D" unicode="&#x691;" horiz-adv-x="401" arabic-form="final" 
d="M262 545h-223v61h65v184h64v-110q42 58 103 58q49 0 75 -30q24 -26 24 -70q0 -93 -108 -93zM170 606l90 1q41 0 41 31q0 17 -11.5 27.5t-30.5 10.5q-25 0 -49 -19t-40 -51zM269 25v-17q-1 -102 -58 -155q-47 -44 -119 -44q-77 0 -145 39l30 93q44 -22 81 -22q45 0 68 31
q22 29 22 81v402h127v-187q0 -68 27 -96q25 -26 79 -26h30v-124h-39q-60 0 -103 25z" />
    <glyph glyph-name="uniFB8E" unicode="&#x6a9;" horiz-adv-x="942" arabic-form="isolated" 
d="M609 411h66q124 0 178 -59q45 -50 45 -146v-1q0 -205 -221 -205h-374q-117 0 -179 72q-50 57 -50 145q0 70 36 125q34 51 93 76l52 -81q-30 -16 -47 -44.5t-17 -63.5q0 -49 34 -78q32 -27 85 -27h362q97 0 97 84v2q0 76 -92 76h-208v124l237 243l69 -69z" />
    <glyph glyph-name="uniFB8F" unicode="&#x6a9;" horiz-adv-x="1021" arabic-form="final" 
d="M671 0h-368q-117 0 -179 72q-50 57 -50 145q0 70 36 125q34 51 93 76l52 -81q-30 -16 -47 -44.5t-17 -63.5q0 -49 34 -78q32 -27 85 -27h362q97 0 97 84v2q0 76 -92 76h-208v124l237 243l69 -69l-166 -173h66q223 0 223 -191v-4q0 -92 107 -92h26v-124h-34
q-110 0 -161 59q-59 -59 -165 -59z" />
    <glyph glyph-name="uniFB90" unicode="&#x6a9;" horiz-adv-x="554" arabic-form="initial" 
d="M290 0h-300v124h294q97 0 97 84v2q0 76 -91 76h-251v124l236 243l69 -69l-165 -173h108q124 0 178 -59q45 -50 45 -146v-1q0 -205 -220 -205z" />
    <glyph glyph-name="uniFB91" unicode="&#x6a9;" horiz-adv-x="634" arabic-form="medial" 
d="M290 0h-300v124h294q97 0 97 82v3q0 77 -91 77h-251v124l236 243l69 -69l-165 -173h112q116 0 172 -56q47 -47 47 -129v-6q0 -96 104 -96h30v-124h-39q-103 0 -156 59q-62 -59 -159 -59z" />
    <glyph glyph-name="uniFB92" unicode="&#x6af;" horiz-adv-x="942" arabic-form="isolated" 
d="M451 456l-49 50l205 214l48 -50zM609 411h66q124 0 178 -59q45 -50 45 -146v-1q0 -205 -221 -205h-374q-117 0 -179 72q-50 57 -50 145q0 70 36 125q34 51 93 76l52 -81q-30 -16 -47 -44.5t-17 -63.5q0 -49 34 -78q32 -27 85 -27h362q97 0 97 84v2q0 76 -92 76h-208v124
l237 243l69 -69z" />
    <glyph glyph-name="uniFB93" unicode="&#x6af;" horiz-adv-x="1021" arabic-form="final" 
d="M451 456l-49 50l205 214l48 -50zM671 0h-368q-117 0 -179 72q-50 57 -50 145q0 70 36 125q34 51 93 76l52 -81q-30 -16 -47 -44.5t-17 -63.5q0 -49 34 -78q32 -27 85 -27h362q97 0 97 84v2q0 76 -92 76h-208v124l237 243l69 -69l-166 -173h66q223 0 223 -191v-4
q0 -92 107 -92h26v-124h-34q-110 0 -161 59q-59 -59 -165 -59z" />
    <glyph glyph-name="uniFB94" unicode="&#x6af;" horiz-adv-x="554" arabic-form="initial" 
d="M23 462l-48 50l204 214l48 -50zM290 0h-300v124h294q97 0 97 84v2q0 76 -91 76h-251v124l236 243l69 -69l-165 -173h108q124 0 178 -59q45 -50 45 -146v-1q0 -205 -220 -205z" />
    <glyph glyph-name="uniFB95" unicode="&#x6af;" horiz-adv-x="634" arabic-form="medial" 
d="M23 462l-48 50l204 214l48 -50zM290 0h-300v124h294q97 0 97 82v3q0 77 -91 77h-251v124l236 243l69 -69l-165 -173h112q116 0 172 -56q47 -47 47 -129v-6q0 -96 104 -96h30v-124h-39q-103 0 -156 59q-62 -59 -159 -59z" />
    <glyph glyph-name="uniFB96" unicode="&#x6b3;" horiz-adv-x="942" arabic-form="isolated" 
d="M451 456l-49 50l205 214l48 -50zM609 411h66q124 0 178 -59q45 -50 45 -146v-1q0 -205 -221 -205h-374q-117 0 -179 72q-50 57 -50 145q0 70 36 125q34 51 93 76l52 -81q-30 -16 -47 -44.5t-17 -63.5q0 -49 34 -78q32 -27 85 -27h362q97 0 97 84v2q0 76 -92 76h-208v124
l237 243l69 -69zM547 -135q0 -26 -18 -43.5t-44 -17.5t-44.5 18t-18.5 43q0 26 18.5 44t44.5 18t44 -18t18 -44zM547 -272q0 -26 -18 -43.5t-44 -17.5t-44.5 18t-18.5 43q0 26 18.5 44t44.5 18t44 -18t18 -44z" />
    <glyph glyph-name="uniFB97" unicode="&#x6b3;" horiz-adv-x="1021" arabic-form="final" 
d="M451 456l-49 50l205 214l48 -50zM671 0h-368q-117 0 -179 72q-50 57 -50 145q0 70 36 125q34 51 93 76l52 -81q-30 -16 -47 -44.5t-17 -63.5q0 -49 34 -78q32 -27 85 -27h362q97 0 97 84v2q0 76 -92 76h-208v124l237 243l69 -69l-166 -173h66q223 0 223 -191v-4
q0 -92 107 -92h26v-124h-34q-110 0 -161 59q-59 -59 -165 -59zM547 -135q0 -26 -18 -43.5t-44 -17.5t-44.5 18t-18.5 43q0 26 18.5 44t44.5 18t44 -18t18 -44zM547 -272q0 -26 -18 -43.5t-44 -17.5t-44.5 18t-18.5 43q0 26 18.5 44t44.5 18t44 -18t18 -44z" />
    <glyph glyph-name="uniFB98" unicode="&#x6b3;" horiz-adv-x="554" arabic-form="initial" 
d="M23 462l-48 50l204 214l48 -50zM290 0h-300v124h294q97 0 97 84v2q0 76 -91 76h-251v124l236 243l69 -69l-165 -173h108q124 0 178 -59q45 -50 45 -146v-1q0 -205 -220 -205zM257 -135q0 -25 -18.5 -43t-44.5 -18t-44 17.5t-18 43.5t18 44t44 18t44.5 -18t18.5 -44z
M257 -272q0 -25 -18.5 -43t-44.5 -18t-44 17.5t-18 43.5t18 44t44 18t44.5 -18t18.5 -44z" />
    <glyph glyph-name="uniFB99" unicode="&#x6b3;" horiz-adv-x="634" arabic-form="medial" 
d="M23 462l-48 50l204 214l48 -50zM290 0h-300v124h294q97 0 97 82v3q0 77 -91 77h-251v124l236 243l69 -69l-165 -173h112q116 0 172 -56q47 -47 47 -129v-6q0 -96 104 -96h30v-124h-39q-103 0 -156 59q-62 -59 -159 -59zM268 -135q0 -25 -18 -43t-44 -18t-44.5 18
t-18.5 43q0 26 18.5 44t44.5 18t44 -18t18 -44zM268 -272q0 -25 -18 -43t-44 -18t-44.5 18t-18.5 43q0 26 18.5 44t44.5 18t44 -18t18 -44z" />
    <glyph glyph-name="uniFB9A" unicode="&#x6b1;" horiz-adv-x="942" arabic-form="isolated" 
d="M385 745q0 -28 -20.5 -48t-49.5 -20q-28 0 -48.5 20t-20.5 48q0 27 20.5 47t48.5 20q29 0 49.5 -19.5t20.5 -47.5zM538 745q0 -29 -20 -48.5t-49 -19.5t-49 20t-20 48t20 47.5t49 19.5t49 -19.5t20 -47.5zM451 456l-49 50l205 214l48 -50zM609 411h66q124 0 178 -59
q45 -50 45 -146v-1q0 -205 -221 -205h-374q-117 0 -179 72q-50 57 -50 145q0 70 36 125q34 51 93 76l52 -81q-30 -16 -47 -44.5t-17 -63.5q0 -49 34 -78q32 -27 85 -27h362q97 0 97 84v2q0 76 -92 76h-208v124l237 243l69 -69z" />
    <glyph glyph-name="uniFB9B" unicode="&#x6b1;" horiz-adv-x="1021" arabic-form="final" 
d="M385 745q0 -28 -20.5 -48t-49.5 -20q-28 0 -48.5 20t-20.5 48q0 27 20.5 47t48.5 20q29 0 49.5 -19.5t20.5 -47.5zM538 745q0 -29 -20 -48.5t-49 -19.5t-49 20t-20 48t20 47.5t49 19.5t49 -19.5t20 -47.5zM451 456l-49 50l205 214l48 -50zM671 0h-368q-117 0 -179 72
q-50 57 -50 145q0 70 36 125q34 51 93 76l52 -81q-30 -16 -47 -44.5t-17 -63.5q0 -49 34 -78q32 -27 85 -27h362q97 0 97 84v2q0 76 -92 76h-208v124l237 243l69 -69l-166 -173h66q223 0 223 -191v-4q0 -92 107 -92h26v-124h-34q-110 0 -161 59q-59 -59 -165 -59z" />
    <glyph glyph-name="uniFB9C" unicode="&#x6b1;" horiz-adv-x="554" arabic-form="initial" 
d="M-37 762q0 -28 -20.5 -47.5t-49.5 -19.5q-28 0 -48 19.5t-20 47.5t20 47.5t48 19.5q29 0 49.5 -19.5t20.5 -47.5zM116 762q0 -29 -19.5 -48t-49.5 -19q-28 0 -48.5 20t-20.5 47t20.5 47t48.5 20q29 0 49 -19.5t20 -47.5zM23 462l-48 50l204 214l48 -50zM290 0h-300v124
h294q97 0 97 84v2q0 76 -91 76h-251v124l236 243l69 -69l-165 -173h108q124 0 178 -59q45 -50 45 -146v-1q0 -205 -220 -205z" />
    <glyph glyph-name="uniFB9D" unicode="&#x6b1;" horiz-adv-x="634" arabic-form="medial" 
d="M-37 762q0 -28 -20.5 -47.5t-49.5 -19.5q-28 0 -48 19.5t-20 47.5t20 47.5t48 19.5q29 0 49.5 -19.5t20.5 -47.5zM116 762q0 -29 -19.5 -48t-49.5 -19q-28 0 -48.5 20t-20.5 47t20.5 47t48.5 20q29 0 49 -19.5t20 -47.5zM23 462l-48 50l204 214l48 -50zM290 0h-300v124
h294q97 0 97 82v3q0 77 -91 77h-251v124l236 243l69 -69l-165 -173h112q116 0 172 -56q47 -47 47 -129v-6q0 -96 104 -96h30v-124h-39q-103 0 -156 59q-62 -59 -159 -59z" />
    <glyph glyph-name="uniFB9E" unicode="&#x6ba;" horiz-adv-x="682" arabic-form="isolated" 
d="M605 433v-347q0 -138 -82 -211q-73 -66 -198 -66q-127 0 -199 79q-62 68 -62 172q0 91 52 169l99 -34q-32 -61 -32 -120q0 -66 41 -105q38 -37 101 -37q68 0 109 40q42 41 42 114v346h129z" />
    <glyph glyph-name="uniFB9F" unicode="&#x6ba;" horiz-adv-x="730" arabic-form="final" 
d="M589 21q-18 -107 -94 -163q-68 -49 -171 -49q-127 0 -199 79q-62 68 -62 172q0 92 53 169l99 -34q-33 -60 -33 -120q0 -66 41 -105q38 -37 101 -37q68 0 110 40q42 41 42 114v346h128v-187q0 -68 27 -96q25 -26 79 -26h30v-124h-39q-62 0 -111 29q0 -5 -1 -8z" />
    <glyph glyph-name="uniFBA0" unicode="&#x6bb;" horiz-adv-x="682" arabic-form="isolated" 
d="M322 424h-224v61h65v183h64v-109q42 58 104 58q48 0 75 -30q24 -27 24 -70q0 -93 -108 -93zM230 485h90q41 0 41 32q0 17 -12 27.5t-31 10.5q-25 0 -48.5 -19t-39.5 -51zM605 433v-347q0 -138 -82 -211q-73 -66 -198 -66q-127 0 -199 79q-62 68 -62 172q0 91 52 169
l99 -34q-32 -61 -32 -120q0 -66 41 -105q38 -37 101 -37q68 0 109 40q42 41 42 114v346h129z" />
    <glyph glyph-name="uniFBA1" unicode="&#x6bb;" horiz-adv-x="730" arabic-form="final" 
d="M322 424h-224v61h65v183h64v-109q42 58 104 58q48 0 75 -30q24 -27 24 -70q0 -93 -108 -93zM230 485h90q41 0 41 32q0 17 -12 27.5t-31 10.5q-25 0 -48.5 -19t-39.5 -51zM589 21q-18 -107 -94 -163q-68 -49 -171 -49q-127 0 -199 79q-62 68 -62 172q0 92 53 169l99 -34
q-33 -60 -33 -120q0 -66 41 -105q38 -37 101 -37q68 0 110 40q42 41 42 114v346h128v-187q0 -68 27 -96q25 -26 79 -26h30v-124h-39q-62 0 -111 29q0 -5 -1 -8z" />
    <glyph glyph-name="uniFBA2" unicode="&#x6bb;" horiz-adv-x="332" arabic-form="initial" 
d="M244 543h-224v61h65v183h64v-109q42 58 104 58q48 0 74 -30q24 -27 24 -70q0 -93 -107 -93zM151 604h90q41 0 41 32q0 17 -11.5 27.5t-30.5 10.5q-25 0 -48.5 -18.5t-40.5 -51.5zM29 0h-39v124h30q61 0 85 34q21 28 21 88v187h128v-215q0 -218 -225 -218z" />
    <glyph glyph-name="uniFBA3" unicode="&#x6bb;" horiz-adv-x="379" arabic-form="medial" 
d="M249 543h-224v61h65v183h64v-109q42 58 103 58q48 0 75 -30q24 -27 24 -70q0 -93 -107 -93zM156 604h90q41 0 41 32q0 17 -11.5 27.5t-30.5 10.5q-25 0 -48.5 -18.5t-40.5 -51.5zM29 0h-39v124h30q61 0 85 34q21 28 21 88v187h128v-187q0 -68 27 -96q25 -26 79 -26h29
v-124h-39q-108 0 -160 64q-54 -64 -161 -64z" />
    <glyph glyph-name="uniFBA4" unicode="&#x6c0;" horiz-adv-x="521" arabic-form="isolated" 
d="M355 535h-202v60h42q-11 19 -11 39q0 35 26 58q22 20 56 20q41 0 67 -31l-21 -40q-17 12 -36 12q-29 0 -29 -27q0 -15 13 -31h95v-60zM268 -13h-16q-91 0 -140 69q-44 62 -44 167q0 111 60 174q52 53 132 53q93 0 146 -69q47 -61 47 -158q0 -120 -57 -183
q-49 -53 -128 -53zM182 221q0 -56 23 -85q19 -25 50 -25h11q35 0 53.5 28.5t18.5 81.5q0 54 -23 83q-20 25 -55 25q-37 0 -57.5 -28.5t-20.5 -79.5z" />
    <glyph glyph-name="uniFBA5" unicode="&#x6c0;" horiz-adv-x="552" arabic-form="final" 
d="M339 571h-201v59h42q-11 18 -11 39q0 36 26 58q22 20 56 20q41 0 67 -30l-21 -41q-19 13 -36 13q-29 0 -29 -28q0 -15 13 -31h94v-59zM562 0h-39q-119 0 -173 73q-49 -48 -121 -48q-81 0 -133 62q-50 58 -50 148q0 101 65 161q57 54 146 54h54v45h116v-249q0 -68 27 -96
q25 -26 78 -26h30v-124zM311 342h-51q-48 0 -73 -31q-20 -26 -20 -68q0 -48 23 -77q22 -26 57 -26t67 28q-3 24 -3 50v124z" />
    <glyph glyph-name="uniFBA6" unicode="&#x6c1;" horiz-adv-x="521" arabic-form="isolated" 
d="M268 -13h-16q-91 0 -140 69q-44 62 -44 167q0 111 60 174q52 53 132 53q93 0 146 -69q47 -61 47 -158q0 -120 -57 -183q-49 -53 -128 -53zM182 221q0 -56 23 -85q19 -25 50 -25h11q35 0 53.5 28.5t18.5 81.5q0 54 -23 83q-20 25 -55 25q-37 0 -57.5 -28.5t-20.5 -79.5z
" />
    <glyph glyph-name="uniFBA7" unicode="&#x6c1;" horiz-adv-x="643" arabic-form="final" 
d="M630 0q-90 0 -144 52q-23 22 -58 79q-22 36 -37 50q-23 21 -52 21q-59 0 -130 -78q-29 -31 -103 -134l-90 57q74 133 159 208q89 77 175 77q64 0 106 -36q24 -21 59 -78q33 -54 58 -72q30 -22 71 -22h9v-124h-23z" />
    <glyph glyph-name="uniFBA8" unicode="&#x6c1;" horiz-adv-x="332" arabic-form="initial" 
d="M29 0h-39v124h30q61 0 85 34q21 28 21 88v187h128v-215q0 -218 -225 -218zM98 -321l-113 41l71 217l100 -14z" />
    <glyph glyph-name="uniFBA9" unicode="&#x6c1;" horiz-adv-x="643" arabic-form="medial" 
d="M653 0h-13q-56 0 -77 -11q-23 -11 -30 -42.5t-7 -119.5v-148h-71q-155 0 -237 100q-68 83 -68 217q0 24 2 50q-59 -46 -145 -46h-17v124h14q105 0 209 135l98 -43q-40 -110 -40 -207q0 -96 39 -150q35 -49 94 -49v64q0 87 15 134q19 58 66 86q53 30 150 30h18v-124z" />
    <glyph glyph-name="uniFBAA" unicode="&#x6be;" horiz-adv-x="637" arabic-form="isolated" 
d="M127 0h-137v124h67h38q-25 41 -25 86q0 63 42 105q39 39 102 39q71 0 113 -52q34 -41 34 -96q0 -45 -25 -82q6 0 18 1q11 1 16 1q64 8 64 72q0 33 -15 67.5t-40 61.5q-74 76 -224 86l25 113q186 -11 297 -135q47 -52 69 -114q16 -45 16 -87q0 -190 -194 -190h-59
q-50 0 -93 19q-40 -19 -89 -19zM214 127q55 24 55 84q0 29 -14.5 45.5t-40.5 16.5t-40.5 -16.5t-14.5 -45.5q0 -59 55 -84z" />
    <glyph glyph-name="uniFBAB" unicode="&#x6be;" horiz-adv-x="685" arabic-form="final" 
d="M127 0h-137v124h70h35q-25 41 -25 86q0 63 42 105q39 39 102 39q71 0 113 -52q34 -41 34 -96q0 -45 -25 -82q10 0 30 2h2q66 6 66 72q0 33 -15 67.5t-40 61.5q-74 76 -224 86l25 113q184 -10 297 -131q46 -51 68 -110q16 -42 16 -81q0 -38 27.5 -59t76.5 -21h30v-124h-39
q-94 0 -147 45q-50 -45 -141 -45h-59q-50 0 -93 19q-40 -19 -89 -19zM214 127q55 24 55 84q0 29 -14.5 45.5t-40.5 16.5t-40.5 -16.5t-14.5 -45.5q0 -59 55 -84z" />
    <glyph glyph-name="uniFBAC" unicode="&#x6be;" horiz-adv-x="637" arabic-form="initial" 
d="M127 0h-137v124h67h38q-25 41 -25 86q0 63 42 105q39 39 102 39q71 0 113 -52q34 -41 34 -96q0 -45 -25 -82q6 0 18 1q11 1 16 1q64 8 64 72q0 33 -15 67.5t-40 61.5q-74 76 -224 86l25 113q186 -11 297 -135q47 -52 69 -114q16 -45 16 -87q0 -190 -194 -190h-59
q-50 0 -93 19q-40 -19 -89 -19zM214 127q55 24 55 84q0 29 -14.5 45.5t-40.5 16.5t-40.5 -16.5t-14.5 -45.5q0 -59 55 -84z" />
    <glyph glyph-name="uniFBAD" unicode="&#x6be;" horiz-adv-x="685" arabic-form="medial" 
d="M127 0h-137v124h70h35q-25 41 -25 86q0 63 42 105q39 39 102 39q71 0 113 -52q34 -41 34 -96q0 -45 -25 -82q10 0 30 2h2q66 6 66 72q0 33 -15 67.5t-40 61.5q-74 76 -224 86l25 113q184 -10 297 -131q46 -51 68 -110q16 -42 16 -81q0 -38 27.5 -59t76.5 -21h30v-124h-39
q-94 0 -147 45q-50 -45 -141 -45h-59q-50 0 -93 19q-40 -19 -89 -19zM214 127q55 24 55 84q0 29 -14.5 45.5t-40.5 16.5t-40.5 -16.5t-14.5 -45.5q0 -59 55 -84z" />
    <glyph glyph-name="uniFBAE" unicode="&#x6d2;" horiz-adv-x="914" arabic-form="isolated" 
d="M798 0h-546q-117 0 -167 50q-44 45 -44 136q0 97 62 144q54 42 150 42h48v20q0 178 189 178q67 0 117 -37l-36 -100q-35 25 -76 25q-43 0 -62.5 -29t-19.5 -93v-79h-159q-84 0 -84 -69q0 -35 19 -49.5t65 -14.5h582z" />
    <glyph glyph-name="uniFBAF" unicode="&#x6d2;" horiz-adv-x="812" arabic-form="final" 
d="M822 0h-216q-205 0 -311 -32q-84 -25 -84 -63q0 -21 17.5 -28.5t68.5 -7.5h347l-33 -124h-310q-119 0 -173 37q-50 34 -50 101q0 131 154 190q134 51 397 51h193v-124z" />
    <glyph glyph-name="uniFBB0" unicode="&#x6d3;" horiz-adv-x="914" arabic-form="isolated" 
d="M291 552h-201v59h41q-10 19 -10 40q0 35 26 58q22 20 56 20q40 0 66 -31l-20 -41q-19 13 -37 13q-28 0 -28 -28q0 -15 12 -31h95v-59zM798 0h-546q-117 0 -167 50q-44 45 -44 136q0 97 62 144q54 42 150 42h48v20q0 178 189 178q67 0 117 -37l-36 -100q-35 25 -76 25
q-43 0 -62.5 -29t-19.5 -93v-79h-159q-84 0 -84 -69q0 -35 19 -49.5t65 -14.5h582z" />
    <glyph glyph-name="uniFBB1" unicode="&#x6d3;" horiz-adv-x="812" arabic-form="final" 
d="M589 228h-201v59h41q-10 19 -10 39q0 36 26 58q22 20 56 20q41 0 66 -30l-20 -41q-17 12 -37 12q-28 0 -28 -27q0 -16 12 -31h95v-59zM822 0h-216q-205 0 -311 -32q-84 -25 -84 -63q0 -21 17.5 -28.5t68.5 -7.5h347l-33 -124h-310q-119 0 -173 37q-50 34 -50 101
q0 131 154 190q134 51 397 51h193v-124z" />
    <glyph glyph-name="uniFBD3" unicode="&#x6ad;" horiz-adv-x="886" arabic-form="isolated" 
d="M808 943q0 -26 -18.5 -44t-44.5 -18t-44 18t-18 44q0 25 18 43t44 18t44.5 -18t18.5 -43zM737 813q0 -27 -20.5 -47t-48.5 -20t-48.5 20t-20.5 47t20.5 47t48.5 20t48.5 -20t20.5 -47zM891 813q0 -28 -20.5 -47.5t-49.5 -19.5q-28 0 -48.5 20t-20.5 47t20.5 47t48.5 20
q29 0 49.5 -19.5t20.5 -47.5zM589 0h-282q-118 0 -183 79q-50 61 -50 146q0 67 36 121q35 51 93 75l52 -80q-31 -16 -48.5 -44t-17.5 -61q0 -49 35 -81q34 -31 87 -31h259q64 0 89 34q21 28 21 88v420h128v-448q0 -118 -61 -171q-53 -47 -158 -47zM464 349h-113l1 57h106
q32 0 32 30q0 17 -13 27.5t-35 10.5q-30 0 -55 -18v53l91 100l41 -34l-48 -54q37 -5 57 -28t20 -60q0 -39 -22.5 -61.5t-61.5 -22.5z" />
    <glyph glyph-name="uniFBD4" unicode="&#x6ad;" horiz-adv-x="934" arabic-form="final" 
d="M808 943q0 -26 -18.5 -44t-44.5 -18t-44 18t-18 44q0 25 18 43t44 18t44.5 -18t18.5 -43zM737 813q0 -27 -20.5 -47t-48.5 -20t-48.5 20t-20.5 47t20.5 47t48.5 20t48.5 -20t20.5 -47zM891 813q0 -28 -20.5 -47.5t-49.5 -19.5q-28 0 -48.5 20t-20.5 47t20.5 47t48.5 20
q29 0 49.5 -19.5t20.5 -47.5zM589 0h-276q-126 0 -190 79q-49 60 -49 146q0 67 36 121q35 51 93 75l52 -80q-31 -16 -48.5 -44t-17.5 -61q0 -49 35 -81q34 -31 87 -31h259q64 0 89 34q21 28 21 88v420h128v-420q0 -68 27 -96q25 -26 79 -26h30v-124h-39q-107 0 -159 62
q-51 -62 -157 -62zM464 349h-113l1 57h106q32 0 32 30q0 17 -13 27.5t-35 10.5q-30 0 -55 -18v53l91 100l41 -34l-48 -54q37 -5 57 -28t20 -60q0 -39 -22.5 -61.5t-61.5 -22.5z" />
    <glyph glyph-name="uniFBD5" unicode="&#x6ad;" horiz-adv-x="554" arabic-form="initial" 
d="M152 827q0 -25 -18.5 -43t-44.5 -18t-44 18t-18 43t18 43t44 18t44.5 -18t18.5 -43zM81 697q0 -28 -20 -47.5t-49 -19.5q-28 0 -48.5 20t-20.5 47t20.5 47t48.5 20q29 0 49 -19.5t20 -47.5zM235 697q0 -28 -20.5 -47.5t-49.5 -19.5q-28 0 -48.5 20t-20.5 47t20.5 47
t48.5 20q29 0 49.5 -19.5t20.5 -47.5zM290 0h-300v124h294q97 0 97 84v2q0 76 -91 76h-251v124l236 243l69 -69l-165 -173h108q124 0 178 -59q45 -50 45 -146v-1q0 -205 -220 -205z" />
    <glyph glyph-name="uniFBD6" unicode="&#x6ad;" horiz-adv-x="634" arabic-form="medial" 
d="M152 827q0 -25 -18.5 -43t-44.5 -18t-44 18t-18 43t18 43t44 18t44.5 -18t18.5 -43zM81 697q0 -28 -20 -47.5t-49 -19.5q-28 0 -48.5 20t-20.5 47t20.5 47t48.5 20q29 0 49 -19.5t20 -47.5zM235 697q0 -28 -20.5 -47.5t-49.5 -19.5q-28 0 -48.5 20t-20.5 47t20.5 47
t48.5 20q29 0 49.5 -19.5t20.5 -47.5zM290 0h-300v124h294q97 0 97 82v3q0 77 -91 77h-251v124l236 243l69 -69l-165 -173h112q116 0 172 -56q47 -47 47 -129v-6q0 -96 104 -96h30v-124h-39q-103 0 -156 59q-62 -59 -159 -59z" />
    <glyph glyph-name="uniFBD7" unicode="&#x6c7;" horiz-adv-x="501" arabic-form="isolated" 
d="M291 562l-165 -30l-12 65l118 21q-18 23 -18 53q0 37 25 63q23 24 56 24q41 0 64 -31q19 -25 19 -59q0 -45 -29 -75q-24 -25 -58 -31zM298 631q22 9 22 38q0 28 -23 28q-22 0 -22 -27q0 -30 23 -39zM311 30q-23 -10 -54 -10q-111 0 -164 68q-41 53 -41 142q0 101 60 161
q54 55 139 55q89 0 139 -56q43 -48 43 -122v-257q0 -104 -66 -160q-53 -45 -133 -45q-78 0 -151 43l31 94q49 -25 94 -25q95 0 102 100q0 2 1 6v6zM311 137v132q0 71 -64 71q-38 0 -59 -27t-21 -75q0 -54 28 -86q25 -27 62 -27q27 0 54 12z" />
    <glyph glyph-name="uniFBD8" unicode="&#x6c7;" horiz-adv-x="515" arabic-form="final" 
d="M291 562l-165 -30l-12 65l118 21q-18 23 -18 53q0 37 25 63q23 24 56 24q41 0 64 -31q19 -25 19 -59q0 -45 -29 -75q-24 -25 -58 -31zM298 631q22 9 22 38q0 28 -23 28q-22 0 -22 -27q0 -30 23 -39zM433 0q-3 -98 -69 -151q-53 -43 -130 -43q-78 0 -151 43l31 94
q49 -25 94 -25q93 0 102 93q-29 0 -43 1q-110 3 -167 70q-48 56 -48 148q0 101 60 161q54 55 139 55q89 0 139 -56q43 -48 43 -122v-144h92v-124h-92zM311 124v145q0 71 -64 71q-38 0 -59 -27t-21 -75q0 -55 29 -86q25 -28 65 -28h50z" />
    <glyph glyph-name="uniFBD9" unicode="&#x6c6;" horiz-adv-x="501" arabic-form="isolated" 
d="M190 711l57 -113l53 113h92l-102 -187h-87l-104 187h91zM311 30q-23 -10 -54 -10q-111 0 -164 68q-41 53 -41 142q0 101 60 161q54 55 139 55q89 0 139 -56q43 -48 43 -122v-257q0 -104 -66 -160q-53 -45 -133 -45q-78 0 -151 43l31 94q49 -25 94 -25q95 0 102 100
q0 2 1 6v6zM311 137v132q0 71 -64 71q-38 0 -59 -27t-21 -75q0 -54 28 -86q25 -27 62 -27q27 0 54 12z" />
    <glyph glyph-name="uniFBDA" unicode="&#x6c6;" horiz-adv-x="515" arabic-form="final" 
d="M190 711l57 -113l53 113h92l-102 -187h-87l-104 187h91zM433 0q-3 -98 -69 -151q-53 -43 -130 -43q-78 0 -151 43l31 94q49 -25 94 -25q93 0 102 93q-29 0 -43 1q-110 3 -167 70q-48 56 -48 148q0 101 60 161q54 55 139 55q89 0 139 -56q43 -48 43 -122v-144h92v-124h-92
zM311 124v145q0 71 -64 71q-38 0 -59 -27t-21 -75q0 -55 29 -86q25 -28 65 -28h50z" />
    <glyph glyph-name="uniFBDB" unicode="&#x6c8;" horiz-adv-x="501" arabic-form="isolated" 
d="M283 532h-73v172h73v-172zM311 30q-23 -10 -54 -10q-111 0 -164 68q-41 53 -41 142q0 101 60 161q54 55 139 55q89 0 139 -56q43 -48 43 -122v-257q0 -104 -66 -160q-53 -45 -133 -45q-78 0 -151 43l31 94q49 -25 94 -25q95 0 102 100q0 2 1 6v6zM311 137v132
q0 71 -64 71q-38 0 -59 -27t-21 -75q0 -54 28 -86q25 -27 62 -27q27 0 54 12z" />
    <glyph glyph-name="uniFBDC" unicode="&#x6c8;" horiz-adv-x="515" arabic-form="final" 
d="M283 532h-73v172h73v-172zM433 0q-3 -98 -69 -151q-53 -43 -130 -43q-78 0 -151 43l31 94q49 -25 94 -25q93 0 102 93q-29 0 -43 1q-110 3 -167 70q-48 56 -48 148q0 101 60 161q54 55 139 55q89 0 139 -56q43 -48 43 -122v-144h92v-124h-92zM311 124v145q0 71 -64 71
q-38 0 -59 -27t-21 -75q0 -55 29 -86q25 -28 65 -28h50z" />
    <glyph glyph-name="uniFBDD" unicode="&#x677;" horiz-adv-x="501" arabic-form="isolated" 
d="M206 624l-165 -30l-12 65l118 21q-18 24 -18 53q0 37 25 63q23 24 56 24q41 0 64 -31q19 -25 19 -59q0 -44 -29 -75q-24 -25 -58 -31zM213 693q22 9 22 38q0 28 -23 28q-22 0 -22 -27q0 -30 23 -39zM486 528h-201v59h41q-10 19 -10 39q0 36 26 58q22 20 56 20
q41 0 66 -30l-20 -41q-19 13 -36 13q-29 0 -29 -28q0 -15 12 -31h95v-59zM311 30q-23 -10 -54 -10q-111 0 -164 68q-41 53 -41 142q0 101 60 161q54 55 139 55q89 0 139 -56q43 -48 43 -122v-257q0 -104 -66 -160q-53 -45 -133 -45q-78 0 -151 43l31 94q49 -25 94 -25
q95 0 102 100q0 2 1 6v6zM311 137v132q0 71 -64 71q-38 0 -59 -27t-21 -75q0 -54 28 -86q25 -27 62 -27q27 0 54 12z" />
    <glyph glyph-name="uniFBDE" unicode="&#x6cb;" horiz-adv-x="501" arabic-form="isolated" 
d="M309 714q0 -25 -18.5 -43t-44.5 -18t-44 18t-18 43t18 43t44 18t44.5 -18t18.5 -43zM239 584q0 -28 -20.5 -47.5t-49.5 -19.5q-28 0 -48.5 20t-20.5 47t20.5 47t48.5 20q29 0 49.5 -19.5t20.5 -47.5zM392 584q0 -28 -20.5 -47.5t-49.5 -19.5q-28 0 -48 19.5t-20 47.5
t20 47.5t48 19.5q29 0 49.5 -19.5t20.5 -47.5zM311 30q-23 -10 -54 -10q-111 0 -164 68q-41 53 -41 142q0 101 60 161q54 55 139 55q89 0 139 -56q43 -48 43 -122v-257q0 -104 -66 -160q-53 -45 -133 -45q-78 0 -151 43l31 94q49 -25 94 -25q95 0 102 100q0 2 1 6v6z
M311 137v132q0 71 -64 71q-38 0 -59 -27t-21 -75q0 -54 28 -86q25 -27 62 -27q27 0 54 12z" />
    <glyph glyph-name="uniFBDF" unicode="&#x6cb;" horiz-adv-x="515" arabic-form="final" 
d="M309 714q0 -25 -18.5 -43t-44.5 -18t-44 18t-18 43t18 43t44 18t44.5 -18t18.5 -43zM239 584q0 -28 -20.5 -47.5t-49.5 -19.5q-28 0 -48.5 20t-20.5 47t20.5 47t48.5 20q29 0 49.5 -19.5t20.5 -47.5zM392 584q0 -28 -20.5 -47.5t-49.5 -19.5q-28 0 -48 19.5t-20 47.5
t20 47.5t48 19.5q29 0 49.5 -19.5t20.5 -47.5zM433 0q-3 -98 -69 -151q-53 -43 -130 -43q-78 0 -151 43l31 94q49 -25 94 -25q93 0 102 93q-29 0 -43 1q-110 3 -167 70q-48 56 -48 148q0 101 60 161q54 55 139 55q89 0 139 -56q43 -48 43 -122v-144h92v-124h-92zM311 124
v145q0 71 -64 71q-38 0 -59 -27t-21 -75q0 -55 29 -86q25 -28 65 -28h50z" />
    <glyph glyph-name="uniFBE0" unicode="&#x6c5;" horiz-adv-x="501" arabic-form="isolated" 
d="M311 30q-23 -10 -54 -10q-111 0 -164 68q-41 53 -41 142q0 101 60 161q54 55 139 55q89 0 139 -56q43 -48 43 -122v-257q0 -104 -66 -160q-53 -45 -133 -45q-78 0 -151 43l31 94q49 -25 94 -25q61 0 86 43h-116v30h128q2 9 4 27q0 2 1 6v6zM311 137v132q0 71 -64 71
q-38 0 -59 -27t-21 -75q0 -54 28 -86q25 -27 62 -27q27 0 54 12z" />
    <glyph glyph-name="uniFBE1" unicode="&#x6c5;" horiz-adv-x="515" arabic-form="final" 
d="M433 268v-144h92v-124h-92q-3 -98 -69 -151q-53 -43 -130 -43q-78 0 -151 43l31 94q49 -25 94 -25q62 0 87 43h-117v30h129l3 20q-29 0 -43 1q-110 3 -167 70q-48 56 -48 148q0 101 60 161q54 55 139 55q89 0 139 -56q43 -48 43 -122zM311 124v145q0 71 -64 71
q-38 0 -59 -27t-21 -75q0 -55 29 -86q25 -28 65 -28h50z" />
    <glyph glyph-name="uniFBE2" unicode="&#x6c9;" horiz-adv-x="501" arabic-form="isolated" 
d="M301 528l-55 111l-54 -111h-93l102 186h88l103 -186h-91zM311 30q-23 -10 -54 -10q-111 0 -164 68q-41 53 -41 142q0 101 60 161q54 55 139 55q89 0 139 -56q43 -48 43 -122v-257q0 -104 -66 -160q-53 -45 -133 -45q-78 0 -151 43l31 94q49 -25 94 -25q95 0 102 100
q0 2 1 6v6zM311 137v132q0 71 -64 71q-38 0 -59 -27t-21 -75q0 -54 28 -86q25 -27 62 -27q27 0 54 12z" />
    <glyph glyph-name="uniFBE3" unicode="&#x6c9;" horiz-adv-x="515" arabic-form="final" 
d="M301 528l-55 111l-54 -111h-93l102 186h88l103 -186h-91zM433 0q-3 -98 -69 -151q-53 -43 -130 -43q-78 0 -151 43l31 94q49 -25 94 -25q93 0 102 93q-29 0 -43 1q-110 3 -167 70q-48 56 -48 148q0 101 60 161q54 55 139 55q89 0 139 -56q43 -48 43 -122v-144h92v-124
h-92zM311 124v145q0 71 -64 71q-38 0 -59 -27t-21 -75q0 -55 29 -86q25 -28 65 -28h50z" />
    <glyph glyph-name="uniFBE4" unicode="&#x6d0;" horiz-adv-x="725" arabic-form="isolated" 
d="M617 333h-118q-75 0 -75 -57q0 -45 44 -70q19 -11 70 -29q67 -24 95 -48q44 -38 44 -105q0 -101 -86 -161q-83 -58 -226 -58q-160 0 -241 81q-66 66 -66 172q0 92 53 171l100 -34q-33 -63 -33 -119q0 -72 52 -112q49 -38 135 -38q80 0 135 31q49 27 49 63q0 21 -17 34.5
t-70 34.5q-85 32 -117 67q-44 46 -44 120q0 88 61 135q48 39 120 39h135v-117zM428 -326q0 -25 -18.5 -43t-44.5 -18t-44 17.5t-18 43.5t18 44t44 18t44.5 -18t18.5 -44zM428 -463q0 -25 -18.5 -43t-44.5 -18t-44 17.5t-18 43.5t18 44t44 18t44.5 -18t18.5 -44z" />
    <glyph glyph-name="uniFBE5" unicode="&#x6d0;" horiz-adv-x="716" arabic-form="final" 
d="M691 0q-8 -97 -99 -151q-85 -50 -227 -50q-160 0 -241 84q-66 68 -66 175q0 92 53 171l101 -35q-34 -61 -34 -119q0 -77 57 -122q54 -42 145 -42q78 0 130 25q49 23 58 64h-101v124h259v-124h-35zM428 -319q0 -26 -18.5 -44t-44.5 -18t-44 18t-18 44t18 43.5t44 17.5
t44.5 -18t18.5 -43zM428 -457q0 -25 -18.5 -43t-44.5 -18t-44 17.5t-18 43.5t18 44t44 18t44.5 -18t18.5 -44z" />
    <glyph glyph-name="uniFBE6" unicode="&#x6d0;" horiz-adv-x="332" arabic-form="initial" 
d="M-10 0v124h30q61 0 85 34q21 28 21 88v187h128v-215q0 -218 -225 -218h-39zM126 -333q-26 0 -44 18t-18 43q0 26 18 44t44 18t44.5 -18t18.5 -44q0 -25 -18.5 -43t-44.5 -18zM126 -196q-26 0 -44 18t-18 43q0 26 18 44t44 18t44.5 -18t18.5 -44q0 -25 -18.5 -43
t-44.5 -18z" />
    <glyph glyph-name="uniFBE7" unicode="&#x6d0;" horiz-adv-x="379" arabic-form="medial" 
d="M-10 0v124h30q61 0 85 34q21 28 21 88v187h128v-187q0 -68 27 -96q25 -26 79 -26h29v-124h-39q-108 0 -160 64q-54 -64 -161 -64h-39zM184 -333q-26 0 -44 18t-18 43q0 26 18 44t44 18t44.5 -18t18.5 -44q0 -25 -18.5 -43t-44.5 -18zM184 -196q-26 0 -44 18t-18 43
q0 26 18 44t44 18t44.5 -18t18.5 -44q0 -25 -18.5 -43t-44.5 -18z" />
    <glyph glyph-name="uniFBE8" unicode="&#x649;" horiz-adv-x="332" arabic-form="initial" 
d="M29 0h-39v124h30q61 0 85 34q21 28 21 88v187h128v-215q0 -218 -225 -218z" />
    <glyph glyph-name="uniFBE9" unicode="&#x649;" horiz-adv-x="379" arabic-form="medial" 
d="M29 0h-39v124h30q61 0 85 34q21 28 21 88v187h128v-187q0 -68 27 -96q25 -26 79 -26h29v-124h-39q-108 0 -160 64q-54 -64 -161 -64z" />
    <glyph glyph-name="uniFBFC" unicode="&#x6cc;" horiz-adv-x="725" arabic-form="isolated" 
d="M617 333h-118q-75 0 -75 -57q0 -45 44 -70q19 -11 70 -29q67 -24 95 -48q44 -38 44 -105q0 -101 -86 -161q-83 -58 -226 -58q-160 0 -241 81q-66 66 -66 172q0 92 53 171l100 -34q-33 -63 -33 -119q0 -72 52 -112q49 -38 135 -38q80 0 135 31q49 27 49 63q0 21 -17 34.5
t-70 34.5q-85 32 -117 67q-44 46 -44 120q0 88 61 135q48 39 120 39h135v-117z" />
    <glyph glyph-name="uniFBFD" unicode="&#x6cc;" horiz-adv-x="716" arabic-form="final" 
d="M691 0q-8 -97 -99 -151q-85 -50 -227 -50q-160 0 -241 84q-66 68 -66 175q0 92 53 171l101 -35q-34 -61 -34 -119q0 -77 57 -122q54 -42 145 -42q78 0 130 25q49 23 58 64h-101v124h259v-124h-35z" />
    <glyph glyph-name="uniFBFE" unicode="&#x6cc;" horiz-adv-x="332" arabic-form="initial" 
d="M-10 0v124h30q61 0 85 34q21 28 21 88v187h128v-215q0 -218 -225 -218h-39zM44 -208q-29 0 -49 20t-20 48t20 47.5t49 19.5q28 0 48.5 -20t20.5 -47q0 -28 -20.5 -48t-48.5 -20zM197 -208q-28 0 -48.5 20t-20.5 48q0 27 20.5 47t48.5 20q29 0 49 -19.5t20 -47.5
q0 -29 -20 -48.5t-49 -19.5z" />
    <glyph glyph-name="uniFBFF" unicode="&#x6cc;" horiz-adv-x="379" arabic-form="medial" 
d="M-10 0v124h30q61 0 85 34q21 28 21 88v187h128v-187q0 -68 27 -96q25 -26 79 -26h29v-124h-39q-108 0 -160 64q-54 -64 -161 -64h-39zM83 -208q-28 0 -48.5 20t-20.5 48q0 27 20.5 47t48.5 20q29 0 49.5 -19.5t20.5 -47.5t-20.5 -48t-49.5 -20zM236 -208q-28 0 -48 20
t-20 48t20 47.5t48 19.5q30 0 50 -19.5t20 -47.5q0 -29 -20 -48.5t-50 -19.5z" />
    <glyph glyph-name="uniFCF3" unicode="&#xfcf3;" horiz-adv-x="140" arabic-form="medial" 
d="M112 769l-166 -29l-11 65l117 21q-18 25 -18 52q0 38 25 64q23 24 56 24q41 0 64 -31q19 -25 19 -60q0 -44 -29 -75q-24 -24 -57 -31zM118 838q23 12 23 39t-24 27q-22 0 -22 -26q0 -28 23 -40zM70 553q-24 -15 -54 -15q-36 0 -58.5 20t-22.5 51v97h63v-87q0 -19 20 -19
t20 19v66h63v-66q0 -19 20 -19q21 0 21 19v87h62v-97q0 -35 -29 -55q-22 -16 -52 -16q-34 0 -53 15zM150 0h-160v124h160v-124z" />
    <glyph glyph-name="uniFCF4" unicode="&#xfcf4;" horiz-adv-x="140" arabic-form="medial" 
d="M65 699q-24 -15 -54 -15q-36 0 -58.5 20t-22.5 51v96h63v-86q0 -19 20 -19t20 19v66h63v-66q0 -19 20 -19q21 0 21 19v86h62v-96q0 -36 -29 -56q-22 -15 -52 -15q-34 0 -53 15zM190 572l-223 -40l-14 77l223 40zM150 0h-160v124h160v-124z" />
    <glyph glyph-name="uniFD3C" unicode="&#xfd3c;" horiz-adv-x="334" arabic-form="final" 
d="M252 825l-219 -39l-13 68l220 40zM263 717l-220 -40l-12 67l220 41zM344 0h-44q-222 0 -222 208v401h128v-367q0 -68 23 -93t83 -25h32v-124z" />
    <glyph glyph-name="uniFD3D" unicode="&#xfd3d;" horiz-adv-x="285" arabic-form="isolated" 
d="M252 825l-219 -39l-13 68l220 40zM263 717l-220 -40l-12 67l220 41zM207 0h-129v609h129v-609z" />
    <glyph glyph-name="uniFE71" unicode="&#xfe71;" horiz-adv-x="140" arabic-form="medial" 
d="M180 681l-219 -40l-13 69l220 39zM191 572l-220 -40l-12 68l220 40zM150 0h-160v124h160v-124z" />
    <glyph glyph-name="uniFE72" unicode="&#xfe72;" horiz-adv-x="351" arabic-form="isolated" 
d="M188 756q-21 23 -21 49q0 40 25 66q23 23 56 23q42 0 66 -32q18 -25 18 -58q0 -59 -43 -92q-35 -26 -85 -26q-59 0 -103 35l-23 -33l-59 44l49 76h32q35 -52 88 -52zM252 763q10 3 17 15t7 26q0 13 -7.5 21.5t-18.5 8.5q-24 0 -24 -29q0 -14 7.5 -26t18.5 -16z" />
    <glyph glyph-name="uniFE74" unicode="&#xfe74;" horiz-adv-x="446" arabic-form="isolated" 
d="M151 -156l-220 -39l-12 68l219 40zM161 -265l-219 -40l-12 68l219 41z" />
    <glyph glyph-name="uniFE76" unicode="&#xfe76;" horiz-adv-x="275" arabic-form="isolated" 
d="M256 726l-223 -40l-14 77l224 40z" />
    <glyph glyph-name="uniFE77" unicode="&#xfe77;" horiz-adv-x="140" arabic-form="medial" 
d="M190 572l-223 -40l-14 77l223 40zM150 0h-160v124h160v-124z" />
    <glyph glyph-name="uniFE78" unicode="&#xfe78;" horiz-adv-x="302" arabic-form="isolated" 
d="M196 716l-166 -30l-11 65l118 21q-18 24 -18 53q0 37 25 63q23 24 56 24q41 0 64 -31q19 -25 19 -59q0 -45 -30 -75q-23 -25 -57 -31zM203 785q9 4 15.5 15t6.5 23q0 28 -24 28q-22 0 -22 -27q0 -13 7 -24t17 -15z" />
    <glyph glyph-name="uniFE79" unicode="&#xfe79;" horiz-adv-x="140" arabic-form="medial" 
d="M115 562l-165 -30l-12 65l118 21q-18 23 -18 53q0 37 25 63q23 24 56 24q41 0 64 -31q19 -25 19 -59q0 -45 -29 -75q-24 -25 -58 -31zM122 631q22 9 22 38q0 28 -23 28q-22 0 -22 -27q0 -30 23 -39zM150 0h-160v124h160v-124z" />
    <glyph glyph-name="uniFE7A" unicode="&#xfe7a;" horiz-adv-x="275" arabic-form="isolated" 
d="M256 -167l-223 -40l-14 79l224 41z" />
    <glyph glyph-name="uniFE7B" unicode="&#xfe7b;" horiz-adv-x="140" arabic-form="medial" 
d="M150 0h-160v124h160v-124zM190 -167l-223 -40l-14 79l223 41z" />
    <glyph glyph-name="uniFE7C" unicode="&#xfe7c;" horiz-adv-x="308" arabic-form="isolated" 
d="M154 707q-22 -15 -54 -15q-36 0 -58.5 20t-22.5 52v96h63v-87q0 -19 20 -19t20 19v66h63v-66q0 -19 20 -19q21 0 21 19v87h63v-96q0 -36 -29 -56q-23 -16 -53 -16q-34 0 -53 15z" />
    <glyph glyph-name="uniFE7D" unicode="&#xfe7d;" horiz-adv-x="140" arabic-form="medial" 
d="M70 553q-24 -15 -54 -15q-36 0 -58.5 20t-22.5 51v97h63v-87q0 -19 20 -19t20 19v66h63v-66q0 -19 20 -19q21 0 21 19v87h62v-97q0 -35 -29 -55q-22 -16 -52 -16q-34 0 -53 15zM150 0h-160v124h160v-124z" />
    <glyph glyph-name="uniFE7E" unicode="&#xfe7e;" horiz-adv-x="209" arabic-form="isolated" 
d="M105 874q43 -11 66 -46q19 -27 19 -60q0 -37 -24 -60q-23 -22 -61 -22q-45 0 -68 26q-18 21 -18 52q0 39 25 71q24 30 61 39zM105 818q-10 -3 -17.5 -16t-7.5 -28q0 -31 24 -31q25 0 25 30q0 15 -7 28t-17 17z" />
    <glyph glyph-name="uniFE7F" unicode="&#xfe7f;" horiz-adv-x="140" arabic-form="medial" 
d="M70 719q43 -10 67 -46q19 -28 19 -61q-1 -37 -24 -58.5t-62 -21.5q-44 0 -68 26q-18 21 -18 52q0 38 25 70q24 30 61 39zM70 664q-11 -4 -18 -17t-7 -28q0 -31 24 -31q25 0 25 31q0 15 -7 28t-17 17zM150 0h-160v124h160v-124z" />
    <glyph glyph-name="uniFE80" unicode="&#x621;" horiz-adv-x="535" arabic-form="isolated" 
d="M451 -6q-45 13 -96 13q-70 0 -136 -22t-108 -58l-77 84q39 36 91 63q-46 65 -46 150q0 92 60 153q55 57 137 57q103 0 169 -92l-56 -65q-49 46 -98 46q-45 0 -68 -34q-19 -26 -19 -67q0 -60 38 -110q48 11 106 11q76 0 142 -18z" />
    <glyph glyph-name="uniFE81" unicode="&#x622;" horiz-adv-x="334" arabic-form="isolated" 
d="M300 746q-12 -31 -35 -49t-50 -18q-30 0 -66 21q-20 11 -32 11q-23 0 -47 -29l-40 34q13 32 35.5 50.5t48.5 18.5q20 0 53 -19q26 -16 48 -16t41 31zM228 0h-129v609h129v-609z" />
    <glyph glyph-name="uniFE82" unicode="&#x622;" horiz-adv-x="346" arabic-form="final" 
d="M294 746q-12 -31 -35.5 -49t-50.5 -18q-29 0 -65 21q-20 11 -32 11q-23 0 -47 -29l-40 34q13 32 35.5 50.5t47.5 18.5q21 0 53 -19q27 -16 48 -16q23 0 41 31zM356 0h-43q-222 0 -222 208v401h128v-367q0 -68 23 -93t83 -25h31v-124z" />
    <glyph glyph-name="uniFE83" unicode="&#x623;" horiz-adv-x="285" arabic-form="isolated" 
d="M243 682h-201v59h41q-11 20 -11 39q0 36 26 58q23 20 57 20q40 0 66 -30l-20 -41q-19 13 -37 13q-28 0 -28 -28q0 -15 12 -31h95v-59zM207 0h-129v610h129v-610z" />
    <glyph glyph-name="uniFE84" unicode="&#x623;" horiz-adv-x="334" arabic-form="final" 
d="M243 682h-201v59h41q-11 20 -11 39q0 36 26 58q23 20 57 20q40 0 66 -30l-20 -41q-19 13 -37 13q-28 0 -28 -28q0 -15 12 -31h95v-59zM344 0h-44q-222 0 -222 208v402h128v-368q0 -68 23 -93t83 -25h32v-124z" />
    <glyph glyph-name="uniFE85" unicode="&#x624;" horiz-adv-x="501" arabic-form="isolated" 
d="M347 535h-202v60h42q-11 19 -11 39q0 35 26 58q23 20 57 20q40 0 66 -31l-21 -40q-16 12 -36 12q-13 0 -21 -7.5t-8 -19.5q0 -15 13 -31h95v-60zM311 30q-23 -10 -54 -10q-111 0 -164 68q-41 53 -41 142q0 101 60 161q54 55 139 55q89 0 139 -56q43 -48 43 -122v-257
q0 -104 -66 -160q-53 -45 -133 -45q-78 0 -151 43l31 94q49 -25 94 -25q95 0 102 100q0 2 1 6v6zM311 137v132q0 71 -64 71q-38 0 -59 -27t-21 -75q0 -54 28 -86q25 -27 62 -27q27 0 54 12z" />
    <glyph glyph-name="uniFE86" unicode="&#x624;" horiz-adv-x="515" arabic-form="final" 
d="M347 535h-202v60h42q-11 19 -11 39q0 35 26 58q23 20 57 20q40 0 66 -31l-21 -40q-16 12 -36 12q-13 0 -21 -7.5t-8 -19.5q0 -15 13 -31h95v-60zM433 0q-3 -98 -69 -151q-53 -43 -130 -43q-78 0 -151 43l31 94q49 -25 94 -25q93 0 102 93q-29 0 -43 1q-110 3 -167 70
q-48 56 -48 148q0 101 60 161q54 55 139 55q89 0 139 -56q43 -48 43 -122v-144h92v-124h-92zM311 124v145q0 71 -64 71q-38 0 -59 -27t-21 -75q0 -55 29 -86q25 -28 65 -28h50z" />
    <glyph glyph-name="uniFE87" unicode="&#x625;" horiz-adv-x="309" arabic-form="isolated" 
d="M219 0h-129v666h129v-666zM258 -266h-201v59h41q-10 19 -10 39q0 36 26 58q22 20 56 20q41 0 66 -30l-20 -41q-19 13 -36 13q-29 0 -29 -28q0 -15 12 -31h95v-59z" />
    <glyph glyph-name="uniFE88" unicode="&#x625;" horiz-adv-x="334" arabic-form="final" 
d="M344 0h-44q-222 0 -222 208v458h128v-424q0 -68 23 -93t83 -25h32v-124zM278 -266h-201v59h41q-10 19 -10 39q0 36 26 58q22 20 56 20q41 0 66 -30l-20 -41q-19 13 -37 13q-28 0 -28 -28q0 -15 12 -31h95v-59z" />
    <glyph glyph-name="uniFE89" unicode="&#x626;" horiz-adv-x="725" arabic-form="isolated" 
d="M235 350h-201v59h42q-11 18 -11 40q0 35 26 58q22 20 56 20q41 0 67 -31l-21 -41q-17 13 -36 13q-29 0 -29 -28q0 -15 13 -31h94v-59zM617 333h-118q-75 0 -75 -57q0 -45 44 -70q19 -11 70 -29q67 -24 95 -48q44 -38 44 -105q0 -101 -86 -161q-83 -58 -226 -58
q-160 0 -241 81q-66 66 -66 172q0 92 53 171l100 -34q-33 -63 -33 -119q0 -72 52 -112q49 -38 135 -38q80 0 135 31q49 27 49 63q0 21 -17 34.5t-70 34.5q-85 32 -117 67q-44 46 -44 120q0 88 61 135q48 39 120 39h135v-117z" />
    <glyph glyph-name="uniFE8A" unicode="&#x626;" horiz-adv-x="716" arabic-form="final" 
d="M290 328h-201v60h41q-10 17 -10 39q0 35 26 58q22 20 56 20q42 0 66 -31l-20 -40q-17 12 -37 12q-28 0 -28 -27q0 -16 12 -31h95v-60zM691 0q-8 -97 -99 -151q-85 -50 -227 -50q-160 0 -241 84q-66 68 -66 175q0 92 53 171l101 -35q-34 -61 -34 -119q0 -77 57 -122
q54 -42 145 -42q78 0 130 25q49 23 58 64h-101v124h259v-124h-35z" />
    <glyph glyph-name="uniFE8B" unicode="&#x626;" horiz-adv-x="332" arabic-form="initial" 
d="M286 533h-201v59h42q-11 20 -11 39q0 36 26 58q22 20 56 20q41 0 67 -30l-21 -41q-19 13 -36 13q-29 0 -29 -28q0 -15 13 -31h94v-59zM29 0h-39v124h30q61 0 85 34q21 28 21 88v187h128v-215q0 -218 -225 -218z" />
    <glyph glyph-name="uniFE8C" unicode="&#x626;" horiz-adv-x="379" arabic-form="medial" 
d="M291 533h-201v59h42q-11 18 -11 39q0 36 26 58q22 20 56 20q41 0 67 -30l-21 -41q-19 13 -36 13q-29 0 -29 -28q0 -15 13 -31h94v-59zM29 0h-39v124h30q61 0 85 34q21 28 21 88v187h128v-187q0 -68 27 -96q25 -26 79 -26h29v-124h-39q-108 0 -160 64q-54 -64 -161 -64z
" />
    <glyph glyph-name="uniFE8D" unicode="&#x627;" horiz-adv-x="285" arabic-form="isolated" 
d="M207 0h-129v666h129v-666z" />
    <glyph glyph-name="uniFE8E" unicode="&#x627;" horiz-adv-x="334" arabic-form="final" 
d="M344 0h-44q-222 0 -222 208v458h128v-424q0 -68 23 -93t83 -25h32v-124z" />
    <glyph glyph-name="uniFE8F" unicode="&#x628;" horiz-adv-x="886" arabic-form="isolated" 
d="M589 0h-282q-118 0 -183 79q-50 61 -50 146q0 67 36 121q35 51 93 75l52 -80q-31 -16 -48.5 -44t-17.5 -61q0 -49 35 -81q34 -31 87 -31h259q64 0 89 34q21 28 21 88v187h128v-215q0 -118 -61 -171q-53 -47 -158 -47zM510 -140q0 -28 -20.5 -48t-49.5 -20q-28 0 -48.5 20
t-20.5 48q0 27 20.5 47t48.5 20q29 0 49.5 -19.5t20.5 -47.5z" />
    <glyph glyph-name="uniFE90" unicode="&#x628;" horiz-adv-x="934" arabic-form="final" 
d="M589 0h-282q-118 0 -183 79q-50 61 -50 146q0 67 36 121q35 51 93 75l52 -80q-31 -16 -48.5 -44t-17.5 -61q0 -49 35 -81q34 -31 87 -31h259q64 0 89 34q21 28 21 88v187h128v-187q0 -68 27 -96q25 -26 79 -26h30v-124h-39q-107 0 -159 62q-51 -62 -157 -62zM505 -140
q0 -28 -20.5 -48t-49.5 -20q-28 0 -48 20t-20 48t20 47.5t48 19.5q29 0 49.5 -19.5t20.5 -47.5z" />
    <glyph glyph-name="uniFE91" unicode="&#x628;" horiz-adv-x="332" arabic-form="initial" 
d="M-10 0v124h30q61 0 85 34q21 28 21 88v187h128v-215q0 -218 -225 -218h-39zM124 -208q-28 0 -48.5 20t-20.5 48q0 27 20.5 47t48.5 20q29 0 49.5 -19.5t20.5 -47.5t-20.5 -48t-49.5 -20z" />
    <glyph glyph-name="uniFE92" unicode="&#x628;" horiz-adv-x="379" arabic-form="medial" 
d="M-10 0v124h30q61 0 85 34q21 28 21 88v187h128v-187q0 -68 27 -96q25 -26 79 -26h29v-124h-39q-108 0 -160 64q-54 -64 -161 -64h-39zM187 -208q-28 0 -48.5 20t-20.5 48q0 27 20.5 47t48.5 20q29 0 49.5 -19.5t20.5 -47.5t-20.5 -48t-49.5 -20z" />
    <glyph glyph-name="uniFE93" unicode="&#x629;" horiz-adv-x="521" arabic-form="isolated" 
d="M246 584q0 -28 -20 -47.5t-49 -19.5q-28 0 -48.5 20t-20.5 47t20.5 47t48.5 20q29 0 49 -19.5t20 -47.5zM400 584q0 -28 -20 -47.5t-50 -19.5q-28 0 -48.5 20t-20.5 47t20.5 47t48.5 20q30 0 50 -19t20 -48zM268 -13h-16q-91 0 -140 69q-44 62 -44 167q0 111 60 174
q52 53 132 53q93 0 146 -69q47 -61 47 -158q0 -120 -57 -183q-49 -53 -128 -53zM182 221q0 -56 23 -85q19 -25 50 -25h11q35 0 53.5 28.5t18.5 81.5q0 54 -23 83q-20 25 -55 25q-37 0 -57.5 -28.5t-20.5 -79.5z" />
    <glyph glyph-name="uniFE94" unicode="&#x629;" horiz-adv-x="552" arabic-form="final" 
d="M231 620q0 -27 -20.5 -47t-48.5 -20q-29 0 -49 19.5t-20 47.5t20 47.5t49 19.5q28 0 48.5 -20t20.5 -47zM384 620q0 -29 -19.5 -48t-49.5 -19q-28 0 -48.5 20t-20.5 47t20.5 47t48.5 20q29 0 49 -19.5t20 -47.5zM562 0h-39q-119 0 -173 73q-49 -48 -121 -48
q-81 0 -133 62q-50 58 -50 148q0 101 65 161q57 54 146 54h54v45h116v-249q0 -68 27 -96q25 -26 78 -26h30v-124zM311 342h-51q-48 0 -73 -31q-20 -26 -20 -68q0 -48 23 -77q22 -26 57 -26t67 28q-3 24 -3 50v124z" />
    <glyph glyph-name="uniFE95" unicode="&#x62a;" horiz-adv-x="886" arabic-form="isolated" 
d="M445 499q0 -28 -20.5 -47.5t-49.5 -19.5q-28 0 -48.5 20t-20.5 47t20.5 47t48.5 20q29 0 49.5 -19.5t20.5 -47.5zM598 499q0 -28 -20 -47.5t-50 -19.5q-28 0 -48.5 20t-20.5 47t20.5 47t48.5 20q30 0 50 -19t20 -48zM589 0h-282q-118 0 -183 79q-50 61 -50 146
q0 67 36 121q35 51 93 75l52 -80q-31 -16 -48.5 -44t-17.5 -61q0 -49 35 -81q34 -31 87 -31h259q64 0 89 34q21 28 21 88v187h128v-215q0 -118 -61 -171q-53 -47 -158 -47z" />
    <glyph glyph-name="uniFE96" unicode="&#x62a;" horiz-adv-x="934" arabic-form="final" 
d="M445 499q0 -28 -20.5 -47.5t-49.5 -19.5q-28 0 -48.5 20t-20.5 47t20.5 47t48.5 20q29 0 49.5 -19.5t20.5 -47.5zM598 499q0 -28 -20 -47.5t-50 -19.5q-28 0 -48.5 20t-20.5 47t20.5 47t48.5 20q30 0 50 -19t20 -48zM589 0h-282q-118 0 -183 79q-50 61 -50 146
q0 67 36 121q35 51 93 75l52 -80q-31 -16 -48.5 -44t-17.5 -61q0 -49 35 -81q34 -31 87 -31h259q64 0 89 34q21 28 21 88v187h128v-187q0 -68 27 -96q25 -26 79 -26h30v-124h-39q-107 0 -159 62q-51 -62 -157 -62z" />
    <glyph glyph-name="uniFE97" unicode="&#x62a;" horiz-adv-x="332" arabic-form="initial" 
d="M178 582q0 -27 -20.5 -47t-48.5 -20t-48.5 20t-20.5 47t20.5 47t48.5 20t48.5 -20t20.5 -47zM332 582q0 -29 -20 -48t-50 -19q-28 0 -48.5 20t-20.5 47t20.5 47t48.5 20q30 0 50 -19.5t20 -47.5zM29 0h-39v124h30q61 0 85 34q21 28 21 88v187h128v-215q0 -218 -225 -218z
" />
    <glyph glyph-name="uniFE98" unicode="&#x62a;" horiz-adv-x="379" arabic-form="medial" 
d="M183 582q0 -27 -20.5 -47t-48.5 -20q-29 0 -49 19.5t-20 47.5t20 47.5t49 19.5q28 0 48.5 -20t20.5 -47zM336 582q0 -29 -19.5 -48t-49.5 -19q-28 0 -48.5 20t-20.5 47t20.5 47t48.5 20q29 0 49 -19.5t20 -47.5zM29 0h-39v124h30q61 0 85 34q21 28 21 88v187h128v-187
q0 -68 27 -96q25 -26 79 -26h29v-124h-39q-108 0 -160 64q-54 -64 -161 -64z" />
    <glyph glyph-name="uniFE99" unicode="&#x62b;" horiz-adv-x="886" arabic-form="isolated" 
d="M515 629q0 -25 -18.5 -43t-44.5 -18t-44 18t-18 43t18 43t44 18t44.5 -18t18.5 -43zM445 499q0 -28 -20.5 -47.5t-49.5 -19.5q-28 0 -48.5 20t-20.5 47t20.5 47t48.5 20q29 0 49.5 -19.5t20.5 -47.5zM598 499q0 -28 -20.5 -47.5t-49.5 -19.5q-28 0 -48.5 20t-20.5 47
t20.5 47t48.5 20q29 0 49.5 -19.5t20.5 -47.5zM589 0h-282q-118 0 -183 79q-50 61 -50 146q0 67 36 121q35 51 93 75l52 -80q-31 -16 -48.5 -44t-17.5 -61q0 -49 35 -81q34 -31 87 -31h259q64 0 89 34q21 28 21 88v187h128v-215q0 -118 -61 -171q-53 -47 -158 -47z" />
    <glyph glyph-name="uniFE9A" unicode="&#x62b;" horiz-adv-x="934" arabic-form="final" 
d="M515 629q0 -25 -18.5 -43t-44.5 -18t-44 18t-18 43t18 43t44 18t44.5 -18t18.5 -43zM445 499q0 -28 -20.5 -47.5t-49.5 -19.5q-28 0 -48.5 20t-20.5 47t20.5 47t48.5 20q29 0 49.5 -19.5t20.5 -47.5zM598 499q0 -28 -20.5 -47.5t-49.5 -19.5q-28 0 -48.5 20t-20.5 47
t20.5 47t48.5 20q29 0 49.5 -19.5t20.5 -47.5zM589 0h-282q-118 0 -183 79q-50 61 -50 146q0 67 36 121q35 51 93 75l52 -80q-31 -16 -48.5 -44t-17.5 -61q0 -49 35 -81q34 -31 87 -31h259q64 0 89 34q21 28 21 88v187h128v-187q0 -68 27 -96q25 -26 79 -26h30v-124h-39
q-107 0 -159 62q-51 -62 -157 -62z" />
    <glyph glyph-name="uniFE9B" unicode="&#x62b;" horiz-adv-x="332" arabic-form="initial" 
d="M249 712q0 -26 -18.5 -44t-44.5 -18t-44 18t-18 44q0 25 18.5 43t43.5 18q26 0 44.5 -18t18.5 -43zM178 582q0 -27 -20.5 -47t-48.5 -20t-48.5 20t-20.5 47t20.5 47t48.5 20t48.5 -20t20.5 -47zM332 582q0 -28 -20.5 -47.5t-49.5 -19.5q-28 0 -48.5 20t-20.5 47t20.5 47
t48.5 20q29 0 49.5 -19.5t20.5 -47.5zM29 0h-39v124h30q61 0 85 34q21 28 21 88v187h128v-215q0 -218 -225 -218z" />
    <glyph glyph-name="uniFE9C" unicode="&#x62b;" horiz-adv-x="379" arabic-form="medial" 
d="M254 712q0 -25 -18.5 -43.5t-44.5 -18.5t-44.5 18.5t-18.5 43.5t18.5 43t44.5 18t44.5 -18t18.5 -43zM183 582q0 -27 -20.5 -47t-48.5 -20q-29 0 -49 19.5t-20 47.5t20 47.5t49 19.5q28 0 48.5 -20t20.5 -47zM336 582q0 -28 -20 -47.5t-49 -19.5q-28 0 -48.5 20t-20.5 47
t20.5 47t48.5 20q29 0 49 -19.5t20 -47.5zM29 0h-39v124h30q61 0 85 34q21 28 21 88v187h128v-187q0 -68 27 -96q25 -26 79 -26h29v-124h-39q-108 0 -160 64q-54 -64 -161 -64z" />
    <glyph glyph-name="uniFE9D" unicode="&#x62c;" horiz-adv-x="597" arabic-form="isolated" 
d="M515 -301q-40 -30 -92.5 -47.5t-106.5 -17.5q-120 0 -194 76q-70 73 -70 196q0 145 117 232q103 77 266 86q-69 99 -152 99q-69 0 -139 -63l-63 72q88 111 215 111q87 0 161 -62q70 -59 110 -160v-99q-193 1 -295 -57q-97 -56 -97 -158q0 -76 54 -119q43 -34 102 -34
q73 0 132 37zM400 -91q0 -24 -17.5 -41.5t-42.5 -17.5t-43 17.5t-18 41.5t18 41t43 17t42.5 -17t17.5 -41z" />
    <glyph glyph-name="uniFE9E" unicode="&#x62c;" horiz-adv-x="701" arabic-form="final" 
d="M515 -301q-40 -30 -92.5 -47.5t-106.5 -17.5q-120 0 -194 76q-70 73 -70 196q0 145 117 232q103 77 266 86q-69 99 -152 99q-69 0 -139 -63l-63 72q88 111 215 111q87 0 161 -62q70 -59 110 -160v-35q-18 -7 -37 -18q43 -44 149 -44h32v-124h-34q-110 0 -170 29
q-55 26 -84 83q-125 -18 -189 -74q-59 -52 -59 -131q0 -76 54 -119q43 -34 102 -34q73 0 132 37zM400 -91q0 -24 -17.5 -41.5t-42.5 -17.5t-43 17.5t-18 41.5t18 41t43 17t42.5 -17t17.5 -41z" />
    <glyph glyph-name="uniFE9F" unicode="&#x62c;" horiz-adv-x="562" arabic-form="initial" 
d="M128 0h-138v124h135q89 0 150.5 22.5t118.5 76.5q-70 100 -154 100q-68 0 -139 -63l-62 72q88 111 214 111q87 0 161 -62q71 -59 111 -160v-35q-83 -113 -192 -155q-82 -31 -205 -31zM320 -140q0 -28 -20 -48t-49 -20q-28 0 -48.5 20t-20.5 48q0 27 20.5 47t48.5 20
q29 0 49 -19.5t20 -47.5z" />
    <glyph glyph-name="uniFEA0" unicode="&#x62c;" horiz-adv-x="670" arabic-form="medial" 
d="M128 0h-138v124h135q89 0 150.5 22.5t118.5 76.5q-70 100 -154 100q-68 0 -139 -63l-62 72q88 111 214 111q87 0 161 -62q71 -59 111 -160v-27l-16 -30q41 -40 140 -40h31v-124h-34q-95 0 -152 21q-53 19 -84 60q-113 -81 -282 -81zM350 -140q0 -28 -20 -48t-49 -20
q-28 0 -48.5 20t-20.5 48q0 27 20.5 47t48.5 20q29 0 49 -19.5t20 -47.5z" />
    <glyph glyph-name="uniFEA1" unicode="&#x62d;" horiz-adv-x="597" arabic-form="isolated" 
d="M515 -301q-40 -30 -92.5 -47.5t-106.5 -17.5q-120 0 -194 76q-70 73 -70 196q0 145 117 232q103 77 266 86q-69 99 -152 99q-69 0 -139 -63l-63 72q88 111 215 111q87 0 161 -62q70 -59 110 -160v-99q-193 1 -295 -57q-97 -56 -97 -158q0 -76 54 -119q43 -34 102 -34
q73 0 132 37z" />
    <glyph glyph-name="uniFEA2" unicode="&#x62d;" horiz-adv-x="701" arabic-form="final" 
d="M515 -301q-40 -30 -92.5 -47.5t-106.5 -17.5q-120 0 -194 76q-70 73 -70 196q0 145 117 232q103 77 266 86q-69 99 -152 99q-69 0 -139 -63l-63 72q88 111 215 111q87 0 161 -62q70 -59 110 -160v-38l-37 -15q44 -44 149 -44h32v-124h-34q-110 0 -170 29q-55 26 -84 83
q-125 -18 -189 -74q-59 -52 -59 -131q0 -76 54 -119q43 -34 102 -34q73 0 132 37z" />
    <glyph glyph-name="uniFEA3" unicode="&#x62d;" horiz-adv-x="562" arabic-form="initial" 
d="M128 0h-138v124h135q89 0 150.5 22.5t118.5 76.5q-70 100 -154 100q-68 0 -139 -63l-62 72q88 111 214 111q87 0 161 -62q71 -59 111 -160v-35q-83 -113 -192 -155q-82 -31 -205 -31z" />
    <glyph glyph-name="uniFEA4" unicode="&#x62d;" horiz-adv-x="670" arabic-form="medial" 
d="M128 0h-138v124h135q89 0 150.5 22.5t118.5 76.5q-70 100 -154 100q-68 0 -139 -63l-62 72q88 111 214 111q87 0 161 -62q71 -59 111 -160v-27l-16 -30q41 -40 140 -40h31v-124h-34q-95 0 -152 21q-53 19 -84 60q-113 -81 -282 -81z" />
    <glyph glyph-name="uniFEA5" unicode="&#x62e;" horiz-adv-x="597" arabic-form="isolated" 
d="M363 583q0 -28 -20.5 -47.5t-49.5 -19.5q-28 0 -48 19.5t-20 47.5t20 47.5t48 19.5q29 0 49.5 -19.5t20.5 -47.5zM515 -301q-40 -30 -92.5 -47.5t-106.5 -17.5q-120 0 -194 76q-70 73 -70 196q0 145 117 232q103 77 266 86q-69 99 -152 99q-69 0 -139 -63l-63 72
q88 111 215 111q87 0 161 -62q70 -59 110 -160v-99q-193 1 -295 -57q-97 -56 -97 -158q0 -76 54 -119q43 -34 102 -34q73 0 132 37z" />
    <glyph glyph-name="uniFEA6" unicode="&#x62e;" horiz-adv-x="701" arabic-form="final" 
d="M363 583q0 -28 -20 -47.5t-49 -19.5q-28 0 -48.5 20t-20.5 47t20.5 47t48.5 20q29 0 49 -19.5t20 -47.5zM515 -301q-40 -30 -92.5 -47.5t-106.5 -17.5q-120 0 -194 76q-70 73 -70 196q0 145 117 232q103 77 266 86q-69 99 -152 99q-69 0 -139 -63l-63 72q88 111 215 111
q87 0 161 -62q70 -59 110 -160v-38l-37 -15q44 -44 149 -44h32v-124h-34q-110 0 -170 29q-55 26 -84 83q-125 -18 -189 -74q-59 -52 -59 -131q0 -76 54 -119q43 -34 102 -34q73 0 132 37z" />
    <glyph glyph-name="uniFEA7" unicode="&#x62e;" horiz-adv-x="562" arabic-form="initial" 
d="M323 583q0 -28 -20.5 -47.5t-49.5 -19.5q-28 0 -48.5 20t-20.5 47t20.5 47t48.5 20q29 0 49.5 -19.5t20.5 -47.5zM128 0h-138v124h135q89 0 150.5 22.5t118.5 76.5q-70 100 -154 100q-68 0 -139 -63l-62 72q88 111 214 111q87 0 161 -62q71 -59 111 -160v-35
q-83 -113 -192 -155q-82 -31 -205 -31z" />
    <glyph glyph-name="uniFEA8" unicode="&#x62e;" horiz-adv-x="670" arabic-form="medial" 
d="M321 583q0 -27 -20.5 -47t-48.5 -20q-29 0 -49 19.5t-20 47.5t20 47.5t49 19.5q28 0 48.5 -20t20.5 -47zM128 0h-138v124h135q89 0 150.5 22.5t118.5 76.5q-70 100 -154 100q-68 0 -139 -63l-62 72q88 111 214 111q87 0 161 -62q71 -59 111 -160v-27l-16 -30
q41 -40 140 -40h31v-124h-34q-95 0 -152 21q-53 19 -84 60q-113 -81 -282 -81z" />
    <glyph glyph-name="uniFEA9" unicode="&#x62f;" horiz-adv-x="476" arabic-form="isolated" 
d="M225 0h-205v124h180q73 0 73 62q0 39 -30 83.5t-79 77.5l73 99q82 -55 125 -128q39 -66 39 -136q0 -88 -43 -134q-45 -48 -133 -48z" />
    <glyph glyph-name="uniFEAA" unicode="&#x62f;" horiz-adv-x="522" arabic-form="final" 
d="M225 0h-205v124h180q73 0 73 62q0 39 -30 83.5t-79 77.5l73 99q76 -51 118 -118q38 -60 44 -124q7 -80 103 -80h30v-124h-39q-87 0 -140 44q-44 -44 -128 -44z" />
    <glyph glyph-name="uniFEAB" unicode="&#x630;" horiz-adv-x="476" arabic-form="isolated" 
d="M276 576q0 -28 -20.5 -47.5t-49.5 -19.5q-28 0 -48 19.5t-20 47.5t20 47.5t48 19.5q29 0 49.5 -19.5t20.5 -47.5zM225 0h-205v124h180q73 0 73 62q0 39 -30 83.5t-79 77.5l73 99q82 -55 125 -128q39 -66 39 -136q0 -88 -43 -134q-45 -48 -133 -48z" />
    <glyph glyph-name="uniFEAC" unicode="&#x630;" horiz-adv-x="522" arabic-form="final" 
d="M277 576q0 -28 -20 -47.5t-49 -19.5q-28 0 -48.5 20t-20.5 47t20.5 47t48.5 20q29 0 49 -19.5t20 -47.5zM225 0h-205v124h180q73 0 73 62q0 39 -30 83.5t-79 77.5l73 99q76 -51 118 -118q38 -60 44 -124q7 -80 103 -80h30v-124h-39q-87 0 -140 44q-44 -44 -128 -44z" />
    <glyph glyph-name="uniFEAD" unicode="&#x631;" horiz-adv-x="353" arabic-form="isolated" 
d="M275 433v-422q0 -104 -59 -158q-48 -44 -124 -44q-77 0 -145 39l30 93q44 -22 81 -22q45 0 68 31q22 29 22 81v402h127z" />
    <glyph glyph-name="uniFEAE" unicode="&#x631;" horiz-adv-x="401" arabic-form="final" 
d="M269 25v-17q-1 -102 -58 -155q-47 -44 -119 -44q-77 0 -145 39l30 93q44 -22 81 -22q45 0 68 31q22 29 22 81v402h127v-187q0 -68 27 -96q25 -26 79 -26h30v-124h-39q-60 0 -103 25z" />
    <glyph glyph-name="uniFEAF" unicode="&#x632;" horiz-adv-x="353" arabic-form="isolated" 
d="M281 583q0 -27 -20.5 -47t-48.5 -20t-48.5 20t-20.5 47t20.5 47t48.5 20t48.5 -20t20.5 -47zM275 433v-422q0 -104 -59 -158q-48 -44 -124 -44q-77 0 -145 39l30 93q44 -22 81 -22q45 0 68 31q22 29 22 81v402h127z" />
    <glyph glyph-name="uniFEB0" unicode="&#x632;" horiz-adv-x="401" arabic-form="final" 
d="M275 583q0 -28 -20 -47.5t-49 -19.5q-28 0 -48.5 20t-20.5 47t20.5 47t48.5 20q29 0 49 -19.5t20 -47.5zM269 25v-17q-1 -102 -58 -155q-47 -44 -119 -44q-77 0 -145 39l30 93q44 -22 81 -22q45 0 68 31q22 29 22 81v402h127v-187q0 -68 27 -96q25 -26 79 -26h30v-124
h-39q-60 0 -103 25z" />
    <glyph glyph-name="uniFEB1" unicode="&#x633;" horiz-adv-x="1292" arabic-form="isolated" 
d="M585 2q-24 -99 -99 -149q-66 -44 -162 -44q-127 0 -199 79q-62 68 -62 172q0 92 53 169l99 -34q-33 -60 -33 -120q0 -66 41 -105q38 -37 101 -37q68 0 110 40q42 41 42 114v285h128v-132q0 -116 86 -116q88 0 88 116v132h128v-132q0 -116 90 -116t90 116v193h128v-215
q0 -218 -218 -218q-104 0 -154 62q-49 -62 -148 -62q-65 0 -105 23q0 -3 -2 -11q-2 -7 -2 -10z" />
    <glyph glyph-name="uniFEB2" unicode="&#x633;" horiz-adv-x="1354" arabic-form="final" 
d="M585 4q-22 -99 -97 -150q-66 -45 -163 -45q-127 0 -199 79q-62 68 -62 172q0 91 52 169l99 -34q-32 -61 -32 -120q0 -66 41 -105q38 -37 101 -37q68 0 109 40q42 41 42 114v285h129v-132q0 -116 86 -116q87 0 87 116v132h129v-132q0 -116 89 -116q90 0 90 116v132h128
v-126q0 -68 27 -96q25 -26 79 -26h44v-124h-53q-107 0 -160 63q-51 -63 -154 -63q-105 0 -155 62q-47 -62 -148 -62q-65 0 -105 23q-1 -4 -2 -12q-2 -4 -2 -7z" />
    <glyph glyph-name="uniFEB3" unicode="&#x633;" horiz-adv-x="956" arabic-form="initial" 
d="M43 0h-53v124h44q61 0 85 34q21 28 21 88v126h128v-132q0 -116 86 -116q88 0 88 116v132h128v-132q0 -116 90 -116t90 116v193h128v-215q0 -218 -218 -218q-104 0 -154 62q-49 -62 -150 -62q-102 0 -153 62q-53 -62 -160 -62z" />
    <glyph glyph-name="uniFEB4" unicode="&#x633;" horiz-adv-x="1018" arabic-form="medial" 
d="M43 0h-53v124h44q61 0 85 34q21 28 21 88v126h128v-132q0 -116 86 -116q88 0 88 116v132h128v-132q0 -116 90 -116t90 116v132h128v-126q0 -68 27 -96q25 -26 79 -26h44v-124h-53q-107 0 -160 62q-51 -62 -155 -62t-154 62q-49 -62 -151 -62q-101 0 -152 62
q-53 -62 -160 -62z" />
    <glyph glyph-name="uniFEB5" unicode="&#x634;" horiz-adv-x="1292" arabic-form="isolated" 
d="M903 672q0 -25 -18.5 -43t-44.5 -18t-44.5 18t-18.5 43t18.5 43t44.5 18t44.5 -18t18.5 -43zM832 542q0 -28 -20.5 -47.5t-49.5 -19.5q-28 0 -48.5 20t-20.5 47t20.5 47t48.5 20q29 0 49.5 -19.5t20.5 -47.5zM985 542q0 -28 -20 -47.5t-49 -19.5q-28 0 -48.5 20t-20.5 47
t20.5 47t48.5 20q29 0 49 -19.5t20 -47.5zM585 2q-24 -99 -99 -149q-66 -44 -162 -44q-127 0 -199 79q-62 68 -62 172q0 92 53 169l99 -34q-33 -60 -33 -120q0 -66 41 -105q38 -37 101 -37q68 0 110 40q42 41 42 114v285h128v-132q0 -116 86 -116q88 0 88 116v132h128v-132
q0 -116 90 -116t90 116v193h128v-215q0 -218 -218 -218q-104 0 -154 62q-49 -62 -148 -62q-65 0 -105 23q0 -3 -2 -11q-2 -7 -2 -10z" />
    <glyph glyph-name="uniFEB6" unicode="&#x634;" horiz-adv-x="1354" arabic-form="final" 
d="M903 672q0 -25 -18.5 -43t-44.5 -18t-44.5 18t-18.5 43t18.5 43t44.5 18t44.5 -18t18.5 -43zM832 542q0 -28 -20.5 -47.5t-49.5 -19.5q-28 0 -48.5 20t-20.5 47t20.5 47t48.5 20q29 0 49.5 -19.5t20.5 -47.5zM985 542q0 -28 -20 -47.5t-49 -19.5q-28 0 -48.5 20t-20.5 47
t20.5 47t48.5 20q29 0 49 -19.5t20 -47.5zM585 4q-22 -99 -97 -150q-66 -45 -163 -45q-127 0 -199 79q-62 68 -62 172q0 91 52 169l99 -34q-32 -61 -32 -120q0 -66 41 -105q38 -37 101 -37q68 0 109 40q42 41 42 114v285h129v-132q0 -116 86 -116q87 0 87 116v132h129v-132
q0 -116 89 -116q90 0 90 116v132h128v-126q0 -68 27 -96q25 -26 79 -26h44v-124h-53q-107 0 -160 63q-51 -63 -154 -63q-105 0 -155 62q-47 -62 -148 -62q-65 0 -105 23q-1 -4 -2 -12q-2 -4 -2 -7z" />
    <glyph glyph-name="uniFEB7" unicode="&#x634;" horiz-adv-x="956" arabic-form="initial" 
d="M562 672q0 -25 -18.5 -43t-44.5 -18t-44 18t-18 43t18 43t44 18t44.5 -18t18.5 -43zM491 542q0 -28 -20 -47.5t-49 -19.5q-28 0 -48.5 20t-20.5 47t20.5 47t48.5 20q29 0 49 -19.5t20 -47.5zM645 542q0 -28 -20.5 -47.5t-49.5 -19.5q-28 0 -48.5 20t-20.5 47t20.5 47
t48.5 20q29 0 49.5 -19.5t20.5 -47.5zM43 0h-53v124h44q61 0 85 34q21 28 21 88v126h128v-132q0 -116 86 -116q88 0 88 116v132h128v-132q0 -116 90 -116t90 116v193h128v-215q0 -218 -218 -218q-104 0 -154 62q-49 -62 -150 -62q-102 0 -153 62q-53 -62 -160 -62z" />
    <glyph glyph-name="uniFEB8" unicode="&#x634;" horiz-adv-x="1018" arabic-form="medial" 
d="M569 672q0 -25 -18.5 -43t-44.5 -18t-44.5 18t-18.5 43t18.5 43t44.5 18t44.5 -18t18.5 -43zM498 542q0 -28 -20.5 -47.5t-49.5 -19.5q-28 0 -48.5 20t-20.5 47t20.5 47t48.5 20q29 0 49.5 -19.5t20.5 -47.5zM651 542q0 -27 -20.5 -47t-48.5 -20t-48.5 20t-20.5 47
t20.5 47t48.5 20t48.5 -20t20.5 -47zM43 0h-53v124h44q61 0 85 34q21 28 21 88v126h128v-132q0 -116 86 -116q88 0 88 116v132h128v-132q0 -116 90 -116t90 116v132h128v-126q0 -68 27 -96q25 -26 79 -26h44v-124h-53q-107 0 -160 62q-51 -62 -155 -62t-154 62
q-49 -62 -151 -62q-101 0 -152 62q-53 -62 -160 -62z" />
    <glyph glyph-name="uniFEB9" unicode="&#x635;" horiz-adv-x="1380" arabic-form="isolated" 
d="M591 29l-3 -15q-19 -104 -95 -158q-67 -47 -168 -47q-127 0 -199 79q-62 68 -62 172q0 91 52 169l99 -34q-32 -61 -32 -120q0 -66 41 -105q38 -37 101 -37q68 0 109 40q42 41 42 114v243h129v-84q0 -64 24 -92q21 -26 67 -29q62 156 176 246q101 80 210 80q115 0 179 -75
q54 -63 54 -159q0 -217 -216 -217h-393q-68 0 -115 29zM818 124h270q58 0 81 27q18 22 18 70q0 57 -31 84q-27 24 -73 24q-76 0 -152 -62q-69 -55 -113 -143z" />
    <glyph glyph-name="uniFEBA" unicode="&#x635;" horiz-adv-x="1435" arabic-form="final" 
d="M589 17q-19 -105 -95 -160q-68 -48 -169 -48q-127 0 -199 79q-62 68 -62 172q0 91 52 169l99 -34q-32 -61 -32 -120q0 -66 41 -105q37 -37 100 -37q68 0 110 41q42 42 42 116v240h128v-84q0 -64 24 -92q22 -26 68 -29q62 156 176 246q101 80 210 80q114 0 179 -73
q54 -62 54 -156q0 -98 104 -98h26v-124h-35q-98 0 -151 54q-52 -54 -160 -54h-394q-66 0 -115 29q0 -2 -1 -6v-6zM817 124h271q58 0 81 27q18 22 18 70q0 57 -31 84q-27 24 -73 24q-76 0 -152 -62q-70 -55 -114 -143z" />
    <glyph glyph-name="uniFEBB" unicode="&#x635;" horiz-adv-x="1026" arabic-form="initial" 
d="M25 0h-35v124h26q61 0 85 34q21 28 21 88v84h128v-84q0 -64 24 -92q22 -26 68 -29q62 156 176 246q101 80 210 80q115 0 179 -76q54 -63 54 -160q0 -215 -216 -215h-400q-107 0 -159 64q-54 -64 -161 -64zM463 124h271q58 0 80 27q19 22 19 69q0 57 -31 85q-27 24 -73 24
q-76 0 -152 -62q-70 -55 -114 -143z" />
    <glyph glyph-name="uniFEBC" unicode="&#x635;" horiz-adv-x="1081" arabic-form="medial" 
d="M25 0h-35v124h26q61 0 85 34q21 28 21 88v84h128v-84q0 -64 24 -92q22 -26 68 -29q62 156 176 246q101 80 210 80q115 0 179 -74q54 -63 54 -159q0 -94 104 -94h26v-124h-35q-97 0 -151 54q-54 -54 -160 -54h-400q-107 0 -159 64q-54 -64 -161 -64zM463 124h271
q58 0 80 27q19 23 19 70q0 57 -31 84q-27 24 -73 24q-76 0 -152 -62q-70 -55 -114 -143z" />
    <glyph glyph-name="uniFEBD" unicode="&#x636;" horiz-adv-x="1380" arabic-form="isolated" 
d="M1119 597q0 -28 -20.5 -47.5t-49.5 -19.5q-28 0 -48.5 20t-20.5 47t20.5 47t48.5 20q29 0 49.5 -19.5t20.5 -47.5zM591 29l-3 -15q-19 -104 -95 -158q-67 -47 -168 -47q-127 0 -199 79q-62 68 -62 172q0 91 52 169l99 -34q-32 -61 -32 -120q0 -66 41 -105q38 -37 101 -37
q68 0 109 40q42 41 42 114v243h129v-84q0 -64 24 -92q21 -26 67 -29q62 156 176 246q101 80 210 80q115 0 179 -75q54 -63 54 -159q0 -217 -216 -217h-393q-68 0 -115 29zM818 124h270q58 0 81 27q18 22 18 70q0 57 -31 84q-27 24 -73 24q-76 0 -152 -62q-69 -55 -113 -143z
" />
    <glyph glyph-name="uniFEBE" unicode="&#x636;" horiz-adv-x="1435" arabic-form="final" 
d="M1131 597q0 -28 -20.5 -47.5t-49.5 -19.5q-28 0 -48.5 20t-20.5 47t20.5 47t48.5 20q29 0 49.5 -19.5t20.5 -47.5zM589 17q-19 -105 -95 -160q-68 -48 -169 -48q-127 0 -199 79q-62 68 -62 172q0 91 52 169l99 -34q-32 -61 -32 -120q0 -66 41 -105q37 -37 100 -37
q68 0 110 41q42 42 42 116v240h128v-84q0 -64 24 -92q22 -26 68 -29q62 156 176 246q101 80 210 80q114 0 179 -73q54 -62 54 -156q0 -98 104 -98h26v-124h-35q-98 0 -151 54q-52 -54 -160 -54h-394q-66 0 -115 29q0 -2 -1 -6v-6zM817 124h271q58 0 81 27q18 22 18 70
q0 57 -31 84q-27 24 -73 24q-76 0 -152 -62q-70 -55 -114 -143z" />
    <glyph glyph-name="uniFEBF" unicode="&#x636;" horiz-adv-x="1026" arabic-form="initial" 
d="M775 597q0 -28 -20.5 -47.5t-49.5 -19.5q-28 0 -48.5 20t-20.5 47t20.5 47t48.5 20q29 0 49.5 -19.5t20.5 -47.5zM25 0h-35v124h26q61 0 85 34q21 28 21 88v84h128v-84q0 -64 24 -92q22 -26 68 -29q62 156 176 246q101 80 210 80q115 0 179 -76q54 -63 54 -160
q0 -215 -216 -215h-400q-107 0 -159 64q-54 -64 -161 -64zM463 124h271q58 0 80 27q19 22 19 69q0 57 -31 85q-27 24 -73 24q-76 0 -152 -62q-70 -55 -114 -143z" />
    <glyph glyph-name="uniFEC0" unicode="&#x636;" horiz-adv-x="1081" arabic-form="medial" 
d="M775 597q0 -28 -20.5 -47.5t-49.5 -19.5q-28 0 -48.5 20t-20.5 47t20.5 47t48.5 20q29 0 49.5 -19.5t20.5 -47.5zM25 0h-35v124h26q61 0 85 34q21 28 21 88v84h128v-84q0 -64 24 -92q22 -26 68 -29q62 156 176 246q101 80 210 80q115 0 179 -74q54 -63 54 -159
q0 -94 104 -94h26v-124h-35q-97 0 -151 54q-54 -54 -160 -54h-400q-107 0 -159 64q-54 -64 -161 -64zM463 124h271q58 0 80 27q19 23 19 70q0 57 -31 84q-27 24 -73 24q-76 0 -152 -62q-70 -55 -114 -143z" />
    <glyph glyph-name="uniFEC1" unicode="&#x637;" horiz-adv-x="875" arabic-form="isolated" 
d="M595 0h-563v124h155v542h125v-380q114 165 283 165q103 0 164 -75q52 -65 52 -159q0 -217 -216 -217zM320 124h264q58 0 80 29q18 22 18 68q0 108 -104 108q-73 0 -147 -62q-65 -54 -111 -143z" />
    <glyph glyph-name="uniFEC2" unicode="&#x637;" horiz-adv-x="932" arabic-form="final" 
d="M592 0h-560v124h153v542h125v-380q114 165 282 165q102 0 163 -74q53 -63 53 -156q0 -97 104 -97h30v-124h-39q-98 0 -151 54q-52 -54 -160 -54zM317 124h264q58 0 81 28q18 23 18 67q0 110 -104 110q-74 0 -147 -62q-66 -54 -112 -143z" />
    <glyph glyph-name="uniFEC3" unicode="&#x637;" horiz-adv-x="829" arabic-form="initial" 
d="M548 0h-558v124h151v542h125v-380q114 165 282 165q102 0 163 -74q53 -65 53 -165q0 -112 -63 -166q-54 -46 -153 -46zM273 124h264q58 0 81 27q18 23 18 71q0 56 -31 84q-27 23 -73 23q-74 0 -147 -62q-66 -54 -112 -143z" />
    <glyph glyph-name="uniFEC4" unicode="&#x637;" horiz-adv-x="888" arabic-form="medial" 
d="M548 0h-558v124h151v542h125v-380q114 165 282 165q102 0 163 -74q53 -63 53 -156q0 -97 104 -97h30v-124h-39q-98 0 -151 54q-52 -54 -160 -54zM273 124h263q58 0 81 26q19 22 19 69q0 110 -104 110q-74 0 -147 -62q-66 -54 -112 -143z" />
    <glyph glyph-name="uniFEC5" unicode="&#x638;" horiz-adv-x="875" arabic-form="isolated" 
d="M657 608q0 -28 -20.5 -47.5t-49.5 -19.5q-28 0 -48 19.5t-20 47.5t20 47.5t48 19.5q29 0 49.5 -19.5t20.5 -47.5zM595 0h-563v124h155v542h125v-380q114 165 283 165q103 0 164 -75q52 -65 52 -159q0 -217 -216 -217zM320 124h264q58 0 80 29q18 22 18 68q0 108 -104 108
q-73 0 -147 -62q-65 -54 -111 -143z" />
    <glyph glyph-name="uniFEC6" unicode="&#x638;" horiz-adv-x="932" arabic-form="final" 
d="M657 608q0 -28 -20.5 -47.5t-49.5 -19.5q-28 0 -48 19.5t-20 47.5t20 47.5t48 19.5q29 0 49.5 -19.5t20.5 -47.5zM592 0h-560v124h153v542h125v-380q114 165 282 165q102 0 163 -74q53 -63 53 -156q0 -97 104 -97h30v-124h-39q-98 0 -151 54q-52 -54 -160 -54zM317 124
h264q58 0 81 28q18 23 18 67q0 110 -104 110q-74 0 -147 -62q-66 -54 -112 -143z" />
    <glyph glyph-name="uniFEC7" unicode="&#x638;" horiz-adv-x="829" arabic-form="initial" 
d="M612 608q0 -28 -20.5 -47.5t-49.5 -19.5q-28 0 -48.5 20t-20.5 47t20.5 47t48.5 20q29 0 49.5 -19.5t20.5 -47.5zM548 0h-558v124h151v542h125v-380q114 165 282 165q102 0 163 -74q53 -65 53 -165q0 -112 -63 -166q-54 -46 -153 -46zM273 124h264q58 0 81 27
q18 23 18 71q0 56 -31 84q-27 23 -73 23q-74 0 -147 -62q-66 -54 -112 -143z" />
    <glyph glyph-name="uniFEC8" unicode="&#x638;" horiz-adv-x="888" arabic-form="medial" 
d="M612 608q0 -28 -20.5 -47.5t-49.5 -19.5q-28 0 -48.5 20t-20.5 47t20.5 47t48.5 20q29 0 49.5 -19.5t20.5 -47.5zM548 0h-558v124h151v542h125v-380q114 165 282 165q102 0 163 -74q53 -63 53 -156q0 -97 104 -97h30v-124h-39q-98 0 -151 54q-52 -54 -160 -54zM273 124
h263q58 0 81 26q19 22 19 69q0 110 -104 110q-74 0 -147 -62q-66 -54 -112 -143z" />
    <glyph glyph-name="uniFEC9" unicode="&#x639;" horiz-adv-x="598" arabic-form="isolated" 
d="M538 -301q-41 -31 -94.5 -48.5t-107.5 -17.5q-130 0 -205 72q-67 65 -67 167q0 65 31 119q30 50 81 80q-88 58 -88 166q0 100 67 160q57 51 138 51h181v-120h-158q-49 0 -76 -32q-23 -27 -23 -68q0 -43 31 -71q31 -27 80 -27h191v-121h-178q-77 0 -119 -43
q-32 -33 -32 -82q0 -60 49 -97q43 -33 109 -33q79 0 137 37z" />
    <glyph glyph-name="uniFECA" unicode="&#x639;" horiz-adv-x="678" arabic-form="final" 
d="M542 -301q-40 -31 -94 -48.5t-108 -17.5q-131 0 -205 70q-67 64 -67 166q0 84 46 139q27 32 107 85q11 7 18 12q-105 138 -170 150v49q48 76 125 117q64 33 131 33q77 0 150 -44q66 -41 108 -107v-48q-33 -5 -61 -28t-80 -86q-5 -6 -9 -11q42 -6 65 -6h190v-124h-238
q-69 0 -124 37q-11 -11 -53 -41q-38 -26 -54 -47q-25 -31 -25 -70q0 -58 49 -94q44 -31 109 -31q79 0 138 37zM207 297q29 -23 82 -85q23 -26 37 -40q10 10 34 39q49 59 85 85q-57 50 -123 50q-63 0 -115 -49z" />
    <glyph glyph-name="uniFECB" unicode="&#x639;" horiz-adv-x="585" arabic-form="initial" 
d="M535 0h-545v124h118q-32 49 -32 113q0 100 67 160q57 51 138 51h181v-120h-158q-49 0 -76 -32q-23 -27 -23 -68q0 -46 31 -76q30 -28 80 -28h219v-124z" />
    <glyph glyph-name="uniFECC" unicode="&#x639;" horiz-adv-x="706" arabic-form="medial" 
d="M228 0h-238v124h202q24 0 54 7q-50 62 -84 89.5t-67 34.5v49q48 76 126 117q63 33 131 33q78 0 150 -44q65 -41 107 -107v-48q-31 -5 -59.5 -28.5t-80.5 -85.5q-5 -7 -9 -11q30 -6 49 -6h207v-124h-240q-68 0 -123 37q-55 -37 -125 -37zM233 297q29 -23 82 -85
q23 -26 37 -40q15 14 44 49q46 53 75 75q-53 50 -124 50q-61 0 -114 -49z" />
    <glyph glyph-name="uniFECD" unicode="&#x63a;" horiz-adv-x="598" arabic-form="isolated" 
d="M395 583q0 -28 -20 -47.5t-49 -19.5q-28 0 -48.5 20t-20.5 47t20.5 47t48.5 20q29 0 49 -19.5t20 -47.5zM538 -301q-41 -31 -94.5 -48.5t-107.5 -17.5q-130 0 -205 72q-67 65 -67 167q0 65 31 119q30 50 81 80q-88 58 -88 166q0 100 67 160q57 51 138 51h181v-120h-158
q-49 0 -76 -32q-23 -27 -23 -68q0 -43 31 -71q31 -27 80 -27h191v-121h-178q-77 0 -119 -43q-32 -33 -32 -82q0 -60 49 -97q43 -33 109 -33q79 0 137 37z" />
    <glyph glyph-name="uniFECE" unicode="&#x63a;" horiz-adv-x="678" arabic-form="final" 
d="M384 584q0 -28 -20 -48t-49 -20q-28 0 -48.5 20t-20.5 48q0 27 20.5 47t48.5 20q29 0 49 -19.5t20 -47.5zM542 -301q-40 -31 -94 -48.5t-108 -17.5q-131 0 -205 70q-67 64 -67 166q0 84 46 139q27 32 107 85q11 7 18 12q-105 138 -170 150v49q48 76 125 117q64 33 131 33
q77 0 150 -44q66 -41 108 -107v-48q-33 -5 -61 -28t-80 -86q-5 -6 -9 -11q42 -6 65 -6h190v-124h-238q-69 0 -124 37q-11 -11 -53 -41q-38 -26 -54 -47q-25 -31 -25 -70q0 -58 49 -94q44 -31 109 -31q79 0 138 37zM207 297q29 -23 82 -85q23 -26 37 -40q10 10 34 39
q49 59 85 85q-57 50 -123 50q-63 0 -115 -49z" />
    <glyph glyph-name="uniFECF" unicode="&#x63a;" horiz-adv-x="585" arabic-form="initial" 
d="M382 583q0 -28 -20.5 -47.5t-49.5 -19.5q-28 0 -48.5 20t-20.5 47t20.5 47t48.5 20q29 0 49.5 -19.5t20.5 -47.5zM535 0h-545v124h118q-32 49 -32 113q0 100 67 160q57 51 138 51h181v-120h-158q-49 0 -76 -32q-23 -27 -23 -68q0 -46 31 -76q30 -28 80 -28h219v-124z" />
    <glyph glyph-name="uniFED0" unicode="&#x63a;" horiz-adv-x="706" arabic-form="medial" 
d="M422 584q0 -28 -20.5 -48t-49.5 -20q-28 0 -48.5 20t-20.5 48q0 27 20.5 47t48.5 20q29 0 49.5 -19.5t20.5 -47.5zM228 0h-238v124h202q24 0 54 7q-50 62 -84 89.5t-67 34.5v49q48 76 126 117q63 33 131 33q78 0 150 -44q65 -41 107 -107v-48q-31 -5 -59.5 -28.5
t-80.5 -85.5q-5 -7 -9 -11q30 -6 49 -6h207v-124h-240q-68 0 -123 37q-55 -37 -125 -37zM233 297q29 -23 82 -85q23 -26 37 -40q15 14 44 49q46 53 75 75q-53 50 -124 50q-61 0 -114 -49z" />
    <glyph glyph-name="uniFED1" unicode="&#x641;" horiz-adv-x="952" arabic-form="isolated" 
d="M763 582q0 -28 -20.5 -48t-49.5 -20q-28 0 -48.5 20t-20.5 48q0 27 20.5 47t48.5 20q29 0 49.5 -19.5t20.5 -47.5zM702 0h-395q-118 0 -183 79q-50 61 -50 146q0 67 36 121q35 51 93 75l52 -80q-31 -16 -48.5 -44t-17.5 -61q0 -49 35 -81q34 -31 87 -31h227
q-28 50 -28 112q0 104 59 164q52 52 133 52q89 0 140 -56q43 -48 43 -122v-87q0 -86 -51 -138q-49 -49 -132 -49zM626 233q0 -57 25 -86q21 -23 53 -23q60 0 60 64v81q0 71 -62 71q-36 0 -56 -28.5t-20 -78.5z" />
    <glyph glyph-name="uniFED2" unicode="&#x641;" horiz-adv-x="981" arabic-form="final" 
d="M781 583q0 -28 -20.5 -47.5t-49.5 -19.5q-28 0 -48.5 20t-20.5 47t20.5 47t48.5 20q29 0 49.5 -19.5t20.5 -47.5zM628 0h-321q-118 0 -183 79q-50 61 -50 146q0 67 36 121q35 51 93 75l52 -80q-31 -16 -48.5 -44t-17.5 -61q0 -49 35 -81q34 -31 87 -31h241
q-43 59 -43 125q0 95 58 152q54 53 140 53q99 0 153 -67q45 -55 45 -138q0 -68 -43 -125h129v-124h-204q-45 0 -80 8q-34 -8 -79 -8zM707 122q36 20 58 55.5t22 75.5q0 45 -24 69q-21 22 -56 22q-37 0 -58 -24t-21 -67q0 -39 21.5 -75t57.5 -56z" />
    <glyph glyph-name="uniFED3" unicode="&#x641;" horiz-adv-x="537" arabic-form="initial" 
d="M358 583q0 -28 -20.5 -47.5t-49.5 -19.5q-28 0 -48.5 20t-20.5 47t20.5 47t48.5 20q29 0 49.5 -19.5t20.5 -47.5zM287 0h-297v124h133q-28 47 -28 112q0 104 59 164q52 52 133 52q89 0 139 -56q43 -48 43 -122v-87q0 -86 -51 -137q-49 -49 -131 -50zM211 233
q0 -57 25 -86q20 -23 52 -23q60 0 60 64v81q0 71 -61 71q-36 0 -56 -28.5t-20 -78.5z" />
    <glyph glyph-name="uniFED4" unicode="&#x641;" horiz-adv-x="546" arabic-form="medial" 
d="M343 583q0 -28 -20 -47.5t-49 -19.5q-28 0 -48.5 20t-20.5 47t20.5 47t48.5 20q29 0 49 -19.5t20 -47.5zM194 0h-204v124h128q-43 59 -43 125q0 95 58 152q54 53 140 53q99 0 153 -67q45 -55 45 -138q0 -68 -43 -125h128v-124h-203q-45 0 -80 8q-35 -8 -79 -8zM273 122
q36 20 58 55.5t22 75.5q0 44 -24 69q-22 22 -56 22q-37 0 -58 -24t-21 -67q0 -40 21.5 -76t57.5 -55z" />
    <glyph glyph-name="uniFED5" unicode="&#x642;" horiz-adv-x="751" arabic-form="isolated" 
d="M482 585q0 -28 -20 -47.5t-49 -19.5q-28 0 -48.5 20t-20.5 47t20.5 47t48.5 20q29 0 49 -19.5t20 -47.5zM636 585q0 -29 -20 -48t-50 -19q-28 0 -48.5 20t-20.5 47t20.5 47t48.5 20q30 0 50 -19.5t20 -47.5zM545 30q-21 -10 -44 -10q-108 0 -162 68q-44 55 -44 142
q0 101 60 161q54 55 139 55q89 0 140 -56q43 -48 43 -122v-183q0 -138 -94 -216q-86 -70 -228 -70q-148 0 -227 84q-64 69 -64 175q0 92 53 171l98 -34q-31 -61 -31 -121q0 -74 47 -116q45 -41 124 -41q73 0 121 28q43 24 62 68q3 5 7 17zM555 137v132q0 71 -65 71
q-37 0 -58.5 -27t-21.5 -75q0 -54 29 -86q25 -27 62 -27q27 0 54 12z" />
    <glyph glyph-name="uniFED6" unicode="&#x642;" horiz-adv-x="759" arabic-form="final" 
d="M482 584q0 -28 -20 -47.5t-49 -19.5q-28 0 -48.5 20t-20.5 47t20.5 47t48.5 20q29 0 49 -19.5t20 -47.5zM636 584q0 -28 -20 -47.5t-50 -19.5q-28 0 -48.5 20t-20.5 47t20.5 47t48.5 20q30 0 50 -19t20 -48zM665 -1q-27 -100 -114 -152q-79 -48 -196 -48q-148 0 -227 84
q-64 69 -64 175q0 92 53 171l98 -34q-31 -61 -31 -121q0 -74 47 -116q45 -41 124 -41q143 0 184 95q-8 0 -24 1h-21q-107 7 -160 81q-39 56 -39 136q0 101 60 161q54 55 139 55q89 0 140 -56q43 -48 43 -122v-144h92v-124zM555 124v145q0 71 -65 71q-37 0 -58.5 -27
t-21.5 -75q0 -55 30 -86q25 -28 65 -28h50z" />
    <glyph glyph-name="uniFED7" unicode="&#x642;" horiz-adv-x="537" arabic-form="initial" 
d="M279 584q0 -27 -20.5 -47t-48.5 -20t-48.5 20t-20.5 47t20.5 47t48.5 20t48.5 -20t20.5 -47zM433 584q0 -28 -20 -47.5t-50 -19.5q-28 0 -48.5 20t-20.5 47t20.5 47t48.5 20q30 0 50 -19t20 -48zM287 0h-297v124h133q-28 47 -28 112q0 104 59 164q52 52 133 52
q89 0 139 -56q43 -48 43 -122v-87q0 -86 -51 -137q-49 -49 -131 -50zM211 233q0 -57 25 -86q20 -23 52 -23q60 0 60 64v81q0 71 -61 71q-36 0 -56 -28.5t-20 -78.5z" />
    <glyph glyph-name="uniFED8" unicode="&#x642;" horiz-adv-x="546" arabic-form="medial" 
d="M265 584q0 -28 -20.5 -47.5t-49.5 -19.5q-28 0 -48.5 20t-20.5 47t20.5 47t48.5 20q29 0 49.5 -19.5t20.5 -47.5zM418 584q0 -28 -20 -47.5t-49 -19.5q-28 0 -48.5 20t-20.5 47t20.5 47t48.5 20q29 0 49 -19t20 -48zM194 0h-204v124h128q-43 59 -43 125q0 95 58 152
q54 53 140 53q99 0 153 -67q45 -55 45 -138q0 -68 -43 -125h128v-124h-203q-45 0 -80 8q-35 -8 -79 -8zM273 122q36 20 58 55.5t22 75.5q0 44 -24 69q-22 22 -56 22q-37 0 -58 -24t-21 -67q0 -40 21.5 -76t57.5 -55z" />
    <glyph glyph-name="uniFED9" unicode="&#x643;" horiz-adv-x="886" arabic-form="isolated" 
d="M589 0h-282q-118 0 -183 79q-50 61 -50 146q0 67 36 121q35 51 93 75l52 -80q-31 -16 -48.5 -44t-17.5 -61q0 -49 35 -81q34 -31 87 -31h259q64 0 89 34q21 28 21 88v420h128v-448q0 -118 -61 -171q-53 -47 -158 -47zM464 349h-113l1 57h106q32 0 32 30q0 17 -13 27.5
t-35 10.5q-30 0 -55 -18v53l91 100l41 -34l-48 -54q37 -5 57 -28t20 -60q0 -39 -22.5 -61.5t-61.5 -22.5z" />
    <glyph glyph-name="uniFEDA" unicode="&#x643;" horiz-adv-x="934" arabic-form="final" 
d="M589 0h-276q-126 0 -190 79q-49 60 -49 146q0 67 36 121q35 51 93 75l52 -80q-31 -16 -48.5 -44t-17.5 -61q0 -49 35 -81q34 -31 87 -31h259q64 0 89 34q21 28 21 88v420h128v-420q0 -68 27 -96q25 -26 79 -26h30v-124h-39q-107 0 -159 62q-51 -62 -157 -62zM464 349
h-113l1 57h106q32 0 32 30q0 17 -13 27.5t-35 10.5q-30 0 -55 -18v53l91 100l41 -34l-48 -54q37 -5 57 -28t20 -60q0 -39 -22.5 -61.5t-61.5 -22.5z" />
    <glyph glyph-name="uniFEDB" unicode="&#x643;" horiz-adv-x="554" arabic-form="initial" 
d="M290 0h-300v124h294q97 0 97 84v2q0 76 -91 76h-251v124l236 243l69 -69l-165 -173h108q124 0 178 -59q45 -50 45 -146v-1q0 -205 -220 -205z" />
    <glyph glyph-name="uniFEDC" unicode="&#x643;" horiz-adv-x="634" arabic-form="medial" 
d="M290 0h-300v124h294q97 0 97 82v3q0 77 -91 77h-251v124l236 243l69 -69l-165 -173h112q116 0 172 -56q47 -47 47 -129v-6q0 -96 104 -96h30v-124h-39q-103 0 -156 59q-62 -59 -159 -59z" />
    <glyph glyph-name="uniFEDD" unicode="&#x644;" horiz-adv-x="682" arabic-form="isolated" 
d="M604 666v-580q0 -138 -81 -211q-73 -66 -198 -66q-127 0 -199 79q-62 68 -62 172q0 91 52 169l99 -34q-32 -61 -32 -120q0 -66 41 -105q37 -37 100 -37q68 0 110 40q42 41 42 114v579h128z" />
    <glyph glyph-name="uniFEDE" unicode="&#x644;" horiz-adv-x="723" arabic-form="final" 
d="M588 15q-19 -104 -96 -158q-67 -48 -167 -48q-127 0 -199 79q-62 68 -62 172q0 91 52 169l99 -34q-32 -61 -32 -120q0 -66 41 -105q37 -37 100 -37q68 0 110 40q42 41 42 114v579h128v-420q0 -68 27 -96q25 -26 79 -26h23v-124h-32q-62 0 -111 29q0 -6 -2 -14z" />
    <glyph glyph-name="uniFEDF" unicode="&#x644;" horiz-adv-x="326" arabic-form="initial" 
d="M23 0h-33v124h24q61 0 85 34q21 28 21 88v420h128v-448q0 -218 -225 -218z" />
    <glyph glyph-name="uniFEE0" unicode="&#x644;" horiz-adv-x="367" arabic-form="medial" 
d="M23 0h-33v124h24q61 0 85 34q21 28 21 88v420h128v-420q0 -68 27 -96q25 -26 79 -26h23v-124h-33q-108 0 -160 64q-54 -64 -161 -64z" />
    <glyph glyph-name="uniFEE1" unicode="&#x645;" horiz-adv-x="580" arabic-form="isolated" 
d="M148 -315h-128v232q0 149 115 189q15 7 35 10q-32 47 -32 120q0 104 59 164q52 52 133 52q89 0 140 -56q43 -48 43 -122v-89q0 -84 -50 -135q-47 -49 -128 -50h-80q-67 0 -90 -33q-17 -25 -17 -85v-197zM254 233q0 -58 25 -86q20 -23 52 -23q61 0 61 62v83
q0 38 -14.5 54.5t-47.5 16.5q-36 0 -56 -28.5t-20 -78.5z" />
    <glyph glyph-name="uniFEE2" unicode="&#x645;" horiz-adv-x="647" arabic-form="final" 
d="M148 -315h-128v232q0 147 114 189q18 7 36 10q-32 47 -32 120q0 104 59 164q52 52 133 52q90 0 140 -56q43 -49 43 -125v-33q0 -62 28 -90q26 -24 77 -24h39v-124h-48q-98 0 -151 54q-48 -51 -123 -54h-80q-67 0 -90 -33q-17 -25 -17 -85v-197zM254 233q0 -58 25 -86
q20 -23 52 -23q61 0 61 62v83q0 38 -14.5 54.5t-47.5 16.5q-36 0 -56 -28.5t-20 -78.5z" />
    <glyph glyph-name="uniFEE3" unicode="&#x645;" horiz-adv-x="545" arabic-form="initial" 
d="M-10 124h33q84 0 84 93v51q0 90 56 140q49 44 126 44q98 0 153 -71q46 -60 46 -151q0 -116 -62 -180q-52 -54 -132 -54q-82 0 -132 41q-41 -37 -104 -37h-68v124zM229 186q0 -66 61 -66q37 0 57 29.5t20 83.5q0 53 -22 81q-20 26 -54 26q-33 0 -47.5 -16.5t-14.5 -54.5
v-83z" />
    <glyph glyph-name="uniFEE4" unicode="&#x645;" horiz-adv-x="616" arabic-form="medial" 
d="M446 44q-50 -56 -138 -56t-138 56q-44 -44 -112 -44h-68v124h33q44 0 64 23.5t20 75.5q0 54 17 100q24 64 75 97q47 31 109 31q69 0 119 -39q41 -32 63 -85q19 -45 19 -104q0 -52 20 -75.5t64 -23.5h33v-124h-68q-70 0 -112 44zM229 228q0 -65 28 -96q20 -23 51 -23
q36 0 57 31q22 31 22 88t-25 86q-21 25 -54 25q-37 0 -58 -29.5t-21 -81.5z" />
    <glyph glyph-name="uniFEE5" unicode="&#x646;" horiz-adv-x="682" arabic-form="isolated" 
d="M382 466q0 -28 -20 -47.5t-49 -19.5t-49 19.5t-20 47.5q0 27 20.5 47t48.5 20q29 0 49 -19.5t20 -47.5zM605 433v-347q0 -138 -82 -211q-73 -66 -198 -66q-127 0 -199 79q-62 68 -62 172q0 91 52 169l99 -34q-32 -61 -32 -120q0 -66 41 -105q38 -37 101 -37q68 0 109 40
q42 41 42 114v346h129z" />
    <glyph glyph-name="uniFEE6" unicode="&#x646;" horiz-adv-x="730" arabic-form="final" 
d="M382 466q0 -28 -20 -47.5t-49 -19.5t-49 19.5t-20 47.5q0 27 20.5 47t48.5 20q29 0 49 -19.5t20 -47.5zM589 21q-18 -107 -94 -163q-68 -49 -171 -49q-127 0 -199 79q-62 68 -62 172q0 92 53 169l99 -34q-33 -60 -33 -120q0 -66 41 -105q38 -37 101 -37q68 0 110 40
q42 41 42 114v346h128v-187q0 -68 27 -96q25 -26 79 -26h30v-124h-39q-62 0 -111 29q0 -5 -1 -8z" />
    <glyph glyph-name="uniFEE7" unicode="&#x646;" horiz-adv-x="332" arabic-form="initial" 
d="M257 580q0 -28 -20.5 -47.5t-49.5 -19.5q-28 0 -48.5 20t-20.5 47t20.5 47t48.5 20q29 0 49.5 -19.5t20.5 -47.5zM29 0h-39v124h30q61 0 85 34q21 28 21 88v187h128v-215q0 -218 -225 -218z" />
    <glyph glyph-name="uniFEE8" unicode="&#x646;" horiz-adv-x="379" arabic-form="medial" 
d="M262 580q0 -28 -20.5 -47.5t-49.5 -19.5q-28 0 -48.5 20t-20.5 47t20.5 47t48.5 20q29 0 49.5 -19.5t20.5 -47.5zM29 0h-39v124h30q61 0 85 34q21 28 21 88v187h128v-187q0 -68 27 -96q25 -26 79 -26h29v-124h-39q-108 0 -160 64q-54 -64 -161 -64z" />
    <glyph glyph-name="uniFEE9" unicode="&#x647;" horiz-adv-x="521" arabic-form="isolated" 
d="M268 -13h-16q-91 0 -140 69q-44 62 -44 167q0 111 60 174q52 53 132 53q93 0 146 -69q47 -61 47 -158q0 -120 -57 -183q-49 -53 -128 -53zM182 221q0 -56 23 -85q19 -25 50 -25h11q35 0 53.5 28.5t18.5 81.5q0 54 -23 83q-20 25 -55 25q-37 0 -57.5 -28.5t-20.5 -79.5z
" />
    <glyph glyph-name="uniFEEA" unicode="&#x647;" horiz-adv-x="552" arabic-form="final" 
d="M562 0h-39q-119 0 -173 73q-49 -48 -121 -48q-81 0 -133 62q-50 58 -50 148q0 101 65 161q57 54 146 54h54v45h116v-249q0 -68 27 -96q25 -26 78 -26h30v-124zM311 342h-51q-48 0 -73 -31q-20 -26 -20 -68q0 -48 23 -77q22 -26 57 -26t67 28q-3 24 -3 50v124z" />
    <glyph glyph-name="uniFEEB" unicode="&#x647;" horiz-adv-x="637" arabic-form="initial" 
d="M127 0h-137v124h67h38q-25 41 -25 86q0 63 42 105q39 39 102 39q71 0 113 -52q34 -41 34 -96q0 -45 -25 -82q6 0 18 1q11 1 16 1q64 8 64 72q0 33 -15 67.5t-40 61.5q-74 76 -224 86l25 113q186 -11 297 -135q47 -52 69 -114q16 -45 16 -87q0 -190 -194 -190h-59
q-50 0 -93 19q-40 -19 -89 -19zM214 127q55 24 55 84q0 29 -14.5 45.5t-40.5 16.5t-40.5 -16.5t-14.5 -45.5q0 -59 55 -84z" />
    <glyph glyph-name="uniFEEC" unicode="&#x647;" horiz-adv-x="685" arabic-form="medial" 
d="M127 0h-137v124h70h35q-25 41 -25 86q0 63 42 105q39 39 102 39q71 0 113 -52q34 -41 34 -96q0 -45 -25 -82q10 0 30 2h2q66 6 66 72q0 33 -15 67.5t-40 61.5q-74 76 -224 86l25 113q184 -10 297 -131q46 -51 68 -110q16 -42 16 -81q0 -38 27.5 -59t76.5 -21h30v-124h-39
q-94 0 -147 45q-50 -45 -141 -45h-59q-50 0 -93 19q-40 -19 -89 -19zM214 127q55 24 55 84q0 29 -14.5 45.5t-40.5 16.5t-40.5 -16.5t-14.5 -45.5q0 -59 55 -84z" />
    <glyph glyph-name="uniFEED" unicode="&#x648;" horiz-adv-x="501" arabic-form="isolated" 
d="M311 30q-23 -10 -54 -10q-111 0 -164 68q-41 53 -41 142q0 101 60 161q54 55 139 55q89 0 139 -56q43 -48 43 -122v-257q0 -104 -66 -160q-53 -45 -133 -45q-78 0 -151 43l31 94q49 -25 94 -25q95 0 102 100q0 2 1 6v6zM311 137v132q0 71 -64 71q-38 0 -59 -27t-21 -75
q0 -54 28 -86q25 -27 62 -27q27 0 54 12z" />
    <glyph glyph-name="uniFEEE" unicode="&#x648;" horiz-adv-x="515" arabic-form="final" 
d="M433 0q-3 -98 -69 -151q-53 -43 -130 -43q-78 0 -151 43l31 94q49 -25 94 -25q93 0 102 93q-29 0 -43 1q-110 3 -167 70q-48 56 -48 148q0 101 60 161q54 55 139 55q89 0 139 -56q43 -48 43 -122v-144h92v-124h-92zM311 124v145q0 71 -64 71q-38 0 -59 -27t-21 -75
q0 -55 29 -86q25 -28 65 -28h50z" />
    <glyph glyph-name="uniFEEF" unicode="&#x649;" horiz-adv-x="725" arabic-form="isolated" 
d="M617 333h-118q-75 0 -75 -57q0 -45 44 -70q19 -11 70 -29q67 -24 95 -48q44 -38 44 -105q0 -101 -86 -161q-83 -58 -226 -58q-160 0 -241 81q-66 66 -66 172q0 92 53 171l100 -34q-33 -63 -33 -119q0 -72 52 -112q49 -38 135 -38q80 0 135 31q49 27 49 63q0 21 -17 34.5
t-70 34.5q-85 32 -117 67q-44 46 -44 120q0 88 61 135q48 39 120 39h135v-117z" />
    <glyph glyph-name="uniFEF0" unicode="&#x649;" horiz-adv-x="716" arabic-form="final" 
d="M691 0q-8 -97 -99 -151q-85 -50 -227 -50q-160 0 -241 84q-66 68 -66 175q0 92 53 171l101 -35q-34 -61 -34 -119q0 -77 57 -122q54 -42 145 -42q78 0 130 25q49 23 58 64h-101v124h259v-124h-35z" />
    <glyph glyph-name="uniFEF1" unicode="&#x64a;" horiz-adv-x="725" arabic-form="isolated" 
d="M617 333h-118q-75 0 -75 -57q0 -45 44 -70q19 -11 70 -29q67 -24 95 -48q44 -38 44 -105q0 -101 -86 -161q-83 -58 -226 -58q-160 0 -241 81q-66 66 -66 172q0 92 53 171l100 -34q-33 -63 -33 -119q0 -72 52 -112q49 -38 135 -38q80 0 135 31q49 27 49 63q0 21 -17 34.5
t-70 34.5q-85 32 -117 67q-44 46 -44 120q0 88 61 135q48 39 120 39h135v-117zM359 -331q0 -28 -20.5 -47.5t-49.5 -19.5t-49 19.5t-20 47.5q0 27 20.5 47t48.5 20q29 0 49.5 -19.5t20.5 -47.5zM512 -331q0 -29 -20 -48t-50 -19q-28 0 -48 19.5t-20 47.5t20 47.5t48 19.5
q30 0 50 -19.5t20 -47.5z" />
    <glyph glyph-name="uniFEF2" unicode="&#x64a;" horiz-adv-x="716" arabic-form="final" 
d="M691 0q-8 -97 -99 -151q-85 -50 -227 -50q-160 0 -241 84q-66 68 -66 175q0 92 53 171l101 -35q-34 -61 -34 -119q0 -77 57 -122q54 -42 145 -42q78 0 130 25q49 23 58 64h-101v124h259v-124h-35zM359 -325q0 -28 -20.5 -47.5t-49.5 -19.5t-49 19.5t-20 47.5
q0 27 20.5 47t48.5 20q29 0 49.5 -19.5t20.5 -47.5zM512 -325q0 -29 -20 -48t-50 -19q-28 0 -48 19.5t-20 47.5t20 47.5t48 19.5q30 0 50 -19.5t20 -47.5z" />
    <glyph glyph-name="uniFEF3" unicode="&#x64a;" horiz-adv-x="332" arabic-form="initial" 
d="M-10 0v124h30q61 0 85 34q21 28 21 88v187h128v-215q0 -218 -225 -218h-39zM44 -208q-29 0 -49 20t-20 48t20 47.5t49 19.5q28 0 48.5 -20t20.5 -47q0 -28 -20.5 -48t-48.5 -20zM197 -208q-28 0 -48.5 20t-20.5 48q0 27 20.5 47t48.5 20q29 0 49 -19.5t20 -47.5
q0 -29 -20 -48.5t-49 -19.5z" />
    <glyph glyph-name="uniFEF4" unicode="&#x64a;" horiz-adv-x="379" arabic-form="medial" 
d="M-10 0v124h30q61 0 85 34q21 28 21 88v187h128v-187q0 -68 27 -96q25 -26 79 -26h29v-124h-39q-108 0 -160 64q-54 -64 -161 -64h-39zM84 -208q-29 0 -49 20t-20 48t20 47.5t49 19.5q28 0 48.5 -20t20.5 -47q0 -28 -20.5 -48t-48.5 -20zM237 -208q-28 0 -48.5 20
t-20.5 48q0 27 20.5 47t48.5 20q30 0 50 -19.5t20 -47.5q0 -29 -20 -48.5t-50 -19.5z" />
    <glyph glyph-name=".notdef" horiz-adv-x="364" 
d="M33 0v666h265v-666h-265zM66 33h199v600h-199v-600z" />
    <glyph glyph-name="glyph1" 
 />
    <glyph glyph-name="glyph2" horiz-adv-x="224" 
 />
    <glyph glyph-name="space" unicode=" " horiz-adv-x="224" 
 />
    <glyph glyph-name="exclam" unicode="!" horiz-adv-x="310" 
d="M95 178l-11 489h142l-11 -489h-120zM77 62q0 34 26 57q22 19 52 19q35 0 58 -25q20 -22 20 -51q0 -34 -26 -56q-22 -20 -52 -20q-35 0 -58 25q-20 22 -20 51z" />
    <glyph glyph-name="quotedbl" unicode="&#x22;" horiz-adv-x="353" 
d="M147 383h-103l-14 310h131zM308 383h-103l-14 310h131z" />
    <glyph glyph-name="numbersign" unicode="#" horiz-adv-x="593" 
d="M108 180h-71l20 100h71l22 104h-71l20 99h71l41 198l104 -24l-35 -174h95l41 198l105 -23l-36 -175h71l-21 -99h-71l-21 -104h71l-21 -100h-71l-40 -197l-105 24l36 173h-96l-40 -197l-105 24zM333 280l22 104h-96l-21 -104h95z" />
    <glyph glyph-name="dollar" unicode="$" horiz-adv-x="587" 
d="M184 223q15 -57 27 -75q27 -39 76 -39q43 0 71 30q24 26 24 61q0 26 -20 44t-70 37l-58 22q-151 58 -151 182q0 72 46 125q41 46 105 63v94h131v-93q47 -14 79 -41t66 -83l-109 -68q-30 46 -50.5 61t-52.5 15q-38 0 -62 -24q-20 -20 -20 -50q0 -41 72 -68l62 -23
q166 -63 166 -192q0 -74 -47 -132q-40 -51 -104 -72v-100h-131v93q-67 13 -115 62q-43 43 -65 137z" />
    <glyph glyph-name="percent" unicode="%" horiz-adv-x="896" 
d="M602 682l72 -41l-380 -657l-72 41zM37 469q0 207 164 207t164 -207t-164 -207t-164 207zM130 474q0 -71 20 -102q17 -27 51 -27q72 0 72 123q0 125 -72 125q-71 0 -71 -119zM531 197q0 207 164 207t164 -207q0 -206 -165 -206q-86 0 -127 60q-36 52 -36 146zM623 203
q0 -130 72 -130q71 0 71 123q0 125 -71 125q-72 0 -72 -118z" />
    <glyph glyph-name="ampersand" unicode="&#x26;" horiz-adv-x="675" 
d="M351 367l107 -125q12 27 32 83l122 -33q-2 -6 -7 -19l-4 -13q-23 -72 -53 -123l118 -137h-164l-36 43q-43 -31 -83 -45t-90 -14q-107 0 -176 66q-60 57 -60 137q0 55 28.5 98t99.5 94q-36 47 -49.5 77t-13.5 63q0 75 54 122q47 41 114 41q74 0 123 -51q42 -44 42 -105
q0 -44 -24.5 -81.5t-79.5 -77.5zM280 450q36 28 48 44t12 36q0 21 -14.5 34.5t-36.5 13.5t-37 -15t-15 -37q0 -15 9 -31t34 -45zM255 295q-37 -32 -53 -55.5t-16 -47.5q0 -40 34 -66q30 -22 72 -22q50 0 93 36z" />
    <glyph glyph-name="quotesingle" unicode="'" horiz-adv-x="192" 
d="M147 383h-103l-14 310h131z" />
    <glyph glyph-name="parenleft" unicode="(" horiz-adv-x="329" 
d="M164 750l115 -54q-43 -111 -61 -206t-18 -214t18 -214t61 -206l-115 -54l-8 17q-16 35 -19 42q-30 73 -48.5 189t-18.5 226t18.5 225.5t48.5 188.5q3 9 27 60z" />
    <glyph glyph-name="parenright" unicode=")" horiz-adv-x="329" 
d="M165 750q23 -50 27 -60q29 -73 48 -188.5t19 -225.5t-19 -226t-48 -189q-4 -10 -27 -59l-115 54q43 111 60.5 206t17.5 214t-17.5 214t-60.5 206z" />
    <glyph glyph-name="asterisk" unicode="*" horiz-adv-x="505" 
d="M197 644l-5 112h121l-4 -112l105 39l38 -115l-109 -31l70 -88l-98 -71l-62 94l-62 -94l-99 71l70 88l-108 31l38 115z" />
    <glyph glyph-name="plus" unicode="+" horiz-adv-x="556" 
d="M219 370v200h118v-200h199v-115h-199v-200h-118v200h-199v115h199z" />
    <glyph glyph-name="comma" unicode="," horiz-adv-x="271" 
d="M112 132l117 -43l-123 -275l-95 38z" />
    <glyph glyph-name="hyphen" unicode="-" horiz-adv-x="284" 
d="M22 371h240v-118h-240v118z" />
    <glyph glyph-name="period" unicode="." horiz-adv-x="258" 
d="M51 62q0 34 26 57q22 19 52 19q35 0 58 -25q20 -22 20 -51q0 -34 -26 -56q-22 -20 -52 -20q-35 0 -58 25q-20 22 -20 51z" />
    <glyph glyph-name="slash" unicode="/" horiz-adv-x="563" 
d="M42 44l376 640l103 -61l-375 -640z" />
    <glyph glyph-name="zero" unicode="0" horiz-adv-x="582" 
d="M27 333q0 349 264 349q263 0 263 -349t-263 -349q-264 0 -264 349zM162 342q0 -128 36 -185q31 -50 93 -50q129 0 129 229q0 67 -15 121t-40 76q-29 26 -74 26q-52 0 -83 -34q-20 -23 -33 -74t-13 -109z" />
    <glyph glyph-name="one" unicode="1" horiz-adv-x="334" 
d="M268 0h-133v506l-77 -44l-64 108l170 97h104v-667z" />
    <glyph glyph-name="two" unicode="2" horiz-adv-x="499" 
d="M40 0v104l236 260q64 70 64 124q0 33 -22 52t-60 19q-44 0 -64.5 -20.5t-37.5 -81.5l-124 33q17 72 50 115q27 36 74.5 56.5t102.5 20.5q102 0 161 -61q51 -54 51 -136q0 -96 -71 -175l-170 -187h255v-123h-445z" />
    <glyph glyph-name="three" unicode="3" horiz-adv-x="493" 
d="M175 289v118h56q89 0 89 76q0 35 -23 56t-61 21q-32 0 -53 -14.5t-51 -57.5l-110 60q46 76 100 107q47 27 113 27q100 0 162 -63q54 -54 54 -133q0 -76 -57 -131q38 -33 55 -69.5t17 -84.5q0 -100 -75 -163q-65 -54 -158 -54q-54 0 -101 20.5t-76 56.5q-34 42 -53 121
l128 34q16 -63 38 -85.5t65 -22.5q47 0 74 29q24 26 24 65q0 87 -101 87h-56z" />
    <glyph glyph-name="four" unicode="4" horiz-adv-x="522" 
d="M300 689l110 -67l-232 -366h121v131h132v-131h69v-121h-69v-135h-132v135h-282v108z" />
    <glyph glyph-name="five" unicode="5" horiz-adv-x="541" 
d="M235 456q16 3 31 3q109 0 180 -77q61 -65 61 -157q0 -109 -81 -180q-70 -61 -168 -61q-74 0 -128 33.5t-103 110.5l107 73q17 -28 26 -42q37 -52 99 -52q53 0 87 37q28 32 28 78q0 53 -36 87q-32 29 -77 29q-48 0 -86 -43l-103 22l72 350h332v-123h-223z" />
    <glyph glyph-name="six" unicode="6" horiz-adv-x="549" 
d="M310 689l104 -76l-121 -167q45 -5 75 -15.5t59 -32.5q87 -66 87 -175q0 -107 -79 -177q-69 -62 -162 -62q-108 0 -180 78q-62 68 -62 160q0 82 53 156zM382 220q0 49 -35 80q-30 26 -74 26q-51 0 -82 -34q-28 -30 -28 -74q0 -51 35 -83q31 -28 74 -28q50 0 82 37
q28 31 28 76z" />
    <glyph glyph-name="seven" unicode="7" horiz-adv-x="457" 
d="M23 38l276 506h-295v123h456v-94l-322 -595z" />
    <glyph glyph-name="eight" unicode="8" horiz-adv-x="520" 
d="M108 356q-33 32 -47 62t-14 68q0 89 70 146q60 50 143 50q96 0 159 -64q54 -55 54 -132q0 -38 -14 -68.5t-47 -61.5q44 -37 62.5 -73.5t18.5 -84.5q0 -98 -75 -160q-65 -54 -158 -54q-107 0 -174 69q-59 60 -59 145q0 48 18.5 84.5t62.5 73.5zM260 292q-49 0 -77 -29
q-24 -25 -24 -64q0 -45 31 -72q28 -23 70 -23q48 0 77 30q25 26 25 65q0 45 -32 71q-28 22 -70 22zM173 484q0 -38 27 -61q24 -19 60 -19q41 0 66 25q21 22 21 55q0 39 -27 62q-24 20 -60 20q-41 0 -66 -26q-21 -22 -21 -56z" />
    <glyph glyph-name="nine" unicode="9" horiz-adv-x="551" 
d="M238 -22l-103 76l120 167q-45 4 -75 14.5t-59 33.5q-87 65 -87 175q0 106 79 177q69 61 162 61q108 0 180 -78q62 -67 62 -159q0 -82 -53 -156zM166 447q0 -50 35 -80q30 -27 74 -27q51 0 83 35q27 30 27 73q0 51 -35 84q-31 28 -74 28q-50 0 -82 -37q-28 -32 -28 -76z
" />
    <glyph glyph-name="colon" unicode=":" horiz-adv-x="258" 
d="M51 62q0 34 26 57q22 19 52 19q35 0 58 -25q20 -22 20 -51q0 -34 -26 -56q-22 -20 -52 -20q-35 0 -58 25q-20 22 -20 51zM51 354q0 35 26 57q22 20 52 20q35 0 58 -25q20 -22 20 -52q0 -33 -26 -56q-22 -20 -52 -20q-35 0 -58 25q-20 22 -20 51z" />
    <glyph glyph-name="semicolon" unicode=";" horiz-adv-x="265" 
d="M112 132l117 -43l-123 -275l-95 38zM73 355q0 34 25 56q22 20 53 20q34 0 57 -25q20 -22 20 -52q0 -33 -25 -56q-22 -20 -52 -20q-35 0 -58 25q-20 22 -20 52z" />
    <glyph glyph-name="less" unicode="&#x3c;" horiz-adv-x="584" 
d="M535 615v-134l-316 -144l316 -145v-133l-487 229v98z" />
    <glyph glyph-name="equal" unicode="=" horiz-adv-x="556" 
d="M507 455v-116h-458v116h458zM507 286v-116h-458v116h458z" />
    <glyph glyph-name="greater" unicode="&#x3e;" horiz-adv-x="584" 
d="M48 59v134l315 144l-315 144v134l487 -229v-99z" />
    <glyph glyph-name="question" unicode="?" horiz-adv-x="441" 
d="M152 178v62q0 50 12.5 76.5t51.5 59.5l41 34q48 40 48 83q0 30 -20 47.5t-54 17.5q-36 0 -58.5 -16t-54.5 -64l-98 79q40 69 95 99q48 26 115 26q99 0 157 -59q50 -52 50 -130q0 -49 -19.5 -86.5t-66.5 -81.5l-46 -42q-15 -15 -18.5 -22t-3.5 -28v-55h-131zM139 62
q0 34 26 57q22 19 52 19q35 0 58 -25q20 -21 20 -51q0 -34 -25 -56q-23 -20 -53 -20q-34 0 -58 25q-20 22 -20 51z" />
    <glyph glyph-name="at" unicode="@" horiz-adv-x="895" 
d="M641 533l-42 -324h3q66 0 101 49q30 44 30 116q0 76 -33 136q-29 51 -77 79q-58 32 -141 32q-155 0 -243 -91q-76 -80 -76 -206q0 -121 76 -197q81 -81 243 -81q56 0 100 7.5t125 30.5l33 -90q-132 -43 -260 -43q-114 0 -202 36q-78 31 -125 85q-89 103 -89 251
q0 92 36 172q32 70 86 120q56 51 140 78q72 23 153 23q170 0 268 -105q85 -92 85 -234q0 -86 -36 -149q-30 -55 -84 -84q-54 -30 -141 -30h-131q-91 0 -144 59q-45 52 -45 131q0 50 18.5 95t53.5 76q63 58 180 58h138zM498 209l30 230h-34q-72 0 -109 -40q-33 -35 -33 -93
q0 -50 28 -75q25 -22 68 -22h50z" />
    <glyph glyph-name="A" unicode="A" horiz-adv-x="643" 
d="M453 155h-263l-56 -155h-140l249 667h157l249 -667h-141zM409 279l-88 246l-88 -246h176z" />
    <glyph glyph-name="B" unicode="B" horiz-adv-x="531" 
d="M67 0v667h160q99 0 152 -31q44 -26 70 -73q22 -41 22 -85q0 -68 -55 -121q86 -59 86 -159q0 -56 -31 -102q-26 -41 -72 -66q-53 -30 -141 -30h-191zM197 396h41q50 0 70 11q37 20 37 67q0 39 -25.5 57t-81.5 18h-41v-153zM197 120h56q54 0 79 14q40 22 40 69q0 46 -36 67
q-27 16 -92 16h-47v-166z" />
    <glyph glyph-name="C" unicode="C" horiz-adv-x="674" 
d="M556 466q-47 51 -85.5 71.5t-88.5 20.5q-99 0 -163 -74q-55 -63 -55 -151q0 -100 71 -167q62 -57 147 -57q50 0 89 20.5t88 72.5l95 -89q-70 -73 -138 -103q-60 -26 -132 -26q-97 0 -180 48q-80 46 -127 125q-48 81 -48 176t48 177q47 79 127 125q83 47 179 47
q77 0 140 -30t127 -97z" />
    <glyph glyph-name="D" unicode="D" horiz-adv-x="620" 
d="M67 667h159q178 0 278 -103q87 -89 87 -230q0 -163 -112 -255q-98 -79 -253 -79h-159v667zM200 543v-419h29q114 0 175 63q53 56 53 147q0 104 -69 160q-60 49 -159 49h-29z" />
    <glyph glyph-name="E" unicode="E" horiz-adv-x="489" 
d="M449 667v-123h-249v-145h221v-123h-221v-152h258v-124h-391v667h382z" />
    <glyph glyph-name="F" unicode="F" horiz-adv-x="452" 
d="M427 667v-123h-227v-145h207v-123h-207v-276h-133v667h360z" />
    <glyph glyph-name="G" unicode="G" horiz-adv-x="728" 
d="M376 373h321v-63q0 -157 -97 -247q-84 -79 -214 -79q-98 0 -181 48q-81 46 -128 124q-48 82 -48 177q0 96 48 177q47 79 128 125q82 47 180 47q76 0 137 -28t131 -95l-94 -89q-50 50 -87.5 69t-87.5 19q-101 0 -165 -73q-55 -63 -55 -152q0 -102 72 -167q62 -57 150 -57
q82 0 132 56q29 32 40 85h-182v123z" />
    <glyph glyph-name="H" unicode="H" horiz-adv-x="652" 
d="M200 667v-268h252v268h133v-667h-133v276h-252v-276h-133v667h133z" />
    <glyph glyph-name="I" unicode="I" horiz-adv-x="267" 
d="M200 667v-667h-133v667h133z" />
    <glyph glyph-name="J" unicode="J" horiz-adv-x="427" 
d="M359 667v-459q0 -49 -6 -79.5t-23 -59.5q-22 -40 -63.5 -62.5t-92.5 -22.5q-50 0 -93 21t-91 70l81 96q56 -62 99 -62q56 0 56 99v459h133z" />
    <glyph glyph-name="K" unicode="K" horiz-adv-x="604" 
d="M347 384l257 -384h-157l-191 287l-56 -61v-226h-133v667h133v-260l241 260h169z" />
    <glyph glyph-name="L" unicode="L" horiz-adv-x="440" 
d="M67 667h133v-544h240v-123h-373v667z" />
    <glyph glyph-name="M" unicode="M" horiz-adv-x="800" 
d="M67 0v667h124l209 -370l210 370h123v-667h-133v403l-151 -267h-98l-151 267v-403h-133z" />
    <glyph glyph-name="N" unicode="N" horiz-adv-x="708" 
d="M67 0v667h113l327 -434v434h134v-667h-113l-328 434v-434h-133z" />
    <glyph glyph-name="O" unicode="O" horiz-adv-x="762" 
d="M29 332q0 95 48 177q47 79 127 125q82 48 177 48t177 -48q80 -46 127 -125q48 -82 48 -176t-48 -175q-47 -79 -127 -126q-82 -48 -177 -48t-177 48q-79 47 -127 126q-48 81 -48 174zM164 333q0 -99 72 -166q62 -58 145 -58q96 0 161 74q57 64 57 150q0 100 -72 167
q-62 58 -146 58q-97 0 -162 -74q-55 -64 -55 -151z" />
    <glyph glyph-name="P" unicode="P" horiz-adv-x="478" 
d="M200 242v-242h-133v667h159q93 0 144 -30q50 -28 77 -81q24 -47 24 -101q0 -63 -31 -114q-27 -45 -70 -70q-52 -29 -144 -29h-26zM200 363h34q59 0 84 25q23 22 23 66q0 47 -26 69t-81 22h-34v-182z" />
    <glyph glyph-name="Q" unicode="Q" horiz-adv-x="760" 
d="M534 20q-76 -36 -154 -36q-94 0 -176 48q-80 47 -127 126q-48 81 -48 175t48 176q47 79 127 125q82 48 177 48t177 -48q80 -46 127 -125q48 -82 48 -176q0 -134 -93 -235l60 -58l-93 -91zM395 156l92 91l60 -58q52 61 52 143q0 101 -72 168q-61 58 -146 58
q-97 0 -162 -74q-55 -64 -55 -151q0 -97 71 -165q61 -59 141 -59q24 0 58 8z" />
    <glyph glyph-name="R" unicode="R" horiz-adv-x="561" 
d="M399 0l-136 243h-4q-14 -1 -33 -1h-26v-242h-133v667h159q101 0 157 -32q51 -29 79 -83q24 -46 24 -100t-24.5 -99t-69.5 -74l157 -279h-150zM200 363h34q68 0 97 25q25 21 25 65q0 55 -40 77q-26 15 -82 15h-34v-182z" />
    <glyph glyph-name="S" unicode="S" horiz-adv-x="525" 
d="M483 550l-109 -68q-30 46 -50.5 61t-52.5 15q-38 0 -62 -23q-20 -21 -20 -51q0 -41 72 -68l62 -23q166 -63 166 -191q0 -99 -75 -162q-65 -56 -156 -56q-54 0 -101.5 21.5t-76.5 59.5q-35 45 -53 124l130 34q14 -56 27 -75q27 -39 76 -39q43 0 71 30q24 26 24 61
q0 26 -20 44t-70 37l-58 22q-151 58 -151 182q0 91 70 148q61 49 148 49q68 0 117 -30.5t92 -101.5z" />
    <glyph glyph-name="T" unicode="T" horiz-adv-x="441" 
d="M447 667v-124h-160v-543h-133v543h-160v124h453z" />
    <glyph glyph-name="U" unicode="U" horiz-adv-x="642" 
d="M200 667v-409q0 -71 14 -96q14 -23 44 -38t63 -15t63 15t44 38q14 25 14 96v409h133v-427q0 -84 -30 -135q-34 -59 -101 -92q-57 -29 -123 -29q-76 0 -139 37q-55 33 -86 84q-29 51 -29 135v427h133z" />
    <glyph glyph-name="V" unicode="V" horiz-adv-x="584" 
d="M134 667l158 -479l158 479h140l-222 -667h-152l-222 667h140z" />
    <glyph glyph-name="W" unicode="W" horiz-adv-x="877" 
d="M133 667l123 -427l127 427h111l128 -427l123 427h138l-199 -667h-119l-126 417l-126 -417h-119l-200 667h139z" />
    <glyph glyph-name="X" unicode="X" horiz-adv-x="581" 
d="M367 348l221 -348h-153l-144 230l-146 -230h-151l222 347l-203 320h151l128 -203l128 203h149z" />
    <glyph glyph-name="Y" unicode="Y" horiz-adv-x="552" 
d="M209 275l-222 392h149l140 -255l141 255h148l-222 -392v-275h-134v275z" />
    <glyph glyph-name="Z" unicode="Z" horiz-adv-x="513" 
d="M494 566l-310 -442h317v-124h-491v101l315 443h-287v123h456v-101z" />
    <glyph glyph-name="bracketleft" unicode="[" horiz-adv-x="319" 
d="M286 613h-86v-674h86v-121h-216v916h216v-121z" />
    <glyph glyph-name="backslash" unicode="\" horiz-adv-x="549" 
d="M131 683l375 -647l-89 -53l-375 648z" />
    <glyph glyph-name="bracketright" unicode="]" horiz-adv-x="319" 
d="M32 613v121h216v-916h-216v121h86v674h-86z" />
    <glyph glyph-name="asciicircum" unicode="^" horiz-adv-x="579" 
d="M163 334h-151l211 365h134l211 -365h-151l-128 216z" />
    <glyph glyph-name="underscore" unicode="_" horiz-adv-x="528" 
d="M-13 -41h553v-117h-553v117z" />
    <glyph glyph-name="grave" unicode="`" horiz-adv-x="476" 
d="M72 645l119 62l130 -172l-86 -48z" />
    <glyph glyph-name="a" unicode="a" horiz-adv-x="543" 
d="M494 0h-129v25q-30 -22 -56 -31.5t-59 -9.5q-101 0 -169 79q-59 67 -59 159q0 106 75 176q65 61 153 61q33 0 59 -9t56 -32v25h129v-443zM260 343q-52 0 -83 -38q-26 -33 -26 -83q0 -58 34 -92q30 -30 75 -30q51 0 81 38q26 33 26 84q0 58 -33 92q-29 29 -74 29z" />
    <glyph glyph-name="b" unicode="b" horiz-adv-x="543" 
d="M50 0v667h128v-249q55 41 115 41q102 0 170 -78q59 -67 59 -159q0 -106 -76 -177q-65 -61 -153 -61q-60 0 -115 41v-25h-128zM284 343q-51 0 -81 -37q-26 -33 -26 -84q0 -58 33 -93q29 -29 74 -29q51 0 82 38q27 33 27 82q0 60 -34 94q-30 29 -75 29z" />
    <glyph glyph-name="c" unicode="c" horiz-adv-x="461" 
d="M450 371l-82 -85q-33 34 -54.5 45.5t-51.5 11.5q-54 0 -85 -37q-26 -33 -26 -86q0 -58 35 -91q30 -29 76 -29q32 0 56 13.5t52 47.5l82 -85q-46 -49 -90 -70.5t-100 -21.5q-109 0 -179 78q-61 66 -61 160q0 107 78 177q67 60 162 60q54 0 96 -20t92 -68z" />
    <glyph glyph-name="d" unicode="d" horiz-adv-x="543" 
d="M494 0h-129v25q-30 -22 -56 -31.5t-59 -9.5q-101 0 -169 79q-59 67 -59 159q0 106 75 176q65 61 153 61q33 0 59 -9t56 -32v249h129v-667zM260 343q-53 0 -83 -38q-26 -33 -26 -85q0 -57 34 -91q30 -29 75 -29q51 0 81 38q25 33 25 84q0 58 -33 92q-29 29 -73 29z" />
    <glyph glyph-name="e" unicode="e" horiz-adv-x="493" 
d="M465 110q-78 -126 -210 -126q-107 0 -174 77q-59 67 -59 161q0 107 74 176q64 61 153 61q104 0 167 -79q56 -68 56 -168q0 -7 -1 -35h-318q24 -79 101 -79q64 0 99 56zM345 266q-26 81 -96 81q-74 0 -96 -81h192z" />
    <glyph glyph-name="f" unicode="f" horiz-adv-x="269" 
d="M188 329v-329h-128v329h-41v114h41v78q0 79 38 119q34 36 92 36q32 0 70 -9v-115q-26 9 -43 9q-29 0 -29 -42v-76h74v-114h-74z" />
    <glyph glyph-name="g" unicode="g" horiz-adv-x="543" 
d="M365 25q-32 -23 -57 -32t-58 -9q-102 0 -169 79q-59 67 -59 159q0 106 75 176q65 61 153 61q33 0 58 -9t57 -32v25h129v-452q0 -114 -76 -182q-66 -58 -166 -58q-104 0 -178 68q-17 15 -46 50l85 82q9 -10 20 -23q52 -61 119 -61q58 0 87 37q26 32 26 87v34zM260 343
q-52 0 -82 -37q-27 -33 -27 -82q0 -60 34 -94q29 -30 75 -30q51 0 81 38q25 33 25 84q0 58 -33 92q-29 29 -73 29z" />
    <glyph glyph-name="h" unicode="h" horiz-adv-x="510" 
d="M178 423q46 36 101 36q47 0 88.5 -23.5t64.5 -63.5q28 -48 28 -133v-239h-128v232q0 62 -16 86.5t-56 24.5q-23 0 -41.5 -9t-26.5 -24q-14 -24 -14 -87v-223h-128v667h128v-244z" />
    <glyph glyph-name="i" unicode="i" horiz-adv-x="229" 
d="M37 595q0 34 26 56q22 20 52 20q35 0 58 -25q20 -22 20 -51q0 -34 -26 -57q-22 -19 -52 -19q-35 0 -58 25q-20 21 -20 51zM179 443v-443h-128v443h128z" />
    <glyph glyph-name="j" unicode="j" horiz-adv-x="237" 
d="M187 443v-532q0 -79 -38 -119q-34 -36 -90 -36q-33 0 -73 13v119q36 -13 54 -13t18 39v529h129zM45 595q0 34 25 56q22 20 53 20q34 0 57 -25q21 -22 21 -51q0 -34 -26 -57q-22 -19 -53 -19q-34 0 -57 25q-20 21 -20 51z" />
    <glyph glyph-name="k" unicode="k" horiz-adv-x="491" 
d="M300 256l202 -256h-159l-132 170l-33 -32v-138h-128v667h128v-365l144 141h170z" />
    <glyph glyph-name="l" unicode="l" horiz-adv-x="230" 
d="M179 0h-128v667h128v-667z" />
    <glyph glyph-name="m" unicode="m" horiz-adv-x="761" 
d="M389 410q58 49 129 49q58 0 104 -27q39 -24 62 -65q27 -47 27 -129v-238h-128v230q0 63 -14.5 88t-49.5 25q-20 0 -36.5 -8.5t-23.5 -21.5q-14 -26 -14 -92v-221h-128v230q0 64 -14.5 88.5t-50.5 24.5q-19 0 -36 -8.5t-24 -22.5q-14 -25 -14 -91v-221h-128v443h128v-20
q45 36 96 36q61 0 115 -49z" />
    <glyph glyph-name="n" unicode="n" horiz-adv-x="510" 
d="M178 423q46 36 101 36q47 0 88.5 -23.5t64.5 -63.5q28 -48 28 -133v-239h-128v232q0 62 -16 86.5t-56 24.5q-23 0 -41.5 -9t-26.5 -24q-14 -24 -14 -87v-223h-128v443h128v-20z" />
    <glyph glyph-name="o" unicode="o" horiz-adv-x="520" 
d="M260 459q108 0 178 -77q61 -67 61 -160q0 -107 -78 -177q-67 -61 -161 -61q-107 0 -177 78q-61 67 -61 160q0 107 78 177q67 60 160 60zM260 343q-52 0 -82 -37q-27 -33 -27 -83q0 -59 34 -93q30 -30 75 -30q53 0 83 38q27 33 27 84q0 58 -35 92q-29 29 -75 29z" />
    <glyph glyph-name="p" unicode="p" horiz-adv-x="543" 
d="M50 443h128v-25q55 41 115 41q102 0 170 -78q59 -68 59 -160q0 -105 -76 -176q-64 -61 -153 -61q-60 0 -115 41v-258h-128v676zM284 100q52 0 82 38q27 33 27 85q0 57 -35 91q-30 29 -74 29q-51 0 -81 -38q-26 -33 -26 -84q0 -58 33 -92q29 -29 74 -29z" />
    <glyph glyph-name="q" unicode="q" horiz-adv-x="543" 
d="M494 443v-676h-129v258q-30 -22 -56 -31.5t-59 -9.5q-102 0 -169 78q-59 68 -59 159q0 106 75 177q65 61 153 61q33 0 59 -9t56 -32v25h129zM260 100q51 0 81 38q25 33 25 83q0 59 -33 93q-29 29 -73 29q-52 0 -83 -38q-26 -33 -26 -84q0 -57 34 -92q30 -29 75 -29z" />
    <glyph glyph-name="r" unicode="r" horiz-adv-x="311" 
d="M178 419q38 27 81 27q17 0 44 -3v-114q-30 3 -44 3q-49 0 -66 -29q-15 -26 -15 -89v-214h-128v443h128v-24z" />
    <glyph glyph-name="s" unicode="s" horiz-adv-x="389" 
d="M17 120l108 40q18 -34 34 -48t39 -14q18 0 29.5 10t11.5 27q0 11 -8.5 18t-36.5 19l-59 23q-91 36 -91 121q0 65 52 107q45 36 109 36q104 0 160 -103l-102 -49q-27 40 -59 40q-37 0 -37 -29q0 -11 8 -17.5t36 -16.5l51 -20q105 -40 105 -124q0 -71 -55 -116
q-48 -40 -116 -40q-127 0 -179 136z" />
    <glyph glyph-name="t" unicode="t" horiz-adv-x="274" 
d="M182 329v-180q0 -38 19 -38q17 0 54 12v-119q-39 -13 -73 -13q-65 0 -98 46q-30 40 -30 109v183h-45v114h45v92l128 50v-142h67v-114h-67z" />
    <glyph glyph-name="u" unicode="u" horiz-adv-x="510" 
d="M332 21q-46 -37 -101 -37q-47 0 -88.5 23.5t-64.5 63.5q-28 48 -28 133v239h128v-231q0 -63 16 -87.5t56 -24.5q22 0 41 9t27 24q14 24 14 87v223h128v-443h-128v21z" />
    <glyph glyph-name="v" unicode="v" horiz-adv-x="469" 
d="M125 443l110 -262l109 262h137l-190 -443h-113l-190 443h137z" />
    <glyph glyph-name="w" unicode="w" horiz-adv-x="658" 
d="M-12 443h136l76 -234l80 234h98l80 -234l77 234h136l-161 -443h-102l-79 230l-79 -230h-102z" />
    <glyph glyph-name="x" unicode="x" horiz-adv-x="493" 
d="M323 229l178 -229h-154l-101 132l-100 -132h-154l178 229l-166 214h154l89 -117l89 117h153z" />
    <glyph glyph-name="y" unicode="y" horiz-adv-x="474" 
d="M163 23l-175 420h137l108 -264l117 264h137l-302 -676h-135z" />
    <glyph glyph-name="z" unicode="z" horiz-adv-x="418" 
d="M401 443v-92l-209 -237h218v-114h-392v92l210 238h-197v113h370z" />
    <glyph glyph-name="braceleft" unicode="{" horiz-adv-x="321" 
d="M289 -63v-118q-47 -1 -56 -1q-148 0 -148 159v190q0 33 -8.5 43t-44.5 18v102l12 3q25 6 33 16.5t8 37.5v187q0 160 148 160q10 0 56 -1v-119q-17 1 -40 1t-28.5 -5t-5.5 -27v-201q0 -37 -7.5 -60.5t-26.5 -45.5q19 -22 26.5 -46.5t7.5 -62.5v-198v-6q0 -19 3.5 -22.5
t22.5 -3.5h18h28h2z" />
    <glyph glyph-name="bar" unicode="|" horiz-adv-x="529" 
d="M201 728h126v-904h-126v904z" />
    <glyph glyph-name="braceright" unicode="}" horiz-adv-x="321" 
d="M32 -63q11 1 19 1q2 0 12 -1h18q18 0 21.5 3.5t3.5 22.5v6v198q0 70 34 109q-19 22 -26.5 45.5t-7.5 60.5v201q0 23 -5.5 27.5t-37.5 4.5q-12 0 -31 -1v119q46 1 56 1q148 0 148 -160v-187q0 -27 8 -37.5t33 -16.5l12 -3v-102q-36 -8 -44.5 -17.5t-8.5 -43.5v-190
q0 -159 -148 -159q-9 0 -56 1v118z" />
    <glyph glyph-name="asciitilde" unicode="~" horiz-adv-x="709" 
d="M167 545l-87 56q40 80 72 112q16 17 43.5 28t54.5 11q48 0 124 -37q60 -29 86 -29q20 0 35 12.5t33 42.5q3 5 13 22l88 -52q-36 -72 -60 -96q-23 -24 -54 -38.5t-59 -14.5q-29 0 -59.5 10t-96.5 40q-34 16 -56 16q-20 0 -34.5 -16t-42.5 -67z" />
    <glyph glyph-name="nonbreakingspace" unicode="&#xa0;" horiz-adv-x="224" 
 />
    <glyph glyph-name="exclamdown" unicode="&#xa1;" horiz-adv-x="310" 
d="M95 305h120l11 -489h-142zM77 421q0 34 26 56q22 20 52 20q35 0 58 -25q20 -22 20 -51q0 -34 -26 -57q-22 -20 -52 -20q-35 0 -58 26q-20 21 -20 51z" />
    <glyph glyph-name="cent" unicode="&#xa2;" horiz-adv-x="553" 
d="M355 0h-131v106q-82 24 -128 93q-41 60 -41 134q0 86 52 151q46 55 117 76v107h131v-104q37 -10 65.5 -28t62.5 -53l-82 -84q-33 33 -54.5 45t-51.5 12q-54 0 -85 -38q-26 -33 -26 -85q0 -58 34 -91q30 -30 77 -30q31 0 55.5 14t52.5 47l82 -85q-60 -65 -130 -84v-103z
" />
    <glyph glyph-name="sterling" unicode="&#xa3;" horiz-adv-x="569" 
d="M441 395v-118h-173q8 -44 8 -75q0 -41 -23 -80h279v-122h-470v108q7 5 11 9q41 32 54.5 52t13.5 47q0 22 -7 61h-72v118h47q-5 35 -5 62q0 114 67 171q63 54 151 54q66 0 114 -31t88 -100l-107 -67q-27 44 -48 60t-51 16q-82 0 -82 -102q0 -26 8 -63h197z" />
    <glyph glyph-name="currency" unicode="&#xa4;" horiz-adv-x="750" 
d="M242 543q69 39 133 39q65 0 133 -39l88 89l75 -73l-90 -91q38 -70 38 -134t-37 -135l89 -90l-74 -75l-89 90q-69 -39 -133 -39t-133 39l-89 -90l-74 75l90 90q-38 71 -38 135q0 63 38 134l-90 91l76 73zM375 469q-59 0 -94 -42q-30 -37 -30 -93q0 -65 39 -103
q34 -34 85 -34q59 0 94 43q30 37 30 94q0 64 -38 102q-34 33 -86 33z" />
    <glyph glyph-name="yen" unicode="&#xa5;" horiz-adv-x="556" 
d="M187 318l-16 28h-110v100h54l-126 221h149l140 -253h1l140 253h148l-125 -221h54v-100h-111l-16 -28h127v-99h-151v-219h-134v219h-150v99h126z" />
    <glyph glyph-name="brokenbar" unicode="&#xa6;" horiz-adv-x="529" 
d="M327 348h-126v380h126v-380zM327 210v-386h-126v386h126z" />
    <glyph glyph-name="section" unicode="&#xa7;" horiz-adv-x="577" 
d="M474 60q34 -46 34 -107q0 -96 -70 -152q-61 -49 -154 -49q-87 0 -147 43q-54 39 -97 117l112 70q33 -58 63.5 -82t71.5 -24q42 0 66 24q21 21 21 53q0 26 -20.5 44.5t-73.5 38.5l-60 23q-153 59 -153 185q0 73 48 128q-37 47 -37 110q0 92 72 150q62 50 150 50
q69 0 118 -30.5t94 -100.5l-111 -70q-8 12 -31 42q-29 35 -74 35q-40 0 -64 -25q-21 -21 -21 -53q0 -41 76 -70l62 -24q94 -35 135 -86q36 -45 36 -108q0 -69 -46 -132zM225 299l-2 -2q-24 -27 -24 -53q0 -42 76 -71l68 -26l22 -9q20 28 20 53q0 26 -20 44t-75 38z" />
    <glyph glyph-name="dieresis" unicode="&#xa8;" horiz-adv-x="476" 
d="M256 595q0 30 22 51.5t53 21.5q34 0 56 -24q19 -21 19 -49q0 -31 -22 -52t-53 -21q-33 0 -56 24q-19 21 -19 49zM70 595q0 30 22 51.5t53 21.5q33 0 56 -24q19 -21 19 -49q0 -31 -22 -52t-53 -21q-33 0 -56 24q-19 21 -19 49z" />
    <glyph glyph-name="copyright" unicode="&#xa9;" horiz-adv-x="835" 
d="M546 408q-35 39 -57.5 51.5t-55.5 12.5q-61 0 -100 -46q-35 -39 -35 -93q0 -62 45 -103q38 -35 90 -35q33 0 56 13t59 51l74 -70q-3 -3 -17 -16q-77 -76 -172 -76q-106 0 -178 78q-61 67 -61 158q0 106 79 176q68 61 161 61q84 0 145 -52q16 -14 41 -40zM417 714
q104 0 192 -52q86 -51 137 -137q52 -88 52 -192q0 -103 -52 -192q-51 -86 -137 -136q-88 -52 -192 -52q-103 0 -192 52q-86 50 -136 136q-52 89 -52 192t52 192q50 86 136 137q89 52 192 52zM417 627q-80 0 -148 -40q-67 -39 -106 -105q-40 -69 -40 -149q0 -79 41 -148
q39 -67 105 -105q69 -41 148 -41q80 0 149 40q66 39 105 106q40 68 40 148t-40 149q-39 66 -105 105q-69 40 -149 40z" />
    <glyph glyph-name="ordfeminine" unicode="&#xaa;" horiz-adv-x="348" 
d="M317 406h-89v11q-31 -22 -65 -22q-64 0 -106 47q-37 40 -37 95q0 64 48 108q41 37 95 37q34 0 65 -21v11h89v-266zM229 539q0 29 -16 46.5t-43 17.5t-43.5 -18.5t-16.5 -47.5q0 -28 16 -45.5t43 -17.5t43.5 18t16.5 47z" />
    <glyph glyph-name="guillemotleft" unicode="&#xab;" horiz-adv-x="509" 
d="M349 222l123 -151l-87 -68l-178 219l178 223l86 -68zM167 222l122 -151l-87 -69l-178 219l178 224l87 -68z" />
    <glyph glyph-name="logicalnot" unicode="&#xac;" horiz-adv-x="694" 
d="M641 54h-124v199h-463v117h587v-316z" />
    <glyph glyph-name="uni00AD" unicode="&#xad;" horiz-adv-x="284" 
d="M22 371h240v-118h-240v118z" />
    <glyph glyph-name="registered" unicode="&#xae;" horiz-adv-x="835" 
d="M417 714q104 0 192 -52q86 -50 137 -137q52 -88 52 -192q0 -103 -52 -192q-51 -86 -137 -136q-88 -52 -192 -52q-103 0 -192 52q-86 50 -136 136q-52 89 -52 192q0 104 52 192q50 86 137 137q88 52 191 52zM606 108h-102l-88 158h-23h-14v-158h-103v450h119q69 0 107 -21
q33 -19 52 -53t19 -74q0 -70 -59 -115l101 -179q46 40 71 97.5t25 120.5q0 79 -40 148q-39 66 -105 105q-69 40 -149 40t-148 -40q-67 -39 -105 -105q-41 -69 -41 -149q0 -79 41 -148q39 -66 105 -105q68 -41 148 -41q106 0 189 69zM379 361h22q37 0 54 12t17 38
q0 27 -17 39t-54 12h-22v-101z" />
    <glyph glyph-name="macron" unicode="&#xaf;" horiz-adv-x="476" 
d="M76 645h324v-109h-324v109z" />
    <glyph glyph-name="degree" unicode="&#xb0;" horiz-adv-x="328" 
d="M198 744q63 0 106 -47q37 -41 37 -97q0 -64 -47 -106q-41 -37 -96 -37q-64 0 -107 47q-37 41 -37 96q0 64 47 107q41 37 97 37zM198 655q-23 0 -39 -16t-16 -38q0 -23 16 -39t39 -16q22 0 38 16t16 38q0 23 -16 39t-38 16z" />
    <glyph glyph-name="plusminus" unicode="&#xb1;" horiz-adv-x="556" 
d="M219 449v194h118v-194h199v-115h-199v-194h-118v194h-199v115h199zM536 116v-116h-516v116h516z" />
    <glyph glyph-name="twosuperior" unicode="&#xb2;" horiz-adv-x="387" 
d="M57 406v68l143 151q37 39 37 67q0 35 -43 35q-25 0 -36 -11t-22 -49l-85 22q27 121 143 121q64 0 101 -37q33 -33 33 -82q0 -58 -45 -105l-92 -97h145v-83h-279z" />
    <glyph glyph-name="threesuperior" unicode="&#xb3;" horiz-adv-x="387" 
d="M147 652h40q47 0 47 38q0 17 -11.5 27.5t-31.5 10.5q-19 0 -30.5 -8t-30.5 -35l-77 40q30 47 60.5 66t76.5 19q62 0 101 -38q34 -33 34 -81q0 -42 -31 -75q40 -39 40 -88q0 -61 -47 -99q-40 -32 -99 -32q-41 0 -74 17.5t-51 49.5q-10 16 -20 57l88 22q11 -38 22 -50.5
t36 -12.5q24 0 38.5 13t14.5 35q0 44 -55 44h-40v80z" />
    <glyph glyph-name="acute" unicode="&#xb4;" horiz-adv-x="476" 
d="M404 645l-163 -158l-86 48l130 172z" />
    <glyph glyph-name="mu" unicode="&#xb5;" horiz-adv-x="510" 
d="M178 -233h-128v676h128v-233q0 -62 16 -86t56 -24q22 0 41 9t27 24q14 24 14 87v223h128v-443h-128v21q-24 -21 -41.5 -29t-40.5 -8q-37 0 -72 27v-244z" />
    <glyph glyph-name="paragraph" unicode="&#xb6;" horiz-adv-x="645" 
d="M382 -233h-112v431q-48 6 -75.5 17t-55.5 35q-85 70 -85 181q0 107 76 176q66 60 158 60h320v-109h-63v-791h-112v791h-51v-791z" />
    <glyph glyph-name="glyph195" unicode="&#xb7;" horiz-adv-x="257" 
d="M52 312q0 33 25 55q22 19 52 19q34 0 57 -24q20 -21 20 -50q0 -33 -26 -55q-22 -19 -51 -19q-34 0 -57 24q-20 22 -20 50z" />
    <glyph glyph-name="cedilla" unicode="&#xb8;" horiz-adv-x="476" 
d="M358 -67l-134 -164l-93 45l111 167z" />
    <glyph glyph-name="onesuperior" unicode="&#xb9;" horiz-adv-x="387" 
d="M256 406h-92v286l-42 -23l-45 73l109 59h70v-395z" />
    <glyph glyph-name="ordmasculine" unicode="&#xba;" horiz-adv-x="341" 
d="M170 682q68 0 112 -46q38 -41 38 -97q0 -65 -49 -107q-42 -37 -101 -37q-68 0 -112 47q-38 41 -38 97q0 65 49 107q42 36 101 36zM231 539q0 29 -17 46.5t-44 17.5t-43.5 -17.5t-16.5 -46.5t16.5 -46.5t43.5 -17.5t44 17.5t17 46.5z" />
    <glyph glyph-name="guillemotright" unicode="&#xbb;" horiz-adv-x="509" 
d="M343 222l-122 155l87 68l178 -224l-179 -219l-86 69zM160 222l-122 155l87 68l178 -223l-178 -219l-87 68z" />
    <glyph glyph-name="onequarter" unicode="&#xbc;" horiz-adv-x="833" 
d="M689 365l-137 -206h55v76h92v-76h41v-81h-41v-78h-92v78h-169v70l175 262zM532 682l72 -41l-380 -657l-72 41zM225 272h-92v286l-42 -23l-45 72l109 59h70v-394z" />
    <glyph glyph-name="onehalf" unicode="&#xbd;" horiz-adv-x="833" 
d="M531 682l72 -41l-380 -657l-72 41zM224 272h-92v286l-42 -23l-45 72l109 59h70v-394zM488 0v68l144 151q36 39 36 67q0 35 -43 35q-24 0 -35 -11t-22 -49l-86 22q28 121 143 121q64 0 102 -37q32 -33 32 -82q0 -58 -45 -105l-91 -97h145v-83h-280z" />
    <glyph glyph-name="threequarters" unicode="&#xbe;" horiz-adv-x="833" 
d="M727 365l-137 -206h56v76h91v-76h42v-81h-42v-78h-91v78h-169v70l174 262zM592 682l72 -41l-380 -657l-72 41zM144 517h40q47 0 47 38q0 17 -11.5 27.5t-31.5 10.5q-19 0 -30.5 -8t-30.5 -35l-77 40q30 48 60 67t77 19q62 0 101 -39q34 -33 34 -80q0 -43 -31 -75
q22 -22 31 -42t9 -47q0 -61 -47 -98q-40 -33 -99 -33q-41 0 -74 18t-51 50q-10 16 -20 56l88 23q11 -39 22.5 -51.5t35.5 -12.5t38.5 13.5t14.5 34.5q0 44 -55 44h-40v80z" />
    <glyph glyph-name="questiondown" unicode="&#xbf;" horiz-adv-x="441" 
d="M305 305v-63q0 -49 -12.5 -75.5t-51.5 -59.5l-40 -34q-49 -41 -49 -83q0 -30 20 -47.5t55 -17.5t57.5 16t54.5 64l98 -79q-40 -69 -95 -99q-48 -27 -115 -27q-98 0 -157 60q-50 51 -50 130q0 48 19.5 86t66.5 82l46 42q15 15 18.5 22t3.5 28v55h131zM318 421
q0 -34 -26 -57q-22 -20 -52 -20q-35 0 -58 26q-20 21 -20 51q0 34 26 56q22 20 52 20q35 0 58 -25q20 -22 20 -51z" />
    <glyph glyph-name="Agrave" unicode="&#xc0;" horiz-adv-x="643" 
d="M453 155h-263l-56 -155h-140l249 667h157l249 -667h-141zM409 279l-88 246l-88 -246h176zM153 849l120 62l129 -172l-86 -47z" />
    <glyph glyph-name="Aacute" unicode="&#xc1;" horiz-adv-x="643" 
d="M487 849l-163 -157l-86 47l130 172zM453 155h-263l-56 -155h-140l249 667h157l249 -667h-141zM409 279l-88 246l-88 -246h176z" />
    <glyph glyph-name="Acircumflex" unicode="&#xc2;" horiz-adv-x="643" 
d="M453 155h-263l-56 -155h-140l249 667h157l249 -667h-141zM409 279l-88 246l-88 -246h176zM234 693l-97 46l145 154h79l145 -154l-97 -46l-87 83z" />
    <glyph glyph-name="Atilde" unicode="&#xc3;" horiz-adv-x="643" 
d="M453 155h-263l-56 -155h-140l249 667h157l249 -667h-141zM409 279l-88 246l-88 -246h176zM378 873l107 -24q-4 -53 -21 -81q-11 -20 -34 -32t-50 -12q-41 0 -79 21q-16 9 -25 9q-8 0 -10 -15q-1 -8 -3 -21l-105 23q13 125 108 125q33 0 78 -23q16 -9 24 -9q7 0 8 16
q0 8 2 23z" />
    <glyph glyph-name="Adieresis" unicode="&#xc4;" horiz-adv-x="643" 
d="M453 155h-263l-56 -155h-140l249 667h157l249 -667h-141zM409 279l-88 246l-88 -246h176zM340 795q0 31 21.5 52t53.5 21q33 0 55 -24q20 -21 20 -49q0 -32 -25 -54q-22 -19 -50 -19q-34 0 -56 24q-19 21 -19 49zM154 795q0 31 21.5 52t53.5 21q33 0 55 -24
q19 -21 19 -49q0 -30 -21.5 -51.5t-53.5 -21.5q-33 0 -55 24q-19 21 -19 49z" />
    <glyph glyph-name="Aring" unicode="&#xc5;" horiz-adv-x="643" 
d="M207 791q0 50 37 84q33 29 77 29q52 0 86 -37q30 -33 30 -76q0 -51 -38 -84q-33 -29 -78 -29q-50 0 -85 37q-29 33 -29 76zM270 791q0 -22 15 -37t36 -15q22 0 37 15t15 37q0 21 -15 36t-36 15q-22 0 -37 -15t-15 -36zM453 155h-263l-56 -155h-140l249 667h157l249 -667
h-141zM409 279l-88 246l-88 -246h176z" />
    <glyph glyph-name="AE" unicode="&#xc6;" horiz-adv-x="845" 
d="M423 155h-200l-80 -155h-149l351 667h460v-123h-249v-145h221v-123h-221v-152h258v-124h-391v155zM423 279v249h-7l-129 -249h136z" />
    <glyph glyph-name="Ccedilla" unicode="&#xc7;" horiz-adv-x="674" 
d="M556 466q-47 51 -85.5 71.5t-88.5 20.5q-99 0 -163 -74q-55 -63 -55 -151q0 -100 71 -167q62 -57 147 -57q50 0 89 20.5t88 72.5l95 -89q-70 -73 -138 -103q-60 -26 -132 -26q-97 0 -180 48q-80 46 -127 125q-48 81 -48 176t48 177q47 79 127 125q83 47 179 47
q77 0 140 -30t127 -97zM457 -67l-134 -164l-93 45l111 167z" />
    <glyph glyph-name="Egrave" unicode="&#xc8;" horiz-adv-x="489" 
d="M449 667v-123h-249v-145h221v-123h-221v-152h258v-124h-391v667h382zM103 849l119 62l130 -172l-86 -47z" />
    <glyph glyph-name="Eacute" unicode="&#xc9;" horiz-adv-x="489" 
d="M449 667v-123h-249v-145h221v-123h-221v-152h258v-124h-391v667h382zM423 849l-163 -157l-86 47l130 172z" />
    <glyph glyph-name="Ecircumflex" unicode="&#xca;" horiz-adv-x="489" 
d="M449 667v-123h-249v-145h221v-123h-221v-152h258v-124h-391v667h382zM176 693l-98 46l146 154h79l145 -154l-98 -46l-87 83z" />
    <glyph glyph-name="Edieresis" unicode="&#xcb;" horiz-adv-x="489" 
d="M449 667v-123h-249v-145h221v-123h-221v-152h258v-124h-391v667h382zM281 795q0 31 21.5 52t53.5 21q33 0 55 -24q20 -21 20 -49q0 -32 -25 -54q-21 -19 -50 -19q-34 0 -56 24q-19 21 -19 49zM95 795q0 31 21.5 52t53.5 21q33 0 55 -24q19 -21 19 -49q0 -30 -21.5 -51.5
t-53.5 -21.5q-33 0 -55 24q-19 21 -19 49z" />
    <glyph glyph-name="Igrave" unicode="&#xcc;" horiz-adv-x="267" 
d="M200 667v-667h-133v667h133zM-40 849l119 62l130 -172l-86 -47z" />
    <glyph glyph-name="Iacute" unicode="&#xcd;" horiz-adv-x="267" 
d="M200 667v-667h-133v667h133zM303 849l-163 -157l-86 47l130 172z" />
    <glyph glyph-name="Icircumflex" unicode="&#xce;" horiz-adv-x="267" 
d="M200 667v-667h-133v667h133zM46 693l-97 46l145 154h79l145 -154l-97 -46l-87 83z" />
    <glyph glyph-name="Idieresis" unicode="&#xcf;" horiz-adv-x="267" 
d="M200 667v-667h-133v667h133zM-22 795q0 31 22 52t53 21q33 0 56 -24q19 -21 19 -49q0 -30 -22 -51.5t-53 -21.5q-33 0 -56 24q-19 21 -19 49zM140 795q0 31 22 52t53 21q33 0 55 -24q20 -21 20 -49q0 -32 -25 -54q-21 -19 -50 -19q-34 0 -56 24q-19 21 -19 49z" />
    <glyph glyph-name="Eth" unicode="&#xd0;" horiz-adv-x="632" 
d="M79 418v249h158q179 0 279 -103q87 -89 87 -230q0 -163 -113 -255q-97 -79 -253 -79h-158v298h-62v120h62zM212 418h143v-120h-143v-174h28q115 0 176 63q53 55 53 147q0 104 -69 160q-60 49 -160 49h-28v-125z" />
    <glyph glyph-name="Ntilde" unicode="&#xd1;" horiz-adv-x="708" 
d="M67 0v667h113l327 -434v434h134v-667h-113l-328 434v-434h-133zM414 873l106 -24q-4 -53 -20 -81q-12 -20 -34.5 -32t-49.5 -12q-41 0 -79 21q-16 9 -26 9q-7 0 -9 -15q-1 -8 -4 -21l-104 23q12 125 107 125q34 0 79 -23q16 -9 24 -9q7 0 8 16q0 8 2 23z" />
    <glyph glyph-name="Ograve" unicode="&#xd2;" horiz-adv-x="762" 
d="M214 849l119 62l130 -172l-86 -47zM29 332q0 95 48 177q47 79 127 125q82 48 177 48t177 -48q80 -46 127 -125q48 -82 48 -176t-48 -175q-47 -79 -127 -126q-82 -48 -177 -48t-177 48q-79 47 -127 126q-48 81 -48 174zM164 333q0 -99 72 -166q62 -58 145 -58q96 0 161 74
q57 64 57 150q0 100 -72 167q-62 58 -146 58q-97 0 -162 -74q-55 -64 -55 -151z" />
    <glyph glyph-name="Oacute" unicode="&#xd3;" horiz-adv-x="762" 
d="M29 332q0 95 48 177q47 79 127 125q82 48 177 48t177 -48q80 -46 127 -125q48 -82 48 -176t-48 -175q-47 -79 -127 -126q-82 -48 -177 -48t-177 48q-79 47 -127 126q-48 81 -48 174zM164 333q0 -99 72 -166q62 -58 145 -58q96 0 161 74q57 64 57 150q0 100 -72 167
q-62 58 -146 58q-97 0 -162 -74q-55 -64 -55 -151zM549 849l-163 -157l-86 47l129 172z" />
    <glyph glyph-name="Ocircumflex" unicode="&#xd4;" horiz-adv-x="762" 
d="M29 332q0 95 48 177q47 79 127 125q82 48 177 48t177 -48q80 -46 127 -125q48 -82 48 -176t-48 -175q-47 -79 -127 -126q-82 -48 -177 -48t-177 48q-79 47 -127 126q-48 81 -48 174zM164 333q0 -99 72 -166q62 -58 145 -58q96 0 161 74q57 64 57 150q0 100 -72 167
q-62 58 -146 58q-97 0 -162 -74q-55 -64 -55 -151zM294 693l-98 46l146 154h79l145 -154l-97 -46l-88 83z" />
    <glyph glyph-name="Otilde" unicode="&#xd5;" horiz-adv-x="762" 
d="M29 332q0 95 48 177q47 79 127 125q82 48 177 48t177 -48q80 -46 127 -125q48 -82 48 -176t-48 -175q-47 -79 -127 -126q-82 -48 -177 -48t-177 48q-79 47 -127 126q-48 81 -48 174zM164 333q0 -99 72 -166q62 -58 145 -58q96 0 161 74q57 64 57 150q0 100 -72 167
q-62 58 -146 58q-97 0 -162 -74q-55 -64 -55 -151zM438 873l106 -24q-4 -53 -20 -81q-12 -20 -35 -32t-49 -12q-41 0 -79 21q-17 9 -26 9q-7 0 -9 -15q-1 -7 -4 -21l-104 23q12 125 107 125q34 0 79 -23q16 -9 24 -9q7 0 8 16q0 10 2 23z" />
    <glyph glyph-name="Odieresis" unicode="&#xd6;" horiz-adv-x="762" 
d="M29 332q0 95 48 177q47 79 127 125q82 48 177 48t177 -48q80 -46 127 -125q48 -82 48 -176t-48 -175q-47 -79 -127 -126q-82 -48 -177 -48t-177 48q-79 47 -127 126q-48 81 -48 174zM164 333q0 -99 72 -166q62 -58 145 -58q96 0 161 74q57 64 57 150q0 100 -72 167
q-62 58 -146 58q-97 0 -162 -74q-55 -64 -55 -151zM399 795q0 31 22 52t53 21q34 0 56 -24q19 -21 19 -49q0 -30 -22 -51.5t-53 -21.5q-33 0 -55 24q-20 21 -20 49zM213 795q0 31 22 52t53 21q33 0 56 -24q19 -21 19 -49q0 -32 -25 -54q-21 -19 -50 -19q-33 0 -56 24
q-19 21 -19 49z" />
    <glyph glyph-name="multiply" unicode="&#xd7;" horiz-adv-x="556" 
d="M196 312l-141 141l83 82l140 -140l141 140l83 -82l-141 -141l141 -141l-83 -82l-141 140l-140 -140l-83 82z" />
    <glyph glyph-name="Oslash" unicode="&#xd8;" horiz-adv-x="770" 
d="M729 599l-61 -59q69 -95 69 -206q0 -95 -48 -176q-47 -79 -127 -126q-82 -48 -177 -48q-113 0 -211 71l-60 -58l-73 70l61 60q-69 92 -69 205q0 95 48 177q47 79 127 125q82 48 178 48q116 0 211 -71l59 59zM573 447l-306 -301q55 -37 119 -37q95 0 160 74q57 64 57 148
q0 60 -30 116zM197 220l307 301q-55 37 -119 37q-97 0 -161 -74q-56 -64 -56 -150q0 -61 29 -114z" />
    <glyph glyph-name="Ugrave" unicode="&#xd9;" horiz-adv-x="642" 
d="M200 667v-409q0 -71 14 -96q14 -23 44 -38t63 -15t63 15t44 38q14 25 14 96v409h133v-427q0 -84 -30 -135q-34 -59 -101 -92q-57 -29 -123 -29q-76 0 -139 37q-55 33 -86 84q-29 51 -29 135v427h133zM157 849l119 62l130 -172l-86 -47z" />
    <glyph glyph-name="Uacute" unicode="&#xda;" horiz-adv-x="642" 
d="M200 667v-409q0 -71 14 -96q14 -23 44 -38t63 -15t63 15t44 38q14 25 14 96v409h133v-427q0 -84 -30 -135q-34 -59 -101 -92q-57 -29 -123 -29q-76 0 -139 37q-55 33 -86 84q-29 51 -29 135v427h133zM485 849l-163 -157l-86 47l130 172z" />
    <glyph glyph-name="Ucircumflex" unicode="&#xdb;" horiz-adv-x="642" 
d="M200 667v-409q0 -71 14 -96q14 -23 44 -38t63 -15t63 15t44 38q14 25 14 96v409h133v-427q0 -84 -30 -135q-34 -59 -101 -92q-57 -29 -123 -29q-76 0 -139 37q-55 33 -86 84q-29 51 -29 135v427h133zM234 693l-98 46l146 154h79l145 -154l-98 -46l-87 83z" />
    <glyph glyph-name="Udieresis" unicode="&#xdc;" horiz-adv-x="642" 
d="M200 667v-409q0 -71 14 -96q14 -23 44 -38t63 -15t63 15t44 38q14 25 14 96v409h133v-427q0 -84 -30 -135q-34 -59 -101 -92q-57 -29 -123 -29q-76 0 -139 37q-55 33 -86 84q-29 51 -29 135v427h133zM339 795q0 31 22 52t53 21q34 0 56 -24q19 -21 19 -49
q0 -30 -22 -51.5t-53 -21.5q-33 0 -56 24q-19 21 -19 49zM153 795q0 31 22 52t53 21q33 0 56 -24q19 -21 19 -49q0 -32 -25 -54q-21 -19 -50 -19q-33 0 -56 24q-19 21 -19 49z" />
    <glyph glyph-name="Yacute" unicode="&#xdd;" horiz-adv-x="552" 
d="M209 275l-222 392h149l140 -255l141 255h148l-222 -392v-275h-134v275zM440 849l-163 -157l-86 47l130 172z" />
    <glyph glyph-name="Thorn" unicode="&#xde;" horiz-adv-x="478" 
d="M200 581h26q93 0 144 -30q50 -28 77 -81q24 -47 24 -101q0 -63 -31 -114q-27 -45 -70 -70q-52 -29 -144 -29h-26v-156h-133v667h133v-86zM200 459v-182h34q59 0 84 25q23 22 23 66q0 47 -26 69t-81 22h-34z" />
    <glyph glyph-name="germandbls" unicode="&#xdf;" horiz-adv-x="530" 
d="M209 0v118h57q50 0 78 29q25 25 25 64q0 42 -27 64t-78 22h-24v116h24q60 0 60 73q0 39 -19.5 60.5t-53.5 21.5t-53.5 -21.5t-19.5 -60.5v-486h-128v486q0 91 63 147q55 49 133 49q96 0 154 -61q50 -53 50 -132q0 -35 -9.5 -60.5t-32.5 -54.5q89 -60 89 -167
q0 -98 -73 -156q-64 -51 -160 -51h-55z" />
    <glyph glyph-name="agrave" unicode="&#xe0;" horiz-adv-x="543" 
d="M494 0h-129v25q-30 -22 -56 -31.5t-59 -9.5q-101 0 -169 79q-59 67 -59 159q0 106 75 176q65 61 153 61q33 0 59 -9t56 -32v25h129v-443zM260 343q-52 0 -83 -38q-26 -33 -26 -83q0 -58 34 -92q30 -30 75 -30q51 0 81 38q26 33 26 84q0 58 -33 92q-29 29 -74 29zM91 645
l119 62l129 -172l-85 -47z" />
    <glyph glyph-name="aacute" unicode="&#xe1;" horiz-adv-x="543" 
d="M431 645l-163 -157l-86 47l130 172zM494 0h-129v25q-30 -22 -56 -31.5t-59 -9.5q-101 0 -169 79q-59 67 -59 159q0 106 75 176q65 61 153 61q33 0 59 -9t56 -32v25h129v-443zM260 343q-52 0 -83 -38q-26 -33 -26 -83q0 -58 34 -92q30 -30 75 -30q51 0 81 38q26 33 26 84
q0 58 -33 92q-29 29 -74 29z" />
    <glyph glyph-name="acircumflex" unicode="&#xe2;" horiz-adv-x="543" 
d="M494 0h-129v25q-30 -22 -56 -31.5t-59 -9.5q-101 0 -169 79q-59 67 -59 159q0 106 75 176q65 61 153 61q33 0 59 -9t56 -32v25h129v-443zM260 343q-52 0 -83 -38q-26 -33 -26 -83q0 -58 34 -92q30 -30 75 -30q51 0 81 38q26 33 26 84q0 58 -33 92q-29 29 -74 29zM345 489
l-87 85l-88 -85l-96 46l144 153h79l145 -153z" />
    <glyph glyph-name="atilde" unicode="&#xe3;" horiz-adv-x="543" 
d="M494 0h-129v25q-30 -22 -56 -31.5t-59 -9.5q-101 0 -169 79q-59 67 -59 159q0 106 75 176q65 61 153 61q33 0 59 -9t56 -32v25h129v-443zM260 343q-52 0 -83 -38q-26 -33 -26 -83q0 -58 34 -92q30 -30 75 -30q51 0 81 38q26 33 26 84q0 58 -33 92q-29 29 -74 29zM314 669
l107 -24q-4 -53 -20 -81q-12 -20 -35 -32t-50 -12q-41 0 -79 21q-16 9 -25 9q-8 0 -9 -15q-1 -8 -4 -22l-105 24q13 124 108 124q33 0 78 -23q16 -8 24 -8q7 0 8 16q1 7 2 23z" />
    <glyph glyph-name="adieresis" unicode="&#xe4;" horiz-adv-x="543" 
d="M494 0h-129v25q-30 -22 -56 -31.5t-59 -9.5q-101 0 -169 79q-59 67 -59 159q0 106 75 176q65 61 153 61q33 0 59 -9t56 -32v25h129v-443zM260 343q-52 0 -83 -38q-26 -33 -26 -83q0 -58 34 -92q30 -30 75 -30q51 0 81 38q26 33 26 84q0 58 -33 92q-29 29 -74 29zM284 595
q0 30 22 51.5t53 21.5q34 0 56 -24q19 -21 19 -49q0 -31 -22 -52t-53 -21q-33 0 -55 24q-20 21 -20 49zM98 595q0 30 22 51.5t53 21.5q33 0 56 -24q19 -21 19 -49q0 -31 -22 -52t-53 -21q-33 0 -56 24q-19 21 -19 49z" />
    <glyph glyph-name="aring" unicode="&#xe5;" horiz-adv-x="543" 
d="M154 591q0 50 38 84q33 29 77 29q52 0 86 -37q29 -33 29 -76q0 -51 -37 -84q-33 -29 -78 -29q-50 0 -85 37q-30 32 -30 76zM218 591q0 -22 15 -37t36 -15q22 0 37 15t15 37q0 21 -15 36t-37 15q-21 0 -36 -15t-15 -36zM494 0h-129v25q-30 -22 -56 -31.5t-59 -9.5
q-101 0 -169 79q-59 67 -59 159q0 106 75 176q65 61 153 61q33 0 59 -9t56 -32v25h129v-443zM260 343q-52 0 -83 -38q-26 -33 -26 -83q0 -58 34 -92q30 -30 75 -30q51 0 81 38q26 33 26 84q0 58 -33 92q-29 29 -74 29z" />
    <glyph glyph-name="ae" unicode="&#xe6;" horiz-adv-x="801" 
d="M405 399q65 60 150 60q106 0 169 -79q55 -68 55 -170q0 -10 -1 -33h-317q24 -79 100 -79q64 0 99 56l112 -44q-77 -126 -212 -126q-86 0 -152 57q-56 -57 -169 -57q-105 0 -165 49q-52 42 -52 108q0 73 61 112q53 34 142 34h97q-11 32 -32.5 46t-58.5 14q-35 0 -65 -10.5
t-68 -36.5l-67 83q56 42 103.5 59t107.5 17q107 0 163 -60zM652 267q-26 80 -95 80q-76 0 -96 -80h191zM327 198h-89q-89 0 -89 -52q0 -51 89 -51t89 57v46z" />
    <glyph glyph-name="ccedilla" unicode="&#xe7;" horiz-adv-x="461" 
d="M336 -67l-134 -164l-93 45l111 167zM450 371l-82 -85q-33 34 -54.5 45.5t-52.5 11.5q-53 0 -84 -38q-26 -33 -26 -85q0 -57 35 -91q30 -29 76 -29q31 0 55.5 13.5t52.5 47.5l82 -85q-44 -49 -89 -70.5t-101 -21.5q-109 0 -179 78q-61 66 -61 160q0 107 78 177
q67 60 162 60q54 0 98 -20.5t90 -67.5z" />
    <glyph glyph-name="egrave" unicode="&#xe8;" horiz-adv-x="493" 
d="M85 645l119 62l130 -172l-86 -48zM465 110q-78 -126 -210 -126q-107 0 -174 77q-59 67 -59 161q0 107 74 176q64 61 153 61q104 0 167 -79q56 -68 56 -168q0 -7 -1 -35h-318q24 -79 101 -79q64 0 99 56zM345 266q-26 81 -96 81q-74 0 -96 -81h192z" />
    <glyph glyph-name="eacute" unicode="&#xe9;" horiz-adv-x="493" 
d="M409 645l-163 -158l-86 48l130 172zM465 110q-78 -126 -210 -126q-107 0 -174 77q-59 67 -59 161q0 107 74 176q64 61 153 61q104 0 167 -79q56 -68 56 -168q0 -7 -1 -35h-318q24 -79 101 -79q64 0 99 56zM345 266q-26 81 -96 81q-74 0 -96 -81h192z" />
    <glyph glyph-name="ecircumflex" unicode="&#xea;" horiz-adv-x="493" 
d="M465 110q-78 -126 -210 -126q-107 0 -174 77q-59 67 -59 161q0 107 74 176q64 61 153 61q104 0 167 -79q56 -68 56 -168q0 -7 -1 -35h-318q24 -79 101 -79q64 0 99 56zM345 266q-26 81 -96 81q-74 0 -96 -81h192zM334 489l-87 85l-88 -85l-97 46l145 153h79l145 -153z
" />
    <glyph glyph-name="edieresis" unicode="&#xeb;" horiz-adv-x="493" 
d="M465 110q-78 -126 -210 -126q-107 0 -174 77q-59 67 -59 161q0 107 74 176q64 61 153 61q104 0 167 -79q56 -68 56 -168q0 -7 -1 -35h-318q24 -79 101 -79q64 0 99 56zM345 266q-26 81 -96 81q-74 0 -96 -81h192zM265 595q0 30 22 51.5t53 21.5q33 0 56 -24
q19 -21 19 -49q0 -33 -25 -55q-21 -18 -50 -18q-33 0 -56 24q-19 21 -19 49zM79 595q0 30 22 51.5t53 21.5q33 0 55 -24q20 -21 20 -49q0 -33 -25 -55q-21 -18 -50 -18q-34 0 -56 24q-19 21 -19 49z" />
    <glyph glyph-name="igrave" unicode="&#xec;" horiz-adv-x="229" 
d="M-58 645l119 62l130 -172l-86 -48zM179 443v-443h-128v443h128z" />
    <glyph glyph-name="iacute" unicode="&#xed;" horiz-adv-x="229" 
d="M288 645l-163 -158l-86 48l130 172zM179 443v-443h-128v443h128z" />
    <glyph glyph-name="icircumflex" unicode="&#xee;" horiz-adv-x="229" 
d="M178 443v-443h-128v443h128zM202 489l-88 85l-87 -85l-97 46l145 153h79l145 -153z" />
    <glyph glyph-name="idieresis" unicode="&#xef;" horiz-adv-x="229" 
d="M178 443v-443h-128v443h128zM120 595q0 30 22 51.5t53 21.5q33 0 56 -24q19 -21 19 -49q0 -31 -22 -52t-53 -21q-34 0 -56 24q-19 21 -19 49zM-42 595q0 30 22 51.5t53 21.5q33 0 56 -24q19 -21 19 -49q0 -31 -22 -52t-53 -21q-33 0 -56 24q-19 21 -19 49z" />
    <glyph glyph-name="eth" unicode="&#xf0;" horiz-adv-x="524" 
d="M352 575q149 -119 149 -322q0 -98 -39 -162q-33 -53 -91 -82q-51 -25 -109 -25q-107 0 -177 77q-61 67 -61 159q0 49 20 94.5t57 77.5q58 51 150 51q12 0 36 -1q-29 38 -65 62l-99 -54l-46 59l59 32q-22 5 -58 11l18 115q120 -16 184 -47l78 42l46 -59zM372 222
q0 58 -34 92q-30 30 -76 30q-52 0 -83 -38q-26 -33 -26 -84q0 -58 34 -93q30 -30 75 -30q53 0 83 39q27 33 27 84z" />
    <glyph glyph-name="ntilde" unicode="&#xf1;" horiz-adv-x="510" 
d="M178 423q46 36 101 36q47 0 88.5 -23.5t64.5 -63.5q28 -48 28 -133v-239h-128v232q0 62 -16 86.5t-56 24.5q-23 0 -41.5 -9t-26.5 -24q-14 -24 -14 -87v-223h-128v443h128v-20zM313 669l107 -24q-4 -53 -21 -81q-12 -20 -34.5 -32t-49.5 -12q-41 0 -79 21q-16 9 -25 9
q-8 0 -10 -15q-1 -8 -3 -22l-105 24q13 124 108 124q33 0 78 -23q16 -8 24 -8q7 0 8 16q0 7 2 23z" />
    <glyph glyph-name="ograve" unicode="&#xf2;" horiz-adv-x="520" 
d="M94 645l119 62l129 -172l-86 -47zM260 459q108 0 178 -77q61 -67 61 -160q0 -107 -78 -177q-67 -61 -161 -61q-107 0 -177 78q-61 67 -61 160q0 107 78 177q67 60 160 60zM260 343q-52 0 -82 -37q-27 -33 -27 -83q0 -59 34 -93q30 -30 75 -30q53 0 83 38q27 33 27 84
q0 58 -34 92q-30 29 -76 29z" />
    <glyph glyph-name="oacute" unicode="&#xf3;" horiz-adv-x="520" 
d="M427 645l-162 -157l-86 47l129 172zM260 459q108 0 178 -77q61 -67 61 -160q0 -107 -78 -177q-67 -61 -161 -61q-107 0 -177 78q-61 67 -61 160q0 107 78 177q67 60 160 60zM260 343q-52 0 -82 -37q-27 -33 -27 -83q0 -59 34 -93q30 -30 75 -30q53 0 83 38q27 33 27 84
q0 58 -34 92q-30 29 -76 29z" />
    <glyph glyph-name="ocircumflex" unicode="&#xf4;" horiz-adv-x="520" 
d="M348 489l-88 85l-87 -85l-97 46l145 153h79l145 -153zM260 459q108 0 178 -77q61 -67 61 -160q0 -107 -78 -177q-67 -61 -161 -61q-107 0 -177 78q-61 67 -61 160q0 107 78 177q67 60 160 60zM260 343q-52 0 -82 -37q-27 -33 -27 -83q0 -59 34 -93q30 -30 75 -30
q53 0 83 38q27 33 27 84q0 58 -34 92q-30 29 -76 29z" />
    <glyph glyph-name="otilde" unicode="&#xf5;" horiz-adv-x="520" 
d="M317 669l106 -24q-4 -53 -20 -81q-12 -20 -35 -32t-49 -12q-41 0 -79 21q-16 9 -26 9q-7 0 -9 -15q-1 -8 -4 -22l-104 24q12 124 107 124q34 0 79 -23q16 -8 24 -8q7 0 8 16q0 7 2 23zM260 459q108 0 178 -77q61 -67 61 -160q0 -107 -78 -177q-67 -61 -161 -61
q-107 0 -177 78q-61 67 -61 160q0 107 78 177q67 60 160 60zM260 343q-52 0 -82 -37q-27 -33 -27 -83q0 -59 34 -93q30 -30 75 -30q53 0 83 38q27 33 27 84q0 58 -34 92q-30 29 -76 29z" />
    <glyph glyph-name="odieresis" unicode="&#xf6;" horiz-adv-x="520" 
d="M260 459q108 0 178 -77q61 -67 61 -160q0 -107 -78 -177q-67 -61 -161 -61q-107 0 -177 78q-61 67 -61 160q0 107 78 177q67 60 160 60zM260 343q-52 0 -82 -37q-27 -33 -27 -83q0 -59 34 -93q30 -30 75 -30q53 0 83 38q27 33 27 84q0 58 -34 92q-30 29 -76 29zM277 595
q0 30 22 51.5t53 21.5q34 0 56 -24q19 -21 19 -49q0 -31 -22 -52t-53 -21q-33 0 -55 24q-20 21 -20 49zM91 595q0 30 22 51.5t53 21.5q34 0 56 -24q19 -21 19 -49q0 -31 -22 -52t-53 -21q-33 0 -56 24q-19 21 -19 49z" />
    <glyph glyph-name="divide" unicode="&#xf7;" horiz-adv-x="556" 
d="M519 370v-116h-482v116h482zM278 569q35 0 59 -26q21 -23 21 -54q0 -35 -26 -59q-23 -21 -54 -21q-35 0 -59 27q-21 23 -21 53q0 36 27 60q22 20 53 20zM278 215q36 0 59 -27q21 -23 21 -53q0 -36 -26 -60q-23 -20 -54 -20q-35 0 -59 26q-21 23 -21 54q0 35 27 59
q22 21 53 21z" />
    <glyph glyph-name="oslash" unicode="&#xf8;" horiz-adv-x="534" 
d="M65 93q-37 58 -37 128q0 108 78 178q67 60 161 60q76 0 140 -45l34 32l64 -61l-37 -35q37 -55 37 -129q0 -107 -78 -176q-68 -61 -162 -61q-78 0 -140 45l-34 -32l-63 61zM162 184l156 147q-24 13 -52 13q-52 0 -83 -38q-27 -33 -27 -83q0 -21 6 -39zM371 260l-157 -148
q25 -13 53 -13q52 0 83 39q26 34 26 85q0 20 -5 37z" />
    <glyph glyph-name="ugrave" unicode="&#xf9;" horiz-adv-x="510" 
d="M90 645l119 62l130 -172l-87 -48zM332 21q-46 -37 -101 -37q-47 0 -88.5 23.5t-64.5 63.5q-28 48 -28 133v239h128v-231q0 -63 16 -87.5t56 -24.5q22 0 41 9t27 24q14 24 14 87v223h128v-443h-128v21z" />
    <glyph glyph-name="uacute" unicode="&#xfa;" horiz-adv-x="510" 
d="M417 645l-163 -158l-86 48l130 172zM332 21q-46 -37 -101 -37q-47 0 -88.5 23.5t-64.5 63.5q-28 48 -28 133v239h128v-231q0 -63 16 -87.5t56 -24.5q22 0 41 9t27 24q14 24 14 87v223h128v-443h-128v21z" />
    <glyph glyph-name="ucircumflex" unicode="&#xfb;" horiz-adv-x="510" 
d="M332 21q-46 -37 -101 -37q-47 0 -88.5 23.5t-64.5 63.5q-28 48 -28 133v239h128v-231q0 -63 16 -87.5t56 -24.5q22 0 41 9t27 24q14 24 14 87v223h128v-443h-128v21zM342 489l-87 85l-88 -85l-96 46l145 153h78l145 -153z" />
    <glyph glyph-name="udieresis" unicode="&#xfc;" horiz-adv-x="510" 
d="M332 21q-46 -37 -101 -37q-47 0 -88.5 23.5t-64.5 63.5q-28 48 -28 133v239h128v-231q0 -63 16 -87.5t56 -24.5q22 0 41 9t27 24q14 24 14 87v223h128v-443h-128v21zM273 595q0 30 22 51.5t53 21.5q33 0 56 -24q19 -21 19 -49q0 -33 -25 -55q-21 -18 -50 -18
q-33 0 -56 24q-19 21 -19 49zM87 595q0 30 22 51.5t53 21.5q33 0 55 -24q20 -21 20 -49q0 -31 -22 -52t-53 -21q-34 0 -56 24q-19 21 -19 49z" />
    <glyph glyph-name="yacute" unicode="&#xfd;" horiz-adv-x="474" 
d="M163 23l-175 420h137l108 -264l117 264h137l-302 -676h-135zM402 645l-163 -158l-86 48l130 172z" />
    <glyph glyph-name="thorn" unicode="&#xfe;" horiz-adv-x="544" 
d="M51 667h128v-249q55 41 115 41q102 0 170 -78q59 -68 59 -160q0 -105 -76 -176q-64 -61 -153 -61q-60 0 -115 41v-258h-128v900zM285 100q52 0 82 38q27 33 27 85q0 57 -35 91q-30 29 -74 29q-51 0 -81 -38q-26 -33 -26 -84q0 -58 33 -92q29 -29 74 -29z" />
    <glyph glyph-name="ydieresis" unicode="&#xff;" horiz-adv-x="474" 
d="M163 23l-175 420h137l108 -264l117 264h137l-302 -676h-135zM256 595q0 30 21.5 51.5t53.5 21.5q33 0 55 -24q19 -21 19 -49q0 -31 -21.5 -52t-53.5 -21q-33 0 -55 24q-19 21 -19 49zM69 595q0 30 22 51.5t53 21.5q34 0 56 -24q19 -21 19 -49q0 -31 -22 -52t-53 -21
q-33 0 -55 24q-20 21 -20 49z" />
    <glyph glyph-name="Amacron" unicode="&#x100;" horiz-adv-x="643" 
d="M453 155h-263l-56 -155h-140l249 667h157l249 -667h-141zM409 279l-88 246l-88 -246h176zM160 850h324v-110h-324v110z" />
    <glyph glyph-name="amacron" unicode="&#x101;" horiz-adv-x="543" 
d="M494 0h-129v25q-30 -22 -56 -31.5t-59 -9.5q-101 0 -169 79q-59 67 -59 159q0 106 75 176q65 61 153 61q33 0 59 -9t56 -32v25h129v-443zM260 343q-52 0 -83 -38q-26 -33 -26 -83q0 -58 34 -92q30 -30 75 -30q51 0 81 38q26 33 26 84q0 58 -33 92q-29 29 -74 29zM108 645
h324v-109h-324v109z" />
    <glyph glyph-name="Abreve" unicode="&#x102;" horiz-adv-x="643" 
d="M453 155h-263l-56 -155h-140l249 667h157l249 -667h-141zM409 279l-88 246l-88 -246h176zM163 871l111 9q1 -15 1 -25q2 -52 44 -52q40 0 47 54q1 8 3 23l111 -9q-5 -45 -7.5 -56.5t-11.5 -28.5q-21 -42 -58 -65t-83 -23q-56 0 -98 31q-37 28 -51 71q-7 18 -8 71z" />
    <glyph glyph-name="abreve" unicode="&#x103;" horiz-adv-x="543" 
d="M494 0h-129v25q-30 -22 -56 -31.5t-59 -9.5q-101 0 -169 79q-59 67 -59 159q0 106 75 176q65 61 153 61q33 0 59 -9t56 -32v25h129v-443zM260 343q-52 0 -83 -38q-26 -33 -26 -83q0 -58 34 -92q30 -30 75 -30q51 0 81 38q26 33 26 84q0 58 -33 92q-29 29 -74 29zM102 667
l111 8q1 -17 1 -26q2 -52 44 -52q40 0 47 55q1 7 3 23l111 -8q-5 -46 -7.5 -57t-11.5 -29q-21 -42 -58 -65t-84 -23q-55 0 -97 32q-37 27 -52 70q-6 19 -7 72z" />
    <glyph glyph-name="Aogonek" unicode="&#x104;" horiz-adv-x="643" 
d="M649 0q-1 -1 -3 -4l-1 -1q-28 -36 -28 -54q0 -8 10 -8q16 0 43 12l38 -93q-41 -14 -58 -18.5t-37 -4.5q-56 0 -89 32q-29 28 -29 69q0 31 26 70h-13l-55 155h-263l-56 -155h-140l249 667h157zM409 279l-88 246l-88 -246h176z" />
    <glyph glyph-name="aogonek" unicode="&#x105;" horiz-adv-x="543" 
d="M494 0q-1 -1 -3 -4q-1 0 -1 -1q-29 -36 -29 -54q0 -8 10 -8q17 0 43 12l39 -93q-41 -14 -58.5 -18.5t-37.5 -4.5q-55 0 -89 32q-29 28 -29 69q0 31 26 70v25q-30 -22 -56 -31.5t-59 -9.5q-101 0 -169 79q-59 67 -59 159q0 106 75 176q65 61 153 61q33 0 59 -9t56 -32v25
h129v-443zM260 343q-52 0 -83 -38q-26 -33 -26 -83q0 -58 34 -92q30 -30 75 -30q51 0 81 38q26 33 26 84q0 58 -33 92q-29 29 -74 29z" />
    <glyph glyph-name="Cacute" unicode="&#x106;" horiz-adv-x="674" 
d="M556 466q-47 51 -85.5 71.5t-88.5 20.5q-99 0 -163 -74q-55 -63 -55 -151q0 -100 71 -167q62 -57 147 -57q50 0 89 20.5t88 72.5l95 -89q-70 -73 -138 -103q-60 -26 -132 -26q-97 0 -180 48q-80 46 -127 125q-48 81 -48 176t48 177q47 79 127 125q83 47 179 47
q77 0 140 -30t127 -97zM553 849l-163 -157l-86 47l130 172z" />
    <glyph glyph-name="cacute" unicode="&#x107;" horiz-adv-x="461" 
d="M416 645l-163 -158l-86 48l129 172zM450 371l-82 -85q-33 34 -54.5 45.5t-52.5 11.5q-53 0 -84 -38q-26 -33 -26 -85q0 -57 35 -91q30 -29 76 -29q31 0 55.5 13.5t52.5 47.5l82 -85q-44 -49 -89 -70.5t-101 -21.5q-109 0 -179 78q-61 66 -61 160q0 107 78 177
q67 60 162 60q54 0 98 -20.5t90 -67.5z" />
    <glyph glyph-name="Ccircumflex" unicode="&#x108;" horiz-adv-x="674" 
d="M556 466q-47 51 -85.5 71.5t-88.5 20.5q-99 0 -163 -74q-55 -63 -55 -151q0 -100 71 -167q62 -57 147 -57q50 0 89 20.5t88 72.5l95 -89q-70 -73 -138 -103q-60 -26 -132 -26q-97 0 -180 48q-80 46 -127 125q-48 81 -48 176t48 177q47 79 127 125q83 47 179 47
q77 0 140 -30t127 -97zM285 693l-97 46l145 154h79l146 -154l-98 -46l-87 83z" />
    <glyph glyph-name="ccircumflex" unicode="&#x109;" horiz-adv-x="461" 
d="M450 371l-82 -85q-33 34 -54.5 45.5t-51.5 11.5q-54 0 -85 -37q-26 -33 -26 -86q0 -58 35 -91q30 -29 76 -29q32 0 56 13.5t52 47.5l82 -85q-46 -49 -90 -70.5t-100 -21.5q-109 0 -179 78q-61 66 -61 160q0 107 78 177q67 60 162 60q54 0 96 -20t92 -68zM338 489l-87 85
l-88 -85l-97 46l145 153h79l145 -153z" />
    <glyph glyph-name="Cdotaccent" unicode="&#x10a;" horiz-adv-x="674" 
d="M556 466q-47 51 -85.5 71.5t-88.5 20.5q-99 0 -163 -74q-55 -63 -55 -151q0 -100 71 -167q62 -57 147 -57q50 0 89 20.5t88 72.5l95 -89q-70 -73 -138 -103q-60 -26 -132 -26q-97 0 -180 48q-80 46 -127 125q-48 81 -48 176t48 177q47 79 127 125q83 47 179 47
q77 0 140 -30t127 -97zM303 795q0 34 26 57q22 19 52 19q35 0 58 -25q20 -22 20 -51q0 -34 -25 -56q-23 -20 -53 -20q-34 0 -58 25q-20 22 -20 51z" />
    <glyph glyph-name="cdotaccent" unicode="&#x10b;" horiz-adv-x="461" 
d="M450 371l-82 -85q-33 34 -54.5 45.5t-52.5 11.5q-53 0 -84 -38q-26 -33 -26 -85q0 -57 35 -91q30 -29 76 -29q31 0 55.5 13.5t52.5 47.5l82 -85q-44 -49 -89 -70.5t-101 -21.5q-109 0 -179 78q-61 66 -61 160q0 107 78 177q67 60 162 60q54 0 98 -20.5t90 -67.5zM176 595
q0 34 26 56q22 20 52 20q35 0 58 -25q20 -22 20 -51q0 -34 -26 -57q-22 -19 -52 -19q-35 0 -58 25q-20 22 -20 51z" />
    <glyph glyph-name="Ccaron" unicode="&#x10c;" horiz-adv-x="674" 
d="M556 466q-47 51 -85.5 71.5t-88.5 20.5q-99 0 -163 -74q-55 -63 -55 -151q0 -100 71 -167q62 -57 147 -57q50 0 89 20.5t88 72.5l95 -89q-70 -73 -138 -103q-60 -26 -132 -26q-97 0 -180 48q-80 46 -127 125q-48 81 -48 176t48 177q47 79 127 125q83 47 179 47
q77 0 140 -30t127 -97zM285 899l88 -83l87 83l98 -46l-146 -154h-79l-145 154z" />
    <glyph glyph-name="ccaron" unicode="&#x10d;" horiz-adv-x="460" 
d="M450 371l-82 -85q-33 34 -54.5 45.5t-52.5 11.5q-53 0 -84 -38q-26 -33 -26 -85q0 -57 35 -91q30 -29 76 -29q31 0 55.5 13.5t52.5 47.5l82 -85q-44 -49 -89 -70.5t-101 -21.5q-109 0 -179 78q-61 66 -61 160q0 107 78 177q67 60 162 60q54 0 98 -20.5t90 -67.5zM338 699
l97 -47l-145 -152h-79l-145 152l97 47l88 -85z" />
    <glyph glyph-name="Dcaron" unicode="&#x10e;" horiz-adv-x="620" 
d="M67 667h159q178 0 278 -103q87 -89 87 -230q0 -163 -112 -255q-98 -79 -253 -79h-159v667zM200 543v-419h29q114 0 175 63q53 56 53 147q0 104 -69 160q-60 49 -159 49h-29zM204 899l87 -83l88 83l97 -46l-145 -154h-79l-145 154z" />
    <glyph glyph-name="dcaron" unicode="&#x10f;" horiz-adv-x="686" 
d="M494 0h-129v25q-30 -22 -56 -31.5t-59 -9.5q-101 0 -169 79q-59 67 -59 159q0 106 75 176q65 61 153 61q33 0 59 -9t56 -32v249h129v-667zM260 343q-53 0 -83 -38q-26 -33 -26 -85q0 -57 34 -91q30 -29 75 -29q51 0 81 38q25 33 25 84q0 58 -33 92q-29 29 -73 29z
M583 706l121 -36l-86 -192l-96 29z" />
    <glyph glyph-name="Dcroat" unicode="&#x110;" horiz-adv-x="632" 
d="M79 418v249h158q179 0 279 -103q87 -89 87 -230q0 -163 -113 -255q-97 -79 -253 -79h-158v298h-62v120h62zM212 418h143v-120h-143v-174h28q115 0 176 63q53 55 53 147q0 104 -69 160q-60 49 -160 49h-28v-125z" />
    <glyph glyph-name="dcroat" unicode="&#x111;" horiz-adv-x="546" 
d="M365 497h-109v112h109v58h129v-58h55v-112h-55v-497h-129v25q-30 -22 -56 -31.5t-59 -9.5q-101 0 -169 79q-59 67 -59 159q0 106 75 176q65 61 153 61q33 0 59 -9t56 -32v79zM260 343q-53 0 -83 -38q-26 -33 -26 -85q0 -57 34 -91q30 -29 75 -29q51 0 81 38q25 33 25 84
q0 58 -33 92q-29 29 -73 29z" />
    <glyph glyph-name="Emacron" unicode="&#x112;" horiz-adv-x="489" 
d="M449 667v-123h-249v-145h221v-123h-221v-152h258v-124h-391v667h382zM101 850h324v-110h-324v110z" />
    <glyph glyph-name="emacron" unicode="&#x113;" horiz-adv-x="493" 
d="M465 110q-78 -126 -210 -126q-107 0 -174 77q-59 67 -59 161q0 107 74 176q64 61 153 61q104 0 167 -79q56 -68 56 -168q0 -7 -1 -35h-318q24 -79 101 -79q64 0 99 56zM345 266q-26 81 -96 81q-74 0 -96 -81h192zM85 645h324v-109h-324v109z" />
    <glyph glyph-name="Ebreve" unicode="&#x114;" horiz-adv-x="489" 
d="M449 667v-123h-249v-145h221v-123h-221v-152h258v-124h-391v667h382zM104 871l111 9q1 -15 1 -25q2 -52 44 -52q40 0 47 54q1 8 3 23l111 -9q-5 -45 -7.5 -56.5t-11.5 -28.5q-21 -42 -58 -65t-83 -23q-56 0 -98 31q-37 28 -51 71q-7 18 -8 71z" />
    <glyph glyph-name="ebreve" unicode="&#x115;" horiz-adv-x="493" 
d="M465 110q-78 -126 -210 -126q-107 0 -174 77q-59 67 -59 161q0 107 74 176q64 61 153 61q104 0 167 -79q56 -68 56 -168q0 -7 -1 -35h-318q24 -79 101 -79q64 0 99 56zM345 266q-26 81 -96 81q-74 0 -96 -81h192zM88 667l111 8q1 -16 1 -26q2 -52 44 -52q40 0 47 55
q1 7 4 23l111 -8q-6 -46 -8.5 -57t-10.5 -29q-22 -42 -59 -65t-83 -23q-56 0 -98 32q-37 27 -51 70q-7 19 -8 72z" />
    <glyph glyph-name="Edotaccent" unicode="&#x116;" horiz-adv-x="489" 
d="M449 667v-123h-249v-145h221v-123h-221v-152h258v-124h-391v667h382zM185 795q0 34 25 57q22 19 53 19q34 0 57 -25q21 -22 21 -51q0 -34 -26 -56q-22 -20 -52 -20q-35 0 -58 25q-20 22 -20 51z" />
    <glyph glyph-name="edotaccent" unicode="&#x117;" horiz-adv-x="493" 
d="M465 110q-78 -126 -210 -126q-107 0 -174 77q-59 67 -59 161q0 107 74 176q64 61 153 61q104 0 167 -79q56 -68 56 -168q0 -7 -1 -35h-318q24 -79 101 -79q64 0 99 56zM345 266q-26 81 -96 81q-74 0 -96 -81h192zM168 595q0 34 26 56q22 20 52 20q35 0 58 -25
q20 -22 20 -51q0 -34 -26 -57q-22 -19 -52 -19q-35 0 -58 25q-20 21 -20 51z" />
    <glyph glyph-name="Eogonek" unicode="&#x118;" horiz-adv-x="489" 
d="M458 0q-1 -1 -3 -4l-1 -1q-28 -36 -28 -54q0 -8 10 -8q16 0 43 12l38 -93q-41 -14 -58 -18.5t-37 -4.5q-56 0 -89 32q-29 28 -29 69q0 31 26 70h-263v667h382v-123h-249v-145h221v-123h-221v-152h258v-124z" />
    <glyph glyph-name="eogonek" unicode="&#x119;" horiz-adv-x="493" 
d="M307 -10q-25 -33 -25 -49q0 -8 10 -8q16 0 43 12l38 -93q-40 -14 -57.5 -18.5t-37.5 -4.5q-55 0 -89 32q-29 28 -29 68q0 29 23 66q-78 25 -122 93q-39 59 -39 134q0 106 74 176q64 61 153 61q104 0 167 -79q56 -68 56 -168q0 -7 -1 -35h-318q24 -79 101 -79q64 0 99 56
l112 -44q-33 -52 -70 -80.5t-88 -39.5zM345 266q-26 81 -96 81q-74 0 -96 -81h192z" />
    <glyph glyph-name="Ecaron" unicode="&#x11a;" horiz-adv-x="489" 
d="M449 667v-123h-249v-145h221v-123h-221v-152h258v-124h-391v667h382zM176 899l87 -83l87 83l98 -46l-145 -154h-79l-146 154z" />
    <glyph glyph-name="ecaron" unicode="&#x11b;" horiz-adv-x="493" 
d="M465 110q-78 -126 -210 -126q-107 0 -174 77q-59 67 -59 161q0 107 74 176q64 61 153 61q104 0 167 -79q56 -68 56 -168q0 -7 -1 -35h-318q24 -79 101 -79q64 0 99 56zM345 266q-26 81 -96 81q-74 0 -96 -81h192zM334 699l97 -47l-145 -152h-79l-145 152l97 47l88 -85z
" />
    <glyph glyph-name="Gcircumflex" unicode="&#x11c;" horiz-adv-x="728" 
d="M376 373h321v-63q0 -157 -97 -247q-84 -79 -214 -79q-98 0 -181 48q-81 46 -128 124q-48 82 -48 177q0 96 48 177q47 79 128 125q82 47 180 47q76 0 137 -28t131 -95l-94 -89q-50 50 -87.5 69t-87.5 19q-101 0 -165 -73q-55 -63 -55 -152q0 -102 72 -167q62 -57 150 -57
q82 0 132 56q29 32 40 85h-182v123zM282 693l-97 46l145 154h79l145 -154l-97 -46l-88 83z" />
    <glyph glyph-name="gcircumflex" unicode="&#x11d;" horiz-adv-x="543" 
d="M365 25q-32 -23 -57 -32t-58 -9q-102 0 -169 79q-59 67 -59 159q0 106 75 176q65 61 153 61q33 0 58 -9t57 -32v25h129v-452q0 -114 -76 -182q-66 -58 -166 -58q-104 0 -178 68q-17 15 -46 50l85 82q9 -10 20 -23q52 -61 119 -61q58 0 87 37q26 32 26 87v34zM260 343
q-52 0 -82 -37q-27 -33 -27 -82q0 -60 34 -94q29 -30 75 -30q51 0 81 38q25 33 25 84q0 58 -33 92q-29 29 -73 29zM345 489l-87 85l-88 -85l-97 46l145 153h79l145 -153z" />
    <glyph glyph-name="Gbreve" unicode="&#x11e;" horiz-adv-x="728" 
d="M376 373h321v-63q0 -157 -97 -247q-84 -79 -214 -79q-98 0 -181 48q-81 46 -128 124q-48 82 -48 177q0 96 48 177q47 79 128 125q82 47 180 47q76 0 137 -28t131 -95l-94 -89q-50 50 -87.5 69t-87.5 19q-101 0 -165 -73q-55 -63 -55 -152q0 -102 72 -167q62 -57 150 -57
q82 0 132 56q29 32 40 85h-182v123zM230 871l111 9q1 -18 1 -25q2 -52 44 -52q40 0 47 54l3 23l111 -9q-5 -46 -7.5 -57t-11.5 -28q-21 -42 -58 -65t-83 -23q-56 0 -98 31q-37 28 -52 71q-6 19 -7 71z" />
    <glyph glyph-name="gbreve" unicode="&#x11f;" horiz-adv-x="543" 
d="M365 25q-32 -23 -57 -32t-58 -9q-102 0 -169 79q-59 67 -59 159q0 106 75 176q65 61 153 61q33 0 58 -9t57 -32v25h129v-452q0 -114 -76 -182q-66 -58 -166 -58q-104 0 -178 68q-17 15 -46 50l85 82q9 -10 20 -23q52 -61 119 -61q58 0 87 37q26 32 26 87v34zM260 343
q-52 0 -82 -37q-27 -33 -27 -82q0 -60 34 -94q29 -30 75 -30q51 0 81 38q25 33 25 84q0 58 -33 92q-29 29 -73 29zM102 667l111 8q1 -17 1 -26q2 -52 44 -52q40 0 47 55q1 7 3 23l111 -8q-5 -46 -7.5 -57t-11.5 -29q-21 -42 -58 -65t-83 -23q-56 0 -98 32q-37 27 -51 70
q-7 19 -8 72z" />
    <glyph glyph-name="Gdotaccent" unicode="&#x120;" horiz-adv-x="728" 
d="M376 373h321v-63q0 -157 -97 -247q-84 -79 -214 -79q-98 0 -181 48q-81 46 -128 124q-48 82 -48 177q0 96 48 177q47 79 128 125q82 47 180 47q76 0 137 -28t131 -95l-94 -89q-50 50 -87.5 69t-87.5 19q-101 0 -165 -73q-55 -63 -55 -152q0 -102 72 -167q62 -57 150 -57
q82 0 132 56q29 32 40 85h-182v123zM308 795q0 34 26 57q22 19 52 19q35 0 58 -25q20 -21 20 -51q0 -34 -26 -57q-22 -19 -52 -19q-35 0 -58 25q-20 22 -20 51z" />
    <glyph glyph-name="gdotaccent" unicode="&#x121;" horiz-adv-x="543" 
d="M365 25q-32 -23 -57 -32t-58 -9q-102 0 -169 79q-59 67 -59 159q0 106 75 176q65 61 153 61q33 0 58 -9t57 -32v25h129v-452q0 -114 -76 -182q-66 -58 -166 -58q-104 0 -178 68q-17 15 -46 50l85 82q9 -10 20 -23q52 -61 119 -61q58 0 87 37q26 32 26 87v34zM260 343
q-52 0 -82 -37q-27 -33 -27 -82q0 -60 34 -94q29 -30 75 -30q51 0 81 38q25 33 25 84q0 58 -33 92q-29 29 -73 29zM180 595q0 34 26 56q22 20 52 20q35 0 58 -25q20 -22 20 -51q0 -34 -26 -57q-22 -19 -52 -19q-35 0 -58 25q-20 21 -20 51z" />
    <glyph glyph-name="Gcommaaccent" unicode="&#x122;" horiz-adv-x="728" 
d="M376 373h321v-63q0 -157 -97 -247q-84 -79 -214 -79q-98 0 -181 48q-81 46 -128 124q-48 82 -48 177q0 96 48 177q47 79 128 125q82 47 180 47q76 0 137 -28t131 -95l-94 -89q-50 50 -87.5 69t-87.5 19q-101 0 -165 -73q-55 -63 -55 -152q0 -102 72 -167q62 -57 150 -57
q82 0 132 56q29 32 40 85h-182v123zM334 -19l120 -36l-86 -192l-95 29z" />
    <glyph glyph-name="gcommaaccent" unicode="&#x123;" horiz-adv-x="543" 
d="M365 25q-32 -23 -57 -32t-58 -9q-102 0 -169 79q-59 67 -59 159q0 106 75 176q65 61 153 61q33 0 58 -9t57 -32v25h129v-452q0 -114 -76 -182q-66 -58 -166 -58q-104 0 -178 68q-17 15 -46 50l85 82q9 -10 20 -23q52 -61 119 -61q58 0 87 37q26 32 26 87v34zM260 343
q-52 0 -82 -37q-27 -33 -27 -82q0 -60 34 -94q29 -30 75 -30q51 0 81 38q25 33 25 84q0 58 -33 92q-29 29 -73 29zM313 478l-121 35l86 192l96 -29z" />
    <glyph glyph-name="Hcircumflex" unicode="&#x124;" horiz-adv-x="652" 
d="M200 667v-268h252v268h133v-667h-133v276h-252v-276h-133v667h133zM239 693l-98 46l146 154h79l145 -154l-98 -46l-87 83z" />
    <glyph glyph-name="hcircumflex" unicode="&#x125;" horiz-adv-x="510" 
d="M178 423q46 36 101 36q47 0 88.5 -23.5t64.5 -63.5q28 -48 28 -133v-239h-128v232q0 62 -16 86.5t-56 24.5q-23 0 -41.5 -9t-26.5 -24q-14 -24 -14 -87v-223h-128v667h128v-244zM170 693l-98 46l146 154h79l145 -154l-97 -46l-88 83z" />
    <glyph glyph-name="Hbar" unicode="&#x126;" horiz-adv-x="648" 
d="M449 609v58h134v-58h55v-113h-55v-496h-134v276h-251v-276h-133v496h-56v113h56v58h133v-58h251zM449 496h-251v-97h251v97z" />
    <glyph glyph-name="hbar" unicode="&#x127;" horiz-adv-x="506" 
d="M46 497h-56v112h56v58h128v-58h111v-112h-111v-74q46 36 100 36q47 0 89 -23.5t65 -63.5q27 -48 27 -133v-239h-128v232q0 63 -15.5 87t-56.5 24q-22 0 -40.5 -9t-27.5 -24q-13 -24 -13 -87v-223h-128v497z" />
    <glyph glyph-name="Itilde" unicode="&#x128;" horiz-adv-x="267" 
d="M200 667v-667h-133v667h133zM190 873l106 -24q-4 -53 -20 -81q-12 -20 -34.5 -32t-49.5 -12q-41 0 -79 21q-16 9 -26 9q-7 0 -9 -15q-1 -8 -4 -21l-104 23q12 125 107 125q34 0 79 -23q16 -9 24 -9q7 0 8 16q0 8 2 23z" />
    <glyph glyph-name="itilde" unicode="&#x129;" horiz-adv-x="229" 
d="M178 443v-443h-128v443h128zM171 669l106 -24q-4 -53 -20 -81q-12 -20 -35 -32t-49 -12q-41 0 -79 21q-16 9 -26 9q-7 0 -9 -15q-1 -8 -4 -22l-104 24q12 124 107 124q34 0 79 -23q16 -8 24 -8q7 0 8 16q0 7 2 23z" />
    <glyph glyph-name="Imacron" unicode="&#x12a;" horiz-adv-x="267" 
d="M201 667v-667h-134v667h134zM-28 850h324v-110h-324v110z" />
    <glyph glyph-name="imacron" unicode="&#x12b;" horiz-adv-x="229" 
d="M179 443v-443h-128v443h128zM-47 645h324v-109h-324v109z" />
    <glyph glyph-name="Ibreve" unicode="&#x12c;" horiz-adv-x="267" 
d="M200 667v-667h-133v667h133zM-25 871l111 9q1 -16 1 -25q2 -52 44 -52q40 0 47 54q1 8 4 23l110 -9q-5 -45 -7.5 -56.5t-11.5 -28.5q-21 -42 -58 -65t-83 -23q-56 0 -98 31q-37 28 -51 71q-7 19 -8 71z" />
    <glyph glyph-name="ibreve" unicode="&#x12d;" horiz-adv-x="229" 
d="M179 443v-443h-128v443h128zM-44 667l111 8q1 -17 1 -26q2 -52 44 -52q40 0 47 55q1 7 4 23l110 -8q-5 -46 -7.5 -57t-11.5 -29q-21 -42 -58 -65t-83 -23q-56 0 -98 32q-37 27 -51 70q-7 19 -8 72z" />
    <glyph glyph-name="Iogonek" unicode="&#x12e;" horiz-adv-x="267" 
d="M200 0q-1 -2 -4 -5q-28 -36 -28 -54q0 -8 10 -8q16 0 43 12l38 -93q-40 -14 -57.5 -18.5t-37.5 -4.5q-55 0 -89 32q-29 28 -29 69q0 31 26 70h-5v667h133v-667z" />
    <glyph glyph-name="iogonek" unicode="&#x12f;" horiz-adv-x="229" 
d="M178 0v0q-2 -2 -4 -5q-28 -36 -28 -54q0 -8 10 -8q16 0 43 12l38 -93q-40 -14 -57.5 -18.5t-37.5 -4.5q-55 0 -89 32q-29 28 -29 68q0 33 26 71v443h128v-443zM36 595q0 34 26 56q22 20 52 20q35 0 58 -25q20 -22 20 -51q0 -34 -25 -57q-23 -19 -53 -19q-34 0 -58 25
q-20 21 -20 51z" />
    <glyph glyph-name="Idotaccent" unicode="&#x130;" horiz-adv-x="267" 
d="M201 667v-667h-134v667h134zM56 795q0 34 26 57q22 19 52 19q35 0 58 -25q20 -21 20 -51q0 -34 -26 -57q-22 -19 -52 -19q-35 0 -58 25q-20 22 -20 51z" />
    <glyph glyph-name="dotlessi" unicode="&#x131;" horiz-adv-x="229" 
d="M179 443v-443h-128v443h128z" />
    <glyph glyph-name="IJ" unicode="&#x132;" horiz-adv-x="691" 
d="M200 667v-667h-133v667h133zM624 667v-459q0 -49 -6.5 -79.5t-23.5 -59.5q-22 -40 -63 -62.5t-92 -22.5t-94 21t-91 70l82 96q56 -62 99 -62q56 0 56 99v459h133z" />
    <glyph glyph-name="ij" unicode="&#x133;" horiz-adv-x="463" 
d="M37 595q0 34 26 56q22 20 52 20q35 0 58 -25q20 -22 20 -51q0 -34 -26 -57q-22 -19 -52 -19q-35 0 -58 25q-20 21 -20 51zM179 443v-443h-128v443h128zM413 443v-532q0 -79 -38 -119q-34 -36 -90 -36q-33 0 -73 13v119q36 -13 54 -13q19 0 19 39v529h128zM271 595
q0 34 25 56q22 20 53 20q34 0 58 -25q20 -22 20 -51q0 -34 -26 -57q-22 -19 -52 -19q-35 0 -58 25q-20 21 -20 51z" />
    <glyph glyph-name="Jcircumflex" unicode="&#x134;" horiz-adv-x="427" 
d="M359 667v-459q0 -49 -6 -79.5t-23 -59.5q-22 -40 -63.5 -62.5t-92.5 -22.5q-50 0 -93 21t-91 70l81 96q56 -62 99 -62q56 0 56 99v459h133zM170 693l-97 46l145 154h79l145 -154l-97 -46l-87 83z" />
    <glyph glyph-name="jcircumflex" unicode="&#x135;" horiz-adv-x="237" 
d="M187 443v-532q0 -78 -38 -119q-33 -36 -90 -36q-33 0 -73 13v119q36 -13 54 -13q19 0 19 39v529h128zM198 489l-88 85l-87 -85l-97 46l145 153h79l145 -153z" />
    <glyph glyph-name="Kcommaaccent" unicode="&#x136;" horiz-adv-x="604" 
d="M347 384l257 -384h-157l-191 287l-56 -61v-226h-133v667h133v-260l241 260h169zM284 -19l121 -36l-86 -192l-96 29z" />
    <glyph glyph-name="kcommaaccent" unicode="&#x137;" horiz-adv-x="491" 
d="M300 256l202 -256h-159l-132 170l-33 -32v-138h-128v667h128v-365l144 141h170zM214 -19l121 -36l-86 -192l-96 29z" />
    <glyph glyph-name="kgreenlandic" unicode="&#x138;" horiz-adv-x="491" 
d="M300 256l202 -256h-159l-132 170l-33 -32v-138h-128v443h128v-141l144 141h170z" />
    <glyph glyph-name="Lacute" unicode="&#x139;" horiz-adv-x="437" 
d="M67 667h133v-545h240v-122h-373v667zM307 849l-163 -157l-86 47l130 172z" />
    <glyph glyph-name="lacute" unicode="&#x13a;" horiz-adv-x="230" 
d="M288 857l-163 -158l-86 47l130 172zM179 0h-128v667h128v-667z" />
    <glyph glyph-name="Lcommaaccent" unicode="&#x13b;" horiz-adv-x="440" 
d="M67 667h133v-545h240v-122h-373v667zM231 -19l120 -36l-86 -192l-95 29z" />
    <glyph glyph-name="lcommaaccent" unicode="&#x13c;" horiz-adv-x="230" 
d="M180 0h-128v667h128v-667zM71 -19l121 -36l-86 -192l-96 29z" />
    <glyph glyph-name="Lcaron" unicode="&#x13d;" horiz-adv-x="440" 
d="M67 667h133v-545h240v-122h-373v667zM311 698l120 -35l-86 -192l-95 28z" />
    <glyph glyph-name="lcaron" unicode="&#x13e;" horiz-adv-x="371" 
d="M179 0h-128v667h128v-667zM269 706l121 -36l-86 -192l-96 29z" />
    <glyph glyph-name="Ldot" unicode="&#x13f;" horiz-adv-x="440" 
d="M67 667h133v-545h240v-122h-373v667zM267 333q0 34 25 57q23 19 53 19q35 0 58 -25q20 -21 20 -51q0 -34 -26 -56q-22 -20 -52 -20q-35 0 -58 25q-20 22 -20 51z" />
    <glyph glyph-name="ldot" unicode="&#x140;" horiz-adv-x="382" 
d="M228 333q0 34 26 57q22 19 52 19q35 0 58 -25q20 -21 20 -51q0 -34 -26 -56q-22 -20 -52 -20q-35 0 -58 25q-20 22 -20 51zM179 0h-128v667h128v-667z" />
    <glyph glyph-name="Lslash" unicode="&#x141;" horiz-adv-x="453" 
d="M212 452l106 66v-133l-106 -67v-196h240v-122h-373v235l-64 -40v132l64 40v300h133v-215z" />
    <glyph glyph-name="lslash" unicode="&#x142;" horiz-adv-x="273" 
d="M72 245l-60 -39v133l60 39v289h128v-207l60 39v-133l-60 -39v-327h-128v245z" />
    <glyph glyph-name="Nacute" unicode="&#x143;" horiz-adv-x="708" 
d="M67 0v667h113l327 -434v434h134v-667h-113l-328 434v-434h-133zM538 849l-163 -157l-86 47l130 172z" />
    <glyph glyph-name="nacute" unicode="&#x144;" horiz-adv-x="510" 
d="M434 645l-163 -158l-86 48l129 172zM178 423q46 36 101 36q47 0 88.5 -23.5t64.5 -63.5q28 -48 28 -133v-239h-128v232q0 62 -16 86.5t-56 24.5q-23 0 -41.5 -9t-26.5 -24q-14 -24 -14 -87v-223h-128v443h128v-20z" />
    <glyph glyph-name="Ncommaaccent" unicode="&#x145;" horiz-adv-x="708" 
d="M67 0v667h113l327 -434v434h134v-667h-113l-328 434v-434h-133zM325 -19l120 -36l-86 -192l-95 29z" />
    <glyph glyph-name="ncommaaccent" unicode="&#x146;" horiz-adv-x="510" 
d="M178 423q46 36 101 36q47 0 88.5 -23.5t64.5 -63.5q28 -48 28 -133v-239h-128v232q0 62 -16 86.5t-56 24.5q-23 0 -41.5 -9t-26.5 -24q-14 -24 -14 -87v-223h-128v443h128v-20zM226 -19l120 -36l-85 -192l-96 29z" />
    <glyph glyph-name="Ncaron" unicode="&#x147;" horiz-adv-x="708" 
d="M67 0v667h113l327 -434v434h134v-667h-113l-328 434v-434h-133zM283 899l87 -83l88 83l97 -46l-145 -154h-79l-145 154z" />
    <glyph glyph-name="ncaron" unicode="&#x148;" horiz-adv-x="510" 
d="M178 423q46 36 101 36q47 0 88.5 -23.5t64.5 -63.5q28 -48 28 -133v-239h-128v232q0 62 -16 86.5t-56 24.5q-23 0 -41.5 -9t-26.5 -24q-14 -24 -14 -87v-223h-128v443h128v-20zM347 699l97 -47l-145 -152h-79l-144 152l96 47l88 -85z" />
    <glyph glyph-name="napostrophe" unicode="&#x149;" horiz-adv-x="609" 
d="M87 687l115 -40l-122 -263l-93 36zM277 423q46 36 101 36q47 0 88.5 -23.5t64.5 -63.5q28 -48 28 -133v-239h-128v232q0 62 -16 86.5t-56 24.5q-22 0 -41 -9t-27 -24q-14 -24 -14 -87v-223h-128v443h128v-20z" />
    <glyph glyph-name="Eng" unicode="&#x14a;" horiz-adv-x="708" 
d="M641 667v-667q-1 -78 -39 -118q-33 -35 -89 -35q-33 0 -73 12v120q36 -13 54 -13t18 38v16l-312 414v-434h-133v667h113l327 -434v434h134z" />
    <glyph glyph-name="eng" unicode="&#x14b;" horiz-adv-x="510" 
d="M178 423q46 36 101 36q47 0 88.5 -23.5t64.5 -63.5q14 -24 19.5 -51t8.5 -82q2 -27 2 -151q0 -89 -4 -122t-19 -61q-15 -27 -43.5 -42.5t-63.5 -15.5q-33 0 -73 13v119q36 -13 54 -13q19 0 19 37v203v26q0 62 -16 86.5t-56 24.5q-23 0 -41.5 -9t-26.5 -24
q-14 -24 -14 -87v-223h-128v443h128v-20z" />
    <glyph glyph-name="Omacron" unicode="&#x14c;" horiz-adv-x="762" 
d="M29 332q0 95 48 177q47 79 127 125q82 48 177 48t177 -48q80 -46 127 -125q48 -82 48 -176t-48 -175q-47 -79 -127 -126q-82 -48 -177 -48t-177 48q-79 47 -127 126q-48 81 -48 174zM164 333q0 -99 72 -166q62 -58 145 -58q96 0 161 74q57 64 57 150q0 100 -72 167
q-62 58 -146 58q-97 0 -162 -74q-55 -64 -55 -151zM219 850h324v-110h-324v110z" />
    <glyph glyph-name="omacron" unicode="&#x14d;" horiz-adv-x="520" 
d="M260 459q108 0 178 -77q61 -67 61 -160q0 -107 -78 -177q-67 -61 -161 -61q-107 0 -177 78q-61 67 -61 160q0 107 78 177q67 60 160 60zM260 343q-52 0 -82 -37q-27 -33 -27 -83q0 -59 34 -93q30 -30 75 -30q53 0 83 38q27 33 27 84q0 58 -35 92q-29 29 -75 29zM98 645
h324v-109h-324v109z" />
    <glyph glyph-name="Obreve" unicode="&#x14e;" horiz-adv-x="762" 
d="M29 332q0 95 48 177q47 79 127 125q82 48 177 48t177 -48q80 -46 127 -125q48 -82 48 -176t-48 -175q-47 -79 -127 -126q-82 -48 -177 -48t-177 48q-79 47 -127 126q-48 81 -48 174zM164 333q0 -99 72 -166q62 -58 145 -58q96 0 161 74q57 64 57 150q0 100 -72 167
q-62 58 -146 58q-97 0 -162 -74q-55 -64 -55 -151zM222 871l111 9q1 -16 2 -25q2 -52 44 -52q39 0 47 54q1 8 3 23l111 -9q-5 -45 -8 -56.5t-11 -28.5q-21 -42 -58 -65t-84 -23q-55 0 -98 31q-36 28 -51 71q-6 19 -8 71z" />
    <glyph glyph-name="obreve" unicode="&#x14f;" horiz-adv-x="520" 
d="M260 459q108 0 178 -77q61 -67 61 -160q0 -107 -78 -177q-67 -61 -161 -61q-107 0 -177 78q-61 67 -61 160q0 107 78 177q67 60 160 60zM260 343q-52 0 -82 -37q-27 -33 -27 -83q0 -59 34 -93q30 -30 75 -30q53 0 83 38q27 33 27 84q0 58 -35 92q-29 29 -75 29zM102 667
l111 8q1 -17 1 -26q2 -52 44 -52q40 0 47 55q1 7 3 23l111 -8q-5 -46 -7.5 -57t-11.5 -29q-21 -42 -58 -65t-84 -23q-55 0 -97 32q-37 27 -52 70q-6 19 -7 72z" />
    <glyph glyph-name="Ohungarumlaut" unicode="&#x150;" horiz-adv-x="762" 
d="M476 852l42 58l105 -60l-163 -157l-69 41l84 117l-164 -158l-72 46l129 171zM29 332q0 95 48 177q47 79 127 125q82 48 177 48t177 -48q80 -46 127 -125q48 -82 48 -176t-48 -175q-47 -79 -127 -126q-82 -48 -177 -48t-177 48q-79 47 -127 126q-48 81 -48 174zM164 333
q0 -99 72 -166q62 -58 145 -58q96 0 161 74q57 64 57 150q0 100 -72 167q-62 58 -146 58q-97 0 -162 -74q-55 -64 -55 -151z" />
    <glyph glyph-name="ohungarumlaut" unicode="&#x151;" horiz-adv-x="530" 
d="M361 646l42 59l105 -61l-162 -157l-70 42l84 116l-163 -158l-73 47l129 171zM260 459q108 0 178 -77q61 -67 61 -160q0 -107 -78 -177q-67 -61 -161 -61q-107 0 -177 78q-61 67 -61 160q0 107 78 177q67 60 160 60zM260 343q-52 0 -82 -37q-27 -33 -27 -83q0 -59 34 -93
q30 -30 75 -30q53 0 83 38q27 33 27 84q0 58 -34 92q-30 29 -76 29z" />
    <glyph glyph-name="OE" unicode="&#x152;" horiz-adv-x="1021" 
d="M990 0h-391v61q-97 -77 -215 -77q-96 0 -179 48q-80 46 -127 125q-49 82 -49 176q0 95 49 176q47 79 127 125q82 48 178 48q119 0 216 -76v61h382v-123h-250v-145h222v-123h-222v-154h259v-122zM164 333q0 -100 72 -167q62 -58 145 -58q96 0 161 74q57 64 57 151
q0 100 -72 167q-62 58 -146 58q-97 0 -161 -74q-56 -64 -56 -151z" />
    <glyph glyph-name="oe" unicode="&#x153;" horiz-adv-x="841" 
d="M433 386q70 73 162 73q105 0 169 -79q55 -68 55 -168v-35h-318q24 -79 100 -79q65 0 99 56l113 -45q-78 -125 -212 -125q-100 0 -168 73q-72 -73 -171 -73q-109 0 -179 78q-61 67 -61 160q0 107 78 177q67 60 161 60q102 0 172 -73zM692 266q-26 81 -95 81q-74 0 -96 -81
h191zM260 343q-52 0 -83 -38q-26 -33 -26 -83q0 -58 34 -93q30 -29 75 -29q53 0 83 38q27 33 27 84q0 58 -35 92q-29 29 -75 29z" />
    <glyph glyph-name="Racute" unicode="&#x154;" horiz-adv-x="561" 
d="M399 0l-136 243h-4q-14 -1 -33 -1h-26v-242h-133v667h159q101 0 157 -32q51 -29 79 -83q24 -46 24 -100t-24.5 -99t-69.5 -74l157 -279h-150zM200 363h34q68 0 97 25q25 21 25 65q0 55 -40 77q-26 15 -82 15h-34v-182zM427 849l-162 -157l-87 47l130 172z" />
    <glyph glyph-name="racute" unicode="&#x155;" horiz-adv-x="311" 
d="M317 645l-163 -158l-86 48l130 172zM178 419q38 27 81 27q17 0 44 -3v-114q-30 3 -44 3q-49 0 -66 -29q-15 -26 -15 -89v-214h-128v443h128v-24z" />
    <glyph glyph-name="Rcommaaccent" unicode="&#x156;" horiz-adv-x="561" 
d="M399 0l-136 243h-4q-14 -1 -33 -1h-26v-242h-133v667h159q101 0 157 -32q51 -29 79 -83q24 -46 24 -100t-24.5 -99t-69.5 -74l157 -279h-150zM200 363h34q68 0 97 25q25 21 25 65q0 55 -40 77q-26 15 -82 15h-34v-182zM254 -19l121 -36l-86 -192l-96 29z" />
    <glyph glyph-name="rcommaaccent" unicode="&#x157;" horiz-adv-x="311" 
d="M178 419q38 27 80 27q18 0 45 -3v-114q-30 3 -44 3q-49 0 -66 -29q-15 -26 -15 -89v-214h-128v443h128v-24zM63 -19l121 -36l-86 -192l-96 29z" />
    <glyph glyph-name="Rcaron" unicode="&#x158;" horiz-adv-x="561" 
d="M399 0l-136 243h-4q-14 -1 -33 -1h-26v-242h-133v667h159q101 0 157 -32q51 -29 79 -83q24 -46 24 -100t-24.5 -99t-69.5 -74l157 -279h-150zM200 363h34q68 0 97 25q25 21 25 65q0 55 -40 77q-26 15 -82 15h-34v-182zM174 899l88 -83l87 83l97 -46l-145 -154h-79
l-145 154z" />
    <glyph glyph-name="rcaron" unicode="&#x159;" horiz-adv-x="311" 
d="M179 419q37 27 80 27q18 0 44 -3v-114q-29 3 -44 3q-48 0 -65 -29q-15 -26 -15 -89v-214h-129v443h129v-24zM265 699l97 -47l-145 -152h-79l-145 152l97 47l87 -85z" />
    <glyph glyph-name="Sacute" unicode="&#x15a;" horiz-adv-x="525" 
d="M483 550l-109 -68q-30 46 -50.5 61t-52.5 15q-38 0 -62 -23q-20 -21 -20 -51q0 -41 72 -68l62 -23q166 -63 166 -191q0 -99 -75 -162q-65 -56 -156 -56q-54 0 -101.5 21.5t-76.5 59.5q-35 45 -53 124l130 34q14 -56 27 -75q27 -39 76 -39q43 0 71 30q24 26 24 61
q0 26 -20 44t-70 37l-58 22q-151 58 -151 182q0 91 70 148q61 49 148 49q68 0 117 -30.5t92 -101.5zM445 849l-163 -157l-87 47l130 172z" />
    <glyph glyph-name="sacute" unicode="&#x15b;" horiz-adv-x="389" 
d="M364 645l-163 -158l-86 48l130 172zM17 120l108 40q18 -34 34 -48t39 -14q18 0 29.5 10t11.5 27q0 11 -8.5 18t-36.5 19l-59 23q-91 36 -91 121q0 65 52 107q45 36 109 36q104 0 160 -103l-102 -49q-27 40 -59 40q-37 0 -37 -29q0 -11 8 -17.5t36 -16.5l51 -20
q105 -40 105 -124q0 -71 -55 -116q-48 -40 -116 -40q-127 0 -179 136z" />
    <glyph glyph-name="Scircumflex" unicode="&#x15c;" horiz-adv-x="525" 
d="M483 550l-109 -68q-30 46 -50.5 61t-52.5 15q-38 0 -62 -23q-20 -21 -20 -51q0 -41 72 -68l62 -23q166 -63 166 -191q0 -99 -75 -162q-65 -56 -156 -56q-54 0 -101.5 21.5t-76.5 59.5q-35 45 -53 124l130 34q14 -56 27 -75q27 -39 76 -39q43 0 71 30q24 26 24 61
q0 26 -20 44t-70 37l-58 22q-151 58 -151 182q0 91 70 148q61 49 148 49q68 0 117 -30.5t92 -101.5zM172 693l-97 46l145 154h79l145 -154l-97 -46l-88 83z" />
    <glyph glyph-name="scircumflex" unicode="&#x15d;" horiz-adv-x="396" 
d="M18 120l108 40q18 -34 34 -48t39 -14q19 0 30 10t11 27q0 11 -8.5 18t-36.5 19l-59 23q-91 36 -91 121q0 65 52 107q45 36 109 36q54 0 92.5 -25t67.5 -78l-101 -49q-28 40 -60 40q-37 0 -37 -29q0 -11 8.5 -17.5t35.5 -16.5l51 -20q105 -40 105 -124q0 -71 -55 -116
q-48 -40 -116 -40q-127 0 -179 136zM286 489l-88 85l-87 -85l-97 46l145 153h79l145 -153z" />
    </font>
</defs>
</svg>
