<?xml version="1.0" standalone="no"?>
<!DOCTYPE svg PUBLIC "-//W3C//DTD SVG 1.1//EN" "http://www.w3.org/Graphics/SVG/1.1/DTD/svg11.dtd" >
<svg xmlns="http://www.w3.org/2000/svg" xmlns:xlink="http://www.w3.org/1999/xlink" version="1.1">
<metadata>
Created by FontForge 20170731 at Wed Dec 20 17:38:26 2017
 By Aleksey,,,
(URW)++,Copyright 2017 by (URW)++ Design &#38; Development
</metadata>
<defs>
<font id="URWGeometricArabic-Thin" horiz-adv-x="0" >
  <font-face 
    font-family="URWGeometricArabic-Thin"
    font-weight="400"
    font-stretch="normal"
    units-per-em="1000"
    panose-1="0 0 0 0 0 0 0 0 0 0"
    ascent="735"
    descent="-265"
    x-height="443"
    cap-height="667"
    bbox="-379 -413 1435 1035"
    underline-thickness="21"
    underline-position="-148"
    unicode-range="U+0020-FEFC"
  />
<missing-glyph horiz-adv-x="364" 
d="M33 0v666h265v-666h-265zM66 33h199v600h-199v-600z" />
    <glyph glyph-name="uni064D0651" unicode="&#x64b;&#x651;" 
d="M-179 913l-137 -25l-4 24l137 25zM-179 850l-137 -25l-4 24l137 25zM-250 708q-17 -17 -37 -17t-33 13t-13 33v52h23v-50q0 -23 24 -23t24 21v37h24v-37q0 -21 25 -21q23 0 23 23v50h23v-52q0 -20 -13 -33t-33 -13q-22 0 -37 17z" />
    <glyph glyph-name="fi" unicode="fi" horiz-adv-x="401" 
d="M92 443v96q0 133 85 133q13 0 29 -5v-25q-13 3 -24 3q-34 0 -48.5 -25t-14.5 -81v-96h88v-25h-88v-418h-27v418h-50v25h50zM329 443v-443h-27v443h27zM290 588q0 10 7.5 17.5t17.5 7.5q11 0 18 -7.5t7 -17.5q0 -11 -7.5 -18.5t-17.5 -7.5t-17.5 8t-7.5 18z" />
    <glyph glyph-name="fl" unicode="fl" horiz-adv-x="402" 
d="M92 443v96q0 133 85 133q13 0 29 -5v-25q-13 3 -24 3q-34 0 -48.5 -25t-14.5 -81v-96h88v-25h-88v-418h-27v418h-50v25h50zM330 0h-27v667h27v-667z" />
    <glyph glyph-name="uniFC5E" unicode="&#x64c;&#x651;" arabic-form="isolated" 
d="M-230 843q-23 18 -23 48q0 22 13.5 36t33.5 14q21 0 34.5 -14t13.5 -36q0 -31 -21 -50.5t-54 -19.5q-45 0 -65 35l-19 -33l-18 12l29 46h19q16 -41 57 -38zM-204 849q24 10 24 40q0 14 -7.5 23t-18.5 9q-10 0 -17 -9t-7 -22q0 -27 26 -41zM-250 708q-17 -17 -37 -17
t-33 13t-13 33v52h23v-50q0 -23 24 -23t24 21v37h24v-37q0 -21 25 -21q23 0 23 23v50h23v-52q0 -20 -13 -33t-33 -13q-22 0 -37 17z" />
    <glyph glyph-name="uniFC5F" unicode="&#x64d;&#x651;" arabic-form="isolated" 
d="M-246 845q-17 -17 -37 -17t-33 13t-13 33v52h23v-50q0 -23 24 -23t24 21v37h24v-37q0 -21 25 -21q23 0 23 23v50h23v-52q0 -20 -13 -33t-33 -13q-22 0 -37 17zM-178 774l-137 -25l-4 24l137 25zM-178 711l-137 -25l-4 24l137 25z" />
    <glyph glyph-name="uniFC60" unicode="&#x64e;&#x651;" arabic-form="isolated" 
d="M-181 852l-137 -25l-4 24l137 25zM-250 708q-17 -17 -37 -17t-33 13t-13 33v52h23v-50q0 -23 24 -23t24 21v37h24v-37q0 -21 25 -21q23 0 23 23v50h23v-52q0 -20 -13 -33t-33 -13q-22 0 -37 17z" />
    <glyph glyph-name="uniFC61" unicode="&#x64f;&#x651;" arabic-form="isolated" 
d="M-220 837l-110 -19l-2 21l97 18q-24 18 -24 49q0 21 13.5 35.5t32.5 14.5q21 0 34.5 -14.5t13.5 -36.5q0 -25 -15.5 -44.5t-39.5 -23.5zM-211 864q24 8 24 39q0 14 -7.5 23.5t-18.5 9.5q-10 0 -16.5 -9t-6.5 -23q0 -28 25 -40zM-250 708q-17 -17 -37 -17t-33 13t-13 33
v52h23v-50q0 -23 24 -23t24 21v37h24v-37q0 -21 25 -21q23 0 23 23v50h23v-52q0 -20 -13 -33t-33 -13q-22 0 -37 17z" />
    <glyph glyph-name="uniFC62" unicode="&#x650;&#x651;" arabic-form="isolated" 
d="M-249 786q-17 -17 -37 -17t-33 13t-13 33v52h23v-50q0 -23 24 -23t24 21v37h24v-37q0 -21 25 -21q23 0 23 23v50h23v-52q0 -20 -13 -33t-33 -13q-22 0 -37 17zM-180 711l-137 -25l-4 24l137 25z" />
    <glyph glyph-name="uniFC63" unicode="&#x651;&#x670;" arabic-form="isolated" 
d="M-242 816h-23v102h23v-102zM-250 708q-17 -17 -37 -17t-33 13t-13 33v52h23v-50q0 -23 24 -23t24 21v37h24v-37q0 -21 25 -21q23 0 23 23v50h23v-52q0 -20 -13 -33t-33 -13q-22 0 -37 17z" />
    <glyph glyph-name="uniFDF2" unicode="&#x627;&#xfedf;&#xfee0;&#x6c1;" horiz-adv-x="1289" arabic-form="isolated" 
d="M702 781h-18v93h18v-93zM694 683q-15 -17 -36 -17q-19 0 -31 12.5t-12 31.5v47h17v-47q0 -26 27 -26q25 0 25 22v37h18v-37q0 -22 27 -22q25 0 25 26v47h17v-47q0 -19 -12 -31.5t-30 -12.5q-23 0 -35 17zM1199 0h-29v666h29v-666zM693 82q-36 -82 -152 -82q-68 0 -111 33
q-34 26 -48 71q-56 -74 -147 -74q-77 0 -123 59q-42 54 -42 141q0 100 64 156q56 48 147 48h93v55h29v-325q0 -72 40 -107q35 -31 98 -31q137 0 137 138v409h29v-409q0 -138 137 -138t137 138v409h29v-409q0 -164 -168 -164q-114 0 -149 82zM374 407h-95q-92 0 -139 -53
q-41 -45 -41 -123q0 -89 45 -137q37 -38 91 -38q85 0 141 77q-2 20 -2 32v242z" />
    <glyph glyph-name="uniFEF5" unicode="&#xfedf;&#xfe82;" horiz-adv-x="560" arabic-form="isolated" 
d="M310 0h-285v26h173v487h29v-487h77q137 0 137 138v502h29v-508q0 -79 -46 -120q-41 -38 -114 -38zM292 622q-20 -41 -50 -41q-22 0 -50 22q-16 12 -27 12q-16 0 -30 -30l-19 10q20 45 49 45q19 0 42 -18q18 -15 35 -15q14 0 30 23z" />
    <glyph glyph-name="uniFEF6" unicode="&#xfee0;&#xfe82;" horiz-adv-x="608" arabic-form="final" 
d="M314 0h-289v26h173v487h29v-487h77q137 0 137 138v502h29v-502q0 -138 137 -138h11v-26h-20q-107 0 -142 82q-37 -82 -142 -82zM292 622q-20 -41 -50 -41q-22 0 -50 22q-16 12 -27 12q-16 0 -30 -30l-19 10q20 45 49 45q19 0 42 -18q18 -15 35 -15q14 0 30 23z" />
    <glyph glyph-name="uniFEF7" unicode="&#xfedf;&#xfe84;" horiz-adv-x="560" arabic-form="isolated" 
d="M278 611h-144v21h37q-11 17 -11 36q0 26 18 43t45 17q25 0 43 -14l-9 -18q-17 10 -34 10q-18 0 -29.5 -10.5t-11.5 -27.5q0 -19 16 -36h80v-21zM310 0h-285v26h173v487h29v-487h77q137 0 137 138v502h29v-508q0 -79 -46 -120q-41 -38 -114 -38z" />
    <glyph glyph-name="uniFEF8" unicode="&#xfee0;&#xfe84;" horiz-adv-x="608" arabic-form="final" 
d="M278 611h-144v21h37q-11 17 -11 36q0 26 18 43t45 17q25 0 43 -14l-9 -18q-17 10 -34 10q-18 0 -29.5 -10.5t-11.5 -27.5q0 -19 16 -36h80v-21zM314 0h-289v26h173v487h29v-487h77q137 0 137 138v502h29v-502q0 -138 137 -138h11v-26h-20q-107 0 -142 82
q-37 -82 -142 -82z" />
    <glyph glyph-name="uniFEF9" unicode="&#xfedf;&#xfe88;" horiz-adv-x="559" arabic-form="isolated" 
d="M310 0h-285v26h173v487h29v-487h77q137 0 137 138v502h29v-508q0 -79 -46 -120q-41 -38 -114 -38zM275 -222h-144v21h37q-11 16 -11 36q0 26 18 43t45 17q25 0 43 -14l-9 -18q-17 10 -34 10q-18 0 -29.5 -10.5t-11.5 -27.5q0 -19 16 -36h80v-21z" />
    <glyph glyph-name="uniFEFA" unicode="&#xfee0;&#xfe88;" horiz-adv-x="608" arabic-form="final" 
d="M314 0h-289v26h173v487h29v-487h77q137 0 137 138v502h29v-502q0 -138 137 -138h11v-26h-20q-107 0 -142 82q-37 -82 -142 -82zM275 -222h-144v21h37q-11 16 -11 36q0 26 18 43t45 17q25 0 43 -14l-9 -18q-17 10 -34 10q-18 0 -29.5 -10.5t-11.5 -27.5q0 -19 16 -36h80
v-21z" />
    <glyph glyph-name="uniFEFB" unicode="&#xfedf;&#xfe8e;" horiz-adv-x="560" arabic-form="isolated" 
d="M310 0h-285v26h173v487h29v-487h77q137 0 137 138v502h29v-508q0 -79 -46 -120q-41 -38 -114 -38z" />
    <glyph glyph-name="uniFEFC" unicode="&#xfee0;&#xfe8e;" horiz-adv-x="608" arabic-form="final" 
d="M314 0h-289v26h173v487h29v-487h77q137 0 137 138v502h29v-502q0 -138 137 -138h11v-26h-20q-107 0 -142 82q-37 -82 -142 -82z" />
    <glyph glyph-name="uniFB50" unicode="&#x671;" horiz-adv-x="209" arabic-form="isolated" 
d="M35 727q35 99 109 99q60 0 60 -55q0 -34 -32.5 -52.5t-91.5 -18.5q-5 0 -15 1h-13q-7 -22 -12 -43l-23 4q4 21 11 43q-18 3 -52 11l4 24q27 -8 55 -13zM59 724q7 -1 21 -1q50 0 76 14q23 12 23 32q0 33 -40 33q-50 0 -80 -78zM119 0h-29v616h29v-616z" />
    <glyph glyph-name="uniFB51" unicode="&#x671;" horiz-adv-x="257" arabic-form="final" 
d="M35 727q35 99 109 99q60 0 60 -55q0 -34 -32.5 -52.5t-91.5 -18.5q-5 0 -15 1h-13q-7 -22 -12 -43l-23 4q4 21 11 43q-18 3 -52 11l4 24q27 -8 55 -13zM59 724q7 -1 21 -1q50 0 76 14q23 12 23 32q0 33 -40 33q-50 0 -80 -78zM119 616v-452q0 -138 137 -138h11v-26h-17
q-83 0 -125 49q-35 40 -35 109v458h29z" />
    <glyph glyph-name="uniFB52" unicode="&#x67b;" horiz-adv-x="847" arabic-form="isolated" 
d="M597 0h-318q-98 0 -154 70q-45 56 -45 131q0 60 30 109q28 46 77 72l13 -20q-49 -26 -72 -76q-19 -40 -19 -87q0 -76 49 -125q47 -48 121 -48h312q137 0 137 138v254h29v-254q0 -86 -48 -128q-40 -36 -112 -36zM450 -117q0 -11 -7.5 -18.5t-18.5 -7.5t-18.5 7.5
t-7.5 18.5t7.5 18.5t18.5 7.5t18.5 -7.5t7.5 -18.5zM450 -196q0 -11 -7.5 -18.5t-18.5 -7.5t-18.5 7.5t-7.5 18.5t7.5 18.5t18.5 7.5t18.5 -7.5t7.5 -18.5z" />
    <glyph glyph-name="uniFB53" unicode="&#x67b;" horiz-adv-x="895" arabic-form="final" 
d="M591 0h-312q-98 0 -154 70q-45 56 -45 131q0 60 30 109q28 46 77 72l13 -20q-49 -26 -72 -76q-19 -40 -19 -87q0 -76 49 -125q47 -48 121 -48h312q137 0 137 138v254h29v-254q0 -138 137 -138h11v-26h-20q-107 0 -142 82q-38 -82 -152 -82zM450 -117q0 -11 -7.5 -18.5
t-18.5 -7.5t-18.5 7.5t-7.5 18.5t7.5 18.5t18.5 7.5t18.5 -7.5t7.5 -18.5zM450 -196q0 -11 -7.5 -18.5t-18.5 -7.5t-18.5 7.5t-7.5 18.5t7.5 18.5t18.5 7.5t18.5 -7.5t7.5 -18.5z" />
    <glyph glyph-name="uniFB54" unicode="&#x67b;" horiz-adv-x="256" arabic-form="initial" 
d="M10 0h-20v26h11q137 0 137 138v254h29v-254q0 -86 -47 -128q-40 -36 -110 -36zM144 -117q0 -11 -7.5 -18.5t-18.5 -7.5t-18.5 7.5t-7.5 18.5t7.5 18.5t18.5 7.5t18.5 -7.5t7.5 -18.5zM144 -196q0 -11 -7.5 -18.5t-18.5 -7.5t-18.5 7.5t-7.5 18.5t7.5 18.5t18.5 7.5
t18.5 -7.5t7.5 -18.5z" />
    <glyph glyph-name="uniFB55" unicode="&#x67b;" horiz-adv-x="305" arabic-form="medial" 
d="M10 0h-20v26h11q137 0 137 138v254h29v-254q0 -138 137 -138h11v-26h-17q-110 0 -145 82q-36 -82 -143 -82zM179 -117q0 -11 -7.5 -18.5t-18.5 -7.5t-18.5 7.5t-7.5 18.5t7.5 18.5t18.5 7.5t18.5 -7.5t7.5 -18.5zM179 -196q0 -11 -7.5 -18.5t-18.5 -7.5t-18.5 7.5
t-7.5 18.5t7.5 18.5t18.5 7.5t18.5 -7.5t7.5 -18.5z" />
    <glyph glyph-name="uniFB56" unicode="&#x67e;" horiz-adv-x="847" arabic-form="isolated" 
d="M597 0h-318q-98 0 -154 70q-45 56 -45 131q0 60 30 109q28 46 77 72l13 -20q-49 -26 -72 -76q-19 -40 -19 -87q0 -76 49 -125q47 -48 121 -48h312q137 0 137 138v254h29v-254q0 -86 -48 -128q-40 -36 -112 -36zM411 -117q0 -11 -7.5 -18.5t-18.5 -7.5t-18.5 7.5
t-7.5 18.5t7.5 18.5t18.5 7.5t18.5 -7.5t7.5 -18.5zM488 -117q0 -11 -7.5 -18.5t-18.5 -7.5t-18.5 7.5t-7.5 18.5t7.5 18.5t18.5 7.5t18.5 -7.5t7.5 -18.5zM449 -187q0 -11 -7.5 -18.5t-18.5 -7.5t-18.5 7.5t-7.5 18.5t7.5 18.5t18.5 7.5t18.5 -7.5t7.5 -18.5z" />
    <glyph glyph-name="uniFB57" unicode="&#x67e;" horiz-adv-x="895" arabic-form="final" 
d="M591 0h-312q-98 0 -154 70q-45 56 -45 131q0 60 30 109q28 46 77 72l13 -20q-49 -26 -72 -76q-19 -40 -19 -87q0 -76 49 -125q47 -48 121 -48h312q137 0 137 138v254h29v-254q0 -138 137 -138h11v-26h-20q-107 0 -142 82q-38 -82 -152 -82zM411 -117q0 -11 -7.5 -18.5
t-18.5 -7.5t-18.5 7.5t-7.5 18.5t7.5 18.5t18.5 7.5t18.5 -7.5t7.5 -18.5zM488 -117q0 -11 -7.5 -18.5t-18.5 -7.5t-18.5 7.5t-7.5 18.5t7.5 18.5t18.5 7.5t18.5 -7.5t7.5 -18.5zM449 -187q0 -11 -7.5 -18.5t-18.5 -7.5t-18.5 7.5t-7.5 18.5t7.5 18.5t18.5 7.5t18.5 -7.5
t7.5 -18.5z" />
    <glyph glyph-name="uniFB58" unicode="&#x67e;" horiz-adv-x="256" arabic-form="initial" 
d="M10 0h-20v26h11q137 0 137 138v254h29v-254q0 -86 -47 -128q-40 -36 -110 -36zM105 -117q0 -11 -7.5 -18.5t-18.5 -7.5t-18.5 7.5t-7.5 18.5t7.5 18.5t18.5 7.5t18.5 -7.5t7.5 -18.5zM182 -117q0 -11 -7.5 -18.5t-18.5 -7.5t-18.5 7.5t-7.5 18.5t7.5 18.5t18.5 7.5
t18.5 -7.5t7.5 -18.5zM143 -187q0 -11 -7.5 -18.5t-18.5 -7.5t-18.5 7.5t-7.5 18.5t7.5 18.5t18.5 7.5t18.5 -7.5t7.5 -18.5z" />
    <glyph glyph-name="uniFB59" unicode="&#x67e;" horiz-adv-x="305" arabic-form="medial" 
d="M10 0h-20v26h11q137 0 137 138v254h29v-254q0 -138 137 -138h11v-26h-17q-110 0 -145 82q-36 -82 -143 -82zM140 -117q0 -11 -7.5 -18.5t-18.5 -7.5t-18.5 7.5t-7.5 18.5t7.5 18.5t18.5 7.5t18.5 -7.5t7.5 -18.5zM217 -117q0 -11 -7.5 -18.5t-18.5 -7.5t-18.5 7.5
t-7.5 18.5t7.5 18.5t18.5 7.5t18.5 -7.5t7.5 -18.5zM178 -187q0 -11 -7.5 -18.5t-18.5 -7.5t-18.5 7.5t-7.5 18.5t7.5 18.5t18.5 7.5t18.5 -7.5t7.5 -18.5z" />
    <glyph glyph-name="uniFB5A" unicode="&#x680;" horiz-adv-x="847" arabic-form="isolated" 
d="M597 0h-318q-98 0 -154 70q-45 56 -45 131q0 60 30 109q28 46 77 72l13 -20q-49 -26 -72 -76q-19 -40 -19 -87q0 -76 49 -125q47 -48 121 -48h312q137 0 137 138v254h29v-254q0 -86 -48 -128q-40 -36 -112 -36zM411 -117q0 -11 -7.5 -18.5t-18.5 -7.5t-18.5 7.5
t-7.5 18.5t7.5 18.5t18.5 7.5t18.5 -7.5t7.5 -18.5zM488 -117q0 -11 -7.5 -18.5t-18.5 -7.5t-18.5 7.5t-7.5 18.5t7.5 18.5t18.5 7.5t18.5 -7.5t7.5 -18.5zM411 -196q0 -11 -7.5 -18.5t-18.5 -7.5t-18.5 7.5t-7.5 18.5t7.5 18.5t18.5 7.5t18.5 -7.5t7.5 -18.5zM488 -196
q0 -11 -7.5 -18.5t-18.5 -7.5t-18.5 7.5t-7.5 18.5t7.5 18.5t18.5 7.5t18.5 -7.5t7.5 -18.5z" />
    <glyph glyph-name="uniFB5B" unicode="&#x680;" horiz-adv-x="895" arabic-form="final" 
d="M591 0h-312q-98 0 -154 70q-45 56 -45 131q0 60 30 109q28 46 77 72l13 -20q-49 -26 -72 -76q-19 -40 -19 -87q0 -76 49 -125q47 -48 121 -48h312q137 0 137 138v254h29v-254q0 -138 137 -138h11v-26h-20q-107 0 -142 82q-38 -82 -152 -82zM411 -117q0 -11 -7.5 -18.5
t-18.5 -7.5t-18.5 7.5t-7.5 18.5t7.5 18.5t18.5 7.5t18.5 -7.5t7.5 -18.5zM488 -117q0 -11 -7.5 -18.5t-18.5 -7.5t-18.5 7.5t-7.5 18.5t7.5 18.5t18.5 7.5t18.5 -7.5t7.5 -18.5zM411 -196q0 -11 -7.5 -18.5t-18.5 -7.5t-18.5 7.5t-7.5 18.5t7.5 18.5t18.5 7.5t18.5 -7.5
t7.5 -18.5zM488 -196q0 -11 -7.5 -18.5t-18.5 -7.5t-18.5 7.5t-7.5 18.5t7.5 18.5t18.5 7.5t18.5 -7.5t7.5 -18.5z" />
    <glyph glyph-name="uniFB5C" unicode="&#x680;" horiz-adv-x="256" arabic-form="initial" 
d="M10 0h-20v26h11q137 0 137 138v254h29v-254q0 -86 -47 -128q-40 -36 -110 -36zM105 -117q0 -11 -7.5 -18.5t-18.5 -7.5t-18.5 7.5t-7.5 18.5t7.5 18.5t18.5 7.5t18.5 -7.5t7.5 -18.5zM182 -117q0 -11 -7.5 -18.5t-18.5 -7.5t-18.5 7.5t-7.5 18.5t7.5 18.5t18.5 7.5
t18.5 -7.5t7.5 -18.5zM105 -196q0 -11 -7.5 -18.5t-18.5 -7.5t-18.5 7.5t-7.5 18.5t7.5 18.5t18.5 7.5t18.5 -7.5t7.5 -18.5zM182 -196q0 -11 -7.5 -18.5t-18.5 -7.5t-18.5 7.5t-7.5 18.5t7.5 18.5t18.5 7.5t18.5 -7.5t7.5 -18.5z" />
    <glyph glyph-name="uniFB5D" unicode="&#x680;" horiz-adv-x="305" arabic-form="medial" 
d="M10 0h-20v26h11q137 0 137 138v254h29v-254q0 -138 137 -138h11v-26h-17q-110 0 -145 82q-36 -82 -143 -82zM140 -117q0 -11 -7.5 -18.5t-18.5 -7.5t-18.5 7.5t-7.5 18.5t7.5 18.5t18.5 7.5t18.5 -7.5t7.5 -18.5zM217 -117q0 -11 -7.5 -18.5t-18.5 -7.5t-18.5 7.5
t-7.5 18.5t7.5 18.5t18.5 7.5t18.5 -7.5t7.5 -18.5zM140 -196q0 -11 -7.5 -18.5t-18.5 -7.5t-18.5 7.5t-7.5 18.5t7.5 18.5t18.5 7.5t18.5 -7.5t7.5 -18.5zM217 -196q0 -11 -7.5 -18.5t-18.5 -7.5t-18.5 7.5t-7.5 18.5t7.5 18.5t18.5 7.5t18.5 -7.5t7.5 -18.5z" />
    <glyph glyph-name="uniFB5E" unicode="&#x67a;" horiz-adv-x="847" arabic-form="isolated" 
d="M462 571q0 -11 -7.5 -18.5t-18.5 -7.5t-18.5 7.5t-7.5 18.5t7.5 18.5t18.5 7.5t18.5 -7.5t7.5 -18.5zM462 492q0 -11 -7.5 -18.5t-18.5 -7.5t-18.5 7.5t-7.5 18.5t7.5 18.5t18.5 7.5t18.5 -7.5t7.5 -18.5zM597 0h-318q-98 0 -154 70q-45 56 -45 131q0 60 30 109
q28 46 77 72l13 -20q-49 -26 -72 -76q-19 -40 -19 -87q0 -76 49 -125q47 -48 121 -48h312q137 0 137 138v254h29v-254q0 -86 -48 -128q-40 -36 -112 -36z" />
    <glyph glyph-name="uniFB5F" unicode="&#x67a;" horiz-adv-x="895" arabic-form="final" 
d="M469 523q0 -11 -7.5 -18.5t-18.5 -7.5t-18.5 7.5t-7.5 18.5t7.5 18.5t18.5 7.5t18.5 -7.5t7.5 -18.5zM469 444q0 -11 -7.5 -18.5t-18.5 -7.5t-18.5 7.5t-7.5 18.5t7.5 18.5t18.5 7.5t18.5 -7.5t7.5 -18.5zM591 0h-312q-98 0 -154 70q-45 56 -45 131q0 60 30 109
q28 46 77 72l13 -20q-49 -26 -72 -76q-19 -40 -19 -87q0 -76 49 -125q47 -48 121 -48h312q137 0 137 138v254h29v-254q0 -138 137 -138h11v-26h-20q-107 0 -142 82q-38 -82 -152 -82z" />
    <glyph glyph-name="uniFB60" unicode="&#x67a;" horiz-adv-x="256" arabic-form="initial" 
d="M176 613q0 -11 -7.5 -18.5t-18.5 -7.5t-18.5 7.5t-7.5 18.5t7.5 18.5t18.5 7.5t18.5 -7.5t7.5 -18.5zM176 534q0 -11 -7.5 -18.5t-18.5 -7.5t-18.5 7.5t-7.5 18.5t7.5 18.5t18.5 7.5t18.5 -7.5t7.5 -18.5zM10 0h-20v26h11q137 0 137 138v254h29v-254q0 -86 -47 -128
q-40 -36 -110 -36z" />
    <glyph glyph-name="uniFB61" unicode="&#x67a;" horiz-adv-x="305" arabic-form="medial" 
d="M179 613q0 -11 -7.5 -18.5t-18.5 -7.5t-18.5 7.5t-7.5 18.5t7.5 18.5t18.5 7.5t18.5 -7.5t7.5 -18.5zM179 534q0 -11 -7.5 -18.5t-18.5 -7.5t-18.5 7.5t-7.5 18.5t7.5 18.5t18.5 7.5t18.5 -7.5t7.5 -18.5zM10 0h-20v26h11q137 0 137 138v254h29v-254q0 -138 137 -138h11
v-26h-17q-110 0 -145 82q-36 -82 -143 -82z" />
    <glyph glyph-name="uniFB62" unicode="&#x67f;" horiz-adv-x="847" arabic-form="isolated" 
d="M423 570q0 -11 -7.5 -18.5t-18.5 -7.5t-18.5 7.5t-7.5 18.5t7.5 18.5t18.5 7.5t18.5 -7.5t7.5 -18.5zM500 570q0 -11 -7.5 -18.5t-18.5 -7.5t-18.5 7.5t-7.5 18.5t7.5 18.5t18.5 7.5t18.5 -7.5t7.5 -18.5zM423 491q0 -11 -7.5 -18.5t-18.5 -7.5t-18.5 7.5t-7.5 18.5
t7.5 18.5t18.5 7.5t18.5 -7.5t7.5 -18.5zM500 491q0 -11 -7.5 -18.5t-18.5 -7.5t-18.5 7.5t-7.5 18.5t7.5 18.5t18.5 7.5t18.5 -7.5t7.5 -18.5zM597 0h-318q-98 0 -154 70q-45 56 -45 131q0 60 30 109q28 46 77 72l13 -20q-49 -26 -72 -76q-19 -40 -19 -87q0 -76 49 -125
q47 -48 121 -48h312q137 0 137 138v254h29v-254q0 -86 -48 -128q-40 -36 -112 -36z" />
    <glyph glyph-name="uniFB63" unicode="&#x67f;" horiz-adv-x="895" arabic-form="final" 
d="M430 523q0 -11 -7.5 -18.5t-18.5 -7.5t-18.5 7.5t-7.5 18.5t7.5 18.5t18.5 7.5t18.5 -7.5t7.5 -18.5zM507 523q0 -11 -7.5 -18.5t-18.5 -7.5t-18.5 7.5t-7.5 18.5t7.5 18.5t18.5 7.5t18.5 -7.5t7.5 -18.5zM430 444q0 -11 -7.5 -18.5t-18.5 -7.5t-18.5 7.5t-7.5 18.5
t7.5 18.5t18.5 7.5t18.5 -7.5t7.5 -18.5zM507 444q0 -11 -7.5 -18.5t-18.5 -7.5t-18.5 7.5t-7.5 18.5t7.5 18.5t18.5 7.5t18.5 -7.5t7.5 -18.5zM591 0h-312q-98 0 -154 70q-45 56 -45 131q0 60 30 109q28 46 77 72l13 -20q-49 -26 -72 -76q-19 -40 -19 -87q0 -76 49 -125
q47 -48 121 -48h312q137 0 137 138v254h29v-254q0 -138 137 -138h11v-26h-20q-107 0 -142 82q-38 -82 -152 -82z" />
    <glyph glyph-name="uniFB64" unicode="&#x67f;" horiz-adv-x="256" arabic-form="initial" 
d="M137 613q0 -11 -7.5 -18.5t-18.5 -7.5t-18.5 7.5t-7.5 18.5t7.5 18.5t18.5 7.5t18.5 -7.5t7.5 -18.5zM214 613q0 -11 -7.5 -18.5t-18.5 -7.5t-18.5 7.5t-7.5 18.5t7.5 18.5t18.5 7.5t18.5 -7.5t7.5 -18.5zM137 534q0 -11 -7.5 -18.5t-18.5 -7.5t-18.5 7.5t-7.5 18.5
t7.5 18.5t18.5 7.5t18.5 -7.5t7.5 -18.5zM214 534q0 -11 -7.5 -18.5t-18.5 -7.5t-18.5 7.5t-7.5 18.5t7.5 18.5t18.5 7.5t18.5 -7.5t7.5 -18.5zM10 0h-20v26h11q137 0 137 138v254h29v-254q0 -86 -47 -128q-40 -36 -110 -36z" />
    <glyph glyph-name="uniFB65" unicode="&#x67f;" horiz-adv-x="305" arabic-form="medial" 
d="M140 613q0 -11 -7.5 -18.5t-18.5 -7.5t-18.5 7.5t-7.5 18.5t7.5 18.5t18.5 7.5t18.5 -7.5t7.5 -18.5zM217 613q0 -11 -7.5 -18.5t-18.5 -7.5t-18.5 7.5t-7.5 18.5t7.5 18.5t18.5 7.5t18.5 -7.5t7.5 -18.5zM140 534q0 -11 -7.5 -18.5t-18.5 -7.5t-18.5 7.5t-7.5 18.5
t7.5 18.5t18.5 7.5t18.5 -7.5t7.5 -18.5zM217 534q0 -11 -7.5 -18.5t-18.5 -7.5t-18.5 7.5t-7.5 18.5t7.5 18.5t18.5 7.5t18.5 -7.5t7.5 -18.5zM10 0h-20v26h11q137 0 137 138v254h29v-254q0 -138 137 -138h11v-26h-17q-110 0 -145 82q-36 -82 -143 -82z" />
    <glyph glyph-name="uniFB66" unicode="&#x679;" horiz-adv-x="847" arabic-form="isolated" 
d="M490 434h-160v24h41v137h25v-102q39 63 94 63q30 0 47.5 -16t17.5 -44q0 -62 -65 -62zM397 458h91q23 0 32.5 8.5t9.5 29.5q0 35 -40 35q-24 0 -49.5 -20t-43.5 -53zM597 0h-318q-98 0 -154 70q-45 56 -45 131q0 60 30 109q28 46 77 72l13 -20q-49 -26 -72 -76
q-19 -40 -19 -87q0 -76 49 -125q47 -48 121 -48h312q137 0 137 138v254h29v-254q0 -86 -48 -128q-40 -36 -112 -36z" />
    <glyph glyph-name="uniFB67" unicode="&#x679;" horiz-adv-x="895" arabic-form="final" 
d="M490 434h-160v24h41v137h25v-102q39 63 94 63q30 0 47.5 -16t17.5 -44q0 -62 -65 -62zM397 458h91q23 0 32.5 8.5t9.5 29.5q0 35 -40 35q-24 0 -49.5 -20t-43.5 -53zM591 0h-312q-98 0 -154 70q-45 56 -45 131q0 60 30 109q28 46 77 72l13 -20q-49 -26 -72 -76
q-19 -40 -19 -87q0 -76 49 -125q47 -48 121 -48h312q137 0 137 138v254h29v-254q0 -138 137 -138h11v-26h-20q-107 0 -142 82q-38 -82 -152 -82z" />
    <glyph glyph-name="uniFB68" unicode="&#x679;" horiz-adv-x="256" arabic-form="initial" 
d="M197 524h-160v24h41v137h25v-102q39 63 94 63q30 0 47.5 -16t17.5 -44q0 -62 -65 -62zM104 548h91q23 0 32.5 8.5t9.5 29.5q0 35 -40 35q-24 0 -49.5 -20t-43.5 -53zM10 0h-20v26h11q137 0 137 138v254h29v-254q0 -86 -47 -128q-40 -36 -110 -36z" />
    <glyph glyph-name="uniFB69" unicode="&#x679;" horiz-adv-x="305" arabic-form="medial" 
d="M200 524h-160v24h41v137h25v-102q39 63 94 63q30 0 47.5 -16t17.5 -44q0 -62 -65 -62zM107 548h91q23 0 32.5 8.5t9.5 29.5q0 35 -40 35q-24 0 -49.5 -20t-43.5 -53zM10 0h-20v26h11q137 0 137 138v254h29v-254q0 -138 137 -138h11v-26h-17q-110 0 -145 82
q-36 -82 -143 -82z" />
    <glyph glyph-name="uniFB6A" unicode="&#x6a4;" horiz-adv-x="903" arabic-form="isolated" 
d="M684 604q0 -11 -7.5 -18.5t-18.5 -7.5t-18.5 7.5t-7.5 18.5t7.5 18.5t18.5 7.5t18.5 -7.5t7.5 -18.5zM646 534q0 -11 -7.5 -18.5t-18.5 -7.5t-18.5 7.5t-7.5 18.5t7.5 18.5t18.5 7.5t18.5 -7.5t7.5 -18.5zM723 534q0 -11 -7.5 -18.5t-18.5 -7.5t-18.5 7.5t-7.5 18.5
t7.5 18.5t18.5 7.5t18.5 -7.5t7.5 -18.5zM664 0h-385q-98 0 -154 70q-45 56 -45 131q0 60 30 109q28 46 77 72l13 -20q-49 -26 -72 -76q-19 -40 -19 -87q0 -76 49 -125q47 -48 121 -48h281q-70 62 -70 186q0 106 53 164q46 50 123 50q78 0 120 -49q37 -43 37 -115v-101
q0 -78 -47 -122q-42 -39 -112 -39zM519 211q0 -85 39 -137q37 -48 97 -48q139 0 139 140v86q0 77 -38 115q-33 33 -90 33q-76 0 -115 -61q-32 -49 -32 -128z" />
    <glyph glyph-name="uniFB6B" unicode="&#x6a4;" horiz-adv-x="938" arabic-form="final" 
d="M691 604q0 -11 -7.5 -18.5t-18.5 -7.5t-18.5 7.5t-7.5 18.5t7.5 18.5t18.5 7.5t18.5 -7.5t7.5 -18.5zM653 534q0 -11 -7.5 -18.5t-18.5 -7.5t-18.5 7.5t-7.5 18.5t7.5 18.5t18.5 7.5t18.5 -7.5t7.5 -18.5zM730 534q0 -11 -7.5 -18.5t-18.5 -7.5t-18.5 7.5t-7.5 18.5
t7.5 18.5t18.5 7.5t18.5 -7.5t7.5 -18.5zM616 0h-337q-98 0 -154 70q-45 56 -45 131q0 60 30 109q28 46 77 72l13 -20q-49 -26 -72 -76q-19 -40 -19 -87q0 -76 49 -125q47 -48 121 -48h342q-64 32 -99 94q-29 52 -29 108q0 95 51 149q46 49 122 49q87 0 134 -63
q39 -52 39 -135q0 -65 -37 -122q-35 -52 -91 -80h237v-26h-232q-21 0 -50 6q-28 -6 -50 -6zM666 32q144 58 144 194q0 80 -41 128q-39 46 -103 46q-73 0 -113 -58q-31 -46 -31 -114q0 -67 45 -123q38 -49 99 -73z" />
    <glyph glyph-name="uniFB6C" unicode="&#x6a4;" horiz-adv-x="522" arabic-form="initial" 
d="M312 604q0 -11 -7.5 -18.5t-18.5 -7.5t-18.5 7.5t-7.5 18.5t7.5 18.5t18.5 7.5t18.5 -7.5t7.5 -18.5zM274 534q0 -11 -7.5 -18.5t-18.5 -7.5t-18.5 7.5t-7.5 18.5t7.5 18.5t18.5 7.5t18.5 -7.5t7.5 -18.5zM351 534q0 -11 -7.5 -18.5t-18.5 -7.5t-18.5 7.5t-7.5 18.5
t7.5 18.5t18.5 7.5t18.5 -7.5t7.5 -18.5zM283 0h-293v26h189q-70 62 -70 186q0 106 53 164q46 50 123 50q78 0 120 -49q37 -43 37 -115v-101q-2 -78 -48 -122q-41 -39 -111 -39zM138 211q0 -85 39 -137q37 -48 97 -48q139 0 139 140v86q0 77 -38 115q-33 33 -90 33
q-76 0 -115 -61q-32 -49 -32 -128z" />
    <glyph glyph-name="uniFB6D" unicode="&#x6a4;" horiz-adv-x="544" arabic-form="medial" 
d="M297 604q0 -11 -7.5 -18.5t-18.5 -7.5t-18.5 7.5t-7.5 18.5t7.5 18.5t18.5 7.5t18.5 -7.5t7.5 -18.5zM259 534q0 -11 -7.5 -18.5t-18.5 -7.5t-18.5 7.5t-7.5 18.5t7.5 18.5t18.5 7.5t18.5 -7.5t7.5 -18.5zM336 534q0 -11 -7.5 -18.5t-18.5 -7.5t-18.5 7.5t-7.5 18.5
t7.5 18.5t18.5 7.5t18.5 -7.5t7.5 -18.5zM222 0h-232v26h237q-64 32 -99 94q-29 52 -29 108q0 95 51 149q46 49 122 49q87 0 134 -63q39 -52 39 -135q0 -65 -37 -122q-35 -52 -91 -80h237v-26h-232q-22 0 -50 6q-28 -6 -50 -6zM272 32q144 58 144 194q0 80 -41 128
q-39 46 -103 46q-73 0 -113 -58q-31 -46 -31 -114q0 -67 45 -123q38 -49 99 -73z" />
    <glyph glyph-name="uniFB6E" unicode="&#x6a6;" horiz-adv-x="903" arabic-form="isolated" 
d="M646 613q0 -11 -7.5 -18.5t-18.5 -7.5t-18.5 7.5t-7.5 18.5t7.5 18.5t18.5 7.5t18.5 -7.5t7.5 -18.5zM723 613q0 -11 -7.5 -18.5t-18.5 -7.5t-18.5 7.5t-7.5 18.5t7.5 18.5t18.5 7.5t18.5 -7.5t7.5 -18.5zM646 534q0 -11 -7.5 -18.5t-18.5 -7.5t-18.5 7.5t-7.5 18.5
t7.5 18.5t18.5 7.5t18.5 -7.5t7.5 -18.5zM723 534q0 -11 -7.5 -18.5t-18.5 -7.5t-18.5 7.5t-7.5 18.5t7.5 18.5t18.5 7.5t18.5 -7.5t7.5 -18.5zM664 0h-385q-98 0 -154 70q-45 56 -45 131q0 60 30 109q28 46 77 72l13 -20q-49 -26 -72 -76q-19 -40 -19 -87q0 -76 49 -125
q47 -48 121 -48h281q-70 62 -70 186q0 106 53 164q46 50 123 50q78 0 120 -49q37 -43 37 -115v-101q0 -78 -47 -122q-42 -39 -112 -39zM519 211q0 -85 39 -137q37 -48 97 -48q139 0 139 140v86q0 77 -38 115q-33 33 -90 33q-76 0 -115 -61q-32 -49 -32 -128z" />
    <glyph glyph-name="uniFB6F" unicode="&#x6a6;" horiz-adv-x="938" arabic-form="final" 
d="M653 613q0 -11 -7.5 -18.5t-18.5 -7.5t-18.5 7.5t-7.5 18.5t7.5 18.5t18.5 7.5t18.5 -7.5t7.5 -18.5zM730 613q0 -11 -7.5 -18.5t-18.5 -7.5t-18.5 7.5t-7.5 18.5t7.5 18.5t18.5 7.5t18.5 -7.5t7.5 -18.5zM653 534q0 -11 -7.5 -18.5t-18.5 -7.5t-18.5 7.5t-7.5 18.5
t7.5 18.5t18.5 7.5t18.5 -7.5t7.5 -18.5zM730 534q0 -11 -7.5 -18.5t-18.5 -7.5t-18.5 7.5t-7.5 18.5t7.5 18.5t18.5 7.5t18.5 -7.5t7.5 -18.5zM616 0h-337q-98 0 -154 70q-45 56 -45 131q0 60 30 109q28 46 77 72l13 -20q-49 -26 -72 -76q-19 -40 -19 -87q0 -76 49 -125
q47 -48 121 -48h342q-64 32 -99 94q-29 52 -29 108q0 95 51 149q46 49 122 49q87 0 134 -63q39 -52 39 -135q0 -65 -37 -122q-35 -52 -91 -80h237v-26h-232q-21 0 -50 6q-28 -6 -50 -6zM666 32q144 58 144 194q0 80 -41 128q-39 46 -103 46q-73 0 -113 -58q-31 -46 -31 -114
q0 -67 45 -123q38 -49 99 -73z" />
    <glyph glyph-name="uniFB70" unicode="&#x6a6;" horiz-adv-x="522" arabic-form="initial" 
d="M274 613q0 -11 -7.5 -18.5t-18.5 -7.5t-18.5 7.5t-7.5 18.5t7.5 18.5t18.5 7.5t18.5 -7.5t7.5 -18.5zM351 613q0 -11 -7.5 -18.5t-18.5 -7.5t-18.5 7.5t-7.5 18.5t7.5 18.5t18.5 7.5t18.5 -7.5t7.5 -18.5zM274 534q0 -11 -7.5 -18.5t-18.5 -7.5t-18.5 7.5t-7.5 18.5
t7.5 18.5t18.5 7.5t18.5 -7.5t7.5 -18.5zM351 534q0 -11 -7.5 -18.5t-18.5 -7.5t-18.5 7.5t-7.5 18.5t7.5 18.5t18.5 7.5t18.5 -7.5t7.5 -18.5zM283 0h-293v26h189q-70 62 -70 186q0 106 53 164q46 50 123 50q78 0 120 -49q37 -43 37 -115v-101q-2 -78 -48 -122
q-41 -39 -111 -39zM138 211q0 -85 39 -137q37 -48 97 -48q139 0 139 140v86q0 77 -38 115q-33 33 -90 33q-76 0 -115 -61q-32 -49 -32 -128z" />
    <glyph glyph-name="uniFB71" unicode="&#x6a6;" horiz-adv-x="544" arabic-form="medial" 
d="M259 613q0 -11 -7.5 -18.5t-18.5 -7.5t-18.5 7.5t-7.5 18.5t7.5 18.5t18.5 7.5t18.5 -7.5t7.5 -18.5zM336 613q0 -11 -7.5 -18.5t-18.5 -7.5t-18.5 7.5t-7.5 18.5t7.5 18.5t18.5 7.5t18.5 -7.5t7.5 -18.5zM259 534q0 -11 -7.5 -18.5t-18.5 -7.5t-18.5 7.5t-7.5 18.5
t7.5 18.5t18.5 7.5t18.5 -7.5t7.5 -18.5zM336 534q0 -11 -7.5 -18.5t-18.5 -7.5t-18.5 7.5t-7.5 18.5t7.5 18.5t18.5 7.5t18.5 -7.5t7.5 -18.5zM222 0h-232v26h237q-64 32 -99 94q-29 52 -29 108q0 95 51 149q46 49 122 49q87 0 134 -63q39 -52 39 -135q0 -65 -37 -122
q-35 -52 -91 -80h237v-26h-232q-22 0 -50 6q-28 -6 -50 -6zM272 32q144 58 144 194q0 80 -41 128q-39 46 -103 46q-73 0 -113 -58q-31 -46 -31 -114q0 -67 45 -123q38 -49 99 -73z" />
    <glyph glyph-name="uniFB72" unicode="&#x684;" horiz-adv-x="562" arabic-form="isolated" 
d="M477 -315q-79 -50 -180 -50q-108 0 -172 77q-55 65 -55 163q0 157 143 245q116 72 295 79q-42 91 -108 139q-56 41 -120 41q-80 0 -157 -68l-16 18q77 76 172 76q85 0 157 -62q63 -54 96 -142v-24q-196 -9 -312 -86q-121 -79 -121 -217q0 -102 64 -162q54 -51 135 -51
q92 0 166 46zM323 -79q0 -11 -7.5 -18.5t-18.5 -7.5t-18.5 7.5t-7.5 18.5t7.5 18.5t18.5 7.5t18.5 -7.5t7.5 -18.5zM323 -158q0 -11 -7.5 -18.5t-18.5 -7.5t-18.5 7.5t-7.5 18.5t7.5 18.5t18.5 7.5t18.5 -7.5t7.5 -18.5z" />
    <glyph glyph-name="uniFB73" unicode="&#x684;" horiz-adv-x="680" arabic-form="final" 
d="M477 -315q-79 -50 -180 -50q-108 0 -172 77q-55 65 -55 163q0 157 143 245q116 72 295 79q-42 91 -108 139q-56 41 -120 41q-80 0 -157 -68l-16 18q77 76 172 76q85 0 157 -62q63 -54 96 -142v-24q-63 -4 -107 -11q20 -74 78.5 -107t171.5 -33h15v-26h-20q-119 0 -181 38
q-63 38 -88 123q-145 -29 -223 -102q-79 -74 -79 -185q0 -102 64 -162q54 -51 135 -51q92 0 166 46zM325 -79q0 -11 -7.5 -18.5t-18.5 -7.5t-18.5 7.5t-7.5 18.5t7.5 18.5t18.5 7.5t18.5 -7.5t7.5 -18.5zM325 -158q0 -11 -7.5 -18.5t-18.5 -7.5t-18.5 7.5t-7.5 18.5
t7.5 18.5t18.5 7.5t18.5 -7.5t7.5 -18.5z" />
    <glyph glyph-name="uniFB74" unicode="&#x684;" horiz-adv-x="538" arabic-form="initial" 
d="M95 0h-105v26h106q154 0 236 49q52 31 132 123q-43 91 -108 139q-56 42 -120 42q-80 0 -157 -68l-16 18q77 76 172 76q85 0 157 -62q63 -54 96 -142v-10q-49 -63 -84.5 -96t-76.5 -53q-84 -42 -232 -42zM265 -117q0 -11 -7.5 -18.5t-18.5 -7.5t-18.5 7.5t-7.5 18.5
t7.5 18.5t18.5 7.5t18.5 -7.5t7.5 -18.5zM265 -196q0 -11 -7.5 -18.5t-18.5 -7.5t-18.5 7.5t-7.5 18.5t7.5 18.5t18.5 7.5t18.5 -7.5t7.5 -18.5z" />
    <glyph glyph-name="uniFB75" unicode="&#x684;" horiz-adv-x="670" arabic-form="medial" 
d="M95 0h-105v26h106q154 0 236 49q52 31 132 123q-43 91 -108 139q-56 42 -120 42q-80 0 -157 -68l-16 18q77 76 172 76q85 0 157 -62q63 -54 96 -142v-10q-36 -47 -57 -69q26 -51 80 -73.5t154 -22.5h15v-26h-20q-98 0 -156 25q-59 25 -90 80q-58 -57 -130.5 -81
t-188.5 -24zM292 -117q0 -11 -7.5 -18.5t-18.5 -7.5t-18.5 7.5t-7.5 18.5t7.5 18.5t18.5 7.5t18.5 -7.5t7.5 -18.5zM292 -196q0 -11 -7.5 -18.5t-18.5 -7.5t-18.5 7.5t-7.5 18.5t7.5 18.5t18.5 7.5t18.5 -7.5t7.5 -18.5z" />
    <glyph glyph-name="uniFB76" unicode="&#x683;" horiz-adv-x="562" arabic-form="isolated" 
d="M477 -315q-79 -50 -180 -50q-108 0 -172 77q-55 65 -55 163q0 157 143 245q116 72 295 79q-42 91 -108 139q-56 41 -120 41q-80 0 -157 -68l-16 18q77 76 172 76q85 0 157 -62q63 -54 96 -142v-24q-196 -9 -312 -86q-121 -79 -121 -217q0 -102 64 -162q54 -51 135 -51
q92 0 166 46zM304 -137q0 -11 -7.5 -18.5t-18.5 -7.5t-18.5 7.5t-7.5 18.5t7.5 18.5t18.5 7.5t18.5 -7.5t7.5 -18.5zM381 -137q0 -11 -7.5 -18.5t-18.5 -7.5t-18.5 7.5t-7.5 18.5t7.5 18.5t18.5 7.5t18.5 -7.5t7.5 -18.5z" />
    <glyph glyph-name="uniFB77" unicode="&#x683;" horiz-adv-x="680" arabic-form="final" 
d="M477 -315q-79 -50 -180 -50q-108 0 -172 77q-55 65 -55 163q0 157 143 245q116 72 295 79q-42 91 -108 139q-56 41 -120 41q-80 0 -157 -68l-16 18q77 76 172 76q85 0 157 -62q63 -54 96 -142v-24q-63 -4 -107 -11q20 -74 78.5 -107t171.5 -33h15v-26h-20q-119 0 -181 38
q-63 38 -88 123q-145 -29 -223 -102q-79 -74 -79 -185q0 -102 64 -162q54 -51 135 -51q92 0 166 46zM304 -137q0 -11 -7.5 -18.5t-18.5 -7.5t-18.5 7.5t-7.5 18.5t7.5 18.5t18.5 7.5t18.5 -7.5t7.5 -18.5zM381 -137q0 -11 -7.5 -18.5t-18.5 -7.5t-18.5 7.5t-7.5 18.5
t7.5 18.5t18.5 7.5t18.5 -7.5t7.5 -18.5z" />
    <glyph glyph-name="uniFB78" unicode="&#x683;" horiz-adv-x="538" arabic-form="initial" 
d="M95 0h-105v26h106q154 0 236 49q52 31 132 123q-43 91 -108 139q-56 42 -120 42q-80 0 -157 -68l-16 18q77 76 172 76q85 0 157 -62q63 -54 96 -142v-10q-49 -63 -84.5 -96t-76.5 -53q-84 -42 -232 -42zM226 -117q0 -11 -7.5 -18.5t-18.5 -7.5t-18.5 7.5t-7.5 18.5
t7.5 18.5t18.5 7.5t18.5 -7.5t7.5 -18.5zM303 -117q0 -11 -7.5 -18.5t-18.5 -7.5t-18.5 7.5t-7.5 18.5t7.5 18.5t18.5 7.5t18.5 -7.5t7.5 -18.5z" />
    <glyph glyph-name="uniFB79" unicode="&#x683;" horiz-adv-x="670" arabic-form="medial" 
d="M95 0h-105v26h106q154 0 236 49q52 31 132 123q-43 91 -108 139q-56 42 -120 42q-80 0 -157 -68l-16 18q77 76 172 76q85 0 157 -62q63 -54 96 -142v-10q-36 -47 -57 -69q26 -51 80 -73.5t154 -22.5h15v-26h-20q-98 0 -156 25q-59 25 -90 80q-58 -57 -130.5 -81
t-188.5 -24zM238 -117q0 -11 -7.5 -18.5t-18.5 -7.5t-18.5 7.5t-7.5 18.5t7.5 18.5t18.5 7.5t18.5 -7.5t7.5 -18.5zM315 -117q0 -11 -7.5 -18.5t-18.5 -7.5t-18.5 7.5t-7.5 18.5t7.5 18.5t18.5 7.5t18.5 -7.5t7.5 -18.5z" />
    <glyph glyph-name="uniFB7A" unicode="&#x686;" horiz-adv-x="562" arabic-form="isolated" 
d="M464 -293l13 -22q-79 -50 -180 -50q-108 0 -172 77q-55 65 -55 163q0 157 143 245q116 72 295 79q-42 91 -108 139q-56 41 -120 41q-80 0 -157 -68l-16 18q77 76 172 76q85 0 157 -62q63 -54 96 -142v-24q-196 -9 -312 -86q-121 -79 -121 -217q0 -102 64 -162
q54 -51 135 -51q92 0 166 46zM310 -78q0 -11 -7.5 -18.5t-18.5 -7.5t-18.5 7.5t-7.5 18.5t7.5 18.5t18.5 7.5t18.5 -7.5t7.5 -18.5zM387 -78q0 -11 -7.5 -18.5t-18.5 -7.5t-18.5 7.5t-7.5 18.5t7.5 18.5t18.5 7.5t18.5 -7.5t7.5 -18.5zM348 -148q0 -11 -7.5 -18.5
t-18.5 -7.5t-18.5 7.5t-7.5 18.5t7.5 18.5t18.5 7.5t18.5 -7.5t7.5 -18.5z" />
    <glyph glyph-name="uniFB7B" unicode="&#x686;" horiz-adv-x="680" arabic-form="final" 
d="M477 -315q-79 -50 -180 -50q-108 0 -172 77q-55 65 -55 163q0 157 143 245q116 72 295 79q-42 91 -108 139q-56 41 -120 41q-80 0 -157 -68l-16 18q77 76 172 76q85 0 157 -62q63 -54 96 -142v-24q-63 -4 -107 -11q20 -74 78.5 -107t171.5 -33h15v-26h-20q-119 0 -181 38
q-63 38 -88 123q-145 -29 -223 -102q-79 -74 -79 -185q0 -102 64 -162q54 -51 135 -51q92 0 166 46zM308 -83q0 -11 -7.5 -18.5t-18.5 -7.5t-18.5 7.5t-7.5 18.5t7.5 18.5t18.5 7.5t18.5 -7.5t7.5 -18.5zM385 -83q0 -11 -7.5 -18.5t-18.5 -7.5t-18.5 7.5t-7.5 18.5t7.5 18.5
t18.5 7.5t18.5 -7.5t7.5 -18.5zM346 -153q0 -11 -7.5 -18.5t-18.5 -7.5t-18.5 7.5t-7.5 18.5t7.5 18.5t18.5 7.5t18.5 -7.5t7.5 -18.5z" />
    <glyph glyph-name="uniFB7C" unicode="&#x686;" horiz-adv-x="538" arabic-form="initial" 
d="M95 0h-105v26h106q154 0 236 49q52 31 132 123q-43 91 -108 139q-56 42 -120 42q-80 0 -157 -68l-16 18q77 76 172 76q85 0 157 -62q63 -54 96 -142v-10q-49 -63 -84.5 -96t-76.5 -53q-84 -42 -232 -42zM226 -117q0 -11 -7.5 -18.5t-18.5 -7.5t-18.5 7.5t-7.5 18.5
t7.5 18.5t18.5 7.5t18.5 -7.5t7.5 -18.5zM303 -117q0 -11 -7.5 -18.5t-18.5 -7.5t-18.5 7.5t-7.5 18.5t7.5 18.5t18.5 7.5t18.5 -7.5t7.5 -18.5zM264 -187q0 -11 -7.5 -18.5t-18.5 -7.5t-18.5 7.5t-7.5 18.5t7.5 18.5t18.5 7.5t18.5 -7.5t7.5 -18.5z" />
    <glyph glyph-name="uniFB7D" unicode="&#x686;" horiz-adv-x="670" arabic-form="medial" 
d="M95 0h-105v26h106q154 0 236 49q52 31 132 123q-43 91 -108 139q-56 42 -120 42q-80 0 -157 -68l-16 18q77 76 172 76q85 0 157 -62q63 -54 96 -142v-10q-36 -47 -57 -69q26 -51 80 -73.5t154 -22.5h15v-26h-20q-98 0 -156 25q-59 25 -90 80q-58 -57 -130.5 -81
t-188.5 -24zM253 -117q0 -11 -7.5 -18.5t-18.5 -7.5t-18.5 7.5t-7.5 18.5t7.5 18.5t18.5 7.5t18.5 -7.5t7.5 -18.5zM330 -117q0 -11 -7.5 -18.5t-18.5 -7.5t-18.5 7.5t-7.5 18.5t7.5 18.5t18.5 7.5t18.5 -7.5t7.5 -18.5zM291 -187q0 -11 -7.5 -18.5t-18.5 -7.5t-18.5 7.5
t-7.5 18.5t7.5 18.5t18.5 7.5t18.5 -7.5t7.5 -18.5z" />
    <glyph glyph-name="uniFB7E" unicode="&#x687;" horiz-adv-x="562" arabic-form="isolated" 
d="M477 -315q-79 -50 -180 -50q-108 0 -172 77q-55 65 -55 163q0 157 143 245q116 72 295 79q-42 91 -108 139q-56 41 -120 41q-80 0 -157 -68l-16 18q77 76 172 76q85 0 157 -62q63 -54 96 -142v-24q-196 -9 -312 -86q-121 -79 -121 -217q0 -102 64 -162q54 -51 135 -51
q92 0 166 46zM310 -68q0 -11 -7.5 -18.5t-18.5 -7.5t-18.5 7.5t-7.5 18.5t7.5 18.5t18.5 7.5t18.5 -7.5t7.5 -18.5zM387 -68q0 -11 -7.5 -18.5t-18.5 -7.5t-18.5 7.5t-7.5 18.5t7.5 18.5t18.5 7.5t18.5 -7.5t7.5 -18.5zM310 -147q0 -11 -7.5 -18.5t-18.5 -7.5t-18.5 7.5
t-7.5 18.5t7.5 18.5t18.5 7.5t18.5 -7.5t7.5 -18.5zM387 -147q0 -11 -7.5 -18.5t-18.5 -7.5t-18.5 7.5t-7.5 18.5t7.5 18.5t18.5 7.5t18.5 -7.5t7.5 -18.5z" />
    <glyph glyph-name="uniFB7F" unicode="&#x687;" horiz-adv-x="680" arabic-form="final" 
d="M477 -315q-79 -50 -180 -50q-108 0 -172 77q-55 65 -55 163q0 157 143 245q116 72 295 79q-42 91 -108 139q-56 41 -120 41q-80 0 -157 -68l-16 18q77 76 172 76q85 0 157 -62q63 -54 96 -142v-24q-63 -4 -107 -11q20 -74 78.5 -107t171.5 -33h15v-26h-20q-119 0 -181 38
q-63 38 -88 123q-145 -29 -223 -102q-79 -74 -79 -185q0 -102 64 -162q54 -51 135 -51q92 0 166 46zM309 -74q0 -11 -7.5 -18.5t-18.5 -7.5t-18.5 7.5t-7.5 18.5t7.5 18.5t18.5 7.5t18.5 -7.5t7.5 -18.5zM386 -74q0 -11 -7.5 -18.5t-18.5 -7.5t-18.5 7.5t-7.5 18.5t7.5 18.5
t18.5 7.5t18.5 -7.5t7.5 -18.5zM309 -153q0 -11 -7.5 -18.5t-18.5 -7.5t-18.5 7.5t-7.5 18.5t7.5 18.5t18.5 7.5t18.5 -7.5t7.5 -18.5zM386 -153q0 -11 -7.5 -18.5t-18.5 -7.5t-18.5 7.5t-7.5 18.5t7.5 18.5t18.5 7.5t18.5 -7.5t7.5 -18.5z" />
    <glyph glyph-name="uniFB80" unicode="&#x687;" horiz-adv-x="538" arabic-form="initial" 
d="M95 0h-105v26h106q154 0 236 49q52 31 132 123q-43 91 -108 139q-56 42 -120 42q-80 0 -157 -68l-16 18q77 76 172 76q85 0 157 -62q63 -54 96 -142v-10q-49 -63 -84.5 -96t-76.5 -53q-84 -42 -232 -42zM226 -117q0 -11 -7.5 -18.5t-18.5 -7.5t-18.5 7.5t-7.5 18.5
t7.5 18.5t18.5 7.5t18.5 -7.5t7.5 -18.5zM303 -117q0 -11 -7.5 -18.5t-18.5 -7.5t-18.5 7.5t-7.5 18.5t7.5 18.5t18.5 7.5t18.5 -7.5t7.5 -18.5zM226 -196q0 -11 -7.5 -18.5t-18.5 -7.5t-18.5 7.5t-7.5 18.5t7.5 18.5t18.5 7.5t18.5 -7.5t7.5 -18.5zM303 -196
q0 -11 -7.5 -18.5t-18.5 -7.5t-18.5 7.5t-7.5 18.5t7.5 18.5t18.5 7.5t18.5 -7.5t7.5 -18.5z" />
    <glyph glyph-name="uniFB81" unicode="&#x687;" horiz-adv-x="670" arabic-form="medial" 
d="M95 0h-105v26h106q154 0 236 49q52 31 132 123q-43 91 -108 139q-56 42 -120 42q-80 0 -157 -68l-16 18q77 76 172 76q85 0 157 -62q63 -54 96 -142v-10q-36 -47 -57 -69q26 -51 80 -73.5t154 -22.5h15v-26h-20q-98 0 -156 25q-59 25 -90 80q-58 -57 -130.5 -81
t-188.5 -24zM253 -117q0 -11 -7.5 -18.5t-18.5 -7.5t-18.5 7.5t-7.5 18.5t7.5 18.5t18.5 7.5t18.5 -7.5t7.5 -18.5zM330 -117q0 -11 -7.5 -18.5t-18.5 -7.5t-18.5 7.5t-7.5 18.5t7.5 18.5t18.5 7.5t18.5 -7.5t7.5 -18.5zM253 -196q0 -11 -7.5 -18.5t-18.5 -7.5t-18.5 7.5
t-7.5 18.5t7.5 18.5t18.5 7.5t18.5 -7.5t7.5 -18.5zM330 -196q0 -11 -7.5 -18.5t-18.5 -7.5t-18.5 7.5t-7.5 18.5t7.5 18.5t18.5 7.5t18.5 -7.5t7.5 -18.5z" />
    <glyph glyph-name="uniFB82" unicode="&#x68d;" horiz-adv-x="446" arabic-form="isolated" 
d="M234 0h-214v26h206q59 0 85 23q31 26 31 90q0 75 -42 146q-36 62 -99 111l17 24q78 -60 118 -140q35 -69 35 -142q0 -138 -137 -138zM200 -117q0 -11 -7.5 -18.5t-18.5 -7.5t-18.5 7.5t-7.5 18.5t7.5 18.5t18.5 7.5t18.5 -7.5t7.5 -18.5zM277 -117q0 -11 -7.5 -18.5
t-18.5 -7.5t-18.5 7.5t-7.5 18.5t7.5 18.5t18.5 7.5t18.5 -7.5t7.5 -18.5z" />
    <glyph glyph-name="uniFB83" unicode="&#x68d;" horiz-adv-x="507" arabic-form="final" 
d="M234 0h-214v26h206q59 0 85 23q31 26 31 90q0 75 -42 146q-36 62 -99 111l17 24q78 -60 118 -138q35 -69 35 -138q0 -59 41 -91q35 -27 90 -27h15v-26h-20q-99 0 -137 71q-28 -71 -126 -71zM225 -117q0 -11 -7.5 -18.5t-18.5 -7.5t-18.5 7.5t-7.5 18.5t7.5 18.5t18.5 7.5
t18.5 -7.5t7.5 -18.5zM302 -117q0 -11 -7.5 -18.5t-18.5 -7.5t-18.5 7.5t-7.5 18.5t7.5 18.5t18.5 7.5t18.5 -7.5t7.5 -18.5z" />
    <glyph glyph-name="uniFB84" unicode="&#x68c;" horiz-adv-x="446" arabic-form="isolated" 
d="M176 534q0 -11 -7.5 -18.5t-18.5 -7.5t-18.5 7.5t-7.5 18.5t7.5 18.5t18.5 7.5t18.5 -7.5t7.5 -18.5zM253 534q0 -11 -7.5 -18.5t-18.5 -7.5t-18.5 7.5t-7.5 18.5t7.5 18.5t18.5 7.5t18.5 -7.5t7.5 -18.5zM234 0h-214v26h206q59 0 85 23q31 26 31 90q0 75 -42 146
q-36 62 -99 111l17 24q78 -60 118 -140q35 -69 35 -142q0 -138 -137 -138z" />
    <glyph glyph-name="uniFB85" unicode="&#x68c;" horiz-adv-x="507" arabic-form="final" 
d="M182 534q0 -11 -7.5 -18.5t-18.5 -7.5t-18.5 7.5t-7.5 18.5t7.5 18.5t18.5 7.5t18.5 -7.5t7.5 -18.5zM259 534q0 -11 -7.5 -18.5t-18.5 -7.5t-18.5 7.5t-7.5 18.5t7.5 18.5t18.5 7.5t18.5 -7.5t7.5 -18.5zM234 0h-214v26h206q59 0 85 23q31 26 31 90q0 75 -42 146
q-36 62 -99 111l17 24q78 -60 118 -138q35 -69 35 -138q0 -59 41 -91q35 -27 90 -27h15v-26h-20q-99 0 -137 71q-28 -71 -126 -71z" />
    <glyph glyph-name="uniFB86" unicode="&#x68e;" horiz-adv-x="446" arabic-form="isolated" 
d="M214 604q0 -11 -7.5 -18.5t-18.5 -7.5t-18.5 7.5t-7.5 18.5t7.5 18.5t18.5 7.5t18.5 -7.5t7.5 -18.5zM176 534q0 -11 -7.5 -18.5t-18.5 -7.5t-18.5 7.5t-7.5 18.5t7.5 18.5t18.5 7.5t18.5 -7.5t7.5 -18.5zM253 534q0 -11 -7.5 -18.5t-18.5 -7.5t-18.5 7.5t-7.5 18.5
t7.5 18.5t18.5 7.5t18.5 -7.5t7.5 -18.5zM234 0h-214v26h206q59 0 85 23q31 26 31 90q0 75 -42 146q-36 62 -99 111l17 24q78 -60 118 -140q35 -69 35 -142q0 -138 -137 -138z" />
    <glyph glyph-name="uniFB87" unicode="&#x68e;" horiz-adv-x="507" arabic-form="final" 
d="M220 604q0 -11 -7.5 -18.5t-18.5 -7.5t-18.5 7.5t-7.5 18.5t7.5 18.5t18.5 7.5t18.5 -7.5t7.5 -18.5zM182 534q0 -11 -7.5 -18.5t-18.5 -7.5t-18.5 7.5t-7.5 18.5t7.5 18.5t18.5 7.5t18.5 -7.5t7.5 -18.5zM259 534q0 -11 -7.5 -18.5t-18.5 -7.5t-18.5 7.5t-7.5 18.5
t7.5 18.5t18.5 7.5t18.5 -7.5t7.5 -18.5zM234 0h-214v26h206q59 0 85 23q31 26 31 90q0 75 -42 146q-36 62 -99 111l17 24q78 -60 118 -138q35 -69 35 -138q0 -59 41 -91q35 -27 90 -27h15v-26h-20q-99 0 -137 71q-28 -71 -126 -71z" />
    <glyph glyph-name="uniFB88" unicode="&#x688;" horiz-adv-x="446" arabic-form="isolated" 
d="M236 524h-160v24h41v137h25v-102q39 63 94 63q30 0 47.5 -16t17.5 -44q0 -62 -65 -62zM143 548h91q23 0 32.5 8.5t9.5 29.5q0 35 -40 35q-24 0 -49.5 -20t-43.5 -53zM234 0h-214v26h206q59 0 85 23q31 26 31 90q0 75 -42 146q-36 62 -99 111l17 24q78 -60 118 -140
q35 -69 35 -142q0 -138 -137 -138z" />
    <glyph glyph-name="uniFB89" unicode="&#x688;" horiz-adv-x="507" arabic-form="final" 
d="M242 524h-160v24h41v137h25v-102q39 63 94 63q30 0 47.5 -16t17.5 -44q0 -62 -65 -62zM149 548h91q23 0 32.5 8.5t9.5 29.5q0 35 -40 35q-24 0 -49.5 -20t-43.5 -53zM234 0h-214v26h206q59 0 85 23q31 26 31 90q0 75 -42 146q-36 62 -99 111l17 24q78 -60 118 -138
q35 -69 35 -138q0 -59 41 -91q35 -27 90 -27h15v-26h-20q-99 0 -137 71q-28 -71 -126 -71z" />
    <glyph glyph-name="uniFB8A" unicode="&#x698;" horiz-adv-x="316" arabic-form="isolated" 
d="M235 604q0 -11 -7.5 -18.5t-18.5 -7.5t-18.5 7.5t-7.5 18.5t7.5 18.5t18.5 7.5t18.5 -7.5t7.5 -18.5zM197 534q0 -11 -7.5 -18.5t-18.5 -7.5t-18.5 7.5t-7.5 18.5t7.5 18.5t18.5 7.5t18.5 -7.5t7.5 -18.5zM274 534q0 -11 -7.5 -18.5t-18.5 -7.5t-18.5 7.5t-7.5 18.5
t7.5 18.5t18.5 7.5t18.5 -7.5t7.5 -18.5zM226 418v-415q0 -97 -53 -149q-44 -43 -113 -43q-54 0 -110 26l8 25q53 -25 99 -25q68 0 106 50q34 44 34 116v415h29z" />
    <glyph glyph-name="uniFB8B" unicode="&#x698;" horiz-adv-x="364" arabic-form="final" 
d="M235 604q0 -11 -7.5 -18.5t-18.5 -7.5t-18.5 7.5t-7.5 18.5t7.5 18.5t18.5 7.5t18.5 -7.5t7.5 -18.5zM197 534q0 -11 -7.5 -18.5t-18.5 -7.5t-18.5 7.5t-7.5 18.5t7.5 18.5t18.5 7.5t18.5 -7.5t7.5 -18.5zM274 534q0 -11 -7.5 -18.5t-18.5 -7.5t-18.5 7.5t-7.5 18.5
t7.5 18.5t18.5 7.5t18.5 -7.5t7.5 -18.5zM226 57v-54q0 -97 -53 -149q-44 -43 -113 -43q-54 0 -110 26l8 25q53 -25 99 -25q68 0 106 50q34 44 34 116v415h29v-254q0 -138 137 -138h11v-26h-21q-87 0 -127 57z" />
    <glyph glyph-name="uniFB8C" unicode="&#x691;" horiz-adv-x="316" arabic-form="isolated" 
d="M257 524h-160v24h41v137h25v-102q39 63 94 63q30 0 47.5 -16t17.5 -44q0 -62 -65 -62zM164 548h91q23 0 32.5 8.5t9.5 29.5q0 35 -40 35q-24 0 -49.5 -20t-43.5 -53zM226 418v-415q0 -97 -53 -149q-44 -43 -113 -43q-54 0 -110 26l8 25q53 -25 99 -25q68 0 106 50
q34 44 34 116v415h29z" />
    <glyph glyph-name="uniFB8D" unicode="&#x691;" horiz-adv-x="364" arabic-form="final" 
d="M257 524h-160v24h41v137h25v-102q39 63 94 63q30 0 47.5 -16t17.5 -44q0 -62 -65 -62zM164 548h91q23 0 32.5 8.5t9.5 29.5q0 35 -40 35q-24 0 -49.5 -20t-43.5 -53zM226 57v-54q0 -97 -53 -149q-44 -43 -113 -43q-54 0 -110 26l8 25q53 -25 99 -25q68 0 106 50
q34 44 34 116v415h29v-254q0 -138 137 -138h11v-26h-21q-87 0 -127 57z" />
    <glyph glyph-name="uniFB8E" unicode="&#x6a9;" horiz-adv-x="866" arabic-form="isolated" 
d="M473 372h184q80 0 122 -50q37 -45 37 -120v-24q0 -94 -47 -139q-40 -39 -112 -39h-378q-100 0 -154 63q-45 50 -45 126q0 60 30 109q28 46 77 72l13 -20q-49 -26 -72 -76q-19 -40 -19 -87q0 -76 49 -120q45 -41 121 -41h375q77 0 108 44q25 37 25 115v16q0 145 -133 145
h-212v29l218 226l16 -16z" />
    <glyph glyph-name="uniFB8F" unicode="&#x6a9;" horiz-adv-x="944" arabic-form="final" 
d="M657 0h-378q-100 0 -154 63q-45 50 -45 126q0 60 30 109q28 46 77 72l13 -20q-49 -26 -72 -76q-19 -40 -19 -87q0 -76 49 -120q45 -41 121 -41h375q77 0 108 44q25 37 25 115v16q0 145 -133 145h-212v29l218 226l16 -16l-203 -213h184q80 0 122 -50q37 -45 37 -120v-34
q0 -142 124 -142h14v-26h-21q-102 0 -133 86q-33 -86 -143 -86z" />
    <glyph glyph-name="uniFB90" unicode="&#x6a9;" horiz-adv-x="541" arabic-form="initial" 
d="M332 0h-342v26h339q77 0 108 44q25 37 25 115v16q0 145 -133 145h-272v29l218 226l16 -16l-203 -213h244q80 0 122 -50q37 -45 37 -120v-24q0 -94 -47 -139q-40 -39 -112 -39z" />
    <glyph glyph-name="uniFB91" unicode="&#x6a9;" horiz-adv-x="619" arabic-form="medial" 
d="M332 0h-342v26h339q75 0 107 43q26 36 26 106v36q0 67 -38 102q-35 33 -95 33h-272v29l218 226l16 -16l-203 -213h244q78 0 122 -47q37 -41 37 -103v-58q0 -138 127 -138h11v-26h-20q-52 0 -90 28q-31 22 -43 56q-35 -84 -144 -84z" />
    <glyph glyph-name="uniFB92" unicode="&#x6af;" horiz-adv-x="866" arabic-form="isolated" 
d="M434 426l-16 18l184 196l16 -18zM473 372h184q80 0 122 -50q37 -45 37 -120v-24q0 -94 -47 -139q-40 -39 -112 -39h-378q-100 0 -154 63q-45 50 -45 126q0 60 30 109q28 46 77 72l13 -20q-49 -26 -72 -76q-19 -40 -19 -87q0 -76 49 -120q45 -41 121 -41h375q77 0 108 44
q25 37 25 115v16q0 145 -133 145h-212v29l218 226l16 -16z" />
    <glyph glyph-name="uniFB93" unicode="&#x6af;" horiz-adv-x="944" arabic-form="final" 
d="M434 426l-16 18l184 196l16 -18zM657 0h-378q-100 0 -154 63q-45 50 -45 126q0 60 30 109q28 46 77 72l13 -20q-49 -26 -72 -76q-19 -40 -19 -87q0 -76 49 -120q45 -41 121 -41h375q77 0 108 44q25 37 25 115v16q0 145 -133 145h-212v29l218 226l16 -16l-203 -213h184
q80 0 122 -50q37 -45 37 -120v-34q0 -142 124 -142h14v-26h-21q-102 0 -133 86q-33 -86 -143 -86z" />
    <glyph glyph-name="uniFB94" unicode="&#x6af;" horiz-adv-x="541" arabic-form="initial" 
d="M49 426l-16 18l184 196l16 -18zM332 0h-342v26h339q77 0 108 44q25 37 25 115v16q0 145 -133 145h-272v29l218 226l16 -16l-203 -213h244q80 0 122 -50q37 -45 37 -120v-24q0 -94 -47 -139q-40 -39 -112 -39z" />
    <glyph glyph-name="uniFB95" unicode="&#x6af;" horiz-adv-x="619" arabic-form="medial" 
d="M49 426l-16 18l184 196l16 -18zM332 0h-342v26h339q75 0 107 43q26 36 26 106v36q0 67 -38 102q-35 33 -95 33h-272v29l218 226l16 -16l-203 -213h244q78 0 122 -47q37 -41 37 -103v-58q0 -138 127 -138h11v-26h-20q-52 0 -90 28q-31 22 -43 56q-35 -84 -144 -84z" />
    <glyph glyph-name="uniFB96" unicode="&#x6b3;" horiz-adv-x="866" arabic-form="isolated" 
d="M434 426l-16 18l184 196l16 -18zM473 372h184q80 0 122 -50q37 -45 37 -120v-24q0 -94 -47 -139q-40 -39 -112 -39h-378q-100 0 -154 63q-45 50 -45 126q0 60 30 109q28 46 77 72l13 -20q-49 -26 -72 -76q-19 -40 -19 -87q0 -76 49 -120q45 -41 121 -41h375q77 0 108 44
q25 37 25 115v16q0 145 -133 145h-212v29l218 226l16 -16zM484 -117q0 -11 -7.5 -18.5t-18.5 -7.5t-18.5 7.5t-7.5 18.5t7.5 18.5t18.5 7.5t18.5 -7.5t7.5 -18.5zM484 -196q0 -11 -7.5 -18.5t-18.5 -7.5t-18.5 7.5t-7.5 18.5t7.5 18.5t18.5 7.5t18.5 -7.5t7.5 -18.5z" />
    <glyph glyph-name="uniFB97" unicode="&#x6b3;" horiz-adv-x="944" arabic-form="final" 
d="M434 426l-16 18l184 196l16 -18zM657 0h-378q-100 0 -154 63q-45 50 -45 126q0 60 30 109q28 46 77 72l13 -20q-49 -26 -72 -76q-19 -40 -19 -87q0 -76 49 -120q45 -41 121 -41h375q77 0 108 44q25 37 25 115v16q0 145 -133 145h-212v29l218 226l16 -16l-203 -213h184
q80 0 122 -50q37 -45 37 -120v-34q0 -142 124 -142h14v-26h-21q-102 0 -133 86q-33 -86 -143 -86zM484 -117q0 -11 -7.5 -18.5t-18.5 -7.5t-18.5 7.5t-7.5 18.5t7.5 18.5t18.5 7.5t18.5 -7.5t7.5 -18.5zM484 -196q0 -11 -7.5 -18.5t-18.5 -7.5t-18.5 7.5t-7.5 18.5t7.5 18.5
t18.5 7.5t18.5 -7.5t7.5 -18.5z" />
    <glyph glyph-name="uniFB98" unicode="&#x6b3;" horiz-adv-x="541" arabic-form="initial" 
d="M49 426l-16 18l184 196l16 -18zM332 0h-342v26h339q77 0 108 44q25 37 25 115v16q0 145 -133 145h-272v29l218 226l16 -16l-203 -213h244q80 0 122 -50q37 -45 37 -120v-24q0 -94 -47 -139q-40 -39 -112 -39zM217 -117q0 -11 -7.5 -18.5t-18.5 -7.5t-18.5 7.5t-7.5 18.5
t7.5 18.5t18.5 7.5t18.5 -7.5t7.5 -18.5zM217 -196q0 -11 -7.5 -18.5t-18.5 -7.5t-18.5 7.5t-7.5 18.5t7.5 18.5t18.5 7.5t18.5 -7.5t7.5 -18.5z" />
    <glyph glyph-name="uniFB99" unicode="&#x6b3;" horiz-adv-x="619" arabic-form="medial" 
d="M49 426l-16 18l184 196l16 -18zM332 0h-342v26h339q75 0 107 43q26 36 26 106v36q0 67 -38 102q-35 33 -95 33h-272v29l218 226l16 -16l-203 -213h244q78 0 122 -47q37 -41 37 -103v-58q0 -138 127 -138h11v-26h-20q-52 0 -90 28q-31 22 -43 56q-35 -84 -144 -84z
M237 -117q0 -11 -7.5 -18.5t-18.5 -7.5t-18.5 7.5t-7.5 18.5t7.5 18.5t18.5 7.5t18.5 -7.5t7.5 -18.5zM237 -196q0 -11 -7.5 -18.5t-18.5 -7.5t-18.5 7.5t-7.5 18.5t7.5 18.5t18.5 7.5t18.5 -7.5t7.5 -18.5z" />
    <glyph glyph-name="uniFB9A" unicode="&#x6b1;" horiz-adv-x="866" arabic-form="isolated" 
d="M412 627q0 -11 -7.5 -18.5t-18.5 -7.5t-18.5 7.5t-7.5 18.5t7.5 18.5t18.5 7.5t18.5 -7.5t7.5 -18.5zM489 627q0 -11 -7.5 -18.5t-18.5 -7.5t-18.5 7.5t-7.5 18.5t7.5 18.5t18.5 7.5t18.5 -7.5t7.5 -18.5zM434 426l-16 18l184 196l16 -18zM473 372h184q80 0 122 -50
q37 -45 37 -120v-24q0 -94 -47 -139q-40 -39 -112 -39h-378q-100 0 -154 63q-45 50 -45 126q0 60 30 109q28 46 77 72l13 -20q-49 -26 -72 -76q-19 -40 -19 -87q0 -76 49 -120q45 -41 121 -41h375q77 0 108 44q25 37 25 115v16q0 145 -133 145h-212v29l218 226l16 -16z" />
    <glyph glyph-name="uniFB9B" unicode="&#x6b1;" horiz-adv-x="944" arabic-form="final" 
d="M412 627q0 -11 -7.5 -18.5t-18.5 -7.5t-18.5 7.5t-7.5 18.5t7.5 18.5t18.5 7.5t18.5 -7.5t7.5 -18.5zM489 627q0 -11 -7.5 -18.5t-18.5 -7.5t-18.5 7.5t-7.5 18.5t7.5 18.5t18.5 7.5t18.5 -7.5t7.5 -18.5zM434 426l-16 18l184 196l16 -18zM657 0h-378q-100 0 -154 63
q-45 50 -45 126q0 60 30 109q28 46 77 72l13 -20q-49 -26 -72 -76q-19 -40 -19 -87q0 -76 49 -120q45 -41 121 -41h375q77 0 108 44q25 37 25 115v16q0 145 -133 145h-212v29l218 226l16 -16l-203 -213h184q80 0 122 -50q37 -45 37 -120v-34q0 -142 124 -142h14v-26h-21
q-102 0 -133 86q-33 -86 -143 -86z" />
    <glyph glyph-name="uniFB9C" unicode="&#x6b1;" horiz-adv-x="541" arabic-form="initial" 
d="M15 657q0 -11 -7.5 -18.5t-18.5 -7.5t-18.5 7.5t-7.5 18.5t7.5 18.5t18.5 7.5t18.5 -7.5t7.5 -18.5zM92 657q0 -11 -7.5 -18.5t-18.5 -7.5t-18.5 7.5t-7.5 18.5t7.5 18.5t18.5 7.5t18.5 -7.5t7.5 -18.5zM49 426l-16 18l184 196l16 -18zM332 0h-342v26h339q77 0 108 44
q25 37 25 115v16q0 145 -133 145h-272v29l218 226l16 -16l-203 -213h244q80 0 122 -50q37 -45 37 -120v-24q0 -94 -47 -139q-40 -39 -112 -39z" />
    <glyph glyph-name="uniFB9D" unicode="&#x6b1;" horiz-adv-x="619" arabic-form="medial" 
d="M15 657q0 -11 -7.5 -18.5t-18.5 -7.5t-18.5 7.5t-7.5 18.5t7.5 18.5t18.5 7.5t18.5 -7.5t7.5 -18.5zM92 657q0 -11 -7.5 -18.5t-18.5 -7.5t-18.5 7.5t-7.5 18.5t7.5 18.5t18.5 7.5t18.5 -7.5t7.5 -18.5zM49 426l-16 18l184 196l16 -18zM332 0h-342v26h339q75 0 107 43
q26 36 26 106v36q0 67 -38 102q-35 33 -95 33h-272v29l218 226l16 -16l-203 -213h244q78 0 122 -47q37 -41 37 -103v-58q0 -138 127 -138h11v-26h-20q-52 0 -90 28q-31 22 -43 56q-35 -84 -144 -84z" />
    <glyph glyph-name="uniFB9E" unicode="&#x6ba;" horiz-adv-x="649" arabic-form="isolated" 
d="M559 418v-379q0 -113 -74 -175q-66 -55 -178 -55q-122 0 -187 86q-50 67 -50 160q0 41 13 83t35 72l21 -10q-41 -71 -41 -150q0 -96 63 -158q58 -57 146 -57q115 0 174 64q49 53 49 141v378h29z" />
    <glyph glyph-name="uniFB9F" unicode="&#x6ba;" horiz-adv-x="697" arabic-form="final" 
d="M559 57v-18q0 -113 -74 -175q-66 -55 -178 -55q-122 0 -187 86q-50 67 -50 160q0 41 13 83t35 72l21 -10q-41 -66 -41 -150q0 -96 63 -158q58 -57 146 -57q115 0 174 64q49 53 49 141v378h29v-254q0 -138 137 -138h11v-26h-20q-88 0 -128 57z" />
    <glyph glyph-name="uniFBA0" unicode="&#x6bb;" horiz-adv-x="649" arabic-form="isolated" 
d="M336 399h-160v24h41v137h25v-102q39 63 94 63q30 0 47.5 -16t17.5 -44q0 -62 -65 -62zM243 423h91q23 0 32.5 8.5t9.5 29.5q0 35 -40 35q-24 0 -49.5 -20t-43.5 -53zM559 418v-379q0 -113 -74 -175q-66 -55 -178 -55q-122 0 -187 86q-50 67 -50 160q0 41 13 83t35 72
l21 -10q-41 -71 -41 -150q0 -96 63 -158q58 -57 146 -57q115 0 174 64q49 53 49 141v378h29z" />
    <glyph glyph-name="uniFBA1" unicode="&#x6bb;" horiz-adv-x="697" arabic-form="final" 
d="M336 399h-160v24h41v137h25v-102q39 63 94 63q30 0 47.5 -16t17.5 -44q0 -62 -65 -62zM243 423h91q23 0 32.5 8.5t9.5 29.5q0 35 -40 35q-24 0 -49.5 -20t-43.5 -53zM559 57v-18q0 -113 -74 -175q-66 -55 -178 -55q-122 0 -187 86q-50 67 -50 160q0 41 13 83t35 72
l21 -10q-41 -66 -41 -150q0 -96 63 -158q58 -57 146 -57q115 0 174 64q49 53 49 141v378h29v-254q0 -138 137 -138h11v-26h-20q-88 0 -128 57z" />
    <glyph glyph-name="uniFBA2" unicode="&#x6bb;" horiz-adv-x="256" arabic-form="initial" 
d="M197 524h-160v24h41v137h25v-102q39 63 94 63q30 0 47.5 -16t17.5 -44q0 -62 -65 -62zM104 548h91q23 0 32.5 8.5t9.5 29.5q0 35 -40 35q-24 0 -49.5 -20t-43.5 -53zM10 0h-20v26h11q137 0 137 138v254h29v-254q0 -86 -47 -128q-40 -36 -110 -36z" />
    <glyph glyph-name="uniFBA3" unicode="&#x6bb;" horiz-adv-x="305" arabic-form="medial" 
d="M200 524h-160v24h41v137h25v-102q39 63 94 63q30 0 47.5 -16t17.5 -44q0 -62 -65 -62zM107 548h91q23 0 32.5 8.5t9.5 29.5q0 35 -40 35q-24 0 -49.5 -20t-43.5 -53zM10 0h-20v26h11q137 0 137 138v254h29v-254q0 -138 137 -138h11v-26h-17q-110 0 -145 82
q-36 -82 -143 -82z" />
    <glyph glyph-name="uniFBA4" unicode="&#x6c0;" horiz-adv-x="488" arabic-form="isolated" 
d="M317 519h-146v23h36q-10 17 -10 35q0 26 18 43t45 17t45 -14l-10 -20q-17 10 -34 10q-18 0 -28.5 -10t-10.5 -26q0 -19 15 -35h80v-23zM258 -5h-28q-79 0 -123 66q-39 58 -39 151q0 106 53 164q46 50 123 50q88 0 135 -65q41 -56 41 -149q0 -107 -50 -166
q-44 -51 -112 -51zM97 211q0 -92 39 -143q36 -47 98 -47h20q71 0 107 61q30 50 30 129q0 91 -41 142q-39 47 -106 47q-77 0 -116 -61q-31 -49 -31 -128z" />
    <glyph glyph-name="uniFBA5" unicode="&#x6c0;" horiz-adv-x="542" arabic-form="final" 
d="M315 553h-146v23h36q-10 17 -10 35q0 26 18 43t45 17t45 -14l-10 -20q-17 10 -34 10q-18 0 -28.5 -10t-10.5 -26q0 -19 15 -35h80v-23zM552 0h-17q-64 0 -105 33q-34 26 -48 71q-56 -74 -147 -74q-77 0 -123 59q-42 54 -42 141q0 100 64 156q56 48 147 48h93v55h29v-325
q0 -72 40 -107q35 -31 98 -31h11v-26zM374 407h-95q-92 0 -139 -53q-41 -45 -41 -123q0 -89 45 -137q37 -38 91 -38q85 0 141 77q-2 20 -2 32v242z" />
    <glyph glyph-name="uniFBA6" unicode="&#x6c1;" horiz-adv-x="488" arabic-form="isolated" 
d="M258 -5h-28q-79 0 -123 66q-39 58 -39 151q0 106 53 164q46 50 123 50q88 0 135 -65q41 -56 41 -149q0 -107 -50 -166q-44 -51 -112 -51zM97 211q0 -92 39 -143q36 -47 98 -47h20q71 0 107 61q30 50 30 129q0 91 -41 142q-39 47 -106 47q-77 0 -116 -61q-31 -49 -31 -128
z" />
    <glyph glyph-name="uniFBA7" unicode="&#x6c1;" horiz-adv-x="629" arabic-form="final" 
d="M603 0q-74 0 -120 61q-14 19 -50 92q-21 41 -38 58q-25 25 -57 25q-84 0 -173 -85q-60 -57 -111 -141l-24 14q63 110 149 175q81 63 159 63q52 0 86 -41q16 -19 50 -89q29 -59 58 -81q31 -25 74 -25h33v-26h-36z" />
    <glyph glyph-name="uniFBA8" unicode="&#x6c1;" horiz-adv-x="256" arabic-form="initial" 
d="M10 0h-20v26h11q137 0 137 138v254h29v-254q0 -86 -47 -128q-40 -36 -110 -36zM48 -245l-29 11l50 169l17 -6z" />
    <glyph glyph-name="uniFBA9" unicode="&#x6c1;" horiz-adv-x="531" arabic-form="medial" 
d="M541 0h-13q-75 0 -96 -73q-14 -47 -14 -174v-53h-35q-113 0 -168 93q-43 72 -43 184q0 84 24 171q-87 -148 -189 -148h-17v26h14q57 0 111 57q30 31 83 112q6 10 10 16l29 -13q-37 -116 -37 -220q0 -121 51 -187q49 -64 138 -64v26q0 155 26 210q29 63 108 63h18v-26z
" />
    <glyph glyph-name="uniFBAA" unicode="&#x6be;" horiz-adv-x="585" arabic-form="isolated" 
d="M144 0h-154v26h154q10 0 28 2q-51 27 -79 79q-24 43 -24 91q0 64 39 106q39 41 100 41q69 0 107 -51q31 -40 31 -97q0 -55 -29 -102q-28 -43 -75 -67q20 -2 115 -2q74 0 106 42q23 29 23 77q0 61 -32 120q-36 65 -103 109q-76 49 -182 62l4 25q167 -18 264 -125
q78 -86 78 -191q0 -68 -40 -107q-40 -38 -112 -38h-91q-35 0 -65 10q-30 -10 -63 -10zM208 38q56 21 85 73q24 41 24 88q0 55 -31 88q-29 32 -78 32q-56 0 -86 -40q-24 -31 -24 -78q0 -55 31 -100q30 -44 79 -63z" />
    <glyph glyph-name="uniFBAB" unicode="&#x6be;" horiz-adv-x="653" arabic-form="final" 
d="M144 0h-154v26h154q10 0 28 2q-51 27 -79 79q-24 43 -24 91q0 64 39 106q39 41 100 41q69 0 107 -51q31 -40 31 -97q0 -55 -29 -102q-28 -43 -75 -67q10 -1 10 -2h-2h22q83 0 153 41q61 37 61 78q0 61 -32 120q-36 65 -103 109q-76 49 -182 62l4 25q166 -18 264 -125
q78 -85 78 -184q0 -63 38 -95q35 -31 99 -31h11v-26h-20q-105 0 -141 79q-33 -79 -139 -79h-91q-35 0 -65 10q-30 -10 -63 -10zM208 38q56 21 85 73q24 41 24 88q0 55 -31 88q-29 32 -78 32q-56 0 -86 -40q-24 -31 -24 -78q0 -55 31 -100q30 -44 79 -63z" />
    <glyph glyph-name="uniFBAC" unicode="&#x6be;" horiz-adv-x="585" arabic-form="initial" 
d="M144 0h-154v26h154q10 0 28 2q-51 27 -79 79q-24 43 -24 91q0 64 39 106q39 41 100 41q69 0 107 -51q31 -40 31 -97q0 -55 -29 -102q-28 -43 -75 -67q20 -2 115 -2q74 0 106 42q23 29 23 77q0 61 -32 120q-36 65 -103 109q-76 49 -182 62l4 25q167 -18 264 -125
q78 -86 78 -191q0 -68 -40 -107q-40 -38 -112 -38h-91q-35 0 -65 10q-30 -10 -63 -10zM208 38q56 21 85 73q24 41 24 88q0 55 -31 88q-29 32 -78 32q-56 0 -86 -40q-24 -31 -24 -78q0 -55 31 -100q30 -44 79 -63z" />
    <glyph glyph-name="uniFBAD" unicode="&#x6be;" horiz-adv-x="653" arabic-form="medial" 
d="M144 0h-154v26h154q10 0 28 2q-51 27 -79 79q-24 43 -24 91q0 64 39 106q39 41 100 41q69 0 107 -51q31 -40 31 -97q0 -55 -29 -102q-28 -43 -75 -67q10 -1 10 -2h-2h22q83 0 153 41q61 37 61 78q0 61 -32 120q-36 65 -103 109q-76 49 -182 62l4 25q166 -18 264 -125
q78 -85 78 -184q0 -63 38 -95q35 -31 99 -31h11v-26h-20q-105 0 -141 79q-33 -79 -139 -79h-91q-35 0 -65 10q-30 -10 -63 -10zM208 38q56 21 85 73q24 41 24 88q0 55 -31 88q-29 32 -78 32q-56 0 -86 -40q-24 -31 -24 -78q0 -55 31 -100q30 -44 79 -63z" />
    <glyph glyph-name="uniFBAE" unicode="&#x6d2;" horiz-adv-x="810" arabic-form="isolated" 
d="M738 0h-556q-147 0 -147 142q0 77 40 119q41 44 122 44h109v26q0 87 44 130q37 37 100 37q35 0 55.5 -6.5t51.5 -28.5l-17 -22q-36 30 -89 30q-118 0 -118 -149v-44h-138q-131 0 -131 -134q0 -118 117 -118h571z" />
    <glyph glyph-name="uniFBAF" unicode="&#x6d2;" horiz-adv-x="782" arabic-form="final" 
d="M792 0h-191q-245 0 -378 -45q-112 -37 -112 -97q0 -77 153 -77h368l-12 -26h-350q-105 0 -150 28q-38 25 -38 75q0 84 146 128q134 40 372 40h192v-26z" />
    <glyph glyph-name="uniFBB0" unicode="&#x6d3;" horiz-adv-x="810" arabic-form="isolated" 
d="M240 492h-146v23h36q-10 17 -10 35q0 26 18 43t45 17t45 -14l-10 -20q-17 10 -34 10q-18 0 -28.5 -10t-10.5 -26q0 -19 15 -35h80v-23zM738 0h-556q-147 0 -147 142q0 77 40 119q41 44 122 44h109v26q0 87 44 130q37 37 100 37q35 0 55.5 -6.5t51.5 -28.5l-17 -22
q-36 30 -89 30q-118 0 -118 -149v-44h-138q-131 0 -131 -134q0 -118 117 -118h571z" />
    <glyph glyph-name="uniFBB1" unicode="&#x6d3;" horiz-adv-x="782" arabic-form="final" 
d="M554 148h-146v23h36q-10 17 -10 35q0 26 18 43t45 17t45 -14l-10 -20q-17 10 -34 10q-18 0 -28.5 -10t-10.5 -26q0 -19 15 -35h80v-23zM792 0h-191q-245 0 -378 -45q-112 -37 -112 -97q0 -77 153 -77h368l-12 -26h-350q-105 0 -150 28q-38 25 -38 75q0 84 146 128
q134 40 372 40h192v-26z" />
    <glyph glyph-name="uniFBD3" unicode="&#x6ad;" horiz-adv-x="847" arabic-form="isolated" 
d="M767 847q0 -11 -7.5 -18.5t-18.5 -7.5t-18.5 7.5t-7.5 18.5t7.5 18.5t18.5 7.5t18.5 -7.5t7.5 -18.5zM729 777q0 -11 -7.5 -18.5t-18.5 -7.5t-18.5 7.5t-7.5 18.5t7.5 18.5t18.5 7.5t18.5 -7.5t7.5 -18.5zM806 777q0 -11 -7.5 -18.5t-18.5 -7.5t-18.5 7.5t-7.5 18.5
t7.5 18.5t18.5 7.5t18.5 -7.5t7.5 -18.5zM597 0h-318q-98 0 -154 70q-45 56 -45 131q0 60 30 109q28 46 77 72l13 -20q-49 -26 -72 -76q-19 -40 -19 -87q0 -76 49 -125q47 -48 121 -48h312q137 0 137 138v502h29v-502q0 -86 -48 -128q-40 -36 -112 -36zM463 362h-97v21h89
q47 0 47 40q0 50 -60 50q-23 0 -49 -8v22l80 89l13 -10l-62 -71q10 2 20 2q36 0 58 -20t22 -53q0 -28 -16.5 -45t-44.5 -17z" />
    <glyph glyph-name="uniFBD4" unicode="&#x6ad;" horiz-adv-x="895" arabic-form="final" 
d="M767 847q0 -11 -7.5 -18.5t-18.5 -7.5t-18.5 7.5t-7.5 18.5t7.5 18.5t18.5 7.5t18.5 -7.5t7.5 -18.5zM729 777q0 -11 -7.5 -18.5t-18.5 -7.5t-18.5 7.5t-7.5 18.5t7.5 18.5t18.5 7.5t18.5 -7.5t7.5 -18.5zM806 777q0 -11 -7.5 -18.5t-18.5 -7.5t-18.5 7.5t-7.5 18.5
t7.5 18.5t18.5 7.5t18.5 -7.5t7.5 -18.5zM591 0h-312q-98 0 -154 70q-45 56 -45 131q0 60 30 109q28 46 77 72l13 -20q-49 -26 -72 -76q-19 -40 -19 -87q0 -76 49 -125q47 -48 121 -48h312q137 0 137 138v502h29v-502q0 -138 137 -138h11v-26h-20q-107 0 -142 82
q-38 -82 -152 -82zM463 362h-97v21h89q47 0 47 40q0 50 -60 50q-23 0 -49 -8v22l80 89l13 -10l-62 -71q10 2 20 2q36 0 58 -20t22 -53q0 -28 -16.5 -45t-44.5 -17z" />
    <glyph glyph-name="uniFBD5" unicode="&#x6ad;" horiz-adv-x="541" arabic-form="initial" 
d="M148 687q0 -11 -7.5 -18.5t-18.5 -7.5t-18.5 7.5t-7.5 18.5t7.5 18.5t18.5 7.5t18.5 -7.5t7.5 -18.5zM110 617q0 -11 -7.5 -18.5t-18.5 -7.5t-18.5 7.5t-7.5 18.5t7.5 18.5t18.5 7.5t18.5 -7.5t7.5 -18.5zM187 617q0 -11 -7.5 -18.5t-18.5 -7.5t-18.5 7.5t-7.5 18.5
t7.5 18.5t18.5 7.5t18.5 -7.5t7.5 -18.5zM332 0h-342v26h339q77 0 108 44q25 37 25 115v16q0 145 -133 145h-272v29l218 226l16 -16l-203 -213h244q80 0 122 -50q37 -45 37 -120v-24q0 -94 -47 -139q-40 -39 -112 -39z" />
    <glyph glyph-name="uniFBD6" unicode="&#x6ad;" horiz-adv-x="619" arabic-form="medial" 
d="M148 687q0 -11 -7.5 -18.5t-18.5 -7.5t-18.5 7.5t-7.5 18.5t7.5 18.5t18.5 7.5t18.5 -7.5t7.5 -18.5zM110 617q0 -11 -7.5 -18.5t-18.5 -7.5t-18.5 7.5t-7.5 18.5t7.5 18.5t18.5 7.5t18.5 -7.5t7.5 -18.5zM187 617q0 -11 -7.5 -18.5t-18.5 -7.5t-18.5 7.5t-7.5 18.5
t7.5 18.5t18.5 7.5t18.5 -7.5t7.5 -18.5zM332 0h-342v26h339q75 0 107 43q26 36 26 106v36q0 67 -38 102q-35 33 -95 33h-272v29l218 226l16 -16l-203 -213h244q78 0 122 -47q37 -41 37 -103v-58q0 -138 127 -138h11v-26h-20q-52 0 -90 28q-31 22 -43 56q-35 -84 -144 -84z
" />
    <glyph glyph-name="uniFBD7" unicode="&#x6c7;" horiz-adv-x="483" arabic-form="isolated" 
d="M271 536l-110 -19l-2 21l97 18q-24 18 -24 49q0 21 13.5 35.5t32.5 14.5q21 0 34.5 -14.5t13.5 -36.5q0 -25 -15.5 -44.5t-39.5 -23.5zM280 563q24 8 24 39q0 14 -7.5 23.5t-18.5 9.5q-10 0 -16.5 -9t-6.5 -23q0 -28 25 -40zM374 59q-47 -52 -136 -52q-83 0 -128 64
q-40 56 -40 147q0 102 53 158q46 50 123 50q79 0 120 -49q37 -43 37 -115v-259q0 -99 -55 -150q-45 -42 -116 -42q-59 0 -125 30l8 25q63 -29 115 -29q70 0 109 47q35 44 35 119v56zM374 97v155q0 77 -38 115q-32 33 -90 33q-75 0 -115 -60q-32 -49 -32 -123q0 -92 41 -141
q36 -43 97 -43q50 0 82 15t55 49z" />
    <glyph glyph-name="uniFBD8" unicode="&#x6c7;" horiz-adv-x="511" arabic-form="final" 
d="M271 536l-110 -19l-2 21l97 18q-24 18 -24 49q0 21 13.5 35.5t32.5 14.5q21 0 34.5 -14.5t13.5 -36.5q0 -25 -15.5 -44.5t-39.5 -23.5zM280 563q24 8 24 39q0 14 -7.5 23.5t-18.5 9.5q-10 0 -16.5 -9t-6.5 -23q0 -28 25 -40zM403 0q0 -96 -55 -147q-45 -42 -116 -42
q-59 0 -125 30l8 25q63 -29 115 -29q70 0 108 47q35 42 36 116h-103q-109 0 -160 68q-41 55 -41 150q0 102 53 158q46 50 123 50q79 0 120 -49q37 -43 37 -115v-236h118v-26h-118zM374 26v226q0 77 -38 115q-32 33 -90 33q-75 0 -115 -60q-32 -49 -32 -123q0 -191 171 -191
h104z" />
    <glyph glyph-name="uniFBD9" unicode="&#x6c6;" horiz-adv-x="483" arabic-form="isolated" 
d="M185 635l57 -86l55 86h33l-70 -110h-35l-73 110h33zM374 59q-47 -52 -136 -52q-83 0 -128 64q-40 56 -40 147q0 102 53 158q46 50 123 50q79 0 120 -49q37 -43 37 -115v-259q0 -99 -55 -150q-45 -42 -116 -42q-59 0 -125 30l8 25q63 -29 115 -29q70 0 109 47
q35 44 35 119v56zM374 97v155q0 77 -38 115q-32 33 -90 33q-75 0 -115 -60q-32 -49 -32 -123q0 -92 41 -141q36 -43 97 -43q50 0 82 15t55 49z" />
    <glyph glyph-name="uniFBDA" unicode="&#x6c6;" horiz-adv-x="511" arabic-form="final" 
d="M185 635l57 -86l55 86h33l-70 -110h-35l-73 110h33zM403 0q0 -96 -55 -147q-45 -42 -116 -42q-59 0 -125 30l8 25q63 -29 115 -29q70 0 108 47q35 42 36 116h-103q-109 0 -160 68q-41 55 -41 150q0 102 53 158q46 50 123 50q79 0 120 -49q37 -43 37 -115v-236h118v-26
h-118zM374 26v226q0 77 -38 115q-32 33 -90 33q-75 0 -115 -60q-32 -49 -32 -123q0 -191 171 -191h104z" />
    <glyph glyph-name="uniFBDB" unicode="&#x6c8;" horiz-adv-x="483" arabic-form="isolated" 
d="M251 517h-23v102h23v-102zM374 59q-47 -52 -136 -52q-83 0 -128 64q-40 56 -40 147q0 102 53 158q46 50 123 50q79 0 120 -49q37 -43 37 -115v-259q0 -99 -55 -150q-45 -42 -116 -42q-59 0 -125 30l8 25q63 -29 115 -29q70 0 109 47q35 44 35 119v56zM374 97v155
q0 77 -38 115q-32 33 -90 33q-75 0 -115 -60q-32 -49 -32 -123q0 -92 41 -141q36 -43 97 -43q50 0 82 15t55 49z" />
    <glyph glyph-name="uniFBDC" unicode="&#x6c8;" horiz-adv-x="511" arabic-form="final" 
d="M251 517h-23v102h23v-102zM403 0q0 -96 -55 -147q-45 -42 -116 -42q-59 0 -125 30l8 25q63 -29 115 -29q70 0 108 47q35 42 36 116h-103q-109 0 -160 68q-41 55 -41 150q0 102 53 158q46 50 123 50q79 0 120 -49q37 -43 37 -115v-236h118v-26h-118zM374 26v226
q0 77 -38 115q-32 33 -90 33q-75 0 -115 -60q-32 -49 -32 -123q0 -191 171 -191h104z" />
    <glyph glyph-name="uniFBDD" unicode="&#x677;" horiz-adv-x="483" arabic-form="isolated" 
d="M205 592l-110 -19l-2 21l97 18q-24 18 -24 49q0 21 13.5 35.5t32.5 14.5q21 0 34.5 -14.5t13.5 -36.5q0 -25 -15.5 -44.5t-39.5 -23.5zM214 619q24 8 24 39q0 14 -7.5 23.5t-18.5 9.5q-10 0 -16.5 -9t-6.5 -23q0 -28 25 -40zM426 517h-146v23h36q-10 17 -10 35
q0 26 18 43t45 17t45 -14l-10 -20q-17 10 -34 10q-18 0 -28.5 -10t-10.5 -26q0 -19 15 -35h80v-23zM374 59q-47 -52 -136 -52q-83 0 -128 64q-40 56 -40 147q0 102 53 158q46 50 123 50q79 0 120 -49q37 -43 37 -115v-259q0 -99 -55 -150q-45 -42 -116 -42q-59 0 -125 30
l8 25q63 -29 115 -29q70 0 109 47q35 44 35 119v56zM374 97v155q0 77 -38 115q-32 33 -90 33q-75 0 -115 -60q-32 -49 -32 -123q0 -92 41 -141q36 -43 97 -43q50 0 82 15t55 49z" />
    <glyph glyph-name="uniFBDE" unicode="&#x6cb;" horiz-adv-x="483" arabic-form="isolated" 
d="M267 604q0 -11 -7.5 -18.5t-18.5 -7.5t-18.5 7.5t-7.5 18.5t7.5 18.5t18.5 7.5t18.5 -7.5t7.5 -18.5zM229 534q0 -11 -7.5 -18.5t-18.5 -7.5t-18.5 7.5t-7.5 18.5t7.5 18.5t18.5 7.5t18.5 -7.5t7.5 -18.5zM306 534q0 -11 -7.5 -18.5t-18.5 -7.5t-18.5 7.5t-7.5 18.5
t7.5 18.5t18.5 7.5t18.5 -7.5t7.5 -18.5zM374 59q-47 -52 -136 -52q-83 0 -128 64q-40 56 -40 147q0 102 53 158q46 50 123 50q79 0 120 -49q37 -43 37 -115v-259q0 -99 -55 -150q-45 -42 -116 -42q-59 0 -125 30l8 25q63 -29 115 -29q70 0 109 47q35 44 35 119v56zM374 97
v155q0 77 -38 115q-32 33 -90 33q-75 0 -115 -60q-32 -49 -32 -123q0 -92 41 -141q36 -43 97 -43q50 0 82 15t55 49z" />
    <glyph glyph-name="uniFBDF" unicode="&#x6cb;" horiz-adv-x="511" arabic-form="final" 
d="M267 604q0 -11 -7.5 -18.5t-18.5 -7.5t-18.5 7.5t-7.5 18.5t7.5 18.5t18.5 7.5t18.5 -7.5t7.5 -18.5zM229 534q0 -11 -7.5 -18.5t-18.5 -7.5t-18.5 7.5t-7.5 18.5t7.5 18.5t18.5 7.5t18.5 -7.5t7.5 -18.5zM306 534q0 -11 -7.5 -18.5t-18.5 -7.5t-18.5 7.5t-7.5 18.5
t7.5 18.5t18.5 7.5t18.5 -7.5t7.5 -18.5zM403 0q0 -96 -55 -147q-45 -42 -116 -42q-59 0 -125 30l8 25q63 -29 115 -29q70 0 108 47q35 42 36 116h-103q-109 0 -160 68q-41 55 -41 150q0 102 53 158q46 50 123 50q79 0 120 -49q37 -43 37 -115v-236h118v-26h-118zM374 26
v226q0 77 -38 115q-32 33 -90 33q-75 0 -115 -60q-32 -49 -32 -123q0 -191 171 -191h104z" />
    <glyph glyph-name="uniFBE0" unicode="&#x6c5;" horiz-adv-x="483" arabic-form="isolated" 
d="M374 59q-47 -52 -136 -52q-83 0 -128 64q-40 56 -40 147q0 102 53 158q46 50 123 50q79 0 120 -49q37 -43 37 -115v-259q0 -99 -55 -150q-45 -42 -116 -42q-59 0 -125 30l8 25q63 -29 115 -29q51 0 86 26q32 23 46 64h-160v23h167q5 27 5 53v56zM374 97v155q0 77 -38 115
q-32 33 -90 33q-75 0 -115 -60q-32 -49 -32 -123q0 -92 41 -141q36 -43 97 -43q50 0 82 15t55 49z" />
    <glyph glyph-name="uniFBE1" unicode="&#x6c5;" horiz-adv-x="511" arabic-form="final" 
d="M403 262v-236h118v-26h-118q0 -96 -55 -147q-45 -42 -116 -42q-59 0 -125 30l8 25q63 -29 115 -29q51 0 86 26q32 23 46 64h-160v23h167q5 25 5 50h-103q-109 0 -160 68q-41 55 -41 150q0 102 53 158q46 50 123 50q79 0 120 -49q37 -43 37 -115zM270 26h104v226
q0 77 -38 115q-32 33 -90 33q-75 0 -115 -60q-32 -49 -32 -123q0 -191 171 -191z" />
    <glyph glyph-name="uniFBE2" unicode="&#x6c9;" horiz-adv-x="483" arabic-form="isolated" 
d="M298 515l-56 86l-56 -86h-33l70 110h35l73 -110h-33zM374 59q-47 -52 -136 -52q-83 0 -128 64q-40 56 -40 147q0 102 53 158q46 50 123 50q79 0 120 -49q37 -43 37 -115v-259q0 -99 -55 -150q-45 -42 -116 -42q-59 0 -125 30l8 25q63 -29 115 -29q70 0 109 47
q35 44 35 119v56zM374 97v155q0 77 -38 115q-32 33 -90 33q-75 0 -115 -60q-32 -49 -32 -123q0 -92 41 -141q36 -43 97 -43q50 0 82 15t55 49z" />
    <glyph glyph-name="uniFBE3" unicode="&#x6c9;" horiz-adv-x="511" arabic-form="final" 
d="M298 515l-56 86l-56 -86h-33l70 110h35l73 -110h-33zM403 0q0 -96 -55 -147q-45 -42 -116 -42q-59 0 -125 30l8 25q63 -29 115 -29q70 0 108 47q35 42 36 116h-103q-109 0 -160 68q-41 55 -41 150q0 102 53 158q46 50 123 50q79 0 120 -49q37 -43 37 -115v-236h118v-26
h-118zM374 26v226q0 77 -38 115q-32 33 -90 33q-75 0 -115 -60q-32 -49 -32 -123q0 -191 171 -191h104z" />
    <glyph glyph-name="uniFBE4" unicode="&#x6d0;" horiz-adv-x="684" arabic-form="isolated" 
d="M568 391h-101q-60 0 -92 -28q-35 -29 -35 -86q0 -67 50 -104q27 -20 106 -48q73 -25 98 -50q30 -29 30 -76t-30 -89q-33 -45 -93 -71q-67 -29 -157 -29q-146 0 -219 86q-55 64 -55 159q0 41 13 83t35 72l21 -10q-41 -71 -41 -150q0 -97 72 -157q67 -57 174 -57
q130 0 200 58q53 45 53 104q0 48 -50 76q-20 11 -79 32q-75 26 -107 53q-50 42 -50 116q0 71 54 112q43 32 102 30h101v-26zM362 -308q0 -11 -7.5 -18.5t-18.5 -7.5t-18.5 7.5t-7.5 18.5t7.5 18.5t18.5 7.5t18.5 -7.5t7.5 -18.5zM362 -387q0 -11 -7.5 -18.5t-18.5 -7.5
t-18.5 7.5t-7.5 18.5t7.5 18.5t18.5 7.5t18.5 -7.5t7.5 -18.5z" />
    <glyph glyph-name="uniFBE5" unicode="&#x6d0;" horiz-adv-x="619" arabic-form="final" 
d="M624 0q-1 -82 -79 -136q-77 -54 -201 -54q-146 0 -219 86q-55 64 -55 159q0 41 13 83t35 72l21 -10q-41 -71 -41 -150q0 -97 72 -157q67 -57 174 -57q129 0 199 59q53 44 54 105h-104v26h136v-26h-5zM362 -308q0 -11 -7.5 -18.5t-18.5 -7.5t-18.5 7.5t-7.5 18.5t7.5 18.5
t18.5 7.5t18.5 -7.5t7.5 -18.5zM362 -387q0 -11 -7.5 -18.5t-18.5 -7.5t-18.5 7.5t-7.5 18.5t7.5 18.5t18.5 7.5t18.5 -7.5t7.5 -18.5z" />
    <glyph glyph-name="uniFBE6" unicode="&#x6d0;" horiz-adv-x="256" arabic-form="initial" 
d="M10 0h-20v26h11q137 0 137 138v254h29v-254q0 -86 -47 -128q-40 -36 -110 -36zM144 -117q0 -11 -7.5 -18.5t-18.5 -7.5t-18.5 7.5t-7.5 18.5t7.5 18.5t18.5 7.5t18.5 -7.5t7.5 -18.5zM144 -196q0 -11 -7.5 -18.5t-18.5 -7.5t-18.5 7.5t-7.5 18.5t7.5 18.5t18.5 7.5
t18.5 -7.5t7.5 -18.5z" />
    <glyph glyph-name="uniFBE7" unicode="&#x6d0;" horiz-adv-x="305" arabic-form="medial" 
d="M10 0h-20v26h11q137 0 137 138v254h29v-254q0 -138 137 -138h11v-26h-17q-110 0 -145 82q-36 -82 -143 -82zM179 -117q0 -11 -7.5 -18.5t-18.5 -7.5t-18.5 7.5t-7.5 18.5t7.5 18.5t18.5 7.5t18.5 -7.5t7.5 -18.5zM179 -196q0 -11 -7.5 -18.5t-18.5 -7.5t-18.5 7.5
t-7.5 18.5t7.5 18.5t18.5 7.5t18.5 -7.5t7.5 -18.5z" />
    <glyph glyph-name="uniFBE8" unicode="&#x649;" horiz-adv-x="256" arabic-form="initial" 
d="M10 0h-20v26h11q137 0 137 138v254h29v-254q0 -86 -47 -128q-40 -36 -110 -36z" />
    <glyph glyph-name="uniFBE9" unicode="&#x649;" horiz-adv-x="305" arabic-form="medial" 
d="M10 0h-20v26h11q137 0 137 138v254h29v-254q0 -138 137 -138h11v-26h-17q-110 0 -145 82q-36 -82 -143 -82z" />
    <glyph glyph-name="uniFBFC" unicode="&#x6cc;" horiz-adv-x="684" arabic-form="isolated" 
d="M568 391h-101q-60 0 -92 -28q-35 -29 -35 -86q0 -67 50 -104q27 -20 106 -48q73 -25 98 -50q30 -29 30 -76t-30 -89q-33 -45 -93 -71q-67 -29 -157 -29q-146 0 -219 86q-55 64 -55 159q0 41 13 83t35 72l21 -10q-41 -71 -41 -150q0 -97 72 -157q67 -57 174 -57
q130 0 200 58q53 45 53 104q0 48 -50 76q-20 11 -79 32q-75 26 -107 53q-50 42 -50 116q0 71 54 112q43 32 102 30h101v-26z" />
    <glyph glyph-name="uniFBFD" unicode="&#x6cc;" horiz-adv-x="619" arabic-form="final" 
d="M624 0q-1 -82 -79 -136q-77 -54 -201 -54q-146 0 -219 86q-55 64 -55 159q0 41 13 83t35 72l21 -10q-41 -71 -41 -150q0 -97 72 -157q67 -57 174 -57q129 0 199 59q53 44 54 105h-104v26h136v-26h-5z" />
    <glyph glyph-name="uniFBFE" unicode="&#x6cc;" horiz-adv-x="256" arabic-form="initial" 
d="M10 0h-20v26h11q137 0 137 138v254h29v-254q0 -86 -47 -128q-40 -36 -110 -36zM105 -117q0 -11 -7.5 -18.5t-18.5 -7.5t-18.5 7.5t-7.5 18.5t7.5 18.5t18.5 7.5t18.5 -7.5t7.5 -18.5zM182 -117q0 -11 -7.5 -18.5t-18.5 -7.5t-18.5 7.5t-7.5 18.5t7.5 18.5t18.5 7.5
t18.5 -7.5t7.5 -18.5z" />
    <glyph glyph-name="uniFBFF" unicode="&#x6cc;" horiz-adv-x="305" arabic-form="medial" 
d="M10 0h-20v26h11q137 0 137 138v254h29v-254q0 -138 137 -138h11v-26h-17q-110 0 -145 82q-36 -82 -143 -82zM140 -117q0 -11 -7.5 -18.5t-18.5 -7.5t-18.5 7.5t-7.5 18.5t7.5 18.5t18.5 7.5t18.5 -7.5t7.5 -18.5zM217 -117q0 -11 -7.5 -18.5t-18.5 -7.5t-18.5 7.5
t-7.5 18.5t7.5 18.5t18.5 7.5t18.5 -7.5t7.5 -18.5z" />
    <glyph glyph-name="uniFCF3" unicode="&#xfcf3;" horiz-adv-x="116" arabic-form="medial" 
d="M88 668l-110 -19l-2 21l97 18q-24 18 -24 49q0 21 13.5 35.5t32.5 14.5q21 0 34.5 -14.5t13.5 -36.5q0 -25 -15.5 -44.5t-39.5 -23.5zM97 695q24 8 24 39q0 14 -7.5 23.5t-18.5 9.5q-10 0 -16.5 -9t-6.5 -23q0 -28 25 -40zM58 539q-17 -17 -37 -17t-33 13t-13 33v52h23
v-50q0 -23 24 -23t24 21v37h24v-37q0 -21 25 -21q23 0 23 23v50h23v-52q0 -20 -13 -33t-33 -13q-22 0 -37 17zM126 0h-136v26h136v-26z" />
    <glyph glyph-name="uniFCF4" unicode="&#xfcf4;" horiz-adv-x="116" arabic-form="medial" 
d="M59 617q-17 -17 -37 -17t-33 13t-13 33v52h23v-50q0 -23 24 -23t24 21v37h24v-37q0 -21 25 -21q23 0 23 23v50h23v-52q0 -20 -13 -33t-33 -13q-22 0 -37 17zM128 542l-137 -25l-4 24l137 25zM126 0h-136v26h136v-26z" />
    <glyph glyph-name="uniFD3C" unicode="&#xfd3c;" horiz-adv-x="257" arabic-form="final" 
d="M173 773l-137 -25l-3 20l137 25zM176 716l-137 -25l-3 19l137 25zM267 0h-17q-83 0 -125 49q-35 40 -35 109v456h29v-450q0 -138 137 -138h11v-26z" />
    <glyph glyph-name="uniFD3D" unicode="&#xfd3d;" horiz-adv-x="209" arabic-form="isolated" 
d="M173 773l-137 -25l-3 20l137 25zM176 716l-137 -25l-3 19l137 25zM119 0h-29v614h29v-614z" />
    <glyph glyph-name="uniFE71" unicode="&#xfe71;" horiz-adv-x="116" arabic-form="medial" 
d="M130 605l-137 -25l-4 24l137 25zM130 542l-137 -25l-4 24l137 25zM126 0h-136v26h136v-26z" />
    <glyph glyph-name="uniFE72" unicode="&#xfe72;" horiz-adv-x="215" arabic-form="isolated" 
d="M124 708q-23 18 -23 48q0 22 13.5 36t33.5 14q21 0 34.5 -14t13.5 -36q0 -31 -21 -50.5t-54 -19.5q-45 0 -65 35l-19 -33l-18 12l29 46h19q16 -41 57 -38zM150 714q24 10 24 40q0 14 -7.5 23t-18.5 9q-10 0 -17 -9t-7 -22q0 -27 26 -41z" />
    <glyph glyph-name="uniFE74" unicode="&#xfe74;" horiz-adv-x="179" arabic-form="isolated" 
d="M160 -124l-137 -25l-4 24l137 25zM160 -187l-137 -25l-4 24l137 25z" />
    <glyph glyph-name="uniFE76" unicode="&#xfe76;" horiz-adv-x="179" arabic-form="isolated" 
d="M160 711l-137 -25l-4 24l137 25z" />
    <glyph glyph-name="uniFE77" unicode="&#xfe77;" horiz-adv-x="116" arabic-form="medial" 
d="M128 542l-137 -25l-4 24l137 25zM126 0h-136v26h136v-26z" />
    <glyph glyph-name="uniFE78" unicode="&#xfe78;" horiz-adv-x="205" arabic-form="isolated" 
d="M131 705l-110 -19l-2 21l97 18q-24 18 -24 49q0 21 13.5 35.5t32.5 14.5q21 0 34.5 -14.5t13.5 -36.5q0 -25 -15.5 -44.5t-39.5 -23.5zM140 732q24 8 24 39q0 14 -7.5 23.5t-18.5 9.5q-10 0 -16.5 -9t-6.5 -23q0 -28 25 -40z" />
    <glyph glyph-name="uniFE79" unicode="&#xfe79;" horiz-adv-x="116" arabic-form="medial" 
d="M87 536l-110 -19l-2 21l97 18q-24 18 -24 49q0 21 13.5 35.5t32.5 14.5q21 0 34.5 -14.5t13.5 -36.5q0 -25 -15.5 -44.5t-39.5 -23.5zM96 563q24 8 24 39q0 14 -7.5 23.5t-18.5 9.5q-10 0 -16.5 -9t-6.5 -23q0 -28 25 -40zM126 0h-136v26h136v-26z" />
    <glyph glyph-name="uniFE7A" unicode="&#xfe7a;" horiz-adv-x="179" arabic-form="isolated" 
d="M160 -124l-137 -25l-4 24l137 25z" />
    <glyph glyph-name="uniFE7B" unicode="&#xfe7b;" horiz-adv-x="116" arabic-form="medial" 
d="M126 0h-136v26h136v-26zM128 -124l-137 -25l-4 24l137 25z" />
    <glyph glyph-name="uniFE7C" unicode="&#xfe7c;" horiz-adv-x="204" arabic-form="isolated" 
d="M102 708q-17 -17 -37 -17t-33 13t-13 33v52h23v-50q0 -23 24 -23t24 21v37h24v-37q0 -21 25 -21q23 0 23 23v50h23v-52q0 -20 -13 -33t-33 -13q-22 0 -37 17z" />
    <glyph glyph-name="uniFE7D" unicode="&#xfe7d;" horiz-adv-x="116" arabic-form="medial" 
d="M58 539q-17 -17 -37 -17t-33 13t-13 33v52h23v-50q0 -23 24 -23t24 21v37h24v-37q0 -21 25 -21q23 0 23 23v50h23v-52q0 -20 -13 -33t-33 -13q-22 0 -37 17zM126 0h-136v26h136v-26z" />
    <glyph glyph-name="uniFE7E" unicode="&#xfe7e;" horiz-adv-x="140" arabic-form="isolated" 
d="M70 803q23 -6 37 -24.5t14 -41.5t-14 -37t-37 -14q-24 0 -37.5 13t-13.5 36t14.5 42t36.5 26zM70 781q-12 -3 -19.5 -15t-7.5 -26q0 -31 26 -31q27 0 27 30q0 15 -7.5 27t-18.5 15z" />
    <glyph glyph-name="uniFE7F" unicode="&#xfe7f;" horiz-adv-x="116" arabic-form="medial" 
d="M58 634q23 -6 37 -24.5t14 -41.5t-14 -37t-37 -14q-24 0 -37.5 13t-13.5 36t14.5 42t36.5 26zM58 612q-12 -3 -19.5 -15t-7.5 -26q0 -31 26 -31q27 0 27 30q0 15 -7.5 27t-18.5 15zM126 0h-136v26h136v-26z" />
    <glyph glyph-name="uniFE80" unicode="&#x621;" horiz-adv-x="445" arabic-form="isolated" 
d="M391 4q-42 10 -88 10q-77 0 -149 -26q-61 -22 -101 -57l-19 21q42 36 95 57q-75 72 -75 194q0 88 55 141q46 45 111 45q80 0 135 -74l-14 -17q-52 64 -123 64q-67 0 -105 -56q-30 -46 -30 -109q0 -50 21 -97.5t56 -79.5q61 20 131 20q54 0 109 -12z" />
    <glyph glyph-name="uniFE81" unicode="&#x622;" horiz-adv-x="201" arabic-form="isolated" 
d="M193 732q-20 -41 -50 -41q-22 0 -50 22q-16 12 -27 12q-16 0 -30 -30l-19 10q20 45 49 45q19 0 42 -18q18 -15 35 -15q14 0 30 23zM119 0h-29v614h29v-614z" />
    <glyph glyph-name="uniFE82" unicode="&#x622;" horiz-adv-x="257" arabic-form="final" 
d="M193 732q-20 -41 -50 -41q-22 0 -50 22q-16 12 -27 12q-16 0 -30 -30l-19 10q20 45 49 45q19 0 42 -18q18 -15 35 -15q14 0 30 23zM267 0h-17q-83 0 -125 49q-35 40 -35 109v456h29v-450q0 -138 137 -138h11v-26z" />
    <glyph glyph-name="uniFE83" unicode="&#x623;" horiz-adv-x="209" arabic-form="isolated" 
d="M178 686h-146v23h36q-10 17 -10 35q0 26 18 43t45 17t45 -14l-10 -20q-17 10 -34 10q-18 0 -28.5 -10t-10.5 -26q0 -19 15 -35h80v-23zM119 0h-29v616h29v-616z" />
    <glyph glyph-name="uniFE84" unicode="&#x623;" horiz-adv-x="257" arabic-form="final" 
d="M178 686h-146v23h36q-10 17 -10 35q0 26 18 43t45 17t45 -14l-10 -20q-17 10 -34 10q-18 0 -28.5 -10t-10.5 -26q0 -19 15 -35h80v-23zM267 0h-17q-83 0 -125 49q-35 40 -35 109v458h29v-452q0 -138 137 -138h11v-26z" />
    <glyph glyph-name="uniFE85" unicode="&#x624;" horiz-adv-x="483" arabic-form="isolated" 
d="M315 519h-146v23h36q-10 17 -10 35q0 26 18 43t45 17t45 -14l-10 -20q-17 10 -34 10q-18 0 -28.5 -10t-10.5 -26q0 -19 15 -35h80v-23zM374 59q-47 -52 -136 -52q-83 0 -128 64q-40 56 -40 147q0 102 53 158q46 50 123 50q79 0 120 -49q37 -43 37 -115v-259
q0 -99 -55 -150q-45 -42 -116 -42q-59 0 -125 30l8 25q63 -29 115 -29q70 0 109 47q35 44 35 119v56zM374 97v155q0 77 -38 115q-32 33 -90 33q-75 0 -115 -60q-32 -49 -32 -123q0 -92 41 -141q36 -43 97 -43q50 0 82 15t55 49z" />
    <glyph glyph-name="uniFE86" unicode="&#x624;" horiz-adv-x="511" arabic-form="final" 
d="M315 519h-146v23h36q-10 17 -10 35q0 26 18 43t45 17t45 -14l-10 -20q-17 10 -34 10q-18 0 -28.5 -10t-10.5 -26q0 -19 15 -35h80v-23zM403 0q0 -96 -55 -147q-45 -42 -116 -42q-59 0 -125 30l8 25q63 -29 115 -29q70 0 108 47q35 42 36 116h-103q-109 0 -160 68
q-41 55 -41 150q0 102 53 158q46 50 123 50q79 0 120 -49q37 -43 37 -115v-236h118v-26h-118zM374 26v226q0 77 -38 115q-32 33 -90 33q-75 0 -115 -60q-32 -49 -32 -123q0 -191 171 -191h104z" />
    <glyph glyph-name="uniFE87" unicode="&#x625;" horiz-adv-x="207" arabic-form="isolated" 
d="M118 0h-29v666h29v-666zM174 -213h-146v23h36q-10 17 -10 35q0 26 18 43t45 17t45 -14l-10 -20q-17 10 -34 10q-18 0 -28.5 -10t-10.5 -26q0 -19 15 -35h80v-23z" />
    <glyph glyph-name="uniFE88" unicode="&#x625;" horiz-adv-x="257" arabic-form="final" 
d="M267 0h-17q-83 0 -125 49q-35 40 -35 109v508h29v-502q0 -138 137 -138h11v-26zM236 -213h-146v23h36q-10 17 -10 35q0 26 18 43t45 17t45 -14l-10 -20q-17 10 -34 10q-18 0 -28.5 -10t-10.5 -26q0 -19 15 -35h80v-23z" />
    <glyph glyph-name="uniFE89" unicode="&#x626;" horiz-adv-x="684" arabic-form="isolated" 
d="M229 331h-146v23h36q-10 17 -10 35q0 26 18 43t45 17t45 -14l-10 -20q-17 10 -34 10q-18 0 -28.5 -10t-10.5 -26q0 -19 15 -35h80v-23zM568 391h-101q-60 0 -92 -28q-35 -29 -35 -86q0 -67 50 -104q27 -20 106 -48q73 -25 98 -50q30 -29 30 -76t-30 -89q-33 -45 -93 -71
q-67 -29 -157 -29q-146 0 -219 86q-55 64 -55 159q0 41 13 83t35 72l21 -10q-41 -71 -41 -150q0 -97 72 -157q67 -57 174 -57q130 0 200 58q53 45 53 104q0 48 -50 76q-20 11 -79 32q-75 26 -107 53q-50 42 -50 116q0 71 54 112q43 32 102 30h101v-26z" />
    <glyph glyph-name="uniFE8A" unicode="&#x626;" horiz-adv-x="619" arabic-form="final" 
d="M249 331h-146v23h36q-10 17 -10 35q0 26 18 43t45 17t45 -14l-10 -20q-17 10 -34 10q-18 0 -28.5 -10t-10.5 -26q0 -19 15 -35h80v-23zM624 0q-1 -82 -79 -136q-77 -54 -201 -54q-146 0 -219 86q-55 64 -55 159q0 41 13 83t35 72l21 -10q-41 -71 -41 -150q0 -97 72 -157
q67 -57 174 -57q129 0 199 59q53 44 54 105h-104v26h136v-26h-5z" />
    <glyph glyph-name="uniFE8B" unicode="&#x626;" horiz-adv-x="256" arabic-form="initial" 
d="M223 519h-146v23h36q-10 17 -10 35q0 26 18 43t45 17t45 -14l-10 -20q-17 10 -34 10q-18 0 -28.5 -10t-10.5 -26q0 -19 15 -35h80v-23zM10 0h-20v26h11q137 0 137 138v254h29v-254q0 -86 -47 -128q-40 -36 -110 -36z" />
    <glyph glyph-name="uniFE8C" unicode="&#x626;" horiz-adv-x="305" arabic-form="medial" 
d="M226 519h-146v23h36q-10 17 -10 35q0 26 18 43t45 17t45 -14l-10 -20q-17 10 -34 10q-18 0 -28.5 -10t-10.5 -26q0 -19 15 -35h80v-23zM10 0h-20v26h11q137 0 137 138v254h29v-254q0 -138 137 -138h11v-26h-17q-110 0 -145 82q-36 -82 -143 -82z" />
    <glyph glyph-name="uniFE8D" unicode="&#x627;" horiz-adv-x="209" arabic-form="isolated" 
d="M119 0h-29v666h29v-666z" />
    <glyph glyph-name="uniFE8E" unicode="&#x627;" horiz-adv-x="257" arabic-form="final" 
d="M267 0h-17q-83 0 -125 49q-35 40 -35 109v508h29v-502q0 -138 137 -138h11v-26z" />
    <glyph glyph-name="uniFE8F" unicode="&#x628;" horiz-adv-x="847" arabic-form="isolated" 
d="M597 0h-318q-98 0 -154 70q-45 56 -45 131q0 60 30 109q28 46 77 72l13 -20q-49 -26 -72 -76q-19 -40 -19 -87q0 -76 49 -125q47 -48 121 -48h312q137 0 137 138v254h29v-254q0 -86 -48 -128q-40 -36 -112 -36zM450 -117q0 -11 -7.5 -18.5t-18.5 -7.5t-18.5 7.5
t-7.5 18.5t7.5 18.5t18.5 7.5t18.5 -7.5t7.5 -18.5z" />
    <glyph glyph-name="uniFE90" unicode="&#x628;" horiz-adv-x="895" arabic-form="final" 
d="M591 0h-312q-98 0 -154 70q-45 56 -45 131q0 60 30 109q28 46 77 72l13 -20q-49 -26 -72 -76q-19 -40 -19 -87q0 -76 49 -125q47 -48 121 -48h312q137 0 137 138v254h29v-254q0 -138 137 -138h11v-26h-20q-107 0 -142 82q-38 -82 -152 -82zM450 -117q0 -11 -7.5 -18.5
t-18.5 -7.5t-18.5 7.5t-7.5 18.5t7.5 18.5t18.5 7.5t18.5 -7.5t7.5 -18.5z" />
    <glyph glyph-name="uniFE91" unicode="&#x628;" horiz-adv-x="256" arabic-form="initial" 
d="M10 0h-20v26h11q137 0 137 138v254h29v-254q0 -86 -47 -128q-40 -36 -110 -36zM144 -117q0 -11 -7.5 -18.5t-18.5 -7.5t-18.5 7.5t-7.5 18.5t7.5 18.5t18.5 7.5t18.5 -7.5t7.5 -18.5z" />
    <glyph glyph-name="uniFE92" unicode="&#x628;" horiz-adv-x="305" arabic-form="medial" 
d="M10 0h-20v26h11q137 0 137 138v254h29v-254q0 -138 137 -138h11v-26h-17q-110 0 -145 82q-36 -82 -143 -82zM179 -117q0 -11 -7.5 -18.5t-18.5 -7.5t-18.5 7.5t-7.5 18.5t7.5 18.5t18.5 7.5t18.5 -7.5t7.5 -18.5z" />
    <glyph glyph-name="uniFE93" unicode="&#x629;" horiz-adv-x="488" arabic-form="isolated" 
d="M231 534q0 -11 -7.5 -18.5t-18.5 -7.5t-18.5 7.5t-7.5 18.5t7.5 18.5t18.5 7.5t18.5 -7.5t7.5 -18.5zM308 534q0 -11 -7.5 -18.5t-18.5 -7.5t-18.5 7.5t-7.5 18.5t7.5 18.5t18.5 7.5t18.5 -7.5t7.5 -18.5zM258 -5h-28q-79 0 -123 66q-39 58 -39 151q0 106 53 164
q46 50 123 50q88 0 135 -65q41 -56 41 -149q0 -107 -50 -166q-44 -51 -112 -51zM97 211q0 -92 39 -143q36 -47 98 -47h20q71 0 107 61q30 50 30 129q0 91 -41 142q-39 47 -106 47q-77 0 -116 -61q-31 -49 -31 -128z" />
    <glyph glyph-name="uniFE94" unicode="&#x629;" horiz-adv-x="542" arabic-form="final" 
d="M229 568q0 -11 -7.5 -18.5t-18.5 -7.5t-18.5 7.5t-7.5 18.5t7.5 18.5t18.5 7.5t18.5 -7.5t7.5 -18.5zM306 568q0 -11 -7.5 -18.5t-18.5 -7.5t-18.5 7.5t-7.5 18.5t7.5 18.5t18.5 7.5t18.5 -7.5t7.5 -18.5zM552 0h-17q-64 0 -105 33q-34 26 -48 71q-56 -74 -147 -74
q-77 0 -123 59q-42 54 -42 141q0 100 64 156q56 48 147 48h93v55h29v-325q0 -72 40 -107q35 -31 98 -31h11v-26zM374 407h-95q-92 0 -139 -53q-41 -45 -41 -123q0 -89 45 -137q37 -38 91 -38q85 0 141 77q-2 20 -2 32v242z" />
    <glyph glyph-name="uniFE95" unicode="&#x62a;" horiz-adv-x="847" arabic-form="isolated" 
d="M430 444q0 -11 -7.5 -18.5t-18.5 -7.5t-18.5 7.5t-7.5 18.5t7.5 18.5t18.5 7.5t18.5 -7.5t7.5 -18.5zM507 444q0 -11 -7.5 -18.5t-18.5 -7.5t-18.5 7.5t-7.5 18.5t7.5 18.5t18.5 7.5t18.5 -7.5t7.5 -18.5zM597 0h-318q-98 0 -154 70q-45 56 -45 131q0 60 30 109
q28 46 77 72l13 -20q-49 -26 -72 -76q-19 -40 -19 -87q0 -76 49 -125q47 -48 121 -48h312q137 0 137 138v254h29v-254q0 -86 -48 -128q-40 -36 -112 -36z" />
    <glyph glyph-name="uniFE96" unicode="&#x62a;" horiz-adv-x="895" arabic-form="final" 
d="M430 444q0 -11 -7.5 -18.5t-18.5 -7.5t-18.5 7.5t-7.5 18.5t7.5 18.5t18.5 7.5t18.5 -7.5t7.5 -18.5zM507 444q0 -11 -7.5 -18.5t-18.5 -7.5t-18.5 7.5t-7.5 18.5t7.5 18.5t18.5 7.5t18.5 -7.5t7.5 -18.5zM591 0h-312q-98 0 -154 70q-45 56 -45 131q0 60 30 109
q28 46 77 72l13 -20q-49 -26 -72 -76q-19 -40 -19 -87q0 -76 49 -125q47 -48 121 -48h312q137 0 137 138v254h29v-254q0 -138 137 -138h11v-26h-20q-107 0 -142 82q-38 -82 -152 -82z" />
    <glyph glyph-name="uniFE97" unicode="&#x62a;" horiz-adv-x="256" arabic-form="initial" 
d="M137 534q0 -11 -7.5 -18.5t-18.5 -7.5t-18.5 7.5t-7.5 18.5t7.5 18.5t18.5 7.5t18.5 -7.5t7.5 -18.5zM214 534q0 -11 -7.5 -18.5t-18.5 -7.5t-18.5 7.5t-7.5 18.5t7.5 18.5t18.5 7.5t18.5 -7.5t7.5 -18.5zM10 0h-20v26h11q137 0 137 138v254h29v-254q0 -86 -47 -128
q-40 -36 -110 -36z" />
    <glyph glyph-name="uniFE98" unicode="&#x62a;" horiz-adv-x="305" arabic-form="medial" 
d="M140 534q0 -11 -7.5 -18.5t-18.5 -7.5t-18.5 7.5t-7.5 18.5t7.5 18.5t18.5 7.5t18.5 -7.5t7.5 -18.5zM217 534q0 -11 -7.5 -18.5t-18.5 -7.5t-18.5 7.5t-7.5 18.5t7.5 18.5t18.5 7.5t18.5 -7.5t7.5 -18.5zM10 0h-20v26h11q137 0 137 138v254h29v-254q0 -138 137 -138h11
v-26h-17q-110 0 -145 82q-36 -82 -143 -82z" />
    <glyph glyph-name="uniFE99" unicode="&#x62b;" horiz-adv-x="847" arabic-form="isolated" 
d="M468 514q0 -11 -7.5 -18.5t-18.5 -7.5t-18.5 7.5t-7.5 18.5t7.5 18.5t18.5 7.5t18.5 -7.5t7.5 -18.5zM430 444q0 -11 -7.5 -18.5t-18.5 -7.5t-18.5 7.5t-7.5 18.5t7.5 18.5t18.5 7.5t18.5 -7.5t7.5 -18.5zM507 444q0 -11 -7.5 -18.5t-18.5 -7.5t-18.5 7.5t-7.5 18.5
t7.5 18.5t18.5 7.5t18.5 -7.5t7.5 -18.5zM597 0h-318q-98 0 -154 70q-45 56 -45 131q0 60 30 109q28 46 77 72l13 -20q-49 -26 -72 -76q-19 -40 -19 -87q0 -76 49 -125q47 -48 121 -48h312q137 0 137 138v254h29v-254q0 -86 -48 -128q-40 -36 -112 -36z" />
    <glyph glyph-name="uniFE9A" unicode="&#x62b;" horiz-adv-x="895" arabic-form="final" 
d="M468 514q0 -11 -7.5 -18.5t-18.5 -7.5t-18.5 7.5t-7.5 18.5t7.5 18.5t18.5 7.5t18.5 -7.5t7.5 -18.5zM430 444q0 -11 -7.5 -18.5t-18.5 -7.5t-18.5 7.5t-7.5 18.5t7.5 18.5t18.5 7.5t18.5 -7.5t7.5 -18.5zM507 444q0 -11 -7.5 -18.5t-18.5 -7.5t-18.5 7.5t-7.5 18.5
t7.5 18.5t18.5 7.5t18.5 -7.5t7.5 -18.5zM591 0h-312q-98 0 -154 70q-45 56 -45 131q0 60 30 109q28 46 77 72l13 -20q-49 -26 -72 -76q-19 -40 -19 -87q0 -76 49 -125q47 -48 121 -48h312q137 0 137 138v254h29v-254q0 -138 137 -138h11v-26h-20q-107 0 -142 82
q-38 -82 -152 -82z" />
    <glyph glyph-name="uniFE9B" unicode="&#x62b;" horiz-adv-x="256" arabic-form="initial" 
d="M175 604q0 -11 -7.5 -18.5t-18.5 -7.5t-18.5 7.5t-7.5 18.5t7.5 18.5t18.5 7.5t18.5 -7.5t7.5 -18.5zM137 534q0 -11 -7.5 -18.5t-18.5 -7.5t-18.5 7.5t-7.5 18.5t7.5 18.5t18.5 7.5t18.5 -7.5t7.5 -18.5zM214 534q0 -11 -7.5 -18.5t-18.5 -7.5t-18.5 7.5t-7.5 18.5
t7.5 18.5t18.5 7.5t18.5 -7.5t7.5 -18.5zM10 0h-20v26h11q137 0 137 138v254h29v-254q0 -86 -47 -128q-40 -36 -110 -36z" />
    <glyph glyph-name="uniFE9C" unicode="&#x62b;" horiz-adv-x="305" arabic-form="medial" 
d="M178 604q0 -11 -7.5 -18.5t-18.5 -7.5t-18.5 7.5t-7.5 18.5t7.5 18.5t18.5 7.5t18.5 -7.5t7.5 -18.5zM140 534q0 -11 -7.5 -18.5t-18.5 -7.5t-18.5 7.5t-7.5 18.5t7.5 18.5t18.5 7.5t18.5 -7.5t7.5 -18.5zM217 534q0 -11 -7.5 -18.5t-18.5 -7.5t-18.5 7.5t-7.5 18.5
t7.5 18.5t18.5 7.5t18.5 -7.5t7.5 -18.5zM10 0h-20v26h11q137 0 137 138v254h29v-254q0 -138 137 -138h11v-26h-17q-110 0 -145 82q-36 -82 -143 -82z" />
    <glyph glyph-name="uniFE9D" unicode="&#x62c;" horiz-adv-x="562" arabic-form="isolated" 
d="M477 -315q-79 -50 -180 -50q-108 0 -172 77q-55 65 -55 163q0 157 143 245q116 72 295 79q-42 91 -108 139q-56 41 -120 41q-80 0 -157 -68l-16 18q77 76 172 76q85 0 157 -62q63 -54 96 -142v-24q-196 -9 -312 -86q-121 -79 -121 -217q0 -102 64 -162q54 -51 135 -51
q92 0 166 46zM329 -137q0 -11 -7.5 -18.5t-18.5 -7.5t-18.5 7.5t-7.5 18.5t7.5 18.5t18.5 7.5t18.5 -7.5t7.5 -18.5z" />
    <glyph glyph-name="uniFE9E" unicode="&#x62c;" horiz-adv-x="680" arabic-form="final" 
d="M477 -315q-79 -50 -180 -50q-108 0 -172 77q-55 65 -55 163q0 157 143 245q116 72 295 79q-42 91 -108 139q-56 41 -120 41q-80 0 -157 -68l-16 18q77 76 172 76q85 0 157 -62q63 -54 96 -142v-24q-63 -4 -107 -11q20 -74 78.5 -107t171.5 -33h15v-26h-20q-119 0 -181 38
q-63 38 -88 123q-145 -29 -223 -102q-79 -74 -79 -185q0 -102 64 -162q54 -51 135 -51q92 0 166 46zM329 -137q0 -11 -7.5 -18.5t-18.5 -7.5t-18.5 7.5t-7.5 18.5t7.5 18.5t18.5 7.5t18.5 -7.5t7.5 -18.5z" />
    <glyph glyph-name="uniFE9F" unicode="&#x62c;" horiz-adv-x="538" arabic-form="initial" 
d="M95 0h-105v26h106q154 0 236 49q52 31 132 123q-43 91 -108 139q-56 42 -120 42q-80 0 -157 -68l-16 18q77 76 172 76q85 0 157 -62q63 -54 96 -142v-10q-49 -63 -84.5 -96t-76.5 -53q-84 -42 -232 -42zM265 -117q0 -11 -7.5 -18.5t-18.5 -7.5t-18.5 7.5t-7.5 18.5
t7.5 18.5t18.5 7.5t18.5 -7.5t7.5 -18.5z" />
    <glyph glyph-name="uniFEA0" unicode="&#x62c;" horiz-adv-x="670" arabic-form="medial" 
d="M95 0h-105v26h106q154 0 236 49q52 31 132 123q-43 91 -108 139q-56 42 -120 42q-80 0 -157 -68l-16 18q77 76 172 76q85 0 157 -62q63 -54 96 -142v-10q-36 -47 -57 -69q26 -51 80 -73.5t154 -22.5h15v-26h-20q-98 0 -156 25q-59 25 -90 80q-58 -57 -130.5 -81
t-188.5 -24zM292 -117q0 -11 -7.5 -18.5t-18.5 -7.5t-18.5 7.5t-7.5 18.5t7.5 18.5t18.5 7.5t18.5 -7.5t7.5 -18.5z" />
    <glyph glyph-name="uniFEA1" unicode="&#x62d;" horiz-adv-x="562" arabic-form="isolated" 
d="M477 -315q-79 -50 -180 -50q-108 0 -172 77q-55 65 -55 163q0 157 143 245q116 72 295 79q-42 91 -108 139q-56 41 -120 41q-80 0 -157 -68l-16 18q77 76 172 76q85 0 157 -62q63 -54 96 -142v-24q-196 -9 -312 -86q-121 -79 -121 -217q0 -102 64 -162q54 -51 135 -51
q92 0 166 46z" />
    <glyph glyph-name="uniFEA2" unicode="&#x62d;" horiz-adv-x="680" arabic-form="final" 
d="M477 -315q-79 -50 -180 -50q-108 0 -172 77q-55 65 -55 163q0 157 143 245q116 72 295 79q-42 91 -108 139q-56 41 -120 41q-80 0 -157 -68l-16 18q77 76 172 76q85 0 157 -62q63 -54 96 -142v-24q-63 -4 -107 -11q20 -74 78.5 -107t171.5 -33h15v-26h-20q-119 0 -181 38
q-63 38 -88 123q-145 -29 -223 -102q-79 -74 -79 -185q0 -102 64 -162q54 -51 135 -51q92 0 166 46z" />
    <glyph glyph-name="uniFEA3" unicode="&#x62d;" horiz-adv-x="538" arabic-form="initial" 
d="M95 0h-105v26h106q154 0 236 49q52 31 132 123q-43 91 -108 139q-56 42 -120 42q-80 0 -157 -68l-16 18q77 76 172 76q85 0 157 -62q63 -54 96 -142v-10q-49 -63 -84.5 -96t-76.5 -53q-84 -42 -232 -42z" />
    <glyph glyph-name="uniFEA4" unicode="&#x62d;" horiz-adv-x="670" arabic-form="medial" 
d="M95 0h-105v26h106q154 0 236 49q52 31 132 123q-43 91 -108 139q-56 42 -120 42q-80 0 -157 -68l-16 18q77 76 172 76q85 0 157 -62q63 -54 96 -142v-10q-36 -47 -57 -69q26 -51 80 -73.5t154 -22.5h15v-26h-20q-98 0 -156 25q-59 25 -90 80q-58 -57 -130.5 -81
t-188.5 -24z" />
    <glyph glyph-name="uniFEA5" unicode="&#x62e;" horiz-adv-x="562" arabic-form="isolated" 
d="M307 534q0 -11 -7.5 -18.5t-18.5 -7.5t-18.5 7.5t-7.5 18.5t7.5 18.5t18.5 7.5t18.5 -7.5t7.5 -18.5zM477 -315q-79 -50 -180 -50q-108 0 -172 77q-55 65 -55 163q0 157 143 245q116 72 295 79q-42 91 -108 139q-56 41 -120 41q-80 0 -157 -68l-16 18q77 76 172 76
q85 0 157 -62q63 -54 96 -142v-24q-196 -9 -312 -86q-121 -79 -121 -217q0 -102 64 -162q54 -51 135 -51q92 0 166 46z" />
    <glyph glyph-name="uniFEA6" unicode="&#x62e;" horiz-adv-x="680" arabic-form="final" 
d="M307 534q0 -11 -7.5 -18.5t-18.5 -7.5t-18.5 7.5t-7.5 18.5t7.5 18.5t18.5 7.5t18.5 -7.5t7.5 -18.5zM477 -315q-79 -50 -180 -50q-108 0 -172 77q-55 65 -55 163q0 157 143 245q116 72 295 79q-42 91 -108 139q-56 41 -120 41q-80 0 -157 -68l-16 18q77 76 172 76
q85 0 157 -62q63 -54 96 -142v-24q-63 -4 -107 -11q20 -74 78.5 -107t171.5 -33h15v-26h-20q-119 0 -181 38q-63 38 -88 123q-145 -29 -223 -102q-79 -74 -79 -185q0 -102 64 -162q54 -51 135 -51q92 0 166 46z" />
    <glyph glyph-name="uniFEA7" unicode="&#x62e;" horiz-adv-x="538" arabic-form="initial" 
d="M275 534q0 -11 -7.5 -18.5t-18.5 -7.5t-18.5 7.5t-7.5 18.5t7.5 18.5t18.5 7.5t18.5 -7.5t7.5 -18.5zM95 0h-105v26h106q154 0 236 49q52 31 132 123q-43 91 -108 139q-56 42 -120 42q-80 0 -157 -68l-16 18q77 76 172 76q85 0 157 -62q63 -54 96 -142v-10
q-49 -63 -84.5 -96t-76.5 -53q-84 -42 -232 -42z" />
    <glyph glyph-name="uniFEA8" unicode="&#x62e;" horiz-adv-x="670" arabic-form="medial" 
d="M265 534q0 -11 -7.5 -18.5t-18.5 -7.5t-18.5 7.5t-7.5 18.5t7.5 18.5t18.5 7.5t18.5 -7.5t7.5 -18.5zM95 0h-105v26h106q154 0 236 49q52 31 132 123q-43 91 -108 139q-56 42 -120 42q-80 0 -157 -68l-16 18q77 76 172 76q85 0 157 -62q63 -54 96 -142v-10
q-36 -47 -57 -69q26 -51 80 -73.5t154 -22.5h15v-26h-20q-98 0 -156 25q-59 25 -90 80q-58 -57 -130.5 -81t-188.5 -24z" />
    <glyph glyph-name="uniFEA9" unicode="&#x62f;" horiz-adv-x="446" arabic-form="isolated" 
d="M234 0h-214v26h206q59 0 85 23q31 26 31 90q0 75 -42 146q-36 62 -99 111l17 24q78 -60 118 -140q35 -69 35 -142q0 -138 -137 -138z" />
    <glyph glyph-name="uniFEAA" unicode="&#x62f;" horiz-adv-x="507" arabic-form="final" 
d="M234 0h-214v26h206q59 0 85 23q31 26 31 90q0 75 -42 146q-36 62 -99 111l17 24q78 -60 118 -138q35 -69 35 -138q0 -59 41 -91q35 -27 90 -27h15v-26h-20q-99 0 -137 71q-28 -71 -126 -71z" />
    <glyph glyph-name="uniFEAB" unicode="&#x630;" horiz-adv-x="446" arabic-form="isolated" 
d="M215 534q0 -11 -7.5 -18.5t-18.5 -7.5t-18.5 7.5t-7.5 18.5t7.5 18.5t18.5 7.5t18.5 -7.5t7.5 -18.5zM234 0h-214v26h206q59 0 85 23q31 26 31 90q0 75 -42 146q-36 62 -99 111l17 24q78 -60 118 -140q35 -69 35 -142q0 -138 -137 -138z" />
    <glyph glyph-name="uniFEAC" unicode="&#x630;" horiz-adv-x="507" arabic-form="final" 
d="M221 534q0 -11 -7.5 -18.5t-18.5 -7.5t-18.5 7.5t-7.5 18.5t7.5 18.5t18.5 7.5t18.5 -7.5t7.5 -18.5zM234 0h-214v26h206q59 0 85 23q31 26 31 90q0 75 -42 146q-36 62 -99 111l17 24q78 -60 118 -138q35 -69 35 -138q0 -59 41 -91q35 -27 90 -27h15v-26h-20
q-99 0 -137 71q-28 -71 -126 -71z" />
    <glyph glyph-name="uniFEAD" unicode="&#x631;" horiz-adv-x="316" arabic-form="isolated" 
d="M226 418v-415q0 -97 -53 -149q-44 -43 -113 -43q-54 0 -110 26l8 25q53 -25 99 -25q68 0 106 50q34 44 34 116v415h29z" />
    <glyph glyph-name="uniFEAE" unicode="&#x631;" horiz-adv-x="364" arabic-form="final" 
d="M226 57v-54q0 -97 -53 -149q-44 -43 -113 -43q-54 0 -110 26l8 25q53 -25 99 -25q68 0 106 50q34 44 34 116v415h29v-254q0 -138 137 -138h11v-26h-21q-87 0 -127 57z" />
    <glyph glyph-name="uniFEAF" unicode="&#x632;" horiz-adv-x="316" arabic-form="isolated" 
d="M236 534q0 -11 -7.5 -18.5t-18.5 -7.5t-18.5 7.5t-7.5 18.5t7.5 18.5t18.5 7.5t18.5 -7.5t7.5 -18.5zM226 418v-415q0 -97 -53 -149q-44 -43 -113 -43q-54 0 -110 26l8 25q53 -25 99 -25q68 0 106 50q34 44 34 116v415h29z" />
    <glyph glyph-name="uniFEB0" unicode="&#x632;" horiz-adv-x="364" arabic-form="final" 
d="M236 534q0 -11 -7.5 -18.5t-18.5 -7.5t-18.5 7.5t-7.5 18.5t7.5 18.5t18.5 7.5t18.5 -7.5t7.5 -18.5zM226 57v-54q0 -97 -53 -149q-44 -43 -113 -43q-54 0 -110 26l8 25q53 -25 99 -25q68 0 106 50q34 44 34 116v415h29v-254q0 -138 137 -138h11v-26h-21q-87 0 -127 57z
" />
    <glyph glyph-name="uniFEB1" unicode="&#x633;" horiz-adv-x="1255" arabic-form="isolated" 
d="M559 57v-18q0 -113 -74 -175q-66 -55 -178 -55q-122 0 -187 86q-50 67 -50 160q0 41 13 83t35 72l21 -10q-41 -71 -41 -150q0 -96 63 -158q58 -57 146 -57q115 0 174 64q49 53 49 141v313h29v-189q0 -138 137 -138t137 138v189h29v-189q0 -138 137 -138t137 138v254h29
v-254q0 -164 -167 -164q-115 0 -150 82q-36 -82 -152 -82q-98 0 -137 57z" />
    <glyph glyph-name="uniFEB2" unicode="&#x633;" horiz-adv-x="1313" arabic-form="final" 
d="M559 57v-18q0 -113 -74 -175q-66 -55 -178 -55q-122 0 -187 86q-50 67 -50 160q0 41 13 83t35 72l21 -10q-41 -71 -41 -150q0 -96 63 -158q58 -57 146 -57q115 0 174 64q49 53 49 141v313h29v-189q0 -138 137 -138t137 138v189h29v-189q0 -138 137 -138t137 138v189h29
v-189q0 -138 137 -138h21v-26h-27q-110 0 -145 82q-36 -82 -151 -82q-118 0 -152 82q-36 -82 -152 -82q-98 0 -137 57z" />
    <glyph glyph-name="uniFEB3" unicode="&#x633;" horiz-adv-x="873" arabic-form="initial" 
d="M17 0h-27v26h21q137 0 137 138v189h29v-189q0 -138 137 -138t137 138v189h29v-189q0 -138 137 -138t137 138v254h29v-254q0 -164 -166 -164q-116 0 -151 82q-36 -82 -152 -82q-117 0 -151 82q-36 -82 -146 -82z" />
    <glyph glyph-name="uniFEB4" unicode="&#x633;" horiz-adv-x="931" arabic-form="medial" 
d="M17 0h-27v26h21q137 0 137 138v189h29v-189q0 -138 137 -138t137 138v189h29v-189q0 -138 137 -138t137 138v189h29v-189q0 -138 137 -138h21v-26h-27q-110 0 -145 82q-36 -82 -154 -82q-115 0 -149 82q-36 -82 -152 -82q-117 0 -151 82q-36 -82 -146 -82z" />
    <glyph glyph-name="uniFEB5" unicode="&#x634;" horiz-adv-x="1255" arabic-form="isolated" 
d="M870 569q0 -11 -7.5 -18.5t-18.5 -7.5t-18.5 7.5t-7.5 18.5t7.5 18.5t18.5 7.5t18.5 -7.5t7.5 -18.5zM832 499q0 -11 -7.5 -18.5t-18.5 -7.5t-18.5 7.5t-7.5 18.5t7.5 18.5t18.5 7.5t18.5 -7.5t7.5 -18.5zM909 499q0 -11 -7.5 -18.5t-18.5 -7.5t-18.5 7.5t-7.5 18.5
t7.5 18.5t18.5 7.5t18.5 -7.5t7.5 -18.5zM559 57v-18q0 -113 -74 -175q-66 -55 -178 -55q-122 0 -187 86q-50 67 -50 160q0 41 13 83t35 72l21 -10q-41 -71 -41 -150q0 -96 63 -158q58 -57 146 -57q115 0 174 64q49 53 49 141v313h29v-189q0 -138 137 -138t137 138v189h29
v-189q0 -138 137 -138t137 138v254h29v-254q0 -164 -167 -164q-115 0 -150 82q-36 -82 -152 -82q-98 0 -137 57z" />
    <glyph glyph-name="uniFEB6" unicode="&#x634;" horiz-adv-x="1313" arabic-form="final" 
d="M870 569q0 -11 -7.5 -18.5t-18.5 -7.5t-18.5 7.5t-7.5 18.5t7.5 18.5t18.5 7.5t18.5 -7.5t7.5 -18.5zM832 499q0 -11 -7.5 -18.5t-18.5 -7.5t-18.5 7.5t-7.5 18.5t7.5 18.5t18.5 7.5t18.5 -7.5t7.5 -18.5zM909 499q0 -11 -7.5 -18.5t-18.5 -7.5t-18.5 7.5t-7.5 18.5
t7.5 18.5t18.5 7.5t18.5 -7.5t7.5 -18.5zM559 57v-18q0 -113 -74 -175q-66 -55 -178 -55q-122 0 -187 86q-50 67 -50 160q0 41 13 83t35 72l21 -10q-41 -71 -41 -150q0 -96 63 -158q58 -57 146 -57q115 0 174 64q49 53 49 141v313h29v-189q0 -138 137 -138t137 138v189h29
v-189q0 -138 137 -138t137 138v189h29v-189q0 -138 137 -138h21v-26h-27q-110 0 -145 82q-36 -82 -151 -82q-118 0 -152 82q-36 -82 -152 -82q-98 0 -137 57z" />
    <glyph glyph-name="uniFEB7" unicode="&#x634;" horiz-adv-x="873" arabic-form="initial" 
d="M491 569q0 -11 -7.5 -18.5t-18.5 -7.5t-18.5 7.5t-7.5 18.5t7.5 18.5t18.5 7.5t18.5 -7.5t7.5 -18.5zM453 499q0 -11 -7.5 -18.5t-18.5 -7.5t-18.5 7.5t-7.5 18.5t7.5 18.5t18.5 7.5t18.5 -7.5t7.5 -18.5zM530 499q0 -11 -7.5 -18.5t-18.5 -7.5t-18.5 7.5t-7.5 18.5
t7.5 18.5t18.5 7.5t18.5 -7.5t7.5 -18.5zM17 0h-27v26h21q137 0 137 138v189h29v-189q0 -138 137 -138t137 138v189h29v-189q0 -138 137 -138t137 138v254h29v-254q0 -164 -166 -164q-116 0 -151 82q-36 -82 -152 -82q-117 0 -151 82q-36 -82 -146 -82z" />
    <glyph glyph-name="uniFEB8" unicode="&#x634;" horiz-adv-x="931" arabic-form="medial" 
d="M491 569q0 -11 -7.5 -18.5t-18.5 -7.5t-18.5 7.5t-7.5 18.5t7.5 18.5t18.5 7.5t18.5 -7.5t7.5 -18.5zM453 499q0 -11 -7.5 -18.5t-18.5 -7.5t-18.5 7.5t-7.5 18.5t7.5 18.5t18.5 7.5t18.5 -7.5t7.5 -18.5zM530 499q0 -11 -7.5 -18.5t-18.5 -7.5t-18.5 7.5t-7.5 18.5
t7.5 18.5t18.5 7.5t18.5 -7.5t7.5 -18.5zM17 0h-27v26h21q137 0 137 138v189h29v-189q0 -138 137 -138t137 138v189h29v-189q0 -138 137 -138t137 138v189h29v-189q0 -138 137 -138h21v-26h-27q-110 0 -145 82q-36 -82 -154 -82q-115 0 -149 82q-36 -82 -152 -82
q-117 0 -151 82q-36 -82 -146 -82z" />
    <glyph glyph-name="uniFEB9" unicode="&#x635;" horiz-adv-x="1369" arabic-form="isolated" 
d="M559 57v-18q0 -113 -74 -175q-66 -55 -178 -55q-122 0 -187 86q-50 67 -50 160q0 41 13 83t35 72l21 -10q-41 -71 -41 -150q0 -96 63 -158q58 -57 146 -57q115 0 174 64q49 53 49 141v290h29v-166q0 -127 116 -137q80 222 212 326q95 75 198 75q101 0 155 -65
q49 -57 49 -156q0 -116 -54 -164q-47 -43 -145 -43h-405q-86 0 -126 57zM703 26h382q104 0 142 46q33 41 33 135q0 102 -56 153q-46 42 -119 42q-56 0 -118 -33q-169 -88 -264 -343z" />
    <glyph glyph-name="uniFEBA" unicode="&#x635;" horiz-adv-x="1425" arabic-form="final" 
d="M559 57v-18q0 -113 -74 -175q-66 -55 -178 -55q-122 0 -187 86q-50 67 -50 160q0 41 13 83t35 72l21 -10q-41 -71 -41 -150q0 -96 63 -158q58 -57 146 -57q115 0 174 64q49 53 49 141v290h29v-166q0 -127 116 -137q80 222 212 326q95 75 198 75q101 0 155 -64
q49 -57 49 -154q0 -110 33 -149q29 -35 102 -35h11v-26h-20q-113 0 -145 91q-40 -91 -180 -91h-405q-86 0 -126 57zM703 26h382q104 0 142 46q33 41 33 135q0 102 -56 153q-46 42 -119 42q-56 0 -118 -33q-169 -88 -264 -343z" />
    <glyph glyph-name="uniFEBB" unicode="&#x635;" horiz-adv-x="977" arabic-form="initial" 
d="M10 0h-20v26h11q137 0 137 138v166h29v-166q0 -127 116 -137q80 222 212 326q95 75 198 75t157 -66q47 -57 47 -155q0 -116 -54 -164q-47 -43 -145 -43h-405q-106 0 -140 82q-36 -82 -143 -82zM311 26h382q104 0 142 46q33 40 33 135q0 102 -56 153q-46 42 -119 42
q-56 0 -118 -33q-169 -88 -264 -343z" />
    <glyph glyph-name="uniFEBC" unicode="&#x635;" horiz-adv-x="1033" arabic-form="medial" 
d="M10 0h-20v26h11q137 0 137 138v166h29v-166q0 -127 116 -137q80 222 212 326q95 75 198 75q104 0 157 -65q47 -58 47 -161q0 -100 30 -138q31 -38 105 -38h11v-26h-20q-113 0 -145 91q-40 -91 -180 -91h-405q-106 0 -140 82q-36 -82 -143 -82zM311 26h382q104 0 142 46
q33 41 33 135q0 102 -56 153q-46 42 -119 42q-56 0 -118 -33q-169 -88 -264 -343z" />
    <glyph glyph-name="uniFEBD" unicode="&#x636;" horiz-adv-x="1369" arabic-form="isolated" 
d="M1083 544q0 -11 -7.5 -18.5t-18.5 -7.5t-18.5 7.5t-7.5 18.5t7.5 18.5t18.5 7.5t18.5 -7.5t7.5 -18.5zM559 57v-18q0 -113 -74 -175q-66 -55 -178 -55q-122 0 -187 86q-50 67 -50 160q0 41 13 83t35 72l21 -10q-41 -71 -41 -150q0 -96 63 -158q58 -57 146 -57
q115 0 174 64q49 53 49 141v290h29v-166q0 -127 116 -137q80 222 212 326q95 75 198 75q101 0 155 -65q49 -57 49 -156q0 -116 -54 -164q-47 -43 -145 -43h-405q-86 0 -126 57zM703 26h382q104 0 142 46q33 41 33 135q0 102 -56 153q-46 42 -119 42q-56 0 -118 -33
q-169 -88 -264 -343z" />
    <glyph glyph-name="uniFEBE" unicode="&#x636;" horiz-adv-x="1425" arabic-form="final" 
d="M1083 544q0 -11 -7.5 -18.5t-18.5 -7.5t-18.5 7.5t-7.5 18.5t7.5 18.5t18.5 7.5t18.5 -7.5t7.5 -18.5zM559 57v-18q0 -113 -74 -175q-66 -55 -178 -55q-122 0 -187 86q-50 67 -50 160q0 41 13 83t35 72l21 -10q-41 -71 -41 -150q0 -96 63 -158q58 -57 146 -57
q115 0 174 64q49 53 49 141v290h29v-166q0 -127 116 -137q80 222 212 326q95 75 198 75q101 0 155 -64q49 -57 49 -154q0 -110 33 -149q29 -35 102 -35h11v-26h-20q-113 0 -145 91q-40 -91 -180 -91h-405q-86 0 -126 57zM703 26h382q104 0 142 46q33 41 33 135
q0 102 -56 153q-46 42 -119 42q-56 0 -118 -33q-169 -88 -264 -343z" />
    <glyph glyph-name="uniFEBF" unicode="&#x636;" horiz-adv-x="977" arabic-form="initial" 
d="M720 544q0 -11 -7.5 -18.5t-18.5 -7.5t-18.5 7.5t-7.5 18.5t7.5 18.5t18.5 7.5t18.5 -7.5t7.5 -18.5zM10 0h-20v26h11q137 0 137 138v166h29v-166q0 -127 116 -137q80 222 212 326q95 75 198 75t157 -66q47 -57 47 -155q0 -116 -54 -164q-47 -43 -145 -43h-405
q-106 0 -140 82q-36 -82 -143 -82zM311 26h382q104 0 142 46q33 40 33 135q0 102 -56 153q-46 42 -119 42q-56 0 -118 -33q-169 -88 -264 -343z" />
    <glyph glyph-name="uniFEC0" unicode="&#x636;" horiz-adv-x="1033" arabic-form="medial" 
d="M720 544q0 -11 -7.5 -18.5t-18.5 -7.5t-18.5 7.5t-7.5 18.5t7.5 18.5t18.5 7.5t18.5 -7.5t7.5 -18.5zM10 0h-20v26h11q137 0 137 138v166h29v-166q0 -127 116 -137q80 222 212 326q95 75 198 75q104 0 157 -65q47 -58 47 -161q0 -100 30 -138q31 -38 105 -38h11v-26h-20
q-113 0 -145 91q-40 -91 -180 -91h-405q-106 0 -140 82q-36 -82 -143 -82zM311 26h382q104 0 142 46q33 41 33 135q0 102 -56 153q-46 42 -119 42q-56 0 -118 -33q-169 -88 -264 -343z" />
    <glyph glyph-name="uniFEC1" unicode="&#x637;" horiz-adv-x="840" arabic-form="isolated" 
d="M561 0h-541v26h125v640h29v-570q81 183 201 269q88 63 181 63q103 0 157 -66q47 -58 47 -157q0 -114 -54 -163q-48 -42 -145 -42zM174 26h382q104 0 142 46q33 41 33 135q0 102 -56 153q-46 42 -119 42q-56 0 -118 -33q-169 -88 -264 -343z" />
    <glyph glyph-name="uniFEC2" unicode="&#x637;" horiz-adv-x="896" arabic-form="final" 
d="M561 0h-541v26h125v640h29v-570q81 183 201 269q88 63 181 63q102 0 155 -63q49 -58 49 -158q0 -108 33 -146q30 -35 102 -35h11v-26h-20q-108 0 -145 90q-41 -90 -180 -90zM174 26h382q104 0 142 46q33 41 33 135q0 102 -56 153q-46 42 -119 42q-56 0 -118 -33
q-169 -88 -264 -343z" />
    <glyph glyph-name="uniFEC3" unicode="&#x637;" horiz-adv-x="852" arabic-form="initial" 
d="M573 0h-583v26h167v640h29v-570q81 183 201 269q88 63 181 63q104 0 157 -67q47 -58 47 -157q0 -114 -54 -162q-48 -42 -145 -42zM186 26h382q104 0 142 46q33 41 33 135q0 102 -56 153q-46 42 -119 42q-56 0 -118 -33q-169 -88 -264 -343z" />
    <glyph glyph-name="uniFEC4" unicode="&#x637;" horiz-adv-x="908" arabic-form="medial" 
d="M573 0h-583v26h167v640h29v-570q81 183 201 269q88 63 181 63q104 0 157 -67q47 -58 47 -159q0 -100 30 -138q31 -38 105 -38h11v-26h-20q-108 0 -145 90q-41 -90 -180 -90zM186 26h382q104 0 142 46q33 41 33 135q0 102 -56 153q-46 42 -119 42q-56 0 -118 -33
q-169 -88 -264 -343z" />
    <glyph glyph-name="uniFEC5" unicode="&#x638;" horiz-adv-x="840" arabic-form="isolated" 
d="M561 0h-541v26h125v640h29v-570q81 183 201 269q88 63 181 63q103 0 157 -66q47 -58 47 -157q0 -114 -54 -163q-48 -42 -145 -42zM559 574q0 -11 -7.5 -18.5t-18.5 -7.5t-18.5 7.5t-7.5 18.5t7.5 18.5t18.5 7.5t18.5 -7.5t7.5 -18.5zM174 26h382q104 0 142 46
q33 41 33 135q0 102 -56 153q-46 42 -119 42q-56 0 -118 -33q-169 -88 -264 -343z" />
    <glyph glyph-name="uniFEC6" unicode="&#x638;" horiz-adv-x="896" arabic-form="final" 
d="M561 0h-541v26h125v640h29v-570q81 183 201 269q88 63 181 63q102 0 155 -63q49 -58 49 -158q0 -108 33 -146q30 -35 102 -35h11v-26h-20q-108 0 -145 90q-41 -90 -180 -90zM559 574q0 -11 -7.5 -18.5t-18.5 -7.5t-18.5 7.5t-7.5 18.5t7.5 18.5t18.5 7.5t18.5 -7.5
t7.5 -18.5zM174 26h382q104 0 142 46q33 41 33 135q0 102 -56 153q-46 42 -119 42q-56 0 -118 -33q-169 -88 -264 -343z" />
    <glyph glyph-name="uniFEC7" unicode="&#x638;" horiz-adv-x="852" arabic-form="initial" 
d="M573 0h-583v26h167v640h29v-570q81 183 201 269q88 63 181 63q104 0 157 -67q47 -58 47 -157q0 -114 -54 -162q-48 -42 -145 -42zM560 574q0 -11 -7.5 -18.5t-18.5 -7.5t-18.5 7.5t-7.5 18.5t7.5 18.5t18.5 7.5t18.5 -7.5t7.5 -18.5zM186 26h382q104 0 142 46
q33 41 33 135q0 102 -56 153q-46 42 -119 42q-56 0 -118 -33q-169 -88 -264 -343z" />
    <glyph glyph-name="uniFEC8" unicode="&#x638;" horiz-adv-x="908" arabic-form="medial" 
d="M573 0h-583v26h167v640h29v-570q81 183 201 269q88 63 181 63q104 0 157 -67q47 -58 47 -159q0 -100 30 -138q31 -38 105 -38h11v-26h-20q-108 0 -145 90q-41 -90 -180 -90zM560 574q0 -11 -7.5 -18.5t-18.5 -7.5t-18.5 7.5t-7.5 18.5t7.5 18.5t18.5 7.5t18.5 -7.5
t7.5 -18.5zM186 26h382q104 0 142 46q33 41 33 135q0 102 -56 153q-46 42 -119 42q-56 0 -118 -33q-169 -88 -264 -343z" />
    <glyph glyph-name="uniFEC9" unicode="&#x639;" horiz-adv-x="539" arabic-form="isolated" 
d="M477 -315q-79 -50 -180 -50q-107 0 -172 75q-55 64 -55 155q0 69 38 120q35 48 98 70q-61 26 -89 85q-22 44 -22 99q0 80 54 131q51 48 131 48h150v-27h-143q-83 0 -127 -50q-35 -40 -35 -99q0 -78 49 -127q48 -48 129 -48h176v-26h-192q-97 0 -148 -62q-40 -48 -40 -115
q0 -95 64 -153q55 -50 135 -50q92 0 166 46z" />
    <glyph glyph-name="uniFECA" unicode="&#x639;" horiz-adv-x="656" arabic-form="final" 
d="M476 -315q-79 -50 -180 -50q-103 0 -163 70q-47 55 -47 130q0 86 66 145q31 28 105 68q21 12 32 18q-26 23 -90 93q-46 50 -74 71t-55 26v32q92 145 241 145q147 0 242 -145v-32q-30 -5 -57 -27t-86 -86q-47 -53 -77 -78q54 -39 104 -39h229v-26h-229q-63 0 -126 48
q-14 -9 -53 -31q-71 -40 -99 -69q-44 -47 -44 -113q0 -79 55 -128q49 -46 126 -46q93 0 167 46zM99 278q28 -10 55 -33t84 -88q45 -50 73 -74q29 24 87 90q47 51 73.5 73.5t52.5 31.5q-39 63 -96 95q-54 31 -117 31q-67 0 -119 -31q-50 -31 -93 -95z" />
    <glyph glyph-name="uniFECB" unicode="&#x639;" horiz-adv-x="552" arabic-form="initial" 
d="M502 0h-512v26h202q-50 30 -75 91q-19 47 -19 102q0 94 54 149q50 50 131 50h150v-27h-143q-84 0 -127 -54q-35 -43 -35 -115q0 -93 49 -145q47 -51 129 -51h196v-26z" />
    <glyph glyph-name="uniFECC" unicode="&#x639;" horiz-adv-x="689" arabic-form="medial" 
d="M218 0h-228v26h228q51 0 104 40q-26 22 -90 94q-45 48 -73.5 69.5t-55.5 26.5v32q92 145 241 145q147 0 242 -145v-32q-30 -6 -59 -28.5t-85 -83.5q-49 -54 -76 -78q53 -40 104 -40h229v-26h-229q-65 0 -126 48q-61 -48 -126 -48zM132 278q28 -10 55 -33t84 -88
q45 -50 73 -74q27 23 87 90q45 51 72.5 73.5t53.5 31.5q-39 62 -98 95q-55 31 -119 31q-66 0 -116 -31q-49 -31 -92 -95z" />
    <glyph glyph-name="uniFECD" unicode="&#x63a;" horiz-adv-x="539" arabic-form="isolated" 
d="M324 534q0 -11 -7.5 -18.5t-18.5 -7.5t-18.5 7.5t-7.5 18.5t7.5 18.5t18.5 7.5t18.5 -7.5t7.5 -18.5zM477 -315q-79 -50 -180 -50q-107 0 -172 75q-55 64 -55 155q0 69 38 120q35 48 98 70q-61 26 -89 85q-22 44 -22 99q0 80 54 131q51 48 131 48h150v-27h-143
q-83 0 -127 -50q-35 -40 -35 -99q0 -78 49 -127q48 -48 129 -48h176v-26h-192q-97 0 -148 -62q-40 -48 -40 -115q0 -95 64 -153q55 -50 135 -50q92 0 166 46z" />
    <glyph glyph-name="uniFECE" unicode="&#x63a;" horiz-adv-x="656" arabic-form="final" 
d="M334 534q0 -11 -7.5 -18.5t-18.5 -7.5t-18.5 7.5t-7.5 18.5t7.5 18.5t18.5 7.5t18.5 -7.5t7.5 -18.5zM476 -315q-79 -50 -180 -50q-103 0 -163 70q-47 55 -47 130q0 86 66 145q31 28 105 68q21 12 32 18q-26 23 -90 93q-46 50 -74 71t-55 26v32q92 145 241 145
q147 0 242 -145v-32q-30 -5 -57 -27t-86 -86q-47 -53 -77 -78q54 -39 104 -39h229v-26h-229q-63 0 -126 48q-14 -9 -53 -31q-71 -40 -99 -69q-44 -47 -44 -113q0 -79 55 -128q49 -46 126 -46q93 0 167 46zM99 278q28 -10 55 -33t84 -88q45 -50 73 -74q29 24 87 90
q47 51 73.5 73.5t52.5 31.5q-39 63 -96 95q-54 31 -117 31q-67 0 -119 -31q-50 -31 -93 -95z" />
    <glyph glyph-name="uniFECF" unicode="&#x63a;" horiz-adv-x="552" arabic-form="initial" 
d="M324 534q0 -11 -7.5 -18.5t-18.5 -7.5t-18.5 7.5t-7.5 18.5t7.5 18.5t18.5 7.5t18.5 -7.5t7.5 -18.5zM502 0h-512v26h202q-50 30 -75 91q-19 47 -19 102q0 94 54 149q50 50 131 50h150v-27h-143q-84 0 -127 -54q-35 -43 -35 -115q0 -93 49 -145q47 -51 129 -51h196v-26z
" />
    <glyph glyph-name="uniFED0" unicode="&#x63a;" horiz-adv-x="689" arabic-form="medial" 
d="M367 534q0 -11 -7.5 -18.5t-18.5 -7.5t-18.5 7.5t-7.5 18.5t7.5 18.5t18.5 7.5t18.5 -7.5t7.5 -18.5zM218 0h-228v26h228q51 0 104 40q-26 22 -90 94q-45 48 -73.5 69.5t-55.5 26.5v32q92 145 241 145q147 0 242 -145v-32q-30 -6 -59 -28.5t-85 -83.5q-49 -54 -76 -78
q53 -40 104 -40h229v-26h-229q-65 0 -126 48q-61 -48 -126 -48zM132 278q28 -10 55 -33t84 -88q45 -50 73 -74q27 23 87 90q45 51 72.5 73.5t53.5 31.5q-39 62 -98 95q-55 31 -119 31q-66 0 -116 -31q-49 -31 -92 -95z" />
    <glyph glyph-name="uniFED1" unicode="&#x641;" horiz-adv-x="903" arabic-form="isolated" 
d="M685 534q0 -11 -7.5 -18.5t-18.5 -7.5t-18.5 7.5t-7.5 18.5t7.5 18.5t18.5 7.5t18.5 -7.5t7.5 -18.5zM664 0h-385q-98 0 -154 70q-45 56 -45 131q0 60 30 109q28 46 77 72l13 -20q-49 -26 -72 -76q-19 -40 -19 -87q0 -76 49 -125q47 -48 121 -48h281q-70 62 -70 186
q0 106 53 164q46 50 123 50q78 0 120 -49q37 -43 37 -115v-101q0 -78 -47 -122q-42 -39 -112 -39zM519 211q0 -85 39 -137q37 -48 97 -48q139 0 139 140v86q0 77 -38 115q-33 33 -90 33q-76 0 -115 -61q-32 -49 -32 -128z" />
    <glyph glyph-name="uniFED2" unicode="&#x641;" horiz-adv-x="938" arabic-form="final" 
d="M692 534q0 -11 -7.5 -18.5t-18.5 -7.5t-18.5 7.5t-7.5 18.5t7.5 18.5t18.5 7.5t18.5 -7.5t7.5 -18.5zM616 0h-337q-98 0 -154 70q-45 56 -45 131q0 60 30 109q28 46 77 72l13 -20q-49 -26 -72 -76q-19 -40 -19 -87q0 -76 49 -125q47 -48 121 -48h342q-64 32 -99 94
q-29 52 -29 108q0 95 51 149q46 49 122 49q87 0 134 -63q39 -52 39 -135q0 -65 -37 -122q-35 -52 -91 -80h237v-26h-232q-21 0 -50 6q-28 -6 -50 -6zM666 32q144 58 144 194q0 80 -41 128q-39 46 -103 46q-73 0 -113 -58q-31 -46 -31 -114q0 -67 45 -123q38 -49 99 -73z" />
    <glyph glyph-name="uniFED3" unicode="&#x641;" horiz-adv-x="522" arabic-form="initial" 
d="M313 534q0 -11 -7.5 -18.5t-18.5 -7.5t-18.5 7.5t-7.5 18.5t7.5 18.5t18.5 7.5t18.5 -7.5t7.5 -18.5zM283 0h-293v26h189q-70 62 -70 186q0 106 53 164q46 50 123 50q78 0 120 -49q37 -43 37 -115v-101q-2 -78 -48 -122q-41 -39 -111 -39zM138 211q0 -85 39 -137
q37 -48 97 -48q139 0 139 140v86q0 77 -38 115q-33 33 -90 33q-76 0 -115 -61q-32 -49 -32 -128z" />
    <glyph glyph-name="uniFED4" unicode="&#x641;" horiz-adv-x="544" arabic-form="medial" 
d="M298 534q0 -11 -7.5 -18.5t-18.5 -7.5t-18.5 7.5t-7.5 18.5t7.5 18.5t18.5 7.5t18.5 -7.5t7.5 -18.5zM222 0h-232v26h237q-64 32 -99 94q-29 52 -29 108q0 95 51 149q46 49 122 49q87 0 134 -63q39 -52 39 -135q0 -65 -37 -122q-35 -52 -91 -80h237v-26h-232q-22 0 -50 6
q-28 -6 -50 -6zM272 32q144 58 144 194q0 80 -41 128q-39 46 -103 46q-73 0 -113 -58q-31 -46 -31 -114q0 -67 45 -123q38 -49 99 -73z" />
    <glyph glyph-name="uniFED5" unicode="&#x642;" horiz-adv-x="689" arabic-form="isolated" 
d="M439 534q0 -11 -7.5 -18.5t-18.5 -7.5t-18.5 7.5t-7.5 18.5t7.5 18.5t18.5 7.5t18.5 -7.5t7.5 -18.5zM516 534q0 -11 -7.5 -18.5t-18.5 -7.5t-18.5 7.5t-7.5 18.5t7.5 18.5t18.5 7.5t18.5 -7.5t7.5 -18.5zM580 59q-47 -52 -136 -52q-83 0 -128 64q-40 56 -40 147
q0 102 53 158q46 50 123 50q79 0 120 -49q37 -43 37 -115v-233q0 -113 -79 -174q-71 -55 -193 -55q-141 0 -212 87q-55 67 -55 168q0 41 13 83t35 72l21 -10q-41 -71 -41 -150q0 -104 70 -166q64 -58 169 -58q128 0 190 65q53 55 53 149v19zM580 97v155q0 77 -38 115
q-32 33 -90 33q-75 0 -115 -60q-32 -49 -32 -123q0 -87 41 -138q37 -46 97 -46q50 0 82 15t55 49z" />
    <glyph glyph-name="uniFED6" unicode="&#x642;" horiz-adv-x="717" arabic-form="final" 
d="M439 534q0 -11 -7.5 -18.5t-18.5 -7.5t-18.5 7.5t-7.5 18.5t7.5 18.5t18.5 7.5t18.5 -7.5t7.5 -18.5zM516 534q0 -11 -7.5 -18.5t-18.5 -7.5t-18.5 7.5t-7.5 18.5t7.5 18.5t18.5 7.5t18.5 -7.5t7.5 -18.5zM608 0q-8 -98 -86 -151q-71 -49 -185 -49q-141 0 -212 87
q-55 67 -55 168q0 41 13 83t35 72l21 -10q-41 -71 -41 -150q0 -104 70 -166q64 -58 169 -58q116 0 181 56q53 45 61 118h-102q-109 0 -160 68q-41 55 -41 150q0 102 53 158q46 50 123 50q79 0 120 -49q37 -43 37 -115v-236h118v-26h-119zM580 26v226q0 77 -38 115
q-32 33 -90 33q-75 0 -115 -60q-32 -49 -32 -123q0 -91 46 -142q44 -49 125 -49h104z" />
    <glyph glyph-name="uniFED7" unicode="&#x642;" horiz-adv-x="522" arabic-form="initial" 
d="M274 534q0 -11 -7.5 -18.5t-18.5 -7.5t-18.5 7.5t-7.5 18.5t7.5 18.5t18.5 7.5t18.5 -7.5t7.5 -18.5zM351 534q0 -11 -7.5 -18.5t-18.5 -7.5t-18.5 7.5t-7.5 18.5t7.5 18.5t18.5 7.5t18.5 -7.5t7.5 -18.5zM283 0h-293v26h189q-70 62 -70 186q0 106 53 164q46 50 123 50
q78 0 120 -49q37 -43 37 -115v-101q-2 -78 -48 -122q-41 -39 -111 -39zM138 211q0 -85 39 -137q37 -48 97 -48q139 0 139 140v86q0 77 -38 115q-33 33 -90 33q-76 0 -115 -61q-32 -49 -32 -128z" />
    <glyph glyph-name="uniFED8" unicode="&#x642;" horiz-adv-x="544" arabic-form="medial" 
d="M259 534q0 -11 -7.5 -18.5t-18.5 -7.5t-18.5 7.5t-7.5 18.5t7.5 18.5t18.5 7.5t18.5 -7.5t7.5 -18.5zM336 534q0 -11 -7.5 -18.5t-18.5 -7.5t-18.5 7.5t-7.5 18.5t7.5 18.5t18.5 7.5t18.5 -7.5t7.5 -18.5zM222 0h-232v26h237q-64 32 -99 94q-29 52 -29 108q0 95 51 149
q46 49 122 49q87 0 134 -63q39 -52 39 -135q0 -65 -37 -122q-35 -52 -91 -80h237v-26h-232q-22 0 -50 6q-28 -6 -50 -6zM272 32q144 58 144 194q0 80 -41 128q-39 46 -103 46q-73 0 -113 -58q-31 -46 -31 -114q0 -67 45 -123q38 -49 99 -73z" />
    <glyph glyph-name="uniFED9" unicode="&#x643;" horiz-adv-x="847" arabic-form="isolated" 
d="M597 0h-318q-98 0 -154 70q-45 56 -45 131q0 60 30 109q28 46 77 72l13 -20q-49 -26 -72 -76q-19 -40 -19 -87q0 -76 49 -125q47 -48 121 -48h312q137 0 137 138v502h29v-502q0 -86 -48 -128q-40 -36 -112 -36zM463 362h-97v21h89q47 0 47 40q0 50 -60 50q-23 0 -49 -8
v22l80 89l13 -10l-62 -71q10 2 20 2q36 0 58 -20t22 -53q0 -28 -16.5 -45t-44.5 -17z" />
    <glyph glyph-name="uniFEDA" unicode="&#x643;" horiz-adv-x="895" arabic-form="final" 
d="M591 0h-312q-98 0 -154 70q-45 56 -45 131q0 60 30 109q28 46 77 72l13 -20q-49 -26 -72 -76q-19 -40 -19 -87q0 -76 49 -125q47 -48 121 -48h312q137 0 137 138v502h29v-502q0 -138 137 -138h11v-26h-20q-107 0 -142 82q-38 -82 -152 -82zM463 362h-97v21h89q47 0 47 40
q0 50 -60 50q-23 0 -49 -8v22l80 89l13 -10l-62 -71q10 2 20 2q36 0 58 -20t22 -53q0 -28 -16.5 -45t-44.5 -17z" />
    <glyph glyph-name="uniFEDB" unicode="&#x643;" horiz-adv-x="541" arabic-form="initial" 
d="M332 0h-342v26h339q77 0 108 44q25 37 25 115v16q0 145 -133 145h-272v29l218 226l16 -16l-203 -213h244q80 0 122 -50q37 -45 37 -120v-24q0 -94 -47 -139q-40 -39 -112 -39z" />
    <glyph glyph-name="uniFEDC" unicode="&#x643;" horiz-adv-x="619" arabic-form="medial" 
d="M332 0h-342v26h339q75 0 107 43q26 36 26 106v36q0 67 -38 102q-35 33 -95 33h-272v29l218 226l16 -16l-203 -213h244q78 0 122 -47q37 -41 37 -103v-58q0 -138 127 -138h11v-26h-20q-52 0 -90 28q-31 22 -43 56q-35 -84 -144 -84z" />
    <glyph glyph-name="uniFEDD" unicode="&#x644;" horiz-adv-x="649" arabic-form="isolated" 
d="M559 666v-627q0 -112 -75 -174q-66 -55 -172 -55q-123 0 -190 86q-52 66 -52 159q0 41 13 83t35 72l21 -10q-41 -71 -41 -150q0 -95 66 -157q60 -57 148 -57q110 0 168 65q50 56 50 149v616h29z" />
    <glyph glyph-name="uniFEDE" unicode="&#x644;" horiz-adv-x="697" arabic-form="final" 
d="M559 57v-18q0 -112 -75 -174q-66 -55 -172 -55q-123 0 -190 86q-52 66 -52 159q0 41 13 83t35 72l21 -10q-41 -71 -41 -150q0 -95 66 -157q60 -57 148 -57q110 0 168 65q50 56 50 149v616h29v-502q0 -138 137 -138h11v-26h-20q-88 0 -128 57z" />
    <glyph glyph-name="uniFEDF" unicode="&#x644;" horiz-adv-x="257" arabic-form="initial" 
d="M10 0h-20v26h11q137 0 137 138v502h29v-502q0 -86 -47 -128q-40 -36 -110 -36z" />
    <glyph glyph-name="uniFEE0" unicode="&#x644;" horiz-adv-x="305" arabic-form="medial" 
d="M10 0h-20v26h11q137 0 137 138v502h29v-502q0 -138 137 -138h11v-26h-20q-107 0 -142 82q-36 -82 -143 -82z" />
    <glyph glyph-name="uniFEE1" unicode="&#x645;" horiz-adv-x="538" arabic-form="isolated" 
d="M49 -315h-29v173q0 81 45 126q42 42 114 42h29q-83 50 -83 186q0 106 53 164q46 50 123 50q78 0 120 -49q37 -43 37 -115v-90q0 -79 -42 -125q-40 -45 -112 -47h-119q-136 0 -136 -142v-173zM154 211q0 -90 39 -140q36 -45 97 -45q139 0 139 142v84q0 77 -37 115
q-33 33 -91 33q-77 0 -116 -60q-31 -49 -31 -129z" />
    <glyph glyph-name="uniFEE2" unicode="&#x645;" horiz-adv-x="597" arabic-form="final" 
d="M49 -315h-29v173q0 81 45 126q42 42 114 42h30q-84 50 -84 186q0 106 53 164q46 50 123 50q78 0 120 -49q37 -43 37 -115v-98q0 -138 137 -138h12v-26h-20q-108 0 -143 92q-35 -89 -140 -92h-119q-136 0 -136 -142v-173zM154 211q0 -90 39 -140q36 -45 97 -45
q73 0 108 41q31 36 31 101v84q0 77 -37 115q-33 33 -91 33q-77 0 -116 -60q-31 -49 -31 -129z" />
    <glyph glyph-name="uniFEE3" unicode="&#x645;" horiz-adv-x="547" arabic-form="initial" 
d="M-10 26h11q72 0 108 40q30 35 30 98v98q0 82 47 126q41 38 110 38q88 0 135 -65q41 -56 41 -149q0 -108 -52 -166q-45 -51 -120 -51q-111 0 -147 96q-17 -44 -54 -67.5t-89 -23.5h-20v26zM168 168q0 -147 138 -147q71 0 107 61q30 50 30 129q0 91 -41 142q-39 47 -106 47
q-128 0 -128 -148v-84z" />
    <glyph glyph-name="uniFEE4" unicode="&#x645;" horiz-adv-x="649" arabic-form="medial" 
d="M484 96q-39 -113 -160 -113q-62 0 -105 33q-37 29 -54 80q-17 -48 -57 -73q-37 -23 -88 -23h-30v26h21q72 0 108 40q30 35 30 98v38q0 114 52 173q46 51 123 51q89 0 135 -67q41 -58 41 -157v-38q0 -138 137 -138h22v-26h-30q-58 0 -98 30q-32 24 -47 66zM178 201
q0 -95 40 -145q38 -47 106 -47q72 0 112 61q35 51 35 131q0 99 -41 151q-38 48 -106 48q-77 0 -115 -62q-31 -51 -31 -137z" />
    <glyph glyph-name="uniFEE5" unicode="&#x646;" horiz-adv-x="649" arabic-form="isolated" 
d="M339 409q0 -11 -7.5 -18.5t-18.5 -7.5t-18.5 7.5t-7.5 18.5t7.5 18.5t18.5 7.5t18.5 -7.5t7.5 -18.5zM559 418v-379q0 -113 -74 -175q-66 -55 -178 -55q-122 0 -187 86q-50 67 -50 160q0 41 13 83t35 72l21 -10q-41 -71 -41 -150q0 -96 63 -158q58 -57 146 -57
q115 0 174 64q49 53 49 141v378h29z" />
    <glyph glyph-name="uniFEE6" unicode="&#x646;" horiz-adv-x="697" arabic-form="final" 
d="M339 409q0 -11 -7.5 -18.5t-18.5 -7.5t-18.5 7.5t-7.5 18.5t7.5 18.5t18.5 7.5t18.5 -7.5t7.5 -18.5zM559 57v-18q0 -113 -74 -175q-66 -55 -178 -55q-122 0 -187 86q-50 67 -50 160q0 41 13 83t35 72l21 -10q-41 -66 -41 -150q0 -96 63 -158q58 -57 146 -57
q115 0 174 64q49 53 49 141v378h29v-254q0 -138 137 -138h11v-26h-20q-88 0 -128 57z" />
    <glyph glyph-name="uniFEE7" unicode="&#x646;" horiz-adv-x="256" arabic-form="initial" 
d="M176 534q0 -11 -7.5 -18.5t-18.5 -7.5t-18.5 7.5t-7.5 18.5t7.5 18.5t18.5 7.5t18.5 -7.5t7.5 -18.5zM10 0h-20v26h11q137 0 137 138v254h29v-254q0 -86 -47 -128q-40 -36 -110 -36z" />
    <glyph glyph-name="uniFEE8" unicode="&#x646;" horiz-adv-x="305" arabic-form="medial" 
d="M179 534q0 -11 -7.5 -18.5t-18.5 -7.5t-18.5 7.5t-7.5 18.5t7.5 18.5t18.5 7.5t18.5 -7.5t7.5 -18.5zM10 0h-20v26h11q137 0 137 138v254h29v-254q0 -138 137 -138h11v-26h-17q-110 0 -145 82q-36 -82 -143 -82z" />
    <glyph glyph-name="uniFEE9" unicode="&#x647;" horiz-adv-x="488" arabic-form="isolated" 
d="M258 -5h-28q-79 0 -123 66q-39 58 -39 151q0 106 53 164q46 50 123 50q88 0 135 -65q41 -56 41 -149q0 -107 -50 -166q-44 -51 -112 -51zM97 211q0 -92 39 -143q36 -47 98 -47h20q71 0 107 61q30 50 30 129q0 91 -41 142q-39 47 -106 47q-77 0 -116 -61q-31 -49 -31 -128
z" />
    <glyph glyph-name="uniFEEA" unicode="&#x647;" horiz-adv-x="542" arabic-form="final" 
d="M552 0h-17q-64 0 -105 33q-34 26 -48 71q-56 -74 -147 -74q-77 0 -123 59q-42 54 -42 141q0 100 64 156q56 48 147 48h93v55h29v-325q0 -72 40 -107q35 -31 98 -31h11v-26zM374 407h-95q-92 0 -139 -53q-41 -45 -41 -123q0 -89 45 -137q37 -38 91 -38q85 0 141 77
q-2 20 -2 32v242z" />
    <glyph glyph-name="uniFEEB" unicode="&#x647;" horiz-adv-x="585" arabic-form="initial" 
d="M144 0h-154v26h154q10 0 28 2q-51 27 -79 79q-24 43 -24 91q0 64 39 106q39 41 100 41q69 0 107 -51q31 -40 31 -97q0 -55 -29 -102q-28 -43 -75 -67q20 -2 115 -2q74 0 106 42q23 29 23 77q0 61 -32 120q-36 65 -103 109q-76 49 -182 62l4 25q167 -18 264 -125
q78 -86 78 -191q0 -68 -40 -107q-40 -38 -112 -38h-91q-35 0 -65 10q-30 -10 -63 -10zM208 38q56 21 85 73q24 41 24 88q0 55 -31 88q-29 32 -78 32q-56 0 -86 -40q-24 -31 -24 -78q0 -55 31 -100q30 -44 79 -63z" />
    <glyph glyph-name="uniFEEC" unicode="&#x647;" horiz-adv-x="653" arabic-form="medial" 
d="M144 0h-154v26h154q10 0 28 2q-51 27 -79 79q-24 43 -24 91q0 64 39 106q39 41 100 41q69 0 107 -51q31 -40 31 -97q0 -55 -29 -102q-28 -43 -75 -67q10 -1 10 -2h-2h22q83 0 153 41q61 37 61 78q0 61 -32 120q-36 65 -103 109q-76 49 -182 62l4 25q166 -18 264 -125
q78 -85 78 -184q0 -63 38 -95q35 -31 99 -31h11v-26h-20q-105 0 -141 79q-33 -79 -139 -79h-91q-35 0 -65 10q-30 -10 -63 -10zM208 38q56 21 85 73q24 41 24 88q0 55 -31 88q-29 32 -78 32q-56 0 -86 -40q-24 -31 -24 -78q0 -55 31 -100q30 -44 79 -63z" />
    <glyph glyph-name="uniFEED" unicode="&#x648;" horiz-adv-x="483" arabic-form="isolated" 
d="M374 59q-47 -52 -136 -52q-83 0 -128 64q-40 56 -40 147q0 102 53 158q46 50 123 50q79 0 120 -49q37 -43 37 -115v-259q0 -99 -55 -150q-45 -42 -116 -42q-59 0 -125 30l8 25q63 -29 115 -29q70 0 109 47q35 44 35 119v56zM374 97v155q0 77 -38 115q-32 33 -90 33
q-75 0 -115 -60q-32 -49 -32 -123q0 -92 41 -141q36 -43 97 -43q50 0 82 15t55 49z" />
    <glyph glyph-name="uniFEEE" unicode="&#x648;" horiz-adv-x="511" arabic-form="final" 
d="M403 0q0 -96 -55 -147q-45 -42 -116 -42q-59 0 -125 30l8 25q63 -29 115 -29q70 0 108 47q35 42 36 116h-103q-109 0 -160 68q-41 55 -41 150q0 102 53 158q46 50 123 50q79 0 120 -49q37 -43 37 -115v-236h118v-26h-118zM374 26v226q0 77 -38 115q-32 33 -90 33
q-75 0 -115 -60q-32 -49 -32 -123q0 -191 171 -191h104z" />
    <glyph glyph-name="uniFEEF" unicode="&#x649;" horiz-adv-x="684" arabic-form="isolated" 
d="M568 391h-101q-60 0 -92 -28q-35 -29 -35 -86q0 -67 50 -104q27 -20 106 -48q73 -25 98 -50q30 -29 30 -76t-30 -89q-33 -45 -93 -71q-67 -29 -157 -29q-146 0 -219 86q-55 64 -55 159q0 41 13 83t35 72l21 -10q-41 -71 -41 -150q0 -97 72 -157q67 -57 174 -57
q130 0 200 58q53 45 53 104q0 48 -50 76q-20 11 -79 32q-75 26 -107 53q-50 42 -50 116q0 71 54 112q43 32 102 30h101v-26z" />
    <glyph glyph-name="uniFEF0" unicode="&#x649;" horiz-adv-x="619" arabic-form="final" 
d="M624 0q-1 -82 -79 -136q-77 -54 -201 -54q-146 0 -219 86q-55 64 -55 159q0 41 13 83t35 72l21 -10q-41 -71 -41 -150q0 -97 72 -157q67 -57 174 -57q129 0 199 59q53 44 54 105h-104v26h136v-26h-5z" />
    <glyph glyph-name="uniFEF1" unicode="&#x64a;" horiz-adv-x="684" arabic-form="isolated" 
d="M568 391h-101q-60 0 -92 -28q-35 -29 -35 -86q0 -67 50 -104q27 -20 106 -48q73 -25 98 -50q30 -29 30 -76t-30 -89q-33 -45 -93 -71q-67 -29 -157 -29q-146 0 -219 86q-55 64 -55 159q0 41 13 83t35 72l21 -10q-41 -71 -41 -150q0 -97 72 -157q67 -57 174 -57
q130 0 200 58q53 45 53 104q0 48 -50 76q-20 11 -79 32q-75 26 -107 53q-50 42 -50 116q0 71 54 112q43 32 102 30h101v-26zM323 -308q0 -11 -7.5 -18.5t-18.5 -7.5t-18.5 7.5t-7.5 18.5t7.5 18.5t18.5 7.5t18.5 -7.5t7.5 -18.5zM400 -308q0 -11 -7.5 -18.5t-18.5 -7.5
t-18.5 7.5t-7.5 18.5t7.5 18.5t18.5 7.5t18.5 -7.5t7.5 -18.5z" />
    <glyph glyph-name="uniFEF2" unicode="&#x64a;" horiz-adv-x="619" arabic-form="final" 
d="M624 0q-1 -82 -79 -136q-77 -54 -201 -54q-146 0 -219 86q-55 64 -55 159q0 41 13 83t35 72l21 -10q-41 -71 -41 -150q0 -97 72 -157q67 -57 174 -57q129 0 199 59q53 44 54 105h-104v26h136v-26h-5zM323 -308q0 -11 -7.5 -18.5t-18.5 -7.5t-18.5 7.5t-7.5 18.5t7.5 18.5
t18.5 7.5t18.5 -7.5t7.5 -18.5zM400 -308q0 -11 -7.5 -18.5t-18.5 -7.5t-18.5 7.5t-7.5 18.5t7.5 18.5t18.5 7.5t18.5 -7.5t7.5 -18.5z" />
    <glyph glyph-name="uniFEF3" unicode="&#x64a;" horiz-adv-x="256" arabic-form="initial" 
d="M10 0h-20v26h11q137 0 137 138v254h29v-254q0 -86 -47 -128q-40 -36 -110 -36zM105 -117q0 -11 -7.5 -18.5t-18.5 -7.5t-18.5 7.5t-7.5 18.5t7.5 18.5t18.5 7.5t18.5 -7.5t7.5 -18.5zM182 -117q0 -11 -7.5 -18.5t-18.5 -7.5t-18.5 7.5t-7.5 18.5t7.5 18.5t18.5 7.5
t18.5 -7.5t7.5 -18.5z" />
    <glyph glyph-name="uniFEF4" unicode="&#x64a;" horiz-adv-x="305" arabic-form="medial" 
d="M10 0h-20v26h11q137 0 137 138v254h29v-254q0 -138 137 -138h11v-26h-17q-110 0 -145 82q-36 -82 -143 -82zM140 -117q0 -11 -7.5 -18.5t-18.5 -7.5t-18.5 7.5t-7.5 18.5t7.5 18.5t18.5 7.5t18.5 -7.5t7.5 -18.5zM217 -117q0 -11 -7.5 -18.5t-18.5 -7.5t-18.5 7.5
t-7.5 18.5t7.5 18.5t18.5 7.5t18.5 -7.5t7.5 -18.5z" />
    <glyph glyph-name=".notdef" horiz-adv-x="364" 
d="M33 0v666h265v-666h-265zM66 33h199v600h-199v-600z" />
    <glyph glyph-name="glyph1" 
 />
    <glyph glyph-name="glyph2" horiz-adv-x="270" 
 />
    <glyph glyph-name="space" unicode=" " horiz-adv-x="270" 
 />
    <glyph glyph-name="exclam" unicode="!" horiz-adv-x="250" 
d="M113 162l-4 505h32l-4 -505h-24zM100 19q0 10 7.5 17.5t17.5 7.5t17.5 -7.5t7.5 -18.5q0 -10 -7.5 -17.5t-17.5 -7.5t-17.5 7.5t-7.5 18.5z" />
    <glyph glyph-name="quotedbl" unicode="&#x22;" horiz-adv-x="281" 
d="M77 450h-19l-5 217h29zM222 450h-19l-5 217h29z" />
    <glyph glyph-name="numbersign" unicode="#" horiz-adv-x="587" 
d="M145 226l43 214h-80l5 21h79l42 207l22 -6l-40 -201h208l42 207l22 -5l-41 -202h80l-5 -21h-79l-43 -214h79l-4 -21h-80l-41 -206l-22 5l40 201h-208l-42 -206l-22 5l41 201h-81l4 21h81zM168 226h209l43 214h-209z" />
    <glyph glyph-name="dollar" unicode="$" horiz-adv-x="553" 
d="M268 675v92h28v-92q44 -4 76 -22.5t61 -55.5l-23 -15q-55 68 -131 68q-70 0 -114 -46q-39 -39 -39 -95q0 -88 118 -134l68 -27q82 -32 117 -76q31 -39 31 -92q0 -75 -52 -129q-45 -47 -112 -57v-97h-28v94h-5q-73 0 -122 41q-44 36 -64 99l28 7q21 -62 66 -93
q40 -27 94 -27q74 0 124 53q42 46 42 108q0 51 -31 84.5t-107 63.5l-65 26q-129 51 -129 155q0 75 53 122q46 40 116 45z" />
    <glyph glyph-name="percent" unicode="%" horiz-adv-x="906" 
d="M554 198q0 203 146 203t146 -203q0 -202 -146 -202t-146 202zM583 198q0 -175 117 -175t117 175q0 176 -117 176t-117 -176zM634 668l18 -10l-381 -659l-17 10zM60 469q0 203 146 203t146 -203q0 -202 -146 -202t-146 202zM89 469q0 -175 117 -175t117 175
q0 176 -117 176t-117 -176z" />
    <glyph glyph-name="ampersand" unicode="&#x26;" horiz-adv-x="615" 
d="M273 377l209 -254q35 55 59 126l24 -7q-28 -83 -66 -140l84 -102h-34l-66 82q-80 -91 -199 -91q-94 0 -153 56q-51 48 -51 118q0 53 30.5 97.5t105.5 100.5q2 1 4 3l19 15l-19 23q-67 81 -67 147q0 57 41 93q36 31 87 31q57 0 93 -38q31 -33 31 -81q0 -41 -26.5 -79.5
t-85.5 -84.5zM258 395l15 12q57 43 82 79t25 73q0 43 -32 71q-28 23 -68 23q-47 0 -76 -32q-26 -27 -26 -66q0 -62 67 -144zM466 102l-212 260l-11 -8q-3 -2 -30 -22q-106 -79 -106 -164q0 -68 58 -112q50 -38 121 -38q108 0 180 84z" />
    <glyph glyph-name="quotesingle" unicode="'" horiz-adv-x="135" 
d="M77 450h-19l-5 217h29z" />
    <glyph glyph-name="parenleft" unicode="(" horiz-adv-x="268" 
d="M170 721l25 -11q-74 -192 -74 -434t74 -434l-25 -11q-33 73 -55 199t-22 246q0 129 25 261q21 115 52 184z" />
    <glyph glyph-name="parenright" unicode=")" horiz-adv-x="268" 
d="M97 721q34 -74 56 -199.5t22 -245.5q0 -129 -25 -262q-21 -115 -53 -183l-24 11q74 192 74 434t-74 434z" />
    <glyph glyph-name="asterisk" unicode="*" horiz-adv-x="438" 
d="M210 579l-5 133h28l-5 -133l124 46l9 -27l-128 -36l83 -104l-23 -16l-74 110l-73 -111l-23 17l82 104l-128 36l9 27z" />
    <glyph glyph-name="plus" unicode="+" horiz-adv-x="556" 
d="M266 324v200h24v-200h199v-23h-199v-200h-24v200h-199v23h199z" />
    <glyph glyph-name="comma" unicode="," horiz-adv-x="200" 
d="M106 70l29 -11l-84 -198l-17 6z" />
    <glyph glyph-name="hyphen" unicode="-" horiz-adv-x="235" 
d="M37 324h162v-24h-162v24z" />
    <glyph glyph-name="period" unicode="." horiz-adv-x="198" 
d="M74 19q0 10 7.5 17.5t17.5 7.5t17.5 -7.5t7.5 -18.5q0 -10 -7.5 -17.5t-17.5 -7.5t-17.5 7.5t-7.5 18.5z" />
    <glyph glyph-name="slash" unicode="/" horiz-adv-x="525" 
d="M440 668l20 -13l-375 -656l-20 13z" />
    <glyph glyph-name="zero" unicode="0" horiz-adv-x="567" 
d="M50 333q0 186 65 269q57 73 168 73q127 0 184 -95q50 -84 50 -247q0 -185 -66 -269q-57 -73 -168 -73q-126 0 -183 96q-50 84 -50 246zM78 333q0 -165 60 -245q52 -70 145 -70q108 0 160 91q45 80 45 224q0 166 -59 246q-52 70 -146 70q-107 0 -159 -92q-46 -80 -46 -224
z" />
    <glyph glyph-name="one" unicode="1" horiz-adv-x="273" 
d="M183 0h-28v642l-125 -73l-13 23l127 75h39v-667z" />
    <glyph glyph-name="two" unicode="2" horiz-adv-x="480" 
d="M55 0v37l252 276q48 54 69.5 96.5t21.5 85.5q0 71 -51 116q-44 38 -107 38q-117 0 -158 -122l-26 7q22 73 76 110q47 31 113 31q83 0 136 -58q45 -50 45 -121q0 -48 -24.5 -96t-80.5 -109l-239 -265h362v-26h-389z" />
    <glyph glyph-name="three" unicode="3" horiz-adv-x="457" 
d="M201 362h32q60 0 98 47q33 40 33 97q0 68 -48 108q-41 35 -104 35q-79 0 -131 -64l-22 13q59 77 155 77q84 0 134 -52q43 -46 43 -115q0 -51 -23.5 -91.5t-67.5 -64.5q107 -53 107 -171q0 -91 -60 -144q-52 -46 -131 -46q-75 0 -127 39q-44 33 -63 91l27 7q23 -58 61 -84
t100 -26q80 0 126 50q39 43 39 111q0 75 -46 120q-41 39 -101 39h-31v24z" />
    <glyph glyph-name="four" unicode="4" horiz-adv-x="515" 
d="M346 654l-278 -471h287v188h28v-188h87v-26h-87v-157h-28v157h-315v31l283 481z" />
    <glyph glyph-name="five" unicode="5" horiz-adv-x="504" 
d="M124 396q55 28 111 28q97 0 159 -69q54 -60 54 -145q0 -102 -67 -164q-59 -55 -143 -55q-122 0 -188 95l22 16q58 -83 165 -83q85 0 132 51q24 26 37.5 62.5t13.5 74.5q0 87 -61 142q-53 49 -127 49q-68 0 -120 -44l-24 5l61 308h264v-27h-241z" />
    <glyph glyph-name="six" unicode="6" horiz-adv-x="537" 
d="M321 668l22 -17l-184 -263q48 26 107 26q99 0 160 -65q54 -57 54 -138q0 -98 -70 -163q-60 -57 -142 -57q-96 0 -159 72q-55 62 -55 147q0 75 49 146zM451 207q0 83 -59 136q-52 45 -125 45q-84 0 -138 -59q-47 -51 -47 -123q0 -84 61 -140q53 -48 124 -48q83 0 137 62
q47 53 47 127z" />
    <glyph glyph-name="seven" unicode="7" horiz-adv-x="444" 
d="M397 640h-370v27h397v-33l-331 -635l-25 14z" />
    <glyph glyph-name="eight" unicode="8" horiz-adv-x="498" 
d="M166 355q-93 54 -93 151q0 79 56 127q49 42 120 42q82 0 132 -54q44 -46 44 -114q0 -98 -93 -152q116 -63 116 -175q0 -88 -63 -142q-55 -47 -136 -47q-93 0 -150 60q-49 52 -49 129q0 112 116 175zM249 337q-80 0 -129 -51q-42 -44 -42 -109q0 -74 55 -119
q47 -40 116 -40q79 0 129 51q43 44 43 108q0 75 -55 121q-47 39 -117 39zM100 507q0 -66 48 -108q41 -36 101 -36q69 0 112 47q38 40 38 97q0 66 -48 107q-42 35 -102 35q-69 0 -112 -45q-37 -40 -37 -97z" />
    <glyph glyph-name="nine" unicode="9" horiz-adv-x="539" 
d="M215 -1l-21 17l183 263q-48 -23 -106 -23q-100 0 -161 64q-53 55 -53 137q0 98 70 162q60 56 142 56q98 0 160 -70q54 -61 54 -147q0 -76 -50 -147zM85 461q0 -85 58 -136q50 -44 127 -44q84 0 138 59q47 51 47 122q0 85 -60 139q-53 48 -125 48q-83 0 -138 -62
q-47 -53 -47 -126z" />
    <glyph glyph-name="colon" unicode=":" horiz-adv-x="198" 
d="M74 19q0 10 7.5 17.5t17.5 7.5t17.5 -7.5t7.5 -18.5q0 -10 -7.5 -17.5t-17.5 -7.5t-17.5 7.5t-7.5 18.5zM74 399q0 10 7.5 17.5t17.5 7.5t17.5 -7.5t7.5 -18.5q0 -10 -7.5 -17.5t-17.5 -7.5t-17.5 7.5t-7.5 18.5z" />
    <glyph glyph-name="semicolon" unicode=";" horiz-adv-x="202" 
d="M106 70l29 -11l-84 -198l-17 6zM94 357q0 10 7.5 17.5t17.5 7.5t17.5 -7.5t7.5 -17.5t-7.5 -17.5t-17.5 -7.5t-17.5 7.5t-7.5 17.5z" />
    <glyph glyph-name="less" unicode="&#x3c;" horiz-adv-x="536" 
d="M464 541v-30l-381 -174l381 -175v-30l-393 185v40z" />
    <glyph glyph-name="equal" unicode="=" horiz-adv-x="556" 
d="M461 259v-24h-366v24h366zM461 390v-24h-366v24h366z" />
    <glyph glyph-name="greater" unicode="&#x3e;" horiz-adv-x="536" 
d="M71 132v31l381 174l-381 174v30l393 -185v-39z" />
    <glyph glyph-name="question" unicode="?" horiz-adv-x="406" 
d="M176 162v51q0 45 8.5 64t43.5 49l46 40q77 68 77 146q0 66 -46 104q-40 34 -100 34q-47 0 -80 -16.5t-62 -54.5l-20 17q57 79 157 79q89 0 137 -49q42 -44 42 -115q0 -86 -76 -152l-57 -50q-27 -24 -35 -43.5t-8 -61.5v-42h-27zM164 19q0 10 7.5 17.5t17.5 7.5t17.5 -7.5
t7.5 -18.5q0 -10 -7.5 -17.5t-17.5 -7.5t-17.5 7.5t-7.5 18.5z" />
    <glyph glyph-name="at" unicode="@" horiz-adv-x="919" 
d="M621 511l-45 -354h43q94 0 142 66q43 58 43 156q0 115 -61 196q-81 111 -248 111q-183 0 -288 -113q-92 -98 -92 -250q0 -86 34 -157q29 -62 81 -105q95 -80 262 -80q108 0 218 33l8 -23q-111 -33 -229 -33q-207 0 -310 115q-89 98 -89 249q0 186 125 293q109 94 276 94
q165 0 257 -101q81 -88 81 -227q0 -126 -67 -190q-32 -32 -70 -44t-100 -12h-141q-78 0 -124 52q-39 46 -39 116q0 64 32 116q28 45 74 67q49 25 125 25h102zM551 157l42 331h-84q-97 0 -150 -56q-45 -49 -45 -130q0 -71 44 -110q39 -35 101 -35h92z" />
    <glyph glyph-name="A" unicode="A" horiz-adv-x="604" 
d="M127 202l-81 -202h-29l270 667h30l270 -667h-29l-81 202h-350zM138 228h328l-164 410z" />
    <glyph glyph-name="B" unicode="B" horiz-adv-x="516" 
d="M90 0v667h121q108 0 157 -38q28 -21 44.5 -56t16.5 -72q0 -59 -32 -101q-29 -37 -76 -54q74 -18 111 -68q32 -43 32 -104q0 -80 -63 -130q-30 -25 -64 -34.5t-90 -9.5h-157zM118 355h106q49 0 76 7t51 26q51 42 51 111q0 34 -14 64t-38 48q-42 30 -126 30h-106v-286z
M118 26h123q51 0 82 8t57 29q57 43 57 114q0 40 -19.5 74.5t-52.5 52.5q-46 25 -134 25h-113v-303z" />
    <glyph glyph-name="C" unicode="C" horiz-adv-x="653" 
d="M586 566q-84 83 -199 83q-85 0 -156 -43q-69 -41 -109 -112q-41 -74 -41 -161t41 -160q40 -71 110 -113q71 -42 156 -42q112 0 202 85l19 -19q-95 -93 -220 -93q-92 0 -171 47q-76 44 -120 122q-46 79 -46 173t46 173q44 78 120 123q78 46 170 46q122 0 217 -90z" />
    <glyph glyph-name="D" unicode="D" horiz-adv-x="619" 
d="M90 667h120q177 0 273 -101q84 -88 84 -232q0 -166 -108 -256q-95 -78 -249 -78h-120v667zM118 640v-613h95q159 0 248 94q77 83 77 213q0 149 -100 233q-87 73 -225 73h-95z" />
    <glyph glyph-name="E" unicode="E" horiz-adv-x="466" 
d="M404 641h-286v-290h254v-26h-254v-298h296v-27h-324v667h314v-26z" />
    <glyph glyph-name="F" unicode="F" horiz-adv-x="425" 
d="M379 641h-261v-290h238v-26h-238v-325h-28v667h289v-26z" />
    <glyph glyph-name="G" unicode="G" horiz-adv-x="729" 
d="M439 321h236v-15q0 -154 -87 -240q-77 -75 -198 -75q-92 0 -171 46q-77 45 -121 122q-46 80 -46 173q0 94 45 174q45 78 121 123q78 46 171 46q123 0 216 -89l-19 -20q-84 83 -199 83q-85 0 -156 -43q-69 -41 -109 -112q-41 -74 -41 -162q0 -86 41 -159q41 -71 110 -113
q72 -42 156 -42q89 0 155 47q58 41 83 108q19 49 21 122h-208v26z" />
    <glyph glyph-name="H" unicode="H" horiz-adv-x="650" 
d="M118 351h413v316h29v-667h-29v325h-413v-325h-28v667h28v-316z" />
    <glyph glyph-name="I" unicode="I" horiz-adv-x="208" 
d="M118 667v-667h-28v667h28z" />
    <glyph glyph-name="J" unicode="J" horiz-adv-x="382" 
d="M292 667v-473q0 -203 -151 -203q-63 0 -128 55l16 20q32 -27 57 -37.5t54 -10.5q123 0 123 176v473h29z" />
    <glyph glyph-name="K" unicode="K" horiz-adv-x="544" 
d="M269 397l259 -397h-34l-244 377l-132 -147v-230h-28v667h28v-401l359 401h33z" />
    <glyph glyph-name="L" unicode="L" horiz-adv-x="416" 
d="M118 667v-640h275v-27h-303v667h28z" />
    <glyph glyph-name="M" unicode="M" horiz-adv-x="820" 
d="M393 167l-275 471v-638h-28v667h41l279 -477l278 477h42v-667h-29v638l-274 -471h-34z" />
    <glyph glyph-name="N" unicode="N" horiz-adv-x="713" 
d="M118 636v-636h-28v667h38l467 -637v637h28v-667h-38z" />
    <glyph glyph-name="O" unicode="O" horiz-adv-x="767" 
d="M52 333q0 92 46 172q44 78 119 123q77 47 167 47q89 0 166 -47q75 -46 119 -123q46 -80 46 -172t-46 -172q-44 -77 -119 -123q-77 -47 -166 -47t-167 47q-75 46 -119 124q-46 79 -46 171zM81 333q0 -85 41 -159q40 -71 109 -113q71 -43 153 -43t152 43q69 42 109 113
q41 74 41 159q0 86 -41 160q-40 71 -108 113q-71 43 -153 43q-83 0 -153 -43q-69 -42 -109 -113q-41 -74 -41 -160z" />
    <glyph glyph-name="P" unicode="P" horiz-adv-x="459" 
d="M118 289v-289h-28v667h120q60 0 97.5 -11t64.5 -36q57 -52 57 -141t-58 -143q-26 -26 -63.5 -36.5t-97.5 -10.5h-92zM118 315h101q90 0 135 43q46 45 46 121t-46 120q-45 42 -135 42h-101v-326z" />
    <glyph glyph-name="Q" unicode="Q" horiz-adv-x="765" 
d="M586 63l68 -71l-17 -17l-71 74q-84 -58 -183 -58q-89 0 -166 48q-75 45 -119 123q-46 79 -46 171t46 172q44 77 119 123q78 47 167 47t166 -47q75 -46 119 -123q46 -80 46 -172q0 -84 -39 -159q-34 -66 -90 -111zM547 68l-59 62l17 17l62 -64q60 46 92 118q27 62 27 132
q0 86 -41 160q-40 71 -108 113q-71 43 -153 43q-83 0 -154 -43q-68 -42 -108 -113q-41 -74 -41 -160q0 -85 41 -159q40 -71 109 -113q70 -43 152 -43q86 0 164 50z" />
    <glyph glyph-name="R" unicode="R" horiz-adv-x="512" 
d="M313 299l164 -299h-32l-159 294q-36 -5 -76 -5h-92v-289h-28v667h120q65 0 105.5 -11.5t69.5 -36.5q61 -55 61 -144q0 -70 -40 -119q-36 -43 -93 -57zM118 315h101q98 0 147 40q52 43 52 120q0 78 -52 123q-48 42 -147 42h-101v-325z" />
    <glyph glyph-name="S" unicode="S" horiz-adv-x="491" 
d="M406 597l-23 -15q-55 68 -131 68q-70 0 -114 -46q-39 -39 -39 -95q0 -88 118 -134l68 -27q82 -32 117 -76q31 -39 31 -92q0 -85 -65 -141q-55 -48 -132 -48q-73 0 -122 41q-44 36 -64 99l28 7q21 -62 66 -93q40 -27 94 -27q74 0 124 53q42 46 42 108q0 51 -31 84.5
t-107 63.5l-65 26q-129 51 -129 155q0 78 58 126q50 41 124 41q92 0 152 -78z" />
    <glyph glyph-name="T" unicode="T" horiz-adv-x="428" 
d="M229 640v-640h-29v640h-183v27h395v-27h-183z" />
    <glyph glyph-name="U" unicode="U" horiz-adv-x="634" 
d="M118 667v-416q0 -58 6 -89t22 -57q24 -39 71.5 -63t99.5 -24q56 0 106 27q43 24 65 60q16 26 22 57t6 89v416h28v-437q0 -53 -9.5 -87.5t-31.5 -63.5q-31 -41 -81 -64.5t-105 -23.5t-105 23.5t-81 64.5q-22 29 -31.5 63.5t-9.5 87.5v437h28z" />
    <glyph glyph-name="V" unicode="V" horiz-adv-x="535" 
d="M268 28l221 639h29l-232 -667h-36l-233 667h30z" />
    <glyph glyph-name="W" unicode="W" horiz-adv-x="872" 
d="M436 639l-180 -639h-38l-201 667h29l191 -639l179 639h40l179 -639l192 639h29l-202 -667h-37z" />
    <glyph glyph-name="X" unicode="X" horiz-adv-x="495" 
d="M248 374l180 293h29l-194 -316l216 -351h-32l-200 327l-199 -327h-31l215 349l-194 318h31z" />
    <glyph glyph-name="Y" unicode="Y" horiz-adv-x="472" 
d="M222 281l-212 386h31l195 -360l195 360h31l-212 -386v-281h-28v281z" />
    <glyph glyph-name="Z" unicode="Z" horiz-adv-x="507" 
d="M58 27h413v-27h-438v37l407 603h-375v27h399v-37z" />
    <glyph glyph-name="bracketleft" unicode="[" horiz-adv-x="277" 
d="M121 694v-836h101v-26h-129v888h129v-26h-101z" />
    <glyph glyph-name="backslash" unicode="\" horiz-adv-x="525" 
d="M86 668l374 -656l-20 -13l-375 656z" />
    <glyph glyph-name="bracketright" unicode="]" horiz-adv-x="277" 
d="M156 694h-101v26h129v-888h-129v26h101v836z" />
    <glyph glyph-name="asciicircum" unicode="^" horiz-adv-x="451" 
d="M249 669l167 -265h-36l-156 244l-155 -244h-35l166 265h49z" />
    <glyph glyph-name="underscore" unicode="_" horiz-adv-x="475" 
d="M10 -88h455v-20h-455v20z" />
    <glyph glyph-name="grave" unicode="`" horiz-adv-x="476" 
d="M142 636l32 17l78 -106l-14 -8z" />
    <glyph glyph-name="a" unicode="a" horiz-adv-x="554" 
d="M481 0h-27v102q-22 -34 -38.5 -51t-41.5 -31q-49 -29 -108 -29q-100 0 -165 75q-56 65 -56 156q0 104 72 172q62 58 149 58q59 0 108 -29q25 -14 41.5 -31t38.5 -50v101h27v-443zM266 426q-90 0 -145 -65q-47 -56 -47 -139q0 -96 61 -154q53 -51 131 -51q89 0 143 65
q47 57 47 140q0 96 -60 154q-53 50 -130 50z" />
    <glyph glyph-name="b" unicode="b" horiz-adv-x="554" 
d="M73 0v667h27v-325q68 110 188 110q100 0 165 -75q56 -65 56 -155q0 -105 -72 -172q-63 -59 -149 -59q-120 0 -188 111v-102h-27zM288 426q-89 0 -143 -65q-47 -56 -47 -139q0 -96 60 -154q53 -51 130 -51q90 0 145 66q47 56 47 139q0 95 -61 154q-53 50 -131 50z" />
    <glyph glyph-name="c" unicode="c" horiz-adv-x="452" 
d="M398 373q-56 53 -130 53q-92 0 -147 -65q-47 -55 -47 -139q0 -97 61 -154q54 -51 134 -51t133 56l18 -19q-63 -63 -151 -63q-103 0 -168 75q-56 65 -56 156q0 106 72 172q63 58 152 58q81 0 147 -59z" />
    <glyph glyph-name="d" unicode="d" horiz-adv-x="554" 
d="M481 0h-27v102q-68 -111 -188 -111q-100 0 -165 75q-56 65 -56 156q0 104 72 172q62 58 149 58q120 0 188 -110v325h27v-667zM266 426q-90 0 -145 -65q-47 -56 -47 -139q0 -96 61 -154q53 -51 131 -51q89 0 143 65q47 57 47 140q0 96 -60 154q-53 50 -130 50z" />
    <glyph glyph-name="e" unicode="e" horiz-adv-x="501" 
d="M73 210q6 -93 62 -146q49 -47 122 -47q98 0 157 81l25 -11q-71 -96 -181 -96q-98 0 -159 75q-54 65 -54 157q0 103 68 170q59 59 139 59q66 0 118 -40q45 -34 67 -90q18 -46 19 -112h-383zM73 234h356q-5 48 -18 81q-21 55 -67 85q-41 26 -91 26q-81 0 -131 -60
q-44 -52 -49 -132z" />
    <glyph glyph-name="f" unicode="f" horiz-adv-x="237" 
d="M92 443v96q0 133 85 133q13 0 29 -5v-25q-13 3 -24 3q-34 0 -48.5 -25t-14.5 -81v-96h88v-25h-88v-418h-27v418h-50v25h50z" />
    <glyph glyph-name="g" unicode="g" horiz-adv-x="554" 
d="M481 443v-451q0 -114 -70 -178q-60 -56 -156 -56q-110 0 -185 83l18 19q36 -40 75.5 -58t91.5 -18q98 0 152 63q47 56 47 145v21v89q-68 -111 -187 -111q-101 0 -166 75q-56 65 -56 156q0 104 72 172q62 58 149 58q120 0 188 -110v101h27zM266 426q-90 0 -145 -65
q-47 -56 -47 -139q0 -95 61 -154q53 -51 131 -51q89 0 143 65q47 57 47 140q0 96 -60 154q-53 50 -130 50z" />
    <glyph glyph-name="h" unicode="h" horiz-adv-x="510" 
d="M100 360q51 92 164 92q82 0 130 -53q43 -48 43 -157v-242h-26v233q0 57 -9 91t-31 57q-41 45 -109 45q-82 0 -127 -55q-19 -24 -27 -57.5t-8 -91.5v-222h-27v667h27v-307z" />
    <glyph glyph-name="i" unicode="i" horiz-adv-x="173" 
d="M99 443v-443h-26v443h26zM61 588q0 10 7.5 17.5t17.5 7.5t17.5 -7.5t7.5 -17.5q0 -11 -7.5 -18.5t-17.5 -7.5t-17.5 8t-7.5 18z" />
    <glyph glyph-name="j" unicode="j" horiz-adv-x="182" 
d="M-5 -233v25q13 -4 24 -4q33 0 48 25t15 82v548h27v-548q0 -133 -86 -133q-12 0 -28 5zM70 588q0 10 7.5 17.5t17.5 7.5q11 0 18 -7.5t7 -17.5q0 -11 -7.5 -18.5t-17.5 -7.5t-17.5 8t-7.5 18z" />
    <glyph glyph-name="k" unicode="k" horiz-adv-x="445" 
d="M227 269l206 -269h-33l-191 252l-109 -111v-141h-27v667h27v-493l265 269h35z" />
    <glyph glyph-name="l" unicode="l" horiz-adv-x="175" 
d="M101 0h-27v667h27v-667z" />
    <glyph glyph-name="m" unicode="m" horiz-adv-x="787" 
d="M395 348q49 104 161 104q75 0 119 -53q39 -48 39 -157v-242h-27v233q0 105 -34 148q-38 45 -99 45q-74 0 -115 -55q-17 -24 -24 -58t-7 -91v-222h-27v233q0 105 -35 148q-38 45 -99 45q-79 0 -119 -61q-16 -24 -22 -55.5t-6 -87.5v-222h-27v443h27v-83q42 92 149 92
q106 0 146 -104z" />
    <glyph glyph-name="n" unicode="n" horiz-adv-x="510" 
d="M100 360q51 92 164 92q82 0 130 -53q43 -48 43 -157v-242h-26v233q0 57 -9 91t-31 57q-41 45 -109 45q-82 0 -127 -55q-19 -24 -27 -57.5t-8 -91.5v-222h-27v443h27v-83z" />
    <glyph glyph-name="o" unicode="o" horiz-adv-x="533" 
d="M267 452q100 0 165 -75q56 -64 56 -155q0 -105 -72 -172q-62 -59 -149 -59q-101 0 -166 75q-56 65 -56 156q0 104 72 172q63 58 150 58zM267 426q-91 0 -146 -65q-47 -56 -47 -139q0 -96 61 -154q53 -51 132 -51q90 0 145 66q48 56 48 139q0 95 -62 154q-53 50 -131 50z
" />
    <glyph glyph-name="p" unicode="p" horiz-adv-x="554" 
d="M73 -233v676h27v-101q68 110 188 110q100 0 165 -75q56 -65 56 -155q0 -105 -72 -172q-63 -59 -149 -59q-120 0 -188 111v-335h-27zM288 426q-89 0 -143 -65q-47 -56 -47 -139q0 -96 60 -154q53 -51 130 -51q90 0 145 66q47 56 47 139q0 95 -61 154q-53 50 -131 50z" />
    <glyph glyph-name="q" unicode="q" horiz-adv-x="554" 
d="M481 -233h-27v335q-68 -111 -188 -111q-100 0 -165 75q-56 65 -56 156q0 104 72 172q62 58 149 58q120 0 188 -110v101h27v-676zM266 426q-90 0 -145 -65q-47 -56 -47 -139q0 -96 61 -154q53 -51 131 -51q89 0 143 65q47 57 47 140q0 96 -60 154q-53 50 -130 50z" />
    <glyph glyph-name="r" unicode="r" horiz-adv-x="281" 
d="M100 360q24 44 58.5 63t92.5 20v-24q-59 -3 -93 -28q-33 -24 -45.5 -62t-12.5 -112v-217h-27v443h27v-83z" />
    <glyph glyph-name="s" unicode="s" horiz-adv-x="361" 
d="M296 394l-23 -12q-37 45 -91 45q-46 0 -75 -28q-25 -24 -25 -59q0 -38 29 -63q12 -11 66 -32l47 -18q49 -20 71 -45t22 -61q0 -59 -45 -97q-40 -33 -96 -33q-91 0 -136 91l24 10q24 -41 50 -58t65 -17q50 0 82 32q28 28 28 68q0 39 -32 65q-13 10 -67 31l-52 21
q-82 32 -82 102q0 54 41 87q36 29 87 29q68 0 112 -58z" />
    <glyph glyph-name="t" unicode="t" horiz-adv-x="234" 
d="M87 418h-55v25h55v117l27 10v-127h80v-25h-80v-290q0 -56 14.5 -81t48.5 -25q11 0 24 3v-25q-16 -5 -29 -5q-85 0 -85 133v290z" />
    <glyph glyph-name="u" unicode="u" horiz-adv-x="510" 
d="M411 83q-52 -92 -165 -92q-81 0 -130 53q-43 48 -43 158v241h27v-232q0 -58 9 -91.5t30 -56.5q41 -46 109 -46q83 0 127 55q20 24 28 58t8 92v221h26v-443h-26v83z" />
    <glyph glyph-name="v" unicode="v" horiz-adv-x="440" 
d="M400 443h30l-193 -443h-33l-193 443h30l180 -418z" />
    <glyph glyph-name="w" unicode="w" horiz-adv-x="681" 
d="M175 0l-164 443h30l152 -419l129 419h37l129 -420l153 420h29l-164 -443h-36l-129 413l-130 -413h-36z" />
    <glyph glyph-name="x" unicode="x" horiz-adv-x="404" 
d="M218 232l171 -232h-32l-155 211l-156 -211h-31l171 231l-156 212h31l141 -191l141 191h31z" />
    <glyph glyph-name="y" unicode="y" horiz-adv-x="421" 
d="M194 7l-183 436h30l167 -404l173 404h30l-292 -676h-27z" />
    <glyph glyph-name="z" unicode="z" horiz-adv-x="419" 
d="M67 25h325v-25h-353v29l316 389h-300v25h327v-24v-5z" />
    <glyph glyph-name="braceleft" unicode="{" horiz-adv-x="286" 
d="M55 288q35 17 48.5 43.5t13.5 76.5v182q0 79 28 106q25 24 85 24h1v-24q-41 -3 -55 -11q-18 -11 -24.5 -30t-6.5 -58v-189q0 -100 -63 -132q63 -34 63 -131v-190q0 -40 7.5 -60t27.5 -30q13 -6 51 -9v-24h-1q-68 0 -92 32q-21 29 -21 98v183q0 50 -13.5 76.5t-48.5 43.5
v23z" />
    <glyph glyph-name="bar" unicode="|" horiz-adv-x="475" 
d="M224 728h27v-904h-27v904z" />
    <glyph glyph-name="braceright" unicode="}" horiz-adv-x="286" 
d="M231 288v-23q-34 -17 -48 -43.5t-14 -76.5v-183q0 -78 -28 -106q-24 -24 -85 -24h-1v24q41 3 56 12q17 10 24 29t7 58v190q0 97 62 131q-62 32 -62 132v189q0 41 -8 60.5t-28 29.5q-13 7 -51 9v24h2q67 0 91 -32q21 -29 21 -98v-182q0 -50 14 -76.5t48 -43.5z" />
    <glyph glyph-name="asciitilde" unicode="~" horiz-adv-x="634" 
d="M113 610l-10 7q27 50 51 69t60 19q33 0 104 -32q47 -21 65.5 -27t39.5 -6q31 0 52.5 13.5t44.5 46.5l11 -6q-46 -85 -117 -85q-18 0 -42.5 8.5t-89.5 37.5q-44 19 -73 19t-51 -14.5t-45 -49.5z" />
    <glyph glyph-name="nonbreakingspace" unicode="&#xa0;" horiz-adv-x="270" 
 />
    <glyph glyph-name="exclamdown" unicode="&#xa1;" horiz-adv-x="250" 
d="M113 321h24l4 -505h-32zM100 464q0 10 7.5 18t17.5 8t17.5 -7.5t7.5 -18.5q0 -10 -7.5 -17.5t-17.5 -7.5t-17.5 7.5t-7.5 17.5z" />
    <glyph glyph-name="cent" unicode="&#xa2;" horiz-adv-x="544" 
d="M282 103q-94 8 -153 81q-51 63 -51 149q0 100 64 165q56 56 140 65v104h27v-104q42 -1 74 -15t66 -44l-18 -19q-56 52 -130 52q-92 0 -147 -64q-47 -56 -47 -140q0 -96 61 -154q54 -50 134 -50t133 56l18 -19q-60 -60 -144 -63v-103h-27v103z" />
    <glyph glyph-name="sterling" unicode="&#xa3;" horiz-adv-x="552" 
d="M183 319l5 -28q16 -75 16 -104q0 -46 -21.5 -83.5t-69.5 -78.5h379v-25h-407v36q52 44 72 75.5t20 70.5q0 35 -17 116l-5 21h-70v25h65l-8 39q-9 43 -9 91q0 74 27 120q22 37 65 59t92 22q91 0 145 -78l-22 -15q-51 68 -126 68q-78 0 -119 -54q-36 -46 -36 -124
q0 -39 13 -100l6 -28h213v-25h-208z" />
    <glyph glyph-name="currency" unicode="&#xa4;" horiz-adv-x="721" 
d="M196 489l-94 96l14 14l93 -96q62 61 152 61q88 0 152 -61l93 96l13 -14l-93 -96q56 -65 56 -156q0 -88 -56 -155l93 -96l-13 -14l-93 96q-64 -61 -152 -61t-152 61l-94 -96l-13 14l94 96q-57 68 -57 155q0 91 57 156zM361 538q-91 0 -146 -65q-47 -56 -47 -139
q0 -96 61 -154q53 -51 132 -51q90 0 145 65q48 57 48 140q0 95 -62 153q-53 51 -131 51z" />
    <glyph glyph-name="yen" unicode="&#xa5;" horiz-adv-x="556" 
d="M264 250h-173v25h173v6l-61 111h-112v25h98l-137 250h31l195 -360l195 360h31l-137 -250h98v-25h-112l-61 -111v-6h173v-25h-173v-250h-28v250z" />
    <glyph glyph-name="brokenbar" unicode="&#xa6;" horiz-adv-x="475" 
d="M224 210h27v-386h-27v386zM251 348h-27v380h27v-380z" />
    <glyph glyph-name="section" unicode="&#xa7;" horiz-adv-x="519" 
d="M370 39q30 -24 43.5 -51.5t13.5 -64.5q0 -81 -56 -126q-48 -39 -126 -39q-59 0 -102.5 26t-79.5 82l25 16q62 -97 160 -97q71 0 114 44q37 38 37 94q0 47 -32 81t-104 63l-64 25q-127 50 -127 154q0 67 47 115q8 7 31 29q-66 46 -66 122q0 75 57 122q50 41 121 41
q91 0 147 -77l-22 -15q-53 67 -128 67q-67 0 -110 -45q-37 -39 -37 -93q0 -87 115 -132l67 -27q80 -31 115 -74q30 -38 30 -91q0 -38 -12 -67.5t-42 -63.5q-3 -3 -14 -16zM347 56q36 37 50 65t14 66q0 50 -30.5 82.5t-105.5 62.5l-64 26q-19 7 -36 16q-76 -54 -76 -127
q0 -87 116 -133l67 -26q36 -14 65 -32z" />
    <glyph glyph-name="dieresis" unicode="&#xa8;" horiz-adv-x="476" 
d="M121 588q0 10 7.5 17.5t17.5 7.5t17.5 -7.5t7.5 -17.5q0 -11 -7.5 -18.5t-17.5 -7.5t-17.5 8t-7.5 18zM305 588q0 10 7.5 17.5t17.5 7.5t17.5 -7.5t7.5 -17.5q0 -11 -7.5 -18.5t-17.5 -7.5t-17.5 8t-7.5 18z" />
    <glyph glyph-name="copyright" unicode="&#xa9;" horiz-adv-x="877" 
d="M593 482q-56 56 -131 56q-91 0 -149 -67q-50 -57 -50 -138q0 -92 65 -153q56 -52 134 -52q73 0 134 58l17 -18q-65 -64 -150 -64q-102 0 -169 75q-57 65 -57 154q0 103 74 171q64 59 151 59q83 0 149 -63zM439 712q102 0 190 -52q86 -50 136 -136q52 -88 52 -191
t-52 -191q-50 -85 -136 -135q-88 -52 -191 -52t-191 51q-85 50 -135 135q-52 88 -52 190q0 103 52 192q50 86 136 137q88 52 191 52zM439 688q-97 0 -180 -48q-80 -48 -127 -129q-49 -83 -49 -180q0 -96 49 -178q47 -80 127 -126q83 -49 179 -49q97 0 179 49q81 47 128 127
q48 83 48 179q0 97 -48 179q-47 81 -127 128q-83 48 -179 48z" />
    <glyph glyph-name="ordfeminine" unicode="&#xaa;" horiz-adv-x="366" 
d="M312 407h-23v52q-42 -57 -110 -57q-61 0 -101 45q-35 38 -35 92q0 62 44 102q39 34 93 34q67 0 109 -56v51h23v-263zM179 653q-52 0 -84 -36q-28 -31 -28 -78q0 -54 36 -86q31 -29 76 -29q52 0 83 37q28 31 28 78q0 54 -35 86q-31 28 -76 28z" />
    <glyph glyph-name="guillemotleft" unicode="&#xab;" horiz-adv-x="399" 
d="M222 222l117 -144l-17 -13l-127 157l128 160l16 -13zM74 222l116 -144l-16 -13l-127 157l127 160l16 -13z" />
    <glyph glyph-name="logicalnot" unicode="&#xac;" horiz-adv-x="648" 
d="M572 100h-26v198h-469v26h495v-224z" />
    <glyph glyph-name="uni00AD" unicode="&#xad;" horiz-adv-x="235" 
d="M37 324h162v-24h-162v24z" />
    <glyph glyph-name="registered" unicode="&#xae;" horiz-adv-x="877" 
d="M490 307l109 -199h-31l-104 194q-24 -4 -50 -4h-66v-190h-25v450h91q81 0 119 -33q42 -37 42 -98q0 -46 -26 -80q-23 -29 -59 -40zM348 322h72q129 0 129 105q0 107 -129 107h-72v-212zM439 712q102 0 190 -52q86 -50 136 -136q52 -88 52 -191t-52 -191
q-50 -85 -136 -135q-88 -52 -191 -52t-191 51q-85 50 -135 135q-52 88 -52 190q0 103 52 192q50 86 136 137q88 52 191 52zM439 688q-97 0 -180 -48q-80 -48 -127 -129q-49 -83 -49 -180q0 -96 49 -178q47 -80 127 -126q83 -49 179 -49q97 0 179 49q81 47 128 127
q48 83 48 179q0 97 -48 179q-47 81 -127 128q-83 48 -179 48z" />
    <glyph glyph-name="macron" unicode="&#xaf;" horiz-adv-x="476" 
d="M121 603h235v-25h-235v25z" />
    <glyph glyph-name="degree" unicode="&#xb0;" horiz-adv-x="360" 
d="M214 737q61 0 101 -45q35 -39 35 -91q0 -62 -45 -102q-39 -35 -91 -35q-61 0 -102 45q-35 38 -35 91q0 61 45 102q39 35 92 35zM213 487q51 0 84 37q30 32 30 76q0 50 -38 84q-32 29 -76 29q-50 0 -84 -37q-29 -33 -29 -76q0 -50 38 -84q32 -29 75 -29z" />
    <glyph glyph-name="plusminus" unicode="&#xb1;" horiz-adv-x="556" 
d="M490 24v-24h-424v24h424zM265 372v200h26v-200h199v-23h-199v-200h-26v200h-199v23h199z" />
    <glyph glyph-name="twosuperior" unicode="&#xb2;" horiz-adv-x="387" 
d="M72 406v29l152 161q54 57 54 101q0 38 -29 62q-25 21 -61 21q-57 0 -81 -48q-4 -8 -9 -24l-27 7q7 24 14 35q34 57 107 57q52 0 86 -35q28 -31 28 -75q0 -54 -64 -122l-134 -142h209v-27h-245z" />
    <glyph glyph-name="threesuperior" unicode="&#xb3;" horiz-adv-x="387" 
d="M175 627h25q31 0 51.5 22t20.5 55q0 34 -23.5 55t-60.5 21q-25 0 -42.5 -8.5t-35.5 -30.5l-24 14l5 5q37 47 97 47q54 0 85 -32q28 -28 28 -70q0 -58 -48 -89q57 -33 57 -99q0 -55 -38 -87q-32 -28 -83 -28q-93 0 -121 84l27 8q8 -19 12 -25q25 -40 82 -40q45 0 70 27
q23 23 23 59q0 41 -26 65q-23 21 -57 21h-24v26z" />
    <glyph glyph-name="acute" unicode="&#xb4;" horiz-adv-x="476" 
d="M335 636l-97 -97l-13 8l77 106z" />
    <glyph glyph-name="mu" unicode="&#xb5;" horiz-adv-x="510" 
d="M100 67v-300h-27v676h27v-232q0 -58 9 -91.5t30 -56.5q41 -46 109 -46q83 0 127 55q20 24 28 58t8 92v221h26v-443h-26v83q-52 -92 -165 -92q-100 0 -146 76z" />
    <glyph glyph-name="paragraph" unicode="&#xb6;" horiz-adv-x="642" 
d="M316 237h-34q-93 0 -153 70q-52 61 -52 145q0 98 67 160q57 55 138 55h300v-24h-66v-876h-25v876h-150v-876h-25v470z" />
    <glyph glyph-name="glyph195" unicode="&#xb7;" horiz-adv-x="198" 
d="M74 311q0 10 7.5 17.5t17.5 7.5t17.5 -7.5t7.5 -17.5q0 -11 -7.5 -18.5t-17.5 -7.5t-17.5 8t-7.5 18z" />
    <glyph glyph-name="cedilla" unicode="&#xb8;" horiz-adv-x="476" 
d="M290 -83l-75 -96l-16 8l64 100z" />
    <glyph glyph-name="onesuperior" unicode="&#xb9;" horiz-adv-x="387" 
d="M223 406h-29v365l-71 -40l-14 24l83 47h31v-396z" />
    <glyph glyph-name="ordmasculine" unicode="&#xba;" horiz-adv-x="361" 
d="M180 675q62 0 103 -44q34 -38 34 -92q0 -62 -44 -102q-39 -35 -93 -35q-62 0 -102 45q-35 38 -35 92q0 62 45 102q38 34 92 34zM180 653q-53 0 -85 -36q-28 -31 -28 -78q0 -54 36 -86q31 -29 77 -29q53 0 85 37q28 31 28 78q0 54 -36 86q-31 28 -77 28z" />
    <glyph glyph-name="guillemotright" unicode="&#xbb;" horiz-adv-x="399" 
d="M326 222l-117 147l16 13l128 -160l-127 -157l-16 13zM177 222l-116 147l16 13l127 -160l-127 -157l-16 13z" />
    <glyph glyph-name="onequarter" unicode="&#xbc;" horiz-adv-x="833" 
d="M551 668l18 -10l-381 -659l-17 10zM644 384l-164 -267h155v108h29v-108h52v-27h-52v-90h-29v90h-189v26l174 283zM184 271h-29v365l-71 -40l-14 24l83 47h31v-396z" />
    <glyph glyph-name="onehalf" unicode="&#xbd;" horiz-adv-x="833" 
d="M551 668l18 -10l-381 -659l-18 10zM498 0v29l152 161q54 57 54 101q0 38 -29 62q-25 21 -61 21q-57 0 -81 -48q-4 -8 -9 -24l-27 7q7 24 14 35q34 57 106 57q53 0 86 -35q29 -31 29 -75q0 -54 -64 -122l-135 -142h210v-27h-245zM184 271h-29v365l-71 -40l-14 24l83 47h31
v-396z" />
    <glyph glyph-name="threequarters" unicode="&#xbe;" horiz-adv-x="833" 
d="M613 668l18 -10l-381 -659l-18 10zM684 384l-164 -267h155v108h29v-108h52v-27h-52v-90h-29v90h-189v26l174 283zM169 492h25q31 0 51.5 22t20.5 55q0 34 -23.5 55t-60.5 21q-25 0 -42.5 -8.5t-35.5 -30.5l-24 14q3 4 5 5q37 47 97 47q54 0 85 -32q28 -28 28 -70
q0 -58 -48 -89q57 -33 57 -99q0 -55 -38 -87q-32 -28 -83 -28q-93 0 -121 84l27 8q8 -18 12 -25q25 -40 82 -40q45 0 70 27q23 23 23 59q0 41 -26 65q-23 21 -57 21h-24v26z" />
    <glyph glyph-name="questiondown" unicode="&#xbf;" horiz-adv-x="406" 
d="M246 321v-51q0 -45 -8.5 -64.5t-43.5 -48.5l-46 -41q-77 -67 -77 -145q0 -66 46 -105q40 -33 100 -33q47 0 80 16.5t62 54.5l20 -17q-57 -80 -157 -80q-89 0 -137 50q-42 43 -42 115q0 86 76 152l57 50q27 24 35 43.5t8 61.5v42h27zM258 464q0 -10 -7.5 -17.5t-17.5 -7.5
t-17.5 7.5t-7.5 17.5q0 11 7.5 18.5t17.5 7.5t17.5 -8t7.5 -18z" />
    <glyph glyph-name="Agrave" unicode="&#xc0;" horiz-adv-x="604" 
d="M208 836l32 17l77 -106l-13 -8zM127 202l-81 -202h-29l270 667h30l270 -667h-29l-81 202h-350zM138 228h328l-164 410z" />
    <glyph glyph-name="Aacute" unicode="&#xc1;" horiz-adv-x="604" 
d="M394 836l-96 -97l-14 8l78 106zM127 202l-81 -202h-29l270 667h30l270 -667h-29l-81 202h-350zM138 228h328l-164 410z" />
    <glyph glyph-name="Acircumflex" unicode="&#xc2;" horiz-adv-x="604" 
d="M302 828l-95 -90l-17 9l92 100h40l92 -100l-16 -9zM127 202l-81 -202h-29l270 667h30l270 -667h-29l-81 202h-350zM138 228h328l-164 410z" />
    <glyph glyph-name="Atilde" unicode="&#xc3;" horiz-adv-x="604" 
d="M397 817l20 -5q-12 -50 -57 -50q-21 0 -60 17q-37 17 -51 17q-30 0 -41 -32l-20 5q14 51 57 51q19 0 62 -20q32 -14 50 -14q30 0 40 31zM127 202l-81 -202h-29l270 667h30l270 -667h-29l-81 202h-350zM138 228h328l-164 410z" />
    <glyph glyph-name="Adieresis" unicode="&#xc4;" horiz-adv-x="604" 
d="M127 202l-81 -202h-29l270 667h30l270 -667h-29l-81 202h-350zM138 228h328l-164 410zM369 791q0 10 7.5 17.5t17.5 7.5t17.5 -7.5t7.5 -17.5q0 -11 -7.5 -18.5t-17.5 -7.5t-17.5 8t-7.5 18zM185 791q0 10 7.5 17.5t17.5 7.5t17.5 -7.5t7.5 -17.5q0 -11 -7.5 -18.5
t-17.5 -7.5t-17.5 8t-7.5 18z" />
    <glyph glyph-name="Aring" unicode="&#xc5;" horiz-adv-x="604" 
d="M127 202l-81 -202h-29l270 667h30l270 -667h-29l-81 202h-350zM138 228h328l-164 410zM232 791q0 28 20.5 48t49.5 20t50 -20t21 -48q0 -29 -20.5 -49t-50.5 -20q-29 0 -49.5 20.5t-20.5 48.5zM251 791q0 -22 15 -37t36 -15q22 0 37 15t15 37q0 21 -15 36t-37 15
q-21 0 -36 -15t-15 -36z" />
    <glyph glyph-name="AE" unicode="&#xc6;" horiz-adv-x="842" 
d="M466 202h-317l-102 -202h-30l339 667h424v-26h-286v-290h254v-26h-254v-298h296v-27h-324v202zM466 228v413h-96l-208 -413h304z" />
    <glyph glyph-name="Ccedilla" unicode="&#xc7;" horiz-adv-x="653" 
d="M377 -83l-75 -96l-16 8l63 100zM586 566q-84 83 -199 83q-85 0 -156 -43q-69 -41 -109 -112q-41 -74 -41 -161t41 -160q40 -71 110 -113q71 -42 156 -42q112 0 202 85l19 -19q-95 -93 -220 -93q-92 0 -171 47q-76 44 -120 122q-46 79 -46 173t46 173q44 78 120 123
q78 46 170 46q122 0 217 -90z" />
    <glyph glyph-name="Egrave" unicode="&#xc8;" horiz-adv-x="466" 
d="M166 836l32 17l78 -106l-14 -8zM404 641h-286v-290h254v-26h-254v-298h296v-27h-324v667h314v-26z" />
    <glyph glyph-name="Eacute" unicode="&#xc9;" horiz-adv-x="466" 
d="M339 836l-97 -97l-13 8l77 106zM404 641h-286v-290h254v-26h-254v-298h296v-27h-324v667h314v-26z" />
    <glyph glyph-name="Ecircumflex" unicode="&#xca;" horiz-adv-x="466" 
d="M252 828l-95 -90l-17 9l92 100h40l92 -100l-16 -9zM404 641h-286v-290h254v-26h-254v-298h296v-27h-324v667h314v-26z" />
    <glyph glyph-name="Edieresis" unicode="&#xcb;" horiz-adv-x="466" 
d="M404 641h-286v-290h254v-26h-254v-298h296v-27h-324v667h314v-26zM319 791q0 10 7.5 17.5t17.5 7.5t17.5 -7.5t7.5 -17.5q0 -11 -7.5 -18.5t-17.5 -7.5t-17.5 8t-7.5 18zM135 791q0 10 7.5 17.5t17.5 7.5t17.5 -7.5t7.5 -17.5q0 -11 -7.5 -18.5t-17.5 -7.5t-17.5 8
t-7.5 18z" />
    <glyph glyph-name="Igrave" unicode="&#xcc;" horiz-adv-x="208" 
d="M8 836l32 17l78 -106l-14 -8zM118 667v-667h-28v667h28z" />
    <glyph glyph-name="Iacute" unicode="&#xcd;" horiz-adv-x="208" 
d="M200 836l-97 -97l-13 8l78 106zM118 667v-667h-28v667h28z" />
    <glyph glyph-name="Icircumflex" unicode="&#xce;" horiz-adv-x="208" 
d="M104 828l-96 -90l-16 9l92 100h40l92 -100l-17 -9zM118 667v-667h-28v667h28z" />
    <glyph glyph-name="Idieresis" unicode="&#xcf;" horiz-adv-x="208" 
d="M118 667v-667h-28v667h28zM146 791q0 10 7.5 17.5t17.5 7.5t17.5 -7.5t7.5 -17.5q0 -11 -7.5 -18.5t-17.5 -7.5t-17.5 8t-7.5 18zM12 791q0 10 7.5 17.5t17.5 7.5t17.5 -7.5t7.5 -17.5q0 -11 -7.5 -18.5t-17.5 -7.5t-17.5 8t-7.5 18z" />
    <glyph glyph-name="Eth" unicode="&#xd0;" horiz-adv-x="620" 
d="M91 349h-53v25h53v293h120q177 0 273 -101q84 -88 84 -232q0 -166 -108 -256q-94 -78 -249 -78h-120v349zM119 374h170v-25h-170v-322h95q159 0 248 94q77 83 77 213q0 149 -100 233q-87 73 -225 73h-95v-266z" />
    <glyph glyph-name="Ntilde" unicode="&#xd1;" horiz-adv-x="713" 
d="M460 817l20 -5q-12 -50 -58 -50q-21 0 -59 17q-37 17 -51 17q-30 0 -41 -32l-20 5q14 51 57 51q19 0 62 -20q32 -14 50 -14q30 0 40 31zM118 636v-636h-28v667h38l467 -637v637h28v-667h-38z" />
    <glyph glyph-name="Ograve" unicode="&#xd2;" horiz-adv-x="767" 
d="M291 836l32 17l77 -106l-13 -8zM52 333q0 92 46 172q44 78 119 123q77 47 167 47q89 0 166 -47q75 -46 119 -123q46 -80 46 -172t-46 -172q-44 -77 -119 -123q-77 -47 -166 -47t-167 47q-75 46 -119 124q-46 79 -46 171zM81 333q0 -85 41 -159q40 -71 109 -113
q71 -43 153 -43t152 43q69 42 109 113q41 74 41 159q0 86 -41 160q-40 71 -108 113q-71 43 -153 43q-83 0 -153 -43q-69 -42 -109 -113q-41 -74 -41 -160z" />
    <glyph glyph-name="Oacute" unicode="&#xd3;" horiz-adv-x="767" 
d="M477 836l-96 -97l-14 8l78 106zM52 333q0 92 46 172q44 78 119 123q77 47 167 47q89 0 166 -47q75 -46 119 -123q46 -80 46 -172t-46 -172q-44 -77 -119 -123q-77 -47 -166 -47t-167 47q-75 46 -119 124q-46 79 -46 171zM81 333q0 -85 41 -159q40 -71 109 -113
q71 -43 153 -43t152 43q69 42 109 113q41 74 41 159q0 86 -41 160q-40 71 -108 113q-71 43 -153 43q-83 0 -153 -43q-69 -42 -109 -113q-41 -74 -41 -160z" />
    <glyph glyph-name="Ocircumflex" unicode="&#xd4;" horiz-adv-x="767" 
d="M384 828l-96 -90l-16 9l92 100h40l92 -100l-17 -9zM52 333q0 92 46 172q44 78 119 123q77 47 167 47q89 0 166 -47q75 -46 119 -123q46 -80 46 -172t-46 -172q-44 -77 -119 -123q-77 -47 -166 -47t-167 47q-75 46 -119 124q-46 79 -46 171zM81 333q0 -85 41 -159
q40 -71 109 -113q71 -43 153 -43t152 43q69 42 109 113q41 74 41 159q0 86 -41 160q-40 71 -108 113q-71 43 -153 43q-83 0 -153 -43q-69 -42 -109 -113q-41 -74 -41 -160z" />
    <glyph glyph-name="Otilde" unicode="&#xd5;" horiz-adv-x="767" 
d="M479 817l20 -5q-12 -50 -58 -50q-21 0 -59 17q-37 17 -51 17q-30 0 -42 -32l-19 5q14 51 57 51q19 0 62 -20q32 -14 50 -14q30 0 40 31zM52 333q0 92 46 172q44 78 119 123q77 47 167 47q89 0 166 -47q75 -46 119 -123q46 -80 46 -172t-46 -172q-44 -77 -119 -123
q-77 -47 -166 -47t-167 47q-75 46 -119 124q-46 79 -46 171zM81 333q0 -85 41 -159q40 -71 109 -113q71 -43 153 -43t152 43q69 42 109 113q41 74 41 159q0 86 -41 160q-40 71 -108 113q-71 43 -153 43q-83 0 -153 -43q-69 -42 -109 -113q-41 -74 -41 -160z" />
    <glyph glyph-name="Odieresis" unicode="&#xd6;" horiz-adv-x="767" 
d="M52 333q0 92 46 172q44 78 119 123q77 47 167 47q89 0 166 -47q75 -46 119 -123q46 -80 46 -172t-46 -172q-44 -77 -119 -123q-77 -47 -166 -47t-167 47q-75 46 -119 124q-46 79 -46 171zM81 333q0 -85 41 -159q40 -71 109 -113q71 -43 153 -43t152 43q69 42 109 113
q41 74 41 159q0 86 -41 160q-40 71 -108 113q-71 43 -153 43q-83 0 -153 -43q-69 -42 -109 -113q-41 -74 -41 -160zM451 791q0 10 7.5 17.5t17.5 7.5t17.5 -7.5t7.5 -17.5q0 -11 -7.5 -18.5t-17.5 -7.5t-17.5 8t-7.5 18zM267 791q0 10 7.5 17.5t17.5 7.5t17.5 -7.5
t7.5 -17.5q0 -11 -7.5 -18.5t-17.5 -7.5t-17.5 8t-7.5 18z" />
    <glyph glyph-name="multiply" unicode="&#xd7;" horiz-adv-x="556" 
d="M261 312l-141 141l17 17l141 -141l141 141l18 -17l-141 -141l141 -141l-18 -17l-141 141l-141 -141l-17 17z" />
    <glyph glyph-name="Oslash" unicode="&#xd8;" horiz-adv-x="774" 
d="M613 582l83 85l15 -14l-83 -86q91 -102 91 -234q0 -92 -46 -172q-44 -77 -119 -123q-77 -47 -166 -47q-128 0 -226 93l-83 -85l-15 15l83 85q-91 102 -91 234q0 92 46 172q44 77 119 123q77 47 166 47q128 0 226 -93zM595 563q-87 86 -208 86q-82 0 -153 -43
q-68 -42 -108 -113q-42 -74 -42 -160q0 -123 82 -214zM610 548l-430 -444q91 -86 208 -86q82 0 152 43q69 42 109 113q42 74 42 158q0 126 -81 216z" />
    <glyph glyph-name="Ugrave" unicode="&#xd9;" horiz-adv-x="634" 
d="M231 836l32 17l77 -106l-13 -8zM118 667v-416q0 -58 6 -89t22 -57q24 -39 71.5 -63t99.5 -24q56 0 106 27q43 24 65 60q16 26 22 57t6 89v416h28v-437q0 -53 -9.5 -87.5t-31.5 -63.5q-31 -41 -81 -64.5t-105 -23.5t-105 23.5t-81 64.5q-22 29 -31.5 63.5t-9.5 87.5v437
h28z" />
    <glyph glyph-name="Uacute" unicode="&#xda;" horiz-adv-x="634" 
d="M403 836l-96 -97l-13 8l77 106zM118 667v-416q0 -58 6 -89t22 -57q24 -39 71.5 -63t99.5 -24q56 0 106 27q43 24 65 60q16 26 22 57t6 89v416h28v-437q0 -53 -9.5 -87.5t-31.5 -63.5q-31 -41 -81 -64.5t-105 -23.5t-105 23.5t-81 64.5q-22 29 -31.5 63.5t-9.5 87.5v437
h28z" />
    <glyph glyph-name="Ucircumflex" unicode="&#xdb;" horiz-adv-x="634" 
d="M317 828l-95 -90l-17 9l92 100h40l92 -100l-17 -9zM118 667v-416q0 -58 6 -89t22 -57q24 -39 71.5 -63t99.5 -24q56 0 106 27q43 24 65 60q16 26 22 57t6 89v416h28v-437q0 -53 -9.5 -87.5t-31.5 -63.5q-31 -41 -81 -64.5t-105 -23.5t-105 23.5t-81 64.5
q-22 29 -31.5 63.5t-9.5 87.5v437h28z" />
    <glyph glyph-name="Udieresis" unicode="&#xdc;" horiz-adv-x="634" 
d="M118 667v-416q0 -58 6 -89t22 -57q24 -39 71.5 -63t99.5 -24q56 0 106 27q43 24 65 60q16 26 22 57t6 89v416h28v-437q0 -53 -9.5 -87.5t-31.5 -63.5q-31 -41 -81 -64.5t-105 -23.5t-105 23.5t-81 64.5q-22 29 -31.5 63.5t-9.5 87.5v437h28zM384 791q0 10 7.5 17.5
t17.5 7.5t17.5 -7.5t7.5 -17.5q0 -11 -7.5 -18.5t-17.5 -7.5t-17.5 8t-7.5 18zM200 791q0 10 7.5 17.5t17.5 7.5t17.5 -7.5t7.5 -17.5q0 -11 -7.5 -18.5t-17.5 -7.5t-17.5 8t-7.5 18z" />
    <glyph glyph-name="Yacute" unicode="&#xdd;" horiz-adv-x="472" 
d="M322 836l-96 -97l-14 8l78 106zM222 281l-212 386h31l195 -360l195 360h31l-212 -386v-281h-28v281z" />
    <glyph glyph-name="Thorn" unicode="&#xde;" horiz-adv-x="459" 
d="M118 557h92q60 0 97.5 -11t64.5 -36q57 -53 57 -141q0 -89 -58 -143q-26 -26 -63.5 -37t-97.5 -11h-92v-178h-28v667h28v-110zM118 531v-326h101q90 0 135 43q46 45 46 121t-46 120q-45 42 -135 42h-101z" />
    <glyph glyph-name="germandbls" unicode="&#xdf;" horiz-adv-x="509" 
d="M73 0v507q0 79 51 127q44 41 109 41q80 0 127 -52q40 -45 40 -115q0 -56 -25 -98q-22 -36 -57 -51q70 -19 105 -70q31 -44 31 -106q0 -89 -63 -139q-54 -44 -139 -44h-36v25h39q83 0 130 49q40 42 40 109q0 75 -46 118q-41 37 -107 41v24q27 5 43.5 14.5t30.5 29.5
q27 38 27 94q0 71 -42 112q-37 35 -93 35q-66 0 -105 -45q-33 -40 -33 -99v-507h-27z" />
    <glyph glyph-name="agrave" unicode="&#xe0;" horiz-adv-x="554" 
d="M170 636l32 17l78 -106l-14 -8zM481 0h-27v102q-22 -34 -38.5 -51t-41.5 -31q-49 -29 -108 -29q-100 0 -165 75q-56 65 -56 156q0 104 72 172q62 58 149 58q59 0 108 -29q25 -14 41.5 -31t38.5 -50v101h27v-443zM266 426q-90 0 -145 -65q-47 -56 -47 -139q0 -96 61 -154
q53 -51 131 -51q89 0 143 65q47 57 47 140q0 96 -60 154q-53 50 -130 50z" />
    <glyph glyph-name="aacute" unicode="&#xe1;" horiz-adv-x="554" 
d="M363 636l-97 -97l-13 8l77 106zM481 0h-27v102q-22 -34 -38.5 -51t-41.5 -31q-49 -29 -108 -29q-100 0 -165 75q-56 65 -56 156q0 104 72 172q62 58 149 58q59 0 108 -29q25 -14 41.5 -31t38.5 -50v101h27v-443zM266 426q-90 0 -145 -65q-47 -56 -47 -139q0 -96 61 -154
q53 -51 131 -51q89 0 143 65q47 57 47 140q0 96 -60 154q-53 50 -130 50z" />
    <glyph glyph-name="acircumflex" unicode="&#xe2;" horiz-adv-x="554" 
d="M263 628l-95 -90l-17 9l93 100h39l92 -100l-16 -9zM481 0h-27v102q-22 -34 -38.5 -51t-41.5 -31q-49 -29 -108 -29q-100 0 -165 75q-56 65 -56 156q0 104 72 172q62 58 149 58q59 0 108 -29q25 -14 41.5 -31t38.5 -50v101h27v-443zM266 426q-90 0 -145 -65
q-47 -56 -47 -139q0 -96 61 -154q53 -51 131 -51q89 0 143 65q47 57 47 140q0 96 -60 154q-53 50 -130 50z" />
    <glyph glyph-name="atilde" unicode="&#xe3;" horiz-adv-x="554" 
d="M358 617l20 -5q-12 -50 -57 -50q-21 0 -60 17q-37 17 -51 17q-30 0 -41 -32l-20 5q14 51 57 51q19 0 62 -20q32 -14 50 -14q31 0 40 31zM481 0h-27v102q-22 -34 -38.5 -51t-41.5 -31q-49 -29 -108 -29q-100 0 -165 75q-56 65 -56 156q0 104 72 172q62 58 149 58
q59 0 108 -29q25 -14 41.5 -31t38.5 -50v101h27v-443zM266 426q-90 0 -145 -65q-47 -56 -47 -139q0 -96 61 -154q53 -51 131 -51q89 0 143 65q47 57 47 140q0 96 -60 154q-53 50 -130 50z" />
    <glyph glyph-name="adieresis" unicode="&#xe4;" horiz-adv-x="554" 
d="M481 0h-27v102q-22 -34 -38.5 -51t-41.5 -31q-49 -29 -108 -29q-100 0 -165 75q-56 65 -56 156q0 104 72 172q62 58 149 58q59 0 108 -29q25 -14 41.5 -31t38.5 -50v101h27v-443zM266 426q-90 0 -145 -65q-47 -56 -47 -139q0 -96 61 -154q53 -51 131 -51q89 0 143 65
q47 57 47 140q0 96 -60 154q-53 50 -130 50zM155 588q0 10 7 17.5t17 7.5q11 0 18.5 -7.5t7.5 -17.5q0 -11 -7.5 -18.5t-17.5 -7.5t-17.5 8t-7.5 18zM339 588q0 10 7 17.5t17 7.5q11 0 18.5 -7.5t7.5 -17.5q0 -11 -7.5 -18.5t-17.5 -7.5t-17.5 8t-7.5 18z" />
    <glyph glyph-name="aring" unicode="&#xe5;" horiz-adv-x="554" 
d="M205 591q0 28 20.5 48t49.5 20t49.5 -20t20.5 -48q0 -29 -20.5 -49t-49.5 -20t-49.5 20.5t-20.5 48.5zM223 591q0 -22 15.5 -37t36.5 -15t36.5 15t15.5 37q0 21 -15 36t-37 15q-21 0 -36.5 -15t-15.5 -36zM481 0h-27v102q-22 -34 -38.5 -51t-41.5 -31q-49 -29 -108 -29
q-100 0 -165 75q-56 65 -56 156q0 104 72 172q62 58 149 58q59 0 108 -29q25 -14 41.5 -31t38.5 -50v101h27v-443zM266 426q-90 0 -145 -65q-47 -56 -47 -139q0 -96 61 -154q53 -51 131 -51q89 0 143 65q47 57 47 140q0 96 -60 154q-53 50 -130 50z" />
    <glyph glyph-name="ae" unicode="&#xe6;" horiz-adv-x="853" 
d="M421 112q-28 -121 -189 -121q-87 0 -140 40q-47 34 -47 103t52 105q46 32 122 32h178q-3 46 -14 73t-35 47q-42 35 -119 35q-42 0 -73.5 -10t-69.5 -35l-12 18q76 53 163 53q73 0 123 -36q23 -16 35.5 -36t21.5 -56q31 65 84 99q46 29 103 29q66 0 118 -40q45 -34 67 -90
q18 -46 19 -112h-383q4 -50 18 -83.5t43 -61.5q50 -48 123 -48q48 0 91 22q34 17 66 59l25 -11q-39 -50 -78 -71q-48 -25 -102 -25q-67 0 -119 36q-45 31 -71 85zM397 248h-164q-82 0 -124 -34q-37 -29 -37 -79q0 -60 48 -91q41 -27 113 -27q84 0 127 35q37 31 37 84v112z
M425 234h356q-5 48 -18 81q-21 55 -67 85q-41 26 -91 26q-81 0 -132 -61q-23 -27 -33.5 -56.5t-14.5 -74.5z" />
    <glyph glyph-name="ccedilla" unicode="&#xe7;" horiz-adv-x="452" 
d="M267 -83l-76 -96l-16 8l64 100zM398 373q-56 53 -130 53q-92 0 -147 -65q-47 -55 -47 -139q0 -97 61 -154q54 -51 134 -51t133 56l18 -19q-63 -63 -151 -63q-103 0 -168 75q-56 65 -56 156q0 106 72 172q63 58 152 58q81 0 147 -59z" />
    <glyph glyph-name="egrave" unicode="&#xe8;" horiz-adv-x="501" 
d="M163 636l32 17l78 -106l-14 -8zM73 210q6 -93 62 -146q49 -47 122 -47q98 0 157 81l25 -11q-71 -96 -181 -96q-98 0 -159 75q-54 65 -54 157q0 103 68 170q59 59 139 59q66 0 118 -40q45 -34 67 -90q18 -46 19 -112h-383zM73 234h356q-5 48 -18 81q-21 55 -67 85
q-41 26 -91 26q-81 0 -131 -60q-44 -52 -49 -132z" />
    <glyph glyph-name="eacute" unicode="&#xe9;" horiz-adv-x="501" 
d="M339 636l-96 -97l-13 8l77 106zM73 210q6 -93 62 -146q49 -47 122 -47q98 0 157 81l25 -11q-71 -96 -181 -96q-98 0 -159 75q-54 65 -54 157q0 103 68 170q59 59 139 59q66 0 118 -40q45 -34 67 -90q18 -46 19 -112h-383zM73 234h356q-5 48 -18 81q-21 55 -67 85
q-41 26 -91 26q-81 0 -131 -60q-44 -52 -49 -132z" />
    <glyph glyph-name="ecircumflex" unicode="&#xea;" horiz-adv-x="501" 
d="M251 628l-96 -90l-16 9l92 100h40l92 -100l-17 -9zM73 210q6 -93 62 -146q49 -47 122 -47q98 0 157 81l25 -11q-71 -96 -181 -96q-98 0 -159 75q-54 65 -54 157q0 103 68 170q59 59 139 59q66 0 118 -40q45 -34 67 -90q18 -46 19 -112h-383zM73 234h356q-5 48 -18 81
q-21 55 -67 85q-41 26 -91 26q-81 0 -131 -60q-44 -52 -49 -132z" />
    <glyph glyph-name="edieresis" unicode="&#xeb;" horiz-adv-x="501" 
d="M73 210q6 -93 62 -146q49 -47 122 -47q98 0 157 81l25 -11q-71 -96 -181 -96q-98 0 -159 75q-54 65 -54 157q0 103 68 170q59 59 139 59q66 0 118 -40q45 -34 67 -90q18 -46 19 -112h-383zM73 234h356q-5 48 -18 81q-21 55 -67 85q-41 26 -91 26q-81 0 -131 -60
q-44 -52 -49 -132zM134 588q0 10 7.5 17.5t17.5 7.5t17.5 -7.5t7.5 -17.5q0 -11 -7.5 -18.5t-17.5 -7.5t-17.5 8t-7.5 18zM318 588q0 10 7.5 17.5t17.5 7.5t17.5 -7.5t7.5 -17.5q0 -11 -7.5 -18.5t-17.5 -7.5t-17.5 8t-7.5 18z" />
    <glyph glyph-name="igrave" unicode="&#xec;" horiz-adv-x="173" 
d="M-13 636l32 17l78 -106l-14 -8zM99 443v-443h-26v443h26z" />
    <glyph glyph-name="iacute" unicode="&#xed;" horiz-adv-x="173" 
d="M185 636l-96 -97l-13 8l77 106zM100 443v-443h-27v443h27z" />
    <glyph glyph-name="icircumflex" unicode="&#xee;" horiz-adv-x="173" 
d="M87 628l-96 -90l-16 9l92 100h40l92 -100l-17 -9zM100 443v-443h-27v443h27z" />
    <glyph glyph-name="idieresis" unicode="&#xef;" horiz-adv-x="173" 
d="M99 443v-443h-26v443h26zM-6 588q0 10 7.5 17.5t17.5 7.5t17.5 -7.5t7.5 -17.5q0 -11 -7.5 -18.5t-17.5 -7.5t-17.5 8t-7.5 18zM128 588q0 10 7.5 17.5t17.5 7.5t17.5 -7.5t7.5 -17.5q0 -11 -7.5 -18.5t-17.5 -7.5t-17.5 8t-7.5 18z" />
    <glyph glyph-name="eth" unicode="&#xf0;" horiz-adv-x="534" 
d="M296 607q99 -57 149 -159q45 -89 45 -197q0 -124 -70 -197q-60 -63 -153 -63q-101 0 -166 75q-56 65 -56 156q0 105 72 172q63 58 150 58q105 0 177 -88q-23 85 -64 139.5t-108 90.5l-82 -43l-18 16l76 39q-50 23 -122 36l3 22q58 -11 82 -18.5t63 -26.5l74 38l16 -15z
M460 222q0 96 -62 154q-53 50 -131 50q-91 0 -146 -65q-47 -56 -47 -139q0 -96 61 -154q53 -51 132 -51q90 0 145 66q48 56 48 139z" />
    <glyph glyph-name="ntilde" unicode="&#xf1;" horiz-adv-x="510" 
d="M355 617l20 -5q-12 -50 -58 -50q-21 0 -59 17q-37 17 -51 17q-30 0 -41 -32l-20 5q14 51 57 51q19 0 62 -20q32 -14 50 -14q30 0 40 31zM100 360q51 92 164 92q82 0 130 -53q43 -48 43 -157v-242h-26v233q0 57 -9 91t-31 57q-41 45 -109 45q-82 0 -127 -55
q-19 -24 -27 -57.5t-8 -91.5v-222h-27v443h27v-83z" />
    <glyph glyph-name="ograve" unicode="&#xf2;" horiz-adv-x="533" 
d="M174 636l32 17l77 -106l-13 -8zM267 452q100 0 165 -75q56 -64 56 -155q0 -105 -72 -172q-62 -59 -149 -59q-101 0 -166 75q-56 65 -56 156q0 104 72 172q63 58 150 58zM267 426q-91 0 -146 -65q-47 -56 -47 -139q0 -96 61 -154q53 -51 132 -51q90 0 145 66q48 56 48 139
q0 95 -62 154q-53 50 -131 50z" />
    <glyph glyph-name="oacute" unicode="&#xf3;" horiz-adv-x="533" 
d="M360 636l-97 -97l-13 8l78 106zM267 452q100 0 165 -75q56 -64 56 -155q0 -105 -72 -172q-62 -59 -149 -59q-101 0 -166 75q-56 65 -56 156q0 104 72 172q63 58 150 58zM267 426q-91 0 -146 -65q-47 -56 -47 -139q0 -96 61 -154q53 -51 132 -51q90 0 145 66q48 56 48 139
q0 95 -62 154q-53 50 -131 50z" />
    <glyph glyph-name="ocircumflex" unicode="&#xf4;" horiz-adv-x="533" 
d="M267 628l-96 -90l-16 9l92 100h40l91 -100l-16 -9zM267 452q100 0 165 -75q56 -64 56 -155q0 -105 -72 -172q-62 -59 -149 -59q-101 0 -166 75q-56 65 -56 156q0 104 72 172q63 58 150 58zM267 426q-91 0 -146 -65q-47 -56 -47 -139q0 -96 61 -154q53 -51 132 -51
q90 0 145 66q48 56 48 139q0 95 -62 154q-53 50 -131 50z" />
    <glyph glyph-name="otilde" unicode="&#xf5;" horiz-adv-x="533" 
d="M362 617l19 -5q-11 -50 -57 -50q-21 0 -59 17q-37 17 -52 17q-29 0 -41 -32l-20 5q14 51 58 51q19 0 61 -20q32 -14 51 -14q30 0 40 31zM267 452q100 0 165 -75q56 -64 56 -155q0 -105 -72 -172q-62 -59 -149 -59q-101 0 -166 75q-56 65 -56 156q0 104 72 172
q63 58 150 58zM267 426q-91 0 -146 -65q-47 -56 -47 -139q0 -96 61 -154q53 -51 132 -51q90 0 145 66q48 56 48 139q0 95 -62 154q-53 50 -131 50z" />
    <glyph glyph-name="odieresis" unicode="&#xf6;" horiz-adv-x="533" 
d="M267 452q100 0 165 -75q56 -64 56 -155q0 -105 -72 -172q-62 -59 -149 -59q-101 0 -166 75q-56 65 -56 156q0 104 72 172q63 58 150 58zM267 426q-91 0 -146 -65q-47 -56 -47 -139q0 -96 61 -154q53 -51 132 -51q90 0 145 66q48 56 48 139q0 95 -62 154q-53 50 -131 50z
M334 588q0 10 7.5 17.5t17.5 7.5t17.5 -7.5t7.5 -17.5q0 -11 -7.5 -18.5t-17.5 -7.5t-17.5 8t-7.5 18zM150 588q0 10 7.5 17.5t17.5 7.5t17.5 -7.5t7.5 -17.5q0 -11 -7.5 -18.5t-17.5 -7.5t-17.5 8t-7.5 18z" />
    <glyph glyph-name="divide" unicode="&#xf7;" horiz-adv-x="556" 
d="M473 324v-24h-390v24h390zM249 140q0 12 8.5 21t20.5 9t20.5 -8.5t8.5 -21.5q0 -12 -8.5 -20.5t-20.5 -8.5t-20.5 8.5t-8.5 20.5zM249 484q0 12 8.5 20.5t20.5 8.5t20.5 -8.5t8.5 -20.5t-8.5 -21t-20.5 -9t-20.5 9t-8.5 21z" />
    <glyph glyph-name="oslash" unicode="&#xf8;" horiz-adv-x="546" 
d="M440 375q54 -64 54 -154q0 -104 -72 -171q-62 -59 -149 -59q-90 0 -154 63l-54 -55l-14 14l55 55q-55 65 -55 154q0 104 72 172q63 58 149 58q91 0 154 -62l55 54l13 -14zM421 357l-284 -285q56 -55 136 -55q90 0 145 65q48 57 48 139q0 84 -45 136zM124 86l284 286
q-55 54 -136 54q-90 0 -145 -65q-47 -56 -47 -138q0 -81 44 -137z" />
    <glyph glyph-name="ugrave" unicode="&#xf9;" horiz-adv-x="510" 
d="M164 636l32 17l77 -106l-13 -8zM411 83q-52 -92 -165 -92q-81 0 -130 53q-43 48 -43 158v241h27v-232q0 -58 9 -91.5t30 -56.5q41 -46 109 -46q83 0 127 55q20 24 28 58t8 92v221h26v-443h-26v83z" />
    <glyph glyph-name="uacute" unicode="&#xfa;" horiz-adv-x="510" 
d="M343 636l-96 -97l-13 8l77 106zM411 83q-52 -92 -165 -92q-81 0 -130 53q-43 48 -43 158v241h27v-232q0 -58 9 -91.5t30 -56.5q41 -46 109 -46q83 0 127 55q20 24 28 58t8 92v221h26v-443h-26v83z" />
    <glyph glyph-name="ucircumflex" unicode="&#xfb;" horiz-adv-x="510" 
d="M255 628l-95 -90l-17 9l92 100h40l92 -100l-16 -9zM411 83q-52 -92 -165 -92q-81 0 -130 53q-43 48 -43 158v241h27v-232q0 -58 9 -91.5t30 -56.5q41 -46 109 -46q83 0 127 55q20 24 28 58t8 92v221h26v-443h-26v83z" />
    <glyph glyph-name="udieresis" unicode="&#xfc;" horiz-adv-x="510" 
d="M411 83q-52 -92 -165 -92q-81 0 -130 53q-43 48 -43 158v241h27v-232q0 -58 9 -91.5t30 -56.5q41 -46 109 -46q83 0 127 55q20 24 28 58t8 92v221h26v-443h-26v83zM138 588q0 10 7.5 17.5t17.5 7.5t17.5 -7.5t7.5 -17.5q0 -11 -7.5 -18.5t-17.5 -7.5t-17.5 8t-7.5 18z
M322 588q0 10 7.5 17.5t17.5 7.5t17.5 -7.5t7.5 -17.5q0 -11 -7.5 -18.5t-17.5 -7.5t-17.5 8t-7.5 18z" />
    <glyph glyph-name="yacute" unicode="&#xfd;" horiz-adv-x="421" 
d="M302 636l-97 -97l-13 8l77 106zM194 7l-183 436h30l167 -404l173 404h30l-292 -676h-27z" />
    <glyph glyph-name="thorn" unicode="&#xfe;" horiz-adv-x="555" 
d="M74 -233v900h27v-325q68 110 188 110q100 0 165 -75q56 -65 56 -155q0 -105 -72 -172q-63 -59 -149 -59q-120 0 -188 111v-335h-27zM289 426q-89 0 -143 -65q-47 -56 -47 -139q0 -96 60 -154q53 -51 130 -51q90 0 145 66q47 56 47 139q0 95 -61 154q-53 50 -131 50z" />
    <glyph glyph-name="ydieresis" unicode="&#xff;" horiz-adv-x="421" 
d="M194 7l-183 436h30l167 -404l173 404h30l-292 -676h-27zM94 588q0 10 7.5 17.5t17.5 7.5t17.5 -7.5t7.5 -17.5q0 -11 -7.5 -18.5t-17.5 -7.5t-17.5 8t-7.5 18zM278 588q0 10 7.5 17.5t17.5 7.5t17.5 -7.5t7.5 -17.5q0 -11 -7.5 -18.5t-17.5 -7.5t-17.5 8t-7.5 18z" />
    <glyph glyph-name="Amacron" unicode="&#x100;" horiz-adv-x="604" 
d="M185 803h234v-25h-234v25zM127 202l-81 -202h-29l270 667h30l270 -667h-29l-81 202h-350zM138 228h328l-164 410z" />
    <glyph glyph-name="amacron" unicode="&#x101;" horiz-adv-x="554" 
d="M158 603h235v-25h-235v25zM481 0h-27v102q-22 -34 -38.5 -51t-41.5 -31q-49 -29 -108 -29q-100 0 -165 75q-56 65 -56 156q0 104 72 172q62 58 149 58q59 0 108 -29q25 -14 41.5 -31t38.5 -50v101h27v-443zM266 426q-90 0 -145 -65q-47 -56 -47 -139q0 -96 61 -154
q53 -51 131 -51q89 0 143 65q47 57 47 140q0 96 -60 154q-53 50 -130 50z" />
    <glyph glyph-name="Abreve" unicode="&#x102;" horiz-adv-x="604" 
d="M191 829l23 2q6 -33 29.5 -53.5t57.5 -20.5q33 0 56.5 20t31.5 54l23 -2q-11 -48 -44 -73q-28 -22 -67 -22q-47 0 -77 29q-27 25 -33 66zM127 202l-81 -202h-29l270 667h30l270 -667h-29l-81 202h-350zM138 228h328l-164 410z" />
    <glyph glyph-name="abreve" unicode="&#x103;" horiz-adv-x="554" 
d="M153 629l24 2q5 -33 29 -53.5t57 -20.5t57 20t31 54l23 -2q-11 -48 -43 -73q-28 -22 -67 -22q-47 0 -78 29q-26 25 -33 66zM481 0h-27v102q-22 -34 -38.5 -51t-41.5 -31q-49 -29 -108 -29q-100 0 -165 75q-56 65 -56 156q0 104 72 172q62 58 149 58q59 0 108 -29
q25 -14 41.5 -31t38.5 -50v101h27v-443zM266 426q-90 0 -145 -65q-47 -56 -47 -139q0 -96 61 -154q53 -51 131 -51q89 0 143 65q47 57 47 140q0 96 -60 154q-53 50 -130 50z" />
    <glyph glyph-name="Aogonek" unicode="&#x104;" horiz-adv-x="604" 
d="M560 0h-2l-81 202h-350l-81 -202h-29l270 667h30l270 -667q-33 -39 -33 -67q0 -19 13 -30.5t35 -11.5q13 0 27 6l8 -20q-23 -7 -39 -7q-30 0 -49.5 17t-19.5 42q0 33 31 71zM138 228h328l-164 410z" />
    <glyph glyph-name="aogonek" unicode="&#x105;" horiz-adv-x="554" 
d="M454 0v102q-22 -34 -38.5 -51t-41.5 -31q-49 -29 -108 -29q-100 0 -165 75q-56 65 -56 156q0 104 72 172q62 58 149 58q59 0 108 -29q25 -14 41.5 -31t38.5 -50v101h27v-443q-33 -39 -33 -67q0 -19 13 -30.5t35 -11.5q13 0 26 6l8 -20q-23 -7 -39 -7q-29 0 -48.5 17
t-19.5 42q0 32 31 71zM266 426q-90 0 -145 -65q-47 -56 -47 -139q0 -96 61 -154q53 -51 131 -51q89 0 143 65q47 57 47 140q0 96 -60 154q-53 50 -130 50z" />
    <glyph glyph-name="Cacute" unicode="&#x106;" horiz-adv-x="653" 
d="M474 836l-96 -97l-13 8l77 106zM586 566q-84 83 -199 83q-85 0 -156 -43q-69 -41 -109 -112q-41 -74 -41 -161t41 -160q40 -71 110 -113q71 -42 156 -42q112 0 202 85l19 -19q-95 -93 -220 -93q-92 0 -171 47q-76 44 -120 122q-46 79 -46 173t46 173q44 78 120 123
q78 46 170 46q122 0 217 -90z" />
    <glyph glyph-name="cacute" unicode="&#x107;" horiz-adv-x="452" 
d="M343 636l-96 -97l-13 8l77 106zM398 373q-56 53 -130 53q-92 0 -147 -65q-47 -55 -47 -139q0 -97 61 -154q54 -51 134 -51t133 56l18 -19q-63 -63 -151 -63q-103 0 -168 75q-56 65 -56 156q0 106 72 172q63 58 152 58q81 0 147 -59z" />
    <glyph glyph-name="Ccircumflex" unicode="&#x108;" horiz-adv-x="653" 
d="M364 828l-95 -90l-16 9l92 100h39l92 -100l-16 -9zM586 566q-84 83 -199 83q-85 0 -156 -43q-69 -41 -109 -112q-41 -74 -41 -161t41 -160q40 -71 110 -113q71 -42 156 -42q112 0 202 85l19 -19q-95 -93 -220 -93q-92 0 -171 47q-76 44 -120 122q-46 79 -46 173t46 173
q44 78 120 123q78 46 170 46q122 0 217 -90z" />
    <glyph glyph-name="ccircumflex" unicode="&#x109;" horiz-adv-x="452" 
d="M252 628l-95 -90l-16 9l92 100h39l92 -100l-16 -9zM398 373q-56 53 -130 53q-92 0 -147 -65q-47 -55 -47 -139q0 -97 61 -154q54 -51 134 -51t133 56l18 -19q-63 -63 -151 -63q-103 0 -168 75q-56 65 -56 156q0 106 72 172q63 58 152 58q81 0 147 -59z" />
    <glyph glyph-name="Cdotaccent" unicode="&#x10a;" horiz-adv-x="653" 
d="M586 566q-84 83 -199 83q-85 0 -156 -43q-69 -41 -109 -112q-41 -74 -41 -161t41 -160q40 -71 110 -113q71 -42 156 -42q112 0 202 85l19 -19q-95 -93 -220 -93q-92 0 -171 47q-76 44 -120 122q-46 79 -46 173t46 173q44 78 120 123q78 46 170 46q122 0 217 -90zM348 791
q0 10 7.5 17.5t17.5 7.5t17.5 -7.5t7.5 -17.5q0 -11 -7.5 -18.5t-17.5 -7.5t-17.5 8t-7.5 18z" />
    <glyph glyph-name="cdotaccent" unicode="&#x10b;" horiz-adv-x="452" 
d="M398 373q-56 53 -130 53q-92 0 -147 -65q-47 -55 -47 -139q0 -97 61 -154q54 -51 134 -51t133 56l18 -19q-63 -63 -151 -63q-103 0 -168 75q-56 65 -56 156q0 106 72 172q63 58 152 58q81 0 147 -59zM231 588q0 10 7.5 17.5t17.5 7.5t17.5 -7.5t7.5 -17.5
q0 -11 -7.5 -18.5t-17.5 -7.5t-17.5 8t-7.5 18z" />
    <glyph glyph-name="Ccaron" unicode="&#x10c;" horiz-adv-x="653" 
d="M364 759l96 90l16 -8l-92 -101h-39l-92 101l16 8zM586 566q-84 83 -199 83q-85 0 -156 -43q-69 -41 -109 -112q-41 -74 -41 -161t41 -160q40 -71 110 -113q71 -42 156 -42q112 0 202 85l19 -19q-95 -93 -220 -93q-92 0 -171 47q-76 44 -120 122q-46 79 -46 173t46 173
q44 78 120 123q78 46 170 46q122 0 217 -90z" />
    <glyph glyph-name="ccaron" unicode="&#x10d;" horiz-adv-x="452" 
d="M252 559l96 90l16 -8l-92 -101h-39l-92 101l16 8zM398 373q-56 53 -130 53q-92 0 -147 -65q-47 -55 -47 -139q0 -97 61 -154q54 -51 134 -51t133 56l18 -19q-63 -63 -151 -63q-103 0 -168 75q-56 65 -56 156q0 106 72 172q63 58 152 58q81 0 147 -59z" />
    <glyph glyph-name="Dcaron" unicode="&#x10e;" horiz-adv-x="619" 
d="M290 759l95 90l17 -8l-92 -101h-40l-92 101l17 8zM90 667h120q177 0 273 -101q84 -88 84 -232q0 -166 -108 -256q-95 -78 -249 -78h-120v667zM118 640v-613h95q159 0 248 94q77 83 77 213q0 149 -100 233q-87 73 -225 73h-95z" />
    <glyph glyph-name="dcaron" unicode="&#x10f;" horiz-adv-x="627" 
d="M593 678l30 -9l-50 -116l-15 5zM481 0h-27v102q-68 -111 -188 -111q-100 0 -165 75q-56 65 -56 156q0 104 72 172q62 58 149 58q120 0 188 -110v325h27v-667zM266 426q-90 0 -145 -65q-47 -56 -47 -139q0 -96 61 -154q53 -51 131 -51q89 0 143 65q47 57 47 140
q0 96 -60 154q-53 50 -130 50z" />
    <glyph glyph-name="Dcroat" unicode="&#x110;" horiz-adv-x="620" 
d="M91 349h-53v25h53v293h120q177 0 273 -101q84 -88 84 -232q0 -166 -108 -256q-94 -78 -249 -78h-120v349zM119 374h170v-25h-170v-322h95q159 0 248 94q77 83 77 213q0 149 -100 233q-87 73 -225 73h-95v-266z" />
    <glyph glyph-name="dcroat" unicode="&#x111;" horiz-adv-x="555" 
d="M454 540h-125v26h125v101h27v-101h64v-26h-64v-540h-27v102q-68 -111 -188 -111q-100 0 -165 75q-56 65 -56 156q0 104 72 172q62 58 149 58q120 0 188 -110v198zM266 426q-90 0 -145 -65q-47 -56 -47 -139q0 -96 61 -154q53 -51 131 -51q89 0 143 65q47 57 47 140
q0 96 -60 154q-53 50 -130 50z" />
    <glyph glyph-name="Emacron" unicode="&#x112;" horiz-adv-x="466" 
d="M135 803h235v-25h-235v25zM404 641h-286v-290h254v-26h-254v-298h296v-27h-324v667h314v-26z" />
    <glyph glyph-name="emacron" unicode="&#x113;" horiz-adv-x="501" 
d="M134 603h234v-25h-234v25zM73 210q6 -93 62 -146q49 -47 122 -47q98 0 157 81l25 -11q-71 -96 -181 -96q-98 0 -159 75q-54 65 -54 157q0 103 68 170q59 59 139 59q66 0 118 -40q45 -34 67 -90q18 -46 19 -112h-383zM73 234h356q-5 48 -18 81q-21 55 -67 85
q-41 26 -91 26q-81 0 -131 -60q-44 -52 -49 -132z" />
    <glyph glyph-name="Ebreve" unicode="&#x114;" horiz-adv-x="466" 
d="M141 829l23 2q6 -33 30 -53.5t57 -20.5t56.5 20t31.5 54l23 -2q-11 -48 -44 -73q-28 -22 -67 -22q-47 0 -77 29q-27 25 -33 66zM404 641h-286v-290h254v-26h-254v-298h296v-27h-324v667h314v-26z" />
    <glyph glyph-name="ebreve" unicode="&#x115;" horiz-adv-x="501" 
d="M143 629l23 2q6 -33 30 -53.5t57 -20.5t56.5 20t31.5 54l23 -2q-11 -48 -43 -73q-29 -22 -68 -22q-47 0 -77 29q-27 25 -33 66zM73 210q6 -93 62 -146q49 -47 122 -47q98 0 157 81l25 -11q-71 -96 -181 -96q-98 0 -159 75q-54 65 -54 157q0 103 68 170q59 59 139 59
q66 0 118 -40q45 -34 67 -90q18 -46 19 -112h-383zM73 234h356q-5 48 -18 81q-21 55 -67 85q-41 26 -91 26q-81 0 -131 -60q-44 -52 -49 -132z" />
    <glyph glyph-name="Edotaccent" unicode="&#x116;" horiz-adv-x="466" 
d="M404 641h-286v-290h254v-26h-254v-298h296v-27h-324v667h314v-26zM227 791q0 10 7.5 17.5t17.5 7.5t17.5 -7.5t7.5 -17.5q0 -11 -7.5 -18.5t-17.5 -7.5t-17.5 8t-7.5 18z" />
    <glyph glyph-name="edotaccent" unicode="&#x117;" horiz-adv-x="501" 
d="M73 210q6 -93 62 -146q49 -47 122 -47q98 0 157 81l25 -11q-71 -96 -181 -96q-98 0 -159 75q-54 65 -54 157q0 103 68 170q59 59 139 59q66 0 118 -40q45 -34 67 -90q18 -46 19 -112h-383zM73 234h356q-5 48 -18 81q-21 55 -67 85q-41 26 -91 26q-81 0 -131 -60
q-44 -52 -49 -132zM226 588q0 10 7.5 17.5t17.5 7.5t17.5 -7.5t7.5 -17.5q0 -11 -7.5 -18.5t-17.5 -7.5t-17.5 8t-7.5 18z" />
    <glyph glyph-name="Eogonek" unicode="&#x118;" horiz-adv-x="466" 
d="M414 0q-33 -39 -33 -67q0 -19 13 -30.5t35 -11.5q13 0 27 6l8 -20q-23 -7 -39 -7q-30 0 -49.5 17t-19.5 42q0 33 31 71h-297v667h314v-26h-286v-290h254v-26h-254v-298h296v-27z" />
    <glyph glyph-name="eogonek" unicode="&#x119;" horiz-adv-x="501" 
d="M267 -8q-26 -34 -26 -59q0 -19 13 -30.5t35 -11.5q13 0 26 6l8 -20q-23 -7 -39 -7q-29 0 -48.5 17t-19.5 42q0 30 25 63q-92 7 -147 80q-49 64 -49 151q0 103 68 171q59 58 139 58q66 0 118 -40q45 -34 67 -90q18 -46 19 -112h-383q6 -93 62 -146q49 -47 122 -47
q98 0 157 81l25 -11q-67 -91 -172 -95zM73 234h356q-5 48 -18 81q-21 55 -67 85q-41 26 -91 26q-81 0 -131 -60q-44 -52 -49 -132z" />
    <glyph glyph-name="Ecaron" unicode="&#x11a;" horiz-adv-x="466" 
d="M252 759l96 90l16 -8l-92 -101h-40l-92 101l17 8zM404 641h-286v-290h254v-26h-254v-298h296v-27h-324v667h314v-26z" />
    <glyph glyph-name="ecaron" unicode="&#x11b;" horiz-adv-x="501" 
d="M251 559l95 90l17 -8l-92 -101h-40l-92 101l16 8zM73 210q6 -93 62 -146q49 -47 122 -47q98 0 157 81l25 -11q-71 -96 -181 -96q-98 0 -159 75q-54 65 -54 157q0 103 68 170q59 59 139 59q66 0 118 -40q45 -34 67 -90q18 -46 19 -112h-383zM73 234h356q-5 48 -18 81
q-21 55 -67 85q-41 26 -91 26q-81 0 -131 -60q-44 -52 -49 -132z" />
    <glyph glyph-name="Gcircumflex" unicode="&#x11c;" horiz-adv-x="729" 
d="M370 828l-95 -90l-17 9l92 100h40l92 -100l-16 -9zM439 321h236v-15q0 -154 -87 -240q-77 -75 -198 -75q-92 0 -171 46q-77 45 -121 122q-46 80 -46 173q0 94 45 174q45 78 121 123q78 46 171 46q123 0 216 -89l-19 -20q-84 83 -199 83q-85 0 -156 -43q-69 -41 -109 -112
q-41 -74 -41 -162q0 -86 41 -159q41 -71 110 -113q72 -42 156 -42q89 0 155 47q58 41 83 108q19 49 21 122h-208v26z" />
    <glyph glyph-name="gcircumflex" unicode="&#x11d;" horiz-adv-x="554" 
d="M263 628l-96 -90l-16 9l92 100h40l92 -100l-17 -9zM481 443v-451q0 -114 -70 -178q-60 -56 -156 -56q-110 0 -185 83l18 19q36 -40 75.5 -58t91.5 -18q98 0 152 63q47 56 47 145v21v89q-68 -111 -187 -111q-101 0 -166 75q-56 65 -56 156q0 104 72 172q62 58 149 58
q120 0 188 -110v101h27zM266 426q-90 0 -145 -65q-47 -56 -47 -139q0 -95 61 -154q53 -51 131 -51q89 0 143 65q47 57 47 140q0 96 -60 154q-53 50 -130 50z" />
    <glyph glyph-name="Gbreve" unicode="&#x11e;" horiz-adv-x="729" 
d="M277 829l23 2q6 -33 29.5 -53.5t57.5 -20.5q33 0 56.5 20t31.5 54l23 -2q-11 -48 -44 -73q-28 -22 -67 -22q-47 0 -77 29q-27 25 -33 66zM439 321h236v-15q0 -154 -87 -240q-77 -75 -198 -75q-92 0 -171 46q-77 45 -121 122q-46 80 -46 173q0 94 45 174q45 78 121 123
q78 46 171 46q123 0 216 -89l-19 -20q-84 83 -199 83q-85 0 -156 -43q-69 -41 -109 -112q-41 -74 -41 -162q0 -86 41 -159q41 -71 110 -113q72 -42 156 -42q89 0 155 47q58 41 83 108q19 49 21 122h-208v26z" />
    <glyph glyph-name="gbreve" unicode="&#x11f;" horiz-adv-x="554" 
d="M153 629l23 2q6 -33 30 -53.5t57 -20.5t56.5 20t31.5 54l23 -2q-11 -48 -43 -73q-28 -22 -68 -22q-47 0 -77 29q-26 25 -33 66zM481 443v-451q0 -114 -70 -178q-60 -56 -156 -56q-110 0 -185 83l18 19q36 -40 75.5 -58t91.5 -18q98 0 152 63q47 56 47 145v21v89
q-68 -111 -187 -111q-101 0 -166 75q-56 65 -56 156q0 104 72 172q62 58 149 58q120 0 188 -110v101h27zM266 426q-90 0 -145 -65q-47 -56 -47 -139q0 -95 61 -154q53 -51 131 -51q89 0 143 65q47 57 47 140q0 96 -60 154q-53 50 -130 50z" />
    <glyph glyph-name="Gdotaccent" unicode="&#x120;" horiz-adv-x="729" 
d="M439 321h236v-15q0 -154 -87 -240q-77 -75 -198 -75q-92 0 -171 46q-77 45 -121 122q-46 80 -46 173q0 94 45 174q45 78 121 123q78 46 171 46q123 0 216 -89l-19 -20q-84 83 -199 83q-85 0 -156 -43q-69 -41 -109 -112q-41 -74 -41 -162q0 -86 41 -159q41 -71 110 -113
q72 -42 156 -42q89 0 155 47q58 41 83 108q19 49 21 122h-208v26zM362 791q0 10 7.5 17.5t17.5 7.5t17.5 -7.5t7.5 -17.5q0 -11 -7.5 -18.5t-17.5 -7.5t-17.5 8t-7.5 18z" />
    <glyph glyph-name="gdotaccent" unicode="&#x121;" horiz-adv-x="554" 
d="M481 443v-451q0 -114 -70 -178q-60 -56 -156 -56q-110 0 -185 83l18 19q36 -40 75.5 -58t91.5 -18q98 0 152 63q47 56 47 145v21v89q-68 -111 -187 -111q-101 0 -166 75q-56 65 -56 156q0 104 72 172q62 58 149 58q120 0 188 -110v101h27zM266 426q-90 0 -145 -65
q-47 -56 -47 -139q0 -95 61 -154q53 -51 131 -51q89 0 143 65q47 57 47 140q0 96 -60 154q-53 50 -130 50zM238 588q0 10 7.5 17.5t17.5 7.5t17.5 -7.5t7.5 -17.5q0 -11 -7.5 -18.5t-17.5 -7.5t-17.5 8t-7.5 18z" />
    <glyph glyph-name="Gcommaaccent" unicode="&#x122;" horiz-adv-x="729" 
d="M365 -71l30 -9l-50 -116l-15 4zM439 321h236v-15q0 -154 -87 -240q-77 -75 -198 -75q-92 0 -171 46q-77 45 -121 122q-46 80 -46 173q0 94 45 174q45 78 121 123q78 46 171 46q123 0 216 -89l-19 -20q-84 83 -199 83q-85 0 -156 -43q-69 -41 -109 -112q-41 -74 -41 -162
q0 -86 41 -159q41 -71 110 -113q72 -42 156 -42q89 0 155 47q58 41 83 108q19 49 21 122h-208v26z" />
    <glyph glyph-name="gcommaaccent" unicode="&#x123;" horiz-adv-x="554" 
d="M287 529l-29 9l50 117l15 -5zM481 443v-451q0 -114 -70 -178q-60 -56 -156 -56q-110 0 -185 83l18 19q36 -40 75.5 -58t91.5 -18q98 0 152 63q47 56 47 145v21v89q-68 -111 -187 -111q-101 0 -166 75q-56 65 -56 156q0 104 72 172q62 58 149 58q120 0 188 -110v101h27z
M266 426q-90 0 -145 -65q-47 -56 -47 -139q0 -95 61 -154q53 -51 131 -51q89 0 143 65q47 57 47 140q0 96 -60 154q-53 50 -130 50z" />
    <glyph glyph-name="Hcircumflex" unicode="&#x124;" horiz-adv-x="650" 
d="M325 828l-96 -90l-16 9l92 100h40l92 -100l-17 -9zM118 351h413v316h29v-667h-29v325h-413v-325h-28v667h28v-316z" />
    <glyph glyph-name="hcircumflex" unicode="&#x125;" horiz-adv-x="510" 
d="M258 828l-95 -90l-17 9l93 100h39l92 -100l-16 -9zM100 360q51 92 164 92q82 0 130 -53q43 -48 43 -157v-242h-26v233q0 57 -9 91t-31 57q-41 45 -109 45q-82 0 -127 -55q-19 -24 -27 -57.5t-8 -91.5v-222h-27v667h27v-307z" />
    <glyph glyph-name="Hbar" unicode="&#x126;" horiz-adv-x="660" 
d="M565 540v-540h-28v325h-413v-325h-28v540h-64v26h64v101h28v-101h413v101h28v-101h64v-26h-64zM537 540h-413v-189h413v189z" />
    <glyph glyph-name="hbar" unicode="&#x127;" horiz-adv-x="511" 
d="M74 566v101h26v-101h126v-26h-126v-180q52 92 165 92q81 0 130 -53q43 -48 43 -157v-242h-27v233q0 57 -9 91t-30 57q-41 45 -109 45q-83 0 -127 -55q-20 -24 -28 -57.5t-8 -91.5v-222h-26v540h-64v26h64z" />
    <glyph glyph-name="Itilde" unicode="&#x128;" horiz-adv-x="208" 
d="M199 817l20 -5q-12 -50 -57 -50q-21 0 -60 17q-37 17 -51 17q-30 0 -41 -32l-20 5q14 51 57 51q19 0 62 -20q32 -14 50 -14q31 0 40 31zM118 667v-667h-28v667h28z" />
    <glyph glyph-name="itilde" unicode="&#x129;" horiz-adv-x="173" 
d="M181 617l20 -5q-12 -50 -57 -50q-21 0 -60 17q-37 17 -51 17q-30 0 -41 -32l-20 5q14 51 57 51q19 0 62 -20q32 -14 50 -14q31 0 40 31zM100 443v-443h-27v443h27z" />
    <glyph glyph-name="Imacron" unicode="&#x12a;" horiz-adv-x="208" 
d="M-13 803h235v-25h-235v25zM119 667v-667h-29v667h29z" />
    <glyph glyph-name="imacron" unicode="&#x12b;" horiz-adv-x="173" 
d="M-31 603h235v-25h-235v25zM100 443v-443h-27v443h27z" />
    <glyph glyph-name="Ibreve" unicode="&#x12c;" horiz-adv-x="208" 
d="M119 667v-667h-29v667h29zM-6 829l23 2q6 -33 30 -53.5t57 -20.5t56.5 20t31.5 54l23 -2q-11 -48 -43 -73q-28 -22 -68 -22q-47 0 -77 29q-26 25 -33 66z" />
    <glyph glyph-name="ibreve" unicode="&#x12d;" horiz-adv-x="173" 
d="M100 443v-443h-27v443h27zM-24 629l23 2q6 -33 30 -53.5t57 -20.5t56.5 20t31.5 54l23 -2q-11 -48 -43 -73q-28 -22 -68 -22q-47 0 -77 29q-26 25 -33 66z" />
    <glyph glyph-name="Iogonek" unicode="&#x12e;" horiz-adv-x="208" 
d="M118 0q-33 -39 -33 -67q0 -19 13 -30.5t35 -11.5q13 0 27 6l8 -20q-23 -7 -39 -7q-30 0 -49.5 17t-19.5 42q0 33 31 71h-1v667h28v-667z" />
    <glyph glyph-name="iogonek" unicode="&#x12f;" horiz-adv-x="173" 
d="M99 0q-33 -39 -33 -67q0 -19 13 -30.5t35 -11.5q13 0 27 6l8 -20q-23 -7 -39 -7q-30 0 -49.5 17t-19.5 42q0 33 32 71v443h26v-443zM61 588q0 10 7.5 17.5t17.5 7.5t17.5 -7.5t7.5 -17.5q0 -11 -7.5 -18.5t-17.5 -7.5t-17.5 8t-7.5 18z" />
    <glyph glyph-name="Idotaccent" unicode="&#x130;" horiz-adv-x="208" 
d="M118 667v-667h-28v667h28zM79 791q0 10 7.5 17.5t17.5 7.5t17.5 -7.5t7.5 -17.5q0 -11 -7.5 -18.5t-17.5 -7.5t-17.5 8t-7.5 18z" />
    <glyph glyph-name="dotlessi" unicode="&#x131;" horiz-adv-x="173" 
d="M100 443v-443h-27v443h27z" />
    <glyph glyph-name="IJ" unicode="&#x132;" horiz-adv-x="582" 
d="M118 667v-667h-28v667h28zM492 667v-473q0 -203 -151 -203q-62 0 -128 55l17 20q31 -27 56 -37.5t54 -10.5q124 0 124 176v473h28z" />
    <glyph glyph-name="ij" unicode="&#x133;" horiz-adv-x="351" 
d="M99 443v-443h-26v443h26zM61 588q0 10 7.5 17.5t17.5 7.5t17.5 -7.5t7.5 -17.5q0 -11 -7.5 -18.5t-17.5 -7.5t-17.5 8t-7.5 18zM164 -233v25q13 -4 24 -4q34 0 48.5 25t14.5 82v548h27v-548q0 -133 -85 -133q-13 0 -29 5zM240 588q0 10 7.5 17.5t17.5 7.5t17.5 -7.5
t7.5 -17.5q0 -11 -7.5 -18.5t-17.5 -7.5t-17.5 8t-7.5 18z" />
    <glyph glyph-name="Jcircumflex" unicode="&#x134;" horiz-adv-x="382" 
d="M237 828l-96 -90l-16 9l92 100h40l92 -100l-17 -9zM292 667v-473q0 -203 -151 -203q-63 0 -128 55l16 20q32 -27 57 -37.5t54 -10.5q123 0 123 176v473h29z" />
    <glyph glyph-name="jcircumflex" unicode="&#x135;" horiz-adv-x="182" 
d="M78 628l-96 -90l-16 9l92 100h40l92 -100l-17 -9zM-5 -233v25q13 -4 24 -4q34 0 48.5 25t14.5 82v548h27v-548q0 -133 -85 -133q-13 0 -29 5z" />
    <glyph glyph-name="Kcommaaccent" unicode="&#x136;" horiz-adv-x="544" 
d="M289 -71l29 -9l-50 -116l-15 4zM269 397l259 -397h-34l-244 377l-132 -147v-230h-28v667h28v-401l359 401h33z" />
    <glyph glyph-name="kcommaaccent" unicode="&#x137;" horiz-adv-x="445" 
d="M222 -71l29 -9l-50 -116l-15 4zM227 269l206 -269h-33l-191 252l-109 -111v-141h-27v667h27v-493l265 269h35z" />
    <glyph glyph-name="kgreenlandic" unicode="&#x138;" horiz-adv-x="445" 
d="M227 269l206 -269h-33l-191 252l-109 -111v-141h-27v443h27v-269l265 269h35z" />
    <glyph glyph-name="Lacute" unicode="&#x139;" horiz-adv-x="410" 
d="M208 836l-96 -97l-14 8l78 106zM118 667v-640h275v-27h-303v667h28z" />
    <glyph glyph-name="lacute" unicode="&#x13a;" horiz-adv-x="173" 
d="M185 848l-96 -97l-13 7l77 107zM100 0h-27v667h27v-667z" />
    <glyph glyph-name="Lcommaaccent" unicode="&#x13b;" horiz-adv-x="416" 
d="M244 -71l29 -9l-50 -116l-15 4zM118 667v-640h275v-27h-303v667h28z" />
    <glyph glyph-name="lcommaaccent" unicode="&#x13c;" horiz-adv-x="173" 
d="M71 -71l29 -9l-50 -116l-15 4zM99 0h-26v667h26v-667z" />
    <glyph glyph-name="Lcaron" unicode="&#x13d;" horiz-adv-x="416" 
d="M294 678l30 -9l-50 -116l-16 5zM118 667v-640h275v-27h-303v667h28z" />
    <glyph glyph-name="lcaron" unicode="&#x13e;" horiz-adv-x="247" 
d="M213 678l30 -9l-50 -116l-16 5zM101 0h-27v667h27v-667z" />
    <glyph glyph-name="Ldot" unicode="&#x13f;" horiz-adv-x="416" 
d="M118 667v-640h275v-27h-303v667h28zM278 334q0 10 7.5 17.5t17.5 7.5q11 0 18 -7.5t7 -18.5q0 -10 -7.5 -17.5t-17.5 -7.5t-17.5 7.5t-7.5 18.5z" />
    <glyph glyph-name="ldot" unicode="&#x140;" horiz-adv-x="275" 
d="M101 667v-667h-27v667h27zM198 334q0 10 7.5 17.5t17.5 7.5t17.5 -7.5t7.5 -18.5q0 -10 -7.5 -17.5t-17.5 -7.5t-17.5 7.5t-7.5 18.5z" />
    <glyph glyph-name="Lslash" unicode="&#x141;" horiz-adv-x="435" 
d="M109 321l-71 -46v26l71 46v320h28v-301l118 76v-26l-118 -77v-312h275v-27h-303v321z" />
    <glyph glyph-name="lslash" unicode="&#x142;" horiz-adv-x="233" 
d="M103 328l-68 -46v26l68 47v312h27v-294l68 46v-26l-68 -47v-346h-27v328z" />
    <glyph glyph-name="Nacute" unicode="&#x143;" horiz-adv-x="713" 
d="M460 836l-97 -97l-13 8l77 106zM118 636v-636h-28v667h38l467 -637v637h28v-667h-38z" />
    <glyph glyph-name="nacute" unicode="&#x144;" horiz-adv-x="510" 
d="M360 636l-97 -97l-13 8l78 106zM100 360q51 92 164 92q82 0 130 -53q43 -48 43 -157v-242h-26v233q0 57 -9 91t-31 57q-41 45 -109 45q-82 0 -127 -55q-19 -24 -27 -57.5t-8 -91.5v-222h-27v443h27v-83z" />
    <glyph glyph-name="Ncommaaccent" unicode="&#x145;" horiz-adv-x="713" 
d="M359 -71l29 -9l-50 -116l-15 4zM118 636v-636h-28v667h38l467 -637v637h28v-667h-38z" />
    <glyph glyph-name="ncommaaccent" unicode="&#x146;" horiz-adv-x="510" 
d="M257 -71l30 -9l-51 -116l-15 4zM100 360q51 92 164 92q82 0 130 -53q43 -48 43 -157v-242h-26v233q0 57 -9 91t-31 57q-41 45 -109 45q-82 0 -127 -55q-19 -24 -27 -57.5t-8 -91.5v-222h-27v443h27v-83z" />
    <glyph glyph-name="Ncaron" unicode="&#x147;" horiz-adv-x="713" 
d="M373 759l96 90l16 -8l-92 -101h-39l-92 101l16 8zM118 636v-636h-28v667h38l467 -637v637h28v-667h-38z" />
    <glyph glyph-name="ncaron" unicode="&#x148;" horiz-adv-x="510" 
d="M260 559l96 90l16 -8l-92 -101h-40l-92 101l17 8zM100 360q51 92 164 92q82 0 130 -53q43 -48 43 -157v-242h-26v233q0 57 -9 91t-31 57q-41 45 -109 45q-82 0 -127 -55q-19 -24 -27 -57.5t-8 -91.5v-222h-27v443h27v-83z" />
    <glyph glyph-name="napostrophe" unicode="&#x149;" horiz-adv-x="576" 
d="M80 642l28 -10l-85 -189l-13 5zM165 360q51 92 165 92q81 0 129 -53q44 -48 44 -157v-242h-27v233q0 57 -9 91t-30 57q-42 45 -110 45q-82 0 -127 -55q-19 -24 -27 -57.5t-8 -91.5v-222h-27v443h27v-83z" />
    <glyph glyph-name="Eng" unicode="&#x14a;" horiz-adv-x="713" 
d="M623 667v-680q0 -133 -85 -133q-13 0 -28 5v25q12 -4 23 -4q34 0 49 25t15 82v13h-12l-467 636v-636h-28v667h38l467 -637v637h28z" />
    <glyph glyph-name="eng" unicode="&#x14b;" horiz-adv-x="510" 
d="M100 0h-27v443h27v-83q51 92 164 92q82 0 130 -53q43 -48 43 -157v-255q0 -133 -85 -133q-13 0 -28 5v25q12 -4 23 -4q34 0 49 25t15 82v246q0 57 -9 91t-31 57q-41 45 -109 45q-82 0 -127 -55q-19 -24 -27 -57.5t-8 -91.5v-222z" />
    <glyph glyph-name="Omacron" unicode="&#x14c;" horiz-adv-x="767" 
d="M266 803h235v-25h-235v25zM52 333q0 92 46 172q44 78 119 123q77 47 167 47q89 0 166 -47q75 -46 119 -123q46 -80 46 -172t-46 -172q-44 -77 -119 -123q-77 -47 -166 -47t-167 47q-75 46 -119 124q-46 79 -46 171zM81 333q0 -85 41 -159q40 -71 109 -113q71 -43 153 -43
t152 43q69 42 109 113q41 74 41 159q0 86 -41 160q-40 71 -108 113q-71 43 -153 43q-83 0 -153 -43q-69 -42 -109 -113q-41 -74 -41 -160z" />
    <glyph glyph-name="omacron" unicode="&#x14d;" horiz-adv-x="533" 
d="M149 603h235v-25h-235v25zM267 452q100 0 165 -75q56 -64 56 -155q0 -105 -72 -172q-62 -59 -149 -59q-101 0 -166 75q-56 65 -56 156q0 104 72 172q63 58 150 58zM267 426q-91 0 -146 -65q-47 -56 -47 -139q0 -96 61 -154q53 -51 132 -51q90 0 145 66q48 56 48 139
q0 95 -62 154q-53 50 -131 50z" />
    <glyph glyph-name="Obreve" unicode="&#x14e;" horiz-adv-x="767" 
d="M272 829l24 2q5 -33 29 -53.5t57 -20.5t57 20t31 54l24 -2q-12 -48 -44 -73q-28 -22 -67 -22q-47 0 -78 29q-26 25 -33 66zM52 333q0 92 46 172q44 78 119 123q77 47 167 47q89 0 166 -47q75 -46 119 -123q46 -80 46 -172t-46 -172q-44 -77 -119 -123q-77 -47 -166 -47
t-167 47q-75 46 -119 124q-46 79 -46 171zM81 333q0 -85 41 -159q40 -71 109 -113q71 -43 153 -43t152 43q69 42 109 113q41 74 41 159q0 86 -41 160q-40 71 -108 113q-71 43 -153 43q-83 0 -153 -43q-69 -42 -109 -113q-41 -74 -41 -160z" />
    <glyph glyph-name="obreve" unicode="&#x14f;" horiz-adv-x="533" 
d="M155 629l24 2q5 -33 29 -53.5t57 -20.5t57 20t31 54l23 -2q-11 -48 -43 -73q-28 -22 -67 -22q-47 0 -78 29q-26 25 -33 66zM267 452q100 0 165 -75q56 -64 56 -155q0 -105 -72 -172q-62 -59 -149 -59q-101 0 -166 75q-56 65 -56 156q0 104 72 172q63 58 150 58zM267 426
q-91 0 -146 -65q-47 -56 -47 -139q0 -96 61 -154q53 -51 132 -51q90 0 145 66q48 56 48 139q0 95 -62 154q-53 50 -131 50z" />
    <glyph glyph-name="Ohungarumlaut" unicode="&#x150;" horiz-adv-x="767" 
d="M549 836l-97 -96l-10 6l77 107zM409 836l-97 -96l-10 6l77 107zM52 333q0 92 46 172q44 78 119 123q77 47 167 47q89 0 166 -47q75 -46 119 -123q46 -80 46 -172t-46 -172q-44 -77 -119 -123q-77 -47 -166 -47t-167 47q-75 46 -119 124q-46 79 -46 171zM81 333
q0 -85 41 -159q40 -71 109 -113q71 -43 153 -43t152 43q69 42 109 113q41 74 41 159q0 86 -41 160q-40 71 -108 113q-71 43 -153 43q-83 0 -153 -43q-69 -42 -109 -113q-41 -74 -41 -160z" />
    <glyph glyph-name="ohungarumlaut" unicode="&#x151;" horiz-adv-x="533" 
d="M302 636l-97 -96l-10 6l77 107zM442 636l-97 -96l-10 6l77 107zM267 452q100 0 165 -75q56 -64 56 -155q0 -105 -72 -172q-62 -59 -149 -59q-101 0 -166 75q-56 65 -56 156q0 104 72 172q63 58 150 58zM267 426q-91 0 -146 -65q-47 -56 -47 -139q0 -96 61 -154
q53 -51 132 -51q90 0 145 66q48 56 48 139q0 95 -62 154q-53 50 -131 50z" />
    <glyph glyph-name="OE" unicode="&#x152;" horiz-adv-x="1063" 
d="M687 470v197h313v-26h-285v-290h254v-26h-254v-298h296v-27h-324v196q-45 -101 -135 -156q-77 -49 -168 -49q-89 0 -167 47q-75 46 -119 123q-46 80 -46 172t46 172q44 77 119 123q78 47 167 47q104 0 190 -63q75 -55 113 -142zM81 333q0 -85 41 -159q40 -71 109 -113
q71 -43 153 -43t152 43q69 42 109 113q42 74 42 159q0 86 -42 160q-40 71 -108 113q-71 43 -153 43q-83 0 -153 -43q-69 -42 -109 -113q-41 -74 -41 -160z" />
    <glyph glyph-name="oe" unicode="&#x153;" horiz-adv-x="915" 
d="M474 306q25 73 83 112q49 34 110 34q71 0 125 -46q47 -40 67 -104q12 -39 12 -92h-383q5 -93 62 -146q49 -47 122 -47q98 0 156 81l26 -11q-71 -96 -181 -96q-74 0 -130 45q-48 39 -69 102q-28 -73 -89 -113q-52 -34 -118 -34q-101 0 -166 75q-56 65 -56 156
q0 104 72 172q63 58 150 58q75 0 133 -45q51 -39 74 -101zM267 426q-91 0 -146 -65q-47 -56 -47 -139q0 -96 61 -154q53 -51 132 -51q90 0 145 66q48 56 48 139q0 95 -62 154q-53 50 -131 50zM488 234h356q-4 42 -14 71q-18 58 -67 92q-43 29 -96 29q-80 0 -131 -60
q-43 -52 -48 -132z" />
    <glyph glyph-name="Racute" unicode="&#x154;" horiz-adv-x="512" 
d="M341 836l-96 -97l-14 8l78 106zM313 299l164 -299h-32l-159 294q-36 -5 -76 -5h-92v-289h-28v667h120q65 0 105.5 -11.5t69.5 -36.5q61 -55 61 -144q0 -70 -40 -119q-36 -43 -93 -57zM118 315h101q98 0 147 40q52 43 52 120q0 78 -52 123q-48 42 -147 42h-101v-325z" />
    <glyph glyph-name="racute" unicode="&#x155;" horiz-adv-x="281" 
d="M228 636l-96 -97l-14 8l78 106zM100 360q24 44 58.5 63t92.5 20v-24q-59 -3 -93 -28q-33 -24 -45.5 -62t-12.5 -112v-217h-27v443h27v-83z" />
    <glyph glyph-name="Rcommaaccent" unicode="&#x156;" horiz-adv-x="512" 
d="M273 -71l30 -9l-50 -116l-15 4zM313 299l164 -299h-32l-159 294q-36 -5 -76 -5h-92v-289h-28v667h120q65 0 105.5 -11.5t69.5 -36.5q61 -55 61 -144q0 -70 -40 -119q-36 -43 -93 -57zM118 315h101q98 0 147 40q52 43 52 120q0 78 -52 123q-48 42 -147 42h-101v-325z" />
    </font>
</defs>
</svg>
