<?xml version="1.0" standalone="no"?>
<!DOCTYPE svg PUBLIC "-//W3C//DTD SVG 1.1//EN" "http://www.w3.org/Graphics/SVG/1.1/DTD/svg11.dtd" >
<svg xmlns="http://www.w3.org/2000/svg" xmlns:xlink="http://www.w3.org/1999/xlink" version="1.1">
<metadata>
Created by FontForge 20170731 at Wed Dec 20 17:38:24 2017
 By Aleksey,,,
(URW)++,Copyright 2017 by (URW)++ Design &#38; Development
</metadata>
<defs>
<font id="URWGeometricArabic-Regular" horiz-adv-x="0" >
  <font-face 
    font-family="URWGeometricArabic-Regular"
    font-weight="400"
    font-stretch="normal"
    units-per-em="1000"
    panose-1="0 0 0 0 0 0 0 0 0 0"
    ascent="733"
    descent="-267"
    x-height="443"
    cap-height="667"
    bbox="-395 -464 1411 1060"
    underline-thickness="66"
    underline-position="-263"
    unicode-range="U+0020-FEFC"
  />
<missing-glyph horiz-adv-x="364" 
d="M33 0v666h265v-666h-265zM66 33h199v600h-199v-600z" />
    <glyph glyph-name="uni064D0651" unicode="&#x64b;&#x651;" 
d="M-171 940l-157 -28l-7 38l157 28zM-166 865l-157 -29l-7 37l157 29zM-250 702q-16 -16 -39 -16t-37.5 14t-14.5 35v62h33v-57q0 -21 20 -21q22 0 22 21v39h33v-39q0 -21 20 -21q21 0 21 21v57h33v-62q0 -22 -14.5 -35.5t-37.5 -13.5q-26 0 -39 16z" />
    <glyph glyph-name="fi" unicode="fi" horiz-adv-x="434" 
d="M148 379v-379h-71v379h-45v64h45v90q0 140 107 140q19 0 44 -6v-65q-20 5 -30 5q-50 0 -50 -74v-90h82v-64h-82zM370 443v-443h-71v443h71zM284 591q0 21 15 36t36 15t36 -15t15 -36q0 -22 -15 -36.5t-36 -14.5t-36 15t-15 36z" />
    <glyph glyph-name="fl" unicode="fl" horiz-adv-x="434" 
d="M148 379v-379h-71v379h-45v64h45v90q0 140 107 140q19 0 44 -6v-65q-20 5 -30 5q-50 0 -50 -74v-90h82v-64h-82zM370 0h-71v667h71v-667z" />
    <glyph glyph-name="uniFC5E" unicode="&#x64c;&#x651;" arabic-form="isolated" 
d="M-235 866q-23 18 -23 46q0 25 15 41.5t39 16.5q25 0 40.5 -16t15.5 -41q0 -40 -30 -63q-24 -18 -56 -18q-47 0 -72 35l-20 -33l-28 18l33 53h23q22 -40 63 -39zM-201 876q20 8 20 35q0 12 -6 20t-16 8q-20 0 -20 -27q0 -25 22 -36zM-250 702q-16 -16 -39 -16t-37.5 14
t-14.5 35v62h33v-57q0 -21 20 -21q22 0 22 21v39h33v-39q0 -21 20 -21q21 0 21 21v57h33v-62q0 -22 -14.5 -35.5t-37.5 -13.5q-26 0 -39 16z" />
    <glyph glyph-name="uniFC5F" unicode="&#x64d;&#x651;" arabic-form="isolated" 
d="M-253 871q-16 -16 -39 -16t-37.5 14t-14.5 35v62h33v-57q0 -21 20 -21q22 0 22 21v39h33v-39q0 -21 20 -21q21 0 21 21v57h33v-62q0 -22 -14.5 -35.5t-37.5 -13.5q-26 0 -39 16zM-171 790l-157 -27l-6 37l156 28zM-166 715l-157 -29l-7 38l157 28z" />
    <glyph glyph-name="uniFC60" unicode="&#x64e;&#x651;" arabic-form="isolated" 
d="M-160 863l-165 -29l-9 43l166 30zM-250 702q-16 -16 -39 -16t-37.5 14t-14.5 35v62h33v-57q0 -21 20 -21q22 0 22 21v39h33v-39q0 -21 20 -21q21 0 21 21v57h33v-62q0 -22 -14.5 -35.5t-37.5 -13.5q-26 0 -39 16z" />
    <glyph glyph-name="uniFC61" unicode="&#x64f;&#x651;" arabic-form="isolated" 
d="M-222 848l-115 -20l-6 33l99 18q-20 20 -20 48q0 24 15 39.5t37 15.5q25 0 40 -15.5t15 -41.5q0 -29 -18 -50.5t-47 -26.5zM-209 890q19 9 19 34q0 27 -21 27q-19 0 -19 -26q0 -24 21 -35zM-250 702q-16 -16 -39 -16t-37.5 14t-14.5 35v62h33v-57q0 -21 20 -21
q22 0 22 21v39h33v-39q0 -21 20 -21q21 0 21 21v57h33v-62q0 -22 -14.5 -35.5t-37.5 -13.5q-26 0 -39 16z" />
    <glyph glyph-name="uniFC62" unicode="&#x650;&#x651;" arabic-form="isolated" 
d="M-252 815q-16 -16 -39 -16t-37.5 14t-14.5 35v62h33v-57q0 -21 20 -21q22 0 22 21v39h33v-39q0 -21 20 -21q21 0 21 21v57h33v-62q0 -22 -14.5 -35.5t-37.5 -13.5q-26 0 -39 16zM-160 715l-165 -29l-9 43l166 30z" />
    <glyph glyph-name="uniFC63" unicode="&#x651;&#x670;" arabic-form="isolated" 
d="M-228 831h-44v123h44v-123zM-250 702q-16 -16 -39 -16t-37.5 14t-14.5 35v62h33v-57q0 -21 20 -21q22 0 22 21v39h33v-39q0 -21 20 -21q21 0 21 21v57h33v-62q0 -22 -14.5 -35.5t-37.5 -13.5q-26 0 -39 16z" />
    <glyph glyph-name="uniFDF2" unicode="&#x627;&#xfedf;&#xfee0;&#x6c1;" horiz-adv-x="1275" arabic-form="isolated" 
d="M677 806h-33v95h33v-95zM660 680q-16 -17 -39 -17q-22 0 -36.5 14t-14.5 35v60h32v-54q0 -21 20 -21q22 0 22 21v37h33v-37q0 -21 20 -21q21 0 21 21v54h33v-60q0 -21 -14.5 -35t-37.5 -14q-26 0 -39 17zM1185 0h-70v666h70v-666zM663 64q-45 -64 -140 -64
q-107 0 -151 80q-54 -55 -130 -55q-80 0 -128 60q-44 55 -44 145q0 106 67 164q57 49 146 49h65v46h70v-301q0 -64 33 -95q27 -25 72 -25q51 0 80 38q25 34 25 90v377h69v-377q0 -65 33 -99q27 -29 72 -29q53 0 81 33q25 31 25 87v385h69v-385q0 -98 -56 -148
q-46 -40 -119 -40q-95 0 -139 64zM348 375h-62q-77 0 -114 -43q-32 -36 -32 -101q0 -69 31 -106q26 -32 71 -32q56 0 110 49q-4 20 -4 46v187z" />
    <glyph glyph-name="uniFEF5" unicode="&#xfedf;&#xfe82;" horiz-adv-x="572" arabic-form="isolated" 
d="M321 0h-296v68h150v445h69v-445h62q59 0 82.5 26t23.5 92v480h70v-502q0 -85 -51 -128q-42 -36 -110 -36zM299 637q-16 -56 -61 -56q-21 0 -46 16q-14 9 -25 9q-20 0 -33 -21l-22 19q21 44 56 44q16 0 37 -15q17 -13 33 -13q17 0 30 27z" />
    <glyph glyph-name="uniFEF6" unicode="&#xfee0;&#xfe82;" horiz-adv-x="598" arabic-form="final" 
d="M321 0h-296v68h150v445h69v-445h62q59 0 82.5 26t23.5 92v480h70v-480q0 -65 22 -90q24 -28 84 -28h20v-68h-35q-84 0 -126 52q-42 -52 -126 -52zM299 637q-16 -56 -61 -56q-21 0 -46 16q-14 9 -25 9q-20 0 -33 -21l-22 19q21 44 56 44q16 0 37 -15q17 -13 33 -13
q17 0 30 27z" />
    <glyph glyph-name="uniFEF7" unicode="&#xfedf;&#xfe84;" horiz-adv-x="572" arabic-form="isolated" 
d="M286 611h-153v33h32q-8 16 -8 30q0 27 19 44t48 17t49 -17l-13 -24q-16 11 -34 11q-34 0 -34 -30q0 -14 12 -31h82v-33zM321 0h-296v68h150v445h69v-445h62q59 0 82.5 26t23.5 92v480h70v-502q0 -85 -51 -128q-42 -36 -110 -36z" />
    <glyph glyph-name="uniFEF8" unicode="&#xfee0;&#xfe84;" horiz-adv-x="598" arabic-form="final" 
d="M286 611h-153v33h32q-8 16 -8 30q0 27 19 44t48 17t49 -17l-13 -24q-16 11 -34 11q-34 0 -34 -30q0 -14 12 -31h82v-33zM321 0h-296v68h150v445h69v-445h62q59 0 82.5 26t23.5 92v480h70v-480q0 -65 22 -90q24 -28 84 -28h20v-68h-35q-84 0 -126 52q-42 -52 -126 -52z
" />
    <glyph glyph-name="uniFEF9" unicode="&#xfedf;&#xfe88;" horiz-adv-x="572" arabic-form="isolated" 
d="M321 0h-296v68h150v445h69v-445h62q59 0 82.5 26t23.5 92v480h70v-502q0 -85 -51 -128q-42 -36 -110 -36zM284 -220h-153v33h32q-8 16 -8 30q0 27 19 44t48 17t49 -17l-13 -24q-16 11 -34 11q-34 0 -34 -30q0 -15 12 -31h82v-33z" />
    <glyph glyph-name="uniFEFA" unicode="&#xfee0;&#xfe88;" horiz-adv-x="598" arabic-form="final" 
d="M321 0h-296v68h150v445h69v-445h62q59 0 82.5 26t23.5 92v480h70v-480q0 -65 22 -90q24 -28 84 -28h20v-68h-35q-84 0 -126 52q-42 -52 -126 -52zM284 -220h-153v33h32q-8 16 -8 30q0 27 19 44t48 17t49 -17l-13 -24q-16 11 -34 11q-34 0 -34 -30q0 -15 12 -31h82v-33z
" />
    <glyph glyph-name="uniFEFB" unicode="&#xfedf;&#xfe8e;" horiz-adv-x="572" arabic-form="isolated" 
d="M321 0h-296v68h150v445h69v-445h62q59 0 82.5 26t23.5 92v480h70v-502q0 -85 -51 -128q-42 -36 -110 -36z" />
    <glyph glyph-name="uniFEFC" unicode="&#xfee0;&#xfe8e;" horiz-adv-x="598" arabic-form="final" 
d="M321 0h-296v68h150v445h69v-445h62q59 0 82.5 26t23.5 92v480h70v-480q0 -65 22 -90q24 -28 84 -28h20v-68h-35q-84 0 -126 52q-42 -52 -126 -52z" />
    <glyph glyph-name="uniFB50" unicode="&#x671;" horiz-adv-x="250" arabic-form="isolated" 
d="M49 739q44 120 129 120q40 0 62 -19t22 -54q0 -49 -55 -74q-42 -18 -105 -18q-17 0 -25 1q-7 -22 -12 -50l-40 7q1 4 3 13q5 24 9 35q-25 6 -55 15l8 38q37 -10 59 -14zM90 734h12q51 0 83 13t32 35q0 35 -41 35q-52 0 -86 -83zM160 0h-70v616h70v-616z" />
    <glyph glyph-name="uniFB51" unicode="&#x671;" horiz-adv-x="276" arabic-form="final" 
d="M49 739q44 120 129 120q40 0 62 -19t22 -54q0 -49 -55 -74q-42 -18 -105 -18q-17 0 -25 1q-7 -22 -12 -50l-40 7q1 4 3 13q5 24 9 35q-25 6 -55 15l8 38q37 -10 59 -14zM90 734h12q51 0 83 13t32 35q0 35 -41 35q-52 0 -86 -83zM160 616v-430q0 -65 22 -90q24 -28 84 -28
h20v-68h-35q-79 0 -122 47q-39 43 -39 117v452h70z" />
    <glyph glyph-name="uniFB52" unicode="&#x67b;" horiz-adv-x="874" arabic-form="isolated" 
d="M602 0h-291q-123 0 -185 72q-46 55 -46 137q0 63 35 115q33 49 91 73l35 -53q-44 -21 -69 -56.5t-25 -78.5q0 -62 46 -103q43 -38 109 -38h282q130 0 130 128v222h70v-230q0 -98 -57 -147q-47 -41 -125 -41zM478 -123q0 -18 -13.5 -31.5t-31.5 -13.5q-19 0 -32.5 13.5
t-13.5 31.5q0 19 13.5 32.5t32.5 13.5q18 0 31.5 -13.5t13.5 -32.5zM478 -225q0 -18 -13.5 -31.5t-31.5 -13.5q-19 0 -32.5 13t-13.5 32t13.5 32t32.5 13q18 0 31.5 -13.5t13.5 -31.5z" />
    <glyph glyph-name="uniFB53" unicode="&#x67b;" horiz-adv-x="896" arabic-form="final" 
d="M602 0h-291q-123 0 -185 72q-46 55 -46 137q0 63 35 115q33 49 91 73l35 -53q-44 -21 -69 -56.5t-25 -78.5q0 -62 46 -103q43 -38 109 -38h282q130 0 130 128v222h70v-222q0 -65 33 -99q27 -29 72 -29h17v-68h-25q-88 0 -132 65q-48 -65 -147 -65zM478 -123
q0 -18 -13.5 -31.5t-31.5 -13.5q-19 0 -32.5 13.5t-13.5 31.5q0 19 13.5 32.5t32.5 13.5q18 0 31.5 -13.5t13.5 -32.5zM478 -225q0 -18 -13.5 -31.5t-31.5 -13.5q-19 0 -32.5 13t-13.5 32t13.5 32t32.5 13q18 0 31.5 -13.5t13.5 -31.5z" />
    <glyph glyph-name="uniFB54" unicode="&#x67b;" horiz-adv-x="271" arabic-form="initial" 
d="M-10 0v68h17q51 0 80 38q25 34 25 90v222h70v-230q0 -98 -56 -148q-44 -40 -111 -40h-25zM96 -270q-19 0 -32.5 13t-13.5 32t13.5 32t32.5 13q18 0 31.5 -13.5t13.5 -31.5t-13.5 -31.5t-31.5 -13.5zM96 -168q-19 0 -32.5 13.5t-13.5 31.5q0 19 13.5 32.5t32.5 13.5
q18 0 31.5 -13.5t13.5 -32.5q0 -18 -13.5 -31.5t-31.5 -13.5z" />
    <glyph glyph-name="uniFB55" unicode="&#x67b;" horiz-adv-x="293" arabic-form="medial" 
d="M-10 0v68h17q51 0 80 38q25 34 25 90v222h70v-222q0 -65 32 -99q28 -29 73 -29h16v-68h-24q-88 0 -132 64q-45 -64 -132 -64h-25zM139 -270q-19 0 -32.5 13t-13.5 32t13.5 32t32.5 13q18 0 31.5 -13.5t13.5 -31.5t-13.5 -31.5t-31.5 -13.5zM139 -168q-19 0 -32.5 13.5
t-13.5 31.5q0 19 13.5 32.5t32.5 13.5q18 0 31.5 -13.5t13.5 -32.5q0 -18 -13.5 -31.5t-31.5 -13.5z" />
    <glyph glyph-name="uniFB56" unicode="&#x67e;" horiz-adv-x="874" arabic-form="isolated" 
d="M602 0h-291q-123 0 -185 72q-46 55 -46 137q0 63 35 115q33 49 91 73l35 -53q-44 -21 -69 -56.5t-25 -78.5q0 -62 46 -103q43 -38 109 -38h282q130 0 130 128v222h70v-230q0 -98 -57 -147q-47 -41 -125 -41zM424 -124q0 -18 -14 -32t-33 -14q-18 0 -32 14t-14 32
q0 19 14 33t32 14q19 0 33 -14t14 -33zM534 -124q0 -18 -14 -32t-32 -14t-32 14t-14 32q0 19 13.5 33t32.5 14t32.5 -14t13.5 -33zM475 -221q0 -17 -12.5 -29.5t-29.5 -12.5t-30 12.5t-13 29.5t13 30t30 13t29.5 -13t12.5 -30z" />
    <glyph glyph-name="uniFB57" unicode="&#x67e;" horiz-adv-x="896" arabic-form="final" 
d="M602 0h-291q-123 0 -185 72q-46 55 -46 137q0 63 35 115q33 49 91 73l35 -53q-44 -21 -69 -56.5t-25 -78.5q0 -62 46 -103q43 -38 109 -38h282q130 0 130 128v222h70v-222q0 -65 33 -99q27 -29 72 -29h17v-68h-25q-88 0 -132 65q-48 -65 -147 -65zM424 -124
q0 -18 -14 -32t-33 -14q-18 0 -32 14t-14 32q0 19 14 33t32 14q19 0 33 -14t14 -33zM534 -124q0 -18 -14 -32t-32 -14t-32 14t-14 32q0 19 13.5 33t32.5 14t32.5 -14t13.5 -33zM475 -221q0 -17 -12.5 -29.5t-29.5 -12.5t-30 12.5t-13 29.5t13 30t30 13t29.5 -13t12.5 -30z
" />
    <glyph glyph-name="uniFB58" unicode="&#x67e;" horiz-adv-x="271" arabic-form="initial" 
d="M-10 0v68h17q51 0 80 38q25 34 25 90v222h70v-230q0 -98 -56 -148q-44 -40 -111 -40h-25zM89 -263q-17 0 -29.5 12.5t-12.5 29.5t12.5 30t29.5 13t30 -13t13 -30t-13 -29.5t-30 -12.5zM34 -170q-18 0 -32 14t-14 32q0 19 13.5 33t32.5 14t32.5 -14t13.5 -33
q0 -18 -14 -32t-32 -14zM145 -170q-18 0 -32 14t-14 32q0 19 13.5 33t32.5 14t32.5 -14t13.5 -33q0 -18 -14 -32t-32 -14z" />
    <glyph glyph-name="uniFB59" unicode="&#x67e;" horiz-adv-x="293" arabic-form="medial" 
d="M15 0h-25v68h17q51 0 80 38q25 34 25 90v222h70v-222q0 -65 32 -99q28 -29 73 -29h16v-68h-24q-88 0 -132 64q-45 -64 -132 -64zM138 -124q0 -18 -14 -32t-32 -14q-19 0 -33 14t-14 32q0 19 14 33t33 14q18 0 32 -14t14 -33zM249 -124q0 -18 -14 -32t-32 -14
q-19 0 -33 14t-14 32q0 19 14 33t33 14q18 0 32 -14t14 -33zM190 -221q0 -17 -13 -29.5t-30 -12.5t-29.5 12.5t-12.5 29.5t12.5 30t29.5 13t30 -13t13 -30z" />
    <glyph glyph-name="uniFB5A" unicode="&#x680;" horiz-adv-x="874" arabic-form="isolated" 
d="M602 0h-291q-123 0 -185 72q-46 55 -46 137q0 63 35 115q33 49 91 73l35 -53q-44 -21 -69 -56.5t-25 -78.5q0 -62 46 -103q43 -38 109 -38h282q130 0 130 128v222h70v-230q0 -98 -57 -147q-47 -41 -125 -41zM425 -123q0 -18 -13.5 -31.5t-32.5 -13.5q-18 0 -31.5 13.5
t-13.5 31.5q0 19 13.5 32.5t31.5 13.5q19 0 32.5 -13.5t13.5 -32.5zM532 -123q0 -18 -13.5 -31.5t-32.5 -13.5q-18 0 -31.5 13.5t-13.5 31.5q0 19 13.5 32.5t31.5 13.5q19 0 32.5 -13.5t13.5 -32.5zM425 -228q0 -19 -13.5 -32t-32.5 -13q-18 0 -31.5 13.5t-13.5 31.5
t13.5 31.5t31.5 13.5q19 0 32.5 -13t13.5 -32zM532 -228q0 -19 -13.5 -32t-32.5 -13q-18 0 -31.5 13.5t-13.5 31.5t13.5 31.5t31.5 13.5q19 0 32.5 -13t13.5 -32z" />
    <glyph glyph-name="uniFB5B" unicode="&#x680;" horiz-adv-x="896" arabic-form="final" 
d="M602 0h-291q-123 0 -185 72q-46 55 -46 137q0 63 35 115q33 49 91 73l35 -53q-44 -21 -69 -56.5t-25 -78.5q0 -62 46 -103q43 -38 109 -38h282q130 0 130 128v222h70v-222q0 -65 33 -99q27 -29 72 -29h17v-68h-25q-88 0 -132 65q-48 -65 -147 -65zM425 -123
q0 -18 -13.5 -31.5t-32.5 -13.5q-18 0 -31.5 13.5t-13.5 31.5q0 19 13.5 32.5t31.5 13.5q19 0 32.5 -13.5t13.5 -32.5zM532 -123q0 -18 -13.5 -31.5t-32.5 -13.5q-18 0 -31.5 13.5t-13.5 31.5q0 19 13.5 32.5t31.5 13.5q19 0 32.5 -13.5t13.5 -32.5zM425 -228
q0 -19 -13.5 -32t-32.5 -13q-18 0 -31.5 13.5t-13.5 31.5t13.5 31.5t31.5 13.5q19 0 32.5 -13t13.5 -32zM532 -228q0 -19 -13.5 -32t-32.5 -13q-18 0 -31.5 13.5t-13.5 31.5t13.5 31.5t31.5 13.5q19 0 32.5 -13t13.5 -32z" />
    <glyph glyph-name="uniFB5C" unicode="&#x680;" horiz-adv-x="271" arabic-form="initial" 
d="M-10 0v68h17q51 0 80 38q25 34 25 90v222h70v-230q0 -98 -56 -148q-44 -40 -111 -40h-25zM30 -273q-18 0 -31.5 13.5t-13.5 31.5t13.5 31.5t31.5 13.5q19 0 32.5 -13t13.5 -32t-13.5 -32t-32.5 -13zM137 -273q-18 0 -31.5 13.5t-13.5 31.5t13.5 31.5t31.5 13.5
q19 0 32.5 -13t13.5 -32t-13.5 -32t-32.5 -13zM30 -168q-18 0 -31.5 13.5t-13.5 31.5q0 19 13.5 32.5t31.5 13.5q19 0 32.5 -13.5t13.5 -32.5q0 -18 -13.5 -31.5t-32.5 -13.5zM137 -168q-18 0 -31.5 13.5t-13.5 31.5q0 19 13.5 32.5t31.5 13.5q19 0 32.5 -13.5t13.5 -32.5
q0 -18 -13.5 -31.5t-32.5 -13.5z" />
    <glyph glyph-name="uniFB5D" unicode="&#x680;" horiz-adv-x="293" arabic-form="medial" 
d="M-10 0v68h17q51 0 80 38q25 34 25 90v222h70v-222q0 -65 32 -99q28 -29 73 -29h16v-68h-24q-88 0 -132 64q-45 -64 -132 -64h-25zM72 -273q-18 0 -31.5 13.5t-13.5 31.5t13.5 31.5t31.5 13.5q19 0 32.5 -13t13.5 -32t-13.5 -32t-32.5 -13zM179 -273q-18 0 -31.5 13.5
t-13.5 31.5t13.5 31.5t31.5 13.5q19 0 32.5 -13t13.5 -32t-13.5 -32t-32.5 -13zM72 -168q-18 0 -31.5 13.5t-13.5 31.5q0 19 13.5 32.5t31.5 13.5q19 0 32.5 -13.5t13.5 -32.5q0 -18 -13.5 -31.5t-32.5 -13.5zM179 -168q-18 0 -31.5 13.5t-13.5 31.5q0 19 13.5 32.5
t31.5 13.5q19 0 32.5 -13.5t13.5 -32.5q0 -18 -13.5 -31.5t-32.5 -13.5z" />
    <glyph glyph-name="uniFB5E" unicode="&#x67a;" horiz-adv-x="874" arabic-form="isolated" 
d="M496 582q0 -19 -13.5 -32.5t-31.5 -13.5q-19 0 -32.5 13.5t-13.5 32.5q0 18 13.5 31.5t32.5 13.5q18 0 31.5 -13.5t13.5 -31.5zM496 471q0 -19 -13.5 -32.5t-31.5 -13.5q-19 0 -32.5 13.5t-13.5 32.5q0 18 13.5 31.5t32.5 13.5q18 0 31.5 -13.5t13.5 -31.5zM602 0h-291
q-123 0 -185 72q-46 55 -46 137q0 63 35 115q33 49 91 73l35 -53q-44 -21 -69 -56.5t-25 -78.5q0 -62 46 -103q43 -38 109 -38h282q130 0 130 128v222h70v-230q0 -98 -57 -147q-47 -41 -125 -41z" />
    <glyph glyph-name="uniFB5F" unicode="&#x67a;" horiz-adv-x="896" arabic-form="final" 
d="M504 579q0 -19 -13.5 -32t-32.5 -13q-18 0 -31.5 13.5t-13.5 31.5t13.5 31.5t31.5 13.5q19 0 32.5 -13t13.5 -32zM504 468q0 -18 -13.5 -31.5t-32.5 -13.5q-18 0 -31.5 13.5t-13.5 31.5q0 19 13.5 32.5t31.5 13.5q19 0 32.5 -13.5t13.5 -32.5zM602 0h-291q-123 0 -185 72
q-46 55 -46 137q0 63 35 115q33 49 91 73l35 -53q-44 -21 -69 -56.5t-25 -78.5q0 -62 46 -103q43 -38 109 -38h282q130 0 130 128v222h70v-222q0 -65 33 -99q27 -29 72 -29h17v-68h-25q-88 0 -132 65q-48 -65 -147 -65z" />
    <glyph glyph-name="uniFB60" unicode="&#x67a;" horiz-adv-x="271" arabic-form="initial" 
d="M190 669q0 -19 -13.5 -32t-32.5 -13q-18 0 -31.5 13.5t-13.5 31.5t13.5 31.5t31.5 13.5q19 0 32.5 -13t13.5 -32zM190 558q0 -18 -13.5 -31.5t-32.5 -13.5q-18 0 -31.5 13.5t-13.5 31.5q0 19 13.5 32.5t31.5 13.5q19 0 32.5 -13.5t13.5 -32.5zM15 0h-25v68h17q51 0 80 38
q25 34 25 90v222h70v-230q0 -98 -56 -148q-44 -40 -111 -40z" />
    <glyph glyph-name="uniFB61" unicode="&#x67a;" horiz-adv-x="293" arabic-form="medial" 
d="M193 669q0 -19 -13.5 -32t-32.5 -13q-18 0 -31.5 13.5t-13.5 31.5t13.5 31.5t31.5 13.5q19 0 32.5 -13t13.5 -32zM193 558q0 -18 -13.5 -31.5t-32.5 -13.5q-18 0 -31.5 13.5t-13.5 31.5q0 19 13.5 32.5t31.5 13.5q19 0 32.5 -13.5t13.5 -32.5zM15 0h-25v68h17q51 0 80 38
q25 34 25 90v222h70v-222q0 -65 32 -99q28 -29 73 -29h16v-68h-24q-88 0 -132 64q-45 -64 -132 -64z" />
    <glyph glyph-name="uniFB62" unicode="&#x67f;" horiz-adv-x="874" arabic-form="isolated" 
d="M438 583q0 -19 -13 -32.5t-32 -13.5q-18 0 -31.5 13.5t-13.5 32.5q0 18 13.5 31.5t31.5 13.5t31.5 -13.5t13.5 -31.5zM545 583q0 -19 -13 -32.5t-32 -13.5t-32 13.5t-13 32.5q0 18 13.5 31.5t31.5 13.5t31.5 -13.5t13.5 -31.5zM438 472q0 -19 -13 -32.5t-32 -13.5
q-18 0 -31.5 13.5t-13.5 32.5q0 18 13.5 31.5t31.5 13.5t31.5 -13.5t13.5 -31.5zM545 472q0 -19 -13 -32.5t-32 -13.5t-32 13.5t-13 32.5q0 18 13.5 31.5t31.5 13.5t31.5 -13.5t13.5 -31.5zM602 0h-291q-123 0 -185 72q-46 55 -46 137q0 63 35 115q33 49 91 73l35 -53
q-44 -21 -69 -56.5t-25 -78.5q0 -62 46 -103q43 -38 109 -38h282q130 0 130 128v222h70v-230q0 -98 -57 -147q-47 -41 -125 -41z" />
    <glyph glyph-name="uniFB63" unicode="&#x67f;" horiz-adv-x="896" arabic-form="final" 
d="M450 567q0 -19 -13 -32.5t-32 -13.5t-32 13.5t-13 32.5q0 18 13.5 31.5t31.5 13.5t31.5 -13.5t13.5 -31.5zM557 567q0 -19 -13 -32.5t-32 -13.5t-32 13.5t-13 32.5q0 18 13.5 31.5t31.5 13.5t31.5 -13.5t13.5 -31.5zM450 456q0 -19 -13 -32.5t-32 -13.5t-32 13.5
t-13 32.5q0 18 13.5 31.5t31.5 13.5t31.5 -13.5t13.5 -31.5zM557 456q0 -19 -13 -32.5t-32 -13.5t-32 13.5t-13 32.5q0 18 13.5 31.5t31.5 13.5t31.5 -13.5t13.5 -31.5zM602 0h-291q-123 0 -185 72q-46 55 -46 137q0 63 35 115q33 49 91 73l35 -53q-44 -21 -69 -56.5
t-25 -78.5q0 -62 46 -103q43 -38 109 -38h282q130 0 130 128v222h70v-222q0 -65 33 -99q27 -29 72 -29h17v-68h-25q-88 0 -132 65q-48 -65 -147 -65z" />
    <glyph glyph-name="uniFB64" unicode="&#x67f;" horiz-adv-x="271" arabic-form="initial" 
d="M136 657q0 -19 -13.5 -32.5t-31.5 -13.5q-19 0 -32.5 13.5t-13.5 32.5q0 18 13.5 31.5t32.5 13.5q18 0 31.5 -13.5t13.5 -31.5zM243 657q0 -19 -13.5 -32.5t-31.5 -13.5q-19 0 -32.5 13.5t-13.5 32.5q0 18 13.5 31.5t32.5 13.5q18 0 31.5 -13.5t13.5 -31.5zM136 546
q0 -19 -13.5 -32.5t-31.5 -13.5q-19 0 -32.5 13.5t-13.5 32.5q0 18 13.5 31.5t32.5 13.5q18 0 31.5 -13.5t13.5 -31.5zM243 546q0 -19 -13.5 -32.5t-31.5 -13.5q-19 0 -32.5 13.5t-13.5 32.5q0 18 13.5 31.5t32.5 13.5q18 0 31.5 -13.5t13.5 -31.5zM15 0h-25v68h17
q51 0 80 38q25 34 25 90v222h70v-230q0 -98 -56 -148q-44 -40 -111 -40z" />
    <glyph glyph-name="uniFB65" unicode="&#x67f;" horiz-adv-x="293" arabic-form="medial" 
d="M139 657q0 -19 -13.5 -32.5t-31.5 -13.5q-19 0 -32.5 13.5t-13.5 32.5q0 18 13.5 31.5t32.5 13.5q18 0 31.5 -13.5t13.5 -31.5zM246 657q0 -19 -13.5 -32.5t-31.5 -13.5q-19 0 -32.5 13.5t-13.5 32.5q0 18 13.5 31.5t32.5 13.5q18 0 31.5 -13.5t13.5 -31.5zM139 546
q0 -19 -13.5 -32.5t-31.5 -13.5q-19 0 -32.5 13.5t-13.5 32.5q0 18 13.5 31.5t32.5 13.5q18 0 31.5 -13.5t13.5 -31.5zM246 546q0 -19 -13.5 -32.5t-31.5 -13.5q-19 0 -32.5 13.5t-13.5 32.5q0 18 13.5 31.5t32.5 13.5q18 0 31.5 -13.5t13.5 -31.5zM15 0h-25v68h17
q51 0 80 38q25 34 25 90v222h70v-222q0 -65 32 -99q28 -29 73 -29h16v-68h-24q-88 0 -132 64q-45 -64 -132 -64z" />
    <glyph glyph-name="uniFB66" unicode="&#x679;" horiz-adv-x="874" arabic-form="isolated" 
d="M514 437h-191v41h49v150h44v-98q43 65 102 65q34 0 54.5 -22t20.5 -59q0 -77 -79 -77zM418 478h91q38 0 38 36t-38 36q-47 0 -91 -72zM602 0h-291q-123 0 -185 72q-46 55 -46 137q0 63 35 115q33 49 91 73l35 -53q-44 -21 -69 -56.5t-25 -78.5q0 -62 46 -103
q43 -38 109 -38h282q130 0 130 128v222h70v-230q0 -98 -57 -147q-47 -41 -125 -41z" />
    <glyph glyph-name="uniFB67" unicode="&#x679;" horiz-adv-x="896" arabic-form="final" 
d="M514 437h-191v41h49v150h44v-98q43 65 102 65q34 0 54.5 -22t20.5 -59q0 -77 -79 -77zM418 478h91q38 0 38 36t-38 36q-47 0 -91 -72zM602 0h-291q-123 0 -185 72q-46 55 -46 137q0 63 35 115q33 49 91 73l35 -53q-44 -21 -69 -56.5t-25 -78.5q0 -62 46 -103
q43 -38 109 -38h282q130 0 130 128v222h70v-222q0 -65 33 -99q27 -29 72 -29h17v-68h-25q-88 0 -132 65q-48 -65 -147 -65z" />
    <glyph glyph-name="uniFB68" unicode="&#x679;" horiz-adv-x="271" arabic-form="initial" 
d="M200 527h-191v41h49v150h44v-98q43 65 102 65q34 0 54 -22t20 -59q0 -77 -78 -77zM104 568h91q38 0 38 36t-38 36q-47 0 -91 -72zM15 0h-25v68h17q51 0 80 38q25 34 25 90v222h70v-230q0 -98 -56 -148q-44 -40 -111 -40z" />
    <glyph glyph-name="uniFB69" unicode="&#x679;" horiz-adv-x="293" arabic-form="medial" 
d="M203 527h-191v41h49v150h44v-98q43 65 102 65q34 0 54 -22t20 -59q0 -77 -78 -77zM107 568h91q38 0 38 36t-38 36q-47 0 -91 -72zM15 0h-25v68h17q51 0 80 38q25 34 25 90v222h70v-222q0 -65 32 -99q28 -29 73 -29h16v-68h-24q-88 0 -132 64q-45 -64 -132 -64z" />
    <glyph glyph-name="uniFB6A" unicode="&#x6a4;" horiz-adv-x="921" arabic-form="isolated" 
d="M709 643q0 -17 -12.5 -30t-29.5 -13t-30 13t-13 30t13 29.5t30 12.5t29.5 -12.5t12.5 -29.5zM658 546q0 -19 -14 -33t-33 -14q-18 0 -32 14t-14 33q0 18 14 32t32 14q19 0 33 -14t14 -32zM768 546q0 -19 -13.5 -33t-32.5 -14q-18 0 -32 14t-14 33q0 18 14 32t32 14
t32 -14t14 -32zM678 0h-367q-123 0 -185 72q-46 55 -46 137q0 63 35 115q33 49 91 73l35 -53q-44 -21 -69 -56.5t-25 -78.5q0 -62 46 -103q43 -38 109 -38h234q-43 57 -43 150q0 104 55 162q48 51 127 51q82 0 127 -52q39 -45 39 -117v-89q0 -83 -49 -131q-44 -42 -114 -42z
M563 217q0 -77 41 -118q31 -31 73 -31q95 0 95 113v73q0 53 -27 82q-25 27 -70 27q-58 0 -87 -45q-25 -38 -25 -101z" />
    <glyph glyph-name="uniFB6B" unicode="&#x6a4;" horiz-adv-x="949" arabic-form="final" 
d="M722 643q0 -17 -12.5 -30t-29.5 -13t-30 13t-13 30t13 29.5t30 12.5t29.5 -12.5t12.5 -29.5zM670 546q0 -19 -13.5 -33t-32.5 -14t-32.5 14t-13.5 33q0 18 14 32t32 14t32 -14t14 -32zM781 546q0 -19 -13.5 -33t-32.5 -14t-32.5 14t-13.5 33q0 18 14 32t32 14t32 -14
t14 -32zM617 0h-306q-123 0 -185 72q-46 55 -46 137q0 63 35 115q33 49 91 73l35 -53q-44 -21 -69 -56.5t-25 -78.5q0 -62 46 -103q43 -38 109 -38h270q-37 34 -58 80t-21 95q0 88 53 142q50 51 131 51q93 0 142 -64q41 -51 41 -129q0 -50 -20.5 -96.5t-57.5 -78.5h177v-68
h-223q-31 0 -59 7q-28 -7 -60 -7zM677 69q58 26 90 81q25 44 25 93q0 57 -33 92q-31 33 -82 33q-59 0 -90 -41q-24 -33 -24 -84q0 -54 33 -104q31 -47 81 -70z" />
    <glyph glyph-name="uniFB6C" unicode="&#x6a4;" horiz-adv-x="534" arabic-form="initial" 
d="M332 643q0 -17 -12.5 -30t-29.5 -13t-30 13t-13 30t13 29.5t30 12.5t29.5 -12.5t12.5 -29.5zM281 546q0 -19 -14 -33t-33 -14q-18 0 -32 14t-14 33q0 18 14 32t32 14q19 0 33 -14t14 -32zM392 546q0 -19 -14 -33t-33 -14q-18 0 -32 14t-14 33q0 18 14 32t32 14
q19 0 33 -14t14 -32zM290 0h-300v68h158q-43 57 -43 150q0 104 55 162q48 51 127 51q83 0 128 -52q39 -45 39 -117v-89q0 -83 -50 -130q-43 -42 -114 -43zM175 217q0 -77 41 -118q31 -31 73 -31q95 0 95 113v73q0 53 -27 82q-25 27 -70 27q-58 0 -87 -45q-25 -38 -25 -101z
" />
    <glyph glyph-name="uniFB6D" unicode="&#x6a4;" horiz-adv-x="544" arabic-form="medial" 
d="M314 643q0 -17 -12.5 -30t-29.5 -13t-29.5 13t-12.5 30t12.5 29.5t29.5 12.5t29.5 -12.5t12.5 -29.5zM263 546q0 -19 -14 -33t-32 -14q-19 0 -33 14t-14 33q0 18 14 32t33 14q18 0 32 -14t14 -32zM374 546q0 -19 -14 -33t-33 -14q-18 0 -32 14t-14 33q0 18 14 32t32 14
q19 0 33 -14t14 -32zM212 0h-222v68h177q-37 34 -58 80t-21 95q0 88 53 142q50 51 131 51q93 0 143 -64q41 -51 41 -129q0 -49 -21 -95.5t-58 -79.5h177v-68h-222q-32 0 -60 7q-28 -7 -60 -7zM272 69q58 26 90 81q25 44 25 93q0 57 -33 92q-30 33 -82 33q-59 0 -90 -41
q-24 -33 -24 -84q0 -54 33 -104q31 -47 81 -70z" />
    <glyph glyph-name="uniFB6E" unicode="&#x6a6;" horiz-adv-x="921" arabic-form="isolated" 
d="M659 657q0 -19 -13.5 -32.5t-32.5 -13.5q-18 0 -31.5 13.5t-13.5 32.5q0 18 13.5 31.5t31.5 13.5q19 0 32.5 -13.5t13.5 -31.5zM766 657q0 -19 -13.5 -32.5t-32.5 -13.5q-18 0 -31.5 13.5t-13.5 32.5q0 18 13.5 31.5t31.5 13.5q19 0 32.5 -13.5t13.5 -31.5zM659 546
q0 -19 -13.5 -32.5t-32.5 -13.5q-18 0 -31.5 13.5t-13.5 32.5q0 18 13.5 31.5t31.5 13.5q19 0 32.5 -13.5t13.5 -31.5zM766 546q0 -19 -13.5 -32.5t-32.5 -13.5q-18 0 -31.5 13.5t-13.5 32.5q0 18 13.5 31.5t31.5 13.5q19 0 32.5 -13.5t13.5 -31.5zM678 0h-367
q-123 0 -185 72q-46 55 -46 137q0 63 35 115q33 49 91 73l35 -53q-44 -21 -69 -56.5t-25 -78.5q0 -62 46 -103q43 -38 109 -38h234q-43 57 -43 150q0 104 55 162q48 51 127 51q82 0 127 -52q39 -45 39 -117v-89q0 -83 -49 -131q-44 -42 -114 -42zM563 217q0 -77 41 -118
q31 -31 73 -31q95 0 95 113v73q0 53 -27 82q-25 27 -70 27q-58 0 -87 -45q-25 -38 -25 -101z" />
    <glyph glyph-name="uniFB6F" unicode="&#x6a6;" horiz-adv-x="949" arabic-form="final" 
d="M671 657q0 -19 -13 -32.5t-32 -13.5t-32 13.5t-13 32.5q0 18 13.5 31.5t31.5 13.5t31.5 -13.5t13.5 -31.5zM778 657q0 -19 -13 -32.5t-32 -13.5t-32 13.5t-13 32.5q0 18 13.5 31.5t31.5 13.5t31.5 -13.5t13.5 -31.5zM671 546q0 -19 -13 -32.5t-32 -13.5t-32 13.5
t-13 32.5q0 18 13.5 31.5t31.5 13.5t31.5 -13.5t13.5 -31.5zM778 546q0 -19 -13 -32.5t-32 -13.5t-32 13.5t-13 32.5q0 18 13.5 31.5t31.5 13.5t31.5 -13.5t13.5 -31.5zM617 0h-306q-123 0 -185 72q-46 55 -46 137q0 63 35 115q33 49 91 73l35 -53q-44 -21 -69 -56.5
t-25 -78.5q0 -62 46 -103q43 -38 109 -38h270q-37 34 -58 80t-21 95q0 88 53 142q50 51 131 51q93 0 142 -64q41 -51 41 -129q0 -50 -20.5 -96.5t-57.5 -78.5h177v-68h-223q-31 0 -59 7q-28 -7 -60 -7zM677 69q58 26 90 81q25 44 25 93q0 57 -33 92q-31 33 -82 33
q-59 0 -90 -41q-24 -33 -24 -84q0 -54 33 -104q31 -47 81 -70z" />
    <glyph glyph-name="uniFB70" unicode="&#x6a6;" horiz-adv-x="534" arabic-form="initial" 
d="M282 657q0 -19 -13.5 -32.5t-32.5 -13.5q-18 0 -31.5 13.5t-13.5 32.5q0 18 13.5 31.5t31.5 13.5q19 0 32.5 -13.5t13.5 -31.5zM389 657q0 -19 -13.5 -32.5t-32.5 -13.5q-18 0 -31.5 13.5t-13.5 32.5q0 18 13.5 31.5t31.5 13.5q19 0 32.5 -13.5t13.5 -31.5zM282 546
q0 -19 -13.5 -32.5t-32.5 -13.5q-18 0 -31.5 13.5t-13.5 32.5q0 18 13.5 31.5t31.5 13.5q19 0 32.5 -13.5t13.5 -31.5zM389 546q0 -19 -13.5 -32.5t-32.5 -13.5q-18 0 -31.5 13.5t-13.5 32.5q0 18 13.5 31.5t31.5 13.5q19 0 32.5 -13.5t13.5 -31.5zM290 0h-300v68h158
q-43 57 -43 150q0 104 55 162q48 51 127 51q83 0 128 -52q39 -45 39 -117v-89q0 -83 -50 -130q-43 -42 -114 -43zM175 217q0 -77 41 -118q31 -31 73 -31q95 0 95 113v73q0 53 -27 82q-25 27 -70 27q-58 0 -87 -45q-25 -38 -25 -101z" />
    <glyph glyph-name="uniFB71" unicode="&#x6a6;" horiz-adv-x="544" arabic-form="medial" 
d="M264 657q0 -19 -13.5 -32.5t-31.5 -13.5q-19 0 -32.5 13.5t-13.5 32.5q0 18 13.5 31.5t32.5 13.5q18 0 31.5 -13.5t13.5 -31.5zM371 657q0 -19 -13.5 -32.5t-32.5 -13.5q-18 0 -31.5 13.5t-13.5 32.5q0 18 13.5 31.5t31.5 13.5q19 0 32.5 -13.5t13.5 -31.5zM264 546
q0 -19 -13.5 -32.5t-31.5 -13.5q-19 0 -32.5 13.5t-13.5 32.5q0 18 13.5 31.5t32.5 13.5q18 0 31.5 -13.5t13.5 -31.5zM371 546q0 -19 -13.5 -32.5t-32.5 -13.5q-18 0 -31.5 13.5t-13.5 32.5q0 18 13.5 31.5t31.5 13.5q19 0 32.5 -13.5t13.5 -31.5zM212 0h-222v68h177
q-37 34 -58 80t-21 95q0 88 53 142q50 51 131 51q93 0 143 -64q41 -51 41 -129q0 -49 -21 -95.5t-58 -79.5h177v-68h-222q-32 0 -60 7q-28 -7 -60 -7zM272 69q58 26 90 81q25 44 25 93q0 57 -33 92q-30 33 -82 33q-59 0 -90 -41q-24 -33 -24 -84q0 -54 33 -104
q31 -47 81 -70z" />
    <glyph glyph-name="uniFB72" unicode="&#x684;" horiz-adv-x="583" arabic-form="isolated" 
d="M504 -311q-86 -57 -185 -57q-113 0 -184 75q-65 70 -65 178q0 153 119 241q104 76 285 94q-86 121 -183 121q-75 0 -144 -69l-43 48q81 88 187 88q86 0 160 -61q65 -54 102 -142v-42q-212 -10 -321 -95q-92 -71 -92 -184q0 -92 63 -143q51 -41 126 -41q77 0 145 43z
M391 -44q0 -19 -13.5 -32.5t-32.5 -13.5q-18 0 -31.5 13.5t-13.5 32.5q0 18 13.5 31.5t31.5 13.5q19 0 32.5 -13.5t13.5 -31.5zM391 -146q0 -19 -13.5 -32.5t-32.5 -13.5q-18 0 -31.5 13.5t-13.5 32.5q0 18 13.5 31.5t31.5 13.5q19 0 32.5 -13.5t13.5 -31.5z" />
    <glyph glyph-name="uniFB73" unicode="&#x684;" horiz-adv-x="671" arabic-form="final" 
d="M504 -311q-86 -57 -185 -57q-113 0 -184 75q-65 70 -65 178q0 153 119 241q104 76 285 94q-86 121 -183 121q-75 0 -144 -69l-43 48q81 88 187 88q86 0 160 -61q65 -54 102 -142v-42q-56 -3 -96 -10q21 -46 67 -65.5t132 -19.5h25v-68h-30q-112 0 -175 38q-55 34 -83 103
q-132 -33 -197 -106q-56 -64 -56 -151q0 -92 63 -143q51 -41 126 -41q77 0 145 43zM383 -49q0 -18 -13.5 -31.5t-31.5 -13.5q-19 0 -32.5 13t-13.5 32t13.5 32t32.5 13q18 0 31.5 -13.5t13.5 -31.5zM383 -151q0 -19 -13.5 -32.5t-31.5 -13.5q-19 0 -32.5 13.5t-13.5 32.5
q0 18 13.5 31.5t32.5 13.5q18 0 31.5 -13.5t13.5 -31.5z" />
    <glyph glyph-name="uniFB74" unicode="&#x684;" horiz-adv-x="556" arabic-form="initial" 
d="M126 0h-136v68h127q128 0 200 38q55 28 119 101q-89 134 -192 134q-75 0 -144 -69l-43 48q81 88 187 88q86 0 160 -61q65 -54 102 -142v-16q-46 -60 -82 -93t-77 -53q-84 -43 -221 -43zM294 -123q0 -18 -13.5 -31.5t-31.5 -13.5q-19 0 -32.5 13.5t-13.5 31.5
q0 19 13.5 32.5t32.5 13.5q18 0 31.5 -13.5t13.5 -32.5zM294 -225q0 -18 -13.5 -31.5t-31.5 -13.5q-19 0 -32.5 13t-13.5 32t13.5 32t32.5 13q18 0 31.5 -13.5t13.5 -31.5z" />
    <glyph glyph-name="uniFB75" unicode="&#x684;" horiz-adv-x="671" arabic-form="medial" 
d="M126 0h-136v68h127q128 0 200 38q55 28 119 101q-89 134 -192 134q-75 0 -144 -69l-43 48q81 88 187 88q86 0 160 -61q65 -54 102 -142v-16q-11 -15 -36 -45l-5 -6q22 -37 66.5 -53.5t123.5 -16.5h26v-68h-31q-91 0 -149 25q-51 22 -82 66q-55 -48 -123.5 -69.5
t-169.5 -21.5zM321 -123q0 -18 -13.5 -31.5t-31.5 -13.5q-19 0 -32.5 13.5t-13.5 31.5q0 19 13.5 32.5t32.5 13.5q18 0 31.5 -13.5t13.5 -32.5zM321 -225q0 -18 -13.5 -31.5t-31.5 -13.5q-19 0 -32.5 13t-13.5 32t13.5 32t32.5 13q18 0 31.5 -13.5t13.5 -31.5z" />
    <glyph glyph-name="uniFB76" unicode="&#x683;" horiz-adv-x="583" arabic-form="isolated" 
d="M504 -311q-86 -57 -185 -57q-113 0 -184 75q-65 70 -65 178q0 153 119 241q104 76 285 94q-86 121 -183 121q-75 0 -144 -69l-43 48q81 88 187 88q86 0 160 -61q65 -54 102 -142v-42q-212 -10 -321 -95q-92 -71 -92 -184q0 -92 63 -143q51 -41 126 -41q77 0 145 43z
M344 -116q0 -18 -14 -32t-33 -14q-18 0 -32 14t-14 32q0 19 14 33t32 14q19 0 33 -14t14 -33zM454 -116q0 -18 -14 -32t-32 -14t-32 14t-14 32q0 19 14 33t32 14q19 0 32.5 -14t13.5 -33z" />
    <glyph glyph-name="uniFB77" unicode="&#x683;" horiz-adv-x="671" arabic-form="final" 
d="M504 -311q-86 -57 -185 -57q-113 0 -184 75q-65 70 -65 178q0 153 119 241q104 76 285 94q-86 121 -183 121q-75 0 -144 -69l-43 48q81 88 187 88q86 0 160 -61q65 -54 102 -142v-42q-56 -3 -96 -10q21 -46 67 -65.5t132 -19.5h25v-68h-30q-112 0 -175 38q-55 34 -83 103
q-132 -33 -197 -106q-56 -64 -56 -151q0 -92 63 -143q51 -41 126 -41q77 0 145 43zM344 -116q0 -18 -14 -32t-33 -14q-18 0 -32 14t-14 32q0 19 14 33t32 14q19 0 33 -14t14 -33zM454 -116q0 -18 -14 -32t-32 -14t-32 14t-14 32q0 19 14 33t32 14q19 0 32.5 -14t13.5 -33z
" />
    <glyph glyph-name="uniFB78" unicode="&#x683;" horiz-adv-x="556" arabic-form="initial" 
d="M126 0h-136v68h127q128 0 200 38q55 28 119 101q-89 134 -192 134q-75 0 -144 -69l-43 48q81 88 187 88q86 0 160 -61q65 -54 102 -142v-16q-46 -60 -82 -93t-77 -53q-84 -43 -221 -43zM237 -124q0 -18 -14 -32t-33 -14q-18 0 -32 14t-14 32q0 19 14 33t32 14
q19 0 33 -14t14 -33zM347 -124q0 -18 -14 -32t-32 -14t-32 14t-14 32q0 19 14 33t32 14q19 0 32.5 -14t13.5 -33z" />
    <glyph glyph-name="uniFB79" unicode="&#x683;" horiz-adv-x="671" arabic-form="medial" 
d="M126 0h-136v68h127q128 0 200 38q55 28 119 101q-89 134 -192 134q-75 0 -144 -69l-43 48q81 88 187 88q86 0 160 -61q65 -54 102 -142v-16q-11 -15 -36 -45l-5 -6q22 -37 66.5 -53.5t123.5 -16.5h26v-68h-31q-91 0 -149 25q-51 22 -82 66q-55 -48 -123.5 -69.5
t-169.5 -21.5zM248 -124q0 -18 -14 -32t-33 -14q-18 0 -32 14t-14 32q0 19 14 33t32 14q19 0 33 -14t14 -33zM359 -124q0 -18 -14 -32t-33 -14q-18 0 -32 14t-14 32q0 19 14 33t32 14q19 0 33 -14t14 -33z" />
    <glyph glyph-name="uniFB7A" unicode="&#x686;" horiz-adv-x="583" arabic-form="isolated" 
d="M474 -257l30 -54q-86 -57 -185 -57q-113 0 -184 75q-65 70 -65 178q0 153 119 241q104 76 285 94q-86 121 -183 121q-75 0 -144 -69l-43 48q81 88 187 88q86 0 160 -61q65 -54 102 -142v-42q-212 -10 -321 -95q-92 -71 -92 -184q0 -92 63 -143q51 -41 126 -41
q77 0 145 43zM351 -45q0 -17 -13 -30t-30 -13t-29.5 13t-12.5 30t12.5 29.5t29.5 12.5t30 -12.5t13 -29.5zM463 -45q0 -17 -12.5 -30t-29.5 -13t-29.5 13t-12.5 30t12.5 29.5t29.5 12.5t29.5 -12.5t12.5 -29.5zM411 -136q0 -19 -14 -33t-32 -14q-19 0 -33 14t-14 33
q0 18 14 32t33 14q18 0 32 -14t14 -32z" />
    <glyph glyph-name="uniFB7B" unicode="&#x686;" horiz-adv-x="671" arabic-form="final" 
d="M504 -311q-86 -57 -185 -57q-113 0 -184 75q-65 70 -65 178q0 153 119 241q104 76 285 94q-86 121 -183 121q-75 0 -144 -69l-43 48q81 88 187 88q86 0 160 -61q65 -54 102 -142v-42q-56 -3 -96 -10q21 -46 67 -65.5t132 -19.5h25v-68h-30q-112 0 -175 38q-55 34 -83 103
q-132 -33 -197 -106q-56 -64 -56 -151q0 -92 63 -143q51 -41 126 -41q77 0 145 43zM341 -69q0 -16 -12.5 -28.5t-29.5 -12.5q-16 0 -28 12.5t-12 28.5t12 28t28 12q17 0 29.5 -12t12.5 -28zM449 -69q0 -17 -12 -29t-29 -12q-16 0 -28.5 12.5t-12.5 28.5t12.5 28t28.5 12
t28.5 -12t12.5 -28zM398 -157q0 -18 -13 -31t-31 -13t-31.5 13t-13.5 31t13.5 31t31.5 13t31 -13t13 -31z" />
    <glyph glyph-name="uniFB7C" unicode="&#x686;" horiz-adv-x="556" arabic-form="initial" 
d="M126 0h-136v68h127q128 0 200 38q55 28 119 101q-89 134 -192 134q-75 0 -144 -69l-43 48q81 88 187 88q86 0 160 -61q65 -54 102 -142v-16q-46 -60 -82 -93t-77 -53q-84 -43 -221 -43zM240 -124q0 -18 -14 -32t-33 -14q-18 0 -32 14t-14 32q0 19 14 33t32 14
q19 0 33 -14t14 -33zM350 -124q0 -18 -14 -32t-32 -14t-32 14t-14 32q0 19 13.5 33t32.5 14t32.5 -14t13.5 -33zM291 -221q0 -17 -12.5 -29.5t-29.5 -12.5t-30 12.5t-13 29.5t13 30t30 13t29.5 -13t12.5 -30z" />
    <glyph glyph-name="uniFB7D" unicode="&#x686;" horiz-adv-x="671" arabic-form="medial" 
d="M126 0h-136v68h127q128 0 200 38q55 28 119 101q-89 134 -192 134q-75 0 -144 -69l-43 48q81 88 187 88q86 0 160 -61q65 -54 102 -142v-16q-11 -15 -36 -45l-5 -6q22 -37 66.5 -53.5t123.5 -16.5h26v-68h-31q-91 0 -149 25q-51 22 -82 66q-55 -48 -123.5 -69.5
t-169.5 -21.5zM267 -124q0 -18 -14 -32t-33 -14q-18 0 -32 14t-14 32q0 19 14 33t32 14q19 0 33 -14t14 -33zM377 -124q0 -18 -14 -32t-32 -14t-32 14t-14 32q0 19 13.5 33t32.5 14t32.5 -14t13.5 -33zM318 -221q0 -17 -12.5 -29.5t-29.5 -12.5t-30 12.5t-13 29.5t13 30
t30 13t29.5 -13t12.5 -30z" />
    <glyph glyph-name="uniFB7E" unicode="&#x687;" horiz-adv-x="583" arabic-form="isolated" 
d="M504 -311q-86 -57 -185 -57q-113 0 -184 75q-65 70 -65 178q0 153 119 241q104 76 285 94q-86 121 -183 121q-75 0 -144 -69l-43 48q81 88 187 88q86 0 160 -61q65 -54 102 -142v-42q-212 -10 -321 -95q-92 -71 -92 -184q0 -92 63 -143q51 -41 126 -41q77 0 145 43z
M355 -34q0 -17 -12 -29.5t-29 -12.5t-29 12.5t-12 29.5t12 29t29 12t29 -12t12 -29zM453 -34q0 -17 -12.5 -29.5t-29.5 -12.5t-29 12.5t-12 29.5t12 29t29 12t29.5 -12t12.5 -29zM355 -130q0 -17 -12 -29t-29 -12t-29 12t-12 29t12 29.5t29 12.5t29 -12.5t12 -29.5z
M453 -130q0 -17 -12.5 -29t-29.5 -12t-29 12t-12 29t12 29.5t29 12.5t29.5 -12.5t12.5 -29.5z" />
    <glyph glyph-name="uniFB7F" unicode="&#x687;" horiz-adv-x="671" arabic-form="final" 
d="M504 -311q-86 -57 -185 -57q-113 0 -184 75q-65 70 -65 178q0 153 119 241q104 76 285 94q-86 121 -183 121q-75 0 -144 -69l-43 48q81 88 187 88q86 0 160 -61q65 -54 102 -142v-42q-56 -3 -96 -10q21 -46 67 -65.5t132 -19.5h25v-68h-30q-112 0 -175 38q-55 34 -83 103
q-132 -33 -197 -106q-56 -64 -56 -151q0 -92 63 -143q51 -41 126 -41q77 0 145 43zM338 -56q0 -17 -12 -29t-29 -12t-29.5 12t-12.5 29t12.5 29.5t29.5 12.5t29 -12.5t12 -29.5zM435 -56q0 -17 -12 -29t-29 -12t-29.5 12t-12.5 29t12.5 29.5t29.5 12.5t29 -12.5t12 -29.5z
M338 -151q0 -17 -12 -29.5t-29 -12.5t-29.5 12.5t-12.5 29.5t12.5 29t29.5 12t29 -12t12 -29zM435 -151q0 -17 -12 -29.5t-29 -12.5t-29.5 12.5t-12.5 29.5t12.5 29t29.5 12t29 -12t12 -29z" />
    <glyph glyph-name="uniFB80" unicode="&#x687;" horiz-adv-x="556" arabic-form="initial" 
d="M126 0h-136v68h127q128 0 200 38q55 28 119 101q-89 134 -192 134q-75 0 -144 -69l-43 48q81 88 187 88q86 0 160 -61q65 -54 102 -142v-16q-46 -60 -82 -93t-77 -53q-84 -43 -221 -43zM241 -123q0 -18 -13.5 -31.5t-32.5 -13.5q-18 0 -31.5 13.5t-13.5 31.5
q0 19 13.5 32.5t31.5 13.5q19 0 32.5 -13.5t13.5 -32.5zM347 -123q0 -18 -13.5 -31.5t-31.5 -13.5t-31.5 13.5t-13.5 31.5q0 19 13.5 32.5t31.5 13.5q19 0 32 -13.5t13 -32.5zM241 -228q0 -19 -13.5 -32t-32.5 -13q-18 0 -31.5 13.5t-13.5 31.5t13.5 31.5t31.5 13.5
q19 0 32.5 -13t13.5 -32zM347 -228q0 -19 -13 -32t-32 -13q-18 0 -31.5 13.5t-13.5 31.5t13.5 31.5t31.5 13.5q19 0 32 -13t13 -32z" />
    <glyph glyph-name="uniFB81" unicode="&#x687;" horiz-adv-x="671" arabic-form="medial" 
d="M126 0h-136v68h127q128 0 200 38q55 28 119 101q-89 134 -192 134q-75 0 -144 -69l-43 48q81 88 187 88q86 0 160 -61q65 -54 102 -142v-16q-11 -15 -36 -45l-5 -6q22 -37 66.5 -53.5t123.5 -16.5h26v-68h-31q-91 0 -149 25q-51 22 -82 66q-55 -48 -123.5 -69.5
t-169.5 -21.5zM268 -123q0 -18 -13.5 -31.5t-32.5 -13.5q-18 0 -31.5 13.5t-13.5 31.5q0 19 13.5 32.5t31.5 13.5q19 0 32.5 -13.5t13.5 -32.5zM374 -123q0 -18 -13.5 -31.5t-31.5 -13.5t-31.5 13.5t-13.5 31.5q0 19 13.5 32.5t31.5 13.5q19 0 32 -13.5t13 -32.5zM268 -228
q0 -19 -13.5 -32t-32.5 -13q-18 0 -31.5 13.5t-13.5 31.5t13.5 31.5t31.5 13.5q19 0 32.5 -13t13.5 -32zM374 -228q0 -19 -13 -32t-32 -13q-18 0 -31.5 13.5t-13.5 31.5t13.5 31.5t31.5 13.5q19 0 32 -13t13 -32z" />
    <glyph glyph-name="uniFB82" unicode="&#x68d;" horiz-adv-x="456" arabic-form="isolated" 
d="M221 0h-201v68h182q109 0 109 94q0 56 -33 111t-94 100l41 56q79 -59 120 -133q36 -66 36 -133q0 -163 -160 -163zM209 -124q0 -18 -14 -32t-33 -14q-18 0 -32 14t-14 32q0 19 14 33t32 14q19 0 33 -14t14 -33zM320 -124q0 -18 -14 -32t-33 -14q-18 0 -32 14t-14 32
q0 19 14 33t32 14q19 0 33 -14t14 -33z" />
    <glyph glyph-name="uniFB83" unicode="&#x68d;" horiz-adv-x="491" arabic-form="final" 
d="M221 0h-201v68h182q109 0 109 94q0 56 -33 111t-94 100l41 56q79 -58 120 -131q36 -64 36 -131q0 -49 34 -77q28 -22 69 -22h17v-68h-25q-80 0 -125 54q-41 -54 -130 -54zM232 -124q0 -18 -14 -32t-33 -14q-18 0 -32 14t-14 32q0 19 14 33t32 14q19 0 33 -14t14 -33z
M343 -124q0 -18 -14 -32t-33 -14q-18 0 -32 14t-14 32q0 19 14 33t32 14q19 0 33 -14t14 -33z" />
    <glyph glyph-name="uniFB84" unicode="&#x68c;" horiz-adv-x="456" arabic-form="isolated" 
d="M191 546q0 -19 -13.5 -33t-32.5 -14q-18 0 -32 14t-14 33q0 18 14 32t32 14t32 -14t14 -32zM302 546q0 -19 -13.5 -33t-32.5 -14t-32.5 14t-13.5 33q0 18 14 32t32 14t32 -14t14 -32zM221 0h-201v68h182q109 0 109 94q0 56 -33 111t-94 100l41 56q79 -59 120 -133
q36 -66 36 -133q0 -163 -160 -163z" />
    <glyph glyph-name="uniFB85" unicode="&#x68c;" horiz-adv-x="491" arabic-form="final" 
d="M186 546q0 -19 -14 -33t-32 -14q-19 0 -33 14t-14 33q0 18 14 32t33 14q18 0 32 -14t14 -32zM297 546q0 -19 -14 -33t-33 -14q-18 0 -32 14t-14 33q0 18 14 32t32 14q19 0 33 -14t14 -32zM221 0h-201v68h182q109 0 109 94q0 56 -33 111t-94 100l41 56q79 -58 120 -131
q36 -64 36 -131q0 -49 34 -77q28 -22 69 -22h17v-68h-25q-80 0 -125 54q-41 -54 -130 -54z" />
    <glyph glyph-name="uniFB86" unicode="&#x68e;" horiz-adv-x="456" arabic-form="isolated" 
d="M243 643q0 -17 -12.5 -30t-29.5 -13t-30 13t-13 30t13 29.5t30 12.5t29.5 -12.5t12.5 -29.5zM191 546q0 -19 -13.5 -33t-32.5 -14q-18 0 -32 14t-14 33q0 18 14 32t32 14t32 -14t14 -32zM302 546q0 -19 -13.5 -33t-32.5 -14t-32.5 14t-13.5 33q0 18 14 32t32 14t32 -14
t14 -32zM221 0h-201v68h182q109 0 109 94q0 56 -33 111t-94 100l41 56q79 -59 120 -133q36 -66 36 -133q0 -163 -160 -163z" />
    <glyph glyph-name="uniFB87" unicode="&#x68e;" horiz-adv-x="491" arabic-form="final" 
d="M237 643q0 -17 -12.5 -30t-29.5 -13t-29.5 13t-12.5 30t12.5 29.5t29.5 12.5t29.5 -12.5t12.5 -29.5zM186 546q0 -19 -14 -33t-32 -14q-19 0 -33 14t-14 33q0 18 14 32t33 14q18 0 32 -14t14 -32zM297 546q0 -19 -14 -33t-33 -14q-18 0 -32 14t-14 33q0 18 14 32t32 14
q19 0 33 -14t14 -32zM221 0h-201v68h182q109 0 109 94q0 56 -33 111t-94 100l41 56q79 -58 120 -131q36 -64 36 -131q0 -49 34 -77q28 -22 69 -22h17v-68h-25q-80 0 -125 54q-41 -54 -130 -54z" />
    <glyph glyph-name="uniFB88" unicode="&#x688;" horiz-adv-x="456" arabic-form="isolated" 
d="M256 527h-191v41h49v150h44v-98q45 65 102 65q34 0 54.5 -22t20.5 -59q0 -77 -79 -77zM160 568h91q39 0 39 36t-39 36q-47 0 -91 -72zM221 0h-201v68h182q109 0 109 94q0 56 -33 111t-94 100l41 56q79 -59 120 -133q36 -66 36 -133q0 -163 -160 -163z" />
    <glyph glyph-name="uniFB89" unicode="&#x688;" horiz-adv-x="491" arabic-form="final" 
d="M251 527h-191v41h49v150h44v-98q43 65 102 65q33 0 53.5 -22.5t20.5 -58.5q0 -77 -78 -77zM155 568h91q38 0 38 36t-38 36q-47 0 -91 -72zM221 0h-201v68h182q109 0 109 94q0 56 -33 111t-94 100l41 56q79 -58 120 -131q36 -64 36 -131q0 -49 34 -77q28 -22 69 -22h17
v-68h-25q-80 0 -125 54q-41 -54 -130 -54z" />
    <glyph glyph-name="uniFB8A" unicode="&#x698;" horiz-adv-x="343" arabic-form="isolated" 
d="M261 643q0 -17 -12.5 -30t-29.5 -13t-30 13t-13 30t13 29.5t30 12.5t29.5 -12.5t12.5 -29.5zM210 546q0 -19 -14 -33t-33 -14q-18 0 -32 14t-14 33q0 18 14 32t32 14q19 0 33 -14t14 -32zM320 546q0 -19 -13.5 -33t-32.5 -14t-32.5 14t-13.5 33q0 18 14 32t32 14t32 -14
t14 -32zM253 418v-396q0 -111 -58 -167q-47 -45 -124 -45q-58 0 -121 31l20 61q50 -25 94 -25q59 0 90 39q29 36 29 102v400h70z" />
    <glyph glyph-name="uniFB8B" unicode="&#x698;" horiz-adv-x="365" arabic-form="final" 
d="M257 643q0 -17 -12.5 -30t-29.5 -13t-30 13t-13 30t13 29.5t30 12.5t29.5 -12.5t12.5 -29.5zM206 546q0 -19 -14 -33t-33 -14q-18 0 -32 14t-14 33q0 18 14 32t32 14q19 0 33 -14t14 -32zM317 546q0 -19 -14 -33t-33 -14q-18 0 -32 14t-14 33q0 18 14 32t32 14
q19 0 33 -14t14 -32zM253 29v-13q-3 -107 -57 -160q-47 -46 -125 -46q-58 0 -121 31l20 61q50 -25 94 -25q59 0 90 39q29 36 29 102v400h70v-222q0 -65 33 -99q27 -29 72 -29h17v-68h-25q-58 0 -97 29z" />
    <glyph glyph-name="uniFB8C" unicode="&#x691;" horiz-adv-x="343" arabic-form="isolated" 
d="M274 527h-191v41h49v150h45v-98q20 30 47 47.5t54 17.5q34 0 54.5 -22t20.5 -59q0 -77 -79 -77zM179 568h91q38 0 38 36t-38 36q-49 0 -91 -72zM253 418v-396q0 -111 -58 -167q-47 -45 -124 -45q-58 0 -121 31l20 61q50 -25 94 -25q59 0 90 39q29 36 29 102v400h70z" />
    <glyph glyph-name="uniFB8D" unicode="&#x691;" horiz-adv-x="365" arabic-form="final" 
d="M271 527h-191v41h48v150h45v-98q20 30 47 47.5t54 17.5q34 0 54.5 -22t20.5 -59q0 -77 -78 -77zM175 568h91q38 0 38 36t-38 36q-49 0 -91 -72zM253 29v-13q-3 -107 -57 -160q-47 -46 -125 -46q-58 0 -121 31l20 61q50 -25 94 -25q59 0 90 39q29 36 29 102v400h70v-222
q0 -65 33 -99q27 -29 72 -29h17v-68h-25q-58 0 -97 29z" />
    <glyph glyph-name="uniFB8E" unicode="&#x6a9;" horiz-adv-x="921" arabic-form="isolated" 
d="M546 377h141q184 0 184 -188v-1q0 -99 -57 -147q-48 -41 -129 -41h-384q-119 0 -176 60q-45 48 -45 130q0 70 35 123q33 50 90 75l36 -54q-91 -44 -91 -142q0 -63 45 -95q39 -29 105 -29h371q131 0 131 128v2q0 61 -29 86q-28 25 -88 25h-222v66l218 226l40 -40z" />
    <glyph glyph-name="uniFB8F" unicode="&#x6a9;" horiz-adv-x="982" arabic-form="final" 
d="M685 0h-384q-119 0 -176 60q-45 48 -45 130q0 70 35 123q33 50 90 75l36 -54q-91 -44 -91 -142q0 -63 45 -95q39 -29 105 -29h371q131 0 131 128v2q0 61 -29 86q-28 25 -88 25h-222v66l218 226l40 -40l-175 -184h141q184 0 184 -188v-3q0 -58 33 -90q28 -28 71 -28h17
v-68h-25q-87 0 -133 64q-48 -64 -149 -64z" />
    <glyph glyph-name="uniFB90" unicode="&#x6a9;" horiz-adv-x="551" arabic-form="initial" 
d="M315 0h-325v68h311q130 0 130 128v2q0 61 -29 86q-27 25 -87 25h-263v66l218 226l40 -40l-176 -184h183q184 0 184 -188v-1q0 -98 -58 -147q-48 -41 -128 -41z" />
    <glyph glyph-name="uniFB91" unicode="&#x6a9;" horiz-adv-x="612" arabic-form="medial" 
d="M315 0h-325v68h311q130 0 130 127v3q0 61 -29 86q-27 25 -87 25h-263v66l218 226l40 -40l-176 -184h183q184 0 184 -177v-4q0 -65 33 -99q27 -29 71 -29h17v-68h-25q-85 0 -132 64q-48 -64 -150 -64z" />
    <glyph glyph-name="uniFB92" unicode="&#x6af;" horiz-adv-x="921" arabic-form="isolated" 
d="M452 424l-32 34l187 200l32 -33zM546 377h141q184 0 184 -188v-1q0 -99 -57 -147q-48 -41 -129 -41h-384q-119 0 -176 60q-45 48 -45 130q0 70 35 123q33 50 90 75l36 -54q-91 -44 -91 -142q0 -63 45 -95q39 -29 105 -29h371q131 0 131 128v2q0 61 -29 86q-28 25 -88 25
h-222v66l218 226l40 -40z" />
    <glyph glyph-name="uniFB93" unicode="&#x6af;" horiz-adv-x="982" arabic-form="final" 
d="M452 424l-32 34l187 200l32 -33zM685 0h-384q-119 0 -176 60q-45 48 -45 130q0 70 35 123q33 50 90 75l36 -54q-91 -44 -91 -142q0 -63 45 -95q39 -29 105 -29h371q131 0 131 128v2q0 61 -29 86q-28 25 -88 25h-222v66l218 226l40 -40l-175 -184h141q184 0 184 -188v-3
q0 -58 33 -90q28 -28 71 -28h17v-68h-25q-87 0 -133 64q-48 -64 -149 -64z" />
    <glyph glyph-name="uniFB94" unicode="&#x6af;" horiz-adv-x="551" arabic-form="initial" 
d="M41 424l-32 34l187 200l32 -33zM315 0h-325v68h311q130 0 130 128v2q0 61 -29 86q-27 25 -87 25h-263v66l218 226l40 -40l-176 -184h183q184 0 184 -188v-1q0 -98 -58 -147q-48 -41 -128 -41z" />
    <glyph glyph-name="uniFB95" unicode="&#x6af;" horiz-adv-x="612" arabic-form="medial" 
d="M41 424l-32 34l187 200l32 -33zM315 0h-325v68h311q130 0 130 127v3q0 61 -29 86q-27 25 -87 25h-263v66l218 226l40 -40l-176 -184h183q184 0 184 -177v-4q0 -65 33 -99q27 -29 71 -29h17v-68h-25q-85 0 -132 64q-48 -64 -150 -64z" />
    <glyph glyph-name="uniFB96" unicode="&#x6b3;" horiz-adv-x="921" arabic-form="isolated" 
d="M452 424l-32 34l187 200l32 -33zM546 377h141q184 0 184 -188v-1q0 -99 -57 -147q-48 -41 -129 -41h-384q-119 0 -176 60q-45 48 -45 130q0 70 35 123q33 50 90 75l36 -54q-91 -44 -91 -142q0 -63 45 -95q39 -29 105 -29h371q131 0 131 128v2q0 61 -29 86q-28 25 -88 25
h-222v66l218 226l40 -40zM528 -123q0 -18 -13.5 -31.5t-32.5 -13.5q-18 0 -31.5 13.5t-13.5 31.5q0 19 13.5 32.5t31.5 13.5q19 0 32.5 -13.5t13.5 -32.5zM528 -225q0 -19 -13.5 -32t-32.5 -13q-18 0 -31.5 13.5t-13.5 31.5t13.5 31.5t31.5 13.5q19 0 32.5 -13t13.5 -32z
" />
    <glyph glyph-name="uniFB97" unicode="&#x6b3;" horiz-adv-x="982" arabic-form="final" 
d="M452 424l-32 34l187 200l32 -33zM685 0h-384q-119 0 -176 60q-45 48 -45 130q0 70 35 123q33 50 90 75l36 -54q-91 -44 -91 -142q0 -63 45 -95q39 -29 105 -29h371q131 0 131 128v2q0 61 -29 86q-28 25 -88 25h-222v66l218 226l40 -40l-175 -184h141q184 0 184 -188v-3
q0 -58 33 -90q28 -28 71 -28h17v-68h-25q-87 0 -133 64q-48 -64 -149 -64zM528 -123q0 -18 -13.5 -31.5t-32.5 -13.5q-18 0 -31.5 13.5t-13.5 31.5q0 19 13.5 32.5t31.5 13.5q19 0 32.5 -13.5t13.5 -32.5zM528 -225q0 -19 -13.5 -32t-32.5 -13q-18 0 -31.5 13.5t-13.5 31.5
t13.5 31.5t31.5 13.5q19 0 32.5 -13t13.5 -32z" />
    <glyph glyph-name="uniFB98" unicode="&#x6b3;" horiz-adv-x="551" arabic-form="initial" 
d="M41 424l-32 34l187 200l32 -33zM315 0h-325v68h311q130 0 130 128v2q0 61 -29 86q-27 25 -87 25h-263v66l218 226l40 -40l-176 -184h183q184 0 184 -188v-1q0 -98 -58 -147q-48 -41 -128 -41zM233 -123q0 -18 -13.5 -31.5t-31.5 -13.5t-31.5 13.5t-13.5 31.5
q0 19 13 32.5t32 13.5t32 -13.5t13 -32.5zM233 -225q0 -19 -13 -32t-32 -13t-32 13t-13 32t13 32t32 13t32 -13t13 -32z" />
    <glyph glyph-name="uniFB99" unicode="&#x6b3;" horiz-adv-x="612" arabic-form="medial" 
d="M41 424l-32 34l187 200l32 -33zM315 0h-325v68h311q130 0 130 127v3q0 61 -29 86q-27 25 -87 25h-263v66l218 226l40 -40l-176 -184h183q184 0 184 -177v-4q0 -65 33 -99q27 -29 71 -29h17v-68h-25q-85 0 -132 64q-48 -64 -150 -64zM253 -123q0 -18 -13.5 -31.5
t-31.5 -13.5t-31.5 13.5t-13.5 31.5q0 19 13 32.5t32 13.5t32 -13.5t13 -32.5zM253 -225q0 -19 -13 -32t-32 -13t-32 13t-13 32t13 32t32 13t32 -13t13 -32z" />
    <glyph glyph-name="uniFB9A" unicode="&#x6b1;" horiz-adv-x="921" arabic-form="isolated" 
d="M409 662q0 -18 -14 -32t-32 -14q-19 0 -32.5 13.5t-13.5 32.5q0 18 14 32t32 14t32 -14t14 -32zM520 662q0 -18 -14 -32t-32 -14q-19 0 -33 13.5t-14 32.5q0 18 14 32t33 14q18 0 32 -14t14 -32zM452 424l-32 34l187 200l32 -33zM546 377h141q184 0 184 -188v-1
q0 -99 -57 -147q-48 -41 -129 -41h-384q-119 0 -176 60q-45 48 -45 130q0 70 35 123q33 50 90 75l36 -54q-91 -44 -91 -142q0 -63 45 -95q39 -29 105 -29h371q131 0 131 128v2q0 61 -29 86q-28 25 -88 25h-222v66l218 226l40 -40z" />
    <glyph glyph-name="uniFB9B" unicode="&#x6b1;" horiz-adv-x="982" arabic-form="final" 
d="M409 662q0 -18 -14 -32t-32 -14q-19 0 -32.5 13.5t-13.5 32.5q0 18 14 32t32 14t32 -14t14 -32zM520 662q0 -18 -14 -32t-32 -14q-19 0 -33 13.5t-14 32.5q0 18 14 32t33 14q18 0 32 -14t14 -32zM452 424l-32 34l187 200l32 -33zM685 0h-384q-119 0 -176 60
q-45 48 -45 130q0 70 35 123q33 50 90 75l36 -54q-91 -44 -91 -142q0 -63 45 -95q39 -29 105 -29h371q131 0 131 128v2q0 61 -29 86q-28 25 -88 25h-222v66l218 226l40 -40l-175 -184h141q184 0 184 -188v-3q0 -58 33 -90q28 -28 71 -28h17v-68h-25q-87 0 -133 64
q-48 -64 -149 -64z" />
    <glyph glyph-name="uniFB9C" unicode="&#x6b1;" horiz-adv-x="551" arabic-form="initial" 
d="M-2 672q0 -18 -14 -32t-33 -14q-18 0 -32 14t-14 32q0 19 14 33t32 14q19 0 33 -14t14 -33zM108 672q0 -18 -14 -32t-32 -14t-32 14t-14 32q0 19 14 33t32 14q19 0 32.5 -14t13.5 -33zM41 424l-32 34l187 200l32 -33zM315 0h-325v68h311q130 0 130 128v2q0 61 -29 86
q-27 25 -87 25h-263v66l218 226l40 -40l-176 -184h183q184 0 184 -188v-1q0 -98 -58 -147q-48 -41 -128 -41z" />
    <glyph glyph-name="uniFB9D" unicode="&#x6b1;" horiz-adv-x="612" arabic-form="medial" 
d="M-2 672q0 -18 -14 -32t-33 -14q-18 0 -32 14t-14 32q0 19 14 33t32 14q19 0 33 -14t14 -33zM108 672q0 -18 -14 -32t-32 -14t-32 14t-14 32q0 19 14 33t32 14q19 0 32.5 -14t13.5 -33zM41 424l-32 34l187 200l32 -33zM315 0h-325v68h311q130 0 130 127v3q0 61 -29 86
q-27 25 -87 25h-263v66l218 226l40 -40l-176 -184h183q184 0 184 -177v-4q0 -65 33 -99q27 -29 71 -29h17v-68h-25q-85 0 -132 64q-48 -64 -150 -64z" />
    <glyph glyph-name="uniFB9E" unicode="&#x6ba;" horiz-adv-x="671" arabic-form="isolated" 
d="M581 418v-357q0 -130 -84 -198q-67 -54 -169 -54q-125 0 -194 73q-64 67 -64 180q0 89 45 157l58 -28q-33 -64 -33 -129q0 -86 54 -137q51 -48 134 -48q81 0 134 52q50 51 50 133v356h69z" />
    <glyph glyph-name="uniFB9F" unicode="&#x6ba;" horiz-adv-x="693" arabic-form="final" 
d="M578 23q-12 -111 -92 -168q-65 -46 -158 -46q-125 0 -194 73q-64 67 -64 180q0 89 45 157l58 -28q-33 -64 -33 -129q0 -86 54 -137q51 -48 134 -48q81 0 134 52q50 51 50 133v356h69v-222q0 -65 33 -99q27 -29 72 -29h17v-68h-25q-59 0 -99 30q0 -5 -1 -7z" />
    <glyph glyph-name="uniFBA0" unicode="&#x6bb;" horiz-adv-x="671" arabic-form="isolated" 
d="M360 418h-191v42h49v149h44v-98q42 65 102 65q34 0 54.5 -22t20.5 -58q0 -78 -79 -78zM264 460h91q38 0 38 36t-38 36q-47 0 -91 -72zM581 418v-357q0 -130 -84 -198q-67 -54 -169 -54q-125 0 -194 73q-64 67 -64 180q0 89 45 157l58 -28q-33 -64 -33 -129q0 -86 54 -137
q51 -48 134 -48q81 0 134 52q50 51 50 133v356h69z" />
    <glyph glyph-name="uniFBA1" unicode="&#x6bb;" horiz-adv-x="693" arabic-form="final" 
d="M360 418h-191v42h49v149h44v-98q42 65 102 65q34 0 54.5 -22t20.5 -58q0 -78 -79 -78zM264 460h91q38 0 38 36t-38 36q-47 0 -91 -72zM578 23q-12 -111 -92 -168q-65 -46 -158 -46q-125 0 -194 73q-64 67 -64 180q0 89 45 157l58 -28q-33 -64 -33 -129q0 -86 54 -137
q51 -48 134 -48q81 0 134 52q50 51 50 133v356h69v-222q0 -65 33 -99q27 -29 72 -29h17v-68h-25q-59 0 -99 30q0 -5 -1 -7z" />
    <glyph glyph-name="uniFBA2" unicode="&#x6bb;" horiz-adv-x="271" arabic-form="initial" 
d="M200 527h-191v41h49v150h44v-98q43 65 102 65q34 0 54 -22t20 -59q0 -77 -78 -77zM104 568h91q38 0 38 36t-38 36q-47 0 -91 -72zM15 0h-25v68h17q51 0 80 38q25 34 25 90v222h70v-230q0 -98 -56 -148q-44 -40 -111 -40z" />
    <glyph glyph-name="uniFBA3" unicode="&#x6bb;" horiz-adv-x="293" arabic-form="medial" 
d="M203 527h-191v41h49v150h44v-98q43 65 102 65q34 0 54 -22t20 -59q0 -77 -78 -77zM107 568h91q38 0 38 36t-38 36q-47 0 -91 -72zM15 0h-25v68h17q51 0 80 38q25 34 25 90v222h70v-222q0 -65 32 -99q28 -29 73 -29h16v-68h-24q-88 0 -132 64q-45 -64 -132 -64z" />
    <glyph glyph-name="uniFBA4" unicode="&#x6c0;" horiz-adv-x="500" arabic-form="isolated" 
d="M326 517h-163v38h35q-9 17 -9 32q0 28 19.5 46t50.5 18q32 0 52 -19l-14 -28q-16 12 -35 12q-33 0 -33 -30q0 -14 12 -31h85v-38zM264 -10h-28q-83 0 -128 68q-40 59 -40 154q0 109 55 168q48 51 127 51q91 0 139 -66q43 -58 43 -153q0 -109 -51 -169q-45 -53 -117 -53z
M138 211q0 -78 30 -118q27 -35 72 -35h20q52 0 79 45q23 40 23 108q0 79 -33 118q-28 34 -79 34q-58 0 -87 -45q-25 -38 -25 -107z" />
    <glyph glyph-name="uniFBA5" unicode="&#x6c0;" horiz-adv-x="529" arabic-form="final" 
d="M318 561h-163v37h36q-10 16 -10 32q0 28 20 46t50 18q32 0 52 -19l-14 -27q-16 12 -35 12q-33 0 -33 -31q0 -14 12 -31h85v-37zM539 0h-24q-99 0 -143 80q-54 -55 -130 -55q-80 0 -128 60q-44 55 -44 145q0 106 67 164q57 49 146 49h65v46h70v-293q0 -65 33 -99
q27 -29 72 -29h16v-68zM348 375h-62q-77 0 -114 -43q-32 -36 -32 -101q0 -69 31 -106q26 -32 71 -32q56 0 110 49q-4 20 -4 46v187z" />
    <glyph glyph-name="uniFBA6" unicode="&#x6c1;" horiz-adv-x="500" arabic-form="isolated" 
d="M264 -10h-28q-83 0 -128 68q-40 59 -40 154q0 109 55 168q48 51 127 51q91 0 139 -66q43 -58 43 -153q0 -109 -51 -169q-45 -53 -117 -53zM138 211q0 -78 30 -118q27 -35 72 -35h20q52 0 79 45q23 40 23 108q0 79 -33 118q-28 34 -79 34q-58 0 -87 -45q-25 -38 -25 -107z
" />
    <glyph glyph-name="uniFBA7" unicode="&#x6c1;" horiz-adv-x="649" arabic-form="final" 
d="M635 0q-85 0 -137 61q-20 24 -58 92q-22 41 -39 58q-24 25 -55 25q-75 0 -159 -95q-48 -53 -107 -148l-57 36q64 126 156 203q88 75 172 75q60 0 101 -42q22 -23 59 -89q35 -61 62 -83q31 -25 72 -25h14v-68h-24z" />
    <glyph glyph-name="uniFBA8" unicode="&#x6c1;" horiz-adv-x="271" arabic-form="initial" 
d="M15 0h-25v68h17q51 0 80 38q25 34 25 90v222h70v-230q0 -98 -56 -148q-44 -40 -111 -40zM34 -271l-63 23l67 197l54 -10z" />
    <glyph glyph-name="uniFBA9" unicode="&#x6c1;" horiz-adv-x="586" arabic-form="medial" 
d="M596 0h-13q-61 0 -87 -13q-28 -14 -38 -52t-10 -131v-104h-43q-137 0 -207 90q-54 71 -54 180q0 46 10 93q-58 -63 -147 -63h-17v68h14q58 0 106.5 43.5t97.5 138.5l55 -25q-48 -132 -48 -242q0 -102 43 -156q42 -52 119 -52v52q0 85 13 131q17 56 59 82q45 28 129 28h18
v-68z" />
    <glyph glyph-name="uniFBAA" unicode="&#x6be;" horiz-adv-x="600" arabic-form="isolated" 
d="M149 0h-159v68h85h45q-52 57 -52 130q0 64 40 106q40 41 105 41q72 0 112 -51q31 -40 31 -97q0 -75 -51 -129h55q50 0 77 25q23 23 23 62q0 42 -17.5 84t-48.5 75q-80 84 -232 96l16 61q176 -14 277 -131q75 -88 75 -185q0 -75 -40 -116q-39 -39 -112 -39h-101
q-35 0 -65 10q-30 -10 -63 -10zM213 79q33 16 52.5 49t19.5 71q0 39 -19 61t-53 22t-53.5 -21.5t-19.5 -59.5q0 -39 20 -72t53 -50z" />
    <glyph glyph-name="uniFBAB" unicode="&#x6be;" horiz-adv-x="639" arabic-form="final" 
d="M149 0h-159v68h86h44q-52 57 -52 130q0 64 40 106q40 41 105 41q72 0 112 -51q31 -40 31 -97q0 -75 -51 -129h55q50 0 77 25q23 23 23 62q0 42 -17.5 84t-48.5 75q-80 84 -232 96l16 61q177 -14 276 -124q75 -83 75 -182q0 -46 34 -74q29 -23 70 -23h16v-68h-24
q-80 0 -124 53q-39 -53 -123 -53h-101q-35 0 -65 10q-30 -10 -63 -10zM213 79q33 16 52.5 49t19.5 71q0 39 -19 61t-53 22t-53.5 -21.5t-19.5 -59.5q0 -39 20 -72t53 -50z" />
    <glyph glyph-name="uniFBAC" unicode="&#x6be;" horiz-adv-x="600" arabic-form="initial" 
d="M149 0h-159v68h85h45q-52 57 -52 130q0 64 40 106q40 41 105 41q72 0 112 -51q31 -40 31 -97q0 -75 -51 -129h55q50 0 77 25q23 23 23 62q0 42 -17.5 84t-48.5 75q-80 84 -232 96l16 61q176 -14 277 -131q75 -88 75 -185q0 -75 -40 -116q-39 -39 -112 -39h-101
q-35 0 -65 10q-30 -10 -63 -10zM213 79q33 16 52.5 49t19.5 71q0 39 -19 61t-53 22t-53.5 -21.5t-19.5 -59.5q0 -39 20 -72t53 -50z" />
    <glyph glyph-name="uniFBAD" unicode="&#x6be;" horiz-adv-x="639" arabic-form="medial" 
d="M149 0h-159v68h86h44q-52 57 -52 130q0 64 40 106q40 41 105 41q72 0 112 -51q31 -40 31 -97q0 -75 -51 -129h55q50 0 77 25q23 23 23 62q0 42 -17.5 84t-48.5 75q-80 84 -232 96l16 61q177 -14 276 -124q75 -83 75 -182q0 -46 34 -74q29 -23 70 -23h16v-68h-24
q-80 0 -124 53q-39 -53 -123 -53h-101q-35 0 -65 10q-30 -10 -63 -10zM213 79q33 16 52.5 49t19.5 71q0 39 -19 61t-53 22t-53.5 -21.5t-19.5 -59.5q0 -39 20 -72t53 -50z" />
    <glyph glyph-name="uniFBAE" unicode="&#x6d2;" horiz-adv-x="858" arabic-form="isolated" 
d="M767 0h-553q-95 0 -136 42q-36 37 -36 111q0 86 55 129q46 35 125 35h94v26q0 95 51 139q41 35 112 35q58 0 106 -37l-29 -57q-33 27 -76 27q-95 0 -95 -128v-73h-158q-64 0 -91 -26q-23 -22 -23 -69q0 -51 29 -70q25 -16 84 -16h565z" />
    <glyph glyph-name="uniFBAF" unicode="&#x6d2;" horiz-adv-x="732" arabic-form="final" 
d="M742 0h-188q-181 0 -290 -24q-126 -28 -126 -84q0 -24 18 -33.5t65 -9.5h370l-21 -68h-347q-87 0 -124 28q-31 23 -31 70q0 113 154 157q113 32 331 32h189v-68z" />
    <glyph glyph-name="uniFBB0" unicode="&#x6d3;" horiz-adv-x="858" arabic-form="isolated" 
d="M249 449h-163v38h35q-9 17 -9 32q0 28 19.5 46t50.5 18q32 0 52 -19l-14 -28q-16 12 -35 12q-33 0 -33 -30q0 -14 12 -31h85v-38zM767 0h-553q-95 0 -136 42q-36 37 -36 111q0 86 55 129q46 35 125 35h94v26q0 95 51 139q41 35 112 35q58 0 106 -37l-29 -57
q-33 27 -76 27q-95 0 -95 -128v-73h-158q-64 0 -91 -26q-23 -22 -23 -69q0 -51 29 -70q25 -16 84 -16h565z" />
    <glyph glyph-name="uniFBB1" unicode="&#x6d3;" horiz-adv-x="732" arabic-form="final" 
d="M511 184h-162v37h35q-9 17 -9 32q0 28 19.5 46t50.5 18q32 0 52 -19l-14 -27q-16 12 -35 12q-33 0 -33 -31q0 -14 12 -31h84v-37zM742 0h-188q-181 0 -290 -24q-126 -28 -126 -84q0 -24 18 -33.5t65 -9.5h370l-21 -68h-347q-87 0 -124 28q-31 23 -31 70q0 113 154 157
q113 32 331 32h189v-68z" />
    <glyph glyph-name="uniFBD3" unicode="&#x6ad;" horiz-adv-x="874" arabic-form="isolated" 
d="M787 892q0 -17 -12.5 -29.5t-29.5 -12.5t-30 12.5t-13 29.5t13 30t30 13t29.5 -13t12.5 -30zM736 795q0 -18 -14 -32t-33 -14q-18 0 -32 14t-14 32q0 19 14 33t32 14q19 0 33 -14t14 -33zM847 795q0 -18 -14 -32t-33 -14q-18 0 -32 14t-14 32q0 19 14 33t32 14
q19 0 33 -14t14 -33zM602 0h-291q-123 0 -185 72q-46 55 -46 137q0 63 35 115q33 49 91 73l35 -53q-44 -21 -69 -56.5t-25 -78.5q0 -62 46 -103q43 -38 109 -38h282q130 0 130 128v470h70v-478q0 -98 -57 -147q-47 -41 -125 -41zM468 362h-90v33h88q36 0 36 28
q0 17 -13.5 28t-34.5 11q-23 0 -49 -8v33l80 89l21 -16l-56 -64q41 0 63.5 -19t22.5 -53q0 -29 -18 -45.5t-50 -16.5z" />
    <glyph glyph-name="uniFBD4" unicode="&#x6ad;" horiz-adv-x="896" arabic-form="final" 
d="M787 892q0 -17 -12.5 -29.5t-29.5 -12.5t-30 12.5t-13 29.5t13 30t30 13t29.5 -13t12.5 -30zM736 795q0 -18 -14 -32t-33 -14q-18 0 -32 14t-14 32q0 19 14 33t32 14q19 0 33 -14t14 -33zM847 795q0 -18 -14 -32t-33 -14q-18 0 -32 14t-14 32q0 19 14 33t32 14
q19 0 33 -14t14 -33zM602 0h-291q-123 0 -185 72q-46 55 -46 137q0 63 35 115q33 49 91 73l35 -53q-44 -21 -69 -56.5t-25 -78.5q0 -62 46 -103q43 -38 109 -38h282q130 0 130 128v470h70v-470q0 -65 33 -99q27 -29 72 -29h17v-68h-25q-88 0 -132 65q-48 -65 -147 -65z
M468 362h-90v33h88q36 0 36 28q0 17 -13.5 28t-34.5 11q-23 0 -49 -8v33l80 89l21 -16l-56 -64q41 0 63.5 -19t22.5 -53q0 -29 -18 -45.5t-50 -16.5z" />
    <glyph glyph-name="uniFBD5" unicode="&#x6ad;" horiz-adv-x="551" arabic-form="initial" 
d="M156 741q0 -17 -13 -29.5t-30 -12.5t-29.5 12.5t-12.5 29.5t12.5 30t29.5 13t30 -13t13 -30zM104 644q0 -19 -13.5 -32.5t-32.5 -13.5t-32.5 13.5t-13.5 32.5t13.5 32.5t32.5 13.5t32.5 -13.5t13.5 -32.5zM215 644q0 -18 -14 -32t-32 -14q-19 0 -33 13.5t-14 32.5
t14 32.5t33 13.5q18 0 32 -14t14 -32zM315 0h-325v68h311q130 0 130 128v2q0 61 -29 86q-27 25 -87 25h-263v66l218 226l40 -40l-176 -184h183q184 0 184 -188v-1q0 -98 -58 -147q-48 -41 -128 -41z" />
    <glyph glyph-name="uniFBD6" unicode="&#x6ad;" horiz-adv-x="612" arabic-form="medial" 
d="M156 741q0 -17 -13 -29.5t-30 -12.5t-29.5 12.5t-12.5 29.5t12.5 30t29.5 13t30 -13t13 -30zM104 644q0 -19 -13.5 -32.5t-32.5 -13.5t-32.5 13.5t-13.5 32.5t13.5 32.5t32.5 13.5t32.5 -13.5t13.5 -32.5zM215 644q0 -18 -14 -32t-32 -14q-19 0 -33 13.5t-14 32.5
t14 32.5t33 13.5q18 0 32 -14t14 -32zM315 0h-325v68h311q130 0 130 127v3q0 61 -29 86q-27 25 -87 25h-263v66l218 226l40 -40l-176 -184h183q184 0 184 -177v-4q0 -65 33 -99q27 -29 71 -29h17v-68h-25q-85 0 -132 64q-48 -64 -150 -64z" />
    <glyph glyph-name="uniFBD7" unicode="&#x6c7;" horiz-adv-x="498" arabic-form="isolated" 
d="M278 533l-115 -20l-6 34l99 18q-20 20 -20 48q0 24 15 39.5t37 15.5q24 0 39 -15.5t15 -41.5q0 -30 -18 -51.5t-46 -26.5zM291 576q19 9 19 34q0 27 -21 27q-19 0 -19 -26q0 -24 21 -35zM349 31q-45 -27 -98 -27q-88 0 -138 64q-43 57 -43 150q0 104 55 162q48 51 127 51
q83 0 128 -52q38 -45 38 -117v-240q0 -111 -57 -167q-47 -45 -125 -45q-63 0 -130 35l21 61q56 -29 102 -29q59 0 91 39q29 36 29 102v13zM349 101v153q0 109 -97 109q-58 0 -87 -45q-25 -38 -25 -101q0 -78 43 -117q34 -30 85 -30q43 0 81 31z" />
    <glyph glyph-name="uniFBD8" unicode="&#x6c7;" horiz-adv-x="520" arabic-form="final" 
d="M278 533l-115 -20l-6 34l99 18q-20 20 -20 48q0 24 15 39.5t37 15.5q24 0 39 -15.5t15 -41.5q0 -30 -18 -51.5t-46 -26.5zM291 576q19 9 19 34q0 27 -21 27q-19 0 -19 -26q0 -24 21 -35zM418 0q-5 -100 -62 -149q-47 -41 -120 -41q-63 0 -130 35l21 61q56 -29 102 -29
q55 0 86 34q30 31 33 89h-77q-102 0 -155 67q-46 56 -46 151q0 104 55 162q48 51 127 51q83 0 128 -52q38 -45 38 -117v-194h112v-68h-112zM349 68v186q0 109 -97 109q-58 0 -87 -45q-25 -38 -25 -101q0 -80 45 -119q36 -30 94 -30h70z" />
    <glyph glyph-name="uniFBD9" unicode="&#x6c6;" horiz-adv-x="498" arabic-form="isolated" 
d="M194 654l57 -103l54 103h62l-91 -156h-50l-94 156h62zM349 31q-45 -27 -98 -27q-88 0 -138 64q-43 57 -43 150q0 104 55 162q48 51 127 51q83 0 128 -52q38 -45 38 -117v-240q0 -111 -57 -167q-47 -45 -125 -45q-63 0 -130 35l21 61q56 -29 102 -29q59 0 91 39
q29 36 29 102v13zM349 101v153q0 109 -97 109q-58 0 -87 -45q-25 -38 -25 -101q0 -78 43 -117q34 -30 85 -30q43 0 81 31z" />
    <glyph glyph-name="uniFBDA" unicode="&#x6c6;" horiz-adv-x="520" arabic-form="final" 
d="M194 654l57 -103l54 103h62l-91 -156h-50l-94 156h62zM418 0q-5 -100 -62 -149q-47 -41 -120 -41q-63 0 -130 35l21 61q56 -29 102 -29q55 0 86 34q30 31 33 89h-77q-102 0 -155 67q-46 56 -46 151q0 104 55 162q48 51 127 51q83 0 128 -52q38 -45 38 -117v-194h112v-68
h-112zM349 68v186q0 109 -97 109q-58 0 -87 -45q-25 -38 -25 -101q0 -80 45 -119q36 -30 94 -30h70z" />
    <glyph glyph-name="uniFBDB" unicode="&#x6c8;" horiz-adv-x="498" arabic-form="isolated" 
d="M271 513h-43v122h43v-122zM349 31q-45 -27 -98 -27q-88 0 -138 64q-43 57 -43 150q0 104 55 162q48 51 127 51q83 0 128 -52q38 -45 38 -117v-240q0 -111 -57 -167q-47 -45 -125 -45q-63 0 -130 35l21 61q56 -29 102 -29q59 0 91 39q29 36 29 102v13zM349 101v153
q0 109 -97 109q-58 0 -87 -45q-25 -38 -25 -101q0 -78 43 -117q34 -30 85 -30q43 0 81 31z" />
    <glyph glyph-name="uniFBDC" unicode="&#x6c8;" horiz-adv-x="520" arabic-form="final" 
d="M271 513h-43v122h43v-122zM418 0q-5 -100 -62 -149q-47 -41 -120 -41q-63 0 -130 35l21 61q56 -29 102 -29q55 0 86 34q30 31 33 89h-77q-102 0 -155 67q-46 56 -46 151q0 104 55 162q48 51 127 51q83 0 128 -52q38 -45 38 -117v-194h112v-68h-112zM349 68v186
q0 109 -97 109q-58 0 -87 -45q-25 -38 -25 -101q0 -80 45 -119q36 -30 94 -30h70z" />
    <glyph glyph-name="uniFBDD" unicode="&#x677;" horiz-adv-x="498" arabic-form="isolated" 
d="M210 591l-115 -20l-6 34l99 18q-20 20 -20 48q0 24 15 39.5t37 15.5q25 0 40 -15.5t15 -41.5q0 -29 -18 -51t-47 -27zM223 634q19 9 19 34q0 27 -21 27q-19 0 -19 -26q0 -24 21 -35zM448 521h-162v37h35q-9 17 -9 32q0 28 19.5 46t50.5 18q30 0 51 -18l-14 -28
q-16 12 -34 12q-34 0 -34 -30q0 -15 12 -32h85v-37zM349 31q-45 -27 -98 -27q-88 0 -138 64q-43 57 -43 150q0 104 55 162q48 51 127 51q83 0 128 -52q38 -45 38 -117v-240q0 -111 -57 -167q-47 -45 -125 -45q-63 0 -130 35l21 61q56 -29 102 -29q59 0 91 39q29 36 29 102
v13zM349 101v153q0 109 -97 109q-58 0 -87 -45q-25 -38 -25 -101q0 -78 43 -117q34 -30 85 -30q43 0 81 31z" />
    <glyph glyph-name="uniFBDE" unicode="&#x6cb;" horiz-adv-x="498" arabic-form="isolated" 
d="M292 643q0 -17 -12.5 -30t-29.5 -13t-30 13t-13 30t13 29.5t30 12.5t29.5 -12.5t12.5 -29.5zM241 546q0 -19 -14 -33t-33 -14q-18 0 -32 14t-14 33q0 18 14 32t32 14q19 0 33 -14t14 -32zM351 546q0 -19 -13.5 -33t-32.5 -14q-18 0 -32 14t-14 33q0 18 14 32t32 14
t32 -14t14 -32zM349 31q-45 -27 -98 -27q-88 0 -138 64q-43 57 -43 150q0 104 55 162q48 51 127 51q83 0 128 -52q38 -45 38 -117v-240q0 -111 -57 -167q-47 -45 -125 -45q-63 0 -130 35l21 61q56 -29 102 -29q59 0 91 39q29 36 29 102v13zM349 101v153q0 109 -97 109
q-58 0 -87 -45q-25 -38 -25 -101q0 -78 43 -117q34 -30 85 -30q43 0 81 31z" />
    <glyph glyph-name="uniFBDF" unicode="&#x6cb;" horiz-adv-x="520" arabic-form="final" 
d="M292 643q0 -17 -12.5 -30t-29.5 -13t-30 13t-13 30t13 29.5t30 12.5t29.5 -12.5t12.5 -29.5zM241 546q0 -19 -14 -33t-33 -14q-18 0 -32 14t-14 33q0 18 14 32t32 14q19 0 33 -14t14 -32zM351 546q0 -19 -13.5 -33t-32.5 -14q-18 0 -32 14t-14 33q0 18 14 32t32 14
t32 -14t14 -32zM418 0q-5 -100 -62 -149q-47 -41 -120 -41q-63 0 -130 35l21 61q56 -29 102 -29q55 0 86 34q30 31 33 89h-77q-102 0 -155 67q-46 56 -46 151q0 104 55 162q48 51 127 51q83 0 128 -52q38 -45 38 -117v-194h112v-68h-112zM349 68v186q0 109 -97 109
q-58 0 -87 -45q-25 -38 -25 -101q0 -80 45 -119q36 -30 94 -30h70z" />
    <glyph glyph-name="uniFBE0" unicode="&#x6c5;" horiz-adv-x="498" arabic-form="isolated" 
d="M349 31q-45 -27 -98 -27q-88 0 -138 64q-43 57 -43 150q0 104 55 162q48 51 127 51q83 0 128 -52q38 -45 38 -117v-240q0 -111 -57 -167q-47 -45 -125 -45q-63 0 -130 35l21 61q56 -29 102 -29q73 0 104 59h-131v28h141q6 24 6 54v13zM349 101v153q0 109 -97 109
q-58 0 -87 -45q-25 -38 -25 -101q0 -78 43 -117q34 -30 85 -30q43 0 81 31z" />
    <glyph glyph-name="uniFBE1" unicode="&#x6c5;" horiz-adv-x="520" arabic-form="final" 
d="M418 262v-194h112v-68h-112q-5 -100 -62 -149q-47 -41 -120 -41q-63 0 -130 35l21 61q56 -29 102 -29q75 0 104 59h-131v28h141q4 21 5 36h-77q-102 0 -155 67q-46 56 -46 151q0 104 55 162q48 51 127 51q83 0 128 -52q38 -45 38 -117zM349 68v186q0 109 -97 109
q-58 0 -87 -45q-25 -38 -25 -101q0 -80 45 -119q36 -30 94 -30h70z" />
    <glyph glyph-name="uniFBE2" unicode="&#x6c9;" horiz-adv-x="498" arabic-form="isolated" 
d="M305 505l-56 104l-55 -104h-62l90 157h51l94 -157h-62zM349 31q-45 -27 -98 -27q-88 0 -138 64q-43 57 -43 150q0 104 55 162q48 51 127 51q83 0 128 -52q38 -45 38 -117v-240q0 -111 -57 -167q-47 -45 -125 -45q-63 0 -130 35l21 61q56 -29 102 -29q59 0 91 39
q29 36 29 102v13zM349 101v153q0 109 -97 109q-58 0 -87 -45q-25 -38 -25 -101q0 -78 43 -117q34 -30 85 -30q43 0 81 31z" />
    <glyph glyph-name="uniFBE3" unicode="&#x6c9;" horiz-adv-x="520" arabic-form="final" 
d="M305 505l-56 104l-55 -104h-62l90 157h51l94 -157h-62zM418 0q-5 -100 -62 -149q-47 -41 -120 -41q-63 0 -130 35l21 61q56 -29 102 -29q55 0 86 34q30 31 33 89h-77q-102 0 -155 67q-46 56 -46 151q0 104 55 162q48 51 127 51q83 0 128 -52q38 -45 38 -117v-194h112v-68
h-112zM349 68v186q0 109 -97 109q-58 0 -87 -45q-25 -38 -25 -101q0 -80 45 -119q36 -30 94 -30h70z" />
    <glyph glyph-name="uniFBE4" unicode="&#x6d0;" horiz-adv-x="705" arabic-form="isolated" 
d="M584 355h-98q-46 0 -73 -20q-28 -21 -28 -62q0 -54 46 -86q17 -12 46 -24l51 -22q64 -28 90 -62q27 -36 27 -90q0 -86 -88 -140q-80 -50 -203 -50q-142 0 -218 79q-66 68 -66 184q0 89 45 157l58 -28q-33 -64 -33 -129q0 -89 58 -142q57 -53 156 -53q104 0 170 44
q52 35 52 77q0 41 -46 69q-14 8 -71 33q-67 30 -97 61q-46 46 -46 121q0 72 50 115q43 36 107 36h111v-68zM401 -317q0 -18 -13.5 -31.5t-32.5 -13.5q-18 0 -31.5 13.5t-13.5 31.5q0 19 13.5 32.5t31.5 13.5q19 0 32.5 -13.5t13.5 -32.5zM401 -419q0 -19 -13.5 -32
t-32.5 -13q-18 0 -31.5 13.5t-13.5 31.5t13.5 31.5t31.5 13.5q19 0 32.5 -13t13.5 -32z" />
    <glyph glyph-name="uniFBE5" unicode="&#x6d0;" horiz-adv-x="657" arabic-form="final" 
d="M645 0q0 -100 -91 -154q-78 -47 -200 -47q-142 0 -218 79q-66 68 -66 184q0 89 45 157l58 -28q-33 -64 -33 -129q0 -89 58 -142q57 -53 156 -53q98 0 161 37q61 37 61 96h-89v68h180v-68h-22zM401 -314q0 -18 -13.5 -31.5t-32.5 -13.5q-18 0 -31.5 13.5t-13.5 31.5
q0 19 13.5 32.5t31.5 13.5q19 0 32.5 -13.5t13.5 -32.5zM401 -416q0 -19 -13.5 -32t-32.5 -13q-18 0 -31.5 13.5t-13.5 31.5t13.5 31.5t31.5 13.5q19 0 32.5 -13t13.5 -32z" />
    <glyph glyph-name="uniFBE6" unicode="&#x6d0;" horiz-adv-x="271" arabic-form="initial" 
d="M-10 0v68h17q51 0 80 38q25 34 25 90v222h70v-230q0 -98 -56 -148q-44 -40 -111 -40h-25zM96 -270q-19 0 -32.5 13t-13.5 32t13.5 32t32.5 13q18 0 31.5 -13.5t13.5 -31.5t-13.5 -31.5t-31.5 -13.5zM96 -168q-19 0 -32.5 13.5t-13.5 31.5q0 19 13.5 32.5t32.5 13.5
q18 0 31.5 -13.5t13.5 -32.5q0 -18 -13.5 -31.5t-31.5 -13.5z" />
    <glyph glyph-name="uniFBE7" unicode="&#x6d0;" horiz-adv-x="293" arabic-form="medial" 
d="M-10 0v68h17q51 0 80 38q25 34 25 90v222h70v-222q0 -65 32 -99q28 -29 73 -29h16v-68h-24q-88 0 -132 64q-45 -64 -132 -64h-25zM139 -270q-19 0 -32.5 13t-13.5 32t13.5 32t32.5 13q18 0 31.5 -13.5t13.5 -31.5t-13.5 -31.5t-31.5 -13.5zM139 -168q-19 0 -32.5 13.5
t-13.5 31.5q0 19 13.5 32.5t32.5 13.5q18 0 31.5 -13.5t13.5 -32.5q0 -18 -13.5 -31.5t-31.5 -13.5z" />
    <glyph glyph-name="uniFBE8" unicode="&#x649;" horiz-adv-x="271" arabic-form="initial" 
d="M15 0h-25v68h17q51 0 80 38q25 34 25 90v222h70v-230q0 -98 -56 -148q-44 -40 -111 -40z" />
    <glyph glyph-name="uniFBE9" unicode="&#x649;" horiz-adv-x="293" arabic-form="medial" 
d="M15 0h-25v68h17q51 0 80 38q25 34 25 90v222h70v-222q0 -65 32 -99q28 -29 73 -29h16v-68h-24q-88 0 -132 64q-45 -64 -132 -64z" />
    <glyph glyph-name="uniFBFC" unicode="&#x6cc;" horiz-adv-x="705" arabic-form="isolated" 
d="M584 355h-98q-46 0 -73 -20q-28 -21 -28 -62q0 -54 46 -86q17 -12 46 -24l51 -22q64 -28 90 -62q27 -36 27 -90q0 -86 -88 -140q-80 -50 -203 -50q-142 0 -218 79q-66 68 -66 184q0 89 45 157l58 -28q-33 -64 -33 -129q0 -89 58 -142q57 -53 156 -53q104 0 170 44
q52 35 52 77q0 41 -46 69q-14 8 -71 33q-67 30 -97 61q-46 46 -46 121q0 72 50 115q43 36 107 36h111v-68z" />
    <glyph glyph-name="uniFBFD" unicode="&#x6cc;" horiz-adv-x="657" arabic-form="final" 
d="M645 0q0 -100 -91 -154q-78 -47 -200 -47q-142 0 -218 79q-66 68 -66 184q0 89 45 157l58 -28q-33 -64 -33 -129q0 -89 58 -142q57 -53 156 -53q98 0 161 37q61 37 61 96h-89v68h180v-68h-22z" />
    <glyph glyph-name="uniFBFE" unicode="&#x6cc;" horiz-adv-x="271" arabic-form="initial" 
d="M-10 0v68h17q51 0 80 38q25 34 25 90v222h70v-230q0 -98 -56 -148q-44 -40 -111 -40h-25zM32 -170q-18 0 -32 14t-14 32q0 19 13.5 33t32.5 14t32.5 -14t13.5 -33q0 -18 -14 -32t-32 -14zM143 -170q-18 0 -32 14t-14 32q0 19 13.5 33t32.5 14t32.5 -14t13.5 -33
q0 -18 -14 -32t-32 -14z" />
    <glyph glyph-name="uniFBFF" unicode="&#x6cc;" horiz-adv-x="293" arabic-form="medial" 
d="M-10 0v68h17q51 0 80 38q25 34 25 90v222h70v-222q0 -65 32 -99q28 -29 73 -29h16v-68h-24q-88 0 -132 64q-45 -64 -132 -64h-25zM81 -170q-18 0 -32 14t-14 32q0 19 14 33t32 14q19 0 32.5 -14t13.5 -33q0 -18 -14 -32t-32 -14zM192 -170q-18 0 -32 14t-14 32
q0 19 13.5 33t32.5 14t32.5 -14t13.5 -33q0 -18 -14 -32t-32 -14z" />
    <glyph glyph-name="uniFCF3" unicode="&#xfcf3;" horiz-adv-x="116" arabic-form="medial" 
d="M86 675l-115 -20l-6 33l99 18q-20 20 -20 48q0 24 15 39.5t37 15.5q25 0 40 -15.5t15 -41.5q0 -29 -18.5 -50.5t-46.5 -26.5zM99 717q19 9 19 34q0 28 -21 28q-19 0 -19 -27q0 -24 21 -35zM58 529q-16 -16 -39 -16t-37.5 14t-14.5 35v62h33v-57q0 -21 20 -21q22 0 22 21
v39h33v-39q0 -21 20 -21q21 0 21 21v57h33v-62q0 -22 -14.5 -35.5t-37.5 -13.5q-26 0 -39 16zM126 0h-136v68h136v-68z" />
    <glyph glyph-name="uniFCF4" unicode="&#xfcf4;" horiz-adv-x="116" arabic-form="medial" 
d="M56 642q-16 -16 -39 -16t-37.5 14t-14.5 35v62h33v-57q0 -21 20 -21q22 0 22 21v39h33v-39q0 -21 20 -21q21 0 21 21v57h33v-62q0 -22 -14.5 -35.5t-37.5 -13.5q-26 0 -39 16zM148 542l-165 -29l-9 43l166 30zM126 0h-136v68h136v-68z" />
    <glyph glyph-name="uniFD3C" unicode="&#xfd3c;" horiz-adv-x="276" arabic-form="final" 
d="M204 784l-156 -28l-7 37l156 28zM209 708l-156 -29l-7 38l156 29zM286 0h-35q-79 0 -122 47q-39 43 -39 117v450h70v-428q0 -65 22 -90q24 -28 84 -28h20v-68z" />
    <glyph glyph-name="uniFD3D" unicode="&#xfd3d;" horiz-adv-x="250" arabic-form="isolated" 
d="M204 784l-156 -28l-7 37l156 28zM209 708l-156 -29l-7 38l156 29zM160 0h-70v614h70v-614z" />
    <glyph glyph-name="uniFE71" unicode="&#xfe71;" horiz-adv-x="116" arabic-form="medial" 
d="M137 615l-157 -27l-6 37l156 28zM142 544l-157 -29l-7 38l157 29zM126 0h-136v68h136v-68z" />
    <glyph glyph-name="uniFE72" unicode="&#xfe72;" horiz-adv-x="244" arabic-form="isolated" 
d="M139 721q-23 18 -23 46q0 25 14.5 41t38.5 16q25 0 40.5 -15.5t15.5 -40.5q0 -40 -30 -64q-23 -18 -56 -18q-48 0 -71 35l-20 -33l-29 19l33 53h24q22 -40 63 -39zM172 730q20 8 20 36q0 12 -6 20t-16 8q-20 0 -20 -27q0 -24 22 -37z" />
    <glyph glyph-name="uniFE74" unicode="&#xfe74;" horiz-adv-x="206" arabic-form="isolated" 
d="M182 -134l-156 -28l-7 38l156 28zM187 -209l-156 -29l-7 37l156 29z" />
    <glyph glyph-name="uniFE76" unicode="&#xfe76;" horiz-adv-x="212" arabic-form="isolated" 
d="M193 715l-165 -29l-9 43l166 30z" />
    <glyph glyph-name="uniFE77" unicode="&#xfe77;" horiz-adv-x="116" arabic-form="medial" 
d="M148 542l-165 -29l-9 43l166 30zM126 0h-136v68h136v-68z" />
    <glyph glyph-name="uniFE78" unicode="&#xfe78;" horiz-adv-x="223" arabic-form="isolated" 
d="M140 706l-115 -20l-6 34l99 18q-20 20 -20 48q0 23 14.5 38.5t37.5 15.5q24 0 39 -15.5t15 -40.5q0 -29 -18 -51t-46 -27zM153 748q19 9 19 35q0 27 -21 27q-9 0 -14.5 -7.5t-5.5 -18.5q0 -25 22 -36z" />
    <glyph glyph-name="uniFE79" unicode="&#xfe79;" horiz-adv-x="116" arabic-form="medial" 
d="M86 533l-115 -20l-6 34l99 18q-20 20 -20 48q0 24 15 39.5t37 15.5q25 0 40 -15.5t15 -41.5q0 -29 -18 -51t-47 -27zM99 576q19 9 19 34q0 27 -21 27q-19 0 -19 -26q0 -24 21 -35zM126 0h-136v68h136v-68z" />
    <glyph glyph-name="uniFE7A" unicode="&#xfe7a;" horiz-adv-x="212" arabic-form="isolated" 
d="M193 -145l-165 -29l-9 48l166 30z" />
    <glyph glyph-name="uniFE7B" unicode="&#xfe7b;" horiz-adv-x="116" arabic-form="medial" 
d="M126 0h-136v68h136v-68zM148 -145l-165 -29l-9 48l166 30z" />
    <glyph glyph-name="uniFE7C" unicode="&#xfe7c;" horiz-adv-x="219" arabic-form="isolated" 
d="M110 702q-16 -16 -39 -16t-37.5 14t-14.5 35v62h33v-57q0 -21 20 -21q22 0 22 21v39h33v-39q0 -21 20 -21q21 0 21 21v57h32v-62q0 -22 -14 -35.5t-37 -13.5q-26 0 -39 16z" />
    <glyph glyph-name="uniFE7D" unicode="&#xfe7d;" horiz-adv-x="116" arabic-form="medial" 
d="M58 529q-16 -16 -39 -16t-37.5 14t-14.5 35v62h33v-57q0 -21 20 -21q22 0 22 21v39h33v-39q0 -21 20 -21q21 0 21 21v57h33v-62q0 -22 -14.5 -35.5t-37.5 -13.5q-26 0 -39 16zM126 0h-136v68h136v-68z" />
    <glyph glyph-name="uniFE7E" unicode="&#xfe7e;" horiz-adv-x="149" arabic-form="isolated" 
d="M75 814q24 -7 39.5 -27t15.5 -45q0 -26 -15 -41t-40 -15q-26 0 -41 14.5t-15 39.5t15.5 45.5t40.5 28.5zM75 783q-10 -3 -17 -14t-7 -24q0 -28 23 -28q24 0 24 27q0 14 -6.5 25t-16.5 14z" />
    <glyph glyph-name="uniFE7F" unicode="&#xfe7f;" horiz-adv-x="116" arabic-form="medial" 
d="M58 641q24 -7 39.5 -27t15.5 -45q0 -26 -15 -41t-40 -15q-26 0 -41 14.5t-15 39.5t15.5 45.5t40.5 28.5zM58 610q-10 -3 -17 -14t-7 -24q0 -28 23 -28q24 0 24 27q0 14 -6.5 25t-16.5 14zM126 0h-136v68h136v-68z" />
    <glyph glyph-name="uniFE80" unicode="&#x621;" horiz-adv-x="495" arabic-form="isolated" 
d="M426 7q-43 12 -93 12q-77 0 -148 -26q-62 -23 -101 -59l-50 55q37 31 84 54q-48 74 -48 155q0 86 52 140q48 50 123 50q87 0 150 -75l-37 -42q-51 51 -110 51q-56 0 -84 -41q-23 -32 -23 -82q0 -72 43 -131q67 20 141 20q63 0 125 -14z" />
    <glyph glyph-name="uniFE81" unicode="&#x622;" horiz-adv-x="249" arabic-form="isolated" 
d="M218 731q-16 -55 -60 -55q-22 0 -47 16q-14 9 -25 9q-20 0 -33 -21l-21 18q19 44 55 44q16 0 37 -15q17 -13 34 -13q16 0 30 28zM160 0h-70v614h70v-614z" />
    <glyph glyph-name="uniFE82" unicode="&#x622;" horiz-adv-x="276" arabic-form="final" 
d="M218 731q-16 -55 -60 -55q-22 0 -47 16q-14 9 -25 9q-20 0 -33 -21l-21 18q19 44 55 44q16 0 37 -15q17 -13 34 -13q16 0 30 28zM286 0h-35q-79 0 -122 47q-39 43 -39 117v450h70v-428q0 -65 22 -90q24 -28 84 -28h20v-68z" />
    <glyph glyph-name="uniFE83" unicode="&#x623;" horiz-adv-x="250" arabic-form="isolated" 
d="M206 680h-162v38h35q-9 17 -9 32q0 28 19.5 46t49.5 18q32 0 52 -19l-14 -28q-16 12 -35 12q-33 0 -33 -30q0 -14 12 -31h85v-38zM160 0h-70v616h70v-616z" />
    <glyph glyph-name="uniFE84" unicode="&#x623;" horiz-adv-x="276" arabic-form="final" 
d="M206 680h-162v38h35q-9 17 -9 32q0 28 19.5 46t49.5 18q32 0 52 -19l-14 -28q-16 12 -35 12q-33 0 -33 -30q0 -14 12 -31h85v-38zM286 0h-35q-79 0 -122 47q-39 43 -39 117v452h70v-430q0 -65 22 -90q24 -28 84 -28h20v-68z" />
    <glyph glyph-name="uniFE85" unicode="&#x624;" horiz-adv-x="498" arabic-form="isolated" 
d="M330 517h-162v38h35q-9 17 -9 32q0 28 19.5 46t50.5 18q32 0 52 -19l-14 -28q-16 12 -35 12q-33 0 -33 -30q0 -14 12 -31h84v-38zM349 31q-45 -27 -98 -27q-88 0 -138 64q-43 57 -43 150q0 104 55 162q48 51 127 51q83 0 128 -52q38 -45 38 -117v-240q0 -111 -57 -167
q-47 -45 -125 -45q-63 0 -130 35l21 61q56 -29 102 -29q59 0 91 39q29 36 29 102v13zM349 101v153q0 109 -97 109q-58 0 -87 -45q-25 -38 -25 -101q0 -78 43 -117q34 -30 85 -30q43 0 81 31z" />
    <glyph glyph-name="uniFE86" unicode="&#x624;" horiz-adv-x="520" arabic-form="final" 
d="M330 517h-162v38h35q-9 17 -9 32q0 28 19.5 46t50.5 18q32 0 52 -19l-14 -28q-16 12 -35 12q-33 0 -33 -30q0 -14 12 -31h84v-38zM418 0q-5 -100 -62 -149q-47 -41 -120 -41q-63 0 -130 35l21 61q56 -29 102 -29q55 0 86 34q30 31 33 89h-77q-102 0 -155 67
q-46 56 -46 151q0 104 55 162q48 51 127 51q83 0 128 -52q38 -45 38 -117v-194h112v-68h-112zM349 68v186q0 109 -97 109q-58 0 -87 -45q-25 -38 -25 -101q0 -80 45 -119q36 -30 94 -30h70z" />
    <glyph glyph-name="uniFE87" unicode="&#x625;" horiz-adv-x="250" arabic-form="isolated" 
d="M160 0h-70v666h70v-666zM206 -230h-163v37h36q-10 16 -10 32q0 28 20 46t50 18q32 0 52 -19l-14 -28q-16 12 -35 12q-33 0 -33 -30q0 -15 12 -31h85v-37z" />
    <glyph glyph-name="uniFE88" unicode="&#x625;" horiz-adv-x="276" arabic-form="final" 
d="M286 0h-35q-79 0 -122 47q-39 43 -39 117v502h70v-480q0 -65 22 -90q24 -28 84 -28h20v-68zM250 -230h-163v37h35q-9 16 -9 32q0 28 19.5 46t50.5 18q32 0 52 -19l-14 -28q-16 12 -35 12q-33 0 -33 -30q0 -15 12 -31h85v-37z" />
    <glyph glyph-name="uniFE89" unicode="&#x626;" horiz-adv-x="705" arabic-form="isolated" 
d="M228 338h-162v37h35q-9 17 -9 32q0 28 19.5 46t49.5 18q32 0 52 -19l-14 -27q-16 12 -35 12q-33 0 -33 -31q0 -14 12 -31h85v-37zM584 355h-98q-46 0 -73 -20q-28 -21 -28 -62q0 -54 46 -86q17 -12 46 -24l51 -22q64 -28 90 -62q27 -36 27 -90q0 -86 -88 -140
q-80 -50 -203 -50q-142 0 -218 79q-66 68 -66 184q0 89 45 157l58 -28q-33 -64 -33 -129q0 -89 58 -142q57 -53 156 -53q104 0 170 44q52 35 52 77q0 41 -46 69q-14 8 -71 33q-67 30 -97 61q-46 46 -46 121q0 72 50 115q43 36 107 36h111v-68z" />
    <glyph glyph-name="uniFE8A" unicode="&#x626;" horiz-adv-x="657" arabic-form="final" 
d="M259 318h-163v38h35q-9 17 -9 32q0 28 19.5 46t50.5 18q32 0 52 -19l-14 -28q-16 12 -35 12q-33 0 -33 -30q0 -14 12 -31h85v-38zM645 0q0 -100 -91 -154q-78 -47 -200 -47q-142 0 -218 79q-66 68 -66 184q0 89 45 157l58 -28q-33 -64 -33 -129q0 -89 58 -142
q57 -53 156 -53q98 0 161 37q61 37 61 96h-89v68h180v-68h-22z" />
    <glyph glyph-name="uniFE8B" unicode="&#x626;" horiz-adv-x="271" arabic-form="initial" 
d="M225 517h-162v38h35q-9 17 -9 32q0 28 19.5 46t49.5 18q32 0 52 -19l-14 -28q-16 12 -35 12q-33 0 -33 -30q0 -14 12 -31h85v-38zM15 0h-25v68h17q51 0 80 38q25 34 25 90v222h70v-230q0 -98 -56 -148q-44 -40 -111 -40z" />
    <glyph glyph-name="uniFE8C" unicode="&#x626;" horiz-adv-x="293" arabic-form="medial" 
d="M228 517h-162v38h35q-9 17 -9 32q0 28 19.5 46t49.5 18q32 0 52 -19l-14 -28q-16 12 -35 12q-33 0 -33 -30q0 -14 12 -31h85v-38zM15 0h-25v68h17q51 0 80 38q25 34 25 90v222h70v-222q0 -65 32 -99q28 -29 73 -29h16v-68h-24q-88 0 -132 64q-45 -64 -132 -64z" />
    <glyph glyph-name="uniFE8D" unicode="&#x627;" horiz-adv-x="250" arabic-form="isolated" 
d="M160 0h-70v666h70v-666z" />
    <glyph glyph-name="uniFE8E" unicode="&#x627;" horiz-adv-x="276" arabic-form="final" 
d="M286 0h-35q-79 0 -122 47q-39 43 -39 117v502h70v-480q0 -65 22 -90q24 -28 84 -28h20v-68z" />
    <glyph glyph-name="uniFE8F" unicode="&#x628;" horiz-adv-x="874" arabic-form="isolated" 
d="M602 0h-291q-123 0 -185 72q-46 55 -46 137q0 63 35 115q33 49 91 73l35 -53q-44 -21 -69 -56.5t-25 -78.5q0 -62 46 -103q43 -38 109 -38h282q130 0 130 128v222h70v-230q0 -98 -57 -147q-47 -41 -125 -41zM479 -124q0 -18 -14 -32t-32 -14q-19 0 -33 14t-14 32
q0 19 14 33t33 14q18 0 32 -14t14 -33z" />
    <glyph glyph-name="uniFE90" unicode="&#x628;" horiz-adv-x="896" arabic-form="final" 
d="M602 0h-291q-123 0 -185 72q-46 55 -46 137q0 63 35 115q33 49 91 73l35 -53q-44 -21 -69 -56.5t-25 -78.5q0 -62 46 -103q43 -38 109 -38h282q130 0 130 128v222h70v-222q0 -65 33 -99q27 -29 72 -29h17v-68h-25q-88 0 -132 65q-48 -65 -147 -65zM479 -124
q0 -18 -14 -32t-32 -14q-19 0 -33 14t-14 32q0 19 14 33t33 14q18 0 32 -14t14 -33z" />
    <glyph glyph-name="uniFE91" unicode="&#x628;" horiz-adv-x="271" arabic-form="initial" 
d="M-10 0v68h17q51 0 80 38q25 34 25 90v222h70v-230q0 -98 -56 -148q-44 -40 -111 -40h-25zM86 -170q-18 0 -32 14t-14 32q0 19 13.5 33t32.5 14t32.5 -14t13.5 -33q0 -18 -14 -32t-32 -14z" />
    <glyph glyph-name="uniFE92" unicode="&#x628;" horiz-adv-x="293" arabic-form="medial" 
d="M-10 0v68h17q51 0 80 38q25 34 25 90v222h70v-222q0 -65 32 -99q28 -29 73 -29h16v-68h-24q-88 0 -132 64q-45 -64 -132 -64h-25zM147 -170q-18 0 -32 14t-14 32q0 19 14 33t32 14q19 0 33 -14t14 -33q0 -18 -14 -32t-33 -14z" />
    <glyph glyph-name="uniFE93" unicode="&#x629;" horiz-adv-x="500" arabic-form="isolated" 
d="M236 546q0 -19 -14 -33t-32 -14q-19 0 -33 14t-14 33q0 18 14 32t33 14q18 0 32 -14t14 -32zM347 546q0 -19 -14 -33t-33 -14q-18 0 -32 14t-14 33q0 18 14 32t32 14q19 0 33 -14t14 -32zM264 -10h-28q-83 0 -128 68q-40 59 -40 154q0 109 55 168q48 51 127 51
q91 0 139 -66q43 -58 43 -153q0 -109 -51 -169q-45 -53 -117 -53zM138 211q0 -78 30 -118q27 -35 72 -35h20q52 0 79 45q23 40 23 108q0 79 -33 118q-28 34 -79 34q-58 0 -87 -45q-25 -38 -25 -107z" />
    <glyph glyph-name="uniFE94" unicode="&#x629;" horiz-adv-x="529" arabic-form="final" 
d="M228 589q0 -18 -14 -32t-32 -14q-19 0 -33 14t-14 32q0 19 14 33t33 14q18 0 32 -14t14 -33zM339 589q0 -18 -14 -32t-32 -14q-19 0 -33 14t-14 32q0 19 14 33t33 14q18 0 32 -14t14 -33zM539 0h-24q-99 0 -143 80q-54 -55 -130 -55q-80 0 -128 60q-44 55 -44 145
q0 106 67 164q57 49 146 49h65v46h70v-293q0 -65 33 -99q27 -29 72 -29h16v-68zM348 375h-62q-77 0 -114 -43q-32 -36 -32 -101q0 -69 31 -106q26 -32 71 -32q56 0 110 49q-4 20 -4 46v187z" />
    <glyph glyph-name="uniFE95" unicode="&#x62a;" horiz-adv-x="874" arabic-form="isolated" 
d="M449 456q0 -19 -13.5 -33t-32.5 -14t-32.5 14t-13.5 33q0 18 14 32t32 14t32 -14t14 -32zM560 456q0 -19 -13.5 -33t-32.5 -14t-32.5 14t-13.5 33q0 18 14 32t32 14t32 -14t14 -32zM602 0h-291q-123 0 -185 72q-46 55 -46 137q0 63 35 115q33 49 91 73l35 -53
q-44 -21 -69 -56.5t-25 -78.5q0 -62 46 -103q43 -38 109 -38h282q130 0 130 128v222h70v-230q0 -98 -57 -147q-47 -41 -125 -41z" />
    <glyph glyph-name="uniFE96" unicode="&#x62a;" horiz-adv-x="896" arabic-form="final" 
d="M449 456q0 -19 -13.5 -33t-32.5 -14t-32.5 14t-13.5 33q0 18 14 32t32 14t32 -14t14 -32zM560 456q0 -19 -13.5 -33t-32.5 -14t-32.5 14t-13.5 33q0 18 14 32t32 14t32 -14t14 -32zM602 0h-291q-123 0 -185 72q-46 55 -46 137q0 63 35 115q33 49 91 73l35 -53
q-44 -21 -69 -56.5t-25 -78.5q0 -62 46 -103q43 -38 109 -38h282q130 0 130 128v222h70v-222q0 -65 33 -99q27 -29 72 -29h17v-68h-25q-88 0 -132 65q-48 -65 -147 -65z" />
    <glyph glyph-name="uniFE97" unicode="&#x62a;" horiz-adv-x="271" arabic-form="initial" 
d="M135 546q0 -19 -14 -33t-32 -14q-19 0 -33 14t-14 33q0 18 14 32t33 14q18 0 32 -14t14 -32zM246 546q0 -19 -14 -33t-32 -14q-19 0 -33 14t-14 33q0 18 14 32t33 14q18 0 32 -14t14 -32zM15 0h-25v68h17q51 0 80 38q25 34 25 90v222h70v-230q0 -98 -56 -148
q-44 -40 -111 -40z" />
    <glyph glyph-name="uniFE98" unicode="&#x62a;" horiz-adv-x="293" arabic-form="medial" 
d="M138 546q0 -19 -14 -33t-32 -14q-19 0 -33 14t-14 33q0 18 14 32t33 14q18 0 32 -14t14 -32zM249 546q0 -19 -14 -33t-32 -14q-19 0 -33 14t-14 33q0 18 14 32t33 14q18 0 32 -14t14 -32zM15 0h-25v68h17q51 0 80 38q25 34 25 90v222h70v-222q0 -65 32 -99q28 -29 73 -29
h16v-68h-24q-88 0 -132 64q-45 -64 -132 -64z" />
    <glyph glyph-name="uniFE99" unicode="&#x62b;" horiz-adv-x="874" arabic-form="isolated" 
d="M501 553q0 -17 -13 -30t-30 -13t-29.5 13t-12.5 30t12.5 29.5t29.5 12.5t30 -12.5t13 -29.5zM449 456q0 -19 -13.5 -33t-32.5 -14t-32.5 14t-13.5 33q0 18 14 32t32 14t32 -14t14 -32zM560 456q0 -19 -13.5 -33t-32.5 -14t-32.5 14t-13.5 33q0 18 14 32t32 14t32 -14
t14 -32zM602 0h-291q-123 0 -185 72q-46 55 -46 137q0 63 35 115q33 49 91 73l35 -53q-44 -21 -69 -56.5t-25 -78.5q0 -62 46 -103q43 -38 109 -38h282q130 0 130 128v222h70v-230q0 -98 -57 -147q-47 -41 -125 -41z" />
    <glyph glyph-name="uniFE9A" unicode="&#x62b;" horiz-adv-x="896" arabic-form="final" 
d="M501 553q0 -17 -13 -30t-30 -13t-29.5 13t-12.5 30t12.5 29.5t29.5 12.5t30 -12.5t13 -29.5zM449 456q0 -19 -13.5 -33t-32.5 -14t-32.5 14t-13.5 33q0 18 14 32t32 14t32 -14t14 -32zM560 456q0 -19 -13.5 -33t-32.5 -14t-32.5 14t-13.5 33q0 18 14 32t32 14t32 -14
t14 -32zM602 0h-291q-123 0 -185 72q-46 55 -46 137q0 63 35 115q33 49 91 73l35 -53q-44 -21 -69 -56.5t-25 -78.5q0 -62 46 -103q43 -38 109 -38h282q130 0 130 128v222h70v-222q0 -65 33 -99q27 -29 72 -29h17v-68h-25q-88 0 -132 65q-48 -65 -147 -65z" />
    <glyph glyph-name="uniFE9B" unicode="&#x62b;" horiz-adv-x="271" arabic-form="initial" 
d="M187 643q0 -17 -13 -30t-30 -13t-29.5 13t-12.5 30t12.5 29.5t29.5 12.5t30 -12.5t13 -29.5zM135 546q0 -19 -14 -33t-32 -14q-19 0 -33 14t-14 33q0 18 14 32t33 14q18 0 32 -14t14 -32zM246 546q0 -19 -14 -33t-32 -14q-19 0 -33 14t-14 33q0 18 14 32t33 14
q18 0 32 -14t14 -32zM15 0h-25v68h17q51 0 80 38q25 34 25 90v222h70v-230q0 -98 -56 -148q-44 -40 -111 -40z" />
    <glyph glyph-name="uniFE9C" unicode="&#x62b;" horiz-adv-x="293" arabic-form="medial" 
d="M190 643q0 -17 -13 -30t-30 -13t-29.5 13t-12.5 30t12.5 29.5t29.5 12.5t30 -12.5t13 -29.5zM138 546q0 -19 -14 -33t-32 -14q-19 0 -33 14t-14 33q0 18 14 32t33 14q18 0 32 -14t14 -32zM249 546q0 -19 -14 -33t-32 -14q-19 0 -33 14t-14 33q0 18 14 32t33 14
q18 0 32 -14t14 -32zM15 0h-25v68h17q51 0 80 38q25 34 25 90v222h70v-222q0 -65 32 -99q28 -29 73 -29h16v-68h-24q-88 0 -132 64q-45 -64 -132 -64z" />
    <glyph glyph-name="uniFE9D" unicode="&#x62c;" horiz-adv-x="583" arabic-form="isolated" 
d="M504 -311q-86 -57 -185 -57q-113 0 -184 75q-65 70 -65 178q0 153 119 241q104 76 285 94q-86 121 -183 121q-75 0 -144 -69l-43 48q81 88 187 88q86 0 160 -61q65 -54 102 -142v-42q-212 -10 -321 -95q-92 -71 -92 -184q0 -92 63 -143q51 -41 126 -41q77 0 145 43z
M362 -117q0 -18 -14 -32t-32 -14q-19 0 -33 14t-14 32q0 19 14 33t33 14q18 0 32 -14t14 -33z" />
    <glyph glyph-name="uniFE9E" unicode="&#x62c;" horiz-adv-x="671" arabic-form="final" 
d="M504 -311q-86 -57 -185 -57q-113 0 -184 75q-65 70 -65 178q0 153 119 241q104 76 285 94q-86 121 -183 121q-75 0 -144 -69l-43 48q81 88 187 88q86 0 160 -61q65 -54 102 -142v-42q-56 -3 -96 -10q23 -50 75 -69q44 -16 124 -16h25v-68h-30q-112 0 -175 38
q-55 34 -83 103q-132 -33 -197 -106q-56 -64 -56 -151q0 -92 63 -143q51 -41 126 -41q77 0 145 43zM362 -117q0 -18 -14 -32t-32 -14q-19 0 -33 14t-14 32q0 19 14 33t33 14q18 0 32 -14t14 -33z" />
    <glyph glyph-name="uniFE9F" unicode="&#x62c;" horiz-adv-x="556" arabic-form="initial" 
d="M126 0h-136v68h127q128 0 200 38q55 28 119 101q-89 134 -192 134q-75 0 -144 -69l-43 48q81 88 187 88q86 0 160 -61q65 -54 102 -142v-16q-46 -60 -82 -93t-77 -53q-84 -43 -221 -43zM295 -124q0 -18 -14 -32t-32 -14q-19 0 -33 14t-14 32q0 19 14 33t33 14
q18 0 32 -14t14 -33z" />
    <glyph glyph-name="uniFEA0" unicode="&#x62c;" horiz-adv-x="671" arabic-form="medial" 
d="M126 0h-136v68h127q128 0 200 38q55 28 119 101q-89 134 -192 134q-75 0 -144 -69l-43 48q81 88 187 88q86 0 160 -61q65 -54 102 -142v-16q-11 -15 -36 -45l-5 -6q22 -37 66.5 -53.5t123.5 -16.5h26v-68h-31q-91 0 -149 25q-51 22 -82 66q-55 -48 -123.5 -69.5
t-169.5 -21.5zM322 -124q0 -18 -14 -32t-32 -14q-19 0 -33 14t-14 32q0 19 14 33t33 14q18 0 32 -14t14 -33z" />
    <glyph glyph-name="uniFEA1" unicode="&#x62d;" horiz-adv-x="583" arabic-form="isolated" 
d="M504 -311q-86 -57 -185 -57q-113 0 -184 75q-65 70 -65 178q0 153 119 241q104 76 285 94q-86 121 -183 121q-75 0 -144 -69l-43 48q81 88 187 88q86 0 160 -61q65 -54 102 -142v-42q-212 -10 -321 -95q-92 -71 -92 -184q0 -92 63 -143q51 -41 126 -41q77 0 145 43z" />
    <glyph glyph-name="uniFEA2" unicode="&#x62d;" horiz-adv-x="671" arabic-form="final" 
d="M504 -311q-86 -57 -185 -57q-113 0 -184 75q-65 70 -65 178q0 153 119 241q104 76 285 94q-86 121 -183 121q-75 0 -144 -69l-43 48q81 88 187 88q86 0 160 -61q65 -54 102 -142v-42q-56 -3 -96 -10q21 -46 67 -65.5t132 -19.5h25v-68h-30q-112 0 -175 38q-55 34 -83 103
q-132 -33 -197 -106q-56 -64 -56 -151q0 -92 63 -143q51 -41 126 -41q77 0 145 43z" />
    <glyph glyph-name="uniFEA3" unicode="&#x62d;" horiz-adv-x="556" arabic-form="initial" 
d="M126 0h-136v68h127q128 0 200 38q55 28 119 101q-89 134 -192 134q-75 0 -144 -69l-43 48q81 88 187 88q86 0 160 -61q65 -54 102 -142v-16q-46 -60 -82 -93t-77 -53q-84 -43 -221 -43z" />
    <glyph glyph-name="uniFEA4" unicode="&#x62d;" horiz-adv-x="671" arabic-form="medial" 
d="M126 0h-136v68h127q128 0 200 38q55 28 119 101q-89 134 -192 134q-75 0 -144 -69l-43 48q81 88 187 88q86 0 160 -61q65 -54 102 -142v-16q-11 -15 -36 -45l-5 -6q22 -37 66.5 -53.5t123.5 -16.5h26v-68h-31q-91 0 -149 25q-51 22 -82 66q-55 -48 -123.5 -69.5
t-169.5 -21.5z" />
    <glyph glyph-name="uniFEA5" unicode="&#x62e;" horiz-adv-x="583" arabic-form="isolated" 
d="M337 542q0 -19 -14 -33t-32 -14q-19 0 -33 14t-14 33q0 18 14 32t33 14q18 0 32 -14t14 -32zM504 -311q-86 -57 -185 -57q-113 0 -184 75q-65 70 -65 178q0 153 119 241q104 76 285 94q-86 121 -183 121q-75 0 -144 -69l-43 48q81 88 187 88q86 0 160 -61
q65 -54 102 -142v-42q-212 -10 -321 -95q-92 -71 -92 -184q0 -92 63 -143q51 -41 126 -41q77 0 145 43z" />
    <glyph glyph-name="uniFEA6" unicode="&#x62e;" horiz-adv-x="671" arabic-form="final" 
d="M338 542q0 -19 -14 -33t-32 -14q-19 0 -33 14t-14 33q0 18 14 32t33 14q18 0 32 -14t14 -32zM504 -311q-86 -57 -185 -57q-113 0 -184 75q-65 70 -65 178q0 153 119 241q104 76 285 94q-86 121 -183 121q-75 0 -144 -69l-43 48q81 88 187 88q86 0 160 -61
q65 -54 102 -142v-42q-56 -3 -96 -10q21 -46 67 -65.5t132 -19.5h25v-68h-30q-112 0 -175 38q-55 34 -83 103q-132 -33 -197 -106q-56 -64 -56 -151q0 -92 63 -143q51 -41 126 -41q77 0 145 43z" />
    <glyph glyph-name="uniFEA7" unicode="&#x62e;" horiz-adv-x="556" arabic-form="initial" 
d="M295 542q0 -19 -13.5 -33t-32.5 -14t-32.5 14t-13.5 33q0 18 14 32t32 14t32 -14t14 -32zM126 0h-136v68h127q128 0 200 38q55 28 119 101q-89 134 -192 134q-75 0 -144 -69l-43 48q81 88 187 88q86 0 160 -61q65 -54 102 -142v-16q-46 -60 -82 -93t-77 -53
q-84 -43 -221 -43z" />
    <glyph glyph-name="uniFEA8" unicode="&#x62e;" horiz-adv-x="671" arabic-form="medial" 
d="M300 542q0 -19 -14 -33t-32 -14q-19 0 -33 14t-14 33q0 18 14 32t33 14q18 0 32 -14t14 -32zM126 0h-136v68h127q128 0 200 38q55 28 119 101q-89 134 -192 134q-75 0 -144 -69l-43 48q81 88 187 88q86 0 160 -61q65 -54 102 -142v-16q-11 -15 -36 -45l-5 -6
q22 -37 66.5 -53.5t123.5 -16.5h26v-68h-31q-91 0 -149 25q-51 22 -82 66q-55 -48 -123.5 -69.5t-169.5 -21.5z" />
    <glyph glyph-name="uniFEA9" unicode="&#x62f;" horiz-adv-x="456" arabic-form="isolated" 
d="M221 0h-201v68h182q109 0 109 94q0 56 -33 111t-94 100l41 56q79 -59 120 -133q36 -66 36 -133q0 -163 -160 -163z" />
    <glyph glyph-name="uniFEAA" unicode="&#x62f;" horiz-adv-x="491" arabic-form="final" 
d="M221 0h-201v68h182q109 0 109 94q0 56 -33 111t-94 100l41 56q79 -58 120 -131q36 -64 36 -131q0 -49 34 -77q28 -22 69 -22h17v-68h-25q-80 0 -125 54q-41 -54 -130 -54z" />
    <glyph glyph-name="uniFEAB" unicode="&#x630;" horiz-adv-x="456" arabic-form="isolated" 
d="M247 542q0 -19 -14 -33t-32 -14q-19 0 -33 14t-14 33q0 18 14 32t33 14q18 0 32 -14t14 -32zM221 0h-201v68h182q109 0 109 94q0 56 -33 111t-94 100l41 56q79 -59 120 -133q36 -66 36 -133q0 -163 -160 -163z" />
    <glyph glyph-name="uniFEAC" unicode="&#x630;" horiz-adv-x="491" arabic-form="final" 
d="M241 542q0 -19 -13.5 -33t-32.5 -14t-32.5 14t-13.5 33q0 18 14 32t32 14t32 -14t14 -32zM221 0h-201v68h182q109 0 109 94q0 56 -33 111t-94 100l41 56q79 -58 120 -131q36 -64 36 -131q0 -49 34 -77q28 -22 69 -22h17v-68h-25q-80 0 -125 54q-41 -54 -130 -54z" />
    <glyph glyph-name="uniFEAD" unicode="&#x631;" horiz-adv-x="343" arabic-form="isolated" 
d="M253 418v-396q0 -111 -58 -167q-47 -45 -124 -45q-58 0 -121 31l20 61q50 -25 94 -25q59 0 90 39q29 36 29 102v400h70z" />
    <glyph glyph-name="uniFEAE" unicode="&#x631;" horiz-adv-x="365" arabic-form="final" 
d="M253 29v-13q-3 -107 -57 -160q-47 -46 -125 -46q-58 0 -121 31l20 61q50 -25 94 -25q59 0 90 39q29 36 29 102v400h70v-222q0 -65 33 -99q27 -29 72 -29h17v-68h-25q-58 0 -97 29z" />
    <glyph glyph-name="uniFEAF" unicode="&#x632;" horiz-adv-x="343" arabic-form="isolated" 
d="M265 542q0 -19 -14 -33t-32 -14q-19 0 -33 14t-14 33q0 18 14 32t33 14q18 0 32 -14t14 -32zM253 418v-396q0 -111 -58 -167q-47 -45 -124 -45q-58 0 -121 31l20 61q50 -25 94 -25q59 0 90 39q29 36 29 102v400h70z" />
    <glyph glyph-name="uniFEB0" unicode="&#x632;" horiz-adv-x="365" arabic-form="final" 
d="M261 542q0 -19 -14 -33t-32 -14q-19 0 -32.5 14t-13.5 33q0 18 14 32t32 14t32 -14t14 -32zM253 29v-13q-3 -107 -57 -160q-47 -46 -125 -46q-58 0 -121 31l20 61q50 -25 94 -25q59 0 90 39q29 36 29 102v400h70v-222q0 -65 33 -99q27 -29 72 -29h17v-68h-25
q-58 0 -97 29z" />
    <glyph glyph-name="uniFEB1" unicode="&#x633;" horiz-adv-x="1252" arabic-form="isolated" 
d="M576 4q-18 -101 -96 -153q-63 -42 -152 -42q-125 0 -194 73q-64 67 -64 180q0 89 45 157l58 -28q-33 -64 -33 -129q0 -86 54 -137q51 -48 134 -48q81 0 134 52q50 51 50 133v291h69v-157q0 -65 33 -99q29 -29 77 -29q56 0 85 38q26 33 26 90v157h70v-157q0 -65 33 -99
q29 -29 77 -29q56 0 85 38q26 33 26 90v222h69v-230q0 -99 -56 -148q-46 -40 -122 -40q-103 0 -147 64q-44 -64 -145 -64q-73 0 -113 30z" />
    <glyph glyph-name="uniFEB2" unicode="&#x633;" horiz-adv-x="1310" arabic-form="final" 
d="M578 18q-14 -108 -94 -164q-64 -45 -156 -45q-125 0 -194 73q-64 67 -64 180q0 89 45 157l58 -28q-33 -64 -33 -129q0 -86 54 -137q51 -48 134 -48q81 0 134 52q50 51 50 133v291h69v-157q0 -65 33 -99q29 -29 77 -29q56 0 85 38q26 33 26 90v157h70v-157q0 -65 33 -99
q29 -29 77 -29q56 0 85 38q26 33 26 90v157h69v-157q0 -65 33 -99q27 -29 72 -29h53v-68h-61q-87 0 -132 65q-45 -65 -143 -65q-103 0 -147 64q-44 -64 -145 -64q-73 0 -113 30q0 -2 -1 -6v-6z" />
    <glyph glyph-name="uniFEB3" unicode="&#x633;" horiz-adv-x="888" arabic-form="initial" 
d="M51 0h-61v68h53q51 0 80 38q25 34 25 90v157h70v-157q0 -65 33 -99q28 -29 76 -29q59 0 87 39q24 32 24 89v157h70v-157q0 -66 33 -99q28 -29 78 -29q55 0 84 38q26 33 26 90v222h69v-230q0 -100 -56 -148q-46 -40 -123 -40q-102 0 -145 64q-45 -64 -150 -64
q-97 0 -141 64q-44 -64 -132 -64z" />
    <glyph glyph-name="uniFEB4" unicode="&#x633;" horiz-adv-x="946" arabic-form="medial" 
d="M51 0h-61v68h53q51 0 80 38q25 34 25 90v157h70v-157q0 -65 33 -99q27 -29 74 -29q60 0 89 39q24 32 24 89v157h70v-157q0 -65 34 -99q28 -29 77 -29q57 0 86 39q24 33 24 89v157h69v-157q0 -65 33 -99q28 -29 73 -29h52v-68h-60q-87 0 -132 64q-46 -64 -146 -64
q-101 0 -144 64q-45 -64 -152 -64q-96 0 -139 64q-44 -64 -132 -64z" />
    <glyph glyph-name="uniFEB5" unicode="&#x634;" horiz-adv-x="1252" arabic-form="isolated" 
d="M879 604q0 -17 -13 -30t-30 -13t-29.5 13t-12.5 30t12.5 29.5t29.5 12.5t30 -12.5t13 -29.5zM827 507q0 -19 -13.5 -33t-32.5 -14t-32.5 14t-13.5 33q0 18 14 32t32 14t32 -14t14 -32zM938 507q0 -19 -14 -33t-32 -14q-19 0 -33 14t-14 33q0 18 14 32t33 14q18 0 32 -14
t14 -32zM576 4q-18 -101 -96 -153q-63 -42 -152 -42q-125 0 -194 73q-64 67 -64 180q0 89 45 157l58 -28q-33 -64 -33 -129q0 -86 54 -137q51 -48 134 -48q81 0 134 52q50 51 50 133v291h69v-157q0 -65 33 -99q29 -29 77 -29q56 0 85 38q26 33 26 90v157h70v-157
q0 -65 33 -99q29 -29 77 -29q56 0 85 38q26 33 26 90v222h69v-230q0 -99 -56 -148q-46 -40 -122 -40q-103 0 -147 64q-44 -64 -145 -64q-73 0 -113 30z" />
    <glyph glyph-name="uniFEB6" unicode="&#x634;" horiz-adv-x="1310" arabic-form="final" 
d="M879 604q0 -17 -13 -30t-30 -13t-29.5 13t-12.5 30t12.5 29.5t29.5 12.5t30 -12.5t13 -29.5zM827 507q0 -19 -13.5 -33t-32.5 -14t-32.5 14t-13.5 33q0 18 14 32t32 14t32 -14t14 -32zM938 507q0 -19 -14 -33t-32 -14q-19 0 -33 14t-14 33q0 18 14 32t33 14q18 0 32 -14
t14 -32zM578 18q-14 -108 -94 -164q-64 -45 -156 -45q-125 0 -194 73q-64 67 -64 180q0 89 45 157l58 -28q-33 -64 -33 -129q0 -86 54 -137q51 -48 134 -48q81 0 134 52q50 51 50 133v291h69v-157q0 -65 33 -99q29 -29 77 -29q56 0 85 38q26 33 26 90v157h70v-157
q0 -65 33 -99q29 -29 77 -29q56 0 85 38q26 33 26 90v157h69v-157q0 -65 33 -99q27 -29 72 -29h53v-68h-61q-87 0 -132 65q-45 -65 -143 -65q-103 0 -147 64q-44 -64 -145 -64q-73 0 -113 30q0 -2 -1 -6v-6z" />
    <glyph glyph-name="uniFEB7" unicode="&#x634;" horiz-adv-x="888" arabic-form="initial" 
d="M515 604q0 -17 -12.5 -30t-29.5 -13t-30 13t-13 30t13 29.5t30 12.5t29.5 -12.5t12.5 -29.5zM464 507q0 -19 -14 -33t-33 -14q-18 0 -32 14t-14 33q0 18 14 32t32 14q19 0 33 -14t14 -32zM574 507q0 -19 -13.5 -33t-32.5 -14q-18 0 -32 14t-14 33q0 18 14 32t32 14
t32 -14t14 -32zM51 0h-61v68h53q51 0 80 38q25 34 25 90v157h70v-157q0 -65 33 -99q28 -29 76 -29q59 0 87 39q24 32 24 89v157h70v-157q0 -66 33 -99q28 -29 78 -29q55 0 84 38q26 33 26 90v222h69v-230q0 -100 -56 -148q-46 -40 -123 -40q-102 0 -145 64q-45 -64 -150 -64
q-97 0 -141 64q-44 -64 -132 -64z" />
    <glyph glyph-name="uniFEB8" unicode="&#x634;" horiz-adv-x="946" arabic-form="medial" 
d="M516 604q0 -17 -12.5 -30t-29.5 -13t-30 13t-13 30t13 29.5t30 12.5t29.5 -12.5t12.5 -29.5zM465 507q0 -19 -14 -33t-33 -14q-18 0 -32 14t-14 33q0 18 14 32t32 14q19 0 33 -14t14 -32zM575 507q0 -19 -13.5 -33t-32.5 -14q-18 0 -32 14t-14 33q0 18 14 32t32 14
t32 -14t14 -32zM51 0h-61v68h53q51 0 80 38q25 34 25 90v157h70v-157q0 -65 33 -99q27 -29 74 -29q60 0 89 39q24 32 24 89v157h70v-157q0 -65 34 -99q28 -29 77 -29q57 0 86 39q24 33 24 89v157h69v-157q0 -65 33 -99q28 -29 73 -29h52v-68h-60q-87 0 -132 64
q-46 -64 -146 -64q-101 0 -144 64q-45 -64 -152 -64q-96 0 -139 64q-44 -64 -132 -64z" />
    <glyph glyph-name="uniFEB9" unicode="&#x635;" horiz-adv-x="1379" arabic-form="isolated" 
d="M577 14q-15 -106 -94 -161q-64 -44 -155 -44q-125 0 -194 73q-64 67 -64 180q0 89 45 157l58 -28q-33 -64 -33 -129q0 -86 54 -137q51 -48 134 -48q81 0 134 52q50 51 50 133v268h69v-134q0 -63 31 -97q26 -30 69 -31q81 200 206 292q92 68 193 68q106 0 165 -65
q54 -58 54 -157q0 -116 -57 -163q-51 -43 -162 -43h-405q-58 2 -96 30q0 -2 -1 -9q-1 -5 -1 -7zM751 68h324q91 0 125 36q29 31 29 102q0 154 -144 154q-101 0 -195 -88q-83 -77 -139 -204z" />
    <glyph glyph-name="uniFEBA" unicode="&#x635;" horiz-adv-x="1401" arabic-form="final" 
d="M579 30l-1 -10q-13 -109 -93 -166q-64 -45 -157 -45q-125 0 -194 73q-64 67 -64 180q0 89 45 157l58 -28q-33 -64 -33 -129q0 -86 54 -137q51 -48 134 -48q81 0 134 52q50 51 50 133v268h69v-134q0 -63 31 -97q26 -30 69 -31q81 200 206 292q92 68 193 68q106 0 165 -65
q54 -58 54 -157q0 -138 105 -138h7v-68h-15q-88 0 -134 65q-48 -65 -182 -65h-405q-58 2 -96 30zM751 68h324q91 0 125 36q29 31 29 102q0 154 -144 154q-101 0 -195 -88q-83 -77 -139 -204z" />
    <glyph glyph-name="uniFEBB" unicode="&#x635;" horiz-adv-x="969" arabic-form="initial" 
d="M5 0h-15v68h7q51 0 80 38q25 34 25 90v134h70v-134q0 -63 31 -97q26 -30 68 -31q81 199 207 292q92 68 193 68q106 0 165 -65q53 -59 53 -160q0 -114 -57 -161q-51 -42 -161 -42h-405q-86 2 -128 64q-45 -64 -133 -64zM342 68h324q91 0 125 36q29 31 29 102
q0 154 -144 154q-101 0 -195 -88q-83 -77 -139 -204z" />
    <glyph glyph-name="uniFEBC" unicode="&#x635;" horiz-adv-x="991" arabic-form="medial" 
d="M5 0h-15v68h7q51 0 80 38q25 34 25 90v134h70v-134q0 -63 31 -97q26 -30 68 -31q81 199 207 292q92 68 193 68q107 0 165 -66q53 -61 53 -165q0 -65 33 -100q27 -29 72 -29h7v-68h-15q-86 0 -132 65q-49 -65 -183 -65h-405q-86 2 -128 64q-45 -64 -133 -64zM342 68h324
q91 0 125 36q29 32 29 103q0 80 -41 119q-37 34 -103 34q-101 0 -195 -88q-83 -77 -139 -204z" />
    <glyph glyph-name="uniFEBD" unicode="&#x636;" horiz-adv-x="1379" arabic-form="isolated" 
d="M1100 561q0 -18 -14 -32t-32 -14t-32 14t-14 32q0 19 13.5 33t32.5 14t32.5 -14t13.5 -33zM577 14q-15 -106 -94 -161q-64 -44 -155 -44q-125 0 -194 73q-64 67 -64 180q0 89 45 157l58 -28q-33 -64 -33 -129q0 -86 54 -137q51 -48 134 -48q81 0 134 52q50 51 50 133v268
h69v-134q0 -63 31 -97q26 -30 69 -31q81 200 206 292q92 68 193 68q106 0 165 -65q54 -58 54 -157q0 -116 -57 -163q-51 -43 -162 -43h-405q-58 2 -96 30q0 -2 -1 -9q-1 -5 -1 -7zM751 68h324q91 0 125 36q29 31 29 102q0 154 -144 154q-101 0 -195 -88q-83 -77 -139 -204z
" />
    <glyph glyph-name="uniFEBE" unicode="&#x636;" horiz-adv-x="1401" arabic-form="final" 
d="M1100 561q0 -18 -14 -32t-32 -14t-32 14t-14 32q0 19 13.5 33t32.5 14t32.5 -14t13.5 -33zM579 30l-1 -10q-13 -109 -93 -166q-64 -45 -157 -45q-125 0 -194 73q-64 67 -64 180q0 89 45 157l58 -28q-33 -64 -33 -129q0 -86 54 -137q51 -48 134 -48q81 0 134 52
q50 51 50 133v268h69v-134q0 -63 31 -97q26 -30 69 -31q81 200 206 292q92 68 193 68q106 0 165 -65q54 -58 54 -157q0 -138 105 -138h7v-68h-15q-88 0 -134 65q-48 -65 -182 -65h-405q-58 2 -96 30zM751 68h324q91 0 125 36q29 31 29 102q0 154 -144 154q-101 0 -195 -88
q-83 -77 -139 -204z" />
    <glyph glyph-name="uniFEBF" unicode="&#x636;" horiz-adv-x="969" arabic-form="initial" 
d="M709 561q0 -18 -14 -32t-32 -14t-32 14t-14 32q0 19 13.5 33t32.5 14t32.5 -14t13.5 -33zM5 0h-15v68h7q51 0 80 38q25 34 25 90v134h70v-134q0 -63 31 -97q26 -30 68 -31q81 199 207 292q92 68 193 68q106 0 165 -65q53 -59 53 -160q0 -114 -57 -161q-51 -42 -161 -42
h-405q-86 2 -128 64q-45 -64 -133 -64zM342 68h324q91 0 125 36q29 31 29 102q0 154 -144 154q-101 0 -195 -88q-83 -77 -139 -204z" />
    <glyph glyph-name="uniFEC0" unicode="&#x636;" horiz-adv-x="991" arabic-form="medial" 
d="M709 561q0 -18 -14 -32t-32 -14t-32 14t-14 32q0 19 13.5 33t32.5 14t32.5 -14t13.5 -33zM5 0h-15v68h7q51 0 80 38q25 34 25 90v134h70v-134q0 -63 31 -97q26 -30 68 -31q81 199 207 292q92 68 193 68q107 0 165 -66q53 -61 53 -165q0 -65 33 -100q27 -29 72 -29h7v-68
h-15q-86 0 -132 65q-49 -65 -183 -65h-405q-86 2 -128 64q-45 -64 -133 -64zM342 68h324q91 0 125 36q29 32 29 103q0 80 -41 119q-37 34 -103 34q-101 0 -195 -88q-83 -77 -139 -204z" />
    <glyph glyph-name="uniFEC1" unicode="&#x637;" horiz-adv-x="851" arabic-form="isolated" 
d="M552 0h-532v68h132v598h69v-462q77 123 177 181q75 43 154 43q106 0 165 -65q54 -58 54 -157q0 -116 -57 -163q-51 -43 -162 -43zM223 68h324q91 0 125 36q29 31 29 102q0 154 -144 154q-101 0 -195 -88q-83 -77 -139 -204z" />
    <glyph glyph-name="uniFEC2" unicode="&#x637;" horiz-adv-x="876" arabic-form="final" 
d="M546 0h-526v68h125v598h70v-462q76 123 176 181q75 43 154 43q106 0 165 -65q54 -58 54 -157q0 -73 32 -108q27 -30 73 -30h17v-68h-25q-88 0 -134 65q-46 -65 -181 -65zM217 68h324q91 0 124 36q29 31 29 102q0 154 -144 154q-101 0 -194 -88q-83 -77 -139 -204z" />
    <glyph glyph-name="uniFEC3" unicode="&#x637;" horiz-adv-x="856" arabic-form="initial" 
d="M558 0h-568v68h167v598h70v-462q76 123 176 181q75 43 154 43q106 0 165 -65q54 -58 54 -157q0 -116 -57 -163q-51 -43 -161 -43zM229 68h324q91 0 124 36q29 31 29 102q0 154 -144 154q-101 0 -194 -88q-83 -77 -139 -204z" />
    <glyph glyph-name="uniFEC4" unicode="&#x637;" horiz-adv-x="888" arabic-form="medial" 
d="M558 0h-568v68h167v598h70v-462q76 123 176 181q75 43 154 43q106 0 165 -65q54 -58 54 -157q0 -138 105 -138h17v-68h-25q-88 0 -134 65q-46 -65 -181 -65zM229 68h324q91 0 124 36q29 31 29 102q0 154 -144 154q-101 0 -194 -88q-83 -77 -139 -204z" />
    <glyph glyph-name="uniFEC5" unicode="&#x638;" horiz-adv-x="851" arabic-form="isolated" 
d="M552 0h-532v68h132v598h69v-462q77 123 177 181q75 43 154 43q106 0 165 -65q54 -58 54 -157q0 -116 -57 -163q-51 -43 -162 -43zM589 586q0 -19 -14 -33t-32 -14q-19 0 -33 14t-14 33q0 18 14 32t33 14q18 0 32 -14t14 -32zM223 68h324q91 0 125 36q29 31 29 102
q0 154 -144 154q-101 0 -195 -88q-83 -77 -139 -204z" />
    <glyph glyph-name="uniFEC6" unicode="&#x638;" horiz-adv-x="876" arabic-form="final" 
d="M546 0h-526v68h125v598h70v-462q76 123 176 181q75 43 154 43q106 0 165 -65q54 -58 54 -157q0 -73 32 -108q27 -30 73 -30h17v-68h-25q-88 0 -134 65q-46 -65 -181 -65zM589 586q0 -19 -14 -33t-32 -14q-19 0 -33 14t-14 33q0 18 14 32t33 14q18 0 32 -14t14 -32z
M217 68h324q91 0 124 36q29 31 29 102q0 154 -144 154q-101 0 -194 -88q-83 -77 -139 -204z" />
    <glyph glyph-name="uniFEC7" unicode="&#x638;" horiz-adv-x="856" arabic-form="initial" 
d="M558 0h-568v68h167v598h70v-462q76 123 176 181q75 43 154 43q106 0 165 -65q54 -58 54 -157q0 -116 -57 -163q-51 -43 -161 -43zM579 586q0 -19 -13.5 -33t-32.5 -14t-32.5 14t-13.5 33q0 18 14 32t32 14t32 -14t14 -32zM229 68h324q91 0 124 36q29 31 29 102
q0 154 -144 154q-101 0 -194 -88q-83 -77 -139 -204z" />
    <glyph glyph-name="uniFEC8" unicode="&#x638;" horiz-adv-x="888" arabic-form="medial" 
d="M558 0h-568v68h167v598h70v-462q76 123 176 181q75 43 154 43q106 0 165 -65q54 -58 54 -157q0 -138 105 -138h17v-68h-25q-88 0 -134 65q-46 -65 -181 -65zM579 586q0 -19 -13.5 -33t-32.5 -14t-32.5 14t-13.5 33q0 18 14 32t32 14t32 -14t14 -32zM229 68h324
q91 0 124 36q29 31 29 102q0 154 -144 154q-101 0 -194 -88q-83 -77 -139 -204z" />
    <glyph glyph-name="uniFEC9" unicode="&#x639;" horiz-adv-x="571" arabic-form="isolated" 
d="M511 -311q-88 -58 -192 -58q-112 0 -183 66q-66 62 -66 159q0 67 32 121q29 50 81 79q-82 50 -82 159q0 96 60 154q53 52 136 52h164v-68h-152q-70 0 -108 -47q-30 -37 -30 -89q0 -55 42 -91q41 -36 105 -36h182v-67h-179q-91 0 -139 -53q-38 -42 -38 -105q0 -81 64 -127
q52 -37 126 -37q82 0 146 42z" />
    <glyph glyph-name="uniFECA" unicode="&#x639;" horiz-adv-x="660" arabic-form="final" 
d="M521 -311q-88 -58 -191 -58q-114 0 -183 61q-66 58 -66 154q0 91 59 149q27 26 123 86q-16 16 -66 72q-44 49 -72 70.5t-55 26.5v39q91 149 245 149q75 0 140 -40q62 -38 106 -109v-39q-34 -6 -64.5 -31t-87.5 -95q-22 -27 -34 -41q33 -15 66 -15h229v-68h-248
q-53 0 -105 35q-16 -13 -54 -38q-57 -36 -78 -63q-29 -35 -29 -83q0 -77 64 -118q50 -32 124 -32q82 0 147 42zM144 288q41 -24 117 -107q34 -38 55 -56q11 11 39 43q78 88 132 119q-70 83 -176 83q-51 0 -90 -19t-77 -63z" />
    <glyph glyph-name="uniFECB" unicode="&#x639;" horiz-adv-x="583" arabic-form="initial" 
d="M533 0h-543v68h155q-51 60 -51 146q0 96 60 155q54 52 137 52h163v-68h-151q-70 0 -108 -47q-30 -38 -30 -90q0 -65 42 -107q40 -41 104 -41h222v-68z" />
    <glyph glyph-name="uniFECC" unicode="&#x639;" horiz-adv-x="689" arabic-form="medial" 
d="M237 0h-247v68h228q38 0 70 17q-65 76 -100 109q-50 46 -89 56v39q91 149 245 149q75 0 140 -40q62 -38 106 -109v-39q-31 -6 -60.5 -30.5t-88.5 -93.5q-23 -28 -37 -43q33 -15 66 -15h229v-68h-248q-52 0 -104 35q-53 -35 -110 -35zM174 288q25 -15 46 -34.5t69 -71.5
q34 -37 55 -56q21 19 67 68q64 70 105 93q-70 83 -176 83q-51 0 -90 -19.5t-76 -62.5z" />
    <glyph glyph-name="uniFECD" unicode="&#x63a;" horiz-adv-x="571" arabic-form="isolated" 
d="M362 542q0 -19 -14 -33t-33 -14q-18 0 -32 14t-14 33q0 18 14 32t32 14q19 0 33 -14t14 -32zM511 -311q-88 -58 -192 -58q-112 0 -183 66q-66 62 -66 159q0 67 32 121q29 50 81 79q-82 50 -82 159q0 96 60 154q53 52 136 52h164v-68h-152q-70 0 -108 -47q-30 -37 -30 -89
q0 -55 42 -91q41 -36 105 -36h182v-67h-179q-91 0 -139 -53q-38 -42 -38 -105q0 -81 64 -127q52 -37 126 -37q82 0 146 42z" />
    <glyph glyph-name="uniFECE" unicode="&#x63a;" horiz-adv-x="660" arabic-form="final" 
d="M356 544q0 -19 -13.5 -33t-32.5 -14t-32.5 14t-13.5 33q0 18 14 32t32 14t32 -14t14 -32zM521 -311q-88 -58 -191 -58q-114 0 -183 61q-66 58 -66 154q0 91 59 149q27 26 123 86q-16 16 -66 72q-44 49 -72 70.5t-55 26.5v39q91 149 245 149q75 0 140 -40q62 -38 106 -109
v-39q-34 -6 -64.5 -31t-87.5 -95q-22 -27 -34 -41q33 -15 66 -15h229v-68h-248q-53 0 -105 35q-16 -13 -54 -38q-57 -36 -78 -63q-29 -35 -29 -83q0 -77 64 -118q50 -32 124 -32q82 0 147 42zM144 288q41 -24 117 -107q34 -38 55 -56q11 11 39 43q78 88 132 119
q-70 83 -176 83q-51 0 -90 -19t-77 -63z" />
    <glyph glyph-name="uniFECF" unicode="&#x63a;" horiz-adv-x="583" arabic-form="initial" 
d="M358 542q0 -19 -14 -33t-32 -14q-19 0 -33 14t-14 33q0 18 14 32t33 14q18 0 32 -14t14 -32zM533 0h-543v68h155q-51 60 -51 146q0 96 60 155q54 52 137 52h163v-68h-151q-70 0 -108 -47q-30 -38 -30 -90q0 -65 42 -107q40 -41 104 -41h222v-68z" />
    <glyph glyph-name="uniFED0" unicode="&#x63a;" horiz-adv-x="689" arabic-form="medial" 
d="M391 544q0 -19 -13.5 -33t-32.5 -14t-32.5 14t-13.5 33q0 18 14 32t32 14t32 -14t14 -32zM237 0h-247v68h228q38 0 70 17q-65 76 -100 109q-50 46 -89 56v39q91 149 245 149q75 0 140 -40q62 -38 106 -109v-39q-31 -6 -60.5 -30.5t-88.5 -93.5q-23 -28 -37 -43
q33 -15 66 -15h229v-68h-248q-52 0 -104 35q-53 -35 -110 -35zM174 288q25 -15 46 -34.5t69 -71.5q34 -37 55 -56q21 19 67 68q64 70 105 93q-70 83 -176 83q-51 0 -90 -19.5t-76 -62.5z" />
    <glyph glyph-name="uniFED1" unicode="&#x641;" horiz-adv-x="921" arabic-form="isolated" 
d="M713 542q0 -19 -14 -33t-32 -14q-19 0 -33 14t-14 33q0 18 14 32t33 14q18 0 32 -14t14 -32zM678 0h-367q-123 0 -185 72q-46 55 -46 137q0 63 35 115q33 49 91 73l35 -53q-44 -21 -69 -56.5t-25 -78.5q0 -62 46 -103q43 -38 109 -38h234q-43 57 -43 150q0 104 55 162
q48 51 127 51q82 0 127 -52q39 -45 39 -117v-89q0 -83 -49 -131q-44 -42 -114 -42zM563 217q0 -77 41 -118q31 -31 73 -31q95 0 95 113v73q0 53 -27 82q-25 27 -70 27q-58 0 -87 -45q-25 -38 -25 -101z" />
    <glyph glyph-name="uniFED2" unicode="&#x641;" horiz-adv-x="949" arabic-form="final" 
d="M726 542q0 -19 -14 -33t-32 -14q-19 0 -33 14t-14 33q0 18 14 32t33 14q18 0 32 -14t14 -32zM617 0h-306q-123 0 -185 72q-46 55 -46 137q0 63 35 115q33 49 91 73l35 -53q-44 -21 -69 -56.5t-25 -78.5q0 -62 46 -103q43 -38 109 -38h270q-37 34 -58 80t-21 95
q0 88 53 142q50 51 131 51q93 0 142 -64q41 -51 41 -129q0 -50 -20.5 -96.5t-57.5 -78.5h177v-68h-223q-31 0 -59 7q-28 -7 -60 -7zM677 69q58 26 90 81q25 44 25 93q0 57 -33 92q-31 33 -82 33q-59 0 -90 -41q-24 -33 -24 -84q0 -54 33 -104q31 -47 81 -70z" />
    <glyph glyph-name="uniFED3" unicode="&#x641;" horiz-adv-x="534" arabic-form="initial" 
d="M336 542q0 -19 -13.5 -33t-32.5 -14t-32.5 14t-13.5 33q0 18 14 32t32 14t32 -14t14 -32zM290 0h-300v68h158q-43 57 -43 150q0 104 55 162q48 51 127 51q83 0 128 -52q39 -45 39 -117v-89q0 -83 -50 -130q-43 -42 -114 -43zM175 217q0 -77 41 -118q31 -31 73 -31
q95 0 95 113v73q0 53 -27 82q-25 27 -70 27q-58 0 -87 -45q-25 -38 -25 -101z" />
    <glyph glyph-name="uniFED4" unicode="&#x641;" horiz-adv-x="544" arabic-form="medial" 
d="M318 542q0 -19 -13.5 -33t-32.5 -14t-32.5 14t-13.5 33q0 18 14 32t32 14t32 -14t14 -32zM212 0h-222v68h177q-37 34 -58 80t-21 95q0 88 53 142q50 51 131 51q93 0 143 -64q41 -51 41 -129q0 -49 -21 -95.5t-58 -79.5h177v-68h-222q-32 0 -60 7q-28 -7 -60 -7zM272 69
q58 26 90 81q25 44 25 93q0 57 -33 92q-30 33 -82 33q-59 0 -90 -41q-24 -33 -24 -84q0 -54 33 -104q31 -47 81 -70z" />
    <glyph glyph-name="uniFED5" unicode="&#x642;" horiz-adv-x="707" arabic-form="isolated" 
d="M449 547q0 -19 -14 -33t-33 -14q-18 0 -32 14t-14 33q0 18 14 32t32 14q19 0 33 -14t14 -32zM560 547q0 -19 -14 -33t-33 -14q-18 0 -32 14t-14 33q0 18 14 32t32 14q19 0 33 -14t14 -32zM556 30q-44 -26 -97 -26q-88 0 -137 64q-43 57 -43 150q0 104 55 162
q48 51 127 51q83 0 128 -52q38 -45 38 -117v-201q0 -133 -86 -203q-72 -59 -188 -59q-142 0 -217 79q-66 68 -66 184q0 89 45 157l58 -28q-33 -64 -33 -129q0 -89 58 -142q57 -53 155 -53q82 0 136 42q49 38 63 101q2 6 4 20zM558 101v153q0 109 -97 109q-58 0 -87 -45
q-25 -38 -25 -101q0 -78 43 -117q34 -30 85 -30q41 0 81 31z" />
    <glyph glyph-name="uniFED6" unicode="&#x642;" horiz-adv-x="729" arabic-form="final" 
d="M449 546q0 -19 -14 -33t-33 -14q-18 0 -32 14t-14 33q0 18 14 32t32 14q19 0 33 -14t14 -32zM560 546q0 -19 -14 -33t-33 -14q-18 0 -32 14t-14 33q0 18 14 32t32 14q19 0 33 -14t14 -32zM623 0q-20 -103 -101 -156q-68 -45 -169 -45q-142 0 -217 79q-66 68 -66 184
q0 89 45 157l58 -28q-33 -64 -33 -129q0 -89 58 -142q57 -53 155 -53q79 0 132 39q48 35 65 94h-70q-102 0 -155 67q-46 56 -46 151q0 104 55 162q48 51 127 51q83 0 128 -52q38 -45 38 -117v-194h112v-68h-116zM558 68v186q0 109 -97 109q-58 0 -87 -45q-25 -38 -25 -101
q0 -79 45 -118q36 -31 94 -31h70z" />
    <glyph glyph-name="uniFED7" unicode="&#x642;" horiz-adv-x="534" arabic-form="initial" 
d="M281 546q0 -19 -14 -33t-33 -14q-18 0 -32 14t-14 33q0 18 14 32t32 14q19 0 33 -14t14 -32zM392 546q0 -19 -14 -33t-33 -14q-18 0 -32 14t-14 33q0 18 14 32t32 14q19 0 33 -14t14 -32zM290 0h-300v68h158q-43 57 -43 150q0 104 55 162q48 51 127 51q83 0 128 -52
q39 -45 39 -117v-89q0 -83 -50 -130q-43 -42 -114 -43zM175 217q0 -77 41 -118q31 -31 73 -31q95 0 95 113v73q0 53 -27 82q-25 27 -70 27q-58 0 -87 -45q-25 -38 -25 -101z" />
    <glyph glyph-name="uniFED8" unicode="&#x642;" horiz-adv-x="544" arabic-form="medial" 
d="M263 546q0 -19 -14 -33t-32 -14q-19 0 -33 14t-14 33q0 18 14 32t33 14q18 0 32 -14t14 -32zM374 546q0 -19 -14 -33t-33 -14q-18 0 -32 14t-14 33q0 18 14 32t32 14q19 0 33 -14t14 -32zM212 0h-222v68h177q-37 34 -58 80t-21 95q0 88 53 142q50 51 131 51q93 0 143 -64
q41 -51 41 -129q0 -49 -21 -95.5t-58 -79.5h177v-68h-222q-32 0 -60 7q-28 -7 -60 -7zM272 69q58 26 90 81q25 44 25 93q0 57 -33 92q-30 33 -82 33q-59 0 -90 -41q-24 -33 -24 -84q0 -54 33 -104q31 -47 81 -70z" />
    <glyph glyph-name="uniFED9" unicode="&#x643;" horiz-adv-x="874" arabic-form="isolated" 
d="M602 0h-291q-123 0 -185 72q-46 55 -46 137q0 63 35 115q33 49 91 73l35 -53q-44 -21 -69 -56.5t-25 -78.5q0 -62 46 -103q43 -38 109 -38h282q130 0 130 128v470h70v-478q0 -98 -57 -147q-47 -41 -125 -41zM468 362h-90v33h88q36 0 36 28q0 17 -13.5 28t-34.5 11
q-23 0 -49 -8v33l80 89l21 -16l-56 -64q41 0 63.5 -19t22.5 -53q0 -29 -18 -45.5t-50 -16.5z" />
    <glyph glyph-name="uniFEDA" unicode="&#x643;" horiz-adv-x="896" arabic-form="final" 
d="M602 0h-291q-123 0 -185 72q-46 55 -46 137q0 63 35 115q33 49 91 73l35 -53q-44 -21 -69 -56.5t-25 -78.5q0 -62 46 -103q43 -38 109 -38h282q130 0 130 128v470h70v-470q0 -65 33 -99q27 -29 72 -29h17v-68h-25q-88 0 -132 65q-48 -65 -147 -65zM468 362h-90v33h88
q36 0 36 28q0 17 -13.5 28t-34.5 11q-23 0 -49 -8v33l80 89l21 -16l-56 -64q41 0 63.5 -19t22.5 -53q0 -29 -18 -45.5t-50 -16.5z" />
    <glyph glyph-name="uniFEDB" unicode="&#x643;" horiz-adv-x="551" arabic-form="initial" 
d="M315 0h-325v68h311q130 0 130 128v2q0 61 -29 86q-27 25 -87 25h-263v66l218 226l40 -40l-176 -184h183q184 0 184 -188v-1q0 -98 -58 -147q-48 -41 -128 -41z" />
    <glyph glyph-name="uniFEDC" unicode="&#x643;" horiz-adv-x="612" arabic-form="medial" 
d="M315 0h-325v68h311q130 0 130 127v3q0 61 -29 86q-27 25 -87 25h-263v66l218 226l40 -40l-176 -184h183q184 0 184 -177v-4q0 -65 33 -99q27 -29 71 -29h17v-68h-25q-85 0 -132 64q-48 -64 -150 -64z" />
    <glyph glyph-name="uniFEDD" unicode="&#x644;" horiz-adv-x="671" arabic-form="isolated" 
d="M581 666v-605q0 -130 -84 -198q-67 -54 -169 -54q-125 0 -194 73q-64 67 -64 180q0 89 45 157l58 -28q-33 -64 -33 -129q0 -86 54 -137q51 -48 134 -48q81 0 134 53q50 50 50 133v603h69z" />
    <glyph glyph-name="uniFEDE" unicode="&#x644;" horiz-adv-x="693" arabic-form="final" 
d="M577 17q-14 -108 -93 -163q-65 -45 -156 -45q-125 0 -194 73q-64 67 -64 180q0 89 45 157l58 -28q-33 -64 -33 -129q0 -86 54 -137q51 -48 134 -48q81 0 134 53q50 50 50 133v603h69v-470q0 -65 33 -99q27 -29 72 -29h17v-68h-25q-59 0 -99 30q0 -5 -2 -13z" />
    <glyph glyph-name="uniFEDF" unicode="&#x644;" horiz-adv-x="272" arabic-form="initial" 
d="M15 0h-25v68h17q51 0 80 38q25 34 25 90v470h70v-478q0 -98 -56 -148q-44 -40 -111 -40z" />
    <glyph glyph-name="uniFEE0" unicode="&#x644;" horiz-adv-x="293" arabic-form="medial" 
d="M15 0h-25v68h17q51 0 80 38q25 34 25 90v470h70v-470q0 -65 32 -99q28 -29 73 -29h16v-68h-24q-88 0 -132 64q-45 -64 -132 -64z" />
    <glyph glyph-name="uniFEE1" unicode="&#x645;" horiz-adv-x="553" arabic-form="isolated" 
d="M90 -315h-70v218q0 73 38 115q31 36 84 46q10 2 28 4q-46 58 -46 150q0 104 55 162q48 51 127 51q83 0 128 -52q39 -45 39 -117v-93q0 -79 -46 -125q-41 -40 -108 -44h-123q-59 0 -82.5 -26.5t-23.5 -92.5v-196zM194 217q0 -78 40 -118q30 -31 73 -31q96 0 96 109v77
q0 109 -97 109q-58 0 -87 -44q-25 -38 -25 -102z" />
    <glyph glyph-name="uniFEE2" unicode="&#x645;" horiz-adv-x="607" arabic-form="final" 
d="M90 -315h-70v218q0 72 37 115q30 35 83 46q10 2 30 4q-46 58 -46 150q0 104 55 162q48 51 127 51q83 0 128 -52q39 -45 39 -117v-66q0 -65 33 -99q27 -29 72 -29h39v-68h-47q-83 0 -130 60q-40 -54 -121 -60h-123q-59 0 -82.5 -26.5t-23.5 -92.5v-196zM194 217
q0 -78 40 -118q30 -31 73 -31q96 0 96 109v77q0 109 -97 109q-58 0 -87 -44q-25 -38 -25 -102z" />
    <glyph glyph-name="uniFEE3" unicode="&#x645;" horiz-adv-x="558" arabic-form="initial" 
d="M-10 68h39q51 0 80 38q25 34 25 90v66q0 83 50 129q45 40 117 40q91 0 140 -66q42 -56 42 -147q0 -119 -62 -180q-48 -48 -120 -48q-95 0 -137 66q-47 -56 -127 -56h-47v68zM204 177q0 -67 26 -95q23 -24 69 -24q51 0 82 42q32 42 32 117q0 73 -33 111q-29 35 -79 35
q-97 0 -97 -109v-77z" />
    <glyph glyph-name="uniFEE4" unicode="&#x645;" horiz-adv-x="633" arabic-form="medial" 
d="M465 61q-49 -77 -149 -77q-99 0 -148 77q-46 -61 -131 -61h-47v68h39q106 0 106 141q0 62 15 100q20 62 67 93q41 28 99 28q66 0 111 -36q38 -32 57 -86q14 -44 14 -99q0 -141 105 -141h40v-68h-48q-84 0 -130 61zM204 210q0 -85 40 -127q30 -31 73 -31q49 0 80 41
q31 42 31 117q0 77 -33 117q-28 35 -79 35q-58 0 -87 -46q-25 -39 -25 -106z" />
    <glyph glyph-name="uniFEE5" unicode="&#x646;" horiz-adv-x="671" arabic-form="isolated" 
d="M357 433q0 -18 -14 -32t-32 -14t-32 14t-14 32q0 19 13.5 32.5t32.5 13.5t32.5 -13.5t13.5 -32.5zM581 418v-357q0 -130 -84 -198q-67 -54 -169 -54q-125 0 -194 73q-64 67 -64 180q0 89 45 157l58 -28q-33 -64 -33 -129q0 -86 54 -137q51 -48 134 -48q81 0 134 52
q50 51 50 133v356h69z" />
    <glyph glyph-name="uniFEE6" unicode="&#x646;" horiz-adv-x="693" arabic-form="final" 
d="M357 433q0 -18 -14 -32t-32 -14t-32 14t-14 32q0 19 13.5 32.5t32.5 13.5t32.5 -13.5t13.5 -32.5zM578 23q-12 -111 -92 -168q-65 -46 -158 -46q-125 0 -194 73q-64 67 -64 180q0 89 45 157l58 -28q-33 -64 -33 -129q0 -86 54 -137q51 -48 134 -48q81 0 134 52
q50 51 50 133v356h69v-222q0 -65 33 -99q27 -29 72 -29h17v-68h-25q-59 0 -99 30q0 -5 -1 -7z" />
    <glyph glyph-name="uniFEE7" unicode="&#x646;" horiz-adv-x="271" arabic-form="initial" 
d="M191 542q0 -19 -14 -33t-33 -14q-18 0 -32 14t-14 33q0 18 14 32t32 14q19 0 33 -14t14 -32zM15 0h-25v68h17q51 0 80 38q25 34 25 90v222h70v-230q0 -98 -56 -148q-44 -40 -111 -40z" />
    <glyph glyph-name="uniFEE8" unicode="&#x646;" horiz-adv-x="293" arabic-form="medial" 
d="M194 542q0 -19 -14 -33t-33 -14q-18 0 -32 14t-14 33q0 18 14 32t32 14q19 0 33 -14t14 -32zM15 0h-25v68h17q51 0 80 38q25 34 25 90v222h70v-222q0 -65 32 -99q28 -29 73 -29h16v-68h-24q-88 0 -132 64q-45 -64 -132 -64z" />
    <glyph glyph-name="uniFEE9" unicode="&#x647;" horiz-adv-x="500" arabic-form="isolated" 
d="M264 -10h-28q-83 0 -128 68q-40 59 -40 154q0 109 55 168q48 51 127 51q91 0 139 -66q43 -58 43 -153q0 -109 -51 -169q-45 -53 -117 -53zM138 211q0 -78 30 -118q27 -35 72 -35h20q52 0 79 45q23 40 23 108q0 79 -33 118q-28 34 -79 34q-58 0 -87 -45q-25 -38 -25 -107z
" />
    <glyph glyph-name="uniFEEA" unicode="&#x647;" horiz-adv-x="529" arabic-form="final" 
d="M539 0h-24q-99 0 -143 80q-54 -55 -130 -55q-80 0 -128 60q-44 55 -44 145q0 106 67 164q57 49 146 49h65v46h70v-293q0 -65 33 -99q27 -29 72 -29h16v-68zM348 375h-62q-77 0 -114 -43q-32 -36 -32 -101q0 -69 31 -106q26 -32 71 -32q56 0 110 49q-4 20 -4 46v187z" />
    <glyph glyph-name="uniFEEB" unicode="&#x647;" horiz-adv-x="600" arabic-form="initial" 
d="M149 0h-159v68h85h45q-52 57 -52 130q0 64 40 106q40 41 105 41q72 0 112 -51q31 -40 31 -97q0 -75 -51 -129h55q50 0 77 25q23 23 23 62q0 42 -17.5 84t-48.5 75q-80 84 -232 96l16 61q176 -14 277 -131q75 -88 75 -185q0 -75 -40 -116q-39 -39 -112 -39h-101
q-35 0 -65 10q-30 -10 -63 -10zM213 79q33 16 52.5 49t19.5 71q0 39 -19 61t-53 22t-53.5 -21.5t-19.5 -59.5q0 -39 20 -72t53 -50z" />
    <glyph glyph-name="uniFEEC" unicode="&#x647;" horiz-adv-x="639" arabic-form="medial" 
d="M149 0h-159v68h86h44q-52 57 -52 130q0 64 40 106q40 41 105 41q72 0 112 -51q31 -40 31 -97q0 -75 -51 -129h55q50 0 77 25q23 23 23 62q0 42 -17.5 84t-48.5 75q-80 84 -232 96l16 61q177 -14 276 -124q75 -83 75 -182q0 -46 34 -74q29 -23 70 -23h16v-68h-24
q-80 0 -124 53q-39 -53 -123 -53h-101q-35 0 -65 10q-30 -10 -63 -10zM213 79q33 16 52.5 49t19.5 71q0 39 -19 61t-53 22t-53.5 -21.5t-19.5 -59.5q0 -39 20 -72t53 -50z" />
    <glyph glyph-name="uniFEED" unicode="&#x648;" horiz-adv-x="498" arabic-form="isolated" 
d="M349 31q-45 -27 -98 -27q-88 0 -138 64q-43 57 -43 150q0 104 55 162q48 51 127 51q83 0 128 -52q38 -45 38 -117v-240q0 -111 -57 -167q-47 -45 -125 -45q-63 0 -130 35l21 61q56 -29 102 -29q59 0 91 39q29 36 29 102v13zM349 101v153q0 109 -97 109q-58 0 -87 -45
q-25 -38 -25 -101q0 -78 43 -117q34 -30 85 -30q43 0 81 31z" />
    <glyph glyph-name="uniFEEE" unicode="&#x648;" horiz-adv-x="520" arabic-form="final" 
d="M418 0q-5 -100 -62 -149q-47 -41 -120 -41q-63 0 -130 35l21 61q56 -29 102 -29q55 0 86 34q30 31 33 89h-77q-102 0 -155 67q-46 56 -46 151q0 104 55 162q48 51 127 51q83 0 128 -52q38 -45 38 -117v-194h112v-68h-112zM349 68v186q0 109 -97 109q-58 0 -87 -45
q-25 -38 -25 -101q0 -80 45 -119q36 -30 94 -30h70z" />
    <glyph glyph-name="uniFEEF" unicode="&#x649;" horiz-adv-x="705" arabic-form="isolated" 
d="M584 355h-98q-46 0 -73 -20q-28 -21 -28 -62q0 -54 46 -86q17 -12 46 -24l51 -22q64 -28 90 -62q27 -36 27 -90q0 -86 -88 -140q-80 -50 -203 -50q-142 0 -218 79q-66 68 -66 184q0 89 45 157l58 -28q-33 -64 -33 -129q0 -89 58 -142q57 -53 156 -53q104 0 170 44
q52 35 52 77q0 41 -46 69q-14 8 -71 33q-67 30 -97 61q-46 46 -46 121q0 72 50 115q43 36 107 36h111v-68z" />
    <glyph glyph-name="uniFEF0" unicode="&#x649;" horiz-adv-x="657" arabic-form="final" 
d="M645 0q0 -100 -91 -154q-78 -47 -200 -47q-142 0 -218 79q-66 68 -66 184q0 89 45 157l58 -28q-33 -64 -33 -129q0 -89 58 -142q57 -53 156 -53q98 0 161 37q61 37 61 96h-89v68h180v-68h-22z" />
    <glyph glyph-name="uniFEF1" unicode="&#x64a;" horiz-adv-x="705" arabic-form="isolated" 
d="M584 355h-98q-46 0 -73 -20q-28 -21 -28 -62q0 -54 46 -86q17 -12 46 -24l51 -22q64 -28 90 -62q27 -36 27 -90q0 -86 -88 -140q-80 -50 -203 -50q-142 0 -218 79q-66 68 -66 184q0 89 45 157l58 -28q-33 -64 -33 -129q0 -89 58 -142q57 -53 156 -53q104 0 170 44
q52 35 52 77q0 41 -46 69q-14 8 -71 33q-67 30 -97 61q-46 46 -46 121q0 72 50 115q43 36 107 36h111v-68zM346 -318q0 -18 -14 -32t-32 -14t-32 14t-14 32q0 19 13.5 33t32.5 14t32.5 -14t13.5 -33zM457 -318q0 -18 -14 -32t-32 -14q-19 0 -33 14t-14 32q0 19 14 33t33 14
q18 0 32 -14t14 -33z" />
    <glyph glyph-name="uniFEF2" unicode="&#x64a;" horiz-adv-x="657" arabic-form="final" 
d="M645 0q0 -100 -91 -154q-78 -47 -200 -47q-142 0 -218 79q-66 68 -66 184q0 89 45 157l58 -28q-33 -64 -33 -129q0 -89 58 -142q57 -53 156 -53q98 0 161 37q61 37 61 96h-89v68h180v-68h-22zM346 -315q0 -18 -14 -32t-32 -14t-32 14t-14 32q0 19 13.5 33t32.5 14
t32.5 -14t13.5 -33zM457 -315q0 -18 -14 -32t-32 -14q-19 0 -33 14t-14 32q0 19 14 33t33 14q18 0 32 -14t14 -33z" />
    <glyph glyph-name="uniFEF3" unicode="&#x64a;" horiz-adv-x="271" arabic-form="initial" 
d="M-10 0v68h17q51 0 80 38q25 34 25 90v222h70v-230q0 -98 -56 -148q-44 -40 -111 -40h-25zM32 -170q-18 0 -32 14t-14 32q0 19 13.5 33t32.5 14t32.5 -14t13.5 -33q0 -18 -14 -32t-32 -14zM143 -170q-18 0 -32 14t-14 32q0 19 13.5 33t32.5 14t32.5 -14t13.5 -33
q0 -18 -14 -32t-32 -14z" />
    <glyph glyph-name="uniFEF4" unicode="&#x64a;" horiz-adv-x="293" arabic-form="medial" 
d="M-10 0v68h17q51 0 80 38q25 34 25 90v222h70v-222q0 -65 32 -99q28 -29 73 -29h16v-68h-24q-88 0 -132 64q-45 -64 -132 -64h-25zM81 -170q-18 0 -32 14t-14 32q0 19 14 33t32 14q19 0 32.5 -14t13.5 -33q0 -18 -14 -32t-32 -14zM192 -170q-18 0 -32 14t-14 32
q0 19 13.5 33t32.5 14t32.5 -14t13.5 -33q0 -18 -14 -32t-32 -14z" />
    <glyph glyph-name=".notdef" horiz-adv-x="364" 
d="M33 0v666h265v-666h-265zM66 33h199v600h-199v-600z" />
    <glyph glyph-name="glyph1" 
 />
    <glyph glyph-name="glyph2" horiz-adv-x="250" 
 />
    <glyph glyph-name="space" unicode=" " horiz-adv-x="250" 
 />
    <glyph glyph-name="exclam" unicode="!" horiz-adv-x="279" 
d="M90 39q0 21 14.5 35.5t34.5 14.5q21 0 35.5 -14.5t14.5 -34.5q0 -21 -14.5 -35.5t-35.5 -14.5q-20 0 -34.5 14.5t-14.5 34.5zM106 150l-8 517h83l-8 -517h-67z" />
    <glyph glyph-name="quotedbl" unicode="&#x22;" horiz-adv-x="307" 
d="M107 410h-52l-12 257h75zM252 410h-52l-12 257h76z" />
    <glyph glyph-name="numbersign" unicode="#" horiz-adv-x="585" 
d="M125 195h-75l11 57h75l33 163h-75l12 57h75l42 208l59 -14l-39 -194h155l42 208l60 -13l-40 -195h75l-11 -57h-75l-33 -163h75l-11 -57h-75l-42 -208l-60 14l40 194h-156l-42 -208l-59 14zM354 252l33 163h-155l-33 -163h155z" />
    <glyph glyph-name="dollar" unicode="$" horiz-adv-x="567" 
d="M253 -11q-150 15 -186 171l72 20q31 -122 136 -122q60 0 100 43q34 37 34 88q0 40 -26 66.5t-90 51.5l-62 25q-138 54 -138 166q0 74 48 122q43 43 112 55v92h73v-92q89 -15 142 -101l-59 -39q-49 74 -121 74q-56 0 -91 -36q-31 -31 -31 -76q0 -67 97 -105l66 -25
q86 -34 123 -80q32 -41 32 -98q0 -74 -50 -131q-43 -49 -108 -64v-97h-73v92z" />
    <glyph glyph-name="percent" unicode="%" horiz-adv-x="901" 
d="M544 197q0 205 151 205q156 0 156 -205q0 -204 -154 -204q-153 0 -153 204zM601 197q0 -153 96 -153t96 153q0 154 -96 154t-96 -154zM623 678l41 -23l-386 -667l-41 23zM50 469q0 205 152 205q155 0 155 -205q0 -204 -153 -204q-154 0 -154 204zM107 469q0 -153 97 -153
q96 0 96 153t-96 153q-97 0 -97 -153z" />
    <glyph glyph-name="ampersand" unicode="&#x26;" horiz-adv-x="639" 
d="M307 371l166 -198q22 38 47 110l66 -19q-30 -96 -65 -149l96 -115h-87l-51 63q-79 -75 -191 -75q-100 0 -163 60q-55 52 -55 127q0 56 34 104t112 102l-3 5q-73 89 -73 151q0 65 46 106q41 35 99 35q65 0 106 -43q36 -38 36 -92q0 -46 -25.5 -82.5t-94.5 -89.5zM267 419
q56 43 76 70t20 57q0 32 -22 52.5t-57 20.5q-37 0 -61 -25q-20 -22 -20 -54q0 -43 64 -121zM433 118l-177 215q-65 -49 -90 -82t-25 -73q0 -56 48 -92q41 -31 98 -31q87 0 146 63z" />
    <glyph glyph-name="quotesingle" unicode="'" horiz-adv-x="162" 
d="M107 410h-52l-12 257h75z" />
    <glyph glyph-name="parenleft" unicode="(" horiz-adv-x="294" 
d="M166 733l64 -29q-75 -193 -75 -428t75 -428l-64 -29q-38 82 -60.5 205t-22.5 252q0 138 25 268q23 112 58 189z" />
    <glyph glyph-name="parenright" unicode=")" horiz-adv-x="294" 
d="M126 -181l-63 29q75 193 75 428t-75 428l63 29q39 -82 61.5 -205t22.5 -252q0 -138 -25 -268q-23 -113 -59 -189z" />
    <glyph glyph-name="asterisk" unicode="*" horiz-adv-x="464" 
d="M204 606l-5 124h67l-5 -124l116 43l21 -63l-120 -34l77 -97l-54 -40l-69 104l-68 -104l-54 40l77 97l-120 34l21 63z" />
    <glyph glyph-name="plus" unicode="+" horiz-adv-x="556" 
d="M246 343v200h65v-200h198v-31v-31h-198v-200h-65v200h-199v31v31h199z" />
    <glyph glyph-name="comma" unicode="," horiz-adv-x="227" 
d="M107 98l65 -24l-100 -226l-48 19z" />
    <glyph glyph-name="hyphen" unicode="-" horiz-adv-x="257" 
d="M30 345h196v-66h-196v66z" />
    <glyph glyph-name="period" unicode="." horiz-adv-x="227" 
d="M64 40q0 20 14.5 34.5t34.5 14.5q21 0 35.5 -14.5t14.5 -34.5q0 -21 -14.5 -35.5t-35.5 -14.5q-20 0 -34.5 14.5t-14.5 35.5z" />
    <glyph glyph-name="slash" unicode="/" horiz-adv-x="548" 
d="M437 680l56 -33l-382 -660l-56 33z" />
    <glyph glyph-name="zero" unicode="0" horiz-adv-x="572" 
d="M40 333q0 345 246 345t246 -345t-246 -345t-246 345zM116 333q0 -276 170 -276t170 276q0 277 -170 277t-170 -277z" />
    <glyph glyph-name="one" unicode="1" horiz-adv-x="300" 
d="M221 0h-75v583l-105 -60l-34 59l146 85h68v-667z" />
    <glyph glyph-name="two" unicode="2" horiz-adv-x="481" 
d="M47 0v66l244 275q76 85 76 159q0 53 -38 83q-33 27 -83 27q-54 0 -85.5 -25.5t-48.5 -82.5l-67 19q19 80 79 121q51 36 125 36q92 0 145 -56q46 -49 46 -125q0 -93 -68 -169l-231 -260h314v-68h-408z" />
    <glyph glyph-name="three" unicode="3" horiz-adv-x="472" 
d="M188 383h28q65 0 99 34q29 29 29 79q0 55 -36 86q-32 28 -81 28q-40 0 -68.5 -16.5t-55.5 -54.5l-61 35q65 104 185 104q90 0 143 -57q46 -49 46 -123q0 -87 -70 -143q86 -60 86 -163q0 -95 -68 -153q-58 -51 -144 -51q-79 0 -133 44q-48 39 -67 104l-4 15l72 20
q17 -62 52 -89q31 -24 81 -24q64 0 103 42q34 37 34 90q0 64 -42 97q-36 28 -100 28h-28v68z" />
    <glyph glyph-name="four" unicode="4" horiz-adv-x="518" 
d="M372 641l-264 -425h219v176h74v-176h82v-68h-82v-148h-74v148h-297v76l283 454z" />
    <glyph glyph-name="five" unicode="5" horiz-adv-x="520" 
d="M173 426q2 0 14 4q28 10 63 10q101 0 167 -73q56 -62 56 -149q0 -103 -75 -171q-64 -59 -153 -59t-155 57q-23 20 -50 62l59 42q43 -93 144 -93q71 0 117 51q39 45 39 107q0 73 -50 120q-43 40 -105 40q-30 0 -58.5 -11.5t-46.5 -31.5l-57 12l65 324h293v-69h-232z" />
    <glyph glyph-name="six" unicode="6" horiz-adv-x="543" 
d="M316 678l57 -42l-149 -213q26 9 51 9q100 0 165 -70q55 -61 55 -146q0 -102 -74 -169q-63 -59 -150 -59q-102 0 -169 75q-58 64 -58 152q0 79 51 151zM422 213q0 70 -49 114q-42 39 -104 39q-69 0 -113 -50q-39 -44 -39 -104q0 -71 50 -116q42 -40 102 -40q69 0 114 51
q39 45 39 106z" />
    <glyph glyph-name="seven" unicode="7" horiz-adv-x="450" 
d="M357 598h-340v69h423v-60l-327 -619l-64 34z" />
    <glyph glyph-name="eight" unicode="8" horiz-adv-x="507" 
d="M134 355q-72 60 -72 142q0 83 61 136q54 45 130 45q89 0 144 -58q48 -51 48 -123q0 -82 -73 -142q95 -65 95 -167q0 -93 -69 -150q-59 -50 -145 -50q-99 0 -160 64q-53 56 -53 136q0 102 94 167zM253 317q-66 0 -105 -42q-35 -35 -35 -89q0 -60 45 -98q39 -32 95 -32
q66 0 106 42q34 36 34 88q0 62 -44 99q-38 32 -96 32zM130 497q0 -53 39 -86q35 -29 84 -29q58 0 93 37q31 32 31 78q0 53 -40 87q-34 28 -84 28q-57 0 -92 -37q-31 -32 -31 -78z" />
    <glyph glyph-name="nine" unicode="9" horiz-adv-x="545" 
d="M226 -12l-56 42l151 214q-28 -6 -51 -6q-103 0 -167 68q-56 60 -56 144q0 102 74 170q64 58 151 58q101 0 168 -74q58 -65 58 -153q0 -79 -51 -151zM120 454q0 -70 49 -113q43 -37 104 -37q69 0 114 49q38 42 38 102q0 71 -49 116q-43 39 -103 39q-69 0 -114 -51
q-39 -44 -39 -105z" />
    <glyph glyph-name="colon" unicode=":" horiz-adv-x="227" 
d="M64 40q0 20 14.5 34.5t34.5 14.5q21 0 35.5 -14.5t14.5 -34.5q0 -21 -14.5 -35.5t-35.5 -14.5q-20 0 -34.5 14.5t-14.5 35.5zM64 378q0 20 14.5 34.5t34.5 14.5q21 0 35.5 -14.5t14.5 -34.5q0 -21 -14.5 -35t-35.5 -14q-20 0 -34.5 14.5t-14.5 34.5z" />
    <glyph glyph-name="semicolon" unicode=";" horiz-adv-x="227" 
d="M107 98l65 -24l-100 -226l-48 19zM80 378q0 20 14.5 34.5t35.5 14.5q20 0 34.5 -14.5t14.5 -34.5q0 -21 -14.5 -35t-34.5 -14q-21 0 -35.5 14.5t-14.5 34.5z" />
    <glyph glyph-name="less" unicode="&#x3c;" horiz-adv-x="556" 
d="M494 573v-75l-353 -161l353 -162v-74l-433 203v65z" />
    <glyph glyph-name="equal" unicode="=" horiz-adv-x="556" 
d="M480 409v-62h-404v62h404zM480 278v-63h-404v63h404z" />
    <glyph glyph-name="greater" unicode="&#x3e;" horiz-adv-x="556" 
d="M61 101v74l353 162l-353 161v75l433 -204v-65z" />
    <glyph glyph-name="question" unicode="?" horiz-adv-x="421" 
d="M165 150v75q0 47 10.5 69.5t47.5 54.5l43 37q65 55 65 117q0 51 -36 80q-31 26 -79 26q-44 0 -71.5 -17t-57.5 -62l-54 45q60 103 179 103q95 0 147 -54q45 -47 45 -123q0 -44 -18.5 -79.5t-63.5 -78.5l-49 -46q-26 -24 -30.5 -34.5t-4.5 -45.5v-67h-73zM152 39
q0 21 14.5 35.5t35.5 14.5q20 0 34.5 -14.5t14.5 -34.5q0 -21 -14.5 -35.5t-34.5 -14.5q-21 0 -35.5 14.5t-14.5 34.5z" />
    <glyph glyph-name="at" unicode="@" horiz-adv-x="899" 
d="M624 521l-43 -341h23q82 0 124 58q37 51 37 139q0 106 -55 180q-74 100 -226 100q-169 0 -265 -104q-85 -90 -85 -229q0 -79 31 -144q27 -57 74 -97q87 -73 242 -73q105 0 220 37l20 -54q-109 -38 -244 -38q-205 0 -310 116q-90 100 -90 251q0 187 126 296q109 94 277 94
q166 0 260 -103q82 -89 82 -229q0 -126 -70 -196q-32 -31 -72.5 -45t-102.5 -14h-136q-83 0 -131 55q-42 47 -42 120q0 70 33 125q30 47 78 71q52 25 128 25h117zM522 180l36 286h-61q-85 0 -130 -49q-39 -42 -39 -114q0 -61 37 -94q32 -29 84 -29h73z" />
    <glyph glyph-name="A" unicode="A" horiz-adv-x="620" 
d="M156 189l-72 -189h-77l257 667h93l257 -667h-78l-72 189h-308zM182 258h255l-128 337z" />
    <glyph glyph-name="B" unicode="B" horiz-adv-x="522" 
d="M80 0v667h138q109 0 162 -40q31 -23 49 -60t18 -77q0 -81 -77 -138q35 -14 54 -32q56 -52 56 -135q0 -85 -68 -139q-32 -26 -67.5 -36t-92.5 -10h-172zM154 373h76q42 0 65 6t42 21q40 32 40 87q0 58 -41 87q-33 24 -106 24h-76v-225zM154 69h92q45 0 70 6.5t47 22.5
q44 34 44 91q0 31 -15.5 58t-40.5 41q-37 21 -114 21h-83v-240z" />
    <glyph glyph-name="C" unicode="C" horiz-adv-x="662" 
d="M574 521q-45 47 -88.5 67t-100.5 20q-121 0 -200 -89q-68 -78 -68 -186q0 -124 88 -205q75 -70 180 -70q56 0 100.5 21t91.5 69l52 -51q-59 -58 -115.5 -83.5t-127.5 -25.5q-94 0 -174 47q-78 45 -123 123q-47 81 -47 175q0 95 47 175q45 78 123 124q80 46 174 46
q70 0 125.5 -24.5t113.5 -81.5z" />
    <glyph glyph-name="D" unicode="D" horiz-adv-x="619" 
d="M80 667h137q177 0 275 -102q85 -88 85 -231q0 -165 -110 -255q-96 -79 -250 -79h-137v667zM155 597v-528h65q138 0 215 81q66 71 66 184q0 129 -86 201q-75 62 -195 62h-65z" />
    <glyph glyph-name="E" unicode="E" horiz-adv-x="475" 
d="M423 598h-268v-225h238v-70h-238v-234h278v-69h-353v667h343v-69z" />
    <glyph glyph-name="F" unicode="F" horiz-adv-x="436" 
d="M400 598h-245v-225h223v-70h-223v-303h-75v667h320v-69z" />
    <glyph glyph-name="G" unicode="G" horiz-adv-x="727" 
d="M410 344h274v-36q0 -155 -92 -243q-79 -77 -204 -77q-95 0 -175 47q-78 45 -124 123q-47 80 -47 174q0 95 47 176q45 78 122 123q80 47 175 47q70 0 125.5 -24.5t113.5 -81.5l-51 -51q-45 47 -88.5 67t-100.5 20q-122 0 -200 -89q-68 -78 -68 -187q0 -123 88 -204
q76 -70 181 -70q103 0 165 68q53 58 56 149h-197v69z" />
    <glyph glyph-name="H" unicode="H" horiz-adv-x="650" 
d="M155 373h340v294h75v-667h-75v303h-340v-303h-75v667h75v-294z" />
    <glyph glyph-name="I" unicode="I" horiz-adv-x="235" 
d="M155 667v-667h-75v667h75z" />
    <glyph glyph-name="J" unicode="J" horiz-adv-x="402" 
d="M321 667v-467q0 -64 -11 -101.5t-38 -64.5q-46 -46 -116 -46q-41 0 -76 16.5t-77 54.5l45 54q57 -55 107 -55q47 0 69.5 34.5t22.5 107.5v467h74z" />
    <glyph glyph-name="K" unicode="K" horiz-adv-x="567" 
d="M302 391l259 -391h-87l-221 336l-98 -108v-228h-75v667h75v-341l310 341h89z" />
    <glyph glyph-name="L" unicode="L" horiz-adv-x="426" 
d="M155 667v-598h258v-69h-333v667h75z" />
    <glyph glyph-name="M" unicode="M" horiz-adv-x="810" 
d="M80 0v667h80l245 -437l245 437h80v-667h-75v538l-217 -388h-66l-217 388v-538h-75z" />
    <glyph glyph-name="N" unicode="N" horiz-adv-x="710" 
d="M80 0v667h70l405 -545v545h75v-667h-70l-405 545v-545h-75z" />
    <glyph glyph-name="O" unicode="O" horiz-adv-x="764" 
d="M42 333q0 93 47 174q45 78 122 124q79 47 171 47q91 0 171 -47q77 -46 122 -124q47 -81 47 -174t-47 -173q-45 -78 -122 -124q-80 -48 -171 -48t-171 48q-77 46 -122 124q-47 80 -47 173zM117 333q0 -74 37 -139q35 -62 95 -98q61 -38 133 -38t133 38q60 36 95 99
q37 64 37 138q0 123 -87 205q-76 70 -178 70q-72 0 -134 -37q-60 -37 -95 -99q-36 -64 -36 -139z" />
    <glyph glyph-name="P" unicode="P" horiz-adv-x="467" 
d="M155 270v-270h-75v667h137q61 0 100 -11.5t68 -38.5q62 -56 62 -148t-62 -149q-29 -27 -68 -38.5t-100 -11.5h-62zM155 338h71q75 0 111 34q36 35 36 97q0 61 -36 96q-35 33 -111 33h-71v-260z" />
    <glyph glyph-name="Q" unicode="Q" horiz-adv-x="762" 
d="M608 77l64 -64l-50 -50l-71 72q-80 -47 -169 -47q-92 0 -171 48q-77 46 -122 124q-47 80 -47 173t47 174q45 78 122 124q80 47 171 47t171 -47q77 -46 122 -124q47 -81 47 -174q0 -78 -33 -148q-30 -61 -81 -108zM498 87l-53 54l50 50l62 -63q43 38 66.5 91.5t23.5 113.5
q0 123 -88 205q-75 70 -177 70q-72 0 -134 -37q-60 -37 -95 -99q-36 -64 -36 -139t37 -139q35 -62 95 -98q62 -38 134 -38q61 0 115 29z" />
    <glyph glyph-name="R" unicode="R" horiz-adv-x="533" 
d="M348 289l160 -289h-83l-150 273q-36 -3 -58 -3h-62v-270h-75v667h137q66 0 107.5 -12t72.5 -39t48.5 -67t17.5 -84q0 -64 -34 -112q-30 -42 -81 -64zM155 338h71q84 0 123 32q41 34 41 95q0 63 -41 99q-39 34 -123 34h-71v-260z" />
    <glyph glyph-name="S" unicode="S" horiz-adv-x="505" 
d="M441 574l-59 -39q-49 74 -121 74q-56 0 -91 -36q-31 -31 -31 -76q0 -67 97 -105l66 -25q86 -34 123 -80q32 -41 32 -98q0 -91 -69 -150q-59 -51 -142 -51q-85 0 -140 51q-48 45 -66 121l72 20q31 -122 136 -122q60 0 100 43q34 37 34 88q0 40 -26 66.5t-90 51.5l-62 25
q-138 54 -138 166q0 83 63 135q55 45 134 45q113 0 178 -104z" />
    <glyph glyph-name="T" unicode="T" horiz-adv-x="433" 
d="M254 598v-598h-74v598h-173v69h420v-69h-173z" />
    <glyph glyph-name="U" unicode="U" horiz-adv-x="635" 
d="M155 667v-414q0 -51 4.5 -77.5t17.5 -47.5q19 -31 58.5 -50.5t82.5 -19.5q42 0 81.5 19.5t58.5 50.5q13 21 18 47.5t5 77.5v414h74v-434q0 -53 -10 -88.5t-33 -65.5q-33 -43 -85 -67t-109 -24q-62 0 -116 27q-48 24 -79 64q-23 30 -33 65.5t-10 88.5v434h75z" />
    <glyph glyph-name="V" unicode="V" horiz-adv-x="553" 
d="M85 667l192 -580l193 580h77l-225 -667h-90l-225 667h78z" />
    <glyph glyph-name="W" unicode="W" horiz-adv-x="880" 
d="M85 667l165 -559l157 559h67l157 -559l165 559h78l-204 -667h-39h-37l-154 540l-153 -540h-37h-40l-203 667h78z" />
    <glyph glyph-name="X" unicode="X" horiz-adv-x="530" 
d="M306 349l218 -349h-84l-175 285l-176 -285h-82l218 348l-198 319h82l157 -255l158 255h80z" />
    <glyph glyph-name="Y" unicode="Y" horiz-adv-x="507" 
d="M216 278l-216 389h82l172 -319l172 319h81l-216 -389v-278h-75v278z" />
    <glyph glyph-name="Z" unicode="Z" horiz-adv-x="509" 
d="M111 69h373v-69h-461v66l370 532h-340v69h423v-66z" />
    <glyph glyph-name="bracketleft" unicode="[" horiz-adv-x="293" 
d="M155 662v-772h93v-66h-165v904h165v-66h-93z" />
    <glyph glyph-name="backslash" unicode="\" horiz-adv-x="548" 
d="M111 680l382 -660l-56 -33l-382 660z" />
    <glyph glyph-name="bracketright" unicode="]" horiz-adv-x="293" 
d="M138 662h-93v66h165v-904h-165v66h93v772z" />
    <glyph glyph-name="asciicircum" unicode="^" horiz-adv-x="500" 
d="M105 364h-81l176 305h99l176 -305h-81l-145 245z" />
    <glyph glyph-name="underscore" unicode="_" horiz-adv-x="500" 
d="M0 -65h500v-66h-500v66z" />
    <glyph glyph-name="grave" unicode="`" horiz-adv-x="476" 
d="M111 641l70 37l100 -137l-45 -26z" />
    <glyph glyph-name="a" unicode="a" horiz-adv-x="549" 
d="M486 0h-71v58q-63 -70 -156 -70q-100 0 -166 77q-58 67 -58 157q0 104 74 173q64 60 150 60q91 0 156 -70v58h71v-443zM263 390q-74 0 -118 -53q-38 -46 -38 -115q0 -79 49 -127q43 -42 107 -42q72 0 116 53q37 47 37 116q0 79 -48 127q-42 41 -105 41z" />
    <glyph glyph-name="b" unicode="b" horiz-adv-x="549" 
d="M63 0v667h71v-282q65 70 156 70q100 0 166 -77q58 -66 58 -156q0 -104 -74 -174q-64 -60 -150 -60q-93 0 -156 70v-58h-71zM287 390q-72 0 -115 -53q-38 -46 -38 -115q0 -80 49 -128q41 -41 104 -41q72 0 117 54q38 46 38 115q0 79 -49 127q-43 41 -106 41z" />
    <glyph glyph-name="c" unicode="c" horiz-adv-x="457" 
d="M385 332q-51 58 -121 58q-74 0 -119 -53q-38 -46 -38 -115q0 -80 50 -128q43 -41 108 -41q39 0 66.5 13.5t56.5 48.5l48 -48q-40 -43 -79.5 -61t-90.5 -18q-106 0 -173 76q-58 66 -58 158q0 106 75 174q64 59 156 59q93 0 166 -75z" />
    <glyph glyph-name="d" unicode="d" horiz-adv-x="549" 
d="M486 0h-71v58q-63 -70 -156 -70q-100 0 -166 77q-58 67 -58 157q0 104 74 173q64 60 150 60q91 0 156 -70v282h71v-667zM262 390q-73 0 -117 -53q-38 -46 -38 -115q0 -79 49 -127q43 -42 106 -42q72 0 115 53q38 47 38 116q0 79 -48 127q-42 41 -105 41z" />
    <glyph glyph-name="e" unicode="e" horiz-adv-x="496" 
d="M108 191q9 -66 54 -105q39 -33 93 -33q90 0 135 78l64 -26q-69 -117 -198 -117q-101 0 -165 76q-56 66 -56 159q0 104 71 173q61 59 144 59q100 0 160 -77q52 -66 52 -164v-23h-354zM391 252q-10 69 -52 106q-37 33 -88 33q-60 0 -100 -43q-34 -37 -43 -96h283z" />
    <glyph glyph-name="f" unicode="f" horiz-adv-x="250" 
d="M148 379v-379h-71v379h-45v64h45v90q0 140 107 140q19 0 44 -6v-65q-20 5 -30 5q-50 0 -50 -74v-90h82v-64h-82z" />
    <glyph glyph-name="g" unicode="g" horiz-adv-x="549" 
d="M486 443v-451q0 -115 -72 -180q-63 -57 -160 -57q-62 0 -109 23t-92 75l46 47q38 -45 71.5 -62.5t82.5 -17.5q81 0 124 52q38 45 38 120v66q-63 -70 -156 -70q-100 0 -166 77q-58 67 -58 157q0 104 74 173q64 60 150 60q91 0 156 -70v58h71zM263 390q-74 0 -118 -53
q-38 -46 -38 -115q0 -79 49 -127q43 -42 107 -42q72 0 115 53q37 47 37 116q0 79 -48 127q-42 41 -104 41z" />
    <glyph glyph-name="h" unicode="h" horiz-adv-x="509" 
d="M134 393q50 62 134 62q81 0 132 -56q46 -50 46 -159v-240h-71v232q0 48 -7 75.5t-23 45.5q-31 34 -84 34q-65 0 -99 -42q-28 -34 -28 -123v-222h-71v667h71v-274z" />
    <glyph glyph-name="i" unicode="i" horiz-adv-x="199" 
d="M136 443v-443h-72v443h72zM49 591q0 21 15 36t36 15t36 -15t15 -36q0 -22 -15 -36.5t-36 -14.5t-36 15t-15 36z" />
    <glyph glyph-name="j" unicode="j" horiz-adv-x="209" 
d="M58 591q0 21 15 36t36 15t36 -15t15 -36q0 -22 -15 -36.5t-36 -14.5t-36 15t-15 36zM73 443h71v-543q0 -140 -107 -140q-18 0 -44 7v64q20 -5 30 -5q50 0 50 74v543z" />
    <glyph glyph-name="k" unicode="k" horiz-adv-x="465" 
d="M259 263l204 -263h-88l-165 216l-76 -76v-140h-71v667h71v-438l214 214h92z" />
    <glyph glyph-name="l" unicode="l" horiz-adv-x="199" 
d="M135 0h-71v667h71v-667z" />
    <glyph glyph-name="m" unicode="m" horiz-adv-x="786" 
d="M395 382q54 73 145 73q90 0 142 -63q23 -28 32 -62t9 -90v-240h-71v232q0 88 -28 121q-28 34 -77 34q-60 0 -92 -42q-25 -34 -25 -123v-222h-72v232q0 88 -28 121q-28 34 -77 34q-61 0 -93 -42q-26 -34 -26 -123v-222h-71v443h71v-50q46 62 125 62q86 0 136 -73z" />
    <glyph glyph-name="n" unicode="n" horiz-adv-x="509" 
d="M134 393q50 62 134 62q81 0 132 -56q46 -50 46 -159v-240h-71v232q0 48 -7 75.5t-23 45.5q-31 34 -84 34q-65 0 -99 -42q-28 -34 -28 -123v-222h-71v443h71v-50z" />
    <glyph glyph-name="o" unicode="o" horiz-adv-x="526" 
d="M263 455q104 0 171 -76q58 -65 58 -157q0 -106 -75 -174q-64 -60 -154 -60q-103 0 -170 76q-58 66 -58 158q0 105 74 174q65 59 154 59zM263 390q-74 0 -118 -53q-38 -46 -38 -115q0 -80 49 -127q43 -42 107 -42q74 0 118 54q39 46 39 115q0 79 -50 127q-43 41 -107 41z
" />
    <glyph glyph-name="p" unicode="p" horiz-adv-x="549" 
d="M63 443h71v-58q63 70 156 70q100 0 166 -77q58 -66 58 -157q0 -104 -74 -173q-64 -60 -150 -60q-91 0 -156 70v-291h-71v676zM287 53q73 0 117 53q38 47 38 115q0 80 -49 128q-43 41 -106 41q-72 0 -115 -53q-38 -46 -38 -116q0 -79 48 -127q42 -41 105 -41z" />
    <glyph glyph-name="q" unicode="q" horiz-adv-x="549" 
d="M486 443v-676h-71v291q-65 -70 -156 -70q-100 0 -166 77q-58 66 -58 156q0 105 74 174q64 60 150 60q93 0 156 -70v58h71zM262 53q73 0 115 53q38 46 38 115q0 80 -48 128q-42 41 -105 41q-72 0 -117 -53q-38 -47 -38 -116q0 -79 49 -126q43 -42 106 -42z" />
    <glyph glyph-name="r" unicode="r" horiz-adv-x="293" 
d="M134 393q41 51 116 51q12 0 23 -1v-64h-19q-46 0 -75 -22q-25 -19 -35 -50t-10 -93v-214h-71v443h71v-50z" />
    <glyph glyph-name="s" unicode="s" horiz-adv-x="371" 
d="M324 375l-58 -30q-16 26 -33.5 36.5t-43.5 10.5q-32 0 -52.5 -17.5t-20.5 -44.5q0 -26 19 -42q10 -9 58 -27l43 -17q54 -21 77.5 -48t23.5 -67q0 -64 -50 -105q-43 -36 -103 -36q-110 0 -154 113l61 26q21 -42 41.5 -58.5t53.5 -16.5q37 0 60 24q20 20 20 49
q0 26 -15 39.5t-63 31.5l-48 19q-90 35 -90 112q0 59 45 96q40 32 96 32q87 0 133 -80z" />
    <glyph glyph-name="t" unicode="t" horiz-adv-x="246" 
d="M143 379v-246q0 -73 50 -73q10 0 30 5v-65q-25 -7 -44 -7q-107 0 -107 140v246h-50v64h50v105l71 29v-134h74v-64h-74z" />
    <glyph glyph-name="u" unicode="u" horiz-adv-x="509" 
d="M375 50q-49 -62 -133 -62q-82 0 -133 56q-46 50 -46 159v240h71v-231q0 -49 7 -76.5t24 -44.5q31 -34 83 -34q65 0 99 42q28 33 28 123v221h71v-443h-71v50z" />
    <glyph glyph-name="v" unicode="v" horiz-adv-x="451" 
d="M78 443l148 -356l149 356h76l-188 -443h-74l-188 443h77z" />
    <glyph glyph-name="w" unicode="w" horiz-adv-x="668" 
d="M77 443l122 -336l105 336h60l106 -336l122 336h76l-167 -443h-60l-107 333l-106 -333h-60l-167 443h76z" />
    <glyph glyph-name="x" unicode="x" horiz-adv-x="442" 
d="M263 230l174 -230h-84l-132 176l-133 -176h-83l175 230l-162 213h84l119 -159l121 159h81z" />
    <glyph glyph-name="y" unicode="y" horiz-adv-x="441" 
d="M181 20l-180 423h77l141 -336l146 336h76l-296 -676h-74z" />
    <glyph glyph-name="z" unicode="z" horiz-adv-x="419" 
d="M118 64h284v-64h-373v59l275 320h-260v64h348v-59z" />
    <glyph glyph-name="braceleft" unicode="{" horiz-adv-x="299" 
d="M114 276q34 -19 47 -45t13 -75v-197q0 -44 14 -58t59 -14h7v-63h-26q-72 0 -101 37q-25 33 -25 105v190q0 43 -12.5 63.5t-44.5 29.5v59q31 8 44 28.5t13 60.5v189q0 81 34 114q29 28 92 28h26v-63h-9q-43 0 -57 -14t-14 -58v-201q0 -48 -13 -73t-47 -43z" />
    <glyph glyph-name="bar" unicode="|" horiz-adv-x="500" 
d="M214 728h72v-904h-72v904z" />
    <glyph glyph-name="braceright" unicode="}" horiz-adv-x="299" 
d="M185 276q-34 18 -47 43t-13 73v201q0 44 -14 58t-58 14h-8v63h26q72 0 101 -37q25 -33 25 -105v-189q0 -40 13.5 -60.5t43.5 -28.5v-59q-31 -9 -44 -29.5t-13 -63.5v-190q0 -81 -33 -114q-29 -28 -93 -28h-26v63h10q43 0 56.5 14t13.5 58v197q0 49 13 75t47 45z" />
    <glyph glyph-name="asciitilde" unicode="~" horiz-adv-x="667" 
d="M136 582l-43 28q32 64 62 89.5t75 25.5q37 0 112 -34q45 -20 62 -25.5t35 -5.5q28 0 48 14.5t42 52.5l45 -26q-29 -59 -63.5 -85.5t-80.5 -26.5q-21 0 -47 8.5t-93 38.5q-40 18 -65 18q-27 0 -47.5 -16.5t-41.5 -55.5z" />
    <glyph glyph-name="nonbreakingspace" unicode="&#xa0;" horiz-adv-x="250" 
 />
    <glyph glyph-name="exclamdown" unicode="&#xa1;" horiz-adv-x="279" 
d="M90 443q0 21 14.5 35.5t34.5 14.5q21 0 35.5 -14.5t14.5 -35.5q0 -20 -14.5 -34.5t-35.5 -14.5q-20 0 -34.5 14.5t-14.5 34.5zM106 333h67l8 -517h-83z" />
    <glyph glyph-name="cent" unicode="&#xa2;" horiz-adv-x="549" 
d="M250 105q-87 17 -138 88q-44 61 -44 140q0 92 57 157q50 56 125 72v105h73v-102q43 -5 75.5 -22t66.5 -52l-47 -47q-51 58 -121 58q-74 0 -119 -53q-38 -46 -38 -116q0 -80 50 -127q43 -42 108 -42q39 0 66.5 14t56.5 48l48 -48q-36 -38 -68.5 -55t-77.5 -22v-101h-73
v105z" />
    <glyph glyph-name="sterling" unicode="&#xa3;" horiz-adv-x="559" 
d="M221 300q14 -62 14 -113q0 -36 -11.5 -59.5t-45.5 -58.5h331v-69h-434v69q50 40 67.5 67t17.5 65q0 35 -14 99h-71v67h56q-11 56 -11 99q0 77 30 125q24 40 70 63.5t99 23.5q109 0 170 -104l-59 -39q-45 74 -114 74q-63 0 -95 -43q-28 -37 -28 -101q0 -33 14 -98h205v-67
h-191z" />
    <glyph glyph-name="currency" unicode="&#xa4;" horiz-adv-x="727" 
d="M222 518q61 49 142 49q80 0 141 -49l90 90l40 -39l-90 -92q47 -62 47 -143q0 -82 -47 -144l90 -91l-39 -41l-90 91q-62 -49 -142 -49q-81 0 -143 49l-89 -91l-40 41l90 91q-47 62 -47 144q0 81 47 143l-90 92l41 39zM364 502q-74 0 -118 -53q-39 -46 -39 -115
q0 -80 50 -128q43 -41 107 -41q73 0 118 53q38 47 38 116q0 79 -49 127q-43 41 -107 41z" />
    <glyph glyph-name="yen" unicode="&#xa5;" horiz-adv-x="556" 
d="M316 233v-233h-75v233h-163v67h151l-37 67h-114v66h77l-130 234h82l172 -319l172 319h81l-130 -234h76v-66h-113l-37 -67h150v-67h-162z" />
    <glyph glyph-name="brokenbar" unicode="&#xa6;" horiz-adv-x="500" 
d="M286 348h-72v380h72v-380zM286 210v-386h-72v386h72z" />
    <glyph glyph-name="section" unicode="&#xa7;" horiz-adv-x="543" 
d="M415 49q46 -43 46 -113q0 -88 -62 -138q-53 -43 -138 -43q-73 0 -126 37q-46 33 -82 98l59 38q59 -104 152 -104q59 0 93 36q30 30 30 77q0 38 -27 65.5t-90 51.5l-62 24q-138 54 -138 167q0 42 14.5 72.5t49.5 63.5q-53 47 -53 118q0 82 64 134q54 45 133 45
q111 0 175 -104l-59 -39q-47 74 -118 74q-56 0 -91 -36q-30 -31 -30 -76q0 -67 97 -105l66 -25q85 -34 122 -80q33 -41 33 -97q0 -76 -56 -138q0 -1 -2 -2v-1zM198 341q-54 -39 -54 -96q0 -69 96 -106l66 -26q24 -9 48 -22q24 26 34 47.5t10 50.5q0 40 -26.5 66.5
t-89.5 51.5l-63 25q-10 4 -21 9z" />
    <glyph glyph-name="dieresis" unicode="&#xa8;" horiz-adv-x="476" 
d="M279 591q0 20 15 35t36 15q20 0 34.5 -14.5t14.5 -35.5t-14.5 -35.5t-35.5 -14.5q-20 0 -35 14.5t-15 35.5zM96 591q0 20 14.5 35t35.5 15t35.5 -14.5t14.5 -35.5t-14.5 -35.5t-35.5 -14.5t-35.5 14.5t-14.5 35.5z" />
    <glyph glyph-name="copyright" unicode="&#xa9;" horiz-adv-x="857" 
d="M567 444q-32 34 -59.5 47.5t-64.5 13.5q-75 0 -124 -56q-42 -48 -42 -116q0 -77 54 -128q47 -43 111 -43q37 0 64 13t63 49l44 -45q-45 -44 -82.5 -61t-87.5 -17q-103 0 -172 76q-60 66 -60 156q0 104 77 173q65 60 155 60q50 0 87 -17t81 -61zM428 712q103 0 191 -52
q86 -50 136 -136q52 -88 52 -191t-52 -191q-50 -85 -136 -135q-88 -52 -191 -52q-102 0 -191 52q-85 50 -135 135q-52 89 -52 191q0 103 52 191q50 86 135 136q89 52 191 52zM428 657q-88 0 -163 -44q-73 -43 -116 -116q-44 -76 -44 -164q0 -87 44 -163q43 -73 116 -116
q76 -44 163 -44q88 0 163 44q74 43 116 116q45 76 45 163q0 88 -45 163q-42 74 -116 116q-75 45 -163 45z" />
    <glyph glyph-name="ordfeminine" unicode="&#xaa;" horiz-adv-x="358" 
d="M314 406h-54v30q-40 -37 -88 -37q-62 0 -103 46q-36 40 -36 94q0 62 46 103q40 36 93 36q49 0 88 -36v30h54v-266zM175 630q-42 0 -66 -29q-22 -25 -22 -62q0 -43 28 -69q24 -22 60 -22q41 0 66 29q21 25 21 62q0 43 -27 69q-24 22 -60 22z" />
    <glyph glyph-name="guillemotleft" unicode="&#xab;" horiz-adv-x="431" 
d="M262 222l119 -147l-47 -37l-149 184l149 187l47 -37zM114 222l118 -147l-46 -37l-149 184l149 187l46 -37z" />
    <glyph glyph-name="logicalnot" unicode="&#xac;" horiz-adv-x="667" 
d="M600 81h-70v198h-463v64h533v-262z" />
    <glyph glyph-name="uni00AD" unicode="&#xad;" horiz-adv-x="257" 
d="M30 345h196v-66h-196v66z" />
    <glyph glyph-name="registered" unicode="&#xae;" horiz-adv-x="857" 
d="M495 295l111 -187h-73l-104 178h-65v-178h-65v450h122q77 0 115 -34q42 -39 42 -102q0 -92 -83 -127zM364 499v-154h62q88 0 88 77t-88 77h-62zM428 712q103 0 191 -52q86 -50 136 -136q52 -88 52 -191t-52 -191q-50 -85 -136 -135q-88 -52 -191 -52q-102 0 -191 52
q-85 50 -135 135q-52 89 -52 191q0 103 52 191q50 86 135 136q89 52 191 52zM428 657q-88 0 -163 -44q-73 -43 -116 -116q-44 -76 -44 -164q0 -87 44 -163q43 -73 116 -116q76 -44 163 -44q88 0 163 44q74 43 116 116q45 76 45 163q0 88 -45 163q-42 74 -116 116
q-75 45 -163 45z" />
    <glyph glyph-name="macron" unicode="&#xaf;" horiz-adv-x="476" 
d="M101 622h273v-63h-273v63z" />
    <glyph glyph-name="degree" unicode="&#xb0;" horiz-adv-x="346" 
d="M207 740q62 0 103 -46q36 -40 36 -93q0 -63 -46 -104q-40 -36 -93 -36q-63 0 -104 46q-36 39 -36 93q0 62 46 104q40 36 94 36zM207 685q-38 0 -63 -28q-22 -24 -22 -57q0 -37 28 -63q24 -22 57 -22q37 0 62 28q22 25 22 57q0 38 -28 63q-24 22 -56 22z" />
    <glyph glyph-name="plusminus" unicode="&#xb1;" horiz-adv-x="556" 
d="M246 391v200h65v-200h198v-62h-198v-200h-65v200h-199v62h199zM509 63v-63h-462v63h462z" />
    <glyph glyph-name="twosuperior" unicode="&#xb2;" horiz-adv-x="387" 
d="M66 406v46l148 160q44 48 44 88q0 25 -18 40.5t-48 15.5q-32 0 -49 -13.5t-27 -48.5l-52 13q25 101 130 101q57 0 91 -35q29 -29 29 -75q0 -56 -42 -102l-129 -139h180v-51h-257z" />
    <glyph glyph-name="threesuperior" unicode="&#xb3;" horiz-adv-x="387" 
d="M161 638h24q33 0 51.5 15.5t18.5 43.5q0 27 -17.5 43t-46.5 16q-24 0 -39 -8.5t-34 -33.5l-46 25q43 69 119 69q56 0 90 -35q30 -30 30 -75q0 -51 -38 -82q47 -35 47 -94q0 -57 -43 -93q-36 -30 -90 -30q-50 0 -84 27q-30 23 -42 62l-4 15l55 14q10 -36 27 -51t48 -15
q34 0 55.5 19.5t21.5 50.5q0 66 -79 66h-24v51z" />
    <glyph glyph-name="acute" unicode="&#xb4;" horiz-adv-x="476" 
d="M365 641l-125 -126l-45 26l100 137z" />
    <glyph glyph-name="mu" unicode="&#xb5;" horiz-adv-x="509" 
d="M134 43v-276h-71v676h71v-231q0 -49 7 -76.5t24 -44.5q31 -34 83 -34q65 0 99 42q28 33 28 123v221h71v-443h-71v43q-51 -55 -129 -55q-65 0 -112 55z" />
    <glyph glyph-name="paragraph" unicode="&#xb6;" horiz-adv-x="640" 
d="M295 220h-11q-98 0 -162 73q-55 63 -55 150q0 102 71 167q61 57 146 57h306v-62h-65v-838h-65v838h-98h-2v-838h-65v453z" />
    <glyph glyph-name="glyph195" unicode="&#xb7;" horiz-adv-x="224" 
d="M64 311q0 20 14 33.5t34 13.5t34 -13.5t14 -33.5q0 -19 -14 -33t-34 -14t-34 14t-14 33z" />
    <glyph glyph-name="cedilla" unicode="&#xb8;" horiz-adv-x="476" 
d="M320 -75l-101 -128l-49 24l84 132z" />
    <glyph glyph-name="onesuperior" unicode="&#xb9;" horiz-adv-x="387" 
d="M238 406h-57v331l-59 -33l-27 44l94 53h49v-395z" />
    <glyph glyph-name="ordmasculine" unicode="&#xba;" horiz-adv-x="351" 
d="M175 678q65 0 107 -45q36 -39 36 -94q0 -63 -47 -104q-40 -36 -96 -36q-64 0 -106 46q-36 39 -36 94q0 63 46 104q41 35 96 35zM175 630q-41 0 -66 -29q-22 -25 -22 -62q0 -43 28 -69q24 -22 60 -22q42 0 67 29q22 25 22 62q0 43 -28 69q-24 22 -61 22z" />
    <glyph glyph-name="guillemotright" unicode="&#xbb;" horiz-adv-x="431" 
d="M318 222l-119 150l47 37l149 -187l-149 -184l-47 37zM170 222l-119 150l46 37l149 -187l-149 -184l-46 37z" />
    <glyph glyph-name="onequarter" unicode="&#xbc;" horiz-adv-x="833" 
d="M546 678l41 -23l-385 -667l-42 23zM663 376l-156 -240h115v102h56v-102h49v-51h-49v-85h-56v85h-178v52l173 267zM203 272h-57v331l-59 -33l-27 44l94 53h49v-395z" />
    <glyph glyph-name="onehalf" unicode="&#xbd;" horiz-adv-x="833" 
d="M546 678l41 -23l-385 -667l-42 23zM203 272h-57v331l-59 -33l-27 44l94 53h49v-395zM497 0v46l148 160q44 48 44 88q0 25 -18.5 40.5t-48.5 15.5q-32 0 -48.5 -13.5t-27.5 -48.5l-52 13q25 101 130 101q58 0 91 -35q29 -29 29 -75q0 -56 -42 -102l-129 -139h180v-51h-256
z" />
    <glyph glyph-name="threequarters" unicode="&#xbe;" horiz-adv-x="833" 
d="M608 678l41 -23l-386 -667l-41 23zM156 504h24q33 0 51.5 15.5t18.5 43.5q0 27 -17.5 43t-46.5 16q-24 0 -39 -9t-34 -33l-46 25q43 69 119 69q56 0 90 -35q30 -30 30 -75q0 -51 -38 -82q47 -35 47 -94q0 -58 -43 -93q-36 -30 -90 -30q-50 0 -84 26q-30 24 -42 63l-4 14
l55 15q10 -36 27 -51t48 -15q34 0 55.5 19.5t21.5 50.5q0 66 -79 66h-24v51zM703 376l-156 -240h114v102h57v-102h49v-51h-49v-85h-57v85h-178v52l174 267z" />
    <glyph glyph-name="questiondown" unicode="&#xbf;" horiz-adv-x="421" 
d="M272 333v-75q0 -47 -10.5 -70t-46.5 -54l-44 -37q-65 -55 -65 -117q0 -51 36 -81q31 -25 79 -25q44 0 71.5 16.5t57.5 62.5l54 -46q-60 -103 -179 -103q-94 0 -147 55q-45 47 -45 123q0 44 18.5 79.5t63.5 78.5l49 46q26 24 30.5 34.5t4.5 45.5v67h73zM285 443
q0 -20 -14.5 -34.5t-35.5 -14.5q-20 0 -34.5 14.5t-14.5 34.5q0 21 14.5 35.5t35.5 14.5q20 0 34.5 -14.5t14.5 -35.5z" />
    <glyph glyph-name="Agrave" unicode="&#xc0;" horiz-adv-x="620" 
d="M156 189l-72 -189h-77l257 667h93l257 -667h-78l-72 189h-308zM182 258h255l-128 337zM184 841l70 37l100 -137l-45 -26z" />
    <glyph glyph-name="Aacute" unicode="&#xc1;" horiz-adv-x="620" 
d="M156 189l-72 -189h-77l257 667h93l257 -667h-78l-72 189h-308zM182 258h255l-128 337zM434 841l-125 -126l-45 26l100 137z" />
    <glyph glyph-name="Acircumflex" unicode="&#xc2;" horiz-adv-x="620" 
d="M156 189l-72 -189h-77l257 667h93l257 -667h-78l-72 189h-308zM182 258h255l-128 337zM310 802l-92 -87l-51 26l115 126h57l115 -126l-52 -26z" />
    <glyph glyph-name="Atilde" unicode="&#xc3;" horiz-adv-x="620" 
d="M156 189l-72 -189h-77l257 667h93l257 -667h-78l-72 189h-308zM182 258h255l-128 337zM389 841l57 -14q-7 -85 -78 -85q-26 0 -68 19q-32 15 -43 15q-12 0 -17.5 -7.5t-8.5 -27.5l-57 13q4 40 25.5 62.5t54.5 22.5q23 0 69 -21q28 -13 43 -13q12 0 16.5 7.5t6.5 28.5z
" />
    <glyph glyph-name="Adieresis" unicode="&#xc4;" horiz-adv-x="620" 
d="M156 189l-72 -189h-77l257 667h93l257 -667h-78l-72 189h-308zM182 258h255l-128 337zM352 791q0 20 14.5 35t35.5 15t35.5 -14.5t14.5 -35.5t-14.5 -35.5t-35.5 -14.5q-20 0 -35 14.5t-15 35.5zM169 791q0 20 14.5 35t34.5 15q21 0 36 -14.5t15 -35.5t-15 -35.5
t-36 -14.5q-20 0 -34.5 14.5t-14.5 35.5z" />
    <glyph glyph-name="Aring" unicode="&#xc5;" horiz-adv-x="620" 
d="M156 189l-72 -189h-77l257 667h93l257 -667h-78l-72 189h-308zM182 258h255l-128 337zM221 791q0 39 29 65q26 22 60 22q40 0 67 -28q23 -25 23 -59q0 -39 -29 -65q-26 -23 -61 -23q-39 0 -66 29q-23 25 -23 59zM259 791q0 -22 15 -37t36 -15q22 0 37 15t15 37
q0 21 -15 36t-37 15q-21 0 -36 -15t-15 -36z" />
    <glyph glyph-name="AE" unicode="&#xc6;" horiz-adv-x="840" 
d="M445 189h-259l-96 -189h-83l343 667h438v-69h-268v-225h238v-70h-238v-234h278v-69h-353v189zM445 258v340h-52l-172 -340h224z" />
    <glyph glyph-name="Ccedilla" unicode="&#xc7;" horiz-adv-x="662" 
d="M574 521q-45 47 -88.5 67t-100.5 20q-121 0 -200 -89q-68 -78 -68 -186q0 -124 88 -205q75 -70 180 -70q56 0 100.5 21t91.5 69l52 -51q-59 -58 -115.5 -83.5t-127.5 -25.5q-94 0 -174 47q-78 45 -123 123q-47 81 -47 175q0 95 47 175q45 78 123 124q80 46 174 46
q70 0 125.5 -24.5t113.5 -81.5zM413 -75l-101 -128l-49 24l84 132z" />
    <glyph glyph-name="Egrave" unicode="&#xc8;" horiz-adv-x="475" 
d="M423 598h-268v-225h238v-70h-238v-234h278v-69h-353v667h343v-69zM138 841l70 37l100 -137l-45 -26z" />
    <glyph glyph-name="Eacute" unicode="&#xc9;" horiz-adv-x="475" 
d="M423 598h-268v-225h238v-70h-238v-234h278v-69h-353v667h343v-69zM375 841l-125 -126l-45 26l100 137z" />
    <glyph glyph-name="Ecircumflex" unicode="&#xca;" horiz-adv-x="475" 
d="M423 598h-268v-225h238v-70h-238v-234h278v-69h-353v667h343v-69zM257 802l-92 -87l-52 26l115 126h57l115 -126l-51 -26z" />
    <glyph glyph-name="Edieresis" unicode="&#xcb;" horiz-adv-x="475" 
d="M423 598h-268v-225h238v-70h-238v-234h278v-69h-353v667h343v-69zM297 791q0 20 14.5 35t35.5 15t35.5 -14.5t14.5 -35.5t-14.5 -35.5t-35.5 -14.5t-35.5 14.5t-14.5 35.5zM113 791q0 20 14.5 35t35.5 15t35.5 -14.5t14.5 -35.5t-14.5 -35.5t-35.5 -14.5q-20 0 -35 14.5
t-15 35.5z" />
    <glyph glyph-name="Igrave" unicode="&#xcc;" horiz-adv-x="235" 
d="M155 667v-667h-75v667h75zM-10 841l70 37l100 -137l-45 -26z" />
    <glyph glyph-name="Iacute" unicode="&#xcd;" horiz-adv-x="235" 
d="M155 667v-667h-75v667h75zM245 841l-125 -126l-45 26l100 137z" />
    <glyph glyph-name="Icircumflex" unicode="&#xce;" horiz-adv-x="235" 
d="M155 667v-667h-75v667h75zM117 802l-92 -87l-51 26l115 126h57l115 -126l-52 -26z" />
    <glyph glyph-name="Idieresis" unicode="&#xcf;" horiz-adv-x="235" 
d="M155 667v-667h-75v667h75zM134 791q0 20 15 35t36 15q20 0 34.5 -14.5t14.5 -35.5t-14.5 -35.5t-35.5 -14.5q-20 0 -35 14.5t-15 35.5zM1 791q0 20 14.5 35t35.5 15t35.5 -14.5t14.5 -35.5t-14.5 -35.5t-35.5 -14.5t-35.5 14.5t-14.5 35.5z" />
    <glyph glyph-name="Eth" unicode="&#xd0;" horiz-adv-x="634" 
d="M95 393v274h136q178 0 275 -102q85 -88 85 -231q0 -165 -109 -255q-96 -79 -251 -79h-136v326h-67v67h67zM169 393h160v-67h-160v-257h66q138 0 214 81q67 71 67 184q0 129 -86 201q-75 62 -195 62h-66v-204z" />
    <glyph glyph-name="Ntilde" unicode="&#xd1;" horiz-adv-x="710" 
d="M80 0v667h70l405 -545v545h75v-667h-70l-405 545v-545h-75zM442 841l57 -14q-7 -85 -78 -85q-26 0 -68 19q-32 15 -43 15q-12 0 -17.5 -7.5t-8.5 -27.5l-57 13q4 40 25.5 62.5t54.5 22.5q23 0 69 -21q28 -13 43 -13q12 0 16.5 7.5t6.5 28.5z" />
    <glyph glyph-name="Ograve" unicode="&#xd2;" horiz-adv-x="764" 
d="M42 333q0 93 47 174q45 78 122 124q79 47 171 47q91 0 171 -47q77 -46 122 -124q47 -81 47 -174t-47 -173q-45 -78 -122 -124q-80 -48 -171 -48t-171 48q-77 46 -122 124q-47 80 -47 173zM117 333q0 -74 37 -139q35 -62 95 -98q61 -38 133 -38t133 38q60 36 95 99
q37 64 37 138q0 123 -87 205q-76 70 -178 70q-72 0 -134 -37q-60 -37 -95 -99q-36 -64 -36 -139zM257 841l70 37l100 -137l-45 -26z" />
    <glyph glyph-name="Oacute" unicode="&#xd3;" horiz-adv-x="764" 
d="M42 333q0 93 47 174q45 78 122 124q79 47 171 47q91 0 171 -47q77 -46 122 -124q47 -81 47 -174t-47 -173q-45 -78 -122 -124q-80 -48 -171 -48t-171 48q-77 46 -122 124q-47 80 -47 173zM117 333q0 -74 37 -139q35 -62 95 -98q61 -38 133 -38t133 38q60 36 95 99
q37 64 37 138q0 123 -87 205q-76 70 -178 70q-72 0 -134 -37q-60 -37 -95 -99q-36 -64 -36 -139zM507 841l-125 -126l-45 26l100 137z" />
    <glyph glyph-name="Ocircumflex" unicode="&#xd4;" horiz-adv-x="764" 
d="M42 333q0 93 47 174q45 78 122 124q79 47 171 47q91 0 171 -47q77 -46 122 -124q47 -81 47 -174t-47 -173q-45 -78 -122 -124q-80 -48 -171 -48t-171 48q-77 46 -122 124q-47 80 -47 173zM117 333q0 -74 37 -139q35 -62 95 -98q61 -38 133 -38t133 38q60 36 95 99
q37 64 37 138q0 123 -87 205q-76 70 -178 70q-72 0 -134 -37q-60 -37 -95 -99q-36 -64 -36 -139zM382 802l-92 -87l-51 26l115 126h56l115 -126l-51 -26z" />
    <glyph glyph-name="Otilde" unicode="&#xd5;" horiz-adv-x="764" 
d="M42 333q0 93 47 174q45 78 122 124q79 47 171 47q91 0 171 -47q77 -46 122 -124q47 -81 47 -174t-47 -173q-45 -78 -122 -124q-80 -48 -171 -48t-171 48q-77 46 -122 124q-47 80 -47 173zM117 333q0 -74 37 -139q35 -62 95 -98q61 -38 133 -38t133 38q60 36 95 99
q37 64 37 138q0 123 -87 205q-76 70 -178 70q-72 0 -134 -37q-60 -37 -95 -99q-36 -64 -36 -139zM461 841l57 -14q-7 -85 -78 -85q-26 0 -68 19q-33 15 -43 15q-12 0 -17.5 -7.5t-9.5 -27.5l-56 13q4 40 25 62.5t54 22.5q23 0 70 -21q28 -13 42 -13q12 0 17 7.5t7 28.5z" />
    <glyph glyph-name="Odieresis" unicode="&#xd6;" horiz-adv-x="764" 
d="M42 333q0 93 47 174q45 78 122 124q79 47 171 47q91 0 171 -47q77 -46 122 -124q47 -81 47 -174t-47 -173q-45 -78 -122 -124q-80 -48 -171 -48t-171 48q-77 46 -122 124q-47 80 -47 173zM117 333q0 -74 37 -139q35 -62 95 -98q61 -38 133 -38t133 38q60 36 95 99
q37 64 37 138q0 123 -87 205q-76 70 -178 70q-72 0 -134 -37q-60 -37 -95 -99q-36 -64 -36 -139zM424 791q0 20 14.5 35t35.5 15t35.5 -14.5t14.5 -35.5t-14.5 -35.5t-35.5 -14.5t-35.5 14.5t-14.5 35.5zM240 791q0 20 14.5 35t35.5 15t35.5 -14.5t14.5 -35.5t-14.5 -35.5
t-35.5 -14.5q-20 0 -35 14.5t-15 35.5z" />
    <glyph glyph-name="multiply" unicode="&#xd7;" horiz-adv-x="556" 
d="M233 312l-141 141l45 45l141 -141l141 141l44 -45l-140 -141l140 -141l-44 -45l-141 141l-141 -141l-45 45z" />
    <glyph glyph-name="Oslash" unicode="&#xd8;" horiz-adv-x="771" 
d="M127 111q-81 96 -81 223q0 92 47 173q45 78 122 124q80 47 171 47q121 0 219 -82l72 72l41 -39l-73 -74q81 -96 81 -223q0 -92 -47 -172q-45 -78 -122 -124q-80 -48 -171 -48q-121 0 -219 83l-72 -73l-41 40zM178 163l377 382q-77 63 -169 63q-72 0 -134 -37
q-60 -36 -95 -99q-36 -64 -36 -139q0 -95 57 -170zM594 504l-377 -382q76 -64 169 -64q72 0 133 38q60 37 95 99q37 64 37 138q0 95 -57 171z" />
    <glyph glyph-name="Ugrave" unicode="&#xd9;" horiz-adv-x="635" 
d="M155 667v-414q0 -51 4.5 -77.5t17.5 -47.5q19 -31 58.5 -50.5t82.5 -19.5q42 0 81.5 19.5t58.5 50.5q13 21 18 47.5t5 77.5v414h74v-434q0 -53 -10 -88.5t-33 -65.5q-33 -43 -85 -67t-109 -24q-62 0 -116 27q-48 24 -79 64q-23 30 -33 65.5t-10 88.5v434h75zM199 841
l70 37l100 -137l-45 -26z" />
    <glyph glyph-name="Uacute" unicode="&#xda;" horiz-adv-x="635" 
d="M155 667v-414q0 -51 4.5 -77.5t17.5 -47.5q19 -31 58.5 -50.5t82.5 -19.5q42 0 81.5 19.5t58.5 50.5q13 21 18 47.5t5 77.5v414h74v-434q0 -53 -10 -88.5t-33 -65.5q-33 -43 -85 -67t-109 -24q-62 0 -116 27q-48 24 -79 64q-23 30 -33 65.5t-10 88.5v434h75zM436 841
l-125 -126l-45 26l100 137z" />
    <glyph glyph-name="Ucircumflex" unicode="&#xdb;" horiz-adv-x="635" 
d="M155 667v-414q0 -51 4.5 -77.5t17.5 -47.5q19 -31 58.5 -50.5t82.5 -19.5q42 0 81.5 19.5t58.5 50.5q13 21 18 47.5t5 77.5v414h74v-434q0 -53 -10 -88.5t-33 -65.5q-33 -43 -85 -67t-109 -24q-62 0 -116 27q-48 24 -79 64q-23 30 -33 65.5t-10 88.5v434h75zM318 802
l-92 -87l-52 26l115 126h57l115 -126l-51 -26z" />
    <glyph glyph-name="Udieresis" unicode="&#xdc;" horiz-adv-x="635" 
d="M155 667v-414q0 -51 4.5 -77.5t17.5 -47.5q19 -31 58.5 -50.5t82.5 -19.5q42 0 81.5 19.5t58.5 50.5q13 21 18 47.5t5 77.5v414h74v-434q0 -53 -10 -88.5t-33 -65.5q-33 -43 -85 -67t-109 -24q-62 0 -116 27q-48 24 -79 64q-23 30 -33 65.5t-10 88.5v434h75zM359 791
q0 20 15 35t36 15q20 0 34.5 -14.5t14.5 -35.5t-14.5 -35.5t-35.5 -14.5q-20 0 -35 14.5t-15 35.5zM176 791q0 20 14.5 35t35.5 15t35.5 -14.5t14.5 -35.5t-14.5 -35.5t-35.5 -14.5t-35.5 14.5t-14.5 35.5z" />
    <glyph glyph-name="Yacute" unicode="&#xdd;" horiz-adv-x="507" 
d="M216 278l-216 389h82l172 -319l172 319h81l-216 -389v-278h-75v278zM372 841l-125 -126l-45 26l100 137z" />
    <glyph glyph-name="Thorn" unicode="&#xde;" horiz-adv-x="467" 
d="M155 567h62q61 0 100 -11.5t68 -38.5q62 -56 62 -148t-62 -149q-29 -27 -68 -38.5t-100 -11.5h-62v-170h-75v667h75v-100zM155 238h71q75 0 111 34q36 35 36 97q0 61 -36 96q-35 33 -111 33h-71v-260z" />
    <glyph glyph-name="germandbls" unicode="&#xdf;" horiz-adv-x="518" 
d="M63 0v498q0 85 56 136q49 44 120 44q87 0 138 -56q44 -48 44 -123q0 -41 -15 -77t-40 -56q54 -22 82 -73q25 -44 25 -100q0 -93 -67 -146q-59 -47 -149 -47h-56v68h59q67 0 107 41q34 35 34 88q0 36 -18.5 66.5t-47.5 44.5q-31 14 -77 14h-5v65h5q47 0 72 32q21 29 21 77
q0 58 -33 90q-29 28 -75 28q-52 0 -82 -36q-27 -31 -27 -80v-498h-71z" />
    <glyph glyph-name="agrave" unicode="&#xe0;" horiz-adv-x="549" 
d="M486 0h-71v58q-63 -70 -156 -70q-100 0 -166 77q-58 67 -58 157q0 104 74 173q64 60 150 60q91 0 156 -70v58h71v-443zM263 390q-74 0 -118 -53q-38 -46 -38 -115q0 -79 49 -127q43 -42 107 -42q72 0 116 53q37 47 37 116q0 79 -48 127q-42 41 -105 41zM136 641l70 37
l100 -137l-45 -26z" />
    <glyph glyph-name="aacute" unicode="&#xe1;" horiz-adv-x="549" 
d="M486 0h-71v58q-63 -70 -156 -70q-100 0 -166 77q-58 67 -58 157q0 104 74 173q64 60 150 60q91 0 156 -70v58h71v-443zM263 390q-74 0 -118 -53q-38 -46 -38 -115q0 -79 49 -127q43 -42 107 -42q72 0 116 53q37 47 37 116q0 79 -48 127q-42 41 -105 41zM392 641
l-125 -126l-45 26l100 137z" />
    <glyph glyph-name="acircumflex" unicode="&#xe2;" horiz-adv-x="549" 
d="M486 0h-71v58q-63 -70 -156 -70q-100 0 -166 77q-58 67 -58 157q0 104 74 173q64 60 150 60q91 0 156 -70v58h71v-443zM263 390q-74 0 -118 -53q-38 -46 -38 -115q0 -79 49 -127q43 -42 107 -42q72 0 116 53q37 47 37 116q0 79 -48 127q-42 41 -105 41zM261 602l-92 -87
l-52 26l115 126h57l115 -126l-51 -26z" />
    <glyph glyph-name="atilde" unicode="&#xe3;" horiz-adv-x="549" 
d="M486 0h-71v58q-63 -70 -156 -70q-100 0 -166 77q-58 67 -58 157q0 104 74 173q64 60 150 60q91 0 156 -70v58h71v-443zM263 390q-74 0 -118 -53q-38 -46 -38 -115q0 -79 49 -127q43 -42 107 -42q72 0 116 53q37 47 37 116q0 79 -48 127q-42 41 -105 41zM340 641l57 -14
q-7 -85 -79 -85q-25 0 -67 19q-33 15 -44 15q-12 0 -17.5 -7.5t-8.5 -27.5l-56 13q4 40 25 62.5t54 22.5q23 0 70 -21q28 -13 42 -13q12 0 17 7.5t7 28.5z" />
    <glyph glyph-name="adieresis" unicode="&#xe4;" horiz-adv-x="549" 
d="M486 0h-71v58q-63 -70 -156 -70q-100 0 -166 77q-58 67 -58 157q0 104 74 173q64 60 150 60q91 0 156 -70v58h71v-443zM263 390q-74 0 -118 -53q-38 -46 -38 -115q0 -79 49 -127q43 -42 107 -42q72 0 116 53q37 47 37 116q0 79 -48 127q-42 41 -105 41zM311 591
q0 20 14.5 35t35.5 15t35.5 -14.5t14.5 -35.5t-14.5 -35.5t-35.5 -14.5t-35.5 14.5t-14.5 35.5zM127 591q0 20 14.5 35t35.5 15t35.5 -14.5t14.5 -35.5t-14.5 -35.5t-35.5 -14.5q-20 0 -35 14.5t-15 35.5z" />
    <glyph glyph-name="aring" unicode="&#xe5;" horiz-adv-x="549" 
d="M486 0h-71v58q-63 -70 -156 -70q-100 0 -166 77q-58 67 -58 157q0 104 74 173q64 60 150 60q91 0 156 -70v58h71v-443zM263 390q-74 0 -118 -53q-38 -46 -38 -115q0 -79 49 -127q43 -42 107 -42q72 0 116 53q37 47 37 116q0 79 -48 127q-42 41 -105 41zM183 591
q0 39 29 65q26 22 60 22q40 0 67 -28q23 -25 23 -59q0 -39 -29 -65q-26 -23 -61 -23q-39 0 -66 29q-23 25 -23 59zM221 591q0 -22 15 -37t36 -15q22 0 37 15t15 37q0 21 -15 36t-37 15q-21 0 -36 -15t-15 -36z" />
    <glyph glyph-name="ae" unicode="&#xe6;" horiz-adv-x="822" 
d="M409 73q-41 -85 -176 -85q-98 0 -152 46q-46 40 -46 105q0 74 55 114q49 34 130 34h140q-12 104 -131 104q-79 0 -142 -50l-34 47q82 67 185 67q121 0 168 -88q65 88 170 88q99 0 159 -77q52 -66 52 -165v-22h-353q8 -66 53 -105q39 -33 93 -33q90 0 135 78l64 -26
q-68 -117 -198 -117q-106 0 -172 85zM362 226h-129q-128 0 -128 -86q0 -45 38 -68q33 -19 90 -19q129 0 129 90v83zM716 252q-10 69 -52 106q-36 33 -88 33q-60 0 -99 -43q-35 -37 -43 -96h282z" />
    <glyph glyph-name="ccedilla" unicode="&#xe7;" horiz-adv-x="457" 
d="M385 332q-51 58 -121 58q-74 0 -119 -53q-38 -46 -38 -115q0 -80 50 -128q43 -41 108 -41q39 0 66.5 13.5t56.5 48.5l48 -48q-40 -43 -79.5 -61t-90.5 -18q-106 0 -173 76q-58 66 -58 158q0 106 75 174q64 59 156 59q93 0 166 -75zM294 -75l-101 -128l-49 24l84 132z" />
    <glyph glyph-name="egrave" unicode="&#xe8;" horiz-adv-x="496" 
d="M108 191q9 -66 54 -105q39 -33 93 -33q90 0 135 78l64 -26q-69 -117 -198 -117q-101 0 -165 76q-56 66 -56 159q0 104 71 173q61 59 144 59q100 0 160 -77q52 -66 52 -164v-23h-354zM391 252q-10 69 -52 106q-37 33 -88 33q-60 0 -100 -43q-34 -37 -43 -96h283zM129 641
l70 37l100 -137l-45 -26z" />
    <glyph glyph-name="eacute" unicode="&#xe9;" horiz-adv-x="496" 
d="M108 191q9 -66 54 -105q39 -33 93 -33q90 0 135 78l64 -26q-69 -117 -198 -117q-101 0 -165 76q-56 66 -56 159q0 104 71 173q61 59 144 59q100 0 160 -77q52 -66 52 -164v-23h-354zM391 252q-10 69 -52 106q-37 33 -88 33q-60 0 -100 -43q-34 -37 -43 -96h283zM369 641
l-125 -126l-45 26l100 137z" />
    <glyph glyph-name="ecircumflex" unicode="&#xea;" horiz-adv-x="496" 
d="M108 191q9 -66 54 -105q39 -33 93 -33q90 0 135 78l64 -26q-69 -117 -198 -117q-101 0 -165 76q-56 66 -56 159q0 104 71 173q61 59 144 59q100 0 160 -77q52 -66 52 -164v-23h-354zM391 252q-10 69 -52 106q-37 33 -88 33q-60 0 -100 -43q-34 -37 -43 -96h283zM249 602
l-92 -87l-52 26l115 126h57l115 -126l-51 -26z" />
    <glyph glyph-name="edieresis" unicode="&#xeb;" horiz-adv-x="496" 
d="M108 191q9 -66 54 -105q39 -33 93 -33q90 0 135 78l64 -26q-69 -117 -198 -117q-101 0 -165 76q-56 66 -56 159q0 104 71 173q61 59 144 59q100 0 160 -77q52 -66 52 -164v-23h-354zM391 252q-10 69 -52 106q-37 33 -88 33q-60 0 -100 -43q-34 -37 -43 -96h283zM290 591
q0 20 15 35t35 15q21 0 35.5 -14.5t14.5 -35.5t-14.5 -35.5t-35.5 -14.5q-20 0 -35 14.5t-15 35.5zM107 591q0 20 14.5 35t35.5 15q20 0 35 -14.5t15 -35.5t-15 -35.5t-35 -14.5q-21 0 -35.5 14.5t-14.5 35.5z" />
    <glyph glyph-name="igrave" unicode="&#xec;" horiz-adv-x="199" 
d="M136 443v-443h-72v443h72zM-31 641l70 37l100 -137l-45 -26z" />
    <glyph glyph-name="iacute" unicode="&#xed;" horiz-adv-x="199" 
d="M136 443v-443h-72v443h72zM231 641l-125 -126l-45 26l100 137z" />
    <glyph glyph-name="icircumflex" unicode="&#xee;" horiz-adv-x="199" 
d="M135 443v-443h-71v443h71zM99 602l-92 -87l-51 26l115 126h57l115 -126l-52 -26z" />
    <glyph glyph-name="idieresis" unicode="&#xef;" horiz-adv-x="199" 
d="M135 443v-443h-71v443h71zM115 591q0 20 15 35t36 15q20 0 34.5 -14.5t14.5 -35.5t-14.5 -35.5t-35.5 -14.5q-20 0 -35 14.5t-15 35.5zM-18 591q0 20 14.5 35t35.5 15t35.5 -14.5t14.5 -35.5t-14.5 -35.5t-35.5 -14.5t-35.5 14.5t-14.5 35.5z" />
    <glyph glyph-name="eth" unicode="&#xf0;" horiz-adv-x="530" 
d="M321 593q89 -58 134 -154q39 -84 39 -185q0 -94 -36 -157q-32 -54 -89 -83q-49 -26 -105 -26q-104 0 -171 76q-58 66 -58 158q0 103 73 172q63 60 149 60q72 0 121 -43q-21 40 -30 53.5t-24 29.5q-34 36 -76 60l-89 -47l-30 35l69 36q-43 17 -96 25l9 62q100 -14 165 -46
l76 40l29 -34zM420 222q0 79 -50 126q-43 42 -106 42q-74 0 -118 -54q-38 -46 -38 -114q0 -79 49 -127q43 -41 107 -41q73 0 117 53q39 46 39 115z" />
    <glyph glyph-name="ntilde" unicode="&#xf1;" horiz-adv-x="509" 
d="M134 393q50 62 134 62q81 0 132 -56q46 -50 46 -159v-240h-71v232q0 48 -7 75.5t-23 45.5q-31 34 -84 34q-65 0 -99 -42q-28 -34 -28 -123v-222h-71v443h71v-50zM338 641l58 -14q-7 -85 -79 -85q-25 0 -68 19q-32 15 -43 15q-12 0 -17.5 -7.5t-8.5 -27.5l-57 13
q5 40 26 62.5t54 22.5q23 0 69 -21q28 -13 43 -13q12 0 17 7.5t6 28.5z" />
    <glyph glyph-name="ograve" unicode="&#xf2;" horiz-adv-x="526" 
d="M263 455q104 0 171 -76q58 -65 58 -157q0 -106 -75 -174q-64 -60 -154 -60q-103 0 -170 76q-58 66 -58 158q0 105 74 174q65 59 154 59zM263 390q-74 0 -118 -53q-38 -46 -38 -115q0 -80 49 -127q43 -42 107 -42q74 0 118 54q39 46 39 115q0 79 -50 127q-43 41 -107 41z
M138 641l70 37l100 -137l-45 -26z" />
    <glyph glyph-name="oacute" unicode="&#xf3;" horiz-adv-x="526" 
d="M263 455q104 0 171 -76q58 -65 58 -157q0 -106 -75 -174q-64 -60 -154 -60q-103 0 -170 76q-58 66 -58 158q0 105 74 174q65 59 154 59zM263 390q-74 0 -118 -53q-38 -46 -38 -115q0 -80 49 -127q43 -42 107 -42q74 0 118 54q39 46 39 115q0 79 -50 127q-43 41 -107 41z
M388 641l-125 -126l-45 26l100 137z" />
    <glyph glyph-name="ocircumflex" unicode="&#xf4;" horiz-adv-x="526" 
d="M263 455q104 0 171 -76q58 -65 58 -157q0 -106 -75 -174q-64 -60 -154 -60q-103 0 -170 76q-58 66 -58 158q0 106 74 174q65 59 154 59zM263 390q-74 0 -118 -53q-38 -46 -38 -115q0 -80 49 -127q43 -42 107 -42q74 0 118 54q39 46 39 115q0 79 -50 127q-43 41 -107 41z
M263 602l-92 -87l-51 26l115 126h57l115 -126l-52 -26z" />
    <glyph glyph-name="otilde" unicode="&#xf5;" horiz-adv-x="526" 
d="M263 455q104 0 171 -76q58 -65 58 -157q0 -106 -75 -174q-64 -60 -154 -60q-103 0 -170 76q-58 66 -58 158q0 105 74 174q65 59 154 59zM263 390q-74 0 -118 -53q-38 -46 -38 -115q0 -80 49 -127q43 -42 107 -42q74 0 118 54q39 46 39 115q0 79 -50 127q-43 41 -107 41z
M342 641l57 -14q-7 -85 -78 -85q-26 0 -68 19q-32 15 -43 15q-12 0 -17.5 -7.5t-8.5 -27.5l-57 13q4 40 25.5 62.5t54.5 22.5q23 0 69 -21q28 -13 43 -13q12 0 16.5 7.5t6.5 28.5z" />
    <glyph glyph-name="odieresis" unicode="&#xf6;" horiz-adv-x="526" 
d="M263 455q104 0 171 -76q58 -65 58 -157q0 -106 -75 -174q-64 -60 -154 -60q-103 0 -170 76q-58 66 -58 158q0 105 74 174q65 59 154 59zM263 390q-74 0 -118 -53q-38 -46 -38 -115q0 -80 49 -127q43 -42 107 -42q74 0 118 54q39 46 39 115q0 79 -50 127q-43 41 -107 41z
M305 591q0 20 14.5 35t35.5 15t35.5 -14.5t14.5 -35.5t-14.5 -35.5t-35.5 -14.5q-20 0 -35 14.5t-15 35.5zM122 591q0 20 14.5 35t34.5 15q21 0 36 -14.5t15 -35.5t-15 -35.5t-36 -14.5q-20 0 -34.5 14.5t-14.5 35.5z" />
    <glyph glyph-name="divide" unicode="&#xf7;" horiz-adv-x="556" 
d="M493 343v-62h-429v62h429zM278 540q22 0 38 -15.5t16 -37.5t-16 -38t-38 -16t-37.5 16t-15.5 38t15.5 37.5t37.5 15.5zM278 191q22 0 38 -16t16 -38t-16 -37.5t-38 -15.5t-37.5 15.5t-15.5 37.5t15.5 38t37.5 16z" />
    <glyph glyph-name="oslash" unicode="&#xf8;" horiz-adv-x="539" 
d="M87 80q-46 63 -46 142q0 105 74 174q65 59 154 59q83 0 147 -53l44 43l38 -36l-46 -45q46 -65 46 -142q0 -106 -75 -174q-64 -60 -154 -60q-82 0 -146 53l-44 -43l-38 37zM168 86q43 -33 101 -33q74 0 118 53q39 47 39 115q0 58 -22 96zM370 357q-42 33 -100 33
q-74 0 -119 -53q-38 -46 -38 -115q0 -52 22 -96z" />
    <glyph glyph-name="ugrave" unicode="&#xf9;" horiz-adv-x="509" 
d="M375 50q-49 -62 -133 -62q-82 0 -133 56q-46 50 -46 159v240h71v-231q0 -49 7 -76.5t24 -44.5q31 -34 83 -34q65 0 99 42q28 33 28 123v221h71v-443h-71v50zM131 641l70 37l100 -137l-45 -26z" />
    <glyph glyph-name="uacute" unicode="&#xfa;" horiz-adv-x="509" 
d="M375 50q-49 -62 -133 -62q-82 0 -133 56q-46 50 -46 159v240h71v-231q0 -49 7 -76.5t24 -44.5q31 -34 83 -34q65 0 99 42q28 33 28 123v221h71v-443h-71v50zM375 641l-125 -126l-45 26l100 137z" />
    <glyph glyph-name="ucircumflex" unicode="&#xfb;" horiz-adv-x="509" 
d="M375 50q-49 -62 -133 -62q-82 0 -133 56q-46 50 -46 159v240h71v-231q0 -49 7 -76.5t24 -44.5q31 -34 83 -34q65 0 99 42q28 33 28 123v221h71v-443h-71v50zM255 602l-92 -87l-52 26l115 126h57l115 -126l-51 -26z" />
    <glyph glyph-name="udieresis" unicode="&#xfc;" horiz-adv-x="509" 
d="M375 50q-49 -62 -133 -62q-82 0 -133 56q-46 50 -46 159v240h71v-231q0 -49 7 -76.5t24 -44.5q31 -34 83 -34q65 0 99 42q28 33 28 123v221h71v-443h-71v50zM296 591q0 20 15 35t36 15q20 0 34.5 -14.5t14.5 -35.5t-14.5 -35.5t-35.5 -14.5q-20 0 -35 14.5t-15 35.5z
M113 591q0 20 14.5 35t35.5 15t35.5 -14.5t14.5 -35.5t-14.5 -35.5t-35.5 -14.5t-35.5 14.5t-14.5 35.5z" />
    <glyph glyph-name="yacute" unicode="&#xfd;" horiz-adv-x="441" 
d="M344 641l-125 -126l-45 26l100 137zM181 20l-180 423h77l141 -336l146 336h76l-296 -676h-74z" />
    <glyph glyph-name="thorn" unicode="&#xfe;" horiz-adv-x="550" 
d="M64 667h71v-282q63 70 156 70q100 0 166 -77q58 -66 58 -157q0 -104 -74 -173q-64 -60 -150 -60q-91 0 -156 70v-291h-71v900zM288 53q73 0 117 53q38 47 38 115q0 80 -49 128q-43 41 -106 41q-72 0 -115 -53q-38 -46 -38 -116q0 -79 48 -127q42 -41 105 -41z" />
    <glyph glyph-name="ydieresis" unicode="&#xff;" horiz-adv-x="441" 
d="M263 591q0 20 14.5 35t35.5 15t35.5 -14.5t14.5 -35.5t-14.5 -35.5t-35.5 -14.5t-35.5 14.5t-14.5 35.5zM79 591q0 20 14.5 35t35.5 15t35.5 -14.5t14.5 -35.5t-14.5 -35.5t-35.5 -14.5t-35.5 14.5t-14.5 35.5zM181 20l-180 423h77l141 -336l146 336h76l-296 -676h-74z
" />
    <glyph glyph-name="Amacron" unicode="&#x100;" horiz-adv-x="620" 
d="M156 189l-72 -189h-77l257 667h93l257 -667h-78l-72 189h-308zM182 258h255l-128 337zM174 822h273v-63h-273v63z" />
    <glyph glyph-name="amacron" unicode="&#x101;" horiz-adv-x="549" 
d="M486 0h-71v58q-63 -70 -156 -70q-100 0 -166 77q-58 67 -58 157q0 104 74 173q64 60 150 60q91 0 156 -70v58h71v-443zM263 390q-74 0 -118 -53q-38 -46 -38 -115q0 -79 49 -127q43 -42 107 -42q72 0 116 53q37 47 37 116q0 79 -48 127q-42 41 -105 41zM136 622h273v-63
h-273v63z" />
    <glyph glyph-name="Abreve" unicode="&#x102;" horiz-adv-x="620" 
d="M156 189l-72 -189h-77l257 667h93l257 -667h-78l-72 189h-308zM182 258h255l-128 337zM179 847l61 5q2 -36 20 -55.5t49 -19.5q61 0 72 75l61 -5q-7 -66 -47 -101q-35 -31 -86 -31q-64 0 -103 49q-15 19 -21 36.5t-6 46.5z" />
    <glyph glyph-name="abreve" unicode="&#x103;" horiz-adv-x="549" 
d="M486 0h-71v58q-63 -70 -156 -70q-100 0 -166 77q-58 67 -58 157q0 104 74 173q64 60 150 60q91 0 156 -70v58h71v-443zM263 390q-74 0 -118 -53q-38 -46 -38 -115q0 -79 49 -127q43 -42 107 -42q72 0 116 53q37 47 37 116q0 79 -48 127q-42 41 -105 41zM130 647l61 5
q2 -36 20.5 -55.5t48.5 -19.5q62 0 73 75l61 -5q-7 -66 -47 -101q-35 -31 -86 -31q-65 0 -104 49q-14 19 -20 36.5t-7 46.5z" />
    <glyph glyph-name="Aogonek" unicode="&#x104;" horiz-adv-x="620" 
d="M542 0h-6l-72 189h-308l-72 -189h-77l257 667h93l257 -667q-37 -42 -37 -67q0 -26 33 -26q15 0 37 8l20 -51q-36 -13 -63 -13q-43 0 -69 24q-23 21 -23 52q0 36 30 73zM182 258h255l-128 337z" />
    <glyph glyph-name="aogonek" unicode="&#x105;" horiz-adv-x="549" 
d="M415 0v58q-63 -70 -156 -70q-100 0 -166 77q-58 67 -58 157q0 104 74 173q64 60 150 60q91 0 156 -70v58h71v-443q-36 -42 -36 -67q0 -26 32 -26q15 0 37 8l20 -51q-35 -13 -63 -13q-43 0 -69 24q-23 21 -23 52q0 36 31 73zM263 390q-74 0 -118 -53q-38 -46 -38 -115
q0 -79 49 -127q43 -42 107 -42q72 0 116 53q37 47 37 116q0 79 -48 127q-42 41 -105 41z" />
    <glyph glyph-name="Cacute" unicode="&#x106;" horiz-adv-x="662" 
d="M574 521q-45 47 -88.5 67t-100.5 20q-121 0 -200 -89q-68 -78 -68 -186q0 -124 88 -205q75 -70 180 -70q56 0 100.5 21t91.5 69l52 -51q-59 -58 -115.5 -83.5t-127.5 -25.5q-94 0 -174 47q-78 45 -123 123q-47 81 -47 175q0 95 47 175q45 78 123 124q80 46 174 46
q70 0 125.5 -24.5t113.5 -81.5zM511 841l-125 -126l-45 26l100 137z" />
    <glyph glyph-name="cacute" unicode="&#x107;" horiz-adv-x="457" 
d="M385 332q-51 58 -121 58q-74 0 -119 -53q-38 -46 -38 -115q0 -80 50 -128q43 -41 108 -41q39 0 66.5 13.5t56.5 48.5l48 -48q-40 -43 -79.5 -61t-90.5 -18q-106 0 -173 76q-58 66 -58 158q0 106 75 174q64 59 156 59q93 0 166 -75zM372 641l-125 -126l-45 26l100 137z
" />
    <glyph glyph-name="Ccircumflex" unicode="&#x108;" horiz-adv-x="662" 
d="M574 521q-45 47 -88.5 67t-100.5 20q-121 0 -200 -89q-68 -78 -68 -186q0 -124 88 -205q75 -70 180 -70q56 0 100.5 21t91.5 69l52 -51q-59 -58 -115.5 -83.5t-127.5 -25.5q-94 0 -174 47q-78 45 -123 123q-47 81 -47 175q0 95 47 175q45 78 123 124q80 46 174 46
q70 0 125.5 -24.5t113.5 -81.5zM369 802l-92 -87l-51 26l115 126h57l114 -126l-51 -26z" />
    <glyph glyph-name="ccircumflex" unicode="&#x109;" horiz-adv-x="457" 
d="M385 332q-51 58 -121 58q-74 0 -119 -53q-38 -46 -38 -115q0 -80 50 -128q43 -41 108 -41q39 0 66.5 13.5t56.5 48.5l48 -48q-40 -43 -79.5 -61t-90.5 -18q-106 0 -173 76q-58 66 -58 158q0 106 75 174q64 59 156 59q93 0 166 -75zM249 602l-92 -87l-51 26l115 126h56
l115 -126l-51 -26z" />
    <glyph glyph-name="Cdotaccent" unicode="&#x10a;" horiz-adv-x="662" 
d="M574 521q-45 47 -88.5 67t-100.5 20q-121 0 -200 -89q-68 -78 -68 -186q0 -124 88 -205q75 -70 180 -70q56 0 100.5 21t91.5 69l52 -51q-59 -58 -115.5 -83.5t-127.5 -25.5q-94 0 -174 47q-78 45 -123 123q-47 81 -47 175q0 95 47 175q45 78 123 124q80 46 174 46
q70 0 125.5 -24.5t113.5 -81.5zM328 791q0 20 14.5 35t35.5 15q20 0 35 -14.5t15 -35.5t-15 -35.5t-35 -14.5q-21 0 -35.5 14.5t-14.5 35.5z" />
    <glyph glyph-name="cdotaccent" unicode="&#x10b;" horiz-adv-x="457" 
d="M385 332q-51 58 -121 58q-74 0 -119 -53q-38 -46 -38 -115q0 -80 50 -128q43 -41 108 -41q39 0 66.5 13.5t56.5 48.5l48 -48q-40 -43 -79.5 -61t-90.5 -18q-106 0 -173 76q-58 66 -58 158q0 106 75 174q64 59 156 59q93 0 166 -75zM203 591q0 20 14.5 35t34.5 15
q21 0 36 -14.5t15 -35.5t-15 -35.5t-36 -14.5q-20 0 -34.5 14.5t-14.5 35.5z" />
    <glyph glyph-name="Ccaron" unicode="&#x10c;" horiz-adv-x="662" 
d="M574 521q-45 47 -88.5 67t-100.5 20q-121 0 -200 -89q-68 -78 -68 -186q0 -124 88 -205q75 -70 180 -70q56 0 100.5 21t91.5 69l52 -51q-59 -58 -115.5 -83.5t-127.5 -25.5q-94 0 -174 47q-78 45 -123 123q-47 81 -47 175q0 95 47 175q45 78 123 124q80 46 174 46
q70 0 125.5 -24.5t113.5 -81.5zM369 786l92 86l51 -25l-114 -126h-57l-115 126l51 25z" />
    <glyph glyph-name="ccaron" unicode="&#x10d;" horiz-adv-x="457" 
d="M385 332q-51 58 -121 58q-74 0 -119 -53q-38 -46 -38 -115q0 -80 50 -128q43 -41 108 -41q39 0 66.5 13.5t56.5 48.5l48 -48q-40 -43 -79.5 -61t-90.5 -18q-106 0 -173 76q-58 66 -58 158q0 106 75 174q64 59 156 59q93 0 166 -75zM249 586l92 86l51 -25l-115 -126h-56
l-115 126l51 25z" />
    <glyph glyph-name="Dcaron" unicode="&#x10e;" horiz-adv-x="619" 
d="M80 667h137q177 0 275 -102q85 -88 85 -231q0 -165 -110 -255q-96 -79 -250 -79h-137v667zM155 597v-528h65q138 0 215 81q66 71 66 184q0 129 -86 201q-75 62 -195 62h-65zM290 786l92 86l51 -25l-115 -126h-56l-115 126l51 25z" />
    <glyph glyph-name="dcaron" unicode="&#x10f;" horiz-adv-x="643" 
d="M486 0h-71v58q-63 -70 -156 -70q-100 0 -166 77q-58 67 -58 157q0 104 74 173q64 60 150 60q91 0 156 -70v282h71v-667zM262 390q-73 0 -117 -53q-38 -46 -38 -115q0 -79 49 -127q43 -42 106 -42q72 0 115 53q38 47 38 116q0 79 -48 127q-42 41 -105 41zM579 678l69 -21
l-65 -152l-50 16z" />
    <glyph glyph-name="Dcroat" unicode="&#x110;" horiz-adv-x="634" 
d="M95 393v274h136q178 0 275 -102q85 -88 85 -231q0 -165 -109 -255q-96 -79 -251 -79h-136v326h-67v67h67zM169 393h160v-67h-160v-257h66q138 0 214 81q67 71 67 184q0 129 -86 201q-75 62 -195 62h-66v-204z" />
    <glyph glyph-name="dcroat" unicode="&#x111;" horiz-adv-x="549" 
d="M415 585v82h71v-82h60v-64h-60v-521h-71v58q-63 -70 -156 -70q-100 0 -166 77q-58 67 -58 157q0 104 74 173q64 60 150 60q91 0 156 -70v136h-120v64h120zM262 390q-73 0 -117 -53q-38 -46 -38 -115q0 -79 49 -127q43 -42 106 -42q72 0 115 53q38 47 38 116q0 79 -48 127
q-42 41 -105 41z" />
    <glyph glyph-name="Emacron" unicode="&#x112;" horiz-adv-x="475" 
d="M423 598h-268v-225h238v-70h-238v-234h278v-69h-353v667h343v-69zM120 822h273v-63h-273v63z" />
    <glyph glyph-name="emacron" unicode="&#x113;" horiz-adv-x="496" 
d="M108 191q9 -66 54 -105q39 -33 93 -33q90 0 135 78l64 -26q-69 -117 -198 -117q-101 0 -165 76q-56 66 -56 159q0 104 71 173q61 59 144 59q100 0 160 -77q52 -66 52 -164v-23h-354zM391 252q-10 69 -52 106q-37 33 -88 33q-60 0 -100 -43q-34 -37 -43 -96h283zM112 622
h273v-63h-273v63z" />
    <glyph glyph-name="Ebreve" unicode="&#x114;" horiz-adv-x="475" 
d="M423 598h-268v-225h238v-70h-238v-234h278v-69h-353v667h343v-69zM125 847l61 5q2 -36 20 -55.5t49 -19.5q62 0 72 75l61 -5q-7 -66 -47 -101q-34 -31 -85 -31q-65 0 -104 49q-15 19 -20.5 36.5t-6.5 46.5z" />
    <glyph glyph-name="ebreve" unicode="&#x115;" horiz-adv-x="496" 
d="M108 191q9 -66 54 -105q39 -33 93 -33q90 0 135 78l64 -26q-69 -117 -198 -117q-101 0 -165 76q-56 66 -56 159q0 104 71 173q61 59 144 59q100 0 160 -77q52 -66 52 -164v-23h-354zM391 252q-10 69 -52 106q-37 33 -88 33q-60 0 -100 -43q-34 -37 -43 -96h283zM120 647
l61 5q2 -36 20 -55.5t49 -19.5q62 0 73 75l61 -5q-8 -66 -47 -101q-35 -31 -86 -31q-65 0 -104 49q-14 19 -20 36.5t-7 46.5z" />
    <glyph glyph-name="Edotaccent" unicode="&#x116;" horiz-adv-x="475" 
d="M423 598h-268v-225h238v-70h-238v-234h278v-69h-353v667h343v-69zM207 791q0 20 14.5 35t34.5 15q21 0 36 -14.5t15 -35.5t-15 -35.5t-36 -14.5q-20 0 -34.5 14.5t-14.5 35.5z" />
    <glyph glyph-name="edotaccent" unicode="&#x117;" horiz-adv-x="496" 
d="M108 191q9 -66 54 -105q39 -33 93 -33q90 0 135 78l64 -26q-69 -117 -198 -117q-101 0 -165 76q-56 66 -56 159q0 104 71 173q61 59 144 59q100 0 160 -77q52 -66 52 -164v-23h-354zM391 252q-10 69 -52 106q-37 33 -88 33q-60 0 -100 -43q-34 -37 -43 -96h283zM199 591
q0 20 14.5 35t34.5 15q21 0 36 -14.5t15 -35.5t-15 -35.5t-36 -14.5q-20 0 -34.5 14.5t-14.5 35.5z" />
    <glyph glyph-name="Eogonek" unicode="&#x118;" horiz-adv-x="475" 
d="M433 0q-36 -42 -36 -67q0 -26 33 -26q15 0 37 8l20 -51q-36 -13 -63 -13q-43 0 -69 24q-23 21 -23 52q0 36 30 73h-282v667h343v-69h-268v-225h238v-70h-238v-234h278v-69z" />
    <glyph glyph-name="eogonek" unicode="&#x119;" horiz-adv-x="496" 
d="M284 -10q-27 -33 -27 -57q0 -26 32 -26q15 0 37 8l20 -51q-35 -13 -63 -13q-43 0 -69 24q-23 21 -23 52q0 33 24 65q-85 15 -136 87q-44 62 -44 144q0 104 71 173q61 59 144 59q100 0 160 -77q52 -66 52 -164v-23h-354q9 -66 54 -105q39 -33 93 -33q90 0 135 78l64 -26
q-59 -100 -170 -115zM391 252q-10 69 -52 106q-37 33 -88 33q-60 0 -100 -43q-34 -37 -43 -96h283z" />
    <glyph glyph-name="Ecaron" unicode="&#x11a;" horiz-adv-x="475" 
d="M423 598h-268v-225h238v-70h-238v-234h278v-69h-353v667h343v-69zM257 786l92 86l51 -25l-115 -126h-57l-115 126l52 25z" />
    <glyph glyph-name="ecaron" unicode="&#x11b;" horiz-adv-x="496" 
d="M108 191q9 -66 54 -105q39 -33 93 -33q90 0 135 78l64 -26q-69 -117 -198 -117q-101 0 -165 76q-56 66 -56 159q0 104 71 173q61 59 144 59q100 0 160 -77q52 -66 52 -164v-23h-354zM391 252q-10 69 -52 106q-37 33 -88 33q-60 0 -100 -43q-34 -37 -43 -96h283zM249 586
l92 86l51 -25l-115 -126h-57l-115 126l52 25z" />
    <glyph glyph-name="Gcircumflex" unicode="&#x11c;" horiz-adv-x="727" 
d="M410 344h274v-36q0 -155 -92 -243q-79 -77 -204 -77q-95 0 -175 47q-78 45 -124 123q-47 80 -47 174q0 95 47 176q45 78 122 123q80 47 175 47q70 0 125.5 -24.5t113.5 -81.5l-51 -51q-45 47 -88.5 67t-100.5 20q-122 0 -200 -89q-68 -78 -68 -187q0 -123 88 -204
q76 -70 181 -70q103 0 165 68q53 58 56 149h-197v69zM369 802l-92 -87l-51 26l115 126h57l115 -126l-52 -26z" />
    <glyph glyph-name="gcircumflex" unicode="&#x11d;" horiz-adv-x="549" 
d="M486 443v-451q0 -115 -72 -180q-63 -57 -160 -57q-62 0 -109 23t-92 75l46 47q38 -45 71.5 -62.5t82.5 -17.5q81 0 124 52q38 45 38 120v66q-63 -70 -156 -70q-100 0 -166 77q-58 67 -58 157q0 104 74 173q64 60 150 60q91 0 156 -70v58h71zM263 390q-74 0 -118 -53
q-38 -46 -38 -115q0 -79 49 -127q43 -42 107 -42q72 0 115 53q37 47 37 116q0 79 -48 127q-42 41 -104 41zM261 602l-92 -87l-52 26l115 126h57l115 -126l-51 -26z" />
    <glyph glyph-name="Gbreve" unicode="&#x11e;" horiz-adv-x="727" 
d="M410 344h274v-36q0 -155 -92 -243q-79 -77 -204 -77q-95 0 -175 47q-78 45 -124 123q-47 80 -47 174q0 95 47 176q45 78 122 123q80 47 175 47q70 0 125.5 -24.5t113.5 -81.5l-51 -51q-45 47 -88.5 67t-100.5 20q-122 0 -200 -89q-68 -78 -68 -187q0 -123 88 -204
q76 -70 181 -70q103 0 165 68q53 58 56 149h-197v69zM256 847l61 5q2 -36 20 -55.5t49 -19.5q61 0 72 75l61 -5q-7 -66 -47 -101q-35 -31 -86 -31q-64 0 -103 49q-15 19 -21 36.5t-6 46.5z" />
    <glyph glyph-name="gbreve" unicode="&#x11f;" horiz-adv-x="549" 
d="M486 443v-451q0 -115 -72 -180q-63 -57 -160 -57q-62 0 -109 23t-92 75l46 47q38 -45 71.5 -62.5t82.5 -17.5q81 0 124 52q38 45 38 120v66q-63 -70 -156 -70q-100 0 -166 77q-58 67 -58 157q0 104 74 173q64 60 150 60q91 0 156 -70v58h71zM263 390q-74 0 -118 -53
q-38 -46 -38 -115q0 -79 49 -127q43 -42 107 -42q72 0 115 53q37 47 37 116q0 79 -48 127q-42 41 -104 41zM130 647l61 5q2 -36 20.5 -55.5t48.5 -19.5q62 0 73 75l61 -5q-7 -66 -47 -101q-35 -31 -86 -31q-65 0 -104 49q-14 19 -20 36.5t-7 46.5z" />
    <glyph glyph-name="Gdotaccent" unicode="&#x120;" horiz-adv-x="727" 
d="M410 344h274v-36q0 -155 -92 -243q-79 -77 -204 -77q-95 0 -175 47q-78 45 -124 123q-47 80 -47 174q0 95 47 176q45 78 122 123q80 47 175 47q70 0 125.5 -24.5t113.5 -81.5l-51 -51q-45 47 -88.5 67t-100.5 20q-122 0 -200 -89q-68 -78 -68 -187q0 -123 88 -204
q76 -70 181 -70q103 0 165 68q53 58 56 149h-197v69zM336 791q0 20 14.5 35t35.5 15t35.5 -14.5t14.5 -35.5t-14.5 -35.5t-35.5 -14.5q-20 0 -35 14.5t-15 35.5z" />
    <glyph glyph-name="gdotaccent" unicode="&#x121;" horiz-adv-x="549" 
d="M486 443v-451q0 -115 -72 -180q-63 -57 -160 -57q-62 0 -109 23t-92 75l46 47q38 -45 71.5 -62.5t82.5 -17.5q81 0 124 52q38 45 38 120v66q-63 -70 -156 -70q-100 0 -166 77q-58 67 -58 157q0 104 74 173q64 60 150 60q91 0 156 -70v58h71zM263 390q-74 0 -118 -53
q-38 -46 -38 -115q0 -79 49 -127q43 -42 107 -42q72 0 115 53q37 47 37 116q0 79 -48 127q-42 41 -104 41zM211 591q0 20 14.5 35t35.5 15t35.5 -14.5t14.5 -35.5t-14.5 -35.5t-35.5 -14.5t-35.5 14.5t-14.5 35.5z" />
    <glyph glyph-name="Gcommaaccent" unicode="&#x122;" horiz-adv-x="727" 
d="M410 344h274v-36q0 -155 -92 -243q-79 -77 -204 -77q-95 0 -175 47q-78 45 -124 123q-47 80 -47 174q0 95 47 176q45 78 122 123q80 47 175 47q70 0 125.5 -24.5t113.5 -81.5l-51 -51q-45 47 -88.5 67t-100.5 20q-122 0 -200 -89q-68 -78 -68 -187q0 -123 88 -204
q76 -70 181 -70q103 0 165 68q53 58 56 149h-197v69zM352 -47l69 -21l-66 -152l-50 16z" />
    <glyph glyph-name="gcommaaccent" unicode="&#x123;" horiz-adv-x="549" 
d="M486 443v-451q0 -115 -72 -180q-63 -57 -160 -57q-62 0 -109 23t-92 75l46 47q38 -45 71.5 -62.5t82.5 -17.5q81 0 124 52q38 45 38 120v66q-63 -70 -156 -70q-100 0 -166 77q-58 67 -58 157q0 104 74 173q64 60 150 60q91 0 156 -70v58h71zM263 390q-74 0 -118 -53
q-38 -46 -38 -115q0 -79 49 -127q43 -42 107 -42q72 0 115 53q37 47 37 116q0 79 -48 127q-42 41 -104 41zM298 505l-69 21l66 152l50 -15z" />
    <glyph glyph-name="Hcircumflex" unicode="&#x124;" horiz-adv-x="650" 
d="M155 373h340v294h75v-667h-75v303h-340v-303h-75v667h75v-294zM325 802l-92 -87l-51 26l115 126h56l115 -126l-51 -26z" />
    <glyph glyph-name="hcircumflex" unicode="&#x125;" horiz-adv-x="509" 
d="M134 393q50 62 134 62q81 0 132 -56q46 -50 46 -159v-240h-71v232q0 48 -7 75.5t-23 45.5q-31 34 -84 34q-65 0 -99 -42q-28 -34 -28 -123v-222h-71v667h71v-274zM258 802l-92 -87l-51 26l115 126h56l115 -126l-51 -26z" />
    <glyph glyph-name="Hbar" unicode="&#x126;" horiz-adv-x="653" 
d="M572 521v-521h-75v303h-340v-303h-75v521h-60v64h60v82h75v-82h340v82h75v-82h60v-64h-60zM497 521h-340v-148h340v148z" />
    <glyph glyph-name="hbar" unicode="&#x127;" horiz-adv-x="510" 
d="M134 521v-128q50 62 134 62q81 0 132 -56q46 -50 46 -159v-240h-71v232q0 48 -7 75.5t-23 45.5q-31 34 -84 34q-65 0 -99 -42q-28 -34 -28 -123v-222h-71v521h-60v64h60v82h71v-82h120v-64h-120z" />
    <glyph glyph-name="Itilde" unicode="&#x128;" horiz-adv-x="235" 
d="M154 667v-667h-74v667h74zM196 841l57 -14q-7 -85 -78 -85q-26 0 -68 19q-33 15 -43 15q-12 0 -17.5 -7.5t-9.5 -27.5l-56 13q4 40 25 62.5t54 22.5q23 0 70 -21q28 -13 42 -13q13 0 17.5 7.5t6.5 28.5z" />
    <glyph glyph-name="itilde" unicode="&#x129;" horiz-adv-x="199" 
d="M136 443v-443h-72v443h72zM179 641l57 -14q-7 -85 -78 -85q-26 0 -68 19q-33 15 -43 15q-12 0 -17.5 -7.5t-9.5 -27.5l-56 13q4 40 25 62.5t54 22.5q23 0 70 -21q28 -13 42 -13q13 0 17.5 7.5t6.5 28.5z" />
    <glyph glyph-name="Imacron" unicode="&#x12a;" horiz-adv-x="235" 
d="M155 667v-667h-75v667h75zM-19 822h273v-63h-273v63z" />
    <glyph glyph-name="imacron" unicode="&#x12b;" horiz-adv-x="199" 
d="M135 443v-443h-71v443h71zM-37 622h273v-63h-273v63z" />
    <glyph glyph-name="Ibreve" unicode="&#x12c;" horiz-adv-x="235" 
d="M155 667v-667h-75v667h75zM-14 847l61 5q2 -36 20 -55.5t49 -19.5q62 0 72 75l61 -5q-7 -66 -47 -101q-34 -31 -85 -31q-65 0 -104 49q-15 19 -20.5 36.5t-6.5 46.5z" />
    <glyph glyph-name="ibreve" unicode="&#x12d;" horiz-adv-x="199" 
d="M135 443v-443h-71v443h71zM-32 647l61 5q2 -36 20 -55.5t49 -19.5q62 0 72 75l61 -5q-7 -66 -47 -101q-34 -31 -85 -31q-65 0 -104 49q-15 19 -20.5 36.5t-6.5 46.5z" />
    <glyph glyph-name="Iogonek" unicode="&#x12e;" horiz-adv-x="235" 
d="M83 0h-3v667h75v-667q-37 -42 -37 -67q0 -26 33 -26q15 0 37 8l20 -51q-36 -13 -63 -13q-43 0 -69 24q-23 21 -23 52q0 36 30 73z" />
    <glyph glyph-name="iogonek" unicode="&#x12f;" horiz-adv-x="199" 
d="M136 0q-37 -42 -37 -67q0 -26 33 -26q15 0 37 8l20 -51q-36 -13 -63 -13q-43 0 -69 24q-23 21 -23 52q0 36 30 73v443h72v-443zM49 591q0 21 15 36t36 15t36 -15t15 -36q0 -22 -15 -36.5t-36 -14.5t-36 15t-15 36z" />
    <glyph glyph-name="Idotaccent" unicode="&#x130;" horiz-adv-x="235" 
d="M154 667v-667h-74v667h74zM67 791q0 20 14.5 35t35.5 15t35.5 -14.5t14.5 -35.5t-14.5 -35.5t-35.5 -14.5t-35.5 14.5t-14.5 35.5z" />
    <glyph glyph-name="dotlessi" unicode="&#x131;" horiz-adv-x="199" 
d="M135 443v-443h-71v443h71z" />
    <glyph glyph-name="IJ" unicode="&#x132;" horiz-adv-x="625" 
d="M155 667v-667h-75v667h75zM545 667v-467q0 -64 -11.5 -101.5t-38.5 -64.5q-46 -46 -116 -46q-41 0 -75.5 16.5t-77.5 54.5l46 54q56 -55 106 -55q47 0 69.5 34.5t22.5 107.5v467h75z" />
    <glyph glyph-name="ij" unicode="&#x133;" horiz-adv-x="394" 
d="M136 443v-443h-72v443h72zM49 591q0 21 15 36t36 15t36 -15t15 -36q0 -22 -15 -36.5t-36 -14.5t-36 15t-15 36zM244 591q0 21 15 36t36 15t36 -15t15 -36q0 -22 -15 -36.5t-36 -14.5t-36 15t-15 36zM259 443h71v-543q0 -140 -107 -140q-18 0 -44 7v64q20 -5 30 -5
q50 0 50 74v543z" />
    <glyph glyph-name="Jcircumflex" unicode="&#x134;" horiz-adv-x="402" 
d="M321 667v-467q0 -64 -11 -101.5t-38 -64.5q-46 -46 -116 -46q-41 0 -76 16.5t-77 54.5l45 54q57 -55 107 -55q47 0 69.5 34.5t22.5 107.5v467h74zM247 802l-92 -87l-52 26l115 126h57l115 -126l-51 -26z" />
    <glyph glyph-name="jcircumflex" unicode="&#x135;" horiz-adv-x="209" 
d="M73 443h71v-543q0 -140 -107 -140q-18 0 -44 7v64q20 -5 30 -5q50 0 50 74v543zM94 602l-92 -87l-51 26l115 126h57l115 -126l-52 -26z" />
    <glyph glyph-name="Kcommaaccent" unicode="&#x136;" horiz-adv-x="567" 
d="M287 -47l69 -21l-65 -152l-50 16zM302 391l259 -391h-87l-221 336l-98 -108v-228h-75v667h75v-341l310 341h89z" />
    <glyph glyph-name="kcommaaccent" unicode="&#x137;" horiz-adv-x="465" 
d="M259 263l204 -263h-88l-165 216l-76 -76v-140h-71v667h71v-438l214 214h92zM219 -47l69 -21l-66 -152l-50 16z" />
    <glyph glyph-name="kgreenlandic" unicode="&#x138;" horiz-adv-x="465" 
d="M259 263l204 -263h-88l-165 216l-76 -76v-140h-71v443h71v-214l214 214h92z" />
    <glyph glyph-name="Lacute" unicode="&#x139;" horiz-adv-x="420" 
d="M155 667v-598h258v-69h-333v667h75zM245 841l-125 -126l-45 26l100 137z" />
    <glyph glyph-name="lacute" unicode="&#x13a;" horiz-adv-x="199" 
d="M136 0h-72v667h72v-667zM231 852l-125 -125l-45 25l100 138z" />
    <glyph glyph-name="Lcommaaccent" unicode="&#x13b;" horiz-adv-x="426" 
d="M155 667v-598h258v-69h-333v667h75zM236 -47l69 -21l-66 -152l-50 16z" />
    <glyph glyph-name="lcommaaccent" unicode="&#x13c;" horiz-adv-x="199" 
d="M136 0h-72v667h72v-667zM72 -47l69 -21l-66 -152l-50 16z" />
    <glyph glyph-name="Lcaron" unicode="&#x13d;" horiz-adv-x="426" 
d="M155 667v-598h258v-69h-333v667h75zM301 678l69 -21l-65 -152l-50 16z" />
    <glyph glyph-name="lcaron" unicode="&#x13e;" horiz-adv-x="292" 
d="M135 0h-71v667h71v-667zM229 678l69 -21l-66 -152l-50 16z" />
    <glyph glyph-name="Ldot" unicode="&#x13f;" horiz-adv-x="426" 
d="M270 334q0 20 14.5 34.5t34.5 14.5q21 0 35 -14.5t14 -34.5q0 -21 -14 -35.5t-35 -14.5q-20 0 -34.5 14.5t-14.5 35.5zM155 667v-598h258v-69h-333v667h75z" />
    <glyph glyph-name="ldot" unicode="&#x140;" horiz-adv-x="338" 
d="M135 0h-71v667h71v-667zM219 334q0 20 14.5 34.5t35.5 14.5q20 0 34.5 -14.5t14.5 -34.5q0 -21 -14.5 -35.5t-34.5 -14.5q-21 0 -35.5 14.5t-14.5 35.5z" />
    <glyph glyph-name="Lslash" unicode="&#x141;" horiz-adv-x="441" 
d="M95 361v306h74v-273l114 80v-76l-114 -80v-249h259v-69h-333v285l-67 -46v75z" />
    <glyph glyph-name="lslash" unicode="&#x142;" horiz-adv-x="250" 
d="M89 286l-64 -43v78l64 43v303h72v-255l64 43v-78l-64 -43v-334h-72v286z" />
    <glyph glyph-name="Nacute" unicode="&#x143;" horiz-adv-x="710" 
d="M80 0v667h70l405 -545v545h75v-667h-70l-405 545v-545h-75zM490 841l-125 -126l-45 26l100 137z" />
    <glyph glyph-name="nacute" unicode="&#x144;" horiz-adv-x="509" 
d="M134 393q50 62 134 62q81 0 132 -56q46 -50 46 -159v-240h-71v232q0 48 -7 75.5t-23 45.5q-31 34 -84 34q-65 0 -99 -42q-28 -34 -28 -123v-222h-71v443h71v-50zM391 641l-125 -126l-45 26l100 137z" />
    <glyph glyph-name="Ncommaaccent" unicode="&#x145;" horiz-adv-x="710" 
d="M80 0v667h70l405 -545v545h75v-667h-70l-405 545v-545h-75zM344 -47l69 -21l-66 -152l-50 16z" />
    <glyph glyph-name="ncommaaccent" unicode="&#x146;" horiz-adv-x="509" 
d="M134 393q50 62 134 62q81 0 132 -56q46 -50 46 -159v-240h-71v232q0 48 -7 75.5t-23 45.5q-31 34 -84 34q-65 0 -99 -42q-28 -34 -28 -123v-222h-71v443h71v-50zM244 -47l69 -21l-66 -152l-50 16z" />
    <glyph glyph-name="Ncaron" unicode="&#x147;" horiz-adv-x="710" 
d="M80 0v667h70l405 -545v545h75v-667h-70l-405 545v-545h-75zM372 786l92 86l51 -25l-115 -126h-57l-115 126l52 25z" />
    <glyph glyph-name="ncaron" unicode="&#x148;" horiz-adv-x="509" 
d="M134 393q50 62 134 62q81 0 132 -56q46 -50 46 -159v-240h-71v232q0 48 -7 75.5t-23 45.5q-31 34 -84 34q-65 0 -99 -42q-28 -34 -28 -123v-222h-71v443h71v-50zM260 586l92 86l51 -25l-115 -126h-57l-115 126l52 25z" />
    <glyph glyph-name="napostrophe" unicode="&#x149;" horiz-adv-x="590" 
d="M215 393q49 62 133 62q81 0 133 -56q46 -50 46 -159v-240h-72v232q0 48 -6.5 75.5t-23.5 45.5q-31 34 -83 34q-65 0 -100 -42q-27 -34 -27 -123v-222h-72v443h72v-50zM83 656l65 -24l-100 -225l-48 19z" />
    <glyph glyph-name="Eng" unicode="&#x14a;" horiz-adv-x="710" 
d="M630 667v-676q0 -140 -107 -140q-19 0 -44 6v65q20 -5 30 -5q50 0 50 74v11l-404 543v-545h-75v667h70l405 -545v545h75z" />
    <glyph glyph-name="eng" unicode="&#x14b;" horiz-adv-x="509" 
d="M295 -143v65q20 -5 30 -5q50 0 50 74v241q0 48 -7 75.5t-23 45.5q-31 34 -84 34q-65 0 -99 -42q-28 -34 -28 -123v-222h-71v443h71v-50q50 62 134 62q81 0 132 -56q46 -50 46 -159v-249q0 -140 -107 -140q-18 0 -44 6z" />
    <glyph glyph-name="Omacron" unicode="&#x14c;" horiz-adv-x="764" 
d="M42 333q0 93 47 174q45 78 122 124q79 47 171 47q91 0 171 -47q77 -46 122 -124q47 -81 47 -174t-47 -173q-45 -78 -122 -124q-80 -48 -171 -48t-171 48q-77 46 -122 124q-47 80 -47 173zM117 333q0 -74 37 -139q35 -62 95 -98q61 -38 133 -38t133 38q60 36 95 99
q37 64 37 138q0 123 -87 205q-76 70 -178 70q-72 0 -134 -37q-60 -37 -95 -99q-36 -64 -36 -139zM245 822h274v-63h-274v63z" />
    <glyph glyph-name="omacron" unicode="&#x14d;" horiz-adv-x="526" 
d="M263 455q104 0 171 -76q58 -65 58 -157q0 -106 -75 -174q-64 -60 -154 -60q-103 0 -170 76q-58 66 -58 158q0 105 74 174q65 59 154 59zM263 390q-74 0 -118 -53q-38 -46 -38 -115q0 -80 49 -127q43 -42 107 -42q74 0 118 54q39 46 39 115q0 79 -50 127q-43 41 -107 41z
M127 622h273v-63h-273v63z" />
    <glyph glyph-name="Obreve" unicode="&#x14e;" horiz-adv-x="764" 
d="M42 333q0 93 47 174q45 78 122 124q79 47 171 47q91 0 171 -47q77 -46 122 -124q47 -81 47 -174t-47 -173q-45 -78 -122 -124q-80 -48 -171 -48t-171 48q-77 46 -122 124q-47 80 -47 173zM117 333q0 -74 37 -139q35 -62 95 -98q61 -38 133 -38t133 38q60 36 95 99
q37 64 37 138q0 123 -87 205q-76 70 -178 70q-72 0 -134 -37q-60 -37 -95 -99q-36 -64 -36 -139zM250 847l61 5q2 -36 20 -55.5t49 -19.5q62 0 73 75l61 -5q-8 -66 -47 -101q-35 -31 -86 -31q-65 0 -104 49q-14 19 -20 36.5t-7 46.5z" />
    <glyph glyph-name="obreve" unicode="&#x14f;" horiz-adv-x="526" 
d="M263 455q104 0 171 -76q58 -65 58 -157q0 -106 -75 -174q-64 -60 -154 -60q-103 0 -170 76q-58 66 -58 158q0 105 74 174q65 59 154 59zM263 390q-74 0 -118 -53q-38 -46 -38 -115q0 -80 49 -127q43 -42 107 -42q74 0 118 54q39 46 39 115q0 79 -50 127q-43 41 -107 41z
M132 647l61 5q2 -36 20 -55.5t49 -19.5q61 0 72 75l61 -5q-7 -66 -47 -101q-35 -31 -86 -31q-64 0 -103 49q-15 19 -21 36.5t-6 46.5z" />
    <glyph glyph-name="Ohungarumlaut" unicode="&#x150;" horiz-adv-x="764" 
d="M42 333q0 93 47 174q45 78 122 124q79 47 171 47q91 0 171 -47q77 -46 122 -124q47 -81 47 -174t-47 -173q-45 -78 -122 -124q-80 -48 -171 -48t-171 48q-77 46 -122 124q-47 80 -47 173zM117 333q0 -74 37 -139q35 -62 95 -98q61 -38 133 -38t133 38q60 36 95 99
q37 64 37 138q0 123 -87 205q-76 70 -178 70q-72 0 -134 -37q-60 -37 -95 -99q-36 -64 -36 -139zM439 841l-125 -126l-42 26l100 137zM579 841l-125 -126l-42 26l100 137z" />
    <glyph glyph-name="ohungarumlaut" unicode="&#x151;" horiz-adv-x="526" 
d="M263 455q104 0 171 -76q58 -65 58 -157q0 -106 -75 -174q-64 -60 -154 -60q-103 0 -170 76q-58 66 -58 158q0 105 74 174q65 59 154 59zM263 390q-74 0 -118 -53q-38 -46 -38 -115q0 -80 49 -127q43 -42 107 -42q74 0 118 54q39 46 39 115q0 79 -50 127q-43 41 -107 41z
M330 641l-125 -126l-42 26l100 137zM470 641l-125 -126l-42 26l100 137z" />
    <glyph glyph-name="OE" unicode="&#x152;" horiz-adv-x="1042" 
d="M647 548v119h343v-69h-269v-225h239v-70h-239v-234h279v-69h-353v118q-52 -65 -128 -100q-66 -30 -137 -30q-92 0 -171 48q-77 46 -122 124q-47 80 -47 173t47 173q45 79 122 125q79 47 171 47q82 0 155 -38q64 -34 110 -92zM117 333q0 -74 37 -139q35 -62 95 -98
q61 -38 133 -38t133 38q60 36 95 99q37 64 37 138q0 123 -87 205q-76 70 -178 70q-72 0 -134 -37q-60 -37 -95 -99q-36 -64 -36 -139z" />
    <glyph glyph-name="oe" unicode="&#x153;" horiz-adv-x="881" 
d="M455 351q66 104 180 104q98 0 159 -77q53 -66 53 -163q0 -8 -1 -24h-353q8 -66 53 -105q39 -33 94 -33q90 0 135 78l63 -26q-68 -117 -198 -117q-62 0 -112 31q-44 27 -73 74q-34 -53 -89 -81q-47 -24 -103 -24q-103 0 -170 76q-58 66 -58 158q0 105 74 174q65 59 154 59
q64 0 116 -31q46 -27 76 -73zM263 390q-74 0 -118 -53q-38 -46 -38 -115q0 -80 49 -127q43 -42 107 -42q74 0 118 54q39 46 39 115q0 79 -50 127q-43 41 -107 41zM776 252q-10 69 -52 106q-37 33 -89 33q-59 0 -99 -43q-34 -37 -43 -96h283z" />
    <glyph glyph-name="Racute" unicode="&#x154;" horiz-adv-x="533" 
d="M377 841l-125 -126l-45 26l100 137zM348 289l160 -289h-83l-150 273q-36 -3 -58 -3h-62v-270h-75v667h137q66 0 107.5 -12t72.5 -39t48.5 -67t17.5 -84q0 -64 -34 -112q-30 -42 -81 -64zM155 338h71q84 0 123 32q41 34 41 95q0 63 -41 99q-39 34 -123 34h-71v-260z" />
    <glyph glyph-name="racute" unicode="&#x155;" horiz-adv-x="293" 
d="M134 393q41 51 116 51q12 0 23 -1v-64h-19q-46 0 -75 -22q-25 -19 -35 -50t-10 -93v-214h-71v443h71v-50zM266 641l-125 -126l-45 26l100 137z" />
    <glyph glyph-name="Rcommaaccent" unicode="&#x156;" horiz-adv-x="533" 
d="M264 -47l69 -21l-66 -152l-50 16zM348 289l160 -289h-83l-150 273q-36 -3 -58 -3h-62v-270h-75v667h137q66 0 107.5 -12t72.5 -39t48.5 -67t17.5 -84q0 -64 -34 -112q-30 -42 -81 -64zM155 338h71q84 0 123 32q41 34 41 95q0 63 -41 99q-39 34 -123 34h-71v-260z" />
    <glyph glyph-name="rcommaaccent" unicode="&#x157;" horiz-adv-x="293" 
d="M135 393q40 51 115 51q13 0 23 -1v-64h-19q-46 0 -75 -22q-25 -19 -34.5 -50t-9.5 -93v-214h-72v443h72v-50zM71 -47l69 -21l-66 -152l-50 16z" />
    <glyph glyph-name="Rcaron" unicode="&#x158;" horiz-adv-x="533" 
d="M257 786l92 86l51 -25l-115 -126h-57l-115 126l52 25zM348 289l160 -289h-83l-150 273q-36 -3 -58 -3h-62v-270h-75v667h137q66 0 107.5 -12t72.5 -39t48.5 -67t17.5 -84q0 -64 -34 -112q-30 -42 -81 -64zM155 338h71q84 0 123 32q41 34 41 95q0 63 -41 99
q-39 34 -123 34h-71v-260z" />
    <glyph glyph-name="rcaron" unicode="&#x159;" horiz-adv-x="293" 
d="M135 393q40 51 115 51q13 0 23 -1v-64h-19q-46 0 -75 -22q-25 -19 -34.5 -50t-9.5 -93v-214h-72v443h72v-50zM168 586l92 86l52 -25l-115 -126h-57l-115 126l51 25z" />
    <glyph glyph-name="Sacute" unicode="&#x15a;" horiz-adv-x="505" 
d="M441 574l-59 -39q-49 74 -121 74q-56 0 -91 -36q-31 -31 -31 -76q0 -67 97 -105l66 -25q86 -34 123 -80q32 -41 32 -98q0 -91 -69 -150q-59 -51 -142 -51q-85 0 -140 51q-48 45 -66 121l72 20q31 -122 136 -122q60 0 100 43q34 37 34 88q0 40 -26 66.5t-90 51.5l-62 25
q-138 54 -138 166q0 83 63 135q55 45 134 45q113 0 178 -104zM387 841l-125 -126l-45 26l100 137z" />
    <glyph glyph-name="sacute" unicode="&#x15b;" horiz-adv-x="371" 
d="M324 375l-58 -30q-16 26 -33.5 36.5t-43.5 10.5q-32 0 -52.5 -17.5t-20.5 -44.5q0 -26 19 -42q10 -9 58 -27l43 -17q54 -21 77.5 -48t23.5 -67q0 -64 -50 -105q-43 -36 -103 -36q-110 0 -154 113l61 26q21 -42 41.5 -58.5t53.5 -16.5q37 0 60 24q20 20 20 49
q0 26 -15 39.5t-63 31.5l-48 19q-90 35 -90 112q0 59 45 96q40 32 96 32q87 0 133 -80zM310 641l-126 -126l-44 26l100 137z" />
    </font>
</defs>
</svg>
