<?xml version="1.0" standalone="no"?>
<!DOCTYPE svg PUBLIC "-//W3C//DTD SVG 1.1//EN" "http://www.w3.org/Graphics/SVG/1.1/DTD/svg11.dtd" >
<svg xmlns="http://www.w3.org/2000/svg" xmlns:xlink="http://www.w3.org/1999/xlink" version="1.1">
<metadata>
Created by FontForge 20170731 at Wed Dec 20 17:38:27 2017
 By Aleksey,,,
(URW)++,Copyright 2017 by (URW)++ Design &#38; Development
</metadata>
<defs>
<font id="URWGeometricArabic-Medium" horiz-adv-x="0" >
  <font-face 
    font-family="URWGeometricArabic-Medium"
    font-weight="400"
    font-stretch="normal"
    units-per-em="1000"
    panose-1="0 0 0 0 0 0 0 0 0 0"
    ascent="733"
    descent="-267"
    x-height="443"
    cap-height="667"
    bbox="-402 -479 1418 1068"
    underline-thickness="78"
    underline-position="-293"
    unicode-range="U+0020-FEFC"
  />
<missing-glyph horiz-adv-x="364" 
d="M33 0v666h265v-666h-265zM66 33h199v600h-199v-600z" />
    <glyph glyph-name="uni064D0651" unicode="&#x64b;&#x651;" 
d="M-165 963l-171 -30l-8 44l171 31zM-159 880l-171 -31l-8 44l171 32zM-250 703q-17 -16 -42 -16q-26 0 -42.5 15.5t-16.5 38.5v70h40v-64q0 -20 20 -20q21 0 21 20v45h40v-45q0 -20 20 -20q21 0 21 20v64h39v-70q0 -24 -16.5 -39t-41.5 -15q-27 0 -42 16z" />
    <glyph glyph-name="fi" unicode="fi" horiz-adv-x="452" 
d="M237 366h-79v-366h-86v366h-44v77h44v87q0 75 32 112q29 32 79 32q23 0 53 -7v-78q-23 6 -36 6q-42 0 -42 -65v-87h79v-77zM391 443v-443h-85v443h85zM291 592q0 24 17 40.5t41 16.5t40.5 -16.5t16.5 -40.5t-16.5 -41t-40.5 -17t-41 17t-17 41z" />
    <glyph glyph-name="fl" unicode="fl" horiz-adv-x="453" 
d="M237 366h-79v-366h-86v366h-44v77h44v87q0 75 32 112q29 32 79 32q23 0 53 -7v-78q-23 6 -36 6q-42 0 -42 -65v-87h79v-77zM392 0h-86v667h86v-667z" />
    <glyph glyph-name="uniFC5E" unicode="&#x64c;&#x651;" arabic-form="isolated" 
d="M-237 888q-22 20 -22 47q0 28 17 46.5t43 18.5q28 0 45 -18t17 -47q0 -44 -33 -70q-26 -20 -62 -20q-50 0 -79 35l-21 -33l-35 25l36 58h26q25 -44 68 -42zM-196 897q21 10 21 37q0 12 -6.5 20t-16.5 8q-21 0 -21 -27q0 -26 23 -38zM-250 703q-17 -16 -42 -16
q-26 0 -42.5 15.5t-16.5 38.5v70h40v-64q0 -20 20 -20q21 0 21 20v45h40v-45q0 -20 20 -20q21 0 21 20v64h39v-70q0 -24 -16.5 -39t-41.5 -15q-27 0 -42 16z" />
    <glyph glyph-name="uniFC5F" unicode="&#x64d;&#x651;" arabic-form="isolated" 
d="M-254 889q-17 -16 -42 -16t-41.5 15t-16.5 39v69h39v-63q0 -21 20 -21q22 0 22 21v45h39v-45q0 -21 20 -21q21 0 21 21v63h40v-69q0 -24 -16.5 -39t-42.5 -15q-27 0 -42 16zM-164 801l-171 -31l-8 45l171 30zM-158 717l-171 -31l-8 45l171 31z" />
    <glyph glyph-name="uniFC60" unicode="&#x64e;&#x651;" arabic-form="isolated" 
d="M-155 879l-178 -31l-10 51l179 32zM-250 703q-17 -16 -42 -16q-26 0 -42.5 15.5t-16.5 38.5v70h40v-64q0 -20 20 -20q21 0 21 20v45h40v-45q0 -20 20 -20q21 0 21 20v64h39v-70q0 -24 -16.5 -39t-41.5 -15q-27 0 -42 16z" />
    <glyph glyph-name="uniFC61" unicode="&#x64f;&#x651;" arabic-form="isolated" 
d="M-219 865l-126 -23l-7 41l103 19q-20 20 -20 49q0 26 17 44t42 18q27 0 44 -17.5t17 -46.5q0 -32 -19.5 -55.5t-50.5 -28.5zM-207 913q19 10 19 35q0 27 -21 27q-20 0 -20 -26q0 -25 22 -36zM-250 703q-17 -16 -42 -16q-26 0 -42.5 15.5t-16.5 38.5v70h40v-64
q0 -20 20 -20q21 0 21 20v45h40v-45q0 -20 20 -20q21 0 21 20v64h39v-70q0 -24 -16.5 -39t-41.5 -15q-27 0 -42 16z" />
    <glyph glyph-name="uniFC62" unicode="&#x650;&#x651;" arabic-form="isolated" 
d="M-253 824q-17 -16 -42 -16t-41.5 15.5t-16.5 38.5v70h39v-64q0 -20 20 -20q22 0 22 20v45h39v-45q0 -20 20 -20q21 0 21 20v64h40v-70q0 -24 -16.5 -39t-42.5 -15q-27 0 -42 16zM-153 717l-178 -31l-10 51l179 32z" />
    <glyph glyph-name="uniFC63" unicode="&#x651;&#x670;" arabic-form="isolated" 
d="M-225 845h-51v133h51v-133zM-250 703q-17 -16 -42 -16q-26 0 -42.5 15.5t-16.5 38.5v70h40v-64q0 -20 20 -20q21 0 21 20v45h40v-45q0 -20 20 -20q21 0 21 20v64h39v-70q0 -24 -16.5 -39t-41.5 -15q-27 0 -42 16z" />
    <glyph glyph-name="uniFDF2" unicode="&#x627;&#xfedf;&#xfee0;&#x6c1;" horiz-adv-x="1313" arabic-form="isolated" 
d="M689 819h-41v110h41v-110zM669 679q-17 -17 -43 -17q-25 0 -41.5 15.5t-16.5 38.5v68h40v-61q0 -21 20 -21q21 0 21 21v43h40v-43q0 -21 20 -21q21 0 21 21v61h39v-68q0 -23 -16.5 -38.5t-41.5 -15.5q-29 0 -42 17zM1226 0h-84v666h84v-666zM671 63q-47 -63 -147 -63
q-111 0 -157 78q-53 -52 -128 -52q-80 0 -129 60q-45 55 -45 145q0 106 66 164q57 50 146 50h62v45h81v-289q0 -120 104 -120q53 0 81 37q24 32 24 90v366h83v-366q0 -66 31 -99q27 -28 74 -28q104 0 104 120v373h84v-379q0 -103 -59 -154q-48 -41 -129 -41q-101 0 -146 63z
M339 368h-59q-70 0 -104 -40q-29 -35 -29 -94q0 -66 29 -101q26 -31 67 -31q51 0 100 44q-4 21 -4 49v173z" />
    <glyph glyph-name="uniFEF5" unicode="&#xfedf;&#xfe82;" horiz-adv-x="595" arabic-form="isolated" 
d="M333 0h-306v81h148v435h84v-435h60q59 0 82 26t23 92v467h84v-492q0 -91 -54 -136q-45 -38 -121 -38zM317 639q-18 -58 -67 -58q-23 0 -50 17q-15 9 -26 9q-22 0 -36 -23l-26 23q22 49 62 49q17 0 40 -16q19 -13 36 -13q18 0 33 28z" />
    <glyph glyph-name="uniFEF6" unicode="&#xfee0;&#xfe82;" horiz-adv-x="626" arabic-form="final" 
d="M333 0h-306v81h148v435h84v-435h60q59 0 82 26t23 92v467h84v-467q0 -66 22 -91q23 -27 83 -27h23v-81h-37q-88 0 -133 53q-45 -53 -133 -53zM317 639q-18 -58 -67 -58q-23 0 -50 17q-15 9 -26 9q-22 0 -36 -23l-26 23q22 49 62 49q17 0 40 -16q19 -13 36 -13q18 0 33 28
z" />
    <glyph glyph-name="uniFEF7" unicode="&#xfedf;&#xfe84;" horiz-adv-x="595" arabic-form="isolated" 
d="M298 609h-163v38h35q-8 18 -8 32q0 28 19.5 46.5t49.5 18.5q31 0 52 -20l-14 -27q-17 11 -35 11q-33 0 -33 -30q0 -13 12 -31h85v-38zM333 0h-306v81h148v435h84v-435h60q59 0 82 26t23 92v467h84v-492q0 -91 -54 -136q-45 -38 -121 -38z" />
    <glyph glyph-name="uniFEF8" unicode="&#xfee0;&#xfe84;" horiz-adv-x="626" arabic-form="final" 
d="M298 609h-163v38h35q-8 18 -8 32q0 28 19.5 46.5t49.5 18.5q31 0 52 -20l-14 -27q-17 11 -35 11q-33 0 -33 -30q0 -13 12 -31h85v-38zM333 0h-306v81h148v435h84v-435h60q59 0 82 26t23 92v467h84v-467q0 -66 22 -91q23 -27 83 -27h23v-81h-37q-88 0 -133 53
q-45 -53 -133 -53z" />
    <glyph glyph-name="uniFEF9" unicode="&#xfedf;&#xfe88;" horiz-adv-x="595" arabic-form="isolated" 
d="M333 0h-306v81h148v435h84v-435h60q59 0 82 26t23 92v467h84v-492q0 -91 -54 -136q-45 -38 -121 -38zM296 -229h-162v38h34q-8 18 -8 32q0 28 19.5 46t49.5 18q31 0 53 -19l-15 -28q-15 12 -34 12q-34 0 -34 -30q0 -15 12 -31h85v-38z" />
    <glyph glyph-name="uniFEFA" unicode="&#xfee0;&#xfe88;" horiz-adv-x="626" arabic-form="final" 
d="M333 0h-306v81h148v435h84v-435h60q59 0 82 26t23 92v467h84v-467q0 -66 22 -91q23 -27 83 -27h23v-81h-37q-88 0 -133 53q-45 -53 -133 -53zM296 -229h-162v38h34q-8 18 -8 32q0 28 19.5 46t49.5 18q31 0 53 -19l-15 -28q-15 12 -34 12q-34 0 -34 -30q0 -15 12 -31h85
v-38z" />
    <glyph glyph-name="uniFEFB" unicode="&#xfedf;&#xfe8e;" horiz-adv-x="595" arabic-form="isolated" 
d="M333 0h-306v81h148v435h84v-435h60q59 0 82 26t23 92v467h84v-492q0 -91 -54 -136q-45 -38 -121 -38z" />
    <glyph glyph-name="uniFEFC" unicode="&#xfee0;&#xfe8e;" horiz-adv-x="626" arabic-form="final" 
d="M333 0h-306v81h148v435h84v-435h60q59 0 82 26t23 92v467h84v-467q0 -66 22 -91q23 -27 83 -27h23v-81h-37q-88 0 -133 53q-45 -53 -133 -53z" />
    <glyph glyph-name="uniFB50" unicode="&#x671;" horiz-adv-x="258" arabic-form="isolated" 
d="M46 745q45 124 135 124q43 0 66 -20t23 -57q0 -51 -56 -77q-43 -20 -108 -20q-18 0 -27 1q-8 -28 -11 -49l-46 7q4 20 11 48q-30 6 -56 15l9 41q28 -8 60 -13zM94 740h12q51 0 82 13q30 13 30 35q0 35 -39 35q-53 0 -85 -83zM171 0h-84v615h84v-615z" />
    <glyph glyph-name="uniFB51" unicode="&#x671;" horiz-adv-x="289" arabic-form="final" 
d="M46 745q45 124 135 124q43 0 66 -20t23 -57q0 -51 -56 -77q-43 -20 -108 -20q-18 0 -27 1q-8 -28 -11 -49l-46 7q4 20 11 48q-30 6 -56 15l9 41q28 -8 60 -13zM94 740h12q51 0 82 13q30 13 30 35q0 35 -39 35q-53 0 -85 -83zM171 615v-416q0 -65 22 -91q24 -27 83 -27h23
v-81h-37q-88 0 -134 49q-41 45 -41 125v441h84z" />
    <glyph glyph-name="uniFB52" unicode="&#x67b;" horiz-adv-x="877" arabic-form="isolated" 
d="M599 0h-288q-123 0 -185 74q-47 56 -47 138q0 65 35 117q34 50 92 73l39 -59q-41 -19 -64.5 -53t-23.5 -75q0 -59 44 -97q41 -37 104 -37h276q126 0 126 127v213h83v-226q0 -103 -58 -153q-49 -42 -133 -42zM484 -126q0 -20 -14.5 -34.5t-34.5 -14.5t-35 14.5t-15 34.5
t15 35t35 15t34.5 -15t14.5 -35zM484 -236q0 -20 -14.5 -34.5t-34.5 -14.5t-35 14.5t-15 34.5t15 34.5t35 14.5t34.5 -14.5t14.5 -34.5z" />
    <glyph glyph-name="uniFB53" unicode="&#x67b;" horiz-adv-x="904" arabic-form="final" 
d="M599 0h-288q-123 0 -185 74q-47 56 -47 138q0 65 35 117q34 50 92 73l39 -59q-41 -19 -64.5 -53t-23.5 -75q0 -59 44 -97q41 -37 104 -37h276q126 0 126 127v213h83v-213q0 -66 31 -99q27 -28 73 -28h20v-81h-28q-91 0 -138 63q-49 -63 -149 -63zM483 -126
q0 -20 -14.5 -34.5t-34.5 -14.5t-35 14.5t-15 34.5t15 35t35 15t34.5 -15t14.5 -35zM483 -236q0 -20 -14.5 -34.5t-34.5 -14.5t-35 14.5t-15 34.5t15 34.5t35 14.5t34.5 -14.5t14.5 -34.5z" />
    <glyph glyph-name="uniFB54" unicode="&#x67b;" horiz-adv-x="285" arabic-form="initial" 
d="M-10 0v81h20q53 0 80 37q24 33 24 90v213h84v-226q0 -102 -58 -154q-46 -41 -122 -41h-28zM103 -285q-20 0 -35 14.5t-15 34.5t15 34.5t35 14.5t34.5 -14.5t14.5 -34.5t-14.5 -34.5t-34.5 -14.5zM103 -175q-20 0 -35 14.5t-15 34.5t15 35t35 15t34.5 -15t14.5 -35
t-14.5 -34.5t-34.5 -14.5z" />
    <glyph glyph-name="uniFB55" unicode="&#x67b;" horiz-adv-x="312" arabic-form="medial" 
d="M-10 0v81h20q53 0 80 37q24 33 24 90v213h84v-213q0 -66 31 -99q27 -28 73 -28h20v-81h-28q-91 0 -138 63q-47 -63 -138 -63h-28zM148 -285q-20 0 -34.5 14.5t-14.5 34.5t14.5 34.5t34.5 14.5t35 -14.5t15 -34.5t-15 -34.5t-35 -14.5zM148 -175q-20 0 -34.5 14.5
t-14.5 34.5t14.5 35t34.5 15t35 -15t15 -35t-15 -34.5t-35 -14.5z" />
    <glyph glyph-name="uniFB56" unicode="&#x67e;" horiz-adv-x="877" arabic-form="isolated" 
d="M599 0h-288q-123 0 -185 74q-47 56 -47 138q0 65 35 117q34 50 92 73l39 -59q-41 -19 -64.5 -53t-23.5 -75q0 -59 44 -97q41 -37 104 -37h276q126 0 126 127v213h83v-226q0 -103 -58 -153q-49 -42 -133 -42zM426 -128q0 -20 -15.5 -35.5t-36.5 -15.5t-36.5 15.5
t-15.5 35.5q0 21 15.5 36.5t36.5 15.5t36.5 -15.5t15.5 -36.5zM547 -128q0 -20 -15.5 -35.5t-36.5 -15.5t-36.5 15.5t-15.5 35.5q0 21 15.5 36.5t36.5 15.5t36.5 -15.5t15.5 -36.5zM482 -233q0 -19 -14 -33t-33 -14t-33.5 14t-14.5 33t14 33t34 14q19 0 33 -14t14 -33z" />
    <glyph glyph-name="uniFB57" unicode="&#x67e;" horiz-adv-x="904" arabic-form="final" 
d="M599 0h-288q-123 0 -185 74q-47 56 -47 138q0 65 35 117q34 50 92 73l39 -59q-41 -19 -64.5 -53t-23.5 -75q0 -59 44 -97q41 -37 104 -37h276q126 0 126 127v213h83v-213q0 -66 31 -99q27 -28 73 -28h20v-81h-28q-91 0 -138 63q-49 -63 -149 -63zM425 -128
q0 -20 -15.5 -35.5t-36.5 -15.5t-36.5 15.5t-15.5 35.5q0 21 15.5 36.5t36.5 15.5t36.5 -15.5t15.5 -36.5zM546 -128q0 -20 -15.5 -35.5t-36.5 -15.5t-36.5 15.5t-15.5 35.5q0 21 15.5 36.5t36.5 15.5t36.5 -15.5t15.5 -36.5zM481 -233q0 -19 -14 -33t-33 -14t-33.5 14
t-14.5 33t14 33t34 14q19 0 33 -14t14 -33z" />
    <glyph glyph-name="uniFB58" unicode="&#x67e;" horiz-adv-x="285" arabic-form="initial" 
d="M-10 0v81h20q53 0 80 37q24 33 24 90v213h84v-226q0 -102 -58 -154q-46 -41 -122 -41h-28zM95 -280q-19 0 -33 14t-14 33t14 33t33 14q20 0 34 -14t14 -33t-14.5 -33t-33.5 -14zM35 -179q-21 0 -36.5 15.5t-15.5 35.5q0 21 15.5 36.5t36.5 15.5q20 0 35.5 -15.5
t15.5 -36.5q0 -20 -15.5 -35.5t-35.5 -15.5zM156 -179q-21 0 -36.5 15.5t-15.5 35.5q0 21 15.5 36.5t36.5 15.5t36.5 -15.5t15.5 -36.5q0 -20 -16 -35.5t-36 -15.5z" />
    <glyph glyph-name="uniFB59" unicode="&#x67e;" horiz-adv-x="312" arabic-form="medial" 
d="M18 0h-28v81h20q53 0 80 37q24 33 24 90v213h84v-213q0 -66 31 -99q27 -28 73 -28h20v-81h-28q-91 0 -138 63q-47 -63 -138 -63zM147 -128q0 -20 -15.5 -35.5t-36.5 -15.5q-20 0 -36 15.5t-16 35.5q0 21 15.5 36.5t36.5 15.5t36.5 -15.5t15.5 -36.5zM268 -128
q0 -20 -15.5 -35.5t-36.5 -15.5q-20 0 -35.5 15.5t-15.5 35.5q0 21 15.5 36.5t35.5 15.5q21 0 36.5 -15.5t15.5 -36.5zM203 -233q0 -19 -14 -33t-33 -14t-33 14t-14 33t14 33t33 14t33 -14t14 -33z" />
    <glyph glyph-name="uniFB5A" unicode="&#x680;" horiz-adv-x="877" arabic-form="isolated" 
d="M599 0h-288q-123 0 -185 74q-47 56 -47 138q0 65 35 117q34 50 92 73l39 -59q-41 -19 -64.5 -53t-23.5 -75q0 -59 44 -97q41 -37 104 -37h276q126 0 126 127v213h83v-226q0 -103 -58 -153q-49 -42 -133 -42zM427 -126q0 -20 -15 -34.5t-35 -14.5t-34.5 14.5t-14.5 34.5
t14.5 35t34.5 15t35 -15t15 -35zM542 -126q0 -20 -15 -34.5t-35 -14.5t-34.5 14.5t-14.5 34.5t14.5 35t34.5 15t35 -15t15 -35zM427 -238q0 -20 -15 -35t-35 -15t-34.5 15t-14.5 35t14.5 34.5t34.5 14.5t35 -14.5t15 -34.5zM542 -238q0 -20 -15 -35t-35 -15t-34.5 15
t-14.5 35t14.5 34.5t34.5 14.5t35 -14.5t15 -34.5z" />
    <glyph glyph-name="uniFB5B" unicode="&#x680;" horiz-adv-x="904" arabic-form="final" 
d="M599 0h-288q-123 0 -185 74q-47 56 -47 138q0 65 35 117q34 50 92 73l39 -59q-41 -19 -64.5 -53t-23.5 -75q0 -59 44 -97q41 -37 104 -37h276q126 0 126 127v213h83v-213q0 -66 31 -99q27 -28 73 -28h20v-81h-28q-91 0 -138 63q-49 -63 -149 -63zM426 -126
q0 -20 -15 -34.5t-35 -14.5t-34.5 14.5t-14.5 34.5t14.5 35t34.5 15t35 -15t15 -35zM541 -126q0 -20 -15 -34.5t-35 -14.5t-34.5 14.5t-14.5 34.5t14.5 35t34.5 15t35 -15t15 -35zM426 -238q0 -20 -15 -35t-35 -15t-34.5 15t-14.5 35t14.5 34.5t34.5 14.5t35 -14.5t15 -34.5
zM541 -238q0 -20 -15 -35t-35 -15t-34.5 15t-14.5 35t14.5 34.5t34.5 14.5t35 -14.5t15 -34.5z" />
    <glyph glyph-name="uniFB5C" unicode="&#x680;" horiz-adv-x="285" arabic-form="initial" 
d="M-10 0v81h20q53 0 80 37q24 33 24 90v213h84v-226q0 -102 -58 -154q-46 -41 -122 -41h-28zM35 -288q-20 0 -34.5 15t-14.5 35t14.5 34.5t34.5 14.5t35 -14.5t15 -34.5t-15 -35t-35 -15zM150 -288q-20 0 -34.5 15t-14.5 35t14.5 34.5t34.5 14.5t35 -14.5t15 -34.5t-15 -35
t-35 -15zM35 -175q-20 0 -34.5 14.5t-14.5 34.5t14.5 35t34.5 15t35 -15t15 -35t-15 -34.5t-35 -14.5zM150 -175q-20 0 -34.5 14.5t-14.5 34.5t14.5 35t34.5 15t35 -15t15 -35t-15 -34.5t-35 -14.5z" />
    <glyph glyph-name="uniFB5D" unicode="&#x680;" horiz-adv-x="312" arabic-form="medial" 
d="M-10 0v81h20q53 0 80 37q24 33 24 90v213h84v-213q0 -66 31 -99q27 -28 73 -28h20v-81h-28q-91 0 -138 63q-47 -63 -138 -63h-28zM76 -288q-20 0 -34.5 15t-14.5 35t14.5 34.5t34.5 14.5t35 -14.5t15 -34.5t-15 -35t-35 -15zM191 -288q-20 0 -34.5 15t-14.5 35t14.5 34.5
t34.5 14.5t35 -14.5t15 -34.5t-15 -35t-35 -15zM76 -175q-20 0 -34.5 14.5t-14.5 34.5t14.5 35t34.5 15t35 -15t15 -35t-15 -34.5t-35 -14.5zM191 -175q-20 0 -34.5 14.5t-14.5 34.5t14.5 35t34.5 15t35 -15t15 -35t-15 -34.5t-35 -14.5z" />
    <glyph glyph-name="uniFB5E" unicode="&#x67a;" horiz-adv-x="877" arabic-form="isolated" 
d="M500 594q0 -20 -14.5 -34.5t-34.5 -14.5q-21 0 -35.5 14.5t-14.5 34.5t14.5 34.5t35.5 14.5q20 0 34.5 -14.5t14.5 -34.5zM500 476q0 -20 -14.5 -35t-34.5 -15q-21 0 -35.5 14.5t-14.5 35.5q0 20 14.5 34.5t35.5 14.5q20 0 34.5 -14.5t14.5 -34.5zM599 0h-288
q-123 0 -185 74q-47 56 -47 138q0 65 35 117q34 50 92 73l39 -59q-41 -19 -64.5 -53t-23.5 -75q0 -59 44 -97q41 -37 104 -37h276q126 0 126 127v213h83v-226q0 -103 -58 -153q-49 -42 -133 -42z" />
    <glyph glyph-name="uniFB5F" unicode="&#x67a;" horiz-adv-x="904" arabic-form="final" 
d="M507 593q0 -20 -14.5 -34.5t-34.5 -14.5q-21 0 -35.5 14.5t-14.5 34.5q0 21 14.5 35.5t35.5 14.5q20 0 34.5 -15t14.5 -35zM507 475q0 -20 -14.5 -34.5t-34.5 -14.5q-21 0 -35.5 14.5t-14.5 34.5t14.5 34.5t35.5 14.5q20 0 34.5 -14.5t14.5 -34.5zM599 0h-288
q-123 0 -185 74q-47 56 -47 138q0 65 35 117q34 50 92 73l39 -59q-41 -19 -64.5 -53t-23.5 -75q0 -59 44 -97q41 -37 104 -37h276q126 0 126 127v213h83v-213q0 -66 31 -99q27 -28 73 -28h20v-81h-28q-91 0 -138 63q-49 -63 -149 -63z" />
    <glyph glyph-name="uniFB60" unicode="&#x67a;" horiz-adv-x="285" arabic-form="initial" 
d="M203 682q0 -20 -15 -35t-35 -15t-34.5 15t-14.5 35t14.5 34.5t34.5 14.5t35 -14.5t15 -34.5zM203 563q0 -20 -15 -34.5t-35 -14.5t-34.5 14.5t-14.5 34.5t14.5 35t34.5 15t35 -15t15 -35zM18 0h-28v81h20q53 0 80 37q24 33 24 90v213h84v-226q0 -102 -58 -154
q-46 -41 -122 -41z" />
    <glyph glyph-name="uniFB61" unicode="&#x67a;" horiz-adv-x="312" arabic-form="medial" 
d="M206 682q0 -20 -14.5 -35t-34.5 -15q-21 0 -35.5 14.5t-14.5 35.5q0 20 14.5 34.5t35.5 14.5q20 0 34.5 -14.5t14.5 -34.5zM206 563q0 -20 -14.5 -34.5t-34.5 -14.5q-21 0 -35.5 14.5t-14.5 34.5q0 21 14.5 35.5t35.5 14.5q20 0 34.5 -15t14.5 -35zM18 0h-28v81h20
q53 0 80 37q24 33 24 90v213h84v-213q0 -66 31 -99q27 -28 73 -28h20v-81h-28q-91 0 -138 63q-47 -63 -138 -63z" />
    <glyph glyph-name="uniFB62" unicode="&#x67f;" horiz-adv-x="877" arabic-form="isolated" 
d="M439 595q0 -20 -14.5 -35t-34.5 -15t-35 15t-15 35t15 34.5t35 14.5t34.5 -14.5t14.5 -34.5zM554 595q0 -21 -14.5 -35.5t-35.5 -14.5q-20 0 -34.5 15t-14.5 35t14.5 34.5t34.5 14.5q21 0 35.5 -14.5t14.5 -34.5zM439 477q0 -20 -14.5 -35t-34.5 -15t-35 15t-15 35
t15 34.5t35 14.5t34.5 -14.5t14.5 -34.5zM554 477q0 -21 -14.5 -35.5t-35.5 -14.5q-20 0 -34.5 15t-14.5 35t14.5 34.5t34.5 14.5q21 0 35.5 -14.5t14.5 -34.5zM599 0h-288q-123 0 -185 74q-47 56 -47 138q0 65 35 117q34 50 92 73l39 -59q-41 -19 -64.5 -53t-23.5 -75
q0 -59 44 -97q41 -37 104 -37h276q126 0 126 127v213h83v-226q0 -103 -58 -153q-49 -42 -133 -42z" />
    <glyph glyph-name="uniFB63" unicode="&#x67f;" horiz-adv-x="904" arabic-form="final" 
d="M450 582q0 -20 -15 -35t-35 -15t-35 15t-15 35t15 34.5t35 14.5t35 -14.5t15 -34.5zM565 582q0 -20 -15 -35t-35 -15t-35 15t-15 35t15 34.5t35 14.5t35 -14.5t15 -34.5zM450 464q0 -20 -15 -35t-35 -15t-35 15t-15 35t15 34.5t35 14.5t35 -14.5t15 -34.5zM565 464
q0 -20 -15 -35t-35 -15t-35 15t-15 35t15 34.5t35 14.5t35 -14.5t15 -34.5zM599 0h-288q-123 0 -185 74q-47 56 -47 138q0 65 35 117q34 50 92 73l39 -59q-41 -19 -64.5 -53t-23.5 -75q0 -59 44 -97q41 -37 104 -37h276q126 0 126 127v213h83v-213q0 -66 31 -99
q27 -28 73 -28h20v-81h-28q-91 0 -138 63q-49 -63 -149 -63z" />
    <glyph glyph-name="uniFB64" unicode="&#x67f;" horiz-adv-x="285" arabic-form="initial" 
d="M145 670q0 -20 -14.5 -34.5t-34.5 -14.5t-35 14.5t-15 34.5t15 34.5t35 14.5t34.5 -14.5t14.5 -34.5zM260 670q0 -20 -14.5 -34.5t-34.5 -14.5t-35 14.5t-15 34.5t15 34.5t35 14.5t34.5 -14.5t14.5 -34.5zM145 552q0 -20 -14.5 -34.5t-34.5 -14.5t-35 14.5t-15 34.5
t15 34.5t35 14.5t34.5 -14.5t14.5 -34.5zM260 552q0 -20 -14.5 -34.5t-34.5 -14.5t-35 14.5t-15 34.5t15 34.5t35 14.5t34.5 -14.5t14.5 -34.5zM18 0h-28v81h20q53 0 80 37q24 33 24 90v213h84v-226q0 -102 -58 -154q-46 -41 -122 -41z" />
    <glyph glyph-name="uniFB65" unicode="&#x67f;" horiz-adv-x="312" arabic-form="medial" 
d="M149 670q0 -20 -15 -34.5t-35 -14.5t-34.5 14.5t-14.5 34.5t14.5 34.5t34.5 14.5t35 -14.5t15 -34.5zM264 670q0 -20 -15 -34.5t-35 -14.5t-35 14.5t-15 34.5t15 34.5t35 14.5t35 -14.5t15 -34.5zM149 552q0 -20 -15 -34.5t-35 -14.5t-34.5 14.5t-14.5 34.5t14.5 34.5
t34.5 14.5t35 -14.5t15 -34.5zM264 552q0 -20 -15 -34.5t-35 -14.5t-35 14.5t-15 34.5t15 34.5t35 14.5t35 -14.5t15 -34.5zM18 0h-28v81h20q53 0 80 37q24 33 24 90v213h84v-213q0 -66 31 -99q27 -28 73 -28h20v-81h-28q-91 0 -138 63q-47 -63 -138 -63z" />
    <glyph glyph-name="uniFB66" unicode="&#x679;" horiz-adv-x="877" arabic-form="isolated" 
d="M514 442h-199v46h52v158h50v-101q42 64 102 64q39 0 61 -27q19 -23 19 -59q0 -81 -85 -81zM419 488h90q39 0 39 35q0 37 -39 37q-49 0 -90 -72zM599 0h-288q-123 0 -185 74q-47 56 -47 138q0 65 35 117q34 50 92 73l39 -59q-41 -19 -64.5 -53t-23.5 -75q0 -59 44 -97
q41 -37 104 -37h276q126 0 126 127v213h83v-226q0 -103 -58 -153q-49 -42 -133 -42z" />
    <glyph glyph-name="uniFB67" unicode="&#x679;" horiz-adv-x="904" arabic-form="final" 
d="M514 442h-199v46h52v158h50v-101q42 64 102 64q39 0 61 -27q19 -23 19 -59q0 -81 -85 -81zM419 488h90q39 0 39 35q0 37 -39 37q-49 0 -90 -72zM599 0h-288q-123 0 -185 74q-47 56 -47 138q0 65 35 117q34 50 92 73l39 -59q-41 -19 -64.5 -53t-23.5 -75q0 -59 44 -97
q41 -37 104 -37h276q126 0 126 127v213h83v-213q0 -66 31 -99q27 -28 73 -28h20v-81h-28q-91 0 -138 63q-49 -63 -149 -63z" />
    <glyph glyph-name="uniFB68" unicode="&#x679;" horiz-adv-x="285" arabic-form="initial" 
d="M210 530h-199v47h52v157h49v-101q43 64 103 64q36 0 58 -23t22 -62q0 -82 -85 -82zM114 577h91q39 0 39 35q0 36 -39 36q-49 0 -91 -71zM18 0h-28v81h20q53 0 80 37q24 33 24 90v213h84v-226q0 -102 -58 -154q-46 -41 -122 -41z" />
    <glyph glyph-name="uniFB69" unicode="&#x679;" horiz-adv-x="312" arabic-form="medial" 
d="M213 530h-199v47h53v157h49v-101q41 64 102 64q36 0 58 -23t22 -62q0 -82 -85 -82zM118 577h91q38 0 38 35q0 36 -39 36q-49 0 -90 -71zM18 0h-28v81h20q53 0 80 37q24 33 24 90v213h84v-213q0 -66 31 -99q27 -28 73 -28h20v-81h-28q-91 0 -138 63q-47 -63 -138 -63z" />
    <glyph glyph-name="uniFB6A" unicode="&#x6a4;" horiz-adv-x="929" arabic-form="isolated" 
d="M720 659q0 -19 -14.5 -33t-33.5 -14t-33 14t-14 33t14 33t33 14t33.5 -14t14.5 -33zM664 554q0 -21 -15.5 -36t-36.5 -15t-36.5 15t-15.5 36t15.5 36.5t36.5 15.5t36.5 -15.5t15.5 -36.5zM785 554q0 -21 -15.5 -36t-36.5 -15t-36.5 15t-15.5 36t15.5 36.5t36.5 15.5
t36.5 -15.5t15.5 -36.5zM683 0h-372q-123 0 -185 74q-47 56 -47 138q0 65 35 117q34 50 92 73l39 -59q-41 -19 -64.5 -53t-23.5 -75q0 -59 44 -97q41 -37 104 -37h231q-39 56 -39 141q0 104 55 163q49 51 129 51q84 0 130 -53q40 -46 40 -118v-89q0 -84 -50 -132
q-45 -44 -118 -44zM578 221q0 -73 38 -111q29 -29 68 -29q85 0 85 101v75q0 50 -25 76q-22 24 -63 24q-53 0 -80 -42q-23 -35 -23 -94z" />
    <glyph glyph-name="uniFB6B" unicode="&#x6a4;" horiz-adv-x="956" arabic-form="final" 
d="M734 659q0 -19 -14 -33t-33 -14t-33.5 14t-14.5 33t14 33t34 14q19 0 33 -14t14 -33zM678 554q0 -20 -15.5 -35.5t-36.5 -15.5t-36.5 15.5t-15.5 35.5q0 21 15.5 36.5t36.5 15.5t36.5 -15.5t15.5 -36.5zM799 554q0 -20 -15.5 -35.5t-36.5 -15.5t-36.5 15.5t-15.5 35.5
q0 21 15.5 36.5t36.5 15.5t36.5 -15.5t15.5 -36.5zM619 0h-308q-123 0 -185 74q-47 56 -47 138q0 65 35 117q34 50 92 73l39 -59q-41 -19 -64.5 -53t-23.5 -75q0 -59 44 -97q41 -37 104 -37h261q-69 69 -69 164q0 89 54 144q51 51 133 51q94 0 145 -64q42 -53 42 -131
q0 -46 -18.5 -89t-51.5 -75h165v-81h-218q-36 0 -64 7q-29 -7 -65 -7zM684 81q54 25 83 77q23 42 23 88q0 54 -30 86q-29 30 -76 30q-54 0 -83 -38q-23 -31 -23 -78q0 -52 31 -99q29 -44 75 -66z" />
    <glyph glyph-name="uniFB6C" unicode="&#x6a4;" horiz-adv-x="535" arabic-form="initial" 
d="M337 659q0 -19 -14.5 -33t-33.5 -14t-33 14t-14 33t14 33t33 14q20 0 34 -14t14 -33zM281 554q0 -20 -16 -35.5t-36 -15.5q-21 0 -36.5 15.5t-15.5 35.5q0 21 15.5 36.5t36.5 15.5t36.5 -15.5t15.5 -36.5zM402 554q0 -20 -15.5 -35.5t-36.5 -15.5t-36.5 15.5t-15.5 35.5
q0 21 15.5 36.5t36.5 15.5t36.5 -15.5t15.5 -36.5zM289 0h-299v81h152q-39 56 -39 141q0 104 55 163q49 51 129 51q84 0 130 -53q40 -46 40 -118v-89q0 -84 -50 -132q-44 -43 -118 -44zM184 221q0 -73 38 -111q29 -29 68 -29q85 0 85 101v75q0 50 -25 76q-22 24 -63 24
q-53 0 -80 -42q-23 -35 -23 -94z" />
    <glyph glyph-name="uniFB6D" unicode="&#x6a4;" horiz-adv-x="545" arabic-form="medial" 
d="M320 659q0 -19 -14.5 -33t-33.5 -14t-33 14t-14 33t14 33t33 14q20 0 34 -14t14 -33zM263 554q0 -20 -15.5 -35.5t-36.5 -15.5q-20 0 -35.5 15.5t-15.5 35.5q0 21 15.5 36.5t35.5 15.5q21 0 36.5 -15.5t15.5 -36.5zM384 554q0 -20 -15.5 -35.5t-35.5 -15.5
q-21 0 -36.5 15.5t-15.5 35.5q0 21 15.5 36.5t36.5 15.5q20 0 35.5 -15.5t15.5 -36.5zM208 0h-218v81h165q-70 68 -70 164q0 89 55 144q51 51 132 51q95 0 146 -64q41 -52 41 -131q0 -46 -18 -89t-51 -75h165v-81h-218q-36 0 -65 7q-28 -7 -64 -7zM272 81q54 25 83 77
q24 42 24 88q0 54 -31 86q-29 30 -76 30q-54 0 -82 -38q-23 -31 -23 -78q0 -52 31 -99q28 -44 74 -66z" />
    <glyph glyph-name="uniFB6E" unicode="&#x6a6;" horiz-adv-x="929" arabic-form="isolated" 
d="M665 670q0 -20 -15 -34.5t-35 -14.5t-35 14.5t-15 34.5t15 35t35 15t35 -15t15 -35zM780 670q0 -20 -15 -34.5t-35 -14.5t-35 14.5t-15 34.5t15 35t35 15t35 -15t15 -35zM665 552q0 -20 -15 -34.5t-35 -14.5t-35 14.5t-15 34.5t15 35t35 15t35 -15t15 -35zM780 552
q0 -20 -15 -34.5t-35 -14.5t-35 14.5t-15 34.5t15 35t35 15t35 -15t15 -35zM683 0h-372q-123 0 -185 74q-47 56 -47 138q0 65 35 117q34 50 92 73l39 -59q-41 -19 -64.5 -53t-23.5 -75q0 -59 44 -97q41 -37 104 -37h231q-39 56 -39 141q0 104 55 163q49 51 129 51
q84 0 130 -53q40 -46 40 -118v-89q0 -84 -50 -132q-45 -44 -118 -44zM578 221q0 -73 38 -111q29 -29 68 -29q85 0 85 101v75q0 50 -25 76q-22 24 -63 24q-53 0 -80 -42q-23 -35 -23 -94z" />
    <glyph glyph-name="uniFB6F" unicode="&#x6a6;" horiz-adv-x="956" arabic-form="final" 
d="M679 671q0 -20 -15 -35t-35 -15t-35 15t-15 35t15 34.5t35 14.5t35 -14.5t15 -34.5zM794 671q0 -20 -15 -35t-35 -15t-35 15t-15 35t15 34.5t35 14.5t35 -14.5t15 -34.5zM679 553q0 -20 -15 -35t-35 -15t-35 15t-15 35t15 34.5t35 14.5t35 -14.5t15 -34.5zM794 553
q0 -20 -15 -35t-35 -15t-35 15t-15 35t15 34.5t35 14.5t35 -14.5t15 -34.5zM619 0h-308q-123 0 -185 74q-47 56 -47 138q0 65 35 117q34 50 92 73l39 -59q-41 -19 -64.5 -53t-23.5 -75q0 -59 44 -97q41 -37 104 -37h261q-69 69 -69 164q0 89 54 144q51 51 133 51
q94 0 145 -64q42 -53 42 -131q0 -46 -18.5 -89t-51.5 -75h165v-81h-218q-36 0 -64 7q-29 -7 -65 -7zM684 81q54 25 83 77q23 42 23 88q0 54 -30 86q-29 30 -76 30q-54 0 -83 -38q-23 -31 -23 -78q0 -52 31 -99q29 -44 75 -66z" />
    <glyph glyph-name="uniFB70" unicode="&#x6a6;" horiz-adv-x="535" arabic-form="initial" 
d="M281 671q0 -20 -14.5 -35t-34.5 -15t-35 15t-15 35t15 34.5t35 14.5t34.5 -14.5t14.5 -34.5zM396 671q0 -20 -14.5 -35t-34.5 -15t-35 15t-15 35t15 34.5t35 14.5t34.5 -14.5t14.5 -34.5zM281 553q0 -20 -14.5 -35t-34.5 -15t-35 15t-15 35t15 34.5t35 14.5t34.5 -14.5
t14.5 -34.5zM396 553q0 -20 -14.5 -35t-34.5 -15t-35 15t-15 35t15 34.5t35 14.5t34.5 -14.5t14.5 -34.5zM289 0h-299v81h152q-39 56 -39 141q0 104 55 163q49 51 129 51q84 0 130 -53q40 -46 40 -118v-89q0 -84 -50 -132q-44 -43 -118 -44zM184 221q0 -73 38 -111
q29 -29 68 -29q85 0 85 101v75q0 50 -25 76q-22 24 -63 24q-53 0 -80 -42q-23 -35 -23 -94z" />
    <glyph glyph-name="uniFB71" unicode="&#x6a6;" horiz-adv-x="545" arabic-form="medial" 
d="M264 671q0 -20 -14.5 -35t-34.5 -15t-35 15t-15 35t15 34.5t35 14.5t34.5 -14.5t14.5 -34.5zM379 671q0 -21 -14.5 -35.5t-35.5 -14.5q-20 0 -34.5 15t-14.5 35t14.5 34.5t34.5 14.5q21 0 35.5 -14.5t14.5 -34.5zM264 553q0 -20 -14.5 -35t-34.5 -15t-35 15t-15 35
t15 34.5t35 14.5t34.5 -14.5t14.5 -34.5zM379 553q0 -21 -14.5 -35.5t-35.5 -14.5q-20 0 -34.5 15t-14.5 35t14.5 34.5t34.5 14.5q21 0 35.5 -14.5t14.5 -34.5zM208 0h-218v81h165q-70 68 -70 164q0 89 55 144q51 51 132 51q95 0 146 -64q41 -52 41 -131q0 -46 -18 -89
t-51 -75h165v-81h-218q-36 0 -65 7q-28 -7 -64 -7zM272 81q54 25 83 77q24 42 24 88q0 54 -31 86q-29 30 -76 30q-54 0 -82 -38q-23 -31 -23 -78q0 -52 31 -99q28 -44 74 -66z" />
    <glyph glyph-name="uniFB72" unicode="&#x684;" horiz-adv-x="587" arabic-form="isolated" 
d="M490 -317q-85 -51 -171 -51q-115 0 -187 76q-66 70 -66 181q0 152 118 240q103 76 281 93q-83 114 -176 114q-72 0 -142 -67l-48 54q83 93 193 93q86 0 160 -61q66 -55 105 -146v-56q-211 -7 -318 -86q-91 -68 -91 -179q0 -87 61 -136q49 -40 122 -40q66 0 127 37z
M305 -38q1 19 15 33t33 14t33 -14t14 -33q0 -20 -13.5 -33.5t-33.5 -13.5t-34 14t-14 33zM353 -96q20 -1 33.5 -14.5t13.5 -32.5q0 -20 -14 -34t-33 -14q-20 0 -34 14t-14 34q1 19 15 33t33 14z" />
    <glyph glyph-name="uniFB73" unicode="&#x684;" horiz-adv-x="678" arabic-form="final" 
d="M490 -317q-84 -51 -171 -51q-115 0 -187 76q-66 70 -66 182q0 151 118 239q103 76 281 93q-83 114 -176 114q-72 0 -142 -67l-48 54q83 93 193 93q86 0 160 -61q66 -55 105 -146v-42q-33 -3 -83 -11q22 -40 65 -57.5t121 -17.5h28v-81h-32q-112 0 -173 36q-55 32 -83 98
q-130 -29 -195 -99q-57 -61 -57 -146q0 -89 61 -139q49 -40 122 -40q67 0 128 37zM392 -44q0 -19 -14 -33t-34 -14q-19 0 -33 14t-14 33t14 33t33 14q20 0 34 -14t14 -33zM392 -149q0 -19 -14 -33t-34 -14q-19 0 -33 14t-14 33t14 33t33 14t33.5 -14t14.5 -33z" />
    <glyph glyph-name="uniFB74" unicode="&#x684;" horiz-adv-x="558" arabic-form="initial" 
d="M127 0h-137v81h130q119 0 190 35q55 27 116 94q-85 126 -183 126q-72 0 -142 -67l-48 54q83 93 193 93q86 0 160 -61q66 -55 105 -146v-21q-84 -109 -166 -148q-84 -40 -218 -40zM299 -126q0 -20 -14.5 -34.5t-34.5 -14.5q-21 0 -35.5 14.5t-14.5 34.5q0 21 14.5 35.5
t35.5 14.5q20 0 34.5 -15t14.5 -35zM299 -236q0 -20 -14.5 -34.5t-34.5 -14.5q-21 0 -35.5 14.5t-14.5 34.5t14.5 34.5t35.5 14.5q20 0 34.5 -14.5t14.5 -34.5z" />
    <glyph glyph-name="uniFB75" unicode="&#x684;" horiz-adv-x="671" arabic-form="medial" 
d="M127 0h-137v81h130q119 0 190 35q55 27 116 94q-85 126 -183 126q-72 0 -142 -67l-48 54q83 93 193 93q86 0 160 -61q66 -55 105 -146v-19q-24 -32 -36 -46q22 -33 64 -48t115 -15h27v-81h-32q-92 0 -149 24q-52 22 -83 65q-56 -47 -124.5 -68t-165.5 -21zM327 -126
q0 -20 -15 -34.5t-35 -14.5t-34.5 14.5t-14.5 34.5t14.5 35t34.5 15t35 -15t15 -35zM327 -236q0 -20 -15 -34.5t-35 -14.5t-34.5 14.5t-14.5 34.5t14.5 34.5t34.5 14.5t35 -14.5t15 -34.5z" />
    <glyph glyph-name="uniFB76" unicode="&#x683;" horiz-adv-x="587" arabic-form="isolated" 
d="M504 -313q-86 -55 -185 -55q-115 0 -187 76q-66 70 -66 182q0 151 118 239q103 76 281 93q-83 114 -176 114q-72 0 -142 -67l-48 54q83 93 193 93q86 0 160 -61q66 -55 105 -146v-56q-209 -8 -316 -86q-93 -68 -93 -178q0 -88 62 -137q50 -40 122 -40q73 0 140 40z
M356 -110q0 -19 -15 -34t-35 -15t-35 14.5t-15 34.5t15 35t35 15t35 -15t15 -35zM474 -110q0 -20 -15 -34.5t-35 -14.5t-35 14.5t-15 34.5t15 35t35 15t35 -15t15 -35z" />
    <glyph glyph-name="uniFB77" unicode="&#x683;" horiz-adv-x="678" arabic-form="final" 
d="M504 -313q-86 -55 -185 -55q-115 0 -187 76q-66 70 -66 182q0 151 118 239q103 76 281 93q-83 114 -176 114q-72 0 -142 -67l-48 54q83 93 193 93q86 0 160 -61q66 -55 105 -146v-42q-33 -3 -83 -11q22 -40 65 -57.5t121 -17.5h28v-81h-32q-112 0 -173 36q-55 32 -83 98
q-130 -30 -195 -99q-57 -61 -57 -146q0 -88 62 -137q49 -40 121 -40q74 0 141 40zM353 -110q0 -20 -14.5 -34.5t-34.5 -14.5t-35 15t-15 34q0 20 15 34.5t35 14.5t34.5 -14.5t14.5 -34.5zM470 -110q0 -20 -14.5 -34.5t-34.5 -14.5t-35 14.5t-15 34.5t15 34.5t35 14.5
t34.5 -14.5t14.5 -34.5z" />
    <glyph glyph-name="uniFB78" unicode="&#x683;" horiz-adv-x="558" arabic-form="initial" 
d="M127 0h-137v81h130q119 0 190 35q55 27 116 94q-85 126 -183 126q-72 0 -142 -67l-48 54q83 93 193 93q86 0 160 -61q66 -55 105 -146v-21q-84 -109 -166 -148q-84 -40 -218 -40zM240 -128q0 -20 -15.5 -35.5t-35.5 -15.5q-21 0 -36.5 15.5t-15.5 35.5q0 21 15.5 36.5
t36.5 15.5q20 0 35.5 -15.5t15.5 -36.5zM362 -128q0 -20 -15.5 -35.5t-36.5 -15.5t-36.5 15.5t-15.5 35.5q0 21 15.5 36.5t36.5 15.5t36.5 -15.5t15.5 -36.5z" />
    <glyph glyph-name="uniFB79" unicode="&#x683;" horiz-adv-x="671" arabic-form="medial" 
d="M127 0h-137v81h130q119 0 190 35q55 27 116 94q-85 126 -183 126q-72 0 -142 -67l-48 54q83 93 193 93q86 0 160 -61q66 -55 105 -146v-19q-24 -32 -36 -46q22 -33 64 -48t115 -15h27v-81h-32q-92 0 -149 24q-52 22 -83 65q-56 -47 -124.5 -68t-165.5 -21zM250 -128
q0 -20 -15.5 -35.5t-36.5 -15.5q-20 0 -35.5 15.5t-15.5 35.5q0 21 15.5 36.5t35.5 15.5q21 0 36.5 -15.5t15.5 -36.5zM371 -128q0 -21 -15.5 -36t-36.5 -15q-20 0 -35.5 15.5t-15.5 35.5q0 21 15.5 36.5t35.5 15.5q21 0 36.5 -15.5t15.5 -36.5z" />
    <glyph glyph-name="uniFB7A" unicode="&#x686;" horiz-adv-x="587" arabic-form="isolated" 
d="M458 -251l32 -66q-85 -51 -171 -51q-115 0 -187 76q-66 70 -66 181q0 152 118 240q103 76 281 93q-83 114 -176 114q-72 0 -142 -67l-48 54q83 93 193 93q86 0 160 -61q66 -55 105 -146v-56q-211 -7 -318 -86q-91 -68 -91 -179q0 -87 61 -136q49 -40 122 -40q66 0 127 37
zM363 -43q0 -18 -13.5 -31.5t-32.5 -13.5t-32.5 13.5t-13.5 31.5q0 19 13.5 32.5t32.5 13.5t32.5 -13.5t13.5 -32.5zM481 -43q0 -18 -13.5 -31.5t-31.5 -13.5q-19 0 -32.5 13.5t-13.5 31.5q0 19 13.5 32.5t32.5 13.5q18 0 31.5 -13.5t13.5 -32.5zM425 -139
q0 -19 -14.5 -33.5t-34.5 -14.5t-34.5 14.5t-14.5 33.5q0 20 14.5 34.5t34.5 14.5t34.5 -14.5t14.5 -34.5z" />
    <glyph glyph-name="uniFB7B" unicode="&#x686;" horiz-adv-x="678" arabic-form="final" 
d="M490 -317q-82 -51 -171 -51q-115 0 -187 76q-66 70 -66 182q0 151 118 239q103 76 281 93q-83 114 -176 114q-72 0 -142 -67l-48 54q83 93 193 93q86 0 160 -61q66 -55 105 -146v-42q-33 -3 -83 -11q22 -41 65 -58.5t121 -17.5h28v-80h-32q-112 0 -173 36q-55 32 -83 98
q-130 -29 -195 -99q-57 -61 -57 -146q0 -88 61 -137q50 -40 121 -40q67 0 128 37zM351 -52q0 -19 -13.5 -32t-32.5 -13t-32.5 13t-13.5 32q0 18 13.5 32t32.5 14t32.5 -14t13.5 -32zM469 -52q0 -18 -13.5 -31.5t-31.5 -13.5q-19 0 -32.5 13t-13.5 32q0 18 13.5 32t32.5 14
q18 0 31.5 -14t13.5 -32zM413 -148q0 -20 -14.5 -34t-34.5 -14t-34.5 14t-14.5 34t14.5 34.5t34.5 14.5t34.5 -14.5t14.5 -34.5z" />
    <glyph glyph-name="uniFB7C" unicode="&#x686;" horiz-adv-x="558" arabic-form="initial" 
d="M127 0h-137v81h130q119 0 190 35q55 27 116 94q-85 126 -183 126q-72 0 -142 -67l-48 54q83 93 193 93q86 0 160 -61q66 -55 105 -146v-21q-84 -109 -166 -148q-84 -40 -218 -40zM241 -128q0 -20 -15.5 -35.5t-36.5 -15.5t-36.5 15.5t-15.5 35.5q0 21 15.5 36.5
t36.5 15.5t36.5 -15.5t15.5 -36.5zM362 -128q0 -20 -15.5 -35.5t-36.5 -15.5t-36.5 15.5t-15.5 35.5q0 21 15.5 36.5t36.5 15.5t36.5 -15.5t15.5 -36.5zM297 -233q0 -19 -14 -33t-33 -14t-33.5 14t-14.5 33t14 33t34 14q19 0 33 -14t14 -33z" />
    <glyph glyph-name="uniFB7D" unicode="&#x686;" horiz-adv-x="671" arabic-form="medial" 
d="M127 0h-137v81h130q119 0 190 35q55 27 116 94q-85 126 -183 126q-72 0 -142 -67l-48 54q83 93 193 93q86 0 160 -61q66 -55 105 -146v-19q-24 -32 -36 -46q22 -33 64 -48t115 -15h27v-81h-32q-92 0 -149 24q-52 22 -83 65q-56 -47 -124.5 -68t-165.5 -21zM268 -128
q0 -20 -15.5 -35.5t-35.5 -15.5q-21 0 -36.5 15.5t-15.5 35.5q0 21 15.5 36.5t36.5 15.5q20 0 35.5 -15.5t15.5 -36.5zM390 -128q0 -20 -16 -35.5t-36 -15.5q-21 0 -36.5 15.5t-15.5 35.5q0 21 15.5 36.5t36.5 15.5t36.5 -15.5t15.5 -36.5zM325 -233q0 -19 -14.5 -33
t-33.5 -14t-33 14t-14 33t14 33t33 14q20 0 34 -14t14 -33z" />
    <glyph glyph-name="uniFB7E" unicode="&#x687;" horiz-adv-x="587" arabic-form="isolated" 
d="M490 -317q-85 -51 -171 -51q-115 0 -187 76q-66 70 -66 181q0 152 118 240q103 76 281 93q-83 114 -176 114q-72 0 -142 -67l-48 54q83 93 193 93q86 0 160 -61q66 -55 105 -146v-56q-211 -7 -318 -86q-91 -68 -91 -179q0 -87 61 -136q49 -40 122 -40q66 0 127 37z
M368 -31q0 -18 -12.5 -30.5t-31.5 -12.5q-18 0 -30.5 12.5t-12.5 30.5t12.5 31t30.5 13t31 -13t13 -31zM469 -31q0 -18 -12.5 -30.5t-31.5 -12.5q-18 0 -30.5 12.5t-12.5 30.5t12.5 31t30.5 13t31 -13t13 -31zM368 -129q0 -18 -12.5 -31t-30.5 -13t-31 13t-13 31t13 30.5
t31 12.5t30.5 -12.5t12.5 -30.5zM469 -129q0 -18 -12.5 -31t-30.5 -13t-31 13t-13 31t13 30.5t31 12.5t30.5 -12.5t12.5 -30.5z" />
    <glyph glyph-name="uniFB7F" unicode="&#x687;" horiz-adv-x="678" arabic-form="final" 
d="M490 -317q-84 -51 -171 -51q-115 0 -187 76q-66 70 -66 182q0 151 118 239q103 76 281 93q-83 114 -176 114q-72 0 -142 -67l-48 54q83 93 193 93q86 0 160 -61q66 -55 105 -146v-42q-33 -3 -83 -11q22 -40 65 -57.5t121 -17.5h28v-81h-32q-112 0 -173 36q-55 32 -83 98
q-130 -29 -195 -99q-57 -61 -57 -146q0 -89 61 -139q49 -40 122 -40q67 0 128 37zM346 -53q0 -18 -12.5 -30.5t-30.5 -12.5t-30.5 12.5t-12.5 30.5q0 17 13 29.5t30 12.5q18 0 30.5 -12.5t12.5 -29.5zM445 -53q0 -18 -12.5 -30.5t-30.5 -12.5t-30.5 12.5t-12.5 30.5
q0 17 13 29.5t30 12.5q18 0 30.5 -12.5t12.5 -29.5zM346 -150q0 -18 -12.5 -30.5t-30.5 -12.5t-30.5 12.5t-12.5 30.5q0 17 13 29.5t30 12.5q18 0 30.5 -12.5t12.5 -29.5zM445 -150q0 -18 -12.5 -30.5t-30.5 -12.5q-17 0 -29.5 12.5t-12.5 30.5q0 17 12.5 29.5t29.5 12.5
q18 0 30.5 -12.5t12.5 -29.5z" />
    <glyph glyph-name="uniFB80" unicode="&#x687;" horiz-adv-x="558" arabic-form="initial" 
d="M127 0h-137v81h130q119 0 190 35q55 27 116 94q-85 126 -183 126q-72 0 -142 -67l-48 54q83 93 193 93q86 0 160 -61q66 -55 105 -146v-21q-84 -109 -166 -148q-84 -40 -218 -40zM242 -126q0 -20 -15 -34.5t-35 -14.5t-35 14.5t-15 34.5t15 35t35 15t35 -15t15 -35z
M357 -126q0 -20 -15 -34.5t-35 -14.5t-35 14.5t-15 34.5t15 35t35 15t35 -15t15 -35zM242 -238q0 -20 -15 -35t-35 -15t-35 15t-15 35t15 34.5t35 14.5t35 -14.5t15 -34.5zM357 -238q0 -20 -15 -35t-35 -15t-35 15t-15 35t15 34.5t35 14.5t35 -14.5t15 -34.5z" />
    <glyph glyph-name="uniFB81" unicode="&#x687;" horiz-adv-x="671" arabic-form="medial" 
d="M127 0h-137v81h130q119 0 190 35q55 27 116 94q-85 126 -183 126q-72 0 -142 -67l-48 54q83 93 193 93q86 0 160 -61q66 -55 105 -146v-19q-24 -32 -36 -46q22 -33 64 -48t115 -15h27v-81h-32q-92 0 -149 24q-52 22 -83 65q-56 -47 -124.5 -68t-165.5 -21zM269 -126
q0 -20 -14.5 -34.5t-34.5 -14.5t-35 14.5t-15 34.5t15 35t35 15t34.5 -15t14.5 -35zM384 -126q0 -20 -14.5 -34.5t-34.5 -14.5t-35 14.5t-15 34.5t15 35t35 15t34.5 -15t14.5 -35zM269 -238q0 -20 -14.5 -35t-34.5 -15t-35 15t-15 35t15 34.5t35 14.5t34.5 -14.5t14.5 -34.5
zM384 -238q0 -20 -14.5 -35t-34.5 -15t-35 15t-15 35t15 34.5t35 14.5t34.5 -14.5t14.5 -34.5z" />
    <glyph glyph-name="uniFB82" unicode="&#x68d;" horiz-adv-x="460" arabic-form="isolated" 
d="M222 0h-202v81h181q101 0 101 87q0 51 -32.5 103.5t-90.5 95.5l49 66q80 -58 121 -132q36 -65 36 -133q0 -168 -163 -168zM211 -128q0 -20 -16 -35.5t-36 -15.5q-21 0 -36.5 15.5t-15.5 35.5q0 21 15.5 36.5t36.5 15.5t36.5 -15.5t15.5 -36.5zM332 -128q0 -21 -15.5 -36
t-36.5 -15t-36.5 15.5t-15.5 35.5q0 21 15.5 36.5t36.5 15.5t36.5 -15.5t15.5 -36.5z" />
    <glyph glyph-name="uniFB83" unicode="&#x68d;" horiz-adv-x="497" arabic-form="final" 
d="M222 0h-202v81h181q101 0 101 87q0 51 -32.5 103.5t-90.5 95.5l49 66q78 -57 119 -128q37 -63 38 -129q1 -48 34 -74q27 -21 68 -21h20v-81h-28q-82 0 -127 51q-43 -51 -130 -51zM233 -128q0 -20 -15.5 -35.5t-36.5 -15.5q-20 0 -35.5 15.5t-15.5 35.5q0 21 15.5 36.5
t35.5 15.5q21 0 36.5 -15.5t15.5 -36.5zM354 -128q0 -21 -15.5 -36t-36.5 -15q-20 0 -35.5 15.5t-15.5 35.5q0 21 15.5 36.5t35.5 15.5q21 0 36.5 -15.5t15.5 -36.5z" />
    <glyph glyph-name="uniFB84" unicode="&#x68c;" horiz-adv-x="460" arabic-form="isolated" 
d="M193 553q0 -21 -15.5 -36t-36.5 -15t-36.5 15.5t-15.5 35.5t15.5 35.5t36.5 15.5t36.5 -15t15.5 -36zM314 553q0 -21 -15.5 -36t-36.5 -15t-36 15t-15 36t15 36t36 15t36.5 -15t15.5 -36zM222 0h-202v81h181q101 0 101 87q0 51 -32.5 103.5t-90.5 95.5l49 66
q80 -58 121 -132q36 -65 36 -133q0 -168 -163 -168z" />
    <glyph glyph-name="uniFB85" unicode="&#x68c;" horiz-adv-x="497" arabic-form="final" 
d="M189 553q0 -21 -15.5 -36t-36.5 -15t-36.5 15t-15.5 36t15.5 36t36.5 15t36.5 -15t15.5 -36zM310 553q0 -21 -15.5 -36t-36.5 -15t-36.5 15t-15.5 36t15.5 36t36.5 15t36.5 -15t15.5 -36zM222 0h-202v81h181q101 0 101 87q0 51 -32.5 103.5t-90.5 95.5l49 66
q78 -57 119 -128q37 -63 38 -129q1 -48 34 -74q27 -21 68 -21h20v-81h-28q-82 0 -127 51q-43 -51 -130 -51z" />
    <glyph glyph-name="uniFB86" unicode="&#x68e;" horiz-adv-x="460" arabic-form="isolated" 
d="M249 658q0 -19 -14 -33t-33 -14t-33 14t-14 33t14 33t33 14t33 -14t14 -33zM193 553q0 -21 -15.5 -36t-36.5 -15t-36.5 15.5t-15.5 35.5t15.5 35.5t36.5 15.5t36.5 -15t15.5 -36zM314 553q0 -21 -15.5 -36t-36.5 -15t-36 15t-15 36t15 36t36 15t36.5 -15t15.5 -36zM222 0
h-202v81h181q101 0 101 87q0 51 -32.5 103.5t-90.5 95.5l49 66q80 -58 121 -132q36 -65 36 -133q0 -168 -163 -168z" />
    <glyph glyph-name="uniFB87" unicode="&#x68e;" horiz-adv-x="497" arabic-form="final" 
d="M245 658q0 -19 -14 -33t-33 -14q-20 0 -34 14t-14 33t14.5 33t33.5 14t33 -14t14 -33zM189 553q0 -21 -15.5 -36t-36.5 -15t-36.5 15t-15.5 36t15.5 36t36.5 15t36.5 -15t15.5 -36zM310 553q0 -21 -15.5 -36t-36.5 -15t-36.5 15t-15.5 36t15.5 36t36.5 15t36.5 -15
t15.5 -36zM222 0h-202v81h181q101 0 101 87q0 51 -32.5 103.5t-90.5 95.5l49 66q78 -57 119 -128q37 -63 38 -129q1 -48 34 -74q27 -21 68 -21h20v-81h-28q-82 0 -127 51q-43 -51 -130 -51z" />
    <glyph glyph-name="uniFB88" unicode="&#x688;" horiz-adv-x="460" arabic-form="isolated" 
d="M258 530h-199v46h53v157h49v-101q43 64 102 64q39 0 62 -26q19 -23 19 -59q0 -81 -86 -81zM163 576h91q39 0 39 35q0 36 -39 36q-49 0 -91 -71zM222 0h-202v81h181q101 0 101 87q0 51 -32.5 103.5t-90.5 95.5l49 66q80 -58 121 -132q36 -65 36 -133q0 -168 -163 -168z
" />
    <glyph glyph-name="uniFB89" unicode="&#x688;" horiz-adv-x="497" arabic-form="final" 
d="M254 530h-199v46h52v157h50v-101q41 64 102 64q36 0 58 -23t22 -62q0 -81 -85 -81zM159 576h90q39 0 39 35q0 36 -39 36q-49 0 -90 -71zM222 0h-202v81h181q101 0 101 87q0 51 -32.5 103.5t-90.5 95.5l49 66q78 -57 119 -128q37 -63 38 -129q1 -48 34 -74q27 -21 68 -21
h20v-81h-28q-82 0 -127 51q-43 -51 -130 -51z" />
    <glyph glyph-name="uniFB8A" unicode="&#x698;" horiz-adv-x="346" arabic-form="isolated" 
d="M265 659q0 -19 -14.5 -33t-33.5 -14t-33 14t-14 33t14 33t33 14q20 0 34 -14t14 -33zM208 554q0 -20 -15.5 -35.5t-36.5 -15.5q-20 0 -35.5 15.5t-15.5 35.5q0 21 15.5 36.5t35.5 15.5q21 0 36.5 -15.5t15.5 -36.5zM329 554q0 -20 -15.5 -35.5t-35.5 -15.5
q-21 0 -36.5 15.5t-15.5 35.5q0 21 15.5 36.5t36.5 15.5q20 0 35.5 -15.5t15.5 -36.5zM259 421v-401q0 -110 -58 -165q-48 -45 -125 -45q-62 0 -127 32l23 69q50 -24 91 -24q55 0 85 37q27 35 27 97v400h84z" />
    <glyph glyph-name="uniFB8B" unicode="&#x698;" horiz-adv-x="373" arabic-form="final" 
d="M260 659q0 -19 -14 -33t-33 -14t-33.5 14t-14.5 33t14 33t34 14q19 0 33 -14t14 -33zM204 554q0 -20 -15.5 -35.5t-36.5 -15.5t-36.5 15.5t-15.5 35.5q0 21 15.5 36.5t36.5 15.5t36.5 -15.5t15.5 -36.5zM325 554q0 -20 -15.5 -35.5t-36.5 -15.5t-36.5 15.5t-15.5 35.5
q0 21 15.5 36.5t36.5 15.5t36.5 -15.5t15.5 -36.5zM257 27v-13q-2 -106 -57 -159q-47 -45 -124 -45q-62 0 -127 32l23 69q50 -24 91 -24q55 0 85 37q27 35 27 97v400h84v-213q0 -66 31 -99q27 -28 73 -28h20v-81h-28q-56 0 -98 27z" />
    <glyph glyph-name="uniFB8C" unicode="&#x691;" horiz-adv-x="346" arabic-form="isolated" 
d="M274 531h-199v46h52v157h49v-100q43 63 103 63q36 0 58 -23t22 -62q0 -81 -85 -81zM178 577h91q39 0 39 35q0 37 -39 37q-48 0 -91 -72zM259 421v-401q0 -110 -58 -165q-48 -45 -125 -45q-62 0 -127 32l23 69q50 -24 91 -24q55 0 85 37q27 35 27 97v400h84z" />
    <glyph glyph-name="uniFB8D" unicode="&#x691;" horiz-adv-x="373" arabic-form="final" 
d="M269 531h-199v46h53v157h49v-100q41 63 102 63q36 0 58 -23t22 -62q0 -81 -85 -81zM174 577h91q38 0 38 35q0 37 -39 37q-49 0 -90 -72zM257 27v-13q-2 -106 -57 -159q-47 -45 -124 -45q-62 0 -127 32l23 69q50 -24 91 -24q55 0 85 37q27 35 27 97v400h84v-213
q0 -66 31 -99q27 -28 73 -28h20v-81h-28q-56 0 -98 27z" />
    <glyph glyph-name="uniFB8E" unicode="&#x6a9;" horiz-adv-x="927" arabic-form="isolated" 
d="M561 384h124q105 0 152 -54q41 -47 41 -137v-1q0 -101 -58 -150q-49 -42 -136 -42h-382q-119 0 -177 62q-46 51 -46 134q0 70 35 124q33 50 91 75l40 -61q-85 -41 -85 -134q0 -59 42 -91q38 -28 101 -28h369q123 0 123 118v2q0 55 -28 79q-27 23 -83 23h-219v80l222 229
l47 -47z" />
    <glyph glyph-name="uniFB8F" unicode="&#x6a9;" horiz-adv-x="991" arabic-form="final" 
d="M683 0h-381q-119 0 -177 62q-46 51 -46 134q0 70 35 124q33 50 91 75l40 -61q-85 -41 -85 -134q0 -59 42 -91q38 -28 101 -28h369q123 0 123 118v2q0 55 -28 79q-27 23 -83 23h-219v80l222 229l47 -47l-173 -181h124q193 0 193 -188v-3q0 -55 33 -86q27 -26 71 -26h19
v-81h-27q-91 0 -139 62q-51 -62 -152 -62z" />
    <glyph glyph-name="uniFB90" unicode="&#x6a9;" horiz-adv-x="552" arabic-form="initial" 
d="M309 0h-319v81h307q122 0 122 118v2q0 55 -27 79q-27 23 -83 23h-260v80l222 229l47 -47l-173 -181h165q105 0 152 -54q41 -47 41 -137v-1q0 -101 -59 -150q-49 -42 -135 -42z" />
    <glyph glyph-name="uniFB91" unicode="&#x6a9;" horiz-adv-x="617" arabic-form="medial" 
d="M309 0h-319v81h307q122 0 122 117v2q0 56 -27 80q-27 23 -83 23h-260v80l222 229l47 -47l-173 -181h166q192 0 192 -179v-3q0 -62 32 -94q27 -27 72 -27h20v-81h-28q-90 0 -138 62q-51 -62 -152 -62z" />
    <glyph glyph-name="uniFB92" unicode="&#x6af;" horiz-adv-x="927" arabic-form="isolated" 
d="M452 431l-36 38l191 203l36 -37zM561 384h124q105 0 152 -54q41 -47 41 -137v-1q0 -101 -58 -150q-49 -42 -136 -42h-382q-119 0 -177 62q-46 51 -46 134q0 70 35 124q33 50 91 75l40 -61q-85 -41 -85 -134q0 -59 42 -91q38 -28 101 -28h369q123 0 123 118v2q0 55 -28 79
q-27 23 -83 23h-219v80l222 229l47 -47z" />
    <glyph glyph-name="uniFB93" unicode="&#x6af;" horiz-adv-x="991" arabic-form="final" 
d="M452 431l-36 38l191 203l36 -37zM683 0h-381q-119 0 -177 62q-46 51 -46 134q0 70 35 124q33 50 91 75l40 -61q-85 -41 -85 -134q0 -59 42 -91q38 -28 101 -28h369q123 0 123 118v2q0 55 -28 79q-27 23 -83 23h-219v80l222 229l47 -47l-173 -181h124q193 0 193 -188v-3
q0 -55 33 -86q27 -26 71 -26h19v-81h-27q-91 0 -139 62q-51 -62 -152 -62z" />
    <glyph glyph-name="uniFB94" unicode="&#x6af;" horiz-adv-x="552" arabic-form="initial" 
d="M37 432l-36 38l191 204l36 -38zM309 0h-319v81h307q122 0 122 118v2q0 55 -27 79q-27 23 -83 23h-260v80l222 229l47 -47l-173 -181h165q105 0 152 -54q41 -47 41 -137v-1q0 -101 -59 -150q-49 -42 -135 -42z" />
    <glyph glyph-name="uniFB95" unicode="&#x6af;" horiz-adv-x="617" arabic-form="medial" 
d="M37 432l-36 38l191 204l36 -38zM309 0h-319v81h307q122 0 122 117v2q0 56 -27 80q-27 23 -83 23h-260v80l222 229l47 -47l-173 -181h166q192 0 192 -179v-3q0 -62 32 -94q27 -27 72 -27h20v-81h-28q-90 0 -138 62q-51 -62 -152 -62z" />
    <glyph glyph-name="uniFB96" unicode="&#x6b3;" horiz-adv-x="927" arabic-form="isolated" 
d="M452 431l-36 38l191 203l36 -37zM561 384h124q105 0 152 -54q41 -47 41 -137v-1q0 -101 -58 -150q-49 -42 -136 -42h-382q-119 0 -177 62q-46 51 -46 134q0 70 35 124q33 50 91 75l40 -61q-85 -41 -85 -134q0 -59 42 -91q38 -28 101 -28h369q123 0 123 118v2q0 55 -28 79
q-27 23 -83 23h-219v80l222 229l47 -47zM533 -126q0 -20 -14.5 -34.5t-35.5 -14.5q-20 0 -34.5 14.5t-14.5 34.5t14.5 35t34.5 15q21 0 35.5 -14.5t14.5 -35.5zM533 -236q0 -20 -14.5 -34.5t-35.5 -14.5q-20 0 -34.5 14.5t-14.5 34.5t14.5 34.5t34.5 14.5q21 0 35.5 -14.5
t14.5 -34.5z" />
    <glyph glyph-name="uniFB97" unicode="&#x6b3;" horiz-adv-x="991" arabic-form="final" 
d="M452 431l-36 38l191 203l36 -37zM683 0h-381q-119 0 -177 62q-46 51 -46 134q0 70 35 124q33 50 91 75l40 -61q-85 -41 -85 -134q0 -59 42 -91q38 -28 101 -28h369q123 0 123 118v2q0 55 -28 79q-27 23 -83 23h-219v80l222 229l47 -47l-173 -181h124q193 0 193 -188v-3
q0 -55 33 -86q27 -26 71 -26h19v-81h-27q-91 0 -139 62q-51 -62 -152 -62zM533 -126q0 -20 -14.5 -34.5t-35.5 -14.5q-20 0 -34.5 14.5t-14.5 34.5t14.5 35t34.5 15q21 0 35.5 -14.5t14.5 -35.5zM533 -236q0 -20 -14.5 -34.5t-35.5 -14.5q-20 0 -34.5 14.5t-14.5 34.5
t14.5 34.5t34.5 14.5q21 0 35.5 -14.5t14.5 -34.5z" />
    <glyph glyph-name="uniFB98" unicode="&#x6b3;" horiz-adv-x="552" arabic-form="initial" 
d="M37 432l-36 38l191 204l36 -38zM309 0h-319v81h307q122 0 122 118v2q0 55 -27 79q-27 23 -83 23h-260v80l222 229l47 -47l-173 -181h165q105 0 152 -54q41 -47 41 -137v-1q0 -101 -59 -150q-49 -42 -135 -42zM239 -126q0 -20 -15 -34.5t-35 -14.5t-34.5 14.5t-14.5 34.5
t14.5 35t34.5 15t35 -15t15 -35zM239 -236q0 -20 -15 -34.5t-35 -14.5t-34.5 14.5t-14.5 34.5t14.5 34.5t34.5 14.5t35 -14.5t15 -34.5z" />
    <glyph glyph-name="uniFB99" unicode="&#x6b3;" horiz-adv-x="617" arabic-form="medial" 
d="M37 432l-36 38l191 204l36 -38zM309 0h-319v81h307q122 0 122 117v2q0 56 -27 80q-27 23 -83 23h-260v80l222 229l47 -47l-173 -181h166q192 0 192 -179v-3q0 -62 32 -94q27 -27 72 -27h20v-81h-28q-90 0 -138 62q-51 -62 -152 -62zM257 -126q0 -20 -14.5 -34.5
t-35.5 -14.5q-20 0 -34.5 14.5t-14.5 34.5t14.5 35t34.5 15q21 0 35.5 -14.5t14.5 -35.5zM257 -236q0 -20 -14.5 -34.5t-35.5 -14.5q-20 0 -34.5 14.5t-14.5 34.5t14.5 34.5t34.5 14.5q21 0 35.5 -14.5t14.5 -34.5z" />
    <glyph glyph-name="uniFB9A" unicode="&#x6b1;" horiz-adv-x="927" arabic-form="isolated" 
d="M404 681q0 -21 -15.5 -36.5t-36.5 -15.5t-36.5 15.5t-15.5 36.5t15.5 36t36.5 15t36.5 -15t15.5 -36zM525 681q0 -21 -15.5 -36.5t-36.5 -15.5t-36.5 15.5t-15.5 36.5t15.5 36t36.5 15t36.5 -15t15.5 -36zM452 431l-36 38l191 203l36 -37zM561 384h124q105 0 152 -54
q41 -47 41 -137v-1q0 -101 -58 -150q-49 -42 -136 -42h-382q-119 0 -177 62q-46 51 -46 134q0 70 35 124q33 50 91 75l40 -61q-85 -41 -85 -134q0 -59 42 -91q38 -28 101 -28h369q123 0 123 118v2q0 55 -28 79q-27 23 -83 23h-219v80l222 229l47 -47z" />
    <glyph glyph-name="uniFB9B" unicode="&#x6b1;" horiz-adv-x="991" arabic-form="final" 
d="M404 681q0 -21 -15.5 -36.5t-36.5 -15.5t-36.5 15.5t-15.5 36.5t15.5 36t36.5 15t36.5 -15t15.5 -36zM525 681q0 -21 -15.5 -36.5t-36.5 -15.5t-36.5 15.5t-15.5 36.5t15.5 36t36.5 15t36.5 -15t15.5 -36zM452 431l-36 38l191 203l36 -37zM683 0h-381q-119 0 -177 62
q-46 51 -46 134q0 70 35 124q33 50 91 75l40 -61q-85 -41 -85 -134q0 -59 42 -91q38 -28 101 -28h369q123 0 123 118v2q0 55 -28 79q-27 23 -83 23h-219v80l222 229l47 -47l-173 -181h124q193 0 193 -188v-3q0 -55 33 -86q27 -26 71 -26h19v-81h-27q-91 0 -139 62
q-51 -62 -152 -62z" />
    <glyph glyph-name="uniFB9C" unicode="&#x6b1;" horiz-adv-x="552" arabic-form="initial" 
d="M-10 692q0 -20 -16 -35.5t-36 -15.5q-21 0 -36.5 15.5t-15.5 35.5q0 21 15.5 36.5t36.5 15.5t36.5 -15.5t15.5 -36.5zM111 692q0 -20 -15.5 -35.5t-36.5 -15.5t-36.5 15.5t-15.5 35.5q0 21 15.5 36.5t36.5 15.5t36.5 -15.5t15.5 -36.5zM37 432l-36 38l191 204l36 -38z
M309 0h-319v81h307q122 0 122 118v2q0 55 -27 79q-27 23 -83 23h-260v80l222 229l47 -47l-173 -181h165q105 0 152 -54q41 -47 41 -137v-1q0 -101 -59 -150q-49 -42 -135 -42z" />
    <glyph glyph-name="uniFB9D" unicode="&#x6b1;" horiz-adv-x="617" arabic-form="medial" 
d="M-10 692q0 -20 -16 -35.5t-36 -15.5q-21 0 -36.5 15.5t-15.5 35.5q0 21 15.5 36.5t36.5 15.5t36.5 -15.5t15.5 -36.5zM111 692q0 -20 -15.5 -35.5t-36.5 -15.5t-36.5 15.5t-15.5 35.5q0 21 15.5 36.5t36.5 15.5t36.5 -15.5t15.5 -36.5zM37 432l-36 38l191 204l36 -38z
M309 0h-319v81h307q122 0 122 117v2q0 56 -27 80q-27 23 -83 23h-260v80l222 229l47 -47l-173 -181h166q192 0 192 -179v-3q0 -62 32 -94q27 -27 72 -27h20v-81h-28q-90 0 -138 62q-51 -62 -152 -62z" />
    <glyph glyph-name="uniFB9E" unicode="&#x6ba;" horiz-adv-x="674" arabic-form="isolated" 
d="M587 421v-354q0 -132 -84 -201q-69 -57 -175 -57q-126 0 -196 74q-63 67 -63 178q0 89 46 160l68 -29q-33 -64 -33 -127q0 -81 51 -129q48 -46 127 -46q77 0 127 50q48 48 48 128v353h84z" />
    <glyph glyph-name="uniFB9F" unicode="&#x6ba;" horiz-adv-x="701" arabic-form="final" 
d="M581 22q-14 -110 -93 -167q-65 -46 -160 -46q-126 0 -196 74q-63 67 -63 178q0 89 46 160l68 -29q-33 -64 -33 -127q0 -81 51 -129q48 -46 127 -46q77 0 127 50q48 48 48 128v353h84v-213q0 -66 31 -99q27 -28 73 -28h20v-81h-28q-59 0 -101 29q0 -5 -1 -7z" />
    <glyph glyph-name="uniFBA0" unicode="&#x6bb;" horiz-adv-x="674" arabic-form="isolated" 
d="M352 420h-198v46h52v158h49v-101q44 64 103 64q39 0 61 -27q19 -23 19 -59q0 -81 -86 -81zM257 466h91q39 0 39 35q0 37 -39 37q-49 0 -91 -72zM587 421v-354q0 -132 -84 -201q-69 -57 -175 -57q-126 0 -196 74q-63 67 -63 178q0 89 46 160l68 -29q-33 -64 -33 -127
q0 -81 51 -129q48 -46 127 -46q77 0 127 50q48 48 48 128v353h84z" />
    <glyph glyph-name="uniFBA1" unicode="&#x6bb;" horiz-adv-x="701" arabic-form="final" 
d="M352 420h-198v46h52v158h49v-101q44 64 103 64q39 0 61 -27q19 -23 19 -59q0 -81 -86 -81zM257 466h91q39 0 39 35q0 37 -39 37q-49 0 -91 -72zM581 22q-14 -110 -93 -167q-65 -46 -160 -46q-126 0 -196 74q-63 67 -63 178q0 89 46 160l68 -29q-33 -64 -33 -127
q0 -81 51 -129q48 -46 127 -46q77 0 127 50q48 48 48 128v353h84v-213q0 -66 31 -99q27 -28 73 -28h20v-81h-28q-59 0 -101 29q0 -5 -1 -7z" />
    <glyph glyph-name="uniFBA2" unicode="&#x6bb;" horiz-adv-x="285" arabic-form="initial" 
d="M210 530h-199v47h52v157h49v-101q43 64 103 64q36 0 58 -23t22 -62q0 -82 -85 -82zM114 577h91q39 0 39 35q0 36 -39 36q-49 0 -91 -71zM18 0h-28v81h20q53 0 80 37q24 33 24 90v213h84v-226q0 -102 -58 -154q-46 -41 -122 -41z" />
    <glyph glyph-name="uniFBA3" unicode="&#x6bb;" horiz-adv-x="312" arabic-form="medial" 
d="M213 530h-199v47h53v157h49v-101q41 64 102 64q36 0 58 -23t22 -62q0 -82 -85 -82zM118 577h91q38 0 38 35q0 36 -39 36q-49 0 -90 -71zM18 0h-28v81h20q53 0 80 37q24 33 24 90v213h84v-213q0 -66 31 -99q27 -28 73 -28h20v-81h-28q-91 0 -138 63q-47 -63 -138 -63z" />
    <glyph glyph-name="uniFBA4" unicode="&#x6c0;" horiz-adv-x="505" arabic-form="isolated" 
d="M332 521h-171v43h36q-9 17 -9 33q0 29 20.5 48t52.5 19q33 0 55 -21l-16 -31q-16 12 -35 12q-32 0 -32 -29q0 -14 12 -31h87v-43zM265 -11h-25q-84 0 -131 68q-41 60 -41 157q0 110 56 169q49 52 128 52q92 0 141 -67q44 -58 44 -154q0 -111 -53 -172q-45 -53 -119 -53z
M148 213q0 -73 29 -111q24 -32 66 -32h18q48 0 73 42q22 37 22 101q0 73 -31 110q-26 32 -73 32q-54 0 -81 -42q-23 -36 -23 -100z" />
    <glyph glyph-name="uniFBA5" unicode="&#x6c0;" horiz-adv-x="534" arabic-form="final" 
d="M323 563h-172v43h37q-10 16 -10 33q0 29 20.5 48t52.5 19q33 0 55 -21l-15 -31q-18 12 -36 12q-32 0 -32 -29q0 -15 13 -31h87v-43zM544 0h-28q-102 0 -149 78q-53 -53 -128 -53q-80 0 -129 60q-45 56 -45 146q0 106 66 164q57 50 146 50h62v45h81v-282q0 -66 31 -99
q27 -28 73 -28h20v-81zM339 367h-59q-69 0 -104 -40q-29 -34 -29 -93q0 -64 29 -99q25 -31 67 -31q51 0 100 44q-4 20 -4 47v172z" />
    <glyph glyph-name="uniFBA6" unicode="&#x6c1;" horiz-adv-x="505" arabic-form="isolated" 
d="M265 -11h-25q-84 0 -131 68q-41 60 -41 157q0 110 56 169q49 52 128 52q92 0 141 -67q44 -58 44 -154q0 -111 -53 -172q-45 -53 -119 -53zM148 213q0 -73 29 -111q24 -32 66 -32h18q48 0 73 42q22 37 22 101q0 73 -31 110q-26 32 -73 32q-54 0 -81 -42q-23 -36 -23 -100z
" />
    <glyph glyph-name="uniFBA7" unicode="&#x6c1;" horiz-adv-x="649" arabic-form="final" 
d="M635 0q-87 0 -140 59q-21 24 -57 89q-23 41 -39 57q-23 24 -54 24q-57 0 -116 -54t-143 -184l-64 42q66 128 156 205q89 76 173 76q61 0 102 -41q23 -23 60 -87q34 -60 61 -81q30 -24 71 -24h14v-81h-24z" />
    <glyph glyph-name="uniFBA8" unicode="&#x6c1;" horiz-adv-x="285" arabic-form="initial" 
d="M18 0h-28v81h20q53 0 80 37q24 33 24 90v213h84v-226q0 -102 -58 -154q-46 -41 -122 -41zM48 -283l-76 28l69 201l65 -11z" />
    <glyph glyph-name="uniFBA9" unicode="&#x6c1;" horiz-adv-x="600" arabic-form="medial" 
d="M610 0h-13q-61 0 -85 -12q-27 -13 -36.5 -49.5t-9.5 -127.5v-116h-49q-142 0 -215 93q-57 73 -57 188q0 39 7 81q-58 -57 -145 -57h-17v81h14q57 0 106.5 41.5t98.5 130.5l65 -29q-46 -128 -46 -235q0 -101 42 -154q40 -51 113 -51v56q0 85 14 131q17 56 60 82
q47 28 135 28h18v-81z" />
    <glyph glyph-name="uniFBAA" unicode="&#x6be;" horiz-adv-x="608" arabic-form="isolated" 
d="M144 0h-154v81h79h44q-45 53 -45 120q0 64 41 105q39 41 104 41q72 0 112 -51q32 -40 32 -97q0 -68 -44 -118q33 0 49 1q46 1 70 24q22 21 22 58q0 40 -17 80.5t-47 71.5q-77 82 -229 94l18 73q178 -13 281 -132q77 -88 77 -188q0 -81 -43 -123q-41 -40 -118 -40h-92
q-38 0 -71 12q-33 -12 -69 -12zM213 90q32 16 50 46t18 66t-18 56.5t-50 20.5t-50 -20t-18 -56t18 -66t50 -47z" />
    <glyph glyph-name="uniFBAB" unicode="&#x6be;" horiz-adv-x="649" arabic-form="final" 
d="M144 0h-154v81h81h42q-45 53 -45 120q0 64 41 105q39 41 104 41q72 0 112 -51q32 -40 32 -97q0 -68 -44 -118q32 0 49 1q46 0 70 24q22 21 22 58q0 40 -17 80.5t-47 71.5q-77 82 -229 94l18 73q179 -13 281 -125q76 -85 76 -184q0 -45 34 -71q28 -22 69 -22h20v-81h-28
q-83 0 -128 51q-41 -51 -127 -51h-92q-38 0 -71 12q-33 -12 -69 -12zM213 90q32 16 50 46t18 66t-18 56.5t-50 20.5t-50 -20t-18 -56t18 -66t50 -47z" />
    <glyph glyph-name="uniFBAC" unicode="&#x6be;" horiz-adv-x="608" arabic-form="initial" 
d="M144 0h-154v81h79h44q-45 53 -45 120q0 64 41 105q39 41 104 41q72 0 112 -51q32 -40 32 -97q0 -68 -44 -118q33 0 49 1q46 1 70 24q22 21 22 58q0 40 -17 80.5t-47 71.5q-77 82 -229 94l18 73q178 -13 281 -132q77 -88 77 -188q0 -81 -43 -123q-41 -40 -118 -40h-92
q-38 0 -71 12q-33 -12 -69 -12zM213 90q32 16 50 46t18 66t-18 56.5t-50 20.5t-50 -20t-18 -56t18 -66t50 -47z" />
    <glyph glyph-name="uniFBAD" unicode="&#x6be;" horiz-adv-x="649" arabic-form="medial" 
d="M144 0h-154v81h81h42q-45 53 -45 120q0 64 41 105q39 41 104 41q72 0 112 -51q32 -40 32 -97q0 -68 -44 -118q32 0 49 1q46 0 70 24q22 21 22 58q0 40 -17 80.5t-47 71.5q-77 82 -229 94l18 73q179 -13 281 -125q76 -85 76 -184q0 -45 34 -71q28 -22 69 -22h20v-81h-28
q-83 0 -128 51q-41 -51 -127 -51h-92q-38 0 -71 12q-33 -12 -69 -12zM213 90q32 16 50 46t18 66t-18 56.5t-50 20.5t-50 -20t-18 -56t18 -66t50 -47z" />
    <glyph glyph-name="uniFBAE" unicode="&#x6d2;" horiz-adv-x="872" arabic-form="isolated" 
d="M775 0h-552q-100 0 -143 44q-38 38 -38 116q0 89 57 132q48 37 131 37h83v25q0 175 169 175q59 0 109 -37l-31 -68q-33 27 -76 27q-52 0 -73 -37q-18 -30 -18 -89v-75h-159q-60 0 -85 -24q-22 -21 -22 -65t24 -62t83 -18h568z" />
    <glyph glyph-name="uniFBAF" unicode="&#x6d2;" horiz-adv-x="748" arabic-form="final" 
d="M758 0h-194q-183 0 -292 -25q-117 -27 -117 -79q0 -23 17.5 -32t63.5 -9h366l-25 -81h-339q-93 0 -133 30q-35 26 -35 77q0 116 154 164q118 36 344 36h190v-81z" />
    <glyph glyph-name="uniFBB0" unicode="&#x6d3;" horiz-adv-x="872" arabic-form="isolated" 
d="M258 471h-171v42h36q-9 18 -9 34q0 29 20.5 48t52.5 19q33 0 55 -21l-16 -31q-16 12 -35 12q-32 0 -32 -30q0 -13 12 -31h87v-42zM775 0h-552q-100 0 -143 44q-38 38 -38 116q0 89 57 132q48 37 131 37h83v25q0 175 169 175q59 0 109 -37l-31 -68q-33 27 -76 27
q-52 0 -73 -37q-18 -30 -18 -89v-75h-159q-60 0 -85 -24q-22 -21 -22 -65t24 -62t83 -18h568z" />
    <glyph glyph-name="uniFBB1" unicode="&#x6d3;" horiz-adv-x="748" arabic-form="final" 
d="M527 194h-171v43h36q-9 17 -9 34q0 29 20.5 48t52.5 19q33 0 55 -22l-16 -31q-15 12 -35 12q-32 0 -32 -29q0 -14 12 -31h87v-43zM758 0h-194q-183 0 -292 -25q-117 -27 -117 -79q0 -23 17.5 -32t63.5 -9h366l-25 -81h-339q-93 0 -133 30q-35 26 -35 77q0 116 154 164
q118 36 344 36h190v-81z" />
    <glyph glyph-name="uniFBD3" unicode="&#x6ad;" horiz-adv-x="877" arabic-form="isolated" 
d="M792 905q0 -20 -13.5 -33.5t-33.5 -13.5q-19 0 -33 14t-14 33t14 33t33 14t33 -14t14 -33zM736 800q0 -21 -15.5 -36.5t-36.5 -15.5q-20 0 -35.5 15.5t-15.5 36.5q0 20 15.5 35.5t35.5 15.5q21 0 36.5 -15.5t15.5 -35.5zM857 800q0 -21 -15.5 -36.5t-36.5 -15.5
q-20 0 -35.5 15.5t-15.5 36.5q0 20 15.5 35.5t35.5 15.5q21 0 36.5 -15.5t15.5 -35.5zM599 0h-288q-123 0 -185 74q-47 56 -47 138q0 65 35 117q34 50 92 73l39 -59q-41 -19 -64.5 -53t-23.5 -75q0 -59 44 -97q41 -37 104 -37h276q126 0 126 127v458h83v-471
q0 -103 -58 -153q-49 -42 -133 -42zM467 359h-95v38h92q35 0 35 29q0 17 -13.5 28t-34.5 11q-23 0 -50 -11v38l83 91l26 -20l-55 -62q40 -1 62 -20.5t22 -54.5q0 -31 -19 -49t-53 -18z" />
    <glyph glyph-name="uniFBD4" unicode="&#x6ad;" horiz-adv-x="904" arabic-form="final" 
d="M792 905q0 -20 -13.5 -33.5t-33.5 -13.5q-19 0 -33 14t-14 33t14 33t33 14t33 -14t14 -33zM736 800q0 -21 -15.5 -36.5t-36.5 -15.5q-20 0 -35.5 15.5t-15.5 36.5q0 20 15.5 35.5t35.5 15.5q21 0 36.5 -15.5t15.5 -35.5zM857 800q0 -21 -15.5 -36.5t-36.5 -15.5
q-20 0 -35.5 15.5t-15.5 36.5q0 20 15.5 35.5t35.5 15.5q21 0 36.5 -15.5t15.5 -35.5zM599 0h-287q-124 0 -186 74q-47 55 -47 138q0 65 35 117q34 50 92 73l39 -59q-41 -19 -64.5 -53t-23.5 -75q0 -59 44 -97q41 -37 104 -37h276q126 0 126 127v458h83v-458q0 -66 31 -99
q27 -28 73 -28h20v-81h-28q-91 0 -138 63q-49 -63 -149 -63zM467 359h-95v38h92q35 0 35 29q0 17 -13.5 28t-34.5 11q-23 0 -50 -11v38l83 91l26 -20l-55 -62q40 -1 62 -20.5t22 -54.5q0 -31 -19 -49t-53 -18z" />
    <glyph glyph-name="uniFBD5" unicode="&#x6ad;" horiz-adv-x="552" arabic-form="initial" 
d="M155 761q0 -19 -14 -33t-33 -14t-33 14t-14 33q0 20 13.5 33.5t33.5 13.5q19 0 33 -14t14 -33zM99 656q0 -20 -15.5 -35.5t-36.5 -15.5t-36.5 15.5t-15.5 35.5q0 21 15.5 36.5t36.5 15.5t36.5 -15.5t15.5 -36.5zM220 656q0 -20 -15.5 -35.5t-36.5 -15.5q-20 0 -36 15.5
t-16 35.5q0 21 15.5 36.5t36.5 15.5t36.5 -15.5t15.5 -36.5zM309 0h-319v81h307q122 0 122 118v2q0 55 -27 79q-27 23 -83 23h-260v80l222 229l47 -47l-173 -181h165q105 0 152 -54q41 -47 41 -137v-1q0 -101 -59 -150q-49 -42 -135 -42z" />
    <glyph glyph-name="uniFBD6" unicode="&#x6ad;" horiz-adv-x="617" arabic-form="medial" 
d="M155 761q0 -19 -14 -33t-33 -14t-33 14t-14 33q0 20 13.5 33.5t33.5 13.5q19 0 33 -14t14 -33zM99 656q0 -20 -15.5 -35.5t-36.5 -15.5t-36.5 15.5t-15.5 35.5q0 21 15.5 36.5t36.5 15.5t36.5 -15.5t15.5 -36.5zM220 656q0 -20 -15.5 -35.5t-36.5 -15.5q-20 0 -36 15.5
t-16 35.5q0 21 15.5 36.5t36.5 15.5t36.5 -15.5t15.5 -36.5zM309 0h-319v81h307q122 0 122 117v2q0 56 -27 80q-27 23 -83 23h-260v80l222 229l47 -47l-173 -181h166q192 0 192 -179v-3q0 -62 32 -94q27 -27 72 -27h20v-81h-28q-90 0 -138 62q-51 -62 -152 -62z" />
    <glyph glyph-name="uniFBD7" unicode="&#x6c7;" horiz-adv-x="499" arabic-form="isolated" 
d="M281 539l-126 -22l-7 41l103 19q-20 20 -20 49q0 26 17 44t42 18q27 0 44 -18t17 -47q0 -31 -19.5 -54.5t-50.5 -29.5zM293 588q19 9 19 35q0 27 -21 27q-20 0 -20 -26q0 -25 22 -36zM340 30q-42 -23 -86 -23q-93 0 -144 66q-44 56 -44 148q0 103 56 161q49 52 130 52
q84 0 130 -53q40 -45 40 -118v-243q0 -110 -60 -166q-49 -45 -127 -45q-64 0 -134 37l23 69q53 -28 100 -28q57 0 87 36q28 34 29 95v12zM340 109v148q0 100 -89 100q-54 0 -81 -42q-23 -35 -23 -93q0 -73 40 -110q31 -29 79 -29q37 0 74 26z" />
    <glyph glyph-name="uniFBD8" unicode="&#x6c7;" horiz-adv-x="519" arabic-form="final" 
d="M281 539l-126 -22l-7 41l103 19q-20 20 -20 49q0 26 17 44t42 18q27 0 44 -18t17 -47q0 -31 -19.5 -54.5t-50.5 -29.5zM293 588q19 9 19 35q0 27 -21 27q-20 0 -20 -26q0 -25 22 -36zM421 0q-5 -100 -63 -150q-48 -41 -123 -41q-64 0 -134 37l23 69q53 -28 100 -28
q53 0 84 32q28 29 31 83q-46 0 -69 1q-104 1 -158 67q-46 57 -46 151q0 103 56 161q49 52 130 52q84 0 130 -53q40 -45 40 -118v-182h107v-81h-108zM340 81v176q0 100 -89 100q-54 0 -81 -42q-23 -35 -23 -93q0 -74 41 -111q34 -30 87 -30h65z" />
    <glyph glyph-name="uniFBD9" unicode="&#x6c6;" horiz-adv-x="499" arabic-form="isolated" 
d="M193 667l57 -106l54 106h69l-93 -164h-59l-97 164h69zM340 30q-42 -23 -86 -23q-93 0 -144 66q-44 56 -44 148q0 103 56 161q49 52 130 52q84 0 130 -53q40 -45 40 -118v-243q0 -110 -60 -166q-49 -45 -127 -45q-64 0 -134 37l23 69q53 -28 100 -28q57 0 87 36
q28 34 29 95v12zM340 109v148q0 100 -89 100q-54 0 -81 -42q-23 -35 -23 -93q0 -73 40 -110q31 -29 79 -29q37 0 74 26z" />
    <glyph glyph-name="uniFBDA" unicode="&#x6c6;" horiz-adv-x="519" arabic-form="final" 
d="M193 667l57 -106l54 106h69l-93 -164h-59l-97 164h69zM421 0q-5 -100 -63 -150q-48 -41 -123 -41q-64 0 -134 37l23 69q53 -28 100 -28q53 0 84 32q28 29 31 83q-46 0 -69 1q-104 1 -158 67q-46 57 -46 151q0 103 56 161q49 52 130 52q84 0 130 -53q40 -45 40 -118v-182
h107v-81h-108zM340 81v176q0 100 -89 100q-54 0 -81 -42q-23 -35 -23 -93q0 -74 41 -111q34 -30 87 -30h65z" />
    <glyph glyph-name="uniFBDB" unicode="&#x6c8;" horiz-adv-x="499" arabic-form="isolated" 
d="M274 517h-50v134h50v-134zM340 30q-42 -23 -86 -23q-93 0 -144 66q-44 56 -44 148q0 103 56 161q49 52 130 52q84 0 130 -53q40 -45 40 -118v-243q0 -110 -60 -166q-49 -45 -127 -45q-64 0 -134 37l23 69q53 -28 100 -28q57 0 87 36q28 34 29 95v12zM340 109v148
q0 100 -89 100q-54 0 -81 -42q-23 -35 -23 -93q0 -73 40 -110q31 -29 79 -29q37 0 74 26z" />
    <glyph glyph-name="uniFBDC" unicode="&#x6c8;" horiz-adv-x="519" arabic-form="final" 
d="M274 517h-50v134h50v-134zM421 0q-5 -100 -63 -150q-48 -41 -123 -41q-64 0 -134 37l23 69q53 -28 100 -28q53 0 84 32q28 29 31 83q-46 0 -69 1q-104 1 -158 67q-46 57 -46 151q0 103 56 161q49 52 130 52q84 0 130 -53q40 -45 40 -118v-182h107v-81h-108zM340 81v176
q0 100 -89 100q-54 0 -81 -42q-23 -35 -23 -93q0 -74 41 -111q34 -30 87 -30h65z" />
    <glyph glyph-name="uniFBDD" unicode="&#x677;" horiz-adv-x="499" arabic-form="isolated" 
d="M209 598l-126 -22l-7 41l103 19q-20 20 -20 49q0 26 17 44t42 18q27 0 44 -18t17 -47q0 -31 -20 -55t-50 -29zM221 647q20 9 20 35q0 27 -22 27q-20 0 -20 -26q0 -25 22 -36zM457 522h-171v43h36q-9 18 -9 34q0 29 20.5 48t51.5 19q34 0 56 -22l-16 -31q-16 13 -35 13
q-32 0 -32 -30q0 -14 12 -31h87v-43zM340 30q-42 -23 -86 -23q-93 0 -144 66q-44 56 -44 148q0 103 56 161q49 52 130 52q84 0 130 -53q40 -45 40 -118v-243q0 -110 -60 -166q-49 -45 -127 -45q-64 0 -134 37l23 69q53 -28 100 -28q57 0 87 36q28 34 29 95v12zM340 109v148
q0 100 -89 100q-54 0 -81 -42q-23 -35 -23 -93q0 -73 40 -110q31 -29 79 -29q37 0 74 26z" />
    <glyph glyph-name="uniFBDE" unicode="&#x6cb;" horiz-adv-x="499" arabic-form="isolated" 
d="M297 659q0 -19 -14.5 -33t-33.5 -14t-33 14t-14 33t14 33t33 14q20 0 34 -14t14 -33zM240 554q0 -20 -15.5 -35.5t-35.5 -15.5q-21 0 -36.5 15.5t-15.5 35.5q0 21 15.5 36.5t36.5 15.5q20 0 35.5 -15.5t15.5 -36.5zM362 554q0 -20 -16 -35.5t-36 -15.5q-21 0 -36.5 15.5
t-15.5 35.5q0 21 15.5 36.5t36.5 15.5t36.5 -15.5t15.5 -36.5zM340 30q-42 -23 -86 -23q-93 0 -144 66q-44 56 -44 148q0 103 56 161q49 52 130 52q84 0 130 -53q40 -45 40 -118v-243q0 -110 -60 -166q-49 -45 -127 -45q-64 0 -134 37l23 69q53 -28 100 -28q57 0 87 36
q28 34 29 95v12zM340 109v148q0 100 -89 100q-54 0 -81 -42q-23 -35 -23 -93q0 -73 40 -110q31 -29 79 -29q37 0 74 26z" />
    <glyph glyph-name="uniFBDF" unicode="&#x6cb;" horiz-adv-x="519" arabic-form="final" 
d="M297 659q0 -19 -14.5 -33t-33.5 -14t-33 14t-14 33t14 33t33 14q20 0 34 -14t14 -33zM240 554q0 -20 -15.5 -35.5t-35.5 -15.5q-21 0 -36.5 15.5t-15.5 35.5q0 21 15.5 36.5t36.5 15.5q20 0 35.5 -15.5t15.5 -36.5zM362 554q0 -20 -16 -35.5t-36 -15.5q-21 0 -36.5 15.5
t-15.5 35.5q0 21 15.5 36.5t36.5 15.5t36.5 -15.5t15.5 -36.5zM421 0q-5 -100 -63 -150q-48 -41 -123 -41q-64 0 -134 37l23 69q53 -28 100 -28q53 0 84 32q28 29 31 83q-46 0 -69 1q-104 1 -158 67q-46 57 -46 151q0 103 56 161q49 52 130 52q84 0 130 -53q40 -45 40 -118
v-182h107v-81h-108zM340 81v176q0 100 -89 100q-54 0 -81 -42q-23 -35 -23 -93q0 -74 41 -111q34 -30 87 -30h65z" />
    <glyph glyph-name="uniFBE0" unicode="&#x6c5;" horiz-adv-x="499" arabic-form="isolated" 
d="M340 30q-42 -23 -86 -23q-93 0 -144 66q-44 56 -44 148q0 103 56 161q49 52 130 52q84 0 130 -53q40 -45 40 -118v-243q0 -110 -60 -166q-49 -45 -127 -45q-64 0 -134 37l23 69q53 -28 100 -28q70 0 99 54h-126v29h137q6 21 6 48v12zM340 109v148q0 100 -89 100
q-54 0 -81 -42q-23 -35 -23 -93q0 -73 40 -110q31 -29 79 -29q37 0 74 26z" />
    <glyph glyph-name="uniFBE1" unicode="&#x6c5;" horiz-adv-x="519" arabic-form="final" 
d="M422 263v-182h107v-81h-108q-5 -100 -63 -150q-48 -41 -123 -41q-64 0 -134 37l23 69q53 -28 100 -28q71 0 99 54h-126v29h137q3 11 5 32q-46 0 -69 1q-104 1 -158 67q-46 57 -46 151q0 103 56 161q49 52 130 52q84 0 130 -53q40 -45 40 -118zM340 81v176q0 100 -89 100
q-54 0 -81 -42q-23 -35 -23 -93q0 -74 41 -111q34 -30 87 -30h65z" />
    <glyph glyph-name="uniFBE2" unicode="&#x6c9;" horiz-adv-x="499" arabic-form="isolated" 
d="M304 510l-56 106l-54 -106h-70l93 164h59l97 -164h-69zM340 30q-42 -23 -86 -23q-93 0 -144 66q-44 56 -44 148q0 103 56 161q49 52 130 52q84 0 130 -53q40 -45 40 -118v-243q0 -110 -60 -166q-49 -45 -127 -45q-64 0 -134 37l23 69q53 -28 100 -28q57 0 87 36
q28 34 29 95v12zM340 109v148q0 100 -89 100q-54 0 -81 -42q-23 -35 -23 -93q0 -73 40 -110q31 -29 79 -29q37 0 74 26z" />
    <glyph glyph-name="uniFBE3" unicode="&#x6c9;" horiz-adv-x="519" arabic-form="final" 
d="M304 510l-56 106l-54 -106h-70l93 164h59l97 -164h-69zM421 0q-5 -100 -63 -150q-48 -41 -123 -41q-64 0 -134 37l23 69q53 -28 100 -28q53 0 84 32q28 29 31 83q-46 0 -69 1q-104 1 -158 67q-46 57 -46 151q0 103 56 161q49 52 130 52q84 0 130 -53q40 -45 40 -118v-182
h107v-81h-108zM340 81v176q0 100 -89 100q-54 0 -81 -42q-23 -35 -23 -93q0 -74 41 -111q34 -30 87 -30h65z" />
    <glyph glyph-name="uniFBE4" unicode="&#x6d0;" horiz-adv-x="710" arabic-form="isolated" 
d="M592 349h-102q-44 0 -69 -19q-26 -19 -26 -56q0 -41 23.5 -64.5t92.5 -51.5q70 -28 97 -52q45 -40 45 -109q0 -90 -88 -146q-81 -51 -209 -51q-146 0 -223 79q-66 68 -66 182q0 90 47 160l68 -29q-33 -64 -33 -127q0 -85 56 -135q56 -49 151 -49q98 0 162 40q51 33 51 74
q0 38 -45 64q-12 7 -70 33q-66 29 -96 60q-45 46 -45 121q0 76 52 119q45 37 110 37h117v-80zM408 -319q0 -20 -15 -34.5t-35 -14.5t-35 14.5t-15 34.5t15 34.5t35 14.5t35 -14.5t15 -34.5zM408 -429q0 -20 -15 -35t-35 -15t-35 15t-15 35t15 34.5t35 14.5t35 -14.5
t15 -34.5z" />
    <glyph glyph-name="uniFBE5" unicode="&#x6d0;" horiz-adv-x="671" arabic-form="final" 
d="M656 0q-2 -99 -93 -154q-80 -47 -207 -47q-146 0 -223 80q-66 68 -66 182q0 90 47 160l68 -29q-33 -64 -33 -127q0 -86 58 -138q56 -50 153 -50q92 0 153 34q59 34 60 89h-90v81h198v-81h-25zM408 -315q0 -20 -15 -35t-35 -15t-35 15t-15 35t15 34.5t35 14.5t35 -14.5
t15 -34.5zM408 -426q0 -20 -15 -34.5t-35 -14.5t-35 14.5t-15 34.5t15 35t35 15t35 -15t15 -35z" />
    <glyph glyph-name="uniFBE6" unicode="&#x6d0;" horiz-adv-x="285" arabic-form="initial" 
d="M-10 0v81h20q53 0 80 37q24 33 24 90v213h84v-226q0 -102 -58 -154q-46 -41 -122 -41h-28zM103 -285q-20 0 -35 14.5t-15 34.5t15 34.5t35 14.5t34.5 -14.5t14.5 -34.5t-14.5 -34.5t-34.5 -14.5zM103 -175q-20 0 -35 14.5t-15 34.5t15 35t35 15t34.5 -15t14.5 -35
t-14.5 -34.5t-34.5 -14.5z" />
    <glyph glyph-name="uniFBE7" unicode="&#x6d0;" horiz-adv-x="312" arabic-form="medial" 
d="M-10 0v81h20q53 0 80 37q24 33 24 90v213h84v-213q0 -66 31 -99q27 -28 73 -28h20v-81h-28q-91 0 -138 63q-47 -63 -138 -63h-28zM148 -285q-20 0 -34.5 14.5t-14.5 34.5t14.5 34.5t34.5 14.5t35 -14.5t15 -34.5t-15 -34.5t-35 -14.5zM148 -175q-20 0 -34.5 14.5
t-14.5 34.5t14.5 35t34.5 15t35 -15t15 -35t-15 -34.5t-35 -14.5z" />
    <glyph glyph-name="uniFBE8" unicode="&#x649;" horiz-adv-x="285" arabic-form="initial" 
d="M18 0h-28v81h20q53 0 80 37q24 33 24 90v213h84v-226q0 -102 -58 -154q-46 -41 -122 -41z" />
    <glyph glyph-name="uniFBE9" unicode="&#x649;" horiz-adv-x="312" arabic-form="medial" 
d="M18 0h-28v81h20q53 0 80 37q24 33 24 90v213h84v-213q0 -66 31 -99q27 -28 73 -28h20v-81h-28q-91 0 -138 63q-47 -63 -138 -63z" />
    <glyph glyph-name="uniFBFC" unicode="&#x6cc;" horiz-adv-x="710" arabic-form="isolated" 
d="M592 349h-102q-44 0 -69 -19q-26 -19 -26 -56q0 -41 23.5 -64.5t92.5 -51.5q70 -28 97 -52q45 -40 45 -109q0 -90 -88 -146q-81 -51 -209 -51q-146 0 -223 79q-66 68 -66 182q0 90 47 160l68 -29q-33 -64 -33 -127q0 -85 56 -135q56 -49 151 -49q98 0 162 40q51 33 51 74
q0 38 -45 64q-12 7 -70 33q-66 29 -96 60q-45 46 -45 121q0 76 52 119q45 37 110 37h117v-80z" />
    <glyph glyph-name="uniFBFD" unicode="&#x6cc;" horiz-adv-x="671" arabic-form="final" 
d="M656 0q-2 -99 -93 -154q-80 -47 -207 -47q-146 0 -223 80q-66 68 -66 182q0 90 47 160l68 -29q-33 -64 -33 -127q0 -86 58 -138q56 -50 153 -50q92 0 153 34q59 34 60 89h-90v81h198v-81h-25z" />
    <glyph glyph-name="uniFBFE" unicode="&#x6cc;" horiz-adv-x="285" arabic-form="initial" 
d="M-10 0v81h20q53 0 80 37q24 33 24 90v213h84v-226q0 -102 -58 -154q-46 -41 -122 -41h-28zM35 -179q-21 0 -36.5 15.5t-15.5 35.5q0 21 15.5 36.5t36.5 15.5q20 0 35.5 -15.5t15.5 -36.5q0 -20 -15.5 -35.5t-35.5 -15.5zM156 -179q-21 0 -36.5 15.5t-15.5 35.5
q0 21 15.5 36.5t36.5 15.5t36.5 -15.5t15.5 -36.5q0 -20 -15.5 -35.5t-36.5 -15.5z" />
    <glyph glyph-name="uniFBFF" unicode="&#x6cc;" horiz-adv-x="312" arabic-form="medial" 
d="M-10 0v81h20q53 0 80 37q24 33 24 90v213h84v-213q0 -66 31 -99q27 -28 73 -28h20v-81h-28q-91 0 -138 63q-47 -63 -138 -63h-28zM81 -179q-21 0 -36.5 15.5t-15.5 35.5q0 21 15.5 36.5t36.5 15.5t36.5 -15.5t15.5 -36.5q0 -20 -16 -35.5t-36 -15.5zM202 -179
q-21 0 -36.5 15.5t-15.5 35.5q0 21 15.5 36.5t36.5 15.5t36.5 -15.5t15.5 -36.5t-15.5 -36t-36.5 -15z" />
    <glyph glyph-name="uniFCF3" unicode="&#xfcf3;" horiz-adv-x="121" arabic-form="medial" 
d="M92 696l-126 -22l-8 40l103 19q-19 22 -19 49q0 26 17 44t41 18q28 0 44.5 -17.5t16.5 -46.5q0 -32 -19.5 -55.5t-49.5 -28.5zM103 744q20 10 20 35q0 27 -22 27q-19 0 -19 -26q0 -25 21 -36zM61 534q-17 -16 -43 -16q-25 0 -41.5 15.5t-16.5 38.5v70h40v-64
q0 -20 19 -20q22 0 22 20v45h40v-45q0 -20 20 -20q21 0 21 20v64h39v-70q0 -24 -16.5 -39t-41.5 -15q-29 0 -42 16zM131 0h-141v81h141v-81z" />
    <glyph glyph-name="uniFCF4" unicode="&#xfcf4;" horiz-adv-x="121" arabic-form="medial" 
d="M58 655q-17 -16 -42 -16q-26 0 -42.5 15.5t-16.5 38.5v70h40v-64q0 -20 20 -20q21 0 21 20v45h40v-45q0 -20 20 -20q21 0 21 20v64h39v-70q0 -24 -16.5 -39t-41.5 -15q-27 0 -42 16zM158 549l-179 -32l-10 51l180 33zM131 0h-141v81h141v-81z" />
    <glyph glyph-name="uniFD3C" unicode="&#xfd3c;" horiz-adv-x="289" arabic-form="final" 
d="M215 793l-170 -30l-9 44l171 31zM222 710l-171 -32l-8 45l171 32zM299 0h-37q-88 0 -134 49q-41 45 -41 125v439h84v-414q0 -65 22 -91q24 -27 83 -27h23v-81z" />
    <glyph glyph-name="uniFD3D" unicode="&#xfd3d;" horiz-adv-x="258" arabic-form="isolated" 
d="M215 793l-170 -30l-9 44l171 31zM222 710l-171 -32l-8 45l171 32zM171 0h-84v613h84v-613z" />
    <glyph glyph-name="uniFE71" unicode="&#xfe71;" horiz-adv-x="121" arabic-form="medial" 
d="M146 632l-170 -31l-8 45l170 30zM153 549l-171 -32l-8 45l171 31zM131 0h-141v81h141v-81z" />
    <glyph glyph-name="uniFE72" unicode="&#xfe72;" horiz-adv-x="268" arabic-form="isolated" 
d="M150 729q-23 20 -23 46q0 28 17 46.5t43 18.5q28 0 45 -18t17 -46q0 -44 -33 -70q-26 -20 -62 -20q-50 0 -79 35l-20 -33l-36 24l37 59h25q25 -44 69 -42zM190 738q21 8 21 36q0 13 -6.5 21t-16.5 8q-9 0 -15 -8t-6 -20q0 -25 23 -37z" />
    <glyph glyph-name="uniFE74" unicode="&#xfe74;" horiz-adv-x="259" arabic-form="isolated" 
d="M176 -139l-171 -30l-8 44l171 31zM182 -222l-171 -31l-8 44l171 32z" />
    <glyph glyph-name="uniFE76" unicode="&#xfe76;" horiz-adv-x="227" arabic-form="isolated" 
d="M208 717l-179 -31l-10 51l179 32z" />
    <glyph glyph-name="uniFE77" unicode="&#xfe77;" horiz-adv-x="121" arabic-form="medial" 
d="M158 549l-179 -32l-10 51l180 33zM131 0h-141v81h141v-81z" />
    <glyph glyph-name="uniFE78" unicode="&#xfe78;" horiz-adv-x="241" arabic-form="isolated" 
d="M152 708l-126 -22l-7 41l103 18q-19 20 -19 50q0 26 16.5 44t41.5 18q27 0 44 -18t17 -47q0 -31 -20 -55t-50 -29zM164 757q20 9 20 35q0 27 -22 27q-20 0 -20 -26q0 -24 22 -36z" />
    <glyph glyph-name="uniFE79" unicode="&#xfe79;" horiz-adv-x="121" arabic-form="medial" 
d="M92 539l-126 -22l-7 41l103 19q-19 21 -19 49q0 26 16.5 44t41.5 18q27 0 44 -18t17 -47q0 -31 -19.5 -54.5t-50.5 -29.5zM104 588q20 8 20 35t-22 27q-19 0 -19 -26q0 -25 21 -36zM131 0h-141v81h141v-81z" />
    <glyph glyph-name="uniFE7A" unicode="&#xfe7a;" horiz-adv-x="227" arabic-form="isolated" 
d="M208 -151l-179 -31l-10 56l179 32z" />
    <glyph glyph-name="uniFE7B" unicode="&#xfe7b;" horiz-adv-x="121" arabic-form="medial" 
d="M131 0h-141v81h141v-81zM158 -151l-179 -31l-10 56l180 32z" />
    <glyph glyph-name="uniFE7C" unicode="&#xfe7c;" horiz-adv-x="239" arabic-form="isolated" 
d="M120 703q-17 -16 -43 -16q-25 0 -41.5 15.5t-16.5 38.5v70h40v-64q0 -20 20 -20q21 0 21 20v45h40v-45q0 -20 20 -20q21 0 21 20v64h39v-70q0 -24 -16.5 -39t-41.5 -15q-27 0 -42 16z" />
    <glyph glyph-name="uniFE7D" unicode="&#xfe7d;" horiz-adv-x="121" arabic-form="medial" 
d="M61 534q-17 -16 -43 -16q-25 0 -41.5 15.5t-16.5 38.5v70h40v-64q0 -20 19 -20q22 0 22 20v45h40v-45q0 -20 20 -20q21 0 21 20v64h39v-70q0 -24 -16.5 -39t-41.5 -15q-29 0 -42 16zM131 0h-141v81h141v-81z" />
    <glyph glyph-name="uniFE7E" unicode="&#xfe7e;" horiz-adv-x="162" arabic-form="isolated" 
d="M82 827q27 -7 44 -29t17 -51q0 -28 -16.5 -44.5t-44.5 -16.5q-29 0 -46 15.5t-17 43.5t17.5 51t45.5 31zM82 791q-11 -4 -18 -15t-7 -25q0 -28 24 -28t24 27q0 14 -6.5 25.5t-16.5 15.5z" />
    <glyph glyph-name="uniFE7F" unicode="&#xfe7f;" horiz-adv-x="121" arabic-form="medial" 
d="M61 658q27 -7 44 -29t17 -51q0 -28 -16.5 -44.5t-44.5 -16.5q-29 0 -46 15.5t-17 43.5q0 29 17.5 52t45.5 30zM61 622q-11 -3 -18 -14.5t-7 -25.5q0 -28 24 -28t24 28q0 14 -6.5 25.5t-16.5 14.5zM131 0h-141v81h141v-81z" />
    <glyph glyph-name="uniFE80" unicode="&#x621;" horiz-adv-x="505" arabic-form="isolated" 
d="M432 4q-44 12 -94 12q-76 0 -147 -25q-62 -23 -100 -58l-57 62q41 34 86 56q-47 68 -47 153q0 88 54 143q49 51 126 51q90 0 154 -79l-41 -47q-51 49 -108 49q-53 0 -80 -39q-22 -31 -22 -78q0 -67 41 -125q64 18 136 18q65 0 127 -15z" />
    <glyph glyph-name="uniFE81" unicode="&#x622;" horiz-adv-x="269" arabic-form="isolated" 
d="M237 734q-9 -27 -27 -42.5t-40 -15.5q-23 0 -50 17q-15 9 -26 9q-21 0 -36 -22l-26 22q22 49 62 49q17 0 40 -16q19 -13 36 -13q19 0 33 29zM176 0h-84v613h84v-613z" />
    <glyph glyph-name="uniFE82" unicode="&#x622;" horiz-adv-x="292" arabic-form="final" 
d="M235 734q-9 -27 -26.5 -42.5t-39.5 -15.5q-23 0 -51 17q-15 9 -26 9q-20 0 -36 -22l-26 22q23 49 62 49q17 0 41 -16q19 -13 36 -13q19 0 32 29zM302 0h-37q-88 0 -134 49q-41 45 -41 125v439h84v-414q0 -66 22 -91q23 -27 83 -27h23v-81z" />
    <glyph glyph-name="uniFE83" unicode="&#x623;" horiz-adv-x="258" arabic-form="isolated" 
d="M215 680h-172v43h37q-9 17 -9 34q0 29 20.5 48t51.5 19q34 0 55 -22l-15 -31q-16 13 -35 13q-32 0 -32 -30q0 -16 12 -31h87v-43zM171 0h-84v615h84v-615z" />
    <glyph glyph-name="uniFE84" unicode="&#x623;" horiz-adv-x="289" arabic-form="final" 
d="M215 680h-172v43h37q-9 17 -9 34q0 29 20.5 48t51.5 19q34 0 55 -22l-15 -31q-16 13 -35 13q-32 0 -32 -30q0 -16 12 -31h87v-43zM299 0h-37q-88 0 -134 49q-41 45 -41 125v441h84v-416q0 -65 22 -91q24 -27 83 -27h23v-81z" />
    <glyph glyph-name="uniFE85" unicode="&#x624;" horiz-adv-x="499" arabic-form="isolated" 
d="M334 521h-171v43h37q-10 16 -10 33q0 29 20.5 48t52.5 19q33 0 55 -21l-15 -31q-18 12 -36 12q-32 0 -32 -29q0 -14 12 -31h87v-43zM340 30q-42 -23 -86 -23q-93 0 -144 66q-44 56 -44 148q0 103 56 161q49 52 130 52q84 0 130 -53q40 -45 40 -118v-243q0 -110 -60 -166
q-49 -45 -127 -45q-64 0 -134 37l23 69q53 -28 100 -28q57 0 87 36q28 34 29 95v12zM340 109v148q0 100 -89 100q-54 0 -81 -42q-23 -35 -23 -93q0 -73 40 -110q31 -29 79 -29q37 0 74 26z" />
    <glyph glyph-name="uniFE86" unicode="&#x624;" horiz-adv-x="519" arabic-form="final" 
d="M334 521h-171v43h37q-10 16 -10 33q0 29 20.5 48t52.5 19q33 0 55 -21l-15 -31q-18 12 -36 12q-32 0 -32 -29q0 -14 12 -31h87v-43zM421 0q-5 -100 -63 -150q-48 -41 -123 -41q-64 0 -134 37l23 69q53 -28 100 -28q53 0 84 32q28 29 31 83q-46 0 -69 1q-104 1 -158 67
q-46 57 -46 151q0 103 56 161q49 52 130 52q84 0 130 -53q40 -45 40 -118v-182h107v-81h-108zM340 81v176q0 100 -89 100q-54 0 -81 -42q-23 -35 -23 -93q0 -74 41 -111q34 -30 87 -30h65z" />
    <glyph glyph-name="uniFE87" unicode="&#x625;" horiz-adv-x="264" arabic-form="isolated" 
d="M174 0h-84v666h84v-666zM218 -239h-171v43h36q-9 16 -9 34q0 29 20.5 48t52.5 19q33 0 55 -22l-16 -31q-15 12 -35 12q-32 0 -32 -29q0 -15 12 -31h87v-43z" />
    <glyph glyph-name="uniFE88" unicode="&#x625;" horiz-adv-x="289" arabic-form="final" 
d="M299 0h-37q-88 0 -134 49q-41 45 -41 125v492h84v-467q0 -65 22 -91q24 -27 83 -27h23v-81zM256 -239h-171v43h36q-9 16 -9 34q0 29 20.5 48t51.5 19q34 0 56 -22l-16 -31q-15 12 -35 12q-32 0 -32 -29q0 -15 12 -31h87v-43z" />
    <glyph glyph-name="uniFE89" unicode="&#x626;" horiz-adv-x="710" arabic-form="isolated" 
d="M230 341h-172v42h37q-10 17 -10 34q0 29 20.5 48t52.5 19q33 0 55 -22l-15 -30q-18 12 -36 12q-32 0 -32 -30q0 -14 12 -31h88v-42zM592 349h-102q-44 0 -69 -19q-26 -19 -26 -56q0 -41 23.5 -64.5t92.5 -51.5q70 -28 97 -52q45 -40 45 -109q0 -90 -88 -146
q-81 -51 -209 -51q-146 0 -223 79q-66 68 -66 182q0 90 47 160l68 -29q-33 -64 -33 -127q0 -85 56 -135q56 -49 151 -49q98 0 162 40q51 33 51 74q0 38 -45 64q-12 7 -70 33q-66 29 -96 60q-45 46 -45 121q0 76 52 119q45 37 110 37h117v-80z" />
    <glyph glyph-name="uniFE8A" unicode="&#x626;" horiz-adv-x="671" arabic-form="final" 
d="M266 320h-172v43h37q-10 18 -10 34q0 29 21 48t52 19q34 0 55 -22l-15 -31q-16 12 -35 12q-32 0 -32 -29q0 -16 12 -31h87v-43zM656 0q-2 -99 -93 -154q-80 -47 -207 -47q-146 0 -223 80q-66 68 -66 182q0 90 47 160l68 -29q-33 -64 -33 -127q0 -86 58 -138
q56 -50 153 -50q92 0 153 34q59 34 60 89h-90v81h198v-81h-25z" />
    <glyph glyph-name="uniFE8B" unicode="&#x626;" horiz-adv-x="285" arabic-form="initial" 
d="M238 520h-171v43h37q-10 17 -10 34q0 29 20.5 48t52.5 19q33 0 55 -22l-15 -31q-17 13 -36 13q-32 0 -32 -30q0 -14 12 -31h87v-43zM18 0h-28v81h20q53 0 80 37q24 33 24 90v213h84v-226q0 -102 -58 -154q-46 -41 -122 -41z" />
    <glyph glyph-name="uniFE8C" unicode="&#x626;" horiz-adv-x="312" arabic-form="medial" 
d="M242 520h-172v43h37q-9 18 -9 34q0 29 20.5 48t51.5 19q34 0 55 -22l-15 -31q-16 13 -35 13q-32 0 -32 -30q0 -16 12 -31h87v-43zM18 0h-28v81h20q53 0 80 37q24 33 24 90v213h84v-213q0 -66 31 -99q27 -28 73 -28h20v-81h-28q-91 0 -138 63q-47 -63 -138 -63z" />
    <glyph glyph-name="uniFE8D" unicode="&#x627;" horiz-adv-x="258" arabic-form="isolated" 
d="M171 0h-84v666h84v-666z" />
    <glyph glyph-name="uniFE8E" unicode="&#x627;" horiz-adv-x="289" arabic-form="final" 
d="M299 0h-37q-88 0 -134 49q-41 45 -41 125v492h84v-467q0 -65 22 -91q24 -27 83 -27h23v-81z" />
    <glyph glyph-name="uniFE8F" unicode="&#x628;" horiz-adv-x="877" arabic-form="isolated" 
d="M599 0h-288q-123 0 -185 74q-47 56 -47 138q0 65 35 117q34 50 92 73l39 -59q-41 -19 -64.5 -53t-23.5 -75q0 -59 44 -97q41 -37 104 -37h276q126 0 126 127v213h83v-226q0 -103 -58 -153q-49 -42 -133 -42zM487 -128q0 -20 -16 -35.5t-36 -15.5q-21 0 -36.5 15.5
t-15.5 35.5q0 21 15.5 36.5t36.5 15.5t36.5 -15.5t15.5 -36.5z" />
    <glyph glyph-name="uniFE90" unicode="&#x628;" horiz-adv-x="904" arabic-form="final" 
d="M599 0h-288q-123 0 -185 74q-47 56 -47 138q0 65 35 117q34 50 92 73l39 -59q-41 -19 -64.5 -53t-23.5 -75q0 -59 44 -97q41 -37 104 -37h276q126 0 126 127v213h83v-213q0 -66 31 -99q27 -28 73 -28h20v-81h-28q-91 0 -138 63q-49 -63 -149 -63zM485 -128
q0 -20 -15.5 -35.5t-35.5 -15.5q-21 0 -36.5 15.5t-15.5 35.5q0 21 15.5 36.5t36.5 15.5q20 0 35.5 -15.5t15.5 -36.5z" />
    <glyph glyph-name="uniFE91" unicode="&#x628;" horiz-adv-x="285" arabic-form="initial" 
d="M-10 0v81h20q53 0 80 37q24 33 24 90v213h84v-226q0 -102 -58 -154q-46 -41 -122 -41h-28zM94 -179q-20 0 -35.5 15.5t-15.5 35.5q0 21 15.5 36.5t35.5 15.5q21 0 36.5 -15.5t15.5 -36.5q0 -20 -15.5 -35.5t-36.5 -15.5z" />
    <glyph glyph-name="uniFE92" unicode="&#x628;" horiz-adv-x="312" arabic-form="medial" 
d="M-10 0v81h20q53 0 80 37q24 33 24 90v213h84v-213q0 -66 31 -99q27 -28 73 -28h20v-81h-28q-91 0 -138 63q-47 -63 -138 -63h-28zM156 -179q-21 0 -36.5 15.5t-15.5 35.5q0 21 15.5 36.5t36.5 15.5t36.5 -15.5t15.5 -36.5q0 -20 -15.5 -35.5t-36.5 -15.5z" />
    <glyph glyph-name="uniFE93" unicode="&#x629;" horiz-adv-x="505" arabic-form="isolated" 
d="M238 554q0 -20 -15.5 -35.5t-36.5 -15.5q-20 0 -35.5 15.5t-15.5 35.5q0 21 15.5 36.5t35.5 15.5q21 0 36.5 -15.5t15.5 -36.5zM359 554q0 -21 -15.5 -36t-36.5 -15q-20 0 -35.5 15.5t-15.5 35.5q0 21 15.5 36.5t35.5 15.5q21 0 36.5 -15.5t15.5 -36.5zM265 -11h-25
q-84 0 -131 68q-41 60 -41 157q0 110 56 169q49 52 128 52q92 0 141 -67q44 -58 44 -154q0 -111 -53 -172q-45 -53 -119 -53zM148 213q0 -73 29 -111q24 -32 66 -32h18q48 0 73 42q22 37 22 101q0 73 -31 110q-26 32 -73 32q-54 0 -81 -42q-23 -36 -23 -100z" />
    <glyph glyph-name="uniFE94" unicode="&#x629;" horiz-adv-x="534" arabic-form="final" 
d="M229 597q0 -21 -15.5 -36.5t-36.5 -15.5t-36.5 15.5t-15.5 36.5q0 20 15.5 35.5t36.5 15.5t36.5 -15.5t15.5 -35.5zM350 597q0 -21 -15.5 -36.5t-36.5 -15.5t-36.5 15.5t-15.5 36.5q0 20 15.5 35.5t36.5 15.5t36.5 -15t15.5 -36zM544 0h-28q-102 0 -149 78
q-53 -53 -128 -53q-80 0 -129 60q-45 56 -45 146q0 106 66 164q57 50 146 50h62v45h81v-282q0 -66 31 -99q27 -28 73 -28h20v-81zM339 367h-59q-69 0 -104 -40q-29 -34 -29 -93q0 -64 29 -99q25 -31 67 -31q51 0 100 44q-4 20 -4 47v172z" />
    <glyph glyph-name="uniFE95" unicode="&#x62a;" horiz-adv-x="877" arabic-form="isolated" 
d="M449 465q0 -20 -15.5 -35.5t-36.5 -15.5t-36.5 15.5t-15.5 35.5q0 21 15.5 36.5t36.5 15.5t36.5 -15.5t15.5 -36.5zM570 465q0 -21 -15.5 -36t-36.5 -15t-36.5 15.5t-15.5 35.5q0 21 15.5 36.5t36.5 15.5t36.5 -15.5t15.5 -36.5zM599 0h-288q-123 0 -185 74
q-47 56 -47 138q0 65 35 117q34 50 92 73l39 -59q-41 -19 -64.5 -53t-23.5 -75q0 -59 44 -97q41 -37 104 -37h276q126 0 126 127v213h83v-226q0 -103 -58 -153q-49 -42 -133 -42z" />
    <glyph glyph-name="uniFE96" unicode="&#x62a;" horiz-adv-x="904" arabic-form="final" 
d="M449 465q0 -20 -15.5 -35.5t-36.5 -15.5t-36.5 15.5t-15.5 35.5q0 21 15.5 36.5t36.5 15.5t36.5 -15.5t15.5 -36.5zM570 465q0 -21 -15.5 -36t-36.5 -15t-36.5 15.5t-15.5 35.5q0 21 15.5 36.5t36.5 15.5t36.5 -15.5t15.5 -36.5zM599 0h-288q-123 0 -185 74
q-47 56 -47 138q0 65 35 117q34 50 92 73l39 -59q-41 -19 -64.5 -53t-23.5 -75q0 -59 44 -97q41 -37 104 -37h276q126 0 126 127v213h83v-213q0 -66 31 -99q27 -28 73 -28h20v-81h-28q-91 0 -138 63q-49 -63 -149 -63z" />
    <glyph glyph-name="uniFE97" unicode="&#x62a;" horiz-adv-x="285" arabic-form="initial" 
d="M144 554q0 -21 -15.5 -36.5t-35.5 -15.5q-21 0 -36.5 15.5t-15.5 36.5t15.5 36t36.5 15t36 -15t15 -36zM266 554q0 -21 -15.5 -36.5t-36.5 -15.5t-36.5 15.5t-15.5 36.5t15.5 36t36.5 15t36.5 -15.5t15.5 -35.5zM18 0h-28v81h20q53 0 80 37q24 33 24 90v213h84v-226
q0 -102 -58 -154q-46 -41 -122 -41z" />
    <glyph glyph-name="uniFE98" unicode="&#x62a;" horiz-adv-x="312" arabic-form="medial" 
d="M148 554q0 -21 -15.5 -36.5t-36.5 -15.5t-36.5 15.5t-15.5 36.5t15.5 36t36.5 15t36.5 -15t15.5 -36zM269 554q0 -21 -15.5 -36.5t-36.5 -15.5t-36.5 15.5t-15.5 36.5t15.5 36t36.5 15t36.5 -15t15.5 -36zM18 0h-28v81h20q53 0 80 37q24 33 24 90v213h84v-213
q0 -66 31 -99q27 -28 73 -28h20v-81h-28q-91 0 -138 63q-47 -63 -138 -63z" />
    <glyph glyph-name="uniFE99" unicode="&#x62b;" horiz-adv-x="877" arabic-form="isolated" 
d="M505 570q0 -19 -14 -33t-33 -14t-33.5 14t-14.5 33t14 33t34 14q19 0 33 -14t14 -33zM449 465q0 -20 -15.5 -35.5t-36.5 -15.5t-36.5 15.5t-15.5 35.5q0 21 15.5 36.5t36.5 15.5t36.5 -15.5t15.5 -36.5zM570 465q0 -20 -15.5 -35.5t-36.5 -15.5t-36.5 15.5t-15.5 35.5
q0 21 15.5 36.5t36.5 15.5t36.5 -15.5t15.5 -36.5zM599 0h-288q-123 0 -185 74q-47 56 -47 138q0 65 35 117q34 50 92 73l39 -59q-41 -19 -64.5 -53t-23.5 -75q0 -59 44 -97q41 -37 104 -37h276q126 0 126 127v213h83v-226q0 -103 -58 -153q-49 -42 -133 -42z" />
    <glyph glyph-name="uniFE9A" unicode="&#x62b;" horiz-adv-x="904" arabic-form="final" 
d="M505 570q0 -19 -14 -33t-33 -14t-33.5 14t-14.5 33t14 33t34 14q19 0 33 -14t14 -33zM449 465q0 -20 -15.5 -35.5t-36.5 -15.5t-36.5 15.5t-15.5 35.5q0 21 15.5 36.5t36.5 15.5t36.5 -15.5t15.5 -36.5zM570 465q0 -20 -15.5 -35.5t-36.5 -15.5t-36.5 15.5t-15.5 35.5
q0 21 15.5 36.5t36.5 15.5t36.5 -15.5t15.5 -36.5zM599 0h-288q-123 0 -185 74q-47 56 -47 138q0 65 35 117q34 50 92 73l39 -59q-41 -19 -64.5 -53t-23.5 -75q0 -59 44 -97q41 -37 104 -37h276q126 0 126 127v213h83v-213q0 -66 31 -99q27 -28 73 -28h20v-81h-28
q-91 0 -138 63q-49 -63 -149 -63z" />
    <glyph glyph-name="uniFE9B" unicode="&#x62b;" horiz-adv-x="285" arabic-form="initial" 
d="M201 659q0 -19 -14 -33t-34 -14q-19 0 -33 14t-14 33t14 33t33 14t33.5 -14t14.5 -33zM144 554q0 -21 -15.5 -36.5t-35.5 -15.5q-21 0 -36.5 15.5t-15.5 36.5t15.5 36t36.5 15t36 -15t15 -36zM266 554q0 -21 -15.5 -36.5t-36.5 -15.5t-36.5 15.5t-15.5 36.5t15.5 36
t36.5 15t36.5 -15.5t15.5 -35.5zM18 0h-28v81h20q53 0 80 37q24 33 24 90v213h84v-226q0 -102 -58 -154q-46 -41 -122 -41z" />
    <glyph glyph-name="uniFE9C" unicode="&#x62b;" horiz-adv-x="312" arabic-form="medial" 
d="M204 659q0 -19 -14 -33t-33 -14q-20 0 -34 14t-14 33t14.5 33t33.5 14t33 -14t14 -33zM148 554q0 -21 -15.5 -36.5t-36.5 -15.5t-36.5 15.5t-15.5 36.5t15.5 36t36.5 15t36.5 -15t15.5 -36zM269 554q0 -21 -15.5 -36.5t-36.5 -15.5t-36.5 15.5t-15.5 36.5t15.5 36
t36.5 15t36.5 -15t15.5 -36zM18 0h-28v81h20q53 0 80 37q24 33 24 90v213h84v-213q0 -66 31 -99q27 -28 73 -28h20v-81h-28q-91 0 -138 63q-47 -63 -138 -63z" />
    <glyph glyph-name="uniFE9D" unicode="&#x62c;" horiz-adv-x="587" arabic-form="isolated" 
d="M507 -309q-87 -59 -188 -59q-115 0 -187 76q-66 70 -66 182q0 151 118 239q103 76 281 93q-83 114 -176 114q-72 0 -142 -67l-48 54q83 93 193 93q86 0 160 -61q66 -55 105 -146v-56q-209 -8 -316 -86q-93 -68 -93 -178q0 -88 61 -137q50 -39 121 -39q76 0 142 41z
M371 -111q0 -20 -15 -34.5t-35 -14.5t-35 15t-15 34q0 20 15 35t35 15t35 -15t15 -35z" />
    <glyph glyph-name="uniFE9E" unicode="&#x62c;" horiz-adv-x="678" arabic-form="final" 
d="M507 -309q-87 -59 -188 -59q-115 0 -187 76q-66 70 -66 182q0 151 118 239q103 76 281 93q-83 114 -176 114q-72 0 -142 -67l-48 54q83 93 193 93q86 0 160 -61q66 -55 105 -146v-42q-39 -3 -83 -11q22 -41 64.5 -58t121.5 -17h28v-81h-32q-112 0 -173 36q-55 32 -83 98
q-130 -30 -195 -99q-57 -61 -57 -146q0 -88 61 -137q50 -39 121 -39q76 0 142 41zM371 -111q0 -20 -15 -34.5t-35 -14.5t-35 15t-15 34q0 20 15 35t35 15t35 -15t15 -35z" />
    <glyph glyph-name="uniFE9F" unicode="&#x62c;" horiz-adv-x="558" arabic-form="initial" 
d="M127 0h-137v81h130q119 0 190 35q55 27 116 94q-85 126 -183 126q-72 0 -142 -67l-48 54q83 93 193 93q86 0 160 -61q66 -55 105 -146v-21q-84 -109 -166 -148q-84 -40 -218 -40zM301 -128q0 -20 -15.5 -35.5t-36.5 -15.5q-20 0 -35.5 15.5t-15.5 35.5q0 21 15.5 36.5
t35.5 15.5q21 0 36.5 -15.5t15.5 -36.5z" />
    <glyph glyph-name="uniFEA0" unicode="&#x62c;" horiz-adv-x="671" arabic-form="medial" 
d="M127 0h-137v81h130q119 0 190 35q55 27 116 94q-85 126 -183 126q-72 0 -142 -67l-48 54q83 93 193 93q86 0 160 -61q66 -55 105 -146v-19q-24 -32 -36 -46q22 -33 64 -48t115 -15h27v-81h-32q-92 0 -149 24q-52 22 -83 65q-56 -47 -124.5 -68t-165.5 -21zM329 -128
q0 -20 -15.5 -35.5t-36.5 -15.5t-36.5 15.5t-15.5 35.5q0 21 15.5 36.5t36.5 15.5t36.5 -15.5t15.5 -36.5z" />
    <glyph glyph-name="uniFEA1" unicode="&#x62d;" horiz-adv-x="587" arabic-form="isolated" 
d="M507 -309q-87 -59 -188 -59q-115 0 -187 76q-66 70 -66 182q0 151 118 239q103 76 281 93q-83 114 -176 114q-72 0 -142 -67l-48 54q83 93 193 93q86 0 160 -61q66 -55 105 -146v-56q-209 -8 -316 -86q-93 -68 -93 -178q0 -88 61 -137q50 -39 121 -39q76 0 142 41z" />
    <glyph glyph-name="uniFEA2" unicode="&#x62d;" horiz-adv-x="678" arabic-form="final" 
d="M507 -309q-87 -59 -188 -59q-115 0 -187 76q-66 70 -66 182q0 151 118 239q103 76 281 93q-83 114 -176 114q-72 0 -142 -67l-48 54q83 93 193 93q86 0 160 -61q66 -55 105 -146v-42q-33 -3 -83 -11q22 -40 65 -57.5t121 -17.5h28v-81h-32q-112 0 -173 36q-55 32 -83 98
q-130 -30 -195 -99q-57 -61 -57 -146q0 -88 61 -137q50 -39 121 -39q76 0 142 41z" />
    <glyph glyph-name="uniFEA3" unicode="&#x62d;" horiz-adv-x="558" arabic-form="initial" 
d="M127 0h-137v81h130q119 0 190 35q55 27 116 94q-85 126 -183 126q-72 0 -142 -67l-48 54q83 93 193 93q86 0 160 -61q66 -55 105 -146v-21q-84 -109 -166 -148q-84 -40 -218 -40z" />
    <glyph glyph-name="uniFEA4" unicode="&#x62d;" horiz-adv-x="671" arabic-form="medial" 
d="M127 0h-137v81h130q119 0 190 35q55 27 116 94q-85 126 -183 126q-72 0 -142 -67l-48 54q83 93 193 93q86 0 160 -61q66 -55 105 -146v-19q-24 -32 -36 -46q22 -33 64 -48t115 -15h27v-81h-32q-92 0 -149 24q-52 22 -83 65q-56 -47 -124.5 -68t-165.5 -21z" />
    <glyph glyph-name="uniFEA5" unicode="&#x62e;" horiz-adv-x="587" arabic-form="isolated" 
d="M343 551q0 -21 -15 -36t-36 -15t-36.5 15t-15.5 36t15.5 36t36.5 15t36 -15t15 -36zM507 -309q-87 -59 -188 -59q-115 0 -187 76q-66 70 -66 182q0 151 118 239q103 76 281 93q-83 114 -176 114q-72 0 -142 -67l-48 54q83 93 193 93q86 0 160 -61q66 -55 105 -146v-56
q-209 -8 -316 -86q-93 -68 -93 -178q0 -88 61 -137q50 -39 121 -39q76 0 142 41z" />
    <glyph glyph-name="uniFEA6" unicode="&#x62e;" horiz-adv-x="678" arabic-form="final" 
d="M344 551q0 -21 -15.5 -36t-36.5 -15t-36 15t-15 36t15 36t36 15t36.5 -15t15.5 -36zM507 -309q-87 -59 -188 -59q-115 0 -187 76q-66 70 -66 182q0 151 118 239q103 76 281 93q-83 114 -176 114q-72 0 -142 -67l-48 54q83 93 193 93q86 0 160 -61q66 -55 105 -146v-42
q-33 -3 -83 -11q22 -40 65 -57.5t121 -17.5h28v-81h-32q-112 0 -173 36q-55 32 -83 98q-130 -30 -195 -99q-57 -61 -57 -146q0 -88 61 -137q50 -39 121 -39q76 0 142 41z" />
    <glyph glyph-name="uniFEA7" unicode="&#x62e;" horiz-adv-x="558" arabic-form="initial" 
d="M302 551q0 -21 -15.5 -36t-36.5 -15t-36.5 15t-15.5 36t15.5 36t36.5 15t36.5 -15t15.5 -36zM127 0h-137v81h130q119 0 190 35q55 27 116 94q-85 126 -183 126q-72 0 -142 -67l-48 54q83 93 193 93q86 0 160 -61q66 -55 105 -146v-21q-84 -109 -166 -148
q-84 -40 -218 -40z" />
    <glyph glyph-name="uniFEA8" unicode="&#x62e;" horiz-adv-x="671" arabic-form="medial" 
d="M305 551q0 -21 -15.5 -36t-36.5 -15t-36 15t-15 36t15 36t36 15t36.5 -15t15.5 -36zM127 0h-137v81h130q119 0 190 35q55 27 116 94q-85 126 -183 126q-72 0 -142 -67l-48 54q83 93 193 93q86 0 160 -61q66 -55 105 -146v-19q-24 -32 -36 -46q22 -33 64 -48t115 -15h27
v-81h-32q-92 0 -149 24q-52 22 -83 65q-56 -47 -124.5 -68t-165.5 -21z" />
    <glyph glyph-name="uniFEA9" unicode="&#x62f;" horiz-adv-x="460" arabic-form="isolated" 
d="M222 0h-202v81h181q101 0 101 87q0 51 -32.5 103.5t-90.5 95.5l49 66q80 -58 121 -132q36 -65 36 -133q0 -168 -163 -168z" />
    <glyph glyph-name="uniFEAA" unicode="&#x62f;" horiz-adv-x="497" arabic-form="final" 
d="M222 0h-202v81h181q101 0 101 87q0 51 -32.5 103.5t-90.5 95.5l49 66q78 -57 119 -128q37 -63 38 -129q1 -48 34 -74q27 -21 68 -21h20v-81h-28q-82 0 -127 51q-43 -51 -130 -51z" />
    <glyph glyph-name="uniFEAB" unicode="&#x630;" horiz-adv-x="460" arabic-form="isolated" 
d="M254 549q0 -20 -15.5 -35.5t-36.5 -15.5q-20 0 -36 15.5t-16 35.5q0 21 15.5 36.5t36.5 15.5t36.5 -15.5t15.5 -36.5zM222 0h-202v81h181q101 0 101 87q0 51 -32.5 103.5t-90.5 95.5l49 66q80 -58 121 -132q36 -65 36 -133q0 -168 -163 -168z" />
    <glyph glyph-name="uniFEAC" unicode="&#x630;" horiz-adv-x="497" arabic-form="final" 
d="M250 549q0 -20 -15.5 -35.5t-36.5 -15.5t-36.5 15.5t-15.5 35.5q0 21 15.5 36.5t36.5 15.5t36.5 -15.5t15.5 -36.5zM222 0h-202v81h181q101 0 101 87q0 51 -32.5 103.5t-90.5 95.5l49 66q78 -57 119 -128q37 -63 38 -129q1 -48 34 -74q27 -21 68 -21h20v-81h-28
q-82 0 -127 51q-43 -51 -130 -51z" />
    <glyph glyph-name="uniFEAD" unicode="&#x631;" horiz-adv-x="346" arabic-form="isolated" 
d="M259 421v-401q0 -110 -58 -165q-48 -45 -125 -45q-62 0 -127 32l23 69q50 -24 91 -24q55 0 85 37q27 35 27 97v400h84z" />
    <glyph glyph-name="uniFEAE" unicode="&#x631;" horiz-adv-x="373" arabic-form="final" 
d="M257 27v-13q-2 -106 -57 -159q-47 -45 -124 -45q-62 0 -127 32l23 69q50 -24 91 -24q55 0 85 37q27 35 27 97v400h84v-213q0 -66 31 -99q27 -28 73 -28h20v-81h-28q-56 0 -98 27z" />
    <glyph glyph-name="uniFEAF" unicode="&#x632;" horiz-adv-x="346" arabic-form="isolated" 
d="M269 551q0 -21 -15.5 -36t-36.5 -15t-36 15t-15 36t15 36t36 15t36.5 -15t15.5 -36zM259 421v-401q0 -110 -58 -165q-48 -45 -125 -45q-62 0 -127 32l23 69q50 -24 91 -24q55 0 85 37q27 35 27 97v400h84z" />
    <glyph glyph-name="uniFEB0" unicode="&#x632;" horiz-adv-x="373" arabic-form="final" 
d="M265 551q0 -21 -15.5 -36t-36.5 -15t-36.5 15t-15.5 36t15.5 36t36.5 15t36.5 -15t15.5 -36zM257 27v-13q-2 -106 -57 -159q-47 -45 -124 -45q-62 0 -127 32l23 69q50 -24 91 -24q55 0 85 37q27 35 27 97v400h84v-213q0 -66 31 -99q27 -28 73 -28h20v-81h-28
q-56 0 -98 27z" />
    <glyph glyph-name="uniFEB1" unicode="&#x633;" horiz-adv-x="1261" arabic-form="isolated" 
d="M579 3q-19 -100 -97 -152q-64 -42 -154 -42q-126 0 -196 74q-63 67 -63 178q0 89 46 160l68 -29q-33 -64 -33 -127q0 -81 51 -129q48 -46 127 -46q77 0 127 50q48 48 48 128v289h84v-151q0 -64 31 -97q27 -28 73 -28q53 0 81 36q24 33 24 89v151h83v-151q0 -64 31 -97
q28 -28 74 -28q54 0 82 36q24 33 24 89v215h83v-226q0 -103 -58 -154q-48 -41 -129 -41q-103 0 -148 63q-45 -63 -146 -63q-69 0 -110 28z" />
    <glyph glyph-name="uniFEB2" unicode="&#x633;" horiz-adv-x="1320" arabic-form="final" 
d="M580 14q-16 -106 -95 -160q-65 -45 -157 -45q-126 0 -196 74q-63 67 -63 178q0 89 46 160l68 -29q-33 -64 -33 -127q0 -81 51 -129q48 -46 127 -46q77 0 127 50q48 48 48 128v289h84v-151q0 -64 31 -97q27 -28 73 -28q53 0 81 36q24 33 24 89v151h84v-151q0 -64 31 -97
q27 -28 73 -28q54 0 82 36q24 33 24 89v151h83v-149q0 -66 31 -99q27 -28 74 -28h52v-81h-60q-92 0 -139 64q-45 -64 -145 -64q-103 0 -148 63q-45 -63 -145 -63q-70 0 -111 28q0 -4 -2 -12v-2z" />
    <glyph glyph-name="uniFEB3" unicode="&#x633;" horiz-adv-x="904" arabic-form="initial" 
d="M50 0h-60v81h52q53 0 80 37q24 33 24 90v149h84v-151q0 -64 31 -97q27 -28 72 -28q106 0 106 125v151h83v-151q0 -65 31 -97q27 -28 75 -28q53 0 81 36q24 33 24 89v215h83v-226q0 -104 -58 -154q-47 -41 -130 -41q-101 0 -147 63q-45 -63 -150 -63q-98 0 -143 63
q-47 -63 -138 -63z" />
    <glyph glyph-name="uniFEB4" unicode="&#x633;" horiz-adv-x="963" arabic-form="medial" 
d="M50 0h-60v81h52q53 0 80 37q24 33 24 90v149h84v-151q0 -64 31 -97q26 -28 70 -28q108 0 108 125v151h83v-151q0 -64 32 -97q27 -28 74 -28q55 0 82 38q23 32 23 87v151h83v-149q0 -66 31 -99q27 -28 74 -28h52v-81h-61q-90 0 -137 63q-46 -63 -148 -63q-100 0 -146 63
q-45 -63 -152 -63q-96 0 -141 63q-47 -63 -138 -63z" />
    <glyph glyph-name="uniFEB5" unicode="&#x634;" horiz-adv-x="1261" arabic-form="isolated" 
d="M884 620q0 -19 -14 -33t-33 -14q-20 0 -33.5 13.5t-13.5 33.5q0 19 14 33t33 14t33 -14t14 -33zM828 515q0 -21 -15.5 -36.5t-36.5 -15.5t-36.5 15.5t-15.5 36.5q0 20 15.5 35.5t36.5 15.5t36.5 -15.5t15.5 -35.5zM949 515q0 -21 -15.5 -36.5t-36.5 -15.5t-36.5 15.5
t-15.5 36.5q0 20 16 35.5t36 15.5q21 0 36.5 -15.5t15.5 -35.5zM579 3q-19 -100 -97 -152q-64 -42 -154 -42q-126 0 -196 74q-63 67 -63 178q0 89 46 160l68 -29q-33 -64 -33 -127q0 -81 51 -129q48 -46 127 -46q77 0 127 50q48 48 48 128v289h84v-151q0 -64 31 -97
q27 -28 73 -28q53 0 81 36q24 33 24 89v151h83v-151q0 -64 31 -97q28 -28 74 -28q54 0 82 36q24 33 24 89v215h83v-226q0 -103 -58 -154q-48 -41 -129 -41q-103 0 -148 63q-45 -63 -146 -63q-69 0 -110 28z" />
    <glyph glyph-name="uniFEB6" unicode="&#x634;" horiz-adv-x="1320" arabic-form="final" 
d="M884 620q0 -19 -14 -33t-33 -14q-20 0 -33.5 13.5t-13.5 33.5q0 19 14 33t33 14t33 -14t14 -33zM828 515q0 -21 -15.5 -36.5t-36.5 -15.5t-36.5 15.5t-15.5 36.5q0 20 15.5 35.5t36.5 15.5t36.5 -15.5t15.5 -35.5zM949 515q0 -21 -15.5 -36.5t-36.5 -15.5t-36.5 15.5
t-15.5 36.5q0 20 16 35.5t36 15.5q21 0 36.5 -15.5t15.5 -35.5zM580 14q-16 -106 -95 -160q-65 -45 -157 -45q-126 0 -196 74q-63 67 -63 178q0 89 46 160l68 -29q-33 -64 -33 -127q0 -81 51 -129q48 -46 127 -46q77 0 127 50q48 48 48 128v289h84v-151q0 -64 31 -97
q27 -28 73 -28q53 0 81 36q24 33 24 89v151h84v-151q0 -64 31 -97q27 -28 73 -28q54 0 82 36q24 33 24 89v151h83v-149q0 -66 31 -99q27 -28 74 -28h52v-81h-60q-92 0 -139 64q-45 -64 -145 -64q-103 0 -148 63q-45 -63 -145 -63q-70 0 -111 28q0 -4 -2 -12v-2z" />
    <glyph glyph-name="uniFEB7" unicode="&#x634;" horiz-adv-x="904" arabic-form="initial" 
d="M526 620q0 -19 -14 -33t-33 -14q-20 0 -34 14t-14 33t14.5 33t33.5 14t33 -14t14 -33zM470 515q0 -21 -15.5 -36.5t-36.5 -15.5t-36.5 15.5t-15.5 36.5q0 20 15.5 35.5t36.5 15.5t36.5 -15.5t15.5 -35.5zM591 515q0 -21 -15.5 -36.5t-36.5 -15.5t-36.5 15.5t-15.5 36.5
q0 20 15.5 35.5t36.5 15.5t36.5 -15.5t15.5 -35.5zM50 0h-60v81h52q53 0 80 37q24 33 24 90v149h84v-151q0 -64 31 -97q27 -28 72 -28q106 0 106 125v151h83v-151q0 -65 31 -97q27 -28 75 -28q53 0 81 36q24 33 24 89v215h83v-226q0 -104 -58 -154q-47 -41 -130 -41
q-101 0 -147 63q-45 -63 -150 -63q-98 0 -143 63q-47 -63 -138 -63z" />
    <glyph glyph-name="uniFEB8" unicode="&#x634;" horiz-adv-x="963" arabic-form="medial" 
d="M528 620q0 -19 -14 -33t-33 -14t-33 14t-14 33t14 33t33 14t33 -14t14 -33zM472 515q0 -21 -15.5 -36.5t-36.5 -15.5t-36.5 15.5t-15.5 36.5q0 20 16 35.5t36 15.5q21 0 36.5 -15.5t15.5 -35.5zM593 515q0 -21 -15.5 -36.5t-36.5 -15.5q-20 0 -35.5 15.5t-15.5 36.5
q0 20 15.5 35.5t35.5 15.5q21 0 36.5 -15.5t15.5 -35.5zM50 0h-60v81h52q53 0 80 37q24 33 24 90v149h84v-151q0 -64 31 -97q26 -28 70 -28q108 0 108 125v151h83v-151q0 -64 32 -97q27 -28 74 -28q55 0 82 38q23 32 23 87v151h83v-149q0 -66 31 -99q27 -28 74 -28h52v-81
h-61q-90 0 -137 63q-46 -63 -148 -63q-100 0 -146 63q-45 -63 -152 -63q-96 0 -141 63q-47 -63 -138 -63z" />
    <glyph glyph-name="uniFEB9" unicode="&#x635;" horiz-adv-x="1379" arabic-form="isolated" 
d="M580 13q-16 -105 -95 -160q-65 -44 -157 -44q-126 0 -196 74q-63 67 -63 178q0 89 46 160l68 -29q-33 -64 -33 -127q0 -81 51 -129q48 -46 127 -46q77 0 127 50q48 48 48 128v262h84v-122q0 -63 29 -97q25 -28 68 -30q77 189 200 281q94 71 197 71q108 0 168 -67
q54 -60 54 -158q0 -116 -58 -165q-52 -43 -161 -43h-402q-60 2 -100 29q0 -2 -1 -9q-1 -5 -1 -7zM767 81h311q83 0 114 34q27 29 27 94q0 143 -134 143q-96 0 -186 -82q-78 -72 -132 -189z" />
    <glyph glyph-name="uniFEBA" unicode="&#x635;" horiz-adv-x="1408" arabic-form="final" 
d="M581 19q-15 -109 -94 -164q-65 -46 -159 -46q-126 0 -196 74q-63 67 -63 178q0 89 46 160l68 -29q-33 -64 -33 -127q0 -81 51 -129q48 -46 127 -46q77 0 127 50q48 49 48 129v261h84v-122q0 -63 29 -97q25 -28 68 -30q77 189 200 281q94 71 196 71q108 0 168 -67
q54 -59 54 -157q0 -67 32 -100q26 -28 72 -28h12v-81h-20q-90 0 -137 62q-48 -62 -177 -62h-402q-60 2 -100 29zM767 81h311q83 0 114 34q27 29 27 94q0 143 -135 143q-95 0 -185 -82q-78 -72 -132 -189z" />
    <glyph glyph-name="uniFEBB" unicode="&#x635;" horiz-adv-x="981" arabic-form="initial" 
d="M9 0h-19v81h11q53 0 81 37q24 32 24 90v122h83v-122q0 -63 29 -97q25 -28 68 -30q77 189 200 281q94 71 197 71q108 0 168 -67q54 -61 54 -160q0 -114 -58 -163q-52 -43 -161 -43h-403q-90 2 -135 63q-47 -63 -139 -63zM369 81h311q83 0 114 34q27 29 27 94
q0 143 -134 143q-96 0 -186 -82q-78 -72 -132 -189z" />
    <glyph glyph-name="uniFEBC" unicode="&#x635;" horiz-adv-x="1010" arabic-form="medial" 
d="M9 0h-19v81h11q53 0 81 37q24 32 24 90v122h83v-122q0 -63 29 -97q25 -28 68 -30q77 189 200 281q94 71 197 71q108 0 168 -68q54 -61 54 -163q0 -62 32 -94q27 -27 72 -27h11v-81h-20q-89 0 -136 62q-49 -62 -178 -62h-403q-90 2 -135 63q-47 -63 -139 -63zM369 81h311
q83 0 114 34q27 30 27 95q0 74 -39 110q-34 32 -95 32q-96 0 -186 -82q-78 -72 -132 -189z" />
    <glyph glyph-name="uniFEBD" unicode="&#x636;" horiz-adv-x="1379" arabic-form="isolated" 
d="M1105 570q0 -21 -15.5 -36.5t-36.5 -15.5t-36.5 15.5t-15.5 36.5q0 20 15.5 35.5t36.5 15.5t36.5 -15.5t15.5 -35.5zM580 13q-16 -105 -95 -160q-65 -44 -157 -44q-126 0 -196 74q-63 67 -63 178q0 89 46 160l68 -29q-33 -64 -33 -127q0 -81 51 -129q48 -46 127 -46
q77 0 127 50q48 48 48 128v262h84v-122q0 -63 29 -97q25 -28 68 -30q77 189 200 281q94 71 197 71q108 0 168 -67q54 -60 54 -158q0 -116 -58 -165q-52 -43 -161 -43h-402q-60 2 -100 29q0 -2 -1 -9q-1 -5 -1 -7zM767 81h311q83 0 114 34q27 29 27 94q0 143 -134 143
q-96 0 -186 -82q-78 -72 -132 -189z" />
    <glyph glyph-name="uniFEBE" unicode="&#x636;" horiz-adv-x="1408" arabic-form="final" 
d="M1108 570q0 -21 -15.5 -36.5t-36.5 -15.5t-36.5 15.5t-15.5 36.5q0 20 15.5 35.5t36.5 15.5q20 0 36 -15.5t16 -35.5zM581 19q-15 -109 -94 -164q-65 -46 -159 -46q-126 0 -196 74q-63 67 -63 178q0 89 46 160l68 -29q-33 -64 -33 -127q0 -81 51 -129q48 -46 127 -46
q77 0 127 50q48 49 48 129v261h84v-122q0 -63 29 -97q25 -28 68 -30q77 189 200 281q94 71 196 71q108 0 168 -67q54 -59 54 -157q0 -67 32 -100q26 -28 72 -28h12v-81h-20q-90 0 -137 62q-48 -62 -177 -62h-402q-60 2 -100 29zM767 81h311q83 0 114 34q27 29 27 94
q0 143 -135 143q-95 0 -185 -82q-78 -72 -132 -189z" />
    <glyph glyph-name="uniFEBF" unicode="&#x636;" horiz-adv-x="981" arabic-form="initial" 
d="M723 570q0 -21 -15.5 -36.5t-36.5 -15.5q-20 0 -35.5 15.5t-15.5 36.5q0 20 15.5 35.5t35.5 15.5q21 0 36.5 -15.5t15.5 -35.5zM9 0h-19v81h11q53 0 81 37q24 32 24 90v122h83v-122q0 -63 29 -97q25 -28 68 -30q77 189 200 281q94 71 197 71q108 0 168 -67
q54 -61 54 -160q0 -114 -58 -163q-52 -43 -161 -43h-403q-90 2 -135 63q-47 -63 -139 -63zM369 81h311q83 0 114 34q27 29 27 94q0 143 -134 143q-96 0 -186 -82q-78 -72 -132 -189z" />
    <glyph glyph-name="uniFEC0" unicode="&#x636;" horiz-adv-x="1010" arabic-form="medial" 
d="M723 570q0 -21 -15.5 -36.5t-36.5 -15.5q-20 0 -35.5 15.5t-15.5 36.5q0 20 15.5 35.5t35.5 15.5q21 0 36.5 -15.5t15.5 -35.5zM9 0h-19v81h11q53 0 81 37q24 32 24 90v122h83v-122q0 -63 29 -97q25 -28 68 -30q77 189 200 281q94 71 197 71q108 0 168 -68
q54 -61 54 -163q0 -62 32 -94q27 -27 72 -27h11v-81h-20q-89 0 -136 62q-49 -62 -178 -62h-403q-90 2 -135 63q-47 -63 -139 -63zM369 81h311q83 0 114 34q27 30 27 95q0 74 -39 110q-34 32 -95 32q-96 0 -186 -82q-78 -72 -132 -189z" />
    <glyph glyph-name="uniFEC1" unicode="&#x637;" horiz-adv-x="856" arabic-form="isolated" 
d="M561 0h-538v81h137v585h83v-441q72 113 167 167q73 41 151 41q105 0 165 -67q54 -60 54 -158q0 -116 -58 -165q-52 -43 -161 -43zM246 81h309q83 0 114 34q27 29 27 94q0 143 -134 143q-95 0 -184 -82q-78 -72 -132 -189z" />
    <glyph glyph-name="uniFEC2" unicode="&#x637;" horiz-adv-x="887" arabic-form="final" 
d="M555 0h-532v81h131v585h83v-441q72 113 167 167q73 41 151 41q106 0 165 -67q54 -59 54 -157q0 -68 31 -100q27 -28 73 -28h19v-81h-28q-90 0 -137 62q-48 -62 -177 -62zM240 81h309q83 0 114 34q27 29 27 94q0 143 -134 143q-95 0 -185 -82q-77 -72 -131 -189z" />
    <glyph glyph-name="uniFEC3" unicode="&#x637;" horiz-adv-x="850" arabic-form="initial" 
d="M555 0h-565v81h163v585h83v-441q73 114 167 167q74 41 152 41q105 0 164 -67q54 -60 54 -159q0 -115 -58 -164q-52 -43 -160 -43zM239 81h310q83 0 114 34q27 29 27 94q0 143 -135 143q-95 0 -184 -82q-78 -72 -132 -189z" />
    <glyph glyph-name="uniFEC4" unicode="&#x637;" horiz-adv-x="887" arabic-form="medial" 
d="M555 0h-565v81h163v585h83v-441q73 114 167 167q74 41 152 41q105 0 165 -67q53 -59 53 -157q0 -67 32 -100q26 -28 72 -28h20v-81h-28q-90 0 -137 62q-48 -62 -177 -62zM239 81h309q84 0 115 34q27 29 27 94q0 143 -135 143q-95 0 -184 -82q-78 -72 -132 -189z" />
    <glyph glyph-name="uniFEC5" unicode="&#x638;" horiz-adv-x="856" arabic-form="isolated" 
d="M561 0h-538v81h137v585h83v-441q72 113 167 167q73 41 151 41q105 0 165 -67q54 -60 54 -158q0 -116 -58 -165q-52 -43 -161 -43zM605 591q0 -21 -15.5 -36.5t-36.5 -15.5t-36.5 15.5t-15.5 36.5q0 20 15.5 35.5t36.5 15.5t36.5 -15.5t15.5 -35.5zM246 81h309
q83 0 114 34q27 29 27 94q0 143 -134 143q-95 0 -184 -82q-78 -72 -132 -189z" />
    <glyph glyph-name="uniFEC6" unicode="&#x638;" horiz-adv-x="887" arabic-form="final" 
d="M555 0h-532v81h131v585h83v-441q72 113 167 167q73 41 151 41q106 0 165 -67q54 -59 54 -157q0 -68 31 -100q27 -28 73 -28h19v-81h-28q-90 0 -137 62q-48 -62 -177 -62zM605 591q0 -21 -15.5 -36.5t-36.5 -15.5t-36.5 15.5t-15.5 36.5q0 20 15.5 35.5t36.5 15.5
t36.5 -15.5t15.5 -35.5zM240 81h309q83 0 114 34q27 29 27 94q0 143 -134 143q-95 0 -185 -82q-77 -72 -131 -189z" />
    <glyph glyph-name="uniFEC7" unicode="&#x638;" horiz-adv-x="850" arabic-form="initial" 
d="M555 0h-565v81h163v585h83v-441q73 114 167 167q74 41 152 41q105 0 164 -67q54 -60 54 -159q0 -115 -58 -164q-52 -43 -160 -43zM587 591q0 -21 -15.5 -36.5t-36.5 -15.5t-36.5 15.5t-15.5 36.5q0 20 15.5 35.5t36.5 15.5t36.5 -15.5t15.5 -35.5zM239 81h310
q83 0 114 34q27 29 27 94q0 143 -135 143q-95 0 -184 -82q-78 -72 -132 -189z" />
    <glyph glyph-name="uniFEC8" unicode="&#x638;" horiz-adv-x="887" arabic-form="medial" 
d="M555 0h-565v81h163v585h83v-441q73 114 167 167q74 41 152 41q105 0 165 -67q53 -59 53 -157q0 -67 32 -100q26 -28 72 -28h20v-81h-28q-90 0 -137 62q-48 -62 -177 -62zM587 591q0 -21 -15.5 -36.5t-36.5 -15.5t-36.5 15.5t-15.5 36.5q0 20 15.5 35.5t36.5 15.5
t36.5 -15.5t15.5 -35.5zM239 81h309q84 0 115 34q27 29 27 94q0 143 -135 143q-95 0 -184 -82q-78 -72 -132 -189z" />
    <glyph glyph-name="uniFEC9" unicode="&#x639;" horiz-adv-x="578" arabic-form="isolated" 
d="M518 -309q-88 -59 -195 -59q-116 0 -188 67q-66 62 -66 161q0 67 32 121q29 49 80 78q-83 52 -83 160q0 97 62 156q54 52 137 52h168v-80h-154q-65 0 -100 -44q-28 -35 -28 -84q0 -52 39 -86q38 -33 98 -33h185v-81h-179q-88 0 -134 -50q-36 -40 -36 -100q0 -76 61 -120
q50 -36 121 -36q80 0 144 41z" />
    <glyph glyph-name="uniFECA" unicode="&#x639;" horiz-adv-x="664" arabic-form="final" 
d="M527 -309q-87 -59 -194 -59q-118 0 -189 62q-66 59 -66 157q0 92 59 150q25 25 120 86q-14 15 -51 56q-50 57 -79 80t-57 28v41q50 81 123 119q58 31 124 31q76 0 142 -41q63 -39 107 -109v-41q-33 -5 -62.5 -29.5t-82.5 -88.5q-21 -26 -32 -39q33 -13 65 -13h220v-81
h-247q-56 0 -108 35q-12 -11 -64 -45q-43 -28 -62 -52q-28 -35 -28 -80q0 -74 61 -113q49 -32 121 -32q81 0 144 41zM159 290q39 -25 108 -101q32 -36 51 -53q11 11 36 40q72 83 123 113q-67 75 -164 75q-47 0 -83 -17.5t-71 -56.5z" />
    <glyph glyph-name="uniFECB" unicode="&#x639;" horiz-adv-x="584" arabic-form="initial" 
d="M534 0h-544v81h145q-45 58 -45 138q0 97 62 156q54 52 137 52h168v-80h-154q-65 0 -100 -44q-28 -35 -28 -84q0 -60 39 -100q38 -38 98 -38h222v-81z" />
    <glyph glyph-name="uniFECC" unicode="&#x639;" horiz-adv-x="693" arabic-form="medial" 
d="M236 0h-246v81h222q36 0 66 15q-62 75 -103 110.5t-77 44.5v41q50 81 123 119q59 31 125 31q75 0 142 -41q62 -39 106 -109v-41q-30 -5 -58 -28t-84 -89q-22 -26 -35 -40q31 -13 62 -13h224v-81h-247q-56 0 -108 35q-53 -35 -112 -35zM188 290q38 -24 107 -101
q32 -35 51 -52q19 17 61 64q60 65 98 88q-67 75 -163 75q-47 0 -83 -17.5t-71 -56.5z" />
    <glyph glyph-name="uniFECD" unicode="&#x63a;" horiz-adv-x="578" arabic-form="isolated" 
d="M370 551q0 -21 -15.5 -36t-36.5 -15t-36.5 15t-15.5 36t15.5 36t36.5 15t36.5 -15t15.5 -36zM518 -309q-88 -59 -195 -59q-116 0 -188 67q-66 62 -66 161q0 67 32 121q29 49 80 78q-83 52 -83 160q0 97 62 156q54 52 137 52h168v-80h-154q-65 0 -100 -44q-28 -35 -28 -84
q0 -52 39 -86q38 -33 98 -33h185v-81h-179q-88 0 -134 -50q-36 -40 -36 -100q0 -76 61 -120q50 -36 121 -36q80 0 144 41z" />
    <glyph glyph-name="uniFECE" unicode="&#x63a;" horiz-adv-x="664" arabic-form="final" 
d="M363 553q0 -21 -15.5 -36.5t-36.5 -15.5t-36.5 15.5t-15.5 36.5q0 20 15.5 35.5t36.5 15.5t36.5 -15.5t15.5 -35.5zM527 -309q-87 -59 -194 -59q-118 0 -189 62q-66 59 -66 157q0 92 59 150q25 25 120 86q-14 15 -51 56q-50 57 -79 80t-57 28v41q50 81 123 119
q58 31 124 31q76 0 142 -41q63 -39 107 -109v-41q-33 -5 -62.5 -29.5t-82.5 -88.5q-21 -26 -32 -39q33 -13 65 -13h220v-81h-247q-56 0 -108 35q-12 -11 -64 -45q-43 -28 -62 -52q-28 -35 -28 -80q0 -74 61 -113q49 -32 121 -32q81 0 144 41zM159 290q39 -25 108 -101
q32 -36 51 -53q11 11 36 40q72 83 123 113q-67 75 -164 75q-47 0 -83 -17.5t-71 -56.5z" />
    <glyph glyph-name="uniFECF" unicode="&#x63a;" horiz-adv-x="584" arabic-form="initial" 
d="M364 551q0 -21 -15.5 -36t-36.5 -15t-36.5 15t-15.5 36t15.5 36t36.5 15t36.5 -15t15.5 -36zM534 0h-544v81h145q-45 58 -45 138q0 97 62 156q54 52 137 52h168v-80h-154q-65 0 -100 -44q-28 -35 -28 -84q0 -60 39 -100q38 -38 98 -38h222v-81z" />
    <glyph glyph-name="uniFED0" unicode="&#x63a;" horiz-adv-x="693" arabic-form="medial" 
d="M399 553q0 -21 -15.5 -36.5t-36.5 -15.5t-36.5 15.5t-15.5 36.5q0 20 15.5 35.5t36.5 15.5q20 0 36 -15.5t16 -35.5zM236 0h-246v81h222q36 0 66 15q-62 75 -103 110.5t-77 44.5v41q50 81 123 119q59 31 125 31q75 0 142 -41q62 -39 106 -109v-41q-30 -5 -58 -28t-84 -89
q-22 -26 -35 -40q31 -13 62 -13h224v-81h-247q-56 0 -108 35q-53 -35 -112 -35zM188 290q38 -24 107 -101q32 -35 51 -52q19 17 61 64q60 65 98 88q-67 75 -163 75q-47 0 -83 -17.5t-71 -56.5z" />
    <glyph glyph-name="uniFED1" unicode="&#x641;" horiz-adv-x="929" arabic-form="isolated" 
d="M725 551q0 -21 -15.5 -36.5t-36.5 -15.5t-36.5 15.5t-15.5 36.5q0 20 15.5 35.5t36.5 15.5t36.5 -15.5t15.5 -35.5zM683 0h-372q-123 0 -185 74q-47 56 -47 138q0 65 35 117q34 50 92 73l39 -59q-41 -19 -64.5 -53t-23.5 -75q0 -59 44 -97q41 -37 104 -37h231
q-39 56 -39 141q0 104 55 163q49 51 129 51q84 0 130 -53q40 -46 40 -118v-89q0 -84 -50 -132q-45 -44 -118 -44zM578 221q0 -73 38 -111q29 -29 68 -29q85 0 85 101v75q0 50 -25 76q-22 24 -63 24q-53 0 -80 -42q-23 -35 -23 -94z" />
    <glyph glyph-name="uniFED2" unicode="&#x641;" horiz-adv-x="956" arabic-form="final" 
d="M739 551q0 -21 -15.5 -36t-36.5 -15t-36.5 15t-15.5 36t15.5 36t36.5 15t36.5 -15t15.5 -36zM619 0h-308q-123 0 -185 74q-47 56 -47 138q0 65 35 117q34 50 92 73l39 -59q-41 -19 -64.5 -53t-23.5 -75q0 -59 44 -97q41 -37 104 -37h261q-69 69 -69 164q0 89 54 144
q51 51 133 51q94 0 145 -64q42 -53 42 -131q0 -46 -18.5 -89t-51.5 -75h165v-81h-218q-36 0 -64 7q-29 -7 -65 -7zM684 81q54 25 83 77q23 42 23 88q0 54 -30 86q-29 30 -76 30q-54 0 -83 -38q-23 -31 -23 -78q0 -52 31 -99q29 -44 75 -66z" />
    <glyph glyph-name="uniFED3" unicode="&#x641;" horiz-adv-x="535" arabic-form="initial" 
d="M342 551q0 -20 -15.5 -35.5t-36.5 -15.5t-36.5 15t-15.5 36t15.5 36t36.5 15t36.5 -15.5t15.5 -35.5zM289 0h-299v81h152q-39 56 -39 141q0 104 55 163q49 51 129 51q84 0 130 -53q40 -46 40 -118v-89q0 -84 -50 -132q-44 -43 -118 -44zM184 221q0 -73 38 -111
q29 -29 68 -29q85 0 85 101v75q0 50 -25 76q-22 24 -63 24q-53 0 -80 -42q-23 -35 -23 -94z" />
    <glyph glyph-name="uniFED4" unicode="&#x641;" horiz-adv-x="545" arabic-form="medial" 
d="M324 551q0 -21 -15.5 -36t-36.5 -15t-36 15t-15 36t15 36t36 15t36.5 -15t15.5 -36zM208 0h-218v81h165q-70 68 -70 164q0 89 55 144q51 51 132 51q95 0 146 -64q41 -52 41 -131q0 -46 -18 -89t-51 -75h165v-81h-218q-36 0 -65 7q-28 -7 -64 -7zM272 81q54 25 83 77
q24 42 24 88q0 54 -31 86q-29 30 -76 30q-54 0 -82 -38q-23 -31 -23 -78q0 -52 31 -99q28 -44 74 -66z" />
    <glyph glyph-name="uniFED5" unicode="&#x642;" horiz-adv-x="717" arabic-form="isolated" 
d="M456 555q0 -20 -15.5 -35.5t-36.5 -15.5q-20 0 -35.5 15.5t-15.5 35.5q0 21 15.5 36.5t35.5 15.5q21 0 36.5 -15.5t15.5 -36.5zM577 555q0 -21 -15.5 -36t-36.5 -15q-20 0 -35.5 15.5t-15.5 35.5q0 21 15.5 36.5t35.5 15.5q21 0 36.5 -15.5t15.5 -36.5zM553 29
q-41 -22 -84 -22q-93 0 -143 66q-43 56 -43 148q0 103 56 161q49 52 129 52q85 0 131 -53q40 -45 40 -118v-196q0 -135 -88 -207q-75 -61 -197 -61q-143 0 -219 80q-66 68 -66 182q0 89 46 160l68 -29q-33 -64 -33 -127q0 -85 56 -136q54 -50 148 -50q79 0 131 38
q47 34 63 93q4 12 5 19zM556 109v148q0 52 -21.5 76t-67.5 24q-53 0 -81 -42q-23 -35 -23 -93q0 -73 41 -110q31 -29 79 -29q36 0 73 26z" />
    <glyph glyph-name="uniFED6" unicode="&#x642;" horiz-adv-x="736" arabic-form="final" 
d="M456 554q0 -20 -15.5 -35.5t-36.5 -15.5q-20 0 -35.5 15.5t-15.5 35.5q0 21 15.5 36.5t35.5 15.5q21 0 36.5 -15.5t15.5 -36.5zM577 554q0 -21 -15.5 -36t-36.5 -15q-20 0 -35.5 15.5t-15.5 35.5q0 21 15.5 36.5t35.5 15.5q21 0 36.5 -15.5t15.5 -36.5zM632 0
q-22 -103 -103 -155q-71 -46 -175 -46q-143 0 -219 80q-66 68 -66 182q0 89 46 160l68 -29q-33 -64 -33 -127q0 -85 56 -136q54 -50 148 -50q76 0 129 36q46 33 64 88h-64q-103 2 -156 70q-44 56 -44 148q0 103 56 161q49 52 129 52q85 0 131 -53q40 -45 40 -118v-182h107
v-81h-114zM556 81v176q0 52 -21.5 76t-67.5 24q-53 0 -81 -42q-23 -35 -23 -93q0 -74 42 -111q33 -30 87 -30h64z" />
    <glyph glyph-name="uniFED7" unicode="&#x642;" horiz-adv-x="535" arabic-form="initial" 
d="M281 554q0 -20 -16 -35.5t-36 -15.5q-21 0 -36.5 15.5t-15.5 35.5q0 21 15.5 36.5t36.5 15.5t36.5 -15.5t15.5 -36.5zM402 554q0 -21 -15.5 -36t-36.5 -15t-36.5 15.5t-15.5 35.5q0 21 15.5 36.5t36.5 15.5t36.5 -15.5t15.5 -36.5zM289 0h-299v81h152q-39 56 -39 141
q0 104 55 163q49 51 129 51q84 0 130 -53q40 -46 40 -118v-89q0 -84 -50 -132q-44 -43 -118 -44zM184 221q0 -73 38 -111q29 -29 68 -29q85 0 85 101v75q0 50 -25 76q-22 24 -63 24q-53 0 -80 -42q-23 -35 -23 -94z" />
    <glyph glyph-name="uniFED8" unicode="&#x642;" horiz-adv-x="545" arabic-form="medial" 
d="M263 554q0 -20 -15.5 -35.5t-36.5 -15.5q-20 0 -35.5 15.5t-15.5 35.5q0 21 15.5 36.5t35.5 15.5q21 0 36.5 -15.5t15.5 -36.5zM384 554q0 -21 -15 -36t-36 -15t-36.5 15.5t-15.5 35.5q0 21 15.5 36.5t36.5 15.5t36 -15.5t15 -36.5zM208 0h-218v81h165q-70 68 -70 164
q0 89 55 144q51 51 132 51q95 0 146 -64q41 -52 41 -131q0 -46 -18 -89t-51 -75h165v-81h-218q-36 0 -65 7q-28 -7 -64 -7zM272 81q54 25 83 77q24 42 24 88q0 54 -31 86q-29 30 -76 30q-54 0 -82 -38q-23 -31 -23 -78q0 -52 31 -99q28 -44 74 -66z" />
    <glyph glyph-name="uniFED9" unicode="&#x643;" horiz-adv-x="877" arabic-form="isolated" 
d="M599 0h-288q-123 0 -185 74q-47 56 -47 138q0 65 35 117q34 50 92 73l39 -59q-41 -19 -64.5 -53t-23.5 -75q0 -59 44 -97q41 -37 104 -37h276q126 0 126 127v458h83v-471q0 -103 -58 -153q-49 -42 -133 -42zM467 359h-95v38h92q35 0 35 29q0 17 -13.5 28t-34.5 11
q-23 0 -50 -11v38l83 91l26 -20l-55 -62q40 -1 62 -20.5t22 -54.5q0 -31 -19 -49t-53 -18z" />
    <glyph glyph-name="uniFEDA" unicode="&#x643;" horiz-adv-x="904" arabic-form="final" 
d="M599 0h-287q-124 0 -186 74q-47 55 -47 138q0 65 35 117q34 50 92 73l39 -59q-41 -19 -64.5 -53t-23.5 -75q0 -59 44 -97q41 -37 104 -37h276q126 0 126 127v458h83v-458q0 -66 31 -99q27 -28 73 -28h20v-81h-28q-91 0 -138 63q-49 -63 -149 -63zM467 359h-95v38h92
q35 0 35 29q0 17 -13.5 28t-34.5 11q-23 0 -50 -11v38l83 91l26 -20l-55 -62q40 -1 62 -20.5t22 -54.5q0 -31 -19 -49t-53 -18z" />
    <glyph glyph-name="uniFEDB" unicode="&#x643;" horiz-adv-x="552" arabic-form="initial" 
d="M309 0h-319v81h307q122 0 122 118v2q0 55 -27 79q-27 23 -83 23h-260v80l222 229l47 -47l-173 -181h165q105 0 152 -54q41 -47 41 -137v-1q0 -101 -59 -150q-49 -42 -135 -42z" />
    <glyph glyph-name="uniFEDC" unicode="&#x643;" horiz-adv-x="617" arabic-form="medial" 
d="M309 0h-319v81h307q122 0 122 117v2q0 56 -27 80q-27 23 -83 23h-260v80l222 229l47 -47l-173 -181h166q192 0 192 -179v-3q0 -62 32 -94q27 -27 72 -27h20v-81h-28q-90 0 -138 62q-51 -62 -152 -62z" />
    <glyph glyph-name="uniFEDD" unicode="&#x644;" horiz-adv-x="674" arabic-form="isolated" 
d="M587 666v-599q0 -132 -84 -201q-69 -57 -175 -57q-126 0 -196 74q-63 67 -63 178q0 89 46 160l68 -29q-33 -64 -33 -127q0 -81 51 -129q48 -46 127 -46q77 0 127 50q48 48 48 128v598h84z" />
    <glyph glyph-name="uniFEDE" unicode="&#x644;" horiz-adv-x="700" arabic-form="final" 
d="M580 16q-16 -107 -94 -162q-65 -45 -158 -45q-126 0 -196 74q-63 67 -63 178q0 89 46 160l68 -29q-33 -64 -33 -127q0 -81 51 -129q48 -46 127 -46q77 0 127 50q48 48 48 128v598h84v-458q0 -66 31 -99q27 -28 73 -28h19v-81h-27q-59 0 -101 29q0 -5 -2 -13z" />
    <glyph glyph-name="uniFEDF" unicode="&#x644;" horiz-adv-x="284" arabic-form="initial" 
d="M17 0h-27v81h18q53 0 81 37q24 32 24 90v458h83v-471q0 -102 -57 -154q-47 -41 -122 -41z" />
    <glyph glyph-name="uniFEE0" unicode="&#x644;" horiz-adv-x="309" arabic-form="medial" 
d="M17 0h-27v81h18q53 0 81 37q24 32 24 90v458h83v-458q0 -66 31 -99q27 -28 74 -28h18v-81h-26q-93 0 -138 63q-47 -63 -138 -63z" />
    <glyph glyph-name="uniFEE1" unicode="&#x645;" horiz-adv-x="559" arabic-form="isolated" 
d="M104 -315h-84v223q0 73 37 117q30 37 83 49q9 3 29 5q-42 57 -42 143q0 104 56 163q49 51 128 51q84 0 131 -53q40 -46 40 -118v-92q0 -81 -47 -128q-42 -42 -112 -45h-114q-59 0 -82 -25.5t-23 -92.5v-197zM208 221q0 -73 37 -111q28 -29 68 -29q87 0 87 98v78
q0 52 -21.5 76t-67.5 24q-53 0 -80 -42q-23 -35 -23 -94z" />
    <glyph glyph-name="uniFEE2" unicode="&#x645;" horiz-adv-x="616" arabic-form="final" 
d="M104 -315h-84v223q0 73 36 117q30 36 82 49q17 4 31 5q-42 57 -42 143q0 104 56 163q49 51 128 51q84 0 131 -53q40 -46 40 -119v-58q0 -64 31 -97q27 -28 73 -28h40v-81h-48q-86 0 -134 58q-43 -54 -121 -58h-114q-59 0 -82 -25.5t-23 -92.5v-197zM208 221
q0 -73 37 -111q28 -29 68 -29q87 0 87 98v78q0 52 -21.5 76t-67.5 24q-53 0 -80 -42q-23 -35 -23 -94z" />
    <glyph glyph-name="uniFEE3" unicode="&#x645;" horiz-adv-x="555" arabic-form="initial" 
d="M-10 81h38q50 0 77 36q23 31 23 84v62q0 85 52 132q45 41 118 41q93 0 143 -67q43 -57 43 -148q0 -119 -62 -181q-49 -49 -123 -49q-90 0 -135 60q-46 -51 -122 -51h-52v81zM210 179q0 -59 24 -85q21 -22 63 -22q48 0 76 39q29 40 29 110q0 68 -30 104q-27 32 -73 32
t-67.5 -24t-21.5 -76v-78z" />
    <glyph glyph-name="uniFEE4" unicode="&#x645;" horiz-adv-x="629" arabic-form="medial" 
d="M460 57q-49 -72 -146 -72q-96 0 -146 72q-44 -57 -126 -57h-52v81h38q100 0 100 133q0 59 16 101q22 61 69 92q43 28 101 28q66 0 112 -37q39 -30 59 -83q15 -43 15 -101q0 -133 100 -133h39v-81h-53q-81 0 -126 57zM210 214q0 -80 37 -120q28 -29 68 -29q45 0 74 39
t29 110q0 72 -31 109q-26 33 -73 33q-53 0 -80 -42q-24 -37 -24 -100z" />
    <glyph glyph-name="uniFEE5" unicode="&#x646;" horiz-adv-x="674" arabic-form="isolated" 
d="M363 441q0 -21 -15.5 -36t-36.5 -15t-36 15t-15 36t15 36t36 15t36.5 -15t15.5 -36zM587 421v-354q0 -132 -84 -201q-69 -57 -175 -57q-126 0 -196 74q-63 67 -63 178q0 89 46 160l68 -29q-33 -64 -33 -127q0 -81 51 -129q48 -46 127 -46q77 0 127 50q48 48 48 128v353
h84z" />
    <glyph glyph-name="uniFEE6" unicode="&#x646;" horiz-adv-x="701" arabic-form="final" 
d="M363 441q0 -21 -15.5 -36t-36.5 -15t-36 15t-15 36t15 36t36 15t36.5 -15t15.5 -36zM581 22q-14 -110 -93 -167q-65 -46 -160 -46q-126 0 -196 74q-63 67 -63 178q0 89 46 160l68 -29q-33 -64 -33 -127q0 -81 51 -129q48 -46 127 -46q77 0 127 50q48 48 48 128v353h84
v-213q0 -66 31 -99q27 -28 73 -28h20v-81h-28q-59 0 -101 29q0 -5 -1 -7z" />
    <glyph glyph-name="uniFEE7" unicode="&#x646;" horiz-adv-x="285" arabic-form="initial" 
d="M205 550q0 -20 -15.5 -35.5t-36.5 -15.5q-20 0 -35.5 15.5t-15.5 35.5q0 21 15.5 36.5t35.5 15.5q21 0 36.5 -15.5t15.5 -36.5zM18 0h-28v81h20q53 0 80 37q24 33 24 90v213h84v-226q0 -102 -58 -154q-46 -41 -122 -41z" />
    <glyph glyph-name="uniFEE8" unicode="&#x646;" horiz-adv-x="312" arabic-form="medial" 
d="M209 550q0 -20 -15.5 -35.5t-36.5 -15.5t-36.5 15.5t-15.5 35.5q0 21 15.5 36.5t36.5 15.5t36.5 -15.5t15.5 -36.5zM18 0h-28v81h20q53 0 80 37q24 33 24 90v213h84v-213q0 -66 31 -99q27 -28 73 -28h20v-81h-28q-91 0 -138 63q-47 -63 -138 -63z" />
    <glyph glyph-name="uniFEE9" unicode="&#x647;" horiz-adv-x="505" arabic-form="isolated" 
d="M265 -11h-25q-84 0 -131 68q-41 60 -41 157q0 110 56 169q49 52 128 52q92 0 141 -67q44 -58 44 -154q0 -111 -53 -172q-45 -53 -119 -53zM148 213q0 -73 29 -111q24 -32 66 -32h18q48 0 73 42q22 37 22 101q0 73 -31 110q-26 32 -73 32q-54 0 -81 -42q-23 -36 -23 -100z
" />
    <glyph glyph-name="uniFEEA" unicode="&#x647;" horiz-adv-x="534" arabic-form="final" 
d="M544 0h-28q-102 0 -149 78q-53 -53 -128 -53q-80 0 -129 60q-45 56 -45 146q0 106 66 164q57 50 146 50h62v45h81v-282q0 -66 31 -99q27 -28 73 -28h20v-81zM339 367h-59q-69 0 -104 -40q-29 -34 -29 -93q0 -64 29 -99q25 -31 67 -31q51 0 100 44q-4 20 -4 47v172z" />
    <glyph glyph-name="uniFEEB" unicode="&#x647;" horiz-adv-x="608" arabic-form="initial" 
d="M144 0h-154v81h79h44q-45 53 -45 120q0 64 41 105q39 41 104 41q72 0 112 -51q32 -40 32 -97q0 -68 -44 -118q33 0 49 1q46 1 70 24q22 21 22 58q0 40 -17 80.5t-47 71.5q-77 82 -229 94l18 73q178 -13 281 -132q77 -88 77 -188q0 -81 -43 -123q-41 -40 -118 -40h-92
q-38 0 -71 12q-33 -12 -69 -12zM213 90q32 16 50 46t18 66t-18 56.5t-50 20.5t-50 -20t-18 -56t18 -66t50 -47z" />
    <glyph glyph-name="uniFEEC" unicode="&#x647;" horiz-adv-x="649" arabic-form="medial" 
d="M144 0h-154v81h81h42q-45 53 -45 120q0 64 41 105q39 41 104 41q72 0 112 -51q32 -40 32 -97q0 -68 -44 -118q32 0 49 1q46 0 70 24q22 21 22 58q0 40 -17 80.5t-47 71.5q-77 82 -229 94l18 73q179 -13 281 -125q76 -85 76 -184q0 -45 34 -71q28 -22 69 -22h20v-81h-28
q-83 0 -128 51q-41 -51 -127 -51h-92q-38 0 -71 12q-33 -12 -69 -12zM213 90q32 16 50 46t18 66t-18 56.5t-50 20.5t-50 -20t-18 -56t18 -66t50 -47z" />
    <glyph glyph-name="uniFEED" unicode="&#x648;" horiz-adv-x="499" arabic-form="isolated" 
d="M340 30q-42 -23 -86 -23q-93 0 -144 66q-44 56 -44 148q0 103 56 161q49 52 130 52q84 0 130 -53q40 -45 40 -118v-243q0 -110 -60 -166q-49 -45 -127 -45q-64 0 -134 37l23 69q53 -28 100 -28q57 0 87 36q28 34 29 95v12zM340 109v148q0 100 -89 100q-54 0 -81 -42
q-23 -35 -23 -93q0 -73 40 -110q31 -29 79 -29q37 0 74 26z" />
    <glyph glyph-name="uniFEEE" unicode="&#x648;" horiz-adv-x="519" arabic-form="final" 
d="M421 0q-5 -100 -63 -150q-48 -41 -123 -41q-64 0 -134 37l23 69q53 -28 100 -28q53 0 84 32q28 29 31 83q-46 0 -69 1q-104 1 -158 67q-46 57 -46 151q0 103 56 161q49 52 130 52q84 0 130 -53q40 -45 40 -118v-182h107v-81h-108zM340 81v176q0 100 -89 100
q-54 0 -81 -42q-23 -35 -23 -93q0 -74 41 -111q34 -30 87 -30h65z" />
    <glyph glyph-name="uniFEEF" unicode="&#x649;" horiz-adv-x="710" arabic-form="isolated" 
d="M592 349h-102q-44 0 -69 -19q-26 -19 -26 -56q0 -41 23.5 -64.5t92.5 -51.5q70 -28 97 -52q45 -40 45 -109q0 -90 -88 -146q-81 -51 -209 -51q-146 0 -223 79q-66 68 -66 182q0 90 47 160l68 -29q-33 -64 -33 -127q0 -85 56 -135q56 -49 151 -49q98 0 162 40q51 33 51 74
q0 38 -45 64q-12 7 -70 33q-66 29 -96 60q-45 46 -45 121q0 76 52 119q45 37 110 37h117v-80z" />
    <glyph glyph-name="uniFEF0" unicode="&#x649;" horiz-adv-x="671" arabic-form="final" 
d="M656 0q-2 -99 -93 -154q-80 -47 -207 -47q-146 0 -223 80q-66 68 -66 182q0 90 47 160l68 -29q-33 -64 -33 -127q0 -86 58 -138q56 -50 153 -50q92 0 153 34q59 34 60 89h-90v81h198v-81h-25z" />
    <glyph glyph-name="uniFEF1" unicode="&#x64a;" horiz-adv-x="710" arabic-form="isolated" 
d="M592 349h-102q-44 0 -69 -19q-26 -19 -26 -56q0 -41 23.5 -64.5t92.5 -51.5q70 -28 97 -52q45 -40 45 -109q0 -90 -88 -146q-81 -51 -209 -51q-146 0 -223 79q-66 68 -66 182q0 90 47 160l68 -29q-33 -64 -33 -127q0 -85 56 -135q56 -49 151 -49q98 0 162 40q51 33 51 74
q0 38 -45 64q-12 7 -70 33q-66 29 -96 60q-45 46 -45 121q0 76 52 119q45 37 110 37h117v-80zM350 -321q0 -20 -15.5 -35.5t-36.5 -15.5t-36.5 15t-15.5 36t15.5 36t36.5 15t36.5 -15.5t15.5 -35.5zM471 -321q0 -20 -15.5 -35.5t-36.5 -15.5t-36.5 15t-15.5 36t15.5 36
t36.5 15t36.5 -15.5t15.5 -35.5z" />
    <glyph glyph-name="uniFEF2" unicode="&#x64a;" horiz-adv-x="671" arabic-form="final" 
d="M656 0q-2 -99 -93 -154q-80 -47 -207 -47q-146 0 -223 80q-66 68 -66 182q0 90 47 160l68 -29q-33 -64 -33 -127q0 -86 58 -138q56 -50 153 -50q92 0 153 34q59 34 60 89h-90v81h198v-81h-25zM350 -317q0 -21 -15.5 -36.5t-36.5 -15.5t-36.5 15.5t-15.5 36.5
q0 20 15.5 35.5t36.5 15.5q20 0 36 -15.5t16 -35.5zM471 -317q0 -21 -15.5 -36.5t-36.5 -15.5t-36.5 15.5t-15.5 36.5q0 20 15.5 35.5t36.5 15.5t36.5 -15.5t15.5 -35.5z" />
    <glyph glyph-name="uniFEF3" unicode="&#x64a;" horiz-adv-x="285" arabic-form="initial" 
d="M-10 0v81h20q53 0 80 37q24 33 24 90v213h84v-226q0 -102 -58 -154q-46 -41 -122 -41h-28zM35 -179q-21 0 -36.5 15.5t-15.5 35.5q0 21 15.5 36.5t36.5 15.5q20 0 35.5 -15.5t15.5 -36.5q0 -20 -15.5 -35.5t-35.5 -15.5zM156 -179q-21 0 -36.5 15.5t-15.5 35.5
q0 21 15.5 36.5t36.5 15.5t36.5 -15.5t15.5 -36.5q0 -20 -15.5 -35.5t-36.5 -15.5z" />
    <glyph glyph-name="uniFEF4" unicode="&#x64a;" horiz-adv-x="312" arabic-form="medial" 
d="M-10 0v81h20q53 0 80 37q24 33 24 90v213h84v-213q0 -66 31 -99q27 -28 73 -28h20v-81h-28q-91 0 -138 63q-47 -63 -138 -63h-28zM81 -179q-21 0 -36.5 15.5t-15.5 35.5q0 21 15.5 36.5t36.5 15.5t36.5 -15.5t15.5 -36.5q0 -20 -15.5 -35.5t-36.5 -15.5zM202 -179
q-21 0 -36.5 15.5t-15.5 35.5q0 21 15.5 36.5t36.5 15.5t36.5 -15.5t15.5 -36.5t-15.5 -36t-36.5 -15z" />
    <glyph glyph-name=".notdef" horiz-adv-x="364" 
d="M33 0v666h265v-666h-265zM66 33h199v600h-199v-600z" />
    <glyph glyph-name="glyph1" 
 />
    <glyph glyph-name="glyph2" horiz-adv-x="243" 
 />
    <glyph glyph-name="space" unicode=" " horiz-adv-x="243" 
 />
    <glyph glyph-name="exclam" unicode="!" horiz-adv-x="287" 
d="M87 45q0 24 16.5 40.5t40.5 16.5q23 0 39.5 -16.5t16.5 -40.5q0 -23 -16.5 -39.5t-39.5 -16.5q-24 0 -40.5 16.5t-16.5 39.5zM103 157l-8 510h98l-9 -510h-81z" />
    <glyph glyph-name="quotedbl" unicode="&#x22;" horiz-adv-x="315" 
d="M117 403h-65l-12 270h89zM263 403h-65l-12 270h89z" />
    <glyph glyph-name="numbersign" unicode="#" horiz-adv-x="587" 
d="M121 191h-74l14 68h74l29 148h-73l13 67h74l42 206l71 -17l-39 -189h140l42 206l71 -16l-38 -190h74l-14 -67h-74l-30 -148h74l-14 -68h-74l-41 -205l-71 16l38 189h-140l-41 -205l-71 16zM349 259l30 148h-140l-30 -148h140z" />
    <glyph glyph-name="dollar" unicode="$" horiz-adv-x="572" 
d="M248 -11q-148 19 -185 180l87 23q11 -43 21 -60q35 -61 106 -61q56 0 93 40q32 34 32 81q0 36 -25 60.5t-84 47.5l-62 24q-141 55 -141 171q0 73 48 123q42 43 110 57v92h87v-92q46 -9 79.5 -34.5t63.5 -74.5l-71 -45q-28 42 -54.5 58.5t-63.5 16.5q-50 0 -83 -33
q-28 -29 -28 -69q0 -61 91 -96l65 -25q87 -33 125 -81q33 -41 33 -99q0 -75 -50 -133q-43 -50 -107 -65v-98h-87v92z" />
    <glyph glyph-name="percent" unicode="%" horiz-adv-x="899" 
d="M541 197q0 205 154 205q158 0 158 -205t-154 -205q-158 0 -158 205zM607 202q0 -150 89 -150q91 0 91 145q0 146 -90 146t-90 -141zM618 679l49 -28l-385 -664l-49 28zM47 469q0 205 154 205q158 0 158 -205t-154 -205q-158 0 -158 205zM113 469q0 -145 90 -145t90 145
q0 146 -90 146t-90 -146z" />
    <glyph glyph-name="ampersand" unicode="&#x26;" horiz-adv-x="647" 
d="M318 370l151 -180q20 39 43 103l80 -22l-6 -16q-28 -85 -59 -134l102 -121h-106l-48 58q-79 -71 -185 -71q-103 0 -167 62q-56 53 -56 129q0 55 33.5 103t108.5 100l-3 3q-71 87 -71 149q0 67 49 109q42 37 102 37q67 0 110 -45q37 -40 37 -95q0 -46 -26 -83.5t-89 -85.5
zM270 427q51 39 69 63t18 52q0 29 -20.5 48t-51.5 19t-52 -20.5t-21 -52.5q0 -40 58 -109zM421 124l-165 200q-59 -46 -81 -76.5t-22 -65.5q0 -53 44 -86q38 -29 92 -29q78 0 132 57z" />
    <glyph glyph-name="quotesingle" unicode="'" horiz-adv-x="169" 
d="M117 403h-65l-12 270h89z" />
    <glyph glyph-name="parenleft" unicode="(" horiz-adv-x="302" 
d="M166 738l76 -36q-75 -196 -75 -426q0 -231 75 -426l-76 -36q-16 35 -22 52q-29 78 -46.5 191t-17.5 221q0 138 26 267q23 113 60 193z" />
    <glyph glyph-name="parenright" unicode=")" horiz-adv-x="302" 
d="M136 -186l-76 36q76 195 76 427q0 231 -76 425l76 36q41 -87 63.5 -208.5t22.5 -251.5q0 -107 -18 -223.5t-45 -188.5q-8 -20 -23 -52z" />
    <glyph glyph-name="asterisk" unicode="*" horiz-adv-x="474" 
d="M88 657l114 -42l-5 121h80l-5 -121l114 42l24 -76l-117 -32l76 -96l-65 -47l-67 101l-68 -101l-64 47l75 95l-117 33z" />
    <glyph glyph-name="plus" unicode="+" horiz-adv-x="556" 
d="M239 350v200h78v-200h199v-38v-37h-199v-200h-78v200h-199v37v38h199z" />
    <glyph glyph-name="comma" unicode="," horiz-adv-x="238" 
d="M107 106l79 -28l-106 -238l-60 24z" />
    <glyph glyph-name="hyphen" unicode="-" horiz-adv-x="263" 
d="M28 351h207v-78h-207v78z" />
    <glyph glyph-name="period" unicode="." horiz-adv-x="235" 
d="M61 45q0 24 16.5 40.5t40.5 16.5q23 0 39.5 -16.5t16.5 -40.5q0 -23 -16.5 -39.5t-39.5 -16.5q-24 0 -40.5 16.5t-16.5 39.5z" />
    <glyph glyph-name="slash" unicode="/" horiz-adv-x="550" 
d="M432 681l67 -40l-380 -655l-67 40z" />
    <glyph glyph-name="zero" unicode="0" horiz-adv-x="574" 
d="M37 333q0 346 250 346q251 0 251 -346t-251 -346q-250 0 -250 346zM128 342q0 -272 159 -272q160 0 160 267q0 83 -20 146q-17 55 -45 80q-39 34 -95 34q-64 0 -104 -44q-25 -27 -40 -86t-15 -125z" />
    <glyph glyph-name="one" unicode="1" horiz-adv-x="308" 
d="M232 0h-89v564l-98 -57l-42 72l152 88h77v-667z" />
    <glyph glyph-name="two" unicode="2" horiz-adv-x="485" 
d="M44 0v75l242 271q73 82 73 150q0 49 -34 77q-30 24 -78 24q-51 0 -79 -24.5t-46 -82.5l-81 22q21 87 80 130q53 37 129 37q95 0 149 -57q48 -51 48 -128q0 -94 -69 -171l-215 -241h299v-82h-418z" />
    <glyph glyph-name="three" unicode="3" horiz-adv-x="477" 
d="M13 160l87 23q15 -60 44 -86t79 -26q61 0 97 39q32 33 32 83q0 59 -39 89q-34 26 -93 26h-36v82h36q60 0 91 30q27 27 27 73q0 50 -34 79q-29 25 -75 25q-38 0 -64.5 -16.5t-53.5 -55.5l-73 41q68 113 191 113q92 0 148 -58q48 -51 48 -126q0 -85 -67 -140
q82 -61 82 -161q0 -97 -69 -156q-60 -51 -148 -51q-96 0 -157 65q-34 37 -51 98z" />
    <glyph glyph-name="four" unicode="4" horiz-adv-x="519" 
d="M382 636l-257 -410h193v168h89v-168h80v-81h-80v-145h-89v145h-291v84l283 452z" />
    <glyph glyph-name="five" unicode="5" horiz-adv-x="525" 
d="M449 585h-229l-31 -151q2 1 9 3q22 8 55 8q104 0 171 -73q58 -64 58 -152q0 -105 -77 -173q-66 -60 -158 -60q-71 0 -125 35q-46 31 -85 91l71 50q26 -49 59 -71t80 -22q67 0 109 47q37 41 37 100q0 67 -47 110q-40 38 -97 38q-61 0 -101 -43l-69 14l67 331h303v-82z" />
    <glyph glyph-name="six" unicode="6" horiz-adv-x="544" 
d="M383 630l-141 -200q18 6 38 6q99 0 164 -72q56 -61 56 -146q0 -103 -75 -171q-65 -60 -153 -60q-104 0 -172 76q-59 65 -59 154q0 80 52 152l221 312zM412 215q0 65 -45 105q-40 35 -96 35q-65 0 -106 -45q-36 -40 -36 -97q0 -65 46 -107q39 -37 95 -37q65 0 106 48
q36 41 36 98z" />
    <glyph glyph-name="seven" unicode="7" horiz-adv-x="451" 
d="M42 26l300 559h-329v82h431v-69l-325 -613z" />
    <glyph glyph-name="eight" unicode="8" horiz-adv-x="510" 
d="M128 355q-70 61 -70 139q0 85 64 139q55 46 133 46q90 0 147 -60q50 -51 50 -125q0 -79 -70 -139q91 -66 91 -165q0 -94 -70 -152q-60 -51 -148 -51q-101 0 -164 65q-54 57 -54 138q0 98 91 165zM255 310q-62 0 -98 -38q-32 -33 -32 -82q0 -57 41 -92q36 -30 89 -30
q61 0 98 39q32 33 32 83q0 57 -41 91q-35 29 -89 29zM370 494q0 50 -37 80q-32 27 -78 27q-53 0 -86 -34q-28 -30 -28 -73q0 -49 36 -80q32 -26 78 -26q53 0 86 33q29 30 29 73z" />
    <glyph glyph-name="nine" unicode="9" horiz-adv-x="546" 
d="M161 36l143 201q-18 -4 -36 -4q-102 0 -167 70q-57 60 -57 146q0 103 75 171q65 59 154 59q103 0 171 -75q59 -66 59 -155q0 -80 -51 -152l-222 -312zM132 452q0 -64 46 -104q39 -35 96 -35q65 0 106 45q35 40 35 95q0 66 -46 108q-39 36 -95 36q-64 0 -106 -47
q-36 -41 -36 -98z" />
    <glyph glyph-name="colon" unicode=":" horiz-adv-x="235" 
d="M61 45q0 24 16.5 40.5t40.5 16.5q23 0 39.5 -16.5t16.5 -40.5q0 -23 -16.5 -39.5t-39.5 -16.5q-24 0 -40.5 16.5t-16.5 39.5zM61 372q0 23 16.5 39.5t40.5 16.5q23 0 39.5 -16.5t16.5 -39.5q0 -24 -16.5 -40t-39.5 -16q-24 0 -40.5 16t-16.5 40z" />
    <glyph glyph-name="semicolon" unicode=";" horiz-adv-x="236" 
d="M107 106l79 -28l-106 -238l-60 24zM78 372q0 23 16.5 39.5t39.5 16.5q24 0 40.5 -16.5t16.5 -39.5q0 -24 -16.5 -40t-40.5 -16q-23 0 -39.5 16t-16.5 40z" />
    <glyph glyph-name="less" unicode="&#x3c;" horiz-adv-x="563" 
d="M505 583v-89l-344 -157l344 -158v-89l-447 210v74z" />
    <glyph glyph-name="equal" unicode="=" horiz-adv-x="556" 
d="M487 421v-76h-418v76h418zM487 280v-76h-418v76h418z" />
    <glyph glyph-name="greater" unicode="&#x3e;" horiz-adv-x="563" 
d="M58 90v90l343 157l-343 157v89l447 -210v-73z" />
    <glyph glyph-name="question" unicode="?" horiz-adv-x="426" 
d="M162 157v72q0 46 12 71t47 55l43 37q61 51 61 109q0 46 -33 72q-28 23 -73 23q-41 0 -68 -17t-56 -63l-65 53q62 110 185 110q96 0 150 -55q48 -47 48 -123q0 -47 -18.5 -83t-65.5 -80l-48 -45q-24 -22 -27.5 -31t-3.5 -41v-64h-88zM149 45q0 24 16.5 40.5t40.5 16.5
t40.5 -16.5t16.5 -40.5q0 -23 -17 -39.5t-40 -16.5t-40 16.5t-17 39.5z" />
    <glyph glyph-name="at" unicode="@" horiz-adv-x="898" 
d="M629 524l-44 -337h17q79 0 119 56q36 49 36 132q0 85 -37 150q-32 57 -85 87q-62 36 -151 36q-166 0 -261 -100q-82 -88 -82 -223q0 -72 27 -135q24 -55 65 -92q40 -37 106 -58t143 -21q102 0 220 38l23 -63q-113 -40 -247 -40q-110 0 -196 35q-75 31 -121 84
q-42 48 -65 113t-23 137q0 115 52 204q50 88 141 137q94 49 214 49q167 0 262 -103q83 -90 83 -232q0 -84 -34 -145q-29 -54 -80 -82q-51 -29 -136 -29h-135q-86 0 -135 56q-43 49 -43 124q0 49 19 93.5t51 74.5q60 54 174 54h123zM516 187l35 272h-55q-81 0 -125 -46
q-38 -41 -38 -108q0 -59 35 -90q30 -28 81 -28h67z" />
    <glyph glyph-name="A" unicode="A" horiz-adv-x="625" 
d="M163 180l-67 -180h-93l254 667h111l254 -667h-94l-68 180h-297zM194 263h235l-118 314z" />
    <glyph glyph-name="B" unicode="B" horiz-adv-x="524" 
d="M77 0v667h144q96 0 146 -30q39 -22 62.5 -63t23.5 -88q0 -76 -70 -133q52 -23 79 -70q24 -42 24 -94t-25.5 -93.5t-71.5 -67.5q-50 -28 -136 -28h-176zM165 379h67q59 0 86 16q50 28 50 89q0 27 -12 50t-33 35q-29 17 -91 17h-67v-207zM165 82h83q64 0 96 18q54 30 54 92
q0 28 -14 53t-37 38q-34 20 -108 20h-74v-221z" />
    <glyph glyph-name="C" unicode="C" horiz-adv-x="666" 
d="M571 506q-46 49 -88.5 69t-97.5 20q-116 0 -191 -85q-65 -74 -65 -177q0 -118 84 -195q72 -67 171 -67q55 0 98 21t92 70l62 -61q-60 -60 -119 -87t-131 -27q-95 0 -176 47q-78 46 -124 124q-47 81 -47 175q0 95 47 175q46 79 124 124q80 47 175 47q72 0 130.5 -26.5
t117.5 -85.5z" />
    <glyph glyph-name="D" unicode="D" horiz-adv-x="619" 
d="M77 667h142q178 0 276 -102q85 -88 85 -231q0 -165 -110 -255q-96 -79 -251 -79h-142v667zM166 584v-501h56q133 0 205 76q64 67 64 175q0 123 -82 191q-72 59 -187 59h-56z" />
    <glyph glyph-name="E" unicode="E" horiz-adv-x="478" 
d="M430 584h-264v-205h234v-83h-234v-213h274v-83h-363v667h353v-83z" />
    <glyph glyph-name="F" unicode="F" horiz-adv-x="440" 
d="M407 584h-241v-205h220v-83h-220v-296h-89v667h330v-83z" />
    <glyph glyph-name="G" unicode="G" horiz-adv-x="727" 
d="M402 352h285v-44q0 -155 -93 -244q-81 -77 -207 -77q-95 0 -176 47q-79 45 -125 124q-47 80 -47 175t47 175q46 79 124 124q81 47 175 47q72 0 129.5 -26t118.5 -86l-62 -60q-46 48 -88.5 68t-97.5 20q-116 0 -191 -85q-65 -74 -65 -177q0 -118 84 -195q73 -67 173 -67
q53 0 97.5 21.5t72.5 59.5q32 45 39 117h-193v83z" />
    <glyph glyph-name="H" unicode="H" horiz-adv-x="650" 
d="M77 667h89v-288h319v288h89v-667h-89v296h-319v-296h-89v667z" />
    <glyph glyph-name="I" unicode="I" horiz-adv-x="243" 
d="M166 667v-667h-89v667h89z" />
    <glyph glyph-name="J" unicode="J" horiz-adv-x="409" 
d="M332 667v-465q0 -50 -6 -80t-22 -58q-20 -35 -58 -56t-84 -21q-44 0 -81 18t-81 59l55 65q56 -58 105 -58q83 0 83 131v465h89z" />
    <glyph glyph-name="K" unicode="K" horiz-adv-x="576" 
d="M313 388l259 -388h-105l-214 323l-87 -95v-228h-89v667h89v-321l293 321h109z" />
    <glyph glyph-name="L" unicode="L" horiz-adv-x="429" 
d="M166 667v-584h254v-83h-343v667h89z" />
    <glyph glyph-name="M" unicode="M" horiz-adv-x="807" 
d="M77 0v667h91l236 -422l236 422h91v-667h-89v504l-201 -358h-74l-201 359v-505h-89z" />
    <glyph glyph-name="N" unicode="N" horiz-adv-x="709" 
d="M77 0v667h81l386 -518v518h89v-667h-81l-386 518v-518h-89z" />
    <glyph glyph-name="O" unicode="O" horiz-adv-x="763" 
d="M39 333q0 93 47 174q46 79 123 125q80 47 173 47q92 0 172 -47q78 -47 124 -125q47 -81 47 -174t-47 -174q-46 -78 -124 -124q-80 -48 -172 -48t-172 48q-78 46 -124 124q-47 81 -47 174zM129 333q0 -116 84 -194q72 -68 169 -68q112 0 187 87q66 75 66 175
q0 117 -84 195q-71 67 -169 67q-113 0 -188 -86q-65 -75 -65 -176z" />
    <glyph glyph-name="P" unicode="P" horiz-adv-x="469" 
d="M77 667h142q91 0 140 -28q47 -26 72 -77q22 -44 22 -96q0 -60 -29 -109q-25 -42 -65 -65q-49 -28 -140 -28h-53v-264h-89v667zM166 345h62q55 0 84 17q25 14 39 41.5t14 61.5q0 74 -52 103q-29 17 -85 17h-62v-240z" />
    <glyph glyph-name="Q" unicode="Q" horiz-adv-x="761" 
d="M616 82l63 -62l-60 -60l-72 71q-80 -44 -166 -44q-92 0 -172 48q-77 46 -123 125q-47 80 -47 173t47 174q46 78 124 125q80 47 172 47t172 -47q78 -47 124 -125q47 -81 47 -174q0 -76 -32 -145q-28 -60 -77 -106zM483 94l-50 50l60 61l62 -62q80 75 80 189q0 118 -83 196
q-72 67 -170 67q-113 0 -188 -86q-65 -75 -65 -176q0 -116 84 -194q72 -68 169 -68q52 0 101 23z" />
    <glyph glyph-name="R" unicode="R" horiz-adv-x="540" 
d="M359 287l160 -287h-100l-147 266q-33 -2 -53 -2h-53v-264h-89v667h142q100 0 153 -31q48 -27 74 -78q23 -44 23 -95q0 -63 -33 -111q-28 -42 -77 -65zM166 345h62q66 0 101 20q53 29 53 98q0 34 -15 61t-40 42q-34 19 -99 19h-62v-240z" />
    <glyph glyph-name="S" unicode="S" horiz-adv-x="510" 
d="M452 566l-71 -45q-28 41 -54.5 58t-63.5 17q-51 0 -83 -33q-28 -29 -28 -69q0 -61 91 -96l65 -25q86 -33 124 -81q34 -41 34 -99q0 -93 -71 -153q-61 -53 -146 -53q-88 0 -144 53q-49 47 -68 129l87 23q10 -42 21 -60q35 -61 106 -61q56 0 93 40q32 34 32 81
q0 36 -25 60.5t-84 47.5l-62 24q-141 55 -141 171q0 85 65 138q56 46 136 46q62 0 106.5 -27t80.5 -86z" />
    <glyph glyph-name="T" unicode="T" horiz-adv-x="435" 
d="M431 584h-169v-584h-90v584h-169v83h428v-83z" />
    <glyph glyph-name="U" unicode="U" horiz-adv-x="637" 
d="M77 667h89v-412q0 -48 4 -72.5t15 -43.5q18 -30 55 -49t79 -19q41 0 78.5 19t54.5 49q19 33 19 116v412h89v-432q0 -84 -28 -133q-33 -56 -96 -88q-55 -27 -117 -27q-72 0 -132 35q-53 31 -82 80q-28 49 -28 133v432z" />
    <glyph glyph-name="V" unicode="V" horiz-adv-x="559" 
d="M3 667h93l183 -553l184 553h92l-223 -667h-106z" />
    <glyph glyph-name="W" unicode="W" horiz-adv-x="879" 
d="M96 667l153 -526l151 526h78l151 -526l153 526h93l-202 -667h-44h-43l-147 507l-147 -507h-43h-44l-202 667h93z" />
    <glyph glyph-name="X" unicode="X" horiz-adv-x="542" 
d="M519 667l-199 -318l219 -349h-101l-168 271l-168 -271h-99l218 348l-198 319h99l149 -242l151 242h97z" />
    <glyph glyph-name="Y" unicode="Y" horiz-adv-x="518" 
d="M521 667l-217 -389v-278h-89v278l-218 389h98l165 -303l164 303h97z" />
    <glyph glyph-name="Z" unicode="Z" horiz-adv-x="510" 
d="M481 592l-352 -509h359v-83h-468v75l357 510h-328v82h432v-75z" />
    <glyph glyph-name="bracketleft" unicode="[" horiz-adv-x="299" 
d="M166 650v-748h91v-79h-177v906h177v-79h-91z" />
    <glyph glyph-name="backslash" unicode="\" horiz-adv-x="550" 
d="M119 681l380 -655l-67 -40l-380 655z" />
    <glyph glyph-name="bracketright" unicode="]" horiz-adv-x="299" 
d="M133 650h-91v79h177v-906h-177v79h91v748z" />
    <glyph glyph-name="asciicircum" unicode="^" horiz-adv-x="523" 
d="M501 355h-101l-139 237l-140 -237h-100l186 322h108z" />
    <glyph glyph-name="underscore" unicode="_" horiz-adv-x="507" 
d="M-3 -59h513v-78h-513v78z" />
    <glyph glyph-name="grave" unicode="`" horiz-adv-x="476" 
d="M101 642l83 45l107 -148l-55 -32z" />
    <glyph glyph-name="a" unicode="a" horiz-adv-x="547" 
d="M487 0h-86v48q-42 -33 -74 -47t-70 -14q-100 0 -168 78q-58 67 -58 157q0 104 75 174q64 60 151 60q38 0 70 -13.5t74 -47.5v48h86v-443zM261 378q-68 0 -108 -49q-36 -43 -36 -107q0 -74 46 -119q39 -38 98 -38q67 0 107 49q35 43 35 108q0 74 -45 118q-38 38 -97 38z
" />
    <glyph glyph-name="b" unicode="b" horiz-adv-x="547" 
d="M60 0v667h86v-272q42 34 74 47.5t70 13.5q100 0 168 -77q58 -67 58 -157q0 -104 -75 -174q-64 -61 -151 -61q-38 0 -70 14t-74 47v-48h-86zM430 222q0 74 -46 118q-39 38 -98 38q-67 0 -106 -49q-35 -43 -35 -107q0 -74 45 -119q38 -38 96 -38q68 0 108 50q36 43 36 107z
" />
    <glyph glyph-name="c" unicode="c" horiz-adv-x="460" 
d="M381 319q-30 33 -56 46t-62 13q-69 0 -110 -49q-36 -42 -36 -107q0 -75 46 -119q40 -38 101 -38q36 0 63 14t57 49l57 -57q-42 -44 -83.5 -64t-93.5 -20q-106 0 -174 76q-59 66 -59 159q0 106 75 175q66 59 157 59q51 0 92.5 -19t82.5 -62z" />
    <glyph glyph-name="d" unicode="d" horiz-adv-x="547" 
d="M487 0h-86v48q-42 -33 -74 -47t-70 -14q-100 0 -168 78q-58 67 -58 157q0 104 75 174q64 60 151 60q38 0 70 -13.5t74 -47.5v272h86v-667zM261 378q-68 0 -108 -49q-36 -43 -36 -107q0 -74 46 -118q39 -39 98 -39q66 0 106 49q35 43 35 108q0 74 -45 118q-38 38 -96 38z
" />
    <glyph glyph-name="e" unicode="e" horiz-adv-x="495" 
d="M463 187h-344q10 -60 51 -93q35 -29 85 -29q82 0 126 71q0 1 2 4l74 -32q-71 -121 -202 -121q-102 0 -168 76q-56 66 -56 159q0 105 71 174q62 60 147 60q100 0 161 -77q54 -67 54 -165q0 -6 -1 -27zM378 256q-11 62 -49 95q-33 29 -79 29q-54 0 -90 -38q-31 -32 -41 -86
h259z" />
    <glyph glyph-name="f" unicode="f" horiz-adv-x="254" 
d="M237 366h-79v-366h-86v366h-44v77h44v87q0 75 32 112q29 32 79 32q23 0 53 -7v-78q-23 6 -36 6q-42 0 -42 -65v-87h79v-77z" />
    <glyph glyph-name="g" unicode="g" horiz-adv-x="547" 
d="M487 443v-451q0 -115 -73 -181q-63 -57 -161 -57q-100 0 -167 61q-14 11 -41 42l56 56l6 -6q32 -37 50 -49q41 -26 94 -26q75 0 116 48q34 41 34 112v56q-62 -61 -143 -61q-101 0 -169 78q-58 66 -58 157q0 104 75 174q64 60 152 60q81 0 143 -61v48h86zM261 378
q-67 0 -108 -49q-36 -43 -36 -107q0 -74 46 -118q39 -39 98 -39q67 0 107 49q34 43 34 108q0 74 -44 118q-39 38 -97 38z" />
    <glyph glyph-name="h" unicode="h" horiz-adv-x="509" 
d="M60 667h86v-265q48 54 122 54q49 0 91 -23t64 -62q27 -46 27 -132v-239h-86v231q0 69 -17 101q-24 44 -87 44q-31 0 -57.5 -13.5t-38.5 -35.5q-18 -32 -18 -105v-222h-86v667z" />
    <glyph glyph-name="i" unicode="i" horiz-adv-x="206" 
d="M146 443v-443h-86v443h86zM45 592q0 24 17 40.5t41 16.5t41 -16.5t17 -40.5t-17 -41t-41 -17t-41 17t-17 41z" />
    <glyph glyph-name="j" unicode="j" horiz-adv-x="216" 
d="M55 592q0 24 17 40.5t41 16.5t41 -16.5t17 -40.5t-17 -41t-41 -17t-41 17t-17 41zM-8 -154q25 -7 39 -7q39 0 39 64v540h86v-540q0 -74 -33 -111q-28 -33 -77 -33q-24 0 -54 8v79z" />
    <glyph glyph-name="k" unicode="k" horiz-adv-x="470" 
d="M268 261l204 -261h-105l-157 204l-64 -64v-140h-86v667h86v-419l196 195h111z" />
    <glyph glyph-name="l" unicode="l" horiz-adv-x="207" 
d="M147 0h-86v667h86v-667z" />
    <glyph glyph-name="m" unicode="m" horiz-adv-x="780" 
d="M392 389q55 67 141 67q53 0 95.5 -23t66.5 -65q25 -45 25 -129v-239h-85v231q0 71 -18 103q-22 42 -78 42q-28 0 -52 -12.5t-35 -33.5q-18 -33 -18 -108v-222h-86v231q0 71 -17 103q-22 42 -79 42q-29 0 -53 -12.5t-35 -33.5q-18 -33 -18 -108v-222h-86v443h86v-41
q46 54 115 54q79 0 131 -67z" />
    <glyph glyph-name="n" unicode="n" horiz-adv-x="509" 
d="M60 443h86v-41q48 54 122 54q49 0 91 -23t64 -62q27 -46 27 -132v-239h-86v231q0 69 -17 101q-24 44 -87 44q-31 0 -57.5 -13.5t-38.5 -35.5q-18 -32 -18 -105v-222h-86v443z" />
    <glyph glyph-name="o" unicode="o" horiz-adv-x="524" 
d="M262 456q104 0 172 -76q59 -66 59 -158q0 -106 -76 -175q-65 -60 -155 -60q-105 0 -172 77q-59 66 -59 158q0 106 75 175q65 59 156 59zM262 378q-68 0 -109 -49q-36 -43 -36 -107q0 -74 46 -119q40 -38 99 -38q68 0 109 49q35 44 35 108q0 74 -45 118q-40 38 -99 38z
" />
    <glyph glyph-name="p" unicode="p" horiz-adv-x="547" 
d="M60 443h86v-48q42 34 74 47.5t70 13.5q100 0 168 -77q58 -67 58 -158q0 -104 -75 -173q-64 -61 -151 -61q-38 0 -70 13.5t-74 47.5v-281h-86v676zM286 65q68 0 108 49q36 43 36 107q0 74 -46 119q-39 38 -98 38q-66 0 -106 -49q-35 -43 -35 -108q0 -74 45 -118
q38 -38 96 -38z" />
    <glyph glyph-name="q" unicode="q" horiz-adv-x="547" 
d="M487 443v-676h-86v281q-42 -34 -74 -47.5t-70 -13.5q-101 0 -168 77q-58 67 -58 157q0 105 75 175q64 60 151 60q38 0 70 -13.5t74 -47.5v48h86zM261 65q67 0 106 49q35 43 35 107q0 75 -45 119q-38 38 -96 38q-68 0 -108 -49q-36 -43 -36 -108q0 -73 46 -118
q39 -38 98 -38z" />
    <glyph glyph-name="r" unicode="r" horiz-adv-x="298" 
d="M60 443h86v-43q31 28 51 36.5t55 8.5q13 0 29 -2v-77q-19 1 -27 1q-67 0 -90 -45q-18 -34 -18 -108v-214h-86v443z" />
    <glyph glyph-name="s" unicode="s" horiz-adv-x="375" 
d="M98 138q21 -41 40.5 -57.5t49.5 -16.5q31 0 50.5 18t19.5 47q0 21 -13 32.5t-57 28.5l-47 18q-94 37 -94 116q0 61 48 99q41 33 99 33q91 0 140 -88l-68 -35q-17 26 -34 36.5t-40 10.5q-28 0 -46 -14.5t-18 -38.5q0 -22 12 -32.5t58 -28.5l43 -16q54 -21 78.5 -49
t24.5 -69q0 -66 -51 -108q-45 -37 -107 -37q-113 0 -160 122z" />
    <glyph glyph-name="t" unicode="t" horiz-adv-x="253" 
d="M224 443v-77h-72v-229q0 -64 39 -64q13 0 39 7v-79q-29 -8 -53 -8q-57 0 -85 42q-25 37 -25 102v229h-49v77h49v102l85 34v-136h72z" />
    <glyph glyph-name="u" unicode="u" horiz-adv-x="509" 
d="M450 0h-86v41q-48 -54 -122 -54q-49 0 -91 23t-64 62q-27 46 -27 132v239h86v-231q0 -68 17 -100q24 -45 87 -45q32 0 58 13.5t38 35.5q18 32 18 106v221h86v-443z" />
    <glyph glyph-name="v" unicode="v" horiz-adv-x="456" 
d="M-3 443h92l139 -331l138 331h92l-189 -443h-82z" />
    <glyph glyph-name="w" unicode="w" horiz-adv-x="666" 
d="M89 443l108 -309l101 309h70l100 -309l109 309h91l-164 -443h-70l-101 306l-101 -306h-70l-165 443h92z" />
    <glyph glyph-name="x" unicode="x" horiz-adv-x="454" 
d="M439 443l-161 -213l174 -230h-100l-125 165l-124 -165h-101l175 230l-162 213h101l112 -149l113 149h98z" />
    <glyph glyph-name="y" unicode="y" horiz-adv-x="452" 
d="M67 -233l111 253l-181 423h92l134 -319l139 319h92l-298 -676h-89z" />
    <glyph glyph-name="z" unicode="z" horiz-adv-x="417" 
d="M393 376l-258 -299h268v-77h-378v67l259 300h-244v76h353v-67z" />
    <glyph glyph-name="braceleft" unicode="{" horiz-adv-x="304" 
d="M263 -101v-76q-25 -1 -33 -1q-74 0 -105 40q-27 35 -27 107v190q0 41 -11.5 58.5t-44.5 26.5v69q33 10 44.5 26.5t11.5 54.5v189q0 82 36 116q31 31 95 31q9 0 34 -1v-76h-15q-40 0 -52 -11.5t-12 -51.5v-200q0 -45 -11.5 -70t-40.5 -44q29 -19 40.5 -45t11.5 -72v-197
q0 -39 12 -51t50 -12h17z" />
    <glyph glyph-name="bar" unicode="|" horiz-adv-x="507" 
d="M211 728h86v-904h-86v904z" />
    <glyph glyph-name="braceright" unicode="}" horiz-adv-x="304" 
d="M42 -101h17q38 0 50 12t12 51v197q0 46 11.5 72t40.5 45q-29 19 -40.5 44t-11.5 70v200q0 41 -12 52t-55 11h-8h-4v76q25 1 34 1q73 0 104 -40q27 -35 27 -107v-189q0 -38 11.5 -54.5t44.5 -26.5v-69q-33 -9 -44.5 -26.5t-11.5 -58.5v-190q0 -82 -36 -117
q-31 -30 -96 -30q-8 0 -33 1v76z" />
    <glyph glyph-name="asciitilde" unicode="~" horiz-adv-x="677" 
d="M144 573l-54 35q35 69 66.5 96.5t78.5 27.5q43 0 115 -35q64 -31 94 -31q27 0 45.5 15t42.5 55l55 -32q-27 -56 -56 -84q-17 -16 -43 -27t-49 -11q-26 0 -50 8t-96 40q-39 18 -66 18q-42 0 -83 -75z" />
    <glyph glyph-name="nonbreakingspace" unicode="&#xa0;" horiz-adv-x="243" 
 />
    <glyph glyph-name="exclamdown" unicode="&#xa1;" horiz-adv-x="287" 
d="M87 438q0 23 16.5 39.5t40.5 16.5q23 0 39.5 -16.5t16.5 -40.5q0 -23 -16.5 -39.5t-39.5 -16.5q-24 0 -40.5 16.5t-16.5 40.5zM103 326h81l9 -510h-98z" />
    <glyph glyph-name="cent" unicode="&#xa2;" horiz-adv-x="552" 
d="M245 104q-86 20 -136 90q-44 61 -44 139q0 91 56 155q49 57 124 74v105h88v-103q42 -7 73 -24.5t66 -52.5l-57 -57q-30 33 -56 46.5t-62 13.5q-69 0 -110 -49q-36 -43 -36 -108q0 -75 46 -119q40 -38 101 -38q37 0 63.5 14t56.5 49l57 -56q-66 -70 -142 -81v-102h-88v104
z" />
    <glyph glyph-name="sterling" unicode="&#xa3;" horiz-adv-x="561" 
d="M216 374h204v-80h-187q12 -56 12 -103q0 -31 -10 -55t-37 -54h317v-82h-443v80l12 9q40 32 56 56.5t16 55.5t-13 93h-71v80h54q-10 51 -10 93q0 108 64 162q58 50 138 50q117 0 180 -113l-71 -45q-24 40 -50 57.5t-62 17.5q-54 0 -84 -38q-27 -34 -27 -87q0 -38 12 -97z
" />
    <glyph glyph-name="currency" unicode="&#xa4;" horiz-adv-x="726" 
d="M224 522q61 46 138 46t139 -46l87 89l49 -47l-89 -90q44 -62 44 -140t-44 -140l89 -90l-48 -48l-88 89q-62 -46 -138 -46q-77 0 -139 46l-89 -89l-47 48l89 90q-44 62 -44 139q0 79 44 141l-89 90l49 47zM362 492q-69 0 -111 -50q-36 -43 -36 -108q0 -76 47 -121
q40 -39 100 -39q70 0 111 51q36 43 36 109q0 75 -46 119q-40 39 -101 39z" />
    <glyph glyph-name="yen" unicode="&#xa5;" horiz-adv-x="556" 
d="M74 229v76h144l-31 56h-113v76h70l-128 230h98l165 -303l164 303h97l-128 -230h71v-76h-114l-31 -56h145v-76h-160v-229h-89v229h-160z" />
    <glyph glyph-name="brokenbar" unicode="&#xa6;" horiz-adv-x="507" 
d="M297 348h-86v380h86v-380zM297 210v-386h-86v386h86z" />
    <glyph glyph-name="section" unicode="&#xa7;" horiz-adv-x="551" 
d="M430 52q43 -44 43 -113q0 -88 -64 -140q-55 -45 -140 -45q-77 0 -131 38q-47 32 -84 99l-4 6l72 47q33 -58 67 -82.5t83 -24.5q53 0 84 33q28 28 28 70q0 35 -25.5 60.5t-85.5 48.5l-62 24q-142 55 -142 172q0 74 60 134q-48 48 -48 115q0 85 65 139q56 46 136 46
q61 0 105.5 -27t80.5 -86l-72 -47q-28 44 -53.5 60.5t-63.5 16.5q-50 0 -82 -33q-28 -29 -28 -70q0 -61 92 -96l65 -25q87 -34 125 -82q34 -42 34 -101q0 -73 -55 -137zM357 103q37 41 37 86q0 37 -25 61.5t-85 47.5l-66 26l-14 6q-46 -36 -46 -85q0 -62 91 -98l65 -25
q20 -8 43 -19z" />
    <glyph glyph-name="dieresis" unicode="&#xa8;" horiz-adv-x="476" 
d="M273 592q0 23 16.5 39.5t40.5 16.5q23 0 40 -16.5t17 -39.5q0 -24 -17 -40.5t-40 -16.5q-24 0 -40.5 16.5t-16.5 40.5zM89 592q0 23 16.5 39.5t40.5 16.5t40.5 -16.5t16.5 -39.5q0 -24 -16.5 -40.5t-40.5 -16.5t-40.5 16.5t-16.5 40.5z" />
    <glyph glyph-name="copyright" unicode="&#xa9;" horiz-adv-x="850" 
d="M563 435q-32 35 -58.5 48t-63.5 13q-72 0 -118 -53q-40 -46 -40 -110q0 -73 52 -121q44 -42 106 -42q36 0 61.5 13t62.5 50l52 -51l-5 -5h-1q-77 -77 -169 -77q-105 0 -174 76q-60 67 -60 157q0 104 77 174q66 60 156 60q80 0 138 -48q13 -11 36 -34zM425 712
q103 0 191 -52q86 -50 136 -136q52 -88 52 -191t-52 -191q-50 -85 -136 -135q-88 -52 -191 -52q-102 0 -191 52q-85 50 -135 135q-52 89 -52 191q0 103 52 191q50 86 135 136q89 52 191 52zM425 649q-85 0 -159 -43q-71 -42 -113 -113q-43 -74 -43 -160q0 -85 43 -159
q42 -71 113 -113q74 -43 159 -43q86 0 159 43q72 42 114 113q43 74 43 159q0 86 -43 159q-42 72 -114 114q-73 43 -159 43z" />
    <glyph glyph-name="ordfeminine" unicode="&#xaa;" horiz-adv-x="355" 
d="M315 406h-63v24q-37 -32 -81 -32q-63 0 -105 46q-36 40 -36 94q0 63 47 105q40 36 94 36q45 0 81 -32v25h63v-266zM174 623q-38 0 -61 -27q-20 -23 -20 -58q0 -40 25 -63q23 -21 56 -21q38 0 60 27q20 23 20 58q0 40 -25 64q-22 20 -55 20z" />
    <glyph glyph-name="guillemotleft" unicode="&#xab;" horiz-adv-x="449" 
d="M401 74l-56 -45l-157 193l157 196l56 -44l-119 -152zM246 74l-57 -45l-156 193l156 196l57 -44l-120 -152z" />
    <glyph glyph-name="logicalnot" unicode="&#xac;" horiz-adv-x="673" 
d="M610 74h-84v199h-463v77h547v-276z" />
    <glyph glyph-name="uni00AD" unicode="&#xad;" horiz-adv-x="263" 
d="M28 351h207v-78h-207v78z" />
    <glyph glyph-name="registered" unicode="&#xae;" horiz-adv-x="850" 
d="M500 296l110 -188h-84l-100 174q-14 -1 -58 -1v-173h-74v450h119q63 0 98 -19q30 -18 48 -50t18 -69q0 -89 -77 -124zM368 490v-140h51q84 0 84 70t-84 70h-51zM425 712q103 0 191 -52q86 -50 136 -135q52 -89 52 -192t-52 -191q-50 -85 -136 -135q-88 -52 -191 -52
t-191 52q-85 50 -135 135q-52 89 -52 191q0 103 52 191q50 86 135 136q88 52 191 52zM425 649q-85 0 -159 -43q-71 -42 -113 -113q-43 -74 -43 -160q0 -85 43 -159q42 -71 113 -113q74 -43 159 -43q86 0 159 43q72 42 114 113q43 74 43 159q0 86 -43 159q-42 72 -114 114
q-73 43 -159 43z" />
    <glyph glyph-name="macron" unicode="&#xaf;" horiz-adv-x="476" 
d="M95 629h286v-77h-286v77z" />
    <glyph glyph-name="degree" unicode="&#xb0;" horiz-adv-x="341" 
d="M204 741q62 0 104 -47q36 -39 36 -94q0 -62 -46 -104q-40 -36 -94 -36q-63 0 -105 46q-36 40 -36 94q0 63 46 104q41 37 95 37zM204 676q-34 0 -57 -25q-19 -22 -19 -51q0 -33 25 -56q22 -20 51 -20q33 0 56 25q19 22 19 51q0 34 -25 56q-21 20 -50 20z" />
    <glyph glyph-name="plusminus" unicode="&#xb1;" horiz-adv-x="556" 
d="M239 405v200h78v-200h199v-76h-199v-200h-78v200h-199v76h199zM516 76v-76h-476v76h476z" />
    <glyph glyph-name="twosuperior" unicode="&#xb2;" horiz-adv-x="387" 
d="M64 406v52l147 157q42 45 42 82q0 24 -16.5 38t-44.5 14q-30 0 -45 -13.5t-26 -49.5l-60 16q25 106 132 106q60 0 95 -35q30 -30 30 -77q0 -56 -43 -102l-120 -129h172v-59h-263z" />
    <glyph glyph-name="threesuperior" unicode="&#xb3;" horiz-adv-x="387" 
d="M158 583v59h28q64 0 64 53q0 24 -16 39t-43 15q-22 0 -37 -9.5t-32 -33.5l-54 29q45 73 123 73q58 0 93 -35q31 -31 31 -77q0 -49 -37 -80q46 -35 46 -93t-44 -94q-37 -31 -92 -31q-104 0 -132 101l-2 9l64 16q9 -36 24.5 -50.5t44.5 -14.5q32 0 51.5 17.5t19.5 46.5
q0 60 -72 60h-28z" />
    <glyph glyph-name="acute" unicode="&#xb4;" horiz-adv-x="476" 
d="M375 642l-135 -135l-55 32l108 148z" />
    <glyph glyph-name="mu" unicode="&#xb5;" horiz-adv-x="509" 
d="M450 0h-86v37q-49 -50 -114 -50q-59 0 -104 50v-270h-86v676h86v-232q0 -67 17 -99q24 -45 87 -45q32 0 58 13.5t38 35.5q18 32 18 106v221h86v-443z" />
    <glyph glyph-name="paragraph" unicode="&#xb6;" horiz-adv-x="642" 
d="M289 213h-7q-98 0 -163 75q-56 64 -56 152q0 103 72 169q63 58 149 58h311v-74h-65v-826h-77v826h-85h-1v-826h-78v446z" />
    <glyph glyph-name="glyph195" unicode="&#xb7;" horiz-adv-x="232" 
d="M61 312q0 22 16 37.5t39 15.5t39 -15.5t16 -38.5q0 -22 -16 -37.5t-39 -15.5t-39 15.5t-16 38.5z" />
    <glyph glyph-name="cedilla" unicode="&#xb8;" horiz-adv-x="476" 
d="M251 -39l79 -33l-110 -139l-60 30z" />
    <glyph glyph-name="onesuperior" unicode="&#xb9;" horiz-adv-x="387" 
d="M241 406h-65v320l-55 -31l-31 52l98 54h53v-395z" />
    <glyph glyph-name="ordmasculine" unicode="&#xba;" horiz-adv-x="348" 
d="M174 679q66 0 108 -45q36 -40 36 -95q0 -64 -47 -105q-40 -36 -97 -36q-65 0 -107 46q-37 40 -37 95q0 63 47 105q41 35 97 35zM174 623q-38 0 -61 -26q-20 -23 -20 -58q0 -40 26 -64q22 -20 55 -20q39 0 62 26q19 23 19 58q0 40 -25 63q-22 21 -56 21z" />
    <glyph glyph-name="guillemotright" unicode="&#xbb;" horiz-adv-x="449" 
d="M202 74l120 148l-120 152l57 44l156 -196l-156 -193zM47 74l120 148l-120 152l56 44l157 -196l-157 -193z" />
    <glyph glyph-name="onequarter" unicode="&#xbc;" horiz-adv-x="833" 
d="M543 679l49 -28l-384 -664l-49 28zM443 139l174 267l53 -32l-151 -232h99v96h65v-96h48v-59h-48v-83h-65v83h-175v56zM208 272h-65v319l-55 -30l-31 52l98 54h53v-395z" />
    <glyph glyph-name="onehalf" unicode="&#xbd;" horiz-adv-x="833" 
d="M542 679l49 -28l-384 -664l-49 28zM207 272h-65v319l-55 -30l-31 52l98 54h53v-395zM494 0v52l147 157q42 45 42 82q0 24 -16.5 38t-44.5 14q-30 0 -45 -13.5t-26 -49.5l-60 16q26 106 132 106q60 0 95 -35q30 -30 30 -77q0 -56 -43 -102l-120 -129h172v-59h-263z" />
    <glyph glyph-name="threequarters" unicode="&#xbe;" horiz-adv-x="833" 
d="M604 679l49 -28l-384 -664l-49 28zM153 449v59h28q64 0 64 53q0 24 -16 39t-43 15q-22 0 -36.5 -9.5t-32.5 -33.5l-54 29q45 73 123 73q58 0 93 -36q31 -30 31 -76q0 -49 -37 -80q46 -35 46 -93t-44 -94q-37 -31 -92 -31q-104 0 -132 100l-2 10l64 16q9 -36 24.5 -51
t44.5 -15q32 0 51.5 18t19.5 47q0 60 -72 60h-28zM482 139l174 267l53 -32l-151 -232h99v96h65v-96h48v-59h-48v-83h-65v83h-175v56z" />
    <glyph glyph-name="questiondown" unicode="&#xbf;" horiz-adv-x="426" 
d="M280 326v-72q0 -46 -11.5 -71t-47.5 -56l-42 -36q-61 -52 -61 -109q0 -46 33 -73q28 -22 73 -22q41 0 67.5 17t56.5 63l65 -53q-63 -111 -185 -111q-96 0 -151 55q-47 48 -47 123q0 47 18.5 83.5t64.5 79.5l48 46q24 22 28 31t4 41v64h87zM293 437q0 -23 -16.5 -39.5
t-39.5 -16.5q-24 0 -40.5 16.5t-16.5 39.5q0 24 16.5 40.5t40.5 16.5q23 0 39.5 -16.5t16.5 -40.5z" />
    <glyph glyph-name="Agrave" unicode="&#xc0;" horiz-adv-x="625" 
d="M163 180l-67 -180h-93l254 667h111l254 -667h-94l-68 180h-297zM194 263h235l-118 314zM175 842l83 45l107 -148l-55 -32z" />
    <glyph glyph-name="Aacute" unicode="&#xc1;" horiz-adv-x="625" 
d="M163 180l-67 -180h-93l254 667h111l254 -667h-94l-68 180h-297zM194 263h235l-118 314zM447 842l-135 -135l-55 32l107 148z" />
    <glyph glyph-name="Acircumflex" unicode="&#xc2;" horiz-adv-x="625" 
d="M163 180l-67 -180h-93l254 667h111l254 -667h-94l-68 180h-297zM194 263h235l-118 314zM312 795l-91 -88l-63 32l123 134h63l122 -134l-63 -32z" />
    <glyph glyph-name="Atilde" unicode="&#xc3;" horiz-adv-x="625" 
d="M163 180l-67 -180h-93l254 667h111l254 -667h-94l-68 180h-297zM194 263h235l-118 314zM385 849l70 -17q-7 -96 -85 -96q-33 0 -70 20q-27 14 -41 14q-15 0 -21 -37l-69 16q6 50 31 75q21 21 55 21q31 0 73 -21q23 -12 39 -12q15 0 18 37z" />
    <glyph glyph-name="Adieresis" unicode="&#xc4;" horiz-adv-x="625" 
d="M163 180l-67 -180h-93l254 667h111l254 -667h-94l-68 180h-297zM194 263h235l-118 314zM347 791q0 23 16.5 39.5t40.5 16.5t40.5 -16.5t16.5 -39.5q0 -24 -16.5 -40.5t-40.5 -16.5q-23 0 -40 16.5t-17 40.5zM163 791q0 23 17 39.5t40 16.5q24 0 41 -16.5t17 -39.5
q0 -24 -17 -40.5t-41 -16.5q-23 0 -40 16.5t-17 40.5z" />
    <glyph glyph-name="Aring" unicode="&#xc5;" horiz-adv-x="625" 
d="M163 180l-67 -180h-93l254 667h111l254 -667h-94l-68 180h-297zM194 263h235l-118 314zM216 791q0 41 32 70q27 24 64 24q43 0 72 -31q24 -27 24 -63q0 -42 -31 -70q-28 -24 -65 -24q-42 0 -71 31q-25 27 -25 63zM261 791q0 -22 15 -37t36 -15q22 0 37 15t15 37
q0 21 -15 36t-37 15q-21 0 -36 -15t-15 -36z" />
    <glyph glyph-name="AE" unicode="&#xc6;" horiz-adv-x="840" 
d="M438 180h-244l-91 -180h-100l345 667h443v-83h-264v-205h234v-83h-234v-213h274v-83h-363v180zM438 263v321h-38l-163 -321h201z" />
    <glyph glyph-name="Ccedilla" unicode="&#xc7;" horiz-adv-x="666" 
d="M571 506q-46 49 -88.5 69t-97.5 20q-116 0 -191 -85q-65 -74 -65 -177q0 -118 84 -195q72 -67 171 -67q55 0 98 21t92 70l62 -61q-60 -60 -119 -87t-131 -27q-95 0 -176 47q-78 46 -124 124q-47 81 -47 175q0 95 47 175q46 79 124 124q80 47 175 47q72 0 130.5 -26.5
t117.5 -85.5zM347 -39l78 -33l-109 -139l-60 30z" />
    <glyph glyph-name="Egrave" unicode="&#xc8;" horiz-adv-x="478" 
d="M430 584h-264v-205h234v-83h-234v-213h274v-83h-363v667h353v-83zM130 842l82 45l108 -148l-56 -32z" />
    <glyph glyph-name="Eacute" unicode="&#xc9;" horiz-adv-x="478" 
d="M430 584h-264v-205h234v-83h-234v-213h274v-83h-363v667h353v-83zM388 842l-135 -135l-56 32l108 148z" />
    <glyph glyph-name="Ecircumflex" unicode="&#xca;" horiz-adv-x="478" 
d="M430 584h-264v-205h234v-83h-234v-213h274v-83h-363v667h353v-83zM259 795l-91 -88l-63 32l122 134h63l122 -134l-63 -32z" />
    <glyph glyph-name="Edieresis" unicode="&#xcb;" horiz-adv-x="478" 
d="M430 584h-264v-205h234v-83h-234v-213h274v-83h-363v667h353v-83zM292 791q0 23 16.5 39.5t40.5 16.5t40.5 -16.5t16.5 -39.5q0 -24 -16.5 -40.5t-40.5 -16.5t-40.5 16.5t-16.5 40.5zM108 791q0 23 17 39.5t40 16.5q24 0 41 -16.5t17 -39.5q0 -24 -17 -40.5t-41 -16.5
q-23 0 -40 16.5t-17 40.5z" />
    <glyph glyph-name="Igrave" unicode="&#xcc;" horiz-adv-x="243" 
d="M166 667v-667h-89v667h89zM-17 842l83 45l107 -148l-55 -32z" />
    <glyph glyph-name="Iacute" unicode="&#xcd;" horiz-adv-x="243" 
d="M165 667v-667h-89v667h89zM259 842l-135 -135l-55 32l108 148z" />
    <glyph glyph-name="Icircumflex" unicode="&#xce;" horiz-adv-x="243" 
d="M165 667v-667h-89v667h89zM121 795l-91 -88l-63 32l123 134h62l123 -134l-63 -32z" />
    <glyph glyph-name="Idieresis" unicode="&#xcf;" horiz-adv-x="243" 
d="M166 667v-667h-89v667h89zM134 791q0 23 17 39.5t40 16.5q24 0 40.5 -16.5t16.5 -39.5q0 -24 -16.5 -40.5t-40.5 -16.5q-23 0 -40 16.5t-17 40.5zM-5 791q0 23 16.5 39.5t40.5 16.5t40.5 -16.5t16.5 -39.5q0 -24 -16.5 -40.5t-40.5 -16.5t-40.5 16.5t-16.5 40.5z" />
    <glyph glyph-name="Eth" unicode="&#xd0;" horiz-adv-x="633" 
d="M25 320v79h65v268h143q177 0 276 -102q85 -88 85 -231q0 -165 -110 -255q-96 -79 -251 -79h-143v320h-65zM180 399h154v-79h-154v-237h56q132 0 205 76q63 67 63 175q0 123 -82 191q-71 59 -186 59h-56v-185z" />
    <glyph glyph-name="Ntilde" unicode="&#xd1;" horiz-adv-x="709" 
d="M77 0v667h81l386 -518v518h89v-667h-81l-386 518v-518h-89zM434 849l70 -17q-9 -96 -86 -96q-33 0 -70 20q-27 14 -41 14q-15 0 -21 -37l-69 16q6 49 31 75q22 21 55 21q31 0 73 -21q23 -12 39 -12q15 0 19 37z" />
    <glyph glyph-name="Ograve" unicode="&#xd2;" horiz-adv-x="763" 
d="M39 333q0 93 47 174q46 79 123 125q80 47 173 47q92 0 172 -47q78 -47 124 -125q47 -81 47 -174t-47 -174q-46 -78 -124 -124q-80 -48 -172 -48t-172 48q-78 46 -124 124q-47 81 -47 174zM129 333q0 -116 84 -194q72 -68 169 -68q112 0 187 87q66 75 66 175
q0 117 -84 195q-71 67 -169 67q-113 0 -188 -86q-65 -75 -65 -176zM246 842l83 45l107 -148l-55 -32z" />
    <glyph glyph-name="Oacute" unicode="&#xd3;" horiz-adv-x="763" 
d="M39 333q0 93 47 174q46 79 123 125q80 47 173 47q92 0 172 -47q78 -47 124 -125q47 -81 47 -174t-47 -174q-46 -78 -124 -124q-80 -48 -172 -48t-172 48q-78 46 -124 124q-47 81 -47 174zM129 333q0 -116 84 -194q72 -68 169 -68q112 0 187 87q66 75 66 175
q0 117 -84 195q-71 67 -169 67q-113 0 -188 -86q-65 -75 -65 -176zM518 842l-135 -135l-55 32l107 148z" />
    <glyph glyph-name="Ocircumflex" unicode="&#xd4;" horiz-adv-x="763" 
d="M39 333q0 93 47 174q46 79 123 125q80 47 173 47q92 0 172 -47q78 -47 124 -125q47 -81 47 -174t-47 -174q-46 -78 -124 -124q-80 -48 -172 -48t-172 48q-78 46 -124 124q-47 81 -47 174zM129 333q0 -116 84 -194q72 -68 169 -68q112 0 187 87q66 75 66 175
q0 117 -84 195q-71 67 -169 67q-113 0 -188 -86q-65 -75 -65 -176zM382 795l-91 -88l-63 32l123 134h62l123 -134l-63 -32z" />
    <glyph glyph-name="Otilde" unicode="&#xd5;" horiz-adv-x="763" 
d="M39 333q0 93 47 174q46 79 123 125q80 47 173 47q92 0 172 -47q78 -47 124 -125q47 -81 47 -174t-47 -174q-46 -78 -124 -124q-80 -48 -172 -48t-172 48q-78 46 -124 124q-47 81 -47 174zM129 333q0 -116 84 -194q72 -68 169 -68q112 0 187 87q66 75 66 175
q0 117 -84 195q-71 67 -169 67q-113 0 -188 -86q-65 -75 -65 -176zM455 849l70 -17q-8 -96 -85 -96q-34 0 -71 20q-26 14 -40 14q-15 0 -21 -37l-69 16q5 49 30 75q22 21 56 21q30 0 72 -21q24 -12 39 -12q16 0 19 37z" />
    <glyph glyph-name="Odieresis" unicode="&#xd6;" horiz-adv-x="763" 
d="M39 333q0 93 47 174q46 79 123 125q80 47 173 47q92 0 172 -47q78 -47 124 -125q47 -81 47 -174t-47 -174q-46 -78 -124 -124q-80 -48 -172 -48t-172 48q-78 46 -124 124q-47 81 -47 174zM129 333q0 -116 84 -194q72 -68 169 -68q112 0 187 87q66 75 66 175
q0 117 -84 195q-71 67 -169 67q-113 0 -188 -86q-65 -75 -65 -176zM417 791q0 23 16.5 39.5t40.5 16.5t40.5 -16.5t16.5 -39.5q0 -24 -16.5 -40.5t-40.5 -16.5t-40.5 16.5t-16.5 40.5zM233 791q0 23 16.5 39.5t40.5 16.5t40.5 -16.5t16.5 -39.5q0 -24 -16.5 -40.5
t-40.5 -16.5t-40.5 16.5t-16.5 40.5z" />
    <glyph glyph-name="multiply" unicode="&#xd7;" horiz-adv-x="556" 
d="M224 312l-141 141l54 54l141 -141l141 141l54 -54l-141 -141l141 -141l-54 -54l-141 141l-141 -141l-54 54z" />
    <glyph glyph-name="Oslash" unicode="&#xd8;" horiz-adv-x="771" 
d="M120 115q-78 98 -78 217q0 94 47 175q46 79 124 125q80 47 173 47q119 0 216 -79l69 69l49 -47l-70 -71q78 -97 78 -218q0 -93 -47 -174q-46 -78 -124 -124q-80 -48 -173 -48q-119 0 -216 80l-69 -69l-49 47zM182 177l360 362q-73 56 -155 56q-115 0 -190 -86
q-65 -75 -65 -178q0 -84 50 -154zM588 489l-359 -361q71 -57 155 -57q113 0 188 87q66 75 66 176q0 85 -50 155z" />
    <glyph glyph-name="Ugrave" unicode="&#xd9;" horiz-adv-x="637" 
d="M77 667h89v-412q0 -48 4 -72.5t15 -43.5q18 -30 55 -49t79 -19q41 0 78.5 19t54.5 49q19 33 19 116v412h89v-432q0 -84 -28 -133q-33 -56 -96 -88q-55 -27 -117 -27q-72 0 -132 35q-53 31 -82 80q-28 49 -28 133v432zM190 842l82 45l108 -148l-56 -32z" />
    <glyph glyph-name="Uacute" unicode="&#xda;" horiz-adv-x="637" 
d="M77 667h89v-412q0 -48 4 -72.5t15 -43.5q18 -30 55 -49t79 -19q41 0 78.5 19t54.5 49q19 33 19 116v412h89v-432q0 -84 -28 -133q-33 -56 -96 -88q-55 -27 -117 -27q-72 0 -132 35q-53 31 -82 80q-28 49 -28 133v432zM448 842l-135 -135l-55 32l107 148z" />
    <glyph glyph-name="Ucircumflex" unicode="&#xdb;" horiz-adv-x="637" 
d="M77 667h89v-412q0 -48 4 -72.5t15 -43.5q18 -30 55 -49t79 -19q41 0 78.5 19t54.5 49q19 33 19 116v412h89v-432q0 -84 -28 -133q-33 -56 -96 -88q-55 -27 -117 -27q-72 0 -132 35q-53 31 -82 80q-28 49 -28 133v432zM319 795l-91 -88l-63 32l123 134h62l123 -134
l-63 -32z" />
    <glyph glyph-name="Udieresis" unicode="&#xdc;" horiz-adv-x="637" 
d="M77 667h89v-412q0 -48 4 -72.5t15 -43.5q18 -30 55 -49t79 -19q41 0 78.5 19t54.5 49q19 33 19 116v412h89v-432q0 -84 -28 -133q-33 -56 -96 -88q-55 -27 -117 -27q-72 0 -132 35q-53 31 -82 80q-28 49 -28 133v432zM353 791q0 23 17 39.5t41 16.5q23 0 40 -16.5
t17 -39.5q0 -24 -17 -40.5t-40 -16.5q-24 0 -41 16.5t-17 40.5zM170 791q0 23 16.5 39.5t40.5 16.5q23 0 40 -16.5t17 -39.5q0 -24 -17 -40.5t-40 -16.5q-24 0 -40.5 16.5t-16.5 40.5z" />
    <glyph glyph-name="Yacute" unicode="&#xdd;" horiz-adv-x="518" 
d="M521 667l-217 -389v-278h-89v278l-218 389h98l165 -303l164 303h97zM388 842l-135 -135l-55 32l108 148z" />
    <glyph glyph-name="Thorn" unicode="&#xde;" horiz-adv-x="469" 
d="M166 570h53q91 0 140 -28q47 -26 72 -77q22 -44 22 -96q0 -60 -29 -109q-25 -42 -65 -65q-49 -28 -140 -28h-53v-167h-89v667h89v-97zM166 248h62q55 0 84 17q25 14 39 41.5t14 61.5q0 74 -52 103q-29 17 -85 17h-62v-240z" />
    <glyph glyph-name="germandbls" unicode="&#xdf;" horiz-adv-x="520" 
d="M60 0v495q0 86 58 139q50 45 123 45q89 0 142 -57q45 -50 45 -126q0 -81 -52 -128q40 -22 60 -45t31.5 -57.5t11.5 -68.5q0 -95 -69 -149q-59 -48 -151 -48h-58v81h61q62 0 99 38q32 32 32 81q0 51 -36 86q-31 30 -98 30h-10v77h10q41 0 63.5 26.5t22.5 74.5q0 53 -31 83
q-26 26 -69 26q-48 0 -75 -34q-24 -28 -24 -74v-495h-86z" />
    <glyph glyph-name="agrave" unicode="&#xe0;" horiz-adv-x="547" 
d="M487 0h-86v48q-42 -33 -74 -47t-70 -14q-100 0 -168 78q-58 67 -58 157q0 104 75 174q64 60 151 60q38 0 70 -13.5t74 -47.5v48h86v-443zM261 378q-68 0 -108 -49q-36 -43 -36 -107q0 -74 46 -119q39 -38 98 -38q67 0 107 49q35 43 35 108q0 74 -45 118q-38 38 -97 38z
M123 642l83 45l107 -148l-55 -32z" />
    <glyph glyph-name="aacute" unicode="&#xe1;" horiz-adv-x="547" 
d="M487 0h-86v48q-42 -33 -74 -47t-70 -14q-100 0 -168 78q-58 67 -58 157q0 104 75 174q64 60 151 60q38 0 70 -13.5t74 -47.5v48h86v-443zM261 378q-68 0 -108 -49q-36 -43 -36 -107q0 -74 46 -119q39 -38 98 -38q67 0 107 49q35 43 35 108q0 74 -45 118q-38 38 -97 38z
M401 642l-134 -135l-56 32l108 148z" />
    <glyph glyph-name="acircumflex" unicode="&#xe2;" horiz-adv-x="547" 
d="M487 0h-86v48q-42 -33 -74 -47t-70 -14q-100 0 -168 78q-58 67 -58 157q0 104 75 174q64 60 151 60q38 0 70 -13.5t74 -47.5v48h86v-443zM261 378q-68 0 -108 -49q-36 -43 -36 -107q0 -74 46 -119q39 -38 98 -38q67 0 107 49q35 43 35 108q0 74 -45 118q-38 38 -97 38z
M259 595l-91 -88l-63 32l123 134h62l123 -134l-63 -32z" />
    <glyph glyph-name="atilde" unicode="&#xe3;" horiz-adv-x="547" 
d="M487 0h-86v48q-42 -33 -74 -47t-70 -14q-100 0 -168 78q-58 67 -58 157q0 104 75 174q64 60 151 60q38 0 70 -13.5t74 -47.5v48h86v-443zM261 378q-68 0 -108 -49q-36 -43 -36 -107q0 -74 46 -119q39 -38 98 -38q67 0 107 49q35 43 35 108q0 74 -45 118q-38 38 -97 38z
M332 649l70 -17q-7 -96 -85 -96q-33 0 -71 20q-26 14 -40 14q-15 0 -21 -37l-69 16q5 50 30 75q22 21 56 21q30 0 73 -21q23 -12 39 -12q15 0 18 37z" />
    <glyph glyph-name="adieresis" unicode="&#xe4;" horiz-adv-x="547" 
d="M487 0h-86v48q-42 -33 -74 -47t-70 -14q-100 0 -168 78q-58 67 -58 157q0 104 75 174q64 60 151 60q38 0 70 -13.5t74 -47.5v48h86v-443zM261 378q-68 0 -108 -49q-36 -43 -36 -107q0 -74 46 -119q39 -38 98 -38q67 0 107 49q35 43 35 108q0 74 -45 118q-38 38 -97 38z
M302 592q0 23 17 39.5t40 16.5q24 0 40.5 -16.5t16.5 -39.5q0 -24 -16.5 -40.5t-40.5 -16.5q-23 0 -40 16.5t-17 40.5zM119 592q0 23 16.5 39.5t39.5 16.5q24 0 41 -16.5t17 -39.5q0 -24 -17 -40.5t-41 -16.5q-23 0 -39.5 16.5t-16.5 40.5z" />
    <glyph glyph-name="aring" unicode="&#xe5;" horiz-adv-x="547" 
d="M487 0h-86v48q-42 -33 -74 -47t-70 -14q-100 0 -168 78q-58 67 -58 157q0 104 75 174q64 60 151 60q38 0 70 -13.5t74 -47.5v48h86v-443zM261 378q-68 0 -108 -49q-36 -43 -36 -107q0 -74 46 -119q39 -38 98 -38q67 0 107 49q35 43 35 108q0 74 -45 118q-38 38 -97 38z
M175 591q0 41 31 70q28 24 64 24q43 0 72 -31q25 -27 25 -63q0 -42 -32 -70q-27 -24 -64 -24q-43 0 -72 31q-24 27 -24 63zM219 591q0 -22 15 -37t37 -15q21 0 36 15t15 37q0 21 -15 36t-36 15q-22 0 -37 -15t-15 -36z" />
    <glyph glyph-name="ae" unicode="&#xe6;" horiz-adv-x="819" 
d="M781 108q-72 -121 -202 -121q-101 0 -168 78q-46 -78 -175 -78q-101 0 -157 47q-48 40 -48 106q0 74 57 114q50 34 133 34h131q-14 92 -123 92q-74 0 -139 -51l-42 57q47 37 91.5 53.5t99.5 16.5q124 0 169 -81q64 81 165 81q100 0 162 -77q53 -67 53 -166q0 -7 -1 -26
h-344q10 -60 51 -93q35 -29 85 -29q82 0 126 71q0 1 2 4zM355 219h-120q-119 0 -119 -78q0 -37 31 -57t89 -20q119 0 119 82v73zM703 256q-12 62 -50 95q-33 29 -79 29q-54 0 -90 -37q-31 -33 -41 -87h260z" />
    <glyph glyph-name="ccedilla" unicode="&#xe7;" horiz-adv-x="460" 
d="M381 319q-30 33 -56 46t-62 13q-69 0 -110 -49q-36 -42 -36 -107q0 -75 46 -119q40 -38 101 -38q36 0 63 14t57 49l57 -57q-42 -44 -83.5 -64t-93.5 -20q-106 0 -174 76q-59 66 -59 159q0 106 75 175q66 59 157 59q51 0 92.5 -19t82.5 -62zM226 -39l79 -33l-110 -139
l-60 30z" />
    <glyph glyph-name="egrave" unicode="&#xe8;" horiz-adv-x="495" 
d="M463 187h-344q10 -60 51 -93q35 -29 85 -29q82 0 126 71q0 1 2 4l74 -32q-71 -121 -202 -121q-102 0 -168 76q-56 66 -56 159q0 105 71 174q62 60 147 60q100 0 161 -77q54 -67 54 -165q0 -6 -1 -27zM378 256q-11 62 -49 95q-33 29 -79 29q-54 0 -90 -38q-31 -32 -41 -86
h259zM117 642l82 45l108 -148l-56 -32z" />
    <glyph glyph-name="eacute" unicode="&#xe9;" horiz-adv-x="495" 
d="M463 187h-344q10 -60 51 -93q35 -29 85 -29q82 0 126 71q0 1 2 4l74 -32q-71 -121 -202 -121q-102 0 -168 76q-56 66 -56 159q0 105 71 174q62 60 147 60q100 0 161 -77q54 -67 54 -165q0 -6 -1 -27zM378 256q-11 62 -49 95q-33 29 -79 29q-54 0 -90 -38q-31 -32 -41 -86
h259zM378 642l-134 -135l-56 32l108 148z" />
    <glyph glyph-name="ecircumflex" unicode="&#xea;" horiz-adv-x="495" 
d="M463 187h-344q10 -60 51 -93q35 -29 85 -29q82 0 126 71q0 1 2 4l74 -32q-71 -121 -202 -121q-102 0 -168 76q-56 66 -56 159q0 105 71 174q62 60 147 60q100 0 161 -77q54 -67 54 -165q0 -6 -1 -27zM378 256q-11 62 -49 95q-33 29 -79 29q-54 0 -90 -38q-31 -32 -41 -86
h259zM247 595l-91 -88l-63 32l123 134h62l123 -134l-63 -32z" />
    <glyph glyph-name="edieresis" unicode="&#xeb;" horiz-adv-x="495" 
d="M463 187h-344q10 -60 51 -93q35 -29 85 -29q82 0 126 71q0 1 2 4l74 -32q-71 -121 -202 -121q-102 0 -168 76q-56 66 -56 159q0 105 71 174q62 60 147 60q100 0 161 -77q54 -67 54 -165q0 -6 -1 -27zM378 256q-11 62 -49 95q-33 29 -79 29q-54 0 -90 -38q-31 -32 -41 -86
h259zM282 592q0 23 16.5 39.5t40.5 16.5t40.5 -16.5t16.5 -39.5q0 -24 -16.5 -40.5t-40.5 -16.5t-40.5 16.5t-16.5 40.5zM98 592q0 23 17 39.5t40 16.5q24 0 41 -16.5t17 -39.5q0 -24 -17 -40.5t-41 -16.5q-23 0 -40 16.5t-17 40.5z" />
    <glyph glyph-name="igrave" unicode="&#xec;" horiz-adv-x="206" 
d="M145 443v-443h-85v443h85zM-39 642l83 45l107 -148l-55 -32z" />
    <glyph glyph-name="iacute" unicode="&#xed;" horiz-adv-x="206" 
d="M146 443v-443h-85v443h85zM245 642l-135 -135l-55 32l108 148z" />
    <glyph glyph-name="icircumflex" unicode="&#xee;" horiz-adv-x="206" 
d="M146 443v-443h-86v443h86zM103 595l-91 -88l-63 32l123 134h62l123 -134l-63 -32z" />
    <glyph glyph-name="idieresis" unicode="&#xef;" horiz-adv-x="206" 
d="M146 443v-443h-85v443h85zM115 592q0 23 17 39.5t40 16.5q24 0 40.5 -16.5t16.5 -39.5q0 -24 -16.5 -40.5t-40.5 -16.5q-23 0 -40 16.5t-17 40.5zM-24 592q0 23 16.5 39.5t40.5 16.5t40.5 -16.5t16.5 -39.5q0 -24 -16.5 -40.5t-40.5 -16.5t-40.5 16.5t-16.5 40.5z" />
    <glyph glyph-name="eth" unicode="&#xf0;" horiz-adv-x="528" 
d="M330 589q85 -58 129 -153q37 -83 37 -182q0 -94 -35 -156q-32 -55 -90 -85q-49 -26 -107 -26q-105 0 -172 77q-59 66 -59 158q0 103 73 173q64 59 150 59q59 0 103 -29q-6 8 -11 17q-44 64 -104 100l-93 -49l-34 40l67 36q-39 14 -89 21l12 76q58 -8 93.5 -17.5
t77.5 -29.5l76 41l33 -40zM408 222q0 74 -45 118q-40 38 -99 38q-68 0 -109 -49q-35 -43 -35 -107q0 -74 45 -118q40 -39 99 -39q68 0 109 50q35 43 35 107z" />
    <glyph glyph-name="ntilde" unicode="&#xf1;" horiz-adv-x="509" 
d="M60 443h86v-41q48 54 122 54q49 0 91 -23t64 -62q27 -46 27 -132v-239h-86v231q0 69 -17 101q-24 44 -87 44q-31 0 -57.5 -13.5t-38.5 -35.5q-18 -32 -18 -105v-222h-86v443zM331 649l70 -17q-8 -96 -85 -96q-33 0 -70 20q-27 14 -41 14q-15 0 -21 -37l-69 16q5 49 31 75
q21 21 55 21q31 0 73 -21q23 -12 39 -12q15 0 18 37z" />
    <glyph glyph-name="ograve" unicode="&#xf2;" horiz-adv-x="524" 
d="M262 456q104 0 172 -76q59 -66 59 -158q0 -106 -76 -175q-65 -60 -155 -60q-105 0 -172 77q-59 66 -59 158q0 106 75 175q66 59 156 59zM262 378q-69 0 -109 -49q-36 -43 -36 -107q0 -74 46 -119q40 -38 99 -38q68 0 109 50q35 43 35 107q0 74 -45 118q-40 38 -99 38z
M126 642l83 45l107 -148l-55 -32z" />
    <glyph glyph-name="oacute" unicode="&#xf3;" horiz-adv-x="524" 
d="M262 456q104 0 172 -76q59 -66 59 -158q0 -106 -76 -175q-65 -60 -155 -60q-105 0 -172 77q-59 66 -59 158q0 106 75 175q66 59 156 59zM262 378q-69 0 -109 -49q-36 -43 -36 -107q0 -74 46 -119q40 -38 99 -38q68 0 109 50q35 43 35 107q0 74 -45 118q-40 38 -99 38z
M398 642l-135 -135l-56 32l108 148z" />
    <glyph glyph-name="ocircumflex" unicode="&#xf4;" horiz-adv-x="524" 
d="M262 456q104 0 172 -76q59 -66 59 -158q0 -106 -76 -175q-65 -60 -155 -60q-105 0 -172 77q-59 66 -59 158q0 106 75 175q65 59 156 59zM262 378q-68 0 -109 -49q-36 -43 -36 -107q0 -74 46 -119q39 -38 99 -38q68 0 109 50q35 43 35 107q0 74 -45 118q-40 38 -99 38z
M262 595l-91 -88l-63 32l123 134h62l123 -134l-63 -32z" />
    <glyph glyph-name="otilde" unicode="&#xf5;" horiz-adv-x="524" 
d="M262 456q104 0 172 -76q59 -66 59 -158q0 -106 -76 -175q-65 -60 -155 -60q-105 0 -172 77q-59 66 -59 158q0 106 75 175q66 59 156 59zM262 378q-69 0 -109 -49q-36 -43 -36 -107q0 -74 46 -119q40 -38 99 -38q68 0 109 50q35 43 35 107q0 74 -45 118q-40 38 -99 38z
M335 649l70 -17q-8 -96 -85 -96q-34 0 -71 20q-26 14 -40 14q-16 0 -22 -37l-68 16q5 49 30 75q22 21 56 21q30 0 72 -21q24 -12 39 -12q16 0 19 37z" />
    <glyph glyph-name="odieresis" unicode="&#xf6;" horiz-adv-x="524" 
d="M262 456q104 0 172 -76q59 -66 59 -158q0 -106 -76 -175q-65 -60 -155 -60q-105 0 -172 77q-59 66 -59 158q0 106 75 175q66 59 156 59zM262 378q-69 0 -109 -49q-36 -43 -36 -107q0 -74 46 -119q40 -38 99 -38q68 0 109 50q35 43 35 107q0 74 -45 118q-40 38 -99 38z
M296 592q0 23 16.5 39.5t40.5 16.5t40.5 -16.5t16.5 -39.5q0 -24 -16.5 -40.5t-40.5 -16.5t-40.5 16.5t-16.5 40.5zM112 592q0 23 17 39.5t40 16.5q24 0 41 -16.5t17 -39.5q0 -24 -17 -40.5t-41 -16.5q-23 0 -40 16.5t-17 40.5z" />
    <glyph glyph-name="divide" unicode="&#xf7;" horiz-adv-x="556" 
d="M499 350v-76h-442v76h442zM278 547q25 0 42.5 -18t17.5 -42q0 -25 -17.5 -42.5t-42.5 -17.5t-42.5 17.5t-17.5 42.5q0 24 17.5 42t42.5 18zM278 197q25 0 42.5 -17.5t17.5 -42.5q0 -24 -17.5 -42t-42.5 -18t-42.5 18t-17.5 42q0 25 17.5 42.5t42.5 17.5z" />
    <glyph glyph-name="oslash" unicode="&#xf8;" horiz-adv-x="538" 
d="M38 41l44 42q-44 61 -44 138q0 107 75 176q65 59 157 59q79 0 144 -51l41 40l45 -42l-44 -42q44 -63 44 -138q0 -107 -76 -176q-65 -60 -156 -60q-81 0 -145 51l-41 -40zM180 93q39 -28 88 -28q69 0 110 49q35 43 35 109q0 44 -17 80zM357 350q-38 28 -87 28
q-70 0 -110 -49q-36 -43 -36 -108q0 -44 17 -80z" />
    <glyph glyph-name="ugrave" unicode="&#xf9;" horiz-adv-x="509" 
d="M450 0h-86v41q-48 -54 -122 -54q-49 0 -91 23t-64 62q-27 46 -27 132v239h86v-231q0 -68 17 -100q24 -45 87 -45q32 0 58 13.5t38 35.5q18 32 18 106v221h86v-443zM121 642l83 45l107 -148l-55 -32z" />
    <glyph glyph-name="uacute" unicode="&#xfa;" horiz-adv-x="509" 
d="M450 0h-86v41q-48 -54 -122 -54q-49 0 -91 23t-64 62q-27 46 -27 132v239h86v-231q0 -68 17 -100q24 -45 87 -45q32 0 58 13.5t38 35.5q18 32 18 106v221h86v-443zM386 642l-135 -135l-55 32l107 148z" />
    <glyph glyph-name="ucircumflex" unicode="&#xfb;" horiz-adv-x="509" 
d="M450 0h-86v41q-48 -54 -122 -54q-49 0 -91 23t-64 62q-27 46 -27 132v239h86v-231q0 -68 17 -100q24 -45 87 -45q32 0 58 13.5t38 35.5q18 32 18 106v221h86v-443zM255 595l-91 -88l-63 32l123 134h62l123 -134l-63 -32z" />
    <glyph glyph-name="udieresis" unicode="&#xfc;" horiz-adv-x="509" 
d="M450 0h-86v41q-48 -54 -122 -54q-49 0 -91 23t-64 62q-27 46 -27 132v239h86v-231q0 -68 17 -100q24 -45 87 -45q32 0 58 13.5t38 35.5q18 32 18 106v221h86v-443zM290 592q0 23 16.5 39.5t40.5 16.5t40.5 -16.5t16.5 -39.5q0 -24 -16.5 -40.5t-40.5 -16.5t-40.5 16.5
t-16.5 40.5zM106 592q0 23 16.5 39.5t40.5 16.5t40.5 -16.5t16.5 -39.5q0 -24 -16.5 -40.5t-40.5 -16.5t-40.5 16.5t-16.5 40.5z" />
    <glyph glyph-name="yacute" unicode="&#xfd;" horiz-adv-x="452" 
d="M359 642l-135 -135l-55 32l107 148zM67 -233l111 253l-181 423h92l134 -319l139 319h92l-298 -676h-89z" />
    <glyph glyph-name="thorn" unicode="&#xfe;" horiz-adv-x="548" 
d="M61 667h86v-272q42 34 74 47.5t70 13.5q100 0 168 -77q58 -67 58 -158q0 -104 -75 -173q-64 -61 -151 -61q-38 0 -70 13.5t-74 47.5v-281h-86v900zM287 65q68 0 108 49q36 43 36 107q0 74 -46 119q-39 38 -98 38q-66 0 -106 -49q-35 -43 -35 -108q0 -74 45 -118
q38 -38 96 -38z" />
    <glyph glyph-name="ydieresis" unicode="&#xff;" horiz-adv-x="452" 
d="M260 592q0 23 17 39.5t40 16.5q24 0 40.5 -16.5t16.5 -39.5q0 -24 -16.5 -40.5t-39.5 -16.5q-24 0 -41 16.5t-17 40.5zM77 592q0 23 16.5 39.5t40.5 16.5q23 0 40 -16.5t17 -39.5q0 -24 -17 -40.5t-40 -16.5q-24 0 -40.5 16.5t-16.5 40.5zM67 -233l111 253l-181 423h92
l134 -319l139 319h92l-298 -676h-89z" />
    <glyph glyph-name="Amacron" unicode="&#x100;" horiz-adv-x="625" 
d="M163 180l-67 -180h-93l254 667h111l254 -667h-94l-68 180h-297zM194 263h235l-118 314zM169 829h286v-77h-286v77z" />
    <glyph glyph-name="amacron" unicode="&#x101;" horiz-adv-x="547" 
d="M487 0h-86v48q-42 -33 -74 -47t-70 -14q-100 0 -168 78q-58 67 -58 157q0 104 75 174q64 60 151 60q38 0 70 -13.5t74 -47.5v48h86v-443zM261 378q-68 0 -108 -49q-36 -43 -36 -107q0 -74 46 -119q39 -38 98 -38q67 0 107 49q35 43 35 108q0 74 -45 118q-38 38 -97 38z
M128 629h286v-77h-286v77z" />
    <glyph glyph-name="Abreve" unicode="&#x102;" horiz-adv-x="625" 
d="M163 180l-67 -180h-93l254 667h111l254 -667h-94l-68 180h-297zM194 263h235l-118 314zM174 853l73 6q1 -5 1 -7q4 -70 63 -70q40 0 58 38q4 10 8 39l74 -6q-8 -73 -49 -111q-36 -33 -91 -33q-66 0 -103 44q-33 38 -34 100z" />
    <glyph glyph-name="abreve" unicode="&#x103;" horiz-adv-x="547" 
d="M487 0h-86v48q-42 -33 -74 -47t-70 -14q-100 0 -168 78q-58 67 -58 157q0 104 75 174q64 60 151 60q38 0 70 -13.5t74 -47.5v48h86v-443zM261 378q-68 0 -108 -49q-36 -43 -36 -107q0 -74 46 -119q39 -38 98 -38q67 0 107 49q35 43 35 108q0 74 -45 118q-38 38 -97 38z
M122 653l74 6v-7q4 -70 63 -70q40 0 58 38q5 10 9 39l73 -6q-8 -73 -49 -111q-36 -33 -91 -33q-65 0 -103 44q-32 38 -34 100z" />
    <glyph glyph-name="Aogonek" unicode="&#x104;" horiz-adv-x="625" 
d="M257 667h111l254 -667l-4 -4q-33 -40 -33 -62q0 -20 25 -20q17 0 43 9l24 -63q-42 -16 -74 -16q-44 0 -72 28q-24 23 -24 57q0 33 29 71h-8l-68 180h-297l-67 -180h-93zM194 263h235l-118 314z" />
    <glyph glyph-name="aogonek" unicode="&#x105;" horiz-adv-x="547" 
d="M401 0v48q-41 -33 -73.5 -47t-70.5 -14q-100 0 -168 78q-58 66 -58 157q0 104 75 174q64 60 151 60q38 0 70 -13.5t74 -47.5v48h86v-443l-3 -3q0 -1 -1 -2q-32 -40 -32 -61q0 -20 24 -20q17 0 43 9l25 -63q-43 -16 -75 -16q-44 0 -71 28q-24 23 -24 57q0 33 28 71z
M261 378q-68 0 -108 -49q-36 -43 -36 -107q0 -74 46 -119q39 -38 98 -38q67 0 107 49q35 43 35 108q0 74 -45 118q-38 38 -97 38z" />
    <glyph glyph-name="Cacute" unicode="&#x106;" horiz-adv-x="666" 
d="M571 506q-46 49 -88.5 69t-97.5 20q-116 0 -191 -85q-65 -74 -65 -177q0 -118 84 -195q72 -67 171 -67q55 0 98 21t92 70l62 -61q-60 -60 -119 -87t-131 -27q-95 0 -176 47q-78 46 -124 124q-47 81 -47 175q0 95 47 175q46 79 124 124q80 47 175 47q72 0 130.5 -26.5
t117.5 -85.5zM524 842l-135 -135l-55 32l107 148z" />
    <glyph glyph-name="cacute" unicode="&#x107;" horiz-adv-x="460" 
d="M381 319q-30 33 -56 46t-62 13q-69 0 -110 -49q-36 -42 -36 -107q0 -75 46 -119q40 -38 101 -38q36 0 63 14t57 49l57 -57q-42 -44 -83.5 -64t-93.5 -20q-106 0 -174 76q-59 66 -59 159q0 106 75 175q66 59 157 59q51 0 92.5 -19t82.5 -62zM383 642l-134 -135l-56 32
l108 148z" />
    <glyph glyph-name="Ccircumflex" unicode="&#x108;" horiz-adv-x="666" 
d="M571 506q-46 49 -88.5 69t-97.5 20q-116 0 -191 -85q-65 -74 -65 -177q0 -118 84 -195q72 -67 171 -67q55 0 98 21t92 70l62 -61q-60 -60 -119 -87t-131 -27q-95 0 -176 47q-78 46 -124 124q-47 81 -47 175q0 95 47 175q46 79 124 124q80 47 175 47q72 0 130.5 -26.5
t117.5 -85.5zM371 795l-90 -88l-63 32l122 134h63l122 -134l-63 -32z" />
    <glyph glyph-name="ccircumflex" unicode="&#x109;" horiz-adv-x="460" 
d="M381 319q-30 33 -56 46t-62 13q-69 0 -110 -49q-36 -42 -36 -107q0 -75 46 -119q40 -38 101 -38q36 0 63 14t57 49l57 -57q-42 -44 -83.5 -64t-93.5 -20q-106 0 -174 76q-59 66 -59 159q0 106 75 175q66 59 157 59q51 0 92.5 -19t82.5 -62zM250 595l-91 -88l-63 32
l122 134h63l122 -134l-63 -32z" />
    <glyph glyph-name="Cdotaccent" unicode="&#x10a;" horiz-adv-x="666" 
d="M571 506q-46 49 -88.5 69t-97.5 20q-116 0 -191 -85q-65 -74 -65 -177q0 -118 84 -195q72 -67 171 -67q55 0 98 21t92 70l62 -61q-60 -60 -119 -87t-131 -27q-95 0 -176 47q-78 46 -124 124q-47 81 -47 175q0 95 47 175q46 79 124 124q80 47 175 47q72 0 130.5 -26.5
t117.5 -85.5zM323 791q0 23 16.5 39.5t40.5 16.5t40.5 -16.5t16.5 -39.5q0 -24 -16.5 -40.5t-40.5 -16.5t-40.5 16.5t-16.5 40.5z" />
    <glyph glyph-name="cdotaccent" unicode="&#x10b;" horiz-adv-x="460" 
d="M381 319q-30 33 -56 46t-62 13q-69 0 -110 -49q-36 -42 -36 -107q0 -75 46 -119q40 -38 101 -38q36 0 63 14t57 49l57 -57q-42 -44 -83.5 -64t-93.5 -20q-106 0 -174 76q-59 66 -59 159q0 106 75 175q66 59 157 59q51 0 92.5 -19t82.5 -62zM196 592q0 23 16.5 39.5
t40.5 16.5t40.5 -16.5t16.5 -39.5q0 -24 -16.5 -40.5t-40.5 -16.5t-40.5 16.5t-16.5 40.5z" />
    <glyph glyph-name="Ccaron" unicode="&#x10c;" horiz-adv-x="666" 
d="M571 506q-46 49 -88.5 69t-97.5 20q-116 0 -191 -85q-65 -74 -65 -177q0 -118 84 -195q72 -67 171 -67q55 0 98 21t92 70l62 -61q-60 -60 -119 -87t-131 -27q-95 0 -176 47q-78 46 -124 124q-47 81 -47 175q0 95 47 175q46 79 124 124q80 47 175 47q72 0 130.5 -26.5
t117.5 -85.5zM371 793l91 87l63 -31l-122 -135h-63l-122 135l63 31z" />
    <glyph glyph-name="ccaron" unicode="&#x10d;" horiz-adv-x="460" 
d="M381 319q-30 33 -56 46t-62 13q-69 0 -110 -49q-36 -42 -36 -107q0 -75 46 -119q40 -38 101 -38q36 0 63 14t57 49l57 -57q-42 -44 -83.5 -64t-93.5 -20q-106 0 -174 76q-59 66 -59 159q0 106 75 175q66 59 157 59q51 0 92.5 -19t82.5 -62zM250 593l90 87l63 -31
l-122 -135h-63l-122 135l63 31z" />
    <glyph glyph-name="Dcaron" unicode="&#x10e;" horiz-adv-x="619" 
d="M77 667h142q178 0 276 -102q85 -88 85 -231q0 -165 -110 -255q-96 -79 -251 -79h-142v667zM166 584v-501h56q133 0 205 76q64 67 64 175q0 123 -82 191q-72 59 -187 59h-56zM291 793l91 87l63 -31l-123 -135h-62l-123 135l63 31z" />
    <glyph glyph-name="dcaron" unicode="&#x10f;" horiz-adv-x="653" 
d="M487 0h-86v48q-42 -33 -74 -47t-70 -14q-100 0 -168 78q-58 67 -58 157q0 104 75 174q64 60 151 60q38 0 70 -13.5t74 -47.5v272h86v-667zM261 378q-68 0 -108 -49q-36 -43 -36 -107q0 -74 46 -118q39 -39 98 -39q66 0 106 49q35 43 35 108q0 74 -45 118q-38 38 -96 38z
M529 516l51 170l82 -25l-71 -164z" />
    <glyph glyph-name="Dcroat" unicode="&#x110;" horiz-adv-x="633" 
d="M25 320v79h65v268h143q177 0 276 -102q85 -88 85 -231q0 -165 -110 -255q-96 -79 -251 -79h-143v320h-65zM180 399h154v-79h-154v-237h56q132 0 205 76q63 67 63 175q0 123 -82 191q-71 59 -186 59h-56v-185z" />
    <glyph glyph-name="dcroat" unicode="&#x111;" horiz-adv-x="547" 
d="M401 591v76h86v-76h59v-77h-59v-514h-86v48q-42 -33 -74 -47t-70 -14q-100 0 -168 78q-58 67 -58 157q0 104 75 174q64 60 151 60q38 0 70 -13.5t74 -47.5v119h-117v77h117zM261 378q-68 0 -108 -49q-36 -43 -36 -107q0 -74 46 -118q39 -39 98 -39q66 0 106 49
q35 43 35 108q0 74 -45 118q-38 38 -96 38z" />
    <glyph glyph-name="Emacron" unicode="&#x112;" horiz-adv-x="478" 
d="M430 584h-264v-205h234v-83h-234v-213h274v-83h-363v667h353v-83zM115 829h287v-77h-287v77z" />
    <glyph glyph-name="emacron" unicode="&#x113;" horiz-adv-x="495" 
d="M463 187h-344q10 -60 51 -93q35 -29 85 -29q82 0 126 71q0 1 2 4l74 -32q-71 -121 -202 -121q-102 0 -168 76q-56 66 -56 159q0 105 71 174q62 60 147 60q100 0 161 -77q54 -67 54 -165q0 -6 -1 -27zM378 256q-11 62 -49 95q-33 29 -79 29q-54 0 -90 -38q-31 -32 -41 -86
h259zM104 629h286v-77h-286v77z" />
    <glyph glyph-name="Ebreve" unicode="&#x114;" horiz-adv-x="478" 
d="M430 584h-264v-205h234v-83h-234v-213h274v-83h-363v667h353v-83zM120 853l73 6q1 -4 1 -7q4 -70 63 -70q40 0 58 38q4 10 8 39l74 -6q-8 -73 -49 -111q-36 -33 -91 -33q-66 0 -103 44q-33 38 -34 100z" />
    <glyph glyph-name="ebreve" unicode="&#x115;" horiz-adv-x="495" 
d="M463 187h-344q10 -60 51 -93q35 -29 85 -29q82 0 126 71q0 1 2 4l74 -32q-71 -121 -202 -121q-102 0 -168 76q-56 66 -56 159q0 105 71 174q62 60 147 60q100 0 161 -77q54 -67 54 -165q0 -6 -1 -27zM378 256q-11 62 -49 95q-33 29 -79 29q-54 0 -90 -38q-31 -32 -41 -86
h259zM111 653l74 6q1 -30 6 -41q18 -36 57 -36q40 0 58 38q5 11 8 39l74 -6q-7 -73 -49 -111q-36 -33 -91 -33q-66 0 -103 44q-33 38 -34 100z" />
    <glyph glyph-name="Edotaccent" unicode="&#x116;" horiz-adv-x="478" 
d="M430 584h-264v-205h234v-83h-234v-213h274v-83h-363v667h353v-83zM201 791q0 23 16.5 39.5t40.5 16.5t40.5 -16.5t16.5 -39.5q0 -24 -16.5 -40.5t-40.5 -16.5q-23 0 -40 16.5t-17 40.5z" />
    <glyph glyph-name="edotaccent" unicode="&#x117;" horiz-adv-x="495" 
d="M463 187h-344q10 -60 51 -93q35 -29 85 -29q82 0 126 71q0 1 2 4l74 -32q-71 -121 -202 -121q-102 0 -168 76q-56 66 -56 159q0 105 71 174q62 60 147 60q100 0 161 -77q54 -67 54 -165q0 -6 -1 -27zM378 256q-11 62 -49 95q-33 29 -79 29q-54 0 -90 -38q-31 -32 -41 -86
h259zM190 592q0 23 16.5 39.5t40.5 16.5t40.5 -16.5t16.5 -39.5q0 -24 -16.5 -40.5t-40.5 -16.5t-40.5 16.5t-16.5 40.5z" />
    <glyph glyph-name="Eogonek" unicode="&#x118;" horiz-adv-x="478" 
d="M440 83v-83l-3 -3q-1 -1 -1 -2q-33 -40 -33 -61q0 -20 25 -20q17 0 43 9l24 -63q-42 -16 -74 -16q-44 0 -72 28q-24 23 -24 57q0 33 29 71h-277v667h353v-83h-264v-205h234v-83h-234v-213h274z" />
    <glyph glyph-name="eogonek" unicode="&#x119;" horiz-adv-x="495" 
d="M457 108q-61 -102 -169 -118q-28 -35 -28 -56q0 -20 25 -20q17 0 42 9l25 -63q-42 -16 -74 -16q-44 0 -72 28q-24 23 -24 57q0 31 24 64q-85 19 -133 89q-42 61 -42 140q0 105 71 174q62 60 147 60q100 0 161 -77q54 -67 54 -165q0 -6 -1 -27h-344q10 -60 51 -93
q35 -29 85 -29q82 0 126 71q0 1 2 4zM378 256q-11 62 -49 95q-33 29 -79 29q-54 0 -90 -38q-31 -32 -41 -86h259z" />
    <glyph glyph-name="Ecaron" unicode="&#x11a;" horiz-adv-x="478" 
d="M430 584h-264v-205h234v-83h-234v-213h274v-83h-363v667h353v-83zM259 793l90 87l63 -31l-122 -135h-63l-122 135l63 31z" />
    <glyph glyph-name="ecaron" unicode="&#x11b;" horiz-adv-x="495" 
d="M463 187h-344q10 -60 51 -93q35 -29 85 -29q82 0 126 71q0 1 2 4l74 -32q-71 -121 -202 -121q-102 0 -168 76q-56 66 -56 159q0 105 71 174q62 60 147 60q100 0 161 -77q54 -67 54 -165q0 -6 -1 -27zM378 256q-11 62 -49 95q-33 29 -79 29q-54 0 -90 -38q-31 -32 -41 -86
h259zM247 593l91 87l63 -31l-123 -135h-62l-123 135l63 31z" />
    <glyph glyph-name="Gcircumflex" unicode="&#x11c;" horiz-adv-x="727" 
d="M402 352h285v-44q0 -155 -93 -244q-81 -77 -207 -77q-95 0 -176 47q-79 45 -125 124q-47 80 -47 175t47 175q46 79 124 124q81 47 175 47q72 0 129.5 -26t118.5 -86l-62 -60q-46 48 -88.5 68t-97.5 20q-116 0 -191 -85q-65 -74 -65 -177q0 -118 84 -195q73 -67 173 -67
q53 0 97.5 21.5t72.5 59.5q32 45 39 117h-193v83zM369 795l-90 -88l-63 32l122 134h63l122 -134l-63 -32z" />
    <glyph glyph-name="gcircumflex" unicode="&#x11d;" horiz-adv-x="547" 
d="M487 443v-451q0 -115 -73 -181q-63 -57 -161 -57q-100 0 -167 61q-14 11 -41 42l56 56l6 -6q32 -37 50 -49q41 -26 94 -26q75 0 116 48q34 41 34 112v56q-62 -61 -143 -61q-101 0 -169 78q-58 66 -58 157q0 104 75 174q64 60 152 60q81 0 143 -61v48h86zM261 378
q-67 0 -108 -49q-36 -43 -36 -107q0 -74 46 -118q39 -39 98 -39q67 0 107 49q34 43 34 108q0 74 -44 118q-39 38 -97 38zM259 595l-91 -88l-63 32l123 134h62l123 -134l-63 -32z" />
    <glyph glyph-name="Gbreve" unicode="&#x11e;" horiz-adv-x="727" 
d="M402 352h285v-44q0 -155 -93 -244q-81 -77 -207 -77q-95 0 -176 47q-79 45 -125 124q-47 80 -47 175t47 175q46 79 124 124q81 47 175 47q72 0 129.5 -26t118.5 -86l-62 -60q-46 48 -88.5 68t-97.5 20q-116 0 -191 -85q-65 -74 -65 -177q0 -118 84 -195q73 -67 173 -67
q53 0 97.5 21.5t72.5 59.5q32 45 39 117h-193v83zM249 853l74 6q1 -30 7 -41q17 -36 56 -36q40 0 58 38q5 10 9 39l73 -6q-7 -73 -49 -111q-36 -33 -91 -33q-65 0 -103 44q-33 38 -34 100z" />
    <glyph glyph-name="gbreve" unicode="&#x11f;" horiz-adv-x="547" 
d="M487 443v-451q0 -115 -73 -181q-63 -57 -161 -57q-100 0 -167 61q-14 11 -41 42l56 56l6 -6q32 -37 50 -49q41 -26 94 -26q75 0 116 48q34 41 34 112v56q-62 -61 -143 -61q-101 0 -169 78q-58 66 -58 157q0 104 75 174q64 60 152 60q81 0 143 -61v48h86zM261 378
q-67 0 -108 -49q-36 -43 -36 -107q0 -74 46 -118q39 -39 98 -39q67 0 107 49q34 43 34 108q0 74 -44 118q-39 38 -97 38zM122 653l74 6q2 -30 7 -41q17 -36 56 -36q40 0 58 38q5 10 9 39l73 -6q-7 -73 -49 -111q-36 -33 -90 -33q-66 0 -104 44q-33 38 -34 100z" />
    <glyph glyph-name="Gdotaccent" unicode="&#x120;" horiz-adv-x="727" 
d="M402 352h285v-44q0 -155 -93 -244q-81 -77 -207 -77q-95 0 -176 47q-79 45 -125 124q-47 80 -47 175t47 175q46 79 124 124q81 47 175 47q72 0 129.5 -26t118.5 -86l-62 -60q-46 48 -88.5 68t-97.5 20q-116 0 -191 -85q-65 -74 -65 -177q0 -118 84 -195q73 -67 173 -67
q53 0 97.5 21.5t72.5 59.5q32 45 39 117h-193v83zM329 791q0 23 16.5 39.5t40.5 16.5t40.5 -16.5t16.5 -39.5q0 -24 -16.5 -40.5t-40.5 -16.5q-23 0 -40 16.5t-17 40.5z" />
    <glyph glyph-name="gdotaccent" unicode="&#x121;" horiz-adv-x="547" 
d="M487 443v-451q0 -115 -73 -181q-63 -57 -161 -57q-100 0 -167 61q-14 11 -41 42l56 56l6 -6q32 -37 50 -49q41 -26 94 -26q75 0 116 48q34 41 34 112v56q-62 -61 -143 -61q-101 0 -169 78q-58 66 -58 157q0 104 75 174q64 60 152 60q81 0 143 -61v48h86zM261 378
q-67 0 -108 -49q-36 -43 -36 -107q0 -74 46 -118q39 -39 98 -39q67 0 107 49q34 43 34 108q0 74 -44 118q-39 38 -97 38zM202 592q0 23 17 39.5t40 16.5q24 0 41 -16.5t17 -39.5q0 -24 -17 -40.5t-41 -16.5q-23 0 -40 16.5t-17 40.5z" />
    <glyph glyph-name="Gcommaaccent" unicode="&#x122;" horiz-adv-x="727" 
d="M402 352h285v-44q0 -155 -93 -244q-81 -77 -207 -77q-95 0 -176 47q-79 45 -125 124q-47 80 -47 175t47 175q46 79 124 124q81 47 175 47q72 0 129.5 -26t118.5 -86l-62 -60q-46 48 -88.5 68t-97.5 20q-116 0 -191 -85q-65 -74 -65 -177q0 -118 84 -195q73 -67 173 -67
q53 0 97.5 21.5t72.5 59.5q32 45 39 117h-193v83zM297 -209l50 170l83 -25l-71 -164z" />
    <glyph glyph-name="gcommaaccent" unicode="&#x123;" horiz-adv-x="547" 
d="M487 443v-451q0 -115 -73 -181q-63 -57 -161 -57q-100 0 -167 61q-14 11 -41 42l56 56l6 -6q32 -37 50 -49q41 -26 94 -26q75 0 116 48q34 41 34 112v56q-62 -61 -143 -61q-101 0 -169 78q-58 66 -58 157q0 104 75 174q64 60 152 60q81 0 143 -61v48h86zM261 378
q-67 0 -108 -49q-36 -43 -36 -107q0 -74 46 -118q39 -39 98 -39q67 0 107 49q34 43 34 108q0 74 -44 118q-39 38 -97 38zM351 667l-50 -170l-82 25l71 164z" />
    <glyph glyph-name="Hcircumflex" unicode="&#x124;" horiz-adv-x="650" 
d="M77 667h89v-288h319v288h89v-667h-89v296h-319v-296h-89v667zM325 795l-90 -88l-63 32l122 134h63l122 -134l-63 -32z" />
    <glyph glyph-name="hcircumflex" unicode="&#x125;" horiz-adv-x="509" 
d="M60 667h86v-265q48 54 122 54q49 0 91 -23t64 -62q27 -46 27 -132v-239h-86v231q0 69 -17 101q-24 44 -87 44q-31 0 -57.5 -13.5t-38.5 -35.5q-18 -32 -18 -105v-222h-86v667zM258 795l-91 -88l-63 32l123 134h63l122 -134l-63 -32z" />
    <glyph glyph-name="Hbar" unicode="&#x126;" horiz-adv-x="651" 
d="M574 514v-514h-89v296h-319v-296h-89v514h-59v77h59v76h89v-76h319v76h89v-76h59v-77h-59zM485 514h-319v-135h319v135z" />
    <glyph glyph-name="hbar" unicode="&#x127;" horiz-adv-x="509" 
d="M145 514v-112q48 54 122 54q50 0 91.5 -23t64.5 -62q26 -46 26 -132v-239h-85v231q0 69 -18 101q-24 44 -87 44q-31 0 -57.5 -13.5t-38.5 -35.5q-18 -32 -18 -105v-222h-86v514h-59v77h59v76h86v-76h118v-77h-118z" />
    <glyph glyph-name="Itilde" unicode="&#x128;" horiz-adv-x="243" 
d="M166 667v-667h-90v667h90zM194 849l70 -17q-8 -96 -85 -96q-33 0 -71 20q-26 14 -40 14q-15 0 -21 -37l-69 16q5 49 30 75q22 21 56 21q30 0 73 -21q23 -12 39 -12q15 0 18 37z" />
    <glyph glyph-name="itilde" unicode="&#x129;" horiz-adv-x="206" 
d="M146 443v-443h-86v443h86zM176 649l70 -17q-8 -96 -85 -96q-33 0 -71 20q-26 14 -40 14q-15 0 -21 -37l-69 16q5 49 30 75q22 21 56 21q30 0 73 -21q23 -12 39 -12q15 0 18 37z" />
    <glyph glyph-name="Imacron" unicode="&#x12a;" horiz-adv-x="243" 
d="M166 667v-667h-89v667h89zM-22 829h286v-77h-286v77z" />
    <glyph glyph-name="imacron" unicode="&#x12b;" horiz-adv-x="206" 
d="M146 443v-443h-86v443h86zM-40 629h286v-77h-286v77z" />
    <glyph glyph-name="Ibreve" unicode="&#x12c;" horiz-adv-x="243" 
d="M166 667v-667h-89v667h89zM-17 853l74 6v-7q4 -70 63 -70q40 0 58 38q4 10 8 39l74 -6q-8 -73 -49 -111q-36 -33 -91 -33q-66 0 -103 44q-33 38 -34 100z" />
    <glyph glyph-name="ibreve" unicode="&#x12d;" horiz-adv-x="206" 
d="M146 443v-443h-85v443h85zM-35 653l74 6q1 -30 6 -41q18 -36 57 -36q40 0 58 38q4 10 8 39l74 -6q-8 -73 -49 -111q-36 -33 -91 -33q-66 0 -103 44q-33 38 -34 100z" />
    <glyph glyph-name="Iogonek" unicode="&#x12e;" horiz-adv-x="243" 
d="M77 667h89v-667q-1 -2 -3 -4q-33 -40 -33 -62q0 -20 24 -20q17 0 43 9l25 -63q-43 -16 -75 -16q-43 0 -71 28q-24 23 -24 57q0 33 29 71h-4v667z" />
    <glyph glyph-name="iogonek" unicode="&#x12f;" horiz-adv-x="206" 
d="M146 0q-1 -2 -4 -5q-32 -40 -32 -61q0 -20 24 -20q18 0 43 9l25 -63q-43 -16 -75 -16q-43 0 -71 28q-24 23 -24 57q0 33 29 71v443h85v-443zM46 592q0 24 17 40.5t41 16.5t40.5 -16.5t16.5 -40.5t-16.5 -41t-41.5 -17q-23 0 -40 17t-17 41z" />
    <glyph glyph-name="Idotaccent" unicode="&#x130;" horiz-adv-x="243" 
d="M166 667v-667h-90v667h90zM64 791q0 23 16.5 39.5t40.5 16.5t40.5 -16.5t16.5 -39.5q0 -24 -16.5 -40.5t-40.5 -16.5t-40.5 16.5t-16.5 40.5z" />
    <glyph glyph-name="dotlessi" unicode="&#x131;" horiz-adv-x="206" 
d="M146 443v-443h-86v443h86z" />
    <glyph glyph-name="IJ" unicode="&#x132;" horiz-adv-x="643" 
d="M166 667v-667h-89v667h89zM567 667v-465q0 -50 -6.5 -80t-21.5 -58q-21 -35 -59 -56t-83 -21q-44 0 -81.5 18t-80.5 59l55 65q56 -58 105 -58q82 0 82 131v465h90z" />
    <glyph glyph-name="ij" unicode="&#x133;" horiz-adv-x="419" 
d="M146 443v-443h-86v443h86zM45 592q0 24 17 40.5t41 16.5t41 -16.5t17 -40.5t-17 -41t-41 -17t-41 17t-17 41zM257 592q0 24 17 40.5t41 16.5t41 -16.5t17 -40.5t-17 -41t-41 -17t-41 17t-17 41zM194 -154q26 -7 40 -7q38 0 38 64v540h86v-540q0 -74 -33 -111
q-28 -33 -77 -33q-24 0 -54 8v79z" />
    <glyph glyph-name="Jcircumflex" unicode="&#x134;" horiz-adv-x="409" 
d="M332 667v-465q0 -50 -6 -80t-22 -58q-20 -35 -58 -56t-84 -21q-44 0 -81 18t-81 59l55 65q56 -58 105 -58q83 0 83 131v465h89zM250 795l-90 -88l-63 32l122 134h63l122 -134l-63 -32z" />
    <glyph glyph-name="jcircumflex" unicode="&#x135;" horiz-adv-x="216" 
d="M-9 -154q26 -7 40 -7q38 0 38 64v540h86v-540q0 -74 -32 -111q-29 -33 -78 -33q-24 0 -54 8v79zM99 595l-91 -88l-63 32l123 134h62l123 -134l-63 -32z" />
    <glyph glyph-name="Kcommaaccent" unicode="&#x136;" horiz-adv-x="576" 
d="M236 -209l51 170l82 -25l-71 -164zM313 388l259 -388h-105l-214 323l-87 -95v-228h-89v667h89v-321l293 321h109z" />
    <glyph glyph-name="kcommaaccent" unicode="&#x137;" horiz-adv-x="470" 
d="M268 261l204 -261h-105l-157 204l-64 -64v-140h-86v667h86v-419l196 195h111zM167 -209l50 170l83 -25l-71 -164z" />
    <glyph glyph-name="kgreenlandic" unicode="&#x138;" horiz-adv-x="470" 
d="M268 261l204 -261h-105l-157 204l-64 -64v-140h-86v443h86v-195l196 195h111z" />
    <glyph glyph-name="Lacute" unicode="&#x139;" horiz-adv-x="423" 
d="M166 667v-584h254v-83h-344v667h90zM260 842l-135 -135l-55 32l108 148z" />
    <glyph glyph-name="lacute" unicode="&#x13a;" horiz-adv-x="207" 
d="M146 0h-85v667h85v-667zM245 854l-135 -135l-55 31l108 148z" />
    <glyph glyph-name="Lcommaaccent" unicode="&#x13b;" horiz-adv-x="429" 
d="M166 667v-584h254v-83h-343v667h89zM186 -209l50 170l82 -25l-71 -164z" />
    <glyph glyph-name="lcommaaccent" unicode="&#x13c;" horiz-adv-x="207" 
d="M147 0h-86v667h86v-667zM21 -209l50 170l82 -25l-70 -164z" />
    <glyph glyph-name="Lcaron" unicode="&#x13d;" horiz-adv-x="429" 
d="M166 667v-584h254v-83h-343v667h89zM253 513l50 169l82 -24l-71 -165z" />
    <glyph glyph-name="lcaron" unicode="&#x13e;" horiz-adv-x="312" 
d="M147 0h-86v667h86v-667zM189 516l50 170l82 -25l-71 -164z" />
    <glyph glyph-name="Ldot" unicode="&#x13f;" horiz-adv-x="429" 
d="M269 334q0 23 16.5 39.5t39.5 16.5q24 0 40.5 -16.5t16.5 -40.5q0 -23 -16.5 -39.5t-39.5 -16.5q-24 0 -40.5 16.5t-16.5 40.5zM166 667v-584h254v-83h-343v667h89z" />
    <glyph glyph-name="ldot" unicode="&#x140;" horiz-adv-x="347" 
d="M147 0h-86v667h86v-667zM220 333q0 24 16.5 40.5t40.5 16.5t40.5 -16.5t16.5 -40.5q0 -23 -16.5 -39.5t-40.5 -16.5q-23 0 -40 16.5t-17 39.5z" />
    <glyph glyph-name="Lslash" unicode="&#x141;" horiz-adv-x="443" 
d="M90 363v304h90v-257l112 76v-91l-112 -77v-235h254v-83h-344v271l-65 -45v92z" />
    <glyph glyph-name="lslash" unicode="&#x142;" horiz-adv-x="255" 
d="M85 0v275l-63 -42v93l63 42v299h86v-241l63 42v-93l-63 -43v-332h-86z" />
    <glyph glyph-name="Nacute" unicode="&#x143;" horiz-adv-x="709" 
d="M77 0v667h81l386 -518v518h89v-667h-81l-386 518v-518h-89zM501 842l-135 -135l-56 32l108 148z" />
    <glyph glyph-name="nacute" unicode="&#x144;" horiz-adv-x="509" 
d="M60 443h86v-41q48 54 122 54q49 0 91 -23t64 -62q27 -46 27 -132v-239h-86v231q0 69 -17 101q-24 44 -87 44q-31 0 -57.5 -13.5t-38.5 -35.5q-18 -32 -18 -105v-222h-86v443zM402 642l-134 -135l-56 32l108 148z" />
    <glyph glyph-name="Ncommaaccent" unicode="&#x145;" horiz-adv-x="709" 
d="M77 0v667h81l386 -518v518h89v-667h-81l-386 518v-518h-89zM289 -209l50 170l83 -25l-71 -164z" />
    <glyph glyph-name="ncommaaccent" unicode="&#x146;" horiz-adv-x="509" 
d="M60 443h86v-41q48 54 122 54q49 0 91 -23t64 -62q27 -46 27 -132v-239h-86v231q0 69 -17 101q-24 44 -87 44q-31 0 -57.5 -13.5t-38.5 -35.5q-18 -32 -18 -105v-222h-86v443zM189 -209l51 170l82 -25l-71 -164z" />
    <glyph glyph-name="Ncaron" unicode="&#x147;" horiz-adv-x="709" 
d="M77 0v667h81l386 -518v518h89v-667h-81l-386 518v-518h-89zM372 793l90 87l63 -31l-122 -135h-63l-122 135l63 31z" />
    <glyph glyph-name="ncaron" unicode="&#x148;" horiz-adv-x="509" 
d="M60 443h86v-41q48 54 122 54q49 0 91 -23t64 -62q27 -46 27 -132v-239h-86v231q0 69 -17 101q-24 44 -87 44q-31 0 -57.5 -13.5t-38.5 -35.5q-18 -32 -18 -105v-222h-86v443zM260 593l91 87l63 -31l-123 -135h-62l-123 135l63 31z" />
    <glyph glyph-name="napostrophe" unicode="&#x149;" horiz-adv-x="595" 
d="M145 443h86v-41q48 54 122 54q50 0 91.5 -23t64.5 -62q26 -46 26 -132v-239h-85v231q0 69 -18 101q-24 44 -87 44q-31 0 -57.5 -13.5t-38.5 -35.5q-18 -32 -18 -105v-222h-86v443zM84 664l78 -28l-106 -238l-59 24z" />
    <glyph glyph-name="Eng" unicode="&#x14a;" horiz-adv-x="709" 
d="M633 667v-673q0 -75 -32 -112q-28 -32 -78 -32q-24 0 -54 8v79q26 -7 40 -7q38 0 38 63v14l-381 511v-518h-89v667h81l386 -518v518h89z" />
    <glyph glyph-name="eng" unicode="&#x14b;" horiz-adv-x="509" 
d="M60 0v443h86v-41q48 54 122 54q49 0 91 -23t64 -62q27 -46 27 -132v-250q0 -70 -33 -107q-29 -32 -77 -32q-24 0 -54 8v79q26 -7 40 -7q38 0 38 63v238q0 69 -17 101q-24 44 -87 44q-32 0 -58 -13.5t-38 -35.5q-18 -32 -18 -105v-222h-86z" />
    <glyph glyph-name="Omacron" unicode="&#x14c;" horiz-adv-x="763" 
d="M39 333q0 93 47 174q46 79 123 125q80 47 173 47q92 0 172 -47q78 -47 124 -125q47 -81 47 -174t-47 -174q-46 -78 -124 -124q-80 -48 -172 -48t-172 48q-78 46 -124 124q-47 81 -47 174zM129 333q0 -116 84 -194q72 -68 169 -68q112 0 187 87q66 75 66 175
q0 117 -84 195q-71 67 -169 67q-113 0 -188 -86q-65 -75 -65 -176zM239 829h286v-77h-286v77z" />
    <glyph glyph-name="omacron" unicode="&#x14d;" horiz-adv-x="524" 
d="M262 456q104 0 172 -76q59 -66 59 -158q0 -106 -76 -175q-65 -60 -155 -60q-105 0 -172 77q-59 66 -59 158q0 106 75 175q65 59 156 59zM262 378q-68 0 -109 -49q-36 -43 -36 -107q0 -74 46 -119q40 -38 99 -38q68 0 109 49q35 44 35 108q0 74 -45 118q-40 38 -99 38z
M119 629h286v-77h-286v77z" />
    <glyph glyph-name="Obreve" unicode="&#x14e;" horiz-adv-x="763" 
d="M39 333q0 93 47 174q46 79 123 125q80 47 173 47q92 0 172 -47q78 -47 124 -125q47 -81 47 -174t-47 -174q-46 -78 -124 -124q-80 -48 -172 -48t-172 48q-78 46 -124 124q-47 81 -47 174zM129 333q0 -116 84 -194q72 -68 169 -68q112 0 187 87q66 75 66 175
q0 117 -84 195q-71 67 -169 67q-113 0 -188 -86q-65 -75 -65 -176zM243 853l74 6q2 -30 7 -41q17 -36 56 -36q41 0 58 38q5 11 9 39l73 -6q-7 -73 -49 -111q-36 -33 -90 -33q-66 0 -104 44q-32 38 -34 100z" />
    <glyph glyph-name="obreve" unicode="&#x14f;" horiz-adv-x="524" 
d="M262 456q104 0 172 -76q59 -66 59 -158q0 -106 -76 -175q-65 -60 -155 -60q-105 0 -172 77q-59 66 -59 158q0 106 75 175q65 59 156 59zM262 378q-68 0 -109 -49q-36 -43 -36 -107q0 -74 46 -119q40 -38 99 -38q68 0 109 49q35 44 35 108q0 74 -45 118q-40 38 -99 38z
M123 653l74 6q1 -30 7 -41q17 -36 56 -36q40 0 58 38q5 10 9 39l73 -6q-7 -73 -49 -111q-36 -33 -91 -33q-65 0 -103 44q-33 38 -34 100z" />
    <glyph glyph-name="Ohungarumlaut" unicode="&#x150;" horiz-adv-x="763" 
d="M39 333q0 93 47 174q46 79 123 125q80 47 173 47q92 0 172 -47q78 -47 124 -125q47 -81 47 -174t-47 -174q-46 -78 -124 -124q-80 -48 -172 -48t-172 48q-78 46 -124 124q-47 81 -47 174zM129 333q0 -116 84 -194q72 -68 169 -68q112 0 187 87q66 75 66 175
q0 117 -84 195q-71 67 -169 67q-113 0 -188 -86q-65 -75 -65 -176zM447 843l-135 -136l-49 32l107 148zM589 842l-135 -135l-50 31l109 149z" />
    <glyph glyph-name="ohungarumlaut" unicode="&#x151;" horiz-adv-x="525" 
d="M262 456q104 0 172 -76q59 -66 59 -158q0 -106 -76 -175q-65 -60 -155 -60q-105 0 -172 77q-59 66 -59 158q0 106 75 175q66 59 156 59zM262 378q-69 0 -109 -49q-36 -43 -36 -107q0 -74 46 -119q40 -38 99 -38q68 0 109 50q35 43 35 107q0 74 -45 118q-40 38 -99 38z
M337 643l-136 -136l-49 32l108 148zM479 642l-135 -135l-50 31l109 149z" />
    <glyph glyph-name="OE" unicode="&#x152;" horiz-adv-x="1036" 
d="M635 564v103h352v-83h-263v-205h234v-83h-234v-213h273v-83h-362v102q-53 -59 -123 -89q-62 -26 -129 -26q-93 0 -173 48q-78 46 -124 124q-47 81 -47 174q0 94 47 174q46 79 124 125q80 47 173 47q149 0 252 -115zM129 333q0 -116 84 -194q72 -68 169 -68q112 0 187 87
q66 75 66 175q0 117 -84 195q-71 67 -169 67q-113 0 -188 -86q-65 -75 -65 -176z" />
    <glyph glyph-name="oe" unicode="&#x153;" horiz-adv-x="870" 
d="M832 108q-71 -121 -203 -121q-112 0 -181 96q-69 -96 -186 -96q-104 0 -172 77q-59 66 -59 158q0 106 75 175q65 59 156 59q117 0 186 -96q68 96 176 96q101 0 162 -78q53 -67 53 -167q0 -6 -1 -24h-344q10 -60 51 -94q35 -28 85 -28q83 0 126 71v1q1 2 2 3zM262 378
q-68 0 -109 -49q-36 -43 -36 -107q0 -74 46 -119q40 -38 99 -38q68 0 109 49q35 44 35 108q0 74 -45 118q-40 38 -99 38zM754 256q-12 62 -50 95q-33 28 -79 28q-54 0 -91 -37q-31 -33 -40 -86h260z" />
    <glyph glyph-name="Racute" unicode="&#x154;" horiz-adv-x="540" 
d="M389 842l-135 -135l-55 32l107 148zM359 287l160 -287h-100l-147 266q-33 -2 -53 -2h-53v-264h-89v667h142q100 0 153 -31q48 -27 74 -78q23 -44 23 -95q0 -63 -33 -111q-28 -42 -77 -65zM166 345h62q66 0 101 20q53 29 53 98q0 34 -15 61t-40 42q-34 19 -99 19h-62v-240
z" />
    <glyph glyph-name="racute" unicode="&#x155;" horiz-adv-x="298" 
d="M60 443h86v-43q31 28 51 36.5t55 8.5q13 0 29 -2v-77q-19 1 -27 1q-67 0 -90 -45q-18 -34 -18 -108v-214h-86v443zM279 642l-134 -135l-56 32l108 148z" />
    <glyph glyph-name="Rcommaaccent" unicode="&#x156;" horiz-adv-x="540" 
d="M211 -209l50 170l82 -25l-71 -164zM359 287l160 -287h-100l-147 266q-33 -2 -53 -2h-53v-264h-89v667h142q100 0 153 -31q48 -27 74 -78q23 -44 23 -95q0 -63 -33 -111q-28 -42 -77 -65zM166 345h62q66 0 101 20q53 29 53 98q0 34 -15 61t-40 42q-34 19 -99 19h-62v-240z
" />
    <glyph glyph-name="rcommaaccent" unicode="&#x157;" horiz-adv-x="298" 
d="M60 443h85v-43q32 28 52 36.5t55 8.5q13 0 29 -2v-77q-19 1 -28 1q-66 0 -90 -45q-18 -34 -18 -108v-214h-85v443zM18 -209l50 170l82 -25l-70 -164z" />
    </font>
</defs>
</svg>
