<svg width="152" height="152" viewBox="0 0 152 152" fill="none" xmlns="http://www.w3.org/2000/svg">
<g clip-path="url(#clip0_1_2682)">
<mask id="mask0_1_2682" style="mask-type:luminance" maskUnits="userSpaceOnUse" x="0" y="0" width="152" height="152">
<path d="M152 0H0V152H152V0Z" fill="white"/>
</mask>
<g mask="url(#mask0_1_2682)">
<path d="M0 52.5467C0.192375 52.0456 0.387125 51.5468 0.577125 51.0457C1.29419 49.1582 2.61362 47.5597 4.33105 46.4979C6.04849 45.4361 8.06811 44.9702 10.0771 45.1723C12.1157 45.368 14.0252 46.2577 15.4864 47.6925C16.9476 49.1273 17.8719 51.0203 18.1046 53.055C18.7055 59.5981 19.1021 66.1602 19.5866 72.7128C19.8503 76.2611 19.9524 79.8378 20.4583 83.3433C20.7077 84.9424 21.3967 86.4406 22.4485 87.6706C28.0345 93.9525 33.7701 100.104 39.4725 106.279C39.7267 106.617 40.0485 106.899 40.4175 107.106C40.7865 107.313 41.1945 107.441 41.6157 107.481C42.0368 107.522 42.4618 107.474 42.8636 107.342C43.2654 107.209 43.6352 106.994 43.9494 106.711C44.2571 106.424 44.503 106.077 44.6718 105.692C44.8406 105.306 44.9288 104.89 44.931 104.469C44.9333 104.049 44.8494 103.632 44.6847 103.244C44.52 102.857 44.2778 102.508 43.9731 102.217C39.2065 96.926 34.4066 91.6653 29.6281 86.3857C28.1586 84.9915 27.2668 83.0959 27.1295 81.0749C26.9923 79.0539 27.6196 77.0551 28.8871 75.475C29.6038 74.5685 30.5091 73.8288 31.5403 73.3072C32.5714 72.7856 33.7037 72.4946 34.8586 72.4543C36.0135 72.4141 37.1633 72.6256 38.2282 73.0742C39.2932 73.5229 40.2477 74.1978 41.0257 75.0522C49.381 83.5547 57.7386 92.0525 65.9751 100.667C67.6089 102.446 68.9696 104.458 70.0126 106.637C72.2772 111.518 72.8287 117.02 71.5778 122.253C69.8369 131.311 68.2646 140.4 66.5285 149.461C66.1725 150.385 65.6652 151.244 65.0275 152.002H34.4494C33.9301 151.717 33.5079 151.283 33.2371 150.756C32.9662 150.229 32.8591 149.634 32.9294 149.045C33.0196 146.034 32.9294 143.018 33.003 140.006C33.0272 139.118 32.876 138.234 32.5582 137.404C32.2403 136.574 31.7619 135.815 31.1505 135.171C22.8119 125.794 14.5611 116.337 6.13938 107.039C2.34551 103.008 0.274805 97.6558 0.368125 92.1213C0.387125 85.4523 0.268375 78.7833 0.192375 72.1143C0.192375 71.4303 0.0665 70.7487 0 70.0647V52.5491M62.263 147.428C62.4007 146.882 62.5361 146.454 62.6145 146.02C64.1155 137.816 65.5215 129.592 67.127 121.41C67.9694 117.931 67.8474 114.288 66.774 110.873C65.7006 107.459 63.7165 104.401 61.0351 102.03C57.6579 98.8379 54.5181 95.3941 51.2668 92.0548C46.7717 87.4537 42.2726 82.8557 37.7696 78.2608C37.2579 77.6831 36.5714 77.2885 35.8146 77.1371C35.0578 76.9858 34.2723 77.086 33.5777 77.4225C32.8961 77.7378 32.3458 78.2812 32.0219 78.9589C31.698 79.6366 31.6208 80.4061 31.8036 81.1346C32.0872 82.0227 32.5688 82.8348 33.212 83.5096C37.9335 88.7797 42.712 93.9905 47.4501 99.2559C48.1779 99.979 48.7517 100.842 49.137 101.793C49.5223 102.744 49.7112 103.763 49.6921 104.788C49.673 105.814 49.4465 106.825 49.0261 107.761C48.6057 108.697 48.0002 109.538 47.2461 110.234C46.492 110.929 45.6048 111.465 44.6381 111.808C43.6714 112.152 42.6452 112.296 41.6212 112.232C40.5973 112.169 39.5968 111.898 38.6802 111.438C37.7635 110.977 36.9497 110.335 36.2876 109.551C30.4237 103.248 24.5456 96.964 18.8622 90.4874C17.4867 88.8807 16.5369 86.9542 16.1001 84.8847C15.5791 81.6166 15.2619 78.3193 15.1501 75.0118C14.63 67.9605 14.1692 60.9043 13.6301 53.8553C13.5428 52.7565 13.0511 51.7291 12.25 50.9718C11.4489 50.2146 10.3954 49.7814 9.29338 49.7561C8.19773 49.681 7.11389 50.0205 6.25688 50.7072C5.39988 51.394 4.83234 52.3778 4.66687 53.4635C4.55356 54.1947 4.5122 54.9353 4.54338 55.6746C4.69537 68.0935 4.89488 80.51 4.99937 92.9289C4.96579 96.7691 6.38705 100.48 8.9775 103.315C17.1095 112.439 25.1061 121.685 33.3616 130.696C34.8878 132.21 36.0584 134.045 36.7887 136.067C37.519 138.089 37.7908 140.248 37.5844 142.388C37.4347 144.036 37.5606 145.713 37.5606 147.43L62.263 147.428Z" fill="#FEC936"/>
<path d="M87.02 152C86.3354 151.215 85.7907 150.319 85.4098 149.349C83.5335 139.51 81.5837 129.675 80.0375 119.781C79.4252 116.375 79.6386 112.873 80.6597 109.567C81.6808 106.261 83.48 103.248 85.9062 100.781C94.2187 92.093 102.667 83.5358 111.095 74.9597C112.552 73.4576 114.54 72.5858 116.631 72.5311C118.723 72.4763 120.753 73.243 122.287 74.6668C123.82 76.0906 124.735 78.0584 124.835 80.1486C124.936 82.2387 124.213 84.285 122.823 85.8491C118.394 90.8485 113.862 95.7576 109.376 100.707C108.811 101.329 108.219 101.935 107.713 102.607C107.241 103.204 107.013 103.958 107.073 104.717C107.133 105.475 107.478 106.183 108.039 106.698C108.599 107.213 109.334 107.498 110.095 107.494C110.856 107.49 111.588 107.198 112.143 106.678C112.325 106.51 112.498 106.333 112.661 106.146C118.19 100.139 123.72 94.1331 129.252 88.1291C130.686 86.6732 131.554 84.7544 131.701 82.7165C132.135 76.304 132.592 69.8914 133.074 63.4789C133.337 59.8808 133.461 56.2613 133.962 52.6965C134.318 50.4469 135.516 48.417 137.314 47.0188C139.112 45.6206 141.374 44.9588 143.642 45.1677C145.888 45.343 147.988 46.3476 149.534 47.986C151.079 49.6243 151.96 51.7792 152.005 54.0312C151.888 67.7848 151.727 81.5385 151.404 95.2873C151.164 99.3846 149.453 103.257 146.585 106.193C144.451 108.598 142.313 111.002 140.173 113.404C138.973 114.748 137.641 114.964 136.57 114.012C135.499 113.059 135.522 111.798 136.769 110.376C138.857 108.001 140.947 105.626 143.072 103.267C145.598 100.56 147.005 96.9954 147.008 93.2923C147.152 80.5291 147.286 67.7658 147.412 55.0026C147.447 51.5849 145.478 49.5211 142.455 49.7776C141.409 49.8481 140.422 50.291 139.674 51.0259C138.926 51.7609 138.466 52.7393 138.377 53.7842C138.042 57.8739 137.783 61.9708 137.475 66.0629C137 72.2237 136.584 78.3868 136.028 84.5381C135.746 86.8721 134.693 89.0452 133.036 90.7131C127.318 96.9514 121.589 103.178 115.848 109.392C115.186 110.176 114.372 110.818 113.455 111.279C112.539 111.739 111.538 112.01 110.514 112.073C109.49 112.137 108.464 111.993 107.497 111.649C106.531 111.306 105.643 110.77 104.889 110.075C104.135 109.379 103.53 108.538 103.109 107.602C102.689 106.666 102.462 105.655 102.443 104.629C102.424 103.604 102.613 102.585 102.998 101.634C103.384 100.683 103.958 99.82 104.685 99.0968C109.217 94.0571 113.789 89.0506 118.339 84.0275C118.738 83.5881 119.154 83.1582 119.508 82.6856C120.087 81.9948 120.369 81.1026 120.292 80.2043C120.215 79.3061 119.785 78.4749 119.097 77.8928C118.429 77.3285 117.572 77.0391 116.699 77.0832C115.826 77.1273 115.002 77.5016 114.394 78.1303C111.452 81.0658 108.561 84.0536 105.657 87.0271C100.745 92.0526 95.9643 97.2111 90.9008 102.077C88.1644 104.569 86.166 107.765 85.1246 111.316C84.0833 114.867 84.039 118.636 84.9966 122.21C86.6377 130.031 87.9226 137.928 89.3666 145.792C89.4639 146.321 89.604 146.846 89.7204 147.433H114.406C114.406 145.815 114.371 144.253 114.406 142.695C114.316 140.872 114.43 139.044 114.746 137.246C115.195 135.533 116.012 133.938 117.14 132.572C121.46 127.48 125.961 122.543 130.388 117.541C130.69 117.051 131.163 116.689 131.716 116.526C132.268 116.363 132.862 116.409 133.382 116.655C133.733 116.817 134.037 117.066 134.265 117.378C134.492 117.69 134.637 118.055 134.684 118.439C134.732 118.822 134.681 119.211 134.536 119.57C134.392 119.928 134.158 120.243 133.857 120.486C130.233 124.611 126.732 128.87 122.887 132.774C121.441 134.044 120.329 135.65 119.649 137.45C118.969 139.25 118.741 141.19 118.985 143.098C119.223 144.998 118.985 146.955 119.071 148.882C119.156 149.493 119.061 150.116 118.796 150.674C118.531 151.232 118.108 151.699 117.579 152.019L87.02 152Z" fill="#FEC936"/>
<path d="M119.983 -6.64061e-05C121.664 1.30381 121.833 1.93556 120.994 3.90918C119.376 7.70918 117.753 11.5092 116.126 15.3092C115.397 17.0073 114.259 17.6177 112.929 17.0738C111.599 16.5299 111.228 15.2356 111.931 13.5707C113.575 9.67093 115.221 5.77356 116.919 1.89756C117.287 1.22552 117.717 0.589415 118.204 -0.00244141L119.983 -6.64061e-05Z" fill="#FEC936"/>
<path d="M33.2618 0C33.8317 0.519281 34.3272 1.11468 34.7344 1.76937C36.4871 5.72613 38.1757 9.71137 39.8382 13.7061C40.6719 15.7106 39.5247 17.537 37.6271 17.1523C37.2382 17.0487 36.8746 16.8665 36.5588 16.6169C36.2431 16.3673 35.9818 16.0556 35.7912 15.7011C33.953 11.6233 32.2715 7.47413 30.4926 3.37013C29.8656 1.92138 30.5876 0.957125 31.4782 0L33.2618 0Z" fill="#FEC936"/>
<path d="M55.853 53.1335L54.2047 62.9114C53.9506 64.4195 53.6751 65.9252 53.4447 67.4381C53.2662 68.2177 53.3333 69.0335 53.6369 69.7734C53.9405 70.5133 54.4658 71.1411 55.1405 71.5706C55.804 72.0112 56.5807 72.2506 57.3771 72.2598C58.1736 72.2691 58.9556 72.0479 59.6292 71.6229C63.4767 69.597 67.3575 67.6376 71.1693 65.5476C72.572 64.7012 74.1774 64.2493 75.8157 64.2396C77.4539 64.23 79.0644 64.6631 80.477 65.493C84.2128 67.5141 87.9986 69.4402 91.744 71.4471C92.4658 71.9893 93.3434 72.2837 94.2461 72.2864C95.1489 72.2891 96.0283 72 96.7533 71.4621C97.4783 70.9243 98.0101 70.1666 98.2694 69.3019C98.5287 68.4372 98.5016 67.5119 98.1921 66.6639C97.3965 62.1941 96.6365 57.7149 95.9406 53.2285C95.719 51.8529 95.8479 50.4435 96.3153 49.1309C96.7828 47.8183 97.5736 46.6447 98.6148 45.7188C101.769 42.6431 104.897 39.5438 108.079 36.499C108.79 35.992 109.323 35.2725 109.599 34.444C109.876 33.6155 109.883 32.7207 109.619 31.888C109.355 31.0554 108.834 30.3279 108.13 29.81C107.427 29.2922 106.578 29.0106 105.704 29.0059C101.299 28.4192 96.9167 27.683 92.5111 27.0584C91.0296 26.8845 89.6184 26.33 88.4148 25.4489C87.2111 24.5679 86.2561 23.3902 85.6426 22.0305C83.707 18.1402 81.7785 14.2429 79.8904 10.3289C79.6268 9.46918 79.0939 8.71696 78.3704 8.18313C77.6468 7.64931 76.7708 7.36215 75.8716 7.36401C74.9725 7.36587 74.0977 7.65666 73.3763 8.19347C72.655 8.73029 72.1252 9.48473 71.8652 10.3455C70.065 14.0837 68.1293 17.7555 66.3885 21.508C65.7025 23.1064 64.5924 24.4867 63.1782 25.4993C61.7641 26.512 60.0999 27.1185 58.3657 27.2531C54.105 27.8065 49.8561 28.4406 45.6025 29.0652C44.8569 29.1242 44.1429 29.3908 43.5412 29.835C42.9396 30.2791 42.4744 30.8829 42.1984 31.578C41.9225 32.2731 41.8468 33.0315 41.98 33.7674C42.1132 34.5033 42.4499 35.1871 42.952 35.7414C44.0563 37.1664 44.0611 38.5296 42.952 39.387C41.8428 40.2444 40.5152 39.9237 39.3515 38.5629C38.3994 37.4185 37.762 36.0457 37.5022 34.5799C37.2425 33.1141 37.3693 31.6059 37.8701 30.204C38.371 28.8022 39.2286 27.5551 40.3584 26.5857C41.4882 25.6163 42.8511 24.9582 44.3128 24.6762C48.9346 23.8687 53.5896 23.2512 58.2398 22.6124C59.0779 22.5378 59.8802 22.2379 60.5617 21.7446C61.2432 21.2512 61.7785 20.5827 62.1111 19.8099C63.9565 15.9837 65.9111 12.2099 67.728 8.37425C68.3624 6.72074 69.4849 5.29943 70.9464 4.29916C72.4079 3.29889 74.1392 2.76703 75.9102 2.77424C77.6813 2.78146 79.4082 3.32741 80.8615 4.33956C82.3148 5.35171 83.4257 6.78213 84.0466 8.44075C85.6379 11.8394 87.5474 15.0907 88.9652 18.5654C89.4328 19.8378 90.2799 20.9358 91.392 21.7111C92.504 22.4863 93.8274 22.9012 95.183 22.8997C99.2086 23.3106 103.208 23.9899 107.205 24.6406C108.764 24.8443 110.229 25.4984 111.421 26.5227C112.614 27.547 113.481 28.897 113.917 30.4071C114.464 31.8837 114.567 33.4882 114.212 35.0224C113.858 36.5566 113.061 37.9534 111.922 39.0402C108.69 42.3154 105.372 45.5074 102.051 48.6922C101.382 49.2775 100.887 50.0356 100.62 50.8835C100.354 51.7313 100.325 52.6363 100.539 53.4992C101.389 57.9595 102.092 62.4482 102.809 66.9346C103.103 68.4537 102.952 70.0251 102.376 71.461C101.8 72.8969 100.822 74.1363 99.5601 75.031C98.3571 76.0468 96.8787 76.6812 95.3137 76.8534C93.7486 77.0256 92.1677 76.7276 90.7726 75.9976C86.7462 74.001 82.7633 71.9182 78.824 69.749C77.9489 69.1956 76.9356 68.8999 75.9002 68.8957C74.8648 68.8915 73.8492 69.179 72.9696 69.7253C69.1696 71.8414 65.3173 73.853 61.4295 75.7981C60.2025 76.4839 58.8238 76.8524 57.4183 76.8704C56.0129 76.8884 54.6252 76.5552 53.3811 75.9011C52.137 75.247 51.0759 74.2926 50.294 73.1245C49.5122 71.9565 49.0343 70.6117 48.9037 69.2122C48.8779 66.6979 49.1667 64.1902 49.7635 61.7476C50.2385 58.7242 50.818 55.7175 51.3191 52.6989C51.4241 52.01 51.3518 51.3057 51.1092 50.6525C50.8665 49.9992 50.4614 49.4186 49.9321 48.9654C48.5071 47.5807 47.0821 46.2199 45.6785 44.821C44.4601 43.605 44.3603 42.3011 45.3578 41.2989C45.6005 41.0681 45.8892 40.8912 46.205 40.7799C46.5208 40.6685 46.8566 40.6252 47.1903 40.6528C47.5241 40.6804 47.8482 40.7783 48.1414 40.9399C48.4346 41.1016 48.6904 41.3235 48.8919 41.591C50.4237 43.0659 51.958 44.5431 53.4495 46.0607C54.343 46.9896 55.0213 48.1036 55.4363 49.3238C55.8512 50.5441 55.9927 51.8406 55.8506 53.1216" fill="#FEC936"/>
<path d="M123.365 27.7945C122.646 27.172 122.038 26.4334 121.564 25.6095C121.477 25.3608 121.443 25.0967 121.463 24.834C121.483 24.5713 121.558 24.3157 121.682 24.0834C121.807 23.8511 121.978 23.6472 122.186 23.4847C122.393 23.3222 122.632 23.2046 122.887 23.1395C124.688 22.484 126.523 21.9211 128.35 21.325C131.06 20.4391 133.77 19.5437 136.487 18.6768C136.784 18.5271 137.11 18.4425 137.443 18.4287C137.776 18.415 138.108 18.4724 138.417 18.5972C138.725 18.722 139.004 18.9112 139.234 19.1522C139.464 19.3932 139.64 19.6806 139.75 19.995C139.848 20.3017 139.881 20.6259 139.846 20.9462C139.81 21.2665 139.708 21.5757 139.544 21.8535C139.381 22.1313 139.161 22.3715 138.898 22.5583C138.636 22.7452 138.337 22.8744 138.021 22.9376C133.589 24.4172 129.143 25.8493 124.702 27.2957C124.376 27.4026 124.034 27.4596 123.702 27.5332L123.369 27.7873" fill="#FEC936"/>
<path d="M14.1527 18.3681C14.6158 18.494 15.0457 18.6056 15.466 18.7291C19.6872 20.1034 23.9076 21.4825 28.1272 22.8663C29.83 23.4268 30.5995 24.6096 30.1459 25.9111C29.6709 27.2767 28.4264 27.7707 26.7235 27.2174C22.3607 25.7924 18.0025 24.3674 13.6444 22.9281C12.6113 22.5885 11.7753 21.9187 11.9487 20.812C12.1981 20.0126 12.6279 19.2813 13.205 18.6745C13.3713 18.456 13.832 18.4607 14.155 18.3657" fill="#FEC936"/>
<path d="M20.7386 46.4929C20.0296 45.882 19.4128 45.1716 18.9075 44.3839C18.8039 44.1535 18.7499 43.904 18.7488 43.6514C18.7477 43.3988 18.7997 43.1488 18.9013 42.9176C19.003 42.6864 19.152 42.479 19.3388 42.309C19.5256 42.139 19.746 42.01 19.9857 41.9305C23.2965 40.656 26.6397 39.4685 30.0154 38.368C30.5026 38.2255 31.026 38.276 31.4771 38.509C31.9281 38.7421 32.2722 39.1398 32.4379 39.6197C32.5766 39.8289 32.6712 40.0642 32.7159 40.3112C32.7606 40.5582 32.7543 40.8118 32.6977 41.0563C32.641 41.3009 32.535 41.5313 32.3862 41.7335C32.2374 41.9356 32.0489 42.1053 31.8322 42.2322C28.303 43.7237 24.6811 44.999 20.7362 46.4905" fill="#FEC936"/>
<path d="M132.941 43.3271C133.005 45.2604 131.613 46.4906 130.15 46.0275C126.863 44.9872 123.614 43.8187 120.386 42.6027C120.12 42.4949 119.878 42.3353 119.674 42.1333C119.47 41.9313 119.308 41.6907 119.198 41.4257C119.087 41.1606 119.03 40.8762 119.031 40.5891C119.031 40.3019 119.088 40.0176 119.199 39.7527C119.399 39.2103 119.801 38.7666 120.322 38.515C120.842 38.2634 121.44 38.2235 121.989 38.4037C125.165 39.4749 128.333 40.5745 131.444 41.8119C132.157 42.0921 132.61 42.9851 132.936 43.3295" fill="#FEC936"/>
</g>
</g>
<defs>
<clipPath id="clip0_1_2682">
<rect width="152" height="152" fill="white"/>
</clipPath>
</defs>
</svg>
