<svg width="152" height="152" viewBox="0 0 152 152" fill="none" xmlns="http://www.w3.org/2000/svg">
<mask id="mask0_1_2488" style="mask-type:luminance" maskUnits="userSpaceOnUse" x="0" y="9" width="152" height="134">
<path d="M152 9H0V143H152V9Z" fill="white"/>
</mask>
<g mask="url(#mask0_1_2488)">
<path d="M0 72.8238C0.445041 72.2262 1.049 71.7553 1.74831 71.4607C2.44762 71.1661 3.21642 71.0586 3.97377 71.1496C14.0168 71.1809 24.0619 71.1642 34.1049 71.1642H36.1266C36.1266 69.4042 36.2178 67.7404 36.1027 66.0892C36.0029 65.2582 36.1851 64.4184 36.622 63.6956C37.0588 62.9728 37.7269 62.4057 38.526 62.0794C49.7568 56.0249 60.9333 49.8742 72.1489 43.7925C72.5477 43.6263 72.8815 43.3424 73.1023 42.9818C73.3232 42.6212 73.4197 42.2024 73.378 41.7856C73.3367 32.1587 73.3541 22.5465 73.3541 12.928C73.3541 12.4948 73.3324 12.0595 73.3671 11.6305C73.3549 11.2908 73.4136 10.9522 73.5395 10.6347C73.6654 10.3172 73.8561 10.0273 74.1003 9.78208C74.3446 9.53685 74.6373 9.34129 74.9612 9.20697C75.2852 9.07265 75.6338 9.00229 75.9865 9.00006C76.3391 8.99782 76.6887 9.06374 77.0145 9.19394C77.3402 9.32413 77.6356 9.51595 77.8831 9.75806C78.1307 10.0002 78.3253 10.2876 78.4556 10.6035C78.5859 10.9194 78.6491 11.2572 78.6416 11.597C78.6828 12.0742 78.6546 12.5576 78.6568 13.0389C78.659 13.5203 78.6568 13.9744 78.6568 14.6064H80.394C85.688 14.6064 90.982 14.6064 96.276 14.6064C99.1988 14.6064 100.043 15.4436 100.046 18.3107C100.046 19.1164 100.046 19.9221 100.046 20.8764C103.086 20.8764 105.993 20.8764 108.897 20.8764C111.908 20.8764 113.187 22.4712 111.897 25.1353C111.077 26.7006 110.648 28.4294 110.645 30.1832C110.642 31.937 111.065 33.6672 111.88 35.2351C113.183 37.9557 111.867 39.5274 108.723 39.5337C102.291 39.5449 95.8591 39.5449 89.4272 39.5337C86.5913 39.5337 85.7357 38.6819 85.7249 35.8985C85.7249 35.0468 85.7249 34.195 85.7249 33.2721H78.6546C78.7749 35.3108 78.7568 37.3549 78.6003 39.3914C78.3682 40.5592 78.5799 41.7686 79.1967 42.7984C79.8135 43.8282 80.7942 44.6097 81.9596 45.0001C92.3826 50.479 102.638 56.274 113.024 61.8303C113.992 62.1967 114.803 62.8668 115.326 63.7323C115.849 64.5978 116.054 65.6081 115.908 66.5998C115.756 68.0648 115.88 69.5569 115.88 71.204H147.501C147.846 71.204 148.193 71.204 148.539 71.204C151.108 71.2542 152 72.1269 152 74.6131C152 86.3481 152 98.0838 152 109.82C152 119.726 152 129.632 152 139.538C152 142.16 151.181 142.949 148.445 142.949C100.156 142.949 51.8682 142.958 3.58074 142.974C2.87086 143.058 2.15117 142.936 1.51344 142.624C0.875709 142.312 0.348833 141.824 0 141.223L0 72.8238ZM110.677 137.786C110.703 137.422 110.736 137.19 110.736 136.949C110.704 113.963 110.679 90.9767 110.66 67.9894C110.7 67.5018 110.581 67.0143 110.32 66.5949C110.058 66.1755 109.668 65.8451 109.203 65.6497C98.5452 59.8792 87.905 54.0737 77.2822 48.2335C76.9075 47.9823 76.4619 47.8477 76.0054 47.8477C75.549 47.8477 75.1034 47.9823 74.7286 48.2335C64.032 54.1323 53.3158 59.9971 42.5802 65.8276C42.1409 66.0116 41.7737 66.3256 41.5317 66.7239C41.2897 67.1223 41.1854 67.5846 41.2338 68.0438C41.2744 90.7409 41.2845 113.439 41.2642 136.137V137.717H54.3516V136.053C54.3516 126.436 54.3516 116.819 54.3516 107.2C54.3516 104.507 55.1942 103.699 57.9953 103.699C70.0108 103.699 82.032 103.699 94.059 103.699C96.8341 103.699 97.6527 104.509 97.6549 107.257C97.6549 116.874 97.6549 126.491 97.6549 136.11V137.784L110.677 137.786ZM5.37653 137.711H36.0245V76.4527H5.37653V137.711ZM146.628 76.482H115.973V137.744H146.628V76.482ZM59.7369 137.736H73.2433V108.91H59.7369V137.736ZM92.274 108.952H78.7306V137.742H92.2762L92.274 108.952ZM94.6756 19.8886H78.7784V27.9459H94.6756V19.8886ZM100.002 26.188C100.002 27.498 100.002 28.7307 100.002 29.955C100.02 32.165 99.1119 33.1298 96.8449 33.1925C95.2663 33.2365 93.6855 33.1653 92.109 33.2323C91.7529 33.247 91.4119 33.6237 91.0645 33.835C91.3967 34.0192 91.7268 34.3624 92.0612 34.3645C96.6473 34.4001 101.236 34.3875 106.143 34.3875C105.339 33.1669 104.892 31.7592 104.851 30.3137C104.81 28.8682 105.175 27.4389 105.909 26.1775L100.002 26.188Z" fill="#FFC936"/>
<path d="M76.013 76.6553C74.5602 76.649 73.1229 76.3661 71.7837 75.823C70.4445 75.2798 69.2297 74.4869 68.2091 73.4899C67.1884 72.493 66.382 71.3115 65.8361 70.0133C65.2901 68.715 65.0154 67.3256 65.0277 65.9248C65.0176 64.5235 65.2962 63.1343 65.8473 61.8376C66.3984 60.541 67.211 59.3628 68.2381 58.3714C69.2651 57.38 70.4861 56.5951 71.8303 56.0622C73.1744 55.5294 74.6149 55.2592 76.0681 55.2674C77.5214 55.2756 78.9585 55.5619 80.2961 56.1099C81.6336 56.6578 82.845 57.4564 83.86 58.4593C84.875 59.4622 85.6734 60.6495 86.2087 61.9522C86.7441 63.255 87.0058 64.6473 86.9787 66.0483C86.9702 68.8532 85.8132 71.5412 83.7596 73.5277C81.706 75.5141 78.9218 76.6382 76.013 76.6553ZM81.6804 66.1111C81.7121 65.3783 81.5906 64.6468 81.3232 63.9601C81.0558 63.2734 80.6479 62.6456 80.1238 62.1139C79.5997 61.5823 78.9701 61.1577 78.2724 60.8654C77.5747 60.5731 76.8232 60.4191 76.0625 60.4125C75.3018 60.4059 74.5475 60.5469 73.8444 60.827C73.1414 61.1071 72.504 61.5207 71.97 62.0432C71.4361 62.5656 71.0165 63.1863 70.7363 63.8682C70.4561 64.5501 70.321 65.2795 70.3391 66.0127C70.3515 67.4467 70.9476 68.8185 71.9988 69.8328C73.0501 70.8471 74.4725 71.4227 75.9596 71.4356C77.4467 71.4485 78.8796 70.8977 79.9496 69.9018C81.0196 68.9059 81.6412 67.5446 81.6804 66.1111Z" fill="#FFC936"/>
<path d="M81.1832 93.8828H70.7668V98.8471H81.1832V93.8828Z" fill="#FFC936"/>
<path d="M59.6339 93.9058H49.3413V98.8784H59.6339V93.9058Z" fill="#FFC936"/>
<path d="M102.672 93.8995H92.3574V98.8827H102.672V93.8995Z" fill="#FFC936"/>
<path d="M81.2027 82.0405H70.782V86.9587H81.2027V82.0405Z" fill="#FFC936"/>
<path d="M59.6036 82.0405H49.3718V86.9922H59.6036V82.0405Z" fill="#FFC936"/>
<path d="M102.643 82.03H92.3442V86.9462H102.643V82.03Z" fill="#FFC936"/>
<path d="M16.744 102.076H11.6824V112.182H16.744V102.076Z" fill="#FFC936"/>
<path d="M29.5923 102.082H24.4829V112.147H29.5923V102.082Z" fill="#FFC936"/>
<path d="M16.7764 82.0112H11.667V92.0549H16.7764V82.0112Z" fill="#FFC936"/>
<path d="M29.6553 81.9253V92.0339H24.4178C24.4178 88.8933 24.3983 85.7841 24.4547 82.6769C24.5133 82.5018 24.6172 82.3439 24.7567 82.2183C24.8961 82.0926 25.0665 82.0033 25.2517 81.9588C26.6696 81.8834 28.0962 81.9253 29.6596 81.9253" fill="#FFC936"/>
<path d="M16.77 122.153H11.6758V132.184H16.77V122.153Z" fill="#FFC936"/>
<path d="M29.627 122.211H24.522V132.236H29.627V122.211Z" fill="#FFC936"/>
<path d="M122.38 112.243V102.05H127.591C127.591 105.258 127.606 108.405 127.558 111.55C127.51 111.708 127.42 111.852 127.298 111.968C127.176 112.084 127.025 112.168 126.859 112.211C125.396 112.274 123.926 112.243 122.38 112.243Z" fill="#FFC936"/>
<path d="M140.333 102.027H135.26V112.155H140.333V102.027Z" fill="#FFC936"/>
<path d="M127.498 82.0049H122.408V92.0444H127.498V82.0049Z" fill="#FFC936"/>
<path d="M140.353 82.0112H135.263V92.0424H140.353V82.0112Z" fill="#FFC936"/>
<path d="M127.491 122.14H122.419V132.171H127.491V122.14Z" fill="#FFC936"/>
<path d="M140.344 122.169H135.221V132.171H140.344V122.169Z" fill="#FFC936"/>
</g>
</svg>
