<?xml version="1.0" standalone="no"?>
<!DOCTYPE svg PUBLIC "-//W3C//DTD SVG 1.1//EN" "http://www.w3.org/Graphics/SVG/1.1/DTD/svg11.dtd" >
<svg xmlns="http://www.w3.org/2000/svg" xmlns:xlink="http://www.w3.org/1999/xlink" version="1.1">
<metadata>
Created by FontForge 20170731 at Tue Dec  6 20:07:33 2022
 By Aleksey,,,
Copyright (c) 2017 by Matt Bailey. All rights reserved.
</metadata>
<defs>
<font id="SpartanMB-Light" horiz-adv-x="1427" >
  <font-face 
    font-family="Spartan MB"
    font-weight="300"
    font-stretch="normal"
    units-per-em="2048"
    panose-1="0 11 5 3 8 0 0 2 0 3"
    ascent="1638"
    descent="-410"
    x-height="1049"
    cap-height="1690"
    bbox="-266 -602 2941 2337"
    underline-thickness="102"
    underline-position="-307"
    unicode-range="U+000D-FB04"
  />
<missing-glyph horiz-adv-x="700" 
 />
    <glyph glyph-name="ff" unicode="ff" horiz-adv-x="1079" 
d="M127 1049h100v397q0 175 72.5 260.5t200.5 85.5q80 0 162 -43l-46 -84q-46 23 -100 23q-87 0 -128.5 -55.5t-41.5 -180.5v-403h344v397q0 175 72.5 260.5t200.5 85.5q109 0 182 -57l-41 -84q-47 37 -125 37q-87 0 -128.5 -55.5t-41.5 -180.5v-403h270v-91h-270v-958h-119
v958h-344v-958h-119v958h-100v91z" />
    <glyph glyph-name="fi" unicode="fi" horiz-adv-x="1007" 
d="M119 1049h100v397q0 175 72.5 260.5t200.5 85.5q91 0 159 -39.5t99 -95.5l-62 -66q-23 42 -72 69.5t-108 27.5q-87 0 -128.5 -55.5t-41.5 -180.5v-403h446v-1049h-118v958h-328v-958h-119v958h-100v91z" />
    <glyph glyph-name="fl" unicode="fl" horiz-adv-x="1036" 
d="M119 1049h100v397q0 176 71 261t199 85q86 0 154 -37l-35 -90q-53 23 -102 23q-87 0 -128.5 -55.5t-41.5 -180.5v-403h270v-91h-270v-958h-117v958h-100v91zM711 1761h118v-1761h-118v1761z" />
    <glyph glyph-name="ffi" unicode="ffi" horiz-adv-x="1476" 
d="M127 1049h100v397q0 175 72.5 260.5t200.5 85.5q80 0 162 -43l-46 -84q-46 23 -100 23q-87 0 -128.5 -55.5t-41.5 -180.5v-403h344v397q0 175 72.5 260.5t200.5 85.5q91 0 159 -39.5t99 -95.5l-62 -66q-23 42 -72 69.5t-108 27.5q-87 0 -128.5 -55.5t-41.5 -180.5v-403
h446v-1049h-118v958h-328v-958h-119v958h-344v-958h-119v958h-100v91z" />
    <glyph glyph-name="ffl" unicode="ffl" horiz-adv-x="1509" 
d="M127 1049h100v397q0 175 72.5 260.5t200.5 85.5q80 0 162 -43l-46 -84q-46 23 -100 23q-87 0 -128.5 -55.5t-41.5 -180.5v-403h348v397q0 176 71.5 261t199.5 85q85 0 153 -37l-35 -90q-53 23 -102 23q-87 0 -128.5 -55.5t-41.5 -180.5v-403h270v-91h-270v-958h-117v958
h-348v-958h-119v958h-100v91zM1186 1761h119v-1761h-119v1761z" />
    <glyph glyph-name="ft" unicode="ft" horiz-adv-x="1138" 
d="M119 1049h100v397q0 175 72.5 260.5t200.5 85.5q87 0 161 -43l-45 -84q-48 23 -100 23q-87 0 -128.5 -55.5t-41.5 -180.5v-403h377v391h119v-391h266v-91h-266v-688q0 -102 27 -146t100 -44q29 0 58 10t43 20l15 9l31 -107q-7 -5 -19.5 -12.5t-55 -20t-89.5 -12.5
q-57 0 -99.5 17t-66.5 43.5t-39 66.5t-19.5 77.5t-4.5 84.5v702h-377v-958h-119v958h-100v91z" />
    <glyph glyph-name="fj" unicode="fj" horiz-adv-x="1005" 
d="M119 1049h100v397q0 175 72.5 260.5t200.5 85.5q91 0 159 -39.5t99 -95.5l-62 -66q-23 42 -72 69.5t-108 27.5q-87 0 -128.5 -55.5t-41.5 -180.5v-403h446v-1289q0 -162 -69 -242.5t-197 -80.5q-113 0 -180 51l35 94q47 -41 125 -41q168 0 168 223v1194h-328v-958h-119
v958h-100v91z" />
    <glyph glyph-name="fft" unicode="fft" horiz-adv-x="1609" 
d="M127 1049h100v397q0 175 72.5 260.5t200.5 85.5q80 0 162 -43l-46 -84q-46 23 -100 23q-87 0 -128.5 -55.5t-41.5 -180.5v-403h344v397q0 175 72.5 260.5t200.5 85.5q87 0 161 -43l-45 -84q-48 23 -100 23q-87 0 -128.5 -55.5t-41.5 -180.5v-403h377v391h119v-391h266
v-91h-266v-688q0 -102 27 -146t100 -44q29 0 58 10t44 20l14 9l31 -107q-7 -5 -19.5 -12.5t-55 -20t-89.5 -12.5q-57 0 -99.5 17t-66.5 43.5t-39 66.5t-19.5 77.5t-4.5 84.5v702h-377v-958h-119v958h-344v-958h-119v958h-100v91z" />
    <glyph glyph-name="ffj" unicode="ffj" horiz-adv-x="1476" 
d="M127 1049h100v397q0 175 72.5 260.5t200.5 85.5q80 0 162 -43l-46 -84q-46 23 -100 23q-87 0 -128.5 -55.5t-41.5 -180.5v-403h344v397q0 175 72.5 260.5t200.5 85.5q91 0 159 -39.5t99 -95.5l-62 -66q-23 42 -72 69.5t-108 27.5q-87 0 -128.5 -55.5t-41.5 -180.5v-403
h446v-1289q0 -162 -69 -242.5t-197 -80.5q-113 0 -180 51l35 94q47 -41 125 -41q168 0 168 223v1194h-328v-958h-119v958h-344v-958h-119v958h-100v91z" />
    <glyph glyph-name=".notdef" horiz-adv-x="700" 
 />
    <glyph glyph-name=".null" horiz-adv-x="0" 
 />
    <glyph glyph-name="nonmarkingreturn" horiz-adv-x="682" 
 />
    <glyph glyph-name="NULL" horiz-adv-x="0" 
 />
    <glyph glyph-name="NULL" horiz-adv-x="0" 
 />
    <glyph glyph-name="CR" unicode="&#xd;" horiz-adv-x="522" 
 />
    <glyph glyph-name="space" unicode=" " horiz-adv-x="522" 
 />
    <glyph glyph-name="exclam" unicode="!" horiz-adv-x="602" 
d="M301 139q35 0 60.5 -25.5t25.5 -60.5t-25.5 -60.5t-60.5 -25.5t-60.5 25.5t-25.5 60.5t25.5 60.5t60.5 25.5zM244 1761h114l-10 -1376h-94z" />
    <glyph glyph-name="quotedbl" unicode="&#x22;" horiz-adv-x="522" 
d="M94 1696h131l-22 -381h-86zM297 1696h131l-22 -381h-87z" />
    <glyph glyph-name="numbersign" unicode="#" horiz-adv-x="1333" 
d="M141 1028h269l57 430h82l-60 -430h420l58 430h82l-60 -430h189v-82h-199l-61 -436h260v-82h-271l-57 -428h-80l57 428h-419l-58 -428h-80l58 428h-187v82h197l61 436h-258v82zM479 946l-61 -436h420l61 436h-420z" />
    <glyph glyph-name="dollar" unicode="$" horiz-adv-x="1325" 
d="M229 1272q0 187 124 313t306 135v252h82v-254q160 -14 258.5 -90.5t135.5 -177.5l-95 -41q-26 84 -119 141.5t-229 57.5q-66 0 -123 -19t-97 -52t-69 -75.5t-43 -90.5t-14 -97q0 -64 26 -115.5t75.5 -90t108 -66t136.5 -52.5q123 -40 211.5 -87t153 -108.5t96 -140
t31.5 -176.5q0 -205 -120 -327t-323 -140v-254h-82v250q-109 2 -198 29.5t-143 66t-93.5 89.5t-56.5 91.5t-25 80.5l105 45q5 -27 19.5 -59.5t48 -74t78.5 -74.5t117 -56t157 -23q172 0 280.5 90t108.5 262q0 147 -105 240t-340 170q-383 129 -383 428z" />
    <glyph glyph-name="percent" unicode="%" horiz-adv-x="2060" 
d="M496 0l983 1690h88l-983 -1690h-88zM104 1317q0 177 118.5 290t297.5 113t297.5 -113t118.5 -290q0 -178 -117.5 -291t-298.5 -113t-298.5 113t-117.5 291zM188 1317q0 -146 92.5 -234t239.5 -88t239.5 88t92.5 234t-92.5 233.5t-239.5 87.5t-239.5 -87.5t-92.5 -233.5z
M1126 371q0 177 118.5 290t297.5 113t297.5 -113t118.5 -290q0 -178 -117.5 -291t-298.5 -113t-298.5 113t-117.5 291zM1210 371q0 -146 92.5 -234t239.5 -88t239.5 88t92.5 234t-92.5 233.5t-239.5 87.5t-239.5 -87.5t-92.5 -233.5z" />
    <glyph glyph-name="ampersand" unicode="&#x26;" horiz-adv-x="1544" 
d="M133 422q0 328 404 532q-46 46 -71.5 72t-62.5 71t-56 81t-33.5 83.5t-14.5 96.5q0 148 104.5 255t284.5 107q120 0 209.5 -54.5t131.5 -135.5t42 -172q0 -65 -23 -124t-56.5 -101t-85 -82t-94.5 -64.5t-99 -52.5l485 -528q104 121 180 282l82 -61q-66 -164 -180 -305
l291 -322h-152l-215 238q-127 -125 -266 -198t-309 -73q-137 0 -249 53t-179.5 158t-67.5 244zM418 1358q0 -29 7 -58.5t15 -52t27.5 -51t29.5 -43.5t38 -43.5t35.5 -36.5t39 -36.5t33.5 -30.5q86 41 139.5 73.5t98.5 74t64.5 91t19.5 113.5q0 50 -18 97.5t-51.5 85.5
t-87.5 61.5t-120 23.5q-126 0 -198 -80.5t-72 -187.5zM260 428q0 -155 106.5 -251.5t270.5 -96.5q253 0 487 246l-518 557q-100 -48 -171 -107t-107.5 -119.5t-52 -115.5t-15.5 -113z" />
    <glyph glyph-name="quotesingle" unicode="'" horiz-adv-x="319" 
d="M94 1696h131l-22 -381h-86z" />
    <glyph glyph-name="parenleft" unicode="(" horiz-adv-x="663" 
d="M291 629q0 -135 19 -270.5t48.5 -243.5t66 -207.5t73 -172t66 -127t48.5 -81.5l19 -27l-78 -32q-8 9 -21.5 27t-53.5 78.5t-76 127t-79.5 172t-75.5 215t-53.5 252.5t-21.5 289t21 288.5t54.5 254.5t74.5 213.5t81.5 174t74 126t54.5 80.5l21 26l78 -33q-7 -10 -19.5 -28
t-47.5 -80t-67 -128.5t-71.5 -170.5t-67.5 -210t-47.5 -242t-19.5 -271z" />
    <glyph glyph-name="parenright" unicode=")" horiz-adv-x="663" 
d="M373 629q0 135 -19 270.5t-48.5 243.5t-66 208t-73 172.5t-66 126.5t-48.5 82l-19 27l78 33q8 -9 21.5 -27t53.5 -78.5t76 -127.5t79.5 -172.5t75.5 -215t53.5 -253t21.5 -289.5t-21 -288.5t-54.5 -254t-74.5 -213t-81.5 -173.5t-74 -125.5t-54.5 -80.5l-21 -26l-78 32
q7 10 19.5 28t47.5 79.5t67 128.5t71.5 170.5t67.5 209.5t47.5 242t19.5 271z" />
    <glyph glyph-name="asterisk" unicode="*" horiz-adv-x="520" 
d="M231 1761h58v-178l170 55l16 -53l-170 -55l103 -146l-43 -32l-107 143l-102 -143l-45 32l102 146l-168 55l16 53l170 -55v178z" />
    <glyph glyph-name="plus" unicode="+" horiz-adv-x="1290" 
d="M594 1374h102v-473h473v-102h-473v-473h-102v473h-473v102h473v473z" />
    <glyph glyph-name="comma" unicode="," horiz-adv-x="405" 
d="M203 139q35 0 60.5 -25.5t25.5 -60.5q0 -170 -129 -282l-29 24q53 91 59 176q-31 3 -52 26.5t-21 55.5q0 35 25.5 60.5t60.5 25.5z" />
    <glyph glyph-name="hyphen" unicode="-" horiz-adv-x="942" 
d="M141 643h660v-100h-660v100z" />
    <glyph glyph-name="period" unicode="." horiz-adv-x="405" 
d="M203 139q35 0 60.5 -25.5t25.5 -60.5t-25.5 -60.5t-60.5 -25.5t-60.5 25.5t-25.5 60.5t25.5 60.5t60.5 25.5z" />
    <glyph glyph-name="slash" unicode="/" horiz-adv-x="958" 
d="M10 -246l844 2007h94l-844 -2007h-94z" />
    <glyph glyph-name="zero" unicode="0" horiz-adv-x="1691" 
d="M160 844q0 172 36.5 316.5t100.5 246.5t151 173.5t187.5 105.5t210.5 34t210.5 -34t187.5 -105.5t151 -173.5t100.5 -246.5t36.5 -316.5t-36.5 -316.5t-100.5 -247t-151 -174t-187.5 -105.5t-210.5 -34t-210.5 34t-187.5 105.5t-151 174t-100.5 247t-36.5 316.5zM279 844
q0 -185 45 -333t123 -241.5t180 -142.5t219 -49t218.5 49t179.5 142.5t122.5 241.5t44.5 333t-44.5 333t-122.5 241.5t-179.5 142.5t-218.5 49t-219 -49t-180 -142.5t-123 -241.5t-45 -333z" />
    <glyph glyph-name="one" unicode="1" horiz-adv-x="552" 
d="M72 1690h266v-1690h-123v1569h-143v121z" />
    <glyph glyph-name="two" unicode="2" horiz-adv-x="1521" 
d="M197 1208q8 106 50 198.5t112 162.5t173 110.5t224 40.5q129 0 237 -46.5t179 -124t110 -176.5t39 -206q0 -223 -220 -474q-143 -162 -459 -418q-58 -47 -206 -164h916v-111h-1182v55q45 36 137 107t151 117.5t149 119.5t150 128.5t133.5 127t121 132.5t90.5 127
t63.5 130t20.5 123q0 112 -53 212t-153 163.5t-224 63.5q-98 0 -178.5 -33.5t-133 -90.5t-83.5 -130t-37 -156z" />
    <glyph glyph-name="three" unicode="3" horiz-adv-x="1300" 
d="M195 1298q5 80 37.5 154.5t89.5 134.5t143.5 96.5t189.5 36.5q193 0 327 -130t134 -316q0 -139 -77.5 -251t-200.5 -157q136 -38 218.5 -157.5t82.5 -270.5q0 -205 -135 -338t-373 -133q-129 0 -229.5 38.5t-161.5 103.5t-95 140t-43 159l113 22q8 -67 37 -127t78.5 -110
t127.5 -79.5t173 -29.5q180 0 279.5 99t99.5 255q0 159 -112 270t-265 111l-60 -6v96h54q153 0 261.5 105.5t108.5 259.5q0 139 -101.5 239.5t-242.5 100.5q-143 0 -240.5 -96t-111.5 -240z" />
    <glyph glyph-name="four" unicode="4" horiz-adv-x="1155" 
d="M-2 584v63l793 1043h122v-998h197v-108h-197v-584h-118v584h-797zM156 692h639v828z" />
    <glyph glyph-name="five" unicode="5" horiz-adv-x="1419" 
d="M322 1690h862v-109h-764l-86 -559q71 49 149 72.5t199 23.5q126 0 235.5 -38.5t193.5 -111.5t132.5 -188t48.5 -258q0 -248 -161.5 -401.5t-446.5 -153.5q-118 0 -219.5 32.5t-172 87t-118 117t-72.5 130.5l101 49q20 -58 60 -111t99 -99t143.5 -73.5t180.5 -27.5
q232 0 360 124.5t128 329.5q0 154 -73 268.5t-191.5 171t-264.5 56.5q-264 0 -461 -213z" />
    <glyph glyph-name="six" unicode="6" horiz-adv-x="1425" 
d="M123 539q0 239 170 452l588 699h151l-528 -629q109 63 227 63q114 0 218 -43t182.5 -118.5t125 -186t46.5 -237.5q0 -167 -79 -298.5t-213 -202.5t-298 -71q-126 0 -235.5 43.5t-187.5 119t-122.5 182t-44.5 227.5zM246 539q0 -202 130.5 -333.5t332.5 -131.5
q204 0 337.5 132t133.5 333q0 206 -135 341.5t-336 135.5q-190 0 -326.5 -141t-136.5 -336z" />
    <glyph glyph-name="seven" unicode="7" horiz-adv-x="1142" 
d="M125 1690h1028v-43l-893 -1647h-145l858 1581h-848v109z" />
    <glyph glyph-name="eight" unicode="8" horiz-adv-x="1298" 
d="M201 1290q0 191 129.5 310.5t318.5 119.5q123 0 225 -52.5t163 -151.5t61 -226q0 -137 -66 -240t-180 -153q141 -52 225 -170.5t84 -280.5q0 -208 -145.5 -343.5t-366.5 -135.5t-366.5 135.5t-145.5 343.5q0 162 84 280.5t225 170.5q-114 50 -179.5 153t-65.5 240z
M254 457q0 -166 112.5 -274.5t282.5 -108.5t282.5 108.5t112.5 274.5q0 167 -114 275t-281 108t-281 -108t-114 -275zM301 1284q0 -150 99.5 -247t248.5 -97t248.5 97t99.5 247q0 161 -99 252.5t-249 91.5t-249 -91.5t-99 -252.5z" />
    <glyph glyph-name="nine" unicode="9" horiz-adv-x="1425" 
d="M1303 1149q0 -241 -170 -453l-588 -696h-152l529 627q-111 -64 -228 -64q-114 0 -218 43t-182 119t-124.5 186.5t-46.5 237.5q0 167 79 298.5t213 202t298 70.5q168 0 303 -74t211 -204.5t76 -292.5zM1180 1149q0 202 -130.5 333.5t-332.5 131.5q-204 0 -337.5 -132
t-133.5 -333q0 -206 135 -341.5t336 -135.5q190 0 326.5 141t136.5 336z" />
    <glyph glyph-name="colon" unicode=":" horiz-adv-x="405" 
d="M203 139q35 0 60.5 -25.5t25.5 -60.5t-25.5 -60.5t-60.5 -25.5t-60.5 25.5t-25.5 60.5t25.5 60.5t60.5 25.5zM203 1135q35 0 60.5 -25.5t25.5 -60.5t-25.5 -60.5t-60.5 -25.5t-60.5 25.5t-25.5 60.5t25.5 60.5t60.5 25.5z" />
    <glyph glyph-name="semicolon" unicode=";" horiz-adv-x="405" 
d="M203 139q35 0 60.5 -25.5t25.5 -60.5q0 -170 -129 -282l-29 24q53 91 59 176q-31 3 -52 26.5t-21 55.5q0 35 25.5 60.5t60.5 25.5zM203 1135q35 0 60.5 -25.5t25.5 -60.5t-25.5 -60.5t-60.5 -25.5t-60.5 25.5t-25.5 60.5t25.5 60.5t60.5 25.5z" />
    <glyph glyph-name="less" unicode="&#x3c;" horiz-adv-x="1253" 
d="M33 891l1120 536v-102l-993 -473l993 -473v-103l-1120 537v78z" />
    <glyph glyph-name="equal" unicode="=" horiz-adv-x="1253" 
d="M102 1100h1049v-103h-1049v103zM102 700h1049v-102h-1049v102z" />
    <glyph glyph-name="greater" unicode="&#x3e;" horiz-adv-x="1253" 
d="M1221 891v-78l-1121 -537v103l996 473l-996 473v102z" />
    <glyph glyph-name="question" unicode="?" horiz-adv-x="1185" 
d="M68 1229q6 218 142 354.5t365 136.5q116 0 214.5 -42t163.5 -112t101 -160t36 -187q0 -76 -20 -147.5t-61 -136t-99.5 -113t-140.5 -79t-179 -34.5v-295h-111v403q27 -6 76 -6q133 0 229.5 55t143.5 146.5t47 206.5q0 174 -109 282.5t-291 108.5q-183 0 -290.5 -108
t-110.5 -285zM535 139q35 0 60.5 -25.5t25.5 -60.5t-25.5 -60.5t-60.5 -25.5t-60.5 25.5t-25.5 60.5t25.5 60.5t60.5 25.5z" />
    <glyph glyph-name="at" unicode="@" horiz-adv-x="1982" 
d="M131 844q0 184 69 348t186 279t276.5 182t334.5 67q233 0 429 -112t311.5 -311t115.5 -441q0 -197 -63.5 -312.5t-187.5 -115.5q-87 0 -143 40.5t-85 96.5q-61 -125 -173.5 -196.5t-256.5 -71.5q-213 0 -355.5 149.5t-142.5 378.5q0 230 142.5 380.5t355.5 150.5
q141 0 254 -69.5t174 -190.5v229h94v-631q0 -81 37.5 -127.5t106.5 -46.5q48 0 79 29t48.5 104.5t17.5 202.5q0 160 -60 302.5t-161.5 244t-241.5 160.5t-295 59q-153 0 -292.5 -60.5t-241.5 -163.5t-162.5 -248t-60.5 -306q0 -162 57 -305t156 -246t240.5 -163t303.5 -60
q193 0 346.5 82t243.5 213l90 -54q-47 -69 -112.5 -128.5t-150 -109t-192.5 -78t-225 -28.5q-246 0 -444.5 115t-310 315.5t-111.5 446.5zM553 825q0 -190 116.5 -312t295.5 -122q180 0 295.5 122t115.5 312q0 193 -116 316t-295 123q-178 0 -295 -123.5t-117 -315.5z" />
    <glyph glyph-name="A" unicode="A" horiz-adv-x="1417" 
d="M651 1690h115l664 -1690h-134l-217 567h-741l-217 -567h-133zM379 676h659l-329 854z" />
    <glyph glyph-name="B" unicode="B" horiz-adv-x="1323" 
d="M215 1690h334q246 0 383 -109.5t137 -318.5q0 -137 -64 -235t-184 -148q190 -25 294 -136.5t104 -296.5q0 -207 -139 -326.5t-388 -119.5h-477v1690zM338 1591v-676h188q205 2 315.5 87.5t110.5 250.5q0 163 -111 249.5t-315 88.5h-188zM338 807v-705h328q204 0 317 91
t113 256q0 171 -112.5 264.5t-317.5 93.5h-328z" />
    <glyph glyph-name="C" unicode="C" horiz-adv-x="1660" 
d="M131 844q0 243 114.5 443.5t317.5 316.5t453 116q314 0 547 -176l-62 -102q-87 70 -210.5 113.5t-264.5 43.5q-168 0 -312 -60t-242 -162t-153 -240.5t-55 -292.5q0 -207 93.5 -378.5t269 -274.5t399.5 -103q141 0 264.5 43.5t210.5 114.5l62 -103q-233 -176 -547 -176
q-187 0 -352 68.5t-281.5 185.5t-184 279t-67.5 344z" />
    <glyph glyph-name="D" unicode="D" horiz-adv-x="1562" 
d="M215 1690h365q172 0 328 -63.5t271.5 -173.5t184 -268.5t68.5 -338.5q0 -181 -68 -340t-183.5 -269t-271.5 -173.5t-329 -63.5h-365v1690zM338 1579v-1468h233q198 0 366 93.5t268 263t100 378.5q0 156 -59 293t-158.5 233t-234 151.5t-282.5 55.5h-233z" />
    <glyph glyph-name="E" unicode="E" horiz-adv-x="1191" 
d="M215 1690h836v-109h-713v-680h688v-108h-688v-684h713v-109h-836v1690z" />
    <glyph glyph-name="F" unicode="F" horiz-adv-x="1191" 
d="M215 1690h838v-109h-715v-680h668v-108h-668v-793h-123v1690z" />
    <glyph glyph-name="G" unicode="G" horiz-adv-x="1857" 
d="M131 842q0 180 62.5 342t170.5 280t261.5 187t328.5 69q416 0 654 -288l-82 -89q-210 267 -568 267q-147 0 -278.5 -60.5t-225.5 -163.5t-149 -245t-55 -299q0 -154 57 -295.5t152.5 -243.5t226 -162.5t272.5 -60.5q125 0 242.5 41.5t208.5 114.5t146 183t55 238v64h-656
v102h783v-129q0 -165 -63 -303.5t-170.5 -230t-249.5 -142.5t-300 -51q-168 0 -320 69.5t-262.5 186.5t-175.5 279t-65 340z" />
    <glyph glyph-name="H" unicode="H" horiz-adv-x="1650" 
d="M215 1690h123v-789h975v789h123v-1690h-123v793h-975v-793h-123v1690z" />
    <glyph glyph-name="I" unicode="I" horiz-adv-x="552" 
d="M215 1690h123v-1690h-123v1690z" />
    <glyph glyph-name="J" unicode="J" horiz-adv-x="1077" 
d="M758 1690h123v-1215q0 -248 -136.5 -378t-392.5 -130q-68 0 -133.5 16.5t-110.5 40.5t-81 48t-53 40l-17 17l45 117q6 -7 17.5 -17.5t48 -38.5t74 -49.5t92.5 -39t108 -17.5q416 0 416 430v1176z" />
    <glyph glyph-name="K" unicode="K" horiz-adv-x="1347" 
d="M215 1690h123v-822l792 822h150l-786 -816l864 -874h-170l-778 786l-72 -73v-713h-123v1690z" />
    <glyph glyph-name="L" unicode="L" horiz-adv-x="1130" 
d="M215 1690h123v-1581h725v-109h-848v1690z" />
    <glyph glyph-name="M" unicode="M" horiz-adv-x="1945" 
d="M328 1690h131l514 -1373l514 1373h131l229 -1690h-123l-202 1456l-500 -1343h-98l-500 1343l-203 -1456h-123z" />
    <glyph glyph-name="N" unicode="N" horiz-adv-x="1617" 
d="M215 1690h123l942 -1479v1479h123v-1690h-123l-942 1477v-1477h-123v1690z" />
    <glyph glyph-name="O" unicode="O" horiz-adv-x="1966" 
d="M131 844q0 182 68 345.5t183 279t272 183.5t329 68t329 -68t272 -183.5t183 -279t68 -345.5t-68 -345.5t-183 -279.5t-272 -184t-329 -68t-329 68t-272 184t-183 279.5t-68 345.5zM262 844q0 -155 56.5 -295t152.5 -241.5t230 -161.5t282 -60t282 60t230 161.5
t152.5 241.5t56.5 295t-56.5 295t-152.5 241.5t-230 161.5t-282 60t-282 -60t-230 -161.5t-152.5 -241.5t-56.5 -295z" />
    <glyph glyph-name="P" unicode="P" horiz-adv-x="1292" 
d="M215 1690h414q247 0 389.5 -126.5t142.5 -344.5q0 -219 -143.5 -354.5t-388.5 -135.5h-291v-729h-123v1690zM338 1589v-755h266q198 0 316 105t118 278t-117 272.5t-317 99.5h-266z" />
    <glyph glyph-name="Q" unicode="Q" horiz-adv-x="1966" 
d="M131 844q0 182 68 345.5t182.5 279.5t271.5 183.5t330 67.5t330 -67.5t271.5 -183.5t182.5 -279.5t68 -345.5q0 -188 -71 -354t-197 -287q151 -92 311 -148l-55 -110q-165 64 -344 184q-223 -162 -496 -162q-177 0 -336 70t-271.5 188.5t-178.5 280t-66 338.5zM262 844
q0 -157 52 -295.5t145 -241t229 -162t295 -59.5q214 0 389 119q-163 120 -317 284l55 64q154 -154 346 -283q116 105 182 254.5t66 319.5q0 207 -95 381t-261 275.5t-365 101.5t-365 -101.5t-261 -275.5t-95 -381z" />
    <glyph glyph-name="R" unicode="R" horiz-adv-x="1308" 
d="M215 1690h414q247 0 389.5 -126.5t142.5 -344.5q0 -203 -125 -335t-344 -149l563 -735h-155l-551 729h-211v-729h-123v1690zM338 1589v-755h266q198 0 316 105t118 278t-117 272.5t-317 99.5h-266z" />
    <glyph glyph-name="S" unicode="S" horiz-adv-x="1325" 
d="M229 1272q0 129 62 232.5t166 159.5t229 56q94 0 173.5 -24t133.5 -64t89 -86t53 -96l-95 -41q-26 84 -119 141.5t-229 57.5q-66 0 -123 -19t-97 -52t-69 -75.5t-43 -90.5t-14 -97q0 -64 26 -115.5t75.5 -90t108 -66t136.5 -52.5q123 -40 211.5 -87t153 -108.5t96 -140
t31.5 -176.5q0 -222 -140 -346.5t-370 -124.5q-95 0 -177.5 23t-138.5 58.5t-101 84.5t-71 95t-43 96l105 45q14 -47 46.5 -94.5t83 -92t126.5 -72.5t164 -28q172 0 280.5 90t108.5 262q0 147 -105 240t-340 170q-383 129 -383 428z" />
    <glyph glyph-name="T" unicode="T" horiz-adv-x="1191" 
d="M2 1690h1188v-109h-533v-1581h-122v1581h-533v109z" />
    <glyph glyph-name="U" unicode="U" horiz-adv-x="1544" 
d="M197 1690h122v-1061q0 -269 114 -405t339 -136t339 136t114 405v1061h123v-1084q0 -313 -148 -476t-428 -163t-427.5 162.5t-147.5 476.5v1084z" />
    <glyph glyph-name="V" unicode="V" horiz-adv-x="1486" 
d="M1360 1690h139l-708 -1690h-95l-708 1690h139l616 -1506z" />
    <glyph glyph-name="W" unicode="W" horiz-adv-x="2269" 
d="M2144 1690h137l-505 -1690h-140l-501 1446l-502 -1446h-139l-506 1690h137l440 -1534l522 1534h95l522 -1534z" />
    <glyph glyph-name="X" unicode="X" horiz-adv-x="1421" 
d="M1186 1690h149l-549 -777l648 -913h-154l-569 805l-570 -805h-153l647 913l-549 777h150l475 -672z" />
    <glyph glyph-name="Y" unicode="Y" horiz-adv-x="1249" 
d="M1112 1690h150l-576 -961v-729h-123v729l-575 961h149l488 -828z" />
    <glyph glyph-name="Z" unicode="Z" horiz-adv-x="1546" 
d="M205 1690h1251l-1141 -1577h1086v-113h-1313l1143 1577h-1026v113z" />
    <glyph glyph-name="bracketleft" unicode="[" horiz-adv-x="606" 
d="M215 1761h397v-94h-288v-2105h288v-94h-397v2293z" />
    <glyph glyph-name="backslash" unicode="\" horiz-adv-x="958" 
d="M10 1761h94l844 -1761h-94z" />
    <glyph glyph-name="bracketright" unicode="]" horiz-adv-x="606" 
d="M-4 1761h397v-2293h-397v94h289v2105h-289v94z" />
    <glyph glyph-name="asciicircum" unicode="^" horiz-adv-x="905" 
d="M-2 1239l424 481h61l424 -481h-106l-348 401l-351 -401h-104z" />
    <glyph glyph-name="underscore" unicode="_" horiz-adv-x="1050" 
d="M0 -137h1051v-68h-1051v68z" />
    <glyph glyph-name="grave" unicode="`" horiz-adv-x="567" 
d="M115 1622l71 98l269 -211l-47 -65z" />
    <glyph glyph-name="a" unicode="a" 
d="M135 524q0 242 148.5 399.5t373.5 157.5q147 0 264.5 -71.5t180.5 -196.5v236h119v-1049h-119v238q-64 -125 -181.5 -198t-263.5 -73q-225 0 -373.5 157.5t-148.5 399.5zM256 524q0 -198 120 -325t306 -127t306 127t120 325q0 199 -120.5 326t-305.5 127t-305.5 -127
t-120.5 -326z" />
    <glyph glyph-name="b" unicode="b" 
d="M1292 524q0 -242 -148.5 -399.5t-373.5 -157.5q-146 0 -263 73t-181 198v-238h-119v1761h119v-948q63 125 180 196.5t264 71.5q225 0 373.5 -157.5t148.5 -399.5zM1171 524q0 199 -120.5 326t-305.5 127t-305.5 -127t-120.5 -326q0 -198 120 -325t306 -127t306 127
t120 325z" />
    <glyph glyph-name="c" unicode="c" horiz-adv-x="1175" 
d="M123 524q0 159 75 287t204 199t284 71q111 0 205 -33t156 -85l-58 -84q-115 100 -293 100q-196 0 -325 -129t-129 -326q0 -196 129 -325t325 -129q178 0 293 100l58 -84q-63 -52 -156.5 -85.5t-204.5 -33.5q-155 0 -284 71t-204 199t-75 287z" />
    <glyph glyph-name="d" unicode="d" 
d="M135 524q0 242 148.5 399.5t373.5 157.5q147 0 264.5 -71.5t180.5 -196.5v948h119v-1761h-119v238q-64 -125 -181.5 -198t-263.5 -73q-225 0 -373.5 157.5t-148.5 399.5zM256 524q0 -198 120 -325t306 -127t306 127t120 325q0 199 -120.5 326t-305.5 127t-305.5 -127
t-120.5 -326z" />
    <glyph glyph-name="e" unicode="e" horiz-adv-x="1335" 
d="M123 524q0 114 43.5 217t117 177.5t174.5 118.5t212 44q149 0 273 -71.5t196.5 -199.5t72.5 -284v-12h-972q0 -196 129 -319t321 -123q263 0 395 198l89 -49q-76 -122 -203 -188t-285 -66q-157 0 -285.5 71t-203 199t-74.5 287zM244 596h852q-17 169 -137 275t-287 106
q-171 0 -292 -107t-136 -274z" />
    <glyph glyph-name="f" unicode="f" horiz-adv-x="608" 
d="M119 1049h100v397q0 175 72.5 260.5t200.5 85.5q109 0 182 -57l-41 -84q-51 37 -125 37q-87 0 -128.5 -55.5t-41.5 -180.5v-403h270v-91h-270v-958h-119v958h-100v91z" />
    <glyph glyph-name="g" unicode="g" horiz-adv-x="1437" 
d="M145 524q0 242 149 399.5t374 157.5q147 0 264 -71.5t180 -196.5v236h119v-1078q0 -254 -147 -394t-416 -140q-196 0 -331.5 80t-201.5 225l103 45q48 -109 162 -179.5t268 -70.5q204 0 324 116.5t120 307.5v277q-64 -125 -181 -198t-263 -73q-225 0 -374 157.5
t-149 399.5zM266 524q0 -198 120 -325t306 -127t306 127t120 325q0 199 -120.5 326t-305.5 127t-305.5 -127t-120.5 -326z" />
    <glyph glyph-name="h" unicode="h" horiz-adv-x="1255" 
d="M205 1761h119v-860q43 88 137.5 134t191.5 46q201 0 306.5 -111t105.5 -306v-664h-117v629q0 170 -78 262t-235 92q-92 0 -165 -43.5t-109.5 -109t-36.5 -136.5v-694h-119v1761z" />
    <glyph glyph-name="i" unicode="i" horiz-adv-x="546" 
d="M221 1049h119v-1049h-119v1049zM281 1427q35 0 60.5 -25.5t25.5 -60.5t-25.5 -60.5t-60.5 -25.5t-60.5 25.5t-25.5 60.5t25.5 60.5t60.5 25.5z" />
    <glyph glyph-name="j" unicode="j" horiz-adv-x="516" 
d="M207 1049h119v-1289q0 -161 -69.5 -242t-197.5 -81q-113 0 -180 51l35 94q47 -41 125 -41q168 0 168 223v1285zM266 1427q35 0 60.5 -25.5t25.5 -60.5t-25.5 -60.5t-60.5 -25.5t-60.5 25.5t-25.5 60.5t25.5 60.5t60.5 25.5z" />
    <glyph glyph-name="k" unicode="k" horiz-adv-x="956" 
d="M207 1761h119v-1134l360 422h150l-344 -398l507 -651h-147l-436 563l-90 -102v-461h-119v1761z" />
    <glyph glyph-name="l" unicode="l" horiz-adv-x="532" 
d="M207 1761h119v-1761h-119v1761z" />
    <glyph glyph-name="m" unicode="m" horiz-adv-x="1984" 
d="M207 1049h119v-148q51 85 144 132.5t185 47.5q288 0 373 -225q55 99 151.5 162t211.5 63q202 0 302.5 -110t100.5 -307v-664h-119v629q0 166 -78.5 260t-232.5 94q-64 0 -123 -27t-97.5 -66.5t-61.5 -83.5t-23 -79v-727h-119v629q0 166 -78.5 260t-232.5 94
q-64 0 -122.5 -27t-97 -67.5t-61 -84.5t-22.5 -79v-725h-119v1049z" />
    <glyph glyph-name="n" unicode="n" horiz-adv-x="1257" 
d="M207 1049h119v-148q43 88 137.5 134t191.5 46q201 0 306.5 -111t105.5 -306v-664h-117v629q0 170 -78 262t-235 92q-92 0 -165 -43.5t-109.5 -109t-36.5 -136.5v-694h-119v1049z" />
    <glyph glyph-name="o" unicode="o" horiz-adv-x="1392" 
d="M242 524q0 -197 128.5 -324.5t325.5 -127.5t326 127.5t129 324.5t-129 325t-326 128t-325.5 -127.5t-128.5 -325.5zM1270 524q0 -162 -76 -290t-206.5 -197.5t-291.5 -69.5t-291.5 69.5t-206 197.5t-75.5 290t75.5 290t206 197.5t291.5 69.5t291.5 -69.5t206.5 -197.5
t76 -290z" />
    <glyph glyph-name="p" unicode="p" 
d="M1292 524q0 -242 -148.5 -399.5t-373.5 -157.5q-146 0 -263 73t-181 198v-770h-119v1581h119v-236q63 125 180 196.5t264 71.5q225 0 373.5 -157.5t148.5 -399.5zM1171 524q0 199 -120.5 326t-305.5 127t-305.5 -127t-120.5 -326q0 -198 120 -325t306 -127t306 127
t120 325z" />
    <glyph glyph-name="q" unicode="q" 
d="M135 524q0 242 148.5 399.5t373.5 157.5q147 0 264.5 -71.5t180.5 -196.5v236h119v-1581h-119v770q-64 -125 -181.5 -198t-263.5 -73q-225 0 -373.5 157.5t-148.5 399.5zM256 524q0 -198 120 -325t306 -127t306 127t120 325q0 199 -120.5 326t-305.5 127t-305.5 -127
t-120.5 -326z" />
    <glyph glyph-name="r" unicode="r" horiz-adv-x="800" 
d="M207 1049h119v-156q38 85 120 136.5t181 51.5q112 0 178 -32l-49 -101q-56 29 -150 29q-69 0 -125.5 -29.5t-88.5 -72.5t-49 -86t-17 -76v-713h-119v1049z" />
    <glyph glyph-name="s" unicode="s" horiz-adv-x="970" 
d="M524 1081q100 0 180.5 -56t104.5 -124l-90 -39q-26 53 -78 87t-117 34q-109 0 -165 -51t-56 -117q0 -69 56.5 -115t177.5 -84q49 -15 89 -31t86 -44t76.5 -61t51 -82.5t20.5 -108.5q0 -104 -52.5 -178.5t-135.5 -109t-187 -34.5q-138 0 -240.5 70.5t-142.5 181.5l95 57
q37 -92 113.5 -146t174.5 -54q124 0 194.5 58.5t70.5 152.5q0 87 -79 148.5t-206 99.5q-51 15 -93.5 35.5t-85 52.5t-67 80.5t-24.5 107.5q0 117 88 193.5t241 76.5z" />
    <glyph glyph-name="t" unicode="t" horiz-adv-x="645" 
d="M119 1049h102v391h119v-391h266v-91h-266v-688q0 -102 27 -146t100 -44q29 0 58.5 10t44.5 20l14 9l30 -107q-6 -5 -18.5 -12.5t-55 -20t-89.5 -12.5q-57 0 -99.5 17t-67 43.5t-39 66t-19.5 77.5t-5 85v702h-102v91z" />
    <glyph glyph-name="u" unicode="u" horiz-adv-x="1232" 
d="M190 1049h119v-600q0 -113 20.5 -189t62.5 -117t95 -57t129 -16t129 16t95.5 57t63 117t20.5 189v600h118v-619q0 -251 -103.5 -357t-322.5 -106t-322.5 106t-103.5 357v619z" />
    <glyph glyph-name="v" unicode="v" horiz-adv-x="1081" 
d="M0 1049h139l402 -873l401 873h139l-501 -1049h-78z" />
    <glyph glyph-name="w" unicode="w" horiz-adv-x="1839" 
d="M0 1049h135l404 -873l342 873h77l342 -873l404 873h135l-502 -1049h-77l-340 856l-340 -856h-78z" />
    <glyph glyph-name="x" unicode="x" horiz-adv-x="1101" 
d="M90 1049h135l326 -428l326 428h135l-383 -510l442 -539h-139l-381 467l-381 -467h-139l442 539z" />
    <glyph glyph-name="y" unicode="y" horiz-adv-x="1095" 
d="M0 1049h135l432 -918l394 918h135l-707 -1581h-133l244 538z" />
    <glyph glyph-name="z" unicode="z" horiz-adv-x="1155" 
d="M137 1049h959l-813 -949h792v-100h-1016l811 948h-733v101z" />
    <glyph glyph-name="braceleft" unicode="{" horiz-adv-x="608" 
d="M160 653q42 0 63 23t21 74v641q0 70 14.5 130.5t49 117t101 89.5t160.5 33h64v-98h-41q-121 0 -180.5 -72t-59.5 -207v-663q0 -82 -49 -107q49 -25 49 -106v-664q0 -135 59.5 -206.5t180.5 -71.5h41v-98h-64q-94 0 -160.5 33t-101 89.5t-49 117t-14.5 130.5v641
q0 51 -21 73.5t-63 22.5v78z" />
    <glyph glyph-name="bar" unicode="|" horiz-adv-x="538" 
d="M215 1761h109v-1761h-109v1761z" />
    <glyph glyph-name="braceright" unicode="}" horiz-adv-x="608" 
d="M-25 1761h64q76 0 134.5 -22.5t94 -58.5t58 -86t31 -99t8.5 -104v-641q0 -51 21 -74t63 -23v-78q-42 0 -63 -22.5t-21 -73.5v-641q0 -55 -8.5 -104t-31 -99t-58 -86t-94 -58.5t-134.5 -22.5h-64v98h41q121 0 180.5 71.5t59.5 206.5v664q0 81 49 106q-49 25 -49 107v663
q0 135 -59.5 207t-180.5 72h-41v98z" />
    <glyph glyph-name="asciitilde" unicode="~" horiz-adv-x="1302" 
d="M623 811q-93 74 -189 74q-127 0 -221 -160l-68 61q42 74 119.5 135.5t177.5 61.5q120 0 238 -92q93 -74 188 -74q128 0 222 160l67 -62q-42 -74 -119.5 -135t-177.5 -61q-119 0 -237 92z" />
    <glyph glyph-name="exclamdown" unicode="&#xa1;" horiz-adv-x="602" 
d="M301 1260q35 0 60.5 -25.5t25.5 -60.5t-25.5 -61t-60.5 -26t-60.5 26t-25.5 61t25.5 60.5t60.5 25.5zM254 842h94l10 -1374h-114z" />
    <glyph glyph-name="cent" unicode="&#xa2;" horiz-adv-x="1173" 
d="M123 524q0 215 132.5 366.5t336.5 182.5v230h80v-222h14q111 0 205 -33t156 -85l-58 -84q-115 100 -293 100q-196 0 -325 -129t-129 -326q0 -196 129 -325t325 -129q178 0 293 100l58 -84q-56 -47 -140.5 -79t-183.5 -38v-233h-84v233q-221 17 -368.5 172.5t-147.5 382.5
z" />
    <glyph glyph-name="sterling" unicode="&#xa3;" horiz-adv-x="1554" 
d="M143 723h295q-40 58 -62.5 96t-48 95t-37 121t-11.5 141q0 152 68.5 276t192.5 196t281 72q108 0 199 -28.5t151.5 -73t106.5 -103.5t70.5 -113.5t35.5 -109.5l-106 -39q-10 49 -30 96.5t-57 98t-86 88t-122.5 62t-161.5 24.5q-188 0 -306 -127.5t-118 -318.5
q0 -55 7.5 -106t17.5 -86t29.5 -77.5t31.5 -64t37.5 -62.5t34.5 -57h524v-78h-487q39 -86 39 -176q0 -123 -49 -236q47 0 97.5 -16.5t97 -40t95.5 -47.5t109.5 -40.5t120.5 -16.5t111 25.5t82.5 65.5t50.5 84t22 85l100 -49q-7 -50 -35 -103.5t-72 -101.5t-110 -78.5
t-141 -30.5q-89 0 -175 28.5t-143 62t-130.5 62t-139.5 28.5q-97 0 -160 -45.5t-83 -104.5h-78q15 83 95 157.5t193 80.5q46 107 46 227q0 91 -54 180h-338v78z" />
    <glyph glyph-name="yen" unicode="&#xa5;" horiz-adv-x="1288" 
d="M8 1690h148l487 -828l487 828h150l-539 -904h365v-92h-399v-262h399v-92h-399v-340h-125v340h-400v92h400v262h-400v92h365z" />
    <glyph glyph-name="brokenbar" unicode="&#xa6;" horiz-adv-x="538" 
d="M215 1761h109v-680h-109v680zM215 680h109v-680h-109v680z" />
    <glyph glyph-name="section" unicode="&#xa7;" horiz-adv-x="1310" 
d="M205 672q1 100 58 179t136 112q-182 121 -182 325q0 186 127 309t326 123q92 0 168 -26t125.5 -68.5t80.5 -86.5t48 -91l-95 -37q-27 85 -113.5 146t-213.5 61q-152 0 -242 -99t-90 -227q0 -65 27 -118.5t80 -94.5t115 -71t147 -58q247 -81 362 -180t115 -244
q0 -90 -61.5 -169.5t-141.5 -112.5q190 -135 190 -359q0 -197 -139.5 -322.5t-378.5 -125.5q-115 0 -209.5 30.5t-150.5 73.5t-96.5 97.5t-56.5 95t-21 73.5l102 33q6 -31 23 -67.5t52.5 -79t82 -76t118.5 -56t156 -22.5q174 0 285 91t111 251q0 143 -107 237.5t-338 170.5
q-205 67 -302 161t-97 222zM307 684q1 -54 26.5 -98.5t75.5 -78.5t106 -59t136 -51q156 -49 250 -106q70 21 124 85t54 136q-1 111 -106 188.5t-330 149.5q-94 31 -164 65q-67 -20 -119 -84.5t-53 -146.5z" />
    <glyph glyph-name="dieresis" unicode="&#xa8;" horiz-adv-x="933" 
d="M227 1509q32 0 55 -22.5t23 -54.5t-23 -55t-55 -23t-54.5 23t-22.5 55t22.5 54.5t54.5 22.5zM707 1509q32 0 54.5 -22.5t22.5 -54.5t-22.5 -55t-54.5 -23t-55 23t-23 55t23 54.5t55 22.5z" />
    <glyph glyph-name="copyright" unicode="&#xa9;" horiz-adv-x="1974" 
d="M131 844q0 182 68 345t183.5 279t273.5 184t331 68q175 0 333 -68t273 -184t182.5 -279t67.5 -345t-66 -344.5t-179 -279t-272.5 -185t-338.5 -68.5q-183 0 -342.5 68t-272 185.5t-177 279.5t-64.5 344zM227 844q0 -218 97.5 -397.5t272 -283.5t390.5 -104q212 0 387 104
t274 284t99 397q0 216 -102 396.5t-276.5 284t-381.5 103.5q-153 0 -293 -61t-242.5 -165.5t-163.5 -250t-61 -307.5zM455 842q0 151 72 273.5t195 190.5t271 68q107 0 196 -32t148 -82l-53 -80q-111 96 -280 96q-188 0 -311.5 -123.5t-123.5 -310.5t123.5 -310.5
t311.5 -123.5q165 0 280 96l53 -80q-59 -50 -148 -81.5t-196 -31.5q-148 0 -271 67.5t-195 190t-72 273.5z" />
    <glyph glyph-name="ordfeminine" unicode="&#xaa;" horiz-adv-x="933" 
d="M123 1376q0 150 91 247t230 97q90 0 163.5 -44.5t111.5 -121.5v146h74v-647h-74v147q-39 -77 -112 -122.5t-163 -45.5q-138 0 -229.5 97.5t-91.5 246.5zM197 1376q0 -123 74 -200.5t188 -77.5q116 0 190 77.5t74 200.5t-75 202t-189 79t-188 -79t-74 -202z" />
    <glyph glyph-name="guillemotleft" unicode="&#xab;" horiz-adv-x="1075" 
d="M430 1081l76 -59l-354 -453l354 -452l-76 -60l-399 512zM942 1081l76 -59l-354 -453l354 -452l-76 -60l-399 512z" />
    <glyph glyph-name="registered" unicode="&#xae;" horiz-adv-x="1054" 
d="M68 1260q0 190 134 325t322 135q126 0 232 -61.5t167.5 -167.5t61.5 -231q0 -189 -134.5 -323t-326.5 -134q-123 0 -228 61t-166.5 166.5t-61.5 229.5zM117 1260q0 -169 120 -289.5t287 -120.5q171 0 292.5 120.5t121.5 289.5q0 170 -121 291.5t-293 121.5
q-167 0 -287 -121.5t-120 -291.5zM365 1565h147q89 0 139.5 -45t50.5 -123q0 -73 -44 -119.5t-123 -52.5l200 -262h-55l-197 260h-73v-260h-45v602zM410 1530v-270h94q70 0 112.5 37.5t42.5 99.5q0 61 -42 97t-113 36h-94z" />
    <glyph glyph-name="macron" unicode="&#xaf;" horiz-adv-x="1122" 
d="M143 1466h836v-88h-836v88z" />
    <glyph glyph-name="degree" unicode="&#xb0;" horiz-adv-x="585" 
d="M80 1581q0 93 61 152t152 59t152 -59t61 -152t-61 -152t-152 -59t-152 59t-61 152zM150 1581q0 -64 40.5 -105.5t102.5 -41.5t102.5 41.5t40.5 105.5t-40.5 106t-102.5 42t-102.5 -42t-40.5 -106z" />
    <glyph glyph-name="plusminus" unicode="&#xb1;" horiz-adv-x="1355" 
d="M627 1374h102v-465h473v-102h-473v-465h-102v465h-473v102h473v465zM154 102h1048v-102h-1048v102z" />
    <glyph glyph-name="twosuperior" unicode="&#xb2;" horiz-adv-x="565" 
d="M72 1522q6 85 65.5 141.5t153.5 56.5q99 0 160 -64t61 -151q0 -63 -52 -136t-102.5 -117t-173.5 -143l-18 -15h356v-43h-461v22q14 11 68.5 53t79 62t72 60t72 67t53 62.5t41 67t12.5 60.5q0 67 -48 118.5t-120 51.5q-76 0 -119.5 -45t-48.5 -114z" />
    <glyph glyph-name="threesuperior" unicode="&#xb3;" horiz-adv-x="501" 
d="M88 1559q5 65 52 113t124 48q73 0 124.5 -49.5t51.5 -120.5q0 -54 -29.5 -95.5t-76.5 -59.5q52 -15 83.5 -60.5t31.5 -103.5q0 -79 -51.5 -129.5t-143.5 -50.5q-93 0 -143.5 49.5t-57.5 118.5l43 8q7 -55 47.5 -93t110.5 -38t107.5 37t37.5 98t-42.5 103t-100.5 42
l-23 -2v37h21q58 0 99.5 40t41.5 99q0 53 -38.5 91t-92.5 38q-56 0 -92.5 -36t-42.5 -93z" />
    <glyph glyph-name="acute" unicode="&#xb4;" horiz-adv-x="638" 
d="M418 1720l71 -98l-292 -178l-47 65z" />
    <glyph glyph-name="mu" unicode="&#xb5;" horiz-adv-x="1294" 
d="M227 1049h117v-629q0 -170 78 -262t235 -92q138 0 225 88.5t87 199.5v695h118v-1049h-118v147q-43 -87 -137.5 -133.5t-192.5 -46.5q-207 0 -295 135v-430h-156q0 174 19.5 404t19.5 375v598z" />
    <glyph glyph-name="paragraph" unicode="&#xb6;" horiz-adv-x="1308" 
d="M131 1219q0 213 139 342t383 129h441v-1690h-88v1608h-66v-1608h-88v729h-199q-241 0 -381.5 138.5t-140.5 351.5z" />
    <glyph glyph-name="periodcentered" unicode="&#xb7;" horiz-adv-x="405" 
d="M203 637q35 0 60.5 -25.5t25.5 -60.5t-25.5 -60.5t-60.5 -25.5t-60.5 25.5t-25.5 60.5t25.5 60.5t60.5 25.5z" />
    <glyph glyph-name="cedilla" unicode="&#xb8;" horiz-adv-x="819" 
d="M299 -260l100 307l70 -22l-63 -193q50 8 79 8q92 -3 152.5 -63t60.5 -154q0 -97 -71 -161t-189 -64q-95 0 -168.5 44.5t-105.5 108.5l65 41q26 -49 82 -81.5t127 -32.5q72 0 124 38t52 107q0 67 -44 109.5t-111 42.5q-90 0 -152 -41z" />
    <glyph glyph-name="onesuperior" unicode="&#xb9;" horiz-adv-x="239" 
d="M59 1690h101v-639h-47v594h-54v45z" />
    <glyph glyph-name="ordmasculine" unicode="&#xba;" horiz-adv-x="940" 
d="M80 1374q0 150 113.5 248t279.5 98t279.5 -98t113.5 -248t-113.5 -248t-279.5 -98t-279.5 98t-113.5 248zM172 1374q0 -114 86 -189t215 -75t215 75t86 189t-86 189t-215 75t-215 -75t-86 -189z" />
    <glyph glyph-name="guillemotright" unicode="&#xbb;" horiz-adv-x="1075" 
d="M569 1022l76 59l399 -512l-399 -512l-76 60l355 452zM57 1022l76 59l399 -512l-399 -512l-76 60l355 452z" />
    <glyph glyph-name="onequarter" unicode="&#xbc;" horiz-adv-x="1468" 
d="M137 1690h154v-981h-70v911h-84v70zM735 340v37l463 606h72v-580h112v-63h-112v-340h-70v340h-465zM827 403h373v482zM96 0l983 1690h88l-983 -1690h-88z" />
    <glyph glyph-name="onehalf" unicode="&#xbd;" horiz-adv-x="1849" 
d="M137 1690h154v-981h-70v911h-84v70zM969 694q9 125 96 209t225 84q146 0 235 -94.5t89 -222.5q0 -43 -14.5 -87.5t-35.5 -83t-63 -86t-76 -82.5t-97 -88t-104.5 -86.5t-117.5 -93.5h526v-63h-678v31q28 22 89 70t98 77.5t95 78t94.5 84t79.5 82.5t67.5 85t41.5 81t17 81
q0 100 -70 176t-176 76q-111 0 -176.5 -68t-71.5 -168zM98 0l983 1690h88l-983 -1690h-88z" />
    <glyph glyph-name="threequarters" unicode="&#xbe;" horiz-adv-x="1820" 
d="M1087 340v37l463 606h72v-580h113v-63h-113v-340h-70v340h-465zM1180 403h372v482zM127 1456q5 96 76 168t186 72q109 0 184.5 -74t75.5 -180q0 -79 -43.5 -142t-113.5 -88q77 -21 123.5 -89t46.5 -154q0 -116 -76.5 -191.5t-210.5 -75.5q-74 0 -131 21.5t-91.5 58.5
t-53.5 79.5t-25 90.5l65 13q8 -81 69.5 -139t166.5 -58q101 0 158 56.5t57 144.5q0 91 -64 154t-151 63l-33 -4v55h31q87 0 148 59t61 146q0 79 -57.5 135.5t-137.5 56.5q-82 0 -137.5 -53.5t-63.5 -134.5zM449 0l983 1690h88l-983 -1690h-88z" />
    <glyph glyph-name="questiondown" unicode="&#xbf;" horiz-adv-x="1185" 
d="M1012 -59l106 -13q-6 -218 -142.5 -354.5t-365.5 -136.5q-116 0 -214.5 42t-163 112t-100.5 160.5t-36 187.5q0 76 20 147.5t61 136t99.5 113t140.5 79t179 34.5v294h111v-403q-27 6 -76 6q-199 0 -309.5 -115t-110.5 -292q0 -174 108.5 -283t290.5 -109q183 0 291 108.5
t111 285.5zM651 1018q-35 0 -60.5 25.5t-25.5 60.5t25.5 60.5t60.5 25.5t60.5 -25.5t25.5 -60.5t-25.5 -60.5t-60.5 -25.5z" />
    <glyph glyph-name="Agrave" unicode="&#xc0;" horiz-adv-x="1417" 
d="M651 1690h115l664 -1690h-134l-217 567h-741l-217 -567h-133zM379 676h659l-329 854zM416 2019l71 99l269 -211l-47 -66z" />
    <glyph glyph-name="Aacute" unicode="&#xc1;" horiz-adv-x="1417" 
d="M651 1690h115l664 -1690h-134l-217 567h-741l-217 -567h-133zM379 676h659l-329 854zM930 2120l71 -99l-292 -178l-47 66z" />
    <glyph glyph-name="Acircumflex" unicode="&#xc2;" horiz-adv-x="1417" 
d="M651 1690h115l664 -1690h-134l-217 567h-741l-217 -567h-133zM379 676h659l-329 854zM344 1913l365 268l364 -268l-53 -72l-311 230l-314 -230z" />
    <glyph glyph-name="Atilde" unicode="&#xc3;" horiz-adv-x="1417" 
d="M651 1690h115l664 -1690h-134l-217 567h-741l-217 -567h-133zM379 676h659l-329 854zM203 2060q42 74 119.5 135.5t177.5 61.5q119 0 237 -92q93 -74 189 -74q127 0 221 160l67 -62q-42 -74 -119 -135t-177 -61q-120 0 -238 92q-93 74 -188 74q-128 0 -222 -160z" />
    <glyph glyph-name="Adieresis" unicode="&#xc4;" horiz-adv-x="1417" 
d="M651 1690h115l664 -1690h-134l-217 567h-741l-217 -567h-133zM379 676h659l-329 854zM469 2148q32 0 55 -22.5t23 -54.5t-23 -55t-55 -23t-55 23t-23 55t23 54.5t55 22.5zM948 2148q32 0 55 -22.5t23 -54.5t-23 -55t-55 -23t-55 23t-23 55t23 54.5t55 22.5z" />
    <glyph glyph-name="Aring" unicode="&#xc5;" horiz-adv-x="1417" 
d="M651 1690h115l664 -1690h-134l-217 567h-741l-217 -567h-133zM379 676h659l-329 854zM483 2138q0 89 62.5 144t163.5 55t163 -55t62 -144t-62 -144t-163 -55t-163.5 55t-62.5 144zM567 2138q0 -55 40 -90t102 -35t101.5 35t39.5 90t-39.5 90t-101.5 35t-102 -35t-40 -90z
" />
    <glyph glyph-name="AE" unicode="&#xc6;" horiz-adv-x="1685" 
d="M-12 0l663 1690h893v-109h-713v-680h689v-108h-689v-684h713v-109h-835v567h-371l-217 -567h-133zM379 676h330v854z" />
    <glyph glyph-name="Ccedilla" unicode="&#xc7;" horiz-adv-x="1660" 
d="M842 -260l76 233q-226 22 -406 142t-280.5 311t-100.5 418q0 243 114.5 443.5t317.5 316.5t453 116q314 0 547 -176l-62 -102q-87 70 -210.5 113.5t-264.5 43.5q-168 0 -312 -60t-242 -162t-153 -240.5t-55 -292.5q0 -207 93.5 -378.5t269 -274.5t399.5 -103
q141 0 264.5 43.5t210.5 114.5l62 -103q-233 -176 -547 -176l-23 2l-45 -137q50 8 80 8q92 -3 152.5 -63t60.5 -154q0 -97 -71 -161t-189 -64q-95 0 -168.5 44.5t-105.5 108.5l65 41q26 -49 82 -81.5t127 -32.5q72 0 124 38t52 107q0 67 -44.5 109.5t-111.5 42.5
q-89 0 -151 -41z" />
    <glyph glyph-name="Egrave" unicode="&#xc8;" horiz-adv-x="1191" 
d="M215 1690h836v-109h-713v-680h688v-108h-688v-684h713v-109h-836v1690zM401 2019l72 99l268 -211l-47 -66z" />
    <glyph glyph-name="Eacute" unicode="&#xc9;" horiz-adv-x="1191" 
d="M215 1690h836v-109h-713v-680h688v-108h-688v-684h713v-109h-836v1690zM793 2120l71 -99l-293 -178l-47 66z" />
    <glyph glyph-name="Ecircumflex" unicode="&#xca;" horiz-adv-x="1191" 
d="M215 1690h836v-109h-713v-680h688v-108h-688v-684h713v-109h-836v1690zM266 1913l365 268l364 -268l-53 -72l-311 230l-314 -230z" />
    <glyph glyph-name="Edieresis" unicode="&#xcb;" horiz-adv-x="1191" 
d="M215 1690h836v-109h-713v-680h688v-108h-688v-684h713v-109h-836v1690zM393 2148q32 0 55 -22.5t23 -54.5t-23 -55t-55 -23t-55 23t-23 55t23 54.5t55 22.5zM872 2148q32 0 55 -22.5t23 -54.5t-23 -55t-55 -23t-54.5 23t-22.5 55t22.5 54.5t54.5 22.5z" />
    <glyph glyph-name="Igrave" unicode="&#xcc;" horiz-adv-x="552" 
d="M215 1690h123v-1690h-123v1690zM-16 2019l71 99l269 -211l-48 -66z" />
    <glyph glyph-name="Iacute" unicode="&#xcd;" horiz-adv-x="552" 
d="M215 1690h123v-1690h-123v1690zM498 2120l71 -99l-293 -178l-47 66z" />
    <glyph glyph-name="Icircumflex" unicode="&#xce;" horiz-adv-x="552" 
d="M215 1690h123v-1690h-123v1690zM-88 1913l364 268l365 -268l-53 -72l-312 230l-313 -230z" />
    <glyph glyph-name="Idieresis" unicode="&#xcf;" horiz-adv-x="552" 
d="M215 1690h123v-1690h-123v1690zM37 2148q32 0 55 -22.5t23 -54.5t-23 -55t-55 -23t-55 23t-23 55t23 54.5t55 22.5zM516 2148q32 0 55 -22.5t23 -54.5t-23 -55t-55 -23t-55 23t-23 55t23 54.5t55 22.5z" />
    <glyph glyph-name="Eth" unicode="&#xd0;" horiz-adv-x="1562" 
d="M215 1690h365q172 0 328 -63.5t271.5 -173.5t184 -268.5t68.5 -338.5q0 -181 -68 -340t-183.5 -269t-271.5 -173.5t-329 -63.5h-365v795h-166v100h166v795zM338 1579v-684h487v-100h-487v-684h233q198 0 366 93.5t268 263t100 378.5q0 156 -59 293t-158.5 233t-234 151.5
t-282.5 55.5h-233z" />
    <glyph glyph-name="Ntilde" unicode="&#xd1;" horiz-adv-x="1617" 
d="M215 1690h123l942 -1479v1479h123v-1690h-123l-942 1477v-1477h-123v1690zM303 2062q42 74 119.5 135.5t177.5 61.5q120 0 238 -92q93 -74 188 -74q127 0 221 160l68 -62q-42 -74 -119.5 -135t-177.5 -61q-120 0 -238 92q-93 74 -188 74q-127 0 -221 -160z" />
    <glyph glyph-name="Ograve" unicode="&#xd2;" horiz-adv-x="1966" 
d="M131 844q0 182 68 345.5t183 279t272 183.5t329 68t329 -68t272 -183.5t183 -279t68 -345.5t-68 -345.5t-183 -279.5t-272 -184t-329 -68t-329 68t-272 184t-183 279.5t-68 345.5zM262 844q0 -155 56.5 -295t152.5 -241.5t230 -161.5t282 -60t282 60t230 161.5
t152.5 241.5t56.5 295t-56.5 295t-152.5 241.5t-230 161.5t-282 60t-282 -60t-230 -161.5t-152.5 -241.5t-56.5 -295zM752 2019l71 99l269 -211l-48 -66z" />
    <glyph glyph-name="Oacute" unicode="&#xd3;" horiz-adv-x="1966" 
d="M131 844q0 182 68 345.5t183 279t272 183.5t329 68t329 -68t272 -183.5t183 -279t68 -345.5t-68 -345.5t-183 -279.5t-272 -184t-329 -68t-329 68t-272 184t-183 279.5t-68 345.5zM262 844q0 -155 56.5 -295t152.5 -241.5t230 -161.5t282 -60t282 60t230 161.5
t152.5 241.5t56.5 295t-56.5 295t-152.5 241.5t-230 161.5t-282 60t-282 -60t-230 -161.5t-152.5 -241.5t-56.5 -295zM1143 2118l71 -99l-292 -178l-48 66z" />
    <glyph glyph-name="Ocircumflex" unicode="&#xd4;" horiz-adv-x="1966" 
d="M131 844q0 182 68 345.5t183 279t272 183.5t329 68t329 -68t272 -183.5t183 -279t68 -345.5t-68 -345.5t-183 -279.5t-272 -184t-329 -68t-329 68t-272 184t-183 279.5t-68 345.5zM262 844q0 -155 56.5 -295t152.5 -241.5t230 -161.5t282 -60t282 60t230 161.5
t152.5 241.5t56.5 295t-56.5 295t-152.5 241.5t-230 161.5t-282 60t-282 -60t-230 -161.5t-152.5 -241.5t-56.5 -295zM618 1913l365 268l365 -268l-54 -72l-311 230l-313 -230z" />
    <glyph glyph-name="Otilde" unicode="&#xd5;" horiz-adv-x="1966" 
d="M131 844q0 182 68 345.5t183 279t272 183.5t329 68t329 -68t272 -183.5t183 -279t68 -345.5t-68 -345.5t-183 -279.5t-272 -184t-329 -68t-329 68t-272 184t-183 279.5t-68 345.5zM262 844q0 -155 56.5 -295t152.5 -241.5t230 -161.5t282 -60t282 60t230 161.5
t152.5 241.5t56.5 295t-56.5 295t-152.5 241.5t-230 161.5t-282 60t-282 -60t-230 -161.5t-152.5 -241.5t-56.5 -295zM477 2056q42 74 119.5 135.5t177.5 61.5q120 0 238 -92q93 -74 188 -74q127 0 221 160l68 -62q-42 -74 -119.5 -135t-177.5 -61q-120 0 -238 92
q-92 73 -188 73q-128 0 -221 -159z" />
    <glyph glyph-name="Odieresis" unicode="&#xd6;" horiz-adv-x="1966" 
d="M131 844q0 182 68 345.5t183 279t272 183.5t329 68t329 -68t272 -183.5t183 -279t68 -345.5t-68 -345.5t-183 -279.5t-272 -184t-329 -68t-329 68t-272 184t-183 279.5t-68 345.5zM262 844q0 -155 56.5 -295t152.5 -241.5t230 -161.5t282 -60t282 60t230 161.5
t152.5 241.5t56.5 295t-56.5 295t-152.5 241.5t-230 161.5t-282 60t-282 -60t-230 -161.5t-152.5 -241.5t-56.5 -295zM743 2148q32 0 55 -22.5t23 -54.5t-23 -55t-55 -23t-54.5 23t-22.5 55t22.5 54.5t54.5 22.5zM1223 2148q32 0 54.5 -22.5t22.5 -54.5t-22.5 -55t-54.5 -23
t-55 23t-23 55t23 54.5t55 22.5z" />
    <glyph glyph-name="multiply" unicode="&#xd7;" horiz-adv-x="1146" 
d="M115 1237l71 70l387 -387l388 387l71 -70l-389 -389l389 -389l-71 -70l-388 387l-387 -387l-71 70l389 389z" />
    <glyph glyph-name="Oslash" unicode="&#xd8;" horiz-adv-x="1964" 
d="M129 844q0 182 68 345.5t183 279t272 183.5t329 68q271 0 494 -161l106 137l84 -64l-111 -141q131 -121 205 -288.5t74 -358.5q0 -182 -68 -345.5t-183 -279.5t-272 -184t-329 -68q-268 0 -494 160l-102 -131l-82 63l105 134q-131 123 -205 291t-74 360zM260 844
q0 -162 58.5 -304.5t164.5 -248.5l916 1171q-186 140 -418 140q-148 0 -282 -60t-230 -161.5t-152.5 -241.5t-56.5 -295zM1702 844q0 160 -59 302t-164 247l-916 -1170q186 -137 418 -137q148 0 282 60t230 161.5t152.5 241.5t56.5 295z" />
    <glyph glyph-name="Ugrave" unicode="&#xd9;" horiz-adv-x="1544" 
d="M197 1690h122v-1061q0 -269 114 -405t339 -136t339 136t114 405v1061h123v-1084q0 -313 -148 -476t-428 -163t-427.5 162.5t-147.5 476.5v1084zM541 2019l71 99l269 -211l-47 -66z" />
    <glyph glyph-name="Uacute" unicode="&#xda;" horiz-adv-x="1544" 
d="M197 1690h122v-1061q0 -269 114 -405t339 -136t339 136t114 405v1061h123v-1084q0 -313 -148 -476t-428 -163t-427.5 162.5t-147.5 476.5v1084zM932 2120l72 -99l-293 -178l-47 66z" />
    <glyph glyph-name="Ucircumflex" unicode="&#xdb;" horiz-adv-x="1544" 
d="M197 1690h122v-1061q0 -269 114 -405t339 -136t339 136t114 405v1061h123v-1084q0 -313 -148 -476t-428 -163t-427.5 162.5t-147.5 476.5v1084zM408 1913l364 268l365 -268l-54 -72l-311 230l-313 -230z" />
    <glyph glyph-name="Udieresis" unicode="&#xdc;" horiz-adv-x="1544" 
d="M197 1690h122v-1061q0 -269 114 -405t339 -136t339 136t114 405v1061h123v-1084q0 -313 -148 -476t-428 -163t-427.5 162.5t-147.5 476.5v1084zM532 2148q32 0 55 -22.5t23 -54.5t-23 -55t-55 -23t-54.5 23t-22.5 55t22.5 54.5t54.5 22.5zM1012 2148q32 0 55 -22.5
t23 -54.5t-23 -55t-55 -23t-55 23t-23 55t23 54.5t55 22.5z" />
    <glyph glyph-name="Yacute" unicode="&#xdd;" horiz-adv-x="1249" 
d="M1112 1690h150l-576 -961v-729h-123v729l-575 961h149l488 -828zM764 2120l72 -99l-293 -178l-47 66z" />
    <glyph glyph-name="Thorn" unicode="&#xde;" horiz-adv-x="1873" 
d="M215 1690h123v-373h291q247 0 389.5 -126.5t142.5 -344.5q0 -219 -143.5 -354.5t-388.5 -135.5h-291v-356h-123v1690zM338 1217v-756h266q198 0 315 105t117 278t-116 273t-316 100h-266z" />
    <glyph glyph-name="germandbls" unicode="&#xdf;" horiz-adv-x="1308" 
d="M227 1335q0 192 133 324.5t322 132.5q193 0 326 -132t133 -321q0 -134 -72.5 -240.5t-191.5 -156.5q145 -54 235 -179t90 -286q0 -144 -72.5 -262.5t-191 -183t-256.5 -64.5h-184v113h178q105 0 197.5 51t149 144t56.5 206q0 173 -120.5 290.5t-303.5 117.5h-157v100h159
q156 0 262.5 99t106.5 251q0 145 -100 246t-244 101t-240 -105.5t-96 -261.5v-1319h-119v752h-135v104h135v479z" />
    <glyph glyph-name="agrave" unicode="&#xe0;" 
d="M135 524q0 242 148.5 399.5t373.5 157.5q147 0 264.5 -71.5t180.5 -196.5v236h119v-1049h-119v238q-64 -125 -181.5 -198t-263.5 -73q-225 0 -373.5 157.5t-148.5 399.5zM256 524q0 -198 120 -325t306 -127t306 127t120 325q0 199 -120.5 326t-305.5 127t-305.5 -127
t-120.5 -326zM467 1380l72 99l268 -211l-47 -66z" />
    <glyph glyph-name="aacute" unicode="&#xe1;" 
d="M135 524q0 242 148.5 399.5t373.5 157.5q147 0 264.5 -71.5t180.5 -196.5v236h119v-1049h-119v238q-64 -125 -181.5 -198t-263.5 -73q-225 0 -373.5 157.5t-148.5 399.5zM256 524q0 -198 120 -325t306 -127t306 127t120 325q0 199 -120.5 326t-305.5 127t-305.5 -127
t-120.5 -326zM817 1479l72 -99l-293 -178l-47 66z" />
    <glyph glyph-name="acircumflex" unicode="&#xe2;" 
d="M135 524q0 242 148.5 399.5t373.5 157.5q147 0 264.5 -71.5t180.5 -196.5v236h119v-1049h-119v238q-64 -125 -181.5 -198t-263.5 -73q-225 0 -373.5 157.5t-148.5 399.5zM256 524q0 -198 120 -325t306 -127t306 127t120 325q0 199 -120.5 326t-305.5 127t-305.5 -127
t-120.5 -326zM313 1274l365 268l364 -268l-53 -72l-311 230l-313 -230z" />
    <glyph glyph-name="atilde" unicode="&#xe3;" 
d="M135 524q0 242 148.5 399.5t373.5 157.5q147 0 264.5 -71.5t180.5 -196.5v236h119v-1049h-119v238q-64 -125 -181.5 -198t-263.5 -73q-225 0 -373.5 157.5t-148.5 399.5zM256 524q0 -198 120 -325t306 -127t306 127t120 325q0 199 -120.5 326t-305.5 127t-305.5 -127
t-120.5 -326zM172 1323q42 74 119.5 135.5t177.5 61.5q119 0 238 -93q92 -73 188 -73q128 0 221 159l68 -61q-42 -74 -119.5 -135.5t-177.5 -61.5q-119 0 -238 93q-92 73 -188 73q-128 0 -221 -159z" />
    <glyph glyph-name="adieresis" unicode="&#xe4;" 
d="M135 524q0 242 148.5 399.5t373.5 157.5q147 0 264.5 -71.5t180.5 -196.5v236h119v-1049h-119v238q-64 -125 -181.5 -198t-263.5 -73q-225 0 -373.5 157.5t-148.5 399.5zM256 524q0 -198 120 -325t306 -127t306 127t120 325q0 199 -120.5 326t-305.5 127t-305.5 -127
t-120.5 -326zM438 1509q32 0 55 -22.5t23 -54.5t-23 -55t-55 -23t-55 23t-23 55t23 54.5t55 22.5zM918 1509q32 0 54.5 -22.5t22.5 -54.5t-22.5 -55t-54.5 -23t-55 23t-23 55t23 54.5t55 22.5z" />
    <glyph glyph-name="aring" unicode="&#xe5;" 
d="M135 524q0 242 148.5 399.5t373.5 157.5q147 0 264.5 -71.5t180.5 -196.5v236h119v-1049h-119v238q-64 -125 -181.5 -198t-263.5 -73q-225 0 -373.5 157.5t-148.5 399.5zM256 524q0 -198 120 -325t306 -127t306 127t120 325q0 199 -120.5 326t-305.5 127t-305.5 -127
t-120.5 -326zM453 1499q0 89 62 144t163 55t163 -55t62 -144t-62 -144t-163 -55t-163 55t-62 144zM537 1499q0 -55 39.5 -90t101.5 -35t101.5 35t39.5 90t-39.5 90t-101.5 35t-101.5 -35t-39.5 -90z" />
    <glyph glyph-name="ae" unicode="&#xe6;" horiz-adv-x="2103" 
d="M135 301q0 150 116 246t294 96q116 0 207.5 -39t142.5 -104v133q0 165 -89.5 257.5t-248.5 92.5q-192 0 -301 -133l-55 76q64 74 148 114.5t208 40.5q163 0 274 -69t156 -195q69 121 187.5 192.5t263.5 71.5q149 0 273 -71.5t196.5 -199.5t72.5 -284v-12h-972
q0 -196 129 -319t321 -123q263 0 395 198l89 -49q-76 -122 -203 -188t-285 -66q-166 0 -276 61t-197 183q-50 -119 -171.5 -181.5t-262.5 -62.5q-176 0 -294 93.5t-118 240.5zM250 309q0 -113 95 -184.5t233 -71.5q136 0 230.5 72t94.5 184t-94 182t-231 70
q-139 0 -233.5 -69.5t-94.5 -182.5zM1012 596h852q-17 169 -137 275t-287 106q-171 0 -292 -107t-136 -274z" />
    <glyph glyph-name="ccedilla" unicode="&#xe7;" horiz-adv-x="1175" 
d="M498 -260l77 237q-198 36 -325 186t-127 361q0 159 75 287t204 199t284 71q111 0 205 -33t156 -85l-58 -84q-115 100 -293 100q-196 0 -325 -129t-129 -326q0 -196 129 -325t325 -129q178 0 293 100l58 -84q-63 -52 -156.5 -85.5t-204.5 -33.5q-25 0 -37 2l-45 -137
q50 8 80 8q92 -3 152.5 -63t60.5 -154q0 -97 -71 -161t-189 -64q-96 0 -169.5 45t-105.5 108l66 41q26 -49 82 -81.5t127 -32.5q72 0 124 38t52 107q0 67 -44.5 109.5t-111.5 42.5q-89 0 -151 -41z" />
    <glyph glyph-name="egrave" unicode="&#xe8;" horiz-adv-x="1335" 
d="M123 524q0 114 43.5 217t117 177.5t174.5 118.5t212 44q149 0 273 -71.5t196.5 -199.5t72.5 -284v-12h-972q0 -196 129 -319t321 -123q263 0 395 198l89 -49q-76 -122 -203 -188t-285 -66q-157 0 -285.5 71t-203 199t-74.5 287zM244 596h852q-17 169 -137 275t-287 106
q-171 0 -292 -107t-136 -274zM457 1380l71 99l269 -211l-47 -66z" />
    <glyph glyph-name="eacute" unicode="&#xe9;" horiz-adv-x="1335" 
d="M123 524q0 114 43.5 217t117 177.5t174.5 118.5t212 44q149 0 273 -71.5t196.5 -199.5t72.5 -284v-12h-972q0 -196 129 -319t321 -123q263 0 395 198l89 -49q-76 -122 -203 -188t-285 -66q-157 0 -285.5 71t-203 199t-74.5 287zM244 596h852q-17 169 -137 275t-287 106
q-171 0 -292 -107t-136 -274zM807 1479l72 -99l-293 -178l-47 66z" />
    <glyph glyph-name="ecircumflex" unicode="&#xea;" horiz-adv-x="1335" 
d="M123 524q0 114 43.5 217t117 177.5t174.5 118.5t212 44q149 0 273 -71.5t196.5 -199.5t72.5 -284v-12h-972q0 -196 129 -319t321 -123q263 0 395 198l89 -49q-76 -122 -203 -188t-285 -66q-157 0 -285.5 71t-203 199t-74.5 287zM244 596h852q-17 169 -137 275t-287 106
q-171 0 -292 -107t-136 -274zM303 1274l365 268l364 -268l-53 -72l-311 230l-314 -230z" />
    <glyph glyph-name="edieresis" unicode="&#xeb;" horiz-adv-x="1335" 
d="M123 524q0 114 43.5 217t117 177.5t174.5 118.5t212 44q149 0 273 -71.5t196.5 -199.5t72.5 -284v-12h-972q0 -196 129 -319t321 -123q263 0 395 198l89 -49q-76 -122 -203 -188t-285 -66q-157 0 -285.5 71t-203 199t-74.5 287zM244 596h852q-17 169 -137 275t-287 106
q-171 0 -292 -107t-136 -274zM428 1399q32 0 55 -23t23 -55t-23 -55t-55 -23t-55 23t-23 55t23 55t55 23zM907 1399q32 0 55 -23t23 -55t-23 -55t-55 -23t-55 23t-23 55t23 55t55 23z" />
    <glyph glyph-name="igrave" unicode="&#xec;" horiz-adv-x="546" 
d="M221 1049h119v-1049h-119v1049zM-12 1380l71 99l269 -211l-47 -66z" />
    <glyph glyph-name="iacute" unicode="&#xed;" horiz-adv-x="546" 
d="M221 1049h119v-1049h-119v1049zM502 1479l71 -99l-292 -178l-48 66z" />
    <glyph glyph-name="icircumflex" unicode="&#xee;" horiz-adv-x="546" 
d="M221 1049h119v-1049h-119v1049zM-84 1274l365 268l364 -268l-53 -72l-311 230l-314 -230z" />
    <glyph glyph-name="idieresis" unicode="&#xef;" horiz-adv-x="546" 
d="M221 1049h119v-1049h-119v1049zM41 1409q32 0 55 -23t23 -55t-23 -55t-55 -23t-55 23t-23 55t23 55t55 23zM520 1409q32 0 55 -23t23 -55t-23 -55t-55 -23t-55 23t-23 55t23 55t55 23z" />
    <glyph glyph-name="eth" unicode="&#xf0;" horiz-adv-x="1423" 
d="M129 524q0 162 76.5 290.5t202.5 197.5t276 69q131 0 245 -57.5t181 -159.5q-80 412 -365 639l-159 -160l-66 66l148 145q-124 82 -267 134l33 104q182 -68 316 -156l155 156l64 -66l-144 -141q218 -175 336.5 -444t118.5 -617q0 -161 -75 -289t-206 -198t-294 -70
q-249 0 -412.5 156.5t-163.5 400.5zM250 524q0 -197 128.5 -324.5t326.5 -127.5q197 0 325.5 128t128.5 324q0 198 -128.5 325.5t-325.5 127.5t-326 -128t-129 -325z" />
    <glyph glyph-name="ntilde" unicode="&#xf1;" horiz-adv-x="1257" 
d="M207 1049h119v-148q43 88 137.5 134t191.5 46q201 0 306.5 -111t105.5 -306v-664h-117v629q0 170 -78 262t-235 92q-92 0 -165 -43.5t-109.5 -109t-36.5 -136.5v-694h-119v1049zM135 1321q42 74 119.5 135.5t177.5 61.5q119 0 238 -93q92 -73 188 -73q128 0 221 159
l68 -61q-42 -74 -119.5 -135.5t-177.5 -61.5q-119 0 -238 93q-92 73 -188 73q-128 0 -221 -159z" />
    <glyph glyph-name="ograve" unicode="&#xf2;" horiz-adv-x="1394" 
d="M123 524q0 162 75.5 290t206 197.5t291.5 69.5t292 -69.5t207.5 -197.5t76.5 -290q0 -161 -75.5 -289t-206.5 -198t-294 -70t-294 70.5t-205 198t-74 288.5zM242 524q0 -197 128 -324.5t326 -127.5q197 0 327 128t130 324q0 197 -130 325t-327 128t-325.5 -127.5
t-128.5 -325.5zM485 1380l72 99l268 -211l-47 -66z" />
    <glyph glyph-name="oacute" unicode="&#xf3;" horiz-adv-x="1394" 
d="M123 524q0 162 75.5 290t206 197.5t291.5 69.5t292 -69.5t207.5 -197.5t76.5 -290q0 -161 -75.5 -289t-206.5 -198t-294 -70t-294 70.5t-205 198t-74 288.5zM242 524q0 -197 128 -324.5t326 -127.5q197 0 327 128t130 324q0 197 -130 325t-327 128t-325.5 -127.5
t-128.5 -325.5zM836 1479l71 -99l-293 -178l-47 66z" />
    <glyph glyph-name="ocircumflex" unicode="&#xf4;" horiz-adv-x="1394" 
d="M123 524q0 162 75.5 290t206 197.5t291.5 69.5t292 -69.5t207.5 -197.5t76.5 -290q0 -161 -75.5 -289t-206.5 -198t-294 -70t-294 70.5t-205 198t-74 288.5zM242 524q0 -197 128 -324.5t326 -127.5q197 0 327 128t130 324q0 197 -130 325t-327 128t-325.5 -127.5
t-128.5 -325.5zM332 1274l364 268l365 -268l-53 -72l-312 230l-313 -230z" />
    <glyph glyph-name="otilde" unicode="&#xf5;" horiz-adv-x="1394" 
d="M123 524q0 162 75.5 290t206 197.5t291.5 69.5t292 -69.5t207.5 -197.5t76.5 -290q0 -161 -75.5 -289t-206.5 -198t-294 -70t-294 70.5t-205 198t-74 288.5zM242 524q0 -197 128 -324.5t326 -127.5q197 0 327 128t130 324q0 197 -130 325t-327 128t-325.5 -127.5
t-128.5 -325.5zM190 1311q42 74 119.5 135t177.5 61q120 0 238 -92q93 -74 188 -74q128 0 222 160l67 -61q-42 -74 -119.5 -135.5t-177.5 -61.5q-119 0 -237 92q-93 74 -189 74q-127 0 -221 -160z" />
    <glyph glyph-name="odieresis" unicode="&#xf6;" horiz-adv-x="1394" 
d="M123 524q0 162 75.5 290t206 197.5t291.5 69.5t292 -69.5t207.5 -197.5t76.5 -290q0 -161 -75.5 -289t-206.5 -198t-294 -70t-294 70.5t-205 198t-74 288.5zM242 524q0 -197 128 -324.5t326 -127.5q197 0 327 128t130 324q0 197 -130 325t-327 128t-325.5 -127.5
t-128.5 -325.5zM457 1509q32 0 55 -22.5t23 -54.5t-23 -55t-55 -23t-55 23t-23 55t23 54.5t55 22.5zM936 1509q32 0 55 -22.5t23 -54.5t-23 -55t-55 -23t-55 23t-23 55t23 54.5t55 22.5z" />
    <glyph glyph-name="divide" unicode="&#xf7;" horiz-adv-x="1351" 
d="M676 1427q31 0 52.5 -21t21.5 -52t-21.5 -52.5t-52.5 -21.5t-52.5 21.5t-21.5 52.5t21.5 52t52.5 21zM152 901h1048v-102h-1048v102zM676 420q31 0 52.5 -21.5t21.5 -52.5t-21.5 -52.5t-52.5 -21.5t-52.5 21.5t-21.5 52.5t21.5 52.5t52.5 21.5z" />
    <glyph glyph-name="oslash" unicode="&#xf8;" horiz-adv-x="1394" 
d="M1272 524q0 -162 -76 -290t-206.5 -197.5t-291.5 -69.5q-125 0 -233.5 43.5t-185.5 122.5l-201 -162l-49 58l200 161q-104 142 -104 334q0 162 75.5 290t206 197.5t291.5 69.5q124 0 233.5 -44.5t188.5 -125.5l203 166l47 -57l-203 -164q105 -143 105 -332zM244 524
q0 -150 75 -260l713 578q-132 135 -334 135q-197 0 -325.5 -127.5t-128.5 -325.5zM1153 524q0 146 -76 258l-710 -577q127 -133 331 -133q197 0 326 127.5t129 324.5z" />
    <glyph glyph-name="ugrave" unicode="&#xf9;" horiz-adv-x="1232" 
d="M190 1049h119v-600q0 -113 20.5 -189t62.5 -117t95 -57t129 -16t129 16t95.5 57t63 117t20.5 189v600h118v-619q0 -251 -103.5 -357t-322.5 -106t-322.5 106t-103.5 357v619zM406 1380l71 99l268 -211l-47 -66z" />
    <glyph glyph-name="uacute" unicode="&#xfa;" horiz-adv-x="1232" 
d="M190 1049h119v-600q0 -113 20.5 -189t62.5 -117t95 -57t129 -16t129 16t95.5 57t63 117t20.5 189v600h118v-619q0 -251 -103.5 -357t-322.5 -106t-322.5 106t-103.5 357v619zM756 1479l71 -99l-292 -178l-48 66z" />
    <glyph glyph-name="ucircumflex" unicode="&#xfb;" horiz-adv-x="1232" 
d="M190 1049h119v-600q0 -113 20.5 -189t62.5 -117t95 -57t129 -16t129 16t95.5 57t63 117t20.5 189v600h118v-619q0 -251 -103.5 -357t-322.5 -106t-322.5 106t-103.5 357v619zM252 1274l364 268l365 -268l-53 -72l-312 230l-313 -230z" />
    <glyph glyph-name="udieresis" unicode="&#xfc;" horiz-adv-x="1232" 
d="M190 1049h119v-600q0 -113 20.5 -189t62.5 -117t95 -57t129 -16t129 16t95.5 57t63 117t20.5 189v600h118v-619q0 -251 -103.5 -357t-322.5 -106t-322.5 106t-103.5 357v619zM377 1399q32 0 55 -23t23 -55t-23 -55t-55 -23t-55 23t-23 55t23 55t55 23zM856 1399
q32 0 55 -23t23 -55t-23 -55t-55 -23t-55 23t-23 55t23 55t55 23z" />
    <glyph glyph-name="yacute" unicode="&#xfd;" horiz-adv-x="1095" 
d="M0 1049h135l432 -918l394 918h135l-707 -1581h-133l244 538zM686 1479l72 -99l-293 -178l-47 66z" />
    <glyph glyph-name="thorn" unicode="&#xfe;" horiz-adv-x="1417" 
d="M1290 524q0 -242 -148.5 -399.5t-373.5 -157.5q-146 0 -263 73t-181 198v-770h-119v2293h119v-948q63 125 180 196.5t264 71.5q225 0 373.5 -157.5t148.5 -399.5zM1169 524q0 199 -120.5 326t-305.5 127t-305.5 -127t-120.5 -326q0 -198 120 -325t306 -127t306 127
t120 325z" />
    <glyph glyph-name="ydieresis" unicode="&#xff;" horiz-adv-x="1095" 
d="M0 1049h135l432 -918l394 918h135l-707 -1581h-133l244 538zM328 1399q32 0 55 -23t23 -55t-23 -55t-55 -23t-55 23t-23 55t23 55t55 23zM807 1399q32 0 55 -23t23 -55t-23 -55t-55 -23t-55 23t-23 55t23 55t55 23z" />
    <glyph glyph-name="Amacron" unicode="&#x100;" horiz-adv-x="1417" 
d="M651 1690h115l664 -1690h-134l-217 567h-741l-217 -567h-133zM379 676h659l-329 854zM291 2025h835v-88h-835v88z" />
    <glyph glyph-name="amacron" unicode="&#x101;" 
d="M135 524q0 242 148.5 399.5t373.5 157.5q147 0 264.5 -71.5t180.5 -196.5v236h119v-1049h-119v238q-64 -125 -181.5 -198t-263.5 -73q-225 0 -373.5 157.5t-148.5 399.5zM256 524q0 -198 120 -325t306 -127t306 127t120 325q0 199 -120.5 326t-305.5 127t-305.5 -127
t-120.5 -326zM260 1386h836v-88h-836v88z" />
    <glyph glyph-name="Abreve" unicode="&#x102;" horiz-adv-x="1417" 
d="M651 1690h115l664 -1690h-134l-217 567h-741l-217 -567h-133zM379 676h659l-329 854zM1030 2271l92 -22q-29 -145 -142 -234.5t-271 -89.5t-271.5 89.5t-142.5 234.5l92 22q24 -106 109.5 -182t212.5 -76t212 76t109 182z" />
    <glyph glyph-name="abreve" unicode="&#x103;" 
d="M135 524q0 242 148.5 399.5t373.5 157.5q147 0 264.5 -71.5t180.5 -196.5v236h119v-1049h-119v238q-64 -125 -181.5 -198t-263.5 -73q-225 0 -373.5 157.5t-148.5 399.5zM256 524q0 -198 120 -325t306 -127t306 127t120 325q0 199 -120.5 326t-305.5 127t-305.5 -127
t-120.5 -326zM999 1565l93 -23q-29 -145 -142.5 -234t-271.5 -89t-271.5 89t-142.5 234l92 23q24 -106 109.5 -182t212.5 -76t212 76t109 182z" />
    <glyph glyph-name="Aogonek" unicode="&#x104;" horiz-adv-x="1417" 
d="M1145 -324q0 125 164 324h-13l-217 567h-741l-217 -567h-133l663 1690h115l664 -1690h-46q-155 -189 -155 -315q0 -77 50 -121.5t130 -44.5q119 0 217 106l57 -41q-4 -6 -11 -16t-33 -35t-56 -44.5t-78.5 -35.5t-101.5 -16q-116 0 -187 68t-71 171zM379 676h659l-329 854
z" />
    <glyph glyph-name="aogonek" unicode="&#x105;" 
d="M938 -324q0 125 164 324v238q-64 -125 -181.5 -198t-263.5 -73q-225 0 -373.5 157.5t-148.5 399.5t148.5 399.5t373.5 157.5q147 0 264.5 -71.5t180.5 -196.5v236h119v-1049h-43q-156 -190 -156 -315q0 -77 50 -121.5t130 -44.5q119 0 217 106l58 -41q-4 -6 -11.5 -16
t-33.5 -35t-56 -44.5t-78.5 -35.5t-101.5 -16q-116 0 -187 68t-71 171zM256 524q0 -198 120 -325t306 -127t306 127t120 325q0 199 -120.5 326t-305.5 127t-305.5 -127t-120.5 -326z" />
    <glyph glyph-name="Cacute" unicode="&#x106;" horiz-adv-x="1660" 
d="M131 844q0 243 114.5 443.5t317.5 316.5t453 116q314 0 547 -176l-62 -102q-87 70 -210.5 113.5t-264.5 43.5q-168 0 -312 -60t-242 -162t-153 -240.5t-55 -292.5q0 -207 93.5 -378.5t269 -274.5t399.5 -103q141 0 264.5 43.5t210.5 114.5l62 -103q-233 -176 -547 -176
q-187 0 -352 68.5t-281.5 185.5t-184 279t-67.5 344zM1006 2120l71 -99l-293 -178l-47 66z" />
    <glyph glyph-name="cacute" unicode="&#x107;" horiz-adv-x="1175" 
d="M123 524q0 159 75 287t204 199t284 71q111 0 205 -33t156 -85l-58 -84q-115 100 -293 100q-196 0 -325 -129t-129 -326q0 -196 129 -325t325 -129q178 0 293 100l58 -84q-63 -52 -156.5 -85.5t-204.5 -33.5q-155 0 -284 71t-204 199t-75 287zM723 1479l72 -99l-293 -178
l-47 66z" />
    <glyph glyph-name="Ccaron" unicode="&#x10c;" horiz-adv-x="1660" 
d="M131 844q0 243 114.5 443.5t317.5 316.5t453 116q314 0 547 -176l-62 -102q-87 70 -210.5 113.5t-264.5 43.5q-168 0 -312 -60t-242 -162t-153 -240.5t-55 -292.5q0 -207 93.5 -378.5t269 -274.5t399.5 -103q141 0 264.5 43.5t210.5 114.5l62 -103q-233 -176 -547 -176
q-187 0 -352 68.5t-281.5 185.5t-184 279t-67.5 344zM590 2109l51 72l313 -229l312 229l53 -72l-365 -268z" />
    <glyph glyph-name="ccaron" unicode="&#x10d;" horiz-adv-x="1175" 
d="M123 524q0 159 75 287t204 199t284 71q111 0 205 -33t156 -85l-58 -84q-115 100 -293 100q-196 0 -325 -129t-129 -326q0 -196 129 -325t325 -129q178 0 293 100l58 -84q-63 -52 -156.5 -85.5t-204.5 -33.5q-155 0 -284 71t-204 199t-75 287zM260 1470l51 72l314 -229
l311 229l53 -72l-364 -268z" />
    <glyph glyph-name="Dcaron" unicode="&#x10e;" horiz-adv-x="1562" 
d="M215 1690h365q172 0 328 -63.5t271.5 -173.5t184 -268.5t68.5 -338.5q0 -181 -68 -340t-183.5 -269t-271.5 -173.5t-329 -63.5h-365v1690zM338 1579v-1468h233q198 0 366 93.5t268 263t100 378.5q0 156 -59 293t-158.5 233t-234 151.5t-282.5 55.5h-233zM362 2109l52 72
l313 -229l311 229l54 -72l-365 -268z" />
    <glyph glyph-name="dcaron" unicode="&#x10f;" 
d="M135 524q0 242 148.5 399.5t373.5 157.5q147 0 264.5 -71.5t180.5 -196.5v948h119v-1761h-119v238q-64 -125 -181.5 -198t-263.5 -73q-225 0 -373.5 157.5t-148.5 399.5zM256 524q0 -198 120 -325t306 -127t306 127t120 325q0 199 -120.5 326t-305.5 127t-305.5 -127
t-120.5 -326zM1454 1690q32 0 55 -22.5t23 -53.5q0 -82 -32.5 -148t-82.5 -108l-24 20q48 70 53 164q-28 2 -47 22.5t-19 49.5q0 31 21.5 53.5t52.5 22.5z" />
    <glyph glyph-name="Dcroat" unicode="&#x110;" horiz-adv-x="1562" 
d="M47 795v100h168v795h365q172 0 328 -63.5t271.5 -173.5t184 -268.5t68.5 -338.5q0 -181 -68 -340t-183.5 -269t-271.5 -173.5t-329 -63.5h-365v795h-168zM338 1579v-684h485v-100h-485v-684h233q198 0 366 93.5t268 263t100 378.5q0 156 -59 293t-158.5 233t-234 151.5
t-282.5 55.5h-233z" />
    <glyph glyph-name="dcroat" unicode="&#x111;" 
d="M668 1362v84h434v315h119v-315h188v-84h-188v-1362h-119v238q-64 -125 -181.5 -198t-263.5 -73q-225 0 -373.5 157.5t-148.5 399.5t148.5 399.5t373.5 157.5q147 0 264.5 -71.5t180.5 -196.5v549h-434zM256 524q0 -198 120 -325t306 -127t306 127t120 325
q0 199 -120.5 326t-305.5 127t-305.5 -127t-120.5 -326z" />
    <glyph glyph-name="Emacron" unicode="&#x112;" horiz-adv-x="1191" 
d="M215 1690h836v-109h-713v-680h688v-108h-688v-684h713v-109h-836v1690zM215 2023h836v-88h-836v88z" />
    <glyph glyph-name="emacron" unicode="&#x113;" horiz-adv-x="1335" 
d="M123 524q0 114 43.5 217t117 177.5t174.5 118.5t212 44q149 0 273 -71.5t196.5 -199.5t72.5 -284v-12h-972q0 -196 129 -319t321 -123q263 0 395 198l89 -49q-76 -122 -203 -188t-285 -66q-157 0 -285.5 71t-203 199t-74.5 287zM244 596h852q-17 169 -137 275t-287 106
q-171 0 -292 -107t-136 -274zM250 1386h835v-88h-835v88z" />
    <glyph glyph-name="Edotaccent" unicode="&#x116;" horiz-adv-x="1191" 
d="M215 1690h836v-109h-713v-680h688v-108h-688v-684h713v-109h-836v1690zM633 2038q31 0 53.5 -23t22.5 -55t-22.5 -55t-53.5 -23t-53.5 23t-22.5 55t22.5 55t53.5 23z" />
    <glyph glyph-name="edotaccent" unicode="&#x117;" horiz-adv-x="1335" 
d="M123 524q0 114 43.5 217t117 177.5t174.5 118.5t212 44q149 0 273 -71.5t196.5 -199.5t72.5 -284v-12h-972q0 -196 129 -319t321 -123q263 0 395 198l89 -49q-76 -122 -203 -188t-285 -66q-157 0 -285.5 71t-203 199t-74.5 287zM244 596h852q-17 169 -137 275t-287 106
q-171 0 -292 -107t-136 -274zM668 1399q31 0 53 -23t22 -55t-22 -55t-53 -23t-53.5 23t-22.5 55t22.5 55t53.5 23z" />
    <glyph glyph-name="Eogonek" unicode="&#x118;" horiz-adv-x="1191" 
d="M565 -324q0 125 164 324h-514v1690h836v-109h-713v-680h688v-108h-688v-684h713v-109h-246q-156 -190 -156 -315q0 -77 50 -121.5t130 -44.5q120 0 218 106l57 -41q-4 -6 -11.5 -16t-33.5 -35t-56 -44.5t-78.5 -35.5t-101.5 -16q-116 0 -187 68t-71 171z" />
    <glyph glyph-name="eogonek" unicode="&#x119;" horiz-adv-x="1335" 
d="M569 -324q0 115 138 291h-21q-157 0 -285.5 71t-203 199t-74.5 287q0 114 43.5 217t117 177.5t174.5 118.5t212 44q149 0 273 -71.5t196.5 -199.5t72.5 -284v-12h-972q0 -196 129 -319t321 -123q263 0 395 198l89 -49q-130 -207 -386 -246q-135 -174 -135 -290
q0 -76 50.5 -121t130.5 -45q119 0 217 106l57 -41q-4 -6 -11.5 -16t-33.5 -35t-56 -44.5t-78.5 -35.5t-101.5 -16q-116 0 -187 68t-71 171zM244 596h852q-17 169 -137 275t-287 106q-171 0 -292 -107t-136 -274z" />
    <glyph glyph-name="Ecaron" unicode="&#x11a;" horiz-adv-x="1191" 
d="M215 1690h836v-109h-713v-680h688v-108h-688v-684h713v-109h-836v1690zM268 2109l51 72l314 -229l311 229l53 -72l-364 -268z" />
    <glyph glyph-name="ecaron" unicode="&#x11b;" horiz-adv-x="1335" 
d="M123 524q0 114 43.5 217t117 177.5t174.5 118.5t212 44q149 0 273 -71.5t196.5 -199.5t72.5 -284v-12h-972q0 -196 129 -319t321 -123q263 0 395 198l89 -49q-76 -122 -203 -188t-285 -66q-157 0 -285.5 71t-203 199t-74.5 287zM244 596h852q-17 169 -137 275t-287 106
q-171 0 -292 -107t-136 -274zM303 1470l51 72l314 -229l311 229l53 -72l-364 -268z" />
    <glyph glyph-name="Gcommaaccent" unicode="&#x122;" horiz-adv-x="1857" 
d="M954 -82q32 0 55 -22.5t23 -53.5q0 -82 -32 -148t-82 -108l-25 21q48 70 53 164q-28 2 -46.5 22t-18.5 49q0 31 21.5 53.5t51.5 22.5zM131 842q0 180 62.5 342t170.5 280t261.5 187t328.5 69q416 0 654 -288l-82 -89q-210 267 -568 267q-147 0 -278.5 -60.5
t-225.5 -163.5t-149 -245t-55 -299q0 -154 57 -295.5t152.5 -243.5t226 -162.5t272.5 -60.5q125 0 242.5 41.5t208.5 114.5t146 183t55 238v64h-656v102h783v-129q0 -165 -63 -303.5t-170.5 -230t-249.5 -142.5t-300 -51q-168 0 -320 69.5t-262.5 186.5t-175.5 279t-65 340z
" />
    <glyph glyph-name="gcommaaccent" unicode="&#x123;" horiz-adv-x="1437" 
d="M145 524q0 242 149 399.5t374 157.5q147 0 264 -71.5t180 -196.5v236h119v-1078q0 -254 -147 -394t-416 -140q-196 0 -331.5 80t-201.5 225l103 45q48 -109 162 -179.5t268 -70.5q204 0 324 116.5t120 307.5v277q-64 -125 -181 -198t-263 -73q-225 0 -374 157.5
t-149 399.5zM266 524q0 -198 120 -325t306 -127t306 127t120 325q0 199 -120.5 326t-305.5 127t-305.5 -127t-120.5 -326zM690 1243q-32 0 -55 22.5t-23 53.5q0 82 32.5 148t82.5 108l25 -21q-49 -72 -54 -163q28 -2 47 -22.5t19 -49.5q0 -31 -21.5 -53.5t-52.5 -22.5z" />
    <glyph glyph-name="Imacron" unicode="&#x12a;" horiz-adv-x="552" 
d="M215 1690h123v-1690h-123v1690zM-141 2025h835v-88h-835v88z" />
    <glyph glyph-name="imacron" unicode="&#x12b;" horiz-adv-x="546" 
d="M221 1049h119v-1049h-119v1049zM-137 1386h835v-88h-835v88z" />
    <glyph glyph-name="Iogonek" unicode="&#x12e;" horiz-adv-x="552" 
d="M72 -324q0 125 164 324h-21v1690h123v-1690h-27q-155 -189 -155 -315q0 -77 50 -121.5t130 -44.5q119 0 217 106l57 -41q-4 -6 -11 -16t-33 -35t-56 -44.5t-78.5 -35.5t-101.5 -16q-116 0 -187 68t-71 171z" />
    <glyph glyph-name="iogonek" unicode="&#x12f;" horiz-adv-x="546" 
d="M80 -324q0 125 164 324h-23v1049h119v-1049h-21q-155 -189 -155 -315q0 -77 50 -121.5t130 -44.5q119 0 217 106l57 -41q-4 -6 -11 -16t-33 -35t-56 -44.5t-78.5 -35.5t-101.5 -16q-116 0 -187 68t-71 171zM281 1427q35 0 60.5 -25.5t25.5 -60.5t-25.5 -60.5t-60.5 -25.5
t-60.5 25.5t-25.5 60.5t25.5 60.5t60.5 25.5z" />
    <glyph glyph-name="dotlessi" unicode="&#x131;" horiz-adv-x="546" 
d="M221 1049h119v-1049h-119v1049z" />
    <glyph glyph-name="Kcommaaccent" unicode="&#x136;" horiz-adv-x="1347" 
d="M696 -82q32 0 55 -22.5t23 -53.5q0 -82 -32.5 -148t-82.5 -108l-24 21q48 70 53 164q-28 2 -46.5 22t-18.5 49q0 31 21.5 53.5t51.5 22.5zM215 1690h123v-822l792 822h150l-786 -816l864 -874h-170l-778 786l-72 -73v-713h-123v1690z" />
    <glyph glyph-name="kcommaaccent" unicode="&#x137;" horiz-adv-x="956" 
d="M580 -82q32 0 54.5 -22.5t22.5 -53.5q0 -82 -32 -148t-82 -108l-25 21q48 70 53 164q-28 2 -46.5 22t-18.5 49q0 31 21.5 53.5t52.5 22.5zM207 1761h119v-1134l360 422h150l-344 -398l507 -651h-147l-436 563l-90 -102v-461h-119v1761z" />
    <glyph glyph-name="Lacute" unicode="&#x139;" horiz-adv-x="1130" 
d="M215 1690h123v-1581h725v-109h-848v1690zM498 2120l71 -99l-293 -178l-47 66z" />
    <glyph glyph-name="lacute" unicode="&#x13a;" horiz-adv-x="532" 
d="M207 1761h119v-1761h-119v1761zM487 2157l72 -99l-293 -178l-47 66z" />
    <glyph glyph-name="Lcommaaccent" unicode="&#x13b;" horiz-adv-x="1130" 
d="M215 1690h123v-1581h725v-109h-848v1690zM631 -82q32 0 55 -22.5t23 -53.5q0 -82 -32.5 -148t-82.5 -108l-25 21q49 72 54 164q-28 2 -47 22t-19 49q0 31 21.5 53.5t52.5 22.5z" />
    <glyph glyph-name="lcommaaccent" unicode="&#x13c;" horiz-adv-x="532" 
d="M207 1761h119v-1761h-119v1761zM264 -82q32 0 55 -22.5t23 -53.5q0 -82 -32.5 -148t-82.5 -108l-24 21q48 70 53 164q-28 2 -47 22t-19 49q0 31 21.5 53.5t52.5 22.5z" />
    <glyph glyph-name="Lcaron" unicode="&#x13d;" horiz-adv-x="1130" 
d="M215 1690h123v-1581h725v-109h-848v1690zM885 1690q32 0 55 -22.5t23 -53.5q0 -82 -32.5 -148t-82.5 -108l-25 20q49 72 54 164q-28 2 -47 22.5t-19 49.5q0 31 21.5 53.5t52.5 22.5z" />
    <glyph glyph-name="lcaron" unicode="&#x13e;" horiz-adv-x="532" 
d="M207 1761h119v-1761h-119v1761zM541 1690q32 0 54.5 -22.5t22.5 -53.5q0 -82 -32 -148t-82 -108l-25 20q48 70 53 164q-28 2 -46.5 22.5t-18.5 49.5q0 31 21.5 53.5t52.5 22.5z" />
    <glyph glyph-name="Lslash" unicode="&#x141;" horiz-adv-x="1130" 
d="M215 1690h123v-760l219 174v-100l-219 -175v-720h725v-109h-848v733l-168 -131v100l168 132v856z" />
    <glyph glyph-name="lslash" unicode="&#x142;" horiz-adv-x="532" 
d="M207 1761h119v-719l188 150v-100l-188 -150v-942h-119v850l-189 -148v101l189 147v811z" />
    <glyph glyph-name="Nacute" unicode="&#x143;" horiz-adv-x="1617" 
d="M215 1690h123l942 -1479v1479h123v-1690h-123l-942 1477v-1477h-123v1690zM907 2120l72 -99l-293 -178l-47 66z" />
    <glyph glyph-name="nacute" unicode="&#x144;" horiz-adv-x="1257" 
d="M207 1049h119v-148q43 88 137.5 134t191.5 46q201 0 306.5 -111t105.5 -306v-664h-117v629q0 170 -78 262t-235 92q-92 0 -165 -43.5t-109.5 -109t-36.5 -136.5v-694h-119v1049zM754 1479l71 -99l-293 -178l-47 66z" />
    <glyph glyph-name="Ncommaaccent" unicode="&#x145;" horiz-adv-x="1617" 
d="M215 1690h123l942 -1479v1479h123v-1690h-123l-942 1477v-1477h-123v1690zM807 -82q32 0 55 -22.5t23 -53.5q0 -82 -32.5 -148t-82.5 -108l-25 21q49 72 54 164q-28 2 -47 22t-19 49q0 31 21.5 53.5t52.5 22.5z" />
    <glyph glyph-name="ncommaaccent" unicode="&#x146;" horiz-adv-x="1257" 
d="M207 1049h119v-148q43 88 137.5 134t191.5 46q201 0 306.5 -111t105.5 -306v-664h-117v629q0 170 -78 262t-235 92q-92 0 -165 -43.5t-109.5 -109t-36.5 -136.5v-694h-119v1049zM635 -82q32 0 55 -22.5t23 -53.5q0 -82 -32.5 -148t-82.5 -108l-25 21q49 72 54 164
q-28 2 -47 22t-19 49q0 31 21.5 53.5t52.5 22.5z" />
    <glyph glyph-name="Ncaron" unicode="&#x147;" horiz-adv-x="1617" 
d="M215 1690h123l942 -1479v1479h123v-1690h-123l-942 1477v-1477h-123v1690zM444 2109l52 72l313 -229l311 229l54 -72l-365 -268z" />
    <glyph glyph-name="ncaron" unicode="&#x148;" horiz-adv-x="1257" 
d="M207 1049h119v-148q43 88 137.5 134t191.5 46q201 0 306.5 -111t105.5 -306v-664h-117v629q0 170 -78 262t-235 92q-92 0 -165 -43.5t-109.5 -109t-36.5 -136.5v-694h-119v1049zM272 1470l52 72l313 -229l311 229l53 -72l-364 -268z" />
    <glyph glyph-name="Omacron" unicode="&#x14c;" horiz-adv-x="1966" 
d="M131 844q0 182 68 345.5t183 279t272 183.5t329 68t329 -68t272 -183.5t183 -279t68 -345.5t-68 -345.5t-183 -279.5t-272 -184t-329 -68t-329 68t-272 184t-183 279.5t-68 345.5zM262 844q0 -155 56.5 -295t152.5 -241.5t230 -161.5t282 -60t282 60t230 161.5
t152.5 241.5t56.5 295t-56.5 295t-152.5 241.5t-230 161.5t-282 60t-282 -60t-230 -161.5t-152.5 -241.5t-56.5 -295zM565 2025h836v-88h-836v88z" />
    <glyph glyph-name="omacron" unicode="&#x14d;" horiz-adv-x="1394" 
d="M123 524q0 162 75.5 290t206 197.5t291.5 69.5t292 -69.5t207.5 -197.5t76.5 -290q0 -161 -75.5 -289t-206.5 -198t-294 -70t-294 70.5t-205 198t-74 288.5zM242 524q0 -197 128 -324.5t326 -127.5q197 0 327 128t130 324q0 197 -130 325t-327 128t-325.5 -127.5
t-128.5 -325.5zM279 1386h835v-88h-835v88z" />
    <glyph glyph-name="Ohungarumlaut" unicode="&#x150;" horiz-adv-x="1966" 
d="M131 844q0 182 68 345.5t183 279t272 183.5t329 68t329 -68t272 -183.5t183 -279t68 -345.5t-68 -345.5t-183 -279.5t-272 -184t-329 -68t-329 68t-272 184t-183 279.5t-68 345.5zM262 844q0 -155 56.5 -295t152.5 -241.5t230 -161.5t282 -60t282 60t230 161.5
t152.5 241.5t56.5 295t-56.5 295t-152.5 241.5t-230 161.5t-282 60t-282 -60t-230 -161.5t-152.5 -241.5t-56.5 -295zM977 2126l72 -98l-293 -179l-47 66zM1309 2126l71 -98l-293 -179l-47 66z" />
    <glyph glyph-name="ohungarumlaut" unicode="&#x151;" horiz-adv-x="1394" 
d="M123 524q0 162 75.5 290t206 197.5t291.5 69.5t292 -69.5t207.5 -197.5t76.5 -290q0 -161 -75.5 -289t-206.5 -198t-294 -70t-294 70.5t-205 198t-74 288.5zM242 524q0 -197 128 -324.5t326 -127.5q197 0 327 128t130 324q0 197 -130 325t-327 128t-325.5 -127.5
t-128.5 -325.5zM670 1479l71 -99l-292 -178l-48 66zM1001 1479l72 -99l-293 -178l-47 66z" />
    <glyph glyph-name="OE" unicode="&#x152;" horiz-adv-x="1953" 
d="M125 844q0 175 68 332.5t183 270t272 178t329 65.5h835v-109h-712v-680h688v-108h-688v-684h712v-109h-835q-172 0 -329 65.5t-272 177t-183 269t-68 332.5zM977 115v1460q-198 0 -364 -97.5t-261.5 -265.5t-95.5 -368t95.5 -367.5t261.5 -264.5t364 -97z" />
    <glyph glyph-name="oe" unicode="&#x153;" horiz-adv-x="2355" 
d="M123 524q0 162 75.5 290t206 197.5t291.5 69.5q168 0 304.5 -78.5t207.5 -214.5q70 133 199 213t283 80q149 0 273 -71.5t196.5 -199.5t72.5 -284v-12h-972q0 -196 129 -319t321 -123q263 0 395 198l88 -49q-76 -123 -203 -188.5t-284 -65.5q-164 0 -297.5 77.5
t-202.5 211.5q-71 -135 -206 -212t-304 -77q-163 0 -294 70.5t-205 198t-74 288.5zM242 524q0 -197 128 -324.5t326 -127.5q197 0 327 128t130 324q0 197 -130 325t-327 128t-325.5 -127.5t-128.5 -325.5zM1264 596h852q-17 169 -137 275t-287 106q-171 0 -292 -107
t-136 -274z" />
    <glyph glyph-name="Racute" unicode="&#x154;" horiz-adv-x="1308" 
d="M725 2097l72 -98l-293 -178l-47 65zM215 1690h414q247 0 389.5 -126.5t142.5 -344.5q0 -203 -125 -335t-344 -149l563 -735h-155l-551 729h-211v-729h-123v1690zM338 1589v-755h266q198 0 316 105t118 278t-117 272.5t-317 99.5h-266z" />
    <glyph glyph-name="racute" unicode="&#x155;" horiz-adv-x="800" 
d="M207 1049h119v-156q38 85 120 136.5t181 51.5q112 0 178 -32l-49 -101q-56 29 -150 29q-69 0 -125.5 -29.5t-88.5 -72.5t-49 -86t-17 -76v-713h-119v1049zM604 1479l72 -99l-293 -178l-47 66z" />
    <glyph glyph-name="Rcommaaccent" unicode="&#x156;" horiz-adv-x="1308" 
d="M709 -82q32 0 54.5 -22.5t22.5 -53.5q0 -82 -32 -148t-82 -108l-25 21q48 70 53 164q-28 2 -46.5 22t-18.5 49q0 31 21.5 53.5t52.5 22.5zM215 1690h414q247 0 389.5 -126.5t142.5 -344.5q0 -203 -125 -335t-344 -149l563 -735h-155l-551 729h-211v-729h-123v1690z
M338 1589v-755h266q198 0 316 105t118 278t-117 272.5t-317 99.5h-266z" />
    <glyph glyph-name="rcommaaccent" unicode="&#x157;" horiz-adv-x="800" 
d="M207 1049h119v-156q38 85 120 136.5t181 51.5q112 0 178 -32l-49 -101q-56 29 -150 29q-69 0 -125.5 -29.5t-88.5 -72.5t-49 -86t-17 -76v-713h-119v1049zM264 -82q32 0 55 -22.5t23 -53.5q0 -82 -32.5 -148t-82.5 -108l-24 21q48 70 53 164q-28 2 -47 22t-19 49
q0 31 21.5 53.5t52.5 22.5z" />
    <glyph glyph-name="Rcaron" unicode="&#x158;" horiz-adv-x="1308" 
d="M248 2109l51 72l313 -229l312 229l53 -72l-365 -268zM215 1690h414q247 0 389.5 -126.5t142.5 -344.5q0 -203 -125 -335t-344 -149l563 -735h-155l-551 729h-211v-729h-123v1690zM338 1589v-755h266q198 0 316 105t118 278t-117 272.5t-317 99.5h-266z" />
    <glyph glyph-name="rcaron" unicode="&#x159;" horiz-adv-x="800" 
d="M207 1049h119v-156q38 85 120 136.5t181 51.5q112 0 178 -32l-49 -101q-56 29 -150 29q-69 0 -125.5 -29.5t-88.5 -72.5t-49 -86t-17 -76v-713h-119v1049zM141 1470l52 72l313 -229l311 229l53 -72l-364 -268z" />
    <glyph glyph-name="Sacute" unicode="&#x15a;" horiz-adv-x="1325" 
d="M229 1272q0 129 62 232.5t166 159.5t229 56q94 0 173.5 -24t133.5 -64t89 -86t53 -96l-95 -41q-26 84 -119 141.5t-229 57.5q-66 0 -123 -19t-97 -52t-69 -75.5t-43 -90.5t-14 -97q0 -64 26 -115.5t75.5 -90t108 -66t136.5 -52.5q123 -40 211.5 -87t153 -108.5t96 -140
t31.5 -176.5q0 -222 -140 -346.5t-370 -124.5q-95 0 -177.5 23t-138.5 58.5t-101 84.5t-71 95t-43 96l105 45q14 -47 46.5 -94.5t83 -92t126.5 -72.5t164 -28q172 0 280.5 90t108.5 262q0 147 -105 240t-340 170q-383 129 -383 428zM825 2120l72 -99l-293 -178l-47 66z" />
    <glyph glyph-name="sacute" unicode="&#x15b;" horiz-adv-x="970" 
d="M524 1081q100 0 180.5 -56t104.5 -124l-90 -39q-26 53 -78 87t-117 34q-109 0 -165 -51t-56 -117q0 -69 56.5 -115t177.5 -84q49 -15 89 -31t86 -44t76.5 -61t51 -82.5t20.5 -108.5q0 -104 -52.5 -178.5t-135.5 -109t-187 -34.5q-138 0 -240.5 70.5t-142.5 181.5l95 57
q37 -92 113.5 -146t174.5 -54q124 0 194.5 58.5t70.5 152.5q0 87 -79 148.5t-206 99.5q-51 15 -93.5 35.5t-85 52.5t-67 80.5t-24.5 107.5q0 117 88 193.5t241 76.5zM643 1479l72 -99l-293 -178l-47 66z" />
    <glyph glyph-name="Scedilla" unicode="&#x15e;" horiz-adv-x="1325" 
d="M530 -260l74 231q-101 9 -183.5 45t-136.5 89t-88 107t-53 112l105 45q14 -47 46.5 -94.5t83 -92t126.5 -72.5t164 -28q172 0 280.5 90t108.5 262q0 147 -105 240t-340 170q-383 129 -383 428q0 129 62 232.5t166 159.5t229 56q94 0 173.5 -24t133.5 -64t89 -86t53 -96
l-95 -41q-26 84 -119 141.5t-229 57.5q-66 0 -123 -19t-97 -52t-69 -75.5t-43 -90.5t-14 -97q0 -64 26 -115.5t75.5 -90t108 -66t136.5 -52.5q123 -40 211.5 -87t153 -108.5t96 -140t31.5 -176.5q0 -220 -137 -344t-365 -127l-45 -135q50 8 80 8q92 -3 152.5 -63t60.5 -154
q0 -97 -71 -161t-189 -64q-96 0 -169.5 45t-105.5 108l66 41q26 -49 82 -81.5t127 -32.5q72 0 124 38t52 107q0 67 -44.5 109.5t-111.5 42.5q-89 0 -151 -41z" />
    <glyph glyph-name="scedilla" unicode="&#x15f;" horiz-adv-x="970" 
d="M354 -260l76 231q-119 13 -206 81t-122 167l95 57q37 -92 113.5 -146t174.5 -54q124 0 194.5 58.5t70.5 152.5q0 87 -79 148.5t-206 99.5q-51 15 -93.5 35.5t-85 52.5t-67 80.5t-24.5 107.5q0 117 88 193.5t241 76.5q100 0 180.5 -56t104.5 -124l-90 -39q-26 53 -78 87
t-117 34q-109 0 -165 -51t-56 -117q0 -69 56.5 -115t177.5 -84q49 -15 89 -31t86 -44t76.5 -61t51 -82.5t20.5 -108.5q0 -151 -100 -233.5t-254 -88.5l-45 -135q50 8 80 8q92 -3 152.5 -63t60.5 -154q0 -97 -71 -161t-189 -64q-96 0 -169.5 45t-105.5 108l66 41
q26 -49 82 -81.5t127 -32.5q72 0 124 38t52 107q0 67 -44.5 109.5t-111.5 42.5q-90 0 -152 -41z" />
    <glyph glyph-name="Scaron" unicode="&#x160;" horiz-adv-x="1325" 
d="M229 1272q0 129 62 232.5t166 159.5t229 56q94 0 173.5 -24t133.5 -64t89 -86t53 -96l-95 -41q-26 84 -119 141.5t-229 57.5q-66 0 -123 -19t-97 -52t-69 -75.5t-43 -90.5t-14 -97q0 -64 26 -115.5t75.5 -90t108 -66t136.5 -52.5q123 -40 211.5 -87t153 -108.5t96 -140
t31.5 -176.5q0 -222 -140 -346.5t-370 -124.5q-95 0 -177.5 23t-138.5 58.5t-101 84.5t-71 95t-43 96l105 45q14 -47 46.5 -94.5t83 -92t126.5 -72.5t164 -28q172 0 280.5 90t108.5 262q0 147 -105 240t-340 170q-383 129 -383 428zM322 2109l51 72l313 -229l311 229l54 -72
l-365 -268z" />
    <glyph glyph-name="scaron" unicode="&#x161;" horiz-adv-x="970" 
d="M524 1081q100 0 180.5 -56t104.5 -124l-90 -39q-26 53 -78 87t-117 34q-109 0 -165 -51t-56 -117q0 -69 56.5 -115t177.5 -84q49 -15 89 -31t86 -44t76.5 -61t51 -82.5t20.5 -108.5q0 -104 -52.5 -178.5t-135.5 -109t-187 -34.5q-138 0 -240.5 70.5t-142.5 181.5l95 57
q37 -92 113.5 -146t174.5 -54q124 0 194.5 58.5t70.5 152.5q0 87 -79 148.5t-206 99.5q-51 15 -93.5 35.5t-85 52.5t-67 80.5t-24.5 107.5q0 117 88 193.5t241 76.5zM160 1470l51 72l313 -229l312 229l53 -72l-365 -268z" />
    <glyph glyph-name="Tcommaaccent" unicode="&#x162;" horiz-adv-x="1191" 
d="M2 1690h1188v-109h-533v-1581h-122v1581h-533v109zM594 -94q32 0 55 -22.5t23 -53.5q0 -82 -32.5 -148t-82.5 -108l-25 20q49 72 54 164q-28 2 -47 22.5t-19 49.5q0 31 21.5 53.5t52.5 22.5z" />
    <glyph glyph-name="tcommaaccent" unicode="&#x163;" horiz-adv-x="645" 
d="M119 1049h102v391h119v-391h266v-91h-266v-688q0 -102 27 -146t100 -44q29 0 58.5 10t44.5 20l14 9l30 -107q-6 -5 -18.5 -12.5t-55 -20t-89.5 -12.5q-57 0 -99.5 17t-67 43.5t-39 66t-19.5 77.5t-5 85v702h-102v91zM412 -82q32 0 54.5 -22.5t22.5 -53.5q0 -82 -32 -148
t-82 -108l-25 21q48 70 53 164q-28 2 -46.5 22t-18.5 49q0 31 21.5 53.5t52.5 22.5z" />
    <glyph glyph-name="Tcaron" unicode="&#x164;" horiz-adv-x="1191" 
d="M2 1690h1188v-109h-533v-1581h-122v1581h-533v109zM231 2109l52 72l313 -229l311 229l54 -72l-365 -268z" />
    <glyph glyph-name="tcaron" unicode="&#x165;" horiz-adv-x="645" 
d="M119 1049h102v391h119v-391h266v-91h-266v-688q0 -102 27 -146t100 -44q29 0 58.5 10t44.5 20l14 9l30 -107q-6 -5 -18.5 -12.5t-55 -20t-89.5 -12.5q-57 0 -99.5 17t-67 43.5t-39 66t-19.5 77.5t-5 85v702h-102v91zM600 1690q32 0 55 -22.5t23 -53.5q0 -82 -32.5 -148
t-82.5 -108l-24 20q48 70 53 164q-28 2 -47 22.5t-19 49.5q0 31 21.5 53.5t52.5 22.5z" />
    <glyph glyph-name="Umacron" unicode="&#x16a;" horiz-adv-x="1544" 
d="M197 1690h122v-1061q0 -269 114 -405t339 -136t339 136t114 405v1061h123v-1084q0 -313 -148 -476t-428 -163t-427.5 162.5t-147.5 476.5v1084zM354 2025h836v-88h-836v88z" />
    <glyph glyph-name="umacron" unicode="&#x16b;" horiz-adv-x="1232" 
d="M190 1049h119v-600q0 -113 20.5 -189t62.5 -117t95 -57t129 -16t129 16t95.5 57t63 117t20.5 189v600h118v-619q0 -251 -103.5 -357t-322.5 -106t-322.5 106t-103.5 357v619zM199 1386h835v-88h-835v88z" />
    <glyph glyph-name="Uring" unicode="&#x16e;" horiz-adv-x="1544" 
d="M197 1690h122v-1061q0 -269 114 -405t339 -136t339 136t114 405v1061h123v-1084q0 -313 -148 -476t-428 -163t-427.5 162.5t-147.5 476.5v1084zM547 2046q0 89 62 144t163 55t163 -55t62 -144t-62 -144t-163 -55t-163 55t-62 144zM631 2046q0 -55 39.5 -90t101.5 -35
t101.5 35t39.5 90t-39.5 90t-101.5 35t-101.5 -35t-39.5 -90z" />
    <glyph glyph-name="uring" unicode="&#x16f;" horiz-adv-x="1232" 
d="M190 1049h119v-600q0 -113 20.5 -189t62.5 -117t95 -57t129 -16t129 16t95.5 57t63 117t20.5 189v600h118v-619q0 -251 -103.5 -357t-322.5 -106t-322.5 106t-103.5 357v619zM391 1493q0 89 62 144t163 55t163.5 -55t62.5 -144t-62.5 -144t-163.5 -55t-163 55t-62 144z
M475 1493q0 -55 39.5 -90t101.5 -35t102 35t40 90t-40 90t-102 35t-101.5 -35t-39.5 -90z" />
    <glyph glyph-name="Uhungarumlaut" unicode="&#x170;" horiz-adv-x="1544" 
d="M197 1690h122v-1061q0 -269 114 -405t339 -136t339 136t114 405v1061h123v-1084q0 -313 -148 -476t-428 -163t-427.5 162.5t-147.5 476.5v1084zM766 2126l72 -98l-293 -179l-47 66zM1098 2126l71 -98l-292 -179l-48 66z" />
    <glyph glyph-name="uhungarumlaut" unicode="&#x171;" horiz-adv-x="1232" 
d="M190 1049h119v-600q0 -113 20.5 -189t62.5 -117t95 -57t129 -16t129 16t95.5 57t63 117t20.5 189v600h118v-619q0 -251 -103.5 -357t-322.5 -106t-322.5 106t-103.5 357v619zM590 1479l72 -99l-293 -178l-47 66zM922 1479l71 -99l-293 -178l-47 66z" />
    <glyph glyph-name="Uogonek" unicode="&#x172;" horiz-adv-x="1544" 
d="M553 -324q0 115 141 295q-243 22 -370 183t-127 452v1084h122v-1061q0 -269 114 -405t339 -136t339 136t114 405v1061h123v-1084q0 -313 -148 -476t-428 -163h-6q-129 -172 -129 -282q0 -77 50 -121.5t130 -44.5q119 0 217 106l58 -41q-4 -6 -11.5 -16t-33.5 -35
t-56 -44.5t-78.5 -35.5t-101.5 -16q-116 0 -187 68t-71 171z" />
    <glyph glyph-name="uogonek" unicode="&#x173;" horiz-adv-x="1232" 
d="M397 -324q0 113 142 295q-178 18 -263.5 124.5t-85.5 334.5v619h119v-600q0 -113 20.5 -189t62.5 -117t95 -57t129 -16t129 16t95.5 57t63 117t20.5 189v600h118v-619q0 -251 -103.5 -357t-322.5 -106h-6q-129 -172 -129 -282q0 -76 50.5 -121t130.5 -45q119 0 217 106
l57 -41q-4 -6 -11.5 -16t-33.5 -35t-56 -44.5t-78.5 -35.5t-101.5 -16q-116 0 -187 68t-71 171z" />
    <glyph glyph-name="Ydieresis" unicode="&#x178;" horiz-adv-x="1249" 
d="M1112 1690h150l-576 -961v-729h-123v729l-575 961h149l488 -828zM385 2148q32 0 55 -22.5t23 -54.5t-23 -55t-55 -23t-55 23t-23 55t23 54.5t55 22.5zM864 2148q32 0 55 -22.5t23 -54.5t-23 -55t-55 -23t-55 23t-23 55t23 54.5t55 22.5z" />
    <glyph glyph-name="Zacute" unicode="&#x179;" horiz-adv-x="1546" 
d="M205 1690h1251l-1141 -1577h1086v-113h-1313l1143 1577h-1026v113zM989 2118l72 -99l-293 -178l-47 66z" />
    <glyph glyph-name="zacute" unicode="&#x17a;" horiz-adv-x="1155" 
d="M137 1049h959l-813 -949h792v-100h-1016l811 948h-733v101zM756 1479l71 -99l-292 -178l-48 66z" />
    <glyph glyph-name="Zdotaccent" unicode="&#x17b;" horiz-adv-x="1546" 
d="M205 1690h1251l-1141 -1577h1086v-113h-1313l1143 1577h-1026v113zM829 2038q31 0 53.5 -23t22.5 -55t-22.5 -55t-53.5 -23t-53 23t-22 55t22 55t53 23z" />
    <glyph glyph-name="zdotaccent" unicode="&#x17c;" horiz-adv-x="1155" 
d="M137 1049h959l-813 -949h792v-100h-1016l811 948h-733v101zM616 1509q31 0 53.5 -22.5t22.5 -54.5t-22.5 -55t-53.5 -23t-53 23t-22 55t22 54.5t53 22.5z" />
    <glyph glyph-name="Zcaron" unicode="&#x17d;" horiz-adv-x="1546" 
d="M205 1690h1251l-1141 -1577h1086v-113h-1313l1143 1577h-1026v113zM467 2109l51 72l313 -229l312 229l53 -72l-365 -268z" />
    <glyph glyph-name="zcaron" unicode="&#x17e;" horiz-adv-x="1155" 
d="M137 1049h959l-813 -949h792v-100h-1016l811 948h-733v101zM252 1470l51 72l313 -229l312 229l53 -72l-365 -268z" />
    <glyph glyph-name="Scommaaccent" unicode="&#x218;" horiz-adv-x="1325" 
d="M229 1272q0 129 62 232.5t166 159.5t229 56q94 0 173.5 -24t133.5 -64t89 -86t53 -96l-95 -41q-26 84 -119 141.5t-229 57.5q-66 0 -123 -19t-97 -52t-69 -75.5t-43 -90.5t-14 -97q0 -64 26 -115.5t75.5 -90t108 -66t136.5 -52.5q123 -40 211.5 -87t153 -108.5t96 -140
t31.5 -176.5q0 -222 -140 -346.5t-370 -124.5q-95 0 -177.5 23t-138.5 58.5t-101 84.5t-71 95t-43 96l105 45q14 -47 46.5 -94.5t83 -92t126.5 -72.5t164 -28q172 0 280.5 90t108.5 262q0 147 -105 240t-340 170q-383 129 -383 428zM674 -82q32 0 55 -22.5t23 -53.5
q0 -82 -32.5 -148t-82.5 -108l-25 21q49 72 54 164q-28 2 -47 22t-19 49q0 31 21.5 53.5t52.5 22.5z" />
    <glyph glyph-name="scommaaccent" unicode="&#x219;" horiz-adv-x="970" 
d="M524 1081q100 0 180.5 -56t104.5 -124l-90 -39q-26 53 -78 87t-117 34q-109 0 -165 -51t-56 -117q0 -69 56.5 -115t177.5 -84q49 -15 89 -31t86 -44t76.5 -61t51 -82.5t20.5 -108.5q0 -104 -52.5 -178.5t-135.5 -109t-187 -34.5q-138 0 -240.5 70.5t-142.5 181.5l95 57
q37 -92 113.5 -146t174.5 -54q124 0 194.5 58.5t70.5 152.5q0 87 -79 148.5t-206 99.5q-51 15 -93.5 35.5t-85 52.5t-67 80.5t-24.5 107.5q0 117 88 193.5t241 76.5zM485 -82q32 0 55 -22.5t23 -53.5q0 -82 -32 -148t-82 -108l-25 21q48 70 53 164q-28 2 -46.5 22t-18.5 49
q0 31 21.5 53.5t51.5 22.5z" />
    <glyph glyph-name="circumflex" unicode="&#x2c6;" horiz-adv-x="1054" 
d="M162 1452l364 268l365 -268l-53 -72l-312 230l-313 -230z" />
    <glyph glyph-name="caron" unicode="&#x2c7;" horiz-adv-x="907" 
d="M88 1649l51 71l314 -229l311 229l53 -71l-364 -269z" />
    <glyph glyph-name="breve" unicode="&#x2d8;" horiz-adv-x="1128" 
d="M885 1720l92 -22q-29 -145 -142.5 -234.5t-271.5 -89.5t-271 89.5t-142 234.5l92 22q24 -106 109 -182t212 -76t212.5 76t109.5 182z" />
    <glyph glyph-name="dotaccent" unicode="&#x2d9;" horiz-adv-x="395" 
d="M197 1509q31 0 53 -22.5t22 -54.5t-22 -55t-53 -23t-53.5 23t-22.5 55t22.5 54.5t53.5 22.5z" />
    <glyph glyph-name="ring" unicode="&#x2da;" horiz-adv-x="749" 
d="M150 1501q0 89 62 144t163 55t163 -55t62 -144t-62 -143.5t-163 -54.5t-163 54.5t-62 143.5zM233 1501q0 -55 40 -90t102 -35t101.5 35t39.5 90t-39.5 90t-101.5 35t-102 -35t-40 -90z" />
    <glyph glyph-name="ogonek" unicode="&#x2db;" horiz-adv-x="745" 
d="M178 -324q0 45 22 100.5t53 102.5t62.5 87.5t53.5 63.5l22 23l53 -24q-61 -66 -121.5 -164t-60.5 -180q0 -77 50 -121.5t130 -44.5q119 0 217 106l58 -41q-4 -6 -11.5 -16t-33.5 -35t-56 -44.5t-78.5 -35.5t-101.5 -16q-116 0 -187 68t-71 171z" />
    <glyph glyph-name="tilde" unicode="&#x2dc;" horiz-adv-x="1171" 
d="M551 1403q-93 74 -189 74q-127 0 -221 -160l-67 61q42 74 119.5 135.5t177.5 61.5q119 0 237 -92q93 -74 189 -74q127 0 221 160l67 -62q-42 -74 -119.5 -135t-177.5 -61q-119 0 -237 92z" />
    <glyph glyph-name="hungarumlaut" unicode="&#x2dd;" horiz-adv-x="944" 
d="M403 1720l72 -98l-293 -178l-47 65zM735 1720l72 -98l-293 -178l-47 65z" />
    <glyph glyph-name="endash" unicode="&#x2013;" horiz-adv-x="1208" 
d="M182 643h856v-100h-856v100z" />
    <glyph glyph-name="emdash" unicode="&#x2014;" horiz-adv-x="2023" 
d="M182 643h1673v-100h-1673v100z" />
    <glyph glyph-name="quoteleft" unicode="&#x2018;" horiz-adv-x="358" 
d="M182 1352q-35 0 -60.5 25.5t-25.5 60.5q0 170 129 282l29 -24q-53 -91 -59 -176q31 -3 52 -26.5t21 -55.5q0 -35 -25.5 -60.5t-60.5 -25.5z" />
    <glyph glyph-name="quoteright" unicode="&#x2019;" horiz-adv-x="358" 
d="M176 1720q35 0 60.5 -25.5t25.5 -60.5q0 -170 -129 -282l-29 24q54 93 60 176q-31 3 -52.5 26.5t-21.5 55.5q0 35 25.5 60.5t60.5 25.5z" />
    <glyph glyph-name="quotesinglbase" unicode="&#x201a;" horiz-adv-x="380" 
d="M203 139q35 0 60.5 -25.5t25.5 -60.5q0 -170 -129 -282l-29 24q53 91 59 176q-31 3 -52 26.5t-21 55.5q0 35 25.5 60.5t60.5 25.5z" />
    <glyph glyph-name="quotedblleft" unicode="&#x201c;" horiz-adv-x="600" 
d="M182 1352q-35 0 -60.5 25.5t-25.5 60.5q0 170 129 282l29 -24q-53 -91 -59 -176q31 -3 52 -26.5t21 -55.5q0 -35 -25.5 -60.5t-60.5 -25.5zM424 1352q-35 0 -60.5 25.5t-25.5 60.5q0 170 129 282l29 -24q-54 -93 -60 -176q31 -3 52.5 -26.5t21.5 -55.5q0 -35 -25.5 -60.5
t-60.5 -25.5z" />
    <glyph glyph-name="quotedblright" unicode="&#x201d;" horiz-adv-x="600" 
d="M418 1720q35 0 60.5 -25.5t25.5 -60.5q0 -170 -129 -282l-29 24q54 93 60 176q-31 3 -52.5 26.5t-21.5 55.5q0 35 25.5 60.5t60.5 25.5zM176 1720q35 0 60.5 -25.5t25.5 -60.5q0 -170 -129 -282l-29 24q54 93 60 176q-31 3 -52.5 26.5t-21.5 55.5q0 35 25.5 60.5
t60.5 25.5z" />
    <glyph glyph-name="quotedblbase" unicode="&#x201e;" horiz-adv-x="589" 
d="M418 135q35 0 60.5 -25.5t25.5 -60.5q0 -170 -129 -282l-29 24q54 93 60 176q-31 3 -52.5 26.5t-21.5 55.5q0 35 25.5 60.5t60.5 25.5zM176 135q35 0 60.5 -25.5t25.5 -60.5q0 -170 -129 -282l-29 24q54 93 60 176q-31 3 -52.5 26.5t-21.5 55.5q0 35 25.5 60.5t60.5 25.5
z" />
    <glyph glyph-name="dagger" unicode="&#x2020;" horiz-adv-x="802" 
d="M-10 1243h356v518h109v-518h358v-102h-358v-1141h-109v1141h-356v102z" />
    <glyph glyph-name="daggerdbl" unicode="&#x2021;" horiz-adv-x="802" 
d="M-10 1235h356v526h109v-526h358v-102h-358v-471h358v-103h-358v-559h-109v559h-356v103h356v471h-356v102z" />
    <glyph glyph-name="bullet" unicode="&#x2022;" horiz-adv-x="573" 
d="M287 858q53 0 91 -37t38 -90t-38 -90t-91 -37t-91 37t-38 90t38 90t91 37z" />
    <glyph glyph-name="ellipsis" unicode="&#x2026;" horiz-adv-x="1030" 
d="M203 139q35 0 60.5 -25.5t25.5 -60.5t-25.5 -60.5t-60.5 -25.5t-60.5 25.5t-25.5 60.5t25.5 60.5t60.5 25.5zM514 139q35 0 60.5 -25.5t25.5 -60.5t-25.5 -60.5t-60.5 -25.5t-60.5 25.5t-25.5 60.5t25.5 60.5t60.5 25.5zM825 139q35 0 60.5 -25.5t25.5 -60.5t-25.5 -60.5
t-60.5 -25.5t-60.5 25.5t-25.5 60.5t25.5 60.5t60.5 25.5z" />
    <glyph glyph-name="perthousand" unicode="&#x2030;" horiz-adv-x="3045" 
d="M496 0l983 1690h88l-983 -1690h-88zM104 1317q0 177 118.5 290t297.5 113t297.5 -113t118.5 -290q0 -178 -117.5 -291t-298.5 -113t-298.5 113t-117.5 291zM188 1317q0 -146 92.5 -234t239.5 -88t239.5 88t92.5 234t-92.5 233.5t-239.5 87.5t-239.5 -87.5t-92.5 -233.5z
M1126 371q0 177 118.5 290t297.5 113t297.5 -113t118.5 -290q0 -178 -117.5 -291t-298.5 -113t-298.5 113t-117.5 291zM1210 371q0 -146 92.5 -234t239.5 -88t239.5 88t92.5 234t-92.5 233.5t-239.5 87.5t-239.5 -87.5t-92.5 -233.5zM2109 371q0 177 118.5 290t297.5 113
t297.5 -113t118.5 -290q0 -178 -117.5 -291t-298.5 -113t-298.5 113t-117.5 291zM2193 371q0 -146 92.5 -234t239.5 -88t239.5 88t92.5 234t-92.5 233.5t-239.5 87.5t-239.5 -87.5t-92.5 -233.5z" />
    <glyph glyph-name="guilsinglleft" unicode="&#x2039;" horiz-adv-x="563" 
d="M31 569l399 512l76 -59l-354 -453l354 -452l-76 -60z" />
    <glyph glyph-name="guilsinglright" unicode="&#x203a;" horiz-adv-x="563" 
d="M57 1022l76 59l399 -512l-399 -512l-76 60l355 452z" />
    <glyph glyph-name="fraction" unicode="&#x2044;" horiz-adv-x="538" 
d="M-266 0l983 1690h88l-983 -1690h-88z" />
    <glyph glyph-name="Euro" unicode="&#x20ac;" horiz-adv-x="1691" 
d="M12 1057h172q47 191 172.5 342.5t305 236t380.5 84.5q170 0 309 -48.5t234 -129.5l-61 -104q-84 76 -206 118.5t-263 42.5q-260 0 -460 -151.5t-265 -390.5h958v-82h-985q-12 -65 -12 -129q0 -68 12 -135h985v-82h-960q63 -239 259 -389t468 -150q143 0 264 42t207 116
l61 -103q-92 -81 -232 -128.5t-313 -47.5q-318 0 -553 184.5t-305 475.5h-172v82h156q-10 75 -10 135q0 57 10 129h-156v82z" />
    <glyph glyph-name="trademark" unicode="&#x2122;" horiz-adv-x="1030" 
d="M35 1690h373v-35h-166v-494h-39v494h-168v35zM485 1690h41l162 -430l160 430h41l72 -529h-39l-64 455l-156 -420h-30l-156 420l-63 -455h-39z" />
    <glyph glyph-name="minus" unicode="&#x2212;" horiz-adv-x="1253" 
d="M102 901h1049v-102h-1049v102z" />
    <glyph glyph-name="notequal" unicode="&#x2260;" horiz-adv-x="1257" 
d="M104 1100h570l180 309h88l-180 -309h391v-103h-453l-172 -297h625v-102h-682l-184 -317h-88l184 317h-279v102h336l172 297h-508v103z" />
    <glyph glyph-name="lessequal" unicode="&#x2264;" horiz-adv-x="1255" 
d="M33 262h1120v-102h-1120v102zM33 1059l1120 536v-96l-999 -481l999 -479v-95l-1120 537v78z" />
    <glyph glyph-name="greaterequal" unicode="&#x2265;" horiz-adv-x="1255" 
d="M102 262h1121v-102h-1121v102zM1223 1059v-78l-1121 -537v95l1002 479l-1002 481v96z" />
    <glyph glyph-name="M.1" horiz-adv-x="1847" 
d="M215 1690h137l572 -1373l571 1373h137v-1690h-123v1405l-538 -1292h-94l-539 1292v-1405h-123v1690z" />
    <glyph glyph-name="Q.1" horiz-adv-x="1970" 
d="M133 846q0 182 68 344.5t182.5 278.5t271.5 183.5t330 67.5t330 -67.5t271.5 -183.5t182.5 -278.5t68 -344.5q0 -304 -170 -533.5t-442 -310.5q29 -5 81.5 -17t97.5 -20t87 -8q49 0 93 11.5t72 27.5t49 32.5t31 27.5l9 12l39 -82q-3 -6 -9.5 -16t-32 -35.5t-56 -45
t-83.5 -35.5t-114 -16q-74 0 -142 13t-114 29t-127.5 29t-179.5 13q-66 0 -128 -18.5t-103.5 -45.5t-73.5 -54t-47 -46l-15 -18l-29 43q5 7 13.5 18t37 40.5t59 55t77 51.5t92.5 38q-295 64 -485.5 302t-190.5 558zM264 846q0 -152 56 -292t151.5 -243t230 -164t283.5 -61
t283.5 61t230 164t151.5 243t56 292q0 206 -95 380t-261 275t-365 101t-365 -101t-261 -275t-95 -380z" />
    <glyph glyph-name="R.1" horiz-adv-x="1415" 
d="M215 1690h414q247 0 389.5 -126.5t142.5 -344.5q0 -203 -125 -335t-344 -149l447 -588q1 -1 8 -8.5t12.5 -13t16 -14t19 -14t20 -9.5t22.5 -4q26 0 48 7t31 15l9 7l37 -95q-5 -5 -15.5 -13.5t-46.5 -22t-77 -13.5q-48 0 -90 22.5t-60 44.5l-18 23l-506 670h-211v-729
h-123v1690zM338 1589v-755h266q198 0 316 105t118 278t-117 272.5t-317 99.5h-266z" />
    <glyph glyph-name="a.1" horiz-adv-x="1208" 
d="M135 301q0 150 116 246t294 96q116 0 207.5 -39t142.5 -104v133q0 165 -89.5 257.5t-248.5 92.5q-192 0 -301 -133l-55 76q64 74 148 114.5t208 40.5q216 0 337.5 -117t121.5 -319v-645h-121v111q-54 -66 -144.5 -105t-203.5 -39q-176 0 -294 93.5t-118 240.5zM250 309
q0 -113 95 -184.5t233 -71.5q136 0 230.5 72t94.5 184t-94 182t-231 70q-139 0 -233.5 -69.5t-94.5 -182.5z" />
    <glyph glyph-name="j.1" horiz-adv-x="532" 
d="M207 1049h119v-1581h-119v1581zM266 1427q35 0 60.5 -25.5t25.5 -60.5t-25.5 -60.5t-60.5 -25.5t-60.5 25.5t-25.5 60.5t25.5 60.5t60.5 25.5z" />
    <glyph glyph-name="t.1" horiz-adv-x="604" 
d="M209 1440h117v-391h235v-91h-235v-958h-117v958h-135v91h135v391z" />
    <glyph glyph-name="u.1" horiz-adv-x="1257" 
d="M1051 0h-119v147q-43 -87 -137.5 -133.5t-192.5 -46.5q-201 0 -306.5 111.5t-105.5 306.5v664h117v-629q0 -169 78.5 -261.5t235.5 -92.5q138 0 224.5 88.5t86.5 199.5v695h119v-1049z" />
    </font>
</defs>
</svg>
