<?xml version="1.0" standalone="no"?>
<!DOCTYPE svg PUBLIC "-//W3C//DTD SVG 1.1//EN" "http://www.w3.org/Graphics/SVG/1.1/DTD/svg11.dtd" >
<svg xmlns="http://www.w3.org/2000/svg" xmlns:xlink="http://www.w3.org/1999/xlink" version="1.1">
<metadata>
Created by FontForge 20170731 at Tue Dec  6 20:07:33 2022
 By Aleksey,,,
Copyright (c) 2017 by Matt Bailey. All rights reserved.
</metadata>
<defs>
<font id="SpartanMB-Bold" horiz-adv-x="1400" >
  <font-face 
    font-family="Spartan MB"
    font-weight="700"
    font-stretch="normal"
    units-per-em="2048"
    panose-1="0 11 5 3 8 0 0 2 0 3"
    ascent="1638"
    descent="-410"
    x-height="1049"
    cap-height="1690"
    bbox="-324 -690 2957 2406"
    underline-thickness="102"
    underline-position="-307"
    unicode-range="U+000D-FB04"
  />
<missing-glyph horiz-adv-x="700" 
 />
    <glyph glyph-name="AE" unicode="AE" horiz-adv-x="1820" 
d="M631 1690h1081v-281h-614v-422h590v-280h-590v-426h614v-281h-934v395h-334l-147 -395h-342zM555 676h223v581z" />
    <glyph glyph-name="ae" unicode="ae" horiz-adv-x="2021" 
d="M123 285q0 146 104 242t279 96q117 0 200.5 -28t129.5 -69v90q0 102 -77 163t-181 61q-55 0 -105 -8t-82 -19.5t-56.5 -23t-34.5 -19.5l-11 -8l-101 205q5 5 14.5 12.5t44 27t75.5 34.5t110 27.5t146 12.5q129 0 240 -41.5t183 -126.5q73 79 175.5 123.5t220.5 44.5
q158 0 284 -65t200.5 -191.5t74.5 -294.5l-2 -45h-813q0 -68 25 -122t66.5 -87t90.5 -50t100 -17q98 0 161.5 30.5t129.5 108.5l219 -110q-164 -271 -532 -271q-126 0 -234.5 50.5t-183.5 140.5q-218 -191 -465 -191q-170 0 -282.5 88t-112.5 230zM422 309q0 -69 60.5 -112
t150.5 -43q89 0 151 46t62 109t-62 106.5t-151 43.5q-91 0 -151 -40.5t-60 -109.5zM1149 655h512q-12 90 -83.5 148.5t-172.5 58.5q-109 0 -179.5 -61t-76.5 -146z" />
    <glyph glyph-name="OE" unicode="OE" horiz-adv-x="2045" 
d="M70 844q0 172 52 314t141 239t209 164.5t254 98t278 30.5h933v-281h-614v-422h590v-280h-590v-426h614v-281h-933q-145 0 -278.5 30.5t-253.5 97t-209 163t-141 239t-52 314.5zM416 844q0 -257 162.5 -407t425.5 -150v1116q-259 0 -423.5 -152t-164.5 -407z" />
    <glyph glyph-name="oe" unicode="oe" horiz-adv-x="2156" 
d="M66 524q0 121 47 225t129 176.5t195.5 114t242.5 41.5q120 0 229.5 -52.5t186.5 -145.5q80 93 193 145.5t243 52.5q158 0 284 -65t200.5 -191.5t74.5 -294.5l-2 -45h-813q0 -131 86 -203.5t197 -72.5q98 0 161 30.5t129 108.5l219 -110q-164 -271 -532 -271
q-128 0 -243.5 53.5t-194.5 145.5q-77 -94 -186.5 -146.5t-231.5 -52.5q-129 0 -242.5 41.5t-195.5 114t-129 176.5t-47 225zM381 524q0 -130 85.5 -214.5t213.5 -84.5t213.5 84.5t85.5 214.5t-85.5 214.5t-213.5 84.5t-213.5 -84.5t-85.5 -214.5zM1284 655h512
q-12 90 -83.5 148.5t-172.5 58.5q-109 0 -179.5 -61t-76.5 -146z" />
    <glyph glyph-name="ff" unicode="ff" horiz-adv-x="1421" 
d="M88 1049h137v268q0 220 100 347.5t277 127.5q72 0 138.5 -20.5t97.5 -41.5l30 -20l-106 -213q-43 29 -109 29q-71 0 -98 -49t-27 -166v-262h359v268q0 220 100 347.5t277 127.5q47 0 92 -8.5t76 -21t55 -25t35 -21.5l12 -8l-107 -215q-40 33 -112 33q-71 0 -98 -49
t-27 -166v-262h248v-230h-248v-819h-303v819h-359v-819h-303v819h-137v230z" />
    <glyph glyph-name="fi" unicode="fi" horiz-adv-x="1284" 
d="M55 1049h138v268q0 220 99.5 347.5t276.5 127.5q81 0 155.5 -16t122.5 -39t84 -46t52 -39l16 -16l-106 -215q-4 4 -11.5 11t-32 25.5t-50 32t-62.5 25t-73 11.5q-94 0 -131 -49.5t-37 -165.5v-262h641v-1049h-303v819h-338v-819h-303v819h-138v230z" />
    <glyph glyph-name="fl" unicode="fl" horiz-adv-x="1290" 
d="M55 1049h138v268q0 220 99.5 347.5t276.5 127.5q63 0 121 -15t84 -29l27 -15l-74 -236q-40 29 -106 29q-71 0 -98 -49t-27 -166v-262h247v-230h-247v-819h-303v819h-138v230zM844 1761h303v-1761h-303v1761z" />
    <glyph glyph-name="ffi" unicode="ffi" horiz-adv-x="1978" 
d="M88 1049h137v268q0 220 100 347.5t277 127.5q72 0 138.5 -20.5t97.5 -41.5l30 -20l-106 -213q-43 29 -109 29q-71 0 -98 -49t-27 -166v-262h357v268q0 220 100 347.5t277 127.5q81 0 155.5 -16t122.5 -39t84 -46t52 -39l16 -16l-107 -215q-4 4 -11.5 11t-32 25.5t-50 32
t-62.5 25t-73 11.5q-94 0 -131 -49.5t-37 -165.5v-262h641v-1049h-303v819h-338v-819h-303v819h-357v-819h-303v819h-137v230z" />
    <glyph glyph-name="ffl" unicode="ffl" horiz-adv-x="1986" 
d="M88 1049h137v268q0 220 100 347.5t277 127.5q72 0 138.5 -20.5t97.5 -41.5l30 -20l-106 -213q-43 29 -109 29q-71 0 -98 -49t-27 -166v-262h359v268q0 220 100 347.5t277 127.5q63 0 120.5 -15t83.5 -29l27 -15l-74 -236q-40 29 -106 29q-71 0 -98 -49t-27 -166v-262h248
v-230h-248v-819h-303v819h-359v-819h-303v819h-137v230zM1538 1761h303v-1761h-303v1761z" />
    <glyph glyph-name="ft" unicode="ft" horiz-adv-x="1421" 
d="M55 1049h138v268q0 220 99.5 347.5t276.5 127.5q73 0 139.5 -20.5t97.5 -41.5l30 -20l-107 -213q-42 29 -108 29q-71 0 -98 -49t-27 -166v-262h350v393h303v-393h231v-230h-231v-424q0 -80 22 -118.5t72 -38.5q24 0 48 8t36 16l12 8l74 -243q-11 -7 -32 -17t-83.5 -26.5
t-123.5 -16.5q-77 0 -136 22.5t-94.5 58.5t-58 86t-31 100t-8.5 106v479h-350v-819h-303v819h-138v230z" />
    <glyph glyph-name="fj" unicode="fj" horiz-adv-x="1284" 
d="M55 1049h138v268q0 220 99.5 347.5t276.5 127.5q81 0 155.5 -16t122.5 -39t84 -46t52 -39l16 -16l-106 -215q-4 4 -11.5 11t-32 25.5t-50 32t-62.5 25t-73 11.5q-94 0 -131 -49.5t-37 -165.5v-262h641v-1231q0 -76 -19 -141.5t-59 -120.5t-110.5 -87t-164.5 -32
q-81 0 -146.5 15.5t-90.5 30.5l-25 15l94 244q44 -33 101 -33q117 0 117 164v946h-338v-819h-303v819h-138v230z" />
    <glyph glyph-name="fft" unicode="fft" horiz-adv-x="2115" 
d="M528 1049h361v268q0 220 100 347.5t277 127.5q73 0 139.5 -20.5t96.5 -41.5l30 -20l-107 -213q-42 29 -108 29q-71 0 -98 -49t-27 -166v-262h350v393h303v-393h232v-230h-232v-424q0 -80 22 -118.5t72 -38.5q24 0 48 8t37 16l12 8l73 -243q-11 -7 -32 -17t-83.5 -26.5
t-123.5 -16.5q-77 0 -136 22.5t-94.5 58.5t-58 86t-31 100t-8.5 106v479h-350v-819h-303v819h-361v-819h-303v819h-137v230h137v268q0 220 100 347.5t277 127.5q72 0 138.5 -20.5t97.5 -41.5l30 -20l-106 -213q-43 29 -109 29q-71 0 -98 -49t-27 -166v-262z" />
    <glyph glyph-name="ffj" unicode="ffj" horiz-adv-x="1978" 
d="M528 1049h357v268q0 220 100 347.5t277 127.5q81 0 155.5 -16t122.5 -39t84 -46t52 -39l16 -16l-107 -215q-4 4 -11.5 11t-32 25.5t-50 32t-62.5 25t-73 11.5q-94 0 -131 -49.5t-37 -165.5v-262h641v-1231q0 -76 -19 -141.5t-59 -120.5t-110 -87t-164 -32
q-81 0 -146.5 15.5t-90.5 30.5l-26 15l95 244q43 -33 100 -33q117 0 117 164v946h-338v-819h-303v819h-357v-819h-303v819h-137v230h137v268q0 220 100 347.5t277 127.5q72 0 138.5 -20.5t97.5 -41.5l30 -20l-106 -213q-43 29 -109 29q-71 0 -98 -49t-27 -166v-262z" />
    <glyph glyph-name=".notdef" horiz-adv-x="700" 
 />
    <glyph glyph-name=".null" horiz-adv-x="0" 
 />
    <glyph glyph-name="nonmarkingreturn" horiz-adv-x="682" 
 />
    <glyph glyph-name="NULL" horiz-adv-x="0" 
 />
    <glyph glyph-name="NULL" horiz-adv-x="0" 
 />
    <glyph glyph-name="CR" unicode="&#xd;" horiz-adv-x="548" 
 />
    <glyph glyph-name="space" unicode=" " horiz-adv-x="548" 
 />
    <glyph glyph-name="exclam" unicode="!" horiz-adv-x="684" 
d="M193 1761h299l-39 -1249h-222zM342 365q83 0 141 -58t58 -141t-58 -141t-141 -58t-141 58t-58 141t58 141t141 58z" />
    <glyph glyph-name="quotedbl" unicode="&#x22;" horiz-adv-x="917" 
d="M508 1714h295l-55 -655h-185zM115 1714h295l-56 -655h-184z" />
    <glyph glyph-name="numbersign" unicode="#" horiz-adv-x="1611" 
d="M139 1190h293l57 442h205l-55 -442h367l57 442h205l-56 -442h203v-207h-227l-43 -332h270v-207h-295l-55 -444h-207l55 444h-366l-55 -444h-207l55 444h-201v207h228l43 332h-271v207zM614 983l-43 -332h369l41 332h-367z" />
    <glyph glyph-name="dollar" unicode="$" horiz-adv-x="1363" 
d="M203 1219q0 97 35 183t95.5 148.5t138.5 104.5t165 57v260h186v-258q76 -8 146 -28.5t115.5 -44t80.5 -46.5t51 -38l15 -15l-152 -233q-5 5 -14.5 13t-42 29t-68 37t-90.5 29t-112 13q-113 0 -175.5 -56t-62.5 -143q0 -64 56 -112.5t163 -96.5q190 -86 200 -91
q214 -104 295 -227q62 -94 62 -210t-36 -209t-100.5 -155t-147.5 -100t-183 -53v-260h-186v252q-108 4 -207 31.5t-162.5 63.5t-111 71.5t-68.5 59.5l-22 24l180 244q8 -8 22 -21.5t58.5 -48.5t90 -61.5t112 -48t128.5 -21.5q50 0 95 9t90.5 30.5t72.5 66t27 107.5
q0 49 -23.5 88.5t-86.5 79.5t-107 61.5t-151 69.5q-20 9 -31 14q-164 74 -252 185t-88 246z" />
    <glyph glyph-name="percent" unicode="%" horiz-adv-x="2021" 
d="M61 1317q0 177 126 290t317 113t316.5 -113t125.5 -290t-126 -290.5t-316 -113.5q-191 0 -317 113.5t-126 290.5zM281 1317q0 -98 64.5 -162.5t158.5 -64.5t158.5 64.5t64.5 162.5t-64.5 162.5t-158.5 64.5t-158.5 -64.5t-64.5 -162.5zM1075 373q0 177 126 290t317 113
t316.5 -113t125.5 -290t-126 -290.5t-316 -113.5q-191 0 -317 113.5t-126 290.5zM1294 373q0 -98 65 -163t159 -65t158.5 65t64.5 163t-64.5 162.5t-158.5 64.5t-159 -65t-65 -162zM420 0l983 1690h203l-983 -1690h-203z" />
    <glyph glyph-name="ampersand" unicode="&#x26;" horiz-adv-x="1665" 
d="M78 436q0 78 33 149.5t93 131t128 106.5t155 92q-90 105 -138 194.5t-48 188.5q0 188 131.5 305t370.5 117q113 0 205.5 -37.5t149 -98.5t86.5 -135t30 -151q0 -70 -32.5 -137t-75 -112t-97 -85t-84 -56.5t-51.5 -26.5l291 -308q114 93 233 226l199 -191
q-98 -121 -230 -246l349 -362h-402l-184 193q-53 -43 -88 -69t-91.5 -59.5t-106.5 -52t-118.5 -32t-142.5 -13.5q-81 0 -157.5 14.5t-151.5 49.5t-131 87.5t-90.5 134t-34.5 183.5zM623 1298q0 -40 19.5 -83t48.5 -77t48 -53t33 -30q104 52 162.5 109t58.5 134
q0 83 -46.5 138t-143.5 55q-87 0 -133.5 -56t-46.5 -137zM436 461q0 -89 70 -141t168 -52q54 0 109.5 16.5t95.5 40.5t66 44t38 34l-328 336q-33 -15 -65 -36.5t-69.5 -56t-61 -83t-23.5 -102.5z" />
    <glyph glyph-name="quotesingle" unicode="'" horiz-adv-x="524" 
d="M115 1714h295l-56 -655h-184z" />
    <glyph glyph-name="parenleft" unicode="(" horiz-adv-x="784" 
d="M408 629q0 -143 15.5 -279.5t40 -241t54.5 -197t60 -157t54.5 -111.5t39.5 -69l16 -23l-196 -83q-8 9 -21 26.5t-51 78t-72.5 127t-76.5 171.5t-72 214.5t-51 253.5t-21 290q0 115 12.5 228.5t33.5 208t48.5 183.5t58 160t60.5 133.5t57.5 107.5t48.5 77.5t34 48.5l12 16
l196 -84q-6 -8 -16 -23t-39 -68.5t-55.5 -113t-59 -156t-55.5 -198.5t-39 -239.5t-16 -280.5z" />
    <glyph glyph-name="parenright" unicode=")" horiz-adv-x="784" 
d="M377 629q0 143 -15.5 279.5t-40.5 241t-54.5 197.5t-59.5 157.5t-55 111.5t-40 70l-16 22l197 84q8 -9 21 -27t50.5 -78t72 -127t76.5 -172t72.5 -215t51 -254t20.5 -290t-20 -289.5t-52 -255t-71 -213t-78 -173t-71 -125t-52 -79.5l-20 -26l-197 83q6 8 16 23t39 68
t56 113t59 156t55.5 198t39.5 239.5t16 280.5z" />
    <glyph glyph-name="asterisk" unicode="*" horiz-adv-x="878" 
d="M365 1761h149v-223l217 66l45 -136l-217 -77l127 -189l-113 -76l-133 174l-135 -174l-110 76l127 189l-220 77l45 136l218 -66v223z" />
    <glyph glyph-name="plus" unicode="+" horiz-adv-x="1294" 
d="M516 1376h262v-395h396v-262h-396v-395h-262v395h-395v262h395v395z" />
    <glyph glyph-name="comma" unicode="," horiz-adv-x="636" 
d="M317 365q83 0 141 -58t58 -141q0 -270 -291 -512l-86 72q14 14 33 37t53.5 88.5t46.5 132.5q-66 15 -108.5 64.5t-42.5 117.5q0 83 57 141t139 58z" />
    <glyph glyph-name="hyphen" unicode="-" horiz-adv-x="913" 
d="M127 723h659v-262h-659v262z" />
    <glyph glyph-name="period" unicode="." horiz-adv-x="634" 
d="M317 365q83 0 141 -58t58 -141t-58 -141t-141 -58t-140.5 58t-57.5 141t57.5 141t140.5 58z" />
    <glyph glyph-name="slash" unicode="/" horiz-adv-x="1177" 
d="M37 -246l844 2007h260l-844 -2007h-260z" />
    <glyph glyph-name="zero" unicode="0" horiz-adv-x="1540" 
d="M82 844q0 171 37 315.5t101 246.5t151.5 173.5t188 106t210.5 34.5t210.5 -34.5t188 -106t151.5 -173.5t101 -246.5t37 -315.5t-37 -315.5t-101 -247t-151.5 -174t-188 -106t-210.5 -34.5t-210.5 34.5t-188 106t-151.5 174t-101 247t-37 315.5zM406 844q0 -282 99.5 -439
t264.5 -157t265 157t100 439t-100 439t-265 157t-264.5 -157t-99.5 -439z" />
    <glyph glyph-name="one" unicode="1" horiz-adv-x="641" 
d="M-68 1690h564v-1690h-320v1374h-244v316z" />
    <glyph glyph-name="two" unicode="2" horiz-adv-x="1536" 
d="M139 1217q3 11 8.5 29t28.5 70t51.5 99.5t79.5 105.5t110 100t145 70.5t183 28.5q150 0 266 -39.5t183.5 -99.5t110.5 -141.5t58 -155t15 -149.5q0 -69 -24.5 -143.5t-62.5 -138.5t-93.5 -132t-107.5 -120t-116.5 -108.5t-108 -90.5t-93.5 -72.5t-63 -48.5h700v-281
h-1282v162q7 6 79.5 60t144.5 111t173 141t185.5 167t160.5 170.5t120 172t44 151.5q0 34 -7.5 71.5t-27.5 81.5t-51 78t-84 57t-119 23q-61 0 -117.5 -33.5t-93.5 -81.5t-65 -96t-41 -81l-12 -34z" />
    <glyph glyph-name="three" unicode="3" horiz-adv-x="1345" 
d="M137 1335q1 8 4.5 22t19 54t37.5 76t65 80.5t96 76.5t134.5 54t178.5 22q228 0 379 -138t151 -345q0 -110 -48.5 -198t-133.5 -140q111 -57 174 -160.5t63 -238.5q0 -232 -167 -382.5t-431 -150.5q-84 0 -159 14.5t-130 39t-102 56t-79 66.5t-57.5 70t-40 66.5t-24 56
t-13.5 38.5l-3 15l301 113q1 -10 5 -27.5t25 -61.5t51 -78t89 -61.5t135 -27.5q127 0 203 69t76 185q0 121 -80.5 201.5t-196.5 80.5q-17 0 -34.5 -2t-26.5 -4l-8 -2v211h76q97 0 170 72.5t73 177.5q0 95 -71.5 160t-169.5 65q-45 0 -84.5 -12t-66.5 -31t-49 -42t-35 -45.5
t-22 -41.5t-13 -31l-3 -12z" />
    <glyph glyph-name="four" unicode="4" horiz-adv-x="1312" 
d="M-39 414v102l807 1174h315v-996h197v-280h-197v-414h-299v414h-823zM395 694h389v568z" />
    <glyph glyph-name="five" unicode="5" horiz-adv-x="1339" 
d="M301 1690h862v-281h-590l-49 -317q60 24 123 24q101 0 189 -18t169.5 -61.5t139.5 -110t92.5 -170t34.5 -234.5q0 -244 -172.5 -399.5t-448.5 -155.5q-126 0 -232 32.5t-177 87.5t-117.5 116.5t-71.5 130.5l254 123q31 -96 118 -160t226 -64q135 0 219 83.5t84 215.5
q0 72 -25.5 130.5t-68.5 98t-102 67t-125 39.5t-139 12q-194 0 -332 -93z" />
    <glyph glyph-name="six" unicode="6" horiz-adv-x="1413" 
d="M1341 541q0 -112 -34 -207t-93 -161.5t-138 -113.5t-167.5 -69.5t-183.5 -22.5q-137 0 -258 44.5t-208 121t-137 182.5t-50 226q0 195 54.5 328.5t186.5 289.5l445 531h395l-506 -592q64 35 148 35q96 0 191 -39.5t175 -112t130 -187.5t50 -253zM1024 543
q0 135 -90.5 225t-222.5 90q-128 0 -219 -91t-91 -224q0 -134 87.5 -222t222.5 -88t224 88t89 222z" />
    <glyph glyph-name="seven" unicode="7" horiz-adv-x="1341" 
d="M154 1690h1228v-97l-893 -1593h-376l798 1409h-757v281z" />
    <glyph glyph-name="eight" unicode="8" horiz-adv-x="1380" 
d="M156 1294q0 119 77 218t199 153.5t258 54.5t258.5 -54.5t199.5 -153.5t77 -218q0 -133 -63 -231.5t-169 -155.5q138 -60 219.5 -175t81.5 -279q0 -138 -85 -251t-223 -174t-296 -61t-296 61t-223 174t-85 251q0 164 81.5 279t219.5 175q-106 57 -168.5 155.5t-62.5 231.5
zM430 502q0 -114 72.5 -187t187.5 -73t187.5 73t72.5 187q0 112 -75 184t-185 72t-185 -72t-75 -184zM461 1249q0 -98 66 -161.5t163 -63.5t163.5 63.5t66.5 161.5q0 99 -66.5 164.5t-163.5 65.5t-163 -65.5t-66 -164.5z" />
    <glyph glyph-name="nine" unicode="9" horiz-adv-x="1413" 
d="M72 1147q0 112 34 207t93 161.5t138 113.5t167.5 69t183.5 22q183 0 332.5 -75t235 -206.5t85.5 -291.5q0 -195 -54.5 -329t-186.5 -290l-445 -528h-395l506 590q-64 -35 -148 -35q-96 0 -191 39.5t-175 112t-130 187.5t-50 253zM389 1145q0 -135 90.5 -225.5
t222.5 -90.5q128 0 219 91.5t91 224.5q0 134 -87.5 221.5t-222.5 87.5t-224 -88t-89 -221z" />
    <glyph glyph-name="colon" unicode=":" horiz-adv-x="634" 
d="M317 365q83 0 141 -58t58 -141t-58 -141t-141 -58t-140.5 58t-57.5 141t57.5 141t140.5 58zM317 1133q83 0 141 -58t58 -141t-58 -141t-141 -58t-140.5 58t-57.5 141t57.5 141t140.5 58z" />
    <glyph glyph-name="semicolon" unicode=";" horiz-adv-x="634" 
d="M317 365q83 0 141 -58t58 -141q0 -270 -291 -512l-86 72q14 14 33 37t53.5 88.5t46.5 132.5q-66 15 -108.5 64.5t-42.5 117.5q0 83 57 141t139 58zM317 1133q83 0 141 -58t58 -141t-58 -141t-141 -58t-140.5 58t-57.5 141t57.5 141t140.5 58z" />
    <glyph glyph-name="less" unicode="&#x3c;" horiz-adv-x="1331" 
d="M100 952l1121 475v-243l-799 -332l799 -332v-244l-1121 476v200z" />
    <glyph glyph-name="equal" unicode="=" horiz-adv-x="1286" 
d="M119 1212h1048v-262h-1048v262zM119 745h1048v-262h-1048v262z" />
    <glyph glyph-name="greater" unicode="&#x3e;" horiz-adv-x="1331" 
d="M111 1427l1120 -475v-200l-1120 -476v244l798 332l-798 332v243z" />
    <glyph glyph-name="question" unicode="?" horiz-adv-x="1212" 
d="M53 1278q9 67 34 129t70.5 119.5t106.5 100t147 68t187 25.5q111 0 205 -32.5t156.5 -85t106.5 -120t63.5 -136.5t19.5 -136q0 -74 -25.5 -150.5t-75 -147t-134.5 -124t-193 -73.5v-197h-283v463q48 -14 154 -14q58 0 106 15.5t78 40.5t50.5 57.5t29 65t8.5 64.5
q0 42 -14.5 83t-44.5 77.5t-83.5 59t-123.5 22.5q-138 0 -208 -63t-87 -164zM580 365q83 0 140.5 -58t57.5 -141t-57.5 -141t-140.5 -58t-141 58t-58 141t58 141t141 58z" />
    <glyph glyph-name="at" unicode="@" horiz-adv-x="1910" 
d="M68 846q0 188 73 352.5t196 278t289.5 178.5t350.5 65q237 0 434.5 -104.5t314.5 -295t117 -427.5q0 -110 -31 -196.5t-84 -139t-119 -79.5t-141 -27q-83 0 -153 28.5t-115 75.5q-52 -79 -132 -124.5t-183 -45.5q-179 0 -297.5 126t-118.5 314q0 189 118.5 317t297.5 128
q188 0 299 -140v115h207v-479q0 -13 4.5 -29t15.5 -35.5t35.5 -32t58.5 -12.5q69 0 100 53t31 183q0 172 -87 310t-238 215t-336 77q-134 0 -256 -51.5t-209.5 -138.5t-139 -207t-51.5 -252q0 -177 87.5 -323t238 -229t330.5 -83q95 0 177 21t134 53.5t81 57.5t44 46
l201 -131q-15 -22 -38 -48.5t-80.5 -72.5t-124 -81t-171.5 -62t-221 -27q-250 0 -457 111t-329.5 313.5t-122.5 454.5zM735 829q0 -101 64 -167t164 -66q96 0 159.5 66t63.5 167t-64.5 168.5t-158.5 67.5q-97 0 -162.5 -67.5t-65.5 -168.5z" />
    <glyph glyph-name="A" unicode="A" horiz-adv-x="1556" 
d="M444 395l-147 -395h-342l676 1690h295l676 -1690h-342l-148 395h-668zM1001 676l-223 581l-223 -581h446z" />
    <glyph glyph-name="B" unicode="B" horiz-adv-x="1353" 
d="M145 1690h478q116 0 208 -23.5t163.5 -73.5t110 -134.5t38.5 -198.5q0 -124 -55.5 -219t-165.5 -148q370 -62 370 -428q0 -212 -145.5 -338.5t-401.5 -126.5h-600v1690zM465 1442v-443h72q297 0 297 230q0 213 -297 213h-72zM465 723v-475h172q319 0 319 229
q0 246 -319 246h-172z" />
    <glyph glyph-name="C" unicode="C" horiz-adv-x="1572" 
d="M68 844q0 143 47.5 277.5t132.5 241.5t197.5 188t249.5 125t280 44q103 0 198 -16.5t157 -40t109 -47.5t68 -40l21 -17l-158 -256q-5 4 -15.5 11t-44.5 24.5t-71.5 31t-96 24.5t-118.5 11q-146 0 -265 -49t-192 -130t-112 -179.5t-39 -202.5t39 -202.5t112 -179.5
t192 -130t265 -49q60 0 118 10.5t97.5 25.5t70 30t45.5 25l15 11l158 -256q-8 -7 -22.5 -17.5t-66 -38.5t-110.5 -49.5t-155 -39t-199 -17.5q-143 0 -280 44t-249.5 125t-197.5 188.5t-132.5 242t-47.5 277.5z" />
    <glyph glyph-name="D" unicode="D" horiz-adv-x="1523" 
d="M145 1690h459q172 0 328 -63.5t271.5 -174t184 -269.5t68.5 -339q0 -181 -68 -339.5t-183.5 -268.5t-271.5 -173t-329 -63h-459v1690zM465 1405v-1120h102q155 0 280 73t195 200.5t70 285.5q0 240 -155 400.5t-390 160.5h-102z" />
    <glyph glyph-name="E" unicode="E" horiz-adv-x="1187" 
d="M145 1690h934v-281h-614v-422h590v-280h-590v-426h614v-281h-934v1690z" />
    <glyph glyph-name="F" unicode="F" horiz-adv-x="1169" 
d="M145 1690h942v-281h-622v-422h577v-280h-577v-707h-320v1690z" />
    <glyph glyph-name="G" unicode="G" horiz-adv-x="1736" 
d="M68 844q0 180 62.5 341.5t170.5 279t261.5 186.5t328.5 69q119 0 223 -24t183.5 -67t138.5 -91t106 -106l-223 -209q-55 90 -163 149.5t-247 59.5q-137 0 -251.5 -78.5t-180 -213.5t-65.5 -296q0 -158 66.5 -292.5t181 -213t249.5 -78.5q82 0 159.5 26.5t140.5 74
t101 121t38 161.5v23h-457v247h780v-266q0 -99 -34.5 -197t-103 -185t-161 -153.5t-217.5 -105.5t-264 -39q-134 0 -260 44.5t-227 125.5t-177 189t-117.5 241.5t-41.5 276.5z" />
    <glyph glyph-name="H" unicode="H" horiz-adv-x="1581" 
d="M145 1690h320v-703h651v703h320v-1690h-320v707h-651v-707h-320v1690z" />
    <glyph glyph-name="I" unicode="I" horiz-adv-x="610" 
d="M145 1690h320v-1690h-320v1690z" />
    <glyph glyph-name="J" unicode="J" horiz-adv-x="993" 
d="M545 1690h319v-1215q0 -248 -135.5 -378t-390.5 -130q-68 0 -133.5 16.5t-110.5 40.5t-81 48t-53 40l-17 17l102 270q5 -5 14.5 -13.5t38.5 -30.5t57 -39t67 -30.5t73 -13.5q117 0 183.5 70.5t66.5 216.5v1131z" />
    <glyph glyph-name="K" unicode="K" horiz-adv-x="1546" 
d="M145 1690h320v-723l633 723h387l-713 -816l813 -874h-440l-680 739v-739h-320v1690z" />
    <glyph glyph-name="L" unicode="L" horiz-adv-x="1150" 
d="M145 1690h320v-1409h618v-281h-938v1690z" />
    <glyph glyph-name="M" unicode="M" horiz-adv-x="1937" 
d="M1378 1690h340l170 -1690h-319l-111 1116l-393 -1081h-193l-393 1081l-110 -1116h-320l170 1690h340l410 -1074z" />
    <glyph glyph-name="N" unicode="N" horiz-adv-x="1675" 
d="M145 1690h320l745 -1155v1155h320v-1690h-320l-745 1155v-1155h-320v1690z" />
    <glyph glyph-name="O" unicode="O" horiz-adv-x="1839" 
d="M68 844q0 182 68 345t183 279t272 184t329 68t329 -68t272 -184t183 -279t68 -345t-68 -345t-183 -279.5t-272 -184.5t-329 -68t-329 68t-272 184.5t-183 279.5t-68 345zM414 844q0 -89 21 -172.5t64 -155.5t102.5 -126t141.5 -85t177 -31q118 0 215 47.5t159.5 127
t96.5 181.5t34 214t-34 213.5t-96.5 181.5t-159.5 127t-215 47t-215.5 -47.5t-160 -127t-96.5 -181t-34 -213.5z" />
    <glyph glyph-name="P" unicode="P" horiz-adv-x="1345" 
d="M145 1690h566q257 0 412 -131.5t155 -376.5q0 -246 -157 -388.5t-410 -142.5h-246v-651h-320v1690zM465 1434v-525h147q147 0 238.5 64.5t91.5 197.5q0 90 -45.5 151t-117.5 86.5t-167 25.5h-147z" />
    <glyph glyph-name="Q" unicode="Q" horiz-adv-x="1839" 
d="M68 844q0 182 68 345t183 279t272 184t329 68t329 -68t272 -184t183 -279t68 -345q0 -291 -166 -522q123 -54 239 -91l-141 -286q-157 61 -318 166q-211 -144 -466 -144q-172 0 -329 68t-272 184.5t-183 279.5t-68 345zM414 844q0 -89 21 -172.5t64 -155.5t102.5 -126
t141.5 -85t177 -31q107 0 196 39q-159 140 -252 258l137 170q127 -141 316 -262q108 154 108 365q0 112 -34 213.5t-96.5 181.5t-159.5 127t-215 47t-215.5 -47.5t-160 -127t-96.5 -181t-34 -213.5z" />
    <glyph glyph-name="R" unicode="R" horiz-adv-x="1427" 
d="M145 1690h566q257 0 412 -131.5t155 -376.5q0 -196 -102.5 -328.5t-278.5 -179.5l553 -674h-408l-501 651h-76v-651h-320v1690zM465 1434v-525h147q147 0 238.5 64.5t91.5 197.5q0 90 -45.5 151t-117.5 86.5t-167 25.5h-147z" />
    <glyph glyph-name="S" unicode="S" horiz-adv-x="1363" 
d="M203 1219q0 110 45 205.5t119 159t169 100t195 36.5q94 0 180 -18.5t142 -44.5t98 -52t61 -45l19 -18l-152 -233q-5 5 -14.5 13t-42 29t-68 37t-90.5 29t-112 13q-113 0 -175.5 -56t-62.5 -143q0 -64 56 -112.5t163 -96.5q190 -86 200 -91q214 -104 295 -227
q62 -94 62 -210q0 -110 -32.5 -199t-88.5 -149.5t-134.5 -101t-166.5 -59t-188 -18.5q-116 0 -222.5 26t-174.5 63t-119.5 74t-74.5 63l-23 26l180 244q8 -8 22 -21.5t58.5 -48.5t90 -61.5t112 -48t128.5 -21.5q50 0 95 9t90.5 30.5t72.5 66t27 107.5q0 49 -23.5 88.5
t-86.5 79.5t-107 61.5t-151 69.5q-20 9 -31 14q-164 74 -252 185t-88 246z" />
    <glyph glyph-name="T" unicode="T" horiz-adv-x="1212" 
d="M12 1690h1188v-281h-434v-1409h-320v1409h-434v281z" />
    <glyph glyph-name="U" unicode="U" horiz-adv-x="1527" 
d="M127 1690h319v-1000q0 -222 76 -314.5t242 -92.5q165 0 241 92.5t76 314.5v1000h320v-1090q0 -313 -162 -473t-475 -160t-475 160t-162 473v1090z" />
    <glyph glyph-name="V" unicode="V" horiz-adv-x="1581" 
d="M-45 1690h360l476 -1209l475 1209h360l-708 -1690h-254z" />
    <glyph glyph-name="W" unicode="W" horiz-adv-x="2252" 
d="M1944 1690h354l-486 -1690h-356l-330 1073l-329 -1073h-357l-485 1690h354l328 -1254l367 1254h245l367 -1254z" />
    <glyph glyph-name="X" unicode="X" horiz-adv-x="1589" 
d="M61 1690h381l353 -514l352 514h381l-535 -781l641 -909h-397l-442 633l-443 -633h-397l641 909z" />
    <glyph glyph-name="Y" unicode="Y" horiz-adv-x="1449" 
d="M-45 1690h383l387 -613l387 613h383l-610 -940v-750h-320v750z" />
    <glyph glyph-name="Z" unicode="Z" horiz-adv-x="1566" 
d="M164 1690h1358l-916 -1407h858v-283h-1417l911 1407h-794v283z" />
    <glyph glyph-name="bracketleft" unicode="[" horiz-adv-x="831" 
d="M145 1761h594v-202h-331v-1889h331v-202h-594v2293z" />
    <glyph glyph-name="backslash" unicode="\" horiz-adv-x="1177" 
d="M37 1761h260l844 -1761h-260z" />
    <glyph glyph-name="bracketright" unicode="]" horiz-adv-x="831" 
d="M90 1761h594v-2293h-594v202h332v1889h-332v202z" />
    <glyph glyph-name="asciicircum" unicode="^" horiz-adv-x="987" 
d="M-8 1239l424 483h155l424 -483h-274l-227 268l-228 -268h-274z" />
    <glyph glyph-name="underscore" unicode="_" horiz-adv-x="1048" 
d="M0 -59h1049v-148h-1049v148z" />
    <glyph glyph-name="grave" unicode="`" horiz-adv-x="737" 
d="M100 1520l158 200l379 -323l-98 -135z" />
    <glyph glyph-name="a" unicode="a" 
d="M68 524q0 115 39.5 218t108 177.5t166.5 118t210 43.5q229 0 369 -166v134h303v-1049h-303v143q-64 -81 -160 -128.5t-209 -47.5q-112 0 -210 43.5t-166.5 118t-108 177.5t-39.5 218zM387 524q0 -131 81 -215t210 -84q126 0 208.5 84.5t82.5 214.5q0 131 -83.5 215
t-207.5 84t-207.5 -84t-83.5 -215z" />
    <glyph glyph-name="b" unicode="b" 
d="M1333 524q0 -115 -39.5 -218t-108 -177.5t-166.5 -118t-210 -43.5q-113 0 -209 47.5t-160 128.5v-143h-303v1761h303v-846q140 166 369 166q112 0 210 -43.5t166.5 -118t108 -177.5t39.5 -218zM1014 524q0 131 -83.5 215t-207.5 84t-207.5 -84t-83.5 -215
q0 -130 82.5 -214.5t208.5 -84.5q129 0 210 84t81 215z" />
    <glyph glyph-name="c" unicode="c" horiz-adv-x="1048" 
d="M66 524q0 153 80 282t212.5 202t284.5 73q66 0 127 -10.5t100.5 -25.5t69.5 -30t44 -25l13 -11l-106 -209q-3 3 -9 7t-26.5 15t-42.5 19.5t-56.5 15.5t-70.5 7q-126 0 -213.5 -90t-87.5 -220t87.5 -219.5t213.5 -89.5q56 0 107.5 16t74.5 32l23 16l106 -209
q-5 -4 -14.5 -11t-42.5 -25t-70.5 -31.5t-99 -24.5t-127.5 -11q-152 0 -284.5 73t-212.5 202t-80 282z" />
    <glyph glyph-name="d" unicode="d" 
d="M68 524q0 115 39.5 218t108 177.5t166.5 118t210 43.5q229 0 369 -166v846h303v-1761h-303v143q-64 -81 -160 -128.5t-209 -47.5q-112 0 -210 43.5t-166.5 118t-108 177.5t-39.5 218zM387 524q0 -131 81 -215t210 -84q126 0 208.5 84.5t82.5 214.5q0 131 -83.5 215
t-207.5 84t-207.5 -84t-83.5 -215z" />
    <glyph glyph-name="e" unicode="e" horiz-adv-x="1259" 
d="M66 526q0 151 76.5 279t207.5 202t285 74q158 0 284 -65t200.5 -191.5t74.5 -294.5l-2 -45h-813q0 -131 86 -203.5t197 -72.5q98 0 161 30.5t129 108.5l219 -110q-164 -271 -532 -271q-116 0 -222 44t-183 119t-122.5 178.5t-45.5 217.5zM387 655h512q-12 90 -83.5 148.5
t-172.5 58.5q-109 0 -179.5 -61t-76.5 -146z" />
    <glyph glyph-name="f" unicode="f" horiz-adv-x="727" 
d="M55 1049h138v268q0 220 99.5 347.5t276.5 127.5q75 0 142.5 -21t98.5 -42l30 -21l-107 -215q-40 33 -112 33q-71 0 -98 -49t-27 -166v-262h247v-230h-247v-819h-303v819h-138v230z" />
    <glyph glyph-name="g" unicode="g" 
d="M68 524q0 115 39.5 218t108 177.5t166.5 118t210 43.5q229 0 369 -166v134h303v-1078q0 -255 -166 -394.5t-441 -139.5q-439 0 -569 305l248 121q36 -70 118 -117t203 -47q56 0 108.5 17.5t97 51t71.5 91t27 129.5v155q-64 -81 -160 -128.5t-209 -47.5q-112 0 -210 43.5
t-166.5 118t-108 177.5t-39.5 218zM387 524q0 -131 81 -215t210 -84q126 0 208.5 84.5t82.5 214.5q0 131 -83.5 215t-207.5 84t-207.5 -84t-83.5 -215z" />
    <glyph glyph-name="h" unicode="h" horiz-adv-x="1331" 
d="M143 1761h303v-831q61 70 144 110.5t168 40.5q67 0 129.5 -13.5t121.5 -44.5t102.5 -76t70 -112.5t26.5 -150.5v-684h-303v602q0 104 -58.5 174t-160.5 70q-95 0 -167.5 -70t-72.5 -158v-618h-303v1761z" />
    <glyph glyph-name="i" unicode="i" horiz-adv-x="589" 
d="M295 1628q75 0 127.5 -52.5t52.5 -127.5t-52.5 -127.5t-127.5 -52.5t-127.5 52.5t-52.5 127.5t52.5 127.5t127.5 52.5zM143 1049h303v-1049h-303v1049z" />
    <glyph glyph-name="j" unicode="j" horiz-adv-x="589" 
d="M295 1628q75 0 127.5 -52.5t52.5 -127.5t-52.5 -127.5t-127.5 -52.5t-127.5 52.5t-52.5 127.5t52.5 127.5t127.5 52.5zM143 1049h303v-1231q0 -76 -19 -141.5t-59 -120.5t-110 -87t-164 -32q-81 0 -146.5 15.5t-90.5 30.5l-25 15l94 244q44 -33 101 -33q116 0 116 164
v1176z" />
    <glyph glyph-name="k" unicode="k" horiz-adv-x="1232" 
d="M143 1761h303v-1093l367 381h391l-463 -476l539 -573h-387l-447 481v-481h-303v1761z" />
    <glyph glyph-name="l" unicode="l" horiz-adv-x="589" 
d="M143 1761h303v-1761h-303v1761z" />
    <glyph glyph-name="m" unicode="m" horiz-adv-x="2009" 
d="M143 1049h303v-119q64 71 146 111t168 40q122 0 219.5 -49.5t146.5 -150.5q74 97 166 148.5t187 51.5q83 0 154 -22.5t129 -68.5t91 -124.5t33 -181.5v-684h-301v602q0 106 -54.5 171t-162.5 65q-91 0 -146 -58.5t-55 -128.5v-651h-301v602q0 106 -54.5 171t-162.5 65
q-94 0 -148.5 -61.5t-54.5 -135.5v-641h-303v1049z" />
    <glyph glyph-name="n" unicode="n" horiz-adv-x="1331" 
d="M143 1049h303v-119q61 70 144 110.5t168 40.5q67 0 129.5 -13.5t121.5 -44.5t102.5 -76t70 -112.5t26.5 -150.5v-684h-303v602q0 104 -58.5 174t-160.5 70q-95 0 -167.5 -70t-72.5 -158v-618h-303v1049z" />
    <glyph glyph-name="o" unicode="o" horiz-adv-x="1359" 
d="M66 524q0 121 47 225t129 176.5t195.5 114t242.5 41.5t242.5 -41.5t195.5 -114t129 -176.5t47 -225t-47 -225t-129 -176.5t-195.5 -114t-242.5 -41.5t-242.5 41.5t-195.5 114t-129 176.5t-47 225zM381 524q0 -130 85.5 -214.5t213.5 -84.5t213.5 84.5t85.5 214.5
t-85.5 214.5t-213.5 84.5t-213.5 -84.5t-85.5 -214.5z" />
    <glyph glyph-name="p" unicode="p" 
d="M1333 524q0 -115 -39.5 -218t-108 -177.5t-166.5 -118t-210 -43.5q-113 0 -209 47.5t-160 128.5v-675h-303v1581h303v-134q140 166 369 166q112 0 210 -43.5t166.5 -118t108 -177.5t39.5 -218zM1014 524q0 131 -83.5 215t-207.5 84t-207.5 -84t-83.5 -215
q0 -130 82.5 -214.5t208.5 -84.5q129 0 210 84t81 215z" />
    <glyph glyph-name="q" unicode="q" 
d="M68 524q0 115 39.5 218t108 177.5t166.5 118t210 43.5q229 0 369 -166v134h303v-1581h-303v675q-64 -81 -160 -128.5t-209 -47.5q-112 0 -210 43.5t-166.5 118t-108 177.5t-39.5 218zM387 524q0 -131 81 -215t210 -84q126 0 208.5 84.5t82.5 214.5q0 131 -83.5 215
t-207.5 84t-207.5 -84t-83.5 -215z" />
    <glyph glyph-name="r" unicode="r" horiz-adv-x="966" 
d="M143 1049h303v-152q9 16 31.5 41.5t62.5 60t101 58.5t127 24q57 0 111 -14.5t79 -28.5l25 -14l-125 -256q-8 6 -22 14.5t-61 22.5t-97 14q-53 0 -96 -20t-67.5 -48t-41 -61.5t-22 -58t-5.5 -39.5v-592h-303v1049z" />
    <glyph glyph-name="s" unicode="s" horiz-adv-x="999" 
d="M565 1081q62 0 120 -10.5t95.5 -25t66 -29t41.5 -24.5l13 -11l-129 -174q-11 7 -30 17t-73.5 27t-103.5 17q-139 0 -139 -92q0 -43 43 -69.5t139 -55.5q50 -16 87.5 -30.5t84 -42.5t76.5 -60.5t51 -83.5t21 -112q0 -84 -29.5 -149t-75 -103t-109.5 -62t-124.5 -32.5
t-128.5 -8.5q-81 0 -151.5 17.5t-114 42.5t-75 50t-44.5 43l-13 17l148 174q5 -5 13.5 -13t35.5 -28t55 -35.5t69 -28.5t79 -13q62 0 104.5 26.5t42.5 89.5q0 27 -12.5 47.5t-39 36.5t-51.5 27t-68.5 27.5t-71.5 29.5q-48 23 -82.5 44.5t-71 55t-55.5 80t-19 103.5
q0 149 115 235t311 86z" />
    <glyph glyph-name="t" unicode="t" horiz-adv-x="768" 
d="M55 1049h138v393h303v-393h231v-230h-231v-424q0 -80 22 -118.5t72 -38.5q24 0 48 8t36 16l12 8l74 -243q-12 -7 -32.5 -17t-83.5 -26.5t-124 -16.5q-77 0 -136 22.5t-94.5 58.5t-58 86t-30.5 100t-8 106v479h-138v230z" />
    <glyph glyph-name="u" unicode="u" horiz-adv-x="1314" 
d="M887 1049h303v-596q0 -259 -128 -372.5t-405 -113.5t-404.5 113.5t-127.5 372.5v596h303v-527q0 -172 52.5 -240.5t176.5 -68.5t177 68.5t53 240.5v527z" />
    <glyph glyph-name="v" unicode="v" horiz-adv-x="1236" 
d="M-31 1049h357l292 -648l293 648h357l-547 -1049h-205z" />
    <glyph glyph-name="w" unicode="w" horiz-adv-x="1974" 
d="M-31 1049h348l291 -643l275 643h209l274 -643l291 643h348l-547 -1049h-205l-266 618l-266 -618h-205z" />
    <glyph glyph-name="x" unicode="x" horiz-adv-x="1245" 
d="M51 1049h352l220 -289l219 289h352l-385 -500l446 -549h-364l-268 340l-269 -340h-364l446 549z" />
    <glyph glyph-name="y" unicode="y" horiz-adv-x="1245" 
d="M-31 1049h346l328 -631l287 631h346l-795 -1581h-346l332 657z" />
    <glyph glyph-name="z" unicode="z" horiz-adv-x="1150" 
d="M106 1049h1022l-593 -816h557v-233h-1069l593 815h-510v234z" />
    <glyph glyph-name="braceleft" unicode="{" horiz-adv-x="837" 
d="M133 696q127 0 127 125v570q0 55 8.5 104t31 99t58 86t94 58.5t134.5 22.5h166v-221h-72q-71 0 -114.5 -47.5t-43.5 -126.5v-561q0 -133 -104 -191q104 -58 104 -190v-561q0 -79 43.5 -126.5t114.5 -47.5h72v-221h-166q-76 0 -134.5 22.5t-94 58.5t-58 86t-31 99
t-8.5 104v570q0 124 -127 124v164z" />
    <glyph glyph-name="bar" unicode="|" horiz-adv-x="552" 
d="M145 1761h263v-1761h-263v1761z" />
    <glyph glyph-name="braceright" unicode="}" horiz-adv-x="837" 
d="M705 696v-164q-127 0 -127 -124v-570q0 -55 -8.5 -104t-31 -99t-58 -86t-94 -58.5t-134.5 -22.5h-166v221h72q71 0 114 47.5t43 126.5v561q0 131 105 190q-105 59 -105 191v561q0 79 -43 126.5t-114 47.5h-72v221h166q76 0 134.5 -22.5t94 -58.5t58 -86t31 -99t8.5 -104
v-570q0 -125 127 -125z" />
    <glyph glyph-name="asciitilde" unicode="~" horiz-adv-x="1396" 
d="M633 750q-94 67 -158 67q-34 0 -65.5 -16.5t-52.5 -40t-37 -47t-24 -39.5l-7 -17l-160 142q5 11 15 28.5t43.5 62t71 79t96.5 62.5t120 28q80 0 148 -27t141 -80q94 -67 158 -67q34 0 65.5 16.5t52.5 39.5t37 46.5t23 40.5l8 16l160 -141q-5 -11 -15 -28.5t-43.5 -62
t-71 -79t-96.5 -62.5t-120 -28q-80 0 -145 26.5t-144 80.5z" />
    <glyph glyph-name="exclamdown" unicode="&#xa1;" horiz-adv-x="688" 
d="M494 -532h-299l38 1249h222zM344 864q-83 0 -141 58t-58 141t58 141t141 58t141 -58t58 -141t-58 -141t-141 -58z" />
    <glyph glyph-name="cent" unicode="&#xa2;" horiz-adv-x="1048" 
d="M66 524q0 188 118 335.5t299 199.5v244h187v-224q61 -2 117 -13t92.5 -25t64.5 -28.5t40 -24.5l13 -9l-106 -209q-3 3 -9 7t-26.5 15t-42.5 19.5t-56.5 15.5t-70.5 7q-126 0 -213.5 -90t-87.5 -220t87.5 -219.5t213.5 -89.5q56 0 107.5 16t74.5 32l23 16l106 -209
q-4 -3 -11 -8.5t-32.5 -20.5t-54.5 -27t-75.5 -24.5t-96.5 -18.5v-235h-186v241q-201 34 -338 188t-137 359z" />
    <glyph glyph-name="sterling" unicode="&#xa3;" horiz-adv-x="1538" 
d="M121 776h229q-57 88 -88 174t-31 201q0 119 38 222.5t108.5 181t179.5 122.5t242 45q93 0 173 -20.5t135 -51.5t100 -72.5t71.5 -79.5t46 -78t26 -61.5t9.5 -35.5l-268 -129q-4 19 -11.5 43.5t-30.5 67.5t-53 76t-82.5 58t-115.5 25q-117 0 -184.5 -88t-67.5 -225
q0 -44 5.5 -85.5t11.5 -69.5t20.5 -64.5t22 -52.5t27.5 -54t25 -49h398v-170h-334q16 -56 16 -117q0 -43 -12.5 -83.5t-27.5 -69.5l-15 -29q25 0 83.5 -23t136.5 -46t151 -23q36 0 66.5 16.5t48 38t31 49t18 44.5t6.5 28l233 -117q-2 -16 -11 -45t-35.5 -76.5t-64.5 -86.5
t-105.5 -68t-151.5 -29q-87 0 -179.5 21t-158 45.5t-144.5 45.5t-143 21q-97 0 -135 -102h-195q2 43 23.5 98t58 108t93.5 90t120 38q37 59 37 145q0 48 -31 127h-315v170z" />
    <glyph glyph-name="yen" unicode="&#xa5;" horiz-adv-x="1495" 
d="M-23 1690h383l388 -613l387 613h383l-535 -824h350v-227h-426v-158h426v-227h-426v-254h-319v254h-428v227h428v158h-428v227h352z" />
    <glyph glyph-name="brokenbar" unicode="&#xa6;" horiz-adv-x="552" 
d="M145 1761h263v-680h-263v680zM145 680h263v-680h-263v680z" />
    <glyph glyph-name="section" unicode="&#xa7;" horiz-adv-x="1310" 
d="M86 592q4 114 72 206t184 142q-95 67 -138.5 149.5t-43.5 202.5q0 87 32 163t93 136t160 94.5t223 34.5q76 0 142.5 -16.5t111.5 -42.5t82.5 -57.5t59 -62.5t36.5 -57t20 -42l6 -17l-254 -108q-1 6 -4.5 16t-18 36t-35 45.5t-59.5 35.5t-87 16q-85 0 -132 -48t-47 -118
q0 -31 17 -60t43 -51.5t72.5 -49t87 -45.5t106.5 -47q210 -89 315 -200.5t105 -271.5q0 -96 -67.5 -195.5t-188.5 -152.5q95 -69 139.5 -153.5t44.5 -204.5q0 -62 -17 -120.5t-58.5 -116t-103.5 -100t-159.5 -69t-218.5 -26.5q-87 0 -163.5 19t-128.5 48.5t-94.5 66
t-67.5 73t-42 66t-24 48.5l-6 19l256 106q2 -8 7.5 -21t27.5 -46t49.5 -58t77 -46t108.5 -21q109 0 166 46t57 124q0 77 -82 136t-258 134q-201 86 -302 195t-101 266zM365 639q1 -65 61 -115t162 -94q163 -74 188 -88q74 21 126 68t56 118q-2 40 -27 76t-72 67.5
t-94.5 55.5t-117.5 53q-9 4 -104 47q-73 -21 -124 -69t-54 -119z" />
    <glyph glyph-name="dieresis" unicode="&#xa8;" horiz-adv-x="1095" 
d="M305 1591q66 0 113 -46.5t47 -112.5t-47 -113t-113 -47t-113 47t-47 113t47 112.5t113 46.5zM788 1591q66 0 113 -46.5t47 -112.5t-47 -113t-113 -47t-112.5 47t-46.5 113t46.5 112.5t112.5 46.5z" />
    <glyph glyph-name="copyright" unicode="&#xa9;" horiz-adv-x="1878" 
d="M68 844q0 178 69.5 340.5t186.5 280t277.5 186.5t336.5 69q177 0 338.5 -69t278.5 -186.5t186 -279.5t69 -341q0 -178 -69 -340t-185.5 -279t-278 -186.5t-339.5 -69.5q-179 0 -340 69.5t-277 186.5t-184.5 279t-68.5 340zM266 844q0 -138 52.5 -263.5t142.5 -216.5
t214.5 -144.5t262.5 -53.5q137 0 261.5 53.5t214.5 144.5t143 216.5t53 263.5q0 139 -53 264.5t-143.5 216t-214.5 144t-261 53.5q-136 0 -260 -53.5t-214.5 -144t-144 -216t-53.5 -264.5zM500 846q0 125 65.5 231t173 166t230.5 60q59 0 111 -9.5t87 -24.5t55 -26t33 -22
l-77 -154q-18 14 -70 30.5t-104 16.5q-111 0 -187 -76.5t-76 -189.5q0 -115 76 -191.5t187 -76.5q58 0 103.5 15t68.5 34l79 -156q-24 -22 -105 -51t-181 -29q-123 0 -230.5 59.5t-173 164.5t-65.5 229z" />
    <glyph glyph-name="ordfeminine" unicode="&#xaa;" horiz-adv-x="1019" 
d="M139 1376q0 146 93 245t233 99q141 0 227 -102v82h187v-647h-187v88q-40 -50 -99 -79.5t-128 -29.5q-140 0 -233 99t-93 245zM338 1376q0 -80 50.5 -132t129.5 -52q77 0 127.5 52.5t50.5 131.5q0 81 -51 133t-127 52q-77 0 -128.5 -52t-51.5 -133z" />
    <glyph glyph-name="guillemotleft" unicode="&#xab;" horiz-adv-x="1228" 
d="M457 1081l161 -127l-299 -385l299 -385l-161 -127l-400 512zM969 1081l161 -127l-299 -385l299 -385l-161 -127l-400 512z" />
    <glyph glyph-name="registered" unicode="&#xae;" horiz-adv-x="1021" 
d="M53 1260q0 190 134.5 325t322.5 135q126 0 232 -61.5t167.5 -167.5t61.5 -231q0 -189 -134.5 -323t-326.5 -134q-92 0 -176.5 36.5t-146 97.5t-98 145.5t-36.5 177.5zM156 1260q0 -146 104 -249.5t250 -103.5q148 0 252 103.5t104 249.5q0 148 -104 252t-252 104
q-146 0 -250 -104t-104 -252zM371 1499h145q71 0 114.5 -37t43.5 -104q0 -53 -29.5 -90t-81.5 -49l156 -191h-107l-141 184h-18v-184h-82v471zM453 1434v-156h39q42 0 68 20t26 58t-26 58t-68 20h-39z" />
    <glyph glyph-name="macron" unicode="&#xaf;" horiz-adv-x="1122" 
d="M143 1524h836v-205h-836v205z" />
    <glyph glyph-name="degree" unicode="&#xb0;" horiz-adv-x="716" 
d="M127 1581q0 93 66.5 152t164.5 59t165 -59.5t67 -151.5t-67 -151.5t-165 -59.5t-164.5 59t-66.5 152zM256 1581q0 -45 29.5 -75.5t72.5 -30.5t73 30.5t30 75.5t-30 76t-73 31t-72.5 -30.5t-29.5 -76.5z" />
    <glyph glyph-name="plusminus" unicode="&#xb1;" horiz-adv-x="1310" 
d="M524 1374h262v-352h394v-262h-394v-354h-262v354h-393v262h393v352zM131 262h1049v-262h-1049v262z" />
    <glyph glyph-name="twosuperior" unicode="&#xb2;" horiz-adv-x="550" 
d="M70 1526q2 8 6.5 21t23 47t42.5 60t67.5 47t95.5 21q59 0 104 -15.5t71.5 -39t43 -55.5t22 -60.5t5.5 -58.5q0 -36 -17 -75t-39 -69t-57 -65t-57.5 -54t-54.5 -44t-35 -27h272v-108h-500v63q1 1 39 29.5t71 54.5t81 68.5t81.5 79t58 77t24.5 70.5q0 18 -5.5 37t-17 39.5
t-35 33.5t-55.5 13q-38 0 -70.5 -32t-45.5 -64l-13 -31z" />
    <glyph glyph-name="threesuperior" unicode="&#xb3;" horiz-adv-x="514" 
d="M61 1575q1 6 3.5 16t16.5 35t33.5 44.5t59.5 35.5t90 16q88 0 145.5 -52t57.5 -132q0 -88 -70 -129q42 -22 67 -62.5t25 -91.5q0 -89 -64 -146.5t-165 -57.5q-56 0 -100.5 16.5t-68 40.5t-38.5 47.5t-19 40.5l-5 16l114 43q1 -4 2.5 -10.5t9 -23.5t19 -30t34.5 -23.5
t52 -10.5q48 0 77.5 27t29.5 71q0 46 -31.5 77.5t-75.5 31.5l-27 -4v82h29q37 0 65.5 27.5t28.5 66.5q0 38 -27 63t-65 25t-64 -21t-33 -42l-7 -21z" />
    <glyph glyph-name="acute" unicode="&#xb4;" horiz-adv-x="1030" 
d="M246 1397l379 323l157 -200l-438 -258z" />
    <glyph glyph-name="mu" unicode="&#xb5;" horiz-adv-x="1384" 
d="M477 12v-340h-356q0 119 27.5 352.5t27.5 409.5v615h303v-603q0 -104 58.5 -173.5t160.5 -69.5q96 0 168 70t72 157v619h303v-1049h-303v119q-61 -70 -143.5 -111t-167.5 -41q-43 0 -80.5 11t-53.5 22z" />
    <glyph glyph-name="paragraph" unicode="&#xb6;" horiz-adv-x="1415" 
d="M68 1182q0 144 64 258.5t186.5 182t283.5 67.5h668v-1690h-180v1509h-111v-1509h-180v651h-197q-121 0 -222.5 43t-169 115.5t-105 169t-37.5 203.5z" />
    <glyph glyph-name="periodcentered" unicode="&#xb7;" horiz-adv-x="638" 
d="M319 750q83 0 141 -58t58 -141t-58 -141t-141 -58t-140.5 58t-57.5 141t57.5 141t140.5 58z" />
    <glyph glyph-name="cedilla" unicode="&#xb8;" horiz-adv-x="888" 
d="M307 -252l99 303l124 -39l-49 -151q11 2 27 2q106 0 175 -57t69 -154q0 -106 -76 -180t-223 -74q-52 0 -102 17t-85.5 41.5t-63.5 49t-42 41.5l-13 17l127 94q3 -4 8.5 -11t24.5 -24.5t38.5 -31t49 -24.5t58.5 -11q58 0 89 27t31 69q0 51 -39.5 79.5t-93.5 28.5
q-35 0 -64 -6t-40 -12l-12 -6z" />
    <glyph glyph-name="onesuperior" unicode="&#xb9;" horiz-adv-x="274" 
d="M29 1690h213v-639h-121v520h-92v119z" />
    <glyph glyph-name="ordmasculine" unicode="&#xba;" horiz-adv-x="1040" 
d="M133 1374q0 151 110.5 248.5t276.5 97.5t276.5 -97.5t110.5 -248.5t-110.5 -248.5t-276.5 -97.5t-276.5 97.5t-110.5 248.5zM334 1374q0 -79 53 -130.5t133 -51.5t133.5 51.5t53.5 130.5t-53.5 130.5t-133.5 51.5t-133 -51.5t-53 -130.5z" />
    <glyph glyph-name="guillemotright" unicode="&#xbb;" horiz-adv-x="1228" 
d="M610 954l162 127l399 -512l-399 -512l-162 127l299 385zM98 954l162 127l399 -512l-399 -512l-162 127l299 385z" />
    <glyph glyph-name="onequarter" unicode="&#xbc;" horiz-adv-x="1712" 
d="M180 0l983 1690h203l-983 -1690h-203zM74 1690h327v-983h-186v798h-141v185zM870 242v59l469 682h185v-580h114v-161h-114v-242h-174v242h-480zM1122 403h228v330z" />
    <glyph glyph-name="onehalf" unicode="&#xbd;" horiz-adv-x="1912" 
d="M180 0l983 1690h203l-983 -1690h-203zM127 1690h328v-983h-187v798h-141v185zM1067 698q2 6 5 16.5t16 40.5t29.5 57t45.5 60.5t62.5 57.5t82.5 40.5t105 16.5q86 0 153 -23t105.5 -57.5t63 -81t33 -88.5t8.5 -86q0 -45 -16.5 -92.5t-48.5 -92.5t-62.5 -81.5t-77 -77.5
t-71 -61.5t-65.5 -51.5t-42 -32h399v-162h-733v92q3 2 46 34.5t83 64.5t99 80.5t106.5 96t91.5 98t69 99t25 86.5q0 25 -7.5 53t-25 57.5t-52 48.5t-81.5 19q-35 0 -67 -19t-53.5 -46.5t-37.5 -55t-23 -46.5l-7 -19z" />
    <glyph glyph-name="threequarters" unicode="&#xbe;" horiz-adv-x="1955" 
d="M424 0l983 1690h203l-983 -1690h-203zM1114 242v59l469 682h184v-580h115v-161h-115v-242h-174v242h-479zM1366 403h227v330zM121 1479q1 9 5 23.5t25 52t51 66t89 52t135 23.5q129 0 215 -78.5t86 -196.5q0 -62 -28 -111t-76 -79q64 -33 99.5 -91.5t35.5 -135.5
q0 -132 -94.5 -218t-245.5 -86q-61 0 -113 13t-86.5 34.5t-62 47t-42.5 51t-25.5 47t-13.5 34.5l-3 13l172 66q1 -6 3 -16t13.5 -35t28.5 -44t51 -35t78 -16q71 0 114 39t43 105q0 69 -45.5 114t-111.5 45l-39 -4v121h43q56 0 97.5 40.5t41.5 100.5q0 54 -41 90.5t-98 36.5
q-35 0 -63.5 -12.5t-44.5 -30t-27.5 -35.5t-14.5 -30l-4 -13z" />
    <glyph glyph-name="questiondown" unicode="&#xbf;" horiz-adv-x="1210" 
d="M1155 -121q-9 -67 -34 -129t-70.5 -119.5t-106.5 -100t-147 -68t-187 -25.5q-111 0 -205 32.5t-156.5 85t-106.5 120t-63.5 136.5t-19.5 136q0 74 25.5 150.5t75 147t134.5 124t193 73.5v197h283v-463q-48 14 -154 14q-58 0 -106 -15.5t-78 -40.5t-50.5 -57.5t-29 -65
t-8.5 -64.5q0 -42 14.5 -83t44.5 -77.5t83.5 -59t123.5 -22.5q138 0 208 63t87 164zM629 793q-83 0 -141 57.5t-58 140.5t58 141t141 58t140.5 -58t57.5 -141t-57.5 -140.5t-140.5 -57.5z" />
    <glyph glyph-name="Agrave" unicode="&#xc0;" horiz-adv-x="1556" 
d="M444 395l-147 -395h-342l676 1690h295l676 -1690h-342l-148 395h-668zM1001 676l-223 581l-223 -581h446zM340 2099l158 201l379 -324l-99 -135z" />
    <glyph glyph-name="Aacute" unicode="&#xc1;" horiz-adv-x="1556" 
d="M444 395l-147 -395h-342l676 1690h295l676 -1690h-342l-148 395h-668zM1001 676l-223 581l-223 -581h446zM680 1976l379 324l158 -201l-439 -258z" />
    <glyph glyph-name="Acircumflex" unicode="&#xc2;" horiz-adv-x="1556" 
d="M444 395l-147 -395h-342l676 1690h295l676 -1690h-342l-148 395h-668zM1001 676l-223 581l-223 -581h446zM346 1999l432 315l432 -315l-118 -158l-314 230l-313 -230z" />
    <glyph glyph-name="Atilde" unicode="&#xc3;" horiz-adv-x="1556" 
d="M444 395l-147 -395h-342l676 1690h295l676 -1690h-342l-148 395h-668zM1001 676l-223 581l-223 -581h446zM1188 2304l160 -141q-8 -15 -11.5 -21t-24.5 -37.5t-38.5 -52t-50 -52t-63.5 -50t-73.5 -33t-85.5 -14.5q-79 0 -143 26.5t-145 79.5q-96 68 -158 68
q-28 0 -54.5 -11t-44.5 -26.5t-35 -36.5t-26 -37t-17 -32t-9 -17l-160 141q104 187 246 241q49 19 100 19q79 0 144 -26.5t145 -79.5q96 -68 157 -68q28 0 54.5 11t44.5 26.5t35.5 37t26 37t17.5 31.5t9 17z" />
    <glyph glyph-name="Adieresis" unicode="&#xc4;" horiz-adv-x="1556" 
d="M444 395l-147 -395h-342l676 1690h295l676 -1690h-342l-148 395h-668zM1001 676l-223 581l-223 -581h446zM537 2230q66 0 112.5 -46.5t46.5 -112.5t-46.5 -113t-112.5 -47t-113 47t-47 113t47 112.5t113 46.5zM1020 2230q66 0 113 -46.5t47 -112.5t-47 -113t-113 -47
t-113 47t-47 113t47 112.5t113 46.5z" />
    <glyph glyph-name="Aring" unicode="&#xc5;" horiz-adv-x="1556" 
d="M444 395l-147 -395h-342l676 1690h295l676 -1690h-342l-148 395h-668zM1001 676l-223 581l-223 -581h446zM475 2138q0 116 87 192t216 76t216 -76t87 -192t-87 -192t-216 -76t-216 76t-87 192zM649 2138q0 -53 37.5 -90t91.5 -37t91.5 37t37.5 90t-37.5 90t-91.5 37
t-91.5 -37t-37.5 -90z" />
    <glyph glyph-name="Ccedilla" unicode="&#xc7;" horiz-adv-x="1572" 
d="M668 -252l80 248q-191 49 -345.5 170.5t-244.5 299.5t-90 378q0 143 47.5 277.5t132.5 241.5t197.5 188t249.5 125t280 44q103 0 198 -16.5t157 -40t109 -47.5t68 -40l21 -17l-158 -256q-5 4 -15.5 11t-44.5 24.5t-71.5 31t-96 24.5t-118.5 11q-146 0 -265 -49t-192 -130
t-112 -179.5t-39 -202.5t39 -202.5t112 -179.5t192 -130t265 -49q60 0 118 10.5t97.5 25.5t70 30t45.5 25l15 11l158 -256q-8 -7 -22.5 -17.5t-66 -38.5t-110.5 -49.5t-155 -39t-199 -17.5q-49 0 -98 6l-35 -112q10 2 26 2q106 0 175 -57t69 -154q0 -106 -76 -180t-223 -74
q-52 0 -102 17t-85 41.5t-63 49t-41 41.5l-14 17l127 94q3 -4 8.5 -11t24 -24.5t38 -31t49 -24.5t58.5 -11q58 0 89.5 27t31.5 69q0 51 -39.5 79.5t-93.5 28.5q-35 0 -64 -6t-41 -12l-12 -6z" />
    <glyph glyph-name="Egrave" unicode="&#xc8;" horiz-adv-x="1187" 
d="M145 1690h934v-281h-614v-422h590v-280h-590v-426h614v-281h-934v1690zM283 2099l157 201l379 -324l-98 -135z" />
    <glyph glyph-name="Eacute" unicode="&#xc9;" horiz-adv-x="1187" 
d="M145 1690h934v-281h-614v-422h590v-280h-590v-426h614v-281h-934v1690zM406 1976l378 324l158 -201l-438 -258z" />
    <glyph glyph-name="Ecircumflex" unicode="&#xca;" horiz-adv-x="1187" 
d="M145 1690h934v-281h-614v-422h590v-280h-590v-426h614v-281h-934v1690zM180 1999l432 315l432 -315l-118 -158l-314 230l-313 -230z" />
    <glyph glyph-name="Edieresis" unicode="&#xcb;" horiz-adv-x="1187" 
d="M145 1690h934v-281h-614v-422h590v-280h-590v-426h614v-281h-934v1690zM371 2230q66 0 112.5 -46.5t46.5 -112.5t-46.5 -113t-112.5 -47t-113 47t-47 113t47 112.5t113 46.5zM854 2230q66 0 113 -46.5t47 -112.5t-47 -113t-113 -47t-113 47t-47 113t47 112.5t113 46.5z
" />
    <glyph glyph-name="Igrave" unicode="&#xcc;" horiz-adv-x="610" 
d="M145 1690h320v-1690h-320v1690zM-133 2099l158 201l378 -324l-98 -135z" />
    <glyph glyph-name="Iacute" unicode="&#xcd;" horiz-adv-x="610" 
d="M145 1690h320v-1690h-320v1690zM207 1976l379 324l157 -201l-438 -258z" />
    <glyph glyph-name="Icircumflex" unicode="&#xce;" horiz-adv-x="610" 
d="M145 1690h320v-1690h-320v1690zM-127 1999l432 315l432 -315l-119 -158l-313 230l-313 -230z" />
    <glyph glyph-name="Idieresis" unicode="&#xcf;" horiz-adv-x="610" 
d="M145 1690h320v-1690h-320v1690zM63 2230q66 0 113 -46.5t47 -112.5t-47 -113t-113 -47t-112.5 47t-46.5 113t46.5 112.5t112.5 46.5zM547 2230q66 0 113 -46.5t47 -112.5t-47 -113t-113 -47t-113 47t-47 113t47 112.5t113 46.5z" />
    <glyph glyph-name="Eth" unicode="&#xd0;" horiz-adv-x="1523" 
d="M-20 715v260h165v715h459q172 0 328 -63.5t271.5 -174t184 -269.5t68.5 -339q0 -181 -68 -339.5t-183.5 -268.5t-271.5 -173t-329 -63h-459v715h-165zM465 1405v-430h289v-260h-289v-430h102q155 0 280 73t195 200.5t70 285.5q0 240 -155 400.5t-390 160.5h-102z" />
    <glyph glyph-name="Ntilde" unicode="&#xd1;" horiz-adv-x="1675" 
d="M145 1690h320l745 -1155v1155h320v-1690h-320l-745 1155v-1155h-320v1690zM1247 2310l160 -141q-104 -187 -246 -241q-49 -19 -100 -19q-79 0 -144 26.5t-145 79.5q-96 68 -158 68q-28 0 -54.5 -11t-44.5 -26.5t-35 -36.5t-26 -37t-17 -32t-9 -17l-160 141
q104 187 246 241q49 19 100 19q79 0 144 -26.5t145 -79.5q96 -68 158 -68q28 0 54.5 11t44.5 26.5t35 36.5t26 37t17 32t9 17z" />
    <glyph glyph-name="Ograve" unicode="&#xd2;" horiz-adv-x="1839" 
d="M68 844q0 182 68 345t183 279t272 184t329 68t329 -68t272 -184t183 -279t68 -345t-68 -345t-183 -279.5t-272 -184.5t-329 -68t-329 68t-272 184.5t-183 279.5t-68 345zM414 844q0 -89 21 -172.5t64 -155.5t102.5 -126t141.5 -85t177 -31q118 0 215 47.5t159.5 127
t96.5 181.5t34 214t-34 213.5t-96.5 181.5t-159.5 127t-215 47t-215.5 -47.5t-160 -127t-96.5 -181t-34 -213.5zM590 2099l158 201l378 -324l-98 -135z" />
    <glyph glyph-name="Oacute" unicode="&#xd3;" horiz-adv-x="1839" 
d="M68 844q0 182 68 345t183 279t272 184t329 68t329 -68t272 -184t183 -279t68 -345t-68 -345t-183 -279.5t-272 -184.5t-329 -68t-329 68t-272 184.5t-183 279.5t-68 345zM414 844q0 -89 21 -172.5t64 -155.5t102.5 -126t141.5 -85t177 -31q118 0 215 47.5t159.5 127
t96.5 181.5t34 214t-34 213.5t-96.5 181.5t-159.5 127t-215 47t-215.5 -47.5t-160 -127t-96.5 -181t-34 -213.5zM713 1976l379 324l157 -201l-438 -258z" />
    <glyph glyph-name="Ocircumflex" unicode="&#xd4;" horiz-adv-x="1839" 
d="M68 844q0 182 68 345t183 279t272 184t329 68t329 -68t272 -184t183 -279t68 -345t-68 -345t-183 -279.5t-272 -184.5t-329 -68t-329 68t-272 184.5t-183 279.5t-68 345zM414 844q0 -89 21 -172.5t64 -155.5t102.5 -126t141.5 -85t177 -31q118 0 215 47.5t159.5 127
t96.5 181.5t34 214t-34 213.5t-96.5 181.5t-159.5 127t-215 47t-215.5 -47.5t-160 -127t-96.5 -181t-34 -213.5zM487 1999l433 315l432 -315l-119 -158l-313 230l-314 -230z" />
    <glyph glyph-name="Otilde" unicode="&#xd5;" horiz-adv-x="1839" 
d="M68 844q0 182 68 345t183 279t272 184t329 68t329 -68t272 -184t183 -279t68 -345t-68 -345t-183 -279.5t-272 -184.5t-329 -68t-329 68t-272 184.5t-183 279.5t-68 345zM414 844q0 -89 21 -172.5t64 -155.5t102.5 -126t141.5 -85t177 -31q118 0 215 47.5t159.5 127
t96.5 181.5t34 214t-34 213.5t-96.5 181.5t-159.5 127t-215 47t-215.5 -47.5t-160 -127t-96.5 -181t-34 -213.5zM1329 2286l160 -142q-104 -187 -246 -241q-49 -19 -100 -19q-79 0 -143.5 26.5t-145.5 80.5q-94 67 -158 67q-28 0 -54.5 -11t-44.5 -26.5t-35 -36.5t-26 -37
t-17 -32t-9 -17l-160 142q104 187 246 241q49 19 100 19q79 0 143.5 -26.5t145.5 -80.5q94 -67 158 -67q28 0 54.5 11t44.5 26.5t35 36.5t26 37t17 32t9 17z" />
    <glyph glyph-name="Odieresis" unicode="&#xd6;" horiz-adv-x="1839" 
d="M68 844q0 182 68 345t183 279t272 184t329 68t329 -68t272 -184t183 -279t68 -345t-68 -345t-183 -279.5t-272 -184.5t-329 -68t-329 68t-272 184.5t-183 279.5t-68 345zM414 844q0 -89 21 -172.5t64 -155.5t102.5 -126t141.5 -85t177 -31q118 0 215 47.5t159.5 127
t96.5 181.5t34 214t-34 213.5t-96.5 181.5t-159.5 127t-215 47t-215.5 -47.5t-160 -127t-96.5 -181t-34 -213.5zM678 2230q66 0 113 -46.5t47 -112.5t-47 -113t-113 -47t-113 47t-47 113t47 112.5t113 46.5zM1161 2230q66 0 113 -46.5t47 -112.5t-47 -113t-113 -47t-113 47
t-47 113t47 112.5t113 46.5z" />
    <glyph glyph-name="multiply" unicode="&#xd7;" horiz-adv-x="1257" 
d="M115 1182l184 182l330 -332l329 332l185 -182l-330 -332l330 -332l-185 -182l-329 332l-330 -332l-184 182l329 332z" />
    <glyph glyph-name="Oslash" unicode="&#xd8;" horiz-adv-x="1839" 
d="M68 844q0 182 68 345t183 279t272 184t329 68q236 0 438 -125l110 140l193 -148l-117 -147q108 -118 168 -271.5t60 -324.5q0 -182 -68 -345t-183 -279.5t-272 -184.5t-329 -68q-241 0 -443 125l-106 -135l-193 147l115 144q-107 120 -166 272.5t-59 323.5zM1425 844
q0 188 -90 334l-663 -840q109 -64 248 -64q118 0 215 47.5t159.5 127t96.5 181.5t34 214zM414 844q0 -187 86 -332l663 838q-110 63 -243 63q-118 0 -215.5 -47.5t-160 -127t-96.5 -181t-34 -213.5z" />
    <glyph glyph-name="Ugrave" unicode="&#xd9;" horiz-adv-x="1527" 
d="M127 1690h319v-1000q0 -222 76 -314.5t242 -92.5q165 0 241 92.5t76 314.5v1000h320v-1090q0 -313 -162 -473t-475 -160t-475 160t-162 473v1090zM434 2099l158 201l379 -324l-99 -135z" />
    <glyph glyph-name="Uacute" unicode="&#xda;" horiz-adv-x="1527" 
d="M127 1690h319v-1000q0 -222 76 -314.5t242 -92.5q165 0 241 92.5t76 314.5v1000h320v-1090q0 -313 -162 -473t-475 -160t-475 160t-162 473v1090zM557 1976l379 324l158 -201l-439 -258z" />
    <glyph glyph-name="Ucircumflex" unicode="&#xdb;" horiz-adv-x="1527" 
d="M127 1690h319v-1000q0 -222 76 -314.5t242 -92.5q165 0 241 92.5t76 314.5v1000h320v-1090q0 -313 -162 -473t-475 -160t-475 160t-162 473v1090zM332 1999l432 315l432 -315l-119 -158l-313 230l-313 -230z" />
    <glyph glyph-name="Udieresis" unicode="&#xdc;" horiz-adv-x="1527" 
d="M127 1690h319v-1000q0 -222 76 -314.5t242 -92.5q165 0 241 92.5t76 314.5v1000h320v-1090q0 -313 -162 -473t-475 -160t-475 160t-162 473v1090zM522 2230q66 0 113 -46.5t47 -112.5t-47 -113t-113 -47t-113 47t-47 113t47 112.5t113 46.5zM1006 2230q66 0 112.5 -46.5
t46.5 -112.5t-46.5 -113t-112.5 -47t-113 47t-47 113t47 112.5t113 46.5z" />
    <glyph glyph-name="Yacute" unicode="&#xdd;" horiz-adv-x="1449" 
d="M-45 1690h383l387 -613l387 613h383l-610 -940v-750h-320v750zM498 1976l379 324l157 -201l-438 -258z" />
    <glyph glyph-name="Thorn" unicode="&#xde;" horiz-adv-x="1490" 
d="M145 1690h320v-328h246q257 0 412 -131.5t155 -376.5q0 -246 -156.5 -388t-410.5 -142h-246v-324h-320v1690zM465 1106v-524h147q145 0 233.5 65t88.5 197q0 133 -88 197.5t-234 64.5h-147z" />
    <glyph glyph-name="germandbls" unicode="&#xdf;" horiz-adv-x="1335" 
d="M195 1290q0 143 70 259t184.5 179.5t248.5 63.5q223 0 366.5 -140.5t143.5 -348.5q0 -122 -58.5 -215.5t-160.5 -145.5q132 -57 207.5 -167.5t75.5 -262.5q0 -271 -171.5 -408t-475.5 -137v277q153 0 240 70t87 212q0 143 -87.5 218t-239.5 75v234q131 0 215 63.5
t84 186.5q0 106 -61.5 169.5t-164.5 63.5q-202 0 -202 -319v-1217h-301v688h-136v232h136v370z" />
    <glyph glyph-name="agrave" unicode="&#xe0;" 
d="M68 524q0 115 39.5 218t108 177.5t166.5 118t210 43.5q229 0 369 -166v134h303v-1049h-303v143q-64 -81 -160 -128.5t-209 -47.5q-112 0 -210 43.5t-166.5 118t-108 177.5t-39.5 218zM387 524q0 -131 81 -215t210 -84q126 0 208.5 84.5t82.5 214.5q0 131 -83.5 215
t-207.5 84t-207.5 -84t-83.5 -215zM356 1458l158 201l379 -324l-98 -135z" />
    <glyph glyph-name="aacute" unicode="&#xe1;" 
d="M68 524q0 115 39.5 218t108 177.5t166.5 118t210 43.5q229 0 369 -166v134h303v-1049h-303v143q-64 -81 -160 -128.5t-209 -47.5q-112 0 -210 43.5t-166.5 118t-108 177.5t-39.5 218zM387 524q0 -131 81 -215t210 -84q126 0 208.5 84.5t82.5 214.5q0 131 -83.5 215
t-207.5 84t-207.5 -84t-83.5 -215zM438 1337l379 324l158 -201l-438 -258z" />
    <glyph glyph-name="acircumflex" unicode="&#xe2;" 
d="M68 524q0 115 39.5 218t108 177.5t166.5 118t210 43.5q229 0 369 -166v134h303v-1049h-303v143q-64 -81 -160 -128.5t-209 -47.5q-112 0 -210 43.5t-166.5 118t-108 177.5t-39.5 218zM387 524q0 -131 81 -215t210 -84q126 0 208.5 84.5t82.5 214.5q0 131 -83.5 215
t-207.5 84t-207.5 -84t-83.5 -215zM233 1360l433 315l432 -315l-119 -158l-313 230l-314 -230z" />
    <glyph glyph-name="atilde" unicode="&#xe3;" 
d="M68 524q0 115 39.5 218t108 177.5t166.5 118t210 43.5q229 0 369 -166v134h303v-1049h-303v143q-64 -81 -160 -128.5t-209 -47.5q-112 0 -210 43.5t-166.5 118t-108 177.5t-39.5 218zM387 524q0 -131 81 -215t210 -84q126 0 208.5 84.5t82.5 214.5q0 131 -83.5 215
t-207.5 84t-207.5 -84t-83.5 -215zM1075 1647l160 -142q-104 -187 -246 -241q-49 -19 -100 -19q-79 0 -143.5 26.5t-145.5 80.5q-94 67 -158 67q-28 0 -54.5 -11t-44.5 -26.5t-35 -36.5t-26 -36.5t-17 -31.5t-9 -17l-160 141q104 187 246 241q49 19 100 19q79 0 143.5 -26.5
t145.5 -80.5q94 -67 158 -67q28 0 54.5 11t44.5 26.5t35 36.5t26 37t17 32t9 17z" />
    <glyph glyph-name="adieresis" unicode="&#xe4;" 
d="M68 524q0 115 39.5 218t108 177.5t166.5 118t210 43.5q229 0 369 -166v134h303v-1049h-303v143q-64 -81 -160 -128.5t-209 -47.5q-112 0 -210 43.5t-166.5 118t-108 177.5t-39.5 218zM387 524q0 -131 81 -215t210 -84q126 0 208.5 84.5t82.5 214.5q0 131 -83.5 215
t-207.5 84t-207.5 -84t-83.5 -215zM424 1591q66 0 113 -46.5t47 -112.5t-47 -113t-113 -47t-113 47t-47 113t47 112.5t113 46.5zM907 1591q66 0 113 -46.5t47 -112.5t-47 -113t-113 -47t-112.5 47t-46.5 113t46.5 112.5t112.5 46.5z" />
    <glyph glyph-name="aring" unicode="&#xe5;" 
d="M68 524q0 115 39.5 218t108 177.5t166.5 118t210 43.5q229 0 369 -166v134h303v-1049h-303v143q-64 -81 -160 -128.5t-209 -47.5q-112 0 -210 43.5t-166.5 118t-108 177.5t-39.5 218zM387 524q0 -131 81 -215t210 -84q126 0 208.5 84.5t82.5 214.5q0 131 -83.5 215
t-207.5 84t-207.5 -84t-83.5 -215zM362 1499q0 116 87.5 192t216.5 76t216 -76t87 -192t-87 -192t-216 -76t-216.5 76t-87.5 192zM537 1499q0 -53 37.5 -90t91.5 -37t91.5 37t37.5 90t-37.5 90t-91.5 37t-91.5 -37t-37.5 -90z" />
    <glyph glyph-name="ccedilla" unicode="&#xe7;" horiz-adv-x="1050" 
d="M399 -252l78 244q-178 54 -293.5 199t-115.5 333q0 153 80 282t212.5 202t284.5 73q66 0 127 -10.5t100.5 -25.5t69.5 -30t44 -25l13 -11l-106 -209q-3 3 -9 7t-26.5 15t-42.5 19.5t-56.5 15.5t-70.5 7q-126 0 -213.5 -90t-87.5 -220t87.5 -219.5t213.5 -89.5
q56 0 107.5 16t74.5 32l23 16l106 -209q-5 -4 -14.5 -11t-42.5 -25t-70.5 -31.5t-99 -24.5t-127.5 -11q-25 0 -37 2l-35 -108q11 2 27 2q106 0 175 -57t69 -154q0 -106 -76 -180t-223 -74q-52 0 -102 17t-85 41.5t-63 49t-41 41.5l-14 17l127 94q3 -4 8.5 -11t24 -24.5
t38 -31t49 -24.5t58.5 -11q58 0 89.5 27t31.5 69q0 51 -40 79.5t-94 28.5q-35 0 -64 -6t-40 -12l-12 -6z" />
    <glyph glyph-name="egrave" unicode="&#xe8;" horiz-adv-x="1259" 
d="M66 526q0 151 76.5 279t207.5 202t285 74q158 0 284 -65t200.5 -191.5t74.5 -294.5l-2 -45h-813q0 -131 86 -203.5t197 -72.5q98 0 161 30.5t129 108.5l219 -110q-164 -271 -532 -271q-116 0 -222 44t-183 119t-122.5 178.5t-45.5 217.5zM387 655h512q-12 90 -83.5 148.5
t-172.5 58.5q-109 0 -179.5 -61t-76.5 -146zM326 1460l157 201l379 -324l-98 -135z" />
    <glyph glyph-name="eacute" unicode="&#xe9;" horiz-adv-x="1259" 
d="M66 526q0 151 76.5 279t207.5 202t285 74q158 0 284 -65t200.5 -191.5t74.5 -294.5l-2 -45h-813q0 -131 86 -203.5t197 -72.5q98 0 161 30.5t129 108.5l219 -110q-164 -271 -532 -271q-116 0 -222 44t-183 119t-122.5 178.5t-45.5 217.5zM387 655h512q-12 90 -83.5 148.5
t-172.5 58.5q-109 0 -179.5 -61t-76.5 -146zM408 1337l378 324l158 -201l-438 -258z" />
    <glyph glyph-name="ecircumflex" unicode="&#xea;" horiz-adv-x="1259" 
d="M66 526q0 151 76.5 279t207.5 202t285 74q158 0 284 -65t200.5 -191.5t74.5 -294.5l-2 -45h-813q0 -131 86 -203.5t197 -72.5q98 0 161 30.5t129 108.5l219 -110q-164 -271 -532 -271q-116 0 -222 44t-183 119t-122.5 178.5t-45.5 217.5zM387 655h512q-12 90 -83.5 148.5
t-172.5 58.5q-109 0 -179.5 -61t-76.5 -146zM203 1360l432 315l432 -315l-119 -158l-313 230l-313 -230z" />
    <glyph glyph-name="edieresis" unicode="&#xeb;" horiz-adv-x="1259" 
d="M66 526q0 151 76.5 279t207.5 202t285 74q158 0 284 -65t200.5 -191.5t74.5 -294.5l-2 -45h-813q0 -131 86 -203.5t197 -72.5q98 0 161 30.5t129 108.5l219 -110q-164 -271 -532 -271q-116 0 -222 44t-183 119t-122.5 178.5t-45.5 217.5zM387 655h512q-12 90 -83.5 148.5
t-172.5 58.5q-109 0 -179.5 -61t-76.5 -146zM393 1563q66 0 113 -47t47 -113t-47 -113t-113 -47t-113 47t-47 113t47 113t113 47zM877 1563q66 0 112.5 -47t46.5 -113t-46.5 -113t-112.5 -47t-113 47t-47 113t47 113t113 47z" />
    <glyph glyph-name="igrave" unicode="&#xec;" horiz-adv-x="589" 
d="M143 1049h303v-1049h-303v1049zM-143 1460l157 201l379 -324l-98 -135z" />
    <glyph glyph-name="iacute" unicode="&#xed;" horiz-adv-x="589" 
d="M143 1049h303v-1049h-303v1049zM197 1337l378 324l158 -201l-438 -258z" />
    <glyph glyph-name="icircumflex" unicode="&#xee;" horiz-adv-x="589" 
d="M143 1049h303v-1049h-303v1049zM-137 1360l432 315l432 -315l-119 -158l-313 230l-313 -230z" />
    <glyph glyph-name="idieresis" unicode="&#xef;" horiz-adv-x="589" 
d="M143 1049h303v-1049h-303v1049zM53 1565q66 0 113 -47t47 -113t-47 -113t-113 -47t-112.5 47t-46.5 113t46.5 113t112.5 47zM537 1565q66 0 112.5 -47t46.5 -113t-46.5 -113t-112.5 -47t-113 47t-47 113t47 113t113 47z" />
    <glyph glyph-name="eth" unicode="&#xf0;" horiz-adv-x="1406" 
d="M96 524q0 99 32 188.5t86 155.5t123 115t145 73.5t149 24.5q59 0 128.5 -20t114.5 -60q-89 202 -270 338l-168 -165l-133 133l131 133q-41 21 -84.5 39.5t-71 28.5t-52.5 18.5t-29 9.5l73 256q1 0 28 -8.5t59 -19.5t76 -28t98 -41.5t106 -52.5l151 150l134 -135
l-117 -117q110 -80 199 -176.5t164.5 -221.5t117 -283t41.5 -335q0 -120 -46.5 -223.5t-127.5 -176.5t-194.5 -115t-243.5 -42q-274 0 -446.5 156.5t-172.5 400.5zM414 524q0 -131 83 -214t216 -83q129 0 213 83.5t84 213.5q0 129 -86 214t-211 85q-128 0 -213.5 -84.5
t-85.5 -214.5z" />
    <glyph glyph-name="ntilde" unicode="&#xf1;" horiz-adv-x="1331" 
d="M143 1049h303v-119q61 70 144 110.5t168 40.5q67 0 129.5 -13.5t121.5 -44.5t102.5 -76t70 -112.5t26.5 -150.5v-684h-303v602q0 104 -58.5 174t-160.5 70q-95 0 -167.5 -70t-72.5 -158v-618h-303v1049zM1085 1632l160 -141q-104 -187 -246 -241q-49 -19 -100 -19
q-79 0 -144 26.5t-145 79.5q-96 68 -157 68q-28 0 -54.5 -11t-44.5 -26.5t-35.5 -37t-26 -37t-17.5 -31.5t-9 -17l-160 141q100 180 236 238q54 23 111 23q79 0 143 -26.5t145 -80.5q94 -67 158 -67q28 0 54.5 11t44.5 26.5t35 36.5t26 36.5t17 31.5t9 17z" />
    <glyph glyph-name="ograve" unicode="&#xf2;" horiz-adv-x="1359" 
d="M66 524q0 121 47 225t129 176.5t195.5 114t242.5 41.5t242.5 -41.5t195.5 -114t129 -176.5t47 -225t-47 -225t-129 -176.5t-195.5 -114t-242.5 -41.5t-242.5 41.5t-195.5 114t-129 176.5t-47 225zM381 524q0 -130 85.5 -214.5t213.5 -84.5t213.5 84.5t85.5 214.5
t-85.5 214.5t-213.5 84.5t-213.5 -84.5t-85.5 -214.5zM371 1460l157 201l379 -324l-98 -135z" />
    <glyph glyph-name="oacute" unicode="&#xf3;" horiz-adv-x="1359" 
d="M66 524q0 121 47 225t129 176.5t195.5 114t242.5 41.5t242.5 -41.5t195.5 -114t129 -176.5t47 -225t-47 -225t-129 -176.5t-195.5 -114t-242.5 -41.5t-242.5 41.5t-195.5 114t-129 176.5t-47 225zM381 524q0 -130 85.5 -214.5t213.5 -84.5t213.5 84.5t85.5 214.5
t-85.5 214.5t-213.5 84.5t-213.5 -84.5t-85.5 -214.5zM453 1337l378 324l158 -201l-438 -258z" />
    <glyph glyph-name="ocircumflex" unicode="&#xf4;" horiz-adv-x="1359" 
d="M66 524q0 121 47 225t129 176.5t195.5 114t242.5 41.5t242.5 -41.5t195.5 -114t129 -176.5t47 -225t-47 -225t-129 -176.5t-195.5 -114t-242.5 -41.5t-242.5 41.5t-195.5 114t-129 176.5t-47 225zM381 524q0 -130 85.5 -214.5t213.5 -84.5t213.5 84.5t85.5 214.5
t-85.5 214.5t-213.5 84.5t-213.5 -84.5t-85.5 -214.5zM248 1360l432 315l432 -315l-119 -158l-313 230l-313 -230z" />
    <glyph glyph-name="otilde" unicode="&#xf5;" horiz-adv-x="1359" 
d="M66 524q0 121 47 225t129 176.5t195.5 114t242.5 41.5t242.5 -41.5t195.5 -114t129 -176.5t47 -225t-47 -225t-129 -176.5t-195.5 -114t-242.5 -41.5t-242.5 41.5t-195.5 114t-129 176.5t-47 225zM381 524q0 -130 85.5 -214.5t213.5 -84.5t213.5 84.5t85.5 214.5
t-85.5 214.5t-213.5 84.5t-213.5 -84.5t-85.5 -214.5zM1090 1591l159 -141q-104 -187 -246 -241q-49 -19 -100 -19q-79 0 -144 26.5t-145 79.5q-96 68 -157 68q-28 0 -54.5 -11t-44.5 -26.5t-35.5 -37t-26 -37t-17.5 -31.5t-9 -17l-159 142q104 187 246 241q49 19 100 19
q79 0 143 -26.5t145 -80.5q94 -67 158 -67q28 0 54.5 11t44.5 26.5t35.5 36.5t26 36.5t17.5 31.5t9 17z" />
    <glyph glyph-name="odieresis" unicode="&#xf6;" horiz-adv-x="1359" 
d="M66 524q0 121 47 225t129 176.5t195.5 114t242.5 41.5t242.5 -41.5t195.5 -114t129 -176.5t47 -225t-47 -225t-129 -176.5t-195.5 -114t-242.5 -41.5t-242.5 41.5t-195.5 114t-129 176.5t-47 225zM381 524q0 -130 85.5 -214.5t213.5 -84.5t213.5 84.5t85.5 214.5
t-85.5 214.5t-213.5 84.5t-213.5 -84.5t-85.5 -214.5zM438 1591q66 0 113 -46.5t47 -112.5t-47 -113t-113 -47t-112.5 47t-46.5 113t46.5 112.5t112.5 46.5zM922 1591q66 0 112.5 -46.5t46.5 -112.5t-46.5 -113t-112.5 -47t-113 47t-47 113t47 112.5t113 46.5z" />
    <glyph glyph-name="divide" unicode="&#xf7;" horiz-adv-x="1310" 
d="M655 1462q60 0 102 -41.5t42 -101.5t-42 -101.5t-102 -41.5t-101.5 41.5t-41.5 101.5t41.5 101.5t101.5 41.5zM131 981h1049v-262h-1049v262zM655 522q60 0 102 -41.5t42 -101.5t-42 -101.5t-102 -41.5t-101.5 41.5t-41.5 101.5t41.5 101.5t101.5 41.5z" />
    <glyph glyph-name="oslash" unicode="&#xf8;" horiz-adv-x="1361" 
d="M68 524q0 121 47 225t129 176.5t195.5 114t242.5 41.5q242 0 416 -137l186 152l82 -99l-178 -145q108 -143 108 -328q0 -121 -47 -225t-129 -176.5t-195.5 -114t-242.5 -41.5q-246 0 -418 139l-190 -153l-80 98l180 146q-106 140 -106 327zM489 289q80 -64 193 -64
q128 0 213.5 84.5t85.5 214.5q0 67 -31 138zM383 524q0 -69 29 -135l458 371q-78 63 -188 63q-128 0 -213.5 -84.5t-85.5 -214.5z" />
    <glyph glyph-name="ugrave" unicode="&#xf9;" horiz-adv-x="1314" 
d="M887 1049h303v-596q0 -259 -128 -372.5t-405 -113.5t-404.5 113.5t-127.5 372.5v596h303v-527q0 -172 52.5 -240.5t176.5 -68.5t177 68.5t53 240.5v527zM348 1458l158 201l379 -324l-99 -135z" />
    <glyph glyph-name="uacute" unicode="&#xfa;" horiz-adv-x="1314" 
d="M887 1049h303v-596q0 -259 -128 -372.5t-405 -113.5t-404.5 113.5t-127.5 372.5v596h303v-527q0 -172 52.5 -240.5t176.5 -68.5t177 68.5t53 240.5v527zM430 1337l379 324l158 -201l-439 -258z" />
    <glyph glyph-name="ucircumflex" unicode="&#xfb;" horiz-adv-x="1314" 
d="M887 1049h303v-596q0 -259 -128 -372.5t-405 -113.5t-404.5 113.5t-127.5 372.5v596h303v-527q0 -172 52.5 -240.5t176.5 -68.5t177 68.5t53 240.5v527zM225 1360l432 315l433 -315l-119 -158l-314 230l-313 -230z" />
    <glyph glyph-name="udieresis" unicode="&#xfc;" horiz-adv-x="1314" 
d="M887 1049h303v-596q0 -259 -128 -372.5t-405 -113.5t-404.5 113.5t-127.5 372.5v596h303v-527q0 -172 52.5 -240.5t176.5 -68.5t177 68.5t53 240.5v527zM416 1563q66 0 112.5 -47t46.5 -113t-46.5 -113t-112.5 -47t-113 47t-47 113t47 113t113 47zM899 1563q66 0 113 -47
t47 -113t-47 -113t-113 -47t-113 47t-47 113t47 113t113 47z" />
    <glyph glyph-name="yacute" unicode="&#xfd;" horiz-adv-x="1245" 
d="M-31 1049h346l328 -631l287 631h346l-795 -1581h-346l332 657zM395 1337l379 324l158 -201l-438 -258z" />
    <glyph glyph-name="thorn" unicode="&#xfe;" 
d="M1335 524q0 -115 -39.5 -218t-108 -177.5t-166.5 -118t-210 -43.5q-113 0 -209 47.5t-160 128.5v-675h-303v2293h303v-846q140 166 369 166q112 0 210 -43.5t166.5 -118t108 -177.5t39.5 -218zM1016 524q0 131 -83.5 215t-207.5 84t-207.5 -84t-83.5 -215
q0 -130 82.5 -214.5t208.5 -84.5q129 0 210 84t81 215z" />
    <glyph glyph-name="ydieresis" unicode="&#xff;" horiz-adv-x="1245" 
d="M-31 1049h346l328 -631l287 631h346l-795 -1581h-346l332 657zM401 1563q66 0 113 -47t47 -113t-47 -113t-113 -47t-112.5 47t-46.5 113t46.5 113t112.5 47zM885 1563q66 0 112.5 -47t46.5 -113t-46.5 -113t-112.5 -47t-113 47t-47 113t47 113t113 47z" />
    <glyph glyph-name="Amacron" unicode="&#x100;" horiz-adv-x="1556" 
d="M444 395l-147 -395h-342l676 1690h295l676 -1690h-342l-148 395h-668zM1001 676l-223 581l-223 -581h446zM360 2142h836v-205h-836v205z" />
    <glyph glyph-name="amacron" unicode="&#x101;" 
d="M68 524q0 115 39.5 218t108 177.5t166.5 118t210 43.5q229 0 369 -166v134h303v-1049h-303v143q-64 -81 -160 -128.5t-209 -47.5q-112 0 -210 43.5t-166.5 118t-108 177.5t-39.5 218zM387 524q0 -131 81 -215t210 -84q126 0 208.5 84.5t82.5 214.5q0 131 -83.5 215
t-207.5 84t-207.5 -84t-83.5 -215zM248 1495h835v-205h-835v205z" />
    <glyph glyph-name="Abreve" unicode="&#x102;" horiz-adv-x="1556" 
d="M444 395l-147 -395h-342l676 1690h295l676 -1690h-342l-148 395h-668zM1001 676l-223 581l-223 -581h446zM319 2284l218 53q3 -16 9 -36.5t24 -56t42.5 -62.5t68 -47.5t97.5 -20.5t97.5 20.5t68 48t43 62.5t24.5 55.5t9 36.5l217 -53q-20 -161 -145.5 -260t-313.5 -99
t-313.5 99t-145.5 260z" />
    <glyph glyph-name="abreve" unicode="&#x103;" 
d="M68 524q0 115 39.5 218t108 177.5t166.5 118t210 43.5q229 0 369 -166v134h303v-1049h-303v143q-64 -81 -160 -128.5t-209 -47.5q-112 0 -210 43.5t-166.5 118t-108 177.5t-39.5 218zM387 524q0 -131 81 -215t210 -84q126 0 208.5 84.5t82.5 214.5q0 131 -83.5 215
t-207.5 84t-207.5 -84t-83.5 -215zM207 1628l217 53q3 -16 9 -36.5t24.5 -55.5t43 -62.5t68 -48t97.5 -20.5t97.5 20.5t68 47.5t42.5 62.5t24 56t9 36.5l217 -53q-20 -161 -145 -259.5t-313 -98.5t-313.5 98.5t-145.5 259.5z" />
    <glyph glyph-name="Aogonek" unicode="&#x104;" horiz-adv-x="1556" 
d="M1128 -324q0 125 164 324h-32l-148 395h-668l-147 -395h-342l676 1690h295l676 -1690h-166q-22 -27 -47 -64.5t-52.5 -105.5t-27.5 -125q0 -45 30 -72.5t70 -27.5q36 0 69 18.5t48 36.5l16 18l125 -94q-4 -6 -11.5 -16t-33.5 -35t-56 -44.5t-78.5 -35.5t-101.5 -16
q-47 0 -91 14t-82 42t-61.5 75.5t-23.5 107.5zM1001 676l-223 581l-223 -581h446z" />
    <glyph glyph-name="aogonek" unicode="&#x105;" 
d="M797 -324q0 125 164 324v143q-64 -81 -160 -128.5t-209 -47.5q-112 0 -210 43.5t-166.5 118t-108 177.5t-39.5 218t39.5 218t108 177.5t166.5 118t210 43.5q229 0 369 -166v134h303v-1049h-160q-22 -27 -47 -64.5t-52.5 -105.5t-27.5 -125q0 -45 30 -72.5t70 -27.5
q36 0 69 18.5t48 36.5l16 18l125 -94q-4 -6 -11 -16t-33 -35t-56 -44.5t-78.5 -35.5t-101.5 -16q-47 0 -91 14t-82 42t-61.5 75.5t-23.5 107.5zM387 524q0 -131 81 -215t210 -84q126 0 208.5 84.5t82.5 214.5q0 131 -83.5 215t-207.5 84t-207.5 -84t-83.5 -215z" />
    <glyph glyph-name="Cacute" unicode="&#x106;" horiz-adv-x="1572" 
d="M68 844q0 143 47.5 277.5t132.5 241.5t197.5 188t249.5 125t280 44q103 0 198 -16.5t157 -40t109 -47.5t68 -40l21 -17l-158 -256q-5 4 -15.5 11t-44.5 24.5t-71.5 31t-96 24.5t-118.5 11q-146 0 -265 -49t-192 -130t-112 -179.5t-39 -202.5t39 -202.5t112 -179.5
t192 -130t265 -49q60 0 118 10.5t97.5 25.5t70 30t45.5 25l15 11l158 -256q-8 -7 -22.5 -17.5t-66 -38.5t-110.5 -49.5t-155 -39t-199 -17.5q-143 0 -280 44t-249.5 125t-197.5 188.5t-132.5 242t-47.5 277.5zM590 1976l379 324l157 -201l-438 -258z" />
    <glyph glyph-name="cacute" unicode="&#x107;" horiz-adv-x="1048" 
d="M66 524q0 153 80 282t212.5 202t284.5 73q66 0 127 -10.5t100.5 -25.5t69.5 -30t44 -25l13 -11l-106 -209q-3 3 -9 7t-26.5 15t-42.5 19.5t-56.5 15.5t-70.5 7q-126 0 -213.5 -90t-87.5 -220t87.5 -219.5t213.5 -89.5q56 0 107.5 16t74.5 32l23 16l106 -209
q-5 -4 -14.5 -11t-42.5 -25t-70.5 -31.5t-99 -24.5t-127.5 -11q-152 0 -284.5 73t-212.5 202t-80 282zM303 1337l379 324l158 -201l-439 -258z" />
    <glyph glyph-name="Ccaron" unicode="&#x10c;" horiz-adv-x="1572" 
d="M68 844q0 143 47.5 277.5t132.5 241.5t197.5 188t249.5 125t280 44q103 0 198 -16.5t157 -40t109 -47.5t68 -40l21 -17l-158 -256q-5 4 -15.5 11t-44.5 24.5t-71.5 31t-96 24.5t-118.5 11q-146 0 -265 -49t-192 -130t-112 -179.5t-39 -202.5t39 -202.5t112 -179.5
t192 -130t265 -49q60 0 118 10.5t97.5 25.5t70 30t45.5 25l15 11l158 -256q-8 -7 -22.5 -17.5t-66 -38.5t-110.5 -49.5t-155 -39t-199 -17.5q-143 0 -280 44t-249.5 125t-197.5 188.5t-132.5 242t-47.5 277.5zM913 1841l-432 316l119 157l313 -229l314 229l119 -157z" />
    <glyph glyph-name="ccaron" unicode="&#x10d;" horiz-adv-x="1048" 
d="M66 524q0 153 80 282t212.5 202t284.5 73q66 0 127 -10.5t100.5 -25.5t69.5 -30t44 -25l13 -11l-106 -209q-3 3 -9 7t-26.5 15t-42.5 19.5t-56.5 15.5t-70.5 7q-126 0 -213.5 -90t-87.5 -220t87.5 -219.5t213.5 -89.5q56 0 107.5 16t74.5 32l23 16l106 -209
q-5 -4 -14.5 -11t-42.5 -25t-70.5 -31.5t-99 -24.5t-127.5 -11q-152 0 -284.5 73t-212.5 202t-80 282zM582 1202l-432 316l118 157l314 -229l313 229l119 -157z" />
    <glyph glyph-name="Dcaron" unicode="&#x10e;" horiz-adv-x="1523" 
d="M145 1690h459q172 0 328 -63.5t271.5 -174t184 -269.5t68.5 -339q0 -181 -68 -339.5t-183.5 -268.5t-271.5 -173t-329 -63h-459v1690zM465 1405v-1120h102q155 0 280 73t195 200.5t70 285.5q0 240 -155 400.5t-390 160.5h-102zM735 1841l-432 316l119 157l313 -229
l314 229l118 -157z" />
    <glyph glyph-name="dcaron" unicode="&#x10f;" 
d="M1526 1688q64 0 110.5 -46.5t46.5 -111.5q0 -202 -231 -404l-68 54q0 1 10 13t23 30.5t27.5 43t26.5 57.5t18 67q-52 11 -86.5 49.5t-34.5 89.5q0 64 47 111t111 47zM68 524q0 115 39.5 218t108 177.5t166.5 118t210 43.5q229 0 369 -166v846h303v-1761h-303v143
q-64 -81 -160 -128.5t-209 -47.5q-112 0 -210 43.5t-166.5 118t-108 177.5t-39.5 218zM387 524q0 -131 81 -215t210 -84q126 0 208.5 84.5t82.5 214.5q0 131 -83.5 215t-207.5 84t-207.5 -84t-83.5 -215z" />
    <glyph glyph-name="Dcroat" unicode="&#x110;" horiz-adv-x="1523" 
d="M-18 715v260h163v715h459q172 0 328 -63.5t271.5 -174t184 -269.5t68.5 -339q0 -181 -68 -339.5t-183.5 -268.5t-271.5 -173t-329 -63h-459v715h-163zM465 1405v-430h291v-260h-291v-430h102q155 0 280 73t195 200.5t70 285.5q0 240 -155 400.5t-390 160.5h-102z" />
    <glyph glyph-name="dcroat" unicode="&#x111;" 
d="M659 1305v196h302v260h303v-260h137v-196h-137v-1305h-303v143q-64 -81 -160 -128.5t-209 -47.5q-112 0 -210 43.5t-166.5 118t-108 177.5t-39.5 218t39.5 218t108 177.5t166.5 118t210 43.5q229 0 369 -166v390h-302zM387 524q0 -131 81 -215t210 -84q126 0 208.5 84.5
t82.5 214.5q0 131 -83.5 215t-207.5 84t-207.5 -84t-83.5 -215z" />
    <glyph glyph-name="Emacron" unicode="&#x112;" horiz-adv-x="1187" 
d="M145 1690h934v-281h-614v-422h590v-280h-590v-426h614v-281h-934v1690zM195 2142h835v-205h-835v205z" />
    <glyph glyph-name="emacron" unicode="&#x113;" horiz-adv-x="1259" 
d="M66 526q0 151 76.5 279t207.5 202t285 74q158 0 284 -65t200.5 -191.5t74.5 -294.5l-2 -45h-813q0 -131 86 -203.5t197 -72.5q98 0 161 30.5t129 108.5l219 -110q-164 -271 -532 -271q-116 0 -222 44t-183 119t-122.5 178.5t-45.5 217.5zM387 655h512q-12 90 -83.5 148.5
t-172.5 58.5q-109 0 -179.5 -61t-76.5 -146zM217 1503h836v-205h-836v205z" />
    <glyph glyph-name="Edotaccent" unicode="&#x116;" horiz-adv-x="1187" 
d="M145 1690h934v-281h-614v-422h590v-280h-590v-426h614v-281h-934v1690zM612 2202q66 0 113 -47t47 -113t-47 -113t-113 -47t-112.5 47t-46.5 113t46.5 113t112.5 47z" />
    <glyph glyph-name="edotaccent" unicode="&#x117;" horiz-adv-x="1259" 
d="M66 526q0 151 76.5 279t207.5 202t285 74q158 0 284 -65t200.5 -191.5t74.5 -294.5l-2 -45h-813q0 -131 86 -203.5t197 -72.5q98 0 161 30.5t129 108.5l219 -110q-164 -271 -532 -271q-116 0 -222 44t-183 119t-122.5 178.5t-45.5 217.5zM387 655h512q-12 90 -83.5 148.5
t-172.5 58.5q-109 0 -179.5 -61t-76.5 -146zM635 1563q66 0 113 -47t47 -113t-47 -113t-113 -47t-113 47t-47 113t47 113t113 47z" />
    <glyph glyph-name="Eogonek" unicode="&#x118;" horiz-adv-x="1187" 
d="M561 -324q0 125 164 324h-580v1690h934v-281h-614v-422h590v-280h-590v-426h614v-281h-211q-22 -27 -47 -64.5t-52.5 -105.5t-27.5 -125q0 -45 30 -72.5t71 -27.5q36 0 69 18.5t49 36.5l15 18l125 -94q-4 -6 -11.5 -16t-33.5 -35t-56 -44.5t-78.5 -35.5t-101.5 -16
q-47 0 -91 14t-82 42t-61.5 75.5t-23.5 107.5z" />
    <glyph glyph-name="eogonek" unicode="&#x119;" horiz-adv-x="1259" 
d="M535 -324q0 116 137 291h-33q-116 0 -222 44t-183 119t-122.5 178.5t-45.5 217.5q0 151 76.5 279t207.5 202t285 74q158 0 284 -65t200.5 -191.5t74.5 -294.5l-2 -45h-813q0 -131 86 -203.5t197 -72.5q98 0 161 30.5t129 108.5l219 -110q-116 -193 -335 -248
q-121 -156 -121 -285q0 -45 30 -72.5t70 -27.5q36 0 69 18.5t48 36.5l16 18l125 -94q-4 -6 -11 -16t-33 -35t-56 -44.5t-78.5 -35.5t-101.5 -16q-47 0 -91 14t-82 42t-61.5 75.5t-23.5 107.5zM387 655h512q-12 90 -83.5 148.5t-172.5 58.5q-109 0 -179.5 -61t-76.5 -146z
" />
    <glyph glyph-name="Ecaron" unicode="&#x11a;" horiz-adv-x="1187" 
d="M145 1690h934v-281h-614v-422h590v-280h-590v-426h614v-281h-934v1690zM612 1841l-432 316l119 157l313 -229l314 229l118 -157z" />
    <glyph glyph-name="ecaron" unicode="&#x11b;" horiz-adv-x="1259" 
d="M66 526q0 151 76.5 279t207.5 202t285 74q158 0 284 -65t200.5 -191.5t74.5 -294.5l-2 -45h-813q0 -131 86 -203.5t197 -72.5q98 0 161 30.5t129 108.5l219 -110q-164 -271 -532 -271q-116 0 -222 44t-183 119t-122.5 178.5t-45.5 217.5zM387 655h512q-12 90 -83.5 148.5
t-172.5 58.5q-109 0 -179.5 -61t-76.5 -146zM635 1202l-432 316l119 157l313 -229l313 229l119 -157z" />
    <glyph glyph-name="Gcommaaccent" unicode="&#x122;" horiz-adv-x="1736" 
d="M68 844q0 180 62.5 341.5t170.5 279t261.5 186.5t328.5 69q119 0 223 -24t183.5 -67t138.5 -91t106 -106l-223 -209q-55 90 -163 149.5t-247 59.5q-137 0 -251.5 -78.5t-180 -213.5t-65.5 -296q0 -158 66.5 -292.5t181 -213t249.5 -78.5q82 0 159.5 26.5t140.5 74
t101 121t38 161.5v23h-457v247h780v-266q0 -99 -34.5 -197t-103 -185t-161 -153.5t-217.5 -105.5t-264 -39q-134 0 -260 44.5t-227 125.5t-177 189t-117.5 241.5t-41.5 276.5zM891 -82q65 0 111.5 -47t46.5 -111q0 -200 -232 -403l-67 53q0 1 10 13t23 30.5t27 43t26 57.5
t18 67q-52 11 -86.5 49.5t-34.5 89.5q0 64 46.5 111t111.5 47z" />
    <glyph glyph-name="gcommaaccent" unicode="&#x123;" 
d="M68 524q0 115 39.5 218t108 177.5t166.5 118t210 43.5q229 0 369 -166v134h303v-1078q0 -255 -166 -394.5t-441 -139.5q-439 0 -569 305l248 121q36 -70 118 -117t203 -47q56 0 108.5 17.5t97 51t71.5 91t27 129.5v155q-64 -81 -160 -128.5t-209 -47.5q-112 0 -210 43.5
t-166.5 118t-108 177.5t-39.5 218zM387 524q0 -131 81 -215t210 -84q126 0 208.5 84.5t82.5 214.5q0 131 -83.5 215t-207.5 84t-207.5 -84t-83.5 -215zM666 1243q-64 0 -111 46.5t-47 111.5q0 201 231 403l68 -53q0 -1 -10 -13t-23 -30.5t-27.5 -43t-26.5 -57.5t-18 -67
q52 -11 86.5 -49.5t34.5 -89.5q0 -65 -46.5 -111.5t-110.5 -46.5z" />
    <glyph glyph-name="Imacron" unicode="&#x12a;" horiz-adv-x="610" 
d="M145 1690h320v-1690h-320v1690zM-113 2142h836v-205h-836v205z" />
    <glyph glyph-name="imacron" unicode="&#x12b;" horiz-adv-x="589" 
d="M143 1049h303v-1049h-303v1049zM-123 1503h836v-205h-836v205z" />
    <glyph glyph-name="Iogonek" unicode="&#x12e;" horiz-adv-x="610" 
d="M70 -324q0 126 163 324h-88v1690h320v-1690h-88q-22 -27 -47 -64.5t-52.5 -105.5t-27.5 -125q0 -45 30 -72.5t70 -27.5q36 0 69 18.5t49 36.5l15 18l125 -94q-4 -6 -11 -16t-33 -35t-56 -44.5t-78.5 -35.5t-101.5 -16q-47 0 -91 14t-82 42t-61.5 75.5t-23.5 107.5z" />
    <glyph glyph-name="iogonek" unicode="&#x12f;" horiz-adv-x="589" 
d="M61 -324q0 125 164 324h-82v1049h303v-1049h-77q-22 -27 -47 -64.5t-52.5 -105.5t-27.5 -125q0 -45 30 -72.5t70 -27.5q36 0 69 18.5t49 36.5l15 18l125 -94q-4 -6 -11.5 -16t-33.5 -35t-56 -44.5t-78.5 -35.5t-101.5 -16q-47 0 -91 14t-82 42t-61.5 75.5t-23.5 107.5z
M295 1628q75 0 127.5 -52.5t52.5 -127.5t-52.5 -127.5t-127.5 -52.5t-127.5 52.5t-52.5 127.5t52.5 127.5t127.5 52.5z" />
    <glyph glyph-name="dotlessi" unicode="&#x131;" horiz-adv-x="589" 
d="M143 1049h303v-1049h-303v1049z" />
    <glyph glyph-name="Kcommaaccent" unicode="&#x136;" horiz-adv-x="1546" 
d="M145 1690h320v-723l633 723h387l-713 -816l813 -874h-440l-680 739v-739h-320v1690zM776 -82q64 0 111 -47t47 -111q0 -200 -232 -403l-67 53q0 1 10 13t23 30.5t27 43t26 57.5t18 67q-52 11 -86.5 49.5t-34.5 89.5q0 64 47 111t111 47z" />
    <glyph glyph-name="kcommaaccent" unicode="&#x137;" horiz-adv-x="1232" 
d="M143 1761h303v-1093l367 381h391l-463 -476l539 -573h-387l-447 481v-481h-303v1761zM641 -82q65 0 111.5 -47t46.5 -111q0 -200 -232 -403l-67 53q0 1 10 13t23 30.5t27 43t26 57.5t18 67q-52 11 -86.5 49.5t-34.5 89.5q0 64 46.5 111t111.5 47z" />
    <glyph glyph-name="Lacute" unicode="&#x139;" horiz-adv-x="1150" 
d="M145 1690h320v-1409h618v-281h-938v1690zM207 1976l379 324l157 -201l-438 -258z" />
    <glyph glyph-name="lacute" unicode="&#x13a;" horiz-adv-x="589" 
d="M143 1761h303v-1761h-303v1761zM197 2048l378 324l158 -201l-438 -258z" />
    <glyph glyph-name="Lcommaaccent" unicode="&#x13b;" horiz-adv-x="1150" 
d="M145 1690h320v-1409h618v-281h-938v1690zM590 -82q64 0 111 -47t47 -111q0 -200 -232 -403l-67 53q0 1 10 13t23 30.5t27 43t26 57.5t18 67q-52 11 -86.5 49.5t-34.5 89.5q0 64 47 111t111 47z" />
    <glyph glyph-name="lcommaaccent" unicode="&#x13c;" horiz-adv-x="589" 
d="M143 1761h303v-1761h-303v1761zM295 -82q65 0 111.5 -47t46.5 -111q0 -200 -232 -403l-67 53q0 1 10 13t23 30.5t27 43t26 57.5t18 67q-52 11 -86.5 49.5t-34.5 89.5q0 64 46.5 111t111.5 47z" />
    <glyph glyph-name="Lcaron" unicode="&#x13d;" horiz-adv-x="1150" 
d="M145 1690h320v-1409h618v-281h-938v1690zM862 1690q64 0 111 -47t47 -111q0 -201 -232 -404l-67 54q0 1 10 13t23 30.5t27 43t26 57.5t18 67q-52 11 -86 49t-34 90q0 65 46.5 111.5t110.5 46.5z" />
    <glyph glyph-name="lcaron" unicode="&#x13e;" horiz-adv-x="589" 
d="M143 1761h303v-1761h-303v1761zM707 1688q64 0 110.5 -46.5t46.5 -111.5q0 -202 -231 -404l-68 54q0 1 10 13t23 30.5t27.5 43t26.5 57.5t18 67q-52 11 -86.5 49.5t-34.5 89.5q0 64 46.5 111t111.5 47z" />
    <glyph glyph-name="Lslash" unicode="&#x141;" horiz-adv-x="1150" 
d="M145 1690h320v-566l276 217v-260l-276 -217v-583h618v-281h-938v612l-100 -77v260l100 77v818z" />
    <glyph glyph-name="lslash" unicode="&#x142;" horiz-adv-x="589" 
d="M143 1761h303v-575l164 129v-260l-164 -129v-926h-303v686l-161 -127v260l161 127v815z" />
    <glyph glyph-name="Nacute" unicode="&#x143;" horiz-adv-x="1675" 
d="M145 1690h320l745 -1155v1155h320v-1690h-320l-745 1155v-1155h-320v1690zM569 1976l379 324l158 -201l-438 -258z" />
    <glyph glyph-name="nacute" unicode="&#x144;" horiz-adv-x="1331" 
d="M143 1049h303v-119q61 70 144 110.5t168 40.5q67 0 129.5 -13.5t121.5 -44.5t102.5 -76t70 -112.5t26.5 -150.5v-684h-303v602q0 104 -58.5 174t-160.5 70q-95 0 -167.5 -70t-72.5 -158v-618h-303v1049zM489 1337l379 324l158 -201l-438 -258z" />
    <glyph glyph-name="Ncommaaccent" unicode="&#x145;" horiz-adv-x="1675" 
d="M145 1690h320l745 -1155v1155h320v-1690h-320l-745 1155v-1155h-320v1690zM838 -82q64 0 110.5 -46.5t46.5 -111.5q0 -201 -231 -403l-68 53q0 1 10 13t23 30.5t27.5 43t26.5 57.5t18 67q-52 11 -86.5 49.5t-34.5 89.5q0 64 47 111t111 47z" />
    <glyph glyph-name="ncommaaccent" unicode="&#x146;" horiz-adv-x="1331" 
d="M143 1049h303v-119q61 70 144 110.5t168 40.5q67 0 129.5 -13.5t121.5 -44.5t102.5 -76t70 -112.5t26.5 -150.5v-684h-303v602q0 104 -58.5 174t-160.5 70q-95 0 -167.5 -70t-72.5 -158v-618h-303v1049zM676 -82q64 0 111 -47t47 -111q0 -200 -232 -403l-67 53q0 1 10 13
t23 30.5t27 43t26 57.5t18 67q-52 11 -86.5 49.5t-34.5 89.5q0 64 47 111t111 47z" />
    <glyph glyph-name="Ncaron" unicode="&#x147;" horiz-adv-x="1675" 
d="M145 1690h320l745 -1155v1155h320v-1690h-320l-745 1155v-1155h-320v1690zM838 1841l-432 316l118 157l314 -229l313 229l119 -157z" />
    <glyph glyph-name="ncaron" unicode="&#x148;" horiz-adv-x="1331" 
d="M143 1049h303v-119q61 70 144 110.5t168 40.5q67 0 129.5 -13.5t121.5 -44.5t102.5 -76t70 -112.5t26.5 -150.5v-684h-303v602q0 104 -58.5 174t-160.5 70q-95 0 -167.5 -70t-72.5 -158v-618h-303v1049zM676 1202l-432 316l118 157l314 -229l313 229l119 -157z" />
    <glyph glyph-name="Omacron" unicode="&#x14c;" horiz-adv-x="1839" 
d="M68 844q0 182 68 345t183 279t272 184t329 68t329 -68t272 -184t183 -279t68 -345t-68 -345t-183 -279.5t-272 -184.5t-329 -68t-329 68t-272 184.5t-183 279.5t-68 345zM414 844q0 -89 21 -172.5t64 -155.5t102.5 -126t141.5 -85t177 -31q118 0 215 47.5t159.5 127
t96.5 181.5t34 214t-34 213.5t-96.5 181.5t-159.5 127t-215 47t-215.5 -47.5t-160 -127t-96.5 -181t-34 -213.5zM502 2142h835v-205h-835v205z" />
    <glyph glyph-name="omacron" unicode="&#x14d;" horiz-adv-x="1359" 
d="M66 524q0 121 47 225t129 176.5t195.5 114t242.5 41.5t242.5 -41.5t195.5 -114t129 -176.5t47 -225t-47 -225t-129 -176.5t-195.5 -114t-242.5 -41.5t-242.5 41.5t-195.5 114t-129 176.5t-47 225zM381 524q0 -130 85.5 -214.5t213.5 -84.5t213.5 84.5t85.5 214.5
t-85.5 214.5t-213.5 84.5t-213.5 -84.5t-85.5 -214.5zM262 1503h836v-205h-836v205z" />
    <glyph glyph-name="Ohungarumlaut" unicode="&#x150;" horiz-adv-x="1839" 
d="M68 844q0 182 68 345t183 279t272 184t329 68t329 -68t272 -184t183 -279t68 -345t-68 -345t-183 -279.5t-272 -184.5t-329 -68t-329 68t-272 184.5t-183 279.5t-68 345zM414 844q0 -89 21 -172.5t64 -155.5t102.5 -126t141.5 -85t177 -31q118 0 215 47.5t159.5 127
t96.5 181.5t34 214t-34 213.5t-96.5 181.5t-159.5 127t-215 47t-215.5 -47.5t-160 -127t-96.5 -181t-34 -213.5zM461 2009l379 324l157 -201l-440 -258zM965 2009l378 324l158 -201l-438 -258z" />
    <glyph glyph-name="ohungarumlaut" unicode="&#x151;" horiz-adv-x="1359" 
d="M66 524q0 121 47 225t129 176.5t195.5 114t242.5 41.5t242.5 -41.5t195.5 -114t129 -176.5t47 -225t-47 -225t-129 -176.5t-195.5 -114t-242.5 -41.5t-242.5 41.5t-195.5 114t-129 176.5t-47 225zM381 524q0 -130 85.5 -214.5t213.5 -84.5t213.5 84.5t85.5 214.5
t-85.5 214.5t-213.5 84.5t-213.5 -84.5t-85.5 -214.5zM201 1337l379 324l157 -201l-440 -258zM705 1337l378 324l158 -201l-438 -258z" />
    <glyph glyph-name="Racute" unicode="&#x154;" horiz-adv-x="1427" 
d="M145 1690h566q257 0 412 -131.5t155 -376.5q0 -196 -102.5 -328.5t-278.5 -179.5l553 -674h-408l-501 651h-76v-651h-320v1690zM465 1434v-525h147q147 0 238.5 64.5t91.5 197.5q0 90 -45.5 151t-117.5 86.5t-167 25.5h-147zM438 1972l379 324l158 -201l-438 -258z" />
    <glyph glyph-name="racute" unicode="&#x155;" horiz-adv-x="964" 
d="M141 1049h303v-152q9 16 31.5 41.5t62.5 60t101 58.5t127 24q57 0 111 -14.5t79 -28.5l25 -14l-125 -256q-8 6 -22 14.5t-61 22.5t-97 14q-53 0 -96 -20t-67.5 -48t-41 -61.5t-22 -58t-5.5 -39.5v-592h-303v1049zM293 1337l379 324l157 -201l-438 -258z" />
    <glyph glyph-name="Rcommaaccent" unicode="&#x156;" horiz-adv-x="1423" 
d="M207 1690h565q257 0 412 -131.5t155 -376.5q0 -196 -102.5 -328.5t-278.5 -179.5l553 -674h-407l-502 651h-76v-651h-319v1690zM526 1434v-525h148q147 0 238.5 64.5t91.5 197.5q0 90 -45.5 151t-117.5 86.5t-167 25.5h-148zM788 -82q64 0 111 -47t47 -111
q0 -201 -231 -403l-68 53q0 1 10 13t23 30.5t27.5 43t26.5 57.5t18 67q-52 11 -86.5 49.5t-34.5 89.5q0 65 46.5 111.5t110.5 46.5z" />
    <glyph glyph-name="rcommaaccent" unicode="&#x157;" horiz-adv-x="966" 
d="M143 1049h303v-152q9 16 31.5 41.5t62.5 60t101 58.5t127 24q57 0 111 -14.5t79 -28.5l25 -14l-125 -256q-8 6 -22 14.5t-61 22.5t-97 14q-53 0 -96 -20t-67.5 -48t-41 -61.5t-22 -58t-5.5 -39.5v-592h-303v1049zM295 -82q65 0 111.5 -47t46.5 -111q0 -200 -232 -403
l-67 53q0 1 10 13t23 30.5t27 43t26 57.5t18 67q-52 11 -86.5 49.5t-34.5 89.5q0 64 46.5 111t111.5 47z" />
    <glyph glyph-name="Rcaron" unicode="&#x158;" horiz-adv-x="1423" 
d="M207 1690h565q257 0 412 -131.5t155 -376.5q0 -196 -102.5 -328.5t-278.5 -179.5l553 -674h-407l-502 651h-76v-651h-319v1690zM526 1434v-525h148q147 0 238.5 64.5t91.5 197.5q0 90 -45.5 151t-117.5 86.5t-167 25.5h-148zM713 1841l-432 316l118 157l314 -229l313 229
l119 -157z" />
    <glyph glyph-name="rcaron" unicode="&#x159;" horiz-adv-x="966" 
d="M143 1049h303v-152q9 16 31.5 41.5t62.5 60t101 58.5t127 24q57 0 111 -14.5t79 -28.5l25 -14l-125 -256q-8 6 -22 14.5t-61 22.5t-97 14q-53 0 -96 -20t-67.5 -48t-41 -61.5t-22 -58t-5.5 -39.5v-592h-303v1049zM563 1202l-432 316l119 157l313 -229l314 229l118 -157z
" />
    <glyph glyph-name="Sacute" unicode="&#x15a;" horiz-adv-x="1363" 
d="M203 1219q0 110 45 205.5t119 159t169 100t195 36.5q94 0 180 -18.5t142 -44.5t98 -52t61 -45l19 -18l-152 -233q-5 5 -14.5 13t-42 29t-68 37t-90.5 29t-112 13q-113 0 -175.5 -56t-62.5 -143q0 -64 56 -112.5t163 -96.5q190 -86 200 -91q214 -104 295 -227
q62 -94 62 -210q0 -110 -32.5 -199t-88.5 -149.5t-134.5 -101t-166.5 -59t-188 -18.5q-116 0 -222.5 26t-174.5 63t-119.5 74t-74.5 63l-23 26l180 244q8 -8 22 -21.5t58.5 -48.5t90 -61.5t112 -48t128.5 -21.5q50 0 95 9t90.5 30.5t72.5 66t27 107.5q0 49 -23.5 88.5
t-86.5 79.5t-107 61.5t-151 69.5q-20 9 -31 14q-164 74 -252 185t-88 246zM504 1976l379 324l157 -201l-438 -258z" />
    <glyph glyph-name="sacute" unicode="&#x15b;" horiz-adv-x="999" 
d="M565 1081q62 0 120 -10.5t95.5 -25t66 -29t41.5 -24.5l13 -11l-129 -174q-11 7 -30 17t-73.5 27t-103.5 17q-139 0 -139 -92q0 -43 43 -69.5t139 -55.5q50 -16 87.5 -30.5t84 -42.5t76.5 -60.5t51 -83.5t21 -112q0 -84 -29.5 -149t-75 -103t-109.5 -62t-124.5 -32.5
t-128.5 -8.5q-81 0 -151.5 17.5t-114 42.5t-75 50t-44.5 43l-13 17l148 174q5 -5 13.5 -13t35.5 -28t55 -35.5t69 -28.5t79 -13q62 0 104.5 26.5t42.5 89.5q0 27 -12.5 47.5t-39 36.5t-51.5 27t-68.5 27.5t-71.5 29.5q-48 23 -82.5 44.5t-71 55t-55.5 80t-19 103.5
q0 149 115 235t311 86zM317 1337l379 324l158 -201l-438 -258z" />
    <glyph glyph-name="Scedilla" unicode="&#x15e;" horiz-adv-x="1363" 
d="M539 -252l71 223q-103 7 -197 35t-154.5 63t-106.5 69.5t-66 57.5l-20 23l180 244q8 -8 22 -21.5t58.5 -48.5t90 -61.5t112 -48t128.5 -21.5q50 0 95 9t90.5 30.5t72.5 66t27 107.5q0 49 -23.5 88.5t-86.5 79.5t-107 61.5t-151 69.5q-20 9 -31 14q-164 74 -252 185
t-88 246q0 110 45 205.5t119 159t169 100t195 36.5q94 0 180 -18.5t142 -44.5t98 -52t61 -45l19 -18l-152 -233q-5 5 -14.5 13t-42 29t-68 37t-90.5 29t-112 13q-113 0 -175.5 -56t-62.5 -143q0 -64 56 -112.5t163 -96.5q190 -86 200 -91q214 -104 295 -227q62 -94 62 -210
q0 -127 -42.5 -226t-118.5 -161t-171.5 -96t-209.5 -42l-35 -108q10 2 26 2q106 0 175 -57t69 -154q0 -106 -76 -180t-223 -74q-52 0 -102 17t-85 41.5t-63 49t-42 41.5l-13 17l127 94q3 -4 8.5 -11t24 -24.5t38 -31t49 -24.5t58.5 -11q58 0 89.5 27t31.5 69
q0 51 -39.5 79.5t-93.5 28.5q-35 0 -64 -6t-41 -12l-12 -6z" />
    <glyph glyph-name="scedilla" unicode="&#x15f;" horiz-adv-x="999" 
d="M356 -252l72 221q-74 3 -138.5 21.5t-104.5 43t-69 48t-41 39.5l-12 16l148 174q5 -5 13.5 -13t35.5 -28t55 -35.5t69 -28.5t79 -13q62 0 104.5 26.5t42.5 89.5q0 27 -12.5 47.5t-39 36.5t-51.5 27t-68.5 27.5t-71.5 29.5q-48 23 -82.5 44.5t-71 55t-55.5 80t-19 103.5
q0 149 115 235t311 86q62 0 120 -10.5t95.5 -25t66 -29t41.5 -24.5l13 -11l-129 -174q-11 7 -30 17t-73.5 27t-103.5 17q-139 0 -139 -92q0 -43 43 -69.5t139 -55.5q50 -16 87.5 -30.5t84 -42.5t76.5 -60.5t51 -83.5t21 -112q0 -71 -20.5 -128t-54.5 -94.5t-81.5 -65
t-97.5 -41.5t-107 -20l-37 -112q11 2 27 2q106 0 175 -57t69 -154q0 -106 -76 -180t-223 -74q-52 0 -102 17t-85 41.5t-63 49t-42 41.5l-13 17l127 94q3 -4 8.5 -11t24 -24.5t38 -31t49 -24.5t58.5 -11q58 0 89.5 27t31.5 69q0 51 -40 79.5t-94 28.5q-35 0 -64 -6t-41 -12
l-11 -6z" />
    <glyph glyph-name="Scaron" unicode="&#x160;" horiz-adv-x="1363" 
d="M203 1219q0 110 45 205.5t119 159t169 100t195 36.5q94 0 180 -18.5t142 -44.5t98 -52t61 -45l19 -18l-152 -233q-5 5 -14.5 13t-42 29t-68 37t-90.5 29t-112 13q-113 0 -175.5 -56t-62.5 -143q0 -64 56 -112.5t163 -96.5q190 -86 200 -91q214 -104 295 -227
q62 -94 62 -210q0 -110 -32.5 -199t-88.5 -149.5t-134.5 -101t-166.5 -59t-188 -18.5q-116 0 -222.5 26t-174.5 63t-119.5 74t-74.5 63l-23 26l180 244q8 -8 22 -21.5t58.5 -48.5t90 -61.5t112 -48t128.5 -21.5q50 0 95 9t90.5 30.5t72.5 66t27 107.5q0 49 -23.5 88.5
t-86.5 79.5t-107 61.5t-151 69.5q-20 9 -31 14q-164 74 -252 185t-88 246zM731 1841l-432 316l119 157l313 -229l313 229l119 -157z" />
    <glyph glyph-name="scaron" unicode="&#x161;" horiz-adv-x="999" 
d="M565 1081q62 0 120 -10.5t95.5 -25t66 -29t41.5 -24.5l13 -11l-129 -174q-11 7 -30 17t-73.5 27t-103.5 17q-139 0 -139 -92q0 -43 43 -69.5t139 -55.5q50 -16 87.5 -30.5t84 -42.5t76.5 -60.5t51 -83.5t21 -112q0 -84 -29.5 -149t-75 -103t-109.5 -62t-124.5 -32.5
t-128.5 -8.5q-81 0 -151.5 17.5t-114 42.5t-75 50t-44.5 43l-13 17l148 174q5 -5 13.5 -13t35.5 -28t55 -35.5t69 -28.5t79 -13q62 0 104.5 26.5t42.5 89.5q0 27 -12.5 47.5t-39 36.5t-51.5 27t-68.5 27.5t-71.5 29.5q-48 23 -82.5 44.5t-71 55t-55.5 80t-19 103.5
q0 149 115 235t311 86zM565 1202l-432 316l119 157l313 -229l314 229l118 -157z" />
    <glyph glyph-name="Tcommaaccent" unicode="&#x162;" horiz-adv-x="1212" 
d="M12 1690h1188v-281h-434v-1409h-320v1409h-434v281zM606 -129q64 0 111 -46.5t47 -111.5q0 -200 -232 -403l-67 53q0 1 10 13t23 30.5t27 43t26 57.5t18 67q-52 11 -86 49t-34 90q0 65 46.5 111.5t110.5 46.5z" />
    <glyph glyph-name="tcommaaccent" unicode="&#x163;" horiz-adv-x="768" 
d="M55 1049h138v393h303v-393h231v-230h-231v-424q0 -80 22 -118.5t72 -38.5q24 0 48 8t36 16l12 8l74 -243q-12 -7 -32.5 -17t-83.5 -26.5t-124 -16.5q-77 0 -136 22.5t-94.5 58.5t-58 86t-30.5 100t-8 106v479h-138v230zM461 -82q64 0 110.5 -46.5t46.5 -111.5
q0 -201 -231 -403l-68 53q0 1 10 13t23 30.5t27.5 43t26.5 57.5t18 67q-52 11 -86.5 49.5t-34.5 89.5q0 64 46.5 111t111.5 47z" />
    <glyph glyph-name="Tcaron" unicode="&#x164;" horiz-adv-x="1212" 
d="M12 1690h1188v-281h-434v-1409h-320v1409h-434v281zM606 1841l-432 316l119 157l313 -229l314 229l118 -157z" />
    <glyph glyph-name="tcaron" unicode="&#x165;" horiz-adv-x="768" 
d="M55 1049h138v393h303v-393h231v-230h-231v-424q0 -80 22 -118.5t72 -38.5q24 0 48 8t36 16l12 8l74 -243q-12 -7 -32.5 -17t-83.5 -26.5t-124 -16.5q-77 0 -136 22.5t-94.5 58.5t-58 86t-30.5 100t-8 106v479h-138v230zM881 1688q64 0 110.5 -46.5t46.5 -111.5
q0 -202 -231 -404l-68 54q0 1 10 13t23 30.5t27.5 43t26.5 57.5t18 67q-52 11 -86.5 49.5t-34.5 89.5q0 64 46.5 111t111.5 47z" />
    <glyph glyph-name="Umacron" unicode="&#x16a;" horiz-adv-x="1527" 
d="M127 1690h319v-1000q0 -222 76 -314.5t242 -92.5q165 0 241 92.5t76 314.5v1000h320v-1090q0 -313 -162 -473t-475 -160t-475 160t-162 473v1090zM346 2142h836v-205h-836v205z" />
    <glyph glyph-name="umacron" unicode="&#x16b;" horiz-adv-x="1314" 
d="M887 1049h303v-596q0 -259 -128 -372.5t-405 -113.5t-404.5 113.5t-127.5 372.5v596h303v-527q0 -172 52.5 -240.5t176.5 -68.5t177 68.5t53 240.5v527zM240 1503h835v-205h-835v205z" />
    <glyph glyph-name="Uring" unicode="&#x16e;" horiz-adv-x="1527" 
d="M127 1690h319v-1000q0 -222 76 -314.5t242 -92.5q165 0 241 92.5t76 314.5v1000h320v-1090q0 -313 -162 -473t-475 -160t-475 160t-162 473v1090zM461 2116q0 116 87 192t216 76t216 -76t87 -192t-87 -192.5t-216 -76.5t-216 76.5t-87 192.5zM635 2116q0 -53 37.5 -90
t91.5 -37t91.5 37t37.5 90t-37.5 90t-91.5 37t-91.5 -37t-37.5 -90z" />
    <glyph glyph-name="uring" unicode="&#x16f;" horiz-adv-x="1314" 
d="M887 1049h303v-596q0 -259 -128 -372.5t-405 -113.5t-404.5 113.5t-127.5 372.5v596h303v-527q0 -172 52.5 -240.5t176.5 -68.5t177 68.5t53 240.5v527zM354 1497q0 116 87 192t216 76t216.5 -76t87.5 -192t-87.5 -192t-216.5 -76t-216 76t-87 192zM528 1497
q0 -53 37.5 -90t91.5 -37t91.5 37t37.5 90t-37.5 90t-91.5 37t-91.5 -37t-37.5 -90z" />
    <glyph glyph-name="Uhungarumlaut" unicode="&#x170;" horiz-adv-x="1527" 
d="M127 1690h319v-1000q0 -222 76 -314.5t242 -92.5q165 0 241 92.5t76 314.5v1000h320v-1090q0 -313 -162 -473t-475 -160t-475 160t-162 473v1090zM305 2009l379 324l158 -201l-441 -258zM809 2009l379 324l158 -201l-439 -258z" />
    <glyph glyph-name="uhungarumlaut" unicode="&#x171;" horiz-adv-x="1314" 
d="M887 1049h303v-596q0 -259 -128 -372.5t-405 -113.5t-404.5 113.5t-127.5 372.5v596h303v-527q0 -172 52.5 -240.5t176.5 -68.5t177 68.5t53 240.5v527zM178 1337l379 324l158 -201l-441 -258zM682 1337l379 324l158 -201l-439 -258z" />
    <glyph glyph-name="Uogonek" unicode="&#x172;" horiz-adv-x="1529" 
d="M547 -324q0 117 139 295q-275 20 -416 178.5t-141 450.5v1090h320v-1000q0 -222 76 -314.5t241 -92.5t241 92.5t76 314.5v1000h320v-1090q0 -295 -145.5 -454.5t-426.5 -176.5q-104 -147 -104 -264q0 -45 30 -72.5t70 -27.5q36 0 69.5 18.5t49.5 36.5l15 18l124 -94
q-4 -6 -11 -16t-33 -35t-56 -44.5t-78.5 -35.5t-101.5 -16q-47 0 -91 14t-82 42t-61.5 75.5t-23.5 107.5z" />
    <glyph glyph-name="uogonek" unicode="&#x173;" horiz-adv-x="1314" 
d="M438 -324q0 114 140 293q-234 15 -343.5 129.5t-109.5 354.5v596h303v-527q0 -172 52.5 -240.5t176.5 -68.5t177 68.5t53 240.5v527h303v-596q0 -245 -112.5 -358.5t-354.5 -125.5q-105 -146 -105 -264q0 -45 30 -72.5t71 -27.5q36 0 69 18.5t48 36.5l16 18l125 -94
q-4 -6 -11.5 -16t-33.5 -35t-56 -44.5t-78.5 -35.5t-101.5 -16q-47 0 -91 14t-82 42t-61.5 75.5t-23.5 107.5z" />
    <glyph glyph-name="Ydieresis" unicode="&#x178;" horiz-adv-x="1449" 
d="M-45 1690h383l387 -613l387 613h383l-610 -940v-750h-320v750zM483 2230q66 0 113 -46.5t47 -112.5t-47 -113t-113 -47t-112.5 47t-46.5 113t46.5 112.5t112.5 46.5zM967 2230q66 0 112.5 -46.5t46.5 -112.5t-46.5 -113t-112.5 -47t-113 47t-47 113t47 112.5t113 46.5z
" />
    <glyph glyph-name="Zacute" unicode="&#x179;" horiz-adv-x="1566" 
d="M164 1690h1358l-916 -1407h858v-283h-1417l911 1407h-794v283zM637 1976l379 324l158 -201l-439 -258z" />
    <glyph glyph-name="zacute" unicode="&#x17a;" horiz-adv-x="1150" 
d="M106 1049h1022l-593 -816h557v-233h-1069l593 815h-510v234zM391 1337l379 324l158 -201l-439 -258z" />
    <glyph glyph-name="Zdotaccent" unicode="&#x17b;" horiz-adv-x="1566" 
d="M164 1690h1358l-916 -1407h858v-283h-1417l911 1407h-794v283zM844 2202q66 0 113 -47t47 -113t-47 -113t-113 -47t-113 47t-47 113t47 113t113 47z" />
    <glyph glyph-name="zdotaccent" unicode="&#x17c;" horiz-adv-x="1150" 
d="M106 1049h1022l-593 -816h557v-233h-1069l593 815h-510v234zM616 1591q66 0 113 -46.5t47 -112.5t-47 -113t-113 -47t-112.5 47t-46.5 113t46.5 112.5t112.5 46.5z" />
    <glyph glyph-name="Zcaron" unicode="&#x17d;" horiz-adv-x="1566" 
d="M164 1690h1358l-916 -1407h858v-283h-1417l911 1407h-794v283zM844 1841l-432 316l118 157l314 -229l313 229l119 -157z" />
    <glyph glyph-name="zcaron" unicode="&#x17e;" horiz-adv-x="1150" 
d="M106 1049h1022l-593 -816h557v-233h-1069l593 815h-510v234zM616 1202l-432 316l119 157l313 -229l314 229l119 -157z" />
    <glyph glyph-name="Scommaaccent" unicode="&#x218;" horiz-adv-x="1363" 
d="M203 1219q0 110 45 205.5t119 159t169 100t195 36.5q94 0 180 -18.5t142 -44.5t98 -52t61 -45l19 -18l-152 -233q-5 5 -14.5 13t-42 29t-68 37t-90.5 29t-112 13q-113 0 -175.5 -56t-62.5 -143q0 -64 56 -112.5t163 -96.5q190 -86 200 -91q214 -104 295 -227
q62 -94 62 -210q0 -110 -32.5 -199t-88.5 -149.5t-134.5 -101t-166.5 -59t-188 -18.5q-116 0 -222.5 26t-174.5 63t-119.5 74t-74.5 63l-23 26l180 244q8 -8 22 -21.5t58.5 -48.5t90 -61.5t112 -48t128.5 -21.5q50 0 95 9t90.5 30.5t72.5 66t27 107.5q0 49 -23.5 88.5
t-86.5 79.5t-107 61.5t-151 69.5q-20 9 -31 14q-164 74 -252 185t-88 246zM680 -82q64 0 111 -47t47 -111q0 -200 -232 -403l-67 53q0 1 10 13t23 30.5t27 43t26 57.5t18 67q-52 11 -86.5 49.5t-34.5 89.5q0 64 47 111t111 47z" />
    <glyph glyph-name="scommaaccent" unicode="&#x219;" horiz-adv-x="999" 
d="M565 1081q62 0 120 -10.5t95.5 -25t66 -29t41.5 -24.5l13 -11l-129 -174q-11 7 -30 17t-73.5 27t-103.5 17q-139 0 -139 -92q0 -43 43 -69.5t139 -55.5q50 -16 87.5 -30.5t84 -42.5t76.5 -60.5t51 -83.5t21 -112q0 -84 -29.5 -149t-75 -103t-109.5 -62t-124.5 -32.5
t-128.5 -8.5q-81 0 -151.5 17.5t-114 42.5t-75 50t-44.5 43l-13 17l148 174q5 -5 13.5 -13t35.5 -28t55 -35.5t69 -28.5t79 -13q62 0 104.5 26.5t42.5 89.5q0 27 -12.5 47.5t-39 36.5t-51.5 27t-68.5 27.5t-71.5 29.5q-48 23 -82.5 44.5t-71 55t-55.5 80t-19 103.5
q0 149 115 235t311 86zM461 -82q64 0 110.5 -46.5t46.5 -111.5q0 -201 -231 -403l-68 53q0 1 10 13t23 30.5t27.5 43t26.5 57.5t18 67q-52 11 -86.5 49.5t-34.5 89.5q0 64 46.5 111t111.5 47z" />
    <glyph glyph-name="circumflex" unicode="&#x2c6;" horiz-adv-x="1159" 
d="M147 1405l433 315l432 -315l-119 -158l-313 230l-314 -230z" />
    <glyph glyph-name="caron" unicode="&#x2c7;" horiz-adv-x="1159" 
d="M580 1247l-433 316l119 157l314 -229l313 229l119 -157z" />
    <glyph glyph-name="breve" unicode="&#x2d8;" horiz-adv-x="1208" 
d="M145 1667l217 53q3 -16 9 -36.5t24.5 -55.5t43 -62.5t68 -48t97.5 -20.5t97.5 20.5t68 48t43 62.5t24.5 55.5t9 36.5l217 -53q-20 -161 -145.5 -259.5t-313.5 -98.5t-313.5 98.5t-145.5 259.5z" />
    <glyph glyph-name="dotaccent" unicode="&#x2d9;" horiz-adv-x="593" 
d="M297 1591q66 0 113 -46.5t47 -112.5t-47 -113t-113 -47t-113 47t-47 113t47 112.5t113 46.5z" />
    <glyph glyph-name="ring" unicode="&#x2da;" horiz-adv-x="897" 
d="M145 1501q0 116 87.5 192t216.5 76t216 -76t87 -192t-87 -192t-216 -76t-216.5 76t-87.5 192zM319 1501q0 -53 38 -90t92 -37t91.5 37t37.5 90t-37.5 90t-91.5 37t-92 -37t-38 -90z" />
    <glyph glyph-name="ogonek" unicode="&#x2db;" horiz-adv-x="804" 
d="M152 -324q0 45 22 100.5t53 102.5t62.5 87.5t53.5 63.5l22 23l102 -45q-11 -13 -27 -35.5t-43.5 -67t-46 -98.5t-18.5 -102q0 -45 30 -72.5t70 -27.5q36 0 69 18.5t49 36.5l15 18l125 -94q-4 -6 -11 -16t-33 -35t-56 -44.5t-78.5 -35.5t-101.5 -16q-47 0 -91 14t-82 42
t-61.5 75.5t-23.5 107.5z" />
    <glyph glyph-name="tilde" unicode="&#x2dc;" horiz-adv-x="1218" 
d="M1018 1589l160 -141q-8 -15 -11.5 -21t-24.5 -37.5t-38.5 -52t-50 -52t-63.5 -50t-73.5 -33t-85.5 -14.5q-79 0 -143 26.5t-145 79.5q-96 68 -158 68q-28 0 -54.5 -11t-44.5 -26.5t-35 -36.5t-26 -37t-17 -32t-9 -17l-160 141q108 195 255 246q45 15 91 15
q79 0 143.5 -26.5t145.5 -80.5q94 -67 157 -67q28 0 54.5 11t44.5 26.5t35.5 36.5t26 36.5t17.5 31.5t9 17z" />
    <glyph glyph-name="hungarumlaut" unicode="&#x2dd;" horiz-adv-x="1413" 
d="M186 1397l379 323l158 -200l-440 -258zM690 1397l379 323l158 -200l-439 -258z" />
    <glyph glyph-name="endash" unicode="&#x2013;" horiz-adv-x="1130" 
d="M45 723h1045v-260h-1045v260z" />
    <glyph glyph-name="emdash" unicode="&#x2014;" horiz-adv-x="2164" 
d="M45 723h2077v-260h-2077v260z" />
    <glyph glyph-name="quoteleft" unicode="&#x2018;" horiz-adv-x="536" 
d="M61 1255q0 239 263 465l79 -63l-7 -7q-6 -8 -14.5 -19t-19.5 -27t-22.5 -36t-22.5 -42.5t-20 -50.5t-14 -56q60 -14 99.5 -59t39.5 -105q0 -75 -52.5 -128.5t-127.5 -53.5t-128 53.5t-53 128.5z" />
    <glyph glyph-name="quoteright" unicode="&#x2019;" horiz-adv-x="536" 
d="M475 1538q0 -240 -262 -465l-80 64l7 7q6 8 14.5 19t20 26.5t23 35.5t22.5 42.5t20 50.5t14 56q-60 14 -99.5 59t-39.5 105q0 75 52.5 128.5t127.5 53.5t127.5 -53.5t52.5 -128.5z" />
    <glyph glyph-name="quotesinglbase" unicode="&#x201a;" horiz-adv-x="542" 
d="M481 166q0 -240 -262 -465l-80 63l7 8q6 7 14.5 18t20 27t23 36t22.5 42.5t20 50.5t14 56q-60 14 -99.5 59t-39.5 105q0 75 52.5 128.5t127.5 53.5t127.5 -53.5t52.5 -128.5z" />
    <glyph glyph-name="quotedblleft" unicode="&#x201c;" horiz-adv-x="987" 
d="M61 1255q0 239 263 465l79 -63l-7 -7q-6 -8 -14.5 -19t-19.5 -27t-22.5 -36t-22.5 -42.5t-20 -50.5t-14 -56q60 -14 99.5 -59t39.5 -105q0 -75 -52.5 -128.5t-127.5 -53.5t-128 53.5t-53 128.5zM512 1255q0 240 262 465l80 -63l-6 -7q-7 -8 -15.5 -19t-20 -27t-23 -36
t-22.5 -42.5t-20 -50.5t-14 -56q60 -14 99.5 -59t39.5 -105q0 -75 -52.5 -128.5t-127.5 -53.5t-127.5 53.5t-52.5 128.5z" />
    <glyph glyph-name="quotedblright" unicode="&#x201d;" horiz-adv-x="987" 
d="M475 1538q0 -240 -262 -465l-80 64l7 7q6 8 14.5 19t20 26.5t23 35.5t22.5 42.5t20 50.5t14 56q-60 14 -99.5 59t-39.5 105q0 75 52.5 128.5t127.5 53.5t127.5 -53.5t52.5 -128.5zM926 1538q0 -240 -262 -465l-80 64l6 7q7 8 15.5 19t20 26.5t23 35.5t22.5 42.5t20 50.5
t14 56q-60 14 -100 59t-40 105q0 75 52.5 128.5t127.5 53.5t128 -53.5t53 -128.5z" />
    <glyph glyph-name="quotedblbase" unicode="&#x201e;" horiz-adv-x="985" 
d="M481 166q0 -240 -262 -465l-80 63l7 8q6 7 14.5 18t20 27t23 36t22.5 42.5t20 50.5t14 56q-60 14 -99.5 59t-39.5 105q0 75 52.5 128.5t127.5 53.5t127.5 -53.5t52.5 -128.5zM922 166q0 -239 -263 -465l-79 63l6 8q7 7 15.5 18t19.5 27t22.5 36t22.5 42.5t20 50.5t14 56
q-60 14 -99.5 59t-39.5 105q0 75 52.5 128.5t127.5 53.5t128 -53.5t53 -128.5z" />
    <glyph glyph-name="dagger" unicode="&#x2020;" horiz-adv-x="1032" 
d="M104 1309h281v452h262v-452h281v-234h-281v-1075h-262v1075h-281v234z" />
    <glyph glyph-name="daggerdbl" unicode="&#x2021;" horiz-adv-x="1032" 
d="M104 1276h281v485h262v-485h281v-234h-281v-315h281v-233h-281v-494h-262v494h-281v233h281v315h-281v234z" />
    <glyph glyph-name="bullet" unicode="&#x2022;" horiz-adv-x="1243" 
d="M621 1065q138 0 234.5 -98t96.5 -236t-96.5 -236t-234.5 -98t-235 98t-97 236t97 236t235 98z" />
    <glyph glyph-name="ellipsis" unicode="&#x2026;" horiz-adv-x="1865" 
d="M317 365q83 0 141 -58t58 -141t-58 -141t-141 -58t-140.5 58t-57.5 141t57.5 141t140.5 58zM932 365q83 0 140.5 -58t57.5 -141t-57.5 -141t-140.5 -58t-141 58t-58 141t58 141t141 58zM1546 365q83 0 141 -58t58 -141t-58 -141t-141 -58t-140.5 58t-57.5 141t57.5 141
t140.5 58z" />
    <glyph glyph-name="perthousand" unicode="&#x2030;" horiz-adv-x="3018" 
d="M61 1317q0 177 126 290t317 113t316.5 -113t125.5 -290t-126 -290.5t-316 -113.5q-191 0 -317 113.5t-126 290.5zM281 1317q0 -98 64.5 -162.5t158.5 -64.5t158.5 64.5t64.5 162.5t-64.5 162.5t-158.5 64.5t-158.5 -64.5t-64.5 -162.5zM1075 373q0 177 126 290t317 113
t316.5 -113t125.5 -290t-126 -290.5t-316 -113.5q-191 0 -317 113.5t-126 290.5zM1294 373q0 -98 65 -163t159 -65t158.5 65t64.5 163t-64.5 162.5t-158.5 64.5t-159 -65t-65 -162zM420 0l983 1690h203l-983 -1690h-203zM2073 373q0 177 125.5 290t316.5 113t316.5 -113
t125.5 -290t-126 -290.5t-316 -113.5t-316 113.5t-126 290.5zM2292 373q0 -98 64.5 -163t158.5 -65t158.5 65t64.5 163t-64.5 162.5t-158.5 64.5t-158.5 -64.5t-64.5 -162.5z" />
    <glyph glyph-name="guilsinglleft" unicode="&#x2039;" horiz-adv-x="716" 
d="M57 571l400 512l161 -127l-299 -385l299 -385l-161 -127z" />
    <glyph glyph-name="guilsinglright" unicode="&#x203a;" horiz-adv-x="716" 
d="M98 956l162 127l399 -512l-399 -512l-162 127l299 385z" />
    <glyph glyph-name="fraction" unicode="&#x2044;" horiz-adv-x="538" 
d="M-324 0l983 1690h203l-983 -1690h-203z" />
    <glyph glyph-name="Euro" unicode="&#x20ac;" horiz-adv-x="1699" 
d="M39 1108h190q91 268 332 440t531 172q116 0 219.5 -20.5t174.5 -53t102.5 -51t56.5 -36.5l-140 -271q-170 117 -366 117q-185 0 -324.5 -82t-206.5 -215h707v-186h-778q-9 -56 -9 -78q0 -24 9 -80h778v-186h-707q68 -134 205 -214.5t326 -80.5q68 0 134.5 14.5t114.5 37
t74 37t43 27.5l140 -270q-19 -14 -37.5 -26.5t-73 -40t-112 -46t-146.5 -34t-184 -15.5q-291 0 -531.5 172t-331.5 439h-190v186h149q-8 33 -8 80q0 45 8 78h-149v186z" />
    <glyph glyph-name="trademark" unicode="&#x2122;" horiz-adv-x="1046" 
d="M37 1690h371v-88h-136v-441h-100v441h-135v88zM844 1690h106l51 -529h-98l-35 348l-123 -338h-59l-123 338l-35 -348h-100l53 529h107l127 -336z" />
    <glyph glyph-name="minus" unicode="&#x2212;" horiz-adv-x="1286" 
d="M119 979h1048v-262h-1048v262z" />
    <glyph glyph-name="notequal" unicode="&#x2260;" horiz-adv-x="1286" 
d="M119 1212h586l174 299h202l-174 -299h260v-262h-413l-119 -205h532v-262h-686l-176 -305h-203l177 305h-160v262h313l119 205h-432v262z" />
    <glyph glyph-name="lessequal" unicode="&#x2264;" horiz-adv-x="1339" 
d="M100 301h1121v-262h-1121v262zM100 1190l1121 475v-244l-799 -331l799 -332v-244l-1121 475v201z" />
    <glyph glyph-name="greaterequal" unicode="&#x2265;" horiz-adv-x="1339" 
d="M119 301h1120v-262h-1120v262zM119 1665l1120 -475v-201l-1120 -475v244l799 332l-799 331v244z" />
    <glyph glyph-name="M.1" horiz-adv-x="1929" 
d="M1419 1690h365v-1690h-320v1010l-401 -975h-197l-401 975v-1010h-320v1690h365l455 -1074z" />
    <glyph glyph-name="Q.1" horiz-adv-x="1839" 
d="M68 844q0 182 68 345t183 279t272 184t329 68t329 -68t272 -184t183 -279t68 -345q0 -202 -82 -378t-223.5 -296t-319.5 -170q32 -3 123.5 -22t154.5 -19q49 0 93 11.5t72 27.5t49 32.5t31 27.5l9 12l101 -217q-4 -8 -12.5 -22.5t-40 -50.5t-69 -63.5t-101 -50
t-134.5 -22.5q-82 0 -160.5 22t-133 48.5t-137.5 48.5t-173 22q-50 0 -97 -12t-78.5 -29t-55.5 -34.5t-36 -29.5l-11 -12l-78 117q5 7 14 18t37 41t58 55t73.5 51.5t85.5 39.5q-140 32 -262.5 110.5t-211 189t-139 254t-50.5 300.5zM414 844q0 -89 21 -172.5t64 -155.5
t102.5 -126t141.5 -85t177 -31q118 0 215 47.5t159.5 127t96.5 181.5t34 214t-34 213.5t-96.5 181.5t-159.5 127t-215 47t-215.5 -47.5t-160 -127t-96.5 -181t-34 -213.5z" />
    <glyph glyph-name="R.1" horiz-adv-x="1458" 
d="M145 1690h566q257 0 412 -131.5t155 -376.5q0 -195 -103 -328t-280 -176l279 -346q59 -76 122 -76q23 0 45.5 7t34.5 14t13 10l92 -234q-3 -3 -9.5 -9t-29.5 -21t-49 -26t-68.5 -20.5t-87.5 -9.5q-53 0 -102 16.5t-82 39.5t-58.5 46t-36.5 39l-12 17l-405 526h-76v-651
h-320v1690zM465 1434v-525h147q147 0 238.5 64.5t91.5 197.5q0 90 -45.5 151t-117.5 86.5t-167 25.5h-147z" />
    <glyph glyph-name="a.1" horiz-adv-x="1282" 
d="M123 285q0 146 104 242t279 96q117 0 200.5 -28t129.5 -69v90q0 102 -77 163t-181 61q-55 0 -105 -8t-82 -19.5t-56.5 -23t-34.5 -19.5l-11 -8l-101 205q5 5 14.5 12.5t44 27t75.5 34.5t110 27.5t146 12.5q84 0 162.5 -16t151.5 -52t127.5 -89.5t87 -133.5t32.5 -178
v-612h-303v59q-130 -92 -318 -92q-170 0 -282.5 88t-112.5 230zM422 309q0 -69 60.5 -112t150.5 -43q89 0 151 46t62 109t-62 106.5t-151 43.5q-91 0 -151 -40.5t-60 -109.5z" />
    <glyph glyph-name="j.1" horiz-adv-x="589" 
d="M295 1628q75 0 127.5 -52.5t52.5 -127.5t-52.5 -127.5t-127.5 -52.5t-127.5 52.5t-52.5 127.5t52.5 127.5t127.5 52.5zM143 1049h303v-1581h-303v1581z" />
    <glyph glyph-name="t.1" horiz-adv-x="608" 
d="M143 1442h303v-393h224v-230h-224v-819h-303v819h-145v230h145v393z" />
    <glyph glyph-name="u.1" horiz-adv-x="1329" 
d="M1188 0h-303v119q-61 -70 -144 -111t-168 -41q-84 0 -161.5 23t-143.5 68.5t-105.5 125t-39.5 181.5v684h303v-603q0 -104 58.5 -173.5t160.5 -69.5q96 0 168 70t72 157v619h303v-1049z" />
    </font>
</defs>
</svg>
