<?xml version="1.0" standalone="no"?>
<!DOCTYPE svg PUBLIC "-//W3C//DTD SVG 1.1//EN" "http://www.w3.org/Graphics/SVG/1.1/DTD/svg11.dtd" >
<svg xmlns="http://www.w3.org/2000/svg" xmlns:xlink="http://www.w3.org/1999/xlink" version="1.1">
<metadata>
Created by FontForge 20170731 at Tue Dec  6 20:07:32 2022
 By Aleksey,,,
Copyright (c) 2017 by Matt Bailey. All rights reserved.
</metadata>
<defs>
<font id="SpartanMB-Black" horiz-adv-x="1388" >
  <font-face 
    font-family="Spartan MB"
    font-weight="900"
    font-stretch="normal"
    units-per-em="2048"
    panose-1="0 11 5 3 8 0 0 2 0 3"
    ascent="1638"
    descent="-410"
    x-height="1049"
    cap-height="1690"
    bbox="-360 -866 2966 2490"
    underline-thickness="102"
    underline-position="-307"
    unicode-range="U+000D-FB04"
  />
<missing-glyph horiz-adv-x="700" 
 />
    <glyph glyph-name="ff" unicode="ff" horiz-adv-x="1650" 
d="M59 1049h164v182q0 249 119.5 405t329.5 156q57 0 112.5 -11t93.5 -26.5t67.5 -31t44.5 -26.5l14 -11l-148 -300q-49 29 -108 29q-62 0 -80.5 -42.5t-18.5 -155.5v-168h367v182q0 250 119 405.5t329 155.5q57 0 112 -10.5t92.5 -26t66.5 -31t43 -26.5l14 -10l-147 -297
q-46 24 -105 24q-62 0 -80 -42.5t-18 -155.5v-168h233v-324h-233v-725h-426v725h-367v-725h-426v725h-164v324z" />
    <glyph glyph-name="fi" unicode="fi" horiz-adv-x="1468" 
d="M10 1049h164v182q0 163 52 289t155.5 199t243.5 73q94 0 184.5 -18.5t153.5 -44.5t113 -52t74 -45l24 -18l-142 -303q-6 4 -16.5 11.5t-42 26t-63 33t-74.5 26t-80 11.5q-89 0 -122.5 -47t-33.5 -155v-168h770v-1049h-426v725h-344v-725h-426v725h-164v324z" />
    <glyph glyph-name="fl" unicode="fl" horiz-adv-x="1462" 
d="M10 1049h164v182q0 249 119.5 405t329.5 156q68 0 130 -14t89 -28l28 -13l-61 -351q-52 29 -111 29q-62 0 -80 -42.5t-18 -155.5v-168h234v-324h-234v-725h-426v725h-164v324zM934 1761h426v-1761h-426v1761z" />
    <glyph glyph-name="ffi" unicode="ffi" horiz-adv-x="2310" 
d="M59 1049h164v182q0 249 119.5 405t329.5 156q57 0 112.5 -11t93.5 -26.5t67.5 -31t44.5 -26.5l14 -11l-148 -300q-49 29 -108 29q-62 0 -80.5 -42.5t-18.5 -155.5v-168h369v182q0 249 120 405t330 156q94 0 184.5 -18.5t153.5 -44.5t113 -52t74 -45l24 -18l-141 -303
q-16 12 -43.5 30t-101 48t-132.5 30q-89 0 -122 -46.5t-33 -155.5v-168h770v-1049h-426v725h-344v-725h-426v725h-369v-725h-426v725h-164v324z" />
    <glyph glyph-name="ffl" unicode="ffl" horiz-adv-x="2301" 
d="M649 725v-725h-426v725h-164v324h164v182q0 249 119.5 405t329.5 156q57 0 112.5 -11t93.5 -26.5t67.5 -31t44.5 -26.5l14 -11l-148 -300q-49 29 -108 29q-62 0 -80.5 -42.5t-18.5 -155.5v-168h367v182q0 250 119 405.5t329 155.5q68 0 130 -14t90 -28l28 -13l-61 -351
q-52 29 -111 29q-62 0 -80 -42.5t-18 -155.5v-168h233v-324h-233v-725h-426v725h-367zM1776 1761h426v-1761h-426v1761z" />
    <glyph glyph-name="ft" unicode="ft" horiz-adv-x="1609" 
d="M10 1049h164v182q0 249 119.5 405t329.5 156q57 0 112 -10.5t92 -26t66 -31t43 -26.5l14 -10l-147 -297q-46 24 -105 24q-62 0 -80 -42.5t-18 -155.5v-168h334v393h426v-393h209v-324h-209v-244q0 -133 70 -133q18 0 38.5 8t31.5 16l11 9l107 -342q-15 -8 -41 -20
t-103 -32t-149 -20q-90 0 -160.5 26t-113 67.5t-69.5 99.5t-37.5 115.5t-10.5 121.5v328h-334v-725h-426v725h-164v324z" />
    <glyph glyph-name="fj" unicode="fj" horiz-adv-x="1468" 
d="M10 1049h164v182q0 163 52 289t155.5 199t243.5 73q94 0 184.5 -18.5t153.5 -44.5t113 -52t74 -45l24 -18l-142 -303q-6 4 -16.5 11.5t-42 26t-63 33t-74.5 26t-80 11.5q-89 0 -122.5 -47t-33.5 -155v-168h770v-1190q0 -58 -11.5 -113.5t-41 -112.5t-74 -99.5t-117 -69.5
t-163.5 -27q-92 0 -171 17.5t-112 34.5l-33 17l131 342q47 -28 84 -28q82 0 82 123v782h-344v-725h-426v725h-164v324z" />
    <glyph glyph-name="fft" unicode="fft" horiz-adv-x="2451" 
d="M59 1049h164v182q0 249 119.5 405t329.5 156q57 0 112.5 -11t93.5 -26.5t67.5 -31t44.5 -26.5l14 -11l-148 -300q-49 29 -108 29q-62 0 -80.5 -42.5t-18.5 -155.5v-168h367v182q0 250 119 405.5t329 155.5q57 0 112 -10.5t92.5 -26t66.5 -31t43 -26.5l14 -10l-147 -297
q-46 24 -105 24q-62 0 -80 -42.5t-18 -155.5v-168h334v393h426v-393h208v-324h-208v-244q0 -133 69 -133q18 0 38.5 8t32.5 16l11 9l107 -342q-15 -8 -41 -20t-103 -32t-149 -20q-90 0 -160.5 26t-113 67.5t-69.5 99.5t-37.5 115.5t-10.5 121.5v328h-334v-725h-426v725h-367
v-725h-426v725h-164v324z" />
    <glyph glyph-name="ffj" unicode="ffj" horiz-adv-x="2310" 
d="M59 1049h164v182q0 249 119.5 405t329.5 156q57 0 112.5 -11t93.5 -26.5t67.5 -31t44.5 -26.5l14 -11l-148 -300q-49 29 -108 29q-62 0 -80.5 -42.5t-18.5 -155.5v-168h369v182q0 249 120 405t330 156q94 0 184.5 -18.5t153.5 -44.5t113 -52t74 -45l24 -18l-141 -303
q-16 12 -43.5 30t-101 48t-132.5 30q-89 0 -122 -46.5t-33 -155.5v-168h770v-1190q0 -58 -11.5 -113.5t-41 -112.5t-74.5 -99.5t-117.5 -69.5t-163.5 -27q-92 0 -171 17.5t-111 34.5l-33 17l131 342q47 -28 84 -28q82 0 82 123v782h-344v-725h-426v725h-369v-725h-426v725
h-164v324z" />
    <glyph glyph-name=".notdef" horiz-adv-x="700" 
 />
    <glyph glyph-name=".null" horiz-adv-x="0" 
 />
    <glyph glyph-name="nonmarkingreturn" horiz-adv-x="682" 
 />
    <glyph glyph-name="NULL" horiz-adv-x="0" 
 />
    <glyph glyph-name="NULL" horiz-adv-x="0" 
 />
    <glyph glyph-name="CR" unicode="&#xd;" horiz-adv-x="569" 
 />
    <glyph glyph-name="space" unicode=" " horiz-adv-x="569" 
 />
    <glyph glyph-name="exclam" unicode="!" horiz-adv-x="745" 
d="M162 1761h426l-60 -1167h-307zM373 512q114 0 193 -79t79 -193t-79 -193.5t-193 -79.5t-193.5 79.5t-79.5 193.5t79.5 193t193.5 79z" />
    <glyph glyph-name="quotedbl" unicode="&#x22;" horiz-adv-x="1183" 
d="M131 1726h401l-75 -839h-250zM651 1726h402l-76 -839h-250z" />
    <glyph glyph-name="numbersign" unicode="#" horiz-adv-x="1800" 
d="M139 1296h310l53 451h291l-56 -451h334l53 451h291l-55 -451h215v-290h-248l-31 -263h279v-290h-315l-52 -453h-288l51 453h-334l-51 -453h-289l51 453h-209v290h244l31 263h-275v290zM705 1006l-31 -263h332l32 263h-333z" />
    <glyph glyph-name="dollar" unicode="$" 
d="M186 1186q0 131 62 241.5t159 179.5t214 97v268h256v-258q73 -8 144 -25.5t121 -36.5t89 -36.5t59 -29.5l19 -11l-179 -363q-7 4 -19 10.5t-49.5 24t-75.5 30.5t-91.5 23.5t-101.5 10.5q-164 0 -164 -109q0 -31 39 -63t151 -74q53 -20 98.5 -39.5t101.5 -49t100.5 -60.5
t88.5 -73t73.5 -87.5t48 -104t18.5 -121.5q0 -126 -36.5 -224t-103 -162t-148.5 -103t-183 -57v-267h-256v252q-108 4 -209 26t-167.5 49.5t-117.5 54t-75 45.5l-23 18l223 383q9 -7 25.5 -17.5t67 -38t100.5 -48.5t118.5 -38.5t128.5 -17.5q160 0 160 119q0 25 -9.5 47
t-34 44.5t-47.5 39.5t-71.5 41.5t-82.5 40.5t-103 47q-147 66 -232.5 179.5t-85.5 242.5z" />
    <glyph glyph-name="percent" unicode="%" horiz-adv-x="1996" 
d="M33 1317q0 177 133.5 290t333.5 113t333.5 -113t133.5 -290t-133.5 -290.5t-333.5 -113.5t-333.5 113.5t-133.5 290.5zM342 1317q0 -66 47 -110t111 -44t110.5 44t46.5 110t-46.5 109.5t-110.5 43.5q-65 0 -111.5 -43.5t-46.5 -109.5zM1030 373q0 177 133.5 290
t333.5 113t333.5 -113t133.5 -290t-133.5 -290.5t-333.5 -113.5t-333.5 113.5t-133.5 290.5zM1339 373q0 -66 47 -110t111 -44t111 44t47 110t-46.5 109.5t-111.5 43.5t-111.5 -43.5t-46.5 -109.5zM371 0l983 1690h280l-983 -1690h-280z" />
    <glyph glyph-name="ampersand" unicode="&#x26;" horiz-adv-x="1746" 
d="M41 451q0 78 33 147.5t92 124t130.5 96.5t158.5 74q-154 209 -154 367q0 215 150 338.5t426 123.5q104 0 193 -27t150.5 -72t104.5 -105t63.5 -125t20.5 -133q0 -62 -29.5 -126t-78.5 -117t-105 -96t-115 -75l166 -166q135 86 256 207l277 -275q-151 -147 -250 -219
l381 -393h-570l-151 154q-9 -8 -26.5 -20.5t-73.5 -44.5t-115 -57t-148 -45t-176 -20q-134 0 -243.5 28.5t-192.5 85.5t-128.5 151.5t-45.5 218.5zM762 1278q0 -49 29 -99.5t67 -88.5q156 99 156 186q0 61 -38.5 96t-98.5 35q-49 0 -82 -33t-33 -96zM555 498q0 -51 40.5 -76
t102.5 -25q45 0 94 15.5t75 31.5l26 15l-211 194q0 1 -13 -3t-32 -15t-37.5 -27.5t-31.5 -45.5t-13 -64z" />
    <glyph glyph-name="quotesingle" unicode="'" horiz-adv-x="663" 
d="M131 1726h401l-75 -839h-250z" />
    <glyph glyph-name="parenleft" unicode="(" horiz-adv-x="866" 
d="M485 629q0 -203 24.5 -385.5t60 -297.5t71 -201t59.5 -123l25 -38l-274 -116q-7 9 -20 26.5t-49.5 77.5t-70 126t-74 171t-70 214.5t-49.5 254t-20 291.5t19.5 290.5t50.5 256t68.5 213.5t75.5 173t69 125t51 79l19 26l274 -117q-10 -13 -26 -39t-57.5 -120.5t-73 -205
t-57.5 -294.5t-26 -387z" />
    <glyph glyph-name="parenright" unicode=")" horiz-adv-x="866" 
d="M381 629q0 203 -24.5 385.5t-60 298t-71 201.5t-59.5 124l-25 37l275 117q14 -18 38 -52t84.5 -149.5t107 -241.5t84.5 -322t38 -398q0 -147 -19.5 -290.5t-50.5 -255.5t-68.5 -213t-75 -172.5t-68.5 -124.5t-50 -79l-20 -26l-275 116q10 13 26 39t57.5 120.5t73 204.5
t57.5 294t26 387z" />
    <glyph glyph-name="asterisk" unicode="*" horiz-adv-x="1122" 
d="M455 1761h213v-256l250 78l61 -192l-248 -91l143 -217l-159 -108l-154 199l-153 -199l-160 108l143 217l-248 91l62 192l250 -78v256z" />
    <glyph glyph-name="plus" unicode="+" horiz-adv-x="1302" 
d="M467 1376h369v-342h342v-368h-342v-342h-369v342h-342v368h342v342z" />
    <glyph glyph-name="comma" unicode="," horiz-adv-x="792" 
d="M395 512q114 0 193.5 -79t79.5 -193q0 -334 -398 -664l-123 100q135 135 175 298l4 18q-89 22 -145 89t-56 159q0 114 78.5 193t191.5 79z" />
    <glyph glyph-name="hyphen" unicode="-" horiz-adv-x="897" 
d="M119 776h659v-366h-659v366z" />
    <glyph glyph-name="period" unicode="." horiz-adv-x="794" 
d="M397 512q114 0 193.5 -79t79.5 -193t-79.5 -193.5t-193.5 -79.5t-193 79.5t-79 193.5t79 193t193 79z" />
    <glyph glyph-name="slash" unicode="/" horiz-adv-x="1325" 
d="M57 -246l844 2007h367l-844 -2007h-367z" />
    <glyph glyph-name="zero" unicode="0" horiz-adv-x="1441" 
d="M1409 844q0 -171 -37 -315.5t-101 -247t-151.5 -174t-188 -106t-210.5 -34.5t-210.5 34.5t-188 106t-151.5 174t-101 247t-37 315.5t37 315.5t101 246.5t151.5 173.5t188 106t210.5 34.5t210.5 -34.5t188 -106t151.5 -173.5t101 -246.5t37 -315.5zM721 362
q114 0 173.5 127.5t59.5 354.5t-59.5 354t-173.5 127t-174 -127.5t-60 -353.5q0 -227 60 -354.5t174 -127.5z" />
    <glyph glyph-name="one" unicode="1" horiz-adv-x="884" 
d="M20 1690h764v-1690h-450v1247h-314v443z" />
    <glyph glyph-name="two" unicode="2" horiz-adv-x="1548" 
d="M102 1239q3 10 9.5 27.5t31.5 67.5t55.5 95.5t84.5 101.5t116 96t152 67.5t190 27.5q131 0 237 -24t175.5 -61t120.5 -92t78 -107t43 -116.5t20 -109.5t4 -96q0 -83 -29 -167.5t-75 -153.5t-101.5 -133t-111 -111.5t-101.5 -83t-75 -53.5l-29 -19h553v-395h-1352v236
q17 12 47.5 34t117 89.5t165.5 133.5t175.5 157.5t166 171.5t117 164t47.5 147q0 112 -48 162.5t-145 50.5q-32 0 -64 -16t-57.5 -42t-48.5 -57t-40.5 -62.5t-30 -57.5t-18.5 -42l-7 -16z" />
    <glyph glyph-name="three" unicode="3" horiz-adv-x="1378" 
d="M96 1360q2 8 7 20.5t26 50t47.5 71.5t74.5 75.5t105 71.5t142 50.5t182 20.5q254 0 417 -142.5t163 -363.5q0 -174 -117 -294q192 -141 192 -377q0 -166 -86 -298t-235.5 -205t-333.5 -73q-107 0 -201.5 22.5t-159.5 59t-119 80t-87 87t-55 80t-31 58.5l-9 23l416 209
q0 -5 1.5 -13.5t7.5 -32.5t15.5 -46.5t28.5 -49.5t43.5 -46t63 -32.5t84.5 -13.5q91 0 150 49t59 142q0 95 -60 155t-151 60q-19 0 -38.5 -4t-29.5 -8l-10 -3v291h92q61 0 111.5 51t50.5 125q0 64 -53.5 107t-122.5 43q-53 0 -96 -18t-66.5 -44t-39 -52t-20.5 -44l-5 -18z
" />
    <glyph glyph-name="four" unicode="4" horiz-adv-x="1415" 
d="M-63 299v127l815 1264h446v-996h197v-395h-197v-299h-422v299h-839zM555 694h221v396z" />
    <glyph glyph-name="five" unicode="5" horiz-adv-x="1286" 
d="M289 1690h862v-396h-475l-27 -176q101 -1 186 -17.5t165.5 -59t136.5 -108t89.5 -170t33.5 -239.5q0 -159 -83.5 -286.5t-228.5 -198t-321 -70.5q-132 0 -240 32.5t-179.5 87.5t-116.5 116t-71 131l357 172q43 -162 250 -162q74 0 127 55t53 138q0 247 -416 247
q-60 0 -122.5 -8.5t-94.5 -17.5l-33 -8z" />
    <glyph glyph-name="six" unicode="6" horiz-adv-x="1409" 
d="M39 545q0 162 29 279t88 216t174 234l350 416h555l-490 -568q34 15 95 15q66 0 137 -22.5t141.5 -70.5t126.5 -116t90.5 -167.5t34.5 -215.5q0 -120 -37.5 -218.5t-100 -164t-146 -110.5t-172 -65t-181.5 -20q-191 0 -350.5 76.5t-251.5 209.5t-92 292zM508 543
q0 -88 57 -145.5t146 -57.5t148 57.5t59 145.5q0 90 -59.5 149.5t-147.5 59.5q-86 0 -144.5 -58.5t-58.5 -150.5z" />
    <glyph glyph-name="seven" unicode="7" horiz-adv-x="1476" 
d="M174 1690h1364v-129l-893 -1561h-532l757 1294h-696v396z" />
    <glyph glyph-name="eight" unicode="8" horiz-adv-x="1433" 
d="M131 1294q0 122 87 221.5t220.5 152t278.5 52.5t278.5 -52.5t220.5 -152t87 -221.5q0 -248 -216 -379q133 -64 211 -178t78 -280q0 -105 -55.5 -198t-147 -156t-211 -99.5t-245.5 -36.5q-101 0 -198.5 23t-180 66.5t-146 102.5t-99.5 136t-36 162q0 166 78 280t211 178
q-215 131 -215 379zM551 530q0 -77 45.5 -125.5t120.5 -48.5t120.5 48.5t45.5 125.5q0 76 -47 125.5t-119 49.5t-119 -49.5t-47 -125.5zM565 1229q0 -67 44.5 -109.5t107.5 -42.5t107 42.5t44 109.5q0 64 -43 107.5t-108 43.5t-108.5 -43.5t-43.5 -107.5z" />
    <glyph glyph-name="nine" unicode="9" horiz-adv-x="1409" 
d="M39 1143q0 120 37.5 218.5t100 164t146 110t172 64.5t181.5 20q143 0 271.5 -45t221 -121.5t147 -184t54.5 -226.5q0 -162 -29 -279t-88 -216t-174 -234l-350 -414h-555l490 565q-34 -14 -95 -14q-66 0 -137 22.5t-141.5 70.5t-126.5 116t-90.5 167.5t-34.5 215.5z
M492 1145q0 -90 59 -149.5t147 -59.5q86 0 144.5 58.5t58.5 150.5q0 88 -57 145.5t-146 57.5t-147.5 -57.5t-58.5 -145.5z" />
    <glyph glyph-name="colon" unicode=":" horiz-adv-x="794" 
d="M397 512q114 0 193.5 -79t79.5 -193t-79.5 -193.5t-193.5 -79.5t-193 79.5t-79 193.5t79 193t193 79zM397 1196q114 0 193.5 -79t79.5 -193t-79.5 -193.5t-193.5 -79.5t-193 79.5t-79 193.5t79 193t193 79z" />
    <glyph glyph-name="semicolon" unicode=";" horiz-adv-x="794" 
d="M397 1196q114 0 193.5 -79t79.5 -193t-79.5 -193.5t-193.5 -79.5t-193 79.5t-79 193.5t79 193t193 79zM395 512q114 0 193.5 -79t79.5 -193q0 -334 -398 -664l-123 100q135 135 175 298l4 18q-89 22 -145 89t-56 159q0 114 78.5 193t191.5 79z" />
    <glyph glyph-name="less" unicode="&#x3c;" horiz-adv-x="1378" 
d="M145 993l1119 434v-337l-666 -238l666 -238v-338l-1119 435v282z" />
    <glyph glyph-name="equal" unicode="=" horiz-adv-x="1302" 
d="M125 1294h1053v-368h-1053v368zM125 776h1053v-368h-1053v368z" />
    <glyph glyph-name="greater" unicode="&#x3e;" horiz-adv-x="1378" 
d="M115 1427l1118 -434v-282l-1118 -435v338l665 238l-665 238v337z" />
    <glyph glyph-name="question" unicode="?" horiz-adv-x="1228" 
d="M612 510q114 0 193.5 -79t79.5 -193q0 -113 -79.5 -192t-193.5 -79q-112 0 -191 79t-79 192q0 114 78.5 193t191.5 79zM41 1311q15 55 41 108t73 109t108 97.5t151 68t196 26.5q125 0 227 -36t166 -91t107.5 -125.5t61.5 -136t18 -125.5q0 -48 -12 -100.5t-41 -111.5
t-71 -110.5t-108 -96t-147 -68.5v-131h-395v504q77 -19 200 -19q53 0 91.5 17.5t54.5 42.5t22.5 43t6.5 30q0 9 -3 22.5t-14.5 35t-29.5 39t-53 30.5t-81 13q-39 0 -71 -6.5t-51.5 -14t-38 -22.5t-26 -23.5t-20 -26t-14.5 -20.5z" />
    <glyph glyph-name="at" unicode="@" horiz-adv-x="1861" 
d="M27 846q0 193 75 358t202 277t297.5 175.5t359.5 63.5q240 0 439.5 -99t319 -284t119.5 -419q0 -97 -28 -176t-73 -130t-105.5 -85.5t-123 -49t-127.5 -14.5q-82 0 -163 22t-138 62q-101 -105 -237 -105q-156 0 -257.5 111.5t-101.5 271.5q0 162 101.5 274.5t257.5 112.5
q126 0 217 -57v37h280v-352q0 -42 26.5 -65t68.5 -23q66 0 94.5 37t28.5 129q0 217 -169 354t-427 137q-163 0 -299 -76t-213.5 -205t-77.5 -282q0 -150 80.5 -275t216 -195.5t293.5 -70.5q62 0 119 10.5t93.5 25.5t64 29.5t40.5 25.5l12 10l275 -185q-7 -10 -21 -27.5
t-66.5 -61t-116 -77t-171.5 -61t-231 -27.5q-148 0 -288 40.5t-256.5 118.5t-204 184t-136.5 244t-49 292zM811 829q0 -53 33.5 -83.5t89.5 -30.5q54 0 89.5 31.5t35.5 82.5q0 53 -37 87t-88 34t-87 -34t-36 -87z" />
    <glyph glyph-name="A" unicode="A" horiz-adv-x="1654" 
d="M618 1690h418l688 -1690h-485l-102 281h-619l-102 -281h-486zM670 676h315l-158 401z" />
    <glyph glyph-name="B" unicode="B" horiz-adv-x="1374" 
d="M100 1690h572q89 0 163.5 -13t141.5 -44t113.5 -79t74 -123t27.5 -171q0 -116 -50.5 -210t-150.5 -149q79 -15 140 -43.5t109.5 -77t74.5 -125t26 -178.5q0 -213 -149 -345t-410 -132h-682v1690zM551 1343v-286h-10q111 0 163 34t52 121q0 70 -52.5 100.5t-162.5 30.5h10
zM551 670v-324h70q125 0 185 33.5t60 114.5q0 100 -59 138t-186 38h-70z" />
    <glyph glyph-name="C" unicode="C" horiz-adv-x="1511" 
d="M27 844q0 142 50 276t139 241.5t204.5 189t252.5 125.5t277 44q103 0 198.5 -15.5t158 -37t110 -43.5t69.5 -38l21 -15l-190 -385q-5 4 -14 10t-39 22t-62.5 28t-82 22t-99.5 10q-106 0 -193.5 -28t-144.5 -73t-96 -103.5t-55.5 -116t-16.5 -113.5t16.5 -113.5t55.5 -116
t96 -103.5t144.5 -73t193.5 -28q50 0 99 9.5t83 23t61 27t41 22.5l13 10l190 -385q-8 -6 -22.5 -16t-67 -36t-112 -46t-156 -36t-199.5 -16q-140 0 -277 44.5t-252.5 126t-204.5 188.5t-139 241.5t-50 276.5z" />
    <glyph glyph-name="D" unicode="D" horiz-adv-x="1499" 
d="M100 1690h521q172 0 328 -63.5t271.5 -174t184 -269.5t68.5 -339q0 -181 -68 -339.5t-183.5 -268.5t-271.5 -173t-329 -63h-521v1690zM551 1286v-883h16q187 0 301.5 125.5t116.5 315.5q0 189 -114.5 315.5t-303.5 126.5h-16z" />
    <glyph glyph-name="E" unicode="E" horiz-adv-x="1187" 
d="M100 1690h1000v-396h-549v-250h524v-395h-524v-254h549v-395h-1000v1690z" />
    <glyph glyph-name="F" unicode="F" horiz-adv-x="1187" 
d="M100 1690h1012v-396h-561v-250h516v-395h-516v-649h-451v1690z" />
    <glyph glyph-name="G" unicode="G" horiz-adv-x="1650" 
d="M27 844q0 180 62.5 341.5t170.5 279t261.5 186.5t328.5 69q432 0 651 -288l-276 -304q-40 86 -133.5 135.5t-214.5 49.5q-148 0 -255.5 -137.5t-107.5 -331.5q0 -190 106.5 -325.5t256.5 -135.5q70 0 135.5 26t112 84t46.5 136h-321v346h780v-328q0 -88 -31.5 -181.5
t-97 -183t-156 -159.5t-219.5 -113t-276 -43q-134 0 -260 44.5t-227 125.5t-177 189t-117.5 241.5t-41.5 276.5z" />
    <glyph glyph-name="H" unicode="H" horiz-adv-x="1536" 
d="M100 1690h451v-646h434v646h451v-1690h-451v649h-434v-649h-451v1690z" />
    <glyph glyph-name="I" unicode="I" horiz-adv-x="651" 
d="M100 1690h451v-1690h-451v1690z" />
    <glyph glyph-name="J" unicode="J" horiz-adv-x="929" 
d="M401 1690h451v-1215q0 -248 -135.5 -378t-390.5 -130q-68 0 -133.5 16.5t-111 40.5t-81 48t-52.5 40l-18 17l144 373q13 -12 33.5 -29t70.5 -45.5t84 -28.5q60 0 99.5 46t39.5 143v1102z" />
    <glyph glyph-name="K" unicode="K" horiz-adv-x="1677" 
d="M100 1690h451v-658l526 658h547l-655 -797l768 -893h-621l-565 678v-678h-451v1690z" />
    <glyph glyph-name="L" unicode="L" horiz-adv-x="1163" 
d="M100 1690h451v-1295h545v-395h-996v1690z" />
    <glyph glyph-name="M" unicode="M" horiz-adv-x="1937" 
d="M150 1690h479l340 -877l340 877h479l133 -1690h-451l-49 887l-319 -887h-266l-320 887l-49 -887h-451z" />
    <glyph glyph-name="N" unicode="N" horiz-adv-x="1708" 
d="M100 1690h451l606 -942v942h451v-1690h-451l-606 942v-942h-451v1690z" />
    <glyph glyph-name="O" unicode="O" horiz-adv-x="1757" 
d="M27 844q0 182 68 345t183 279t272 184t329 68t329 -68t272 -184t183 -279t68 -345t-68 -345t-183 -279.5t-272 -184.5t-329 -68t-329 68t-272 184.5t-183 279.5t-68 345zM512 844q0 -65 12 -126.5t40 -119.5t69 -101.5t104.5 -69.5t141.5 -26t141.5 26t104.5 69.5
t68.5 101.5t39.5 119.5t12 126.5t-12 126.5t-39.5 119.5t-68.5 101t-104.5 69t-141.5 26q-97 0 -170.5 -39t-115 -104.5t-61.5 -140.5t-20 -158z" />
    <glyph glyph-name="P" unicode="P" horiz-adv-x="1382" 
d="M100 1690h668q125 0 230.5 -32.5t186 -96.5t126 -167.5t45.5 -236.5q0 -176 -79.5 -303.5t-210.5 -189.5t-298 -62h-217v-602h-451v1690zM551 1331v-373h70q260 0 260 185q0 188 -260 188h-70z" />
    <glyph glyph-name="Q" unicode="Q" horiz-adv-x="1757" 
d="M27 844q0 182 68 345t183 279t272 184t329 68t329 -68t272 -184t183 -279t68 -345q0 -232 -109 -430q114 -43 215 -68l-199 -401q-159 61 -309 153q-204 -131 -450 -131q-172 0 -329 68t-272 184.5t-183 279.5t-68 345zM512 844q0 -65 12 -126.5t40 -119.5t69 -101.5
t104.5 -69.5t141.5 -26l61 5q-110 107 -190 223l190 239q123 -133 268 -233q37 98 37 209q0 65 -12 126.5t-39.5 119.5t-68.5 101t-104.5 69t-141.5 26q-97 0 -170.5 -39t-115 -104.5t-61.5 -140.5t-20 -158z" />
    <glyph glyph-name="R" unicode="R" horiz-adv-x="1533" 
d="M100 1690h668q125 0 230.5 -32.5t186 -96.5t126 -167.5t45.5 -236.5q0 -191 -87.5 -321.5t-238.5 -194.5l547 -641h-571l-455 586v-586h-451v1690zM551 1331v-373h70q260 0 260 185q0 188 -260 188h-70z" />
    <glyph glyph-name="S" unicode="S" 
d="M186 1186q0 119 50.5 221t132 169.5t184 105.5t207.5 38q91 0 181.5 -15t153.5 -36t113.5 -42.5t75.5 -36.5l25 -15l-179 -363q-7 4 -19 10.5t-49.5 24t-75.5 30.5t-91.5 23.5t-101.5 10.5q-164 0 -164 -109q0 -31 39 -63t151 -74q53 -20 98.5 -39.5t101.5 -49
t100.5 -60.5t88.5 -73t73.5 -87.5t48 -104t18.5 -121.5q0 -125 -37 -223.5t-99.5 -161t-149.5 -103.5t-179.5 -58t-198.5 -17q-120 0 -231.5 20t-185 48.5t-130 57.5t-82.5 49l-26 20l223 383q9 -7 25.5 -17.5t67 -38t100.5 -48.5t118.5 -38.5t128.5 -17.5q160 0 160 119
q0 25 -9.5 47t-34 44.5t-47.5 39.5t-71.5 41.5t-82.5 40.5t-103 47q-147 66 -232.5 179.5t-85.5 242.5z" />
    <glyph glyph-name="T" unicode="T" horiz-adv-x="1228" 
d="M20 1690h1188v-396h-368v-1294h-451v1294h-369v396z" />
    <glyph glyph-name="U" unicode="U" horiz-adv-x="1519" 
d="M991 1690h451v-1094q0 -312 -173.5 -470.5t-508.5 -158.5t-508.5 158.5t-173.5 470.5v1094h450v-959q0 -98 13 -160.5t43 -98t71 -49t105 -13.5q86 0 133.5 25.5t72.5 95.5t25 200v959z" />
    <glyph glyph-name="V" unicode="V" horiz-adv-x="1687" 
d="M-41 1690h508l377 -1012l377 1012h508l-709 -1690h-352z" />
    <glyph glyph-name="W" unicode="W" horiz-adv-x="2293" 
d="M1833 1690h502l-477 -1690h-500l-211 823l-211 -823h-500l-477 1690h502l250 -1065l268 1065h336l268 -1065z" />
    <glyph glyph-name="X" unicode="X" horiz-adv-x="1744" 
d="M1143 1690h536l-530 -781l637 -909h-557l-357 518l-356 -518h-557l637 909l-530 781h536l270 -408z" />
    <glyph glyph-name="Y" unicode="Y" horiz-adv-x="1638" 
d="M-41 1690h543l317 -469l318 469h542l-635 -924v-766h-450v766z" />
    <glyph glyph-name="Z" unicode="Z" horiz-adv-x="1583" 
d="M139 1690h1424l-760 -1297h706v-393h-1491l760 1296h-639v394z" />
    <glyph glyph-name="bracketleft" unicode="[" horiz-adv-x="978" 
d="M100 1761h725v-276h-360v-1741h360v-276h-725v2293z" />
    <glyph glyph-name="backslash" unicode="\" horiz-adv-x="1325" 
d="M57 1761h367l844 -1761h-367z" />
    <glyph glyph-name="bracketright" unicode="]" horiz-adv-x="978" 
d="M156 1761h725v-2293h-725v276h360v1741h-360v276z" />
    <glyph glyph-name="asciicircum" unicode="^" horiz-adv-x="1044" 
d="M412 1722h221l424 -483h-385l-150 178l-149 -178h-385z" />
    <glyph glyph-name="underscore" unicode="_" horiz-adv-x="1050" 
d="M0 -6h1051v-201h-1051v201z" />
    <glyph glyph-name="grave" unicode="`" horiz-adv-x="851" 
d="M92 1450l215 270l453 -397l-131 -180z" />
    <glyph glyph-name="a" unicode="a" 
d="M29 524q0 151 64 278t183.5 203t270.5 76q189 0 319 -100v68h426v-1049h-426v82q-150 -115 -319 -115q-151 0 -270.5 76t-183.5 203t-64 278zM479 524q0 -86 54 -141t145 -55q86 0 141 55.5t55 140.5t-57.5 141t-138.5 56q-84 0 -141.5 -56t-57.5 -141z" />
    <glyph glyph-name="b" unicode="b" 
d="M1360 524q0 -151 -64 -278t-183.5 -203t-270.5 -76q-170 0 -320 115v-82h-426v1761h426v-780q130 100 320 100q151 0 270.5 -76t183.5 -203t64 -278zM909 524q0 85 -57 141t-141 56q-81 0 -139 -56t-58 -141t55.5 -140.5t141.5 -55.5q91 0 144.5 55t53.5 141z" />
    <glyph glyph-name="c" unicode="c" horiz-adv-x="962" 
d="M29 524q0 112 49 215.5t129.5 178t187.5 119t219 44.5q65 0 125 -9.5t99 -23.5t69.5 -28t44.5 -24l13 -9l-140 -287q-55 35 -147 35q-80 0 -139.5 -63t-59.5 -148t59.5 -148t139.5 -63q92 0 147 35l140 -287q-5 -4 -14.5 -10t-42.5 -22.5t-70.5 -29t-98 -22.5t-125.5 -10
q-112 0 -219 44.5t-187.5 119t-129.5 178t-49 215.5z" />
    <glyph glyph-name="d" unicode="d" 
d="M29 524q0 151 64 278t183.5 203t270.5 76q189 0 319 -100v780h426v-1761h-426v82q-150 -115 -319 -115q-151 0 -270.5 76t-183.5 203t-64 278zM479 524q0 -86 54 -141t145 -55q86 0 141 55.5t55 140.5t-57.5 141t-138.5 56q-84 0 -141.5 -56t-57.5 -141z" />
    <glyph glyph-name="e" unicode="e" horiz-adv-x="1212" 
d="M29 526q0 113 46.5 216t125 177t186.5 118t227 44q123 0 226.5 -35.5t180.5 -102.5t120 -171t43 -235q0 -22 -4 -72h-711q0 -47 19 -81.5t48.5 -50.5t55.5 -23t49 -7q78 0 117 16t104 78l305 -151q-88 -149 -228 -214t-329 -65q-156 0 -290.5 76.5t-212.5 205.5t-78 277z
M481 686h287q-19 113 -141 113q-71 0 -107.5 -31.5t-38.5 -81.5z" />
    <glyph glyph-name="f" unicode="f" horiz-adv-x="858" 
d="M10 1049h164v182q0 249 119.5 405t329.5 156q57 0 112 -10.5t92 -26t66 -31t43 -26.5l14 -10l-147 -297q-46 24 -105 24q-62 0 -80 -42.5t-18 -155.5v-168h234v-324h-234v-725h-426v725h-164v324z" />
    <glyph glyph-name="g" unicode="g" 
d="M29 524q0 151 64 278t183.5 203t270.5 76q189 0 319 -100v68h426v-1078q0 -130 -48.5 -233t-134 -168t-200 -99t-250.5 -34q-58 0 -107.5 4t-110 14.5t-112 32.5t-101.5 54t-91.5 83t-70.5 117l344 170q87 -107 247 -107q20 0 43.5 4.5t54 18t54.5 34.5t40.5 59t16.5 87
v74q-150 -115 -319 -115q-151 0 -270.5 76t-183.5 203t-64 278zM479 524q0 -86 54 -141t145 -55q86 0 141 55.5t55 140.5t-57.5 141t-138.5 56q-84 0 -141.5 -56t-57.5 -141z" />
    <glyph glyph-name="h" unicode="h" horiz-adv-x="1378" 
d="M100 1761h426v-811q57 57 137 94t162 37q56 0 114.5 -10.5t124 -37.5t116 -68.5t83.5 -110t33 -154.5v-700h-426v586q0 71 -42.5 118.5t-112.5 47.5q-77 0 -133 -55.5t-56 -127.5v-569h-426v1761z" />
    <glyph glyph-name="i" unicode="i" horiz-adv-x="626" 
d="M100 1049h426v-1049h-426v1049zM311 1772q103 0 176.5 -73.5t73.5 -176.5t-73.5 -176.5t-176.5 -73.5t-176.5 73.5t-73.5 176.5t73.5 176.5t176.5 73.5z" />
    <glyph glyph-name="j" unicode="j" horiz-adv-x="626" 
d="M100 1049h426v-1190q0 -58 -11.5 -113.5t-41 -112.5t-74 -99.5t-117 -69.5t-163.5 -27q-92 0 -171 17.5t-112 34.5l-33 17l131 342q47 -28 84 -28q82 0 82 123v1106zM311 1772q103 0 176.5 -73.5t73.5 -176.5t-73.5 -176.5t-176.5 -73.5t-176.5 73.5t-73.5 176.5
t73.5 176.5t176.5 73.5z" />
    <glyph glyph-name="k" unicode="k" horiz-adv-x="1415" 
d="M100 1761h426v-1065l367 353h551l-537 -529l559 -520h-546l-394 358v-358h-426v1761z" />
    <glyph glyph-name="l" unicode="l" horiz-adv-x="626" 
d="M100 1761h426v-1761h-426v1761z" />
    <glyph glyph-name="m" unicode="m" horiz-adv-x="2027" 
d="M100 1049h426v-99q160 131 297 131q109 0 210.5 -43.5t156.5 -140.5q165 184 344 184q56 0 109.5 -10.5t109.5 -37.5t98 -68.5t68.5 -109.5t26.5 -155v-700h-426v586q0 64 -37 110.5t-113 46.5q-70 0 -102.5 -39t-32.5 -102v-602h-426v586q0 64 -37 110.5t-113 46.5
q-133 0 -133 -155v-588h-426v1049z" />
    <glyph glyph-name="n" unicode="n" horiz-adv-x="1378" 
d="M100 1049h426v-99q57 57 137 94t162 37q56 0 114.5 -10.5t124 -37.5t116 -68.5t83.5 -110t33 -154.5v-700h-426v586q0 71 -42.5 118.5t-112.5 47.5q-77 0 -133 -55.5t-56 -127.5v-569h-426v1049z" />
    <glyph glyph-name="o" unicode="o" horiz-adv-x="1335" 
d="M29 524q0 161 84.5 289t230 198t324.5 70t324.5 -70t230 -198t84.5 -289t-84.5 -289t-230 -198t-324.5 -70t-324.5 70t-230 198t-84.5 289zM475 524q0 -86 56.5 -141t136.5 -55t136 55t56 141t-56 141.5t-136 55.5t-136.5 -55.5t-56.5 -141.5z" />
    <glyph glyph-name="p" unicode="p" 
d="M1360 524q0 -151 -64 -278t-183.5 -203t-270.5 -76q-170 0 -320 115v-614h-426v1581h426v-68q130 100 320 100q151 0 270.5 -76t183.5 -203t64 -278zM909 524q0 85 -57 141t-141 56q-81 0 -139 -56t-58 -141t55.5 -140.5t141.5 -55.5q91 0 144.5 55t53.5 141z" />
    <glyph glyph-name="q" unicode="q" 
d="M29 524q0 151 64 278t183.5 203t270.5 76q189 0 319 -100v68h426v-1581h-426v614q-150 -115 -319 -115q-151 0 -270.5 76t-183.5 203t-64 278zM479 524q0 -86 54 -141t145 -55q86 0 141 55.5t55 140.5t-57.5 141t-138.5 56q-84 0 -141.5 -56t-57.5 -141z" />
    <glyph glyph-name="r" unicode="r" horiz-adv-x="1075" 
d="M100 1049h426v-148q5 7 14.5 19.5t42.5 43.5t68.5 54.5t91.5 43t113 19.5q65 0 126 -18.5t90 -36.5l28 -18l-178 -359q-3 3 -7.5 7t-22.5 15t-39 19.5t-55.5 15.5t-72.5 7q-53 0 -92.5 -20t-59 -46t-31 -58t-14 -49t-2.5 -26v-514h-426v1049z" />
    <glyph glyph-name="s" unicode="s" horiz-adv-x="1015" 
d="M594 1081q96 0 188.5 -15.5t136.5 -31.5l44 -16l-134 -281q-124 49 -235 49q-51 0 -68.5 -7.5t-17.5 -26.5q0 -9 3 -16t11 -12.5t16 -10t22.5 -9.5t26 -8.5t32 -9t34.5 -10.5q48 -15 87.5 -31.5t84.5 -46t76 -65t51.5 -88.5t20.5 -115q0 -68 -18 -122.5t-47.5 -92
t-73 -65t-88 -43.5t-100.5 -25t-102 -12t-100 -3q-76 0 -146 11.5t-116.5 28t-82 33.5t-51.5 28l-17 12l168 295q15 -11 41 -27t91.5 -42.5t114.5 -26.5q44 0 61 8t17 26q0 25 -28.5 40t-89.5 36.5t-105 46.5q-94 53 -146.5 119t-52.5 172q0 170 133.5 262t358.5 92z" />
    <glyph glyph-name="t" unicode="t" horiz-adv-x="849" 
d="M10 1049h164v393h426v-393h209v-324h-209v-244q0 -133 70 -133q18 0 38.5 8t31.5 16l12 9l106 -342q-15 -8 -41 -20t-103 -32t-149 -20q-90 0 -160.5 26t-113 67.5t-69.5 99.5t-37.5 115.5t-10.5 121.5v328h-164v324z" />
    <glyph glyph-name="u" unicode="u" horiz-adv-x="1376" 
d="M868 1049h426v-584q0 -264 -144 -381t-462 -117t-462 117t-144 381v584h426v-478q0 -140 38.5 -200t141.5 -60t141.5 60t38.5 200v478z" />
    <glyph glyph-name="v" unicode="v" horiz-adv-x="1343" 
d="M-51 1049h504l219 -496l219 496h504l-580 -1049h-287z" />
    <glyph glyph-name="w" unicode="w" horiz-adv-x="2064" 
d="M-51 1049h487l221 -492l230 492h291l229 -492l221 492h488l-580 -1049h-287l-217 463l-217 -463h-287z" />
    <glyph glyph-name="x" unicode="x" horiz-adv-x="1351" 
d="M35 1049h495l146 -199l145 199h496l-385 -496l450 -553h-512l-194 254l-195 -254h-512l451 553z" />
    <glyph glyph-name="y" unicode="y" horiz-adv-x="1351" 
d="M-49 1049h489l258 -443l213 443h490l-856 -1581h-490l394 735z" />
    <glyph glyph-name="z" unicode="z" horiz-adv-x="1146" 
d="M86 1049h1063l-447 -730h402v-319h-1106l446 729h-358v320z" />
    <glyph glyph-name="braceleft" unicode="{" horiz-adv-x="989" 
d="M113 725q159 0 159 141v525q0 55 8.5 104t31 99t58 86t94 58.5t134.5 22.5h231v-303h-92q-38 0 -69 -31t-31 -73v-492q0 -174 -145 -248q145 -74 145 -247v-492q0 -42 31 -73t69 -31h92v-303h-231q-76 0 -134.5 22.5t-94 58.5t-58 86t-31 99t-8.5 104v524q0 142 -159 142
v221z" />
    <glyph glyph-name="bar" unicode="|" horiz-adv-x="565" 
d="M100 1761h365v-1761h-365v1761z" />
    <glyph glyph-name="braceright" unicode="}" horiz-adv-x="989" 
d="M160 1761h231q76 0 134.5 -22.5t94 -58.5t58 -86t31 -99t8.5 -104v-525q0 -141 160 -141v-221q-75 0 -117.5 -35t-42.5 -107v-524q0 -55 -8.5 -104t-31 -99t-58 -86t-94 -58.5t-134.5 -22.5h-231v303h92q38 0 69 31t31 73v492q0 172 146 247q-146 75 -146 248v492
q0 42 -31 73t-69 31h-92v303z" />
    <glyph glyph-name="asciitilde" unicode="~" horiz-adv-x="1447" 
d="M1337 891q-6 -14 -20 -39t-50 -74t-77 -88t-104 -69.5t-128 -30.5q-31 0 -58.5 3t-54.5 11t-45.5 14t-45.5 20t-38.5 20.5t-41 24t-37.5 22.5l-32 20t-37 22t-33.5 14t-38.5 7q-32 0 -60 -16.5t-45.5 -40t-30.5 -47t-18 -40.5l-6 -16l-219 195q7 15 20 39t49 73.5
t77 88.5t104 69.5t129 30.5q31 0 58.5 -3t54.5 -11t45.5 -14t45.5 -20t38.5 -20.5t41 -24t37.5 -22.5l32 -20t37 -22t33.5 -14t38.5 -7q31 0 58.5 16t45 39.5t30.5 46.5t18 39l6 16z" />
    <glyph glyph-name="exclamdown" unicode="&#xa1;" horiz-adv-x="745" 
d="M588 -535h-426l59 1168h307zM373 715q-114 0 -193.5 79t-79.5 193t79.5 193.5t193.5 79.5t193 -79.5t79 -193.5t-79 -193t-193 -79z" />
    <glyph glyph-name="cent" unicode="&#xa2;" horiz-adv-x="962" 
d="M475 -264v250q-189 47 -317.5 197.5t-128.5 340.5q0 171 108 313t273 205v261h256v-224q55 -3 106 -14t84.5 -24t59.5 -25t38 -20l11 -9l-140 -287q-55 35 -147 35q-80 0 -139.5 -63t-59.5 -148t59.5 -148t139.5 -63q92 0 147 35l140 -287q-9 -7 -27 -17.5t-78.5 -34
t-128.5 -34.5v-239h-256z" />
    <glyph glyph-name="sterling" unicode="&#xa3;" horiz-adv-x="1529" 
d="M104 809h189q-94 151 -94 326q0 123 36.5 228.5t107 186t183.5 126.5t256 46q77 0 145.5 -13t119 -35t94 -50.5t73 -59.5t53 -62.5t37.5 -60t23 -50.5t13 -35l3 -13l-378 -186q0 4 -1.5 11.5t-6.5 28t-12.5 39.5t-22.5 42.5t-33 40t-46 28t-61 11.5q-68 0 -102.5 -59.5
t-34.5 -163.5q0 -44 4 -81t15 -73.5t18 -56.5t24 -60.5t23 -54.5h311v-231h-227q0 -154 -63 -222q137 -43 272 -43q27 0 48 12.5t31 30t16.5 34.5t7.5 30l1 12l328 -162q-1 -6 -3 -17t-13 -42t-26 -59.5t-45.5 -63.5t-68.5 -60t-96.5 -42t-128.5 -17q-84 0 -179.5 16.5
t-166.5 36t-155 36t-148 16.5q-28 0 -43.5 -20t-15.5 -54h-275q-2 45 19.5 110.5t58.5 130.5t97.5 110t127.5 44q29 29 29 92q0 23 -5 45.5t-9 33.5l-5 12h-299v231z" />
    <glyph glyph-name="yen" unicode="&#xa5;" horiz-adv-x="1634" 
d="M-43 1690h543l317 -469l318 469h542l-530 -770h338v-318h-443v-88h443v-317h-443v-197h-450v197h-445v317h445v88h-445v318h338z" />
    <glyph glyph-name="brokenbar" unicode="&#xa6;" horiz-adv-x="565" 
d="M100 1761h365v-680h-365v680zM100 680h365v-680h-365v680z" />
    <glyph glyph-name="section" unicode="&#xa7;" horiz-adv-x="1310" 
d="M8 539q8 121 82.5 223.5t210.5 165.5q-94 68 -138 152.5t-44 211.5q0 84 31 158t94.5 136t172.5 98t251 36q96 0 176 -21.5t131 -56t91 -76.5t60.5 -83.5t33.5 -76t16 -56.5l4 -21l-385 -78q0 47 -30.5 82t-96.5 35q-80 0 -80 -59q0 -64 297 -199q173 -79 280 -206
t107 -296q-8 -123 -82.5 -225t-210.5 -164q93 -70 136.5 -153t43.5 -205q0 -43 -10.5 -86.5t-34 -93t-68.5 -92t-107 -77.5t-156 -55t-210 -20q-79 0 -148 13.5t-119 36.5t-92.5 52.5t-70 62t-49.5 65.5t-33.5 62.5t-19 52.5t-9.5 36l-3 14l385 80q1 -5 4 -13.5t15 -29.5
t28 -37t46 -29.5t66 -13.5q46 0 73 11t33.5 21.5t6.5 22.5q0 16 -12.5 32t-42.5 34t-56.5 31.5t-79 39t-85.5 42.5q-95 49 -164 98t-125 111.5t-84.5 139t-28.5 167.5zM401 610q0 -22 11.5 -43t37 -43t44 -35.5t53.5 -37.5q76 -43 147 -72q48 11 87 29.5t67.5 51.5t28.5 75
q0 17 -7.5 33.5t-23.5 33t-31 29.5t-41.5 29.5t-41.5 26t-45 26t-40 22.5q-34 19 -63 31q-39 -11 -66 -22t-56.5 -29.5t-45 -44.5t-15.5 -60z" />
    <glyph glyph-name="dieresis" unicode="&#xa8;" horiz-adv-x="1200" 
d="M358 1649q91 0 154 -63t63 -154t-63 -154.5t-154 -63.5t-154 63.5t-63 154.5t63 154t154 63zM842 1649q91 0 154 -63t63 -154t-63 -154.5t-154 -63.5t-154 63.5t-63 154.5t63 154t154 63z" />
    <glyph glyph-name="copyright" unicode="&#xa9;" horiz-adv-x="1812" 
d="M27 844q0 177 69.5 339t187 279.5t280 187.5t341.5 70t342 -70t281 -187.5t188 -279.5t70 -339q0 -176 -70.5 -338t-188.5 -279.5t-281 -187.5t-341 -70q-176 0 -338 70t-280.5 187.5t-189 279.5t-70.5 338zM295 844q0 -121 49.5 -233t131.5 -193t194.5 -129.5
t234.5 -48.5q124 0 237.5 48.5t196.5 129.5t132 193t49 233q0 122 -49 234.5t-131.5 194.5t-196.5 130.5t-238 48.5q-165 0 -305.5 -82t-222.5 -222.5t-82 -303.5zM528 846q0 108 61 203t158.5 149.5t204.5 54.5q158 0 250 -61l-98 -211q5 -4 2 -4q-1 0 -13 4q-55 18 -89 18
q-56 0 -98 -44.5t-42 -102.5q0 -62 42 -106t98 -44q42 0 94 18q4 0 4 -1q19 -43 53.5 -115t46.5 -98q4 4 -2 1q-74 -31 -118 -41q-66 -15 -130 -15q-107 0 -204.5 53t-158.5 145t-61 197z" />
    <glyph glyph-name="ordfeminine" unicode="&#xaa;" horiz-adv-x="1077" 
d="M156 1376q0 144 89.5 244t229.5 100q118 0 197 -61v41h264v-647h-264v51q-90 -72 -197 -72q-139 0 -229 100.5t-90 243.5zM432 1376q0 -53 33.5 -87t89.5 -34q54 0 88.5 34t34.5 87t-35.5 87t-87.5 34t-87.5 -34t-35.5 -87z" />
    <glyph glyph-name="guillemotleft" unicode="&#xab;" horiz-adv-x="1331" 
d="M477 1081l219 -172l-266 -340l266 -340l-219 -172l-399 512zM989 1081l219 -172l-266 -340l266 -340l-219 -172l-399 512z" />
    <glyph glyph-name="registered" unicode="&#xae;" horiz-adv-x="1001" 
d="M41 1260q0 190 134.5 325t322.5 135q126 0 232 -61.5t167 -167.5t61 -231q0 -189 -134 -323t-326 -134q-92 0 -176.5 36.5t-146 97.5t-98 145.5t-36.5 177.5zM184 1260q0 -130 93 -223t221 -93q134 0 226.5 92.5t92.5 223.5q0 133 -92.5 226t-226.5 93q-128 0 -221 -94
t-93 -225zM358 1458h170q61 0 99.5 -31t38.5 -94q0 -83 -70 -119l123 -145h-144l-102 133v-133h-115v389zM473 1368v-74h19q17 0 26 1t18 10t9 26q0 37 -53 37h-19z" />
    <glyph glyph-name="macron" unicode="&#xaf;" horiz-adv-x="1122" 
d="M143 1565h836v-287h-836v287z" />
    <glyph glyph-name="degree" unicode="&#xb0;" horiz-adv-x="804" 
d="M160 1581q0 93 69.5 152t173.5 59t174 -59t70 -152t-70 -152t-174 -59t-173.5 59t-69.5 152zM330 1581q0 -34 21 -56t52 -22t52.5 22.5t21.5 55.5t-21.5 55.5t-52.5 22.5t-52 -22t-21 -56z" />
    <glyph glyph-name="plusminus" unicode="&#xb1;" horiz-adv-x="1282" 
d="M457 1374h368v-280h342v-367h-342v-281h-368v281h-342v367h342v280zM115 369h1052v-369h-1052v369z" />
    <glyph glyph-name="twosuperior" unicode="&#xb2;" horiz-adv-x="542" 
d="M68 1534q2 8 7.5 20.5t26 45t46 57t71 45t98.5 20.5q265 0 265 -235q0 -45 -21 -90.5t-51 -78.5t-59.5 -60t-50.5 -40l-21 -14h215v-153h-526v92q13 9 35 25.5t78 62.5t99 87.5t78 91t35 83.5q0 82 -76 82q-27 0 -53 -28.5t-38 -57.5l-13 -29z" />
    <glyph glyph-name="threesuperior" unicode="&#xb3;" horiz-adv-x="522" 
d="M43 1583q2 6 5.5 15t20.5 32.5t39.5 41.5t64.5 33t93 15q97 0 159 -53.5t62 -138.5q0 -68 -45 -113q74 -58 74 -145q0 -96 -71.5 -157.5t-178.5 -61.5q-56 0 -103 16t-73.5 38.5t-45.5 45.5t-26 39l-6 16l160 80q0 -4 1 -9.5t7 -21t15 -27t27.5 -21t43.5 -9.5
q34 0 57 18.5t23 53.5q0 36 -24 59t-58 23l-28 -4v110h34q23 0 42.5 20t19.5 48q0 24 -20.5 40.5t-47.5 16.5q-32 0 -53.5 -16.5t-26.5 -33.5l-6 -17z" />
    <glyph glyph-name="acute" unicode="&#xb4;" horiz-adv-x="1288" 
d="M311 1323l453 397l215 -270l-537 -307z" />
    <glyph glyph-name="mu" unicode="&#xb5;" horiz-adv-x="1445" 
d="M147 422v627h426v-586q0 -71 43 -118.5t113 -47.5q77 0 133 55t56 127v570h425v-1049h-425v98q-57 -57 -137.5 -94t-162.5 -37l-47 2v-297h-491q0 81 16.5 196t33.5 258.5t17 295.5z" />
    <glyph glyph-name="paragraph" unicode="&#xb6;" horiz-adv-x="1484" 
d="M27 1157q0 146 64.5 266.5t189 193.5t284.5 73h819v-1690h-241v1444h-139v-1444h-242v602h-197q-159 0 -284 79t-189.5 204.5t-64.5 271.5z" />
    <glyph glyph-name="periodcentered" unicode="&#xb7;" horiz-adv-x="794" 
d="M397 825q114 0 193.5 -79t79.5 -193t-79.5 -193t-193.5 -79t-193 79t-79 193t79 193t193 79z" />
    <glyph glyph-name="cedilla" unicode="&#xb8;" horiz-adv-x="937" 
d="M311 -244l99 299l161 -51l-41 -123q99 0 178.5 -57t79.5 -152q0 -53 -17 -99.5t-53 -87t-101 -64t-152 -23.5q-53 0 -106 18t-91 43.5t-68.5 51t-45.5 43.5l-15 18l168 127q3 -4 8.5 -10t22.5 -21.5t34.5 -27.5t43 -21.5t49.5 -9.5q84 0 84 63q0 37 -38.5 56.5
t-82.5 19.5q-31 0 -54 -3t-30 -6l-8 -3z" />
    <glyph glyph-name="onesuperior" unicode="&#xb9;" horiz-adv-x="299" 
d="M6 1690h289v-639h-170v471h-119v168z" />
    <glyph glyph-name="ordmasculine" unicode="&#xba;" horiz-adv-x="1099" 
d="M166 1374q0 151 110.5 248.5t276.5 97.5t276.5 -97.5t110.5 -248.5t-110.5 -248.5t-276.5 -97.5t-276.5 97.5t-110.5 248.5zM444 1374q0 -55 31.5 -90t77.5 -35t77.5 35t31.5 90t-31.5 90t-77.5 35t-77.5 -35t-31.5 -90z" />
    <glyph glyph-name="guillemotright" unicode="&#xbb;" horiz-adv-x="1331" 
d="M635 909l219 172l399 -512l-399 -512l-219 172l266 340zM123 909l219 172l399 -512l-399 -512l-219 172l266 340z" />
    <glyph glyph-name="onequarter" unicode="&#xbc;" horiz-adv-x="1875" 
d="M233 0l984 1690h280l-983 -1690h-281zM117 1690h444v-983h-262v725h-182v258zM963 174v74l473 735h260v-580h114v-229h-114v-174h-246v174h-487zM1323 403h127v232z" />
    <glyph glyph-name="onehalf" unicode="&#xbd;" horiz-adv-x="1957" 
d="M233 0l984 1690h280l-983 -1690h-281zM117 1690h444v-983h-262v725h-182v258zM1130 711q2 6 5.5 16t18 38.5t32 54.5t48 58t66 55t87 38.5t108.5 15.5q75 0 136 -14t101 -35t69.5 -52.5t44.5 -61.5t24.5 -67t11.5 -62.5t2 -55.5q0 -65 -31 -131t-75 -114.5t-87.5 -87.5
t-74.5 -59l-31 -20h316v-227h-775v135q20 14 52 37.5t115 91.5t146 129t115 134t52 122q0 64 -27.5 93.5t-83.5 29.5q-39 0 -77 -42t-56 -84l-19 -42z" />
    <glyph glyph-name="threequarters" unicode="&#xbe;" horiz-adv-x="2045" 
d="M403 0l983 1690h281l-983 -1690h-281zM117 1491q1 4 4 11.5t14.5 29t26.5 40.5t42 43t59.5 41t80 28.5t102.5 11.5q144 0 237 -81t93 -206q0 -100 -65 -168q108 -80 108 -215q0 -142 -107 -234t-266 -92q-61 0 -114 13t-90 33.5t-67.5 45t-49 49t-31 45t-17.5 33.5l-5 13
l235 119q0 -5 1.5 -14t10.5 -31.5t22.5 -40t41 -31.5t63.5 -14q52 0 85.5 27t33.5 79q0 55 -34.5 89t-86.5 34q-11 0 -22 -2t-16 -4l-5 -2v166h52q35 0 63.5 28.5t28.5 71.5q0 36 -30.5 60t-70.5 24q-30 0 -54 -10.5t-37.5 -25t-22.5 -29t-12 -24.5l-3 -11zM1133 174v74
l473 735h260v-580h114v-229h-114v-174h-246v174h-487zM1493 403h127v232z" />
    <glyph glyph-name="questiondown" unicode="&#xbf;" horiz-adv-x="1228" 
d="M612 647q-114 0 -193 79.5t-79 193.5q0 113 79 191.5t193 78.5q113 0 192 -79t79 -191q0 -114 -79 -193.5t-192 -79.5zM1184 -154q-15 -55 -41 -108t-73.5 -109t-108.5 -97.5t-151 -68t-196 -26.5q-125 0 -227 36t-166 91t-107.5 126t-61 136t-17.5 125q0 48 12 100.5
t41 111.5t71 110.5t108 96t147 68.5v131h395v-503q-73 18 -201 18q-53 0 -91 -17t-54 -42.5t-22.5 -43.5t-6.5 -30q0 -9 3 -22.5t14 -35t29 -38.5t53 -30t81 -13q39 0 71 6.5t51.5 13.5t38.5 22.5t26 23t20 26t15 20.5z" />
    <glyph glyph-name="Agrave" unicode="&#xc0;" horiz-adv-x="1654" 
d="M618 1690h418l688 -1690h-485l-102 281h-619l-102 -281h-486zM670 676h315l-158 401zM291 2148l215 271l452 -398l-131 -180z" />
    <glyph glyph-name="Aacute" unicode="&#xc1;" horiz-adv-x="1654" 
d="M618 1690h418l688 -1690h-485l-102 281h-619l-102 -281h-486zM670 676h315l-158 401zM696 2021l453 398l215 -271l-537 -307z" />
    <glyph glyph-name="Acircumflex" unicode="&#xc2;" horiz-adv-x="1654" 
d="M618 1690h418l688 -1690h-485l-102 281h-619l-102 -281h-486zM670 676h315l-158 401zM354 2056l473 348l473 -348l-159 -215l-314 230l-313 -230z" />
    <glyph glyph-name="Atilde" unicode="&#xc3;" horiz-adv-x="1654" 
d="M618 1690h418l688 -1690h-485l-102 281h-619l-102 -281h-486zM670 676h315l-158 401zM1217 2337l221 -195q-2 -8 -17.5 -37t-50 -75t-77 -87.5t-105.5 -71.5t-129 -30q-52 0 -98 9t-90 30t-67 34.5t-67 41.5q-3 2 -25 16t-30 18.5t-25.5 13.5t-31.5 12t-29 3
q-33 0 -61.5 -16.5t-45.5 -39.5t-29.5 -46.5t-17.5 -40.5l-4 -16l-221 194q3 8 18 36t49.5 75t77 88t105.5 71.5t129 30.5q68 0 133.5 -20t98.5 -38.5t90 -55.5q5 -3 25 -16t29.5 -18.5t26 -14t31 -12t29.5 -3.5q33 0 61.5 16.5t45.5 40t29.5 47t16.5 39.5z" />
    <glyph glyph-name="Adieresis" unicode="&#xc4;" horiz-adv-x="1654" 
d="M618 1690h418l688 -1690h-485l-102 281h-619l-102 -281h-486zM670 676h315l-158 401zM586 2288q91 0 154 -63t63 -154t-63 -154.5t-154 -63.5t-154 63.5t-63 154.5t63 154t154 63zM1069 2288q91 0 154 -63t63 -154t-63 -154.5t-154 -63.5t-154 63.5t-63 154.5t63 154
t154 63z" />
    <glyph glyph-name="Aring" unicode="&#xc5;" horiz-adv-x="1652" 
d="M1237 0l-100 281h-619l-102 -281h-486l688 1690h416l688 -1690h-485zM670 676h313l-156 401zM471 2140q0 137 102 225.5t254 88.5t253.5 -88.5t101.5 -225.5q0 -139 -99.5 -227t-255.5 -88q-159 0 -257.5 87.5t-98.5 227.5zM707 2140q0 -55 33.5 -94t86.5 -39
q50 0 84.5 39t34.5 94q0 53 -35 90t-84 37q-50 0 -85 -37.5t-35 -89.5z" />
    <glyph glyph-name="AE" unicode="&#xc6;" horiz-adv-x="2007" 
d="M709 1690h1210v-396h-549v-250h524v-395h-524v-254h549v-395h-999v281h-398l-125 -281h-483zM680 676h240v553z" />
    <glyph glyph-name="Ccedilla" unicode="&#xc7;" horiz-adv-x="1515" 
d="M553 -244l88 269q-264 97 -437 321t-173 498q0 142 50 276t139 241.5t204.5 189t252.5 125.5t277 44q103 0 198.5 -15.5t158 -37t110 -43.5t69.5 -38l21 -15l-190 -385q-5 4 -14 10t-39 22t-62.5 28t-82 22t-99.5 10q-106 0 -193.5 -28t-144.5 -73t-96 -103.5t-55.5 -116
t-16.5 -113.5t16.5 -113.5t55.5 -116t96 -103.5t144.5 -73t193.5 -28q50 0 99 9.5t83 23t61 27t41 22.5l13 10l190 -385q-8 -6 -22.5 -16t-67 -36t-112 -46t-156 -36t-199.5 -16q-69 0 -149 13l-33 -99q99 0 178.5 -57t79.5 -152q0 -53 -17 -99.5t-53 -87t-101 -64
t-152 -23.5q-53 0 -106 18t-91 43.5t-68.5 51t-45.5 43.5l-15 18l168 127q3 -4 8.5 -10t22.5 -21.5t34.5 -27.5t43 -21.5t49.5 -9.5q84 0 84 63q0 37 -38.5 56.5t-82.5 19.5q-31 0 -54 -3t-30 -6l-8 -3z" />
    <glyph glyph-name="Egrave" unicode="&#xc8;" horiz-adv-x="1187" 
d="M100 1690h1000v-396h-549v-250h524v-395h-524v-254h549v-395h-1000v1690zM205 2148l215 271l452 -398l-131 -180z" />
    <glyph glyph-name="Eacute" unicode="&#xc9;" horiz-adv-x="1187" 
d="M100 1690h1000v-396h-549v-250h524v-395h-524v-254h549v-395h-1000v1690zM328 2021l452 398l215 -271l-536 -307z" />
    <glyph glyph-name="Ecircumflex" unicode="&#xca;" horiz-adv-x="1187" 
d="M100 1690h1000v-396h-549v-250h524v-395h-524v-254h549v-395h-1000v1690zM127 2056l473 348l473 -348l-160 -215l-313 230l-313 -230z" />
    <glyph glyph-name="Edieresis" unicode="&#xcb;" horiz-adv-x="1187" 
d="M100 1690h1000v-396h-549v-250h524v-395h-524v-254h549v-395h-1000v1690zM358 2288q91 0 154 -63t63 -154t-63 -154.5t-154 -63.5t-154 63.5t-63 154.5t63 154t154 63zM842 2288q91 0 154 -63t63 -154t-63 -154.5t-154 -63.5t-154 63.5t-63 154.5t63 154t154 63z" />
    <glyph glyph-name="Igrave" unicode="&#xcc;" horiz-adv-x="651" 
d="M100 1690h451v-1690h-451v1690zM-211 2148l215 271l453 -398l-131 -180z" />
    <glyph glyph-name="Iacute" unicode="&#xcd;" horiz-adv-x="651" 
d="M100 1690h451v-1690h-451v1690zM195 2021l452 398l215 -271l-536 -307z" />
    <glyph glyph-name="Icircumflex" unicode="&#xce;" horiz-adv-x="651" 
d="M100 1690h451v-1690h-451v1690zM-147 2056l473 348l473 -348l-160 -215l-313 230l-314 -230z" />
    <glyph glyph-name="Idieresis" unicode="&#xcf;" horiz-adv-x="651" 
d="M100 1690h451v-1690h-451v1690zM84 2288q91 0 154 -63t63 -154t-63 -154.5t-154 -63.5t-154 63.5t-63 154.5t63 154t154 63zM567 2288q91 0 154 -63t63 -154t-63 -154.5t-154 -63.5t-154 63.5t-63 154.5t63 154t154 63z" />
    <glyph glyph-name="Eth" unicode="&#xd0;" horiz-adv-x="1499" 
d="M-68 662v366h168v662h521q172 0 328 -63.5t271.5 -174t184 -269.5t68.5 -339q0 -181 -68 -339.5t-183.5 -268.5t-271.5 -173t-329 -63h-521v662h-168zM551 1286v-258h158v-366h-158v-259h16q187 0 301.5 125.5t116.5 315.5q0 189 -114.5 315.5t-303.5 126.5h-16z" />
    <glyph glyph-name="Ntilde" unicode="&#xd1;" horiz-adv-x="1708" 
d="M100 1690h451l606 -942v942h451v-1690h-451l-606 942v-942h-451v1690zM1243 2347l221 -195q-2 -8 -17.5 -37t-50 -75t-77 -87.5t-105.5 -71.5t-129 -30q-52 0 -98 9t-90 30t-66.5 34t-66.5 42q-5 3 -25 16t-29.5 18.5t-26 14t-31 12t-29.5 3.5q-33 0 -61.5 -16.5
t-45.5 -40t-29.5 -47t-16.5 -40.5l-5 -16l-221 194q3 8 18 36t49.5 75t77 88t105.5 71.5t129 30.5q52 0 98 -9t89.5 -29.5t67 -34t66.5 -41.5q5 -3 25 -16t29.5 -18.5t26 -14t31 -12t29.5 -3.5q33 0 61.5 16.5t45.5 40t29.5 47t16.5 39.5z" />
    <glyph glyph-name="Ograve" unicode="&#xd2;" horiz-adv-x="1757" 
d="M27 844q0 182 68 345t183 279t272 184t329 68t329 -68t272 -184t183 -279t68 -345t-68 -345t-183 -279.5t-272 -184.5t-329 -68t-329 68t-272 184.5t-183 279.5t-68 345zM512 844q0 -65 12 -126.5t40 -119.5t69 -101.5t104.5 -69.5t141.5 -26t141.5 26t104.5 69.5
t68.5 101.5t39.5 119.5t12 126.5t-12 126.5t-39.5 119.5t-68.5 101t-104.5 69t-141.5 26q-97 0 -170.5 -39t-115 -104.5t-61.5 -140.5t-20 -158zM483 2148l215 271l453 -398l-131 -180z" />
    <glyph glyph-name="Oacute" unicode="&#xd3;" horiz-adv-x="1757" 
d="M27 844q0 182 68 345t183 279t272 184t329 68t329 -68t272 -184t183 -279t68 -345t-68 -345t-183 -279.5t-272 -184.5t-329 -68t-329 68t-272 184.5t-183 279.5t-68 345zM512 844q0 -65 12 -126.5t40 -119.5t69 -101.5t104.5 -69.5t141.5 -26t141.5 26t104.5 69.5
t68.5 101.5t39.5 119.5t12 126.5t-12 126.5t-39.5 119.5t-68.5 101t-104.5 69t-141.5 26q-97 0 -170.5 -39t-115 -104.5t-61.5 -140.5t-20 -158zM606 2021l453 398l215 -271l-537 -307z" />
    <glyph glyph-name="Ocircumflex" unicode="&#xd4;" horiz-adv-x="1757" 
d="M27 844q0 182 68 345t183 279t272 184t329 68t329 -68t272 -184t183 -279t68 -345t-68 -345t-183 -279.5t-272 -184.5t-329 -68t-329 68t-272 184.5t-183 279.5t-68 345zM512 844q0 -65 12 -126.5t40 -119.5t69 -101.5t104.5 -69.5t141.5 -26t141.5 26t104.5 69.5
t68.5 101.5t39.5 119.5t12 126.5t-12 126.5t-39.5 119.5t-68.5 101t-104.5 69t-141.5 26q-97 0 -170.5 -39t-115 -104.5t-61.5 -140.5t-20 -158zM406 2056l473 348l473 -348l-160 -215l-313 230l-314 -230z" />
    <glyph glyph-name="Otilde" unicode="&#xd5;" horiz-adv-x="1757" 
d="M27 844q0 182 68 345t183 279t272 184t329 68t329 -68t272 -184t183 -279t68 -345t-68 -345t-183 -279.5t-272 -184.5t-329 -68t-329 68t-272 184.5t-183 279.5t-68 345zM512 844q0 -65 12 -126.5t40 -119.5t69 -101.5t104.5 -69.5t141.5 -26t141.5 26t104.5 69.5
t68.5 101.5t39.5 119.5t12 126.5t-12 126.5t-39.5 119.5t-68.5 101t-104.5 69t-141.5 26q-97 0 -170.5 -39t-115 -104.5t-61.5 -140.5t-20 -158zM1268 2310l221 -194q-2 -8 -17.5 -37t-50 -75t-77 -87.5t-105.5 -71.5t-129 -30q-68 0 -133.5 20t-98.5 38.5t-90 55.5
q-5 3 -25 16t-29.5 18.5t-26 14t-31 12t-29.5 3.5q-33 0 -61.5 -16.5t-45.5 -40t-29.5 -47t-16.5 -39.5l-5 -17l-221 195q3 8 18 36t49.5 75t77 88t105.5 71.5t129 30.5q52 0 98 -9t90 -30t67 -34.5t67 -41.5q5 -3 25 -16t29.5 -18.5t26 -14t31 -12t29.5 -3.5
q33 0 61.5 16.5t45.5 40t29.5 47t17.5 40.5z" />
    <glyph glyph-name="Odieresis" unicode="&#xd6;" horiz-adv-x="1757" 
d="M27 844q0 182 68 345t183 279t272 184t329 68t329 -68t272 -184t183 -279t68 -345t-68 -345t-183 -279.5t-272 -184.5t-329 -68t-329 68t-272 184.5t-183 279.5t-68 345zM512 844q0 -65 12 -126.5t40 -119.5t69 -101.5t104.5 -69.5t141.5 -26t141.5 26t104.5 69.5
t68.5 101.5t39.5 119.5t12 126.5t-12 126.5t-39.5 119.5t-68.5 101t-104.5 69t-141.5 26q-97 0 -170.5 -39t-115 -104.5t-61.5 -140.5t-20 -158zM637 2288q91 0 154 -63t63 -154t-63 -154.5t-154 -63.5t-154 63.5t-63 154.5t63 154t154 63zM1120 2288q91 0 154 -63t63 -154
t-63 -154.5t-154 -63.5t-154 63.5t-63 154.5t63 154t154 63z" />
    <glyph glyph-name="multiply" unicode="&#xd7;" horiz-adv-x="1331" 
d="M115 1145l258 256l293 -291l292 291l259 -256l-293 -295l293 -295l-259 -256l-292 291l-293 -291l-258 256l293 295z" />
    <glyph glyph-name="Oslash" unicode="&#xd8;" horiz-adv-x="1759" 
d="M29 844q0 182 68 345t183 279t272 184t329 68q212 0 399 -102l113 141l266 -205l-121 -151q195 -245 195 -559q0 -182 -68 -345t-183 -279.5t-272 -184.5t-329 -68q-219 0 -406 105l-110 -140l-267 205l121 152q-190 239 -190 555zM1247 844q0 93 -22 166l-469 -588
q65 -21 125 -21q78 0 141.5 26t104.5 69.5t68.5 101.5t39.5 119.5t12 126.5zM514 844q0 -84 21 -160l464 584q-63 18 -118 18q-97 0 -170.5 -39t-115 -104.5t-61.5 -140.5t-20 -158z" />
    <glyph glyph-name="Ugrave" unicode="&#xd9;" horiz-adv-x="1519" 
d="M991 1690h451v-1094q0 -312 -173.5 -470.5t-508.5 -158.5t-508.5 158.5t-173.5 470.5v1094h450v-959q0 -98 13 -160.5t43 -98t71 -49t105 -13.5q86 0 133.5 25.5t72.5 95.5t25 200v959zM365 2148l215 271l452 -398l-131 -180z" />
    <glyph glyph-name="Uacute" unicode="&#xda;" horiz-adv-x="1519" 
d="M991 1690h451v-1094q0 -312 -173.5 -470.5t-508.5 -158.5t-508.5 158.5t-173.5 470.5v1094h450v-959q0 -98 13 -160.5t43 -98t71 -49t105 -13.5q86 0 133.5 25.5t72.5 95.5t25 200v959zM487 2021l453 398l215 -271l-537 -307z" />
    <glyph glyph-name="Ucircumflex" unicode="&#xdb;" horiz-adv-x="1519" 
d="M991 1690h451v-1094q0 -312 -173.5 -470.5t-508.5 -158.5t-508.5 158.5t-173.5 470.5v1094h450v-959q0 -98 13 -160.5t43 -98t71 -49t105 -13.5q86 0 133.5 25.5t72.5 95.5t25 200v959zM287 2056l473 348l473 -348l-160 -215l-313 230l-314 -230z" />
    <glyph glyph-name="Udieresis" unicode="&#xdc;" horiz-adv-x="1519" 
d="M991 1690h451v-1094q0 -312 -173.5 -470.5t-508.5 -158.5t-508.5 158.5t-173.5 470.5v1094h450v-959q0 -98 13 -160.5t43 -98t71 -49t105 -13.5q86 0 133.5 25.5t72.5 95.5t25 200v959zM518 2288q91 0 154 -63t63 -154t-63 -154.5t-154 -63.5t-154 63.5t-63 154.5t63 154
t154 63zM1001 2288q91 0 154.5 -63t63.5 -154t-63.5 -154.5t-154.5 -63.5t-154 63.5t-63 154.5t63 154t154 63z" />
    <glyph glyph-name="Yacute" unicode="&#xdd;" horiz-adv-x="1638" 
d="M-41 1690h543l317 -469l318 469h542l-635 -924v-766h-450v766zM526 2021l453 398l215 -271l-537 -307z" />
    <glyph glyph-name="Thorn" unicode="&#xde;" horiz-adv-x="1236" 
d="M100 1690h451v-299h217q125 0 230.5 -32.5t186 -96.5t126 -167.5t45.5 -236.5q0 -176 -79.5 -303.5t-210.5 -189.5t-298 -62h-217v-303h-451v1690zM551 1032v-373h70q40 0 72.5 4t66 16t56.5 32t37.5 54t14.5 79q0 188 -247 188h-70z" />
    <glyph glyph-name="germandbls" unicode="&#xdf;" horiz-adv-x="1351" 
d="M174 1257q0 156 75 280t196 189.5t262 65.5q162 0 287 -68t192 -184.5t67 -261.5q0 -219 -190 -336q258 -127 258 -410q0 -245 -169.5 -402t-440.5 -163v387q71 0 115 59t44 142q0 60 -14 107t-51 79.5t-94 32.5v320q69 0 106 53t37 131q0 72 -41.5 116t-105.5 44
q-49 0 -79 -42t-30 -122v-1274h-424v643h-135v322h135v292z" />
    <glyph glyph-name="agrave" unicode="&#xe0;" 
d="M29 524q0 151 64 278t183.5 203t270.5 76q189 0 319 -100v68h426v-1049h-426v82q-150 -115 -319 -115q-151 0 -270.5 76t-183.5 203t-64 278zM479 524q0 -86 54 -141t145 -55q86 0 141 55.5t55 140.5t-57.5 141t-138.5 56q-84 0 -141.5 -56t-57.5 -141zM285 1511l215 271
l452 -398l-131 -180z" />
    <glyph glyph-name="aacute" unicode="&#xe1;" 
d="M29 524q0 151 64 278t183.5 203t270.5 76q189 0 319 -100v68h426v-1049h-426v82q-150 -115 -319 -115q-151 0 -270.5 76t-183.5 203t-64 278zM479 524q0 -86 54 -141t145 -55q86 0 141 55.5t55 140.5t-57.5 141t-138.5 56q-84 0 -141.5 -56t-57.5 -141zM367 1382l452 398
l215 -271l-536 -307z" />
    <glyph glyph-name="acircumflex" unicode="&#xe2;" 
d="M29 524q0 151 64 278t183.5 203t270.5 76q189 0 319 -100v68h426v-1049h-426v82q-150 -115 -319 -115q-151 0 -270.5 76t-183.5 203t-64 278zM479 524q0 -86 54 -141t145 -55q86 0 141 55.5t55 140.5t-57.5 141t-138.5 56q-84 0 -141.5 -56t-57.5 -141zM186 1417l473 348
l474 -348l-160 -215l-314 230l-313 -230z" />
    <glyph glyph-name="atilde" unicode="&#xe3;" 
d="M29 524q0 151 64 278t183.5 203t270.5 76q189 0 319 -100v68h426v-1049h-426v82q-150 -115 -319 -115q-151 0 -270.5 76t-183.5 203t-64 278zM479 524q0 -86 54 -141t145 -55q86 0 141 55.5t55 140.5t-57.5 141t-138.5 56q-84 0 -141.5 -56t-57.5 -141zM1049 1733
l221 -195q-2 -8 -17.5 -37t-50 -75t-77 -87.5t-105.5 -71.5t-129 -30q-52 0 -98 9t-90 30t-67 34.5t-67 41.5q-3 2 -25 16t-30 18.5t-25.5 13.5t-31.5 12t-29 3q-33 0 -61.5 -16.5t-45.5 -40t-29.5 -47t-17.5 -39.5l-4 -17l-221 195q3 8 18 36t49.5 75t77 88t105.5 71.5
t129 30.5q52 0 98 -9t90 -30t67 -34.5t67 -41.5q3 -2 25 -16t30 -18.5t25.5 -13.5t31.5 -12t29 -3q33 0 61.5 16.5t45.5 40t29.5 47t16.5 39.5z" />
    <glyph glyph-name="adieresis" unicode="&#xe4;" 
d="M29 524q0 151 64 278t183.5 203t270.5 76q189 0 319 -100v68h426v-1049h-426v82q-150 -115 -319 -115q-151 0 -270.5 76t-183.5 203t-64 278zM479 524q0 -86 54 -141t145 -55q86 0 141 55.5t55 140.5t-57.5 141t-138.5 56q-84 0 -141.5 -56t-57.5 -141zM418 1649
q91 0 154 -63t63 -154t-63 -154.5t-154 -63.5t-154 63.5t-63 154.5t63 154t154 63zM901 1649q91 0 154 -63t63 -154t-63 -154.5t-154 -63.5t-154 63.5t-63 154.5t63 154t154 63z" />
    <glyph glyph-name="aring" unicode="&#xe5;" 
d="M29 524q0 151 64 278t183.5 203t270.5 76q189 0 319 -100v68h426v-1049h-426v82q-150 -115 -319 -115q-151 0 -270.5 76t-183.5 203t-64 278zM479 524q0 -86 54 -141t145 -55q86 0 141 55.5t55 140.5t-57.5 141t-138.5 56q-84 0 -141.5 -56t-57.5 -141zM303 1501
q0 137 102.5 225.5t253.5 88.5t254 -89t103 -225t-103 -224.5t-254 -88.5t-253.5 88.5t-102.5 224.5zM539 1501q0 -52 36 -89.5t84 -37.5t84.5 37.5t36.5 89.5t-36.5 89.5t-84.5 37.5t-84 -37.5t-36 -89.5z" />
    <glyph glyph-name="ae" unicode="&#xe6;" horiz-adv-x="1935" 
d="M82 272q0 146 97.5 242t269.5 96q81 0 153.5 -14t97 -23t62.5 -26v61q0 59 -67 98t-134 39q-73 0 -143 -11.5t-104 -22.5l-33 -11l-129 291q6 4 18 10t52 21.5t84 27.5t113.5 21.5t141.5 9.5q269 0 430 -90q161 90 346 90q123 0 226.5 -35.5t180.5 -102.5t120 -171
t43 -235q0 -22 -4 -72h-711q0 -47 19 -81.5t48.5 -50.5t55.5 -23t49 -7q78 0 117 16t104 78l305 -151q-88 -149 -228 -214t-329 -65q-100 0 -202 35t-181 94l-110 -43q-218 -86 -375 -86q-165 0 -274 83.5t-109 221.5zM504 309q0 -39 39.5 -64.5t97.5 -25.5q55 0 95 25
t40 59t-40 60t-95 26q-60 0 -98.5 -21t-38.5 -59zM1204 686h287q-19 113 -141 113q-71 0 -107.5 -31.5t-38.5 -81.5z" />
    <glyph glyph-name="ccedilla" unicode="&#xe7;" horiz-adv-x="964" 
d="M330 -244l82 248q-166 63 -273.5 205t-107.5 315q0 112 49 215.5t129.5 178t187.5 119t219 44.5q65 0 125 -9.5t99 -23.5t69.5 -28t44.5 -24l13 -9l-140 -287q-55 35 -147 35q-80 0 -139.5 -63t-59.5 -148t59.5 -148t139.5 -63q92 0 147 35l140 -287q-5 -4 -14.5 -10
t-42.5 -22.5t-70.5 -29t-98 -22.5t-125.5 -10q-26 0 -38 2l-29 -88q99 0 178.5 -57t79.5 -152q0 -53 -17 -99.5t-53.5 -87t-101.5 -64t-152 -23.5q-53 0 -106 18t-91 43.5t-68 51t-45 43.5l-15 18l168 127q8 -10 22 -25t55.5 -40t79.5 -25q84 0 84 63q0 37 -38.5 56.5
t-82.5 19.5q-31 0 -54 -3t-30 -6l-8 -3z" />
    <glyph glyph-name="egrave" unicode="&#xe8;" horiz-adv-x="1212" 
d="M29 526q0 113 46.5 216t125 177t186.5 118t227 44q123 0 226.5 -35.5t180.5 -102.5t120 -171t43 -235q0 -22 -4 -72h-711q0 -47 19 -81.5t48.5 -50.5t55.5 -23t49 -7q78 0 117 16t104 78l305 -151q-88 -149 -228 -214t-329 -65q-156 0 -290.5 76.5t-212.5 205.5t-78 277z
M481 686h287q-19 113 -141 113q-71 0 -107.5 -31.5t-38.5 -81.5zM240 1509l215 271l452 -398l-131 -180z" />
    <glyph glyph-name="eacute" unicode="&#xe9;" horiz-adv-x="1212" 
d="M29 526q0 113 46.5 216t125 177t186.5 118t227 44q123 0 226.5 -35.5t180.5 -102.5t120 -171t43 -235q0 -22 -4 -72h-711q0 -47 19 -81.5t48.5 -50.5t55.5 -23t49 -7q78 0 117 16t104 78l305 -151q-88 -149 -228 -214t-329 -65q-156 0 -290.5 76.5t-212.5 205.5t-78 277z
M481 686h287q-19 113 -141 113q-71 0 -107.5 -31.5t-38.5 -81.5zM322 1382l452 398l215 -271l-536 -307z" />
    <glyph glyph-name="ecircumflex" unicode="&#xea;" horiz-adv-x="1212" 
d="M29 526q0 113 46.5 216t125 177t186.5 118t227 44q123 0 226.5 -35.5t180.5 -102.5t120 -171t43 -235q0 -22 -4 -72h-711q0 -47 19 -81.5t48.5 -50.5t55.5 -23t49 -7q78 0 117 16t104 78l305 -151q-88 -149 -228 -214t-329 -65q-156 0 -290.5 76.5t-212.5 205.5t-78 277z
M481 686h287q-19 113 -141 113q-71 0 -107.5 -31.5t-38.5 -81.5zM141 1417l473 348l473 -348l-159 -215l-314 230l-313 -230z" />
    <glyph glyph-name="edieresis" unicode="&#xeb;" horiz-adv-x="1212" 
d="M29 526q0 113 46.5 216t125 177t186.5 118t227 44q123 0 226.5 -35.5t180.5 -102.5t120 -171t43 -235q0 -22 -4 -72h-711q0 -47 19 -81.5t48.5 -50.5t55.5 -23t49 -7q78 0 117 16t104 78l305 -151q-88 -149 -228 -214t-329 -65q-156 0 -290.5 76.5t-212.5 205.5t-78 277z
M481 686h287q-19 113 -141 113q-71 0 -107.5 -31.5t-38.5 -81.5zM373 1677q91 0 154 -63t63 -154t-63 -154t-154 -63t-154 63t-63 154t63 154t154 63zM856 1677q91 0 154 -63t63 -154t-63 -154t-154 -63t-154 63t-63 154t63 154t154 63z" />
    <glyph glyph-name="igrave" unicode="&#xec;" horiz-adv-x="626" 
d="M100 1049h426v-1049h-426v1049zM-223 1509l215 271l452 -398l-131 -180z" />
    <glyph glyph-name="iacute" unicode="&#xed;" horiz-adv-x="626" 
d="M100 1049h426v-1049h-426v1049zM182 1382l453 398l215 -271l-537 -307z" />
    <glyph glyph-name="icircumflex" unicode="&#xee;" horiz-adv-x="626" 
d="M100 1049h426v-1049h-426v1049zM-160 1417l473 348l473 -348l-159 -215l-314 230l-313 -230z" />
    <glyph glyph-name="idieresis" unicode="&#xef;" horiz-adv-x="626" 
d="M100 1049h426v-1049h-426v1049zM72 1675q91 0 154 -63t63 -154t-63 -154t-154 -63t-154 63t-63 154t63 154t154 63zM555 1675q91 0 154 -63t63 -154t-63 -154t-154 -63t-154 63t-63 154t63 154t154 63z" />
    <glyph glyph-name="eth" unicode="&#xf0;" horiz-adv-x="1394" 
d="M72 524q0 114 39.5 211t103 162.5t145 112t164.5 67.5t162 21l33 -2q-41 28 -114.5 73.5t-94.5 59.5l-172 -170l-182 182l123 121q-51 24 -105.5 42.5t-83.5 25.5l-29 6l99 356q23 -5 62.5 -15.5t146 -48t194.5 -81.5l148 145l178 -184l-96 -97q567 -384 567 -987
q0 -160 -82 -287.5t-228.5 -198.5t-330.5 -71q-291 0 -469 156t-178 401zM524 524q0 -86 53 -140t140 -54q83 0 136.5 54.5t53.5 139.5q0 86 -56 141.5t-134 55.5q-80 0 -136.5 -55.5t-56.5 -141.5z" />
    <glyph glyph-name="ntilde" unicode="&#xf1;" horiz-adv-x="1378" 
d="M100 1049h426v-99q57 57 137 94t162 37q56 0 114.5 -10.5t124 -37.5t116 -68.5t83.5 -110t33 -154.5v-700h-426v586q0 71 -42.5 118.5t-112.5 47.5q-77 0 -133 -55.5t-56 -127.5v-569h-426v1049zM1087 1714l222 -194q-2 -8 -17.5 -37t-50 -75t-77 -87.5t-105.5 -71.5
t-129 -30q-68 0 -133.5 20t-98.5 38.5t-90 55.5q-5 3 -25 16t-29.5 18.5t-26 14t-31 12t-29.5 3.5q-33 0 -61.5 -16.5t-45.5 -40t-29.5 -47t-16.5 -39.5l-5 -17l-221 195q3 8 18 36t49.5 75t77 88t105.5 71.5t129 30.5q52 0 98 -9t90 -30t66.5 -34t66.5 -42q4 -2 25 -16
t30 -19t26.5 -13.5t31.5 -12t29 -3.5q33 0 61.5 16.5t45.5 40t29 47t16 40.5z" />
    <glyph glyph-name="ograve" unicode="&#xf2;" horiz-adv-x="1335" 
d="M29 524q0 161 84.5 289t230 198t324.5 70t324.5 -70t230 -198t84.5 -289t-84.5 -289t-230 -198t-324.5 -70t-324.5 70t-230 198t-84.5 289zM475 524q0 -86 56.5 -141t136.5 -55t136 55t56 141t-56 141.5t-136 55.5t-136.5 -55.5t-56.5 -141.5zM293 1509l215 271l453 -398
l-132 -180z" />
    <glyph glyph-name="oacute" unicode="&#xf3;" horiz-adv-x="1335" 
d="M29 524q0 161 84.5 289t230 198t324.5 70t324.5 -70t230 -198t84.5 -289t-84.5 -289t-230 -198t-324.5 -70t-324.5 70t-230 198t-84.5 289zM475 524q0 -86 56.5 -141t136.5 -55t136 55t56 141t-56 141.5t-136 55.5t-136.5 -55.5t-56.5 -141.5zM375 1382l452 398l215 -271
l-536 -307z" />
    <glyph glyph-name="ocircumflex" unicode="&#xf4;" horiz-adv-x="1335" 
d="M29 524q0 161 84.5 289t230 198t324.5 70t324.5 -70t230 -198t84.5 -289t-84.5 -289t-230 -198t-324.5 -70t-324.5 70t-230 198t-84.5 289zM475 524q0 -86 56.5 -141t136.5 -55t136 55t56 141t-56 141.5t-136 55.5t-136.5 -55.5t-56.5 -141.5zM195 1417l473 348l473 -348
l-160 -215l-313 230l-314 -230z" />
    <glyph glyph-name="otilde" unicode="&#xf5;" horiz-adv-x="1335" 
d="M29 524q0 161 84.5 289t230 198t324.5 70t324.5 -70t230 -198t84.5 -289t-84.5 -289t-230 -198t-324.5 -70t-324.5 70t-230 198t-84.5 289zM475 524q0 -86 56.5 -141t136.5 -55t136 55t56 141t-56 141.5t-136 55.5t-136.5 -55.5t-56.5 -141.5zM1057 1653l221 -195
q-2 -8 -17.5 -37t-50 -75t-77 -87.5t-105.5 -71.5t-129 -30q-52 0 -98 9t-90 30t-66.5 34t-66.5 42q-5 3 -21.5 13.5t-23.5 15t-22.5 12.5t-25.5 12t-23.5 7t-25.5 3q-33 0 -61.5 -16.5t-45.5 -39.5t-29 -46.5t-16 -40.5l-5 -16l-222 194q3 8 18 36t49.5 75t77 88
t105.5 71.5t129 30.5q52 0 98 -9t90 -30t67 -34.5t67 -41.5q3 -2 25 -16t30 -18.5t25.5 -13.5t31.5 -12t29 -3q33 0 61.5 16.5t45.5 40t29.5 47t16.5 39.5z" />
    <glyph glyph-name="odieresis" unicode="&#xf6;" horiz-adv-x="1335" 
d="M29 524q0 161 84.5 289t230 198t324.5 70t324.5 -70t230 -198t84.5 -289t-84.5 -289t-230 -198t-324.5 -70t-324.5 70t-230 198t-84.5 289zM475 524q0 -86 56.5 -141t136.5 -55t136 55t56 141t-56 141.5t-136 55.5t-136.5 -55.5t-56.5 -141.5zM426 1649q91 0 154 -63
t63 -154t-63 -154.5t-154 -63.5t-154 63.5t-63 154.5t63 154t154 63zM909 1649q91 0 154 -63t63 -154t-63 -154.5t-154 -63.5t-154 63.5t-63 154.5t63 154t154 63z" />
    <glyph glyph-name="divide" unicode="&#xf7;" horiz-adv-x="1282" 
d="M115 1034h1052v-368h-1052v368zM641 1487q77 0 131.5 -56t54.5 -137t-54.5 -136.5t-131.5 -55.5t-131.5 55.5t-54.5 136.5t54.5 137t131.5 56zM641 596q77 0 131.5 -56t54.5 -137t-54.5 -136.5t-131.5 -55.5t-131.5 55.5t-54.5 136.5t54.5 137t131.5 56z" />
    <glyph glyph-name="oslash" unicode="&#xf8;" horiz-adv-x="1337" 
d="M31 524q0 161 84.5 289t230 198t324.5 70q239 0 407 -120l183 147l102 -123l-166 -135q113 -142 113 -326q0 -161 -84.5 -289t-230 -198t-324.5 -70q-237 0 -412 123l-184 -149l-105 122l170 138q-108 143 -108 323zM862 524q0 27 -6 51l-278 -225q46 -22 92 -22
q80 0 136 55t56 141zM477 524q0 -19 4 -47l275 223q-47 21 -86 21q-80 0 -136.5 -55.5t-56.5 -141.5z" />
    <glyph glyph-name="ugrave" unicode="&#xf9;" horiz-adv-x="1376" 
d="M868 1049h426v-584q0 -264 -144 -381t-462 -117t-462 117t-144 381v584h426v-478q0 -140 38.5 -200t141.5 -60t141.5 60t38.5 200v478zM313 1509l215 271l453 -398l-131 -180z" />
    <glyph glyph-name="uacute" unicode="&#xfa;" horiz-adv-x="1376" 
d="M868 1049h426v-584q0 -264 -144 -381t-462 -117t-462 117t-144 381v584h426v-478q0 -140 38.5 -200t141.5 -60t141.5 60t38.5 200v478zM395 1382l453 398l215 -271l-537 -307z" />
    <glyph glyph-name="ucircumflex" unicode="&#xfb;" horiz-adv-x="1376" 
d="M868 1049h426v-584q0 -264 -144 -381t-462 -117t-462 117t-144 381v584h426v-478q0 -140 38.5 -200t141.5 -60t141.5 60t38.5 200v478zM215 1417l473 348l473 -348l-160 -215l-313 230l-313 -230z" />
    <glyph glyph-name="udieresis" unicode="&#xfc;" horiz-adv-x="1376" 
d="M868 1049h426v-584q0 -264 -144 -381t-462 -117t-462 117t-144 381v584h426v-478q0 -140 38.5 -200t141.5 -60t141.5 60t38.5 200v478zM446 1677q91 0 154.5 -63t63.5 -154t-63.5 -154t-154.5 -63t-154 63t-63 154t63 154t154 63zM930 1677q91 0 154 -63t63 -154
t-63 -154t-154 -63t-154 63t-63 154t63 154t154 63z" />
    <glyph glyph-name="yacute" unicode="&#xfd;" horiz-adv-x="1351" 
d="M-49 1049h489l258 -443l213 443h490l-856 -1581h-490l394 735zM385 1382l453 398l215 -271l-537 -307z" />
    <glyph glyph-name="thorn" unicode="&#xfe;" horiz-adv-x="1394" 
d="M1360 524q0 -151 -64 -278t-183.5 -203t-270.5 -76q-170 0 -320 115v-614h-426v2293h426v-780q130 100 320 100q151 0 270.5 -76t183.5 -203t64 -278zM909 524q0 85 -57 141t-141 56q-81 0 -139 -56t-58 -141t55.5 -140.5t141.5 -55.5q91 0 144.5 55t53.5 141z" />
    <glyph glyph-name="ydieresis" unicode="&#xff;" horiz-adv-x="1351" 
d="M-49 1049h489l258 -443l213 443h490l-856 -1581h-490l394 735zM457 1677q91 0 154 -63t63 -154t-63 -154t-154 -63t-154 63t-63 154t63 154t154 63zM940 1677q91 0 154 -63t63 -154t-63 -154t-154 -63t-154 63t-63 154t63 154t154 63z" />
    <glyph glyph-name="Amacron" unicode="&#x100;" horiz-adv-x="1654" 
d="M618 1690h418l688 -1690h-485l-102 281h-619l-102 -281h-486zM670 676h315l-158 401zM410 2224h835v-287h-835v287z" />
    <glyph glyph-name="amacron" unicode="&#x101;" 
d="M29 524q0 151 64 278t183.5 203t270.5 76q189 0 319 -100v68h426v-1049h-426v82q-150 -115 -319 -115q-151 0 -270.5 76t-183.5 203t-64 278zM479 524q0 -86 54 -141t145 -55q86 0 141 55.5t55 140.5t-57.5 141t-138.5 56q-84 0 -141.5 -56t-57.5 -141zM242 1585h835
v-287h-835v287z" />
    <glyph glyph-name="Abreve" unicode="&#x102;" horiz-adv-x="1654" 
d="M618 1690h418l688 -1690h-485l-102 281h-619l-102 -281h-486zM670 676h315l-158 401zM1016 2382l299 -74q-17 -171 -150 -277t-338 -106t-337.5 106t-149.5 277l299 74q0 -4 0.5 -11t4.5 -28t10.5 -39.5t20.5 -41.5t33 -39.5t50 -28t69 -11.5q52 0 90.5 20.5t56.5 49.5
t28.5 58.5t11.5 50.5z" />
    <glyph glyph-name="abreve" unicode="&#x103;" 
d="M29 524q0 151 64 278t183.5 203t270.5 76q189 0 319 -100v68h426v-1049h-426v82q-150 -115 -319 -115q-151 0 -270.5 76t-183.5 203t-64 278zM479 524q0 -86 54 -141t145 -55q86 0 141 55.5t55 140.5t-57.5 141t-138.5 56q-84 0 -141.5 -56t-57.5 -141zM848 1759l299 -73
q-17 -171 -150 -277t-338 -106t-337.5 106t-149.5 277l299 73q0 -8 1.5 -21.5t11.5 -47.5t28 -60t56.5 -47.5t90.5 -21.5t90.5 20.5t56.5 49.5t28.5 58t11.5 49z" />
    <glyph glyph-name="Aogonek" unicode="&#x104;" horiz-adv-x="1654" 
d="M1120 -324q0 125 164 324h-45l-102 281h-619l-102 -281h-486l688 1690h418l688 -1690h-274l18 -8q-4 -5 -11.5 -15t-25.5 -40t-32 -60.5t-25.5 -73.5t-11.5 -82q0 -26 15 -42.5t36 -16.5q14 0 27 5t21.5 12t15 14.5t9.5 12.5l3 5l170 -127q-4 -6 -11.5 -16t-33.5 -35
t-56 -44.5t-78.5 -35.5t-101.5 -16q-31 0 -63.5 6.5t-68 23.5t-63 43t-45.5 69t-18 97zM670 676h315l-158 401z" />
    <glyph glyph-name="aogonek" unicode="&#x105;" 
d="M707 -324q0 118 159 324v82q-150 -115 -319 -115q-151 0 -270.5 76t-183.5 203t-64 278t64 278t183.5 203t270.5 76q189 0 319 -100v68h426v-1049h-229q-22 -25 -44 -58t-46.5 -97t-24.5 -124q0 -26 15 -42.5t36 -16.5q14 0 27 5t21.5 12t15 14.5t9.5 12.5l3 5l170 -127
q-4 -6 -11 -16t-33 -35t-56 -44.5t-78.5 -35.5t-101.5 -16q-31 0 -63.5 6.5t-68 23.5t-63 43t-45.5 69t-18 97zM479 524q0 -86 54 -141t145 -55q86 0 141 55.5t55 140.5t-57.5 141t-138.5 56q-84 0 -141.5 -56t-57.5 -141z" />
    <glyph glyph-name="Cacute" unicode="&#x106;" horiz-adv-x="1511" 
d="M27 844q0 142 50 276t139 241.5t204.5 189t252.5 125.5t277 44q103 0 198.5 -15.5t158 -37t110 -43.5t69.5 -38l21 -15l-190 -385q-5 4 -14 10t-39 22t-62.5 28t-82 22t-99.5 10q-106 0 -193.5 -28t-144.5 -73t-96 -103.5t-55.5 -116t-16.5 -113.5t16.5 -113.5t55.5 -116
t96 -103.5t144.5 -73t193.5 -28q50 0 99 9.5t83 23t61 27t41 22.5l13 10l190 -385q-8 -6 -22.5 -16t-67 -36t-112 -46t-156 -36t-199.5 -16q-140 0 -277 44.5t-252.5 126t-204.5 188.5t-139 241.5t-50 276.5zM494 2023l452 398l215 -271l-536 -307z" />
    <glyph glyph-name="cacute" unicode="&#x107;" horiz-adv-x="962" 
d="M29 524q0 112 49 215.5t129.5 178t187.5 119t219 44.5q65 0 125 -9.5t99 -23.5t69.5 -28t44.5 -24l13 -9l-140 -287q-55 35 -147 35q-80 0 -139.5 -63t-59.5 -148t59.5 -148t139.5 -63q92 0 147 35l140 -287q-5 -4 -14.5 -10t-42.5 -22.5t-70.5 -29t-98 -22.5t-125.5 -10
q-112 0 -219 44.5t-187.5 119t-129.5 178t-49 215.5zM203 1382l452 398l215 -271l-536 -307z" />
    <glyph glyph-name="Ccaron" unicode="&#x10c;" horiz-adv-x="1511" 
d="M27 844q0 142 50 276t139 241.5t204.5 189t252.5 125.5t277 44q103 0 198.5 -15.5t158 -37t110 -43.5t69.5 -38l21 -15l-190 -385q-5 4 -14 10t-39 22t-62.5 28t-82 22t-99.5 10q-106 0 -193.5 -28t-144.5 -73t-96 -103.5t-55.5 -116t-16.5 -113.5t16.5 -113.5t55.5 -116
t96 -103.5t144.5 -73t193.5 -28q50 0 99 9.5t83 23t61 27t41 22.5l13 10l190 -385q-8 -6 -22.5 -16t-67 -36t-112 -46t-156 -36t-199.5 -16q-140 0 -277 44.5t-252.5 126t-204.5 188.5t-139 241.5t-50 276.5zM889 1841l-473 348l159 215l314 -229l313 229l160 -215z" />
    <glyph glyph-name="ccaron" unicode="&#x10d;" horiz-adv-x="962" 
d="M29 524q0 112 49 215.5t129.5 178t187.5 119t219 44.5q65 0 125 -9.5t99 -23.5t69.5 -28t44.5 -24l13 -9l-140 -287q-55 35 -147 35q-80 0 -139.5 -63t-59.5 -148t59.5 -148t139.5 -63q92 0 147 35l140 -287q-5 -4 -14.5 -10t-42.5 -22.5t-70.5 -29t-98 -22.5t-125.5 -10
q-112 0 -219 44.5t-187.5 119t-129.5 178t-49 215.5zM553 1202l-473 348l160 215l313 -229l313 229l160 -215z" />
    <glyph glyph-name="Dcaron" unicode="&#x10e;" horiz-adv-x="1499" 
d="M100 1690h521q172 0 328 -63.5t271.5 -174t184 -269.5t68.5 -339q0 -181 -68 -339.5t-183.5 -268.5t-271.5 -173t-329 -63h-521v1690zM551 1286v-883h16q187 0 301.5 125.5t116.5 315.5q0 189 -114.5 315.5t-303.5 126.5h-16zM739 1841l-473 348l160 215l313 -229
l314 229l159 -215z" />
    <glyph glyph-name="dcaron" unicode="&#x10f;" 
d="M29 524q0 151 64 278t183.5 203t270.5 76q189 0 319 -100v780h426v-1761h-426v82q-150 -115 -319 -115q-151 0 -270.5 76t-183.5 203t-64 278zM479 524q0 -86 54 -141t145 -55q86 0 141 55.5t55 140.5t-57.5 141t-138.5 56q-84 0 -141.5 -56t-57.5 -141zM1571 1688
q89 0 151 -61.5t62 -149.5q0 -252 -305 -502l-97 74q4 4 11.5 11t28 31.5t37.5 50.5t35 66.5t26 81.5q-67 15 -110.5 66.5t-43.5 120.5q0 88 60 149.5t145 61.5z" />
    <glyph glyph-name="Dcroat" unicode="&#x110;" horiz-adv-x="1499" 
d="M-68 662v366h168v662h521q172 0 328 -63.5t271.5 -174t184 -269.5t68.5 -339q0 -181 -68 -339.5t-183.5 -268.5t-271.5 -173t-329 -63h-521v662h-168zM567 1286h-16v-258h158v-366h-158v-259h16q187 0 301.5 125.5t116.5 315.5q0 189 -114.5 315.5t-303.5 126.5z" />
    <glyph glyph-name="dcroat" unicode="&#x111;" 
d="M29 524q0 151 64 278t183.5 203t270.5 76q189 0 319 -100v287h-211v270h211v223h426v-223h105v-270h-105v-1268h-426v82q-150 -115 -319 -115q-151 0 -270.5 76t-183.5 203t-64 278zM479 524q0 -86 54 -141t145 -55q86 0 141 55.5t55 140.5t-57.5 141t-138.5 56
q-84 0 -141.5 -56t-57.5 -141z" />
    <glyph glyph-name="Emacron" unicode="&#x112;" horiz-adv-x="1187" 
d="M100 1690h1000v-396h-549v-250h524v-395h-524v-254h549v-395h-1000v1690zM182 2224h836v-287h-836v287z" />
    <glyph glyph-name="emacron" unicode="&#x113;" horiz-adv-x="1212" 
d="M29 526q0 113 46.5 216t125 177t186.5 118t227 44q123 0 226.5 -35.5t180.5 -102.5t120 -171t43 -235q0 -22 -4 -72h-711q0 -47 19 -81.5t48.5 -50.5t55.5 -23t49 -7q78 0 117 16t104 78l305 -151q-88 -149 -228 -214t-329 -65q-156 0 -290.5 76.5t-212.5 205.5t-78 277z
M481 686h287q-19 113 -141 113q-71 0 -107.5 -31.5t-38.5 -81.5zM197 1585h835v-287h-835v287z" />
    <glyph glyph-name="Edotaccent" unicode="&#x116;" horiz-adv-x="1187" 
d="M100 1690h1000v-396h-549v-250h524v-395h-524v-254h549v-395h-1000v1690zM600 2316q91 0 154 -63t63 -154t-63 -154t-154 -63t-154 63t-63 154t63 154t154 63z" />
    <glyph glyph-name="edotaccent" unicode="&#x117;" horiz-adv-x="1212" 
d="M29 526q0 113 46.5 216t125 177t186.5 118t227 44q123 0 226.5 -35.5t180.5 -102.5t120 -171t43 -235q0 -22 -4 -72h-711q0 -47 19 -81.5t48.5 -50.5t55.5 -23t49 -7q78 0 117 16t104 78l305 -151q-88 -149 -228 -214t-329 -65q-156 0 -290.5 76.5t-212.5 205.5t-78 277z
M481 686h287q-19 113 -141 113q-71 0 -107.5 -31.5t-38.5 -81.5zM614 1677q91 0 154 -63t63 -154t-63 -154t-154 -63t-154 63t-63 154t63 154t154 63z" />
    <glyph glyph-name="Eogonek" unicode="&#x118;" horiz-adv-x="1187" 
d="M557 -324q0 125 164 324h-621v1690h1000v-396h-549v-250h524v-395h-524v-254h549v-395h-213l18 -8q-4 -5 -11.5 -15t-25.5 -40t-32 -60.5t-25.5 -73.5t-11.5 -82q0 -26 15 -42.5t36 -16.5q14 0 27 5t21.5 12t15 14.5t9.5 12.5l3 5l170 -127q-4 -6 -11.5 -16t-33.5 -35
t-56 -44.5t-78.5 -35.5t-101.5 -16q-31 0 -63.5 6.5t-68 23.5t-63 43t-45.5 69t-18 97z" />
    <glyph glyph-name="eogonek" unicode="&#x119;" horiz-adv-x="1212" 
d="M514 -324q0 118 137 293q-16 -2 -41 -2q-156 0 -290.5 76.5t-212.5 205.5t-78 277q0 113 46.5 216t125 177t186.5 118t227 44q123 0 226.5 -35.5t180.5 -102.5t120 -171t43 -235q0 -22 -4 -72h-711q0 -47 19 -81.5t48.5 -50.5t55.5 -23t49 -7q78 0 117 16t104 78
l305 -151q-114 -190 -319 -248q-92 -137 -92 -277q0 -26 15 -42.5t36 -16.5q14 0 27 5t21.5 12t15 14.5t9.5 12.5l3 5l170 -127q-4 -6 -11.5 -16t-33.5 -35t-56 -44.5t-78.5 -35.5t-101.5 -16q-31 0 -63.5 6.5t-68 23.5t-63 43t-45.5 69t-18 97zM481 686h287
q-19 113 -141 113q-71 0 -107.5 -31.5t-38.5 -81.5z" />
    <glyph glyph-name="Ecaron" unicode="&#x11a;" horiz-adv-x="1187" 
d="M100 1690h1000v-396h-549v-250h524v-395h-524v-254h549v-395h-1000v1690zM600 1841l-473 348l160 215l313 -229l313 229l160 -215z" />
    <glyph glyph-name="ecaron" unicode="&#x11b;" horiz-adv-x="1212" 
d="M29 526q0 113 46.5 216t125 177t186.5 118t227 44q123 0 226.5 -35.5t180.5 -102.5t120 -171t43 -235q0 -22 -4 -72h-711q0 -47 19 -81.5t48.5 -50.5t55.5 -23t49 -7q78 0 117 16t104 78l305 -151q-88 -149 -228 -214t-329 -65q-156 0 -290.5 76.5t-212.5 205.5t-78 277z
M481 686h287q-19 113 -141 113q-71 0 -107.5 -31.5t-38.5 -81.5zM614 1202l-473 348l160 215l313 -229l314 229l159 -215z" />
    <glyph glyph-name="Gcommaaccent" unicode="&#x122;" horiz-adv-x="1650" 
d="M27 844q0 180 62.5 341.5t170.5 279t261.5 186.5t328.5 69q432 0 651 -288l-276 -304q-40 86 -133.5 135.5t-214.5 49.5q-148 0 -255.5 -137.5t-107.5 -331.5q0 -190 106.5 -325.5t256.5 -135.5q70 0 135.5 26t112 84t46.5 136h-321v346h780v-328q0 -88 -31.5 -181.5
t-97 -183t-156 -159.5t-219.5 -113t-276 -43q-134 0 -260 44.5t-227 125.5t-177 189t-117.5 241.5t-41.5 276.5zM846 -82q89 0 151 -61.5t62 -149.5q0 -252 -305 -502l-97 74q4 4 11.5 11t28 31.5t37.5 51t35 67t26 81.5q-67 15 -110.5 66t-43.5 120q0 88 60 149.5t145 61.5
z" />
    <glyph glyph-name="gcommaaccent" unicode="&#x123;" 
d="M29 524q0 151 64 278t183.5 203t270.5 76q189 0 319 -100v68h426v-1078q0 -130 -48.5 -233t-134 -168t-200 -99t-250.5 -34q-58 0 -107.5 4t-110 14.5t-112 32.5t-101.5 54t-91.5 83t-70.5 117l344 170q87 -107 247 -107q20 0 43.5 4.5t54 18t54.5 34.5t40.5 59t16.5 87
v74q-150 -115 -319 -115q-151 0 -270.5 76t-183.5 203t-64 278zM479 524q0 -86 54 -141t145 -55q86 0 141 55.5t55 140.5t-57.5 141t-138.5 56q-84 0 -141.5 -56t-57.5 -141zM664 1243q-89 0 -151 61.5t-62 149.5q0 252 305 502l96 -74q-4 -4 -11.5 -11t-28 -31.5t-37.5 -51
t-34.5 -67t-25.5 -81.5q67 -15 110 -66t43 -120q0 -88 -59.5 -149.5t-144.5 -61.5z" />
    <glyph glyph-name="Imacron" unicode="&#x12a;" horiz-adv-x="651" 
d="M100 1690h451v-1690h-451v1690zM-92 2224h835v-287h-835v287z" />
    <glyph glyph-name="imacron" unicode="&#x12b;" horiz-adv-x="626" 
d="M100 1049h426v-1049h-426v1049zM-104 1585h835v-287h-835v287z" />
    <glyph glyph-name="Iogonek" unicode="&#x12e;" horiz-adv-x="651" 
d="M66 -324q0 126 163 324h-129v1690h451v-1690h-133q-111 -147 -111 -279q0 -26 15 -42.5t36 -16.5q14 0 27 5t21.5 12t15 14.5t9.5 12.5l3 5l170 -127q-4 -6 -11 -16t-33 -35t-56 -44.5t-78.5 -35.5t-101.5 -16q-31 0 -63.5 6.5t-68 23.5t-63 43t-45.5 69t-18 97z" />
    <glyph glyph-name="iogonek" unicode="&#x12f;" horiz-adv-x="626" 
d="M53 -324q0 125 164 324h-117v1049h426v-1049h-118q-113 -142 -113 -279q0 -26 15 -42.5t36 -16.5q14 0 27 5t21.5 12t15 14.5t9.5 12.5l3 5l170 -127q-4 -6 -11.5 -16t-33.5 -35t-56 -44.5t-78.5 -35.5t-101.5 -16q-31 0 -63.5 6.5t-68 23.5t-63 43t-45.5 69t-18 97z
M311 1772q103 0 176.5 -73.5t73.5 -176.5t-73.5 -176.5t-176.5 -73.5t-176.5 73.5t-73.5 176.5t73.5 176.5t176.5 73.5z" />
    <glyph glyph-name="dotlessi" unicode="&#x131;" horiz-adv-x="626" 
d="M100 1049h426v-1049h-426v1049z" />
    <glyph glyph-name="Kcommaaccent" unicode="&#x136;" horiz-adv-x="1677" 
d="M100 1690h451v-658l526 658h547l-655 -797l768 -893h-621l-565 678v-678h-451v1690zM825 -82q89 0 151 -61.5t62 -149.5q0 -252 -305 -502l-96 74q4 4 11.5 11t28 31.5t37.5 51t34.5 67t25.5 81.5q-67 15 -110 66t-43 120q0 88 59.5 149.5t144.5 61.5z" />
    <glyph glyph-name="kcommaaccent" unicode="&#x137;" horiz-adv-x="1415" 
d="M100 1761h426v-1065l367 353h551l-537 -529l559 -520h-546l-394 358v-358h-426v1761zM672 -82q89 0 151 -61.5t62 -149.5q0 -252 -305 -502l-97 74q4 4 11.5 11t28 31.5t37.5 51t35 67t26 81.5q-67 15 -110.5 66t-43.5 120q0 88 60 149.5t145 61.5z" />
    <glyph glyph-name="Lacute" unicode="&#x139;" horiz-adv-x="1163" 
d="M100 1690h451v-1295h545v-395h-996v1690zM195 2021l452 398l215 -271l-536 -307z" />
    <glyph glyph-name="lacute" unicode="&#x13a;" horiz-adv-x="626" 
d="M100 1761h426v-1761h-426v1761zM182 2093l453 397l215 -270l-537 -307z" />
    <glyph glyph-name="Lcommaaccent" unicode="&#x13b;" horiz-adv-x="1163" 
d="M100 1690h451v-1295h545v-395h-996v1690zM557 -82q89 0 151 -61.5t62 -149.5q0 -252 -305 -502l-96 74q4 4 11.5 11t28 31.5t37.5 51t34.5 67t25.5 81.5q-67 15 -110.5 66t-43.5 120q0 88 60 149.5t145 61.5z" />
    <glyph glyph-name="lcommaaccent" unicode="&#x13c;" horiz-adv-x="626" 
d="M100 1761h426v-1761h-426v1761zM309 -82q89 0 151 -61.5t62 -149.5q0 -252 -305 -502l-96 74q4 4 11.5 11t28 31.5t37.5 51t34.5 67t25.5 81.5q-67 15 -110.5 66t-43.5 120q0 88 60 149.5t145 61.5z" />
    <glyph glyph-name="Lcaron" unicode="&#x13d;" horiz-adv-x="1163" 
d="M100 1690h451v-1295h545v-395h-996v1690zM842 1690q89 0 151 -61.5t62 -149.5q0 -252 -305 -502l-97 74q4 4 11.5 11t28 31.5t37.5 50.5t35 66.5t26 81.5q-67 15 -110.5 66.5t-43.5 120.5q0 88 60 149.5t145 61.5z" />
    <glyph glyph-name="lcaron" unicode="&#x13e;" horiz-adv-x="626" 
d="M100 1761h426v-1761h-426v1761zM803 1688q89 0 151 -61.5t62 -149.5q0 -252 -305 -502l-97 74q4 4 11.5 11t28 31.5t37.5 50.5t35 66.5t26 81.5q-67 15 -110.5 66.5t-43.5 120.5q0 88 60 149.5t145 61.5z" />
    <glyph glyph-name="Lslash" unicode="&#x141;" horiz-adv-x="1163" 
d="M100 1690h451v-361l213 168v-367l-213 -167v-568h545v-395h-996v608l-151 -119v367l151 119v715z" />
    <glyph glyph-name="lslash" unicode="&#x142;" horiz-adv-x="626" 
d="M100 1761h426v-481l148 117v-367l-148 -117v-913h-426v580l-147 -115v366l147 115v815z" />
    <glyph glyph-name="Nacute" unicode="&#x143;" horiz-adv-x="1708" 
d="M100 1690h451l606 -942v942h451v-1690h-451l-606 942v-942h-451v1690zM520 2021l453 398l215 -271l-537 -307z" />
    <glyph glyph-name="nacute" unicode="&#x144;" horiz-adv-x="1378" 
d="M100 1049h426v-99q57 57 137 94t162 37q56 0 114.5 -10.5t124 -37.5t116 -68.5t83.5 -110t33 -154.5v-700h-426v586q0 71 -42.5 118.5t-112.5 47.5q-77 0 -133 -55.5t-56 -127.5v-569h-426v1049zM492 1382l452 398l215 -271l-536 -307z" />
    <glyph glyph-name="Ncommaaccent" unicode="&#x145;" horiz-adv-x="1708" 
d="M100 1690h451l606 -942v942h451v-1690h-451l-606 942v-942h-451v1690zM850 -82q89 0 151 -61.5t62 -149.5q0 -252 -305 -502l-96 74q4 4 11.5 11t28 31.5t37.5 51t34.5 67t25.5 81.5q-67 15 -110.5 66t-43.5 120q0 88 60 149.5t145 61.5z" />
    <glyph glyph-name="ncommaaccent" unicode="&#x146;" horiz-adv-x="1378" 
d="M100 1049h426v-99q57 57 137 94t162 37q56 0 114.5 -10.5t124 -37.5t116 -68.5t83.5 -110t33 -154.5v-700h-426v586q0 71 -42.5 118.5t-112.5 47.5q-77 0 -133 -55.5t-56 -127.5v-569h-426v1049zM694 -82q89 0 151 -61.5t62 -149.5q0 -252 -305 -502l-96 74q4 4 11.5 11
t28 31.5t37.5 51t34.5 67t25.5 81.5q-67 15 -110.5 66t-43.5 120q0 88 60 149.5t145 61.5z" />
    <glyph glyph-name="Ncaron" unicode="&#x147;" horiz-adv-x="1708" 
d="M100 1690h451l606 -942v942h451v-1690h-451l-606 942v-942h-451v1690zM854 1841l-473 348l160 215l313 -229l313 229l160 -215z" />
    <glyph glyph-name="ncaron" unicode="&#x148;" horiz-adv-x="1378" 
d="M100 1049h426v-99q57 57 137 94t162 37q56 0 114.5 -10.5t124 -37.5t116 -68.5t83.5 -110t33 -154.5v-700h-426v586q0 71 -42.5 118.5t-112.5 47.5q-77 0 -133 -55.5t-56 -127.5v-569h-426v1049zM698 1202l-473 348l160 215l313 -229l314 229l159 -215z" />
    <glyph glyph-name="Omacron" unicode="&#x14c;" horiz-adv-x="1757" 
d="M27 844q0 182 68 345t183 279t272 184t329 68t329 -68t272 -184t183 -279t68 -345t-68 -345t-183 -279.5t-272 -184.5t-329 -68t-329 68t-272 184.5t-183 279.5t-68 345zM512 844q0 -65 12 -126.5t40 -119.5t69 -101.5t104.5 -69.5t141.5 -26t141.5 26t104.5 69.5
t68.5 101.5t39.5 119.5t12 126.5t-12 126.5t-39.5 119.5t-68.5 101t-104.5 69t-141.5 26q-97 0 -170.5 -39t-115 -104.5t-61.5 -140.5t-20 -158zM461 2224h835v-287h-835v287z" />
    <glyph glyph-name="omacron" unicode="&#x14d;" horiz-adv-x="1335" 
d="M29 524q0 161 84.5 289t230 198t324.5 70t324.5 -70t230 -198t84.5 -289t-84.5 -289t-230 -198t-324.5 -70t-324.5 70t-230 198t-84.5 289zM475 524q0 -86 56.5 -141t136.5 -55t136 55t56 141t-56 141.5t-136 55.5t-136.5 -55.5t-56.5 -141.5zM250 1585h835v-287h-835
v287z" />
    <glyph glyph-name="Ohungarumlaut" unicode="&#x150;" horiz-adv-x="1757" 
d="M27 844q0 182 68 345t183 279t272 184t329 68t329 -68t272 -184t183 -279t68 -345t-68 -345t-183 -279.5t-272 -184.5t-329 -68t-329 68t-272 184.5t-183 279.5t-68 345zM512 844q0 -65 12 -126.5t40 -119.5t69 -101.5t104.5 -69.5t141.5 -26t141.5 26t104.5 69.5
t68.5 101.5t39.5 119.5t12 126.5t-12 126.5t-39.5 119.5t-68.5 101t-104.5 69t-141.5 26q-97 0 -170.5 -39t-115 -104.5t-61.5 -140.5t-20 -158zM297 2073l453 397l215 -270l-535 -308zM915 2073l453 397l215 -270l-536 -308z" />
    <glyph glyph-name="ohungarumlaut" unicode="&#x151;" horiz-adv-x="1335" 
d="M29 524q0 161 84.5 289t230 198t324.5 70t324.5 -70t230 -198t84.5 -289t-84.5 -289t-230 -198t-324.5 -70t-324.5 70t-230 198t-84.5 289zM475 524q0 -86 56.5 -141t136.5 -55t136 55t56 141t-56 141.5t-136 55.5t-136.5 -55.5t-56.5 -141.5zM66 1382l452 398l215 -271
l-534 -307zM684 1382l453 398l215 -271l-537 -307z" />
    <glyph glyph-name="OE" unicode="&#x152;" horiz-adv-x="2078" 
d="M12 844q0 136 30 250.5t83.5 200.5t131 153.5t168.5 112.5t199.5 74.5t220 42t234.5 12.5h912v-396h-549v-250h524v-395h-524v-254h549v-395h-1127q-171 0 -326.5 62.5t-271.5 172t-185 268.5t-69 341zM498 844q0 -218 133 -330.5t360 -112.5v887q-230 0 -361.5 -113
t-131.5 -331z" />
    <glyph glyph-name="oe" unicode="&#x153;" horiz-adv-x="2029" 
d="M31 524q0 245 173.5 401t444.5 156q248 0 391 -143q169 143 392 143q165 0 292 -60.5t202 -185.5t75 -298q0 -22 -4 -72h-711q0 -47 19 -81.5t48.5 -50.5t55.5 -23t49 -7q78 0 117 16t104 78l306 -151q-166 -279 -558 -279q-108 0 -208.5 38t-178.5 106
q-138 -144 -391 -144q-271 0 -444.5 156t-173.5 401zM477 524q0 -86 56.5 -141t136.5 -55t136 55t56 141t-56 141.5t-136 55.5t-136.5 -55.5t-56.5 -141.5zM1298 686h287q-19 113 -141 113q-71 0 -107.5 -31.5t-38.5 -81.5z" />
    <glyph glyph-name="Racute" unicode="&#x154;" horiz-adv-x="1533" 
d="M100 1690h668q125 0 230.5 -32.5t186 -96.5t126 -167.5t45.5 -236.5q0 -191 -87.5 -321.5t-238.5 -194.5l547 -641h-571l-455 586v-586h-451v1690zM551 1331v-373h70q260 0 260 185q0 188 -260 188h-70zM426 2025l453 398l215 -271l-537 -307z" />
    <glyph glyph-name="racute" unicode="&#x155;" horiz-adv-x="1075" 
d="M100 1049h426v-148q5 7 14.5 19.5t42.5 43.5t68.5 54.5t91.5 43t113 19.5q65 0 126 -18.5t90 -36.5l28 -18l-178 -359q-3 3 -7.5 7t-22.5 15t-39 19.5t-55.5 15.5t-72.5 7q-53 0 -92.5 -20t-59 -46t-31 -58t-14 -49t-2.5 -26v-514h-426v1049zM266 1382l453 398l215 -271
l-537 -307z" />
    <glyph glyph-name="Rcommaaccent" unicode="&#x156;" horiz-adv-x="1533" 
d="M100 1690h668q125 0 230.5 -32.5t186 -96.5t126 -167.5t45.5 -236.5q0 -191 -87.5 -321.5t-238.5 -194.5l547 -641h-571l-455 586v-586h-451v1690zM551 1331v-373h70q260 0 260 185q0 188 -260 188h-70zM731 -82q89 0 151 -61.5t62 -149.5q0 -252 -305 -502l-96 74
q4 4 11.5 11t28 31.5t37.5 51t34.5 67t25.5 81.5q-67 15 -110.5 66t-43.5 120q0 88 60 149.5t145 61.5z" />
    <glyph glyph-name="rcommaaccent" unicode="&#x157;" horiz-adv-x="1075" 
d="M309 -82q89 0 151 -61.5t62 -149.5q0 -252 -305 -502l-96 74q4 4 11.5 11t28 31.5t37.5 51t34.5 67t25.5 81.5q-67 15 -110.5 66t-43.5 120q0 88 60 149.5t145 61.5zM100 1049h426v-148q5 7 14.5 19.5t42.5 43.5t68.5 54.5t91.5 43t113 19.5q65 0 126 -18.5t90 -36.5
l28 -18l-178 -359q-3 3 -7.5 7t-22.5 15t-39 19.5t-55.5 15.5t-72.5 7q-53 0 -92.5 -20t-59 -46t-31 -58t-14 -49t-2.5 -26v-514h-426v1049z" />
    <glyph glyph-name="Rcaron" unicode="&#x158;" horiz-adv-x="1533" 
d="M100 1690h668q125 0 230.5 -32.5t186 -96.5t126 -167.5t45.5 -236.5q0 -191 -87.5 -321.5t-238.5 -194.5l547 -641h-571l-455 586v-586h-451v1690zM551 1331v-373h70q260 0 260 185q0 188 -260 188h-70zM676 1841l-473 348l159 215l314 -229l313 229l160 -215z" />
    <glyph glyph-name="rcaron" unicode="&#x159;" horiz-adv-x="1075" 
d="M100 1049h426v-148q5 7 14.5 19.5t42.5 43.5t68.5 54.5t91.5 43t113 19.5q65 0 126 -18.5t90 -36.5l28 -18l-178 -359q-3 3 -7.5 7t-22.5 15t-39 19.5t-55.5 15.5t-72.5 7q-53 0 -92.5 -20t-59 -46t-31 -58t-14 -49t-2.5 -26v-514h-426v1049zM598 1202l-473 348l160 215
l313 -229l313 229l160 -215z" />
    <glyph glyph-name="Sacute" unicode="&#x15a;" 
d="M186 1186q0 119 50.5 221t132 169.5t184 105.5t207.5 38q91 0 181.5 -15t153.5 -36t113.5 -42.5t75.5 -36.5l25 -15l-179 -363q-7 4 -19 10.5t-49.5 24t-75.5 30.5t-91.5 23.5t-101.5 10.5q-164 0 -164 -109q0 -31 39 -63t151 -74q53 -20 98.5 -39.5t101.5 -49
t100.5 -60.5t88.5 -73t73.5 -87.5t48 -104t18.5 -121.5q0 -125 -37 -223.5t-99.5 -161t-149.5 -103.5t-179.5 -58t-198.5 -17q-120 0 -231.5 20t-185 48.5t-130 57.5t-82.5 49l-26 20l223 383q9 -7 25.5 -17.5t67 -38t100.5 -48.5t118.5 -38.5t128.5 -17.5q160 0 160 119
q0 25 -9.5 47t-34 44.5t-47.5 39.5t-71.5 41.5t-82.5 40.5t-103 47q-147 66 -232.5 179.5t-85.5 242.5zM465 2021l453 398l215 -271l-537 -307z" />
    <glyph glyph-name="sacute" unicode="&#x15b;" horiz-adv-x="1015" 
d="M594 1081q96 0 188.5 -15.5t136.5 -31.5l44 -16l-134 -281q-124 49 -235 49q-51 0 -68.5 -7.5t-17.5 -26.5q0 -9 3 -16t11 -12.5t16 -10t22.5 -9.5t26 -8.5t32 -9t34.5 -10.5q48 -15 87.5 -31.5t84.5 -46t76 -65t51.5 -88.5t20.5 -115q0 -68 -18 -122.5t-47.5 -92
t-73 -65t-88 -43.5t-100.5 -25t-102 -12t-100 -3q-76 0 -146 11.5t-116.5 28t-82 33.5t-51.5 28l-17 12l168 295q15 -11 41 -27t91.5 -42.5t114.5 -26.5q44 0 61 8t17 26q0 25 -28.5 40t-89.5 36.5t-105 46.5q-94 53 -146.5 119t-52.5 172q0 170 133.5 262t358.5 92z
M283 1382l452 398l215 -271l-536 -307z" />
    <glyph glyph-name="Scedilla" unicode="&#x15e;" 
d="M543 -244l69 213q-107 6 -206.5 27.5t-165 49t-115.5 54t-73 44.5l-23 18l223 383q9 -7 25.5 -17.5t67 -38t100.5 -48.5t118.5 -38.5t128.5 -17.5q160 0 160 119q0 25 -9.5 47t-34 44.5t-47.5 39.5t-71.5 41.5t-82.5 40.5t-103 47q-147 66 -232.5 179.5t-85.5 242.5
q0 119 50.5 221t132 169.5t184 105.5t207.5 38q91 0 181.5 -15t153.5 -36t113.5 -42.5t75.5 -36.5l25 -15l-179 -363q-7 4 -19 10.5t-49.5 24t-75.5 30.5t-91.5 23.5t-101.5 10.5q-164 0 -164 -109q0 -31 39 -63t151 -74q53 -20 98.5 -39.5t101.5 -49t100.5 -60.5t88.5 -73
t73.5 -87.5t48 -104t18.5 -121.5q0 -139 -44.5 -244t-123.5 -169t-175 -98.5t-212 -45.5l-31 -92q99 0 178.5 -57t79.5 -152q0 -53 -17 -99.5t-53.5 -87t-101.5 -64t-152 -23.5q-53 0 -106 18t-91 43.5t-68 51t-45 43.5l-15 18l168 127q8 -10 22 -25t55.5 -40t79.5 -25
q84 0 84 63q0 37 -38.5 56.5t-82.5 19.5q-31 0 -54 -3t-31 -6l-7 -3z" />
    <glyph glyph-name="scedilla" unicode="&#x15f;" horiz-adv-x="1015" 
d="M356 -244l70 211q-73 2 -140.5 14t-111.5 28.5t-78 32.5t-50 27l-15 11l168 295q15 -11 41 -27t91.5 -42.5t114.5 -26.5q44 0 61 8t17 26q0 25 -28.5 40t-89.5 36.5t-105 46.5q-94 53 -146.5 119t-52.5 172q0 170 133.5 262t358.5 92q96 0 188.5 -15.5t136.5 -31.5
l44 -16l-134 -281q-124 49 -235 49q-51 0 -68.5 -7.5t-17.5 -26.5q0 -9 3 -16t11 -12.5t16 -10t22.5 -9.5t26 -8.5t32 -9t34.5 -10.5q48 -15 87.5 -31.5t84.5 -46t76 -65t51.5 -88.5t20.5 -115q0 -308 -367 -353l-31 -96q99 0 179 -57t80 -152q0 -53 -17 -99.5t-53.5 -87
t-101.5 -64t-152 -23.5q-53 0 -106 18t-91 43.5t-68.5 51t-45.5 43.5l-15 18l168 127q3 -4 8.5 -10t22.5 -21.5t34.5 -27.5t43 -21.5t49.5 -9.5q84 0 84 63q0 37 -38.5 56.5t-82.5 19.5q-31 0 -54 -3t-31 -6l-7 -3z" />
    <glyph glyph-name="Scaron" unicode="&#x160;" 
d="M186 1186q0 119 50.5 221t132 169.5t184 105.5t207.5 38q91 0 181.5 -15t153.5 -36t113.5 -42.5t75.5 -36.5l25 -15l-179 -363q-7 4 -19 10.5t-49.5 24t-75.5 30.5t-91.5 23.5t-101.5 10.5q-164 0 -164 -109q0 -31 39 -63t151 -74q53 -20 98.5 -39.5t101.5 -49
t100.5 -60.5t88.5 -73t73.5 -87.5t48 -104t18.5 -121.5q0 -125 -37 -223.5t-99.5 -161t-149.5 -103.5t-179.5 -58t-198.5 -17q-120 0 -231.5 20t-185 48.5t-130 57.5t-82.5 49l-26 20l223 383q9 -7 25.5 -17.5t67 -38t100.5 -48.5t118.5 -38.5t128.5 -17.5q160 0 160 119
q0 25 -9.5 47t-34 44.5t-47.5 39.5t-71.5 41.5t-82.5 40.5t-103 47q-147 66 -232.5 179.5t-85.5 242.5zM760 1841l-473 348l159 215l314 -229l313 229l160 -215z" />
    <glyph glyph-name="scaron" unicode="&#x161;" horiz-adv-x="1015" 
d="M594 1081q96 0 188.5 -15.5t136.5 -31.5l44 -16l-134 -281q-124 49 -235 49q-51 0 -68.5 -7.5t-17.5 -26.5q0 -9 3 -16t11 -12.5t16 -10t22.5 -9.5t26 -8.5t32 -9t34.5 -10.5q48 -15 87.5 -31.5t84.5 -46t76 -65t51.5 -88.5t20.5 -115q0 -68 -18 -122.5t-47.5 -92
t-73 -65t-88 -43.5t-100.5 -25t-102 -12t-100 -3q-76 0 -146 11.5t-116.5 28t-82 33.5t-51.5 28l-17 12l168 295q15 -11 41 -27t91.5 -42.5t114.5 -26.5q44 0 61 8t17 26q0 25 -28.5 40t-89.5 36.5t-105 46.5q-94 53 -146.5 119t-52.5 172q0 170 133.5 262t358.5 92z
M596 1202l-473 348l160 215l313 -229l313 229l160 -215z" />
    <glyph glyph-name="Tcommaaccent" unicode="&#x162;" horiz-adv-x="1228" 
d="M20 1690h1188v-396h-368v-1294h-451v1294h-369v396zM610 -154q89 0 151 -61.5t62 -149.5q0 -251 -305 -501l-96 73q4 4 11.5 11t28 31.5t37.5 51t34.5 67t25.5 81.5q-67 15 -110 66t-43 120q0 88 59.5 149.5t144.5 61.5z" />
    <glyph glyph-name="tcommaaccent" unicode="&#x163;" horiz-adv-x="849" 
d="M10 1049h164v393h426v-393h209v-324h-209v-244q0 -133 70 -133q18 0 38.5 8t31.5 16l12 9l106 -342q-15 -8 -41 -20t-103 -32t-149 -20q-90 0 -160.5 26t-113 67.5t-69.5 99.5t-37.5 115.5t-10.5 121.5v328h-164v324zM489 -82q89 0 151 -61.5t62 -149.5q0 -252 -305 -502
l-96 74q4 4 11.5 11t28 31.5t37.5 51t34.5 67t25.5 81.5q-67 15 -110 66t-43 120q0 88 59.5 149.5t144.5 61.5z" />
    <glyph glyph-name="Tcaron" unicode="&#x164;" horiz-adv-x="1228" 
d="M20 1690h1188v-396h-368v-1294h-451v1294h-369v396zM614 1841l-473 348l160 215l313 -229l314 229l159 -215z" />
    <glyph glyph-name="tcaron" unicode="&#x165;" horiz-adv-x="849" 
d="M10 1049h164v393h426v-393h209v-324h-209v-244q0 -133 70 -133q18 0 38.5 8t31.5 16l12 9l106 -342q-15 -8 -41 -20t-103 -32t-149 -20q-90 0 -160.5 26t-113 67.5t-69.5 99.5t-37.5 115.5t-10.5 121.5v328h-164v324zM1067 1688q89 0 151 -61.5t62 -149.5
q0 -252 -305 -502l-96 74q4 4 11.5 11t28 31.5t37.5 50.5t34.5 66.5t25.5 81.5q-67 15 -110.5 66.5t-43.5 120.5q0 88 60 149.5t145 61.5z" />
    <glyph glyph-name="Umacron" unicode="&#x16a;" horiz-adv-x="1519" 
d="M991 1690h451v-1094q0 -312 -173.5 -470.5t-508.5 -158.5t-508.5 158.5t-173.5 470.5v1094h450v-959q0 -98 13 -160.5t43 -98t71 -49t105 -13.5q86 0 133.5 25.5t72.5 95.5t25 200v959zM342 2224h836v-287h-836v287z" />
    <glyph glyph-name="umacron" unicode="&#x16b;" horiz-adv-x="1376" 
d="M868 1049h426v-584q0 -264 -144 -381t-462 -117t-462 117t-144 381v584h426v-478q0 -140 38.5 -200t141.5 -60t141.5 60t38.5 200v478zM270 1585h836v-287h-836v287z" />
    <glyph glyph-name="Uring" unicode="&#x16e;" horiz-adv-x="1519" 
d="M991 1690h451v-1094q0 -312 -173.5 -470.5t-508.5 -158.5t-508.5 158.5t-173.5 470.5v1094h450v-959q0 -98 13 -160.5t43 -98t71 -49t105 -13.5q86 0 133.5 25.5t72.5 95.5t25 200v959zM403 2161q0 136 103 224.5t254 88.5t253.5 -88.5t102.5 -224.5
q0 -137 -102.5 -225.5t-253.5 -88.5t-254 89t-103 225zM639 2161q0 -52 36.5 -89.5t84.5 -37.5t84.5 37.5t36.5 89.5t-36.5 89.5t-84.5 37.5t-84.5 -37.5t-36.5 -89.5z" />
    <glyph glyph-name="uring" unicode="&#x16f;" horiz-adv-x="1376" 
d="M868 1049h426v-584q0 -264 -144 -381t-462 -117t-462 117t-144 381v584h426v-478q0 -140 38.5 -200t141.5 -60t141.5 60t38.5 200v478zM332 1501q0 137 102.5 225.5t253.5 88.5t253.5 -88.5t102.5 -225.5q0 -136 -102.5 -224.5t-253.5 -88.5t-253.5 88.5t-102.5 224.5z
M567 1501q0 -52 36.5 -89.5t84.5 -37.5t84.5 37.5t36.5 89.5t-36.5 89.5t-84.5 37.5t-84.5 -37.5t-36.5 -89.5z" />
    <glyph glyph-name="Uhungarumlaut" unicode="&#x170;" horiz-adv-x="1519" 
d="M991 1690h451v-1094q0 -312 -173.5 -470.5t-508.5 -158.5t-508.5 158.5t-173.5 470.5v1094h450v-959q0 -98 13 -160.5t43 -98t71 -49t105 -13.5q86 0 133.5 25.5t72.5 95.5t25 200v959zM178 2071l453 397l215 -270l-535 -308zM797 2071l452 397l215 -270l-536 -308z" />
    <glyph glyph-name="uhungarumlaut" unicode="&#x171;" horiz-adv-x="1376" 
d="M868 1049h426v-584q0 -264 -144 -381t-462 -117t-462 117t-144 381v584h426v-478q0 -140 38.5 -200t141.5 -60t141.5 60t38.5 200v478zM86 1382l453 398l215 -271l-535 -307zM705 1382l452 398l215 -271l-536 -307z" />
    <glyph glyph-name="Uogonek" unicode="&#x172;" horiz-adv-x="1523" 
d="M543 -324q0 115 139 293q-296 19 -449 176.5t-153 450.5v1094h450v-959q0 -98 13 -160.5t43 -98t71 -49t105 -13.5q86 0 133.5 25.5t72.5 95.5t25 200v959h451v-1094q0 -285 -144 -441.5t-423 -181.5q-93 -126 -93 -252q0 -26 15.5 -42.5t36.5 -16.5q23 0 41.5 12
t26.5 24l7 13l170 -127q-4 -6 -11 -16t-33 -35t-56 -44.5t-78.5 -35.5t-101.5 -16q-31 0 -63.5 6.5t-68 23.5t-63 43t-45.5 69t-18 97z" />
    <glyph glyph-name="uogonek" unicode="&#x173;" horiz-adv-x="1376" 
d="M469 -324q0 115 139 293q-276 14 -401 131t-125 365v584h426v-478q0 -140 38.5 -200t141.5 -60t141.5 60t38.5 200v478h426v-584q0 -240 -117.5 -357t-375.5 -137q-90 -128 -90 -250q0 -26 15 -42.5t36 -16.5q14 0 27 5t21.5 12t15 14.5t9.5 12.5l3 5l170 -127
q-4 -6 -11.5 -16t-33.5 -35t-56 -44.5t-78.5 -35.5t-101.5 -16q-31 0 -63.5 6.5t-68 23.5t-63 43t-45.5 69t-18 97z" />
    <glyph glyph-name="Ydieresis" unicode="&#x178;" horiz-adv-x="1638" 
d="M-41 1690h543l317 -469l318 469h542l-635 -924v-766h-450v766zM578 2288q91 0 154 -63t63 -154t-63 -154.5t-154 -63.5t-154.5 63.5t-63.5 154.5t63.5 154t154.5 63zM1061 2288q91 0 154 -63t63 -154t-63 -154.5t-154 -63.5t-154 63.5t-63 154.5t63 154t154 63z" />
    <glyph glyph-name="Zacute" unicode="&#x179;" horiz-adv-x="1583" 
d="M139 1690h1424l-760 -1297h706v-393h-1491l760 1296h-639v394zM588 2021l452 398l215 -271l-536 -307z" />
    <glyph glyph-name="zacute" unicode="&#x17a;" horiz-adv-x="1146" 
d="M86 1049h1063l-447 -730h402v-319h-1106l446 729h-358v320zM324 1382l452 398l215 -271l-536 -307z" />
    <glyph glyph-name="Zdotaccent" unicode="&#x17b;" horiz-adv-x="1583" 
d="M139 1690h1424l-760 -1297h706v-393h-1491l760 1296h-639v394zM852 2316q91 0 154 -63t63 -154t-63 -154t-154 -63t-154 63t-63 154t63 154t154 63z" />
    <glyph glyph-name="zdotaccent" unicode="&#x17c;" horiz-adv-x="1146" 
d="M86 1049h1063l-447 -730h402v-319h-1106l446 729h-358v320zM616 1649q91 0 154.5 -63t63.5 -154t-63.5 -154.5t-154.5 -63.5t-154 63.5t-63 154.5t63 154t154 63z" />
    <glyph glyph-name="Zcaron" unicode="&#x17d;" horiz-adv-x="1583" 
d="M139 1690h1424l-760 -1297h706v-393h-1491l760 1296h-639v394zM850 1841l-473 348l160 215l313 -229l313 229l160 -215z" />
    <glyph glyph-name="zcaron" unicode="&#x17e;" horiz-adv-x="1146" 
d="M86 1049h1063l-447 -730h402v-319h-1106l446 729h-358v320zM616 1202l-473 348l160 215l313 -229l314 229l160 -215z" />
    <glyph glyph-name="Scommaaccent" unicode="&#x218;" 
d="M186 1186q0 119 50.5 221t132 169.5t184 105.5t207.5 38q91 0 181.5 -15t153.5 -36t113.5 -42.5t75.5 -36.5l25 -15l-179 -363q-7 4 -19 10.5t-49.5 24t-75.5 30.5t-91.5 23.5t-101.5 10.5q-164 0 -164 -109q0 -31 39 -63t151 -74q53 -20 98.5 -39.5t101.5 -49
t100.5 -60.5t88.5 -73t73.5 -87.5t48 -104t18.5 -121.5q0 -125 -37 -223.5t-99.5 -161t-149.5 -103.5t-179.5 -58t-198.5 -17q-120 0 -231.5 20t-185 48.5t-130 57.5t-82.5 49l-26 20l223 383q9 -7 25.5 -17.5t67 -38t100.5 -48.5t118.5 -38.5t128.5 -17.5q160 0 160 119
q0 25 -9.5 47t-34 44.5t-47.5 39.5t-71.5 41.5t-82.5 40.5t-103 47q-147 66 -232.5 179.5t-85.5 242.5zM684 -82q89 0 151 -61.5t62 -149.5q0 -252 -305 -502l-96 74q4 4 11.5 11t28 31.5t37.5 51t34.5 67t25.5 81.5q-67 15 -110.5 66t-43.5 120q0 88 60 149.5t145 61.5z
" />
    <glyph glyph-name="scommaaccent" unicode="&#x219;" horiz-adv-x="1015" 
d="M594 1081q96 0 188.5 -15.5t136.5 -31.5l44 -16l-134 -281q-124 49 -235 49q-51 0 -68.5 -7.5t-17.5 -26.5q0 -9 3 -16t11 -12.5t16 -10t22.5 -9.5t26 -8.5t32 -9t34.5 -10.5q48 -15 87.5 -31.5t84.5 -46t76 -65t51.5 -88.5t20.5 -115q0 -68 -18 -122.5t-47.5 -92
t-73 -65t-88 -43.5t-100.5 -25t-102 -12t-100 -3q-76 0 -146 11.5t-116.5 28t-82 33.5t-51.5 28l-17 12l168 295q15 -11 41 -27t91.5 -42.5t114.5 -26.5q44 0 61 8t17 26q0 25 -28.5 40t-89.5 36.5t-105 46.5q-94 53 -146.5 119t-52.5 172q0 170 133.5 262t358.5 92z
M498 -82q89 0 151 -61.5t62 -149.5q0 -252 -305 -502l-97 74q4 4 11.5 11t28 31.5t37.5 51t34.5 67t25.5 81.5q-67 15 -110 66t-43 120q0 88 60 149.5t145 61.5z" />
    <glyph glyph-name="circumflex" unicode="&#x2c6;" horiz-adv-x="1224" 
d="M139 1372l473 348l473 -348l-159 -215l-314 229l-313 -229z" />
    <glyph glyph-name="caron" unicode="&#x2c7;" horiz-adv-x="1228" 
d="M614 1157l-473 348l160 215l313 -229l314 229l159 -215z" />
    <glyph glyph-name="breve" unicode="&#x2d8;" horiz-adv-x="1257" 
d="M817 1720l299 -73q-17 -171 -149.5 -277t-337.5 -106t-338 106t-150 277l299 73q0 -8 1.5 -21.5t12 -47.5t28.5 -60t56.5 -47.5t90.5 -21.5t90.5 20.5t56.5 49.5t28 58t12 50z" />
    <glyph glyph-name="dotaccent" unicode="&#x2d9;" horiz-adv-x="731" 
d="M365 1649q91 0 154 -63t63 -154t-63 -154.5t-154 -63.5t-154.5 63.5t-63.5 154.5t63.5 154t154.5 63z" />
    <glyph glyph-name="ring" unicode="&#x2da;" horiz-adv-x="995" 
d="M141 1501q0 136 103 225t254 89t253.5 -88.5t102.5 -225.5q0 -136 -102.5 -224.5t-253.5 -88.5t-254 88.5t-103 224.5zM377 1501q0 -52 36.5 -89.5t84.5 -37.5t84 37.5t36 89.5t-36 89.5t-84 37.5t-84.5 -37.5t-36.5 -89.5z" />
    <glyph glyph-name="ogonek" unicode="&#x2db;" horiz-adv-x="845" 
d="M135 -324q0 72 53.5 166t106.5 152l53 59h189q-7 -6 -17.5 -17.5t-38 -47.5t-48.5 -73.5t-38.5 -90.5t-17.5 -103q0 -26 15 -42.5t36 -16.5q14 0 27 5t21.5 12t15 14.5t9.5 12.5l3 5l170 -127q-4 -6 -11.5 -16t-33.5 -35t-56 -44.5t-78.5 -35.5t-101.5 -16
q-31 0 -63.5 6.5t-68 23.5t-63 43t-45.5 69t-18 97z" />
    <glyph glyph-name="tilde" unicode="&#x2dc;" horiz-adv-x="1247" 
d="M1014 1602l221 -195q-2 -8 -17.5 -37t-50 -75t-77 -87.5t-105.5 -71.5t-129 -30q-52 0 -98 9t-90 30t-66.5 34t-66.5 42q-5 3 -21.5 13.5t-23.5 15t-22.5 12.5t-25.5 12t-23.5 7t-25.5 3q-33 0 -61.5 -16.5t-45.5 -40t-29 -47t-17 -40.5l-4 -16l-222 195q3 8 18 36
t49.5 75t77 88t105.5 71.5t129 30.5q52 0 98 -9t90 -30t67 -34.5t67 -41.5q3 -2 25 -16t30 -18.5t25.5 -13.5t31.5 -12t29 -3q33 0 61.5 16.5t45.5 40t29.5 47t17.5 40.5z" />
    <glyph glyph-name="hungarumlaut" unicode="&#x2dd;" horiz-adv-x="1728" 
d="M219 1323l453 397l215 -270l-535 -307zM838 1323l452 397l215 -270l-536 -307z" />
    <glyph glyph-name="endash" unicode="&#x2013;" horiz-adv-x="1081" 
d="M-45 776h1167v-366h-1167v366z" />
    <glyph glyph-name="emdash" unicode="&#x2014;" horiz-adv-x="2258" 
d="M-45 776h2347v-366h-2347v366z" />
    <glyph glyph-name="quoteleft" unicode="&#x2018;" horiz-adv-x="655" 
d="M281 877q-103 0 -174.5 71t-71.5 174q0 300 358 598l111 -92q-127 -127 -159 -278q-1 -2 -1 -4q79 -21 129.5 -81.5t50.5 -142.5q0 -103 -71 -174t-172 -71z" />
    <glyph glyph-name="quoteright" unicode="&#x2019;" horiz-adv-x="655" 
d="M375 1720q103 0 174.5 -71t71.5 -174q0 -299 -359 -598l-110 92q118 118 154 262q3 10 5 20q-79 21 -129.5 81.5t-50.5 142.5q0 103 71.5 174t172.5 71z" />
    <glyph glyph-name="quotesinglbase" unicode="&#x201a;" horiz-adv-x="649" 
d="M369 487q103 0 174 -71t71 -174q0 -300 -358 -598l-111 92q127 127 159 278q1 2 1 4q-79 21 -129.5 81.5t-50.5 142.5q0 102 71.5 173.5t172.5 71.5z" />
    <glyph glyph-name="quotedblleft" unicode="&#x201c;" horiz-adv-x="1245" 
d="M870 877q-103 0 -174 71t-71 174q0 300 358 598l111 -92q-127 -127 -159 -278l-1 -4q79 -21 129.5 -81.5t50.5 -142.5q0 -102 -71 -173.5t-173 -71.5zM281 877q-103 0 -174.5 71t-71.5 174q0 300 358 598l111 -92q-127 -127 -159 -278q-1 -2 -1 -4q79 -21 129.5 -81.5
t50.5 -142.5q0 -103 -71 -174t-172 -71z" />
    <glyph glyph-name="quotedblright" unicode="&#x201d;" horiz-adv-x="1245" 
d="M377 1720q103 0 174.5 -71t71.5 -174q0 -299 -359 -598l-110 92q118 118 154 262q3 10 5 20q-79 21 -129.5 81.5t-50.5 142.5q0 103 71.5 174t172.5 71zM963 1720q103 0 174 -71t71 -174q0 -300 -358 -598l-111 92q127 127 159 278l1 4q-79 21 -129.5 81.5t-50.5 142.5
q0 103 71.5 174t172.5 71z" />
    <glyph glyph-name="quotedblbase" unicode="&#x201e;" horiz-adv-x="1247" 
d="M967 487q103 0 174 -71t71 -174q0 -300 -358 -598l-111 92q127 127 159 278l1 4q-79 21 -129.5 81.5t-50.5 142.5q0 102 71.5 173.5t172.5 71.5zM371 487q103 0 174 -71t71 -174q0 -300 -358 -598l-111 92q127 127 159 278q1 2 1 4q-79 21 -129.5 81.5t-50.5 142.5
q0 102 71.5 173.5t172.5 71.5z" />
    <glyph glyph-name="dagger" unicode="&#x2020;" horiz-adv-x="1187" 
d="M182 1354h230v407h364v-407h230v-324h-230v-1030h-364v1030h-230v324z" />
    <glyph glyph-name="daggerdbl" unicode="&#x2021;" horiz-adv-x="1187" 
d="M182 1305h230v456h364v-456h230v-324h-230v-209h230v-323h-230v-449h-364v449h-230v323h230v209h-230v324z" />
    <glyph glyph-name="bullet" unicode="&#x2022;" horiz-adv-x="1689" 
d="M842 1200q196 0 332.5 -136t136.5 -333t-136.5 -333t-332.5 -136t-332.5 136t-136.5 333t136.5 333t332.5 136z" />
    <glyph glyph-name="ellipsis" unicode="&#x2026;" horiz-adv-x="2422" 
d="M2025 512q114 0 193.5 -79t79.5 -193t-79.5 -193.5t-193.5 -79.5t-193 79.5t-79 193.5t79 193t193 79zM395 512q114 0 193.5 -79t79.5 -193t-79.5 -193.5t-193.5 -79.5t-193 79.5t-79 193.5t79 193t193 79zM1210 512q114 0 193.5 -79t79.5 -193t-79.5 -193.5
t-193.5 -79.5t-193 79.5t-79 193.5t79 193t193 79z" />
    <glyph glyph-name="perthousand" unicode="&#x2030;" horiz-adv-x="2998" 
d="M33 1317q0 177 133.5 290t333.5 113t333.5 -113t133.5 -290t-133.5 -290.5t-333.5 -113.5t-333.5 113.5t-133.5 290.5zM342 1317q0 -66 47 -110t111 -44t110.5 44t46.5 110t-46.5 109.5t-110.5 43.5q-65 0 -111.5 -43.5t-46.5 -109.5zM1030 373q0 177 133.5 290
t333.5 113t333.5 -113t133.5 -290t-133.5 -290.5t-333.5 -113.5t-333.5 113.5t-133.5 290.5zM1339 373q0 -66 47 -110t111 -44t111 44t47 110t-46.5 109.5t-111.5 43.5t-111.5 -43.5t-46.5 -109.5zM371 0l983 1690h280l-983 -1690h-280zM2032 373q0 177 133.5 290t333.5 113
t333.5 -113t133.5 -290t-133.5 -290.5t-333.5 -113.5t-333.5 113.5t-133.5 290.5zM2341 373q0 -66 47 -110t111 -44t110.5 44t46.5 110t-46.5 109.5t-110.5 43.5q-65 0 -111.5 -43.5t-46.5 -109.5z" />
    <glyph glyph-name="guilsinglleft" unicode="&#x2039;" horiz-adv-x="819" 
d="M78 571l399 512l219 -172l-266 -340l266 -340l-219 -172z" />
    <glyph glyph-name="guilsinglright" unicode="&#x203a;" horiz-adv-x="819" 
d="M123 911l219 172l399 -512l-399 -512l-219 172l266 340z" />
    <glyph glyph-name="fraction" unicode="&#x2044;" horiz-adv-x="542" 
d="M-360 0l983 1690h280l-983 -1690h-280z" />
    <glyph glyph-name="Euro" unicode="&#x20ac;" horiz-adv-x="1703" 
d="M55 1145h203q103 253 344 414t522 161q105 0 201 -15.5t158 -37t109 -43.5t68 -38l21 -15l-188 -385q-5 4 -13.5 10t-38 22t-61.5 28t-82 22t-102 10q-240 0 -399 -133h534v-256h-639q-4 -20 -4 -45l4 -47h639v-256h-534q156 -131 399 -131q81 0 155 23t108 46l34 23
l188 -385q-8 -6 -22.5 -16t-66.5 -36t-111 -46t-156 -36t-201 -16q-275 0 -517.5 161.5t-348.5 412.5h-203v256h146q-4 18 -4 47l4 45h-146v256z" />
    <glyph glyph-name="trademark" unicode="&#x2122;" horiz-adv-x="1058" 
d="M35 1690h373v-123h-115v-406h-141v406h-117v123zM475 1690h150l104 -275l107 275h149l41 -529h-139l-17 277l-98 -277h-84l-98 277l-17 -277h-141z" />
    <glyph glyph-name="minus" unicode="&#x2212;" horiz-adv-x="1302" 
d="M125 1034h1053v-368h-1053v368z" />
    <glyph glyph-name="notequal" unicode="&#x2260;" horiz-adv-x="1306" 
d="M127 1294h602l166 287h281l-166 -287h170v-368h-385l-86 -150h471v-368h-686l-172 -299h-281l172 299h-86v368h301l86 150h-387v368z" />
    <glyph glyph-name="lessequal" unicode="&#x2264;" horiz-adv-x="1394" 
d="M145 369h1123v-369h-1123v369zM145 1280l1123 434v-340l-668 -239l668 -234v-338l-1123 434v283z" />
    <glyph glyph-name="greaterequal" unicode="&#x2265;" horiz-adv-x="1394" 
d="M127 369h1122v-369h-1122v369zM127 1714l1122 -434v-283l-1122 -434v338l668 234l-668 239v340z" />
    <glyph glyph-name="M.1" horiz-adv-x="1986" 
d="M100 1690h516l377 -877l377 877h516v-1690h-450v748l-312 -748h-262l-311 748v-748h-451v1690z" />
    <glyph glyph-name="Q.1" horiz-adv-x="1757" 
d="M27 844q0 182 68 345t183 279t272 184t329 68t329 -68t272 -184t183 -279t68 -345q0 -304 -177 -536.5t-450 -307.5q37 -3 139.5 -22t151.5 -19t93 11.5t72 27.5t49 32.5t31 27.5l9 12l141 -303q-5 -10 -14 -27t-44 -60t-77 -76t-112.5 -60t-149.5 -27q-71 0 -139 18.5
t-123 44.5t-109.5 52t-121.5 44.5t-136 18.5q-63 0 -118 -18t-79 -36l-24 -18l-107 162q6 8 16.5 21.5t44 48t67 60.5t82 46.5t93.5 18.5q-149 25 -280 101t-226.5 188.5t-150.5 262t-55 312.5zM512 844q0 -65 12 -126.5t40 -119.5t69 -101.5t104.5 -69.5t141.5 -26
t141.5 26t104.5 69.5t68.5 101.5t39.5 119.5t12 126.5t-12 126.5t-39.5 119.5t-68.5 101t-104.5 69t-141.5 26q-97 0 -170.5 -39t-115 -104.5t-61.5 -140.5t-20 -158z" />
    <glyph glyph-name="R.1" horiz-adv-x="1519" 
d="M100 1690h668q125 0 230.5 -32.5t186 -96.5t126 -167.5t45.5 -236.5q0 -191 -87.5 -321.5t-238.5 -194.5l164 -184q48 -53 78.5 -68.5t64.5 -15.5q12 0 24 2t21.5 5t18 6.5t14.5 6.5t10.5 5.5t6.5 4t2 0.5l129 -323q-4 -5 -12.5 -12t-38.5 -26.5t-63.5 -34t-87.5 -26.5
t-112 -12q-68 0 -131.5 21t-106 50.5t-75.5 59.5t-48 51l-16 21l-335 430h14v-602h-451v1690zM551 1331v-373h70q260 0 260 185q0 188 -260 188h-70z" />
    <glyph glyph-name="a.1" horiz-adv-x="1294" 
d="M82 272q0 146 97.5 242t269.5 96q81 0 153.5 -14t97 -23t62.5 -26v61q0 59 -67 98t-134 39q-73 0 -143 -11.5t-104 -22.5l-33 -11l-129 291q6 4 18 10t52 21.5t84 27.5t113.5 21.5t141.5 9.5q82 0 164 -13.5t168.5 -49t151.5 -88.5t107 -140.5t42 -197.5v-592h-432v27
q-151 -60 -297 -60q-165 0 -274 83.5t-109 221.5zM504 309q0 -39 39.5 -64.5t97.5 -25.5q55 0 95 25t40 59t-40 60t-95 26q-60 0 -98.5 -21t-38.5 -59z" />
    <glyph glyph-name="j.1" horiz-adv-x="626" 
d="M100 1049h426v-1581h-426v1581zM311 1772q103 0 176.5 -73.5t73.5 -176.5t-73.5 -176.5t-176.5 -73.5t-176.5 73.5t-73.5 176.5t73.5 176.5t176.5 73.5z" />
    <glyph glyph-name="t.1" horiz-adv-x="608" 
d="M100 1442h426v-393h217v-324h-217v-725h-426v725h-155v324h155v393z" />
    <glyph glyph-name="u.1" horiz-adv-x="1378" 
d="M1276 0h-426v98q-57 -57 -137 -94t-162 -37q-56 0 -114.5 10.5t-124 37.5t-116 68.5t-83.5 110t-33 154.5v701h426v-586q0 -71 43 -118.5t113 -47.5q77 0 132.5 55t55.5 127v570h426v-1049z" />
    </font>
</defs>
</svg>
