<svg id="_3D-Xray-icon" data-name="3D-Xray-icon" xmlns="http://www.w3.org/2000/svg" width="64" height="64" viewBox="0 0 64 64">
  <path id="Path_13035" data-name="Path 13035" d="M-3458,701.1v3.355c-.06.422-.13.843-.18,1.266a28.6,28.6,0,0,1-3.76,11.084,24.971,24.971,0,0,0-2.934,8.275,48.842,48.842,0,0,0-.362,7.591,36.946,36.946,0,0,1-3.2,14.434,4.708,4.708,0,0,1-3.342,2.777,1.923,1.923,0,0,0-.288.121h-1.549a.638.638,0,0,0-.157-.1,4.776,4.776,0,0,1-3.843-5.016c0-1.7.015-3.4-.007-5.093a43.372,43.372,0,0,0-2.607-14.312,5.35,5.35,0,0,0-.921-1.605,12.089,12.089,0,0,0-1.494-1.3l-.133.145v.772q0,12.506.011,25.011a1.625,1.625,0,0,1-.657,1.5H-3522V686h38.577a1.516,1.516,0,0,1,.648,1.568c1.181-.385,2.288-.787,3.418-1.1.778-.217,1.589-.314,2.386-.465h6.323a2.03,2.03,0,0,0,.358.114,9.956,9.956,0,0,1,4.048,1.387,17.175,17.175,0,0,1,7.578,10.263C-3458.355,698.851-3458.216,699.985-3458,701.1Zm-17.551,40.141c0,1.086-.006,2.462,0,3.838a2.729,2.729,0,0,0,2.184,2.8,2.634,2.634,0,0,0,3.058-1.691c.815-2.279,1.614-4.574,2.22-6.914a38.327,38.327,0,0,0,.8-9.869,26.769,26.769,0,0,1,3.583-13.677,26.515,26.515,0,0,0,3.581-11.458,15.989,15.989,0,0,0-5.377-13.694,8.562,8.562,0,0,0-5.227-2.417,55.267,55.267,0,0,0-5.8-.049,13.541,13.541,0,0,0-5.838,1.67.678.678,0,0,0-.424.692q.016,14.708,0,29.416a.587.587,0,0,0,.432.657,6.9,6.9,0,0,1,4.114,4.341A46.91,46.91,0,0,1-3475.551,741.238Zm-44.366,6.651h35.022V688.1h-35.022Z" transform="translate(3522 -686)" fill="#fec936"/>
  <path id="Path_13036" data-name="Path 13036" d="M-3490.064,745.871q0-13.161,0-26.322c0-1.274.274-1.549,1.547-1.549h27.874c1.274,0,1.55.276,1.55,1.547q0,26.322,0,52.644c0,1.272-.278,1.55-1.549,1.55h-27.874c-1.273,0-1.549-.276-1.549-1.549Q-3490.065,759.032-3490.064,745.871Zm2.106-25.788v51.567h13.212c-.249-.878-.5-1.717-.726-2.564a43.722,43.722,0,0,1-1.181-11.76,24.689,24.689,0,0,0-3.331-12.749,28.676,28.676,0,0,1-3.812-12.118,18.465,18.465,0,0,1,2.831-11.8c.11-.171.209-.348.343-.574Zm21.64,51.593c0-1.243,0-2.4,0-3.559a46.062,46.062,0,0,1,2.681-15.347,7.334,7.334,0,0,1,2.135-3.166.89.89,0,0,0,.328-.5c.044-.521.016-1.048.016-1.669-.311.167-.521.266-.717.388a10.375,10.375,0,0,0-4.828,6.934q-1.349,6.429-2.71,12.855a1.053,1.053,0,0,1-1.1.963c-.552-.036-.9-.419-.978-1.088-.066-.555-.143-1.108-.191-1.665-.283-3.273-.646-6.542-.811-9.822a32.81,32.81,0,0,0-1.427-9.068c-.812-2.37-1.824-4.673-2.8-6.985a12.066,12.066,0,0,1,6.68-15.937,12.06,12.06,0,0,1,4.53-.85c1.433,0,2.866,0,4.3,0v-3.1h-.748c-5.074,0-10.149.012-15.223-.016a1.478,1.478,0,0,0-1.324.676,16.738,16.738,0,0,0-3.125,12.794,26.888,26.888,0,0,0,3.436,10.046,25.872,25.872,0,0,1,3.486,11.353c.163,2.571.114,5.156.26,7.729a31.605,31.605,0,0,0,1.813,8.672.6.6,0,0,0,.428.343C-3470.268,771.684-3468.336,771.677-3466.319,771.677Zm-1.032-28.427c1.556-.869,1.486-2.568,2.173-3.879l1.886.635c-.588,1.707-.827,3.506-2.393,4.643-.309.225-.531.567-.831.808a2.433,2.433,0,0,0-1,2.1,15.358,15.358,0,0,1-.183,1.923c-.06.637-.106,1.276-.173,2.09,2.086-3.473,3.549-4.932,6.186-6.148a.792.792,0,0,0,.542-.857q-.022-9.353-.01-18.706v-.632c-1.648,0-3.2-.022-4.742,0a10.039,10.039,0,0,0-9.715,9.72,11.661,11.661,0,0,0,1.337,5.384,35.317,35.317,0,0,1,3.239,9.677c.309,1.882.472,3.789.686,5.562.022-.222.063-.577.093-.933.362-4.3,1.006-8.583.858-12.921a16.573,16.573,0,0,1,.287-2.386c-.3-.288-.807-.749-1.276-1.249a.635.635,0,0,0-.789-.188c-.658.244-1.329.452-2.04.69l-.644-1.943,2.167-.754-.773-3.184,1.98-.5c.268,1.05.586,2.055.772,3.084.212,1.174,1.245,1.619,1.9,2.463.407-.678.8-1.271,1.122-1.9a.95.95,0,0,0,.021-.74c-.654-1.377-1.348-2.734-2.029-4.1-.2-.394-.391-.789-.6-1.2l1.835-.913,1.178,2.319c1.478-1.027.85-2.557,1.033-3.892h2.032a12.416,12.416,0,0,0,.01,1.511,3.749,3.749,0,0,1-1.144,3.386,1.621,1.621,0,0,0-.223,2.447,1.432,1.432,0,0,1-.038,1.787c-.864,1.359-1.673,2.754-2.489,4.143a1.638,1.638,0,0,0-.235.711C-3467.373,741.936-3467.351,742.56-3467.351,743.25Zm6.145,28.4V752.582a43.561,43.561,0,0,0-3.006,19.063Z" transform="translate(3494.186 -713.871)" fill="#fec936"/>
</svg>
