<svg id="digital-scanne-icon" xmlns="http://www.w3.org/2000/svg" xmlns:xlink="http://www.w3.org/1999/xlink" width="88.641" height="114.118" viewBox="0 0 88.641 114.118">
  <defs>
    <clipPath id="clip-path">
      <rect id="Rectangle_17307" data-name="Rectangle 17307" width="88.641" height="114.118" fill="#fec936"/>
    </clipPath>
    <clipPath id="clip-path-2">
      <rect id="Rectangle_17081" data-name="Rectangle 17081" width="44.439" height="30.202" fill="#fec936"/>
    </clipPath>
  </defs>
  <g id="Group_38405" data-name="Group 38405">
    <g id="Group_38404" data-name="Group 38404" clip-path="url(#clip-path)">
      <path id="Path_13070" data-name="Path 13070" d="M0,67.39V38.162a1.357,1.357,0,0,1,.031-.289c.816-3.79,2.182-7.294,6.124-8.81,1.768-.68,2.069-1.667,2.05-3.333-.077-6.882-.047-13.766-.026-20.648C8.192,1.01,9.217.006,13.315,0Q44.384,0,75.454,0c4.19,0,5.312,1.1,5.32,5.232.013,6.976-.043,13.952.063,20.927a3.257,3.257,0,0,0,1.313,2.5c4.518,2.075,6.487,5.6,6.483,10.43-.008,9.208.035,18.417-.015,27.624-.036,6.733-4.051,10.736-10.777,10.8-5.2.05-10.4.011-15.6.011-5.736,0-7.082,1.223-7.516,6.995-.09,1.2-.051,2.414-.029,3.574a1.325,1.325,0,0,0,1.075,1.289c3.766.664,9.062-1.937,9.151,5.091.022,1.795.016,4.741-.911,5.18-2.467,1.169-5.3,1.555-8.28,2.184a1.342,1.342,0,0,0-1.072,1.316c.007,2.018.026,4.285-.011,6.551-.052,3.1-1.3,4.34-4.434,4.38-3.715.048-7.431.034-11.146.007-3.626-.026-4.839-1.223-4.9-4.836-.035-2.209-.016-4.419-.01-6.431a1.329,1.329,0,0,0-1.011-1.3c-3.729-.868-8.887,1.957-9.149-4.8-.073-1.882-.127-4.2.841-5.6,1.945-2.818,5.216-1.291,8.3-1.783a1.331,1.331,0,0,0,1.1-1.446c-.211-2.212-.373-4.479-.771-6.7-.469-2.617-2.038-3.821-4.925-3.725-5.938.2-11.887.068-17.832.054-3.911-.01-7.112-1.466-9.008-5A28.189,28.189,0,0,1,.066,67.8,1.326,1.326,0,0,1,0,67.39M14.318,7.956V61.8a1.341,1.341,0,0,0,1.341,1.341H73.488A1.341,1.341,0,0,0,74.829,61.8V7.956a1.341,1.341,0,0,0-1.341-1.342H15.659a1.341,1.341,0,0,0-1.341,1.342M83.2,34.57a1.345,1.345,0,0,0-2.39.84v.022c-.021,9.581.008,19.161-.091,28.741-.036,3.533-1.307,4.731-4.73,4.734q-31.629.033-63.258,0c-3.213,0-4.406-1.088-4.461-4.331-.16-9.482-.187-18.966-.264-28.45,0-.183,0-.366,0-.552a1.344,1.344,0,0,0-2.416-.805,5.917,5.917,0,0,0-1.144,3.716c0,9.136-.042,18.272.013,27.408a7.39,7.39,0,0,0,7.38,7.348q33.234.031,66.469,0c3.747,0,6.011-1.981,6.065-5.771.141-9.764.084-19.532.021-29.3a5.474,5.474,0,0,0-1.191-3.6M50.1,77.878H38.788a1.343,1.343,0,0,0-1.328,1.536c.4,2.766.786,5.424,1.167,8.058a1.34,1.34,0,0,0,1.328,1.148h9.025a1.345,1.345,0,0,0,1.329-1.16l1.12-8.056A1.342,1.342,0,0,0,50.1,77.878m.237,30.642V100.2A1.342,1.342,0,0,0,49,98.861H39.929a1.341,1.341,0,0,0-1.341,1.342v8.318a1.341,1.341,0,0,0,1.341,1.341H49a1.341,1.341,0,0,0,1.342-1.341m2-12.951.09.381a1.341,1.341,0,0,0,1.307,1.043h5.68A1.332,1.332,0,0,0,60.751,95.7c0-.081,0-.16,0-.24-.011-.232-.037-.463-.073-.722a1.34,1.34,0,0,0-1.328-1.152H29.473A1.341,1.341,0,0,0,28.133,95l.04.734A1.341,1.341,0,0,0,29.512,97h5.712a1.342,1.342,0,0,0,1.31-1.054l.079-.356a1.341,1.341,0,0,1,1.311-1.058h13.1a1.343,1.343,0,0,1,1.306,1.034" transform="translate(0 0)" fill="#fec936"/>
    </g>
  </g>
  <g id="Group_35461" data-name="Group 35461" transform="translate(25.671 12.595)">
    <g id="Group_35460" data-name="Group 35460" transform="translate(0 0)" clip-path="url(#clip-path-2)">
      <path id="Path_874" data-name="Path 874" d="M24.317,245.175H19.833c-.126-.017-.25-.042-.377-.05-1.472-.092-2.948-.152-4.415-.278A51.693,51.693,0,0,1,4.1,242.8c-.822-.256-1.631-.535-2.437-.819A2.61,2.61,0,0,1,0,240.348v-.793c.358-.867.726-1.731,1.071-2.6q.949-2.4,1.873-4.8a2.161,2.161,0,0,1,2.065-1.177c.675-.011,1.351,0,2.026,0a3.587,3.587,0,0,1,2.22.429,3.025,3.025,0,0,1,1.767-.43c.646.013,1.294.016,1.939,0a3.092,3.092,0,0,1,2.053.47,6.885,6.885,0,0,1,1.5-.417c1.33-.055,2.672-.07,4,0a7.3,7.3,0,0,1,1.68.511,3.341,3.341,0,0,1,2.122-.567c.718.013,1.437.015,2.155,0a4.121,4.121,0,0,1,2.586.546A2.838,2.838,0,0,1,31,230.969q.969.02,1.939,0a3.235,3.235,0,0,1,1.827.348,10.267,10.267,0,0,1,1.558-.33c.944-.05,1.9-.026,2.843-.011a2.1,2.1,0,0,1,2.049,1.231c.136.4.275.808.435,1.207q1.241,3.105,2.494,6.207v.727c-.053.111-.11.222-.16.334a2.4,2.4,0,0,1-1.462,1.28c-1.025.364-2.058.721-3.114,1.029a57.5,57.5,0,0,1-12.787,2.052l-2.31.132M3.052,235.74c-.537,1.34-1.072,2.629-1.566,3.927-.215.564.158,1.111.832,1.341.471.161.943.318,1.415.476a54.153,54.153,0,0,0,14.417,2.494,74.443,74.443,0,0,0,9.728-.119,54.363,54.363,0,0,0,10.813-1.836c.965-.277,1.881-.654,2.846-.932s1.374-.8,1.073-1.571c-.326-.832-.66-1.663-.993-2.493-.165-.413-.336-.824-.518-1.269-1.177,2.026-4.4,2.376-6.224.691a4.267,4.267,0,0,1-5.84-.168c-.061.179-.1.295-.141.41-.517,1.469-2.492,2.291-4.358,1.789a2.886,2.886,0,0,1-2.276-2.142c-.039-.159-.093-.315-.141-.473a4.3,4.3,0,0,1-1.076,1.887,3.845,3.845,0,0,1-2.387.867,4.047,4.047,0,0,1-2-.424,2.734,2.734,0,0,1-1.531-1.93,4.02,4.02,0,0,1-2.919,1.255,4.078,4.078,0,0,1-2.943-1.078c-1.836,1.689-5.04,1.334-6.212-.7m15.462-3.664h0c-.517,0-1.034,0-1.551,0-.885.009-1.433.492-1.255,1.152.284,1.055.594,2.106.922,3.153a1.848,1.848,0,0,0,1.909,1.14,1.856,1.856,0,0,0,1.871-1.141c.325-1.059.626-2.123.917-3.188.163-.595-.377-1.1-1.176-1.113-.545-.011-1.091,0-1.637,0m7.11,0v0c-.56,0-1.12-.012-1.68,0-.706.019-1.277.507-1.14,1.023.3,1.131.623,2.258.989,3.377a1.814,1.814,0,0,0,1.789,1.039,1.868,1.868,0,0,0,1.879-.992c.376-1.117.7-2.245.989-3.377.156-.613-.406-1.065-1.232-1.075-.531-.007-1.062,0-1.594,0M8.539,233.795h0c0-.385.01-.77,0-1.155-.011-.353-.268-.557-.723-.561q-1.4-.013-2.8,0c-.46,0-.726.2-.732.552-.013.77-.034,1.541.014,2.309a1.97,1.97,0,0,0,2.169,1.5,1.94,1.94,0,0,0,2.069-1.588c.013-.352,0-.7,0-1.056m27.071-.024h0c0,.363-.012.726,0,1.089a1.946,1.946,0,0,0,2.08,1.579c1.1.022,2.095-.63,2.152-1.475.053-.779.032-1.561.018-2.342-.006-.354-.277-.54-.744-.543q-1.377-.01-2.754,0c-.484,0-.743.2-.754.571s0,.748,0,1.122m-21.376.024h0c0-.385.01-.77,0-1.155-.011-.356-.264-.557-.721-.561q-1.4-.013-2.8,0c-.462,0-.725.2-.731.552-.013.759-.028,1.518.008,2.276a1.952,1.952,0,0,0,2.13,1.532,1.947,1.947,0,0,0,2.11-1.588c.013-.352,0-.7,0-1.056m15.681-.011h0c0,.363-.013.726,0,1.089a1.95,1.95,0,0,0,2.094,1.566,1.959,1.959,0,0,0,2.143-1.521c.039-.758.023-1.518.011-2.276-.006-.372-.27-.561-.761-.564q-1.355-.009-2.711,0c-.529,0-.773.2-.781.618-.007.363,0,.726,0,1.089" transform="translate(0.017 -215.33)" fill="#fec936"/>
      <path id="Path_877" data-name="Path 877" d="M69.082,364.286v1.092a55.692,55.692,0,0,1-14.493-2.307l.557-1a53.913,53.913,0,0,0,13.936,2.217" transform="translate(-49.865 -337.773)" fill="#fec936"/>
      <path id="Path_878" data-name="Path 878" d="M241.1,397.045h0a.63.63,0,0,1-.695.533h0a.552.552,0,1,1,0-1.065h0a.63.63,0,0,1,.695.533" transform="translate(-219.02 -369.939)" fill="#fec936"/>
    </g>
  </g>
</svg>
