<svg width="150" height="150" viewBox="0 0 150 150" fill="none" xmlns="http://www.w3.org/2000/svg">
<g clip-path="url(#clip0_1_8980)">
<path d="M19 133.894C19.3371 132.882 19.7494 131.895 20.2334 130.943C20.9739 129.608 22.0652 128.497 23.3907 127.73C24.7163 126.963 26.2265 126.568 27.7603 126.587C31.688 126.525 35.6169 126.571 39.5459 126.57H41.0753V115.729C39.0174 115.729 36.9265 115.694 34.8383 115.738C32.819 115.874 30.8057 115.398 29.0646 114.372C27.4465 113.372 26.1972 111.878 25.5038 110.114C24.8103 108.35 24.7098 106.411 25.2171 104.585C25.718 102.782 26.7868 101.187 28.2669 100.032C29.7469 98.8778 31.56 98.2252 33.4406 98.17C36.9252 98.1021 40.4099 98.1269 43.901 98.1622C44.2956 98.1419 44.6902 98.2009 45.0612 98.3358C45.4323 98.4707 45.7722 98.6786 46.0606 98.947C46.349 99.2155 46.5799 99.5389 46.7396 99.8981C46.8992 100.257 46.9842 100.645 46.9897 101.038C46.9941 101.442 46.9147 101.843 46.756 102.216C46.5972 102.588 46.3627 102.924 46.0673 103.202C45.7719 103.481 45.4218 103.695 45.0391 103.833C44.6563 103.971 44.2494 104.028 43.8432 104.002C40.6506 104.036 37.4592 104.002 34.2679 104.016C32.1403 104.026 30.7898 105.193 30.8043 106.962C30.8187 108.732 32.16 109.869 34.3086 109.871C49.6312 109.877 64.9526 109.877 80.2734 109.871C82.4917 109.871 83.8804 108.68 83.833 106.865C83.787 105.107 82.4418 104.019 80.2722 104.013C77.2268 104.003 74.1826 104.013 71.1372 104.013C68.9899 104.003 67.6513 102.87 67.6447 101.095C67.6382 99.3201 68.9809 98.1948 71.1164 98.1529C75.4811 98.2552 79.8482 98.1392 84.2012 97.8053C94.5682 96.5557 102.53 86.2693 101.462 75.9488C101.414 75.4757 101.285 75.0102 101.21 74.6273C101.141 74.5704 101.067 74.5201 100.989 74.477C98.5316 73.7307 96.734 73.9738 95.2113 76.58C93.8227 78.9589 91.043 79.7497 88.2501 79.619C87.8513 79.5526 87.4417 79.6251 87.0905 79.8242C86.7393 80.0233 86.4679 80.3367 86.3223 80.7116C85.5741 82.1363 84.7444 83.5219 83.8975 84.8943C83.5205 85.5989 83.0009 86.2182 82.3714 86.7134C81.7418 87.2086 81.0159 87.5689 80.2394 87.7717C79.4629 87.9745 78.6525 88.0154 77.8593 87.8918C77.0661 87.7682 76.3072 87.4828 75.6304 87.0535C69.7456 83.7284 63.8823 80.3658 58.0405 76.9657C57.3304 76.5922 56.7058 76.0764 56.2064 75.4509C55.707 74.8253 55.3439 74.1037 55.1393 73.3314C54.9348 72.5591 54.8935 71.7531 55.0183 70.9643C55.1431 70.1754 55.4311 69.4208 55.8642 68.7483C56.6966 67.2556 57.637 65.819 58.401 64.2937C58.5119 64.0329 58.5653 63.7517 58.5583 63.4687C58.5513 63.1856 58.4839 62.9071 58.3602 62.6521C57.4058 61.2452 56.879 59.5949 56.8434 57.8984C56.8077 56.2019 57.2645 54.5311 58.1589 53.0858C63.4687 43.9146 68.7908 34.75 74.1251 25.5919C74.9013 24.1062 76.1036 22.8831 77.5797 22.0771C79.0558 21.2711 80.7392 20.9186 82.417 21.0643C82.7703 21.127 83.1346 21.0649 83.4468 20.8888C83.759 20.7126 83.9995 20.4335 84.1264 20.0998C84.5433 19.2709 85.0085 18.4669 85.52 17.6921C86.0772 17.0364 86.4613 16.2531 86.6379 15.4129C86.8144 14.5728 86.7778 13.7021 86.5313 12.8796C86.3061 11.5457 86.5496 10.1755 87.2205 8.99893C88.4831 6.51838 89.8748 4.10493 91.3901 1.76834C91.9367 1.10239 92.5678 0.509713 93.2678 0.00512695H95.0363C95.2548 0.183203 95.4831 0.349028 95.7201 0.501813C104.811 5.71782 113.902 10.9316 122.993 16.1432C125.265 17.4503 125.647 18.8646 124.356 21.1101C123.091 23.3111 121.777 25.4874 120.542 27.7015C120.088 28.5704 119.437 29.3232 118.642 29.9008C117.846 30.4783 116.927 30.8649 115.956 31.0306C115.505 31.1162 115.103 31.3644 114.825 31.7273C113.837 33.2958 112.906 34.9 112.033 36.5399C111.945 36.7411 111.902 36.9592 111.907 37.1787C111.913 37.3983 111.967 37.6139 112.066 37.8103C113.113 39.2762 113.687 41.0244 113.71 42.8221C113.734 44.6199 113.206 46.3822 112.198 47.8747C111.715 48.6589 111.854 49.0915 112.461 49.7346C114.068 51.3594 115.264 53.3413 115.948 55.5164C116.632 57.6915 116.785 59.9973 116.395 62.243C116.345 62.8638 116.441 63.4877 116.676 64.0651C121.597 78.007 119.397 90.7289 110.077 102.231C109.034 103.514 107.819 104.662 106.605 105.957C112.016 111.816 112.905 119.007 112.37 126.575C115.857 126.575 119.049 126.526 122.232 126.588C123.765 126.571 125.274 126.967 126.599 127.735C127.924 128.502 129.015 129.612 129.756 130.946C130.24 131.898 130.653 132.885 130.993 133.897V150.004H19V133.894ZM124.984 144.089C125.028 143.95 125.061 143.807 125.083 143.662C125.09 141.269 125.095 138.877 125.097 136.485C125.097 133.289 124.219 132.424 120.972 132.424H29.0251C28.5346 132.4 28.0428 132.41 27.5535 132.453C26.9008 132.469 26.2771 132.724 25.802 133.17C25.3269 133.615 25.034 134.219 24.9792 134.865C24.828 137.915 24.933 140.977 24.933 144.088L124.984 144.089ZM92.1329 70.6852C91.7529 70.3637 91.4282 70.135 91.1586 69.854C89.0132 67.607 87.6434 64.7394 87.2478 61.6667C86.8523 58.5939 87.4514 55.4758 88.9586 52.7643C90.483 50.0331 92.8424 47.8549 95.6951 46.5451C98.5477 45.2353 101.746 44.8619 104.826 45.4788C106.634 45.85 107.543 45.1716 107.744 43.3103C107.815 42.6501 107.671 41.9846 107.333 41.412C106.994 40.8394 106.48 40.39 105.865 40.1303C98.5513 35.9477 91.2416 31.7569 83.9358 27.5577C81.7069 26.2847 80.2539 26.716 78.9389 28.9733C76.97 32.349 75.0072 35.7281 73.0506 39.1108C69.8395 44.6457 66.6297 50.1812 63.4213 55.717C62.3286 57.6083 62.5482 59.2158 64.2011 60.1752C71.8277 64.6035 79.475 68.9939 87.1428 73.3464C87.4759 73.5631 87.851 73.7077 88.244 73.7706C88.6369 73.8335 89.0388 73.8133 89.4234 73.7114C89.8081 73.6096 90.1667 73.4283 90.4761 73.1793C90.7855 72.9304 91.0389 72.6196 91.2193 72.2669C91.5191 71.8264 91.7623 71.3466 92.1397 70.6905L92.1329 70.6852ZM107.131 73.7489C108.09 79.9367 106.755 86.26 103.376 91.5432C100.067 96.8414 94.9869 100.813 89.027 102.76C89.3399 104.755 89.6292 106.602 89.9172 108.437C107.143 104.124 116.812 84.7479 112.238 70.4618L107.131 73.7489ZM110.681 59.8524C110.688 57.5307 109.771 55.3005 108.13 53.6479C106.49 51.9953 104.258 51.0543 101.923 51.0298C99.5625 51.0353 97.3002 51.969 95.6302 53.627C93.9603 55.285 93.0183 57.5325 93.01 59.8786C93.0301 62.1998 93.9738 64.4187 95.6347 66.0505C97.2956 67.6824 99.5387 68.5944 101.874 68.5874C103.03 68.5924 104.175 68.3705 105.244 67.9342C106.313 67.4979 107.285 66.856 108.104 66.0453C108.923 65.2346 109.572 64.2712 110.015 63.2102C110.458 62.1492 110.686 61.0117 110.686 59.8629L110.681 59.8524ZM94.7407 126.523C94.7407 124.724 94.7564 123.072 94.7407 121.425C94.7801 120.666 94.6581 119.906 94.3827 119.197C94.1074 118.487 93.6849 117.843 93.1426 117.307C92.6003 116.77 91.9502 116.353 91.235 116.083C90.5198 115.813 89.7556 115.695 88.9917 115.738C84.818 115.716 80.6457 115.738 76.4721 115.738H73.6936V126.534L94.7407 126.523ZM47.1251 126.476H67.5648V115.819H47.1251V126.476ZM115.181 25.179L118.112 20.1011L95.1574 6.92204L92.2119 11.9947L115.181 25.179ZM81.6712 76.9971L63.8078 66.7484L60.8755 71.8276L78.7325 82.067L81.6712 76.9971ZM88.8693 23.6117L106.731 33.8564L109.674 28.789L91.8109 18.539L88.8693 23.6117ZM106.438 126.492C106.85 120.219 106.57 114.306 101.885 109.561L96.5381 112.498C101.214 116.222 100.695 121.447 100.633 126.492H106.438Z" fill="#FFC936"/>
<path d="M59.964 101.514C59.9572 101.916 59.8709 102.312 59.7097 102.68C59.5485 103.048 59.3158 103.381 59.0249 103.66C58.7339 103.938 58.3906 104.157 58.0144 104.304C57.6382 104.45 57.2367 104.521 56.8328 104.513C56.0441 104.48 55.2987 104.146 54.7515 103.58C54.2043 103.014 53.8972 102.261 53.8945 101.476C53.9009 101.075 53.987 100.679 54.1479 100.311C54.3088 99.9426 54.5413 99.6098 54.8321 99.3313C55.1229 99.0529 55.4662 98.8342 55.8422 98.6881C56.2183 98.5419 56.6198 98.4713 57.0235 98.48C57.812 98.5132 58.5572 98.8469 59.1048 99.4119C59.6524 99.9769 59.96 100.73 59.964 101.514Z" fill="#FFC936"/>
</g>
<defs>
<clipPath id="clip0_1_8980">
<rect width="112" height="150" fill="white" transform="translate(19)"/>
</clipPath>
</defs>
</svg>
