<svg width="150" height="150" viewBox="0 0 150 150" fill="none" xmlns="http://www.w3.org/2000/svg">
<g clip-path="url(#clip0_1_8910)">
<mask id="mask0_1_8910" style="mask-type:luminance" maskUnits="userSpaceOnUse" x="17" y="0" width="117" height="151">
<path d="M133.412 0.0682373H17.4121V150.068H133.412V0.0682373Z" fill="white"/>
</mask>
<g mask="url(#mask0_1_8910)">
<path d="M17.4121 88.6476V50.2295C17.4121 50.1018 17.4257 49.9744 17.4527 49.8496C18.5205 44.8679 20.3082 40.2622 25.4668 38.2695C27.7805 37.3757 28.1744 36.0783 28.1496 33.8885C28.0488 24.8426 28.0881 15.7941 28.1156 6.74817C28.1326 1.39581 29.4739 0.0761239 34.8368 0.0682373C61.9424 0.0682373 89.0485 0.0682373 116.155 0.0682373C121.638 0.0682373 123.106 1.51411 123.117 6.94533C123.134 16.1148 123.061 25.2842 123.199 34.4524C123.222 35.0945 123.388 35.7233 123.686 36.2922C123.983 36.861 124.404 37.3554 124.918 37.7385C130.83 40.4659 133.407 45.0993 133.402 51.448C133.391 63.5512 133.447 75.6558 133.382 87.7577C133.335 96.6078 128.081 101.869 119.279 101.954C112.474 102.019 105.669 101.968 98.8638 101.968C91.3573 101.968 89.5959 103.576 89.0279 111.162C88.9102 112.74 88.9612 114.336 88.99 115.86C88.9937 116.262 89.1358 116.651 89.3922 116.96C89.6487 117.268 90.0036 117.479 90.3968 117.555C95.3252 118.427 102.256 115.008 102.372 124.246C102.401 126.606 102.393 130.478 101.18 131.055C97.9516 132.592 94.2442 133.099 90.3445 133.926C89.948 134.008 89.5918 134.224 89.3362 134.54C89.0805 134.855 88.9411 135.249 88.9416 135.656C88.9507 138.308 88.9756 141.288 88.9272 144.266C88.8591 148.341 87.2259 149.971 83.1246 150.024C78.263 150.087 73.4001 150.068 68.5384 150.033C63.7933 149.999 62.2059 148.425 62.126 143.676C62.0802 140.773 62.1051 137.868 62.113 135.223C62.1158 134.83 61.9868 134.448 61.7467 134.138C61.5066 133.828 61.1696 133.608 60.7899 133.514C55.91 132.373 49.1599 136.087 48.8171 127.205C48.7215 124.731 48.6509 121.684 49.9177 119.844C52.463 116.14 56.7436 118.147 60.7794 117.501C61.2145 117.426 61.6051 117.188 61.8723 116.835C62.1395 116.483 62.2634 116.041 62.219 115.6C61.9428 112.692 61.7308 109.713 61.21 106.793C60.5962 103.353 58.543 101.771 54.7649 101.897C46.9941 102.16 39.209 101.986 31.4291 101.968C26.3109 101.955 22.1219 100.041 19.6407 95.3959C18.745 93.3939 18.0281 91.316 17.4985 89.1865C17.4417 89.0126 17.4125 88.8307 17.4121 88.6476ZM36.1494 10.5258V81.2999C36.1494 81.7674 36.3342 82.2158 36.6633 82.5463C36.9925 82.8769 37.4388 83.0626 37.9043 83.0626H113.582C114.048 83.0626 114.494 82.8769 114.823 82.5463C115.152 82.2158 115.337 81.7674 115.337 81.2999V10.5258C115.337 10.2942 115.292 10.0649 115.204 9.85089C115.116 9.63689 114.986 9.44242 114.824 9.2786C114.661 9.11479 114.467 8.98483 114.254 8.89617C114.041 8.80751 113.813 8.76187 113.582 8.76187H37.9043C37.6737 8.76187 37.4454 8.80751 37.2324 8.89617C37.0194 8.98483 36.8259 9.11479 36.6629 9.2786C36.4999 9.44242 36.3707 9.63689 36.2826 9.85089C36.1944 10.0649 36.1492 10.2942 36.1494 10.5258ZM126.292 45.508C126.063 45.2247 125.753 45.0193 125.404 44.92C125.054 44.8207 124.683 44.8322 124.341 44.9531C123.998 45.074 123.701 45.2984 123.491 45.5954C123.28 45.8924 123.166 46.2475 123.164 46.6122V46.6411C123.137 59.2346 123.175 71.8269 123.045 84.4191C122.998 89.063 121.335 90.6376 116.855 90.6416C89.2609 90.6705 61.6667 90.6705 34.0725 90.6416C29.8678 90.6416 28.3066 89.2115 28.2346 84.9488C28.0253 72.4854 27.9899 60.0193 27.8892 47.5533C27.8892 47.3128 27.8892 47.0722 27.8892 46.8277C27.8876 46.4582 27.7707 46.0984 27.555 45.7991C27.3392 45.4998 27.0354 45.276 26.6863 45.1591C26.3373 45.0423 25.9605 45.0384 25.6091 45.1479C25.2577 45.2574 24.9494 45.4749 24.7275 45.7696C23.6949 47.1819 23.1674 48.903 23.2304 50.654C23.2304 62.6627 23.1754 74.6713 23.2474 86.6799C23.2619 89.2443 24.2854 91.6988 26.0946 93.5082C27.9039 95.3176 30.3521 96.3349 32.9052 96.3383C61.8996 96.3655 90.8945 96.3655 119.89 96.3383C124.793 96.3383 127.756 93.7345 127.827 88.7528C128.011 75.9187 127.937 63.0793 127.854 50.24C127.913 48.5265 127.36 46.8485 126.296 45.508M82.9754 102.433H68.172C67.92 102.434 67.6709 102.488 67.4418 102.594C67.2126 102.699 67.0087 102.853 66.8439 103.044C66.679 103.236 66.5571 103.46 66.4864 103.703C66.4157 103.946 66.3979 104.202 66.4341 104.452C66.9576 108.088 67.4627 111.582 67.9613 115.044C68.0218 115.463 68.2308 115.847 68.55 116.124C68.8692 116.401 69.2772 116.554 69.6992 116.553H81.5098C81.9339 116.552 82.3434 116.397 82.663 116.117C82.9825 115.837 83.1906 115.45 83.2489 115.028L84.7146 104.439C84.749 104.189 84.7298 103.935 84.6582 103.694C84.5865 103.452 84.4642 103.229 84.2994 103.039C84.1346 102.849 83.9311 102.696 83.7028 102.592C83.4744 102.487 83.2264 102.433 82.9754 102.433ZM83.2856 142.71V131.774C83.2846 131.308 83.1 130.861 82.7721 130.532C82.4443 130.202 81.9999 130.016 81.5359 130.014H69.6652C69.4346 130.014 69.2063 130.06 68.9933 130.148C68.7803 130.237 68.5868 130.367 68.4238 130.531C68.2608 130.695 68.1316 130.889 68.0435 131.103C67.9554 131.317 67.9101 131.546 67.9103 131.778V142.711C67.9103 142.943 67.9557 143.172 68.0439 143.386C68.132 143.6 68.2613 143.794 68.4243 143.958C68.5872 144.121 68.7807 144.251 68.9936 144.34C69.2065 144.428 69.4347 144.474 69.6652 144.474H81.5359C81.7665 144.474 81.9948 144.429 82.2079 144.34C82.421 144.252 82.6146 144.122 82.7777 143.958C82.9408 143.795 83.0702 143.6 83.1584 143.386C83.2467 143.172 83.2921 142.943 83.2921 142.711M85.9094 125.688L86.0272 126.189C86.1156 126.578 86.3329 126.926 86.6436 127.175C86.9544 127.424 87.3401 127.56 87.7376 127.56H95.1707C95.6246 127.56 96.0606 127.383 96.3861 127.065C96.7116 126.747 96.9009 126.315 96.9139 125.859C96.9139 125.753 96.9139 125.649 96.9139 125.544C96.8995 125.239 96.8655 124.935 96.8183 124.595C96.759 124.174 96.5505 123.789 96.2312 123.511C95.9118 123.233 95.5032 123.08 95.0805 123.08H55.9819C55.7433 123.08 55.5072 123.129 55.2879 123.224C55.0687 123.318 54.871 123.457 54.7069 123.631C54.5427 123.805 54.4156 124.01 54.3334 124.235C54.2511 124.46 54.2154 124.7 54.2283 124.939L54.2807 125.904C54.3058 126.354 54.5013 126.777 54.8272 127.086C55.1531 127.395 55.5845 127.568 56.033 127.568H63.508C63.9081 127.568 64.2962 127.43 64.6079 127.178C64.9197 126.926 65.1364 126.575 65.2223 126.182L65.3257 125.715C65.4103 125.321 65.6268 124.968 65.939 124.715C66.2511 124.462 66.6402 124.324 67.0413 124.324H84.1846C84.5802 124.324 84.9642 124.458 85.2743 124.705C85.5845 124.952 85.8027 125.296 85.8937 125.683" fill="#FFC936"/>
</g>
<mask id="mask1_1_8910" style="mask-type:luminance" maskUnits="userSpaceOnUse" x="50" y="16" width="59" height="41">
<path d="M108.749 16.5552H50.5938V56.2536H108.749V16.5552Z" fill="white"/>
</mask>
<g mask="url(#mask1_1_8910)">
<path d="M82.4396 55.7844H76.5716C76.4067 55.7621 76.2445 55.7292 76.0783 55.7187C74.1519 55.5978 72.2204 55.5189 70.3006 55.3533C65.4454 54.9766 60.645 54.0745 55.9827 52.6627C54.9069 52.3262 53.8482 51.9594 52.7935 51.5862C52.2899 51.4222 51.8312 51.143 51.4535 50.7705C51.0759 50.398 50.7895 49.9424 50.6172 49.4397L50.6172 48.3973C51.0857 47.2577 51.5673 46.1221 52.0188 44.9798C52.8467 42.8767 53.6637 40.7737 54.4699 38.6706C54.7204 38.1756 55.11 37.7653 55.5902 37.4903C56.0705 37.2154 56.6205 37.0878 57.1722 37.1235C58.0556 37.109 58.9402 37.1235 59.8235 37.1235C60.8271 36.992 61.8462 37.1897 62.7287 37.6874C63.4236 37.2652 64.2309 37.0679 65.0411 37.1222C65.8865 37.1393 66.7345 37.1432 67.5786 37.1222C68.5185 37.006 69.4693 37.2246 70.2653 37.74C70.8968 37.4833 71.5554 37.2994 72.2282 37.1918C73.9687 37.1195 75.7249 37.0998 77.4628 37.1918C78.2199 37.3261 78.9581 37.5516 79.6614 37.8635C80.4769 37.3078 81.4555 37.0452 82.4383 37.1182C83.3779 37.1353 84.3188 37.1379 85.2584 37.1182C86.4344 36.9778 87.6236 37.23 88.6426 37.8359C89.3731 37.2895 90.278 37.0317 91.1853 37.1116C92.0307 37.1292 92.8765 37.1292 93.7228 37.1116C94.5472 37.0258 95.3785 37.1848 96.1137 37.5691C96.7811 37.3717 97.4628 37.2267 98.1526 37.1353C99.3879 37.0696 100.639 37.1011 101.873 37.1209C102.431 37.0847 102.986 37.2202 103.465 37.5093C103.944 37.7984 104.324 38.2273 104.554 38.7389C104.732 39.2647 104.914 39.801 105.124 40.3254C106.206 43.0463 107.294 45.7659 108.388 48.4841V49.4397C108.318 49.5856 108.244 49.7315 108.178 49.8787C107.994 50.2776 107.728 50.6334 107.399 50.9231C107.069 51.2129 106.683 51.4302 106.265 51.5612C104.924 52.0396 103.572 52.5089 102.19 52.9137C96.7308 54.4429 91.1173 55.3477 85.4561 55.6109L82.4331 55.7844M54.6112 43.3828C53.9084 45.1441 53.2083 46.8384 52.5618 48.5446C52.2805 49.2859 52.7686 50.0049 53.6506 50.3072C54.267 50.5188 54.8847 50.7252 55.5024 50.9329C61.6147 52.8778 67.9616 53.9806 74.3692 54.2111C78.6115 54.4378 82.8641 54.3855 87.0997 54.0546C91.8855 53.7314 96.6264 52.9229 101.25 51.6413C102.513 51.2773 103.712 50.7817 104.975 50.4163C106.237 50.0509 106.773 49.3648 106.379 48.3513C105.952 47.2577 105.515 46.1654 105.079 45.0745C104.863 44.5316 104.64 43.9914 104.401 43.4065C102.861 46.0695 98.6433 46.5295 96.2563 44.3147C95.1934 45.2612 93.8114 45.7651 92.3916 45.7241C90.9717 45.6831 89.6208 45.1001 88.6138 44.0939C88.534 44.3292 88.483 44.4817 88.4293 44.6328C87.7527 46.5637 85.1682 47.6442 82.7262 46.9843C82.013 46.8518 81.3529 46.5159 80.8247 46.0166C80.2965 45.5173 79.9226 44.8758 79.7477 44.1688C79.6967 43.9598 79.626 43.7548 79.5632 43.5471C79.3129 44.4813 78.8281 45.3353 78.1551 46.0274C77.2724 46.7517 76.1711 47.1535 75.0314 47.167C74.1258 47.2093 73.2246 47.0174 72.4141 46.6097C71.9058 46.3738 71.4597 46.0214 71.1117 45.5808C70.7637 45.1402 70.5235 44.6237 70.4105 44.0729C69.9188 44.5941 69.3265 45.0092 68.6697 45.2928C68.0129 45.5765 67.3055 45.7227 66.5906 45.7225C65.8873 45.7531 65.1849 45.6437 64.5239 45.4005C63.863 45.1573 63.2564 44.7852 62.7392 44.3055C60.3365 46.5256 56.1436 46.059 54.6099 43.3854M74.8442 38.5694C74.1676 38.5694 73.4911 38.5694 72.8145 38.5694C71.6563 38.5812 70.9392 39.2161 71.1721 40.0836C71.5438 41.4703 71.9495 42.8518 72.3787 44.228C72.5768 44.7162 72.9277 45.1265 73.3784 45.3968C73.829 45.6671 74.355 45.7828 74.8769 45.7264C75.3907 45.7698 75.9049 45.6479 76.3451 45.3783C76.7853 45.1086 77.1286 44.7053 77.3254 44.2267C77.7507 42.8347 78.1446 41.4361 78.5254 40.0363C78.7388 39.2542 78.0321 38.5904 76.9865 38.5733C76.2733 38.5588 75.5587 38.5733 74.8442 38.5733M84.1487 38.5733C83.4159 38.5733 82.683 38.5575 81.9502 38.5733C81.0263 38.5983 80.279 39.2397 80.4583 39.918C80.8509 41.4046 81.2736 42.8859 81.7526 44.3568C81.9577 44.797 82.2919 45.1636 82.7103 45.4077C83.1288 45.6518 83.6115 45.7616 84.0938 45.7225C84.587 45.7818 85.0865 45.6888 85.5258 45.4559C85.9651 45.223 86.3233 44.8611 86.5527 44.4186C87.0448 42.9504 87.4688 41.4677 87.847 39.9797C88.0511 39.174 87.3156 38.5799 86.2347 38.5667C85.5398 38.5575 84.8449 38.5667 84.1487 38.5667M61.7917 40.8262C61.7917 40.3202 61.8048 39.8141 61.7917 39.3081C61.7774 38.8441 61.441 38.5759 60.8456 38.5707C59.6242 38.5593 58.4028 38.5593 57.1814 38.5707C56.5794 38.5707 56.2313 38.8336 56.2234 39.2962C56.2064 40.3083 56.1789 41.3218 56.2418 42.3313C56.3886 42.9542 56.7599 43.5004 57.2841 43.8645C57.8083 44.2286 58.4481 44.3848 59.0802 44.3029C59.7091 44.3552 60.3348 44.1703 60.8354 43.7844C61.3359 43.3985 61.6755 42.8393 61.7878 42.2156C61.8048 41.7529 61.7878 41.2955 61.7878 40.8276M97.2143 40.796C97.2143 41.2731 97.1986 41.7503 97.2143 42.2274C97.331 42.8508 97.6742 43.4083 98.1772 43.7919C98.6802 44.1754 99.3071 44.3575 99.9363 44.3029C101.376 44.3318 102.678 43.4748 102.752 42.3641C102.822 41.3402 102.794 40.3123 102.776 39.2857C102.768 38.8204 102.414 38.5759 101.802 38.572C100.601 38.5632 99.3997 38.5632 98.1984 38.572C97.565 38.572 97.226 38.8349 97.2117 39.3225C97.1973 39.8102 97.2117 40.3057 97.2117 40.7973M69.238 40.8289C69.238 40.3228 69.251 39.8167 69.238 39.3107C69.2236 38.8428 68.8925 38.5786 68.2944 38.5733C67.073 38.5619 65.8516 38.5619 64.6302 38.5733C64.0256 38.5733 63.6814 38.8362 63.6736 39.2989C63.6566 40.2965 63.6369 41.2942 63.6841 42.2905C63.8165 42.914 64.1754 43.4656 64.6907 43.8379C65.206 44.2102 65.8408 44.3764 66.4715 44.3042C67.1087 44.3685 67.7466 44.1894 68.2583 43.8026C68.77 43.4158 69.1179 42.8497 69.2327 42.2169C69.2497 41.7542 69.2327 41.2968 69.2327 40.8289M89.7537 40.8144C89.7537 41.2915 89.7366 41.7687 89.7537 42.2458C89.8754 42.8689 90.2232 43.4244 90.7294 43.8047C91.2357 44.185 91.8645 44.363 92.494 44.3042C93.125 44.3793 93.7613 44.2164 94.2795 43.847C94.7976 43.4776 95.1608 42.928 95.2984 42.305C95.3494 41.3086 95.3285 40.3097 95.3128 39.3133C95.305 38.8244 94.9595 38.5759 94.3169 38.572C93.1348 38.5641 91.9522 38.5641 90.7692 38.572C90.0769 38.572 89.7576 38.8349 89.7471 39.3843C89.738 39.8614 89.7471 40.3386 89.7471 40.8157" fill="#FFC936"/>
<path d="M75.7436 51.4047V52.8401C69.316 52.674 62.9386 51.6544 56.7773 49.8077L57.5063 48.4933C63.432 50.263 69.5636 51.2427 75.7436 51.4073" fill="#FFC936"/>
<path d="M79.4904 52.1844C79.4589 52.3968 79.3464 52.5887 79.1766 52.7194C79.0069 52.8502 78.7932 52.9095 78.5808 52.885C78.4736 52.9144 78.3611 52.9186 78.252 52.8972C78.143 52.8758 78.0403 52.8295 77.952 52.7617C77.8637 52.694 77.7921 52.6067 77.7429 52.5067C77.6936 52.4067 77.668 52.2966 77.668 52.185C77.668 52.0734 77.6936 51.9633 77.7429 51.8633C77.7921 51.7632 77.8637 51.676 77.952 51.6082C78.0403 51.5405 78.143 51.4942 78.252 51.4728C78.3611 51.4514 78.4736 51.4556 78.5808 51.485C78.7932 51.4605 79.0069 51.5199 79.1766 51.6506C79.3464 51.7813 79.4589 51.9719 79.4904 52.1844Z" fill="#FFC936"/>
</g>
</g>
<defs>
<clipPath id="clip0_1_8910">
<rect width="116" height="150" fill="white" transform="translate(17)"/>
</clipPath>
</defs>
</svg>
