<svg width="24" height="24" viewBox="0 0 24 24" fill="none" xmlns="http://www.w3.org/2000/svg">
<path d="M12 1L24 5.71429L24 7.28572L22.4 7.28572C22.4 7.49851 22.3146 7.68267 22.1438 7.83817C21.9729 7.99368 21.7708 8.07143 21.5375 8.07143L2.4625 8.07143C2.22916 8.07143 2.02708 7.99368 1.85625 7.83817C1.68541 7.68266 1.6 7.49851 1.6 7.28572L-2.63767e-06 7.28572L-1.97825e-06 5.71429L12 1ZM3.2 8.85714L6.4 8.85714L6.39999 18.2857L7.99999 18.2857L8 8.85714L11.2 8.85714L11.2 18.2857L12.8 18.2857L12.8 8.85714L16 8.85715L16 18.2857L17.6 18.2857L17.6 8.85715L20.8 8.85715L20.8 18.2857L21.5375 18.2857C21.7708 18.2857 21.9729 18.3635 22.1437 18.519C22.3146 18.6745 22.4 18.8586 22.4 19.0714L22.4 19.8571L1.59999 19.8571L1.59999 19.0714C1.59999 18.8586 1.68541 18.6745 1.85624 18.519C2.02708 18.3635 2.22916 18.2857 2.46249 18.2857L3.19999 18.2857L3.2 8.85714ZM23.1375 20.6429C23.3708 20.6429 23.5729 20.7206 23.7437 20.8761C23.9146 21.0316 24 21.2158 24 21.4286L24 23L-9.20997e-06 23L-8.55055e-06 21.4286C-8.46125e-06 21.2158 0.0854083 21.0316 0.256242 20.8761C0.427075 20.7206 0.629159 20.6429 0.862492 20.6429L23.1375 20.6429Z" fill="#051A53"/>
</svg>
