<svg width="24" height="24" viewBox="0 0 24 24" fill="none" xmlns="http://www.w3.org/2000/svg">
<g clip-path="url(#clip0_1_19075)">
<path d="M12 10.4727L10.7828 14.2185L6.84375 14.2185L10.0305 16.5338L8.8125 20.2793L12 17.9648L15.1868 20.2793L13.9688 16.5338L17.1555 14.2185L13.2165 14.2185L12 10.4727ZM13.0643 16.1427L13.7213 18.1662L12 16.9152L10.2773 18.1662L10.9358 16.1427L9.21375 14.8917L11.3423 14.8917L12 12.8682L12.6578 14.8917L14.7855 14.8917L13.0643 16.1427Z" fill="#FFC936"/>
<path d="M16.7464 9.94463L16.7464 6.68288C16.7464 6.54638 16.6718 6.43163 16.566 6.36038L20.25 0.750003L13.1869 0.750002L12.0004 2.52975L10.8139 0.750001L3.75 0.75L7.43363 6.36C7.37926 6.39473 7.33436 6.44241 7.30294 6.49876C7.27153 6.55511 7.25459 6.61837 7.25363 6.68288L7.25363 9.94463C5.57325 11.3201 4.5 13.4093 4.5 15.75C4.5 19.8919 7.85812 23.25 12 23.25C12.2554 23.25 12.5081 23.2369 12.7568 23.2118C16.5431 22.8326 19.5 19.6369 19.5 15.75C19.5 13.4093 18.4268 11.3201 16.7464 9.94463ZM15.3098 1.125L17.6828 1.125L14.3734 6.08963L13.1869 4.30988L15.3098 1.125ZM15.5599 7.86938L15.9248 7.32263C15.9443 7.3695 15.9555 7.4205 15.9555 7.47413L15.9555 9.05625C15.9546 9.15506 15.9146 9.24947 15.8441 9.31875C14.7191 8.6445 13.407 8.25 12 8.25C10.6453 8.25029 9.31624 8.61992 8.15588 9.31913C8.08541 9.24971 8.04535 9.15517 8.0445 9.05625L8.0445 7.47413C8.0445 7.4205 8.05575 7.36913 8.07525 7.32263L8.44013 7.86975L15.5599 7.86938ZM6.31725 1.125L8.69025 1.125L12.9368 7.49438L10.5638 7.49438L6.31725 1.125ZM12 22.125C8.4795 22.125 5.625 19.2709 5.625 15.75C5.625 12.2291 8.4795 9.375 12 9.375C15.5205 9.375 18.375 12.2291 18.375 15.75C18.375 19.2709 15.5205 22.125 12 22.125Z" fill="#FFC936"/>
</g>
<defs>
<clipPath id="clip0_1_19075">
<rect width="24" height="24" fill="white"/>
</clipPath>
</defs>
</svg>
